<svg id="Layer_1" data-name="Layer 1" xmlns="http://www.w3.org/2000/svg" viewBox="0 0 204.31 58.75">
    <defs>
        <style>
            .cls-1 {
                fill: #3b0f7f;
                fill-rule: evenodd;
            }
        </style>
    </defs>
    <path class="cls-1"
        d="M198.31,12.23H180.88v9.84h17.67V30H180.88V41.75h23l-6,9.6h-26.4l.09-1.13-.24.17V9.5l9.27-6.79V2.63h.11l.22-.16v.16h23.43ZM163.68,29.16c-.06.36-.13.79-.23,1.3a24.28,24.28,0,0,1-3,8,25,25,0,0,1-5.41,6.45,25.46,25.46,0,0,1-7.34,4.3,23.88,23.88,0,0,1-8.63,1.57,23.57,23.57,0,0,1-9.56-2,25.27,25.27,0,0,1-7.86-5.3,24.94,24.94,0,0,1-5.33-7.87,24.24,24.24,0,0,1,0-19.19,24.94,24.94,0,0,1,5.33-7.87,25.44,25.44,0,0,1,7.86-5.3,24.23,24.23,0,0,1,16.7-.88,27.11,27.11,0,0,1,6.29,2.91l.85.54a5.24,5.24,0,0,1,.81.65c4.13,2.85,6.31,8.23,6.31,8.23h-9.43a4.33,4.33,0,0,1-.72,0h-.53v-.08a4.56,4.56,0,0,1-1.59-.66L146.4,12.8a17.13,17.13,0,0,0-3.46-1.34,15,15,0,0,0-9.71.69,15.81,15.81,0,0,0-4.8,3.22,15.08,15.08,0,0,0,0,21.43,15.81,15.81,0,0,0,4.8,3.22,14.44,14.44,0,0,0,5.88,1.19,14.88,14.88,0,0,0,4.68-.73,15.06,15.06,0,0,0,4.07-2,14.84,14.84,0,0,0,3.22-3.11,16,16,0,0,0,2.23-4h-6.6l-7.84-9.58h19.74a5.34,5.34,0,0,1,3.72,1.8,5.58,5.58,0,0,1,1.5,3.88V28a.32.32,0,0,1-.08.23A6.79,6.79,0,0,1,163.68,29.16ZM98.33,46.05V36.84H83.21v-.08a3.18,3.18,0,0,1-.85.08l-.83,0V37L64.2,49.16l-2.05,1.52-.07,0L58.75,53V47.45a4.93,4.93,0,0,1-.19-1.4v-20a23.48,23.48,0,0,1,1.54-8.53,25.41,25.41,0,0,1,5.52-8.75,26.37,26.37,0,0,1,7.95-5.45,24.43,24.43,0,0,1,19.27,0A24.79,24.79,0,0,1,106,16.49a23.86,23.86,0,0,1,2,9.6v19.4l-9.54,6.95S98.33,47.38,98.33,46.05Zm0-20a14.69,14.69,0,0,0-1.92-7.38.18.18,0,0,0,0-.11.15.15,0,0,1,0-.12c-.21-.3-.41-.61-.62-.92s-.41-.58-.61-.84A14.83,14.83,0,0,0,83.21,11a14.3,14.3,0,0,0-6.8,1.65A15.84,15.84,0,0,0,71.23,17,15.49,15.49,0,0,0,69,21.17a15,15,0,0,0-.8,4.92V36l14.2-8.74h16ZM51.72,12.93l-.81,4.62,0,.16h0L47,39.92l4.21,18.83L38.23,41.6l3.26-15.8-5.41,5.42a13.08,13.08,0,0,1-4.18,2.84,12.32,12.32,0,0,1-4.94,1,12.61,12.61,0,0,1-5-1,12,12,0,0,1-4.14-2.84L12.14,25.5l3.32,16.1L2.53,58.75,6.75,39.92,2.81,17.71h0l0-.16L2,12.93h.08L0,0,9.5,9.69v0l.61.53L23.78,23.93a4.6,4.6,0,0,0,3.15,1.23A4.52,4.52,0,0,0,30,23.93L44.13,9.72h0L53.69,0l-2,12.93Z" />
</svg>