<svg id="Layer_1" data-name="Layer 1" xmlns="http://www.w3.org/2000/svg" xmlns:xlink="http://www.w3.org/1999/xlink"
    viewBox="0 0 514.34 814.7">
    <defs>
        <style>
            .cls-1 {
                fill: url(#radial-gradient);
            }

            .cls-2 {
                fill: url(#radial-gradient-2);
            }

            .cls-3 {
                fill: url(#radial-gradient-3);
            }

            .cls-4 {
                fill: url(#radial-gradient-4);
            }

            .cls-5 {
                fill: url(#radial-gradient-5);
            }

            .cls-6 {
                fill: url(#radial-gradient-6);
            }
        </style>
        <radialGradient id="radial-gradient" cx="534.93" cy="91.14" r="675.29" gradientUnits="userSpaceOnUse">
            <stop offset="0" stop-color="#c71c89" />
            <stop offset="0.19" stop-color="#c41b89" />
            <stop offset="0.33" stop-color="#bb1987" />
            <stop offset="0.45" stop-color="#ab1685" />
            <stop offset="0.56" stop-color="#941182" />
            <stop offset="0.67" stop-color="#770b7e" />
            <stop offset="0.77" stop-color="#540379" />
            <stop offset="0.81" stop-color="#407" />
        </radialGradient>
        <radialGradient id="radial-gradient-2" cx="534.93" cy="91.14" r="675.27" xlink:href="#radial-gradient" />
        <radialGradient id="radial-gradient-3" cx="534.93" cy="91.15" r="675.27" xlink:href="#radial-gradient" />
        <radialGradient id="radial-gradient-4" cx="534.93" cy="91.14" r="675.28" xlink:href="#radial-gradient" />
        <radialGradient id="radial-gradient-5" cx="292.1" cy="-1.51" r="675.28" xlink:href="#radial-gradient" />
        <radialGradient id="radial-gradient-6" cx="292.09" cy="-1.51" r="675.29" xlink:href="#radial-gradient" />
    </defs>
    <path class="cls-1"
        d="M486.58,704.69c4.28,5.69,14.78,55.16,14.78,55.16s10.54-49.47,14.8-55.16S557.71,685,557.71,685s-37.28-13.93-41.55-19.59-14.8-55.18-14.8-55.18-10.52,49.5-14.78,55.18S445,685,445,685,482.29,699,486.58,704.69Z"
        transform="translate(-242.83 -92.65)" />
    <path class="cls-2"
        d="M422.21,292.39c2.44,3.24,8.42,31.39,8.42,31.39s6-28.15,8.42-31.39S462.7,281.2,462.7,281.2s-21.22-7.93-23.65-11.15-8.42-31.41-8.42-31.41-6,28.17-8.42,31.41-23.64,11.15-23.64,11.15S419.78,289.15,422.21,292.39Z"
        transform="translate(-242.83 -92.65)" />
    <path class="cls-3"
        d="M702.29,468.61c2.44,3.24,8.42,31.39,8.42,31.39s6-28.15,8.43-31.39,23.65-11.19,23.65-11.19-21.22-7.93-23.65-11.15-8.43-31.41-8.43-31.41-6,28.17-8.42,31.41-23.64,11.15-23.64,11.15S699.86,465.37,702.29,468.61Z"
        transform="translate(-242.83 -92.65)" />
    <path class="cls-4"
        d="M483.15,159.92c2.44,3.23,8.42,31.39,8.42,31.39s6-28.16,8.42-31.39,23.65-11.2,23.65-11.2-21.22-7.93-23.65-11.15-8.42-31.4-8.42-31.4-6,28.17-8.42,31.4-23.65,11.15-23.65,11.15S480.71,156.68,483.15,159.92Z"
        transform="translate(-242.83 -92.65)" />
    <polygon class="cls-5"
        points="132.51 597.21 211.69 489.53 171.23 372.97 270.49 181.83 65.11 386.44 106.12 493.67 0 597.21 247.9 814.7 132.51 597.21" />
    <polygon class="cls-6"
        points="378.52 341.17 430.17 224.1 299.25 0 357.03 180.74 288.56 331.99 388.59 555.78 247.9 814.7 514.34 566.13 378.52 341.17" />
</svg>