<svg xmlns="http://www.w3.org/2000/svg" xml:space="preserve" style="enable-background:new 0 0 33 33" viewBox="0 0 33 33"><path d="M5.5-.5h20c3.3 0 6 2.7 6 6v20c0 3.3-2.7 6-6 6h-20c-3.3 0-6-2.7-6-6v-20c0-3.3 2.7-6 6-6z" style="fill-rule:evenodd;clip-rule:evenodd;fill:#181818;stroke:#fff" transform="translate(1 1)"/><path d="M1.8 5.6H-.5V4.2h2.3V2.9c0-.8.2-1.5.7-2.1.5-.7 1.1-1 1.9-1.2.6-.1 1.2-.1 1.9-.1.6.1 1.3.3 1.9.5h.1l-.4 1.3c-.1 0-.2-.1-.3-.1C6.9.8 6 .8 5.2.9c-1 .2-1.6.8-1.7 1.8-.1.3-.1.7-.1 1v.5h4v1.3h-4v8.3H1.8V5.6z" style="fill:#fff" transform="translate(7 9.75)"/><path d="M14.7 9.8c.4-.7.8-1.5 1.2-2.2.1-.3.3-.6.4-.9h-1.5s-.7 1.5-1 2.2c-.3-.7-1.1-2.2-1.1-2.2h-1.6s1.2 2.1 1.7 3c-.5.9-1.7 3-1.7 3h1.6s.7-1.5 1.1-2.1c.3.7 1 2.1 1 2.1h1.5c-.1-.2-1.2-2.2-1.6-2.9zm-4.2 3.5c-.3.2-.5.4-.8.6-2.2-2-2.5-6 0-8.4.3.3.6.5.8.7-.1.1-.1.2-.2.2-.5.7-.9 1.4-1 2.2-.1.5-.1 1-.1 1.6 0 .6.2 1.2.4 1.7s.5.9.9 1.4c0-.1 0 0 0 0zm6.4 0c.3.2.5.4.8.6 2.2-2 2.5-6 0-8.4-.3.2-.5.4-.8.7.1.1.1.2.2.3.5.6.9 1.3 1.1 2.2.1.5.1 1 .1 1.6 0 .6-.2 1.2-.4 1.7-.3.4-.6.8-1 1.3.1-.1 0 0 0 0z" style="fill:#f7d509" transform="translate(7 9.75)"/></svg>