<svg xmlns="http://www.w3.org/2000/svg" data-name="Layer 1" viewBox="0 0 49.48 42.86"><path d="m12.84.28 24.26 14v14.28L0 7.14 11.89.28a1 1 0 0 1 .95 0Z" style="fill:#3ca9e5"/><path d="M37.1 0 24.73 7.14l12.37 7.14V0z" style="fill:#2853c3"/><path d="M37.1 0 49 6.86a1 1 0 0 1 .48.83v28L37.1 28.56V0Z" style="fill:#1a4199"/><path d="m49.47 35.7-11.89 6.86a1 1 0 0 1-1 0l-24.25-14v-14.3Z" style="fill:#2853c3"/><path d="M0 7.14v28a1 1 0 0 0 .48.86l11.89 6.86v-28.6Z" style="fill:#60beff"/><path d="m12.37 42.84 12.36-7.14-12.36-7.14v14.28z" style="fill:#3ca9e5"/></svg>