<svg xmlns="http://www.w3.org/2000/svg" width="2050.13" height="2050.13"><g fill="#17105d"><path d="M1030.38 971.68 1725 816.09a44.93 44.93 0 0 0 35.1-43.84v-1.46a44.92 44.92 0 0 0-39.22-44.56l-694.92-89a44.65 44.65 0 0 0-12 .08l-624.48 88.47a44.92 44.92 0 0 0-38.63 44.48 44.93 44.93 0 0 0 33.94 43.56l624.78 157.58a45 45 0 0 0 20.81.28z"/><path d="M635.07 941.45 567 1237.51s0 50.33 130.27 82.89 239.81 56.25 316.78 56.25 263.5-35.52 263.5-35.52 192.43-50.33 201.32-106.58l-71.06-293.1-384.87 102.14z"/><rect width="59.21" height="390.8" x="1588.38" y="891.12" rx="29.61"/><rect width="59.21" height="113" x="1588.38" y="1345.57" rx="29.61"/></g><circle cx="1025.06" cy="1025.06" r="1000" fill="none" stroke="#17105d" stroke-miterlimit="10" stroke-width="50.128"/></svg>