<svg xmlns="http://www.w3.org/2000/svg" xml:space="preserve" style="enable-background:new 0 0 298.7 298.9" viewBox="0 0 298.7 298.9"><path d="M149.3.4c51.2 0 99.5 15.6 144 41.1l3.3 1.5-1 3.5c-.1 50.1-13.7 99.2-39.3 142.2-24.8 44-60.9 80.7-104.6 106.2l-2.4 1.7-2.6-1.8c-44.2-25.6-77.7-61.7-103.1-106C18.2 144.6 2.9 95.4 2.9 44.3l-.4-2.4 1.7-1.4C48.5 15 98 .1 149.2.1" style="fill:#8d33e5"/><path d="M294.9 40.1C250.7 14.4 200.5.7 149.3.5v294.4l3.3 2c44.1-25.7 80.6-62.5 105.9-106.7 25.7-44 39.3-93.9 39.4-144.8v-3.6l-3-1.7z" style="fill:#7000df"/><path d="M298.4 44.8v-3.9l-3.3-1.9C250.7 13.5 200.4 0 149.2 0S47.7 13.5 3.4 39L0 40.9v3.9C.2 96 13.7 146.2 39.3 190.4c25.6 44.3 62.4 81 106.7 106.6l3.3 1.9 3.3-1.9c44.3-25.5 81.1-62.3 106.7-106.5C285 146.2 298.6 96 298.7 44.8h-.3zM149.1 284.1C63.2 233.9 8.2 144.1 7.6 44.6c43.3-24.3 92-37.1 141.7-37.1S247.7 20.3 291 44.6c-.5 99.7-55.6 189.3-141.7 239.4l-.2.1z" style="fill:#7000df"/><path d="M149.3 284C63.2 233.9 8.2 144.1 7.6 44.6 50.9 20.3 99.7 7.5 149.3 7.5V0C98.1 0 47.7 13.4 3.3 39L0 40.9v3.9C.1 96 13.7 146.2 39.3 190.4c25.6 44.3 62.4 81 106.7 106.6l3.3 1.9V284z" style="fill:#8d33e5"/><path d="M243.1 93c0-1.1-.2-2.3-.6-3.3-3.3-9.6-8.3-18.6-14.6-26.5-1.5-2.1-3.3-4-4.9-6l-1.3-1.5c-.5-.6-1.2-1.1-1.9-1.5-1.4-.8-2.9-1.2-4.5-1.2-.8.1-1.5.2-2.3.5-.4.1-.7.2-1 .4 0 0-54.3 29.4-62.8 33.8-8.4-4.4-62.4-34-63.7-34.1-.7-.3-1.5-.4-2.3-.5-1.6 0-3.2.4-4.5 1.2-.7.4-1.3.9-1.8 1.5l-1.3 1.5c-1.7 1.9-3.3 3.8-4.9 6-6 7.7-10.9 16.2-14.4 25.3-.7 1.4-1 2.9-1 4.4 0 1.5.3 3.1.9 4.4.6 1.4 1.6 2.6 2.8 3.6.2.2.4.4.7.5l.7.5 1 .7L70 108l17 10.6 17 10.7 14.1 8.5.2 59.7V209.3c.1 1.1.4 2.3.8 3.3.9 2 2.2 3.7 3.9 5 1.7 1.3 3.7 2.2 5.8 2.7 2.1.5 4.3 1 6.5 1.3 9.2 1.3 18.4 1.3 27.6 0 3.3-.5 4.1-.7 6.3-1.2s4.2-1.4 5.9-2.8c1.7-1.3 3.1-3 3.9-5 .4-1.1.7-2.2.8-3.3v-1.9s.7-53.9.5-69.5l14-8.5 17.4-10.8 17.1-10.7 8.5-5.3c1.8-.9 3.3-2.2 4.3-3.9 1-1.8 1.6-3.7 1.5-5.7z" style="fill:#3f017f"/><path d="M124.6 134.4c0-5-1.1-10-3.3-14.6-2.2-4.5-5.4-8.5-9.3-11.6-11.2-8.9-28.6-12.1-45.5-8.5-1.1.2-4.2-1.7-5.3-1.9 0 0-.3-.2.3.3s.5 1 .6 1.1l62.4 35.8v-.6z" style="fill:#f4a900"/><path d="M179.2 95.2c13.3-5.2 24.8-18.6 30.1-35 .4-1.2 2.5-1.5 3.3-2.3.3-.2-.7-1.3-.4-1.5l-63 36.3.8.4c4.4 2.5 9.2 4.1 14.3 4.4 5 .4 10.1-.4 14.8-2.3h.1z" style="fill:#78b6e4"/><path d="M172.9 136.1c-4.3 2.5-8 6-10.8 10.2-2.8 4.2-4.5 8.9-5.2 13.9-2 14.1 3.9 30.7 15.5 43.3.9.9.8 2.7 1 3.9 0 .3.4.3.7.5l.3-72.5-1.5.7z" style="fill:#20b5ac"/><path d="M159.9 162.8c.9-5 2.9-9.6 5.8-13.7s6.8-7.4 11.2-9.8l-2.6-4-1.4.9c-4.3 2.5-8 6-10.8 10.2-2.8 4.2-4.5 8.9-5.2 13.9-1.7 12.3 2.6 26.7 11.6 38.6-6.7-10.8-9.8-23.4-8.6-36.1zM179.8 91.5c-4.7 1.7-9.8 2.3-14.8 1.8-5-.5-9.8-2.2-14.1-4.9l-2.3 4.2 1.4.9c4.3 2.5 9.2 4 14.2 4.3 5 .4 10-.4 14.6-2.3 13.2-6 23.8-16.5 29.9-29.7 0-.2-.9-1.3-1.8.7-6 11.1-15.5 19.9-27.1 25zM108.4 110.4c3.7 3 6.7 6.9 8.6 11.3 1.9 4.4 2.7 9.2 2.4 14l4.8 1.5 1.5-1.6c.3-10-4.1-22.7-12-29.2-9.2-7.8-28.6-10.4-41.6-8.4-.5 0-.7.8 2.7.7 12.2-.2 24.1 3.9 33.6 11.7z" style="fill:#3f017f"/><path d="M149.3 216.2c-6.7 0-13.4-.9-19.9-2.6-1.4-.4-2.6-1.2-3.4-2.3-.9-1.1-1.4-2.5-1.4-3.9v-73c0-5-1.1-10-3.2-14.5s-5.3-8.5-9.2-11.6c-11.2-8.9-28.6-12.1-45.5-8.5-.8.2-1.7.2-2.6.1-.9-.1-1.7-.5-2.4-.9-1.5-.9-2.6-2.4-3-4.1-.3-1.3-.2-2.6.3-3.8 2.1-6 4.8-11.9 7.9-17.5 3.3-5.8 7.3-11.2 12.1-15.9 1-1 2.4-1.6 3.8-1.8 1.4-.2 2.9.1 4.1.8l61.5 35.4 1.6 1c4.4 2.5 9.2 4.1 14.3 4.4 5 .4 10.1-.4 14.7-2.4 13.3-5.2 24.8-18.6 30.1-35 .3-.8.7-1.6 1.2-2.3.6-.7 1.3-1.2 2.1-1.6.8-.4 1.6-.7 2.5-.8.9-.1 1.8 0 2.6.3 1.2.4 2.3 1.1 3.1 2.1 4.2 4.9 7.9 10.1 11.2 15.7 3.4 5.8 6 12 7.7 18.5.3 1.4.2 2.9-.3 4.2-.6 1.3-1.5 2.4-2.8 3.1L174.5 135l-1.7 1c-4.3 2.5-8 6-10.7 10.2s-4.6 8.9-5.2 13.8c-2 14.1 3.9 30.7 15.5 43.3.8.9 1.4 2 1.6 3.1.2 1.2.2 2.4-.2 3.5s-1.1 2.1-2 2.9c-1 .8-2.1 1.3-3.3 1.5-6.4 1.2-12.8 1.8-19.2 1.9z" style="fill:#fff"/></svg>