<svg xmlns="http://www.w3.org/2000/svg" xml:space="preserve" style="enable-background:new 0 0 2175.1 2499.5" viewBox="0 0 2175.1 2499.5"><linearGradient id="a" x1="613.012" x2="1100.332" y1="1575.143" y2="1575.143" gradientTransform="matrix(4.4634 0 0 -4.4634 -2736.098 8280.191)" gradientUnits="userSpaceOnUse"><stop offset="0" style="stop-color:#508789"/><stop offset="1" style="stop-color:#7ebbcb"/></linearGradient><path d="M1071.2 4s8.9-4 18.7-4c9.8 0 16.5 4 16.5 4 344.1 198.2 687.8 396.8 1031.9 595.4 22.8 11.2 37.9 34.8 36.6 60.3v1178.8c.9 22.8-10.7 45.5-31.2 56.7-60.7 36.6-122.7 70.5-183.9 106.7-284.8 164.3-569.1 329-853.8 492.8 0 0-7.6 4.9-17 4.9s-18.3-4.9-18.3-4.9c-314.2-179.9-628-362-942.2-542.3-32.6-19.6-66.1-37.5-98.2-57.6-19.1-11.7-30.3-34-30.3-56.3V659.7c-.4-25 13.8-48.2 36.2-59.8 112-65.6 224.5-129.4 337-194.2 148.6-86.6 298.2-171.8 447.2-258C904.3 100.4 986.9 50.9 1071.2 4" style="fill:url(#a)"/><path d="M570.4 990c-.4-19.2 24.5-20.5 36.2-11.2 246.4 141.9 492.8 283.4 739.1 425.8 14.3 5.8 14.3 22.3 6.2 33.5-77.7 134.8-156.2 269.6-233.9 404.4-6.2 9.8-11.6 21-20.1 29.5-8.9 8.5-22.8.9-27.2-8.5-80.3-138.9-159.7-277.7-240.5-416.5-4.5-8.9-11.2-17.4-10.3-27.7.4-9.4 10.7-13.4 17-18.3 67.4-38.8 135.2-77.7 202.2-116.9-17-15.6-38.4-25-58.5-36.6-19.6-9.8-37-23.2-56.7-32.6-6.7-3.6-12.9 1.8-18.7 4.5-40.6 25-83.5 46.9-124.1 72.3-11.2 6.2-29.9 17.4-38.8 2.2-26.3-40.2-46.9-83.5-72.3-124.1-23.2-42-48.7-83-71.9-125.4-8.9-17.4-24.5-33.4-27.7-54.4z" style="fill:#67a1aa"/><path d="M310.2 789.1c-12.5-40.2 25.4-85.3 67-78.6 25.9 2.7 45.5 22.3 68.3 32.6 291.5 168.7 582.9 336.5 874.4 505.3 30.8 16.5 59.4 36.6 91.1 51.8 9.4 5.4 21.4.9 25.9-8.9 43.3-74.1 86.1-149.1 129.4-223.2 12.5-25 30.8-46.9 40.6-73.2 2.7-22.3-28.1-29.9-42.8-17.9-101.3 57.1-201.7 116.5-302.6 174.5-8.9 6.7-18.3-.9-26.3-5.4-32.1-20.5-67-37-99.1-58 70.5-42.4 142.8-82.1 213.8-124.5 121.8-68.7 241.9-140.1 363.8-208.9 23.7-13.8 46.4-29 71.9-40.2 35.3-14.7 80.3 13.8 82.6 52.2 2.7 25.4-13.4 47.3-25.9 67.4-229 397.2-458.8 794-687.8 1191.7-9.8 16.1-18.7 35.3-37 43.3-23.2 12.1-53.1 7.6-71.9-10.3-9.4-10.3-15.6-22.8-23.2-34.8-219.9-381-440.8-761.3-660.9-1142.5-16.9-31.2-39.2-59.3-51.3-92.4M570.4 990c3.1 20.5 18.7 36.6 28.1 54.9 23.2 42 48.7 83 71.9 125.4 25.9 40.6 46 83.9 72.3 124.1 8.9 15.2 27.7 4 38.8-2.2 40.6-25.4 83-47.3 124.1-72.3 5.8-2.7 12.1-8 18.7-4.5 19.6 9.4 37 22.8 56.7 32.6 20.1 11.6 41.5 21 58.5 36.6-67.4 39.3-134.8 78.1-202.2 116.9-6.7 4.9-16.5 8.9-17 18.3-.9 10.3 6.2 18.7 10.3 27.7 80.8 138.4 160.2 277.6 240.6 416.4 4.5 9.4 18.3 17 27.2 8.5 8.5-8.5 13.8-19.2 20.1-29.5 77.7-134.8 156.2-269.6 233.9-404.4 8-10.7 8-27.7-6.2-33.5-245.9-142.4-492.8-283.9-739.1-425.8-12.1-9.8-37.1-8.4-36.7 10.8z"/></svg>