<svg xmlns="http://www.w3.org/2000/svg" xml:space="preserve" style="enable-background:new 0 0 64 64" viewBox="0 0 64 64"><path d="M61.5 19.5c-6.9-16.2-25.7-23.8-42-17s-23.9 25.7-17 41.9 25.7 23.9 41.9 17c7.7-3.2 13.8-9.3 17-17 3.4-7.9 3.4-16.9.1-24.9z" style="fill:#ff2ad4"/><path d="M7.4 26.3h8.2v22l4.6-4.4 11.9-11.2 11.8 11.2 4.6 4.4v-22h8.1c.4 1.8.6 3.7.6 5.6 0 13.9-11.3 25.3-25.2 25.3S6.7 45.8 6.7 31.9c0-1.9.2-3.8.7-5.6m-2.1-2.8C.7 38.3 8.9 54 23.7 58.6s30.5-3.7 35-18.4c.8-2.7 1.3-5.5 1.3-8.3 0-2.8-.4-5.6-1.3-8.4H45.8l-.1 18.4-13.6-13.1-13.8 13.1V23.5h-13z" style="fill:#fff"/><path d="M18.3 20.8H21v14.8l9.1-8.7 1.9-1.8 1.9 1.8 9.1 8.6V20.8h14.7C51.5 6.6 34.9.2 20.8 6.4c-6.4 2.8-11.6 8-14.4 14.4h11.9z" style="fill:#fc0"/></svg>