<svg width="192" height="80" viewBox="0 0 273 80" fill="none" xmlns="http://www.w3.org/2000/svg">
<path d="M263.106 0H9.84381C4.63321 0 0.40918 4.22623 0.40918 9.43955V70.5605C0.40918 75.7738 4.63321 80 9.84381 80H263.106C268.317 80 272.541 75.7738 272.541 70.5605V9.43955C272.541 4.22623 268.317 0 263.106 0Z" fill="black"/>
<path d="M85.0725 34.6533H91.1258L99.6637 58.2012H94.2428L92.4358 53.0532H83.4936L81.6867 58.2012H76.4668L85.0725 34.6533ZM91.058 48.9832L87.932 40.0363L84.8376 48.9832H91.058Z" fill="white"/>
<path d="M117.735 44.913C118.445 46.3674 118.798 47.9704 118.765 49.5888C118.802 51.1988 118.449 52.7939 117.735 54.2374C117.098 55.5114 116.112 56.5786 114.893 57.3154C113.643 58.056 112.211 58.4346 110.758 58.4092C108.54 58.4092 106.803 57.6129 105.547 56.0205V64.9268H100.804V40.904H104.942L105.414 43.2904C106.004 42.4991 106.77 41.8549 107.65 41.4079C108.625 40.9215 109.703 40.6788 110.792 40.7006C112.241 40.6788 113.668 41.0623 114.912 41.8079C116.127 42.5553 117.106 43.6319 117.735 44.913ZM113.954 49.521C113.954 48.0415 113.562 46.8475 112.777 45.939C112.396 45.495 111.92 45.1426 111.384 44.9078C110.849 44.6731 110.267 44.5621 109.683 44.5831C109.103 44.5599 108.526 44.6701 107.996 44.9052C107.466 45.1403 106.996 45.494 106.624 45.939C105.861 46.843 105.48 48.037 105.481 49.521C105.481 51.0276 105.862 52.2389 106.624 53.1549C106.993 53.6054 107.461 53.9643 107.992 54.2035C108.522 54.4427 109.101 54.5556 109.683 54.5335C110.271 54.5527 110.856 54.4368 111.392 54.1947C111.928 53.9526 112.402 53.5907 112.777 53.1368C113.56 52.2133 113.952 51.008 113.954 49.521Z" fill="white"/>
<path d="M137.674 44.9131C138.382 46.3678 138.734 47.9708 138.699 49.5888C138.738 51.1985 138.386 52.7936 137.674 54.2374C137.036 55.5114 136.051 56.5787 134.832 57.3154C133.581 58.056 132.15 58.4346 130.696 58.4092C128.478 58.4092 126.741 57.613 125.486 56.0205V64.9268H120.742V40.904H124.878L125.35 43.2905C125.94 42.4992 126.704 41.855 127.584 41.408C128.563 40.9224 129.645 40.682 130.737 40.7074C132.184 40.6849 133.608 41.066 134.85 41.808C136.065 42.556 137.044 43.6324 137.674 44.9131ZM133.899 49.521C133.899 48.0415 133.507 46.8475 132.722 45.9391C132.342 45.4949 131.867 45.1422 131.331 44.9075C130.796 44.6727 130.214 44.5618 129.63 44.5831C129.05 44.56 128.473 44.6701 127.942 44.9052C127.412 45.1403 126.942 45.494 126.57 45.9391C125.808 46.843 125.427 48.037 125.427 49.521C125.427 51.0276 125.808 52.2389 126.57 53.1549C126.939 53.6055 127.407 53.9644 127.938 54.2036C128.469 54.4427 129.048 54.5556 129.63 54.5335C130.218 54.5532 130.803 54.4375 131.339 54.1954C131.875 53.9532 132.348 53.5911 132.722 53.1368C133.507 52.2133 133.899 51.008 133.899 49.521Z" fill="white"/>
<path d="M154.18 53.3329C155.043 54.038 156.192 54.3905 157.627 54.3905C158.815 54.3905 159.785 54.1389 160.536 53.6357C160.891 53.414 161.183 53.1032 161.381 52.7341C161.579 52.365 161.677 51.9506 161.666 51.5318C161.678 51.2521 161.629 50.9731 161.522 50.7145C161.414 50.456 161.251 50.2242 161.044 50.0358C160.535 49.6168 159.937 49.3179 159.296 49.1612C158.543 48.9488 157.383 48.6851 155.815 48.3702C154.478 48.1388 153.171 47.7598 151.917 47.2403C150.89 46.804 149.999 46.0981 149.34 45.1974C148.677 44.2934 148.347 43.0881 148.348 41.5816C148.332 40.2715 148.727 38.9894 149.477 37.916C150.273 36.8035 151.354 35.9261 152.606 35.3759C154.026 34.7414 155.568 34.4259 157.123 34.4517C158.726 34.4257 160.316 34.7528 161.779 35.4098C163.08 35.9854 164.206 36.8962 165.04 38.0494C165.832 39.159 166.261 40.487 166.267 41.8505H161.324C161.284 41.3796 161.151 40.9215 160.932 40.5029C160.712 40.0842 160.412 39.7134 160.048 39.4121C159.307 38.7944 158.332 38.4863 157.123 38.4878C156.003 38.4878 155.106 38.7236 154.433 39.1951C154.107 39.4173 153.842 39.7194 153.666 40.0727C153.489 40.4259 153.406 40.8186 153.423 41.2132C153.409 41.4867 153.456 41.76 153.56 42.013C153.665 42.266 153.825 42.4924 154.029 42.6753C154.534 43.0742 155.119 43.3608 155.743 43.516C156.484 43.7299 157.628 43.9823 159.174 44.2731C160.529 44.5046 161.858 44.871 163.141 45.3669C164.177 45.7733 165.079 46.4604 165.747 47.351C166.407 48.2369 166.737 49.4196 166.739 50.899C166.757 52.2747 166.346 53.6217 165.562 54.7521C164.731 55.9228 163.598 56.8466 162.284 57.4255C160.8 58.0938 159.187 58.4271 157.559 58.4018C155.829 58.4338 154.113 58.0834 152.534 57.3758C151.147 56.7597 149.956 55.7768 149.087 54.5329C148.262 53.3361 147.818 51.9186 147.811 50.4651L152.753 50.5329C152.78 51.0739 152.921 51.6031 153.167 52.0857C153.413 52.5682 153.758 52.9933 154.18 53.3329Z" fill="white"/>
<path d="M167.007 44.9129V40.9039H169.864V36.0654H174.607V40.9039H178.54V44.9061H174.605V52.4745C174.605 53.0802 174.734 53.5163 174.991 53.7875C175.249 54.0587 175.68 54.1898 176.286 54.1898H178.741V58.1943H174.806C171.513 58.1943 169.866 56.5454 169.864 53.2474V44.9129H167.007Z" fill="white"/>
<path d="M180.27 54.1966C179.529 52.7615 179.143 51.1698 179.143 49.5547C179.143 47.9396 179.529 46.348 180.27 44.9129C181.006 43.5859 182.117 42.5058 183.463 41.8078C184.958 41.0878 186.595 40.7139 188.254 40.7139C189.913 40.7139 191.55 41.0878 193.045 41.8078C194.392 42.5052 195.503 43.5855 196.239 44.9129C196.98 46.3512 197.366 47.9457 197.366 49.5638C197.366 51.1818 196.98 52.7763 196.239 54.2146C195.501 55.5374 194.39 56.6135 193.045 57.3085C191.55 58.0285 189.913 58.4023 188.254 58.4023C186.595 58.4023 184.958 58.0285 183.463 57.3085C182.115 56.6099 181.003 55.527 180.27 54.1966ZM192.557 49.5547C192.557 48.0737 192.171 46.8737 191.398 45.9547C190.626 45.0357 189.578 44.5761 188.254 44.5761C186.956 44.5761 185.919 45.0357 185.144 45.9547C184.368 46.8737 183.982 48.0737 183.985 49.5547C183.985 51.0357 184.371 52.2357 185.144 53.1548C185.916 54.0738 186.953 54.5333 188.254 54.5333C189.578 54.5333 190.626 54.0738 191.398 53.1548C192.171 52.2357 192.557 51.0357 192.557 49.5547Z" fill="white"/>
<path d="M209.873 45.2157H207.985C206.639 45.2157 205.652 45.6195 205.026 46.427C204.4 47.2346 204.088 48.3314 204.091 49.7174V58.1943H199.348V40.9038H203.65L204.089 43.4937C204.55 42.6948 205.21 42.0286 206.004 41.5592C206.767 41.1208 207.788 40.9023 209.065 40.9038H209.871L209.873 45.2157Z" fill="white"/>
<path d="M214.26 41.8073C215.662 41.053 217.235 40.6739 218.827 40.7067C220.428 40.6739 222.013 41.0258 223.45 41.7327C224.745 42.3811 225.829 43.3843 226.576 44.6254C227.594 46.4477 227.952 48.5652 227.59 50.621H215.05V50.7566C215.163 52.0131 215.567 52.9999 216.261 53.7171C216.955 54.4342 217.907 54.7928 219.118 54.7928C219.963 54.8243 220.799 54.6083 221.524 54.1713C222.168 53.7493 222.62 53.0911 222.784 52.3385H227.457C227.285 53.4633 226.834 54.527 226.145 55.4324C225.422 56.375 224.475 57.121 223.389 57.6019C222.151 58.1485 220.808 58.4185 219.455 58.3929C217.529 58.3929 215.865 58.0343 214.463 57.3171C213.103 56.6379 211.978 55.5655 211.235 54.2391C210.459 52.8107 210.07 51.2044 210.106 49.5792C210.106 47.7848 210.47 46.2209 211.199 44.8875C211.902 43.5877 212.965 42.5182 214.26 41.8073ZM221.691 45.1045C220.928 44.5133 219.982 44.2093 219.019 44.2457C218.069 44.2204 217.142 44.5417 216.412 45.1497C215.698 45.7586 215.246 46.6201 215.152 47.5543H222.985C222.83 46.4891 222.398 45.6702 221.691 45.0977V45.1045Z" fill="white"/>
<path d="M79.713 16.8679C80.6195 16.3536 81.648 16.0936 82.69 16.1154C83.8762 16.0743 85.0394 16.4492 85.9786 17.1752C86.8753 17.9051 87.4687 18.9426 87.6433 20.0859H86.1729C85.9928 19.3143 85.5465 18.6309 84.9125 18.156C84.2458 17.6837 83.4433 17.4417 82.6267 17.4667C81.8686 17.4528 81.1227 17.6584 80.4787 18.0588C79.8541 18.4599 79.3585 19.0327 79.0512 19.7085C78.7219 20.4741 78.552 21.2988 78.552 22.1322C78.552 22.9657 78.7219 23.7904 79.0512 24.5559C79.3569 25.2351 79.8527 25.8112 80.4787 26.2146C81.1227 26.6151 81.8686 26.8207 82.6267 26.8067C83.4417 26.8384 84.2444 26.6001 84.9103 26.1288C85.5361 25.644 85.9776 24.9599 86.1616 24.1898H87.632C87.458 25.3296 86.8711 26.3656 85.9832 27.1005C85.1098 27.8101 84.0136 28.1656 82.6945 28.1672C81.6522 28.1893 80.6234 27.9285 79.7175 27.4124C78.8666 26.9162 78.1796 26.1817 77.7411 25.2994C77.2605 24.3154 77.0227 23.2305 77.0477 22.1356C77.0235 21.0449 77.2597 19.9642 77.7366 18.9831C78.1738 18.0994 78.8611 17.3638 79.713 16.8679Z" fill="white"/>
<path d="M89.5202 26.0454C89.1652 25.3305 88.9805 24.543 88.9805 23.7448C88.9805 22.9465 89.1652 22.1591 89.5202 21.4442C89.8674 20.7925 90.3921 20.2527 91.0335 19.8872C91.7175 19.5208 92.4813 19.3291 93.2572 19.3291C94.033 19.3291 94.7969 19.5208 95.4808 19.8872C96.1222 20.2527 96.6469 20.7925 96.9942 21.4442C97.3507 22.1587 97.5363 22.9462 97.5363 23.7448C97.5363 24.5433 97.3507 25.3309 96.9942 26.0454C96.6469 26.6964 96.1221 27.2356 95.4808 27.6002C94.7973 27.9681 94.0333 28.1606 93.2572 28.1606C92.481 28.1606 91.717 27.9681 91.0335 27.6002C90.3922 27.2356 89.8675 26.6964 89.5202 26.0454ZM95.7609 25.3855C95.9946 24.8701 96.1156 24.3107 96.1156 23.7448C96.1156 23.1789 95.9946 22.6195 95.7609 22.1041C95.5392 21.6394 95.1898 21.2475 94.7536 20.9742C94.2998 20.7078 93.7833 20.5673 93.2572 20.5673C92.7311 20.5673 92.2145 20.7078 91.7608 20.9742C91.3254 21.2478 90.9768 21.6397 90.7557 22.1041C90.522 22.6195 90.401 23.1789 90.401 23.7448C90.401 24.3107 90.522 24.8701 90.7557 25.3855C90.976 25.8504 91.3248 26.2425 91.7608 26.5154C92.2145 26.7818 92.7311 26.9223 93.2572 26.9223C93.7833 26.9223 94.2998 26.7818 94.7536 26.5154C95.1902 26.2427 95.5398 25.8506 95.7609 25.3855Z" fill="white"/>
<path d="M112.01 23.085V28.0568H110.635V23.1686C110.635 22.3354 110.457 21.6981 110.102 21.2567C109.918 21.0363 109.686 20.8618 109.423 20.7472C109.16 20.6326 108.874 20.5811 108.588 20.5968C108.265 20.5823 107.944 20.6437 107.649 20.7759C107.354 20.9082 107.094 21.1076 106.89 21.3584C106.476 21.8676 106.269 22.5614 106.271 23.4398V28.0591H104.884V23.1686C104.884 22.3347 104.706 21.6974 104.344 21.2567C104.156 21.0355 103.919 20.8609 103.652 20.7464C103.386 20.6319 103.096 20.5807 102.806 20.5968C102.484 20.5861 102.164 20.6538 101.874 20.7939C101.583 20.934 101.331 21.1424 101.139 21.4013C100.704 22.0147 100.487 22.7563 100.522 23.5076V28.0591H99.1152V19.4352H100.317L100.502 20.6194C100.78 20.2103 101.156 19.8779 101.596 19.6531C102.037 19.4284 102.527 19.3184 103.021 19.3335C103.597 19.3222 104.166 19.465 104.669 19.747C105.152 20.0277 105.53 20.4587 105.745 20.9742C106.363 19.8804 107.361 19.3335 108.737 19.3335C109.171 19.3149 109.604 19.3856 110.01 19.541C110.416 19.6965 110.785 19.9335 111.095 20.2374C111.705 20.8506 112.01 21.7998 112.01 23.085Z" fill="white"/>
<path d="M115.379 16.9941C115.372 17.1928 115.296 17.383 115.165 17.5325C115.034 17.6821 114.855 17.782 114.659 17.8155C114.463 17.8489 114.262 17.8137 114.089 17.716C113.915 17.6183 113.781 17.4639 113.708 17.2788C113.636 17.0937 113.629 16.8892 113.689 16.6997C113.75 16.5102 113.873 16.3473 114.04 16.2383C114.206 16.1293 114.405 16.0809 114.603 16.1012C114.8 16.1216 114.985 16.2094 115.126 16.35C115.21 16.4343 115.276 16.5349 115.319 16.6457C115.363 16.7565 115.383 16.8751 115.379 16.9941ZM115.171 19.4348V28.063H113.797V19.4348H115.171Z" fill="white"/>
<path d="M124.773 23.2539V28.0585H123.387V23.3375C123.387 22.4471 123.187 21.7692 122.788 21.3036C122.386 20.8358 121.81 20.6008 121.053 20.6008C120.691 20.584 120.33 20.6519 119.998 20.799C119.666 20.9461 119.373 21.1684 119.142 21.4483C118.682 22.0102 118.451 22.7771 118.451 23.7488V28.063H117.064V19.4347H118.264L118.451 20.6008C119.103 19.7556 120.05 19.333 121.291 19.333C122.345 19.333 123.187 19.6486 123.818 20.2799C124.449 20.9112 124.767 21.9025 124.773 23.2539Z" fill="white"/>
<path d="M134.732 27.6361C134.732 30.2395 133.306 31.542 130.454 31.5435C129.338 31.5435 128.428 31.2896 127.723 30.7819C127.375 30.5304 127.086 30.2068 126.875 29.8331C126.664 29.4595 126.535 29.0446 126.499 28.6169H127.92C127.968 28.8739 128.07 29.1179 128.218 29.3335C128.366 29.549 128.558 29.7314 128.78 29.8689C129.319 30.1803 129.934 30.3324 130.556 30.3073C132.417 30.3073 133.347 29.3996 133.347 27.5841V26.5694C132.727 27.624 131.741 28.1513 130.389 28.1513C129.642 28.1642 128.905 27.9835 128.25 27.627C127.621 27.2739 127.109 26.7444 126.777 26.1039C126.406 25.3706 126.223 24.5569 126.244 23.7355C126.228 22.9362 126.411 22.1455 126.777 21.4349C127.115 20.7915 127.626 20.2553 128.252 19.8869C128.899 19.5103 129.636 19.3173 130.384 19.3287C131.007 19.3106 131.623 19.453 132.175 19.7422C132.668 20.0159 133.073 20.4242 133.343 20.9197L133.528 19.4304H134.728L134.732 27.6361ZM133.009 25.4101C133.252 24.9012 133.373 24.3425 133.363 23.7784C133.374 23.2027 133.252 22.6323 133.009 22.1106C132.788 21.645 132.439 21.2527 132.001 20.9807C131.557 20.7064 131.044 20.5652 130.522 20.5739C130.132 20.5594 129.745 20.6315 129.386 20.7851C129.028 20.9387 128.709 21.1699 128.451 21.462C127.91 22.1007 127.629 22.9196 127.665 23.7558C127.63 24.5913 127.91 25.4094 128.451 26.0474C128.709 26.3395 129.028 26.5707 129.386 26.7243C129.745 26.8779 130.132 26.95 130.522 26.9355C131.042 26.9439 131.555 26.8061 132.001 26.5378C132.44 26.2681 132.79 25.8762 133.009 25.4101Z" fill="white"/>
<path d="M142.823 26.4834C143.292 26.7809 143.832 26.9495 144.387 26.9721C144.942 26.9947 145.493 26.8706 145.985 26.6122C146.156 26.5179 146.299 26.3796 146.399 26.2115C146.498 26.0434 146.551 25.8517 146.552 25.6563C146.562 25.5148 146.542 25.3728 146.496 25.2389C146.449 25.1049 146.376 24.9817 146.281 24.8767C146.088 24.689 145.845 24.5604 145.581 24.506C145.292 24.4382 144.885 24.3704 144.354 24.3027C143.736 24.2386 143.125 24.1222 142.527 23.9546C142.088 23.8278 141.691 23.5851 141.377 23.2518C141.067 22.8801 140.911 22.4041 140.939 21.9208C140.931 21.4338 141.083 20.9577 141.371 20.5649C141.673 20.1587 142.079 19.8405 142.545 19.6429C143.074 19.4169 143.644 19.3045 144.219 19.3129C145.232 19.3129 146.06 19.5502 146.703 20.0248C147.021 20.2628 147.28 20.5692 147.463 20.9212C147.646 21.2733 147.748 21.662 147.76 22.0586H146.367C146.34 21.8371 146.267 21.6236 146.154 21.4315C146.04 21.2393 145.888 21.0728 145.707 20.9423C145.292 20.6339 144.785 20.4747 144.268 20.4903C143.77 20.4674 143.276 20.5941 142.85 20.8541C142.684 20.9527 142.547 21.0926 142.452 21.2602C142.357 21.4278 142.307 21.6173 142.308 21.8101C142.3 21.9345 142.319 22.0591 142.362 22.1759C142.406 22.2927 142.474 22.399 142.561 22.488C142.745 22.6533 142.971 22.7643 143.214 22.8089C143.477 22.8662 143.88 22.9279 144.422 22.9942C145.055 23.0597 145.68 23.1846 146.29 23.3671C146.749 23.5041 147.159 23.7681 147.474 24.1286C147.792 24.532 147.952 25.0371 147.925 25.5501C147.935 26.0446 147.775 26.5276 147.474 26.9195C147.15 27.325 146.724 27.637 146.24 27.8235C145.692 28.0441 145.106 28.154 144.515 28.1466C143.387 28.1466 142.483 27.8867 141.804 27.367C141.47 27.1161 141.201 26.7884 141.02 26.4116C140.838 26.0349 140.75 25.62 140.763 25.2021H142.15C142.154 25.4534 142.217 25.7002 142.334 25.9227C142.451 26.1452 142.618 26.3373 142.823 26.4834Z" fill="white"/>
<path d="M149.731 26.0454C149.376 25.3305 149.191 24.543 149.191 23.7448C149.191 22.9465 149.376 22.1591 149.731 21.4442C150.078 20.7925 150.603 20.2527 151.244 19.8872C151.928 19.5208 152.692 19.3291 153.468 19.3291C154.244 19.3291 155.008 19.5208 155.692 19.8872C156.334 20.252 156.859 20.792 157.205 21.4442C157.562 22.1587 157.747 22.9462 157.747 23.7448C157.747 24.5433 157.562 25.3309 157.205 26.0454C156.859 26.6969 156.334 27.2362 155.692 27.6002C155.008 27.9681 154.244 28.1606 153.468 28.1606C152.692 28.1606 151.928 27.9681 151.244 27.6002C150.603 27.2356 150.078 26.6964 149.731 26.0454ZM155.972 25.3855C156.206 24.8701 156.327 24.3107 156.327 23.7448C156.327 23.1789 156.206 22.6195 155.972 22.1041C155.751 21.6387 155.402 21.2465 154.965 20.9742C154.511 20.7078 153.994 20.5673 153.468 20.5673C152.942 20.5673 152.426 20.7078 151.972 20.9742C151.536 21.2478 151.188 21.6397 150.967 22.1041C150.733 22.6195 150.612 23.1789 150.612 23.7448C150.612 24.3107 150.733 24.8701 150.967 25.3855C151.187 25.8504 151.536 26.2425 151.972 26.5154C152.426 26.7818 152.942 26.9223 153.468 26.9223C153.994 26.9223 154.511 26.7818 154.965 26.5154C155.402 26.2434 155.752 25.8511 155.972 25.3855Z" fill="white"/>
<path d="M159.571 26.0454C159.216 25.3305 159.031 24.543 159.031 23.7448C159.031 22.9465 159.216 22.1591 159.571 21.4442C159.918 20.7925 160.443 20.2527 161.084 19.8872C161.768 19.5208 162.532 19.3291 163.308 19.3291C164.084 19.3291 164.848 19.5208 165.532 19.8872C166.173 20.2527 166.698 20.7925 167.045 21.4442C167.402 22.1587 167.587 22.9462 167.587 23.7448C167.587 24.5433 167.402 25.3309 167.045 26.0454C166.698 26.6964 166.173 27.2356 165.532 27.6002C164.848 27.9681 164.084 28.1606 163.308 28.1606C162.532 28.1606 161.768 27.9681 161.084 27.6002C160.443 27.2356 159.918 26.6964 159.571 26.0454ZM165.81 25.3855C166.045 24.8705 166.166 24.311 166.166 23.7448C166.166 23.1786 166.045 22.6191 165.81 22.1041C165.59 21.6389 165.241 21.2466 164.804 20.9742C164.351 20.7078 163.834 20.5673 163.308 20.5673C162.782 20.5673 162.265 20.7078 161.812 20.9742C161.375 21.2466 161.026 21.6389 160.806 22.1041C160.571 22.6191 160.45 23.1786 160.45 23.7448C160.45 24.311 160.571 24.8705 160.806 25.3855C161.026 25.8509 161.375 26.2432 161.812 26.5154C162.265 26.7818 162.782 26.9223 163.308 26.9223C163.834 26.9223 164.351 26.7818 164.804 26.5154C165.241 26.2432 165.59 25.8509 165.81 25.3855Z" fill="white"/>
<path d="M176.887 23.2539V28.0585H175.5V23.3375C175.5 22.4471 175.3 21.7692 174.899 21.3036C174.499 20.8381 173.921 20.6038 173.167 20.6008C172.805 20.5837 172.443 20.6514 172.111 20.7985C171.78 20.9456 171.487 21.1681 171.256 21.4483C170.794 22.0102 170.563 22.7771 170.563 23.7488V28.063H169.176V19.4347H170.377L170.563 20.6008C171.215 19.7556 172.162 19.333 173.404 19.333C174.458 19.333 175.301 19.6486 175.932 20.2799C176.563 20.9112 176.881 21.9025 176.887 23.2539Z" fill="white"/>
<path d="M182.111 20.6984V19.4351H183.665V17.0103H185.052V19.4351H187.234V20.7029H185.052V25.7966C185.026 26.0702 185.101 26.3439 185.264 26.565C185.365 26.6511 185.483 26.7157 185.609 26.7545C185.736 26.7934 185.869 26.8058 186.001 26.791H187.505V28.061H185.924C185.114 28.061 184.536 27.8802 184.192 27.5187C183.848 27.1571 183.674 26.5876 183.674 25.8102V20.6984H182.111Z" fill="white"/>
<path d="M188.501 26.0453C188.146 25.3305 187.961 24.543 187.961 23.7448C187.961 22.9465 188.146 22.1591 188.501 21.4442C188.848 20.7919 189.374 20.2519 190.016 19.8872C190.7 19.5208 191.463 19.3291 192.239 19.3291C193.014 19.3291 193.778 19.5208 194.461 19.8872C195.103 20.252 195.628 20.792 195.975 21.4442C196.331 22.1587 196.517 22.9462 196.517 23.7448C196.517 24.5433 196.331 25.3309 195.975 26.0453C195.628 26.6969 195.103 27.2362 194.461 27.6002C193.778 27.9681 193.015 28.1606 192.239 28.1606C191.463 28.1606 190.699 27.9681 190.016 27.6002C189.374 27.2363 188.848 26.697 188.501 26.0453ZM194.741 25.3855C194.975 24.8701 195.096 24.3107 195.096 23.7448C195.096 23.1789 194.975 22.6195 194.741 22.1041C194.521 21.6387 194.171 21.2465 193.734 20.9742C193.28 20.7078 192.764 20.5673 192.238 20.5673C191.712 20.5673 191.195 20.7078 190.741 20.9742C190.306 21.2478 189.957 21.6397 189.736 22.1041C189.502 22.6195 189.382 23.1789 189.382 23.7448C189.382 24.3107 189.502 24.8701 189.736 25.3855C189.956 25.8504 190.305 26.2425 190.741 26.5154C191.195 26.7818 191.712 26.9223 192.238 26.9223C192.764 26.9223 193.28 26.7818 193.734 26.5154C194.171 26.2434 194.521 25.8511 194.741 25.3855Z" fill="white"/>
<path d="M201.556 20.6984V19.4351H203.11V17.0103H204.497V19.4351H206.678V20.7029H204.497V25.7966C204.47 26.0702 204.546 26.3439 204.709 26.565C204.809 26.651 204.926 26.7154 205.052 26.7543C205.179 26.7931 205.312 26.8056 205.443 26.791H206.949V28.061H205.368C204.557 28.061 203.979 27.8802 203.636 27.5187C203.293 27.1571 203.12 26.5876 203.119 25.8102V20.6984H201.556Z" fill="white"/>
<path d="M215.664 23.2546V28.0591H214.278V23.3382C214.278 22.4478 214.074 21.7698 213.668 21.3043C213.261 20.8387 212.681 20.6045 211.926 20.6015C211.565 20.5847 211.204 20.6521 210.873 20.7983C210.542 20.9446 210.249 21.1658 210.018 21.4444C209.549 22.0064 209.316 22.7732 209.318 23.745V28.0591H207.931V16.2173H209.318V20.8523C209.6 20.3998 209.987 20.0223 210.447 19.7517C210.969 19.4558 211.563 19.3096 212.163 19.3291C213.218 19.3291 214.063 19.6448 214.7 20.276C215.337 20.9073 215.658 21.9001 215.664 23.2546Z" fill="white"/>
<path d="M219.089 19.8874C219.737 19.5141 220.474 19.3243 221.221 19.3383C221.95 19.3238 222.671 19.4924 223.317 19.8287C223.923 20.1514 224.422 20.6428 224.754 21.2434C225.117 21.9132 225.309 22.6624 225.312 23.4242C225.312 23.5485 225.301 23.7474 225.278 24.0163H218.583V24.1361C218.568 24.8894 218.847 25.6189 219.36 26.17C219.614 26.4247 219.918 26.6239 220.253 26.755C220.587 26.8861 220.946 26.9462 221.305 26.9316C221.868 26.9486 222.422 26.7855 222.886 26.4661C223.322 26.1539 223.631 25.6949 223.756 25.1734H225.152C225.001 26.0213 224.55 26.7866 223.882 27.3294C223.181 27.8969 222.299 28.1944 221.398 28.1678C220.609 28.1874 219.83 27.9971 219.139 27.6164C218.5 27.2541 217.981 26.7139 217.644 26.0615C217.279 25.3473 217.095 24.554 217.111 23.7519C217.093 22.9488 217.27 22.1533 217.626 21.4332C217.955 20.7884 218.463 20.2518 219.089 19.8874ZM223.055 21.1643C222.543 20.7479 221.897 20.5319 221.237 20.5564C220.601 20.5456 219.984 20.7711 219.505 21.1891C219.261 21.3991 219.061 21.655 218.916 21.9423C218.771 22.2297 218.684 22.5428 218.66 22.8637H223.869C223.854 22.539 223.775 22.2206 223.635 21.9271C223.495 21.6337 223.298 21.3712 223.055 21.1552V21.1643Z" fill="white"/>
<path d="M61.317 30.9719C59.446 32.1171 57.9248 33.7538 56.9188 35.7039C55.9129 37.6539 55.4608 39.8427 55.6117 42.0319C55.7627 44.2212 56.5108 46.3271 57.7748 48.1206C59.0388 49.914 60.7702 51.3262 62.7806 52.2035C62.5661 52.8092 62.365 53.4374 62.1256 54.0521C60.7529 57.4345 58.8287 60.5656 56.4314 63.3176C55.4175 64.8132 53.8727 65.8665 52.1106 66.2635C50.3486 66.6606 48.5016 66.3717 46.9448 65.4555C45.3958 64.6906 43.6917 64.2927 41.9643 64.2927C40.237 64.2927 38.5328 64.6906 36.9839 65.4555C36.4852 65.6795 35.9738 65.8741 35.4525 66.0385C34.3739 66.4646 33.1964 66.5741 32.0578 66.3544C30.9193 66.1346 29.8669 65.5947 29.0242 64.7979C26.5266 62.4935 24.4746 59.7487 22.9708 56.7007C20.0562 51.4037 18.7478 45.3718 19.2055 39.3425C19.3614 36.4501 20.3786 33.6705 22.1263 31.3612C23.8741 29.0519 26.2725 27.3187 29.0129 26.3844C31.4703 25.605 34.1221 25.7049 36.5141 26.6669C41.8785 28.7505 40.8056 28.5832 46.0503 26.6669C48.394 25.678 50.9795 25.4128 53.4749 25.9053C55.9704 26.3978 58.2616 27.6255 60.0544 29.4307C60.3686 29.7492 60.6614 30.0881 60.9308 30.4454C61.0798 30.5991 61.1905 30.807 61.317 30.9719Z" fill="white"/>
<path d="M51.5485 12.793C51.8463 15.7361 50.9635 18.6771 49.0942 20.9691C47.2249 23.2611 44.5223 24.7163 41.5808 25.0147C41.3888 25.0328 41.1945 25.0486 41.0025 25.0576C39.5299 20.1129 45.7436 12.8427 51.5485 12.793Z" fill="white"/>
</svg>
