<svg width="32" height="32" viewBox="0 0 38 38" fill="none" xmlns="http://www.w3.org/2000/svg">
<g clip-path="url(#clip0_7369_46353)">
<path fill-rule="evenodd" clip-rule="evenodd" d="M4.92602 7.92629C5.02181 7.83025 5.13561 7.75406 5.2609 7.70207C5.38618 7.65008 5.5205 7.62332 5.65614 7.62332C5.79179 7.62332 5.9261 7.65008 6.05139 7.70207C6.17667 7.75406 6.29047 7.83025 6.38627 7.92629L29.0738 30.6138C29.2674 30.8074 29.3762 31.0701 29.3762 31.3439C29.3762 31.6178 29.2674 31.8804 29.0738 32.074C28.8801 32.2677 28.6175 32.3765 28.3436 32.3765C28.0698 32.3765 27.8072 32.2677 27.6135 32.074L4.92602 9.38654C4.82998 9.29074 4.75378 9.17694 4.7018 9.05166C4.64981 8.92637 4.62305 8.79206 4.62305 8.65641C4.62305 8.52077 4.64981 8.38646 4.7018 8.26117C4.75378 8.13588 4.82998 8.02208 4.92602 7.92629Z" fill="#25252A"/>
<path fill-rule="evenodd" clip-rule="evenodd" d="M4.92602 32.074C5.02181 32.17 5.13561 32.2462 5.2609 32.2982C5.38618 32.3502 5.5205 32.377 5.65614 32.377C5.79179 32.377 5.9261 32.3502 6.05139 32.2982C6.17667 32.2462 6.29047 32.17 6.38627 32.074L29.0738 9.38648C29.2674 9.19284 29.3762 8.93021 29.3762 8.65636C29.3762 8.38251 29.2674 8.11987 29.0738 7.92623C28.8801 7.73259 28.6175 7.62381 28.3436 7.62381C28.0698 7.62381 27.8072 7.73259 27.6135 7.92623L4.92602 30.6137C4.82998 30.7095 4.75378 30.8233 4.7018 30.9486C4.64981 31.0739 4.62305 31.2082 4.62305 31.3439C4.62305 31.4795 4.64981 31.6138 4.7018 31.7391C4.75378 31.8644 4.82998 31.9782 4.92602 32.074Z" fill="#25252A"/>
</g>
<defs>
<clipPath id="clip0_7369_46353">
<rect width="37" height="37" fill="white" transform="translate(0.5 37.5) rotate(-90)"/>
</clipPath>
</defs>
</svg>
