<svg width="192" height="80" viewBox="0 0 273 80" fill="none" xmlns="http://www.w3.org/2000/svg">
<path d="M263.106 0H9.84381C4.63321 0 0.40918 4.22623 0.40918 9.43955V70.5605C0.40918 75.7738 4.63321 80 9.84381 80H263.106C268.317 80 272.541 75.7738 272.541 70.5605V9.43955C272.541 4.22623 268.317 0 263.106 0Z" fill="black"/>
<path d="M50.1163 37.7604L27.3101 14.8813L56.3277 31.548L50.1163 37.7604ZM21.3561 13.5366C20.6766 13.8716 20.1057 14.3921 19.7092 15.0379C19.3128 15.6837 19.1069 16.4285 19.1155 17.1863V62.8249C19.1069 63.5827 19.3128 64.3276 19.7092 64.9734C20.1057 65.6192 20.6766 66.1396 21.3561 66.4746L47.8734 40L21.3561 13.5366ZM65.297 36.861L59.2098 33.3355L52.4201 40L59.2098 46.6689L65.4213 43.1435C67.2802 41.6655 67.2802 38.3367 65.297 36.8565V36.861ZM27.3101 65.13L56.3277 48.4633L50.1163 42.2599L27.3101 65.13Z" fill="white"/>
<path d="M82.8704 35.9319C84.6307 34.9436 86.6989 34.4502 89.075 34.4517C90.8051 34.4238 92.5186 34.7917 94.0848 35.5274C95.5203 36.2093 96.754 37.2528 97.6649 38.5556C98.5867 39.8836 99.1628 41.4208 99.3409 43.0279H94.3717C94.1138 41.7984 93.4504 40.6913 92.4879 39.8844C91.5468 39.1085 90.37 38.7213 88.9576 38.7228C87.7553 38.6964 86.5736 39.0369 85.5695 39.6991C84.5841 40.3754 83.8135 41.3206 83.3492 42.4222C82.8145 43.6883 82.5513 45.0525 82.5767 46.4267C82.5767 48.7363 83.1429 50.5977 84.2753 52.0109C85.4076 53.424 86.9662 54.1299 88.9508 54.1284C90.3337 54.1514 91.688 53.7335 92.8177 52.9352C93.938 52.1397 94.6104 50.9683 94.8347 49.4211V49.1182H88.9734V45.1137H99.4967V58.2007H96.0002L95.4627 55.2628C94.7199 56.2226 93.7641 56.9963 92.6709 57.5227C91.4027 58.1284 90.0102 58.4279 88.6052 58.3973C86.3872 58.3973 84.4296 57.9039 82.7326 56.9171C81.0394 55.9289 79.6717 54.467 78.7979 52.7114C77.8673 50.8945 77.4028 48.7981 77.4043 46.4222C77.4043 44.0222 77.8749 41.9198 78.816 40.1149C79.7212 38.3479 81.1329 36.8914 82.8704 35.9319Z" fill="white"/>
<path d="M102.977 54.1966C102.236 52.7615 101.85 51.1699 101.85 49.5547C101.85 47.9396 102.236 46.348 102.977 44.9129C103.712 43.5855 104.823 42.5052 106.17 41.8078C107.665 41.0878 109.302 40.7139 110.961 40.7139C112.62 40.7139 114.257 41.0878 115.752 41.8078C117.099 42.5083 118.21 43.5907 118.946 44.9197C119.687 46.358 120.073 47.9525 120.073 49.5706C120.073 51.1886 119.687 52.7832 118.946 54.2215C118.207 55.5432 117.096 56.619 115.752 57.3153C114.257 58.0353 112.62 58.4092 110.961 58.4092C109.302 58.4092 107.665 58.0353 106.17 57.3153C104.821 56.615 103.709 55.5296 102.977 54.1966ZM115.264 49.5547C115.264 48.0737 114.877 46.8737 114.103 45.9547C113.329 45.0357 112.282 44.5762 110.961 44.5762C109.66 44.5762 108.623 45.0357 107.851 45.9547C107.078 46.8737 106.692 48.0737 106.69 49.5547C106.69 51.0357 107.077 52.2358 107.851 53.1548C108.625 54.0738 109.662 54.5333 110.961 54.5333C112.283 54.5333 113.331 54.0738 114.103 53.1548C114.876 52.2358 115.263 51.0357 115.264 49.5547Z" fill="white"/>
<path d="M122.511 54.1966C121.77 52.7615 121.384 51.1699 121.384 49.5547C121.384 47.9396 121.77 46.348 122.511 44.9129C123.246 43.5855 124.357 42.5052 125.705 41.8078C127.199 41.0878 128.837 40.7139 130.495 40.7139C132.154 40.7139 133.792 41.0878 135.286 41.8078C136.634 42.5076 137.745 43.5902 138.48 44.9197C139.221 46.358 139.607 47.9525 139.607 49.5706C139.607 51.1886 139.221 52.7832 138.48 54.2215C137.741 55.5437 136.631 56.6196 135.286 57.3153C133.792 58.0353 132.154 58.4092 130.495 58.4092C128.837 58.4092 127.199 58.0353 125.705 57.3153C124.355 56.615 123.243 55.5296 122.511 54.1966ZM134.803 49.5547C134.803 48.0737 134.416 46.8737 133.644 45.9547C132.872 45.0357 131.823 44.5762 130.5 44.5762C129.199 44.5762 128.162 45.0357 127.39 45.9547C126.617 46.8737 126.227 48.0737 126.22 49.5547C126.22 51.0357 126.607 52.2358 127.381 53.1548C128.155 54.0738 129.191 54.5333 130.491 54.5333C131.811 54.5333 132.859 54.0738 133.635 53.1548C134.41 52.2358 134.8 51.0357 134.803 49.5547Z" fill="white"/>
<path d="M158.871 57.6943C158.871 59.9542 158.118 61.7621 156.612 63.118C155.106 64.474 152.772 65.1467 149.61 65.1361C147.168 65.1361 145.195 64.5975 143.692 63.5203C142.19 62.4431 141.383 60.9184 141.273 58.9463H146.046C146.238 59.727 146.711 60.4094 147.374 60.8627C148.035 61.3147 148.904 61.5406 149.981 61.5406C151.325 61.5406 152.367 61.2047 153.107 60.5327C153.846 59.8608 154.22 58.8589 154.227 57.5271V55.7192C152.974 57.3117 151.193 58.1079 148.883 58.1079C147.443 58.1298 146.025 57.7578 144.781 57.0322C143.564 56.3075 142.578 55.2508 141.94 53.9859C141.264 52.5525 140.914 50.9875 140.914 49.4029C140.914 47.8182 141.264 46.2532 141.94 44.8199C142.578 43.5458 143.57 42.4833 144.797 41.76C146.047 41.0318 147.472 40.6577 148.919 40.6775C151.178 40.6775 152.97 41.5521 154.297 43.3012L154.701 40.9035H158.871V57.6943ZM154.198 49.4526C154.198 47.9942 153.816 46.8063 153.053 45.8888C152.683 45.4399 152.214 45.0827 151.684 44.8452C151.153 44.6076 150.575 44.496 149.994 44.5193C149.412 44.4971 148.833 44.6076 148.3 44.8425C147.767 45.0774 147.294 45.4306 146.918 45.8752C146.145 46.7792 145.758 47.9626 145.757 49.4255C145.755 50.8884 146.142 52.065 146.918 52.9554C147.295 53.3989 147.768 53.7512 148.301 53.986C148.834 54.2208 149.412 54.332 149.994 54.3113C151.273 54.3113 152.292 53.8593 153.053 52.9554C153.813 52.0514 154.195 50.8838 154.198 49.4526Z" fill="white"/>
<path d="M166.267 34.6533V58.2012H161.523V34.6533H166.267Z" fill="white"/>
<path d="M172.403 41.8083C173.803 41.058 175.372 40.6812 176.959 40.7145C178.559 40.6818 180.144 41.0336 181.58 41.7405C182.879 42.3859 183.967 43.3866 184.72 44.6264C185.493 45.9595 185.893 47.4762 185.879 49.0173C185.884 49.5581 185.839 50.0983 185.745 50.6309H173.2V50.7665C173.312 52.023 173.715 53.0098 174.409 53.727C175.103 54.4441 176.055 54.8027 177.266 54.8027C178.111 54.8338 178.946 54.6178 179.669 54.1812C180.313 53.7592 180.766 53.101 180.93 52.3484H185.603C185.432 53.473 184.981 54.5367 184.293 55.4422C183.569 56.3844 182.621 57.1302 181.535 57.6117C180.297 58.1581 178.955 58.428 177.603 58.4027C175.674 58.4027 174.009 58.0441 172.609 57.327C171.249 56.6471 170.125 55.5749 169.381 54.249C168.606 52.8203 168.217 51.2142 168.252 49.5891C168.214 47.9579 168.59 46.3437 169.345 44.8976C170.046 43.5947 171.108 42.5219 172.403 41.8083ZM179.832 45.1055C179.07 44.5143 178.124 44.2103 177.16 44.2467C176.21 44.2218 175.284 44.543 174.553 45.1507C173.84 45.7603 173.389 46.6214 173.293 47.5552H181.126C180.971 46.49 180.54 45.6712 179.832 45.0987V45.1055Z" fill="white"/>
<path d="M209.922 35.6115C211.167 36.2114 212.208 37.1648 212.915 38.3527C213.639 39.608 214.005 41.0374 213.975 42.486C214.008 43.9314 213.641 45.3579 212.915 46.608C212.205 47.7891 211.165 48.7359 209.922 49.3312C208.533 49.9936 207.007 50.3225 205.468 50.2916H200.928V58.2012H195.887V34.6533H205.468C207.007 34.6228 208.532 34.9509 209.922 35.6115ZM204.998 46.1018C206.185 46.1018 207.126 45.7764 207.822 45.1256C208.515 44.477 208.863 43.6001 208.863 42.5018C208.863 41.4036 208.515 40.4951 207.822 39.8442C207.128 39.1934 206.177 38.8702 204.998 38.8702H200.933V46.1018H204.998Z" fill="white"/>
<path d="M220.529 34.6533V58.2012H215.786V34.6533H220.529Z" fill="white"/>
<path d="M240.199 58.2012H237.778C235.605 58.2012 234.54 57.2588 234.584 55.3741C234.012 56.3097 233.214 57.0867 232.264 57.6339C231.24 58.1744 230.094 58.4406 228.937 58.4068C227.008 58.4068 225.456 57.9639 224.28 57.078C223.104 56.1921 222.516 54.9439 222.516 53.3334C222.516 51.4938 223.193 50.0754 224.548 49.078C225.904 48.0807 227.87 47.582 230.448 47.582H233.879V46.7413C233.892 46.3831 233.819 46.027 233.667 45.7025C233.515 45.3779 233.288 45.0942 233.005 44.8747C232.422 44.4137 231.638 44.1831 230.651 44.1831C229.892 44.1516 229.142 44.3518 228.499 44.7572C228.232 44.9294 228.004 45.1561 227.83 45.4225C227.657 45.6888 227.541 45.9888 227.492 46.3029H222.918C223.068 44.5312 223.853 43.1579 225.271 42.1832C226.69 41.2084 228.561 40.7203 230.886 40.7188C233.33 40.7188 235.219 41.2574 236.551 42.3346C237.884 43.4118 238.551 44.9703 238.552 47.0102V53.0984C238.552 53.5255 238.64 53.817 238.821 53.9729C239.065 54.146 239.363 54.2262 239.661 54.1989H240.199V58.2012ZM230.414 50.7323C229.429 50.7323 228.662 50.9289 228.113 51.3221C227.846 51.5072 227.631 51.7568 227.487 52.0476C227.342 52.3384 227.274 52.661 227.288 52.9854C227.278 53.2631 227.333 53.5393 227.451 53.7909C227.569 54.0425 227.746 54.2623 227.966 54.4317C228.509 54.8168 229.167 55.0071 229.832 54.9718C231.065 54.9718 232.044 54.6185 232.768 53.9119C233.492 53.2053 233.863 52.2577 233.879 51.069V50.7323H230.414Z" fill="white"/>
<path d="M248.368 53.3339L252.482 40.9044H257.559L249.893 60.6492C249.583 61.5043 249.201 62.3314 248.75 63.1216C248.427 63.6863 247.959 64.1544 247.395 64.4775C246.732 64.804 245.998 64.9593 245.26 64.9295H240.655V60.9249H243.277C243.883 60.9249 244.319 60.8255 244.587 60.6221C244.856 60.4187 245.114 60.0278 245.362 59.4447L245.798 58.3012L239.142 40.8999H244.185L248.368 53.3339Z" fill="white"/>
<path d="M79.06 19.699C79.7918 19.2836 80.6221 19.0736 81.4633 19.0911C82.4213 19.0594 83.3602 19.364 84.1173 19.9521C84.8401 20.5416 85.3189 21.3781 85.4612 22.3002H84.2731C84.1283 21.6775 83.7683 21.126 83.2567 20.7431C82.7177 20.3595 82.0679 20.1634 81.4068 20.1849C80.7954 20.1729 80.1937 20.3385 79.6744 20.6617C79.1705 20.9854 78.7706 21.4476 78.5225 21.9928C78.2572 22.6107 78.1204 23.2762 78.1204 23.9488C78.1204 24.6213 78.2572 25.2868 78.5225 25.9047C78.7691 26.4527 79.1692 26.9174 79.6744 27.2426C80.1937 27.5658 80.7954 27.7314 81.4068 27.7194C82.0652 27.7444 82.7133 27.5505 83.2499 27.168C83.7548 26.7771 84.111 26.2253 84.2596 25.6041H85.4476C85.3064 26.5234 84.833 27.3588 84.1173 27.9522C83.3618 28.5434 82.4218 28.8484 81.4633 28.8132C80.6221 28.8307 79.7918 28.6207 79.06 28.2053C78.3732 27.8047 77.8188 27.2115 77.4654 26.499C77.0964 25.7019 76.9053 24.834 76.9053 23.9555C76.9053 23.0771 77.0964 22.2091 77.4654 21.412C77.8177 20.697 78.3722 20.1014 79.06 19.699Z" fill="white"/>
<path d="M93.3599 28.1856C92.6415 28.598 91.8277 28.8149 90.9995 28.8149C90.1713 28.8149 89.3575 28.598 88.6392 28.1856C87.9496 27.7694 87.3896 27.1692 87.0219 26.4523C86.64 25.6749 86.4414 24.8202 86.4414 23.954C86.4414 23.0878 86.64 22.2331 87.0219 21.4557C87.3896 20.7382 87.9495 20.1373 88.6392 19.7201C89.3575 19.3078 90.1713 19.0908 90.9995 19.0908C91.8277 19.0908 92.6415 19.3078 93.3599 19.7201C94.0495 20.1373 94.6095 20.7382 94.9771 21.4557C95.359 22.2331 95.5576 23.0878 95.5576 23.954C95.5576 24.8202 95.359 25.6749 94.9771 26.4523C94.6094 27.1692 94.0494 27.7694 93.3599 28.1856ZM89.2603 27.2365C89.7853 27.553 90.3866 27.7202 90.9995 27.7202C91.6124 27.7202 92.2137 27.553 92.7387 27.2365C93.2488 26.9087 93.6578 26.4455 93.92 25.8986C94.1983 25.2878 94.3423 24.6242 94.3423 23.9529C94.3423 23.2815 94.1983 22.618 93.92 22.0071C93.6571 21.4607 93.2482 20.9977 92.7387 20.6693C92.2137 20.3528 91.6124 20.1856 90.9995 20.1856C90.3866 20.1856 89.7853 20.3528 89.2603 20.6693C88.7508 20.9977 88.3419 21.4607 88.079 22.0071C87.8007 22.618 87.6567 23.2815 87.6567 23.9529C87.6567 24.6242 87.8007 25.2878 88.079 25.8986C88.3412 26.4455 88.7502 26.9087 89.2603 27.2365Z" fill="white"/>
<path d="M98.557 19.1748L101.945 27.1069L105.288 19.1748H106.761V28.7295H105.602V21.1951L102.44 28.7295H101.374L98.2115 21.1951V28.7295H97.0527V19.1748H98.557Z" fill="white"/>
<path d="M109.802 19.1748V28.7296H108.613V19.1748H109.802Z" fill="white"/>
<path d="M111.655 19.1748H112.746L117.878 26.5465V19.1748H119.037V28.7295H117.946L112.816 21.3578V28.7295H111.655V19.1748Z" fill="white"/>
<path d="M122.693 19.6991C123.423 19.2846 124.251 19.0745 125.09 19.0912C126.048 19.0591 126.987 19.3637 127.744 19.9522C128.469 20.5353 128.952 21.3673 129.099 22.2867H127.926C127.771 21.6669 127.408 21.1194 126.897 20.7364C126.363 20.3584 125.721 20.1648 125.067 20.185C124.453 20.1729 123.85 20.3385 123.328 20.6618C122.815 20.9845 122.407 21.4493 122.153 21.9997C121.884 22.6153 121.745 23.2802 121.745 23.9523C121.745 24.6244 121.884 25.2892 122.153 25.9049C122.403 26.4557 122.809 26.9208 123.321 27.2423C123.833 27.5637 124.429 27.7274 125.033 27.7128C125.573 27.7223 126.108 27.6079 126.596 27.3783C127.039 27.1703 127.413 26.8392 127.674 26.4246C127.939 25.9865 128.074 25.4815 128.062 24.9692V24.6416H125.205V23.55H129.23V28.723H128.252L128.128 27.2088C127.827 27.6713 127.421 28.055 126.942 28.3275C126.361 28.6601 125.7 28.8258 125.031 28.8066C124.211 28.8206 123.404 28.6079 122.698 28.1919C122.019 27.782 121.471 27.188 121.117 26.4789C120.728 25.6921 120.534 24.8231 120.552 23.9455C120.534 23.0665 120.726 22.196 121.11 21.4053C121.46 20.6944 122.01 20.1013 122.693 19.6991Z" fill="white"/>
<path d="M136.255 27.1551C136.77 27.5557 137.41 27.7607 138.062 27.7336C138.621 27.7589 139.174 27.6088 139.643 27.3043C139.837 27.1734 139.995 26.9952 140.101 26.7864C140.208 26.5777 140.259 26.3452 140.251 26.1111C140.259 25.948 140.234 25.7848 140.176 25.632C140.119 25.4791 140.03 25.3398 139.916 25.223C139.674 24.993 139.38 24.8261 139.058 24.7371C138.588 24.6074 138.112 24.5048 137.631 24.4297C136.824 24.3209 136.049 24.0471 135.354 23.6252C134.789 23.2516 134.507 22.649 134.507 21.8174C134.497 21.3111 134.64 20.8137 134.916 20.3892C135.201 19.965 135.601 19.6311 136.07 19.4265C136.605 19.1915 137.184 19.0751 137.768 19.0852C138.384 19.0734 138.995 19.2 139.555 19.4558C140.052 19.6786 140.477 20.0352 140.783 20.4858C141.089 20.9363 141.263 21.4631 141.287 22.0072H140.115C140.086 21.7453 140.005 21.4919 139.876 21.262C139.747 21.0322 139.573 20.8306 139.365 20.6694C138.912 20.3548 138.377 20.1776 137.825 20.1592C137.274 20.1407 136.729 20.2818 136.255 20.5654C136.074 20.7007 135.928 20.8788 135.833 21.0838C135.737 21.2889 135.693 21.5145 135.706 21.7405C135.697 21.898 135.721 22.0557 135.778 22.203C135.834 22.3503 135.921 22.4839 136.034 22.5948C136.276 22.8094 136.565 22.9642 136.878 23.0467C137.344 23.179 137.818 23.2816 138.297 23.3541C139.108 23.4667 139.888 23.7435 140.589 24.1676C141.163 24.5458 141.45 25.1529 141.45 25.989C141.457 26.5089 141.307 27.0187 141.019 27.4511C140.72 27.8891 140.304 28.2344 139.819 28.4477C139.263 28.6922 138.66 28.8132 138.053 28.8025C137.38 28.8181 136.713 28.6797 136.101 28.398C135.572 28.1533 135.124 27.761 134.812 27.2681C134.502 26.7638 134.33 26.1873 134.312 25.5958H135.48C135.491 25.896 135.565 26.1905 135.699 26.4594C135.832 26.7284 136.022 26.9656 136.255 27.1551Z" fill="white"/>
<path d="M149.504 28.1856C148.786 28.598 147.972 28.8149 147.144 28.8149C146.316 28.8149 145.502 28.598 144.784 28.1856C144.094 27.7701 143.533 27.1697 143.166 26.4523C142.785 25.6749 142.586 24.8202 142.586 23.954C142.586 23.0878 142.785 22.2331 143.166 21.4557C143.533 20.7377 144.094 20.1366 144.784 19.7201C145.502 19.3078 146.316 19.0908 147.144 19.0908C147.972 19.0908 148.786 19.3078 149.504 19.7201C150.194 20.1379 150.753 20.7387 151.122 21.4557C151.502 22.2335 151.7 23.088 151.7 23.954C151.7 24.82 151.502 25.6745 151.122 26.4523C150.753 27.1687 150.194 27.7687 149.504 28.1856ZM145.403 27.2365C145.928 27.5529 146.53 27.7201 147.143 27.7201C147.756 27.7201 148.358 27.5529 148.883 27.2365C149.393 26.9086 149.801 26.4453 150.062 25.8986C150.342 25.2881 150.487 24.6245 150.487 23.9529C150.487 23.2813 150.342 22.6176 150.062 22.0071C149.8 21.4608 149.392 20.9977 148.883 20.6693C148.358 20.3528 147.756 20.1856 147.143 20.1856C146.53 20.1856 145.928 20.3528 145.403 20.6693C144.894 20.9985 144.486 21.4613 144.224 22.0071C143.945 22.618 143.801 23.2815 143.801 23.9529C143.801 24.6242 143.945 25.2878 144.224 25.8986C144.486 26.4449 144.894 26.9079 145.403 27.2365Z" fill="white"/>
<path d="M159.764 28.1856C159.046 28.598 158.232 28.8149 157.404 28.8149C156.576 28.8149 155.762 28.598 155.043 28.1856C154.354 27.7694 153.794 27.1692 153.426 26.4523C153.044 25.6749 152.846 24.8202 152.846 23.954C152.846 23.0878 153.044 22.2331 153.426 21.4557C153.794 20.7382 154.354 20.1373 155.043 19.7201C155.762 19.3078 156.576 19.0908 157.404 19.0908C158.232 19.0908 159.046 19.3078 159.764 19.7201C160.454 20.1373 161.014 20.7382 161.381 21.4557C161.763 22.2331 161.962 23.0878 161.962 23.954C161.962 24.8202 161.763 25.6749 161.381 26.4523C161.014 27.1692 160.454 27.7694 159.764 28.1856ZM155.665 27.2365C156.19 27.553 156.791 27.7202 157.404 27.7202C158.017 27.7202 158.618 27.553 159.143 27.2365C159.654 26.909 160.064 26.4458 160.327 25.8986C160.605 25.2878 160.749 24.6242 160.749 23.9529C160.749 23.2815 160.605 22.618 160.327 22.0071C160.064 21.4607 159.655 20.9977 159.145 20.6693C158.62 20.3528 158.019 20.1856 157.406 20.1856C156.793 20.1856 156.192 20.3528 155.667 20.6693C155.157 20.9977 154.749 21.4607 154.486 22.0071C154.207 22.618 154.063 23.2815 154.063 23.9529C154.063 24.6242 154.207 25.2878 154.486 25.8986C154.747 26.4452 155.155 26.9084 155.665 27.2365Z" fill="white"/>
<path d="M163.461 19.1748H164.552L169.684 26.5465V19.1748H170.843V28.7295H169.752L164.618 21.3578V28.7295H163.459L163.461 19.1748Z" fill="white"/>
<path d="M183.067 19.1748V20.2663H179.977V28.7295H178.791V20.2663H175.686V19.1748H183.067Z" fill="white"/>
<path d="M190.176 28.1855C189.458 28.5982 188.643 28.8154 187.815 28.8154C186.986 28.8154 186.172 28.5982 185.453 28.1855C184.764 27.7691 184.205 27.1688 183.838 26.4521C183.456 25.6747 183.258 24.82 183.258 23.9538C183.258 23.0875 183.456 22.2328 183.838 21.4554C184.205 20.7381 184.764 20.1371 185.453 19.7198C186.172 19.307 186.986 19.0898 187.815 19.0898C188.643 19.0898 189.458 19.307 190.176 19.7198C190.865 20.1371 191.424 20.7381 191.791 21.4554C192.173 22.2328 192.372 23.0875 192.372 23.9538C192.372 24.82 192.173 25.6747 191.791 26.4521C191.424 27.1688 190.865 27.7691 190.176 28.1855ZM186.074 27.2363C186.6 27.5527 187.202 27.72 187.815 27.72C188.428 27.72 189.03 27.5527 189.555 27.2363C190.064 26.9077 190.472 26.4447 190.734 25.8984C191.014 25.2879 191.159 24.6242 191.159 23.9526C191.159 23.281 191.014 22.6173 190.734 22.0068C190.471 21.461 190.063 20.9982 189.555 20.669C189.03 20.3525 188.428 20.1853 187.815 20.1853C187.202 20.1853 186.6 20.3525 186.074 20.669C185.566 20.9982 185.158 21.461 184.895 22.0068C184.617 22.6177 184.473 23.2813 184.473 23.9526C184.473 24.624 184.617 25.2875 184.895 25.8984C185.158 26.4447 185.566 26.9077 186.074 27.2363Z" fill="white"/>
</svg>
