<svg xmlns="http://www.w3.org/2000/svg" width="50" height="50" viewBox="0 0 48 48"><path fill="#fdd835" d="M6 6h36v36H6z"/><path fill="#e53935" d="M38.67 42H11.52c-.25-1.38-.52-3.43-.52-6V25s1.44-7.39 3.22-9.59c1.67-2.06 2.76-3.48 6.78-4.41 3-.7 7.13-.23 9 1 2.15 1.42 3.37 6.67 3.81 11.29 1.49-.3 5.21.2 5.5 1.28 1.58 5.72.17 13.74-.64 17.43z"/><path fill="#b71c1c" d="M39.02 42H11.99c-.22-2.67-.48-7.05-.49-12.72.83 4.18 1.63 9.59 6.98 9.79 3.48.12 8.27.55 9.83-2.45 1.57-3 3.72-8.95 3.51-15.62-.19-5.84-1.75-8.2-2.13-8.7.59.66 3.74 4.49 4.01 11.7.03.83.06 1.72.08 2.66 4.21-.15 5.93 1.5 6.07 2.35.83 4.84-.05 9.89-.83 12.99z"/><path fill="#212121" d="M35 27.17c0 3.67-.28 11.2-.42 14.83h-2c.14-3.58.42-11.17.42-14.83 0-5.54-1.46-12.65-3.55-14.02-1.65-1.08-5.49-1.48-8.23-.85-3.62.83-4.57 1.99-6.14 3.92l-.08.1c-1.31 1.6-2.59 6.92-3 8.96v10.8c0 2.58.28 4.61.54 5.92H10.5c-.25-1.41-.5-3.42-.5-5.92l.02-11.09c.15-.77 1.55-7.63 3.43-9.94l.08-.09c1.65-2.03 2.96-3.63 7.25-4.61 3.28-.76 7.67-.25 9.77 1.13C33.79 13.6 35 22.23 35 27.17z"/><path fill="#01579b" d="M17.165 17.283c5.217-.055 9.391.283 9 6.011s-8.478 5.533-9.391 5.337c-.913-.196-7.826-.043-7.696-5.337.131-5.294 4.567-5.974 8.087-6.011z"/><path fill="#212121" d="M40.739 37.38c-.28 1.99-.69 3.53-1.22 4.62h-2.43c.25-.19 1.13-1.11 1.67-4.9.57-4-.23-11.79-.93-12.78-.4-.4-2.63-.8-4.37-.89l.1-1.99c1.04.05 4.53.31 5.71 1.49 1.42 1.43 2.02 10.6 1.47 14.45z"/><path fill="#81d4fa" d="M10.154 20.201c.261 2.059-.196 3.351 2.543 3.546s8.076 1.022 9.402-.554c1.326-1.576 1.75-4.365-.891-5.267-1.872-.639-8.249-1.675-11.054 2.275z"/><path fill="#212121" d="M17.615 29.677c-.502 0-.873-.03-1.052-.069-.086-.019-.236-.035-.434-.06-5.344-.679-8.053-2.784-8.052-6.255.001-2.698 1.17-7.238 8.986-7.32l.181-.002c3.444-.038 6.414-.068 8.272 1.818 1.173 1.191 1.712 3 1.647 5.53-.044 1.688-.785 3.147-2.144 4.217-2.234 1.76-5.631 2.141-7.404 2.141zm-.529-11.704c-7.006.074-7.008 4.023-7.008 5.321-.001 3.109 3.598 3.926 6.305 4.27.273.035.48.063.601.089.563.101 4.68.035 6.855-1.732.865-.702 1.299-1.57 1.326-2.653.051-1.958-.301-3.291-1.073-4.075-1.262-1.281-3.834-1.255-6.825-1.222l-.181.002z"/><path fill="#e1f5fe" d="M15.078 19.043c1.957-.326 5.122-.529 4.435 1.304-.489 1.304-7.185 2.185-7.185.652 0-1.532 2.75-1.956 2.75-1.956z"/></svg>