<svg xmlns="http://www.w3.org/2000/svg" width="50" height="50" viewBox="0 0 48 48"><path fill="#87643c" d="M46.567 25.129h-1.433V22.98h-.716l.716-5.015h2.149l-2.149-4.299-14.328-.682v-.751h-1.563a4.612 4.612 0 0 0-.567-1.366l1.105-1.105-1.52-1.52-1.105 1.105a4.627 4.627 0 0 0-1.366-.567V7.219h-2.149v1.563a4.25 4.25 0 0 0-1.366.567L21.17 8.242l-1.52 1.52 1.105 1.105c-.279.38-.451.875-.567 1.366h-1.563v.751l-14.326.682-2.866 4.299h2.149v2.149h1.165l-.448 2.866H2.866v2.52A6.44 6.44 0 0 0 0 30.86c0 3.561 2.814 7.098 6.375 7.098 2.866 0 7.953-.65 7.953-.65v-3.231a5.341 5.341 0 0 0 4.976.784 3.935 3.935 0 0 0 3.263 1.731c.171 0 .337-.014.501-.035a3.939 3.939 0 0 0 3.797 2.901 3.925 3.925 0 0 0 2.85-1.224l10.404 1.224.268-1.34a3.927 3.927 0 0 0 2.956 1.34 3.94 3.94 0 0 0 3.922-4.3l.001.002-.002-.015c-.007-.078-.02-.154-.032-.231l-.666-4.768H48l-1.433-5.017z"/><path fill="#fff" d="M21.441 15.813a.52.52 0 0 0-.282-.246.432.432 0 0 0-.196-.021.544.544 0 0 0-.2.062.496.496 0 0 0-.249.531.472.472 0 0 0 .192.314.473.473 0 0 0 .165.073.561.561 0 0 0 .193.011.46.46 0 0 0 .406-.344.638.638 0 0 0 .021-.197.425.425 0 0 0-.05-.183zm-.19.316a.302.302 0 0 1-.047.095.244.244 0 0 1-.074.069.202.202 0 0 1-.097.031.29.29 0 0 1-.19-.049.252.252 0 0 1-.1-.173.323.323 0 0 1 .053-.227.28.28 0 0 1 .079-.078.218.218 0 0 1 .099-.037.221.221 0 0 1 .102.016.325.325 0 0 1 .156.146.255.255 0 0 1 .03.102.236.236 0 0 1-.011.105zm-.819.141a.367.367 0 0 1-.02.154.296.296 0 0 1-.067.105.294.294 0 0 1-.105.064.448.448 0 0 1-.268.013.342.342 0 0 1-.129-.065.42.42 0 0 1-.1-.122.448.448 0 0 1-.048-.184l-.042-.492-.158.011-.019-.224.169-.015-.034-.398.234-.017.034.394.368-.032.007.189-.36.031.045.51a.62.62 0 0 0 .011.077.191.191 0 0 0 .026.067.122.122 0 0 0 .049.044.157.157 0 0 0 .079.015c.047-.002.08-.014.095-.037a.112.112 0 0 0 .024-.067c.001-.019-.001-.034-.009-.043-.007-.01-.016-.015-.026-.015-.01 0-.019.005-.028.015a.077.077 0 0 0-.016.044l-.163-.056a.203.203 0 0 1 .04-.122c.028-.042.081-.067.158-.075a.201.201 0 0 1 .176.057.26.26 0 0 1 .077.174zm-1.847.222a.376.376 0 0 1-.115.027.282.282 0 0 1-.156-.045.21.21 0 0 1-.057-.054.13.13 0 0 1-.027-.071l.654-.068a.684.684 0 0 0-.054-.284.482.482 0 0 0-.125-.166.39.39 0 0 0-.153-.075.527.527 0 0 0-.141-.013.505.505 0 0 0-.151.037.446.446 0 0 0-.245.242.581.581 0 0 0 .009.436.458.458 0 0 0 .115.158.421.421 0 0 0 .163.09.54.54 0 0 0 .368-.015.36.36 0 0 0 .145-.113l-.138-.15a.249.249 0 0 1-.092.064zm-.293-.478a.237.237 0 0 1 .13-.06.212.212 0 0 1 .131.032.18.18 0 0 1 .082.121l-.41.046a.191.191 0 0 1 .067-.139zm-.372.696-.353.029-.049-.631c-.004-.054-.02-.092-.05-.115a.123.123 0 0 0-.091-.029.134.134 0 0 0-.085.05c-.025.029-.035.07-.032.121.009.151.024.324.042.519l.16-.011.011.148-.426.038c-.013-.248-.029-.49-.047-.725a.104.104 0 0 0-.042-.08.123.123 0 0 0-.082-.023.116.116 0 0 0-.077.044c-.021.027-.031.066-.027.119l.01.112.016.196.027.335-.388.026-.017-.201.135-.014-.073-.704-.142.015-.014-.16.382-.029.019.146a.23.23 0 0 1 .091-.076.426.426 0 0 1 .131-.032.292.292 0 0 1 .128.021.167.167 0 0 1 .092.077.231.231 0 0 1 .108-.095.388.388 0 0 1 .13-.037.306.306 0 0 1 .236.069.343.343 0 0 1 .112.239l.036.477.116-.008.013.189zm-1.69-.518a.52.52 0 0 0-.282-.247.447.447 0 0 0-.196-.021.557.557 0 0 0-.2.062.505.505 0 0 0-.154.128.5.5 0 0 0-.095.403.51.51 0 0 0 .069.182.455.455 0 0 0 .288.205.562.562 0 0 0 .193.011.46.46 0 0 0 .406-.344.58.58 0 0 0 .021-.196.419.419 0 0 0-.05-.183zm-.189.317a.337.337 0 0 1-.047.095.256.256 0 0 1-.074.069.206.206 0 0 1-.097.031.287.287 0 0 1-.189-.049.245.245 0 0 1-.1-.173.303.303 0 0 1 .006-.12.296.296 0 0 1 .048-.107.29.29 0 0 1 .078-.078.218.218 0 0 1 .1-.037.223.223 0 0 1 .102.016.325.325 0 0 1 .156.145.277.277 0 0 1 .017.208zm-1.021.109.133.133a.6.6 0 0 1-.184.168.502.502 0 0 1-.21.064.469.469 0 0 1-.347-.118.5.5 0 0 1-.17-.316.485.485 0 0 1 .106-.351.47.47 0 0 1 .317-.169.883.883 0 0 1 .126-.001.302.302 0 0 1 .123.034l.054-.121.208.09-.16.34a.326.326 0 0 0-.143-.104.348.348 0 0 0-.168-.023.235.235 0 0 0-.161.085.256.256 0 0 0-.048.192c.006.08.034.143.085.188.05.044.107.067.169.064a.342.342 0 0 0 .152-.046.305.305 0 0 0 .118-.109zm-.833.39-.484.044-.019-.226.123-.006-.097-1.18-.16.014-.016-.181.4-.022.107 1.359.129-.005.017.203zm-.953-.126a.281.281 0 0 1-.271-.018.21.21 0 0 1-.057-.054.129.129 0 0 1-.027-.07l.654-.068a.684.684 0 0 0-.054-.284.457.457 0 0 0-.125-.165.383.383 0 0 0-.153-.075.527.527 0 0 0-.141-.013.505.505 0 0 0-.151.037.446.446 0 0 0-.245.242.581.581 0 0 0 .009.436.468.468 0 0 0 .115.158.429.429 0 0 0 .163.09.54.54 0 0 0 .368-.015.36.36 0 0 0 .145-.113l-.138-.15a.286.286 0 0 1-.092.062zm-.293-.478a.237.237 0 0 1 .131-.06.212.212 0 0 1 .131.032c.043.027.07.067.082.122l-.41.046a.187.187 0 0 1 .066-.14zm-.468-.572-.135.012-.203 1.265-.267.029-.221-.565-.101.65-.474.025-.019-.164.171-.009-.346-1.107-.12.009-.011-.213.328-.028.322 1.05.099-.645.254-.02.195.58.128-.797-.185.011-.019-.227.582-.038.022.182z"/><path fill="#4e342e" d="M24.172 32.562a4.945 4.945 0 0 0-.655-.561c-.418-.309-.827-.577-1.007-.837-.089-.128-.119-.214-.115-.328a.943.943 0 0 1 .105-.392c.107-.203.357-.31.701-.28.332.034.666.209.769.446.01.025-.002.393-.002.393l1.003-.004-.007-2.278-1.003.004.001.5a2.304 2.304 0 0 0-.568-.205 1.975 1.975 0 0 0-1.048.06 1.75 1.75 0 0 0-.897.701 1.974 1.974 0 0 0-.317 1.041c-.014.393.15.803.357 1.078.428.557.906.819 1.292 1.108.396.27.701.556.747.764a.688.688 0 0 1-.029.391.478.478 0 0 1-.198.266c-.154.105-.519.065-.741-.136-.225-.198-.296-.443-.198-.754l-1.07-.365c-.109.32-.155.702-.059 1.068.087.368.304.691.571.925.526.457 1.324.679 2.072.291.363-.198.615-.547.737-.881.119-.321.176-.704.086-1.094a2.034 2.034 0 0 0-.527-.921zm4.036 2.561a4.945 4.945 0 0 0-.655-.561c-.418-.309-.827-.577-1.007-.837-.089-.128-.119-.214-.115-.328a.943.943 0 0 1 .105-.392c.107-.203.357-.31.701-.28.332.034.666.209.769.446.01.025-.002.393-.002.393l1.003-.004L29 31.282l-1.003.004.001.5a2.304 2.304 0 0 0-.568-.205 1.975 1.975 0 0 0-1.048.06 1.75 1.75 0 0 0-.897.701 1.974 1.974 0 0 0-.317 1.041c-.014.393.15.803.357 1.078.428.557.906.819 1.292 1.108.396.27.701.556.747.764a.688.688 0 0 1-.029.391.478.478 0 0 1-.198.266c-.154.105-.519.065-.741-.136-.225-.198-.296-.443-.198-.754l-1.071-.367c-.109.32-.155.702-.059 1.068.087.368.304.691.571.925.526.457 1.324.679 2.072.291.363-.198.615-.547.737-.881.119-.321.176-.704.086-1.094a2.032 2.032 0 0 0-.526-.919zm-14.13-3.718a1.701 1.701 0 0 0-1.114-1.107 1.754 1.754 0 0 0-.769-.069c-.239.019-.534.143-.673.216a11.51 11.51 0 0 0-.27.143l-.018-.494-2.31.097.042 1.002.875-.037.142 3.929-.621.016.042 1.002 3.244-.189-.037-.896-1.195.03-.117-3.212c.183-.128.442-.259.696-.365.175-.072.211-.079.321-.085a.58.58 0 0 1 .259.045.465.465 0 0 1 .288.33.344.344 0 0 1-.014.197c-.006.034-.029.071-.045.109l-.115.218 1.201.591.11-.255c.049-.124.097-.246.12-.385a1.622 1.622 0 0 0-.042-.831zm7.756-11.418a1.027 1.027 0 1 0 0-2.055 1.027 1.027 0 0 0 0 2.055zm1.028 5.11V20.628l-2.517.044v1.077h1.187v3.347h-.933v1.186h3.095v-1.186h-.832zm7.832 3.529a1.027 1.027 0 1 0 0-2.055 1.027 1.027 0 0 0 0 2.055zm1.027 5.109v-4.468l-2.516.044v1.077h1.187v3.346h-.933v1.186h3.095v-1.186h-.833zm-14.203-5.914c-1.655 0-3.002 1.368-3.002 3.059 0 1.684 1.347 3.052 3.002 3.052 1.655 0 2.995-1.368 2.995-3.052 0-1.69-1.34-3.059-2.995-3.059zm0 4.836c-.888 0-1.612-.795-1.612-1.777 0-.981.724-1.777 1.612-1.777s1.605.795 1.605 1.777c0 .982-.717 1.777-1.605 1.777zm-7.766-4.778-.408.63-.853 1.311a2.573 2.573 0 0 0-1.139-.881 2.948 2.948 0 0 0-.265-.093c-1.49-.416-3.073.573-3.532 2.214-.451 1.641.387 3.303 1.877 3.718.853.236 1.745.049 2.454-.45l.541 1.36a4.22 4.22 0 0 1-2.307.695c-.373 0-.738-.05-1.096-.15-2.285-.638-3.797-2.651-2.987-5.567.559-2.013 2.393-3.417 4.356-3.417.373 0 .738.05 1.096.143.244.064.473.158.695.265l.365-.559 1.203.781zm28.803-3.55c.039-.433.077-.865.122-1.297L38.782 22c.016-.168.037-.334.048-.583a3.05 3.05 0 0 0-.068-.683c-.197-.941-1.04-1.626-1.906-1.8a2.859 2.859 0 0 0-1.295.04 3.002 3.002 0 0 0-1.108.57l.577.813c.249-.149.507-.237.769-.274a1.62 1.62 0 0 1 .757.055c.479.139.794.524.941.931a1.035 1.035 0 0 1 .052.508 2.466 2.466 0 0 0-1.547-.533c-1.261 0-2.285.888-2.285 1.992 0 1.103 1.024 1.999 2.285 1.999.387 0 .745-.092 1.065-.241l-.049.549 2.047.183.102-1.142-.612-.055zm-2.295-.233c-.63 0-1.082-.444-1.082-.989 0-.544.451-.981 1.082-.981.444 0 .888.208 1.082.523l-.004.428c-.028.198-.06.396-.09.594-.215.251-.602.425-.988.425zm7.203-7.128-2.272-.435-.216 1.126.936.179-1.336 7.24-.619-.109-.198 1.129 2.684.474.198-1.129-.724-.128 1.547-8.347zm-11.051 7.651.097-3.333a1.776 1.776 0 0 0-1.683-1.825c-1.103 0-1.526.668-1.526.668s-.33-.878-1.358-.878-1.358.62-1.358.62l.011-.911-2.361-.038v.858h.695v4.459h-.799v1.176h2.297v-.917l.097-3.205a.76.76 0 1 1 1.518.051l-.162 4.503h2.475v-.796l-.917.004.105-3.489a.832.832 0 1 1 1.665.063l-.188 4.141h2.109v-1.151h-.717zm-19.234-4.634-.128-1.006 2.248-.306.079.927s.651-.976 1.992-.976c.94 0 1.732.701 1.844 1.635l.374 3.098.64-.049.118 1.143-2.01.223-.431-3.809a1.06 1.06 0 0 0-1.131-.937c-1.247.167-1.136 1.365-1.136 1.365l.527 3.513-2.09.335-.125-.891.747-.105-.628-4.412-.89.252zm19.623 11.891.063-.873 2.213.142-.055.927s.831-.828 2.145-.562a1.857 1.857 0 0 1 1.484 1.967l-.246 3.111.638.079-.11 1.144-2.014-.18.332-3.819a1.059 1.059 0 0 0-.923-1.142c-1.255-.084-1.384 1.114-1.384 1.114l-.178 3.548-2.115-.085.053-.898.753.044.258-4.449-.914-.068zm-19.799-7.489-.625.039-3.048-7.674-3.274.32.1 1.214 1.283-.105-1.125 6.986-.927.114.161 1.315.007-.001v.001l1.891-.222.501-3.202L9.981 23l.641 1.535-1.369.085.102 1.333 3.74-.345-.093-1.221zM8.19 21.99l.43-2.722 1.046 2.622-1.476.1zm37.412 13.811c-.011-.103-.036-.224-.053-.311l-.052-.224-.827-3.579c-.194-.86-.404-1.715-.614-2.571l.577-.14-.235-1.009-1.985.479.207.888a2.744 2.744 0 0 0-1.661-.153 2.762 2.762 0 0 0-2.113 3.296 2.774 2.774 0 0 0 3.296 2.121 2.762 2.762 0 0 0 1.519-.928l.469 1.921.054.223.027.141a.999.999 0 0 1-.005.262.97.97 0 0 1-.223.476c-.226.275-.638.392-.931.298a.804.804 0 0 1-.4-.274c-.204-.296-.176-.484-.059-.565.13-.089.25-.016.316.077l.769-.529c-.261-.469-.769-.759-1.284-.64-.502.086-.988.474-1.113 1.039-.109.586.067.984.296 1.365.243.377.62.657 1.043.809.878.303 1.828-.018 2.401-.665.287-.323.486-.728.56-1.158.039-.212.041-.432.021-.649zm-3.697-2.492c-.903 0-1.626-.702-1.626-1.569 0-.86.724-1.562 1.626-1.562.279 0 .544.072.774.193h.007l.559 2.25a1.622 1.622 0 0 1-1.34.688z"/><path fill="#ffca28" d="M24.156 31.876a4.945 4.945 0 0 0-.655-.561c-.418-.309-.827-.577-1.007-.837-.089-.128-.119-.214-.115-.328a.943.943 0 0 1 .105-.392c.107-.203.357-.31.701-.28.332.034.666.209.769.446.01.025-.002.393-.002.393l1.003-.004-.007-2.278-1.003.004.001.5a2.304 2.304 0 0 0-.568-.205 1.975 1.975 0 0 0-1.048.06 1.75 1.75 0 0 0-.897.701 1.974 1.974 0 0 0-.317 1.041c-.014.393.15.803.357 1.078.428.557.906.819 1.292 1.108.396.27.701.556.747.764a.688.688 0 0 1-.029.391.478.478 0 0 1-.198.266c-.154.105-.519.065-.741-.136-.225-.198-.296-.443-.198-.754l-1.07-.365c-.109.32-.155.702-.059 1.068.087.368.304.691.571.925.526.457 1.324.679 2.072.291.363-.198.615-.547.737-.881.119-.321.176-.704.086-1.094a2.034 2.034 0 0 0-.527-.921zm4.036 2.561a4.945 4.945 0 0 0-.655-.561c-.418-.309-.827-.577-1.007-.837-.089-.128-.119-.214-.115-.328a.943.943 0 0 1 .105-.392c.107-.203.357-.31.701-.28.332.034.666.209.769.446.01.025-.002.393-.002.393l1.003-.004-.007-2.278-1.002.004.001.5a2.304 2.304 0 0 0-.568-.205 1.975 1.975 0 0 0-1.048.06 1.75 1.75 0 0 0-.897.701 1.974 1.974 0 0 0-.317 1.041c-.014.393.15.803.357 1.078.428.557.906.819 1.292 1.108.396.27.701.556.747.764a.688.688 0 0 1-.029.391.478.478 0 0 1-.198.266c-.154.105-.519.065-.741-.136-.225-.198-.296-.443-.198-.754l-1.071-.367c-.109.32-.155.702-.059 1.068.087.368.304.691.571.925.526.457 1.324.679 2.072.291.363-.198.615-.547.737-.881.119-.321.176-.704.086-1.094a2.043 2.043 0 0 0-.527-.919zm-14.13-3.718a1.701 1.701 0 0 0-1.114-1.107 1.754 1.754 0 0 0-.769-.069c-.239.019-.534.143-.673.216a11.51 11.51 0 0 0-.27.143l-.018-.494-2.31.097.042 1.002.875-.037.142 3.929-.621.016.042 1.002 3.244-.189-.037-.896-1.195.03-.117-3.212c.183-.128.442-.259.696-.365.175-.072.211-.079.321-.085a.58.58 0 0 1 .259.045.465.465 0 0 1 .288.33.344.344 0 0 1-.014.197c-.006.034-.029.071-.045.109l-.115.218 1.201.591.112-.252c.049-.124.097-.246.12-.385a1.654 1.654 0 0 0-.044-.834zm7.757-11.418a1.027 1.027 0 1 0 0-2.055 1.027 1.027 0 0 0 0 2.055zm1.027 5.11V19.942l-2.517.044v1.077h1.187v3.347h-.933v1.186h3.095V24.41h-.832zm7.832 3.529a1.027 1.027 0 1 0 0-2.055 1.027 1.027 0 0 0 0 2.055zm1.027 5.109v-4.468l-2.516.044v1.077h1.187v3.346h-.933v1.186h3.095v-1.186h-.833zm-14.203-5.914c-1.655 0-3.002 1.368-3.002 3.059 0 1.684 1.347 3.052 3.002 3.052 1.655 0 2.995-1.368 2.995-3.052 0-1.691-1.34-3.059-2.995-3.059zm0 4.836c-.888 0-1.612-.795-1.612-1.777 0-.981.724-1.777 1.612-1.777.888 0 1.605.795 1.605 1.777 0 .982-.717 1.777-1.605 1.777zm-7.766-4.779-.408.63-.853 1.311a2.573 2.573 0 0 0-1.139-.881 2.948 2.948 0 0 0-.265-.093c-1.49-.416-3.073.573-3.532 2.214-.451 1.641.387 3.303 1.877 3.718.853.236 1.745.049 2.454-.45l.541 1.36a4.22 4.22 0 0 1-2.307.695c-.373 0-.738-.05-1.096-.15-2.285-.638-3.797-2.651-2.987-5.567.559-2.013 2.393-3.417 4.356-3.417.373 0 .738.05 1.096.143.244.064.473.158.695.265l.365-.559 1.203.781zm28.803-3.549c.039-.433.077-.865.122-1.297l.105-1.032c.016-.168.037-.334.048-.583a3.05 3.05 0 0 0-.068-.683c-.197-.941-1.04-1.626-1.906-1.8a2.859 2.859 0 0 0-1.295.04 3.002 3.002 0 0 0-1.108.57l.577.813c.249-.149.507-.237.769-.274a1.62 1.62 0 0 1 .757.055c.479.139.794.524.941.931a1.035 1.035 0 0 1 .052.508 2.466 2.466 0 0 0-1.547-.533c-1.261 0-2.285.888-2.285 1.992 0 1.103 1.024 1.999 2.285 1.999.387 0 .745-.092 1.065-.241l-.049.549 2.047.183.102-1.142-.612-.055zm-2.295-.233c-.63 0-1.082-.444-1.082-.989s.451-.981 1.082-.981c.444 0 .888.208 1.082.523l-.004.428c-.028.198-.06.396-.09.594-.215.251-.602.425-.988.425zm7.203-7.128-2.272-.435-.216 1.126.936.179-1.336 7.24-.619-.109-.198 1.129 2.684.474.198-1.129-.724-.127 1.547-8.348zm-11.051 7.651.097-3.333a1.776 1.776 0 0 0-1.683-1.825c-1.103 0-1.526.668-1.526.668s-.33-.878-1.358-.878-1.358.62-1.358.62l.011-.911-2.361-.038v.858h.695v4.459h-.799v1.176h2.297v-.917l.097-3.205a.76.76 0 1 1 1.518.051l-.162 4.503h2.475v-.796l-.917.004.105-3.489a.832.832 0 1 1 1.665.063l-.188 4.141h2.109v-1.151h-.717zm-19.234-4.634-.128-1.006 2.248-.306.079.927s.651-.976 1.992-.976c.94 0 1.732.701 1.844 1.635l.374 3.098.64-.049.118 1.143-2.01.223-.431-3.809a1.06 1.06 0 0 0-1.131-.937c-1.247.167-1.136 1.365-1.136 1.365l.527 3.513-2.09.335-.125-.891.747-.105-.628-4.412-.89.252zM32.785 31.19l.063-.873 2.213.142-.055.927s.831-.828 2.145-.562a1.857 1.857 0 0 1 1.484 1.967l-.246 3.111.638.079-.11 1.144-2.014-.18.332-3.819a1.059 1.059 0 0 0-.923-1.142c-1.255-.084-1.384 1.114-1.384 1.114l-.178 3.548-2.115-.085.053-.898.753.044.258-4.449-.914-.068zm-19.798-7.489-.625.039-3.048-7.674-3.274.32.1 1.214 1.283-.105-1.125 6.986-.928.114.161 1.315.007-.001v.001l1.891-.222.501-3.202 2.035-.172.641 1.535-1.369.085.102 1.333 3.74-.345-.092-1.221zm-4.813-2.398.43-2.722 1.046 2.622-1.476.1zm37.412 13.812c-.011-.103-.036-.224-.053-.311l-.052-.224-.827-3.579c-.194-.86-.404-1.715-.614-2.571l.577-.14-.235-1.009-1.985.479.207.888a2.744 2.744 0 0 0-1.661-.153 2.762 2.762 0 0 0-2.113 3.296 2.774 2.774 0 0 0 3.296 2.121 2.762 2.762 0 0 0 1.519-.928l.469 1.921.054.223.027.141a.999.999 0 0 1-.005.262.97.97 0 0 1-.223.476c-.226.275-.638.392-.931.298a.804.804 0 0 1-.4-.274c-.204-.296-.176-.484-.059-.565.13-.089.25-.016.316.077l.769-.529c-.261-.469-.769-.759-1.284-.64-.502.086-.988.474-1.113 1.039-.109.586.067.984.296 1.365.243.377.62.657 1.043.809.878.303 1.828-.018 2.401-.665.287-.323.486-.728.56-1.158.039-.212.041-.432.021-.649zm-3.697-2.492c-.903 0-1.626-.702-1.626-1.569 0-.86.724-1.562 1.626-1.562.279 0 .544.072.774.193h.007l.559 2.25a1.622 1.622 0 0 1-1.34.688z"/><circle cx="24.686" cy="12.941" r="3.197" fill="#87643c"/><circle cx="24.686" cy="12.941" r="2.686" fill="#f7e7c1"/><circle cx="24.686" cy="12.941" r=".314" fill="#87643c"/><path fill="#87643c" d="M24.676 11.08a.25.25 0 0 1-.25-.25v-.591a.25.25 0 0 1 .5 0v.591a.25.25 0 0 1-.25.25zM24.676 13.08a.25.25 0 0 1-.25-.25v-.931a.25.25 0 0 1 .5 0v.931a.25.25 0 0 1-.25.25z"/><path fill="#87643c" d="M23.989 13.889a.25.25 0 0 1-.184-.419l.654-.711a.25.25 0 1 1 .368.338l-.654.711a.25.25 0 0 1-.184.081zM24.676 15.883a.25.25 0 0 1-.25-.25v-.59a.25.25 0 0 1 .5 0v.59a.25.25 0 0 1-.25.25zM27.372 13.187h-.59a.25.25 0 0 1 0-.5h.59a.25.25 0 0 1 0 .5zM22.569 13.187h-.591a.25.25 0 0 1 0-.5h.591a.25.25 0 0 1 0 .5zM26.165 11.696a.25.25 0 0 1-.177-.427l.417-.417a.25.25 0 1 1 .354.354l-.417.417a.249.249 0 0 1-.177.073zM23.187 11.696a.25.25 0 0 1-.177-.073l-.418-.417a.25.25 0 1 1 .354-.354l.418.417a.25.25 0 0 1-.177.427zM26.582 15.093a.249.249 0 0 1-.177-.073l-.417-.417a.25.25 0 1 1 .354-.354l.417.417a.25.25 0 0 1-.177.427z"/><path fill="#87643c" d="M24.103 13.571s-.028-.617-.503-.524c-.474.094-.334.536-.328.707.005.171-.041.644-.232.901.244-.161.626-.331.897-.273s.631-.064.676-.299-.15-.538-.51-.512z"/></svg>