<svg xmlns="http://www.w3.org/2000/svg" width="341.333" height="341.333" version="1.0" viewBox="0 0 256 256"><path fill="#CD3332" d="M0 128v128h256V0H0v128zm141.2-79.5c6.3 11 27.3 47.3 46.7 80.7 19.3 33.4 35.1 61.1 35.1 61.5 0 1-25.2 26.3-26.2 26.3-.9 0-52.6-35.5-54.8-37.6-1.2-1.2-.2-1.4 7.5-1.5 5-.1 12.2-.4 16.1-.8l7.2-.6-22.6-38.4c-18.8-32.1-22.7-38-23.5-36.5-.6 1.1-10.4 18.2-21.9 38.2C93.4 159.7 84 176.3 84 176.5c0 .3 7 .5 15.5.5s15.5.4 15.5.9c0 1-54 39.6-55.5 39.6-.5 0-6.7-5.9-13.7-13.1L33 191.2l29.6-50.8c16.3-28 37.7-65 47.7-82.1 10-17.2 18.4-31 18.7-30.5.4.4 5.9 9.7 12.2 20.7z"/></svg>