<svg fill="#000000" xmlns="http://www.w3.org/2000/svg"  viewBox="0 0 64 64" width="48px" height="48px"><path d="M 2.1699219 21 C 1.0649219 21 0.16992188 21.895 0.16992188 23 L 0.16992188 34 C 0.16992188 35.105 1.0649219 36 2.1699219 36 L 4.7792969 36 C 5.4472969 36 6.0358281 35.868484 6.5488281 35.646484 C 6.8778281 35.871484 7.2678281 36 7.6738281 36 L 9.40625 36 C 9.72225 36 10.022062 35.926922 10.289062 35.794922 C 10.557062 35.926922 10.858781 36 11.175781 36 L 12.908203 36 C 13.175203 36 13.435734 35.942797 13.677734 35.841797 C 13.916734 35.943797 14.180031 36 14.457031 36 L 16.226562 36 C 17.018563 36 17.697484 35.536141 18.021484 34.869141 C 18.345484 35.536141 19.023453 36 19.814453 36 L 21.582031 36 C 21.993031 36 22.375359 35.875109 22.693359 35.662109 C 23.011359 35.875109 23.393688 36 23.804688 36 L 27.556641 36 C 27.720641 36 27.877297 35.9755 28.029297 35.9375 C 28.182297 35.9755 28.339906 36 28.503906 36 L 32.685547 36 C 32.885547 36 33.074813 35.96125 33.257812 35.90625 C 33.439812 35.96125 33.628125 36 33.828125 36 L 35.597656 36 C 36.140656 36 36.630234 35.782641 36.990234 35.431641 C 37.351234 35.782641 37.841766 36 38.384766 36 L 40.152344 36 C 40.411344 36 40.657766 35.947422 40.884766 35.857422 C 41.111766 35.947422 41.358187 36 41.617188 36 L 45.796875 36 C 45.996875 36 46.186141 35.96125 46.369141 35.90625 C 46.552141 35.96125 46.741406 36 46.941406 36 L 50.693359 36 C 50.857359 36 51.015969 35.9755 51.167969 35.9375 C 51.320969 35.9755 51.476625 36 51.640625 36 L 54.583984 36 C 56.533984 36 57.890719 34.82525 58.136719 33.03125 L 58.136719 34 C 58.136719 35.105 59.031719 36 60.136719 36 L 61.923828 36 C 63.028828 36 63.923828 35.105 63.923828 34 L 63.923828 23 C 63.923828 21.895 63.028828 21 61.923828 21 L 60.136719 21 C 59.071719 21 58.202625 22.111156 58.140625 23.160156 C 58.083625 23.164156 58.047797 23.165969 57.966797 23.167969 C 57.556797 21.977969 56.346156 21 54.410156 21 L 51.640625 21 C 51.059625 21 50.540781 21.252437 50.175781 21.648438 C 49.809781 21.252437 49.291937 21 48.710938 21 L 46.941406 21 C 46.734406 21 46.538562 21.040609 46.351562 21.099609 C 46.163562 21.040609 45.968719 21 45.761719 21 L 41.617188 21 C 41.358187 21 41.111766 21.052578 40.884766 21.142578 C 40.657766 21.052578 40.411344 21 40.152344 21 L 38.384766 21 C 38.220766 21 38.062156 21.0245 37.910156 21.0625 C 37.757156 21.0245 37.6015 21 37.4375 21 L 33.828125 21 C 33.621125 21 33.427234 21.040609 33.240234 21.099609 C 33.052234 21.040609 32.856391 21 32.650391 21 L 28.505859 21 C 27.924859 21 27.405062 21.251484 27.039062 21.646484 C 26.673063 21.251484 26.155219 21 25.574219 21 L 23.806641 21 C 23.654641 21 23.507234 21.020734 23.365234 21.052734 C 23.222234 21.020734 23.075828 21 22.923828 21 L 18.474609 21 C 18.317609 21 18.166531 21.022641 18.019531 21.056641 C 17.873531 21.022641 17.722406 21 17.566406 21 L 13.117188 21 C 12.852187 21 12.600141 21.054437 12.369141 21.148438 C 12.137141 21.054437 11.886094 21 11.621094 21 L 8.9589844 21 C 8.2979844 21 7.70875 21.325125 7.34375 21.828125 C 6.69775 21.288125 5.850875 21 4.796875 21 L 2.1699219 21 z M 2.1699219 23 L 4.796875 23 C 6.547875 23 6.4921875 24.100516 6.4921875 24.603516 L 6.4921875 27.384766 C 6.4921875 28.096766 5.8085938 28.177734 5.8085938 28.177734 C 6.2865937 28.177734 6.5292969 28.516234 6.5292969 28.990234 L 6.5292969 32.476562 C 6.5292969 32.994563 6.4232969 34 4.7792969 34 L 2.1699219 34 L 2.1699219 23 z M 8.9589844 23 L 11.621094 23 L 12.90625 34 L 11.175781 34 L 10.90625 30.982422 L 9.6738281 30.982422 L 9.40625 34 L 7.6738281 34 L 8.9589844 23 z M 13.117188 23 L 17.566406 23 L 17.566406 24.052734 L 16.226562 24.052734 L 16.226562 34 L 14.457031 34 L 14.457031 24.052734 L 13.117188 24.052734 L 13.117188 23 z M 18.474609 23 L 22.923828 23 L 22.923828 24.052734 L 21.582031 24.052734 L 21.582031 34 L 19.814453 34 L 19.814453 24.052734 L 18.474609 24.052734 L 18.474609 23 z M 23.806641 23 L 25.574219 23 L 25.574219 32.947266 L 27.558594 32.947266 L 27.558594 34 L 23.806641 34 L 23.806641 23 z M 28.503906 23 L 32.648438 23 L 32.648438 24.052734 L 30.273438 24.052734 L 30.273438 27.667969 L 32.648438 27.667969 L 32.648438 28.720703 L 30.273438 28.720703 L 30.273438 32.947266 L 32.685547 32.947266 L 32.685547 34 L 28.503906 34 L 28.503906 23 z M 33.828125 23 L 37.4375 23 L 37.4375 24.052734 L 35.597656 24.052734 L 35.597656 27.839844 L 37.224609 27.839844 L 37.224609 28.892578 L 35.597656 28.892578 L 35.597656 34 L 33.828125 34 L 33.828125 23 z M 38.384766 23 L 40.152344 23 L 40.152344 34 L 38.384766 34 L 38.384766 23 z M 41.617188 23 L 45.763672 23 L 45.763672 24.052734 L 43.386719 24.052734 L 43.386719 27.667969 L 45.763672 27.667969 L 45.763672 28.720703 L 43.386719 28.720703 L 43.386719 32.947266 L 45.798828 32.947266 L 45.798828 34 L 41.617188 34 L 41.617188 23 z M 46.941406 23 L 48.710938 23 L 48.710938 32.947266 L 50.693359 32.947266 L 50.693359 34 L 46.941406 34 L 46.941406 23 z M 51.640625 23 L 54.601562 23 C 55.155563 23 56.191406 23.031437 56.191406 24.523438 L 56.191406 32.443359 C 56.191406 33.920359 55.083984 34 54.583984 34 L 51.640625 34 L 51.640625 23 z M 60.136719 23 L 61.923828 23 L 61.923828 34 L 60.136719 34 L 60.136719 26 L 58.623047 26 L 58.623047 25 C 59.226047 24.626 60.041719 24.048219 60.136719 23.199219 L 60.136719 23 z M 3.9394531 24.052734 L 3.9394531 27.730469 L 4.1171875 27.730469 C 4.6181875 27.730469 4.7597656 27.525562 4.7597656 27.226562 L 4.7597656 24.603516 C 4.7607656 24.273516 4.4397188 24.052734 4.1367188 24.052734 L 3.9394531 24.052734 z M 53.410156 24.052734 L 53.410156 32.947266 L 53.851562 32.947266 C 54.119563 32.947266 54.423828 32.822188 54.423828 32.367188 L 54.423828 24.603516 C 54.423828 24.162516 54.119984 24.052734 53.833984 24.052734 L 53.410156 24.052734 z M 10.246094 24.320312 L 9.7636719 29.929688 L 10.816406 29.929688 L 10.335938 24.320312 L 10.246094 24.320312 z M 3.9394531 28.736328 L 3.9394531 32.947266 L 4.1367188 32.947266 C 4.4937188 32.947266 4.7617188 32.744812 4.7617188 32.382812 L 4.7617188 29.396484 C 4.7617188 28.987484 4.511875 28.736328 4.171875 28.736328 L 3.9394531 28.736328 z M 2 38.933594 C 1.448 38.933594 1 39.381594 1 39.933594 L 1 41.933594 C 1 42.485594 1.448 42.933594 2 42.933594 C 2.552 42.933594 3 42.485594 3 41.933594 L 3 39.933594 C 3 39.381594 2.552 38.933594 2 38.933594 z M 7 38.933594 C 6.448 38.933594 6 39.381594 6 39.933594 L 6 41.933594 C 6 42.485594 6.448 42.933594 7 42.933594 C 7.552 42.933594 8 42.485594 8 41.933594 L 8 39.933594 C 8 39.381594 7.552 38.933594 7 38.933594 z M 12 38.933594 C 11.448 38.933594 11 39.381594 11 39.933594 L 11 41.933594 C 11 42.485594 11.448 42.933594 12 42.933594 C 12.552 42.933594 13 42.485594 13 41.933594 L 13 39.933594 C 13 39.381594 12.552 38.933594 12 38.933594 z M 17 38.933594 C 16.448 38.933594 16 39.381594 16 39.933594 L 16 41.933594 C 16 42.485594 16.448 42.933594 17 42.933594 C 17.552 42.933594 18 42.485594 18 41.933594 L 18 39.933594 C 18 39.381594 17.552 38.933594 17 38.933594 z M 22 38.933594 C 21.448 38.933594 21 39.381594 21 39.933594 L 21 41.933594 C 21 42.485594 21.448 42.933594 22 42.933594 C 22.552 42.933594 23 42.485594 23 41.933594 L 23 39.933594 C 23 39.381594 22.552 38.933594 22 38.933594 z M 27 38.933594 C 26.448 38.933594 26 39.381594 26 39.933594 L 26 41.933594 C 26 42.485594 26.448 42.933594 27 42.933594 C 27.552 42.933594 28 42.485594 28 41.933594 L 28 39.933594 C 28 39.381594 27.552 38.933594 27 38.933594 z M 32 38.933594 C 31.448 38.933594 31 39.381594 31 39.933594 L 31 41.933594 C 31 42.485594 31.448 42.933594 32 42.933594 C 32.552 42.933594 33 42.485594 33 41.933594 L 33 39.933594 C 33 39.381594 32.552 38.933594 32 38.933594 z M 37 38.933594 C 36.448 38.933594 36 39.381594 36 39.933594 L 36 41.933594 C 36 42.485594 36.448 42.933594 37 42.933594 C 37.552 42.933594 38 42.485594 38 41.933594 L 38 39.933594 C 38 39.381594 37.552 38.933594 37 38.933594 z M 42 38.933594 C 41.448 38.933594 41 39.381594 41 39.933594 L 41 41.933594 C 41 42.485594 41.448 42.933594 42 42.933594 C 42.552 42.933594 43 42.485594 43 41.933594 L 43 39.933594 C 43 39.381594 42.552 38.933594 42 38.933594 z M 47 38.933594 C 46.448 38.933594 46 39.381594 46 39.933594 L 46 41.933594 C 46 42.485594 46.448 42.933594 47 42.933594 C 47.552 42.933594 48 42.485594 48 41.933594 L 48 39.933594 C 48 39.381594 47.552 38.933594 47 38.933594 z M 52 38.933594 C 51.448 38.933594 51 39.381594 51 39.933594 L 51 41.933594 C 51 42.485594 51.448 42.933594 52 42.933594 C 52.552 42.933594 53 42.485594 53 41.933594 L 53 39.933594 C 53 39.381594 52.552 38.933594 52 38.933594 z M 57 38.933594 C 56.448 38.933594 56 39.381594 56 39.933594 L 56 41.933594 C 56 42.485594 56.448 42.933594 57 42.933594 C 57.552 42.933594 58 42.485594 58 41.933594 L 58 39.933594 C 58 39.381594 57.552 38.933594 57 38.933594 z M 62 38.933594 C 61.448 38.933594 61 39.381594 61 39.933594 L 61 41.933594 C 61 42.485594 61.448 42.933594 62 42.933594 C 62.552 42.933594 63 42.485594 63 41.933594 L 63 39.933594 C 63 39.381594 62.552 38.933594 62 38.933594 z"/></svg>