<?xml version="1.0" encoding="UTF-8"?>
<svg xmlns="http://www.w3.org/2000/svg" xmlns:xlink="http://www.w3.org/1999/xlink" viewBox="0 0 48 48" width="48px"
    height="48px">
    <g id="surface29269825">
        <path style=" stroke:none;fill-rule:nonzero;fill:rgb(0%,0%,0%);fill-opacity:1;"
            d="M 5.761719 2.878906 C 5.449219 2.878906 5.15625 3.03125 4.976562 3.285156 C 4.796875 3.539062 4.75 3.863281 4.855469 4.15625 L 18.976562 44.476562 C 19.113281 44.863281 19.476562 45.121094 19.882812 45.121094 L 28.117188 45.121094 C 28.523438 45.121094 28.886719 44.863281 29.023438 44.476562 L 43.144531 4.15625 C 43.25 3.863281 43.203125 3.539062 43.023438 3.285156 C 42.84375 3.03125 42.550781 2.878906 42.238281 2.878906 L 34.105469 2.878906 C 33.695312 2.878906 33.332031 3.136719 33.199219 3.523438 L 24 29.78125 L 14.800781 3.523438 C 14.667969 3.136719 14.304688 2.878906 13.894531 2.878906 Z M 7.113281 4.800781 L 13.214844 4.800781 L 23.078125 32.957031 C 23.214844 33.34375 23.578125 33.601562 23.984375 33.601562 L 24.015625 33.601562 C 24.421875 33.601562 24.785156 33.34375 24.921875 32.957031 L 34.785156 4.800781 L 40.886719 4.800781 L 27.4375 43.199219 L 20.5625 43.199219 Z M 7.113281 4.800781 " />
    </g>
</svg>