<?xml version="1.0" encoding="UTF-8"?>
<svg xmlns="http://www.w3.org/2000/svg" xmlns:xlink="http://www.w3.org/1999/xlink" viewBox="0 0 48 48" width="48px" height="48px">
<defs>
<linearGradient id="linear0" gradientUnits="userSpaceOnUse" x1="86.819687" y1="30.09194" x2="86.819687" y2="187.144058" gradientTransform="matrix(0.27907,0,0,0.27907,0,0)">
<stop offset="0" style="stop-color:rgb(26.666668%,26.666668%,26.666668%);stop-opacity:1;"/>
<stop offset="0.69" style="stop-color:rgb(28.627452%,28.627452%,28.627452%);stop-opacity:1;"/>
</linearGradient>
<linearGradient id="linear1" gradientUnits="userSpaceOnUse" x1="86.147812" y1="16.700121" x2="86.147812" y2="226.959381" gradientTransform="matrix(0.27907,0,0,0.27907,0,0)">
<stop offset="0" style="stop-color:rgb(4.705882%,4.705882%,4.705882%);stop-opacity:1;"/>
<stop offset="0.675" style="stop-color:rgb(6.666667%,6.666667%,6.666667%);stop-opacity:1;"/>
</linearGradient>
</defs>
<g id="surface29383050">
<rect x="0" y="0" width="48" height="48" style="fill:rgb(94.509804%,76.862746%,5.882353%);fill-opacity:1;stroke:none;"/>
<path style=" stroke:none;fill-rule:nonzero;fill:url(#linear0);" d="M 23.835938 20.046875 L 17.273438 31.449219 L 17.273438 37.425781 C 16.140625 36.878906 15.082031 36.1875 14.109375 35.371094 C 13.636719 34.964844 13.175781 34.539062 12.757812 34.085938 C 11.484375 32.730469 11.378906 30.675781 12.515625 29.210938 C 14.289062 26.933594 16.191406 24.546875 18.1875 22.140625 C 18.765625 21.433594 19.335938 20.738281 19.90625 20.046875 Z M 31.382812 32.871094 C 31.097656 30.359375 30.769531 27.800781 30.414062 25.238281 C 30.351562 24.773438 30.285156 24.308594 30.21875 23.84375 L 24.945312 32.429688 Z M 33.855469 11.789062 C 32.175781 10.378906 30.246094 9.382812 28.117188 8.804688 C 20.121094 6.667969 11.886719 11.421875 9.742188 19.417969 C 9.046875 22.019531 9.058594 24.765625 9.796875 27.34375 C 11.96875 25.078125 14.136719 22.753906 16.238281 20.429688 C 16.5 20.136719 16.769531 19.84375 17.039062 19.550781 C 17.039062 19.550781 17.054688 12.953125 18.703125 11.773438 L 27.464844 11.746094 C 28.246094 11.917969 28.996094 12.277344 29.625 12.808594 C 30.226562 13.3125 30.699219 13.949219 30.996094 14.65625 C 31.304688 15.351562 31.441406 16.273438 31.582031 17.175781 C 31.640625 17.558594 31.695312 17.925781 31.761719 18.253906 C 31.890625 18.945312 32.011719 19.636719 32.128906 20.324219 C 32.398438 21.816406 32.664062 23.308594 32.953125 24.800781 C 33.53125 27.921875 34.15625 30.996094 34.800781 33.9375 C 36.675781 32.085938 38.03125 29.746094 38.722656 27.179688 C 40.222656 21.570312 38.308594 15.53125 33.855469 11.789062 Z M 33.855469 11.789062 "/>
<path style=" stroke:none;fill-rule:nonzero;fill:url(#linear1);" d="M 40.925781 14.273438 C 39.628906 12.015625 37.921875 10.078125 35.917969 8.542969 C 33.914062 7.003906 31.605469 5.863281 29.085938 5.191406 C 18.699219 2.398438 7.988281 8.585938 5.203125 18.976562 C 3.179688 26.527344 5.894531 34.253906 11.527344 38.976562 C 13.636719 40.746094 16.164062 42.097656 18.988281 42.855469 C 29.378906 45.636719 40.09375 39.457031 42.871094 29.070312 C 44.21875 24.039062 43.53125 18.78125 40.925781 14.273438 Z M 41.421875 28.679688 C 38.859375 38.265625 28.964844 43.980469 19.378906 41.40625 C 9.796875 38.84375 4.078125 28.949219 6.652344 19.363281 C 8.796875 11.332031 16.085938 6.023438 24.039062 6.023438 C 25.574219 6.023438 27.140625 6.21875 28.695312 6.636719 C 31.273438 7.328125 33.621094 8.550781 35.609375 10.222656 C 37.199219 11.558594 38.558594 13.171875 39.628906 15.023438 C 42.03125 19.183594 42.667969 24.039062 41.421875 28.679688 Z M 28.058594 28.640625 L 29.183594 26.953125 L 29.609375 26.316406 L 30.496094 24.988281 C 30.726562 24.636719 30.90625 24.253906 31.066406 23.863281 C 31.351562 23.054688 31.5 22.207031 31.5 21.351562 L 31.5 15.554688 C 31.5 13.164062 29.625 11.191406 27.238281 11.0625 L 20.445312 10.664062 C 19.289062 10.605469 18.195312 11.070312 17.421875 11.949219 C 16.792969 12.667969 16.5 13.613281 16.5 14.566406 L 16.5 20.25 C 16.5 20.664062 16.835938 21 17.25 21 L 22.6875 21 L 16.605469 31.320312 C 16.539062 31.433594 16.5 31.558594 16.5 31.695312 L 16.5 36.75 C 16.5 37.148438 16.816406 37.476562 17.210938 37.5 L 30.710938 38.25 L 30.75 38.25 C 30.945312 38.25 31.125 38.175781 31.265625 38.046875 C 31.417969 37.90625 31.5 37.703125 31.5 37.5 L 31.5 32.65625 C 31.5 32.265625 31.199219 31.933594 30.808594 31.90625 L 30.683594 31.898438 L 27.984375 31.71875 L 27.984375 31.710938 L 26.09375 31.589844 L 27.636719 29.273438 Z M 24.074219 32.578125 C 24.195312 32.820312 24.433594 32.976562 24.699219 33 L 30 33.351562 L 30 36.710938 L 18 36.039062 L 18 31.90625 L 24.636719 20.640625 C 24.710938 20.527344 24.75 20.390625 24.75 20.25 L 24.75 16.5 C 24.75 16.085938 24.414062 15.75 24 15.75 C 23.585938 15.75 23.25 16.085938 23.25 16.5 L 23.25 19.5 L 18 19.5 L 18 14.414062 C 18 13.785156 18.246094 13.207031 18.703125 12.78125 C 19.15625 12.351562 19.746094 12.136719 20.371094 12.164062 L 27.15625 12.5625 C 28.746094 12.644531 30 13.964844 30 15.554688 L 30 21.660156 C 30 22.550781 29.738281 23.414062 29.242188 24.15625 L 24.128906 31.835938 C 23.976562 32.054688 23.960938 32.339844 24.074219 32.578125 Z M 24.074219 32.578125 "/>
</g>
</svg>
