<svg xmlns="http://www.w3.org/2000/svg"  viewBox="0 0 64 64" width="48px" height="48px"><linearGradient id="PIwyuy6szeaXg-oCYNa3xa" x1="23.438" x2="23.438" y1="-6.973" y2="60.069" gradientUnits="userSpaceOnUse"><stop offset="0" stop-color="#6dc7ff"/><stop offset=".699" stop-color="#e6abff"/></linearGradient><path fill="url(#PIwyuy6szeaXg-oCYNa3xa)" d="M20.094,39.094L17.5,41.688v13.125h10.375l1.5-1.5V39.938V24.25V10.875l-1.5-1.5H17.5V22.5 L20,25C20,25,20,34,20.094,39.094z"/><linearGradient id="PIwyuy6szeaXg-oCYNa3xb" x1="40.438" x2="40.438" y1="-6.973" y2="60.069" gradientUnits="userSpaceOnUse"><stop offset="0" stop-color="#6dc7ff"/><stop offset=".699" stop-color="#e6abff"/></linearGradient><path fill="url(#PIwyuy6szeaXg-oCYNa3xb)" d="M44.062,24.812l2.312-2.312V9.375H36 l-1.5,1.5V24.25v15.688v13.375l1.5,1.5h10.375V41.688l-2.312-2.312C44.062,39.375,44.062,24.375,44.062,24.812z"/><linearGradient id="PIwyuy6szeaXg-oCYNa3xc" x1="23.438" x2="23.438" y1="69.813" y2="22.375" gradientTransform="matrix(1 0 0 -1 0 78.188)" gradientUnits="userSpaceOnUse"><stop offset="0" stop-color="#1a6dff"/><stop offset=".695" stop-color="#c822ff"/></linearGradient><path fill="url(#PIwyuy6szeaXg-oCYNa3xc)" d="M28.289,55.812H16.5V41.273l2.587-2.587 c-0.075-4.459-0.085-11.5-0.087-13.272l-2.5-2.5V8.375h11.789l2.086,2.086v43.266L28.289,55.812z M18.5,53.812h8.961l0.914-0.914 V11.289l-0.914-0.914H18.5v11.711l2.5,2.5V25c0,0.09,0.001,9.049,0.094,14.075l0.008,0.425L18.5,42.102V53.812z"/><g><linearGradient id="PIwyuy6szeaXg-oCYNa3xd" x1="52.438" x2="52.438" y1="69.813" y2="22.375" gradientTransform="rotate(180 46.438 39.094)" gradientUnits="userSpaceOnUse"><stop offset="0" stop-color="#1a6dff"/><stop offset=".695" stop-color="#c822ff"/></linearGradient><path fill="url(#PIwyuy6szeaXg-oCYNa3xd)" d="M47.375,55.812H35.586L33.5,53.727 V10.461l2.086-2.086h11.789v14.539l-2.312,2.312v13.734l2.312,2.312V55.812z M36.414,53.812h8.961V42.102l-2.312-2.312V24.803 l2.312-2.717V10.375h-8.961L35.5,11.289v41.609L36.414,53.812z"/></g></svg>