<?xml version="1.0" encoding="UTF-8"?>
<svg xmlns="http://www.w3.org/2000/svg" xmlns:xlink="http://www.w3.org/1999/xlink" viewBox="0 0 48 48" width="48px" height="48px">
<defs>
<linearGradient id="linear0" gradientUnits="userSpaceOnUse" x1="86" y1="24.410561" x2="86" y2="146.941757" gradientTransform="matrix(0.27907,0,0,0.27907,0,0)">
<stop offset="0" style="stop-color:rgb(94.509804%,98.039216%,4.705882%);stop-opacity:1;"/>
<stop offset="1" style="stop-color:rgb(95.294118%,96.078432%,3.529412%);stop-opacity:1;"/>
</linearGradient>
<linearGradient id="linear1" gradientUnits="userSpaceOnUse" x1="63.677631" y1="46.14706" x2="63.677631" y2="119.763062" gradientTransform="matrix(0.27907,0,0,0.27907,0,0)">
<stop offset="0" style="stop-color:rgb(96.862745%,98.823529%,47.843137%);stop-opacity:1;"/>
<stop offset="1" style="stop-color:rgb(97.647059%,98.039216%,45.490196%);stop-opacity:1;"/>
</linearGradient>
<linearGradient id="linear2" gradientUnits="userSpaceOnUse" x1="87.445869" y1="74.215309" x2="87.445869" y2="99.023628" gradientTransform="matrix(0.27907,0,0,0.27907,0,0)">
<stop offset="0" style="stop-color:rgb(96.862745%,98.823529%,47.843137%);stop-opacity:1;"/>
<stop offset="1" style="stop-color:rgb(97.647059%,98.039216%,45.490196%);stop-opacity:1;"/>
</linearGradient>
<linearGradient id="linear3" gradientUnits="userSpaceOnUse" x1="122.179131" y1="74.215309" x2="122.179131" y2="99.023628" gradientTransform="matrix(0.27907,0,0,0.27907,0,0)">
<stop offset="0" style="stop-color:rgb(96.862745%,98.823529%,47.843137%);stop-opacity:1;"/>
<stop offset="1" style="stop-color:rgb(97.647059%,98.039216%,45.490196%);stop-opacity:1;"/>
</linearGradient>
</defs>
<g id="surface29449699">
<rect x="0" y="0" width="48" height="48" style="fill:rgb(0%,0%,0%);fill-opacity:1;stroke:none;"/>
<path style=" stroke:none;fill-rule:nonzero;fill:url(#linear0);" d="M 37.5 41.25 L 10.5 41.25 C 8.433594 41.25 6.75 39.566406 6.75 37.5 L 6.75 10.5 C 6.75 8.433594 8.433594 6.75 10.5 6.75 L 37.5 6.75 C 39.566406 6.75 41.25 8.433594 41.25 10.5 L 41.25 37.5 C 41.25 39.566406 39.566406 41.25 37.5 41.25 Z M 10.5 8.25 C 9.257812 8.25 8.25 9.257812 8.25 10.5 L 8.25 37.5 C 8.25 38.742188 9.257812 39.75 10.5 39.75 L 37.5 39.75 C 38.742188 39.75 39.75 38.742188 39.75 37.5 L 39.75 10.5 C 39.75 9.257812 38.742188 8.25 37.5 8.25 Z M 10.5 8.25 "/>
<path style=" stroke:none;fill-rule:nonzero;fill:url(#linear1);" d="M 19.199219 19.851562 C 19.570312 19.90625 19.753906 19.558594 20.03125 19.398438 C 20.390625 19.140625 20.296875 18.636719 20.453125 18.269531 C 20.5625 18.234375 20.671875 18.199219 20.78125 18.167969 C 20.726562 17.8125 20.578125 17.46875 20.601562 17.097656 C 20.800781 16.953125 21.03125 16.792969 21.109375 16.550781 C 21.1875 16.515625 21.265625 16.476562 21.339844 16.4375 C 21.898438 16.429688 22.453125 16.441406 23.011719 16.433594 C 23.152344 16.441406 23.101562 16.253906 23.132812 16.167969 C 23.273438 16.257812 23.449219 16.269531 23.609375 16.226562 C 23.878906 16.136719 24.164062 16.183594 24.441406 16.171875 C 24.621094 16.175781 24.820312 16.136719 24.972656 16.265625 C 25.203125 16.226562 25.4375 16.230469 25.671875 16.234375 C 25.675781 16.136719 25.679688 16.042969 25.683594 15.949219 C 25.5 15.953125 25.320312 15.953125 25.136719 15.953125 C 25.082031 15.933594 25.023438 15.910156 24.96875 15.890625 C 24.941406 15.910156 24.878906 15.957031 24.851562 15.976562 C 24.445312 16.011719 24.039062 15.984375 23.632812 15.988281 C 23.636719 15.863281 23.699219 15.722656 23.589844 15.617188 C 23.566406 15.648438 23.519531 15.703125 23.496094 15.730469 C 23.464844 15.691406 23.402344 15.613281 23.371094 15.574219 C 23.367188 15.367188 23.367188 15.160156 23.367188 14.953125 C 23.332031 14.953125 23.257812 14.957031 23.222656 14.960938 C 23.222656 15.222656 23.21875 15.484375 23.222656 15.75 C 23.183594 15.75 23.109375 15.75 23.070312 15.75 C 23.074219 15.699219 23.082031 15.601562 23.085938 15.550781 C 21.640625 15.535156 20.195312 15.550781 18.75 15.542969 C 18.75 15.507812 18.746094 15.441406 18.746094 15.410156 C 18.660156 15.386719 18.570312 15.367188 18.484375 15.34375 C 18.484375 15.207031 18.480469 15.070312 18.414062 14.949219 C 18.355469 15.128906 18.320312 15.316406 18.273438 15.5 C 17.945312 15.476562 17.664062 15.710938 17.328125 15.65625 C 17.3125 15.464844 17.28125 15.273438 17.28125 15.082031 C 17.4375 15.027344 17.632812 15.007812 17.742188 14.871094 C 17.902344 14.472656 17.796875 14.019531 17.628906 13.640625 C 17.640625 13.617188 17.65625 13.570312 17.667969 13.550781 C 17.648438 13.515625 17.609375 13.449219 17.59375 13.417969 C 17.359375 13.328125 17.148438 13.191406 16.9375 13.058594 C 16.714844 12.945312 16.453125 12.863281 16.203125 12.878906 C 16.117188 12.882812 16.035156 12.898438 15.953125 12.925781 C 14.960938 13.105469 14.441406 14.371094 14.878906 15.238281 C 14.824219 15.285156 14.773438 15.335938 14.71875 15.382812 C 14.527344 15.121094 14.1875 15.195312 13.917969 15.257812 C 13.347656 15.449219 12.980469 15.976562 12.789062 16.523438 C 12.550781 17.167969 12.570312 17.867188 12.652344 18.539062 C 12.386719 18.664062 12.089844 18.585938 11.816406 18.679688 C 11.796875 19.214844 11.761719 19.75 11.667969 20.277344 C 11.648438 20.433594 11.613281 20.597656 11.671875 20.75 C 11.914062 20.808594 12.152344 20.871094 12.398438 20.902344 C 12.246094 20.929688 12.101562 20.984375 11.96875 21.058594 C 11.96875 21.058594 11.882812 21.105469 11.863281 21.140625 C 11.78125 21.839844 12.023438 22.515625 12.003906 23.210938 C 11.679688 23.144531 11.691406 23.523438 11.648438 23.730469 C 11.695312 23.773438 11.738281 23.816406 11.78125 23.855469 C 11.738281 23.929688 11.703125 24.003906 11.675781 24.082031 C 11.730469 24.28125 11.675781 24.519531 11.855469 24.667969 C 11.757812 25.261719 11.652344 25.851562 11.589844 26.449219 C 11.5625 26.644531 11.691406 26.839844 11.617188 27.03125 C 11.550781 27.25 11.382812 27.421875 11.335938 27.648438 C 11.074219 27.90625 10.933594 28.246094 10.765625 28.566406 C 10.621094 28.816406 10.648438 29.117188 10.589844 29.390625 C 10.4375 29.660156 10.214844 29.921875 10.21875 30.25 C 10.214844 30.425781 10.179688 30.628906 10.328125 30.757812 C 10.210938 31.390625 10.015625 32 9.871094 32.625 C 9.847656 32.859375 9.832031 33.117188 9.941406 33.335938 C 10.414062 33.472656 10.90625 33.40625 11.386719 33.371094 C 11.421875 33.160156 11.425781 32.945312 11.320312 32.753906 C 11.148438 32.144531 11.316406 31.484375 11.617188 30.945312 C 11.882812 30.894531 11.972656 30.640625 12.039062 30.410156 C 12.175781 29.902344 12.507812 29.46875 12.613281 28.953125 C 12.636719 28.789062 12.535156 28.621094 12.601562 28.464844 C 12.679688 28.292969 12.722656 28.082031 12.890625 27.972656 C 13.042969 27.871094 13.121094 27.703125 13.1875 27.539062 C 13.238281 27.386719 13.429688 27.359375 13.503906 27.226562 C 13.648438 26.976562 13.574219 26.671875 13.703125 26.417969 C 13.871094 26.023438 13.953125 25.574219 14.273438 25.269531 C 14.425781 25.140625 14.414062 24.921875 14.542969 24.777344 C 14.632812 24.949219 14.703125 25.140625 14.84375 25.285156 C 14.964844 25.335938 15.101562 25.320312 15.230469 25.332031 C 15.558594 25.8125 15.882812 26.296875 16.207031 26.78125 C 16.34375 27.007812 16.65625 27.050781 16.886719 26.953125 C 16.957031 27.070312 17.0625 27.167969 17.09375 27.304688 C 17.074219 27.511719 17.046875 27.71875 17.035156 27.925781 C 16.90625 28.046875 16.8125 28.210938 16.847656 28.390625 C 16.890625 28.761719 16.925781 29.132812 16.953125 29.503906 C 16.996094 29.761719 17.128906 29.996094 17.101562 30.265625 C 17.136719 30.292969 17.207031 30.351562 17.242188 30.382812 C 17.21875 30.789062 17.332031 31.203125 17.273438 31.605469 C 17.089844 31.960938 17.082031 32.371094 16.980469 32.753906 C 17.21875 33.03125 17.59375 32.878906 17.902344 32.886719 C 18.21875 32.921875 18.511719 33.097656 18.839844 33.082031 C 19.265625 33.074219 19.695312 33.113281 20.117188 33.035156 C 20.144531 32.886719 20.15625 32.730469 20.09375 32.585938 C 19.902344 32.460938 19.695312 32.367188 19.472656 32.300781 C 19.242188 32.242188 19.113281 32.023438 18.960938 31.859375 C 18.816406 31.675781 18.609375 31.519531 18.585938 31.273438 C 18.546875 30.9375 18.566406 30.597656 18.574219 30.261719 C 18.628906 30.121094 18.738281 29.996094 18.730469 29.835938 C 18.804688 29.519531 18.621094 29.210938 18.6875 28.894531 C 18.796875 28.195312 18.886719 27.488281 18.863281 26.78125 C 18.824219 26.726562 18.789062 26.675781 18.753906 26.621094 C 18.742188 26.507812 18.730469 26.390625 18.71875 26.277344 C 18.625 26.238281 18.519531 26.195312 18.5 26.085938 C 18.296875 25.511719 18.058594 24.949219 17.796875 24.402344 C 17.539062 23.914062 17.207031 23.476562 16.839844 23.070312 C 16.773438 22.878906 16.753906 22.675781 16.707031 22.480469 C 16.742188 22.40625 16.777344 22.335938 16.816406 22.261719 C 16.980469 22.285156 17.195312 22.445312 17.335938 22.289062 C 17.492188 22.050781 17.617188 21.78125 17.601562 21.488281 C 17.597656 20.992188 17.738281 20.496094 17.667969 19.996094 C 17.628906 19.769531 17.445312 19.605469 17.222656 19.5625 C 17.269531 19.402344 17.3125 19.238281 17.339844 19.074219 C 17.929688 19.378906 18.523438 19.792969 19.199219 19.851562 Z M 19.15625 17.0625 C 19.21875 17.03125 19.277344 16.996094 19.335938 16.960938 C 19.214844 16.832031 19.328125 16.753906 19.441406 16.683594 C 19.527344 16.683594 19.617188 16.679688 19.703125 16.679688 C 19.75 16.792969 19.777344 16.914062 19.789062 17.035156 C 19.761719 17.0625 19.710938 17.117188 19.683594 17.144531 C 19.5625 17.410156 19.378906 17.664062 19.148438 17.851562 C 19.074219 17.667969 18.984375 17.488281 18.878906 17.320312 C 18.855469 17.175781 19.066406 17.136719 19.15625 17.0625 Z M 19.15625 17.0625 "/>
<path style=" stroke:none;fill-rule:nonzero;fill:url(#linear2);" d="M 28.558594 22.097656 C 28.558594 21.332031 27.9375 20.710938 27.171875 20.710938 L 21.980469 20.710938 C 21.027344 20.710938 20.25 21.488281 20.25 22.441406 L 20.25 25.902344 C 20.25 26.859375 21.027344 27.636719 21.980469 27.636719 L 27.171875 27.636719 C 27.9375 27.636719 28.558594 27.015625 28.558594 26.25 L 28.558594 23.480469 L 23.367188 23.480469 C 23.367188 24.246094 23.984375 24.867188 24.75 24.867188 L 26.828125 24.867188 L 26.828125 26.25 L 21.980469 26.25 L 21.980469 22.097656 Z M 28.558594 22.097656 "/>
<path style=" stroke:none;fill-rule:nonzero;fill:url(#linear3);" d="M 36.519531 20.710938 L 31.671875 20.710938 C 30.71875 20.710938 29.941406 21.488281 29.941406 22.441406 L 29.941406 25.902344 C 29.941406 26.859375 30.71875 27.632812 31.671875 27.632812 L 36.519531 27.632812 C 37.472656 27.632812 38.25 26.859375 38.25 25.902344 L 38.25 22.441406 C 38.25 21.488281 37.472656 20.710938 36.519531 20.710938 Z M 36.519531 26.25 L 31.671875 26.25 L 31.671875 22.097656 L 36.519531 22.097656 Z M 36.519531 26.25 "/>
</g>
</svg>
