<svg xmlns="http://www.w3.org/2000/svg"  viewBox="0 0 64 64" width="48px" height="48px"><radialGradient id="yp77XD6BTNqyJbQgwvEHJa" cx="32" cy="-9364.5" r="30.775" gradientTransform="translate(0 9397)" gradientUnits="userSpaceOnUse"><stop offset="0" stop-color="#afeeff"/><stop offset=".193" stop-color="#bbf1ff"/><stop offset=".703" stop-color="#d7f8ff"/><stop offset="1" stop-color="#e1faff"/></radialGradient><path fill="url(#yp77XD6BTNqyJbQgwvEHJa)" d="M64,40L64,40c0,2.761-2.239,5-5,5H49c-2.761,0-4,2.238-4,5l0,0c0,2.762,2.238,5,5,5h4.565	C56.48,55,58,56.52,58,58.395V58.5c0,1.933-1.567,3.5-3.5,3.5h-47c-1.926,0-3.49-1.556-3.5-3.483V58.5C3.99,56.57,5.552,55,7.483,55	H9c2.209,0,4-1.791,4-4l0,0c0-2.209-1.791-4-4-4H5c-2.761,0-5-2.239-5-5l0,0c0-2.761,2.239-5,5-5h7c2.209,0,2.112-1.718,2.112-3.927	l0.455-0.152C14.567,30.712,14.209,29,12,29H5.5C2.462,29,0,26.538,0,23.5l0,0C0,20.462,2.462,18,5.5,18H9c1.657,0,3-1.343,3-3l0,0	c0-1.657-1.343-3-3-3H7.5C5.015,12,3,9.985,3,7.5l0,0C3,5.015,5.015,3,7.5,3H33h23c2.209,0,4,1.791,4,4l0,0c0,2.209-1.791,4-4,4	h-0.5c-1.933,0-3.5,1.567-3.5,3.5l0,0c0,1.933,1.567,3.5,3.5,3.5H59c2.209,0,4,1.791,4,4l0,0c0,2.209-1.791,4-4,4l-2.39,0.904	c-2.485,0-4.61,1.111-4.61,3.596l0,0c0,2.485,2.015,4.5,4.5,4.5H59C61.761,35,64,37.239,64,40z"/><linearGradient id="yp77XD6BTNqyJbQgwvEHJb" x1="25.069" x2="25.069" y1="15.271" y2="49.238" gradientUnits="userSpaceOnUse"><stop offset="0" stop-color="#40daf2"/><stop offset=".259" stop-color="#3bd3ef"/><stop offset=".624" stop-color="#2ec1e8"/><stop offset="1" stop-color="#1ba7dd"/></linearGradient><path fill="url(#yp77XD6BTNqyJbQgwvEHJb)" d="M0.269,36.893l1.068-0.619c0,0,0.956,0.337,2.418-0.056c1.462-0.394,1.406-0.675,1.406-0.675 l32.337-18.057l0.394-0.394l6.242-3.205l0.394,0.337l1.687-0.843l1.968,1.181v0.225l1.687,1.012v0.956l-3.599,1.743l-2.474-0.506 l-29.07,16.784l12.056-0.562c0,0,1.068-0.169,1.35-0.281c0.281-0.112,0.675-0.337,0.956-0.337c0.281,0,2.305,1.743,2.305,1.743 h1.125l0.731,1.012l0.112,0.9c0,0-1.912,2.137-2.024,2.137s-0.506-0.337-0.506-0.337l-12.394,0.9c0,0-3.88,0.394-5.511,0.169 h-2.305l-3.436,0.092L0.269,36.893z"/><linearGradient id="yp77XD6BTNqyJbQgwvEHJc" x1="45.728" x2="45.728" y1="21.658" y2="53.038" gradientUnits="userSpaceOnUse"><stop offset="0" stop-color="#40daf2"/><stop offset=".259" stop-color="#3bd3ef"/><stop offset=".624" stop-color="#2ec1e8"/><stop offset="1" stop-color="#1ba7dd"/></linearGradient><path fill="url(#yp77XD6BTNqyJbQgwvEHJc)" d="M63.831,23.028l-3.149,0.169l-0.45,0.337l-4.941-0.004l-0.787-0.169l-13.158,0.787 l-3.711,7.647l-3.992,1.462l0.056,0.787l2.024,1.574l-8.266,17.488l0.45,0.337l0.337-0.45l0.9-0.619l1.912-3.824l1.068-0.45 c0,0,0.45-0.506,0.956-0.9c0.506-0.394,2.024-1.293,2.024-1.293l5.511-10.909L63.1,27.864l0.9-4.105L63.831,23.028z M42.92,30.504 l1.631-3.036l10.965-0.787L42.92,30.504z"/><linearGradient id="yp77XD6BTNqyJbQgwvEHJd" x1="24.8" x2="24.8" y1="14.464" y2="48.431" gradientUnits="userSpaceOnUse"><stop offset="0" stop-color="#ffde44"/><stop offset=".388" stop-color="#ffcd49"/><stop offset="1" stop-color="#feaa53"/></linearGradient><path fill="url(#yp77XD6BTNqyJbQgwvEHJd)" d="M0,36.087l1.068-0.619c0,0,0.956,0.337,2.418-0.056s1.406-0.675,1.406-0.675l32.337-18.057 l0.394-0.394l6.242-3.205l0.394,0.337l1.687-0.843l1.968,1.181v0.225l1.687,1.012v0.956l-3.599,1.743l-2.474-0.506l-29.07,16.784 l12.056-0.562c0,0,1.068-0.169,1.35-0.281c0.281-0.112,0.675-0.337,0.956-0.337c0.281,0,2.305,1.743,2.305,1.743h1.125l0.731,1.012 l0.112,0.9c0,0-1.912,2.137-2.024,2.137s-0.506-0.337-0.506-0.337l-12.394,0.9c0,0-3.88,0.394-5.511,0.169h-2.305l-3.436,0.092 L0,36.087z"/><linearGradient id="yp77XD6BTNqyJbQgwvEHJe" x1="45.527" x2="45.527" y1="20.852" y2="52.231" gradientUnits="userSpaceOnUse"><stop offset="0" stop-color="#ffde44"/><stop offset=".388" stop-color="#ffcd49"/><stop offset="1" stop-color="#feaa53"/></linearGradient><path fill="url(#yp77XD6BTNqyJbQgwvEHJe)" d="M63.63,22.222l-3.149,0.169l-0.45,0.337l-4.941-0.004l-0.787-0.169l-13.158,0.787 l-3.711,7.647l-3.992,1.462l0.056,0.787l2.024,1.574l-8.266,17.488l0.45,0.337l0.337-0.45l0.9-0.619l1.912-3.824l1.068-0.45 c0,0,0.45-0.506,0.956-0.9c0.506-0.394,2.024-1.293,2.024-1.293l5.511-10.909l22.485-7.138l0.9-4.105L63.63,22.222z M42.719,29.697 l1.631-3.036l10.965-0.787L42.719,29.697z"/></svg>