<svg xmlns="http://www.w3.org/2000/svg" width="50" height="50"><path d="M37.523 5.957a7.165 7.165 0 0 0-3.334.959l-2.191 1.27v11.86a7.008 7.008 0 0 1-11.95 4.96 6.99 6.99 0 0 1-2.05-4.96V8.187l-2.19-1.26a7.128 7.128 0 0 0-5.439-.73c-1.85.5-3.4 1.69-4.36 3.35a7.169 7.169 0 0 0-.96 3.581c0 2.55 1.37 4.938 3.59 6.228 5.66 3.27 9.18 9.36 9.18 15.9v1.61c0 1.92.75 3.72 2.1 5.08a7.13 7.13 0 0 0 4.94 2.102h.12c1.82 0 3.57-.73 4.92-2.06a7.607 7.607 0 0 0 2.28-5.391v-1.34c0-3.27.88-6.43 2.47-9.18a18.33 18.33 0 0 1 6.71-6.72 7.212 7.212 0 0 0 3.35-4.37c.49-1.85.23-3.78-.72-5.44a7.16 7.16 0 0 0-4.37-3.35 7.208 7.208 0 0 0-2.096-.239zm-12.525 1.09c-1.64 0-3.1.79-4.01 2.02-.62.83-.99 1.86-.99 2.98v8c0 1.38.561 2.629 1.461 3.539.91.9 2.159 1.46 3.539 1.46 2.76 0 5-2.24 5-5v-8a4.96 4.96 0 0 0-.988-2.98 4.979 4.979 0 0 0-4.012-2.02z"/></svg>