<svg xmlns="http://www.w3.org/2000/svg" width="50" height="50" fill-rule="evenodd" clip-rule="evenodd" viewBox="0 0 48 48"><path fill="#f44336" d="m12.3 27 7.7 8.333L12.85 37 9 33.667 12.3 27zm20.322-16L36 12.857 34.874 19l-7.882-5.143L32.622 11zm-20.997 0c.375 0 .676.016 1.125.375.625.5 2.93 2.132 2.93 2.132l.418.743c.761.038.78.107 1.741.813L39 29.417C38.837 29.77 36.321 37 36.321 37h-3.884L9 12.25s.382-.143.75-.375c.577-.363 1.303-.875 1.875-.875zM14.5 6H6c-.528.264-1 .57-1 1.625v9l.988 2.748L5 20.75v1.125l1 .75V24l-1 1v3.75l1 .625V33.5c-1.044.743-1 1.625-1 2.639v4.736C7.339 41.459 6.951 42 9.625 42H13.5c.362-.023.644-.099 1-.133.994-.096 1.625-.867 1.625-.867l2.625 1 1-1s1.311 1.623 1.625 2l.875-1L25 43s1.02-.979 2.125-1H32.5c.082-.079 1-1 1-1 .421.252.049 1 3.875 1 1.056 0 2-.25 2-.25-.162-.54-.18-.43-.5-.75 0 0 2.5 0 4.125 1V26.507l-2 .618c.039-.317.963-.738 1-1.375.047-.803-.044-3.586-.161-4.174-.06-.3-.633-1.179-.839-1.451.245-.661 1-1.125 1-1.125v-.75l1-.583v-4.222L42 9.25l1-1.083V6.971l-1.056-.915-3.43-.567-.792.567-.396-.66s-5.184-.394-6.124-.394c-1.203 0-1.028.09-1.435 1.445l-1.726.176L27.875 6h-1.75l.288-.317c.306-.289.199-.173.438-.683h-6.018c-.094.172-.438.562-.709 1 0 0-.528-.005-.924.259S18.806 7 18.278 7h-2.243C14.715 7 14.5 6 14.5 6z"/></svg>