<svg xmlns="http://www.w3.org/2000/svg"  viewBox="0 0 48 48" width="48px" height="48px"><path fill="#a1887f" d="M28.006,5.13c-5.189-0.672-11.183,2.925-12.588,6.388l5.156,6.551l6.897,0.787 C24.998,14.858,25.27,10.877,28.006,5.13"/><path fill="#d7ccc8" d="M45.619,20.682l-3.285-1.251c-0.428-0.257-0.783-0.61-1.092-1.002 c-1.988-2.523-3.531-3.634-6.169-3.263c-3.387,0.477-2.605,2.41-5.433,2.082l-10.953-1.207l-8.251,3.801C5.329,21.722,2,31,2,31 l5.507-1.352c0.717-0.177,1.455-0.289,2.191-0.344C25.621,28.106,28,23,30.912,22.636c2.046-0.74,2.317-0.736,5.421-0.736 c1.647,0,8.917,0.014,8.917,0.014C45.993,21.914,46.256,21.064,45.619,20.682z"/><path fill="#d7ccc8" d="M9.299,24.526C6.607,21.908,5,18.051,5,14C5,8.073,8.514,3.211,13.629,1 C13.979,8.115,17.911,13.605,25,19.855L9.299,24.526z"/><path fill="#4e342e" d="M5.843,27.547c-0.349-1.745,0.444-3.895,1.46-5.55C3.952,25.276,2,31,2,31l4.803-1.186 C6.345,29.119,6.007,28.366,5.843,27.547z"/><path fill="#795548" d="M21.158,16.204c4.842,4.796,5.916,4.892-6.05,12.5c7.967-1.187,11.097-3.32,13.473-4.741 c-0.813-1.888-1.277-3.976-1.277-6.182c0-0.265,0.025-0.524,0.038-0.786L21.158,16.204z"/><path fill="#4caf50" d="M42.334,19.431c-0.428-0.257-0.783-0.61-1.092-1.002c-1.988-2.523-3.531-3.7-6.169-3.329 c-3.387,0.477-2.605,2.476-5.433,2.148l-0.598-0.066C29.026,17.455,29,17.724,29,18c0,1.807,0.354,3.528,0.977,5.114 c0.362-0.215,0.667-0.38,0.934-0.477c2.047-0.741,2.318-0.737,5.422-0.737c1.647,0,4.667,0,4.667,0 C41.743,21.9,42.334,19.431,42.334,19.431z"/><path fill="#efebe9" d="M29,18c0-0.276,0.024-0.546,0.039-0.817l-1.981-0.218c-0.025,0.343-0.052,0.686-0.052,1.036 c0,2.178,0.512,4.231,1.398,6.069c0.627-0.37,1.138-0.696,1.567-0.952C29.347,21.532,29,19.808,29,18z"/><path fill="#fbc02d" d="M45.619,20.682l-3.285-1.251c-0.211-0.127-0.404-0.278-0.583-0.444 c-0.215,1.064-0.576,1.966-1.042,2.913c2.2,0.004,4.491,0,4.491,0C45.943,21.9,46.256,21.064,45.619,20.682z"/><path fill="#a1887f" d="M6.597,17.562c0-5.29,3.288-9.804,7.927-11.635C14.017,4.345,13.715,2.738,13.629,1 C8.514,3.211,5,8.073,5,14c0,3.154,0.957,6.258,2.675,8.63C6.987,21.08,6.597,19.368,6.597,17.562z"/><path fill="#004d40" d="M36.52,17.001C37.089,16.966,38,18,38,18s-0.798,0.97-1.368,0.999C36.063,19.034,35,18,35,18 S35.95,17.03,36.52,17.001z"/><path fill="#64b5f6" d="M37.5,46c-4.687,0-8.5-3.813-8.5-8.5s3.813-8.5,8.5-8.5s8.5,3.813,8.5,8.5S42.187,46,37.5,46z M37.5,32c-3.032,0-5.5,2.467-5.5,5.5s2.468,5.5,5.5,5.5s5.5-2.467,5.5-5.5S40.532,32,37.5,32z"/><rect width="3" height="7" x="36" y="27" fill="#2196f3"/><rect width="7" height="3" x="27" y="36" fill="#2196f3"/><rect width="3" height="7" x="36" y="41" fill="#2196f3"/><rect width="7" height="3" x="41" y="36" fill="#2196f3"/></svg>