<?xml version="1.0" encoding="UTF-8"?>
<svg xmlns="http://www.w3.org/2000/svg" xmlns:xlink="http://www.w3.org/1999/xlink" viewBox="0 0 48 48" width="48px" height="48px">
<defs>
<linearGradient id="linear0" gradientUnits="userSpaceOnUse" x1="86" y1="76.913559" x2="86" y2="110.1875" gradientTransform="matrix(0.27907,0,0,0.27907,0,0)">
<stop offset="0" style="stop-color:rgb(91.764706%,93.333334%,51.372552%);stop-opacity:1;"/>
<stop offset="1" style="stop-color:rgb(99.215686%,77.254903%,60.000002%);stop-opacity:1;"/>
</linearGradient>
<linearGradient id="linear1" gradientUnits="userSpaceOnUse" x1="105.043633" y1="78.821693" x2="105.043633" y2="131.59613" gradientTransform="matrix(0.27907,0,0,0.27907,0,0)">
<stop offset="0" style="stop-color:rgb(91.764706%,93.333334%,51.372552%);stop-opacity:1;"/>
<stop offset="1" style="stop-color:rgb(99.215686%,77.254903%,60.000002%);stop-opacity:1;"/>
</linearGradient>
<linearGradient id="linear2" gradientUnits="userSpaceOnUse" x1="86" y1="59.125" x2="86" y2="76.913559" gradientTransform="matrix(0.27907,0,0,0.27907,0,0)">
<stop offset="0" style="stop-color:rgb(91.764706%,93.333334%,51.372552%);stop-opacity:1;"/>
<stop offset="1" style="stop-color:rgb(99.215686%,77.254903%,60.000002%);stop-opacity:1;"/>
</linearGradient>
<linearGradient id="linear3" gradientUnits="userSpaceOnUse" x1="66.956383" y1="78.821693" x2="66.956383" y2="131.59613" gradientTransform="matrix(0.27907,0,0,0.27907,0,0)">
<stop offset="0" style="stop-color:rgb(91.764706%,93.333334%,51.372552%);stop-opacity:1;"/>
<stop offset="1" style="stop-color:rgb(99.215686%,77.254903%,60.000002%);stop-opacity:1;"/>
</linearGradient>
<linearGradient id="linear4" gradientUnits="userSpaceOnUse" x1="86" y1="11.868" x2="86" y2="158.624313" gradientTransform="matrix(0.27907,0,0,0.27907,0,0)">
<stop offset="0" style="stop-color:rgb(85.09804%,87.843138%,12.941177%);stop-opacity:1;"/>
<stop offset="1" style="stop-color:rgb(98.431373%,52.941179%,16.862746%);stop-opacity:1;"/>
</linearGradient>
</defs>
<g id="surface29490358">
<rect x="0" y="0" width="48" height="48" style="fill:rgb(0%,0%,0%);fill-opacity:1;stroke:none;"/>
<path style=" stroke:none;fill-rule:nonzero;fill:url(#linear0);" d="M 24 21.464844 C 21.3125 23.019531 19.5 25.921875 19.5 29.25 C 19.5 29.351562 19.511719 29.445312 19.515625 29.546875 C 20.835938 30.308594 22.363281 30.75 24 30.75 C 25.636719 30.75 27.164062 30.308594 28.484375 29.546875 C 28.488281 29.445312 28.5 29.351562 28.5 29.25 C 28.5 25.921875 26.6875 23.019531 24 21.464844 Z M 24 21.464844 "/>
<path style=" stroke:none;fill-rule:nonzero;fill:url(#linear1);" d="M 32.992188 21.996094 C 32.902344 25.226562 31.113281 28.03125 28.484375 29.546875 C 28.386719 32.539062 26.832031 35.160156 24.503906 36.726562 C 29.859375 36.460938 34.125 32.046875 34.125 26.625 C 34.125 24.953125 33.710938 23.382812 32.992188 21.996094 Z M 32.992188 21.996094 "/>
<path style=" stroke:none;fill-rule:nonzero;fill:url(#linear2);" d="M 19.5 20.25 C 21.140625 20.25 22.675781 20.695312 24 21.464844 C 25.324219 20.695312 26.859375 20.25 28.5 20.25 C 29.957031 20.25 31.332031 20.605469 32.550781 21.21875 C 30.753906 18.386719 27.601562 16.5 24 16.5 C 20.398438 16.5 17.246094 18.386719 15.449219 21.21875 C 16.667969 20.605469 18.042969 20.25 19.5 20.25 Z M 19.5 20.25 "/>
<path style=" stroke:none;fill-rule:nonzero;fill:url(#linear3);" d="M 19.515625 29.546875 C 16.886719 28.03125 15.097656 25.226562 15.007812 21.996094 C 14.289062 23.382812 13.875 24.953125 13.875 26.625 C 13.875 32.046875 18.140625 36.460938 23.496094 36.722656 C 21.167969 35.160156 19.613281 32.539062 19.515625 29.546875 Z M 19.515625 29.546875 "/>
<path style=" stroke:none;fill-rule:nonzero;fill:url(#linear4);" d="M 39.25 36.941406 C 35.242188 40.53125 30.117188 42.574219 24.75 42.75 L 24.75 38.246094 C 25.90625 38.730469 27.171875 39 28.5 39 C 33.875 39 38.25 34.625 38.25 29.25 C 38.25 25.792969 36.433594 22.757812 33.714844 21.023438 C 33.359375 16.234375 29.535156 12.40625 24.75 12.039062 L 24.75 8.203125 C 27.597656 7.980469 30.238281 6.527344 31.917969 4.1875 L 30.703125 3.3125 C 29.300781 5.257812 27.113281 6.484375 24.75 6.703125 L 24.75 5.25 L 23.25 5.25 L 23.25 6.703125 C 20.886719 6.484375 18.699219 5.257812 17.296875 3.3125 L 16.082031 4.1875 C 17.761719 6.527344 20.402344 7.980469 23.25 8.203125 L 23.25 12.039062 C 18.464844 12.40625 14.640625 16.234375 14.285156 21.027344 C 11.566406 22.757812 9.75 25.792969 9.75 29.25 C 9.75 34.625 14.125 39 19.5 39 C 20.828125 39 22.09375 38.730469 23.25 38.246094 L 23.25 42.75 C 17.882812 42.574219 12.757812 40.53125 8.75 36.941406 L 7.75 38.058594 C 12.222656 42.0625 17.992188 44.265625 24 44.265625 C 30.007812 44.265625 35.777344 42.0625 40.25 38.058594 Z M 15.757812 21.90625 C 16.882812 21.332031 18.152344 21 19.5 21 C 20.5625 21 21.574219 21.207031 22.507812 21.574219 C 20.496094 23.148438 19.113281 25.492188 18.816406 28.15625 C 16.984375 26.675781 15.804688 24.429688 15.757812 21.90625 Z M 29.183594 28.160156 C 28.886719 25.492188 27.503906 23.148438 25.492188 21.574219 C 26.425781 21.207031 27.4375 21 28.5 21 C 29.847656 21 31.117188 21.332031 32.242188 21.90625 C 32.195312 24.429688 31.015625 26.675781 29.183594 28.160156 Z M 24.75 31.460938 C 25.75 31.386719 26.707031 31.160156 27.597656 30.804688 C 27.230469 32.722656 26.199219 34.410156 24.75 35.609375 Z M 24.75 29.960938 L 24.75 22.890625 C 26.542969 24.375 27.695312 26.601562 27.742188 29.09375 C 26.828125 29.558594 25.820312 29.863281 24.75 29.960938 Z M 23.25 22.890625 L 23.25 29.960938 C 22.179688 29.863281 21.171875 29.558594 20.257812 29.09375 C 20.304688 26.601562 21.457031 24.375 23.25 22.890625 Z M 23.25 31.460938 L 23.25 35.609375 C 21.800781 34.410156 20.769531 32.722656 20.402344 30.804688 C 21.292969 31.160156 22.25 31.386719 23.25 31.460938 Z M 36.75 29.25 C 36.75 33.796875 33.046875 37.5 28.5 37.5 C 27.4375 37.5 26.425781 37.292969 25.492188 36.925781 C 27.597656 35.277344 29.003906 32.792969 29.214844 29.976562 C 31.644531 28.429688 33.347656 25.84375 33.683594 22.84375 C 35.550781 24.355469 36.75 26.664062 36.75 29.25 Z M 32.097656 20.195312 C 30.984375 19.753906 29.769531 19.5 28.5 19.5 C 27.171875 19.5 25.90625 19.769531 24.75 20.253906 L 24.75 13.539062 C 28.429688 13.871094 31.414062 16.628906 32.097656 20.195312 Z M 23.25 13.539062 L 23.25 20.253906 C 22.09375 19.769531 20.828125 19.5 19.5 19.5 C 18.230469 19.5 17.015625 19.753906 15.902344 20.195312 C 16.585938 16.628906 19.570312 13.871094 23.25 13.539062 Z M 11.25 29.25 C 11.25 26.664062 12.449219 24.355469 14.316406 22.839844 C 14.652344 25.839844 16.355469 28.429688 18.785156 29.972656 C 18.996094 32.792969 20.402344 35.277344 22.507812 36.925781 C 21.574219 37.292969 20.5625 37.5 19.5 37.5 C 14.953125 37.5 11.25 33.796875 11.25 29.25 Z M 11.25 29.25 "/>
</g>
</svg>
