<svg fill="#000000" xmlns="http://www.w3.org/2000/svg"  viewBox="0 0 50 50" width="48px" height="48px"><path d="M 18 2 L 10 22 L 11.257812 24.451172 L 15 27 L 12.490234 26.855469 L 20 41.5 L 20 33.5 C 20 33.5 17.8 33.041 18 31 C 18.2 28.959 18.612 27.02 18 26 C 18 26 22 27 22 29 A 4.38 4.38 0 0 0 23 26 C 23 26 25 27 25 33 C 25 35 25 35 24 36 A 2.954 2.954 0 0 0 24 40 A 4.1 4.1 0 0 1 23.580078 41.744141 A 3.949 3.949 0 0 0 23 43 A 4.155 4.155 0 0 0 23.658203 45.986328 L 25 48 L 28 44 C 27.444 44.25 25.5 45.5 25.5 45.5 C 25.5 45.5 23.98 44.224 25 43 C 26.02 41.776 26.408 41.225 26 40 C 25.592 38.775 25 38 26 37 A 10.558 10.558 0 0 0 28 32 C 28.092 31.359 27.59 30.537 27.5 28.5 C 27.5 27.5 29 26 29 26 A 4.38 4.38 0 0 0 30 29 C 30 27 33 26 33 26 C 32.388 27.02 32.8 28.959 33 31 C 33.2 33.041 31 33.5 31 33.5 L 31 41.5 L 40 22 L 34 2 A 2.2 2.2 0 0 1 32 4 A 0.979 0.979 0 0 0 31 5 A 1.959 1.959 0 0 1 33 7 L 34 12 A 3.1 3.1 0 0 0 33 14 C 35 13.005 35 16 35 19 C 35 21.236 34 22 32 22 C 30 22 32 18 32 18 C 30 18 28 21 28 21 L 28 19 A 3.491 3.491 0 0 0 26 20 A 15.373 15.373 0 0 1 26 18 C 26.117 17.007 27.106 16.447 28 16 C 30 15 30 14 30 13 A 3.674 3.674 0 0 0 29 10 A 14.706 14.706 0 0 1 29 7 C 27 9 26 8 26 8 L 25 6 A 3.054 3.054 0 0 1 25 4 C 23.98 4.408 23.628203 6.0206563 23.783203 6.8476562 A 1.863 1.863 0 0 1 23 9 C 22.388 9.408 22 11 22 11 C 21 13 22 14 22 14 C 22 14 24 11 26 11 C 27.882 11 27.633 13.592 26 14 C 24.367 14.408 23.109672 15.200656 22.763672 16.847656 A 11.805 11.805 0 0 0 23 20 A 3.491 3.491 0 0 0 21 19 L 21 21 C 21 21 18 18 17 18 C 17 18 19 22 17 22 C 16 22 15 22 15 20 C 15 16.634 16 13 18 14 A 3.1 3.1 0 0 0 17 12 L 19 6 C 19 6 19 5 21 5 A 0.979 0.979 0 0 0 20 4 A 2.2 2.2 0 0 1 18 2 z"/></svg>