<svg xmlns="http://www.w3.org/2000/svg"  viewBox="0 0 48 48" width="48px" height="48px" baseProfile="basic"><polygon fill="#090504" points="4.878,19.33 4.441,21.663 8.585,21.663 8.234,24.201 3.973,24.201 3.122,28.786 0,28.786 2.435,16.214 10.286,16.214 9.695,19.33"/><polygon fill="#090504" points="18.927,19.33 18.49,21.663 22.634,21.663 22.283,24.201 18.022,24.201 17.171,28.786 14.049,28.786 16.484,16.214 25.143,16.214 24.293,19.33"/><polygon fill="#090504" points="14.915,16.259 13.339,24.201 12.488,28.786 9.366,28.786 11.801,16.214"/><polygon fill="#090504" points="47.875,16.883 46.423,24.198 45.573,28.786 45.268,28.786"/><path fill="#090504" d="M29.714,16.214l-2.801,0.021l-5.45,12.55h3.122l0.683-1.662h3.707l0.293,1.662H32L29.714,16.214z M26.146,24.63l1.74-4.192l0.601,4.192H26.146z"/><path fill="#090504" d="M33.951,20.405h2.732c0,0-0.195-1.676,1.171-1.676c1.269,0,1.073,1.362,0.293,2.2 c-5.463,5.866-4.976,5.343-4.976,5.343v2.514h7.317l0.488-2.514h-4.683c0,0,2.321-2.493,3.902-4.19 c2.439-2.619,0.975-5.867-2.341-5.867C33.854,16.214,33.951,20.405,33.951,20.405z"/><polygon fill="#090504" points="47.992,16.214 47.875,16.784 45.268,28.786 42.451,28.786 44.386,18.729 42.537,18.729 42.927,16.952 44.8,16.558 46.439,16.214"/></svg>