<svg xmlns="http://www.w3.org/2000/svg" width="50" height="50" viewBox="0 0 48 48"><ellipse cx="24.063" cy="22.766" fill="#e8eaf6" rx="14.392" ry="13.766"/><path fill="#9e9e9e" d="M39.181 32.405c0 5.529-3.375 9.804-7.506 9.804s-8.145-4.414-8.145-9.944 4.04-9.871 8.171-9.871 7.48 4.481 7.48 10.011z"/><path fill="#9e9e9e" d="M8.819 32.405c0 5.529 3.375 9.804 7.506 9.804s8.145-4.414 8.145-9.944-4.04-9.871-8.171-9.871-7.48 4.481-7.48 10.011z"/><path fill="#ffe0b2" d="M24.063 14.006v26.906l6.702-3.046a2.5 2.5 0 0 0 1.365-1.571l2.649-8.992V14.006H24.063zM24.063 14.006v26.906l-6.702-3.046a2.5 2.5 0 0 1-1.365-1.571l-2.649-8.992V14.006h10.716z"/><path fill="#5e35b1" d="M20.309 30.437v1.064c0 .113-.013.213-.038.325-.138.864-.888 1.514-1.79 1.539h-.05a1.847 1.847 0 0 1-1.79-1.377l-.15-.551-.113-.4a1.861 1.861 0 0 1 1.114-2.24l.263-.1c1.227-.487 2.554.426 2.554 1.74z"/><path fill="#ff9e80" d="M24.063 34.655V38.2h-.292a2.211 2.211 0 0 1-2.211-2.211v-1.334h2.503z"/><path fill="#5e35b1" d="m31.747 31.038-.113.4-.15.551a1.845 1.845 0 0 1-1.79 1.377h-.05c-.901-.025-1.652-.676-1.79-1.539a1.449 1.449 0 0 1-.038-.325v-1.064c0-1.314 1.327-2.228 2.553-1.74l.263.1a1.86 1.86 0 0 1 1.115 2.24z"/><path fill="#536dfe" d="M20.271 31.826c-.138.864-.888 1.514-1.79 1.539h-.05a1.847 1.847 0 0 1-1.79-1.377l-.15-.551c.2-.413.551-.751 1.001-.926l.263-.113a1.859 1.859 0 0 1 2.516 1.428zM31.634 31.438l-.15.551a1.845 1.845 0 0 1-1.79 1.377h-.05c-.901-.025-1.652-.676-1.79-1.539a1.857 1.857 0 0 1 2.515-1.427l.263.113a1.86 1.86 0 0 1 1.002.925z"/><circle cx="28.443" cy="30.9" r=".626" fill="#fff"/><path fill="#ff9e80" d="M24.063 34.655V38.2h.292c1.221 0 2.211-.99 2.211-2.211v-1.334h-2.503z"/><path fill="#ff6e40" d="M21.56 34.655h5.006v1.251H21.56z"/><circle cx="17.18" cy="30.9" r=".626" fill="#fff"/><path fill="#ffd180" d="M33.925 17.093H19.59c.65 1.736 1.722 3.563 3.181 5.268 3.961 4.634 9.244 6.621 11.798 4.437 2.082-1.779 1.708-5.778-.644-9.705z"/><ellipse cx="31.521" cy="19.283" fill="#e8eaf6" rx="6.085" ry="11.039" transform="rotate(-40.527 31.52 19.283)"/><path fill="#ffd180" d="M23.305 21.21a18.338 18.338 0 0 1-.089-4.26h-7.21a9.882 9.882 0 0 0-.281 4.006c.742 5.364 5.69 9.183 11.385 9.067-1.93-2.281-3.324-5.337-3.805-8.813z"/><ellipse cx="15.645" cy="16.715" fill="#e8eaf6" rx="4.83" ry="3.66" transform="rotate(122.731 15.645 16.716)"/><path fill="#e8eaf6" d="M25.789 15.405c-1.9-.417-3.405-1.994-3.944-4.033-2.419 1.951-3.961 4.894-3.961 8.187 0 5.415 4.169 9.876 9.557 10.542-1.524-2.524-2.44-5.743-2.44-9.251 0-1.928.286-3.761.788-5.445z"/><path fill="#ff9e80" d="M23 3h2v12h-2z"/><path fill="#ff9e80" d="M20.5 6.9s.437-.572 1.094-.976c.328-.225.711-.392 1.121-.532.41-.125.848-.188 1.285-.192.437.005.875.071 1.285.196.205.054.403.155.591.239.188.073.366.187.53.293A4.542 4.542 0 0 1 27.5 6.9v.2s-.438.031-1.094.054L24 7.2l-2.406-.046C20.937 7.132 20.5 7.1 20.5 7.1v-.2zM22.073 14.3 24 17.227l1.927-2.927L24 12.373zM22.412 3.266 24 .854l1.588 2.412L24 4.854z"/><path fill="#ff9e80" d="M24 8c-6.075 0-11 1.343-11 3 0 1.084 2.114 2.03 5.271 2.557l.623-.623c-1.171-.205-1.894-.48-1.894-.784 0-.635 3.134-1.15 7-1.15s7 .515 7 1.15c0 .304-.722.579-1.894.785l.623.623C32.886 13.03 35 12.084 35 11c0-1.657-4.925-3-11-3z"/><ellipse cx="18.478" cy="13.227" fill="#ff9e80" rx=".738" ry=".352"/><ellipse cx="29.478" cy="13.227" fill="#ff9e80" rx=".738" ry=".352"/><path fill="#cfd8dc" d="M29.078 44.8c5.721-.119 9.87-5.49 8.54-11.055l-3.113-13.028 7.643 5.007 1.637 8.065c1.707 8.405-7.122 15.015-14.707 11.011z"/><path fill="#e8eaf6" d="m30.633 21.984 2.682 10.825a6.924 6.924 0 0 1-5.185 8.416l1.929.956c4.017 1.99 8.669-1.162 8.311-5.631l-1.168-14.566h-6.569z"/><path fill="#e8eaf6" d="m48 23.273-.244.108a5.865 5.865 0 0 1-7.209-2.026l-3.819-5.307a1.107 1.107 0 0 0-.913-.46l-3.496.05 2.353 5.761c2.161 5.293 9.104 6.521 12.949 2.291l.379-.417z"/><path fill="#cfd8dc" d="M18.922 44.8c-5.721-.119-9.87-5.49-8.54-11.055l3.113-13.028-7.643 5.007-1.637 8.065C2.508 42.194 11.337 48.804 18.922 44.8z"/><path fill="#e8eaf6" d="m0 23.273.244.108a5.865 5.865 0 0 0 7.209-2.026l3.819-5.307c.211-.293.552-.465.913-.46l3.496.05-2.352 5.762C11.168 26.693 4.225 27.921.38 23.691L0 23.273z"/><path fill="#e8eaf6" d="m17.367 21.984-2.682 10.825a6.924 6.924 0 0 0 5.185 8.416l-1.93.955c-4.017 1.99-8.669-1.162-8.311-5.631l1.168-14.566 7.809-4.131-1.239 4.132z"/></svg>