<?xml version="1.0" encoding="UTF-8"?>
<svg xmlns="http://www.w3.org/2000/svg" xmlns:xlink="http://www.w3.org/1999/xlink" viewBox="0 0 48 48" width="48px" height="48px">
<g id="surface29195015">
<rect x="0" y="0" width="48" height="48" style="fill:rgb(20.392157%,59.607846%,85.882354%);fill-opacity:1;stroke:none;"/>
<path style=" stroke:none;fill-rule:nonzero;fill:rgb(94.509804%,76.862746%,5.882353%);fill-opacity:1;" d="M 24.074219 2.441406 L 20.023438 9.546875 C 19.238281 9.769531 18.441406 10.070312 17.621094 10.464844 L 11.613281 10.515625 L 11.925781 15.144531 C 10.773438 16.707031 9.953125 18.414062 9.476562 20.238281 L 1.941406 24.425781 L 9.832031 28.921875 C 10.328125 30.34375 11.042969 31.6875 11.972656 32.929688 L 12.011719 37.902344 L 17.527344 37.53125 C 18.417969 37.960938 19.347656 38.296875 20.304688 38.539062 L 23.925781 45.058594 L 27.632812 38.554688 C 28.609375 38.3125 29.558594 37.96875 30.460938 37.535156 L 36.402344 37.488281 L 36.089844 32.839844 C 36.980469 31.628906 37.671875 30.332031 38.152344 28.964844 L 46.0625 24.570312 L 38.535156 20.289062 C 38.050781 18.402344 37.199219 16.640625 35.988281 15.035156 L 35.949219 10.097656 L 30.394531 10.472656 C 29.585938 10.085938 28.808594 9.789062 28.027344 9.566406 Z M 24.039062 8.558594 L 26.042969 12.167969 L 26.695312 12.320312 C 27.574219 12.523438 28.460938 12.851562 29.410156 13.332031 L 29.78125 13.519531 L 32.972656 13.304688 L 32.996094 16.09375 L 33.324219 16.496094 C 34.558594 18.027344 35.378906 19.734375 35.753906 21.566406 L 35.890625 22.230469 L 39.941406 24.539062 L 35.65625 26.921875 L 35.480469 27.5 C 35.050781 28.90625 34.347656 30.230469 33.382812 31.445312 L 33.023438 31.902344 L 33.199219 34.515625 L 29.742188 34.539062 L 29.429688 34.703125 C 28.460938 35.195312 27.429688 35.550781 26.363281 35.765625 L 25.695312 35.898438 L 23.960938 38.941406 L 22.273438 35.898438 L 21.59375 35.757812 C 20.523438 35.539062 19.488281 35.175781 18.519531 34.675781 L 18.148438 34.480469 L 14.984375 34.699219 L 14.960938 31.882812 L 14.640625 31.476562 C 13.664062 30.253906 12.949219 28.90625 12.511719 27.472656 L 12.339844 26.898438 L 8.058594 24.460938 L 12.113281 22.207031 L 12.257812 21.53125 C 12.632812 19.726562 13.433594 18.046875 14.636719 16.542969 L 15 16.089844 L 14.824219 13.484375 L 18.335938 13.457031 L 18.644531 13.304688 C 19.59375 12.828125 20.476562 12.503906 21.34375 12.308594 L 21.988281 12.160156 Z M 25.730469 14.914062 C 25.636719 14.917969 25.558594 14.941406 25.5 15 C 24 16.5 24 15 24 15 L 21 15 L 19.5 16.5 L 18 16.5 L 16.5 18 L 16.875 22.875 L 19.6875 26.4375 C 19.6875 26.4375 24.375 29.25 25.6875 25.125 C 25.3125 22.875 24.75 21.9375 24.75 21.9375 C 24.75 21.9375 22.5 21.375 22.5 21.9375 L 22.5 24 C 22.5 24.664062 21 24 21 24 C 21 24 19.5 22.5 20.8125 20.0625 C 24.1875 17.4375 26.25 18.375 26.25 18.375 C 26.25 18.375 26.496094 18.546875 27 19.5 C 27.390625 20.238281 28.34375 20.179688 28.5 21 C 28.585938 21.441406 28.679688 24.789062 28.5 25.5 C 27.921875 26.425781 28.011719 27.78125 27 28.5 C 24 30 22.222656 29.351562 19.5 30 L 18 31.5 L 24 33 C 24 33 25.5 31.5 28.5 31.5 C 29.089844 31.058594 32.503906 27.785156 33 27 C 33 24 32.832031 24.109375 33 22.5 C 32.09375 19.3125 30 18 28.6875 16.3125 C 27.910156 16.054688 26.402344 14.894531 25.730469 14.914062 Z M 25.730469 14.914062 "/>
</g>
</svg>
