<svg xmlns="http://www.w3.org/2000/svg" width="50" height="50" viewBox="0 0 48 48"><path fill="#dd9f05" d="M24 7a19 19 0 1 0 0 38 19 19 0 1 0 0-38Z"/><path fill="#01579b" d="M24 9a17 17 0 1 0 0 34 17 17 0 1 0 0-34Z"/><path fill="#0277bd" d="M34 32c.917 2.917-2.167 5.045-4.583 5.045-1.322 0-2.958-.504-3.417-2.045a34.526 34.526 0 0 0-4 2.518V39h12.915a17.01 17.01 0 0 0 4.671-6.22C38.731 32.46 36.988 32 34 32zm2.563-17.429a22.086 22.086 0 0 0-8.052 4.386C27.629 21.634 25.517 24.582 22 27v7s2.796-5.109 9.417-6.667a56.387 56.387 0 0 1 9.581-1.386 16.906 16.906 0 0 0-4.435-11.376z"/><path fill="#0091ea" d="M34.919 12.993a17.056 17.056 0 0 0-3.089-2.073c-1.113.515-2.506 1.223-3.83 2.08.629.787.957 1.84.985 3.04a23.948 23.948 0 0 1 5.934-3.047z"/><path fill="#0277bd" d="M24 11a15 15 0 1 0 0 30 15 15 0 1 0 0-30Z"/><path fill="#00b0ff" d="M29.557 12.076c-.517.286-1.041.59-1.557.924.629.787.957 1.84.985 3.04a24.296 24.296 0 0 1 3.804-2.178 14.934 14.934 0 0 0-3.232-1.786z"/><path fill="#0091ea" d="M39 26c0-4.19-1.721-7.974-4.491-10.695-2.875 1.18-4.954 2.746-5.999 3.652-.881 2.677-2.993 5.625-6.51 8.043v7s2.796-5.109 9.417-6.667a56.899 56.899 0 0 1 7.578-1.234c0-.033.005-.065.005-.099z"/><path fill="#b3831d" d="M39.473 37H33v2h4.83a18.982 18.982 0 0 0 1.643-2zM22 7.107v37.786c.658.069 1.324.107 2 .107V7c-.676 0-1.342.038-2 .107zM11 39.83a19.107 19.107 0 0 0 2 1.643V10.527a19.107 19.107 0 0 0-2 1.643v27.66z"/><path fill="#01579b" d="M11 36.943c.609.723 1.28 1.392 2 2.005V13.051a17.136 17.136 0 0 0-2 2.005v21.887z"/><path fill="#ffc107" d="M10 3h12v36h20l-5 6H10l3-4V7z"/><path fill="#01579b" d="M24 37V9c-.678 0-1.343.051-2 .128V39h12.943a17.136 17.136 0 0 0 2.005-2H24z"/><path fill="#0277bd" d="M24 25.395A17.09 17.09 0 0 1 22 27v7s.636-1.149 2-2.521v-6.084z"/><path fill="#e8a30a" d="M22 39V3h-2v38h20.333L42 39z"/><path fill="#0091ea" d="M34 32c.917 2.917-2.167 5.045-4.583 5.045-1.322 0-2.958-.504-3.417-2.045a34.526 34.526 0 0 0-4 2.518V39h9.462a15.04 15.04 0 0 0 6.15-6.727C36.693 32.117 35.505 32 34 32z"/><path fill="#0277bd" d="M36.349 37.65c.196-.206.366-.435.551-.65h-6.89c-.2.027-.399.045-.593.045-.209 0-.426-.018-.644-.045H24v-.836a36.461 36.461 0 0 0-2 1.354V39h12.915c.497-.418.971-.863 1.418-1.333l.016-.017z"/></svg>