<svg xmlns="http://www.w3.org/2000/svg"  viewBox="0 0 48 48" width="48px" height="48px"><linearGradient id="9Gt2yz27Y0RqfcM5RRALva" x1="20.762" x2="10.039" y1="44.444" y2="6.912" gradientTransform="matrix(1 0 0 -1 0 49.276)" gradientUnits="userSpaceOnUse"><stop offset="0" stop-color="#33bef0"/><stop offset="1" stop-color="#0a85d9"/></linearGradient><path fill="url(#9Gt2yz27Y0RqfcM5RRALva)" d="M7,42l7-37h12l-1,5h-6.198c-0.469,0-0.875,0.326-0.976,0.783L16,19h7l-1,5h-5.198 c-0.469,0-0.875,0.326-0.976,0.783L12,42H7z"/><linearGradient id="9Gt2yz27Y0RqfcM5RRALvb" x1="37.798" x2="28.098" y1="44.4" y2="7.005" gradientTransform="matrix(1 0 0 -1 0 49.276)" gradientUnits="userSpaceOnUse"><stop offset="0" stop-color="#c3ced5"/><stop offset=".246" stop-color="#bbc7ce"/><stop offset=".623" stop-color="#a6b4bd"/><stop offset="1" stop-color="#8a9aa5"/></linearGradient><path fill="url(#9Gt2yz27Y0RqfcM5RRALvb)" d="M30,28h-5l-1.704,7.952C22.629,39.065,25.002,42,28.185,42h2.744	c3.484,0,6.437-2.562,6.93-6.01l0.813-5.689c0.213-1.494-0.062-3.017-0.784-4.342l-4.115-7.544c-0.502-0.92-0.702-1.975-0.572-3.014	l0.581-4.649C33.906,9.751,34.757,9,35.766,9l0,0c1.192,0,2.119,1.036,1.988,2.221L37,18h5l0.937-6.088	C43.496,8.278,40.684,5,37.006,5h-2.001c-3.455,0-6.393,2.521-6.919,5.936L27.4,15.398c-0.258,1.677,0.102,3.391,1.013,4.823	l3.808,5.984c1.139,1.79,1.52,3.959,1.06,6.03l-0.937,4.216C32.143,37.356,31.34,38,30.413,38l0,0c-1.248,0-2.185-1.142-1.94-2.366	L30,28z"/></svg>