<svg xmlns="http://www.w3.org/2000/svg" width="50" height="50" viewBox="0 0 48 48"><path fill="#8BC34A" d="M11 7h10l-1 4h3l-2 5h4l2-5h3l1-4h10l-6 26H3z"/><path fill="#263238" d="M40.754 6H30.26l-1.182 5h-2.877l-.509 1.854L20.785 6H10.631L2 33l8.908 9h10.215l1.523-6.172L23.698 37h2.62l4.104 5h10.5L46 17 40.754 6zm-9.421 2h8.133l-1.808 8h-3.754l1.086-4.402A.502.502 0 0 0 34.5 11h-3.908l.741-3zM27.5 11.916V12h6.39l-1.012 4h-6.581l1.087-3.66.116-.424zM18.887 11h-7.715l.938-3h7.688l-.911 3zm-6.553 22.042H4.369L4.328 33h-.031l3.125-10h1.915L7.52 29.362a.497.497 0 0 0 .081.438c.094.127.242.2.399.2h5.217l-.883 3.042zM9.52 26h4.858l-.871 3H8.663l.857-3zm15.574 7 2.628-11h-3.215l-1.352 5H17.4l1.354-5h-3.215l-.871 3H9.806l.675-2.362A.498.498 0 0 0 10 22H7.734l3.125-10h10.433l-1.354 5h17.494l-3.615 16h-8.723z"/><path fill="#8D6E63" d="m18.841 40-6.507-7H4.328l6.854 7zm19.96 0-4.985-7h-8.722l5.67 7zm-15.765-7H23l1.117-4.676L23.084 27h-5.6l6.587 8.001h.607z"/></svg>