<svg xmlns="http://www.w3.org/2000/svg"  viewBox="0 0 100 100" width="48px" height="48px"><path fill="#444445" d="M50,15c-19.33,0-35,15.67-35,35s15.67,35,35,35s35-15.67,35-35S69.33,15,50,15z"/><path fill="#fbb97f" d="M50,19.564c-16.81,0-30.436,13.627-30.436,30.436S33.19,80.436,50,80.436S80.436,66.809,80.436,50 S66.81,19.564,50,19.564z M50,77.026c-14.926,0-27.026-12.1-27.026-27.026c0-14.926,12.1-27.026,27.026-27.026 c14.926,0,27.026,12.1,27.026,27.026C77.026,64.926,64.926,77.026,50,77.026z"/><path fill="#1f212b" d="M50,14c-19.851,0-36,16.149-36,36s16.149,36,36,36s36-16.149,36-36S69.851,14,50,14z M50,84 c-18.748,0-34-15.252-34-34s15.252-34,34-34s34,15.252,34,34S68.748,84,50,84z"/><path fill="#1f212b" d="M71.853,28.013c-0.196-0.194-0.512-0.194-0.707,0.002s-0.194,0.513,0.002,0.707 C76.856,34.396,80,41.952,80,50c0,16.542-13.458,30-30,30S20,66.542,20,50s13.458-30,30-30c3.55,0,7.025,0.614,10.328,1.825 c0.261,0.094,0.547-0.037,0.642-0.298c0.095-0.259-0.038-0.546-0.297-0.642C57.259,19.635,53.668,19,50,19 c-17.093,0-31,13.906-31,31s13.907,31,31,31s31-13.906,31-31C81,41.684,77.751,33.875,71.853,28.013z"/><path fill="#1f212b" d="M63.277,23.091c0.669,0.332,1.331,0.69,1.969,1.066c0.237,0.141,0.544,0.062,0.685-0.177 C65.978,23.9,66,23.813,66,23.727c0-0.171-0.088-0.338-0.246-0.431c-0.658-0.388-1.342-0.759-2.031-1.102 c-0.248-0.122-0.548-0.021-0.671,0.226C62.931,22.665,63.029,22.967,63.277,23.091z M68.196,26.146 c0.22,0.167,0.533,0.126,0.701-0.094c0.07-0.09,0.103-0.197,0.103-0.303c0-0.15-0.067-0.299-0.196-0.397 c-0.333-0.255-0.673-0.503-1.017-0.744c-0.226-0.159-0.537-0.104-0.696,0.122c-0.158,0.225-0.104,0.537,0.122,0.696 C67.545,25.659,67.873,25.899,68.196,26.146z"/><path fill="#fbb97f" d="M67.105,55.312c-1.03-1.652-6.942-2.886-7.95-3.219c-1.009-0.333-8.937,0.118-10.375,0.376 c-1.438,0.257-5.161-0.73-7.385-1.89c-2.225-1.16-1.605-6.221-1.605-6.221l-0.639-2.672l0.864-2.306 c-0.019,0.478,0.339,2.212,1.256,3.223c0.625,0.69,1.767,0.753,2.219,0.992c1.115,0.588,3.241-0.352,5.931-0.674 c2.689-0.322,10.014,6.255,10.679,6.352c0.665,0.096,1.974-0.504,1.974-0.504s2.232,0.684,3.183,0.669 c0.951-0.015,2.471-2.568,2.117-2.235c-0.354,0.332-2.851-0.396-4.377-0.333c-1.526,0.063-8.508-4.045-8.83-4.699 c-0.322-0.654-4.313-2.768-4.313-2.768l1.352-1.266l3.101-0.161l4.292,2.704l2.402,2.386l2.555,0.919l0.365,1.931l0.891,0.481 l0.783-2.155l1.684-0.011l1.373,1.642l0.869-1.073l-0.011-1.202l0.826-1.03l-0.697-1.545l1.205,0.097 c-0.029-0.526-1.398-2.435-1.773-2.607c-0.376-0.172-1.041,0.247-2.918,0.172c-1.878-0.075-2.553-1.298-2.553-1.298 c-1.76,0.976-4.292-1.084-4.292-1.084l-0.59-1.824l2.307-0.665c-0.536-2.382-4.71-3.122-4.699-3.304 c0.011-0.182-0.547-1.18-1.577-1.856c-1.03-0.676-5.36-0.299-5.36-0.299s0.843-1.536,0.328-1.675 c-0.515-0.14-2.29,1.835-2.29,1.835s0.037-0.622-2.27-1.373c-2.307-0.751-1.245-3.272-1.245-3.272l2.41-0.765 c0.494,0.1,1.171,2.224,1.171,2.224c0.685-0.036,1.303-2.518,1.303-2.518l-1.247-0.632l-3.862,0.632l-1.895,0.438l-0.627,1.111 c0,0,0.157,1.51,0.413,1.881c0.256,0.37,0.755,1.938,0.755,1.938l-1.995,0.028c0,0-0.57-0.356-1.881-0.727 c-1.311-0.371-0.556-1.681-0.556-1.681l-1.382-0.057l-0.712,1.2c-0.157,0.858,1.297,2.133,1.297,2.133L36.96,29.6l-1.639,0.556 l-1.696,0.499l-2.095,1.952l-1.425,3.135l-1.111-0.185l-1.093-1.07l-0.674,1.484l1.556,1.594l-2.368,4.433l0.598,4.56 c0,0-1.012,4.075-0.812,5.258c0.2,1.183-2.636,1.439-2.636,1.439c0.185,0.413,0.442,1.012,2.152,1.154 c1.71,0.142,2.365-1.995,2.465-1.203c0.1,0.792,3.947,5.99,3.947,5.99l-0.948,2.678l0.05,2.894l-1.054,0.185l-0.898,0.356 c0.342,1.268,2.166,1.282,3.436,1.123c1.27-0.159,0.141-4.058,2.064-3.859c1.924,0.2,1.952,5.571,1.952,5.571 c1.297,0.1,1.707-2.907,1.707-2.907l0.879,0.628l3.014,0.426l2.076,1.227l0.879,1.709c0,0,0.171,1.226,0,1.226 c-0.171,0-2.029,1.197-2.029,1.197l-3.733,0.544l-4.987-0.316l-4.303-3.249v1.539l3.078,3.049l8.664,3.809l8.721,1.264l9.519-1.14 l7.552-5.301c0,0,2.736-3.876,2.843-4.366c0.107-0.49,0.023-4.522-0.323-6.794C69.942,58.417,68.135,56.965,67.105,55.312z M62.407,39.84l1.19-0.224l0.767,0.551l0.493,0.501l-0.863,0.504c0,0-1.373,0.601-1.406,0.622c-0.032,0.021-0.44-0.193-0.44-0.193 L62.407,39.84z M48.744,34.031c0,0,1.585-1.757,2.975-1.215c1.39,0.542,2.511,2.198,3.451,2.098c0.94-0.1-0.14,1.15-1.232,0.896 c-1.091-0.254-4.226-1.666-4.824-1.537C48.516,34.402,48.744,34.031,48.744,34.031z"/><path fill="none" stroke="#1f212b" stroke-linecap="round" stroke-linejoin="round" stroke-miterlimit="10" d="M48.599,23.01 c0.464-0.024,0.931-0.036,1.401-0.036c14.926,0,27.026,12.1,27.026,27.026c0,6.747-2.472,12.916-6.56,17.652"/><path fill="none" stroke="#1f212b" stroke-linecap="round" stroke-linejoin="round" stroke-miterlimit="10" d="M43.982,23.646 c0.714-0.162,1.44-0.297,2.174-0.401"/><path fill="none" stroke="#1f212b" stroke-linecap="round" stroke-linejoin="round" stroke-miterlimit="10" d="M37.692,25.933 c1.142-0.585,2.332-1.092,3.561-1.512"/><path fill="none" stroke="#1f212b" stroke-linecap="round" stroke-linejoin="round" stroke-miterlimit="10" d="M31.196,69.412 c-0.408-0.395-0.803-0.803-1.185-1.223C25.639,63.388,22.974,57.005,22.974,50c0-9.757,5.171-18.307,12.922-23.058"/><path fill="none" stroke="#1f212b" stroke-linecap="round" stroke-linejoin="round" stroke-miterlimit="10" d="M46.157,23.245 c0.864,0.338,1.324,1.781,1.145,2.092c-0.175,0.304,1.833-0.801,1.297-2.328"/><path fill="none" stroke="#1f212b" stroke-linecap="round" stroke-linejoin="round" stroke-miterlimit="10" d="M50.438,52.505 c-1.856,0.058-3.573,0.048-4.865-0.168c-3.186-0.531-5.491-2.242-6.004-4.636s0.323-3.857,0.323-3.857 c-1.748-2.071,0.133-4.75,0.133-4.75c0.608,3.382,1.292,4.23,3.629,4.522c2.888,0.361,2.528-0.225,5.529-0.627 c3.173-0.425,9.632,5.529,10.183,6.042c0.551,0.513,1.82-0.216,2.618-0.14s0.579,0.471,2.661,0.582 c2.083,0.112,2.7-2.215,2.7-2.215c-6.289,0.489-10.098-2.883-13.09-5.163c-1.994-1.519-4.674-2.5-4.674-2.5 c4.028-4.799,9.613,1.79,10.81,2.968c1.197,1.178,3.51,1.883,3.51,1.883l0.37,2.551c0.67-0.27,1.382-2.722,1.382-2.722 s0.442-0.1,1.539,0c1.097,0.1,1.297,2.264,1.297,2.264c1.069-0.401,0.641-1.793,0.641-1.793l0.527-0.513l-0.1-0.898l0.627-0.94 l-0.598-1.325l1.254,0.129c-1.254-3.321-2.459-2.683-3.79-2.552c-1.738,0.171-3.581-1.197-3.581-1.197 c-2.241,0.798-4.75-1.453-4.75-2.574c0-1.121,2.28-0.873,2.28-0.873c-0.551-2.963-4.864-3.439-4.864-3.439 C55.719,27.353,50,28.588,50,28.588s-0.798-0.235-0.874-0.44c-0.076-0.206,1.11-1.145,0.654-1.343 c-0.683-0.297-1.926,1.2-2.27,1.517c-0.351,0.323-0.778-0.855-1.538-0.855c-0.76,0-2.441-0.845-2.517-2.384 c-0.032-0.644,0.184-1.117,0.528-1.437"/><path fill="none" stroke="#1f212b" stroke-linecap="round" stroke-linejoin="round" stroke-miterlimit="10" d="M57.735,52.234 c-1.074,0.003-2.236,0.048-3.419,0.102"/><path fill="none" stroke="#1f212b" stroke-linecap="round" stroke-linejoin="round" stroke-miterlimit="10" d="M70.466,67.652 c0.237-1.181,0.355-2.889,0.11-5.321c-0.646-6.422-6.318-9.573-10.335-9.993"/><path fill="none" stroke="#1f212b" stroke-linecap="round" stroke-linejoin="round" stroke-miterlimit="10" d="M48.357,34.267 c0,0,1.083-1.982,3.363-1.451c2.28,0.531,2.453,1.927,3.749,2.07c0,0-0.5,1.482-2.295,0.712s-1.881-1.054-2.935-1.197 C48.955,34.229,48.357,34.267,48.357,34.267z"/><path fill="none" stroke="#1f212b" stroke-linecap="round" stroke-linejoin="round" stroke-miterlimit="10" d="M62.368,41.868 c0,0-1.062-1.7,0.276-2.132c1.038-0.335,2.212,0.826,2.212,0.826S63.033,40.994,62.368,41.868z"/><path fill="none" stroke="#1f212b" stroke-linecap="round" stroke-linejoin="round" stroke-miterlimit="10" d="M41.253,24.421 c-0.254,0.995-0.191,2.585,2.003,3.911c0,0-4.588,0-5.475-1.653c-0.139-0.259-0.167-0.528-0.089-0.746"/><path fill="none" stroke="#1f212b" stroke-linecap="round" stroke-linejoin="round" stroke-miterlimit="10" d="M35.896,26.939 c-0.096,0.865,0.247,2.331,3.427,2.847c0,0-5.389-0.369-7.186,2.222c-1.797,2.591-1.899,3.789-3.028,3.634 c-1.129-0.156-0.779-1.793-0.779-1.793s-2.306,2.802,0.453,3.716c0,0-2.749,2.56-2.317,6.182c0.431,3.623,0.107,8.366-1.365,8.99 c-1.472,0.625-1.821,0.315-1.821,0.315s2.152,3.253,4.866,0.068c0,0,2.172,5.079,4.053,6.418c0,0-0.983,0.554-1.026,2.565 c-0.028,1.339,0.8,2.886-0.427,2.964c-1.228,0.078-1.46-0.376-1.756-0.074s1.584,2.546,3.394,1.652c1.81-0.894,0.801-4.062,2.38-4 c2.698,0.104,1.202,5.421,1.544,5.536s2.18,0.268,2.133-2.943c0,0,0.854,1.092,3.106,1.059c2.252-0.033,3.873,1.911,3.734,3.33 c-0.224,2.276-3.711,2.926-6.64,2.565c-3.192-0.393-6.452-1.404-8.628-4.002"/><path fill="none" stroke="#1f212b" stroke-linecap="round" stroke-linejoin="round" stroke-miterlimit="10" d="M65.256,47.084 c3.971,0,1.923,8.483,8.322,8.483c3.648,0,3.932-4.977,0.484-4.977"/><path fill="none" stroke="#1f212b" stroke-linecap="round" stroke-linejoin="round" stroke-miterlimit="10" d="M76.386,55.91 c0,0-0.267,1.889-3.187,1.889c-4.614,0-4.37-10.715-7.943-10.715"/></svg>