<svg fill="#000000" xmlns="http://www.w3.org/2000/svg"  viewBox="0 0 64 64" width="48px" height="48px"><path d="M 24.414062 7.4160156 C 23.901812 7.4160156 23.3895 7.6105 23 8 L 20.878906 10.121094 C 19.983906 11.016094 19.469969 12.190266 19.417969 13.447266 C 17.722969 14.465266 15.794594 15 13.808594 15 L 12.414062 15 C 12.058063 15 11.727828 15.189047 11.548828 15.498047 C 11.369828 15.807047 11.369875 16.186094 11.546875 16.496094 C 14.273875 21.267094 17.922531 25.306953 22.394531 28.501953 L 22.832031 28.814453 C 23.005031 28.938453 23.210063 29 23.414062 29 C 23.570062 29 23.726094 28.962672 23.871094 28.888672 C 24.204094 28.717672 24.414062 28.374 24.414062 28 L 24.414062 22 C 24.414062 21.803 24.355094 21.609312 24.246094 21.445312 C 23.350094 20.102313 23.529875 18.29825 24.671875 17.15625 L 24.707031 17.121094 L 31.085938 23.5 L 5.2929688 49.292969 C 4.9019687 49.683969 4.9019688 50.316031 5.2929688 50.707031 C 5.4879688 50.902031 5.744 51 6 51 C 6.256 51 6.5120312 50.902031 6.7070312 50.707031 L 40.5 16.914062 L 40.742188 17.15625 C 41.884188 18.29825 42.062969 20.102313 41.167969 21.445312 C 41.058969 21.609313 41 21.803 41 22 L 41 28 C 41 28.374 41.209969 28.717672 41.542969 28.888672 C 41.687969 28.962672 41.844 29 42 29 C 42.204 29 42.407078 28.938453 42.580078 28.814453 L 43.019531 28.5 C 47.491531 25.306 51.140187 21.267094 53.867188 16.496094 C 54.044187 16.186094 54.044234 15.807047 53.865234 15.498047 C 53.686234 15.189047 53.356 15 53 15 L 51.605469 15 C 49.619469 15 47.691094 14.465266 45.996094 13.447266 C 45.944094 12.190266 45.430156 11.015094 44.535156 10.121094 L 42.414062 8 C 41.635062 7.221 40.364938 7.221 39.585938 8 L 37 10.585938 C 36.22 11.364937 36.22 12.635063 37 13.414062 L 39.085938 15.5 L 32.5 22.085938 L 26.121094 15.707031 L 28.414062 13.414062 C 29.194063 12.635063 29.194063 11.364937 28.414062 10.585938 L 25.828125 8 C 25.438625 7.6105 24.926313 7.4160156 24.414062 7.4160156 z M 24.414062 9.4140625 L 27.001953 11.998047 L 23.257812 15.742188 C 21.519813 17.480187 21.186063 20.184156 22.414062 22.285156 L 22.414062 26.023438 C 19.154063 23.497438 16.392641 20.468141 14.181641 16.994141 C 16.605641 16.925141 18.94475 16.182031 20.96875 14.832031 C 21.24675 14.646031 21.414062 14.334 21.414062 14 L 21.414062 13.65625 C 21.414062 12.85425 21.725969 12.102156 22.292969 11.535156 L 24.414062 9.4140625 z M 41 9.4140625 L 43.121094 11.535156 C 43.688094 12.103156 44 12.85425 44 13.65625 L 44 14 C 44 14.334 44.167313 14.646031 44.445312 14.832031 C 46.469313 16.182031 48.808422 16.925141 51.232422 16.994141 C 49.020422 20.469141 46.26 23.497438 43 26.023438 L 43 22.285156 C 44.229 20.184156 43.89525 17.480187 42.15625 15.742188 L 38.414062 12 L 41 9.4140625 z M 35 25 C 34.74425 25 34.488469 25.097469 34.292969 25.292969 C 33.901969 25.683969 33.901969 26.316031 34.292969 26.707031 L 58.292969 50.707031 C 58.487969 50.902031 58.744 51 59 51 C 59.256 51 59.512031 50.902031 59.707031 50.707031 C 60.098031 50.316031 60.098031 49.683969 59.707031 49.292969 L 35.707031 25.292969 C 35.511531 25.097469 35.25575 25 35 25 z M 32 28.341797 C 31.74425 28.341797 31.488469 28.441219 31.292969 28.636719 L 25.636719 34.292969 C 25.245719 34.683969 25.245719 35.316031 25.636719 35.707031 L 31 41.070312 L 31 56 C 31 56.553 31.447 57 32 57 C 32.553 57 33 56.553 33 56 L 33 41.070312 L 38.363281 35.707031 C 38.754281 35.316031 38.754281 34.683969 38.363281 34.292969 L 32.707031 28.636719 C 32.511531 28.441219 32.25575 28.341797 32 28.341797 z M 32 30.757812 L 36.242188 35 L 32 39.242188 L 27.757812 35 L 32 30.757812 z M 20.007812 42 C 19.903219 41.999063 19.797109 42.015828 19.693359 42.048828 C 19.280359 42.181828 19 42.565 19 43 L 19 50 C 19 50.553 19.447 51 20 51 C 20.553 51 21 50.553 21 50 L 21 46.119141 L 24.1875 50.580078 C 24.3785 50.848078 24.684 51 25 51 C 25.102 51 25.205641 50.983172 25.306641 50.951172 C 25.719641 50.818172 26 50.435 26 50 L 26 43 C 26 42.447 25.553 42 25 42 C 24.447 42 24 42.447 24 43 L 24 46.880859 L 20.8125 42.419922 C 20.62275 42.154422 20.321594 42.002812 20.007812 42 z M 42 42 C 41.6 42 41.237078 42.237469 41.080078 42.605469 L 39.1875 47.019531 L 37.960938 42.724609 C 37.808937 42.192609 37.248609 41.893109 36.724609 42.037109 C 36.193609 42.189109 35.886109 42.743438 36.037109 43.273438 L 38.037109 50.273438 C 38.153109 50.680437 38.514547 50.969094 38.935547 50.996094 C 39.369547 51.011094 39.751969 50.780578 39.917969 50.392578 L 42 45.539062 L 44.080078 50.392578 C 44.238078 50.763578 44.602 51 45 51 C 45.021 51 45.0415 50.999047 45.0625 50.998047 C 45.4845 50.972047 45.844937 50.681438 45.960938 50.273438 L 47.960938 43.273438 C 48.112937 42.743437 47.805437 42.189109 47.273438 42.037109 C 46.745438 41.892109 46.189109 42.193562 46.037109 42.726562 L 44.810547 47.021484 L 42.917969 42.607422 C 42.761969 42.238422 42.4 42 42 42 z M 8 53 C 7.447 53 7 53.447 7 54 L 7 56 C 7 56.553 7.447 57 8 57 C 8.553 57 9 56.553 9 56 L 9 54 C 9 53.447 8.553 53 8 53 z M 12 53 C 11.447 53 11 53.447 11 54 L 11 56 C 11 56.553 11.447 57 12 57 C 12.553 57 13 56.553 13 56 L 13 54 C 13 53.447 12.553 53 12 53 z M 16 53 C 15.447 53 15 53.447 15 54 L 15 56 C 15 56.553 15.447 57 16 57 C 16.553 57 17 56.553 17 56 L 17 54 C 17 53.447 16.553 53 16 53 z M 20 53 C 19.447 53 19 53.447 19 54 L 19 56 C 19 56.553 19.447 57 20 57 C 20.553 57 21 56.553 21 56 L 21 54 C 21 53.447 20.553 53 20 53 z M 24 53 C 23.447 53 23 53.447 23 54 L 23 56 C 23 56.553 23.447 57 24 57 C 24.553 57 25 56.553 25 56 L 25 54 C 25 53.447 24.553 53 24 53 z M 28 53 C 27.447 53 27 53.447 27 54 L 27 56 C 27 56.553 27.447 57 28 57 C 28.553 57 29 56.553 29 56 L 29 54 C 29 53.447 28.553 53 28 53 z M 36 53 C 35.447 53 35 53.447 35 54 L 35 56 C 35 56.553 35.447 57 36 57 C 36.553 57 37 56.553 37 56 L 37 54 C 37 53.447 36.553 53 36 53 z M 40 53 C 39.447 53 39 53.447 39 54 L 39 56 C 39 56.553 39.447 57 40 57 C 40.553 57 41 56.553 41 56 L 41 54 C 41 53.447 40.553 53 40 53 z M 44 53 C 43.447 53 43 53.447 43 54 L 43 56 C 43 56.553 43.447 57 44 57 C 44.553 57 45 56.553 45 56 L 45 54 C 45 53.447 44.553 53 44 53 z M 48 53 C 47.447 53 47 53.447 47 54 L 47 56 C 47 56.553 47.447 57 48 57 C 48.553 57 49 56.553 49 56 L 49 54 C 49 53.447 48.553 53 48 53 z M 52 53 C 51.447 53 51 53.447 51 54 L 51 56 C 51 56.553 51.447 57 52 57 C 52.553 57 53 56.553 53 56 L 53 54 C 53 53.447 52.553 53 52 53 z M 56 53 C 55.447 53 55 53.447 55 54 L 55 56 C 55 56.553 55.447 57 56 57 C 56.553 57 57 56.553 57 56 L 57 54 C 57 53.447 56.553 53 56 53 z"/></svg>