<svg xmlns="http://www.w3.org/2000/svg" width="50" height="50" viewBox="0 0 48 48"><path fill="#f97f00" d="M15.525 12.883A13.911 13.911 0 0 1 24 10c3.046 0 5.859.989 8.159 2.646L36 8.038C32.652 5.515 28.505 4 24 4c-4.707 0-9.032 1.645-12.452 4.376l3.977 4.507z"/><path fill="#424242" d="m37.536 9.319-3.839 4.606C36.344 16.474 38 20.044 38 24c0 7.72-6.28 14-14 14s-14-6.28-14-14c0-3.814 1.537-7.273 4.019-9.8l-3.972-4.502C6.323 13.333 4 18.397 4 24c0 11.028 8.972 20 20 20s20-8.972 20-20c0-5.805-2.501-11.024-6.464-14.681z"/><path fill="#424242" d="m33 36-8-8V15l3 8 9 9-4 4zm-18 0 8-8V15l-3 8-9 9 4 4z"/></svg>