<svg xmlns="http://www.w3.org/2000/svg"  viewBox="0 0 64 64" width="48px" height="48px"><radialGradient id="52o0BYleqWW1yCFFlMvyLa" cx="32" cy="34" r="34.24" gradientTransform="matrix(1 0 0 -1 0 66)" gradientUnits="userSpaceOnUse"><stop offset="0" stop-color="#ecd5a0"/><stop offset=".106" stop-color="#efdaa9"/><stop offset=".437" stop-color="#f6e6c1"/><stop offset=".744" stop-color="#faedd0"/><stop offset="1" stop-color="#fdf0d5"/></radialGradient><path fill="url(#52o0BYleqWW1yCFFlMvyLa)" d="M63.94,49.59c-0.27,1.43-1.6,2.41-3.05,2.41H30v3c0,1.657,1.343,3,3,3h3	c1.85,0,3.31,1.68,2.94,3.59c-0.27,1.43-1.6,2.41-3.05,2.41H6c-1.85,0-3.31-1.68-2.94-3.59C3.33,58.98,4.66,58,6.11,58H6.5	c1.466,0,2.634-1.254,2.491-2.749C8.866,53.946,7.671,53,6.36,53H4.185c-2.089,0-3.959-1.522-4.164-3.601	C-0.215,47.015,1.657,45,4,45h0.5C5.33,45,6,44.33,6,43.5S5.33,42,4.5,42H3.99C2.339,42,1,40.661,1,39.01v-0.02	C1,37.339,2.339,36,3.99,36H10v-9H4c-1.85,0-3.31-1.68-2.94-3.59C1.33,21.98,2.66,21,4.11,21H4.5C5.33,21,6,20.33,6,19.5	S5.33,18,4.5,18H3c-1.85,0-3.31-1.68-2.94-3.59C0.33,12.98,1.66,12,3.11,12H34V9c0-1.657-1.343-3-3-3h-3	c-1.85,0-3.31-1.68-2.94-3.59C25.33,0.98,26.66,0,28.11,0H58c1.85,0,3.31,1.68,2.94,3.59C60.67,5.02,59.34,6,57.89,6H57.5	c-1.466,0-2.634,1.254-2.491,2.749C55.134,10.054,56.329,11,57.64,11h2.175c2.089,0,3.959,1.522,4.164,3.601	C64.215,16.985,62.343,19,60,19h-0.5c-0.828,0-1.5,0.672-1.5,1.5l0,0c0,0.828,0.672,1.5,1.5,1.5H60c1.851,0,3.311,1.677,2.943,3.594	C62.67,27.019,61.34,28,59.889,28H54v9h6c1.85,0,3.31,1.68,2.94,3.59c-0.27,1.43-1.6,2.41-3.05,2.41H59.5c-0.83,0-1.5,0.67-1.5,1.5	s0.67,1.5,1.5,1.5H61C62.85,46,64.31,47.68,63.94,49.59z M48,61L48,61c0-1.657-1.343-3-3-3l0,0c-1.657,0-3,1.343-3,3l0,0	c0,1.657,1.343,3,3,3l0,0C46.657,64,48,62.657,48,61z M22,3L22,3c0-1.657-1.343-3-3-3l0,0c-1.657,0-3,1.343-3,3l0,0	c0,1.657,1.343,3,3,3l0,0C20.657,6,22,4.657,22,3z"/><linearGradient id="52o0BYleqWW1yCFFlMvyLb" x1="32" x2="32" y1="54.544" y2="15.491" gradientTransform="matrix(1 0 0 -1 0 66)" gradientUnits="userSpaceOnUse"><stop offset="0" stop-color="#005ce2"/><stop offset=".301" stop-color="#0075e6"/><stop offset=".89" stop-color="#00b0f1"/><stop offset="1" stop-color="#00b5f2"/></linearGradient><path fill="url(#52o0BYleqWW1yCFFlMvyLb)" d="M55,19v26c0,1.27-0.24,2.48-0.67,3.6C52.89,52.34,49.25,55,45,55H19	c-4.25,0-7.89-2.66-9.33-6.4C9.24,47.48,9,46.27,9,45V19c0-5.52,4.48-10,10-10h26C50.52,9,55,13.48,55,19z"/><linearGradient id="52o0BYleqWW1yCFFlMvyLc" x1="32" x2="32" y1="5.051" y2="60.121" gradientTransform="matrix(1 0 0 -1 0 66)" gradientUnits="userSpaceOnUse"><stop offset="0" stop-color="#005ce2"/><stop offset=".278" stop-color="#0080e8"/><stop offset=".569" stop-color="#009ced"/><stop offset=".82" stop-color="#00b0f1"/><stop offset="1" stop-color="#00b5f2"/></linearGradient><path fill="url(#52o0BYleqWW1yCFFlMvyLc)" d="M54.33,48.6C52.89,52.34,49.25,55,45,55H19c-4.25,0-7.89-2.66-9.33-6.4	c3.07-0.83,6.54-1.47,10.3-1.91C23.73,46.25,27.78,46,32,46c2.66,0,5.27,0.1,7.77,0.28c1.46,0.11,2.89,0.25,4.27,0.41	C47.8,47.13,51.27,47.78,54.33,48.6z"/><path fill="#fff" d="M50,32c0,0.505,0.98,1.005,0.941,1.5c-0.211,2.694-0.987,5.236-2.211,7.5c-3.2,5.95-9.5,10-16.73,10	c-0.5,0-0.99-0.02-1.48-0.06c-9.305-0.712-16.734-8.14-17.462-17.44C13.02,33.005,14,32.505,14,32H50z"/><linearGradient id="52o0BYleqWW1yCFFlMvyLd" x1="32" x2="32" y1="28.378" y2="101.617" gradientTransform="matrix(1 0 0 -1 0 66)" gradientUnits="userSpaceOnUse"><stop offset="0" stop-color="#ff634d"/><stop offset=".204" stop-color="#fe6464"/><stop offset=".521" stop-color="#fc6581"/><stop offset=".794" stop-color="#fa6694"/><stop offset=".989" stop-color="#fa669a"/><stop offset="1" stop-color="#fa669a"/></linearGradient><path fill="url(#52o0BYleqWW1yCFFlMvyLd)" d="M51,32H13c0-10.49,8.51-19,19-19S51,21.51,51,32z"/><linearGradient id="52o0BYleqWW1yCFFlMvyLe" x1="32" x2="32" y1="28.378" y2="101.617" gradientTransform="matrix(1 0 0 -1 0 66)" gradientUnits="userSpaceOnUse"><stop offset="0" stop-color="#ff634d"/><stop offset=".204" stop-color="#fe6464"/><stop offset=".521" stop-color="#fc6581"/><stop offset=".794" stop-color="#fa6694"/><stop offset=".989" stop-color="#fa669a"/><stop offset="1" stop-color="#fa669a"/></linearGradient><path fill="url(#52o0BYleqWW1yCFFlMvyLe)" d="M50,32H14c0-0.505-0.98-1.005-0.942-1.5c0.18-2.308,0.773-4.499,1.712-6.5	c3.01-6.5,9.6-11,17.23-11c0.5,0,0.99,0.02,1.48,0.06c9.305,0.712,16.734,8.14,17.462,17.44C50.98,30.995,50,31.495,50,32z"/><linearGradient id="52o0BYleqWW1yCFFlMvyLf" x1="32" x2="32" y1="40.743" y2="10.042" gradientTransform="matrix(1 0 0 -1 0 66)" gradientUnits="userSpaceOnUse"><stop offset=".096" stop-color="#5e6d7b"/><stop offset=".577" stop-color="#5c6b79"/><stop offset=".993" stop-color="#515c69"/></linearGradient><path fill="url(#52o0BYleqWW1yCFFlMvyLf)" d="M51,32c0,0.5-0.02,1.01-0.06,1.5H39.85C39.15,37.2,35.9,40,32,40s-7.15-2.8-7.85-6.5H13.06	C13.02,33.01,13,32.5,13,32s0.02-1.01,0.06-1.5h11.09C24.85,26.8,28.1,24,32,24s7.15,2.8,7.85,6.5h11.09C50.98,30.99,51,31.5,51,32z"/><circle cx="32" cy="32" r="5" fill="#fff"/><linearGradient id="52o0BYleqWW1yCFFlMvyLg" x1="24.885" x2="24.885" y1="36.229" y2="74.707" gradientTransform="matrix(1 0 0 -1 0 66)" gradientUnits="userSpaceOnUse"><stop offset="0" stop-color="#ff7d5c"/><stop offset=".214" stop-color="#ff7e72"/><stop offset=".524" stop-color="#fc7e8c"/><stop offset=".793" stop-color="#fa7f9c"/><stop offset=".989" stop-color="#fa7fa2"/><stop offset="1" stop-color="#fa7fa2"/></linearGradient><path fill="url(#52o0BYleqWW1yCFFlMvyLg)" d="M34.933,15.518C34.701,16.413,33.835,17,32.91,17H24.5c-0.828,0-1.5,0.672-1.5,1.5l0,0	c0,0.828,0.672,1.5,1.5,1.5h0.379c0.997,0,1.927,0.675,2.093,1.659C27.181,22.908,26.212,24,25,24H14.77c3.01-6.5,9.6-11,17.23-11h1	c0.17,0,0.33,0.02,0.48,0.06C34.508,13.32,35.229,14.376,34.933,15.518z"/><linearGradient id="52o0BYleqWW1yCFFlMvyLh" x1="38.866" x2="38.866" y1="-2.248" y2="24.396" gradientTransform="matrix(1 0 0 -1 0 66)" gradientUnits="userSpaceOnUse"><stop offset="0" stop-color="#dbdee1"/><stop offset=".99" stop-color="#f5f6f7"/><stop offset="1" stop-color="#f5f6f7"/></linearGradient><path fill="url(#52o0BYleqWW1yCFFlMvyLh)" d="M48.73,41c-3.2,5.95-9.5,10-16.73,10h-1c-0.17,0-0.33-0.02-0.48-0.06	c-0.97-0.24-1.67-1.19-1.49-2.28c0.16-0.98,1.08-1.66,2.08-1.66h7.39c0.83,0,1.5-0.67,1.5-1.5S39.33,44,38.5,44h-1	c-0.83,0-1.5-0.67-1.5-1.5s0.67-1.5,1.5-1.5H48.73z"/></svg>