<svg xmlns="http://www.w3.org/2000/svg" width="50" height="50" viewBox="0 0 48 48"><path fill="#f57c00" d="M42.5 40h-37C3.6 40 2 38.4 2 36.5v-23C2 11.6 3.6 10 5.5 10h37c1.9 0 3.5 1.6 3.5 3.5v23c0 1.9-1.6 3.5-3.5 3.5zm-37-27c-.3 0-.5.2-.5.5v23c0 .3.2.5.5.5h37c.3 0 .5-.2.5-.5v-23c0-.3-.2-.5-.5-.5h-37z"/><path fill="#f57c00" d="M44 16h4v3h-4zm0 15h4v3h-4zM0 16h4v3H0zm0 15h4v3H0zm10 3H7V17.5c0-.8.7-1.5 1.5-1.5h4c.8 0 1.5.7 1.5 1.5v8c0 .8-.7 1.5-1.5 1.5H10v7zm0-10h1v-5h-1v5zm11.5 10h-5c-.8 0-1.5-.7-1.5-1.5V16h3v15h2V16h3v16.5c0 .8-.7 1.5-1.5 1.5zm9 0h-4c-.8 0-1.5-.7-1.5-1.5v-15c0-.8.7-1.5 1.5-1.5h4c.8 0 1.5.7 1.5 1.5V23h-3v-4h-1v12h1v-5h3v6.5c0 .8-.7 1.5-1.5 1.5z"/><path fill="#f57c00" d="M24 23h7v3h-7zm15.5 11h-5c-.8 0-1.5-.7-1.5-1.5v-15c0-.8.7-1.5 1.5-1.5h5c.8 0 1.5.7 1.5 1.5V21h-3v-2h-2v12h2v-5h-1v-3h2.5c.8 0 1.5.7 1.5 1.5v8c0 .8-.7 1.5-1.5 1.5z"/></svg>