<svg xmlns="http://www.w3.org/2000/svg" width="50" height="50" viewBox="0 0 48 48"><linearGradient id="a" x1="24" x2="24" y1="47.766" y2="-19.02" gradientUnits="userSpaceOnUse"><stop offset="0" stop-color="#e8e8e8"/><stop offset=".544" stop-color="#f7f7f7"/><stop offset="1" stop-color="#fcfcfc"/></linearGradient><path fill="url(#a)" d="m44.676 11.397-.074-.809-.735-.515c-3.088-2.132-8.971-4.632-19.485-4.632-3.971 0-7.574.368-10.735 1.103A6.336 6.336 0 0 0 9.529 5c-3.456 0-6.324 2.794-6.324 6.324 0 1.103.294 2.132.809 3.088.147 5.441 1.838 11.103 5.147 16.838 5.441 9.191 11.25 11.912 14.044 13.162.221.074.368.147.515.221l.736.367.735-.368c.147-.074.368-.147.515-.221 2.868-1.25 8.603-3.971 13.897-13.162 5.808-10.073 5.294-17.425 5.073-19.852z"/><linearGradient id="b" x1="25.901" x2="29.012" y1="43.232" y2="37.531" gradientUnits="userSpaceOnUse"><stop offset="0" stop-color="#01164b"/><stop offset="1" stop-color="#001b50"/></linearGradient><path fill="url(#b)" d="M30.26 37.43c.28.75.43 1.87-.54 2.68-.08.06-.16.13-.26.19-.07.05-.14.09-.2.14-1.17.82-2.23 1.4-3.12 1.84-.66.33-1.23.6-1.68.81h-.01v-1.4a24.4 24.4 0 0 0 5.78-4.33c.01.02.02.05.03.07z"/><linearGradient id="c" x1="37.946" x2="38.671" y1="26.529" y2="25.2" gradientUnits="userSpaceOnUse"><stop offset="0" stop-color="#01164b"/><stop offset="1" stop-color="#001b50"/></linearGradient><path fill="url(#c)" d="M37.91 24.59c.54.69.9 1.47.96 2.25-.37-.37-.94-.49-1.62-.54.24-.58.46-1.15.66-1.71z"/><linearGradient id="d" x1="31.847" x2="36.939" y1="38.287" y2="28.956" gradientUnits="userSpaceOnUse"><stop offset="0" stop-color="#01164b"/><stop offset="1" stop-color="#001b50"/></linearGradient><path fill="url(#d)" d="M38.06 30.37c-.15.25-.29.5-.44.74s-.3.48-.44.71c-.14.22-.28.43-.41.64-.16.24-.31.47-.47.7-.15.21-.29.42-.44.63-.28.39-.55.76-.83 1.11-.17.22-.34.43-.52.64-.28.34-.56.66-.83.97-.22.24-.44.48-.67.71-.16.17-.33.34-.49.5-.22.22-.44.43-.66.62-.24.23-.47.43-.71.63.1-.67-.04-1.4-.39-2.17 1.91-2.04 3.63-4.54 5.17-7.61.24-.47.46-.94.67-1.4h.06c1.47 0 2.35 1.03 1.4 2.58z"/><linearGradient id="e" x1="38.106" x2="43.415" y1="22.995" y2="13.268" gradientUnits="userSpaceOnUse"><stop offset="0" stop-color="#01164b"/><stop offset="1" stop-color="#001b50"/></linearGradient><path fill="url(#e)" d="M41.49 22.83c-.08.26-.18.54-.28.81-.21.58-.45 1.17-.71 1.77-.29-.84-1.02-1.72-2.05-2.46 1.28-4.23 1.43-7.62 1.23-9.64l3.18-1.77c.02.17.03.36.04.56.14 2.07.24 5.76-1.41 10.73z"/><radialGradient id="f" cx="11.065" cy="16.884" r="30.387" gradientUnits="userSpaceOnUse"><stop offset="0" stop-color="#019eef"/><stop offset=".154" stop-color="#0194e5"/><stop offset=".417" stop-color="#0278cb"/><stop offset=".755" stop-color="#034ca1"/><stop offset="1" stop-color="#04287e"/></radialGradient><path fill="url(#f)" d="m27.911 21.912-1.25 1.103.956.294.956-1.03-.515-.22-.147-.147zm1.692.735-.442-.147-1.029 1.176.735.221c.147-.588.736-1.25.736-1.25zm-5.736-3.676c.441.515.882 1.25.882 1.25.735-.735 2.279-1.029 4.265-.956-2.794-.589-5.147-.294-5.147-.294zm6.912.588s-.147.294-.221.368c-.074.074-.588.147-.882.221-.294.147-.809.368-.956.515-.074.074-.074.294-.074.368 0 0 .046.021.1.041-.013-.014-.026-.027-.026-.041v-.221s.956-.735 2.426-.735l.221-.441-.588-.075zm-9.632-1.691s.809 0 1.912.221c-.735-.515-1.912-.809-1.912-.809v.588zm2.72 2.573.221.074.441-.074c-.809-1.029-1.765-1.103-1.765-1.103.442.294 1.103 1.103 1.103 1.103zm3.236-3.676c-.074-.147-.221-.147-1.103-.294-.809-.074-1.544-.147-1.691-.147s-.221.074-.221.074-.441.294-.809.515c-.368.221-.441.294-.515.441-.074.074.147.368.147.368l.588.735c.074 0 .294.147.294.147s1.176-.073 1.912-.147h1.912c.074 0 0-.294-.147-.662-.147-.295-.367-1.03-.367-1.03zm1.731 4.367.033-.029a.404.404 0 0 1-.121-.032.326.326 0 0 0 .088.061zm-9.231-5.029s.515.294.588.294 1.103.368 1.544.515c.368.147.588 0 .662 0 .074 0 1.324-.735 1.324-.735-1.103-.441-2.132-.735-2.132-.735-.075-.001-1.986.661-1.986.661zm1.029 1.544.221.074s.147 0 .147-.147v-.294l-.221-.147-.294-.074a.228.228 0 0 1 .074.147h.073c0-.074.074-.074.074 0 0 0 .147.074.074.294.073.073-.074.147-.148.147zm7.059-.074.441.809 1.471.515c-.588-1.25-1.544-1.471-1.544-1.471l-.368.147zm-9.78.662s-.221-.294-.441-.147c-.164.109-.326.38-.369.662l-.439.146c-.147-.294-.809-1.103-.809-1.103l-.147.588c.074.074.441.662.515.809l-.221.222s-.074.147-.074.221-.073.147-.073.147l-.294.147h-.074l-1.029-.809v.588h.074c.074.147.221.441.588.588.294.147.662.147.809.073.147.074.221.074.294.147.294.147.368.073.368.073l.441-.147h.074l.073-.074.147-.294s.735.074 1.029.074c.294-.441 1.25-1.103 1.912-1.176.662 0 1.765.147 2.647 1.029.809.882.588 2.059.588 2.059l1.618.515-.735-.515c-.588-1.471-1.985-2.794-1.985-2.794s-.368-.074-.588-.074a1.04 1.04 0 0 1-.368-.221s-.074-.074-.221-.294l-.147-.294s-.147-.147-.368-.294-1.029-.221-1.471-.294c-.441-.073-.441 0-.441 0 1.25.294 1.618.368 1.691.441 0 0 .074.147.147.221-1.029-.221-1.985-.074-2.206 0a.668.668 0 0 1 0 .735c-.147.147-.588.368-.588.368h-.147l-.368-.073c-.332-.066-.245-.607-.225-.713a.855.855 0 0 0 .004.272c.073.368.147.368.368.368-.368-.147-.294-.735 0-1.103.221-.294.441-.074.441-.074zm-2.647 1.103.147-.073v-.589l-.147.074v.588zm-.735-3.603c-.368.441-.515 1.029-.515 1.029s-.074 1.029-.074 1.176c-.074.147.147.221.147.221l-.074.809h.441l.074-.515v.294h.074v-.441h-.074v-.294l.662.368.074.147.147.147h.147l.073-.074v-.073c-.441 0-.441-.221-.441-.221s.074-.515.147-.662c.073-.147.368-.074.368-.074l-.073-.072h-.147c-.147-.074-.588-.368-.735-.441v-.074l.074-.074v-.294h.073c0-.073.074-.073.074-.147.147 0 1.25-.221 1.25-.221l-.045-.01c.171-.019.486-.064.486-.064l-1.397-.368-.074.221v-.074a3.306 3.306 0 0 1-.662-.219zm18.015 7.647-.588.809v.074h.809c.146-.515-.221-.883-.221-.883zm-.809 2.647-.294-.882h-.074l-.441.809.074.073c.367.147.735 0 .735 0zm-3.382-4.191 1.618.515c.368-.294.882-.368.882-.368-.294-.147-1.544-.662-1.912-.809 0 0-.053-.018-.106-.044l-.629.559.147.147zm2.794 2.5c-.368.735-.294 1.25-.294 1.25l.368-.809v-.147c.073 0-.001-.147-.074-.294zm.661.515.221.956s.221-.221.441-.515c.221-.294.294-.588.294-.588l-.882.074-.074.073zm-.441-.882.147.221.074-.074.588-.735v-.073c-.294-.001-.809.661-.809.661zm-11.029-6.912.003.001c-.026-.067-.077-.075-.077-.075-.041 0-.099.045-.147.098l.073-.025.148.001zm-4.632-1.25c1.176.147 1.397.368 1.397.368s.441-.074.662-.074c-.368-.294-1.985-.809-1.985-.809s-.074.221-.074.515zm4.411 1.274-.147.049-.074.515h.074l.147-.074c-.073-.147-.073-.221-.073-.368 0-.032.035-.079.073-.122zm-6.985.343c0 .221.147.221.147.221l-.074.809h.515v-.074h-.074v-.073h-.073l.073-.147.074-.368-.074-.074v-.147l.074-.073.074-.882-.333-.2c-.092.07-.182.143-.278.208-.022.293-.051.708-.051.8zm1.985 1.839h.074v-.515l-.074.515zm-.147-.074h.074v-.515l-.074.515zm27.891-7.647c-12.706-3.676-26.948-1.685-26.877-.666a6.367 6.367 0 0 1-1.565 4.647c.217.07.495.14.846.21l.147-.368s.147 0 .221.074c0-.368.221-.368.221-.368s0-.073.074-.073c.368.073 1.397.588 1.838.809.441.221.441.294.441.294s1.029 0 1.324-.073c.294 0 .809-.221 1.544-.441.735-.221.882-.294 1.029-.294s1.471.073 2.647.221c1.176.147 2.279.588 2.5.735l.368.073.074-.221-.588-.221s.074-.368.074-.441.074-.147.147-.147c.074 0 .735.147.956.221.221.073.956.588 1.029.588s.073.074.073.074c0 .147-.147.441-.147.441s.221.074.294.147c.073.073.294.221.515.441.221.147.147.368.147.368l.515.515v.221l1.25 1.25v.074l-.591.366s.809-.074 1.397.221c.588.294.662.441.662.588-.147.074-.368.147-.368.147-.441.147-1.544.882-1.544.882v.074l.588.147c.662-.588 1.838-.809 2.721-.662a9.319 9.319 0 0 1 3.628 1.551c1.028.739 4.625-9.19 4.41-11.404zm-6.2 16.25c-1.544 0-3.088-.515-4.191-1.838v.074c-.662.882-1.397.882-1.691.882s-1.25-.441-1.618-.882-.368-1.25-.368-1.25l-1.471-.515-1.838-1.029-.294-.074c-.588.294-1.324.074-1.985-.441-.074.294-.441 1.029-.882 1.397-.441.367-1.323.882-1.985.882s-2.132-.735-2.574-1.765 0-2.132 0-2.132l-.735-.147-.294-.368s-.882.735-1.838.441-1.765-1.103-1.985-1.838c-.147-.735.074-1.397.147-1.471-.147-.515-.147-.809-.147-.809h-.073v-.076a6.356 6.356 0 0 1-3.235.885 6.368 6.368 0 0 1-3.594-1.105c.153 1.603.587 3.488 1.167 5.59.809 2.941 3.456 3.897 7.427 4.559 7.332 1.171 14.405 6.058 16.16 10.034.339.769 2.943-1.387 5.296-5.431.954-1.544 2.072-3.573.601-3.573zm-4.338-5.515c.073.073.147.073.221.147.441.294.662.441.735 1.103.073.515-.074 1.25-.441 1.912 1.366.926 3.086.753 4.412.853.673.051.81-.338.81-.338s.384-.669-.153-1.363c-1.399-1.806-3.99-3.057-5.584-2.314zM12.25 28.971c-.956 0-2.059.368-1.397 1.397 5.441 9.338 11.176 11.544 13.603 12.721 1.103-.515 1.868-1.323 4-2.794 1.25-.809 2.103-2.059 1.809-2.868-1.545-3.824-10.001-8.162-18.015-8.456zm2.647-9.853v-.515l-.074.515h.074zm5.367 2.132.588.441.148-.073.662-1.029c-.809-.074-1.398.661-1.398.661zm1.03 2.647-.441-1.103h-.147l-.735.882c.514.442 1.323.221 1.323.221zm-.953-6.837c.017.043.025.104-.003.219 0 .294-.221.294-.221.294s.074 0 .221.074c.147 0 .221-.147.221-.294-.001-.215-.207-.289-.218-.293zm-.371 4.631c-.515.956-.147 1.618-.147 1.618l.662-.956v-.147l-.515-.515zm-5.367-2.794h.073v-.441l-.073.441zm.147.074h.073v-.442l-.073-.073v.515zm7.867 3.455-1.176.074-.073.073.368 1.177c.734-.515.881-1.324.881-1.324zm-.588-1.691-.588 1.029.074.073 1.176.074c0-.808-.662-1.176-.662-1.176z"/><radialGradient id="g" cx="15.965" cy="11.431" r="29.742" gradientUnits="userSpaceOnUse"><stop offset="0" stop-color="#65c5f7"/><stop offset="1" stop-color="#08388d"/></radialGradient><path fill="url(#g)" d="M42.861 11.544C40.656 10 35.264 7.206 24.456 7.206c-3.75 0-6.912.368-9.412.882.515.809.809 1.765.882 2.794a44.138 44.138 0 0 1 9.044-.735c6.912.074 12.5 1.618 14.779 3.162l3.112-1.765"/><radialGradient id="h" cx="8.674" cy="9.563" r="6.788" gradientUnits="userSpaceOnUse"><stop offset="0" stop-color="#fff"/><stop offset="1"/></radialGradient><circle cx="9.603" cy="11.324" r="4.559" fill="url(#h)"/><linearGradient id="i" x1="25.773" x2="43.891" y1="44.407" y2="13.189" gradientUnits="userSpaceOnUse"><stop offset="0" stop-color="#001a4c"/><stop offset="1" stop-color="#011c51"/></linearGradient><path fill="url(#i)" d="M30.26 37.43c-.01-.02-.02-.05-.03-.07a24.4 24.4 0 0 1-5.78 4.33v1.4h.01c.45-.21 1.02-.48 1.68-.81.88-.46 1.94-1.05 3.12-1.84.06-.05.13-.09.2-.14.1-.06.18-.13.26-.19.97-.81.82-1.93.54-2.68zm7.65-12.84c-.2.56-.42 1.13-.66 1.71.68.05 1.25.17 1.62.54-.06-.78-.42-1.56-.96-2.25zm-1.25 3.2h-.06c-.21.46-.43.93-.67 1.4-1.54 3.07-3.26 5.57-5.17 7.61.35.77.49 1.5.39 2.17 2.938-1.943 6.76-8.35 6.91-8.6.95-1.55.07-2.58-1.4-2.58zM42.9 12.1c-.01-.2-.02-.39-.04-.56l-3.18 1.77c.2 2.02.05 5.41-1.23 9.64 1.03.74 1.76 1.62 2.05 2.46.26-.6.5-1.19.71-1.77.1-.27.2-.55.28-.81 1.67-4.9 1.58-8.65 1.41-10.73z"/></svg>