<svg fill="#000000" xmlns="http://www.w3.org/2000/svg"  viewBox="0 0 50 50" width="48px" height="48px"><path d="M 23.980469 2.007813 C 20.128906 2.09375 16.410156 3.148438 13.316406 5 L 19 5 C 23.417969 5 29 6.625 29 12 C 29 14.90625 27.96875 18.25 25 20 C 25.355469 20.855469 25.644531 21.269531 26 22 C 26.65625 20.59375 29.125 19.046875 31 19 L 39 19 L 39 26 C 38.882813 26 38.855469 25.980469 38.828125 25.863281 C 38.40625 24.125 35.75 22 32.5 22 C 31 22 30 22.808594 30 24 C 30 25.386719 30.828125 26.023438 32 27 C 33.617188 28.347656 37.253906 30.773438 38.035156 31.234375 C 39.789063 32.265625 41.332031 33.734375 41.832031 35.738281 C 41.972656 36.308594 42.027344 36.90625 41.996094 37.5 L 42 37.5 L 42 38.605469 C 47.789063 31.75 49.484375 19.660156 41.988281 10.371094 C 37.164063 4.390625 30.394531 1.859375 23.980469 2.007813 Z M 10.714844 6.757813 C 5.570313 10.589844 2.007813 17.082031 2.007813 24 C 2.007813 27.925781 2.835938 32 5.050781 35.847656 C 6.660156 38.652344 8.800781 40.980469 11.425781 42.859375 C 14.042969 44.734375 16.933594 45.980469 20.085938 46.617188 C 21.40625 46.882813 23.265625 47 25 47 C 22.90625 45.625 21 43.40625 21 40 C 21 36.03125 23.742188 34 26 34 C 26.871094 34.023438 28 34.28125 28 35.5 C 28 37.5625 25.644531 38 25 38 C 24.4375 38 24 39.355469 24 40.5 C 24 42.273438 25.359375 43.433594 26.925781 44.160156 C 29.121094 45.179688 31.050781 45.1875 33.3125 44.375 C 34.347656 44.003906 35.261719 43.410156 35.902344 42.5 C 37.214844 40.640625 37.34375 38.53125 35.796875 36.652344 C 34.9375 35.613281 33.832031 34.71875 32.652344 34.0625 C 30.4375 32.835938 28.570313 31.605469 26.585938 30.011719 C 24.628906 28.4375 22.753906 26.792969 21.257813 24.761719 C 20.171875 23.289063 19.339844 21.699219 18.984375 19.882813 C 18.902344 19.46875 18.902344 19.46875 19.324219 19.40625 C 20.683594 19.203125 21.808594 18.566406 22.664063 17.496094 C 23.789063 16.089844 24 14.832031 24 13 C 24 10.792969 22.46875 8.59375 20.347656 7.527344 C 19.28125 6.992188 18.140625 6.867188 16.980469 7.1875 C 16.4375 7.339844 16 7.441406 16 8 L 16 29.5625 C 16 30.871094 16.835938 31.199219 17.984375 31.796875 C 18.070313 31.847656 18.160156 31.894531 18.25 31.945313 C 18.242188 31.964844 18.234375 31.980469 18.226563 32 L 9.03125 32 C 9.144531 31.878906 9.273438 31.808594 9.398438 31.738281 C 10.21875 31.277344 11 30.523438 11 29.5625 L 11 8 C 11 7.679688 10.804688 7.089844 10.714844 6.757813 Z"/></svg>