<svg xmlns="http://www.w3.org/2000/svg" width="50" height="50" viewBox="0 0 64 64"><path fill="#c3eccc" d="m15.244 9.861 6.305-3.603c.29-.166.632-.219.959-.148l.43.093c.312.067.638.022.921-.127l.517-.273c.262-.139.472-.36.597-.629l.089-.192c.197-.426.601-.72 1.068-.777l9.568-1.165c.2-.024.402-.004.593.06l8.48 2.827c.152.051.294.128.419.228l4.545 3.636c.174.14.312.32.4.525l2.817 6.573c.033.076.072.149.118.218l3.619 5.429c.2.299.272.666.202 1.019l-1.809 9.046a1.36 1.36 0 0 1-.371.693l-.018.018a1.358 1.358 0 0 0-.254 1.567l.395.79c.1.2.245.374.43.5.55.373 1.779 1.378 1.736 2.831-.043 1.448-2.412 3.049-3.484 3.7a1.34 1.34 0 0 0-.625.905C52.607 45.128 51.803 49 51 49c-1.667 0-3.025-.926-3.903-1.749-.62-.581-1.606-.488-2.077.218l-.871 1.307a1.365 1.365 0 0 0-.202.487l-.931 4.654c-.011.055-.025.11-.043.163l-1.664 4.992a1.356 1.356 0 0 1-1.287.928H37.22c-.146 0-.291-.024-.429-.07l-1.674-.558a1.356 1.356 0 0 0-1.643.681l-.099.197c-.23.46-.7.75-1.214.75H30.15c-.663 0-1.23-.48-1.339-1.134l-.74-4.437a1.355 1.355 0 0 0-.379-.737l-.14-.14a1.357 1.357 0 0 0-2.247.53l-.996 2.989a1.356 1.356 0 0 1-1.287.929h-.392c-.399 0-.778-.176-1.036-.481l-1.961-2.318a1.357 1.357 0 0 1-.317-.975l.203-2.794a1.356 1.356 0 0 0-.203-.818l-.497-.796a1.358 1.358 0 0 1-.105-1.234l.238-.582a1.358 1.358 0 0 0-.392-1.561l-1.482-1.223a1.357 1.357 0 0 0-1.349-.221l-.896.343a1.357 1.357 0 0 1-1.567-.448l-3.475-4.588a1.307 1.307 0 0 0-.463-.388c-.666-.33-2.414-1.355-2.769-3.163-.271-1.384 1.523-3.16 2.624-4.101a1.358 1.358 0 0 0 .324-1.639l-1.256-2.512a1.36 1.36 0 0 1-.074-1.036l.708-2.125c.075-.224.09-.464.043-.695l-.787-3.934c-.089-.445.05-.905.371-1.226l3.089-3.089c.255-.255.397-.6.397-.96V14.45c0-.294.095-.579.271-.814l2.56-3.413a1.41 1.41 0 0 1 .415-.362z"/><path fill="#aedfbb" d="M9.11 30.403 14 34h34.733L50 33c.112 0 1.389.995 1.499.985a3.71 3.71 0 0 0 3.247-2.719L57 23l-5-10-3.723-4.378L44 6.401l-7.71-3.304-11.229 1.882-2.123 1.223L20.25 7l-6.754 5.006L12 14.452l-.397 2.945-2.493 3.318-.181 4.931.181 4.757z"/><path fill="#836c9b" d="M40.697 19.144c.404.324.956.557 1.295.464s.765-.78.973-1.147c.561.272 2.042.698 2.155.446.114-.252-1.903-1.422-2.116-1.549-.121-.073-.284-.053-.419-.013a.595.595 0 0 0-.325.301c-.259.541-.963.733-1.498.428a.502.502 0 0 0-.71.202c-.108.218-1.245 2.28-1.018 2.437.088.06 1.336-1.057 1.663-1.569zM36.437 23.026c.073.059 1.106 1.228 1.597 1.228s1.512-1.16 1.583-1.217c.323.137 2.292.872 2.384.711.137-.239-2.31-1.748-2.435-1.748-.294 0-1.232.716-1.524.716S36.794 22 36.5 22c-.125 0-2.571 1.509-2.434 1.748.137.242 2.122-.606 2.371-.722zM51.262 32.555a1.613 1.613 0 0 1-.418-.745l-.813-3.27a1.608 1.608 0 0 0-.137-.361l-.343-.653a1.603 1.603 0 0 1-.175-.927l.236-2.14a.6.6 0 0 0-.02-.23l-.27-.78.13-1.57c.02-.2-.09-.4-.28-.49a.487.487 0 0 0-.55.08l-3.37 3.08c-.07.06-.12.14-.15.24l-.19.72-2.52 1.38c-.12.07-.21.19-.24.32l-.21.88-.393.143a1.613 1.613 0 0 0-.965.965l-.13.357a1.61 1.61 0 0 1-.587.767c-1.04.732-2.305 1.626-2.367 1.679-.12.04-.16.05-1.34 1.13-.15.14-.2.36-.13.55.08.19.26.32.47.32h1.86l-.12.07a.504.504 0 0 0 .26.93l1.425-.02c.128-.002.255.012.379.04l2.125.482-1.958.456c-.12.028-.243.042-.366.042H37.5c-.28 0-.5.22-.5.5s.22.5.5.5h4.65l-.05.14-1.82.91c-.21.11-.32.34-.27.57.06.22.26.38.49.38h8c.23 0 .43-.16.49-.38a.517.517 0 0 0-.27-.57l-1.4-.7.32-.35h2.86c.23 0 .43-.16.49-.38a.517.517 0 0 0-.27-.57l-1.426-.713a1.604 1.604 0 0 0-.621-.167l-3.042-.19 2.534-.499c.17-.034.333-.094.484-.18l.594-.337c.335-.19.727-.254 1.105-.18L51.45 34h.05c.2 0 .38-.12.46-.31.08-.19.04-.4-.11-.54l-.588-.595zm-5.351-2.927a1.609 1.609 0 0 0-.438.655l-.37 1.035a1.616 1.616 0 0 1-2.399.809l-.404-.263a1.607 1.607 0 0 0-.611-.239l-1.8-.304 1.906-.262a1.62 1.62 0 0 1 .821.101s.54.197.961.114c.423-.084.823-.462 1.013-.893l.229-.518c.173-.392.496-.7.897-.854l1.534-.59-1.339 1.209z"/><path fill="#836c9b" d="M55.824 35.338a.314.314 0 0 1-.097-.12l-.396-.791c-.069-.137-.042-.303.084-.429.33-.33.554-.747.646-1.205l1.809-9.047a2.345 2.345 0 0 0-.35-1.769l-3.65-5.485-2.817-6.573a2.374 2.374 0 0 0-.694-.913l-4.543-3.634a2.291 2.291 0 0 0-.729-.396l-8.482-2.828a2.303 2.303 0 0 0-1.029-.103L26.01 3.209c-.816.1-1.51.604-1.854 1.348l-.092.197a.359.359 0 0 1-.156.164l-.517.273a.362.362 0 0 1-.241.033l-.432-.093a2.363 2.363 0 0 0-1.665.258l-6.304 3.602a2.357 2.357 0 0 0-.718.634l-2.561 3.414c-.303.406-.47.908-.47 1.413v1.985a.355.355 0 0 1-.104.253l-3.089 3.089a2.351 2.351 0 0 0-.645 2.129l.787 3.933a.363.363 0 0 1-.012.185l-.708 2.124a2.35 2.35 0 0 0 .127 1.801l1.256 2.511a.358.358 0 0 1-.079.433c-2.242 1.918-3.236 3.618-2.955 5.054.437 2.228 2.457 3.446 3.307 3.867a.33.33 0 0 1 .109.095l3.474 4.588a2.371 2.371 0 0 0 2.723.778l.896-.343a.36.36 0 0 1 .355.059l1.48 1.222a.357.357 0 0 1 .104.412l-.238.583c-.286.7-.218 1.501.183 2.141l.497.796a.36.36 0 0 1 .055.216l-.203 2.795a2.34 2.34 0 0 0 .551 1.691l1.961 2.318A2.35 2.35 0 0 0 22.63 60h.392a2.352 2.352 0 0 0 2.236-1.611l.996-2.989a.349.349 0 0 1 .257-.235.346.346 0 0 1 .335.096l.14.14a.36.36 0 0 1 .1.193l.739 4.438A2.349 2.349 0 0 0 30.149 62h2.012c.899 0 1.707-.499 2.108-1.303l.099-.198a.363.363 0 0 1 .432-.179l1.677.56c.241.08.491.12.744.12h2.801a2.352 2.352 0 0 0 2.236-1.611l1.666-4.997a2.2 2.2 0 0 0 .073-.278l.931-4.651a.372.372 0 0 1 .053-.131l.872-1.308a.332.332 0 0 1 .246-.15.383.383 0 0 1 .315.107C47.396 48.901 48.989 50 51 50c.902 0 1.801-.475 2.874-6.211a.34.34 0 0 1 .162-.234c1.779-1.082 3.91-2.745 3.964-4.525.058-1.948-1.5-3.229-2.176-3.692zM9.91 25.45l-.787-3.935a.356.356 0 0 1 .098-.322l3.089-3.089c.017-.017.028-.037.044-.054l.365-.351 1.956-.73a.5.5 0 0 0 .245-.197l.904-1.401 1.085-.126a.505.505 0 0 0 .243-.099l1.568-1.186 3.945-.888a.546.546 0 0 0 .113-.034l2.378-.893 3.501-1.17a.494.494 0 0 0 .195-.121l1-1a.5.5 0 0 0-.707-.707l-.917.917-3.252 1.087-.658-.159a.512.512 0 0 0-.464.126l-.598.575h-.926a.504.504 0 0 0-.354.146l-.416.416-.481.087-1.722.189c-1.52-.869-1.916-.667-2.066-.593-.353.177-.527.568-.613.877l-.613.127a.495.495 0 0 0-.356.29l-.442 1.016-.97.16a.497.497 0 0 0-.282.15l-.463.49-.552-.27v-.326c0-.076.025-.153.071-.215l2.56-3.413a.351.351 0 0 1 .108-.095l.001-.001 6.306-3.603a.367.367 0 0 1 .251-.039l.431.093a2.36 2.36 0 0 0 1.599-.221l.519-.274c.454-.241.821-.63 1.033-1.09l.091-.195a.358.358 0 0 1 .281-.205l9.567-1.165a.454.454 0 0 1 .156.016l8.484 2.829a.293.293 0 0 1 .106.059l3.713 2.969L46.72 9.7l-.63-.42a.476.476 0 0 0-.21-.07l-2.24-.31a.525.525 0 0 0-.38.1c-.04.06-.09.11-.14.16l-.795 1.117-1.651 1.345L41.81 9.37h-2.17c-.18 0-.35.1-.44.26l-.9 1.7-1.98.78a.48.48 0 0 0-.3.36l-.15.71-.9.73-1.51 2.33 1.1-3.33-.44-.47a.45.45 0 0 0-.36-.16h-.29c-.25 0-.46.18-.49.42l-.09.59-.96.64c-.14.09-.22.25-.22.42v1.43l-.28.21-1.37.17c-.11.02-.22.07-.3.16l-.83.89c-.07.08-.12.18-.13.29l-.07.71-.6.86-1.36.15c-.15.01-.28.09-.36.21l-.873 1.281-.861-.414 1.814-4.717a.53.53 0 0 0 .01-.36c-.206-.631-1.04-.148-1.44-.05l-1.19.29c-.14.03-.25.11-.32.23 0 0-.16.26-.45.4-.26.11-1.1.21-1.62.24-.19.01-.36.13-.44.31-.07.17-.03.38.09.52.27.3 1.18 1.26 1.95 1.26 0 0 .11 0 .28-.01l1.5-1.38-.49 1.27-.34.89-.257.673-3.563-1.713a.478.478 0 0 0-.49.03c-.15.1-.24.26-.23.44.05 1.06-.18 1.89-.44 2.47l2.88 1.65-3.69-.8h-1.78a.51.51 0 0 0-.49.39c-.05.22.06.46.27.56l1.62.79-2.09 2.49-3.47 1.89c-.11.06-.2.16-.24.28l-.6 1.84-.46.33V28.5c0-.19-.11-.36-.28-.45a.512.512 0 0 0-.52.05l-1.087.836a.346.346 0 0 1 .014-.153l.707-2.123c.13-.387.156-.805.076-1.21zm5.13 2.6 1.32.19 1.59-1.57 1.44-.61-.5 1.99-1.51 2.56-1.66.6.78-1.68-1.46-1.48zm22.65 30.91c-.143.046-1.418-.893-1.54-1.11s-.02-1.73.16-1.81 1.627 1.296 1.69 1.46-.167 1.414-.31 1.46zm15.308-17.115a2.356 2.356 0 0 0-1.09 1.576c-.516 2.756-.983 4.091-1.235 4.563a3.472 3.472 0 0 1-.356-.056.773.773 0 0 0-.007-.275c-.146-.559-.763-.925-1.306-1.249-.172-.102-.328-.191-.424-.272-.291-.246-.857-.549-1.175-.711-.062-.283-.166-.758-.245-1.072.627-1.513.566-2.53-.182-3.027-.797-.526-1.951-.211-2.301-.097H44a.499.499 0 0 0-.383.821l.634.757-.044.793a.505.505 0 0 0 .072.289l.202.33-.112.014a.498.498 0 0 0-.304.835l.284.31-.327.245a.581.581 0 0 0-.216.282l-1.057 3.063-1.196.295-.029.009-1.675-5.945a.5.5 0 0 0-.982.136v1.761c0 .062.012.122.033.18l1.182 3.07-.022.948-.124.633a.53.53 0 0 0 .158.47c.183.187.906.261.906.261l.146.379a.5.5 0 0 0 .934-.359l-.124-.322.776-.239-.706 3.524-1.664 4.992a.36.36 0 0 1-.341.243h-.462l.201-1.4a.483.483 0 0 0-.17-.45l-1.85-1.54-.69-2.08a.518.518 0 0 0-.14-.21l-.28-.25.82.18c.21.04.44-.05.55-.25.1-.19.07-.43-.09-.59l-.93-.93.46-.47c.12-.12.17-.29.13-.45a.398.398 0 0 0-.09-.21l.69-.04c.27-.02.48-.25.46-.53a.47.47 0 0 0-.52-.47l-1.74.1-.13.03c-.08.03-.69.25-1.14.52-.38-.06-.85.04-1.18.25-.32.2-.51.5-.54.84-.01.27-.46 1.07-.86 1.66-.11.16-.12.38-.01.55s.32.26.52.22l.57-.11.06.14-1.29 2.04c-.11.17-.11.39.01.56l.6.83-.34 1.17c-.02.07-.03.15-.01.22l.155.944a2.28 2.28 0 0 0-.206.332l-.099.198a.353.353 0 0 1-.319.196h-2.012a.358.358 0 0 1-.353-.298l-.739-4.437c-.063-.386-.243-.729-.479-1.035l.016-.417.652-.119a.5.5 0 0 0 .354-.266l.743-1.459a.5.5 0 0 0-.446-.726h-1.058l-.291-.776a.496.496 0 0 0-.291-.292l-1.239-.469a.5.5 0 0 0-.587.183l-.76 1.092h-.257v-1.123a.8.8 0 0 0 .416-.693.81.81 0 0 0-.81-.81.794.794 0 0 0-.327.072c-.001 0-.001-.002-.003-.002-.2.095-.491.35-.58.488l-1.101 1.706a.5.5 0 0 0-.08.26l-.025 1.054-.374.638-.957 1.019a.5.5 0 0 0 .578.795l2.104-1.003.068-.02-1.242 1.862A.512.512 0 0 0 23 55.5V58h-.37a.355.355 0 0 1-.272-.126l-1.961-2.318a.354.354 0 0 1-.084-.257l.203-2.795a2.347 2.347 0 0 0-.352-1.418l-.498-.797a.357.357 0 0 1-.027-.324l.238-.582c.393-.96.12-2.05-.681-2.712l-1.481-1.222a2.357 2.357 0 0 0-2.344-.384l-.896.343a.362.362 0 0 1-.413-.118l-3.476-4.59a2.316 2.316 0 0 0-.814-.679c-.455-.225-1.959-1.067-2.231-2.459-.099-.505.568-1.67 2.278-3.136l.311.694c.24.52.77.86 1.34.86h.55l.57 1.02H10.5c-.28 0-.5.22-.5.5s.22.5.5.5h15.76c.16 0 .31-.07.4-.2l.6-.8h1.24c.28 0 .5-.22.5-.5s-.22-.5-.5-.5H28l.68-.91h-1.67l2.42-1.34.44-.87.89-.43c.05-.03.1-.06.14-.1l.82-.85 2.08-1.6c.22-.17.26-.49.1-.7a.508.508 0 0 0-.7-.1l-1.694 1.305a8.339 8.339 0 0 1-2.544-2.121c.091-1.067.044-1.767.038-1.824a.496.496 0 0 0-.34-.43l-.47-.16-5.61-1.68 3.8.28c.222-1.061.098-2.04-.037-2.655l.817-.265c.09-.03.17-.08.23-.15l.74-.89 1.34-.47c.08-.03.16-.08.22-.15l.72-.88 1.15-.01c.11-.01.23-.05.32-.12l1.13-.98h1.39c.12 0 .24-.04.33-.12l1.29-1.12 4.22-1.58.97-.38.48-1.3 1.5.52L46 12.54l2.48-.28 1.824.987 1.726 4.028c.057.135.128.265.207.383l3.618 5.428c.054.08.072.176.054.269L54.1 32.4a.392.392 0 0 1-.116.202 2.353 2.353 0 0 0-.441 2.721l.395.788c.179.359.443.664.76.88.401.274 1.332 1.018 1.303 1.98-.016.514-.962 1.633-3.003 2.874zM26.16 33.33l2.29-2.15c.152-.56.259-1.085.342-1.577a9.201 9.201 0 0 0 1.854 1.464l-.146.113h-1.04c-.28 0-.5.22-.5.5v.33l-2.8 1.32z"/><path fill="#836c9b" d="M37.468 43.509h-.926l.868-.883a.5.5 0 0 0 .111-.529l-2.145-5.642a.498.498 0 0 0-.202-.246l-1.844-1.156a.5.5 0 0 0-.69.159l-.547.873-.673-.295a.5.5 0 0 0-.683.326l-.506 1.85-1.165.917a.507.507 0 0 0-.148.192l-.359.83-.908 1.568c-.067.117-.049.252-.049.387 0 .322-.912.471-.912.471a.502.502 0 0 0 .042.995l2.92.023-1.349.336h-1.23a.5.5 0 0 0 .101.989h3.799a.508.508 0 0 0 .5-.519c.007-2.473 1.317-3.765 2.134-4.33l.069 1.066a5.83 5.83 0 0 0 .666 2.354l.455.859c.03.057.068.104.113.144a.502.502 0 0 0 .439.261h2.119a.5.5 0 0 0 0-1zM62.104 15.129a1 1 0 0 0-1.379-.313l-1.691 1.067a1 1 0 1 0 1.066 1.692l1.691-1.067a.998.998 0 0 0 .313-1.379zM56.113 13.134a1 1 0 0 0 1.38.312l1.69-1.068c.467-.296.606-.913.312-1.38a1.004 1.004 0 0 0-1.38-.312l-1.69 1.068a1 1 0 0 0-.312 1.38zM53.505 9.003a1 1 0 0 0 1.38.312l1.69-1.068c.467-.296.606-.913.312-1.38a1.003 1.003 0 0 0-1.38-.312l-1.69 1.068a1 1 0 0 0-.312 1.38zM51.742 5.338c.183 0 .367-.05.532-.154l1.691-1.067a1 1 0 1 0-1.066-1.692l-1.691 1.067a1 1 0 0 0 .534 1.846z"/></svg>