<svg fill="#000000" xmlns="http://www.w3.org/2000/svg"  viewBox="0 0 50 50" width="48px" height="48px"><path d="M 13 4 L 13 11 L 20 11 L 20 4 Z M 22 4 L 22 11 L 29 11 L 29 4 Z M 31 4 L 31 11 L 38 11 L 38 4 Z M 22 13 L 22 20 L 29 20 L 29 13 Z M 4 21 L 4 28 L 11 28 L 11 21 Z M 40 21 L 40 28 L 47 28 L 47 21 Z M 4 30 L 4 37 L 11 37 L 11 30 Z M 13 30 L 13 37 L 20 37 L 20 30 Z M 31 30 L 31 37 L 38 37 L 38 30 Z M 40 30 L 40 37 L 47 37 L 47 30 Z M 4 39 L 4 46 L 11 46 L 11 39 Z M 13 39 L 13 46 L 20 46 L 20 39 Z M 22 39 L 22 46 L 29 46 L 29 39 Z M 31 39 L 31 46 L 38 46 L 38 39 Z M 40 39 L 40 46 L 47 46 L 47 39 Z"/></svg>