<?xml version="1.0" encoding="UTF-8"?>
<svg xmlns="http://www.w3.org/2000/svg" xmlns:xlink="http://www.w3.org/1999/xlink" viewBox="0 0 48 48" width="48px" height="48px">
<g id="surface28951715">
<rect x="0" y="0" width="48" height="48" style="fill:rgb(0%,0%,0%);fill-opacity:1;stroke:none;"/>
<path style=" stroke:none;fill-rule:nonzero;fill:rgb(92.941177%,86.274511%,40.392157%);fill-opacity:1;" d="M 21.8125 12.132812 L 24 8.347656 L 26.1875 12.132812 Z M 19.210938 16.640625 L 21.398438 12.855469 L 23.585938 16.640625 Z M 24.414062 16.640625 L 26.601562 12.855469 L 28.789062 16.640625 Z M 24.414062 16.640625 "/>
<path style=" stroke:none;fill-rule:nonzero;fill:rgb(12.156863%,12.941177%,16.862746%);fill-opacity:1;" d="M 26.601562 13.335938 L 27.488281 14.867188 L 28.375 16.402344 L 24.832031 16.402344 L 25.71875 14.867188 L 26.601562 13.335938 M 26.601562 12.375 L 24 16.882812 L 28.371094 16.882812 C 28.742188 16.882812 28.972656 16.480469 28.789062 16.160156 L 27.902344 14.628906 Z M 26.601562 12.375 "/>
<path style=" stroke:none;fill-rule:nonzero;fill:rgb(92.941177%,86.274511%,40.392157%);fill-opacity:1;" d="M 24 23.992188 C 23.714844 23.175781 23.5625 23.175781 23.433594 23.175781 C 23.378906 23.175781 23.257812 23.175781 23.035156 23.402344 C 22.933594 22.769531 22.753906 22.71875 22.664062 22.695312 L 22.632812 22.683594 L 22.578125 22.683594 C 22.515625 22.683594 22.367188 22.683594 22.0625 23.007812 C 22.039062 22.738281 21.984375 22.476562 21.863281 22.339844 C 21.789062 22.261719 21.699219 22.21875 21.597656 22.214844 C 21.347656 22.214844 21.027344 22.507812 20.730469 22.867188 C 20.804688 21.613281 21.359375 21.210938 22.089844 20.679688 C 22.257812 20.554688 22.433594 20.429688 22.605469 20.289062 C 23.300781 19.726562 23.753906 18.796875 24 18.15625 C 24.25 18.796875 24.699219 19.726562 25.394531 20.289062 C 25.570312 20.429688 25.742188 20.554688 25.910156 20.679688 C 26.640625 21.210938 27.195312 21.613281 27.269531 22.867188 C 26.972656 22.507812 26.65625 22.214844 26.414062 22.214844 C 26.300781 22.21875 26.210938 22.261719 26.140625 22.339844 C 26.015625 22.476562 25.960938 22.738281 25.9375 23.007812 C 25.632812 22.683594 25.484375 22.683594 25.421875 22.683594 L 25.390625 22.683594 L 25.335938 22.695312 C 25.25 22.71875 25.066406 22.769531 24.964844 23.402344 C 24.742188 23.175781 24.621094 23.175781 24.566406 23.175781 C 24.4375 23.175781 24.285156 23.175781 24 23.992188 Z M 24 23.992188 "/>
<path style=" stroke:none;fill-rule:nonzero;fill:rgb(12.156863%,12.941177%,16.862746%);fill-opacity:1;" d="M 24 24.230469 C 23.898438 24.230469 23.808594 24.167969 23.773438 24.070312 C 23.570312 23.496094 23.464844 23.417969 23.453125 23.410156 C 23.371094 23.414062 23.277344 23.5 23.207031 23.570312 C 23.144531 23.632812 23.050781 23.65625 22.964844 23.628906 C 22.878906 23.601562 22.8125 23.527344 22.800781 23.441406 C 22.78125 23.328125 22.710938 22.957031 22.597656 22.925781 L 22.566406 22.921875 C 22.480469 22.921875 22.308594 23.09375 22.238281 23.171875 C 22.171875 23.238281 22.074219 23.265625 21.984375 23.234375 C 21.894531 23.203125 21.832031 23.121094 21.824219 23.027344 C 21.792969 22.648438 21.707031 22.527344 21.683594 22.5 C 21.648438 22.460938 21.613281 22.453125 21.589844 22.453125 C 21.5625 22.453125 21.363281 22.480469 20.917969 23.019531 C 20.851562 23.101562 20.738281 23.128906 20.644531 23.089844 C 20.546875 23.054688 20.484375 22.957031 20.492188 22.855469 C 20.570312 21.484375 21.210938 21.019531 21.949219 20.484375 C 22.117188 20.359375 22.285156 20.238281 22.457031 20.101562 C 23.101562 19.578125 23.53125 18.707031 23.777344 18.066406 C 23.847656 17.882812 24.152344 17.882812 24.226562 18.066406 C 24.472656 18.707031 24.902344 19.578125 25.546875 20.101562 C 25.714844 20.238281 25.882812 20.359375 26.046875 20.480469 C 26.789062 21.019531 27.429688 21.484375 27.507812 22.851562 C 27.515625 22.957031 27.453125 23.054688 27.359375 23.089844 C 27.257812 23.128906 27.152344 23.101562 27.085938 23.019531 C 26.632812 22.46875 26.433594 22.453125 26.414062 22.453125 C 26.375 22.453125 26.347656 22.46875 26.316406 22.5 C 26.292969 22.527344 26.207031 22.648438 26.179688 23.027344 C 26.171875 23.121094 26.105469 23.203125 26.019531 23.234375 C 25.925781 23.265625 25.828125 23.238281 25.761719 23.171875 C 25.695312 23.097656 25.519531 22.921875 25.421875 22.921875 L 25.386719 22.929688 C 25.289062 22.957031 25.21875 23.328125 25.199219 23.441406 C 25.1875 23.53125 25.121094 23.601562 25.035156 23.628906 C 24.949219 23.65625 24.855469 23.632812 24.792969 23.570312 C 24.722656 23.5 24.628906 23.414062 24.566406 23.414062 C 24.535156 23.417969 24.429688 23.496094 24.226562 24.070312 C 24.191406 24.167969 24.101562 24.230469 24 24.230469 Z M 23.433594 22.933594 C 23.648438 22.933594 23.816406 23.011719 24 23.367188 C 24.183594 23.011719 24.351562 22.933594 24.566406 22.933594 C 24.632812 22.933594 24.714844 22.945312 24.8125 22.988281 C 24.933594 22.613281 25.109375 22.507812 25.269531 22.464844 L 25.335938 22.449219 C 25.460938 22.421875 25.59375 22.445312 25.769531 22.550781 C 25.816406 22.390625 25.878906 22.269531 25.960938 22.179688 C 26.078125 22.050781 26.230469 21.980469 26.40625 21.972656 C 26.5625 21.972656 26.726562 22.039062 26.910156 22.171875 C 26.714844 21.5625 26.3125 21.265625 25.769531 20.875 C 25.59375 20.746094 25.417969 20.617188 25.242188 20.476562 C 24.6875 20.023438 24.28125 19.363281 24 18.765625 C 23.71875 19.363281 23.3125 20.027344 22.757812 20.476562 C 22.582031 20.617188 22.40625 20.746094 22.238281 20.867188 C 21.6875 21.265625 21.285156 21.5625 21.089844 22.175781 C 21.273438 22.039062 21.441406 21.972656 21.597656 21.972656 C 21.769531 21.980469 21.925781 22.050781 22.039062 22.179688 C 22.121094 22.269531 22.183594 22.390625 22.226562 22.550781 C 22.375 22.457031 22.488281 22.441406 22.578125 22.441406 L 22.644531 22.445312 C 22.664062 22.445312 22.679688 22.449219 22.699219 22.453125 C 22.882812 22.507812 23.0625 22.613281 23.1875 22.988281 C 23.285156 22.945312 23.367188 22.933594 23.433594 22.933594 Z M 23.433594 22.933594 "/>
<path style=" stroke:none;fill-rule:nonzero;fill:rgb(92.941177%,86.274511%,40.392157%);fill-opacity:1;" d="M 24 39.039062 C 23.929688 38.757812 23.851562 38.449219 23.765625 38.164062 C 23.574219 37.527344 23.1875 36.929688 23.003906 36.667969 C 23.179688 36.371094 23.546875 35.664062 23.582031 34.851562 C 23.613281 34.050781 23.25 33.34375 23.050781 33.023438 C 23.300781 32.761719 23.710938 32.164062 23.554688 31.175781 C 23.40625 30.230469 22.132812 29.625 21.28125 29.324219 C 21.4375 29.242188 21.59375 29.136719 21.722656 29 C 21.960938 28.746094 22.070312 28.488281 22.1875 28.214844 C 22.28125 27.992188 22.382812 27.757812 22.566406 27.476562 C 22.824219 27.09375 23.09375 26.84375 23.351562 26.601562 C 23.507812 26.453125 23.65625 26.316406 23.785156 26.160156 C 23.871094 26.054688 23.941406 25.941406 24 25.832031 C 24.058594 25.941406 24.128906 26.054688 24.214844 26.160156 C 24.34375 26.316406 24.492188 26.453125 24.648438 26.601562 C 24.90625 26.84375 25.175781 27.09375 25.429688 27.476562 C 25.617188 27.757812 25.714844 27.992188 25.8125 28.214844 C 25.929688 28.488281 26.039062 28.746094 26.277344 29 C 26.40625 29.136719 26.5625 29.242188 26.71875 29.324219 C 25.867188 29.625 24.59375 30.230469 24.441406 31.175781 C 24.285156 32.164062 24.699219 32.761719 24.949219 33.023438 C 24.75 33.34375 24.382812 34.050781 24.417969 34.851562 C 24.453125 35.664062 24.820312 36.371094 24.996094 36.667969 C 24.8125 36.929688 24.425781 37.527344 24.234375 38.164062 C 24.148438 38.449219 24.070312 38.757812 24 39.039062 Z M 24 39.039062 "/>
<path style=" stroke:none;fill-rule:nonzero;fill:rgb(12.156863%,12.941177%,16.862746%);fill-opacity:1;" d="M 24 39.28125 C 23.890625 39.28125 23.792969 39.207031 23.765625 39.097656 C 23.699219 38.820312 23.621094 38.515625 23.535156 38.230469 C 23.351562 37.617188 22.964844 37.03125 22.808594 36.804688 C 22.753906 36.726562 22.75 36.625 22.796875 36.542969 C 22.949219 36.289062 23.308594 35.609375 23.339844 34.839844 C 23.371094 34.117188 23.042969 33.46875 22.84375 33.148438 C 22.789062 33.054688 22.800781 32.9375 22.875 32.855469 C 23.101562 32.621094 23.457031 32.097656 23.320312 31.210938 C 23.1875 30.375 21.933594 29.8125 21.199219 29.550781 C 21.109375 29.519531 21.046875 29.4375 21.039062 29.339844 C 21.035156 29.246094 21.085938 29.15625 21.167969 29.113281 C 21.320312 29.035156 21.449219 28.941406 21.546875 28.835938 C 21.757812 28.613281 21.855469 28.386719 21.964844 28.125 C 22.0625 27.898438 22.167969 27.644531 22.367188 27.34375 C 22.640625 26.9375 22.917969 26.679688 23.183594 26.425781 C 23.335938 26.285156 23.480469 26.152344 23.601562 26.007812 C 23.667969 25.925781 23.730469 25.828125 23.789062 25.722656 C 23.871094 25.566406 24.128906 25.566406 24.210938 25.722656 C 24.269531 25.828125 24.332031 25.921875 24.398438 26.007812 C 24.519531 26.152344 24.664062 26.285156 24.8125 26.425781 C 25.082031 26.679688 25.359375 26.941406 25.632812 27.347656 C 25.832031 27.644531 25.9375 27.898438 26.035156 28.125 C 26.144531 28.386719 26.242188 28.613281 26.453125 28.835938 C 26.550781 28.941406 26.679688 29.035156 26.828125 29.113281 C 26.914062 29.15625 26.964844 29.246094 26.957031 29.34375 C 26.953125 29.4375 26.890625 29.519531 26.800781 29.550781 C 26.066406 29.8125 24.8125 30.375 24.679688 31.210938 C 24.539062 32.097656 24.898438 32.621094 25.121094 32.855469 C 25.199219 32.9375 25.210938 33.054688 25.152344 33.148438 C 24.957031 33.46875 24.628906 34.117188 24.660156 34.839844 C 24.691406 35.609375 25.050781 36.289062 25.203125 36.542969 C 25.25 36.625 25.246094 36.726562 25.191406 36.804688 C 25.035156 37.03125 24.648438 37.617188 24.464844 38.234375 C 24.378906 38.515625 24.300781 38.820312 24.234375 39.097656 C 24.207031 39.207031 24.109375 39.28125 24 39.28125 Z M 23.285156 36.65625 C 23.507812 36.984375 23.824219 37.519531 23.996094 38.09375 C 23.996094 38.101562 24 38.105469 24 38.113281 C 24 38.105469 24.003906 38.101562 24.003906 38.09375 C 24.175781 37.519531 24.492188 36.984375 24.714844 36.65625 C 24.5 36.265625 24.210938 35.613281 24.179688 34.863281 C 24.148438 34.113281 24.429688 33.449219 24.65625 33.050781 C 24.378906 32.707031 24.058594 32.082031 24.207031 31.136719 C 24.347656 30.25 25.292969 29.644531 26.207031 29.265625 C 26.171875 29.234375 26.136719 29.199219 26.105469 29.164062 C 25.835938 28.882812 25.710938 28.589844 25.59375 28.308594 C 25.5 28.097656 25.40625 27.875 25.230469 27.613281 C 24.992188 27.25 24.734375 27.011719 24.488281 26.777344 C 24.324219 26.625 24.171875 26.480469 24.03125 26.3125 C 24.019531 26.300781 24.011719 26.289062 24 26.273438 C 23.992188 26.289062 23.980469 26.300781 23.96875 26.3125 C 23.832031 26.480469 23.675781 26.625 23.515625 26.773438 C 23.265625 27.007812 23.007812 27.25 22.769531 27.609375 C 22.59375 27.871094 22.5 28.09375 22.410156 28.308594 C 22.289062 28.589844 22.164062 28.882812 21.894531 29.164062 C 21.863281 29.199219 21.828125 29.234375 21.792969 29.265625 C 22.707031 29.644531 23.652344 30.25 23.792969 31.136719 C 23.941406 32.082031 23.621094 32.707031 23.34375 33.050781 C 23.570312 33.449219 23.851562 34.113281 23.820312 34.863281 C 23.789062 35.613281 23.5 36.269531 23.285156 36.65625 Z M 23.285156 36.65625 "/>
<path style=" stroke:none;fill-rule:nonzero;fill:rgb(92.941177%,86.274511%,40.392157%);fill-opacity:1;" d="M 18.375 25.070312 C 17.136719 24.640625 16.519531 23.132812 16.546875 21.542969 C 16.574219 19.957031 17.40625 18.800781 17.40625 18.800781 C 17.40625 18.800781 15.757812 19.335938 14.910156 20.996094 C 12.574219 20.601562 6.003906 19.300781 0.539062 16.351562 C 0.539062 16.351562 0.800781 20.019531 3.734375 21.167969 C 7.070312 22.472656 12.382812 22.917969 14.425781 23.042969 C 14.425781 23.074219 14.417969 23.101562 14.417969 23.132812 C 14.417969 23.230469 14.429688 23.324219 14.4375 23.421875 C 12.890625 23.644531 8.089844 24.203125 4.167969 23.207031 L 3.449219 23.023438 L 3.621094 23.746094 C 3.871094 24.804688 4.929688 26.8125 7.125 26.8125 C 9.242188 26.8125 13.660156 25.835938 15 25.527344 C 15.046875 25.617188 15.089844 25.710938 15.140625 25.796875 C 14.179688 26.457031 11.523438 28.074219 8.390625 28.203125 L 7.574219 28.234375 L 8.042969 28.90625 C 8.089844 28.976562 9.132812 30.445312 10.953125 30.445312 C 11.160156 30.445312 11.375 30.425781 11.601562 30.382812 C 13.578125 30.015625 15.679688 28.125 16.476562 27.347656 C 16.5625 27.421875 16.652344 27.488281 16.742188 27.554688 C 16.007812 28.632812 14.449219 30.917969 13.96875 31.546875 L 13.554688 32.09375 L 14.21875 32.253906 C 14.304688 32.277344 14.699219 32.367188 15.183594 32.367188 C 15.742188 32.367188 16.417969 32.246094 16.859375 31.757812 C 17.363281 31.199219 18.191406 29.433594 18.625 28.457031 C 18.632812 28.457031 18.640625 28.460938 18.644531 28.460938 C 19.640625 28.609375 20.324219 27.925781 20.394531 27.304688 C 20.476562 26.605469 20.425781 25.78125 18.375 25.070312 Z M 18.375 25.070312 "/>
<path style=" stroke:none;fill-rule:nonzero;fill:rgb(12.156863%,12.941177%,16.862746%);fill-opacity:1;" d="M 15.183594 32.847656 C 14.652344 32.847656 14.222656 32.75 14.105469 32.722656 L 13.441406 32.558594 C 13.28125 32.519531 13.15625 32.40625 13.101562 32.253906 C 13.046875 32.101562 13.074219 31.929688 13.171875 31.800781 L 13.585938 31.257812 C 13.84375 30.917969 14.429688 30.078125 15.019531 29.21875 C 14.046875 29.941406 12.855469 30.640625 11.6875 30.855469 C 11.441406 30.902344 11.195312 30.925781 10.953125 30.925781 C 8.925781 30.925781 7.773438 29.359375 7.648438 29.179688 L 7.183594 28.507812 C 7.082031 28.367188 7.066406 28.179688 7.144531 28.023438 C 7.222656 27.863281 7.382812 27.761719 7.554688 27.757812 L 8.375 27.722656 C 10.203125 27.648438 11.867188 27.042969 13.105469 26.433594 C 11.203125 26.824219 8.617188 27.292969 7.125 27.292969 C 4.628906 27.292969 3.433594 25.042969 3.152344 23.855469 L 2.980469 23.132812 C 2.945312 22.96875 2.992188 22.796875 3.113281 22.679688 C 3.234375 22.5625 3.40625 22.515625 3.566406 22.558594 L 4.285156 22.742188 C 6.582031 23.328125 9.214844 23.359375 11.265625 23.25 C 8.828125 22.976562 5.777344 22.484375 3.558594 21.617188 C 0.378906 20.371094 0.0742188 16.546875 0.0625 16.386719 C 0.0507812 16.210938 0.132812 16.042969 0.28125 15.949219 C 0.425781 15.851562 0.613281 15.847656 0.769531 15.929688 C 5.890625 18.695312 11.964844 19.992188 14.65625 20.464844 C 15.617188 18.894531 17.1875 18.367188 17.257812 18.34375 C 17.457031 18.28125 17.671875 18.347656 17.796875 18.515625 C 17.917969 18.683594 17.917969 18.914062 17.796875 19.082031 C 17.789062 19.089844 17.050781 20.144531 17.027344 21.554688 C 17 23.085938 17.59375 24.289062 18.535156 24.617188 C 20.777344 25.398438 20.984375 26.398438 20.871094 27.359375 C 20.820312 27.8125 20.5625 28.242188 20.167969 28.546875 C 19.8125 28.816406 19.382812 28.960938 18.925781 28.960938 C 18.386719 30.152344 17.691406 31.550781 17.214844 32.078125 C 16.761719 32.582031 16.058594 32.847656 15.183594 32.847656 Z M 14.378906 31.800781 C 14.503906 31.828125 14.8125 31.886719 15.183594 31.886719 C 15.597656 31.886719 16.164062 31.808594 16.503906 31.4375 C 16.832031 31.070312 17.460938 29.886719 18.1875 28.261719 C 18.273438 28.070312 18.480469 27.957031 18.6875 27.984375 C 18.703125 27.984375 18.730469 27.988281 18.746094 27.992188 C 19.132812 28.046875 19.417969 27.914062 19.582031 27.785156 C 19.765625 27.644531 19.894531 27.4375 19.917969 27.25 C 19.972656 26.765625 20.042969 26.160156 18.21875 25.523438 C 16.878906 25.058594 16.03125 23.492188 16.066406 21.539062 C 16.074219 20.960938 16.183594 20.4375 16.320312 19.992188 C 15.964844 20.289062 15.605469 20.691406 15.335938 21.214844 C 15.242188 21.398438 15.035156 21.5 14.832031 21.46875 C 12.421875 21.0625 6.457031 19.867188 1.183594 17.226562 C 1.457031 18.304688 2.160156 20.039062 3.910156 20.722656 C 7.167969 21.996094 12.367188 22.433594 14.453125 22.566406 C 14.710938 22.582031 14.910156 22.796875 14.90625 23.050781 C 14.90625 23.0625 14.902344 23.113281 14.902344 23.125 C 14.898438 23.1875 14.902344 23.238281 14.90625 23.289062 L 14.914062 23.398438 C 14.929688 23.644531 14.75 23.863281 14.503906 23.898438 C 13.078125 24.105469 8.132812 24.695312 4.101562 23.683594 C 4.34375 24.628906 5.261719 26.332031 7.125 26.332031 C 9.195312 26.332031 13.59375 25.359375 14.894531 25.0625 C 15.109375 25.011719 15.328125 25.113281 15.425781 25.308594 L 15.457031 25.371094 C 15.488281 25.433594 15.519531 25.496094 15.554688 25.554688 C 15.683594 25.769531 15.621094 26.050781 15.414062 26.191406 C 14.394531 26.894531 11.691406 28.53125 8.472656 28.679688 C 8.65625 28.921875 9.539062 29.964844 10.953125 29.964844 C 11.136719 29.964844 11.324219 29.945312 11.515625 29.914062 C 13.355469 29.570312 15.363281 27.765625 16.140625 27.003906 C 16.316406 26.832031 16.59375 26.820312 16.785156 26.976562 C 16.863281 27.046875 16.945312 27.109375 17.027344 27.171875 C 17.234375 27.324219 17.285156 27.613281 17.140625 27.824219 C 16.316406 29.03125 14.882812 31.132812 14.378906 31.800781 Z M 14.378906 31.800781 "/>
<path style=" stroke:none;fill-rule:nonzero;fill:rgb(92.941177%,86.274511%,40.392157%);fill-opacity:1;" d="M 21.5625 34.335938 C 21.53125 34.3125 20.9375 34.304688 20.210938 34.296875 L 21.578125 32.519531 L 21.585938 32.507812 C 21.667969 32.375 21.714844 32.21875 21.714844 32.054688 C 21.714844 31.585938 21.335938 31.203125 20.867188 31.203125 C 20.507812 31.203125 20.203125 31.425781 20.078125 31.742188 L 20.070312 31.757812 L 18.546875 34.292969 C 16.769531 34.292969 15.0625 34.308594 15.003906 34.316406 C 14.902344 34.332031 14.558594 34.433594 14.574219 34.710938 C 14.585938 34.988281 17.070312 37.851562 17.070312 37.851562 L 16.898438 35.917969 L 19.324219 35.964844 L 19.433594 36.917969 C 19.433594 36.917969 21.632812 34.96875 21.734375 34.808594 C 21.835938 34.652344 21.675781 34.40625 21.5625 34.335938 Z M 21.5625 34.335938 "/>
<path style=" stroke:none;fill-rule:nonzero;fill:rgb(12.156863%,12.941177%,16.862746%);fill-opacity:1;" d="M 17.070312 38.332031 C 16.933594 38.332031 16.800781 38.273438 16.707031 38.167969 C 14.117188 35.175781 14.101562 34.910156 14.09375 34.734375 C 14.066406 34.230469 14.496094 33.902344 14.9375 33.839844 C 15.066406 33.824219 17.175781 33.8125 18.277344 33.8125 L 19.640625 31.539062 C 19.859375 31.035156 20.332031 30.722656 20.867188 30.722656 C 21.601562 30.722656 22.195312 31.320312 22.195312 32.050781 C 22.195312 32.304688 22.125 32.550781 21.988281 32.765625 C 21.980469 32.777344 21.964844 32.800781 21.957031 32.8125 L 21.175781 33.828125 C 21.679688 33.84375 21.71875 33.867188 21.816406 33.925781 C 22.007812 34.046875 22.175781 34.285156 22.226562 34.515625 C 22.269531 34.714844 22.242188 34.90625 22.140625 35.066406 C 22.097656 35.128906 22.003906 35.28125 19.75 37.277344 C 19.617188 37.394531 19.429688 37.429688 19.261719 37.367188 C 19.09375 37.300781 18.976562 37.152344 18.957031 36.972656 L 18.894531 36.4375 L 17.425781 36.410156 L 17.550781 37.808594 C 17.570312 38.015625 17.449219 38.210938 17.257812 38.292969 C 17.199219 38.320312 17.132812 38.332031 17.070312 38.332031 Z M 15.175781 34.792969 C 15.414062 35.125 15.902344 35.730469 16.457031 36.394531 L 16.417969 35.960938 C 16.40625 35.824219 16.453125 35.691406 16.546875 35.589844 C 16.640625 35.492188 16.773438 35.441406 16.90625 35.4375 L 19.332031 35.484375 C 19.574219 35.488281 19.773438 35.671875 19.800781 35.910156 L 19.804688 35.945312 C 20.316406 35.488281 20.789062 35.058594 21.074219 34.789062 C 20.886719 34.785156 20.609375 34.78125 20.207031 34.777344 C 20.023438 34.777344 19.859375 34.671875 19.777344 34.507812 C 19.699219 34.34375 19.71875 34.148438 19.828125 34.003906 L 21.195312 32.226562 C 21.21875 32.191406 21.238281 32.121094 21.238281 32.050781 C 21.238281 31.847656 21.070312 31.683594 20.867188 31.683594 C 20.714844 31.683594 20.578125 31.773438 20.523438 31.917969 C 20.515625 31.941406 20.496094 31.980469 20.484375 32.003906 L 18.960938 34.539062 C 18.871094 34.683594 18.714844 34.773438 18.546875 34.773438 C 17.007812 34.773438 15.613281 34.785156 15.175781 34.792969 Z M 15.027344 34.5625 Z M 15.027344 34.5625 "/>
<path style=" stroke:none;fill-rule:nonzero;fill:rgb(92.941177%,86.274511%,40.392157%);fill-opacity:1;" d="M 29.683594 25.070312 C 30.921875 24.640625 31.542969 23.132812 31.515625 21.542969 C 31.488281 19.957031 30.652344 18.800781 30.652344 18.800781 C 30.652344 18.800781 32.304688 19.335938 33.148438 20.996094 C 35.488281 20.601562 42.054688 19.304688 47.519531 16.351562 C 47.519531 16.351562 47.261719 20.019531 44.324219 21.167969 C 40.988281 22.472656 35.675781 22.917969 33.636719 23.042969 C 33.636719 23.074219 33.640625 23.101562 33.640625 23.132812 C 33.640625 23.234375 33.628906 23.324219 33.625 23.421875 C 35.167969 23.648438 39.972656 24.207031 43.890625 23.207031 L 44.609375 23.023438 L 44.441406 23.746094 C 44.1875 24.804688 43.132812 26.8125 40.933594 26.8125 C 38.816406 26.8125 34.402344 25.835938 33.0625 25.527344 C 33.015625 25.617188 32.96875 25.710938 32.917969 25.796875 C 33.882812 26.460938 36.535156 28.074219 39.667969 28.203125 L 40.484375 28.234375 L 40.019531 28.90625 C 39.96875 28.976562 38.925781 30.445312 37.105469 30.445312 C 36.902344 30.445312 36.683594 30.425781 36.457031 30.382812 C 34.484375 30.015625 32.378906 28.125 31.585938 27.347656 C 31.496094 27.421875 31.40625 27.488281 31.320312 27.554688 C 32.050781 28.632812 33.613281 30.917969 34.09375 31.546875 L 34.507812 32.09375 L 33.839844 32.253906 C 33.757812 32.277344 33.359375 32.367188 32.878906 32.367188 C 32.320312 32.367188 31.644531 32.246094 31.203125 31.757812 C 30.699219 31.199219 29.871094 29.433594 29.433594 28.457031 C 29.429688 28.460938 29.421875 28.460938 29.414062 28.460938 C 28.417969 28.609375 27.738281 27.925781 27.664062 27.304688 C 27.585938 26.605469 27.636719 25.78125 29.683594 25.070312 Z M 29.683594 25.070312 "/>
<path style=" stroke:none;fill-rule:nonzero;fill:rgb(12.156863%,12.941177%,16.862746%);fill-opacity:1;" d="M 30.847656 32.078125 C 30.367188 31.550781 29.675781 30.152344 29.132812 28.960938 C 28.675781 28.960938 28.246094 28.816406 27.894531 28.546875 C 27.5 28.242188 27.242188 27.8125 27.1875 27.359375 C 27.078125 26.394531 27.285156 25.398438 29.527344 24.617188 C 30.46875 24.289062 31.0625 23.085938 31.035156 21.554688 C 31.011719 20.144531 30.269531 19.089844 30.265625 19.078125 C 30.144531 18.910156 30.144531 18.683594 30.265625 18.515625 C 30.390625 18.347656 30.605469 18.277344 30.800781 18.34375 C 30.875 18.367188 32.445312 18.894531 33.402344 20.464844 C 36.097656 19.992188 42.167969 18.695312 47.292969 15.929688 C 47.445312 15.84375 47.632812 15.851562 47.78125 15.945312 C 47.929688 16.042969 48.011719 16.210938 48 16.382812 C 47.988281 16.546875 47.679688 20.371094 44.5 21.613281 C 42.28125 22.480469 39.234375 22.976562 36.792969 23.25 C 38.84375 23.359375 41.480469 23.324219 43.773438 22.742188 L 44.492188 22.558594 C 44.65625 22.515625 44.828125 22.5625 44.949219 22.679688 C 45.066406 22.796875 45.117188 22.96875 45.078125 23.132812 L 44.90625 23.855469 C 44.625 25.042969 43.433594 27.289062 40.9375 27.289062 C 39.445312 27.289062 36.859375 26.824219 34.957031 26.429688 C 36.191406 27.042969 37.855469 27.648438 39.6875 27.722656 L 40.503906 27.753906 C 40.679688 27.761719 40.835938 27.863281 40.914062 28.019531 C 40.992188 28.179688 40.980469 28.363281 40.878906 28.507812 L 40.414062 29.179688 C 40.289062 29.359375 39.136719 30.921875 37.109375 30.921875 C 36.867188 30.921875 36.617188 30.902344 36.371094 30.855469 C 35.207031 30.636719 34.011719 29.9375 33.039062 29.21875 C 33.628906 30.078125 34.21875 30.917969 34.472656 31.257812 L 34.890625 31.800781 C 34.988281 31.929688 35.015625 32.101562 34.960938 32.253906 C 34.90625 32.40625 34.777344 32.519531 34.621094 32.558594 L 33.957031 32.71875 C 33.835938 32.75 33.40625 32.84375 32.878906 32.84375 C 32.003906 32.847656 31.300781 32.582031 30.847656 32.078125 Z M 30.921875 27.824219 C 30.777344 27.613281 30.828125 27.324219 31.035156 27.167969 C 31.113281 27.109375 31.195312 27.046875 31.277344 26.976562 C 31.464844 26.820312 31.742188 26.832031 31.917969 27.003906 C 32.695312 27.765625 34.703125 29.570312 36.546875 29.910156 C 36.734375 29.945312 36.925781 29.964844 37.105469 29.964844 C 38.523438 29.964844 39.40625 28.917969 39.589844 28.679688 C 36.371094 28.53125 33.664062 26.890625 32.648438 26.191406 C 32.4375 26.050781 32.378906 25.769531 32.503906 25.554688 C 32.539062 25.492188 32.570312 25.429688 32.605469 25.367188 L 32.632812 25.308594 C 32.734375 25.113281 32.953125 25.011719 33.167969 25.0625 C 34.46875 25.359375 38.863281 26.332031 40.933594 26.332031 C 42.796875 26.332031 43.71875 24.628906 43.960938 23.683594 C 39.929688 24.695312 34.980469 24.105469 33.554688 23.898438 C 33.3125 23.863281 33.132812 23.644531 33.144531 23.398438 L 33.152344 23.285156 C 33.15625 23.234375 33.160156 23.183594 33.160156 23.125 C 33.160156 23.113281 33.15625 23.0625 33.15625 23.050781 C 33.152344 22.796875 33.351562 22.582031 33.605469 22.566406 C 35.691406 22.433594 40.894531 21.996094 44.152344 20.722656 C 45.902344 20.035156 46.605469 18.304688 46.875 17.226562 C 41.601562 19.867188 35.640625 21.0625 33.230469 21.46875 C 33.023438 21.5 32.820312 21.398438 32.722656 21.214844 C 32.457031 20.6875 32.09375 20.289062 31.742188 19.992188 C 31.878906 20.433594 31.984375 20.960938 31.996094 21.535156 C 32.027344 23.492188 31.183594 25.058594 29.84375 25.523438 C 28.019531 26.160156 28.085938 26.765625 28.144531 27.25 C 28.164062 27.4375 28.292969 27.644531 28.480469 27.785156 C 28.644531 27.910156 28.925781 28.046875 29.316406 27.992188 C 29.332031 27.988281 29.359375 27.984375 29.375 27.980469 C 29.582031 27.957031 29.785156 28.070312 29.871094 28.261719 C 30.597656 29.882812 31.230469 31.070312 31.558594 31.433594 C 31.894531 31.808594 32.460938 31.886719 32.878906 31.886719 C 33.246094 31.886719 33.558594 31.828125 33.679688 31.800781 C 33.175781 31.132812 31.742188 29.03125 30.921875 27.824219 Z M 30.921875 27.824219 "/>
<path style=" stroke:none;fill-rule:nonzero;fill:rgb(92.941177%,86.274511%,40.392157%);fill-opacity:1;" d="M 26.5 34.335938 C 26.53125 34.3125 27.121094 34.304688 27.851562 34.296875 L 26.484375 32.519531 L 26.476562 32.507812 C 26.390625 32.375 26.34375 32.21875 26.34375 32.054688 C 26.34375 31.585938 26.722656 31.203125 27.191406 31.203125 C 27.550781 31.203125 27.859375 31.425781 27.984375 31.742188 L 27.988281 31.757812 L 29.511719 34.292969 C 31.292969 34.292969 33 34.308594 33.054688 34.316406 C 33.15625 34.332031 33.503906 34.433594 33.488281 34.710938 C 33.472656 34.988281 30.988281 37.851562 30.988281 37.851562 L 31.164062 35.917969 L 28.734375 35.964844 L 28.628906 36.917969 C 28.628906 36.917969 26.425781 34.96875 26.324219 34.808594 C 26.226562 34.652344 26.382812 34.40625 26.5 34.335938 Z M 26.5 34.335938 "/>
<path style=" stroke:none;fill-rule:nonzero;fill:rgb(12.156863%,12.941177%,16.862746%);fill-opacity:1;" d="M 30.800781 38.292969 C 30.609375 38.210938 30.492188 38.015625 30.511719 37.808594 L 30.636719 36.410156 L 29.164062 36.4375 L 29.105469 36.972656 C 29.085938 37.152344 28.96875 37.304688 28.800781 37.367188 C 28.632812 37.429688 28.445312 37.398438 28.308594 37.277344 C 26.058594 35.28125 25.960938 35.132812 25.921875 35.066406 C 25.820312 34.910156 25.789062 34.714844 25.835938 34.519531 C 25.886719 34.285156 26.050781 34.046875 26.246094 33.925781 C 26.339844 33.867188 26.378906 33.84375 26.886719 33.828125 L 26.101562 32.8125 C 26.09375 32.800781 26.078125 32.777344 26.070312 32.765625 C 25.9375 32.550781 25.863281 32.304688 25.863281 32.054688 C 25.863281 31.320312 26.460938 30.722656 27.195312 30.722656 C 27.726562 30.722656 28.199219 31.035156 28.417969 31.539062 L 29.785156 33.8125 C 30.882812 33.8125 32.996094 33.824219 33.125 33.84375 C 33.5625 33.90625 33.992188 34.230469 33.96875 34.734375 C 33.957031 34.910156 33.945312 35.179688 31.351562 38.167969 C 31.257812 38.273438 31.125 38.332031 30.988281 38.332031 C 30.925781 38.332031 30.863281 38.320312 30.800781 38.292969 Z M 29.511719 34.773438 C 29.34375 34.773438 29.1875 34.683594 29.101562 34.539062 L 27.578125 32.003906 C 27.5625 31.980469 27.546875 31.941406 27.539062 31.917969 C 27.480469 31.777344 27.347656 31.683594 27.195312 31.683594 C 26.988281 31.683594 26.824219 31.847656 26.824219 32.054688 C 26.824219 32.121094 26.84375 32.191406 26.863281 32.226562 L 28.230469 34.003906 C 28.34375 34.148438 28.363281 34.34375 28.28125 34.507812 C 28.203125 34.671875 28.035156 34.777344 27.855469 34.777344 C 27.449219 34.78125 27.175781 34.785156 26.984375 34.789062 C 27.273438 35.058594 27.746094 35.488281 28.253906 35.945312 L 28.257812 35.910156 C 28.285156 35.671875 28.488281 35.492188 28.726562 35.484375 L 31.15625 35.4375 C 31.285156 35.441406 31.421875 35.492188 31.515625 35.59375 C 31.609375 35.691406 31.652344 35.828125 31.640625 35.960938 L 31.601562 36.394531 C 32.160156 35.730469 32.644531 35.125 32.886719 34.792969 C 32.449219 34.785156 31.050781 34.773438 29.511719 34.773438 Z M 33.035156 34.5625 Z M 33.035156 34.5625 "/>
<path style=" stroke:none;fill-rule:nonzero;fill:rgb(12.156863%,12.941177%,16.862746%);fill-opacity:1;" d="M 21.597656 16.402344 L 21.152344 16.402344 L 21.195312 16.402344 C 21.0625 16.402344 20.957031 16.507812 20.957031 16.640625 C 20.957031 16.773438 21.0625 16.882812 21.195312 16.882812 L 21.597656 16.882812 C 21.730469 16.882812 21.839844 16.773438 21.839844 16.640625 C 21.839844 16.507812 21.730469 16.402344 21.597656 16.402344 Z M 21.597656 16.402344 "/>
<path style=" stroke:none;fill-rule:nonzero;fill:rgb(12.156863%,12.941177%,16.862746%);fill-opacity:1;" d="M 22.699219 14.628906 L 21.398438 12.375 L 20.097656 14.628906 L 19.210938 16.160156 C 19.027344 16.480469 19.257812 16.882812 19.625 16.882812 L 19.992188 16.882812 C 19.992188 16.882812 19.992188 16.882812 19.996094 16.882812 L 20.003906 16.882812 L 20.003906 16.878906 C 20.132812 16.875 20.234375 16.769531 20.234375 16.640625 C 20.234375 16.511719 20.132812 16.40625 20.003906 16.402344 L 19.628906 16.402344 L 20.511719 14.867188 L 21.398438 13.335938 L 22.285156 14.867188 L 23.167969 16.402344 L 22.808594 16.402344 C 22.679688 16.40625 22.574219 16.511719 22.574219 16.640625 C 22.574219 16.773438 22.679688 16.875 22.808594 16.878906 L 22.808594 16.882812 L 24 16.882812 Z M 22.699219 14.628906 "/>
<path style=" stroke:none;fill-rule:nonzero;fill:rgb(12.156863%,12.941177%,16.862746%);fill-opacity:1;" d="M 24.996094 10.554688 C 25.0625 10.671875 25.207031 10.710938 25.324219 10.644531 C 25.4375 10.578125 25.480469 10.433594 25.414062 10.316406 L 25.191406 9.929688 L 25.214844 9.96875 C 25.148438 9.851562 25 9.8125 24.886719 9.878906 C 24.769531 9.941406 24.730469 10.089844 24.796875 10.203125 C 24.796875 10.203125 24.996094 10.554688 24.996094 10.554688 Z M 24.996094 10.554688 "/>
<path style=" stroke:none;fill-rule:nonzero;fill:rgb(12.156863%,12.941177%,16.862746%);fill-opacity:1;" d="M 26.003906 11.335938 L 26 11.335938 C 25.957031 11.269531 25.882812 11.222656 25.800781 11.222656 C 25.667969 11.222656 25.558594 11.332031 25.558594 11.460938 C 25.558594 11.503906 25.570312 11.539062 25.589844 11.574219 L 25.585938 11.574219 L 25.769531 11.894531 L 22.230469 11.894531 L 23.113281 10.359375 L 24 8.828125 L 24.207031 9.1875 L 24.210938 9.183594 C 24.253906 9.257812 24.328125 9.308594 24.414062 9.308594 C 24.546875 9.308594 24.65625 9.199219 24.65625 9.066406 C 24.65625 9.023438 24.640625 8.984375 24.621094 8.949219 L 24.625 8.945312 L 24.414062 8.585938 C 24.230469 8.265625 23.769531 8.265625 23.585938 8.585938 L 22.699219 10.121094 L 21.398438 12.375 L 26.601562 12.375 Z M 26.003906 11.335938 "/>
</g>
</svg>
