<svg fill="#000000" xmlns="http://www.w3.org/2000/svg"  viewBox="0 0 80 80" width="48px" height="48px"><path d="M 33.589844 11.667969 C 33.205844 11.667969 32.855453 11.887422 32.689453 12.232422 L 8.5820312 62.232422 C 8.4330313 62.543422 8.4527188 62.907219 8.6367188 63.199219 C 8.8197187 63.490219 9.140375 63.667969 9.484375 63.667969 L 23.984375 63.667969 C 24.374375 63.667969 24.728578 63.439938 24.892578 63.085938 L 40.962891 28.265625 C 41.193891 27.764625 40.976609 27.1685 40.474609 26.9375 C 39.972609 26.7075 39.377484 26.925734 39.146484 27.427734 L 39.107422 27.513672 C 39.103422 27.521672 39.094797 27.529109 39.091797 27.537109 C 39.089797 27.542109 39.091844 27.549687 39.089844 27.554688 L 23.34375 61.667969 L 11.074219 61.667969 L 34.216797 13.667969 L 44.783203 13.667969 L 67.925781 61.667969 L 43.376953 61.667969 L 39.820312 53.845703 L 51.587891 53.845703 C 51.625891 53.849703 51.660219 53.867188 51.699219 53.867188 C 51.829219 53.867188 51.960078 53.845875 52.080078 53.796875 C 52.200078 53.747875 52.309156 53.666172 52.410156 53.576172 C 52.500156 53.475172 52.568141 53.376094 52.619141 53.246094 C 52.669141 53.126094 52.699219 53.007188 52.699219 52.867188 C 52.699219 52.736187 52.669141 52.606328 52.619141 52.486328 C 52.568141 52.367328 52.500156 52.25625 52.410156 52.15625 C 52.359156 52.11625 52.308766 52.077109 52.259766 52.037109 C 52.206766 52.001109 52.152609 51.975078 52.099609 51.955078 C 52.052609 51.932078 52.002172 51.919297 51.951172 51.904297 C 51.934172 51.899297 51.917391 51.889719 51.900391 51.886719 C 51.881391 51.882719 51.861797 51.883859 51.841797 51.880859 C 51.780797 51.869859 51.724156 51.845703 51.660156 51.845703 L 38.267578 51.845703 C 37.927578 51.845703 37.612734 52.018687 37.427734 52.304688 C 37.243734 52.589687 37.216422 52.950766 37.357422 53.259766 L 41.822266 63.080078 C 41.984266 63.436078 42.340422 63.666016 42.732422 63.666016 L 69.517578 63.666016 C 69.861578 63.666016 70.182234 63.488266 70.365234 63.197266 C 70.548234 62.906266 70.566969 62.543422 70.417969 62.232422 L 46.3125 12.232422 C 46.1465 11.886422 45.795109 11.667969 45.412109 11.667969 L 33.589844 11.667969 z M 41.646484 30.480469 C 41.516406 30.485875 41.384766 30.516172 41.259766 30.576172 C 40.759766 30.805172 40.55025 31.40625 40.78125 31.90625 C 40.95125 32.26525 41.309453 32.476562 41.689453 32.476562 C 41.830453 32.476562 41.969375 32.447719 42.109375 32.386719 C 42.609375 32.157719 42.830844 31.556641 42.589844 31.056641 C 42.416594 30.681641 42.036719 30.46425 41.646484 30.480469 z M 43.316406 34.044922 C 43.18625 34.049641 43.054688 34.079469 42.929688 34.136719 C 42.429688 34.376719 42.210172 34.966797 42.451172 35.466797 C 42.621172 35.836797 42.979375 36.046875 43.359375 36.046875 C 43.500375 36.046875 43.64025 36.015313 43.78125 35.945312 C 44.28125 35.715313 44.500766 35.115234 44.259766 34.615234 C 44.087266 34.240984 43.706875 34.030766 43.316406 34.044922 z M 44.984375 37.609375 C 44.855078 37.614828 44.724609 37.646781 44.599609 37.707031 C 44.099609 37.936031 43.880094 38.537109 44.121094 39.037109 C 44.291094 39.396109 44.649531 39.605469 45.019531 39.605469 C 45.169531 39.605469 45.310172 39.576625 45.451172 39.515625 C 45.951172 39.275625 46.160688 38.685547 45.929688 38.185547 C 45.748937 37.810547 45.372266 37.593016 44.984375 37.609375 z M 46.654297 41.173828 C 46.525 41.178547 46.394531 41.208375 46.269531 41.265625 C 45.769531 41.505625 45.550016 42.095703 45.791016 42.595703 C 45.961016 42.955703 46.319453 43.175781 46.689453 43.175781 C 46.830453 43.175781 46.980094 43.146172 47.121094 43.076172 C 47.621094 42.846172 47.830609 42.246094 47.599609 41.746094 C 47.418859 41.371844 47.042188 41.159672 46.654297 41.173828 z M 48.324219 44.740234 C 48.194766 44.745688 48.064453 44.777641 47.939453 44.837891 C 47.439453 45.066891 47.219938 45.667969 47.460938 46.167969 C 47.630938 46.526969 47.990375 46.736328 48.359375 46.736328 C 48.500375 46.736328 48.648063 46.707484 48.789062 46.646484 C 49.289062 46.407484 49.500531 45.816406 49.269531 45.316406 C 49.090281 44.941406 48.712578 44.723875 48.324219 44.740234 z M 49.994141 48.302734 C 49.864687 48.307578 49.734375 48.338984 49.609375 48.396484 C 49.109375 48.636484 48.890859 49.226562 49.130859 49.726562 C 49.300859 50.086562 49.659297 50.306641 50.029297 50.306641 C 50.178297 50.306641 50.319938 50.275078 50.460938 50.205078 C 50.960938 49.975078 51.170453 49.376953 50.939453 48.876953 C 50.760203 48.501953 50.3825 48.288203 49.994141 48.302734 z"/></svg>