<svg version="1.1" id="Layer_1" xmlns="http://www.w3.org/2000/svg" xmlns:xlink="http://www.w3.org/1999/xlink" x="0px" y="0px"
	 width="100%" viewBox="0 0 256 256" enable-background="new 0 0 256 256" xml:space="preserve">
<path fill="#161D25" opacity="1.000000" stroke="none" 
	d="
M171.000000,257.000000 
	C115.333336,257.000000 60.166573,256.959595 5.000252,257.097198 
	C1.575209,257.105743 0.898907,256.424225 0.904008,252.999878 
	C1.027148,170.333405 1.027152,87.666649 0.904013,5.000168 
	C0.898912,1.575897 1.575738,0.898905 5.000117,0.904006 
	C87.666595,1.027152 170.333344,1.027148 252.999817,0.904016 
	C256.424042,0.898915 257.101105,1.575681 257.096008,5.000102 
	C256.972870,87.666580 256.972839,170.333328 257.095978,252.999802 
	C257.101074,256.423981 256.427612,257.123077 252.999390,257.100311 
	C225.833908,256.920044 198.666687,257.000000 171.000000,257.000000 
z"/>
<path fill="#D60B31" opacity="1.000000" stroke="none" 
	d="
M88.483795,68.008682 
	C85.596397,59.709133 82.848862,51.735924 79.652756,42.461002 
	C86.951057,47.871613 94.595612,50.716717 98.604721,58.202896 
	C99.109619,59.145695 99.848587,62.771549 101.574051,58.712933 
	C101.615768,58.614803 103.055328,58.954964 103.725792,59.311165 
	C105.341507,60.169559 106.902527,61.134899 108.459023,62.099983 
	C112.785393,64.782486 116.265091,66.690407 114.204308,73.810417 
	C112.055023,81.236229 113.240448,89.661598 113.185043,97.651466 
	C113.088013,111.644592 113.070953,125.639534 113.181244,139.632446 
	C113.284378,152.717834 119.117676,163.655685 126.478294,173.973038 
	C128.112457,176.263657 129.657135,176.629654 131.467606,174.120773 
	C138.889420,163.835983 144.789322,152.899246 144.859604,139.826416 
	C144.966171,120.002953 144.808716,100.177910 144.719208,80.353737 
	C144.708725,78.029778 145.119095,75.341469 144.131378,73.450378 
	C140.781708,67.037079 145.147507,64.736252 149.449646,62.210850 
	C151.459076,61.031288 153.354187,59.412819 155.527527,58.811405 
	C159.178970,57.800961 159.075165,57.921505 161.916458,54.611320 
	C166.184799,49.638615 172.198059,47.006451 178.108536,43.761829 
	C175.633926,50.587326 173.052399,57.377827 170.795593,64.274597 
	C170.441422,65.356964 166.700470,68.871750 172.439911,68.253525 
	C173.745865,68.112854 172.898590,70.529755 172.749313,71.723854 
	C171.551544,81.306053 170.254440,90.875763 169.024979,100.454079 
	C167.127167,115.239510 167.686279,130.057236 168.690720,144.858307 
	C168.992416,149.303879 168.308640,153.340424 166.557785,157.440231 
	C157.840149,177.853516 145.676025,196.057785 131.543915,213.052826 
	C129.778076,215.176346 128.699158,215.690170 126.655479,213.227600 
	C111.890320,195.436188 99.195648,176.393005 90.474655,154.858017 
	C89.440521,152.304382 89.065102,149.787491 89.307060,147.074570 
	C91.542358,122.011917 89.576637,97.166634 85.505028,72.417755 
	C85.303535,71.193054 83.096466,68.839806 86.955223,68.583099 
	C87.335556,67.261627 88.246712,68.681297 88.483795,68.008682 
z"/>
<path fill="#161D25" opacity="1.000000" stroke="none" 
	d="
M88.082779,67.945526 
	C88.491302,68.252831 88.895401,68.923233 88.721970,69.368874 
	C88.498001,69.944382 87.984207,69.450439 87.471054,68.954224 
	C87.473701,68.559921 87.647652,68.384315 88.082779,67.945526 
z"/>
<path fill="#161D25" opacity="1.000000" stroke="none" 
	d="
M168.910156,69.440323 
	C169.110931,68.877136 169.515778,68.372528 169.806503,68.984871 
	C170.040115,69.476921 169.573639,69.781647 168.910156,69.440323 
z"/>
</svg>