<svg xmlns="http://www.w3.org/2000/svg"  viewBox="0 0 64 64" width="48px" height="48px"><radialGradient id="OD9qOsFrAhRH5kH1_kXada" cx="33.211" cy="1965.619" r="42.955" gradientTransform="translate(0 -1934)" gradientUnits="userSpaceOnUse"><stop offset="0" stop-color="#afeeff"/><stop offset=".193" stop-color="#bbf1ff"/><stop offset=".703" stop-color="#d7f8ff"/><stop offset="1" stop-color="#e1faff"/></radialGradient><path fill="url(#OD9qOsFrAhRH5kH1_kXada)" d="M63.99,36.31C64.1,38.33,62.5,40,60.5,40h-9.48C51.009,40,51,40.009,51,40.02v5.96	c0,0.011,0.009,0.02,0.02,0.02h9.48c1.58,0,2.81,1.46,2.43,3.11C62.66,50.25,61.54,51,60.37,51H59.5c-0.825,0-1.5,0.675-1.5,1.5l0,0	c0,0.825,0.675,1.5,1.5,1.5l0,0c2,0,3.6,1.67,3.49,3.69C62.9,59.58,61.2,61,59.3,61H4c-2.48,0-4.43-2.26-3.92-4.82	C0.47,54.29,2.25,53,4.18,53H5c2.92,0,5.26-2.51,4.98-5.49C9.73,44.91,7.4,43,4.78,43H4c-2.48,0-4.43-2.26-3.92-4.82	C0.47,36.29,2.07,35,4,35l0,0c1.301,0,2.332-1.252,1.899-2.634C5.633,31.52,4.776,31,3.89,31H3.5c-2,0-3.6-1.67-3.49-3.69	C0.1,25.42,1.8,24,3.7,24h7.28c0.011,0,0.02-0.009,0.02-0.02v-4.96c0-0.011-0.009-0.02-0.02-0.02H3.5	c-1.577,0-2.805-1.445-2.432-3.091C1.329,14.757,2.448,14,3.63,14H4.5C5.33,14,6,13.33,6,12.5S5.33,11,4.5,11h-1	c-2,0-3.6-1.67-3.49-3.69C0.1,5.42,1.8,4,3.7,4H60c2.34,0,4.21,2.01,3.98,4.39c-0.19,2.05-2,3.56-4.04,3.61H58.5	c-2.485,0-4.5,2.015-4.5,4.5l0,0c0,2.485,0,4.5,0,4.5h6c2.48,0,4.43,2.26,3.92,4.82C63.53,27.71,61.93,29,60,29l0,0	c-1.1,0-2,0.9-2,2l0,0c0,1.1,0.9,2,2,2h0.3C62.2,33,63.9,34.42,63.99,36.31z"/><linearGradient id="OD9qOsFrAhRH5kH1_kXadb" x1="32" x2="32" y1="3.779" y2="81.539" gradientTransform="translate(0 2)" gradientUnits="userSpaceOnUse"><stop offset=".096" stop-color="#5e6d7b"/><stop offset=".505" stop-color="#5c6b79"/><stop offset="1" stop-color="#515c69"/></linearGradient><path fill="url(#OD9qOsFrAhRH5kH1_kXadb)" d="M18,8h28c5.523,0,10,4.477,10,10v28	c0,5.523-4.477,10-10,10H18c-5.523,0-10-4.477-10-10V18C8,12.477,12.477,8,18,8z"/><linearGradient id="OD9qOsFrAhRH5kH1_kXadc" x1="16.502" x2="16.502" y1="-2.541" y2="31.054" gradientTransform="translate(0 2)" gradientUnits="userSpaceOnUse"><stop offset="0" stop-color="#6c7985"/><stop offset=".279" stop-color="#6c7985"/><stop offset=".359" stop-color="#697884"/><stop offset=".728" stop-color="#65727e"/><stop offset="1" stop-color="#5f6975"/></linearGradient><path fill="url(#OD9qOsFrAhRH5kH1_kXadc)" d="M24.99,10.24c0.15,1.5-1.02,2.76-2.49,2.76	h-8c-0.83,0-1.5,0.67-1.5,1.5s0.67,1.5,1.5,1.5s1.5,0.67,1.5,1.5S15.33,19,14.5,19H8v-1c0-5.52,4.48-10,10-10h4.36	C23.67,8,24.86,8.94,24.99,10.24z"/><linearGradient id="OD9qOsFrAhRH5kH1_kXadd" x1="45.998" x2="45.998" y1="18.368" y2="61.47" gradientTransform="translate(0 2)" gradientUnits="userSpaceOnUse"><stop offset=".085" stop-color="#5e6d7b"/><stop offset=".421" stop-color="#5c6b79"/><stop offset="1" stop-color="#515c69"/></linearGradient><path fill="url(#OD9qOsFrAhRH5kH1_kXadd)" d="M56,44v2c0,5.52-4.48,10-10,10h-7.36	c-1.3,0-2.5-0.94-2.63-2.24C35.86,52.26,37.03,51,38.5,51h10c0.83,0,1.5-0.67,1.5-1.5S49.33,48,48.5,48h-0.38	c-1,0-1.93-0.68-2.09-1.66C45.82,45.09,46.79,44,48,44H56z"/><linearGradient id="OD9qOsFrAhRH5kH1_kXade" x1="32.108" x2="32.108" y1="13.033" y2="55.001" gradientUnits="userSpaceOnUse"><stop offset="0" stop-color="#f4a05e"/><stop offset=".413" stop-color="#fe6459"/><stop offset=".83" stop-color="#ffcd49"/><stop offset="1" stop-color="#ffde44"/></linearGradient><path fill="url(#OD9qOsFrAhRH5kH1_kXade)" d="M18.371,15.84	c-0.064-0.02-0.111-0.074-0.122-0.14c-0.011-0.066,0.016-0.133,0.07-0.172c0.282-0.206,0.512-0.398,0.674-0.54	c0.175-0.154,0.398-0.241,0.631-0.248l7.719-0.227c0.077-0.002,0.149,0.039,0.186,0.107s0.032,0.151-0.012,0.215l-1.23,1.758	c-0.181,0.258-0.235,0.584-0.148,0.887l6.028,20.977c0.011,0.039,0.047,0.066,0.087,0.066c0.04,0,0.076-0.026,0.088-0.064	l6.596-21.253c0.042-0.134,0.034-0.279-0.023-0.407c-0.149-0.341-0.473-1.031-0.812-1.435c-0.082-0.097-0.096-0.235-0.035-0.347	c0.166-0.304,0.599-0.578,0.811-0.699c0.076-0.044,0.162-0.065,0.25-0.061l6.703,0.231c0.062,0.002,0.115,0.043,0.133,0.102	c0.018,0.059-0.003,0.123-0.053,0.159l-2.196,1.597c-0.14,0.102-0.244,0.245-0.299,0.409C43.031,17.908,41.438,22.685,41,24	c-0.5,1.5-4.25,12.25-4.25,13c0,0.684-3.945,10.711-4.834,13.808c-0.03,0.105-0.123,0.18-0.232,0.187	c-0.109,0.007-0.211-0.055-0.254-0.155c-1.21-2.787-2.701-9.173-2.93-10.09c-0.25-1-1.25-6-2-7.25S22.25,20.25,21.75,19	C21.291,17.852,19.777,16.282,18.371,15.84z"/></svg>