<svg xmlns="http://www.w3.org/2000/svg" width="50" height="50" viewBox="0 0 48 48"><path fill="#795548" d="M8 8h32v32H8z"/><path fill="#f7931e" d="M40 40H8l16-16L8 8h32L24 24z"/><circle cx="24" cy="24" r="20" fill="#fbc02d"/><circle cx="24.5" cy="24.5" r="17.5" fill="#ffe57f"/><circle cx="23.5" cy="23.5" r="17.5" fill="#795548"/><circle cx="24" cy="24" r="17" fill="#01579b"/><path fill="#0277bd" d="M15.193 37h.749a2.767 2.767 0 0 0 2.767-2.767V22.917H8.5l-.116 6.227 1.311 2.192.145 1.018A5.407 5.407 0 0 0 15.193 37z"/><path fill="#0277bd" d="m30.987 26.737 3.115-11.858 4.302.102s-.264-.411-.402-.612C34.939 9.918 29.813 7 24 7 14.7 7 7.155 14.471 7.013 23.737l23.974 3z"/><path fill="#03a9f4" d="M38.67 15.41c-.2.04-.41.04-.58.06-1.48.15-2.83.3-4.07 1.18-2.27 1.61-2.44 3.51-2.88 6.09-.29 1.65-.74 3.29-1.11 4.93-.27 1.18-.53 3.5-2.25 3.45-.13 0-.25-.03-.36-.07-1.83-.65-1.94-5.6-4.09-4.84-.78.28-.79 2.43-.92 3.21-.22 1.32-.16 2.98-1.51 3.68-.13-.82-.34-1.58-.55-2.34v-.01c-.37-1.38-.78-2.73-.84-4.28-.02-.49-.06-1.14.18-1.64.29-.63 1.07-.82 1.34-1.45.23-.52.12-1.39.29-1.97.38-1.31.46-1.48-.9-1.86.34-.68.82-1.44 1.02-2.19.18-.71.11-.28-.05-.96-.07-.31-.33-.31-.26-.81.07-.44.92-.98.72-1.48-.22-.55-1.59-.38-2.07-.61-.63-.29-.99-1.21-1.73-.92-.4.16-.44.66-.73.89-.39.32-.48.26-.97.39-.65.16-1.92.57-2.57.43-.93-.19-.51-.79-.46-1.62.05-.79-.07-1.15-.38-1.57C15.91 8.54 19.77 7 24 7c1.65 0 3.24.23 4.74.67.06.61.12 1.23.3 1.8-.78.09-3.17-.61-2.64.82.35.92 2.15 1.59 2.98 1.93 1.12.45 1.13.41 1.94-.21.58-.46.22-.47 1.09-.6.36-.06.72-.12 1.08-.11 1.09 0 .9.58 1.83 1.09.36.2.83.22 1.3.23.78.86 1.47 1.79 2.05 2.79z"/><path fill="#263238" d="M36.51 35.51A16.939 16.939 0 0 1 24 41c-1.56 0-3.06-.21-4.49-.6.16-.61 1.4-1.05 1.74-1.39-.42-.86-1.17-.41-1.84-.63-.84-.28-.62-.77-.54-1.65.07-.74.03-1.41 0-2.13-.06-1.37.81-1.97 1.29-3.28.07-.18.13-.37.19-.56v-.01c.72-2.17 1.1-4.55 3.12-5.98 1.44-1.02 2.33.19 2.86 1.64.47 1.28.77 2.91 1.02 4.26.03.15.06.27.07.38.06.26.07.45-.01.78-.13.46-.22.82-.8.92-.01.03 0 .06.01.08-2.16-.18-1.33 3.16 1.06 3.46 1.09.13 1.03-.09 1.54-1.06.48.27.89.87 1.5.84 1.02-.04.8-1.22 1.58-1.48.41-.14.58.17.94.24.37.06.43.27.82.19.34-.06.51-.5.83-.58.71-.2 1.37.38 1.62 1.07z"/><path fill="#f57f17" d="M11.428 13.329h6.832l-.236 2.089c-.023.205-.015.412.026.615l2.518 12.68 3.439-14.252v13.573l-1.073 5.964a1.976 1.976 0 0 0-.009.651l.358 2.388-3.532-1-3.798 1 .992-1.126a2.001 2.001 0 0 0 .447-1.778l-4.393-18.742a1.995 1.995 0 0 0-.491-.914l-1.08-1.148z"/><path fill="#ffca28" d="m20.567 28.712 3.438-14.252v7.573l-3.121 13.058zM11.428 13.329h3.832l.285 1.945 4.343 20.088-.607.674-3.329 1 .992-1.126a2.001 2.001 0 0 0 .447-1.778L12.998 15.39a1.995 1.995 0 0 0-.491-.914l-1.079-1.147z"/><path fill="#ffe57f" d="M11.428 13.329h6.831l-2.624 2.036z"/><path fill="#795548" d="m20.929 34.956 2.352 2.081h-7.329l3.755-2.081z"/><path fill="#ffca28" d="M36.583 13.329h-6.832l.236 2.089c.023.205.015.412-.026.615l-2.518 12.68-3.438-14.253v13.573l1.073 5.964c.039.215.042.435.009.651l-.358 2.388 3.146-1 4.184 1-.992-1.126a2.001 2.001 0 0 1-.447-1.778l4.393-18.742c.08-.343.25-.658.491-.914l1.079-1.147z"/><path fill="#f7931e" d="M27.444 28.712 24.005 14.46v7.573l3.122 13.058zM36.583 13.329h-3.832l-.285 1.945-4.343 20.088.607.674 3.329 1-.992-1.126a2.001 2.001 0 0 1-.447-1.778l4.393-18.742c.08-.343.25-.658.491-.914l1.079-1.147z"/><path fill="#ffe57f" d="M36.583 13.329h-6.832l2.624 2.036z"/><path fill="#795548" d="m27.082 34.956-2.353 2.081h7.33l-3.756-2.081z"/><path fill="#039be5" d="M9.94 31.36c.71 1.49 1.98 2.75 1.71 4.31A16.874 16.874 0 0 1 7 24c0-3.82 1.25-7.33 3.38-10.17.19.23.54.35.95.55.89.43.97.92 1.01 1.84.06 1.09-.41 1.38-.72 2.34-.31.93.01 2.09-.29 3-.43 1.29-1.57.28-2.19.99-.3.35.25 2.19.39 2.62.15.49.56.94.52 1.49-.04.61-.58.98-.76 1.55-.28.94.24 2.3.65 3.15z"/></svg>