<svg xmlns="http://www.w3.org/2000/svg" width="50" height="50" viewBox="0 0 48 48"><path fill="#512da8" d="M24 44C12.972 44 4 35.028 4 24S12.972 4 24 4a19.923 19.923 0 0 1 13.741 5.467 1 1 0 0 1-1.375 1.454A17.924 17.924 0 0 0 24 6C14.075 6 6 14.075 6 24s8.075 18 18 18 18-8.075 18-18a18.05 18.05 0 0 0-.453-4.031 1 1 0 1 1 1.949-.447C43.83 20.98 44 22.487 44 24c0 11.028-8.972 20-20 20z"/><circle cx="38" cy="11" r="3" fill="#512da8"/><path fill="#512da8" d="M25 14h-4l-6 18h4z"/><path fill="#512da8" d="M23 14h4l6 18h-4zM26 29h-7v-4h6z"/></svg>