<svg xmlns="http://www.w3.org/2000/svg" width="50" height="50" viewBox="0 0 48 48"><path fill="#757575" d="M14.5 43.1c-1 0-1.7-.3-2.2-.7-1.4-1-2.3-2.8-2.3-5-.1-4.7 2.4-11.5 6.7-18.1C22.1 11 29 5.2 33.5 5c1 0 1.9.2 2.6.6 1.9 1.2 2.9 4.1.8 7.9-.3.5-.9.7-1.4.4-.5-.3-.7-.9-.4-1.4 1.3-2.3 1.2-4.4-.2-5.2-.3-.2-.7-.3-1.3-.3-3.3.1-9.6 4.8-15.2 13.4-4.1 6.2-6.5 12.6-6.4 16.9 0 1.6.5 2.8 1.4 3.4l.1.1c.4.4 2.2.5 4.8-1.6.4-.4 1.1-.3 1.4.1.4.4.3 1.1-.1 1.4-2.1 1.8-3.8 2.4-5.1 2.4z"/><path fill="#757575" d="M40 31c-.4 0-.8-.2-.9-.6-.2-.5.1-1.1.6-1.3 2.5-1 4.3-2.6 4.3-4 .2-2.9-7.2-6.3-19.8-7C23 18 22 18 21 18c-9.9 0-16.9 2.1-17 5.1-.1 1.2 2 3.1 4.4 4 .5.2.8.8.6 1.3-.2.5-.8.8-1.3.6-2.9-1.1-5.8-3.5-5.6-6 .1-4.4 7.2-7 18.9-7 1 0 2.1 0 3.3.1 11 .6 22 3.6 21.7 9.1-.1 2.3-2.3 4.5-5.6 5.8H40z"/><path fill="#757575" d="M32.1 44c-.6 0-1.3-.1-2-.4-4.5-1.5-10.1-7.9-13.8-15.7-2.5-5.2-4.2-11.9-4.3-17.2-.1-3.3.7-5.4 2.4-6.3.5-.2 1-.4 1.5-.4 1.6-.1 3.5.9 5.8 3.3.4.4.4 1 0 1.4-.4.4-1 .4-1.4 0C17.9 6.3 16.6 6 16.1 6c-.3 0-.5.1-.8.2-.9.5-1.4 2-1.3 4.5.1 4.1 1.3 10.8 4 16.4 4.1 8.5 9.4 13.6 12.7 14.7.9.3 1.7.3 2.3.1 1.9-1.7 1.2-9.8-2.9-19.4-.2-.5 0-1.1.5-1.3.5-.2 1.1 0 1.3.5 3.8 8.8 5.8 19.2 2.2 21.9H34c-.6.3-1.2.4-1.9.4z"/><path fill="#757575" d="M27 24c0 1.7-1.3 3-3 3s-3-1.3-3-3 1.3-3 3-3 3 1.3 3 3z"/></svg>