<svg xmlns="http://www.w3.org/2000/svg" width="50" height="50" viewBox="0 0 48 48"><path fill="#2196F3" d="M36 32.7 35 39c0 2.2-5.1 4-11 4s-11-1.8-11-4l-1-6.3c-.1-.4.3-.8.8-.6C15.8 33.4 20 34 24 34s8.2-.6 11.2-1.9c.4-.2.9.2.8.6zM41 10c0 .2 0 .3-.1.5L38 27c0 2.8-6.2 5-13.9 5S10 29.8 10 27L7.1 10.5c-.1-.2-.1-.3-.1-.5 0-2.8 7.6-5 17-5s17 2.2 17 5zM29 23c0-2.8-2.2-5-5-5s-5 2.2-5 5 2.2 5 5 5 5-2.2 5-5zm6.8-13c0-1.7-5.3-3-11.8-3s-11.8 1.3-11.8 3 5.3 3 11.8 3 11.8-1.3 11.8-3zM24 25c1.1 0 2-.9 2-2s-.9-2-2-2-2 .9-2 2 .9 2 2 2z"/></svg>