<svg id="Layer_1" data-name="Layer 1" xmlns="http://www.w3.org/2000/svg" xmlns:xlink="http://www.w3.org/1999/xlink" viewBox="0 0 298.33 206.12"><defs><style>.cls-1{fill:url(#linear-gradient);}.cls-2{opacity:0.15;}</style><linearGradient id="linear-gradient" x1="204.44" y1="77.78" x2="28.3" y2="196.39" gradientUnits="userSpaceOnUse"><stop offset="0" stop-color="#ec008c"/><stop offset="1" stop-color="#2b328c"/></linearGradient></defs><title>Code Crow-2</title><path class="cls-1" d="M138,25.35c-60.17,3-72.22,41-74.61,54.63a1.08,1.08,0,0,0,2,.78c7.06-10.86,16.22-14.46,27-13L108.11,102a13,13,0,0,0-7.58,11.79c0,.21,0,.4.06.61l-42.71,6.48a6.64,6.64,0,0,0-5.15-4.21L48.81,60.17A6.94,6.94,0,0,0,53,50.38L93.37,17l.24.12a7.4,7.4,0,0,0,4.68.83c23.13-3.69,35-.46,40.78,2.77A2.5,2.5,0,0,1,138,25.35Zm32.14,91.47c-28-23.12-53.59-43.69-73.94-48.38l15,32.54a12.88,12.88,0,0,1,15.36,12.65l43.24,4A.45.45,0,0,0,170.1,116.82ZM18.54,71.25a2.28,2.28,0,0,0-.74,3.29l30.27,43.05,1.48-.53L45.62,60.4a6.92,6.92,0,0,1-4-2.16ZM46.37,46.51l5.79-32.2c-17.89,8-31.19,28-35.45,51.87a1.31,1.31,0,0,0,1.92,1.35L40,55.45a6.9,6.9,0,0,1,6.34-8.94Zm212.37,134c-27.34-13.45-55.05-35.95-81-57.36a.44.44,0,0,0-.7.48l12.21,37,.14,0a8.93,8.93,0,0,1,8.93,8.93c0,.14,0,.26,0,.4l59.93,12A.75.75,0,0,0,258.74,180.53ZM51,47.92,90.25,15.4C77.88,9.63,66.09,9.28,55.67,12.9L49.53,47.05A7.26,7.26,0,0,1,51,47.92ZM185.91,177.77,174,190.86c28.38,5.1,64,6.8,108.06,1.33a1.13,1.13,0,0,0,.09-2.22L197.63,173.1a8.91,8.91,0,0,1-11.72,4.67ZM69.69,171.15,51.6,129.86A6.67,6.67,0,0,1,45,123.2a6.58,6.58,0,0,1,.86-3.21L17.08,79.08a1,1,0,0,0-1.77.51C14.27,111.63,29.31,147.7,69.69,171.15Zm68.54,22.24c.4,0,.12-.76-.26-.91-5.25-2-42.36-17.17-58.25-45.76a85.83,85.83,0,0,0,20.68,16.89l8.69-37.67a13,13,0,0,1-7.94-8.42L58.24,124a6.6,6.6,0,0,1-3.49,5l19.56,44.65C77.17,175.24,102.28,195.57,138.23,193.39Zm-35-28c13.86,8.47,34.37,17.9,62.87,23.94l-46.34-64.19a12.89,12.89,0,0,1-6.23,1.65,12,12,0,0,1-1.33-.14Zm19.14-42.11L170.52,190l12.7-14a8.9,8.9,0,0,1,2.91-14.68l-12.7-38.46a2.75,2.75,0,0,0-2.36-1.88l-44.91-4.15A12.93,12.93,0,0,1,122.38,123.26Z"/><g class="cls-2"><path d="M111.18,101l-1.74-27.59a66.4,66.4,0,0,0-13.28-5Z"/><path d="M48.07,117.59h0L24.53,67.87l-6,3.38a2.28,2.28,0,0,0-.74,3.29Z"/><path d="M55.67,12.9,49.53,47.05c.12.06.22.15.34.21L66,10.86A42.76,42.76,0,0,0,55.67,12.9Z"/><path d="M53,50.38c.14.29.12.64.23.94l60.32-35a125.82,125.82,0,0,0-15.27,1.57,7.4,7.4,0,0,1-4.68-.83L93.37,17Z"/><path d="M101.15,117.52,58.24,124a6.6,6.6,0,0,1-3.49,5L58.22,137l43.18-18.89C101.33,117.89,101.21,117.72,101.15,117.52Z"/><path d="M57.88,120.85l10-1.52L48.81,60.17l3.92,56.47A6.64,6.64,0,0,1,57.88,120.85Z"/><path d="M16.71,66.18a1.31,1.31,0,0,0,1.92,1.35L40,55.45c-.05-.18-.05-.38-.09-.57L19.19,56.05A89.69,89.69,0,0,0,16.71,66.18Z"/><path d="M189.43,160.64c.18,0,.33.09.51.1l3.81-24.51c-5.38-4.35-10.72-8.72-16-13.06a.44.44,0,0,0-.7.48l12.21,37Z"/><polygon points="178.54 181.12 122.38 123.26 170.52 189.95 178.54 181.12"/><path d="M47.7,154.72,15.42,79.46c0,.06-.1.06-.11.13C14.49,104.88,23.93,132.6,47.7,154.72Z"/><path d="M197.63,173.1a8.91,8.91,0,0,1-11.72,4.67l-.83.9,70,5.9Z"/><path d="M112.21,126.63l-9,38.74c3.11,1.9,6.6,3.85,10.39,5.8l-1.16-44.51Z"/><path d="M81.73,150.07c5,8,19.06,28.65,39,42.65a88.76,88.76,0,0,0,17.52.67h0a.69.69,0,0,0,0-.72.76.76,0,0,0-.25-.19h0c-.66-.25-1.81-.71-3.36-1.38-1.16-.49-2.54-1.11-4.1-1.84s-3.3-1.57-5.18-2.53l-2.61-1.38c-1.09-.59-2.21-1.2-3.36-1.86l-2.13-1.23C105.23,175.17,90.87,164.45,81.73,150.07Z"/><polygon points="79.72 146.72 79.72 146.72 79.72 146.72 79.72 146.72"/><path d="M79.73,146.74c0,.06.37.65,1,1.7C80.39,147.88,80.05,147.32,79.73,146.74Z"/></g></svg>