<svg xmlns="http://www.w3.org/2000/svg" width="50" height="50" viewBox="0 0 48 48"><path fill="#F57C00" d="M40.4 41H7.6C6.2 41 5 39.8 5 38.4V9.6C5 8.2 6.2 7 7.6 7h32.8C41.8 7 43 8.2 43 9.6v28.8c0 1.4-1.2 2.6-2.6 2.6z"/><path fill="#FF9800" d="M40.4 7H7.6C6.2 7 5 8.2 5 9.6V20s7.4 4 19 4 19-4 19-4V9.6C43 8.2 41.8 7 40.4 7z"/><path fill="#FFF" d="m40.9 28.5-10.2 2.3s.1 5.7-5.6 5.7c-3.4 0-4.8-2.8-6-8.2-1-4.4-1.8-9.1-1.8-11.3 0-3.4 3.4-4.8 5.3-4.8 3.4 0 4.9 3.4 4.9 3.4l10.2-2.2s-1.4-4-4-6.3H11.9C10 8.6 7 12.1 7 17.8c0 1.8.1 3.2.4 4.5.5 3.2 2 9.9 2.4 11.4.1.4 1.2 4.4 3.7 7.3H7.6c-.2 0-.3 0-.5-.1.2.1.3.1.5.1h29c1-1.1 4.2-5 4.2-10 .1-1.5.1-2.5.1-2.5z"/><path fill="#EEE" d="M30.7 30.8s.1 5.7-5.6 5.7c-3.4 0-4.8-2.8-6-8.2-.4-1.5-.7-3.1-.9-4.6-5-.6-8.7-1.8-11-2.7.1.5.1.9.2 1.4.5 3.2 2 9.9 2.4 11.4.1.4 1.2 4.4 3.7 7.3H7.6c-.2 0-.3 0-.5-.1h29.5c1-1.1 4.2-5 4.2-10v-2.5l-10.1 2.3z"/></svg>