<svg xmlns="http://www.w3.org/2000/svg" width="50" height="50" viewBox="0 0 48 48"><path fill="#039BE5" d="M24 46C13.5 46 5 37.6 5 27.4c0-8.1 5.3-15.3 13.2-17.7 1.7-.6 3-4.3 3.3-5.4L22 2l1.3 1.9c1.1 1.7 3.2 5 4.6 5.2C36.6 10.9 43 18.6 43 27.4 43 37.6 34.5 46 24 46z"/><path fill="#FFF" d="M29.5 35.2c.6 0 1.3 0 1.8.3s.8 1 .9 1.4c.2.4 0 .6-.3.8-.3.2-.3.1-.6-.4s-.5-1-1.9-1-1.8.5-2.5 1-.9.7-1.1.4c-.2-.3-.2-.6.3-1 .4-.4 1.1-1 1.8-1.3.6-.3 1-.2 1.6-.2zm-6.6 4.4c.8.6 2 1.1 4.5 1.1s4.3-.7 5.1-1.3c.4-.3.5 0 .6.1 0 .2.1.4-.2.7-.2.2-2 1.4-4.2 1.6-2.1.2-5 .3-6.8-1.2-.3-.3-.2-.7 0-.8.2-.2.4-.3.6-.3s.3 0 .4.1zm-8.9-8c0-2.9 2.9-5.6 6.6-5.6 4.6 0 7.9 4.3 10.2 4.2 2 0 5.8-3.7 7.7-3.7 2 0 2.5 1.9 2.5 3.1 0 1.1-.4 3.2-1.4 4.5-1 1.3-1.5 1.8-2.7 1.7-1.4-.1-4.3-4.2-6.1-4.3-2.3-.1-7.3 4.5-11.2 4.5-2.4 0-3.1-.3-3.9-.8-1.1-.8-1.7-2-1.7-3.6z"/></svg>