<svg xmlns="http://www.w3.org/2000/svg" width="50" height="50" viewBox="0 0 48 48"><path fill="#455A64" d="M6 10c0-2.2 1.8-4 4-4h28c2.2 0 4 1.8 4 4v28c0 2.2-1.8 4-4 4H10c-2.2 0-4-1.8-4-4V10z"/><path fill="#FFF" d="M36 37h-9v-2l1.5-.4c.3-.1.5-.3.5-.6v-8.6c0-.3-.2-.5-.5-.6l-1.5-.5 1-2.3h6v12.3c0 .3.2.5.5.6l1.5.1v2zm-13 0H12v-2l2-.3V25h-2v-3h2v-3s.2-5 6.5-5c6 0 5.5 4 5.5 4l-4 1v-1s-.3-1-1.5-1C19 17 19 18.3 19 18.3V22h5l-1 3h-4v9.6l4 .4v2zm8-19.3L28.6 19l-.6-.6.7-2.6L27 14l.3-.8h2.2l1.2-2.2h.7l1.2 2.2h2.1l.3.7-1.7 1.9.7 2.6-.6.6-2.4-1.3z"/></svg>