<svg xmlns="http://www.w3.org/2000/svg" width="50" height="50" viewBox="0 0 48 48"><path fill="#ffcc80" d="m35.547 42.431-3.182-3.182-2.121 2.121 3.182 3.182a1.5 1.5 0 1 0 2.121-2.121zm3-18-3.182-3.182-2.121 2.121 3.182 3.182a1.5 1.5 0 1 0 2.121-2.121zm-25.864 18 3.182-3.182 2.121 2.121-3.182 3.182a1.5 1.5 0 1 1-2.121-2.121zm-3.25-18 3.182-3.182 2.121 2.121-3.182 3.182a1.5 1.5 0 1 1-2.121-2.121z"/><path fill="#4dd0e1" d="M38 8c0-1.933-1.149-3-3.231-3S31 7.567 31 9.5c0 1 1.923 1.5 3 1.5 2.082 0 4-1.067 4-3zM10 8c0-1.933 1.149-3 3.231-3S17 7.567 17 9.5c0 1-1.923 1.5-3 1.5-2.082 0-4-1.067-4-3z"/><path fill="#424242" d="M35 7a1 1 0 1 0 0 2 1 1 0 1 0 0-2zM13 7a1 1 0 1 0 0 2 1 1 0 1 0 0-2z"/><path fill="#4dd0e1" d="M37 34c0 4.774-3.219 10-13.31 10C15.568 44 11 38.774 11 34c0-5 1-5.806 1-10V14c0-4.774 3.076-11 11.69-11S36 6.991 36 13c0 3-.237 5.453 0 10 .186 3.562 1 8 1 11z"/><path fill="#f5f5f5" d="M29 6a4 4 0 1 0 0 8 4 4 0 1 0 0-8zM19 6a4 4 0 1 0 0 8 4 4 0 1 0 0-8z"/><path fill="#eee" d="M24 20a1 1 0 0 0 2 0v-3h-2v3zm-2 0a1 1 0 0 0 2 0v-3h-2v3z"/><path fill="#ffcc80" d="M26.5 18c-.412 0-.653-.085-1.011-.205a4.684 4.684 0 0 0-2.996.002c-.355.119-.583.203-.993.203-1.334 0-1.5-1-1.5-1.5 0-1.5 1.5-2.5 3-2.5h2c1.5 0 3 1 3 2.5 0 .5-.166 1.5-1.5 1.5z"/><path fill="#424242" d="M27 9a1 1 0 1 0 0 2 1 1 0 1 0 0-2zM17 9a1 1 0 1 0 0 2 1 1 0 1 0 0-2zm7 4a2 1 0 1 0 0 2 2 1 0 1 0 0-2z"/></svg>