<svg xmlns="http://www.w3.org/2000/svg" width="50" height="50" viewBox="0 0 48 48"><path fill="#2196F3" d="M44.2 22.7 34.7 7.2c-.4-.7-1.3-1.2-2.2-1.2H15.4c-.9 0-1.7.5-2.2 1.2L3.8 22.7c-.5.8-.5 1.9 0 2.7l9.4 15.4c.5.8 1.3 1.2 2.2 1.2h17.1c.9 0 1.7-.5 2.2-1.2l9.5-15.4c.5-.9.5-1.9 0-2.7z"/><path fill="#1976D2" d="m29 15-2 2-2-2-2 2-2-2-2 4-4 2 2 2-2 2 2 2-2 2 13 13h4.5c.9 0 1.7-.5 2.2-1.2l7.6-12.4L29 15z"/><path fill="#FFF" d="M22 22h4v4h-4z"/><path fill="#FFF" d="M33 21v-2h-3v-1h-1v-3h-2v3h-2v-3h-2v3h-2v-3h-2v3h-1v1h-3v2h3v2h-3v2h3v2h-3v2h3v1h1v3h2v-3h2v3h2v-3h2v3h2v-3h1v-1h3v-2h-3v-2h3v-2h-3v-2h3zm-13 7v-8h8v8h-8z"/></svg>