<svg xmlns="http://www.w3.org/2000/svg" width="50" height="50" viewBox="0 0 48 48"><path fill="#ff0" fill-rule="evenodd" d="m17.071 14.306-3.06.496-2.792 1.222-2.371 1.489-2.257 2.749-1.274 1.348-1.233.454-.326-.795.57-.821.128-1.158.382.015.417.38-.113-1.18-.462-.31.014-.45-1.095.619-.992 1.168-.207 1.044.424.836.396 1.421.805.38.846-.041.803-.466-.535 2.711.535 3.016-.589 1.393-1.93 2.076.343 1.24.914 1.437 1.724 1.211.915.125 1.017.034-.634 2.6 2.333.954 2.907.382.994-.649.077-1.756 1.109-1.833.076-1.451 2.677.191 2.486-.229-2.486 1.489.421 1.794 1.568 2.443 1.53.649 1.224-.496.497-.993 2.562-1.947.497.42 4.016.153.803-.649.076-1.145-.268-.496-.191-3.092-1.339-2.672.229-1.184.803.42 2.257 2.1 1.109.076 1.224-.496 1.224-.916.612-1.985 3.595.229 2.18-.84 1.759-1.642 1.262-2.367.306-2.787-.268-3.245-.688-2.901-.688-.916-.956-.305-1.683 1.833-1.53.534-1.339-2.214-1.339-1.222-.727-.458-2.907-2.405-2.333-1.26-2.333-.191-2.715.458-2.371.878-1.645 1.336-1.3 1.565-1.339.382-2.331 2.213z" clip-rule="evenodd"/><path fill="#fffdbb" fill-rule="evenodd" d="M8.198 21.197c-2.621 3.051-2.039 6.752-1.312 10.378l-1.163-2.933-.428-2.689.122-2.75 1.102-2.627 1.653-2.444 2.571-2.139 2.816-1.161 3.305-.428-3.061 3.483c-2.458.796-3.908 1.332-5.605 3.31" clip-rule="evenodd"/><path fill="#fffdbb" fill-rule="evenodd" d="M20.535 11.9c-1.822 1.774-2.817 3.113-3.977 5.19-.829 1.486-1.76 2.918-2.632 4.383-.441.742-.483 1.364-.615 2.219l-1.285-1.528.612-1.833 2.081-3.727 4.407-4.338 1.409-.366m8.999-4.4c-1.459.546-3.883.726-4.051 2.398-.12 1.187.09 1.784.807 3.04-1.771-1.829-2.209-1.546-5.631-.978l1.469-2.078 2.571-1.589 3.305-.733 1.53-.06" clip-rule="evenodd"/><path fill="#cc0" fill-rule="evenodd" d="M33.56 30.116c.486.299.475.516.394.721l1.15-.459.745-.998.553-1.422-.706-.53-3.088.393-.23.623.066.885.296.525.46.23.36.032" clip-rule="evenodd"/><path fill="#c0ca33" fill-rule="evenodd" d="M33.273 24.845c-1.548.446-1.536.569-1.993 2.102.604-.967 1.05-1.455 1.993-2.102m10.291-11.47c-.275.127-.543.188-.715.439-.37.541-.688.996-1.3 1.375a4.069 4.069 0 0 1-.954.417c-.271.084-.434.009-.665.175l.411.072h.906l1.117-.689.657-.689.543-1.1M18.91 16.804c-.609 1.663-1.141 3.089-2.063 4.595 1.182-1.271 1.898-2.352 2.575-3.789.263-.558.313-1.213 1.045-.97.033.557.151 1.115.184 1.672.396-2.832 1.512-4.016 4.106-5.115l-2.201.262-2.069.459-1.018 1.476-.559 1.41m5.026-.066c.559 2.628 1.365 5.151 1.715 7.821.227 1.735.252 2.569-.622 4.065-.956-.062-1.549.046-2.474.348-3.68 1.204-5.791 2.975-8.271-.593l2.375 1.117 1.693-.332 2.989-1.738 2.332-.459.756-3.148-.558-4.164-.066-1.967.131-.95m6.34 16.263c-.309 2.135.712 3.283.289 3.873-.12.167-.282.458-.463.538-.647.285-1.536-.053-1.6.114h-2.135l-.854-.361 1.314-1.541 1.281-2.787.821-2.82h.427l.92 2.984" clip-rule="evenodd"/><path fill="#c0ca33" fill-rule="evenodd" d="M26.687 26.793c.173.97.475 1.2.932 2.139-.304 1.531-.793 3.352-1.381 4.703-.248.57-.448.884-.885 1.324a22.779 22.779 0 0 1-2.321 2.037c-.602.464-1.023.231-1.766.126-.316.572-.403.89-.985 1.18-.895.447-1.696-.516-2.398-1.082l1.521 2.372 1.051.984.887.131 1.182-.721.624-1.18 1.314-.984 1.61-1.377 1.018-1.443.92-1.705 1.183-3.541.098-1.344-1.478-.656c-.362-.34-.765-.624-1.126-.963m-11.784 6.831c1.658 0 3.409-.092 4.927-.787a13.5 13.5 0 0 1 1.38-1.738c-.479.902-.629 1.412-.756 2.426l-.493.721-3.745.098-1.215-.131-.131-.131.033-.458m-.23-1.147-.129-1.164c-.283 1.702-.215 2.842-1 4.367-.586.678-1.308 1.295-2.134 1.625.07.418.091.679.05.986-.146 1.102-2.355.615-3.263.571l4.374 1.124.985-.393.328-1.902.92-1.705.164-1.049-.295-2.46m-2.464-9.607c-.046.827-.099 1.173.266 1.903.465.929 1.036 1.802 1.541 2.72l.164-1.836-1.971-2.787m-6.743 6.251-.427.906c.391 1.316.739 2.149 1.484 3.299-.13.466-.227.67-.526 1.049a11.75 11.75 0 0 0-1.903-.128l2.201 1.705 1.084-.197 1.084-1.082-1.544-2.394-1.453-3.158M43.569 12.94c.447 2.007 1.023 3.858.969 5.913-.066 2.521-.558 5.706-2.898 7.226-2.621 1.703-5.697.897-8.573.168l3.515 1.443 3.285.164 2.234-.656 1.741-1.443 1.314-2.754.493-3.181-.394-3.115-.723-3.082-.963-.683M4.458 18.92c-1.19.773-1.657 1.112-1.527 2.545l.356 1.287.504.34.623.207 1.127-.266.578-1.79-1.601.784h-.371l-.415-.636.504-.74.267-1.406.341.103.415.326-.059-.74-.282-.473-.282-.237-.178.696M31.151 7.631c1.056.979 2.352 1.83 3.196 3.026.327.463.69.7-.006 1.354.735-.21 1.008-.187 1.596-.116 1.07.129 2.073 1.648 2.137 2.736-.013.102-.297.333-1.125.561-.016.032-.467-.062-.456-.031.086.235.201.271.376.381.038.261.063.664.241.95a7.222 7.222 0 0 1 1.539.148c.172.284.146.568.131.852l.591-.098-.164-1.344.526-.885-.756-1.705-1.445-1.377-.139-.007-1.625-.996-2.651-2.165-1.966-1.284m1.779 8.079c-.056.097-.14.253-.248.36.44.415.657.693.814 1.281l-1.492.739-1.262 1.208c-.554-.298-.692-.526-.96-1.093-.312.082-.608.162-.865.067.163.001.264-.04.427-.14l.803-.833 1.419-1.072.928-.302c.119-.049.318-.166.436-.215" clip-rule="evenodd"/><path fill="#c0ca33" fill-rule="evenodd" d="M34.302 17.191c-1.582.85-3.097 1.705-3.906 3.32.001-2.05 2.062-2.952 3.906-3.32m-4.219-4.032c-1.175.799-2.005 2.413-1.901 3.985-.383-1.361-.247-2.648.928-3.588l.595-.289.378-.108" clip-rule="evenodd"/><path fill="#424242" d="m21.397 13.389-.097.009c-.643.06-.796.074-1.307.578-.811.801-1.57 3.507-1.794 4.482a.1.1 0 0 0 .097.122.1.1 0 0 0 .091-.06l.193-.456c.429-1.02 1.227-2.919 1.832-3.436.05-.043.096-.081.138-.115-.316.625-.265.95-.108 1.954a.099.099 0 0 0 .098.084h.001a.098.098 0 0 0 .097-.086c.141-1.073.493-1.532 1.078-2.294l.122-.159a17.997 17.997 0 0 0 2.166-.697.1.1 0 0 0 .061-.117c-.012-.049-.058-.078-.108-.075-.844.096-1.706.186-2.56.266zm8.922-.316a.098.098 0 0 0-.118-.063c-1.978.495-2.626 1.305-2.309 2.89a.1.1 0 0 0 .096.08h.001a.099.099 0 0 0 .097-.078c.204-.901.557-1.928 2.182-2.706a.099.099 0 0 0 .051-.123zm3.973 4.019a4.09 4.09 0 0 0-1.174.188 1.512 1.512 0 0 0-.783-1.056 3.76 3.76 0 0 0 .685-.466.1.1 0 0 0 .016-.129.097.097 0 0 0-.125-.035c-.297.137-.623.2-.939.26-.4.076-.813.155-1.156.387-.304.205-.665.649-1.014 1.079-.264.325-.537.661-.764.863a.1.1 0 0 0-.019.126.102.102 0 0 0 .121.041c.295-.114.606-.298.969-.575a1.507 1.507 0 0 0 .702 1.081c-.173.244-.31.504-.409.776a.1.1 0 0 0 .044.12.1.1 0 0 0 .126-.021c.958-1.133 2.375-2.047 3.79-2.443a.1.1 0 0 0-.025-.195l-.045-.001z"/><path fill="#424242" d="M44.715 13.354c-.225-.43-.917-.868-1.512-.957-.371-.058-.681.026-.89.237-.209.211-.387.472-.561.725-.204.297-.415.604-.668.82-.308.263-.679.411-1.038.554l-.081.033c-.278-.715-.67-1.346-1.297-2.092-.453-.537-.873-.8-1.455-1.164-.789-.493-1.446-1.068-2.141-1.676-.297-.26-.604-.529-.922-.791-2.497-2.056-5.022-2.919-9.881-.879-1.891.795-2.793 1.857-3.938 3.383-.687.041-1.181.19-1.918.839-.506.446-1.003.923-1.518 1.458-3.638.58-5.935 1.274-8.374 3.433a9.89 9.89 0 0 0-2.267 2.929l-.042.047c-.485.535-.986 1.087-1.631 1.336-.176.068-.315.119-.354.102-.032-.014-.07-.108-.123-.247.495-.419.539-1.106.58-1.771l.007-.106c.158.055.265.221.387.409.057.088.116.179.183.263a.1.1 0 0 0 .175-.04c.134-.597.249-1.638-.427-2.064l.102-.261c.073-.187.149-.378.22-.579a.1.1 0 0 0-.111-.131c-.703.122-2.717 1.339-3.14 2.719-.192.627-.037 1.193.461 1.683.125.507.219.826.375 1.15.432.895 1.358 1.051 2.143.81-.2 1.01-.229 2.096-.101 3.586.031.363.084.742.157 1.125l-.548 1.49-1.387 1.368c-.059.059-.113.11-.161.156-.398.383-.478.487-.368 1.147.157.932.612 1.797 1.317 2.503.691.692 2.272 1.836 3.527 1.459a8.014 8.014 0 0 1-.382 1.016c-.224.491-.253.917-.087 1.268.338.71 1.391.983 2.32 1.225l.322.085.127.034c.979.266 2.802.762 3.74.224a1.1 1.1 0 0 0 .533-.692c.178-.66.211-1.022.148-1.662.295-.653.415-.829.63-1.144l.102-.149c.416-.616.386-.864.297-1.609a14.785 14.785 0 0 0-.042-.326c1.097.154 2.196.178 3.342.07-.233.126-.481.253-.766.399l-.127.065a1.05 1.05 0 0 0-.566.678c-.217.814.418 1.938.994 2.826.83 1.274 1.641 2.332 2.835 2.332.402 0 .848-.12 1.352-.392.495-.268.659-.554.866-.916.07-.122.149-.26.248-.409.187-.115.733-.565 1.311-1.041.228-.188.454-.375.649-.533.294.275.792.331 1.496.382.253.018.985.02 1.57.02h.428l.347.001c1.092 0 1.865-.136 1.961-1.479.045-.619.013-.771-.28-1.294l-.053-1.973c-.02-.761-.167-1.234-.466-1.947-.102-.241-.186-.468-.269-.691-.135-.363-.262-.707-.451-1.083.03-.172.055-.348.075-.524l1.047 1.006c.724.696 1.354 1.302 2.465 1.302l.15-.003c1.29-.061 2.676-1.084 3.026-2.233l.327-1.075c2.071.374 4.07.155 5.496-.604 2.099-1.119 3.425-3.406 3.734-6.442.221-2.173-.221-5.792-1.229-7.718zM4.793 18.786l.005-.019a.634.634 0 0 1 .138.309.46.46 0 0 0-.189-.071c.012-.08.028-.152.046-.219zm35.838-3.451c.289-.102.588-.207.837-.404.309-.243.562-.568.808-.882.181-.232.368-.472.572-.669a.434.434 0 0 1 .413-.116.828.828 0 0 1 .198.071c-.506.994-1.264 1.761-2.197 2.221-.445.22-.75.187-1.211.136l-.117-.013c.158-.154.407-.242.697-.344zM3.494 22.458c-.164-.341-.259-.683-.382-1.126a.089.089 0 0 0-.024-.042c-.273-.283-.387-.608-.34-.966.104-.793.931-1.561 1.528-1.984a3.626 3.626 0 0 0-.159.432c-.101.347-.116.674-.13.991-.026.575-.05 1.071-.593 1.505a.1.1 0 0 0-.027.122c.054.109.101.21.144.302.311.668.462.884 1.345.53.245-.098.475-.226.696-.388-.083.228-.162.464-.239.706-.015.045-.028.09-.042.136-.542.221-1.45.464-1.777-.218zm4.055 12.745a.677.677 0 0 1-.528.279l-.067.002c-.777 0-1.883-.859-2.281-1.264-.558-.569-.927-1.246-1.013-1.856-.053-.38-.033-.4.217-.649l1.41-1.424a.099.099 0 0 0 .022-.035l.187-.499c.621 1.997 1.589 3.696 2.315 4.796-.056.23-.123.467-.262.65zm22.409-1.824.06 2.114a.1.1 0 0 0 .013.047c.219.384.246.449.209.871-.076.854-.327.898-1.098.876l-.401-.005c-.566-.006-1.515-.016-1.797-.04-.382-.033-.645-.066-.81-.129.856-.752 2.151-3.077 2.416-3.913.118-.371.241-.722.361-1.065.137-.393.268-.77.386-1.153.072.244.148.495.259.759.269.635.384 1.004.402 1.638zm15.115-12.346c-.216 1.997-1.181 4.54-3.242 5.687-2.429 1.354-5.23.593-7.891-.302-.45-.152-.782-.363-1.167-.608l-.184-.117a.098.098 0 0 0-.11.003.099.099 0 0 0-.04.103c.153.686.158 1.227.018 1.702-.198.667-.497 1.674-.13 2.297.15.254.397.422.735.496.499.111.731.089 1.414-.262a.1.1 0 0 0 .048-.122.1.1 0 0 0-.115-.063c-.529.119-.783.087-1.137.023a.646.646 0 0 1-.392-.219c.103.031.227.061.379.097.931.222 1.883-.199 2.079-.925.033-.124.054-.229.074-.332.036-.186.071-.362.181-.642.13.039.265.076.402.11l-.31 1.007c-.271.882-1.352 1.644-2.325 1.644h-.032c-.839-.015-1.397-.513-1.988-1.04l-.124-.11c-.445-.395-.873-.774-1.299-1.149a.094.094 0 0 0-.035-.02c-1.271-.401-2.154-.844-3.15-1.58-.041-.031-.098-.025-.132.012s-.035.094-.003.133c.784.919 1.314 1.412 2.334 1.849-.119 1.108-.436 2.02-.771 2.984-.132.379-.268.772-.399 1.191-.214.69-1.892 3.408-2.32 3.655-.169.097-.742.558-1.349 1.045-.623.5-1.268 1.017-1.463 1.133a.09.09 0 0 0-.029.026 7.398 7.398 0 0 0-.226.326c-.209.315-.425.64-.729.8-1.261.665-2.073-.62-2.789-1.754-.585-.929-.828-1.601-.722-1.998a.458.458 0 0 1 .24-.301c.698-.369 1.103-.635 1.776-1.076l.083-.054c.056.085.121.168.183.249.069.089.14.18.195.27a.1.1 0 0 0 .118.042.101.101 0 0 0 .066-.106l-.084-.671a5.189 5.189 0 0 1-.016-1.122l.093-1.185a.1.1 0 0 0-.082-.106.097.097 0 0 0-.113.071 5.107 5.107 0 0 1-.226.591c-.086.2-.175.407-.241.636-.035.122-.067.231-.088.331a13.358 13.358 0 0 1-4.974.065 30.236 30.236 0 0 0-.345-1.709c-.011-.048-.057-.086-.105-.076a.1.1 0 0 0-.091.093c-.024.379-.02 1.231-.017 1.982.001.312.003.607.002.848-.002.646-.032.834-.344 1.347a9.69 9.69 0 0 1-.24.377c-.169.259-.329.504-.634 1.11a.092.092 0 0 0-.01.051c.037.565.031.899-.105 1.38-.08.282-.598.652-3.172-.051l-.212-.056c-.589-.153-1.479-.386-1.718-.854-.081-.159-.082-.334-.003-.536.357-.914.587-1.87.768-3.198a.101.101 0 0 0-.017-.07c-1.661-2.388-2.788-5.142-3.016-7.368-.191-1.869-.096-3.075.338-4.3.737-2.079 1.716-3.605 3.082-4.802 1.859-1.628 3.6-2.395 6.569-2.875-.505.57-1.007 1.163-1.536 1.786l-.471.554c-.802.943-1.284 1.919-1.751 2.863-.708 1.434-.664 2.007.247 3.228l.29.386c.583.771.938 1.24 1.226 2.09-.279.587-.379 1.089-.47 1.855a.103.103 0 0 0 .025.079c.977 1.066 1.688 1.781 2.646 2.008.987.234 1.751.16 2.554-.25.369-.188.737-.39 1.094-.586 1.433-.787 2.787-1.53 4.389-1.569a.1.1 0 0 0 .09-.062c.957-2.349.853-4.319.401-6.554-.297-1.473-.426-2.876-.528-4.529a.1.1 0 0 0-.09-.093.095.095 0 0 0-.105.076c-.396 1.662-.449 3.1-.172 4.663.33 1.858.604 3.978-.307 5.646-1.451.126-2.757.852-4.02 1.555-.345.192-.702.39-1.056.574-.617.32-1.283.374-2.033.169-.634-.174-1.077-.585-1.818-1.436-.005-.82.187-1.199.565-1.943.653-1.285 1.391-2.499 2.092-3.619a.1.1 0 0 0-.026-.134.1.1 0 0 0-.135.017c-.243.293-.482.573-.716.847-.627.734-1.222 1.429-1.747 2.209-.217-.54-.499-.906-.904-1.434a29.744 29.744 0 0 1-.394-.521c-.648-.877-.684-1.224-.224-2.188l.052-.109c.471-.986.878-1.837 1.674-2.695a66.244 66.244 0 0 0 1.652-1.874c.849-.987 1.727-2.008 2.689-2.942.748-.727 1.081-.774 1.968-.902l.319-.047a39.932 39.932 0 0 0 3.086-.596.1.1 0 0 0 .076-.113c-.008-.051-.055-.093-.107-.083-.906.084-1.779.121-2.792.149.851-1.083 1.43-1.76 2.942-2.415 3.71-1.609 6.166-1.946 9.293.678.225.188.441.375.654.559.479.413.934.806 1.43 1.175a3.045 3.045 0 0 0-.646.182.1.1 0 0 0-.059.12c.015.05.066.083.114.07.372-.069.811-.004 1.231.072.113.073.229.145.349.214l.027.016c.547.322.848.499 1.212 1.005.355.494.658.99.921 1.51a5.568 5.568 0 0 0-.264-.086 1.17 1.17 0 0 0-1.102.062l-.027.013c-.287.139-.768.316-1.094.369a.1.1 0 0 0-.016.192c.135.046.413.077.627.045a1.181 1.181 0 0 0 .062.938.759.759 0 0 0 .046.09c-.11.043-.222.089-.336.139a.1.1 0 0 0-.056.119c.014.048.058.083.111.07a7.065 7.065 0 0 1 1.983-.044c.035.167.069.34.102.516l-.136.011c-.372-.275-.794-.207-1.267-.101-1.122.255-1.291.78-1.526 1.505-.102.315-.217.671-.433 1.068a.1.1 0 0 0 .164.111c.256-.313.422-.634.568-.918.287-.558.513-.999 1.266-1.177a4.29 4.29 0 0 0 .213-.056l.005-.001a1.424 1.424 0 0 0-.428.593c-.164.461-.199.886-.234 1.297-.036.436-.071.848-.252 1.283a.1.1 0 0 0 .178.088c.248-.429.372-.858.492-1.273.102-.353.208-.717.389-1.087.14-.284.649-.71.922-.715l.183-.004c.081.554.108.996.083 1.349-.058.8-.265 1.948-.377 2.355a.1.1 0 0 0 .052.115.099.099 0 0 0 .123-.028c.357-.459.542-1.311.705-2.062.029-.134.057-.263.085-.385.171-.746.163-1.704-.023-2.697-.042-.226-.03-.395.025-.527.102.03.198.061.29.091.449.146.836.271 1.365.082 1.103-.393 1.819-1.241 2.187-2.591.207.156.384.377.462.565.762 1.857 1.187 4.938.961 7.018z"/><path fill="#424242" d="M32.77 24.84c-.176.034-.353.068-.48.089-.715.12-.82.311-.931 1.011-.024.153-.053.324-.082.496-.03.174-.059.349-.083.505a.099.099 0 0 0 .191.05c.174-.466.314-.81.437-1.082.139-.302.207-.339.495-.494l.057-.031c.118-.065.29-.143.457-.22.17-.078.345-.158.469-.226a.1.1 0 0 0 .047-.12.1.1 0 0 0-.111-.066 48.65 48.65 0 0 0-.466.088z"/><path fill="#ffc" fill-rule="evenodd" d="M30.61 18.509a.592.592 0 0 1 .281-.79.596.596 0 0 1 .826.365 3.73 3.73 0 0 0-.759.742.649.649 0 0 1-.348-.317m6.611-2.553a.437.437 0 0 1 .477-.4.447.447 0 0 1 .361.632 3.869 3.869 0 0 0-.678.188.596.596 0 0 1-.16-.42" clip-rule="evenodd"/></svg>