<svg xmlns="http://www.w3.org/2000/svg" width="50" height="50" viewBox="0 0 48 48"><path fill="#7e57c2" d="M7 41V7a4 4 0 0 1 4-4h26c2.209 0 4 1.785 4 3.994v34.01A3.996 3.996 0 0 1 37 45H11a4 4 0 0 1-4-4z"/><path fill="#fff" d="M28.292 39.221v-16.68s1.085-3.991-13.364 1.633c-.026.071-.026-15.424-.026-15.424l4.721-.029v9.928s13.218-5.206 13.218 3.948V39.22l-4.549.001zm2.69-24.491h-5.007c1.802-2.204 3.434-5.98 3.434-5.98h5.178c-.001.001-.887 2.461-3.605 5.98zM14.987 39.192v-9.498l4.75 4.75-4.75 4.748z"/></svg>