<svg xmlns="http://www.w3.org/2000/svg" width="50" height="50" viewBox="0 0 48 48"><path fill="#ffe0b2" d="M15.2 33.5c-.5.3-8.2 5.2-8.2 5.5v.4L8.4 43h31.2s1.5-4.8 1.4-6c0-.6-5-3.9-5-3.9s3.9-3.9 4-12.4c0-.8 0-1.6-.1-2.4-.7-9.6-6.8-13-13.2-13.3-6.5-.2-10.1 2.8-10.1 2.8s-4.1 1.4-4.5 4.7c0 0-3.2.6-1.5 7.1C9.3 20.6 9 22 9 23c0 1.3.4 2.8 1.2 3.7 1.7 1.8 3.1 1.4 3.1 1.4s.6 3.2 1.9 5.4z"/><path fill="#f44336" d="M36.8 36.9c-.2-1.3-.8-1.9-2.1-1.9h-.2c-.4.1-1 .3-2.7 1.5l-1 .7c-.2-.1-.5-.2-.8-.2-.5 0-.9.2-1.3.5l-1-.5-1.7-.9c-.9-.4-1.8-.7-2.5-.7-.5 0-.9.1-1.3.3-.5.4-.7 1-.6 1.8 0 .4.1.9.1 1.3.2 2.1.3 3.6 2.3 3.7h.3c1.1 0 2.4-.4 3.6-1.3l.9-.6c.3.2.7.4 1.1.4.5 0 .9-.2 1.2-.4l1.4.3c.6.1 1.1.2 1.6.2h.4c.5 0 1 0 1.5-.3.6-.3.9-1 .9-2.1 0-.5-.1-1-.1-1.4v-.4z"/><path fill="#fff" d="M21.7 38.9c0-.4-.1-.8-.1-1.3-.1-.6 0-1 .2-1.4-5-.1-6.6-2.7-6.6-2.7s-.3 1.6 1.1 3.4c2.1 2.5 5.3 2.8 5.3 2.8h.2c0-.2 0-.5-.1-.8z"/><path fill="#546e7a" d="m22.9 43-.7-1.4c-.1-.3-.2-.6-.3-1.1l-.1-.7-.7-.1c-.9-.2-3.1-.8-4.7-2.7-.5-.6-.8-1.3-1-2l-.4-1.3-1.1.7c-2 1.3-5.3 3.4-6.4 4.3l-.6.5L8.4 43h14.5z"/><path fill="#455a64" d="M12.2 43h10.7l-.7-1.4c-.1-.3-.2-.6-.3-1.1l-.1-.7-.7-.1c-.9-.2-3.1-.8-4.7-2.7-.1-.1-.2-.3-.3-.4L11 40l1.2 3z"/><path fill="#546e7a" d="M40.7 36.5c-.6-.6-2.4-1.9-3.1-2.4l-.7-.5c-.2.2-.6.7-1.3 1.2l.7.7c.3.3.5.8.6 1.3v.3c.1.4.1.9.1 1.4 0 1.7-.6 2-.9 2.1-.2.1-.5.2-.8.2l.1 2h4.1l.2-.7c.5-1.6 1.1-3.9 1.2-4.9v-.5l-.2-.2z"/><path fill="#455a64" d="m39.6 43 .2-.7c.3-.8.5-1.9.8-2.8l-3.7-2c0 .3.1.7.1 1.1 0 1.7-.6 2-.9 2.1-.2.1-.5.2-.8.2l.1 2 4.2.1z"/><path fill="#616161" d="M10.3 19.8s.1-.1 0 0l.1-.1c.5-.4 1.2-.7 1.8-.7.6 0 .9.2 1.2.3 1.3.7 1.6 2 1.7 2.9v.2c.6-.2 1.2-.4 1.4-.5 0-.1 0-.3-.1-.6-.1-.4-.2-.9-.4-1.4-.4-1.1-.3-2.5.3-4.3l.1-.2c.1-.4.3-.8.3-1.1 0-.3.1-.6.1-.7 0-.3-.1-.5-.2-.8l-.2-.5.3-.5c.9-1.5 4.2-6.5 10.9-6.5h.7-.2c-.4-.2-.9-.3-1.4-.3H26c-5.4 0-8.7 2.3-9.3 2.7l-.1.1-.1.1c-.6.2-3.7 1.5-4.3 4.2l-.2.3-.4.2c-.4.2-.7.5-.9.9-.7 1.2-.8 3-.3 5.5l.1.5-.4.5-.1.1.3-.3z"/><path fill="#263238" d="M28 41h6v2h-6zM14.2 22.4c-.1-.9-.4-1.7-1.1-2.1-.3-.1-.5-.2-.8-.2-.5 0-1.1.2-1.6.9l-.7-2c.9-.5 1.7-.8 2.5-.8.5 0 1 .1 1.5.3.4.2.8.5 1.1.8-.2-1.4.1-2.9.5-4.1.2-.5.3-1 .4-1.3.1-.6 0-.7-.2-1-1.9.2-3.5.7-3.5.7l-.5-1.9c.1 0 2.1-.6 4.4-.8l.7-.1.3.6s.1.1.1.2c.3.3.7.9.8 1.9 0 .2 0 .6-.1.9-.1.5-.3.9-.4 1.5-.4 1.2-.7 2.6-.3 3.6.2.6.3 1.2.4 1.6.1.4.2 1.3-.2 1.6-.4.3-2.7 1-2.7 1s-.5-.4-.6-1.3z"/><path fill="#263238" d="m17.5 12.6-1.8-.8c0-.1 3.7-8.2 13-7.6l-.1 2c-8-.4-11.1 6.4-11.1 6.4z"/><path fill="#fff" d="M22 36.2c-5.1 0-6.8-2.7-6.8-2.7s-.3 1.6 1.1 3.4c2.1 2.5 5.3 2.8 5.3 2.8"/><path fill="#263238" d="M21.5 40.7c-.1 0-3.6-.4-5.9-3.2-1.7-2.2-1.4-4-1.3-4.2l.5-2.6 1.4 2.3c.1.1 1.5 2.2 5.9 2.2v2c-2.1 0-3.7-.4-4.9-1v.1c1.8 2.1 4.5 2.4 4.6 2.4l-.3 2zM34.7 42h-.3c-1.8 0-3.5-.6-3.6-.6l.7-1.9s1.4.5 2.8.5h.1c.5 0 1 0 1.3-.1.3-.2.3-.9.3-1.3s-.1-.9-.1-1.3V37c-.1-.8-.4-1.1-1.2-1.1-.6.1-2.5 1.5-3.2 2l-.5.4-1.2-1.6.4-.3c1.9-1.4 3.4-2.4 4.4-2.4 1.8 0 2.9 1 3.2 2.8v.3c.1.4.1 1 .2 1.5 0 1.5-.4 2.6-1.4 3-.7.4-1.3.4-1.9.4z"/><path fill="#263238" d="M24.3 43.6H24c-2.9-.2-3.1-2.5-3.2-4.6 0-.4-.1-.8-.1-1.2-.2-1.6.5-2.4 1-2.8 1.3-.9 3.3-.5 4.8.2l3 1.6-.9 1.8-3-1.6c-1.2-.6-2.4-.7-2.7-.4-.2.2-.2.6-.2.9.1.4.1.9.1 1.3.2 2.4.4 2.7 1.4 2.8 2.1.2 4.2-1.8 4.2-1.9l1.4 1.4c-.2.2-2.6 2.5-5.5 2.5zM21 15.4s-.2.6-.6.6c-.2 0-.4-.4-.4-.8 0-1.2.8-2.7 1.6-3.4.6-.5 1.4-.8 2.3-.8.4 0 .9 0 1.3.2.5.2.8.6.8 1.4 0 0 0 .4-1.3.4-.8 0-1.8.1-2.2.5-.4.4-1 .8-1.5 1.9zm5.4 5.6c-.5 0-1.1-.1-1.6-.2-.6-.1-.9-.7-.7-1.2l.2-.3c.1-.2.3-.3.5-.3h.3c.8.2 2 .2 2.4.2-.5-1.9-.4-3.3-.1-3.3s1.1 2.3 1.5 2.8c.4.5.3 1.1-.1 1.5-.7.6-1.5.8-2.4.8zm10 0h-.5c-.6-.1-.9-.5-.9-1.1 0 0 .1-.9.6-.9.4 0 .9.2 1.1.2-.2-1.2-.5-3.2-.2-3.2s1 2.4 2.4 3.3c.4.3.4.9-.2 1.3-.8.3-1.5.4-2.3.4zm1.9-6.5c-.2-.8-1.1-1.5-2.1-1.8-1.3-.3-2.2.3-2.2.3 0-.9.7-1.6 1-1.7.4-.2.6-.3 1-.3 2.1 0 2.9 1.3 3.6 2.6l-1.3.9z"/><path fill="#263238" d="M31.9 27h-.4c-.7 0-1.3-.2-1.7-.7-.8-.9-.9-2.1-.6-2.3.3-.2.5.5 1.5.8 0 0 .7.1.9.1h.5c1.3 0 2.4-.3 2.8-.6.1-.1.1-.3.1-.3s0-.3-1.3-1.5-1.7-2.7-1.7-4c0-1.5.2-2.5.4-2.5.3 0 .6 3.2 2.7 5 1.5 1.3 1.9 2.2 1.9 3.1 0 .9-.5 1.4-.8 1.7-1.1 1-2.9 1.2-4.3 1.2zm-.5 3c-3.1-.1-4.7-2-4.7-2s3.5.3 5.8.3V30h-1.1zm2.2 0v-1.8c.2-.1 1.8.1 3.6-.6-.4 2.1-3.5 2.4-3.6 2.4zm-4.5 3c-2.2 0-3.3-.6-4.1-3.2 0 0-.1-.2.2-.3s.4.1.4.1c.4 1.1 2.1 1.4 4.2 1.4h3.3s-.4 2-2.5 2h-1.5z"/><path fill="#263238" d="M29 37c-3.2 0-5.7-1-8.4-3.9-1.5-1.6-1.5-3.7-1.3-3.9s.5 1.2 1.7 2.5c2.4 2.6 5.8 3.4 8.7 3.2 3.8-.3 5.4-2.5 5.7-2.7l1.7 1.2c-.1.1-2.4 3.1-7.2 3.5-.4.1-.6.1-.9.1zm-15.6-8-.1-1-.1-1s.2-.1.6-.4c.3-.2.6-.2.9 0l.5.4c.3.3.3.8 0 1.1-.9.8-1.7.9-1.8.9zm-.4-6 1.6.6c-.1-.4-.6-2.2-2-2.6-.4-.1-1.1.2-1.2.9v.4C11.5 24 13 25 13 25v-2z"/><path fill="#263238" d="M30 42c-1.7 0-3-1.3-3-3s1.3-3 3-3 3 1.3 3 3-1.3 3-3 3zm0-4c-.5 0-1 .4-1 1s.4 1 1 1 1-.4 1-1-.4-1-1-1z"/><path fill="#263238" d="M39.6 44H8.4c-.4 0-.8-.2-.9-.6l-1.4-3.5c-.1-.3-.1-.4-.1-.6v-.4c.1-1 5.7-4.5 7.9-5.8-.7-1.5-1.2-3.1-1.4-4.1-.8-.1-1.8-.5-3-1.7C8.4 26.2 8 24.3 8 23c0-.9.2-2.4 1.4-3.7-.6-2.7-.5-4.8.4-6.2.4-.7.9-1 1.3-1.3.8-3.1 4.1-4.5 4.9-4.9.8-.6 4.5-3.1 10.7-2.9 8.4.3 13.6 5.5 14.2 14.2.1.8.1 1.6.1 2.4 0 6.5-2.3 10.5-3.5 12.1 4.5 3.1 4.5 3.6 4.5 4.1.1 1.3-1.1 5.2-1.5 6.4-.1.5-.5.8-.9.8zM9.1 42h29.7c.6-1.9 1.1-3.9 1.2-4.7-.6-.6-2.7-2.2-4.6-3.4-.2-.2-.4-.4-.4-.7s.1-.6.3-.8c0 0 3.6-3.7 3.7-11.7 0-.7 0-1.5-.1-2.3C38.2 8 30.9 6.2 26.6 6c-6-.2-9.4 2.5-9.5 2.6-.1.1-.2.1-.3.2 0 0-3.5 1.2-3.8 3.9-.1.4-.4.8-.8.9-.7.2-1.8 1.7-.7 5.9.1.4 0 .8-.3 1-1 .8-1.1 2-1.1 2.6 0 1.2.4 2.4 1 3 1.2 1.3 2.1 1.1 2.1 1.1.3-.1.6 0 .8.1.2.2.4.4.4.7 0 0 .5 3.1 1.8 5.1.1.2.2.5.1.8-.1.3-.2.5-.5.6-.7.4-6.3 4-7.7 5l1 2.5zm31-4.6z"/></svg>