<svg xmlns="http://www.w3.org/2000/svg" width="50" height="50" viewBox="0 0 48 48"><path fill="#0277BD" d="M39 21.5C38.9 14.6 33.2 9 26.3 9c-5.2 0-9.7 3.1-11.7 7.6-.4-.1-.7-.1-1.1-.1-3.2 0-5.8 2.5-6 5.7C4.8 23.7 3 26.7 3 30c0 5 4 9 9 9h24c5 0 9-4 9-9 0-3.9-2.5-7.2-6-8.5z"/><path fill="#FFF" d="M31.1 34c-2.8 0-5.4-2.5-8-4.9-2.2-2-4.4-4.1-6.2-4.1-1.7 0-3 1.3-3 3 0 1.6 1.4 3 3 3 1.4 0 2.7-.6 3.9-1.9l2 2.1C21 33 19 34 16.8 34c-3.3 0-5.9-2.7-5.9-6s2.7-6 5.9-6c2.8 0 5.5 2.5 8.1 4.9 2.2 2 4.4 4.1 6 4.1 1.7 0 3.1-1.3 3.1-3s-1.3-3-3-3c-2 0-3.7 1.4-4.2 1.8l-2-2.1c.1-.1 2.6-2.7 6.2-2.7 3.3 0 5.9 2.7 5.9 6s-2.6 6-5.8 6z"/></svg>