<svg xmlns="http://www.w3.org/2000/svg" width="50" height="50" viewBox="0 0 48 48"><path fill="#0277bd" d="M25.875 24.208c.102.131.145.32.116.495l-.276 1.208a.596.596 0 0 1-.319.422l-1.118.524a.557.557 0 0 1-.523 0l-1.118-.524a.593.593 0 0 1-.319-.422l-.276-1.208a.656.656 0 0 1 .116-.495l.784-.975a.562.562 0 0 1 .464-.233h1.22c.189 0 .363.087.465.233l.784.975z"/><path fill="#0277bd" d="m25.312 15.33.048.375c.134 1.037.23 2.085.326 3.122.038.413.077.817.105 1.23.019.317.374.48.633.298.326-.24.662-.48 1.007-.711.863-.586 1.716-1.172 2.598-1.739l.326-.202a9.426 9.426 0 0 0-5.043-2.373zm0 0 .048.375c.134 1.037.23 2.085.326 3.122.038.413.077.817.105 1.23.019.317.374.48.633.298.326-.24.662-.48 1.007-.711.863-.586 1.716-1.172 2.598-1.739l.326-.202a9.426 9.426 0 0 0-5.043-2.373zm0 0 .048.375c.134 1.037.23 2.085.326 3.122.038.413.077.817.105 1.23.019.317.374.48.633.298.326-.24.662-.48 1.007-.711.863-.586 1.716-1.172 2.598-1.739l.326-.202a9.426 9.426 0 0 0-5.043-2.373zm0 0 .048.375c.134 1.037.23 2.085.326 3.122.038.413.077.817.105 1.23.019.317.374.48.633.298.326-.24.662-.48 1.007-.711.863-.586 1.716-1.172 2.598-1.739l.326-.202a9.426 9.426 0 0 0-5.043-2.373zm0 0 .048.375c.134 1.037.23 2.085.326 3.122.038.413.077.817.105 1.23.019.317.374.48.633.298.326-.24.662-.48 1.007-.711.863-.586 1.716-1.172 2.598-1.739l.326-.202a9.426 9.426 0 0 0-5.043-2.373zm6.807 4.505-.259.279a95.229 95.229 0 0 1-2.196 2.248c-.47.48-.978.941-1.467 1.412.652.163 1.304.336 1.956.528 1.007.288 2.004.567 3.001.893l.355.115c.01-.154.01-.317.01-.48a9.5 9.5 0 0 0-1.4-4.995zm0 0-.259.279a95.229 95.229 0 0 1-2.196 2.248c-.47.48-.978.941-1.467 1.412.652.163 1.304.336 1.956.528 1.007.288 2.004.567 3.001.893l.355.115c.01-.154.01-.317.01-.48a9.5 9.5 0 0 0-1.4-4.995zm-6.807-4.505.048.375c.134 1.037.23 2.085.326 3.122.038.413.077.817.105 1.23.019.317.374.48.633.298.326-.24.662-.48 1.007-.711.863-.586 1.716-1.172 2.598-1.739l.326-.202a9.426 9.426 0 0 0-5.043-2.373zm0 0 .048.375c.134 1.037.23 2.085.326 3.122.038.413.077.817.105 1.23.019.317.374.48.633.298.326-.24.662-.48 1.007-.711.863-.586 1.716-1.172 2.598-1.739l.326-.202a9.426 9.426 0 0 0-5.043-2.373zm7.315 12.69c-1.045-.067-2.081-.163-3.126-.259a54.905 54.905 0 0 1-1.342-.135.39.39 0 0 0-.412.528c.163.432.316.865.47 1.307.336.98.681 1.969.997 2.968l.105.346a9.61 9.61 0 0 0 3.643-4.736l-.335-.019zm-.508-8.185-.259.279a95.229 95.229 0 0 1-2.196 2.248c-.47.48-.978.941-1.467 1.412.652.163 1.304.336 1.956.528 1.007.288 2.004.567 3.001.893l.355.115c.01-.154.01-.317.01-.48a9.5 9.5 0 0 0-1.4-4.995zm0 0-.259.279a95.229 95.229 0 0 1-2.196 2.248c-.47.48-.978.941-1.467 1.412.652.163 1.304.336 1.956.528 1.007.288 2.004.567 3.001.893l.355.115c.01-.154.01-.317.01-.48a9.5 9.5 0 0 0-1.4-4.995zm.508 8.185c-1.045-.067-2.081-.163-3.126-.259a54.905 54.905 0 0 1-1.342-.135.39.39 0 0 0-.412.528c.163.432.316.865.47 1.307.336.98.681 1.969.997 2.968l.105.346a9.61 9.61 0 0 0 3.643-4.736l-.335-.019zm-7.315-12.69.048.375c.134 1.037.23 2.085.326 3.122.038.413.077.817.105 1.23.019.317.374.48.633.298.326-.24.662-.48 1.007-.711.863-.586 1.716-1.172 2.598-1.739l.326-.202a9.426 9.426 0 0 0-5.043-2.373zm0 0 .048.375c.134 1.037.23 2.085.326 3.122.038.413.077.817.105 1.23.019.317.374.48.633.298.326-.24.662-.48 1.007-.711.863-.586 1.716-1.172 2.598-1.739l.326-.202a9.426 9.426 0 0 0-5.043-2.373zm7.315 12.69c-1.045-.067-2.081-.163-3.126-.259a54.905 54.905 0 0 1-1.342-.135.39.39 0 0 0-.412.528c.163.432.316.865.47 1.307.336.98.681 1.969.997 2.968l.105.346a9.61 9.61 0 0 0 3.643-4.736l-.335-.019zm-.508-8.185-.259.279a95.229 95.229 0 0 1-2.196 2.248c-.47.48-.978.941-1.467 1.412.652.163 1.304.336 1.956.528 1.007.288 2.004.567 3.001.893l.355.115c.01-.154.01-.317.01-.48a9.5 9.5 0 0 0-1.4-4.995zm0 0-.259.279a95.229 95.229 0 0 1-2.196 2.248c-.47.48-.978.941-1.467 1.412.652.163 1.304.336 1.956.528 1.007.288 2.004.567 3.001.893l.355.115c.01-.154.01-.317.01-.48a9.5 9.5 0 0 0-1.4-4.995zm.508 8.185c-1.045-.067-2.081-.163-3.126-.259a54.905 54.905 0 0 1-1.342-.135.39.39 0 0 0-.412.528c.163.432.316.865.47 1.307.336.98.681 1.969.997 2.968l.105.346a9.61 9.61 0 0 0 3.643-4.736l-.335-.019zm-7.315-12.69.048.375c.134 1.037.23 2.085.326 3.122.038.413.077.817.105 1.23.019.317.374.48.633.298.326-.24.662-.48 1.007-.711.863-.586 1.716-1.172 2.598-1.739l.326-.202a9.426 9.426 0 0 0-5.043-2.373zm1.294 18.29c-.556-.884-1.074-1.796-1.592-2.699-.23-.394-.451-.788-.662-1.191a.397.397 0 0 0-.7 0c-.221.413-.451.817-.69 1.21a94.608 94.608 0 0 1-1.611 2.69l-.24.384a9.436 9.436 0 0 0 2.819.423 9.317 9.317 0 0 0 2.896-.452l-.22-.365zm-1.294-18.29.048.375c.134 1.037.23 2.085.326 3.122.038.413.077.817.105 1.23.019.317.374.48.633.298.326-.24.662-.48 1.007-.711.863-.586 1.716-1.172 2.598-1.739l.326-.202a9.426 9.426 0 0 0-5.043-2.373zm7.315 12.69c-1.045-.067-2.081-.163-3.126-.259a54.905 54.905 0 0 1-1.342-.135.39.39 0 0 0-.412.528c.163.432.316.865.47 1.307.336.98.681 1.969.997 2.968l.105.346a9.61 9.61 0 0 0 3.643-4.736l-.335-.019zm-.508-8.185-.259.279a95.229 95.229 0 0 1-2.196 2.248c-.47.48-.978.941-1.467 1.412.652.163 1.304.336 1.956.528 1.007.288 2.004.567 3.001.893l.355.115c.01-.154.01-.317.01-.48a9.5 9.5 0 0 0-1.4-4.995zm0 0-.259.279a95.229 95.229 0 0 1-2.196 2.248c-.47.48-.978.941-1.467 1.412.652.163 1.304.336 1.956.528 1.007.288 2.004.567 3.001.893l.355.115c.01-.154.01-.317.01-.48a9.5 9.5 0 0 0-1.4-4.995zm.508 8.185c-1.045-.067-2.081-.163-3.126-.259a54.905 54.905 0 0 1-1.342-.135.39.39 0 0 0-.412.528c.163.432.316.865.47 1.307.336.98.681 1.969.997 2.968l.105.346a9.61 9.61 0 0 0 3.643-4.736l-.335-.019zm-7.315-12.69.048.375c.134 1.037.23 2.085.326 3.122.038.413.077.817.105 1.23.019.317.374.48.633.298.326-.24.662-.48 1.007-.711.863-.586 1.716-1.172 2.598-1.739l.326-.202a9.426 9.426 0 0 0-5.043-2.373zm1.294 18.29c-.556-.884-1.074-1.796-1.592-2.699-.23-.394-.451-.788-.662-1.191a.397.397 0 0 0-.7 0c-.221.413-.451.817-.69 1.21a94.608 94.608 0 0 1-1.611 2.69l-.24.384a9.436 9.436 0 0 0 2.819.423 9.317 9.317 0 0 0 2.896-.452l-.22-.365zm-6.731-6.128c-.451.058-.892.125-1.342.173-1.045.125-2.071.25-3.116.346l-.518.048a9.655 9.655 0 0 0 3.72 4.765l.134-.404c.326-.999.671-1.979 1.026-2.968.163-.48.336-.951.518-1.431a.389.389 0 0 0-.422-.529zm6.731 6.128c-.556-.884-1.074-1.796-1.592-2.699-.23-.394-.451-.788-.662-1.191a.397.397 0 0 0-.7 0c-.221.413-.451.817-.69 1.21a94.608 94.608 0 0 1-1.611 2.69l-.24.384a9.436 9.436 0 0 0 2.819.423 9.317 9.317 0 0 0 2.896-.452l-.22-.365zm-1.294-18.29.048.375c.134 1.037.23 2.085.326 3.122.038.413.077.817.105 1.23.019.317.374.48.633.298.326-.24.662-.48 1.007-.711.863-.586 1.716-1.172 2.598-1.739l.326-.202a9.426 9.426 0 0 0-5.043-2.373zm7.315 12.69c-1.045-.067-2.081-.163-3.126-.259a54.905 54.905 0 0 1-1.342-.135.39.39 0 0 0-.412.528c.163.432.316.865.47 1.307.336.98.681 1.969.997 2.968l.105.346a9.61 9.61 0 0 0 3.643-4.736l-.335-.019zm-.508-8.185-.259.279a95.229 95.229 0 0 1-2.196 2.248c-.47.48-.978.941-1.467 1.412.652.163 1.304.336 1.956.528 1.007.288 2.004.567 3.001.893l.355.115c.01-.154.01-.317.01-.48a9.5 9.5 0 0 0-1.4-4.995zm0 0-.259.279a95.229 95.229 0 0 1-2.196 2.248c-.47.48-.978.941-1.467 1.412.652.163 1.304.336 1.956.528 1.007.288 2.004.567 3.001.893l.355.115c.01-.154.01-.317.01-.48a9.5 9.5 0 0 0-1.4-4.995zm.508 8.185c-1.045-.067-2.081-.163-3.126-.259a54.905 54.905 0 0 1-1.342-.135.39.39 0 0 0-.412.528c.163.432.316.865.47 1.307.336.98.681 1.969.997 2.968l.105.346a9.61 9.61 0 0 0 3.643-4.736l-.335-.019zm-7.315-12.69.048.375c.134 1.037.23 2.085.326 3.122.038.413.077.817.105 1.23.019.317.374.48.633.298.326-.24.662-.48 1.007-.711.863-.586 1.716-1.172 2.598-1.739l.326-.202a9.426 9.426 0 0 0-5.043-2.373zm1.294 18.29c-.556-.884-1.074-1.796-1.592-2.699-.23-.394-.451-.788-.662-1.191a.397.397 0 0 0-.7 0c-.221.413-.451.817-.69 1.21a94.608 94.608 0 0 1-1.611 2.69l-.24.384a9.436 9.436 0 0 0 2.819.423 9.317 9.317 0 0 0 2.896-.452l-.22-.365zm-6.731-6.128c-.451.058-.892.125-1.342.173-1.045.125-2.071.25-3.116.346l-.518.048a9.655 9.655 0 0 0 3.72 4.765l.134-.404c.326-.999.671-1.979 1.026-2.968.163-.48.336-.951.518-1.431a.389.389 0 0 0-.422-.529zm0 0c-.451.058-.892.125-1.342.173-1.045.125-2.071.25-3.116.346l-.518.048a9.655 9.655 0 0 0 3.72 4.765l.134-.404c.326-.999.671-1.979 1.026-2.968.163-.48.336-.951.518-1.431a.389.389 0 0 0-.422-.529zm6.731 6.128c-.556-.884-1.074-1.796-1.592-2.699-.23-.394-.451-.788-.662-1.191a.397.397 0 0 0-.7 0c-.221.413-.451.817-.69 1.21a94.608 94.608 0 0 1-1.611 2.69l-.24.384a9.436 9.436 0 0 0 2.819.423 9.317 9.317 0 0 0 2.896-.452l-.22-.365zm-1.294-18.29.048.375c.134 1.037.23 2.085.326 3.122.038.413.077.817.105 1.23.019.317.374.48.633.298.326-.24.662-.48 1.007-.711.863-.586 1.716-1.172 2.598-1.739l.326-.202a9.426 9.426 0 0 0-5.043-2.373zm7.315 12.69c-1.045-.067-2.081-.163-3.126-.259a54.905 54.905 0 0 1-1.342-.135.39.39 0 0 0-.412.528c.163.432.316.865.47 1.307.336.98.681 1.969.997 2.968l.105.346a9.61 9.61 0 0 0 3.643-4.736l-.335-.019zm-.508-8.185-.259.279a95.229 95.229 0 0 1-2.196 2.248c-.47.48-.978.941-1.467 1.412.652.163 1.304.336 1.956.528 1.007.288 2.004.567 3.001.893l.355.115c.01-.154.01-.317.01-.48a9.5 9.5 0 0 0-1.4-4.995zm0 0-.259.279a95.229 95.229 0 0 1-2.196 2.248c-.47.48-.978.941-1.467 1.412.652.163 1.304.336 1.956.528 1.007.288 2.004.567 3.001.893l.355.115c.01-.154.01-.317.01-.48a9.5 9.5 0 0 0-1.4-4.995zm.508 8.185c-1.045-.067-2.081-.163-3.126-.259a54.905 54.905 0 0 1-1.342-.135.39.39 0 0 0-.412.528c.163.432.316.865.47 1.307.336.98.681 1.969.997 2.968l.105.346a9.61 9.61 0 0 0 3.643-4.736l-.335-.019zm-7.315-12.69.048.375c.134 1.037.23 2.085.326 3.122.038.413.077.817.105 1.23.019.317.374.48.633.298.326-.24.662-.48 1.007-.711.863-.586 1.716-1.172 2.598-1.739l.326-.202a9.426 9.426 0 0 0-5.043-2.373zm1.294 18.29c-.556-.884-1.074-1.796-1.592-2.699-.23-.394-.451-.788-.662-1.191a.397.397 0 0 0-.7 0c-.221.413-.451.817-.69 1.21a94.608 94.608 0 0 1-1.611 2.69l-.24.384a9.436 9.436 0 0 0 2.819.423 9.317 9.317 0 0 0 2.896-.452l-.22-.365zm-6.731-6.128c-.451.058-.892.125-1.342.173-1.045.125-2.071.25-3.116.346l-.518.048a9.655 9.655 0 0 0 3.72 4.765l.134-.404c.326-.999.671-1.979 1.026-2.968.163-.48.336-.951.518-1.431a.389.389 0 0 0-.422-.529zm-.537-4.381a29.273 29.273 0 0 1-.959-.913c-.748-.74-1.486-1.47-2.215-2.229l-.307-.317a9.528 9.528 0 0 0-1.515 5.178c0 .183.01.355.01.528l.451-.154c.988-.355 1.985-.663 2.972-.989.47-.154.94-.288 1.409-.432a.394.394 0 0 0 .154-.672zm.537 4.381c-.451.058-.892.125-1.342.173-1.045.125-2.071.25-3.116.346l-.518.048a9.655 9.655 0 0 0 3.72 4.765l.134-.404c.326-.999.671-1.979 1.026-2.968.163-.48.336-.951.518-1.431a.389.389 0 0 0-.422-.529zm6.731 6.128c-.556-.884-1.074-1.796-1.592-2.699-.23-.394-.451-.788-.662-1.191a.397.397 0 0 0-.7 0c-.221.413-.451.817-.69 1.21a94.608 94.608 0 0 1-1.611 2.69l-.24.384a9.436 9.436 0 0 0 2.819.423 9.317 9.317 0 0 0 2.896-.452l-.22-.365zm-1.294-18.29.048.375c.134 1.037.23 2.085.326 3.122.038.413.077.817.105 1.23.019.317.374.48.633.298.326-.24.662-.48 1.007-.711.863-.586 1.716-1.172 2.598-1.739l.326-.202a9.426 9.426 0 0 0-5.043-2.373zm7.315 12.69c-1.045-.067-2.081-.163-3.126-.259a54.905 54.905 0 0 1-1.342-.135.39.39 0 0 0-.412.528c.163.432.316.865.47 1.307.336.98.681 1.969.997 2.968l.105.346a9.61 9.61 0 0 0 3.643-4.736l-.335-.019zm-.508-8.185-.259.279a95.229 95.229 0 0 1-2.196 2.248c-.47.48-.978.941-1.467 1.412.652.163 1.304.336 1.956.528 1.007.288 2.004.567 3.001.893l.355.115c.01-.154.01-.317.01-.48a9.5 9.5 0 0 0-1.4-4.995zm0 0-.259.279a95.229 95.229 0 0 1-2.196 2.248c-.47.48-.978.941-1.467 1.412.652.163 1.304.336 1.956.528 1.007.288 2.004.567 3.001.893l.355.115c.01-.154.01-.317.01-.48a9.5 9.5 0 0 0-1.4-4.995zm-2.618 7.926a54.905 54.905 0 0 1-1.342-.135.39.39 0 0 0-.412.528c.163.432.316.865.47 1.307.336.98.681 1.969.997 2.968l.105.346a9.61 9.61 0 0 0 3.643-4.736l-.336-.019c-1.044-.067-2.079-.163-3.125-.259zm.854-10.058a9.426 9.426 0 0 0-5.043-2.373l.048.375c.134 1.037.23 2.085.326 3.122.038.413.077.817.105 1.23.019.317.374.48.633.298.326-.24.662-.48 1.007-.711.863-.586 1.716-1.172 2.598-1.739l.326-.202zm-5.341 13.218c-.23-.394-.451-.788-.662-1.191a.397.397 0 0 0-.7 0c-.221.413-.451.817-.69 1.21a94.608 94.608 0 0 1-1.611 2.69l-.24.384a9.436 9.436 0 0 0 2.819.423 9.317 9.317 0 0 0 2.896-.452l-.221-.365c-.555-.883-1.073-1.796-1.591-2.699zm-5.139-3.429c-.451.058-.892.125-1.342.173-1.045.125-2.071.25-3.116.346l-.518.048a9.655 9.655 0 0 0 3.72 4.765l.134-.404c.326-.999.671-1.979 1.026-2.968.163-.48.336-.951.518-1.431a.389.389 0 0 0-.422-.529zm-.69-3.709a.394.394 0 0 0 .153-.672 29.273 29.273 0 0 1-.959-.913c-.748-.74-1.486-1.47-2.215-2.229l-.307-.317a9.528 9.528 0 0 0-1.515 5.178c0 .183.01.355.01.528l.451-.154c.988-.355 1.985-.663 2.972-.989.47-.153.94-.287 1.41-.432zm25.581 4.391-3.663-16.12a2.428 2.428 0 0 0-1.304-1.643L24.976 3.245a2.349 2.349 0 0 0-2.09 0L8.063 10.411a2.426 2.426 0 0 0-1.304 1.643l-3.663 16.12c-.163.72.01 1.47.46 2.037l10.259 12.93c.46.576 1.16.913 1.889.913h16.453c.729 0 1.429-.336 1.889-.913l10.259-12.93a2.418 2.418 0 0 0 .461-2.037zm-5.12.672c-.288.067-.575 0-.805-.144-.47-.317-.968-.49-1.467-.634a7.055 7.055 0 0 0-.757-.163c-.249-.077-.537 0-.825.134-.288.163-.547.135-.815.115h-.029a11.586 11.586 0 0 1-5.034 6.523v.01c.077.25.163.49.086.817-.067.317-.077.605.058.836.105.231.221.471.345.692.259.451.547.903.968 1.278.422.394.451 1.047.067 1.479a1.053 1.053 0 0 1-1.477.067 1.008 1.008 0 0 1-.336-.749c-.019-.567-.163-1.066-.336-1.566a7.547 7.547 0 0 0-.297-.72c-.086-.25-.316-.423-.595-.586-.268-.144-.403-.346-.537-.567-1.227.452-2.55.692-3.931.692-1.361 0-2.665-.24-3.874-.672-.115.211-.249.403-.518.548-.278.154-.508.336-.594.586a6.627 6.627 0 0 0-.307.711c-.173.5-.326.999-.336 1.566a1.05 1.05 0 0 1-1.083 1.009 1.041 1.041 0 0 1-.662-1.816c.422-.384.71-.826.978-1.268.125-.231.24-.461.345-.701.134-.221.125-.519.067-.836-.067-.298 0-.538.077-.759a11.588 11.588 0 0 1-5.091-6.494c-.221.019-.431.019-.681-.106-.297-.125-.575-.202-.825-.115a6.656 6.656 0 0 0-.757.192c-.499.163-.988.346-1.448.672a1.044 1.044 0 0 1-1.208-1.701c.24-.173.537-.231.805-.183.547.115 1.074.077 1.592.01.259-.029.518-.077.767-.144.259-.019.489-.211.7-.451.182-.211.393-.298.604-.375a12.544 12.544 0 0 1-.058-1.201c0-2.459.767-4.736 2.081-6.609-.173-.173-.336-.346-.403-.653-.086-.307-.201-.576-.422-.72a6.865 6.865 0 0 0-.614-.471c-.441-.288-.892-.557-1.429-.72a1.038 1.038 0 0 1-.719-1.287 1.052 1.052 0 0 1 1.294-.72c.278.086.508.279.633.519.259.5.614.893.988 1.258.182.183.384.355.585.509.182.192.47.25.786.269.336.01.546.154.767.298l.01.01a11.315 11.315 0 0 1 6.817-3.151c.029-.259.048-.519.249-.778.192-.259.326-.519.297-.778.01-.259 0-.519-.019-.788-.058-.519-.134-1.038-.355-1.556a1.048 1.048 0 0 1 .547-1.374 1.052 1.052 0 0 1 1.371.548c.115.279.105.576 0 .826-.221.519-.297 1.037-.355 1.556-.019.269-.029.528-.019.788-.029.259.105.519.297.778.201.259.221.519.249.778a11.351 11.351 0 0 1 6.961 3.285c.221-.144.431-.298.767-.307.316-.019.604-.077.786-.269.201-.163.393-.336.585-.519.364-.365.719-.759.978-1.258.259-.519.892-.72 1.4-.451.518.259.719.893.451 1.403a1.009 1.009 0 0 1-.633.528c-.537.154-.988.432-1.419.72-.211.154-.422.307-.614.48-.221.144-.336.413-.422.72-.067.327-.249.509-.431.701a11.42 11.42 0 0 1 1.966 6.436c0 .365-.019.73-.048 1.086h.01c.249.077.499.144.719.403.221.231.451.403.71.423.259.058.508.096.767.125.527.048 1.045.067 1.601-.058a1.043 1.043 0 0 1 1.246.797 1.035 1.035 0 0 1-.792 1.237zm-7.786-8.732a95.229 95.229 0 0 1-2.196 2.248c-.47.48-.978.941-1.467 1.412.652.163 1.304.336 1.956.528 1.007.288 2.004.567 3.001.893l.355.115c.01-.154.01-.317.01-.48a9.494 9.494 0 0 0-1.4-4.995l-.259.279zm-2.359 7.647a54.905 54.905 0 0 1-1.342-.135.39.39 0 0 0-.412.528c.163.432.316.865.47 1.307.336.98.681 1.969.997 2.968l.105.346a9.61 9.61 0 0 0 3.643-4.736l-.336-.019c-1.044-.067-2.079-.163-3.125-.259zm.854-10.058a9.426 9.426 0 0 0-5.043-2.373l.048.375c.134 1.037.23 2.085.326 3.122.038.413.077.817.105 1.23.019.317.374.48.633.298.326-.24.662-.48 1.007-.711.863-.586 1.716-1.172 2.598-1.739l.326-.202zm-5.341 13.218c-.23-.394-.451-.788-.662-1.191a.397.397 0 0 0-.7 0c-.221.413-.451.817-.69 1.21a94.608 94.608 0 0 1-1.611 2.69l-.24.384a9.436 9.436 0 0 0 2.819.423 9.317 9.317 0 0 0 2.896-.452l-.221-.365c-.555-.883-1.073-1.796-1.591-2.699zm-2.838-12.094c.096-1.038.192-2.085.326-3.122l.048-.375a9.38 9.38 0 0 0-4.871 2.229l.297.183a81.667 81.667 0 0 1 2.618 1.729c.499.317.968.672 1.438 1.009a50.69 50.69 0 0 1 .144-1.653zm-2.301 8.665c-.451.058-.892.125-1.342.173-1.045.125-2.071.25-3.116.346l-.518.048a9.655 9.655 0 0 0 3.72 4.765l.134-.404c.326-.999.671-1.979 1.026-2.968.163-.48.336-.951.518-1.431a.389.389 0 0 0-.422-.529zm-.69-3.709a.394.394 0 0 0 .153-.672 29.273 29.273 0 0 1-.959-.913c-.748-.74-1.486-1.47-2.215-2.229l-.307-.317a9.528 9.528 0 0 0-1.515 5.178c0 .183.01.355.01.528l.451-.154c.988-.355 1.985-.663 2.972-.989.47-.153.94-.287 1.41-.432zm.153-.672a29.273 29.273 0 0 1-.959-.913c-.748-.74-1.486-1.47-2.215-2.229l-.307-.317a9.528 9.528 0 0 0-1.515 5.178c0 .183.01.355.01.528l.451-.154c.988-.355 1.985-.663 2.972-.989.47-.154.94-.288 1.409-.432a.394.394 0 0 0 .154-.672zm.537 4.381c-.451.058-.892.125-1.342.173-1.045.125-2.071.25-3.116.346l-.518.048a9.655 9.655 0 0 0 3.72 4.765l.134-.404c.326-.999.671-1.979 1.026-2.968.163-.48.336-.951.518-1.431a.389.389 0 0 0-.422-.529zm6.731 6.128c-.556-.884-1.074-1.796-1.592-2.699-.23-.394-.451-.788-.662-1.191a.397.397 0 0 0-.7 0c-.221.413-.451.817-.69 1.21a94.608 94.608 0 0 1-1.611 2.69l-.24.384a9.436 9.436 0 0 0 2.819.423 9.317 9.317 0 0 0 2.896-.452l-.22-.365zm-1.294-18.29.048.375c.134 1.037.23 2.085.326 3.122.038.413.077.817.105 1.23.019.317.374.48.633.298.326-.24.662-.48 1.007-.711.863-.586 1.716-1.172 2.598-1.739l.326-.202a9.426 9.426 0 0 0-5.043-2.373zm7.315 12.69c-1.045-.067-2.081-.163-3.126-.259a54.905 54.905 0 0 1-1.342-.135.39.39 0 0 0-.412.528c.163.432.316.865.47 1.307.336.98.681 1.969.997 2.968l.105.346a9.61 9.61 0 0 0 3.643-4.736l-.335-.019zm-.508-8.185-.259.279a95.229 95.229 0 0 1-2.196 2.248c-.47.48-.978.941-1.467 1.412.652.163 1.304.336 1.956.528 1.007.288 2.004.567 3.001.893l.355.115c.01-.154.01-.317.01-.48a9.5 9.5 0 0 0-1.4-4.995zm0 0-.259.279a95.229 95.229 0 0 1-2.196 2.248c-.47.48-.978.941-1.467 1.412.652.163 1.304.336 1.956.528 1.007.288 2.004.567 3.001.893l.355.115c.01-.154.01-.317.01-.48a9.5 9.5 0 0 0-1.4-4.995zm.508 8.185c-1.045-.067-2.081-.163-3.126-.259a54.905 54.905 0 0 1-1.342-.135.39.39 0 0 0-.412.528c.163.432.316.865.47 1.307.336.98.681 1.969.997 2.968l.105.346a9.61 9.61 0 0 0 3.643-4.736l-.335-.019zm-7.315-12.69.048.375c.134 1.037.23 2.085.326 3.122.038.413.077.817.105 1.23.019.317.374.48.633.298.326-.24.662-.48 1.007-.711.863-.586 1.716-1.172 2.598-1.739l.326-.202a9.426 9.426 0 0 0-5.043-2.373zm1.294 18.29c-.556-.884-1.074-1.796-1.592-2.699-.23-.394-.451-.788-.662-1.191a.397.397 0 0 0-.7 0c-.221.413-.451.817-.69 1.21a94.608 94.608 0 0 1-1.611 2.69l-.24.384a9.436 9.436 0 0 0 2.819.423 9.317 9.317 0 0 0 2.896-.452l-.22-.365zm-6.731-6.128c-.451.058-.892.125-1.342.173-1.045.125-2.071.25-3.116.346l-.518.048a9.655 9.655 0 0 0 3.72 4.765l.134-.404c.326-.999.671-1.979 1.026-2.968.163-.48.336-.951.518-1.431a.389.389 0 0 0-.422-.529zm-.537-4.381a29.273 29.273 0 0 1-.959-.913c-.748-.74-1.486-1.47-2.215-2.229l-.307-.317a9.528 9.528 0 0 0-1.515 5.178c0 .183.01.355.01.528l.451-.154c.988-.355 1.985-.663 2.972-.989.47-.154.94-.288 1.409-.432a.394.394 0 0 0 .154-.672zm.537 4.381c-.451.058-.892.125-1.342.173-1.045.125-2.071.25-3.116.346l-.518.048a9.655 9.655 0 0 0 3.72 4.765l.134-.404c.326-.999.671-1.979 1.026-2.968.163-.48.336-.951.518-1.431a.389.389 0 0 0-.422-.529zm6.731 6.128c-.556-.884-1.074-1.796-1.592-2.699-.23-.394-.451-.788-.662-1.191a.397.397 0 0 0-.7 0c-.221.413-.451.817-.69 1.21a94.608 94.608 0 0 1-1.611 2.69l-.24.384a9.436 9.436 0 0 0 2.819.423 9.317 9.317 0 0 0 2.896-.452l-.22-.365zm-1.294-18.29.048.375c.134 1.037.23 2.085.326 3.122.038.413.077.817.105 1.23.019.317.374.48.633.298.326-.24.662-.48 1.007-.711.863-.586 1.716-1.172 2.598-1.739l.326-.202a9.426 9.426 0 0 0-5.043-2.373zm7.315 12.69c-1.045-.067-2.081-.163-3.126-.259a54.905 54.905 0 0 1-1.342-.135.39.39 0 0 0-.412.528c.163.432.316.865.47 1.307.336.98.681 1.969.997 2.968l.105.346a9.61 9.61 0 0 0 3.643-4.736l-.335-.019zm-.508-8.185-.259.279a95.229 95.229 0 0 1-2.196 2.248c-.47.48-.978.941-1.467 1.412.652.163 1.304.336 1.956.528 1.007.288 2.004.567 3.001.893l.355.115c.01-.154.01-.317.01-.48a9.5 9.5 0 0 0-1.4-4.995zm0 0-.259.279a95.229 95.229 0 0 1-2.196 2.248c-.47.48-.978.941-1.467 1.412.652.163 1.304.336 1.956.528 1.007.288 2.004.567 3.001.893l.355.115c.01-.154.01-.317.01-.48a9.5 9.5 0 0 0-1.4-4.995zm.508 8.185c-1.045-.067-2.081-.163-3.126-.259a54.905 54.905 0 0 1-1.342-.135.39.39 0 0 0-.412.528c.163.432.316.865.47 1.307.336.98.681 1.969.997 2.968l.105.346a9.61 9.61 0 0 0 3.643-4.736l-.335-.019zm-7.315-12.69.048.375c.134 1.037.23 2.085.326 3.122.038.413.077.817.105 1.23.019.317.374.48.633.298.326-.24.662-.48 1.007-.711.863-.586 1.716-1.172 2.598-1.739l.326-.202a9.426 9.426 0 0 0-5.043-2.373zm1.294 18.29c-.556-.884-1.074-1.796-1.592-2.699-.23-.394-.451-.788-.662-1.191a.397.397 0 0 0-.7 0c-.221.413-.451.817-.69 1.21a94.608 94.608 0 0 1-1.611 2.69l-.24.384a9.436 9.436 0 0 0 2.819.423 9.317 9.317 0 0 0 2.896-.452l-.22-.365zm-6.731-6.128c-.451.058-.892.125-1.342.173-1.045.125-2.071.25-3.116.346l-.518.048a9.655 9.655 0 0 0 3.72 4.765l.134-.404c.326-.999.671-1.979 1.026-2.968.163-.48.336-.951.518-1.431a.389.389 0 0 0-.422-.529zm6.731 6.128c-.556-.884-1.074-1.796-1.592-2.699-.23-.394-.451-.788-.662-1.191a.397.397 0 0 0-.7 0c-.221.413-.451.817-.69 1.21a94.608 94.608 0 0 1-1.611 2.69l-.24.384a9.436 9.436 0 0 0 2.819.423 9.317 9.317 0 0 0 2.896-.452l-.22-.365zm-1.294-18.29.048.375c.134 1.037.23 2.085.326 3.122.038.413.077.817.105 1.23.019.317.374.48.633.298.326-.24.662-.48 1.007-.711.863-.586 1.716-1.172 2.598-1.739l.326-.202a9.426 9.426 0 0 0-5.043-2.373zm7.315 12.69c-1.045-.067-2.081-.163-3.126-.259a54.905 54.905 0 0 1-1.342-.135.39.39 0 0 0-.412.528c.163.432.316.865.47 1.307.336.98.681 1.969.997 2.968l.105.346a9.61 9.61 0 0 0 3.643-4.736l-.335-.019zm-.508-8.185-.259.279a95.229 95.229 0 0 1-2.196 2.248c-.47.48-.978.941-1.467 1.412.652.163 1.304.336 1.956.528 1.007.288 2.004.567 3.001.893l.355.115c.01-.154.01-.317.01-.48a9.5 9.5 0 0 0-1.4-4.995zm0 0-.259.279a95.229 95.229 0 0 1-2.196 2.248c-.47.48-.978.941-1.467 1.412.652.163 1.304.336 1.956.528 1.007.288 2.004.567 3.001.893l.355.115c.01-.154.01-.317.01-.48a9.5 9.5 0 0 0-1.4-4.995zm.508 8.185c-1.045-.067-2.081-.163-3.126-.259a54.905 54.905 0 0 1-1.342-.135.39.39 0 0 0-.412.528c.163.432.316.865.47 1.307.336.98.681 1.969.997 2.968l.105.346a9.61 9.61 0 0 0 3.643-4.736l-.335-.019zm-7.315-12.69.048.375c.134 1.037.23 2.085.326 3.122.038.413.077.817.105 1.23.019.317.374.48.633.298.326-.24.662-.48 1.007-.711.863-.586 1.716-1.172 2.598-1.739l.326-.202a9.426 9.426 0 0 0-5.043-2.373zm1.294 18.29c-.556-.884-1.074-1.796-1.592-2.699-.23-.394-.451-.788-.662-1.191a.397.397 0 0 0-.7 0c-.221.413-.451.817-.69 1.21a94.608 94.608 0 0 1-1.611 2.69l-.24.384a9.436 9.436 0 0 0 2.819.423 9.317 9.317 0 0 0 2.896-.452l-.22-.365zm0 0c-.556-.884-1.074-1.796-1.592-2.699-.23-.394-.451-.788-.662-1.191a.397.397 0 0 0-.7 0c-.221.413-.451.817-.69 1.21a94.608 94.608 0 0 1-1.611 2.69l-.24.384a9.436 9.436 0 0 0 2.819.423 9.317 9.317 0 0 0 2.896-.452l-.22-.365zm-1.294-18.29.048.375c.134 1.037.23 2.085.326 3.122.038.413.077.817.105 1.23.019.317.374.48.633.298.326-.24.662-.48 1.007-.711.863-.586 1.716-1.172 2.598-1.739l.326-.202a9.426 9.426 0 0 0-5.043-2.373zm7.315 12.69c-1.045-.067-2.081-.163-3.126-.259a54.905 54.905 0 0 1-1.342-.135.39.39 0 0 0-.412.528c.163.432.316.865.47 1.307.336.98.681 1.969.997 2.968l.105.346a9.61 9.61 0 0 0 3.643-4.736l-.335-.019zm-.508-8.185-.259.279a95.229 95.229 0 0 1-2.196 2.248c-.47.48-.978.941-1.467 1.412.652.163 1.304.336 1.956.528 1.007.288 2.004.567 3.001.893l.355.115c.01-.154.01-.317.01-.48a9.5 9.5 0 0 0-1.4-4.995zm0 0-.259.279a95.229 95.229 0 0 1-2.196 2.248c-.47.48-.978.941-1.467 1.412.652.163 1.304.336 1.956.528 1.007.288 2.004.567 3.001.893l.355.115c.01-.154.01-.317.01-.48a9.5 9.5 0 0 0-1.4-4.995zm.508 8.185c-1.045-.067-2.081-.163-3.126-.259a54.905 54.905 0 0 1-1.342-.135.39.39 0 0 0-.412.528c.163.432.316.865.47 1.307.336.98.681 1.969.997 2.968l.105.346a9.61 9.61 0 0 0 3.643-4.736l-.335-.019zm-7.315-12.69.048.375c.134 1.037.23 2.085.326 3.122.038.413.077.817.105 1.23.019.317.374.48.633.298.326-.24.662-.48 1.007-.711.863-.586 1.716-1.172 2.598-1.739l.326-.202a9.426 9.426 0 0 0-5.043-2.373zm1.294 18.29c-.556-.884-1.074-1.796-1.592-2.699-.23-.394-.451-.788-.662-1.191a.397.397 0 0 0-.7 0c-.221.413-.451.817-.69 1.21a94.608 94.608 0 0 1-1.611 2.69l-.24.384a9.436 9.436 0 0 0 2.819.423 9.317 9.317 0 0 0 2.896-.452l-.22-.365zm-1.294-18.29.048.375c.134 1.037.23 2.085.326 3.122.038.413.077.817.105 1.23.019.317.374.48.633.298.326-.24.662-.48 1.007-.711.863-.586 1.716-1.172 2.598-1.739l.326-.202a9.426 9.426 0 0 0-5.043-2.373zm7.315 12.69c-1.045-.067-2.081-.163-3.126-.259a54.905 54.905 0 0 1-1.342-.135.39.39 0 0 0-.412.528c.163.432.316.865.47 1.307.336.98.681 1.969.997 2.968l.105.346a9.61 9.61 0 0 0 3.643-4.736l-.335-.019zm-.508-8.185-.259.279a95.229 95.229 0 0 1-2.196 2.248c-.47.48-.978.941-1.467 1.412.652.163 1.304.336 1.956.528 1.007.288 2.004.567 3.001.893l.355.115c.01-.154.01-.317.01-.48a9.5 9.5 0 0 0-1.4-4.995zm0 0-.259.279a95.229 95.229 0 0 1-2.196 2.248c-.47.48-.978.941-1.467 1.412.652.163 1.304.336 1.956.528 1.007.288 2.004.567 3.001.893l.355.115c.01-.154.01-.317.01-.48a9.5 9.5 0 0 0-1.4-4.995zm.508 8.185c-1.045-.067-2.081-.163-3.126-.259a54.905 54.905 0 0 1-1.342-.135.39.39 0 0 0-.412.528c.163.432.316.865.47 1.307.336.98.681 1.969.997 2.968l.105.346a9.61 9.61 0 0 0 3.643-4.736l-.335-.019zm-7.315-12.69.048.375c.134 1.037.23 2.085.326 3.122.038.413.077.817.105 1.23.019.317.374.48.633.298.326-.24.662-.48 1.007-.711.863-.586 1.716-1.172 2.598-1.739l.326-.202a9.426 9.426 0 0 0-5.043-2.373zm0 0 .048.375c.134 1.037.23 2.085.326 3.122.038.413.077.817.105 1.23.019.317.374.48.633.298.326-.24.662-.48 1.007-.711.863-.586 1.716-1.172 2.598-1.739l.326-.202a9.426 9.426 0 0 0-5.043-2.373zm6.807 4.505-.259.279a95.229 95.229 0 0 1-2.196 2.248c-.47.48-.978.941-1.467 1.412.652.163 1.304.336 1.956.528 1.007.288 2.004.567 3.001.893l.355.115c.01-.154.01-.317.01-.48a9.5 9.5 0 0 0-1.4-4.995zm0 0-.259.279a95.229 95.229 0 0 1-2.196 2.248c-.47.48-.978.941-1.467 1.412.652.163 1.304.336 1.956.528 1.007.288 2.004.567 3.001.893l.355.115c.01-.154.01-.317.01-.48a9.5 9.5 0 0 0-1.4-4.995zm-6.807-4.505.048.375c.134 1.037.23 2.085.326 3.122.038.413.077.817.105 1.23.019.317.374.48.633.298.326-.24.662-.48 1.007-.711.863-.586 1.716-1.172 2.598-1.739l.326-.202a9.426 9.426 0 0 0-5.043-2.373zm0 0 .048.375c.134 1.037.23 2.085.326 3.122.038.413.077.817.105 1.23.019.317.374.48.633.298.326-.24.662-.48 1.007-.711.863-.586 1.716-1.172 2.598-1.739l.326-.202a9.426 9.426 0 0 0-5.043-2.373zm6.807 4.505-.259.279a95.229 95.229 0 0 1-2.196 2.248c-.47.48-.978.941-1.467 1.412.652.163 1.304.336 1.956.528 1.007.288 2.004.567 3.001.893l.355.115c.01-.154.01-.317.01-.48a9.5 9.5 0 0 0-1.4-4.995zm0 0-.259.279a95.229 95.229 0 0 1-2.196 2.248c-.47.48-.978.941-1.467 1.412.652.163 1.304.336 1.956.528 1.007.288 2.004.567 3.001.893l.355.115c.01-.154.01-.317.01-.48a9.5 9.5 0 0 0-1.4-4.995zm-6.807-4.505.048.375c.134 1.037.23 2.085.326 3.122.038.413.077.817.105 1.23.019.317.374.48.633.298.326-.24.662-.48 1.007-.711.863-.586 1.716-1.172 2.598-1.739l.326-.202a9.426 9.426 0 0 0-5.043-2.373zm0 0 .048.375c.134 1.037.23 2.085.326 3.122.038.413.077.817.105 1.23.019.317.374.48.633.298.326-.24.662-.48 1.007-.711.863-.586 1.716-1.172 2.598-1.739l.326-.202a9.426 9.426 0 0 0-5.043-2.373zm0 0 .048.375c.134 1.037.23 2.085.326 3.122.038.413.077.817.105 1.23.019.317.374.48.633.298.326-.24.662-.48 1.007-.711.863-.586 1.716-1.172 2.598-1.739l.326-.202a9.426 9.426 0 0 0-5.043-2.373z"/><path fill="none" d="M12.933 28.231c-.221.019-.431.019-.681-.106-.297-.125-.575-.202-.825-.115a6.656 6.656 0 0 0-.757.192c-.499.163-.988.346-1.448.672a1.044 1.044 0 0 1-1.208-1.701c.24-.173.537-.231.805-.183.547.115 1.074.077 1.592.01.259-.029.518-.077.767-.144.259-.019.489-.211.7-.451.182-.211.393-.298.604-.375.087.751.231 1.49.451 2.201zM20.057 35.686c-.115.211-.249.403-.518.548-.278.154-.508.336-.594.586a6.627 6.627 0 0 0-.307.711c-.173.5-.326.999-.336 1.566a1.05 1.05 0 0 1-1.083 1.009 1.041 1.041 0 0 1-.662-1.816c.422-.384.71-.826.978-1.268.125-.231.24-.461.345-.701.134-.221.125-.519.067-.836-.067-.298 0-.538.077-.759.643.384 1.324.71 2.033.96zM31.438 39.788a1.053 1.053 0 0 1-1.477.067 1.008 1.008 0 0 1-.336-.749c-.019-.567-.163-1.066-.336-1.566a7.547 7.547 0 0 0-.297-.72c-.086-.25-.316-.423-.595-.586-.268-.144-.403-.346-.537-.567a11.281 11.281 0 0 0 2.052-.989v.01c.077.25.163.49.086.817-.067.317-.077.605.058.836.105.231.221.471.345.692.259.451.547.903.968 1.278.424.391.453 1.045.069 1.477zM39.646 28.846c-.288.067-.575 0-.805-.144-.47-.317-.968-.49-1.467-.634a7.055 7.055 0 0 0-.757-.163c-.249-.077-.537 0-.825.134-.288.163-.547.135-.815.115h-.029c.221-.72.364-1.47.441-2.238h.01c.249.077.499.144.719.403.221.231.451.403.71.423.259.058.508.096.767.125.527.048 1.045.067 1.601-.058a1.043 1.043 0 1 1 .45 2.037z"/></svg>