<svg xmlns="http://www.w3.org/2000/svg" width="50" height="50" viewBox="0 0 48 48"><path fill="none" stroke="#d32f2f" stroke-linecap="round" stroke-linejoin="round" stroke-miterlimit="10" stroke-width="4" d="M29 19h-7a4 4 0 0 0-4 4v0a4 4 0 0 0 4 4h2a4 4 0 0 1 4 4v0a4 4 0 0 1-4 4H10a4 4 0 0 1-4-4V16"/><path fill="none" stroke="#d32f2f" stroke-linecap="round" stroke-linejoin="round" stroke-miterlimit="10" stroke-width="4" d="M11.938 29V17a4 4 0 0 1 4-4h22A4.062 4.062 0 0 1 42 17.062v0a4.062 4.062 0 0 1-4.062 4.062h0a3.937 3.937 0 0 0-3.937 3.937v7.875"/></svg>