<svg xmlns="http://www.w3.org/2000/svg" width="50" height="50" viewBox="0 0 48 48"><path fill="#00796b" d="M.002 35.041h1.92v-7.085l2.667 6.057c.329.755.779 1.022 1.662 1.022s1.315-.267 1.644-1.022l2.667-5.902v6.93h1.92v-7.258c0-.697-.277-1.035-.849-1.209-1.367-.43-2.285-.059-2.7.872l-2.735 6.16-2.649-6.16c-.398-.93-1.332-1.302-2.7-.872-.572.174-.849.511-.849 1.208v7.258h.002zM13.441 29.281h1.92v4.055c-.015.2.064.731.99.745.472.008 2.821 0 2.85 0v-4.8h1.92c.008 0 0 5.968 0 5.993.01 1.472-1.828 1.662-2.673 1.687h-5.006v-.96h4.801c1.088-.115.959-.714.959-.896v-.064H16.19c-1.67-.015-2.735-.751-2.747-1.59-.002-.078.036-4.134-.002-4.17z"/><path fill="#f57f17" d="M22.081 35.041h4.807c.63 0 1.242-.132 1.728-.36.81-.372 1.144-.875 1.144-1.536v-1.368c0-1.476-1.83-1.536-2.88-1.536h-1.92c-.755 0-.87-.456-.96-.96v-.96c.09-.384.258-.9.923-.96h4.836v-.96h-4.566c-.755 0-3.114.09-3.114 1.92v1.187c0 .84.738 1.524 2.34 1.692.18.012.36.024.539.024 0 0 1.866-.036 1.92-.024 1.08 0 .96.84.96.96v.96c0 .132-.03.96-.971.96h-4.789v.961zM40.32 33.08c0 1.159.655 1.809 2.392 1.939.162.011.325.021.488.021H48v-.96h-4.435c-.991 0-1.325-.416-1.325-1.011V26.4h-1.92v6.68zM30.704 33.121v-4.8c0-1.02.5-1.724 1.916-1.92h4.644c1.416.196 2.08.899 2.08 1.92v4.782c0 .827-.215 1.271-.916 1.559L39.916 36h-2.16l-1.07-.96h-1.257l-2.136.012c-.309 0-.635-.043-.993-.141-1.074-.293-1.596-.857-1.596-1.79zm1.92 0c.098.467.473.96 1.14.96h1.864l-1.068-.96h2.175l.519.482s.186-.152.186-.482c0-.33-.016-4.8-.016-4.8-.098-.434-.538-.96-1.188-.96h-2.471c-.749 0-1.14.548-1.14 1.058l-.001 4.702z"/><path fill="#00796b" d="M46.199 25.389c-1.031-.028-1.818.068-2.491.351-.191.081-.496.083-.528.323.105.11.121.275.205.41.16.26.432.609.674.791.265.2.538.414.821.587.504.307 1.067.483 1.553.791.286.181.57.411.85.615.138.102.23.259.41.323v-.029c-.094-.12-.119-.285-.205-.411l-.381-.381a6.246 6.246 0 0 0-1.348-1.289c-.401-.288-1.298-.677-1.466-1.143l-.03-.03c.284-.032.617-.135.879-.205.441-.118.834-.087 1.289-.205l.615-.176v-.117c-.23-.236-.395-.548-.645-.762a18.971 18.971 0 0 0-2.11-1.583c-.409-.258-.915-.426-1.348-.645-.146-.074-.402-.112-.498-.234-.228-.29-.351-.659-.527-.996a37.014 37.014 0 0 1-1.055-2.227c-.223-.508-.368-1.01-.645-1.466-1.331-2.188-2.764-3.509-4.982-4.807-.472-.276-1.041-.385-1.642-.528l-.968-.059c-.197-.083-.401-.323-.587-.44-.735-.465-2.621-1.475-3.165-.147-.344.838.514 1.656.821 2.081.215.298.491.632.645.968.101.22.119.441.205.674.213.574.55 1.228.826 1.759.139.269.293.551.469.791.108.147.293.212.323.44-.181.253-.191.646-.293.968-.458 1.445-.285 3.24.381 4.308.204.328.686 1.032 1.348.762.579-.236.45-.967.615-1.612.037-.146.014-.253.088-.351v.03c.176.351.351.704.528 1.055.391.629 1.084 1.286 1.67 1.73.304.23.544.628.938.762v-.03h-.03c-.076-.119-.196-.168-.293-.264a6.666 6.666 0 0 1-.674-.762 17.845 17.845 0 0 1-1.436-2.345c-.205-.395-.384-.829-.557-1.231-.067-.155-.066-.389-.205-.469-.19.294-.468.532-.615.879-.234.555-.265 1.233-.351 1.934-.052.018-.029.006-.059.029-.408-.099-.552-.518-.704-.879-.384-.912-.455-2.38-.117-3.429.087-.272.482-1.127.323-1.378-.076-.251-.328-.396-.468-.587a4.58 4.58 0 0 1-.469-.821c-.314-.711-.612-1.538-.943-2.257-.158-.344-.425-.691-.645-.996-.243-.338-.516-.587-.704-.996-.067-.145-.158-.378-.059-.528.032-.101.076-.143.176-.176.17-.132.643.043.821.117.47.195.862.381 1.26.645.191.127.384.372.615.44h.264c.413.095.875.03 1.26.147.682.207 1.292.529 1.846.879a11.428 11.428 0 0 1 4.016 4.397c.152.292.218.57.351.879.27.624.611 1.266.879 1.876.268.609.53 1.223.909 1.73.2.266.97.409 1.319.557.245.104.647.211.879.351.444.268.874.587 1.289.879.212.147.851.468.883.733z"/><path fill="#00796b" d="M33.098 14.223a2.055 2.055 0 0 0-.528.059v.03h.03c.103.21.283.347.41.528l.293.615.029-.029c.181-.128.265-.332.264-.645-.073-.077-.084-.173-.147-.264-.084-.123-.246-.192-.351-.294z"/></svg>