<svg xmlns="http://www.w3.org/2000/svg" width="50" height="50" viewBox="0 0 48 48"><path fill="#3949ab" d="M24.072 3.072c-11.046 0-20 8.954-20 20s8.954 20 20 20 20-8.954 20-20-8.954-20-20-20z"/><path fill="#fff" d="M20.152 40.823c1.458-.54 2.692-2.374 2.615-3.597-.737.886-1.539 1.83-2.312 2.798-.148.185-.181.463-.303.799zm.148-3.864c-.207-.104-.422-.193-.62-.313-2.84-1.72-5.062-4.015-6.429-7.073-.571-1.277-.805-2.624-.601-4.034.198-1.371.763-2.596 1.531-3.711 1.196-1.736 2.473-3.415 3.705-5.125 1.538-2.136 2.864-4.383 3.503-6.972.162-.656.263-1.327.393-1.991-.226.6-.368 1.218-.574 1.812-.659 1.899-1.878 3.421-3.312 4.778-1.641 1.553-3.365 3.021-4.96 4.618-3.329 3.335-3.633 7.851-1.889 11.633 1.799 3.903 5.22 5.626 9.194 6.473l.059-.095z"/><path fill="#fff" d="M17.395 21.499c-1.005 1.694-1.327 3.55-1.081 5.492.318 2.513 1.441 4.662 3.087 6.551.708.813 1.482 1.558 2.453 2.059.18.093.384.139.622.222-.043-.762-.361-1.311-.671-1.861-.581-1.031-1.203-2.041-1.747-3.092-1.127-2.179-1.561-4.483-1.111-6.923.224-1.213.816-2.273 1.377-3.345.822-1.571 1.458-3.218 1.76-4.961a96.03 96.03 0 0 0 .813-5.928c.135-1.229.13-2.474.188-3.711A.678.678 0 0 0 23.039 6c-.132 1.143-.241 2.29-.399 3.429-.375 2.698-1.152 5.274-2.515 7.639-.866 1.503-1.845 2.94-2.73 4.431z"/><path fill="#fff" d="M36.995 22.187c-.916-1.655-2.189-3.018-3.683-4.141-1.88-1.414-3.819-2.749-5.76-4.078-1.084-.743-1.889-1.687-2.33-2.916-.346-.964-.619-1.955-.917-2.907-.004.055-.014.15-.016.245-.052 3.415-.529 6.776-1.2 10.119-.422 2.103-.82 4.218-1.081 6.346-.399 3.264.192 6.415 1.327 9.486.23.622.536.959 1.202 1.075.768.134 1.592.31 2.114.933.591.705 1.246.794 2.041.528.156-.052.321-.078.475-.134 3.784-1.354 6.549-3.842 8.129-7.549 1.003-2.349.961-4.726-.301-7.007zm-2.778 8.328c-1.244 1.754-2.868 3.107-4.486 4.281.682-1.097 1.493-2.234 2.133-3.461 1.904-3.648 1.561-7.168-.896-10.43-.983-1.304-2.159-2.462-3.257-3.679-.683-.757-1.397-1.485-2.067-2.252-.341-.391-.598-.848-.663-1.436.097.063.159.093.208.137 2.328 2.087 4.695 4.133 6.961 6.286.887.843 1.631 1.873 2.295 2.911 1.647 2.572 1.54 5.149-.228 7.643zM23.44 38.402c.153.63.33 1.255.51 1.933.183-.638.385-1.221.514-1.82.134-.619.025-1.198-.524-1.653-.423.446-.645.937-.5 1.54zm2.14-.384c-.2-.25-.336-.55-.533-.882-.086 1.475 1.164 3.337 2.56 3.864.027-.467-.112-.739-.537-1.219a46.397 46.397 0 0 1-1.49-1.763z"/></svg>