<svg xmlns="http://www.w3.org/2000/svg" width="50" height="50" viewBox="0 0 48 48"><path fill="#78909c" d="M6 11a4 4 0 0 1 4-4h27a4 4 0 0 1 4 4v27a4 4 0 0 1-4 4H10a4 4 0 0 1-4-4V11z"/><path fill="#455a64" d="M41 11a4 4 0 0 0-4-4h-.115l-7.306 6.745-3.164-3.16-1.414-1.412-1.413 1.412-3.002 3-1.324 1.323 1.233 1.409 7.002 8 1.311 1.498 1.504-1.304L41 15.247V11z"/><path fill="#fff" d="M16.636 35.19c0-.479-.174-.854-.522-1.122-.348-.269-.96-.546-1.835-.833-.875-.288-1.591-.564-2.147-.833-1.807-.867-2.711-2.059-2.711-3.575 0-.755.225-1.42.676-1.998s1.087-1.027 1.911-1.347c.824-.321 1.75-.482 2.779-.482 1.002 0 1.902.175 2.697.524.796.349 1.413.847 1.854 1.492.441.646.662 1.155.662 1.984h-3.354c0-.555-.174-.756-.522-1.062-.348-.306-.819-.458-1.413-.458-.6 0-1.074.129-1.423.388-.348.26-.522.588-.522.987 0 .35.192.667.575.949.383.284 1.057.578 2.022.881.964.302 1.757.629 2.376.978 1.508.849 2.261 2.019 2.261 3.51 0 1.19-.46 2.127-1.379 2.807-.922.68-2.183 1.02-3.786 1.02-1.13 0-2.154-.199-3.071-.594-.916-.396-1.606-.939-2.069-1.629S9 34.898 9 34h3.372c0 .73.194 1.665.579 2.01.386.347 1.015.52 1.883.52.555 0 .995-.116 1.318-.351.323-.234.484-.565.484-.989zM26.949 39c-1.475 0-2.67-.441-3.581-1.324-.911-.882-1.368-2.029-1.368-3.443v-.25c0-.987.181-1.856.546-2.611a3.999 3.999 0 0 1 1.595-1.752c.697-.413 1.527-.62 2.487-.62 1.351 0 2.417.421 3.199 1.261.782.841 1.173 2.012 1.173 3.516V35h-5.953c.107.54.341.91.702 1.218.36.31.83.464 1.404.464.946 0 1.687-.332 2.221-.999l1.369 1.623c-.374.518-.902.929-1.586 1.234a5.33 5.33 0 0 1-2.208.46zm-.338-7.683c-.876 0-1.398.518-1.563 1.683h3.021v-.168c.012-.481-.11-.854-.364-1.118-.254-.264-.62-.397-1.094-.397z"/><path fill="#66bb6a" d="m22 15 3.002-3 4.523 4.518L42 5l2 5-14.998 13z"/></svg>