<svg xmlns="http://www.w3.org/2000/svg" viewBox="0 0 80 80" width="50px" height="50px">
    <path fill="#8bb7f0" d="M4.5 4.5H75.5V75.5H4.5z" />
    <path fill="#4e7ab5" d="M75,5v70H5V5H75 M76,4H4v72h72V4L76,4z" />
    <g>
        <path fill="#fff"
            d="M39.555,58.5c-5.024,0-9.965-1.532-12.634-3.051l-0.301-0.171l1.507-9.397l0.631,0.371 c2.901,1.707,7.484,3.095,10.217,3.095c1.128,0,3.02-0.236,3.02-1.817c0-1.065-0.792-1.964-4.836-3.405 c-6.03-2.189-10.045-4.947-10.045-11.298c0-3.497,1.28-6.403,3.702-8.405c2.331-1.912,5.583-2.922,9.407-2.922 c5.091,0,8.912,1.311,11.22,2.41l0.339,0.162l-1.504,9.279l-0.606-0.297c-2.231-1.095-5.588-2.399-8.914-2.399 c-1.073,0-2.352,0.253-2.352,1.46c0,1.17,1.726,2.038,4.708,3.14c6.306,2.255,10.218,4.955,10.218,11.429 c0,3.893-1.338,6.918-3.978,8.992C47.045,57.522,43.655,58.5,39.555,58.5z" />
        <path fill="#4e7ab5"
            d="M40.223,22c5.302,0,9.134,1.47,11.005,2.361l-1.337,8.243c-2.361-1.158-5.792-2.451-9.134-2.451 c-1.827,0-2.851,0.713-2.851,1.96c0,1.47,1.782,2.406,5.035,3.609c6.104,2.183,9.891,4.767,9.891,10.96 c0,3.743-1.292,6.639-3.787,8.599C46.817,57.064,43.52,58,39.554,58c-4.99,0-9.802-1.515-12.386-2.985l1.337-8.332 c3.03,1.782,7.663,3.163,10.47,3.163c2.272,0,3.52-0.847,3.52-2.317c0-1.515-1.292-2.495-5.168-3.876 c-6.015-2.183-9.713-4.767-9.713-10.827c0-3.342,1.203-6.104,3.52-8.02C33.361,22.98,36.48,22,40.223,22 M40.223,21 c-3.941,0-7.303,1.049-9.723,3.034c-2.543,2.103-3.886,5.143-3.886,8.793c0,6.641,4.146,9.507,10.372,11.767 c3.756,1.338,4.51,2.116,4.51,2.936c0,1.088-1.37,1.317-2.52,1.317c-2.658,0-7.127-1.357-9.963-3.025l-1.262-0.743l-0.232,1.446 l-1.337,8.332l-0.11,0.685l0.603,0.343C29.4,57.435,34.44,59,39.554,59c4.215,0,7.713-1.016,10.115-2.937 c2.76-2.168,4.162-5.326,4.162-9.38c0-6.745-4.219-9.636-10.554-11.902c-2.266-0.838-4.371-1.744-4.371-2.667 c0-0.637,0.623-0.96,1.851-0.96c3.399,0,6.905,1.471,8.693,2.348l1.212,0.594l0.216-1.332l1.337-8.243l0.12-0.74l-0.677-0.322 C49.302,22.337,45.407,21,40.223,21L40.223,21z" />
    </g>
</svg>