<svg xmlns="http://www.w3.org/2000/svg" width="50" height="50" viewBox="0 0 48 48"><path fill="#455a64" d="M24.072 4.072c-11.046 0-20 8.954-20 20s8.954 20 20 20 20-8.954 20-20-8.954-20-20-20zm11.344 11.25c-.971.034-1.673-.538-1.673-1.408 0-.723.453-1.191.448-1.374-.019-.547-.86-.569-1.089-.557-3.15.101-3.877 4.096-4.549 7.505l-.262 1.424c1.814.262 3.102-.06 3.821-.52 1.012-.647-.14-1.193-.119-1.948.026-.951.888-1.399 1.438-1.415.77-.018 1.566.816 1.566 1.897 0 1.321-2.133 3.22-5.69 3.144-.434-.01-.831-.04-1.205-.083l-.706 3.803c-.601 2.766-1.4 6.546-4.256 9.844-2.453 2.876-4.943 3.324-6.059 3.36-2.086.071-3.992-1.212-4.041-2.675-.048-1.419 1.161-2.351 1.997-2.351 1.221 0 1.928.888 1.959 1.807.028.775-.383 1.017-.654 1.163-.182.144-.456.29-.446.61.007.137.156.451.619.436.882-.03 1.775-.254 2.446-.737 2.032-1.67 2.782-4.403 3.807-9.701l.215-1.283c.349-1.724.9-4.08 1.491-5.993-1.433-1.064-2.26-2.337-4.187-2.852-1.321-.353-1.918-.24-2.484.466-.301.375-.405.801-.405 1.215 0 1.59 3.099 4.722 3.099 6.62 0 .224-.026.454-.068.694-.428 2.498-3.446 4.415-7.014 3.333-3.045-.927-3.713-3.079-3.346-4.252.322-1.03 1.291-1.377 2.104-1.132.87.265 1.25 1.368.921 2.29-.03.083-.042.114-.134.306-.101.22-.288.414-.369.672-.197.628.678 1.074 1.287 1.26 1.363.414 2.691-.289 3.03-1.376.312-.999-.14-1.696-.407-1.964 0 0-2.527-3.272-2.527-5.082 0-.395.037-.808.169-1.23.245-.781.758-1.612 1.505-2.162 1.575-1.158 3.132-1.302 4.764-.84 2.11.6 3.093 1.93 4.408 2.993.736-2.128 1.539-3.637 3.074-5.394 1.384-1.603 3.247-2.762 5.378-2.836 2.13-.068 3.676.892 3.73 2.4.023.643-.287 1.881-1.586 1.923z"/></svg>