<svg xmlns="http://www.w3.org/2000/svg" width="50" height="50" viewBox="0 0 48 48"><path fill="#ffca28" d="M.5 38.5S9 21 27 18c7 9 16 19 16 19s4.5-.5 4.5 2.5h-5c-27-14-37.104-9.178-37-1h-5z"/><path fill="#212121" d="M48 40h-5.622l-.108-.056C20.933 28.88 12.303 30.587 9.058 32.588 7.024 33.842 5.967 35.884 6 38.493l.006.507H-.299l.349-.719c.086-.177 8.821-17.767 26.868-20.774l.294-.049.183.235c6.393 8.219 14.559 17.387 15.813 18.789.727-.045 2.757-.056 3.929.994.572.513.863 1.194.863 2.024v.5zm-5.378-1h4.32a1.516 1.516 0 0 0-.472-.777c-1.079-.967-3.392-.728-3.416-.726l-.254.027-.172-.189c-.089-.1-8.934-9.94-15.839-18.792C11.516 21.241 3.159 34.721 1.333 38h3.673c.1-2.739 1.313-4.898 3.527-6.264 5.9-3.637 18.005-1.059 34.089 7.264z"/><path fill="#212121" d="M22 37h-4.664l-.132-.097c-.626-.459-15.292-11.344-11.151-19.627 1.845-3.691 5.35-3.464 7.448-3.323.368.025.706.047.999.047v1c-.313 0-.672-.023-1.065-.049-2.082-.137-4.939-.325-6.488 2.772-3.574 7.149 9.28 17.184 10.72 18.277h3.262a1.109 1.109 0 0 0-.44-.59c-.57-.392-1.537-.385-2.143-.151l-.363.14-.225-.317c-2.958-4.176-.814-9.544-.721-9.771l.926.379c-.02.049-1.92 4.828.412 8.516.834-.201 1.922-.141 2.68.381.431.295.945.867.945 1.913v.5z"/><path fill="#ffe082" d="M43.5 6.5c-2.208 1.583-4 3-4 5-1.625-.625-2.844-.844-4.906-.859-2.25-.017-3.469.234-5.094.859 0-2-1.625-3.375-4-5-3 18 9 23 9 23s12-5 9-23z"/><path fill="#212121" d="m34.5 30.042-.192-.08c-.124-.052-12.331-5.363-9.301-23.544l.129-.773.646.442c1.995 1.365 3.808 2.761 4.157 4.721 1.496-.514 2.701-.697 4.658-.667 1.843.014 3.055.188 4.464.668.338-1.844 2.02-3.189 4.147-4.715l.652-.468.132.792c3.03 18.181-9.177 23.492-9.301 23.544l-.191.08zM25.87 7.368c-2.288 15.72 7.099 20.856 8.63 21.583 1.531-.727 10.911-5.858 8.632-21.565C41.315 8.728 40 9.945 40 11.5v.728l-.68-.261c-1.586-.61-2.736-.812-4.73-.826-2.264-.032-3.451.266-4.91.826l-.68.261V11.5c0-1.525-1.095-2.678-3.13-4.132zM21 16c-4 2-7.688 1.521-6.958-1.375C14.75 11.75 19 14 21 16zM15 26l-1-3-1.312 1.406zM15.375 22.375 19 24l-1.5-2.656zM18 21l5 3-1.656-4.469zM36.719 29.875 35 32l3-1zM38 32l-2 2 3-1z"/><path fill="#212121" d="M25.375 15.844 28 17l-2.375.375zM25.938 18.594l1.968.5-1.718.594zM44 15.844 41 17l2.75.375zM43.438 18.594 41 19l2.188.688zM28.375 12.5s-2.156-.75-2.688-5.75c.938.719 4.203 3.453 4.172 5.141-1.125.437-1.484.609-1.484.609zM40.637 12.5s2.156-.75 2.688-5.75c-.938.719-4.203 3.453-4.172 5.141 1.124.437 1.484.609 1.484.609zM11.438 30.969s2.938-.844 5.25-.375c.25 1.563.375 3.25 1.719 4.281 1.063-.219 2.875-.5 3.219 1.594-1.313-.031-3.906.063-3.906.063s-4.72-3.188-6.282-5.563zM31.813 20.854l-.439-.238c.911-1.675 1.373-3.186 1.373-4.491 0-.998-.278-1.604-.826-1.803-.864-.313-2.172.427-2.729 1.096l-.385-.32c.653-.783 2.157-1.656 3.283-1.245.527.19 1.156.74 1.156 2.272.001 1.389-.481 2.98-1.433 4.729z"/><path fill="#212121" d="M30.5 17.25h9v.5h-9zM25 21.25h5v.5h-5zM25 23.25h5v.5h-5zM39 21.25h5v.5h-5zM39 23.25h5v.5h-5zM31.607 20.813l-.005-.5 5.895-.063.006.5z"/><path fill="#212121" d="M37.14 20.772c-.038-.105-.919-2.598.219-4.217.607-.866 1.665-1.306 3.142-1.306v.5c-1.305 0-2.224.367-2.732 1.093-.989 1.409-.166 3.736-.157 3.76l-.472.17zM31.343 20.693l.312-.39 5 4-.312.39z"/><path fill="#212121" d="m32.343 24.305 5-4 .313.39-5 4zM33 11l2 4 1-4z"/></svg>