<svg xmlns="http://www.w3.org/2000/svg" width="50" height="50" viewBox="0 0 48 48"><path fill="#AFB42B" d="M6 25s4.208 2 18 2 18-2 18-2v-4H6v4z"/><path fill="#FFCC80" d="M40 25c1.688.625 2 2 2 2 0 4.188-1.311 5.678-2 6-.938.438-4 1-4 1l1-12h3v3zM8 25c-1.688.625-2 2-2 2 0 4.188 1.311 5.678 2 6 .938.438 4 1 4 1l-1-12H8v3z"/><path fill="#FFE0B2" d="M24 11a15 17 0 1 0 0 34 15 17 0 1 0 0-34Z"/><path fill="#FFB74D" d="M24 36a4 3 0 1 0 0 6 4 3 0 1 0 0-6Z"/><path fill="#BCAAA4" d="m40 22-2 9-3 2-7-2-2-4h-4l-2 4-7 2-3-2-2-9s6.375-2 16-2 16 2 16 2z"/><path fill="#263238" d="M34 28.89c-.58-.294-1.214.078-2.369.101-.86.032-1.581.042-1.628-1.372-.047-1.416.502-2.588 1.362-2.619.859-.031 1.644 1.09 1.749 2.503.029.39-.012.673-.104.884.799-.099.982.469.99.503zm-15-1.168c.013 1.373-.714 1.29-1.589 1.299a7.478 7.478 0 0 1-.256.004 5.354 5.354 0 0 1-.282.002c-.85-.002-1.391-.04-1.872.219.011-.03.222-.501.985-.693-.084-.185-.137-.443-.151-.801-.053-1.373.794-2.743 1.669-2.752.874-.008 1.484 1.103 1.497 2.476l-.001.246z"/><path fill="#FFF" d="M18 26.5a.5.5 0 1 1-1 0 .5.5 0 0 1 1 0zm13.5-.5a.5.5 0 1 0 0 1 .5.5 0 0 0 0-1z"/><path fill="#546E7A" d="M39.749 23.601C39.482 23.517 34.75 21 24 21S8.518 23.517 8.251 23.601l-.876.274 1.736 7.734 3.719 2.479 7.867-2.248L22.618 28h2.764l1.921 3.841 7.867 2.248 3.719-2.479 1.736-7.734-.876-.275zm-2.638 6.79-2.281 1.521-6.133-1.752L26.618 26h-5.236l-2.079 4.159-6.133 1.752-2.281-1.521-1.155-5.124C11.78 24.743 15.125 23 24 23s12.22 1.743 14.267 2.267l-1.156 5.124z"/><path fill="#D4E157" d="M8 19c0-8.837 7.163-16 16-16s16 7.163 16 16c0 0-8.163-2-17-2S8 19 8 19z"/><path fill="#D4E157" d="M43 17s-4.785-4-19-4-19 4-19 4c0 5.216 1 8 1 8s3.806-4 18-4 18 4 18 4 1-3.036 1-8z"/><path fill="#BF360C" d="m40 34-3 5a2.378 2.378 0 0 1-1.323.966l-5.027 1.943a2.374 2.374 0 0 1-2.077-.384L24 39l-4.572 2.525a2.374 2.374 0 0 1-2.077.384l-5.027-1.943A2.377 2.377 0 0 1 11 39l-3-5 4 2h4l5.151-3.104A2.99 2.99 0 0 0 24 35a2.99 2.99 0 0 0 2.838-2.07L32 36h4l4-2zM26.758 21.055A68.764 68.764 0 0 0 24 21c-9.94 0-14.782 1.961-16.793 3.136C6.487 25.261 3.653 29.768 3 32c4.033-5.768 11.585-9.073 15.104-10.364-1.157.847-3.243 2.461-5.104 4.364 3.688-2.553 12.217-4.591 13.758-4.945zm1.396.072C27.232 22.174 25.528 23.692 22 26c5.959-.179 12.358-3.645 12.942-3.968-1.816-.402-4.054-.734-6.788-.905zM20 8v3h2v-1h1v5h-1v2h4v-2h-1v-5h1v1h2V8z"/><path fill="#AFB42B" d="M39.531 15.253a16.341 16.341 0 0 0-.653-2.111c-1.35-.464-2.834-1.073-5.878-1.509v5.88c-1.836-.182-5.622-.513-9-.513s-7.164.331-9 .514v-5.853a43.45 43.45 0 0 0-5.888 1.509 16.376 16.376 0 0 0-.643 2.083c1.164-.432 2.661-.876 4.531-1.255v6.001c2.775-.583 6.371-.999 11-.999s8.225.416 11 .999v-6.001c1.869.379 3.367.823 4.531 1.255z"/></svg>