<svg xmlns="http://www.w3.org/2000/svg" width="50" height="50" viewBox="0 0 48 48"><path fill="#ce93d8" d="M44 11.11v25.78c0 1.27-.79 2.4-1.98 2.82l-8.82 4.14L34 33V15l-.8-10.85 8.82 4.14A2.98 2.98 0 0 1 44 11.11z"/><path fill="#8e24aa" d="m4.416 33.815 3.159 1.95c.733.44 1.664.365 2.318-.185L34 15.938V5.353c0-1.198-1.482-1.758-2.275-.86L9 29.873l-4.584 3.942z"/><path fill="#ab47bc" d="m4.416 14.185 3.159-1.95a2.001 2.001 0 0 1 2.318.185L34 32.063v10.585c0 1.198-1.482 1.758-2.275.86L9 18.127l-4.584-3.942z"/><path fill="#6a1b9a" d="M9 18.13v11.74l-3.2 3.74c-.58.76-1.8.35-1.8-.61V15c0-.96 1.22-1.37 1.8-.61L9 18.13z"/></svg>