<svg xmlns="http://www.w3.org/2000/svg" width="50" height="50" viewBox="0 0 48 48"><path fill="#e74c16" d="m37.183 34.974-9.782 5.478-11.414.028L6.59 14.148l26.088-6.777z"/><path fill="#f76418" d="m20.294 13.09 6.551 25.222 7.838-4.375-3.893-23.573z"/><path fill="#efedee" d="m17.593 18.264-1.582 5.729 4.171 4.235 6.566-1.706.394 1.516a8.83 8.83 0 0 1-5.072 3.56c-3.981 1.034-8.024-.808-9.957-4.226l-8.056 2.093-1.152-4.433 8.056-2.093c.025-3.927 2.661-7.504 6.641-8.538a8.823 8.823 0 0 1 6.163.641l.394 1.516-6.566 1.706zM1.152 30.219l1.796-.467-1.152-4.432L0 25.786l1.152 4.433z"/><path fill="#bbb8c2" d="M22.974 30.057c-3.981 1.034-8.024-.808-9.957-4.226l-8.056 2.093-.834-3.21-1.207.314 1.135 4.437 8.056-2.093c1.933 3.418 5.976 5.26 9.957 4.226a8.828 8.828 0 0 0 5.072-3.56l-.088-.337a8.78 8.78 0 0 1-4.078 2.356zm-4.475-13.334-.389 1.407 6.049-1.572-.318-1.223zM2.057 28.679l-.834-3.21L0 25.786l1.152 4.433 1.796-.466-.318-1.223z"/><path fill="#efedee" d="m21.253 24.058-.394-1.516a8.83 8.83 0 0 1 5.072-3.56c3.981-1.034 8.024.808 9.957 4.226l8.056-2.093 1.152 4.433-8.056 2.093c-.025 3.927-2.661 7.504-6.641 8.538a8.823 8.823 0 0 1-6.163-.641l-.394-1.516 6.566-1.706 1.582-5.729-4.171-4.235-6.566 1.706zm25.595-3.697-1.796.467 1.152 4.433L48 24.794l-1.152-4.433z"/><path fill="#bbb8c2" d="M28.857 35.274c3.981-1.034 6.616-4.611 6.641-8.538l8.056-2.093-.834-3.21 1.207-.313 1.168 4.429-8.056 2.093c-.025 3.927-2.661 7.504-6.641 8.538a8.823 8.823 0 0 1-6.163-.641l-.088-.337a8.82 8.82 0 0 0 4.71.072zm-2.579-13.827 1.023 1.039-6.048 1.572-.318-1.223zm20.181 2.442-.833-3.21 1.222-.318L48 24.794l-1.796.466-.318-1.222z"/></svg>