<svg xmlns="http://www.w3.org/2000/svg" width="50" height="50" viewBox="0 0 48 48"><path fill="#039be5" d="M32.876 5H15.124a3.3 3.3 0 0 0-2.816 1.65L3.422 22.34a3.474 3.474 0 0 0 0 3.32l8.886 15.69c.563 1 1.68 1.65 2.816 1.65h17.752a3.3 3.3 0 0 0 2.816-1.65l8.886-15.69a3.474 3.474 0 0 0 0-3.32L35.692 6.65A3.3 3.3 0 0 0 32.876 5z"/><path fill="#fff" d="M32.612 34h-3.051a.41.41 0 0 1-.352-.217l-5.161-9.585c-.029-.05-.038-.109-.048-.158-.01.049-.019.109-.048.158l-5.18 9.585a.388.388 0 0 1-.333.217h-3.051c-.276 0-.485-.366-.342-.623L20.093 24l-5.047-9.397c-.124-.227.028-.553.266-.603h3.127c.133 0 .266.089.333.208l5.18 9.585a.455.455 0 0 1 .048.158.435.435 0 0 1 .048-.158l5.161-9.585a.411.411 0 0 1 .352-.208h3.051c.266 0 .466.356.342.603L27.907 24l5.047 9.377c.143.257-.067.623-.342.623z"/></svg>