<svg width="28" height="22" viewBox="0 0 28 22" fill="none" xmlns="http://www.w3.org/2000/svg">
    <g clip-path="url(#clip0_9856_12083)">
        <path
            d="M23.449 2.76486C21.7211 1.97205 19.8683 1.38795 17.931 1.05341C17.8958 1.04695 17.8605 1.06308 17.8423 1.09536C17.604 1.51918 17.3401 2.07209 17.1553 2.50667C15.0716 2.19473 12.9986 2.19473 10.9577 2.50667C10.7728 2.06243 10.4993 1.51918 10.2599 1.09536C10.2417 1.06416 10.2065 1.04803 10.1712 1.05341C8.23503 1.38688 6.38218 1.97098 4.65327 2.76486C4.6383 2.77131 4.62547 2.78208 4.61695 2.79605C1.10249 8.04659 0.139731 13.1681 0.612028 18.2261C0.614165 18.2508 0.628056 18.2745 0.647291 18.2895C2.96603 19.9923 5.21213 21.0261 7.41652 21.7113C7.4518 21.7221 7.48918 21.7092 7.51163 21.6801C8.03308 20.968 8.49791 20.2172 8.89645 19.4276C8.91997 19.3814 8.89752 19.3265 8.84945 19.3082C8.11216 19.0285 7.41011 18.6875 6.73479 18.3003C6.68137 18.2691 6.67709 18.1927 6.72623 18.1561C6.86835 18.0496 7.0105 17.9388 7.14619 17.8269C7.17075 17.8065 7.20496 17.8022 7.23382 17.8151C11.6704 19.8407 16.4735 19.8407 20.8577 17.8151C20.8866 17.8011 20.9208 17.8054 20.9464 17.8259C21.0822 17.9377 21.2243 18.0496 21.3675 18.1561C21.4166 18.1927 21.4134 18.2691 21.36 18.3003C20.6847 18.695 19.9826 19.0285 19.2443 19.3071C19.1962 19.3254 19.1748 19.3814 19.1983 19.4276C19.6054 20.2161 20.0702 20.9669 20.5821 21.6791C20.6035 21.7092 20.6419 21.7221 20.6772 21.7113C22.8923 21.0261 25.1383 19.9923 27.4571 18.2895C27.4774 18.2745 27.4902 18.2519 27.4924 18.2271C28.0576 12.3795 26.5456 7.30006 23.4842 2.79712C23.4768 2.78208 23.464 2.77131 23.449 2.76486ZM9.55898 15.1463C8.22327 15.1463 7.12267 13.92 7.12267 12.414C7.12267 10.908 8.20192 9.68169 9.55898 9.68169C10.9267 9.68169 12.0166 10.9187 11.9952 12.414C11.9952 13.92 10.916 15.1463 9.55898 15.1463ZM18.5668 15.1463C17.2311 15.1463 16.1305 13.92 16.1305 12.414C16.1305 10.908 17.2097 9.68169 18.5668 9.68169C19.9345 9.68169 21.0244 10.9187 21.0031 12.414C21.0031 13.92 19.9345 15.1463 18.5668 15.1463Z"
            fill="#5865F2" />
    </g>
    <defs>
        <clipPath id="clip0_9856_12083">
            <rect width="27.1091" height="21" fill="white" transform="translate(0.5 0.894775)" />
        </clipPath>
    </defs>
</svg>