<svg width="26" height="26" viewBox="0 0 26 26" fill="none" xmlns="http://www.w3.org/2000/svg">
    <g clip-path="url(#clip0_9856_12099)">
        <path
            d="M0.418945 13.3948C0.418945 6.49075 6.01492 0.894775 12.9189 0.894775C19.823 0.894775 25.4189 6.49075 25.4189 13.3948C25.4189 20.2988 19.823 25.8948 12.9189 25.8948C6.01492 25.8948 0.418945 20.2988 0.418945 13.3948ZM1.58179 13.3948C1.58179 19.6462 6.66755 24.7319 12.9189 24.7319C19.1703 24.7319 24.2561 19.6462 24.2561 13.3948C24.2561 7.14338 19.1703 2.05762 12.9189 2.05762C6.66755 2.05762 1.58179 7.14338 1.58179 13.3948ZM7.2368 20.8416C6.40775 20.8261 5.8364 20.2712 5.61886 19.8286C5.40132 19.386 5.3967 18.811 5.60487 18.3737C5.81304 17.9363 9.81584 9.85784 9.94818 9.58C10.0805 9.30216 10.0663 9.31741 10.0682 9.00781C10.0702 8.69822 10.0682 5.41898 10.0682 5.41898C10.0682 5.41898 9.74967 5.41898 9.55829 5.41898C9.09564 5.41996 8.89027 5.08322 8.88789 4.81265C8.88551 4.54796 9.06892 4.1915 9.53478 4.19038C9.93042 4.1894 10.626 4.19038 11.2975 4.19038L11.2923 6.07175H12.7067V6.6873H11.2926V7.31755H12.707V7.93003H11.2926V9.50991C11.2926 9.6694 11.2705 9.67359 11.1917 9.84049C11.113 10.0074 6.88971 18.5544 6.75694 18.8377C6.62418 19.121 6.89194 19.6011 7.28968 19.6085C7.68741 19.616 18.0467 19.6063 18.5516 19.6063C19.0565 19.6063 19.1951 19.0047 19.0961 18.81C18.997 18.6153 14.6817 9.90527 14.6067 9.74019C14.5317 9.57511 14.5409 9.58826 14.5447 9.31629C14.5485 9.04433 14.5447 4.19024 14.5447 4.19024C14.5447 4.19024 15.7311 4.19024 16.3494 4.19024C16.7132 4.19024 16.9583 4.47871 16.9583 4.79489C16.9583 5.09441 16.7242 5.39645 16.3494 5.39645C16.1843 5.40009 15.7704 5.39645 15.7704 5.39645C15.7704 5.39645 15.7704 8.98123 15.7704 9.18325C15.7704 9.38526 15.828 9.42891 15.9592 9.69724C16.0905 9.96556 19.8998 17.6397 20.1587 18.1593C20.4177 18.6789 20.5085 19.4257 20.0451 20.0466C19.5818 20.6674 19.0346 20.816 18.599 20.8195C18.2445 20.8226 11.4897 20.8454 8.54122 20.8454C7.8669 20.8454 7.39222 20.8441 7.23792 20.8413L7.2368 20.8416ZM12.4697 17.7817C12.4697 17.6981 12.4945 17.6164 12.541 17.5469C12.5874 17.4773 12.6535 17.4231 12.7307 17.3911C12.808 17.3591 12.893 17.3508 12.975 17.3671C13.057 17.3834 13.1323 17.4237 13.1915 17.4828C13.2506 17.5419 13.2908 17.6172 13.3072 17.6993C13.3235 17.7813 13.3151 17.8663 13.2831 17.9435C13.2511 18.0208 13.1969 18.0868 13.1274 18.1333C13.0579 18.1797 12.9761 18.2045 12.8925 18.2045C12.837 18.2045 12.782 18.1936 12.7307 18.1723C12.6794 18.1511 12.6328 18.1199 12.5935 18.0806C12.5542 18.0414 12.5231 17.9947 12.5019 17.9434C12.4806 17.8921 12.4697 17.8371 12.4697 17.7816V17.7817ZM13.7274 17.693C13.7068 17.6725 13.6939 17.6454 13.691 17.6164C13.688 17.5874 13.6953 17.5582 13.7114 17.534C13.7276 17.5097 13.7517 17.4918 13.7796 17.4833C13.8075 17.4748 13.8374 17.4763 13.8644 17.4874C13.8913 17.4986 13.9136 17.5187 13.9273 17.5445C13.941 17.5702 13.9454 17.5999 13.9397 17.6285C13.934 17.657 13.9185 17.6828 13.896 17.7012C13.8734 17.7197 13.8451 17.7298 13.816 17.7297C13.7828 17.7296 13.751 17.7165 13.7274 17.693ZM11.8866 17.693C11.866 17.6725 11.8531 17.6454 11.8502 17.6164C11.8472 17.5874 11.8545 17.5582 11.8706 17.534C11.8868 17.5097 11.9109 17.4918 11.9388 17.4833C11.9667 17.4748 11.9966 17.4763 12.0236 17.4874C12.0505 17.4986 12.0728 17.5187 12.0865 17.5445C12.1002 17.5702 12.1046 17.5999 12.0989 17.6285C12.0932 17.657 12.0777 17.6828 12.0552 17.7012C12.0326 17.7197 12.0043 17.7298 11.9752 17.7297C11.942 17.7296 11.9102 17.7165 11.8866 17.693ZM14.2821 17.3609C14.1222 17.201 14.1264 16.9374 14.2915 16.7724C14.4566 16.6073 14.7201 16.6031 14.8802 16.763C15.0402 16.9229 15.0359 17.1865 14.8708 17.3517C14.8311 17.3915 14.7839 17.4232 14.7319 17.4448C14.6799 17.4664 14.6242 17.4775 14.5679 17.4776C14.5149 17.4779 14.4623 17.4676 14.4133 17.4475C14.3642 17.4274 14.3197 17.3977 14.2821 17.3602V17.3609ZM10.9406 17.3517C10.7755 17.1866 10.7714 16.923 10.9313 16.763C11.0912 16.6029 11.3549 16.6071 11.52 16.7724C11.685 16.9376 11.6892 17.201 11.5293 17.3609C11.4918 17.3984 11.4472 17.4281 11.3982 17.4482C11.3491 17.4683 11.2965 17.4786 11.2435 17.4783C11.1872 17.4782 11.1315 17.4671 11.0795 17.4455C11.0276 17.4239 10.9804 17.3922 10.9406 17.3524V17.3517ZM12.776 17.1038C12.776 17.0789 12.7834 17.0545 12.7972 17.0338C12.811 17.0131 12.8307 16.997 12.8537 16.9875C12.8767 16.9779 12.902 16.9754 12.9264 16.9803C12.9509 16.9852 12.9733 16.9971 12.9909 17.0148C13.0085 17.0324 13.0205 17.0548 13.0254 17.0792C13.0302 17.1036 13.0277 17.129 13.0182 17.152C13.0087 17.175 12.9925 17.1946 12.9718 17.2085C12.9511 17.2223 12.9268 17.2297 12.9019 17.2297C12.8685 17.2297 12.8365 17.2164 12.8128 17.1928C12.7892 17.1692 12.776 17.1372 12.776 17.1038ZM12.776 16.7504C12.776 16.7255 12.7834 16.7012 12.7972 16.6804C12.811 16.6597 12.8307 16.6436 12.8537 16.6341C12.8767 16.6245 12.902 16.6221 12.9264 16.6269C12.9509 16.6318 12.9733 16.6438 12.9909 16.6614C13.0085 16.679 13.0205 16.7014 13.0254 16.7258C13.0302 16.7503 13.0277 16.7756 13.0182 16.7986C13.0087 16.8216 12.9925 16.8413 12.9718 16.8551C12.9511 16.8689 12.9268 16.8763 12.9019 16.8763C12.8685 16.8763 12.8365 16.863 12.8128 16.8394C12.7892 16.8158 12.776 16.7838 12.776 16.7504ZM14.0243 16.6824C14.0036 16.6618 13.9907 16.6348 13.9878 16.6058C13.9849 16.5768 13.9921 16.5476 14.0083 16.5234C14.0244 16.4991 14.0485 16.4812 14.0764 16.4727C14.1043 16.4642 14.1342 16.4657 14.1612 16.4768C14.1881 16.4879 14.2104 16.5081 14.2241 16.5338C14.2379 16.5595 14.2423 16.5891 14.2366 16.6177C14.2309 16.6463 14.2155 16.672 14.1929 16.6905C14.1704 16.709 14.1421 16.7191 14.113 16.7191C14.0797 16.719 14.0479 16.7059 14.0243 16.6824ZM11.6099 16.6824C11.5892 16.6618 11.5764 16.6348 11.5734 16.6058C11.5705 16.5768 11.5778 16.5476 11.5939 16.5234C11.6101 16.4991 11.6341 16.4812 11.662 16.4727C11.6899 16.4642 11.7199 16.4657 11.7468 16.4768C11.7737 16.4879 11.796 16.5081 11.8097 16.5338C11.8235 16.5595 11.8279 16.5891 11.8222 16.6177C11.8165 16.6463 11.8011 16.672 11.7785 16.6905C11.756 16.709 11.7278 16.7191 11.6986 16.7191C11.6654 16.719 11.6335 16.7059 11.6099 16.6824ZM12.776 16.3956C12.776 16.3707 12.7834 16.3464 12.7972 16.3257C12.811 16.305 12.8307 16.2888 12.8537 16.2793C12.8767 16.2698 12.902 16.2673 12.9264 16.2721C12.9509 16.277 12.9733 16.289 12.9909 16.3066C13.0085 16.3242 13.0205 16.3466 13.0254 16.3711C13.0302 16.3955 13.0277 16.4208 13.0182 16.4438C13.0087 16.4668 12.9925 16.4865 12.9718 16.5003C12.9511 16.5141 12.9268 16.5215 12.9019 16.5215C12.8685 16.5215 12.8365 16.5083 12.8128 16.4846C12.7892 16.461 12.776 16.429 12.776 16.3956ZM13.7744 16.4324C13.7538 16.4118 13.7409 16.3848 13.738 16.3558C13.735 16.3268 13.7423 16.2976 13.7584 16.2734C13.7746 16.2491 13.7987 16.2312 13.8265 16.2227C13.8544 16.2142 13.8844 16.2157 13.9113 16.2268C13.9383 16.2379 13.9605 16.2581 13.9743 16.2838C13.988 16.3095 13.9924 16.3391 13.9867 16.3677C13.981 16.3963 13.9656 16.422 13.9431 16.4405C13.9205 16.459 13.8923 16.4691 13.8631 16.4691C13.8299 16.469 13.798 16.4559 13.7744 16.4324ZM11.8598 16.4324C11.8391 16.4118 11.8262 16.3848 11.8233 16.3558C11.8204 16.3268 11.8276 16.2976 11.8438 16.2734C11.8599 16.2491 11.884 16.2312 11.9119 16.2227C11.9398 16.2142 11.9697 16.2157 11.9967 16.2268C12.0236 16.2379 12.0458 16.2581 12.0596 16.2838C12.0733 16.3095 12.0778 16.3391 12.0721 16.3677C12.0664 16.3963 12.0509 16.422 12.0284 16.4405C12.0059 16.459 11.9776 16.4691 11.9485 16.4691C11.9152 16.469 11.8833 16.4559 11.8598 16.4324ZM15.0314 16.3846C15.0108 16.364 14.9979 16.3369 14.995 16.3079C14.992 16.2789 14.9993 16.2498 15.0154 16.2255C15.0316 16.2013 15.0556 16.1834 15.0835 16.1749C15.1114 16.1664 15.1414 16.1678 15.1683 16.1789C15.1953 16.1901 15.2175 16.2102 15.2312 16.2359C15.245 16.2616 15.2494 16.2913 15.2437 16.3199C15.238 16.3485 15.2226 16.3742 15.2001 16.3927C15.1775 16.4112 15.1493 16.4212 15.1201 16.4212C15.0869 16.4212 15.055 16.408 15.0314 16.3846ZM10.5595 16.3846C10.5389 16.364 10.526 16.3369 10.5231 16.3079C10.5202 16.2789 10.5274 16.2498 10.5436 16.2255C10.5597 16.2012 10.5838 16.1833 10.6117 16.1748C10.6396 16.1664 10.6696 16.1678 10.6965 16.179C10.7234 16.1901 10.7457 16.2103 10.7594 16.236C10.7731 16.2617 10.7775 16.2914 10.7718 16.32C10.7661 16.3486 10.7507 16.3743 10.7281 16.3928C10.7055 16.4112 10.6773 16.4213 10.6481 16.4212C10.6149 16.4211 10.5831 16.408 10.5595 16.3846ZM13.5236 16.1817C13.5029 16.1611 13.49 16.1341 13.4871 16.1051C13.4842 16.0761 13.4914 16.0469 13.5076 16.0227C13.5237 15.9984 13.5478 15.9805 13.5757 15.972C13.6036 15.9635 13.6335 15.965 13.6605 15.9761C13.6874 15.9872 13.7097 16.0074 13.7234 16.0331C13.7372 16.0588 13.7416 16.0884 13.7359 16.117C13.7302 16.1456 13.7148 16.1713 13.6922 16.1898C13.6697 16.2083 13.6414 16.2184 13.6123 16.2184C13.579 16.2183 13.5472 16.2052 13.5236 16.1817ZM12.1106 16.1817C12.0899 16.1611 12.0771 16.1341 12.0741 16.1051C12.0712 16.0761 12.0785 16.0469 12.0946 16.0227C12.1108 15.9984 12.1348 15.9805 12.1627 15.972C12.1906 15.9635 12.2206 15.965 12.2475 15.9761C12.2744 15.9872 12.2967 16.0074 12.3104 16.0331C12.3242 16.0588 12.3286 16.0884 12.3229 16.117C12.3172 16.1456 12.3018 16.1713 12.2792 16.1898C12.2567 16.2083 12.2285 16.2184 12.1993 16.2184C12.1661 16.2183 12.1342 16.2052 12.1106 16.1817ZM12.1526 15.3906C12.1526 15.2416 12.1968 15.096 12.2795 14.9721C12.3623 14.8482 12.4799 14.7517 12.6176 14.6947C12.7552 14.6377 12.9067 14.6228 13.0528 14.6518C13.1989 14.6809 13.3331 14.7527 13.4384 14.858C13.5438 14.9634 13.6155 15.0976 13.6446 15.2437C13.6736 15.3898 13.6587 15.5413 13.6016 15.6789C13.5446 15.8165 13.448 15.9342 13.3242 16.0169C13.2003 16.0997 13.0546 16.1438 12.9057 16.1438C12.7059 16.1438 12.5143 16.0644 12.3731 15.9231C12.2318 15.7819 12.1525 15.5903 12.1524 15.3906H12.1526ZM14.8746 15.3774C14.8746 15.2938 14.8993 15.212 14.9458 15.1424C14.9923 15.0729 15.0583 15.0186 15.1356 14.9866C15.2128 14.9546 15.2979 14.9462 15.3799 14.9625C15.462 14.9788 15.5374 15.0191 15.5965 15.0782C15.6557 15.1373 15.696 15.2127 15.7123 15.2947C15.7286 15.3768 15.7203 15.4618 15.6882 15.5391C15.6562 15.6164 15.602 15.6824 15.5325 15.7289C15.4629 15.7754 15.3812 15.8002 15.2975 15.8002C15.1854 15.8002 15.0778 15.7557 14.9985 15.6764C14.9192 15.5971 14.8746 15.4896 14.8746 15.3774ZM10.0913 15.3774C10.0913 15.2938 10.1161 15.212 10.1625 15.1424C10.209 15.0729 10.275 15.0186 10.3523 14.9866C10.4296 14.9546 10.5146 14.9462 10.5966 14.9625C10.6787 14.9788 10.7541 15.0191 10.8132 15.0782C10.8724 15.1373 10.9127 15.2127 10.929 15.2947C10.9453 15.3768 10.937 15.4618 10.905 15.5391C10.8729 15.6164 10.8187 15.6824 10.7492 15.7289C10.6796 15.7754 10.5979 15.8002 10.5142 15.8002C10.4021 15.8002 10.2945 15.7557 10.2152 15.6764C10.1359 15.5971 10.0913 15.4896 10.0913 15.3774ZM14.4876 15.3864C14.4876 15.3615 14.495 15.3371 14.5089 15.3164C14.5227 15.2957 14.5424 15.2796 14.5654 15.2701C14.5884 15.2605 14.6137 15.258 14.6381 15.2629C14.6625 15.2677 14.685 15.2797 14.7026 15.2974C14.7202 15.315 14.7322 15.3374 14.737 15.3618C14.7419 15.3862 14.7394 15.4116 14.7299 15.4346C14.7203 15.4576 14.7042 15.4772 14.6835 15.4911C14.6628 15.5049 14.6384 15.5123 14.6135 15.5123C14.5802 15.5123 14.5481 15.499 14.5245 15.4754C14.5009 15.4518 14.4876 15.4198 14.4876 15.3864ZM14.1343 15.3864C14.1343 15.3615 14.1416 15.3371 14.1555 15.3164C14.1693 15.2957 14.189 15.2796 14.212 15.2701C14.235 15.2605 14.2603 15.258 14.2847 15.2629C14.3091 15.2677 14.3316 15.2797 14.3492 15.2974C14.3668 15.315 14.3788 15.3374 14.3836 15.3618C14.3885 15.3862 14.386 15.4116 14.3765 15.4346C14.367 15.4576 14.3508 15.4772 14.3301 15.4911C14.3094 15.5049 14.2851 15.5123 14.2602 15.5123C14.2268 15.5123 14.1947 15.499 14.1711 15.4754C14.1475 15.4518 14.1343 15.4198 14.1343 15.3864ZM13.7796 15.3864C13.7796 15.3615 13.787 15.3371 13.8008 15.3164C13.8147 15.2957 13.8343 15.2796 13.8573 15.2701C13.8803 15.2605 13.9057 15.258 13.9301 15.2629C13.9545 15.2677 13.9769 15.2797 13.9945 15.2974C14.0122 15.315 14.0241 15.3374 14.029 15.3618C14.0339 15.3862 14.0314 15.4116 14.0218 15.4346C14.0123 15.4576 13.9962 15.4772 13.9755 15.4911C13.9548 15.5049 13.9304 15.5123 13.9055 15.5123C13.8721 15.5123 13.8401 15.499 13.8165 15.4754C13.7929 15.4518 13.7796 15.4198 13.7796 15.3864ZM11.7811 15.3864C11.7811 15.3615 11.7885 15.3371 11.8024 15.3164C11.8162 15.2957 11.8359 15.2796 11.8589 15.2701C11.8819 15.2605 11.9072 15.258 11.9316 15.2629C11.956 15.2677 11.9785 15.2797 11.9961 15.2974C12.0137 15.315 12.0257 15.3374 12.0305 15.3618C12.0354 15.3862 12.0329 15.4116 12.0234 15.4346C12.0138 15.4576 11.9977 15.4772 11.977 15.4911C11.9563 15.5049 11.932 15.5123 11.9071 15.5123C11.8737 15.5123 11.8416 15.499 11.818 15.4754C11.7944 15.4518 11.7811 15.4198 11.7811 15.3864ZM11.4266 15.3864C11.4266 15.3615 11.434 15.3371 11.4479 15.3164C11.4617 15.2957 11.4814 15.2796 11.5044 15.2701C11.5274 15.2605 11.5527 15.258 11.5771 15.2629C11.6015 15.2677 11.624 15.2797 11.6416 15.2974C11.6592 15.315 11.6712 15.3374 11.676 15.3618C11.6809 15.3862 11.6784 15.4116 11.6689 15.4346C11.6593 15.4576 11.6432 15.4772 11.6225 15.4911C11.6018 15.5049 11.5775 15.5123 11.5525 15.5123C11.5192 15.5123 11.4871 15.499 11.4635 15.4754C11.4399 15.4518 11.4266 15.4198 11.4266 15.3864ZM11.0733 15.3864C11.0733 15.3615 11.0806 15.3371 11.0945 15.3164C11.1083 15.2957 11.128 15.2796 11.151 15.2701C11.174 15.2605 11.1993 15.258 11.2237 15.2629C11.2482 15.2677 11.2706 15.2797 11.2882 15.2974C11.3058 15.315 11.3178 15.3374 11.3227 15.3618C11.3275 15.3862 11.325 15.4116 11.3155 15.4346C11.306 15.4576 11.2898 15.4772 11.2691 15.4911C11.2484 15.5049 11.2241 15.5123 11.1992 15.5123C11.1658 15.5123 11.1337 15.499 11.1101 15.4754C11.0865 15.4518 11.0733 15.4198 11.0733 15.3864ZM13.5237 14.7684C13.5031 14.7479 13.4903 14.7207 13.4874 14.6917C13.4845 14.6627 13.4918 14.6336 13.508 14.6094C13.5242 14.5852 13.5483 14.5673 13.5761 14.5588C13.604 14.5504 13.634 14.5519 13.6609 14.563C13.6878 14.5742 13.7101 14.5944 13.7238 14.6201C13.7375 14.6458 13.7419 14.6755 13.7361 14.704C13.7304 14.7326 13.715 14.7583 13.6924 14.7768C13.6698 14.7952 13.6416 14.8053 13.6124 14.8052C13.5792 14.8052 13.5473 14.7919 13.5237 14.7684ZM12.1107 14.7684C12.0901 14.7479 12.0773 14.7207 12.0744 14.6917C12.0715 14.6627 12.0788 14.6336 12.095 14.6094C12.1112 14.5851 12.1353 14.5673 12.1632 14.5588C12.1911 14.5504 12.2211 14.5519 12.248 14.5631C12.2749 14.5742 12.2971 14.5944 12.3108 14.6202C12.3245 14.6459 12.3289 14.6756 12.3231 14.7042C12.3174 14.7327 12.3019 14.7584 12.2793 14.7769C12.2567 14.7953 12.2285 14.8053 12.1993 14.8052C12.1661 14.8051 12.1343 14.7919 12.1107 14.7684ZM15.0314 14.5489C15.011 14.5285 14.9983 14.5015 14.9955 14.4727C14.9927 14.4439 15 14.4151 15.0161 14.391C15.0322 14.367 15.0562 14.3493 15.0839 14.3409C15.1116 14.3326 15.1413 14.3341 15.168 14.3452C15.1947 14.3563 15.2168 14.3763 15.2304 14.4018C15.244 14.4273 15.2483 14.4568 15.2427 14.4852C15.237 14.5135 15.2217 14.5391 15.1993 14.5574C15.1769 14.5757 15.1489 14.5857 15.12 14.5857C15.0868 14.5856 15.0549 14.5724 15.0314 14.5489ZM10.5858 14.5489C10.5652 14.5284 10.5524 14.5012 10.5495 14.4722C10.5466 14.4432 10.5539 14.4141 10.5701 14.3899C10.5863 14.3657 10.6104 14.3478 10.6383 14.3393C10.6662 14.3309 10.6961 14.3324 10.723 14.3435C10.75 14.3547 10.7722 14.3749 10.7859 14.4006C10.7996 14.4263 10.804 14.456 10.7983 14.4845C10.7925 14.5131 10.7771 14.5388 10.7545 14.5573C10.7319 14.5757 10.7037 14.5858 10.6745 14.5857C10.6413 14.5857 10.6094 14.5724 10.5858 14.5489ZM13.7743 14.518C13.7536 14.4975 13.7407 14.4704 13.7378 14.4414C13.7349 14.4124 13.7421 14.3833 13.7583 14.359C13.7744 14.3347 13.7985 14.3168 13.8264 14.3083C13.8543 14.2998 13.8842 14.3013 13.9112 14.3124C13.9381 14.3235 13.9604 14.3437 13.9741 14.3694C13.9879 14.3951 13.9923 14.4248 13.9866 14.4533C13.9809 14.4819 13.9655 14.5077 13.9429 14.5261C13.9204 14.5446 13.8921 14.5547 13.863 14.5547C13.8297 14.5547 13.7979 14.5415 13.7743 14.518ZM11.8596 14.518C11.839 14.4975 11.8261 14.4704 11.8232 14.4414C11.8202 14.4124 11.8275 14.3833 11.8436 14.359C11.8598 14.3347 11.8839 14.3168 11.9117 14.3083C11.9396 14.2998 11.9696 14.3013 11.9965 14.3124C12.0235 14.3235 12.0457 14.3437 12.0595 14.3694C12.0732 14.3951 12.0776 14.4248 12.0719 14.4533C12.0662 14.4819 12.0508 14.5077 12.0283 14.5261C12.0057 14.5446 11.9775 14.5547 11.9483 14.5547C11.9151 14.5547 11.8832 14.5415 11.8596 14.518ZM12.7802 14.3781C12.7802 14.3532 12.7875 14.3289 12.8014 14.3082C12.8152 14.2875 12.8349 14.2713 12.8579 14.2618C12.8809 14.2523 12.9062 14.2498 12.9306 14.2546C12.9551 14.2595 12.9775 14.2715 12.9951 14.2891C13.0127 14.3067 13.0247 14.3291 13.0296 14.3536C13.0344 14.378 13.0319 14.4033 13.0224 14.4263C13.0129 14.4493 12.9967 14.469 12.976 14.4828C12.9553 14.4967 12.931 14.504 12.9061 14.504C12.8727 14.504 12.8407 14.4908 12.817 14.4672C12.7934 14.4435 12.7802 14.4115 12.7802 14.3781ZM14.0241 14.2687C14.0035 14.2481 13.9907 14.221 13.9878 14.192C13.9849 14.163 13.9922 14.1339 14.0084 14.1097C14.0246 14.0854 14.0487 14.0676 14.0766 14.0591C14.1045 14.0507 14.1344 14.0521 14.1613 14.0633C14.1883 14.0745 14.2105 14.0946 14.2242 14.1204C14.2379 14.1461 14.2423 14.1758 14.2366 14.2043C14.2308 14.2329 14.2154 14.2586 14.1928 14.2771C14.1703 14.2955 14.142 14.3056 14.1128 14.3055C14.0796 14.3055 14.0477 14.2922 14.0241 14.2687ZM11.6098 14.2687C11.5893 14.2482 11.5767 14.2213 11.5739 14.1925C11.5711 14.1637 11.5784 14.1348 11.5945 14.1108C11.6106 14.0868 11.6345 14.0691 11.6622 14.0607C11.6899 14.0524 11.7196 14.0539 11.7464 14.065C11.7731 14.0761 11.7951 14.0961 11.8087 14.1216C11.8223 14.1471 11.8267 14.1766 11.821 14.2049C11.8154 14.2333 11.8 14.2588 11.7777 14.2772C11.7553 14.2955 11.7273 14.3055 11.6983 14.3055C11.6651 14.3054 11.6333 14.2922 11.6098 14.2687ZM12.7802 14.0235C12.7802 13.9986 12.7875 13.9742 12.8014 13.9535C12.8152 13.9328 12.8349 13.9167 12.8579 13.9072C12.8809 13.8976 12.9062 13.8951 12.9306 13.9C12.9551 13.9049 12.9775 13.9168 12.9951 13.9345C13.0127 13.9521 13.0247 13.9745 13.0296 13.9989C13.0344 14.0233 13.0319 14.0487 13.0224 14.0717C13.0129 14.0947 12.9967 14.1143 12.976 14.1282C12.9553 14.142 12.931 14.1494 12.9061 14.1494C12.8727 14.1494 12.8407 14.1361 12.817 14.1125C12.7934 14.0889 12.7802 14.0569 12.7802 14.0235ZM10.9311 14.0109C10.7712 13.851 10.7754 13.5874 10.9405 13.4222C11.1056 13.257 11.3691 13.2529 11.5292 13.413C11.6892 13.573 11.6849 13.8364 11.5198 14.0015C11.4801 14.0415 11.433 14.0733 11.381 14.095C11.329 14.1168 11.2733 14.128 11.2169 14.1281C11.1639 14.1284 11.1114 14.1182 11.0624 14.098C11.0133 14.0779 10.9688 14.0482 10.9313 14.0108L10.9311 14.0109ZM14.2914 14.0015C14.1263 13.8364 14.1221 13.5729 14.282 13.413C14.4419 13.2531 14.7055 13.2571 14.8707 13.4222C15.0359 13.5873 15.04 13.851 14.8801 14.0109C14.8425 14.0483 14.7979 14.0779 14.7489 14.0981C14.6998 14.1182 14.6473 14.1284 14.5942 14.1281C14.5379 14.128 14.4822 14.1167 14.4303 14.095C14.3783 14.0733 14.3312 14.0415 14.2915 14.0015H14.2914ZM12.7804 13.67C12.7804 13.6451 12.7878 13.6207 12.8017 13.6C12.8155 13.5793 12.8352 13.5632 12.8582 13.5536C12.8812 13.5441 12.9065 13.5416 12.9309 13.5465C12.9553 13.5513 12.9778 13.5633 12.9954 13.5809C13.013 13.5985 13.025 13.621 13.0298 13.6454C13.0347 13.6698 13.0322 13.6951 13.0227 13.7181C13.0131 13.7411 12.997 13.7608 12.9763 13.7746C12.9556 13.7885 12.9313 13.7959 12.9064 13.7959C12.8897 13.7959 12.8732 13.7926 12.8578 13.7862C12.8424 13.7798 12.8285 13.7704 12.8167 13.7585C12.805 13.7467 12.7958 13.7327 12.7895 13.7172C12.7832 13.7018 12.7801 13.6852 12.7803 13.6686L12.7804 13.67ZM12.4699 12.9733C12.4699 12.8896 12.4947 12.8079 12.5412 12.7384C12.5877 12.6689 12.6537 12.6147 12.731 12.5828C12.8082 12.5508 12.8932 12.5424 12.9752 12.5588C13.0572 12.5751 13.1325 12.6154 13.1916 12.6745C13.2508 12.7336 13.291 12.809 13.3073 12.891C13.3236 12.973 13.3152 13.058 13.2832 13.1352C13.2512 13.2125 13.197 13.2785 13.1275 13.3249C13.058 13.3714 12.9763 13.3962 12.8926 13.3962C12.8371 13.3962 12.7821 13.3852 12.7308 13.364C12.6795 13.3427 12.6329 13.3116 12.5936 13.2723C12.5544 13.233 12.5232 13.1864 12.502 13.1351C12.4808 13.0838 12.4699 13.0288 12.4699 12.9733ZM13.7266 13.2479C13.7062 13.2274 13.6935 13.2005 13.6907 13.1717C13.6879 13.1429 13.6952 13.114 13.7113 13.09C13.7274 13.0659 13.7513 13.0482 13.779 13.0399C13.8067 13.0315 13.8365 13.033 13.8632 13.0441C13.8899 13.0552 13.9119 13.0752 13.9255 13.1007C13.9392 13.1263 13.9435 13.1557 13.9378 13.1841C13.9322 13.2125 13.9168 13.238 13.8945 13.2563C13.8721 13.2747 13.8441 13.2847 13.8151 13.2847C13.7819 13.2846 13.7501 13.2713 13.7266 13.2479ZM11.8866 13.2384C11.866 13.2178 11.8531 13.1907 11.8502 13.1617C11.8472 13.1327 11.8545 13.1036 11.8706 13.0793C11.8868 13.055 11.9109 13.0371 11.9388 13.0287C11.9667 13.0202 11.9966 13.0216 12.0236 13.0328C12.0505 13.0439 12.0728 13.0641 12.0865 13.0898C12.1002 13.1155 12.1046 13.1452 12.0989 13.1738C12.0932 13.2024 12.0777 13.2281 12.0552 13.2466C12.0326 13.265 12.0043 13.2751 11.9752 13.275C11.942 13.275 11.9102 13.2618 11.8866 13.2384Z"
            fill="url(#paint0_linear_9856_12099)" />
    </g>
    <defs>
        <linearGradient id="paint0_linear_9856_12099" x1="3.59914" y1="3.46179" x2="22.0991" y2="23.2118"
            gradientUnits="userSpaceOnUse">
            <stop stop-color="#4D2FE5" />
            <stop offset="0.53" stop-color="#D51FD5" />
            <stop offset="1" stop-color="#FB767C" />
        </linearGradient>
        <clipPath id="clip0_9856_12099">
            <rect width="25" height="25" fill="white" transform="translate(0.418945 0.894775)" />
        </clipPath>
    </defs>
</svg>