<svg width="30" height="27" viewBox="0 0 37 36" fill="none" xmlns="http://www.w3.org/2000/svg">
<path d="M0.575195 18C0.575195 8.0582 8.63339 0 18.5752 0C28.517 0 36.5752 8.0582 36.5752 18C36.5752 27.9418 28.517 36 18.5752 36C8.63339 36 0.575195 27.9418 0.575195 18ZM2.24969 18C2.24969 27.002 9.57318 34.3255 18.5752 34.3255C27.5772 34.3255 34.9007 27.002 34.9007 18C34.9007 8.99798 27.5772 1.67449 18.5752 1.67449C9.57318 1.67449 2.24969 8.99798 2.24969 18ZM10.3929 28.7234C9.19908 28.7011 8.37634 27.9021 8.06307 27.2647C7.74981 26.6273 7.74316 25.7993 8.04293 25.1696C8.34269 24.5398 14.1067 12.9068 14.2973 12.5067C14.4879 12.1066 14.4673 12.1286 14.4701 11.6828C14.473 11.237 14.4701 6.51485 14.4701 6.51485C14.4701 6.51485 14.0114 6.51485 13.7358 6.51485C13.0696 6.51626 12.7739 6.03136 12.7705 5.64175C12.767 5.26059 13.0312 4.74729 13.702 4.74567C14.2717 4.74426 15.2733 4.74567 16.2403 4.74567L16.2329 7.45484H18.2696V8.34124H16.2333V9.2488H18.27V10.1308H16.2333V12.4058C16.2333 12.6355 16.2015 12.6415 16.088 12.8818C15.9746 13.1222 9.89309 25.4299 9.70191 25.8378C9.51073 26.2458 9.89631 26.9371 10.4691 26.9478C11.0418 26.9585 25.9591 26.9446 26.6862 26.9446C27.4132 26.9446 27.6129 26.0783 27.4702 25.7979C27.3276 25.5175 21.1135 12.9751 21.0055 12.7374C20.8976 12.4997 20.9109 12.5186 20.9163 12.127C20.9217 11.7354 20.9163 4.74547 20.9163 4.74547C20.9163 4.74547 22.6246 4.74547 23.5151 4.74547C24.0389 4.74547 24.3918 5.16087 24.3918 5.61616C24.3918 6.04748 24.0548 6.48242 23.5151 6.48242C23.2774 6.48766 22.6812 6.48242 22.6812 6.48242C22.6812 6.48242 22.6812 11.6445 22.6812 11.9354C22.6812 12.2263 22.7642 12.2892 22.9532 12.6755C23.1422 13.0619 28.6276 24.1127 29.0005 24.8609C29.3734 25.6092 29.5041 26.6845 28.8369 27.5786C28.1697 28.4726 27.3818 28.6866 26.7545 28.6916C26.244 28.696 16.5171 28.7289 12.2713 28.7289C11.3003 28.7289 10.6167 28.7271 10.3945 28.723L10.3929 28.7234ZM17.9283 24.3172C17.9283 24.1968 17.964 24.0791 18.0309 23.979C18.0978 23.8789 18.1929 23.8008 18.3041 23.7548C18.4154 23.7087 18.5378 23.6966 18.6559 23.7201C18.774 23.7436 18.8825 23.8016 18.9676 23.8867C19.0527 23.9719 19.1107 24.0804 19.1342 24.1985C19.1577 24.3165 19.1457 24.439 19.0996 24.5502C19.0535 24.6614 18.9755 24.7565 18.8753 24.8234C18.7752 24.8903 18.6575 24.926 18.5371 24.926C18.4572 24.926 18.378 24.9103 18.3041 24.8797C18.2302 24.8491 18.1631 24.8042 18.1066 24.7476C18.05 24.6911 18.0052 24.6239 17.9746 24.5501C17.944 24.4762 17.9283 24.397 17.9283 24.317V24.3172ZM19.7394 24.1895C19.7096 24.1599 19.6911 24.1209 19.6869 24.0791C19.6827 24.0373 19.6931 23.9954 19.7164 23.9605C19.7397 23.9255 19.7743 23.8997 19.8145 23.8875C19.8547 23.8753 19.8978 23.8774 19.9366 23.8934C19.9754 23.9095 20.0074 23.9385 20.0272 23.9756C20.047 24.0126 20.0533 24.0553 20.0451 24.0965C20.0369 24.1377 20.0146 24.1747 19.9821 24.2013C19.9496 24.2279 19.9089 24.2424 19.8669 24.2423C19.8191 24.2422 19.7733 24.2232 19.7394 24.1895V24.1895ZM17.0887 24.1895C17.0589 24.1599 17.0403 24.1209 17.0361 24.0791C17.0319 24.0373 17.0424 23.9954 17.0656 23.9605C17.0889 23.9255 17.1236 23.8997 17.1638 23.8875C17.2039 23.8753 17.2471 23.8774 17.2859 23.8934C17.3247 23.9095 17.3567 23.9385 17.3765 23.9756C17.3962 24.0126 17.4026 24.0553 17.3943 24.0965C17.3861 24.1377 17.3639 24.1747 17.3314 24.2013C17.2989 24.2279 17.2582 24.2424 17.2162 24.2423C17.1684 24.2422 17.1225 24.2232 17.0887 24.1895V24.1895ZM20.5382 23.7112C20.3079 23.481 20.314 23.1014 20.5517 22.8637C20.7894 22.626 21.1689 22.62 21.3994 22.8502C21.6299 23.0805 21.6236 23.46 21.3859 23.698C21.3287 23.7553 21.2607 23.8009 21.1859 23.832C21.111 23.8631 21.0308 23.8792 20.9497 23.8793C20.8734 23.8797 20.7977 23.8649 20.727 23.8359C20.6564 23.8069 20.5922 23.7642 20.5382 23.7102V23.7112ZM15.7264 23.698C15.4887 23.4602 15.4827 23.0807 15.7129 22.8502C15.9432 22.6198 16.3229 22.6258 16.5606 22.8637C16.7984 23.1016 16.8044 23.481 16.5741 23.7112C16.5201 23.7652 16.4559 23.8079 16.3853 23.8369C16.3146 23.8659 16.2389 23.8807 16.1626 23.8803C16.0815 23.8802 16.0013 23.8641 15.9265 23.833C15.8516 23.8019 15.7837 23.7563 15.7264 23.699V23.698ZM18.3693 23.341C18.3693 23.3051 18.3799 23.2701 18.3999 23.2402C18.4198 23.2104 18.4481 23.1872 18.4812 23.1735C18.5144 23.1597 18.5508 23.1562 18.586 23.1631C18.6212 23.1701 18.6535 23.1874 18.6788 23.2128C18.7042 23.2381 18.7214 23.2704 18.7284 23.3056C18.7354 23.3408 18.7318 23.3772 18.7181 23.4104C18.7044 23.4435 18.6812 23.4718 18.6513 23.4917C18.6215 23.5116 18.5865 23.5223 18.5506 23.5223C18.5025 23.5223 18.4564 23.5032 18.4224 23.4692C18.3884 23.4352 18.3693 23.3891 18.3693 23.341ZM18.3693 22.8321C18.3693 22.7962 18.3799 22.7612 18.3999 22.7314C18.4198 22.7016 18.4481 22.6783 18.4812 22.6646C18.5144 22.6509 18.5508 22.6473 18.586 22.6543C18.6212 22.6613 18.6535 22.6785 18.6788 22.7039C18.7042 22.7293 18.7214 22.7616 18.7284 22.7967C18.7354 22.8319 18.7318 22.8684 18.7181 22.9015C18.7044 22.9346 18.6812 22.9629 18.6513 22.9829C18.6215 23.0028 18.5865 23.0134 18.5506 23.0134C18.5025 23.0134 18.4564 22.9943 18.4224 22.9603C18.3884 22.9263 18.3693 22.8802 18.3693 22.8321ZM20.1669 22.7342C20.1371 22.7046 20.1186 22.6656 20.1144 22.6238C20.1102 22.5821 20.1206 22.5401 20.1439 22.5052C20.1671 22.4702 20.2018 22.4445 20.2419 22.4322C20.2821 22.42 20.3252 22.4221 20.364 22.4381C20.4028 22.4541 20.4348 22.4831 20.4546 22.5201C20.4744 22.5571 20.4808 22.5999 20.4726 22.641C20.4644 22.6822 20.4422 22.7193 20.4097 22.7459C20.3773 22.7725 20.3366 22.787 20.2946 22.787C20.2467 22.7869 20.2008 22.768 20.1669 22.7342V22.7342ZM16.6902 22.7342C16.6604 22.7046 16.6419 22.6656 16.6377 22.6238C16.6335 22.5821 16.6439 22.5401 16.6671 22.5052C16.6904 22.4702 16.7251 22.4445 16.7652 22.4322C16.8054 22.42 16.8485 22.4221 16.8873 22.4381C16.9261 22.4541 16.9581 22.4831 16.9779 22.5201C16.9977 22.5571 17.0041 22.5999 16.9959 22.641C16.9877 22.6822 16.9655 22.7193 16.933 22.7459C16.9006 22.7725 16.8599 22.787 16.8179 22.787C16.77 22.7869 16.7241 22.768 16.6902 22.7342V22.7342ZM18.3693 22.3212C18.3693 22.2853 18.3799 22.2503 18.3999 22.2205C18.4198 22.1907 18.4481 22.1674 18.4812 22.1537C18.5144 22.14 18.5508 22.1364 18.586 22.1434C18.6212 22.1504 18.6535 22.1676 18.6788 22.193C18.7042 22.2184 18.7214 22.2507 18.7284 22.2858C18.7354 22.321 18.7318 22.3575 18.7181 22.3906C18.7044 22.4237 18.6812 22.452 18.6513 22.472C18.6215 22.4919 18.5865 22.5025 18.5506 22.5025C18.5025 22.5025 18.4564 22.4834 18.4224 22.4494C18.3884 22.4154 18.3693 22.3693 18.3693 22.3212ZM19.8071 22.3742C19.7773 22.3446 19.7588 22.3056 19.7546 22.2638C19.7504 22.2221 19.7608 22.1801 19.7841 22.1452C19.8073 22.1102 19.842 22.0845 19.8821 22.0722C19.9223 22.06 19.9654 22.0621 20.0042 22.0781C20.043 22.0941 20.075 22.1231 20.0948 22.1601C20.1146 22.1971 20.121 22.2399 20.1128 22.281C20.1046 22.3222 20.0824 22.3593 20.0499 22.3859C20.0175 22.4125 19.9768 22.427 19.9348 22.427C19.8869 22.4269 19.841 22.408 19.8071 22.3742V22.3742ZM17.05 22.3742C17.0202 22.3446 17.0017 22.3056 16.9975 22.2638C16.9933 22.2221 17.0037 22.1801 17.0269 22.1452C17.0502 22.1102 17.0849 22.0845 17.125 22.0722C17.1652 22.06 17.2083 22.0621 17.2471 22.0781C17.2859 22.0941 17.3179 22.1231 17.3377 22.1601C17.3575 22.1971 17.3639 22.2399 17.3557 22.281C17.3475 22.3222 17.3253 22.3593 17.2928 22.3859C17.2604 22.4125 17.2197 22.427 17.1777 22.427C17.1298 22.4269 17.0839 22.408 17.05 22.3742ZM21.6172 22.3053C21.5874 22.2757 21.5688 22.2367 21.5646 22.1949C21.5604 22.1532 21.5709 22.1112 21.5941 22.0763C21.6174 22.0413 21.652 22.0156 21.6922 22.0033C21.7323 21.9911 21.7755 21.9932 21.8143 22.0092C21.8531 22.0252 21.8851 22.0542 21.9049 22.0912C21.9247 22.1282 21.9311 22.171 21.9229 22.2121C21.9147 22.2533 21.8925 22.2904 21.86 22.317C21.8275 22.3436 21.7869 22.3581 21.7449 22.3581C21.697 22.358 21.6511 22.3391 21.6172 22.3053V22.3053ZM15.1777 22.3053C15.1479 22.2757 15.1293 22.2367 15.1251 22.1949C15.1209 22.1531 15.1314 22.1112 15.1546 22.0762C15.1779 22.0413 15.2126 22.0155 15.2528 22.0033C15.2929 21.9911 15.3361 21.9932 15.3749 22.0092C15.4137 22.0253 15.4457 22.0543 15.4655 22.0913C15.4852 22.1284 15.4916 22.1711 15.4833 22.2123C15.4751 22.2535 15.4529 22.2905 15.4204 22.3171C15.3879 22.3437 15.3472 22.3582 15.3052 22.3581C15.2574 22.358 15.2115 22.339 15.1777 22.3053V22.3053ZM19.4459 22.0132C19.4161 21.9836 19.3976 21.9446 19.3934 21.9028C19.3892 21.861 19.3996 21.8191 19.4228 21.7842C19.4461 21.7492 19.4808 21.7235 19.5209 21.7112C19.5611 21.699 19.6042 21.7011 19.643 21.7171C19.6818 21.7331 19.7138 21.7621 19.7336 21.7991C19.7534 21.8361 19.7598 21.8789 19.7516 21.92C19.7434 21.9612 19.7212 21.9982 19.6887 22.0249C19.6563 22.0515 19.6156 22.066 19.5736 22.066C19.5257 22.0659 19.4798 22.0469 19.4459 22.0132V22.0132ZM17.4112 22.0132C17.3814 21.9836 17.3629 21.9446 17.3587 21.9028C17.3545 21.861 17.3649 21.8191 17.3881 21.7842C17.4114 21.7492 17.4461 21.7235 17.4862 21.7112C17.5264 21.699 17.5695 21.7011 17.6083 21.7171C17.6471 21.7331 17.6791 21.7621 17.6989 21.7991C17.7187 21.8361 17.7251 21.8789 17.7169 21.92C17.7087 21.9612 17.6865 21.9982 17.654 22.0249C17.6216 22.0515 17.5809 22.066 17.5389 22.066C17.491 22.0659 17.4451 22.0469 17.4112 22.0132V22.0132ZM17.4716 20.874C17.4716 20.6594 17.5352 20.4497 17.6544 20.2713C17.7736 20.093 17.943 19.954 18.1412 19.8719C18.3394 19.7898 18.5575 19.7683 18.7679 19.8102C18.9783 19.852 19.1716 19.9554 19.3233 20.1071C19.475 20.2588 19.5782 20.4521 19.6201 20.6625C19.6619 20.8729 19.6404 21.091 19.5583 21.2892C19.4761 21.4874 19.3371 21.6567 19.1587 21.7759C18.9803 21.895 18.7706 21.9586 18.5561 21.9586C18.2684 21.9585 17.9926 21.8442 17.7892 21.6408C17.5858 21.4375 17.4715 21.1616 17.4714 20.874H17.4716ZM21.3913 20.855C21.3913 20.7346 21.427 20.6168 21.4939 20.5166C21.5608 20.4164 21.6559 20.3384 21.7671 20.2922C21.8784 20.2461 22.0009 20.234 22.119 20.2575C22.2372 20.281 22.3457 20.339 22.4309 20.4241C22.5161 20.5093 22.5741 20.6178 22.5976 20.7359C22.6211 20.8541 22.6091 20.9765 22.563 21.0878C22.5169 21.1991 22.4388 21.2942 22.3387 21.3612C22.2385 21.4281 22.1208 21.4638 22.0003 21.4638C21.8389 21.4638 21.684 21.3997 21.5698 21.2855C21.4556 21.1713 21.3914 21.0165 21.3913 20.855V20.855ZM14.5034 20.855C14.5033 20.7346 14.539 20.6168 14.6059 20.5166C14.6728 20.4164 14.7679 20.3384 14.8792 20.2922C14.9905 20.2461 15.1129 20.234 15.2311 20.2575C15.3492 20.281 15.4578 20.339 15.5429 20.4241C15.6281 20.5093 15.6862 20.6178 15.7097 20.7359C15.7332 20.8541 15.7211 20.9765 15.675 21.0878C15.629 21.1991 15.5509 21.2942 15.4507 21.3612C15.3506 21.4281 15.2328 21.4638 15.1124 21.4638C14.9509 21.4638 14.796 21.3997 14.6818 21.2855C14.5676 21.1713 14.5034 21.0165 14.5034 20.855V20.855ZM20.8341 20.8679C20.8341 20.8321 20.8447 20.797 20.8647 20.7672C20.8846 20.7374 20.9129 20.7141 20.946 20.7004C20.9792 20.6867 21.0156 20.6831 21.0508 20.6901C21.086 20.6971 21.1183 20.7144 21.1436 20.7397C21.169 20.7651 21.1862 20.7974 21.1932 20.8325C21.2002 20.8677 21.1966 20.9042 21.1829 20.9373C21.1692 20.9704 21.146 20.9987 21.1161 21.0187C21.0863 21.0386 21.0513 21.0492 21.0154 21.0492C20.9673 21.0492 20.9212 21.0301 20.8872 20.9961C20.8532 20.9621 20.8341 20.916 20.8341 20.8679ZM20.3252 20.8679C20.3252 20.8321 20.3359 20.797 20.3558 20.7672C20.3757 20.7374 20.404 20.7141 20.4372 20.7004C20.4703 20.6867 20.5067 20.6831 20.5419 20.6901C20.5771 20.6971 20.6094 20.7144 20.6347 20.7397C20.6601 20.7651 20.6774 20.7974 20.6844 20.8325C20.6914 20.8677 20.6878 20.9042 20.6741 20.9373C20.6603 20.9704 20.6371 20.9987 20.6073 21.0187C20.5775 21.0386 20.5424 21.0492 20.5065 21.0492C20.4585 21.0492 20.4123 21.0301 20.3783 20.9961C20.3443 20.9621 20.3252 20.916 20.3252 20.8679V20.8679ZM19.8145 20.8679C19.8145 20.8321 19.8252 20.797 19.8451 20.7672C19.865 20.7374 19.8933 20.7141 19.9265 20.7004C19.9596 20.6867 19.9961 20.6831 20.0312 20.6901C20.0664 20.6971 20.0987 20.7144 20.1241 20.7397C20.1494 20.7651 20.1667 20.7974 20.1737 20.8325C20.1807 20.8677 20.1771 20.9042 20.1634 20.9373C20.1496 20.9704 20.1264 20.9987 20.0966 21.0187C20.0668 21.0386 20.0317 21.0492 19.9959 21.0492C19.9478 21.0492 19.9017 21.0301 19.8677 20.9961C19.8336 20.9621 19.8145 20.916 19.8145 20.8679ZM16.9368 20.8679C16.9368 20.8321 16.9474 20.797 16.9673 20.7672C16.9872 20.7374 17.0156 20.7141 17.0487 20.7004C17.0818 20.6867 17.1183 20.6831 17.1534 20.6901C17.1886 20.6971 17.2209 20.7144 17.2463 20.7397C17.2716 20.7651 17.2889 20.7974 17.2959 20.8325C17.3029 20.8677 17.2993 20.9042 17.2856 20.9373C17.2719 20.9704 17.2486 20.9987 17.2188 21.0187C17.189 21.0386 17.1539 21.0492 17.1181 21.0492C17.07 21.0492 17.0239 21.0301 16.9899 20.9961C16.9559 20.9621 16.9368 20.916 16.9368 20.8679ZM16.4263 20.8679C16.4263 20.8321 16.4369 20.797 16.4568 20.7672C16.4768 20.7374 16.5051 20.7141 16.5382 20.7004C16.5713 20.6867 16.6078 20.6831 16.643 20.6901C16.6781 20.6971 16.7104 20.7144 16.7358 20.7397C16.7611 20.7651 16.7784 20.7974 16.7854 20.8325C16.7924 20.8677 16.7888 20.9042 16.7751 20.9373C16.7614 20.9704 16.7381 20.9987 16.7083 21.0187C16.6785 21.0386 16.6434 21.0492 16.6076 21.0492C16.5595 21.0492 16.5134 21.0301 16.4794 20.9961C16.4454 20.9621 16.4263 20.916 16.4263 20.8679ZM15.9174 20.8679C15.9174 20.8321 15.928 20.797 15.948 20.7672C15.9679 20.7374 15.9962 20.7141 16.0293 20.7004C16.0625 20.6867 16.0989 20.6831 16.1341 20.6901C16.1693 20.6971 16.2016 20.7144 16.2269 20.7397C16.2523 20.7651 16.2695 20.7974 16.2765 20.8325C16.2835 20.8677 16.2799 20.9042 16.2662 20.9373C16.2525 20.9704 16.2293 20.9987 16.1994 21.0187C16.1696 21.0386 16.1346 21.0492 16.0987 21.0492C16.0506 21.0492 16.0045 21.0301 15.9705 20.9961C15.9365 20.9621 15.9174 20.916 15.9174 20.8679V20.8679ZM19.4461 19.9781C19.4164 19.9484 19.3979 19.9094 19.3937 19.8676C19.3896 19.8259 19.4001 19.784 19.4234 19.7491C19.4467 19.7142 19.4814 19.6884 19.5216 19.6762C19.5617 19.6641 19.6049 19.6662 19.6436 19.6823C19.6824 19.6984 19.7144 19.7274 19.7341 19.7644C19.7539 19.8015 19.7602 19.8442 19.7519 19.8854C19.7437 19.9265 19.7214 19.9635 19.689 19.9901C19.6565 20.0167 19.6158 20.0312 19.5738 20.0311C19.5259 20.031 19.48 20.0119 19.4461 19.9781ZM17.4114 19.9781C17.3817 19.9484 17.3632 19.9094 17.359 19.8676C17.3549 19.8258 17.3654 19.7839 17.3887 19.749C17.4121 19.7141 17.4468 19.6884 17.4869 19.6762C17.5271 19.6641 17.5703 19.6662 17.609 19.6823C17.6478 19.6984 17.6798 19.7275 17.6995 19.7645C17.7192 19.8016 17.7255 19.8443 17.7172 19.8855C17.7089 19.9267 17.6866 19.9637 17.6541 19.9902C17.6216 20.0168 17.5809 20.0312 17.5389 20.0311C17.4911 20.0309 17.4452 20.0119 17.4114 19.9781V19.9781ZM21.6172 19.662C21.5878 19.6325 21.5695 19.5937 21.5655 19.5522C21.5615 19.5108 21.572 19.4692 21.5951 19.4346C21.6183 19.4 21.6528 19.3745 21.6927 19.3625C21.7326 19.3504 21.7754 19.3526 21.8138 19.3686C21.8523 19.3846 21.8841 19.4134 21.9037 19.4501C21.9233 19.4869 21.9295 19.5293 21.9214 19.5701C21.9132 19.611 21.8911 19.6478 21.8589 19.6742C21.8267 19.7006 21.7863 19.715 21.7447 19.715C21.6969 19.7148 21.651 19.6958 21.6172 19.662ZM15.2155 19.662C15.1858 19.6324 15.1673 19.5933 15.1632 19.5516C15.1591 19.5098 15.1695 19.4679 15.1928 19.433C15.2161 19.3981 15.2508 19.3723 15.291 19.3602C15.3312 19.348 15.3743 19.3501 15.4131 19.3662C15.4519 19.3823 15.4838 19.4113 15.5036 19.4484C15.5233 19.4854 15.5296 19.5281 15.5214 19.5693C15.5132 19.6104 15.4909 19.6474 15.4584 19.674C15.4259 19.7006 15.3852 19.7151 15.3433 19.715C15.2954 19.7149 15.2494 19.6958 15.2155 19.662V19.662ZM19.8069 19.6175C19.7771 19.5879 19.7586 19.5489 19.7544 19.5071C19.7502 19.4653 19.7606 19.4234 19.7838 19.3885C19.8071 19.3535 19.8418 19.3278 19.8819 19.3155C19.9221 19.3033 19.9652 19.3054 20.004 19.3214C20.0428 19.3374 20.0748 19.3664 20.0946 19.4034C20.1144 19.4404 20.1208 19.4832 20.1126 19.5243C20.1044 19.5655 20.0822 19.6025 20.0497 19.6292C20.0173 19.6558 19.9766 19.6703 19.9346 19.6703C19.8867 19.6702 19.8408 19.6512 19.8069 19.6175V19.6175ZM17.0498 19.6175C17.02 19.5879 17.0015 19.5489 16.9973 19.5071C16.9931 19.4653 17.0035 19.4234 17.0267 19.3885C17.05 19.3535 17.0847 19.3278 17.1248 19.3155C17.165 19.3033 17.2081 19.3054 17.2469 19.3214C17.2857 19.3374 17.3177 19.3664 17.3375 19.4034C17.3573 19.4404 17.3637 19.4832 17.3555 19.5243C17.3473 19.5655 17.3251 19.6025 17.2926 19.6292C17.2602 19.6558 17.2195 19.6703 17.1775 19.6703C17.1296 19.6702 17.0837 19.6512 17.0498 19.6175V19.6175ZM18.3754 19.416C18.3754 19.3802 18.386 19.3451 18.4059 19.3153C18.4258 19.2855 18.4541 19.2622 18.4873 19.2485C18.5204 19.2348 18.5569 19.2312 18.592 19.2382C18.6272 19.2452 18.6595 19.2625 18.6849 19.2878C18.7102 19.3132 18.7275 19.3455 18.7345 19.3807C18.7415 19.4158 18.7379 19.4523 18.7242 19.4854C18.7104 19.5185 18.6872 19.5469 18.6574 19.5668C18.6276 19.5867 18.5925 19.5973 18.5567 19.5973C18.5086 19.5973 18.4625 19.5782 18.4285 19.5442C18.3945 19.5102 18.3754 19.4641 18.3754 19.416ZM20.1667 19.2585C20.137 19.2288 20.1185 19.1898 20.1143 19.148C20.1102 19.1063 20.1207 19.0644 20.144 19.0295C20.1673 18.9946 20.202 18.9688 20.2422 18.9567C20.2823 18.9445 20.3255 18.9466 20.3642 18.9627C20.403 18.9788 20.435 19.0078 20.4547 19.0448C20.4745 19.0819 20.4808 19.1246 20.4726 19.1658C20.4643 19.2069 20.4421 19.2439 20.4096 19.2705C20.3771 19.2971 20.3364 19.3116 20.2944 19.3115C20.2465 19.3114 20.2006 19.2923 20.1667 19.2585ZM16.69 19.2585C16.6606 19.229 16.6423 19.1902 16.6383 19.1487C16.6343 19.1073 16.6448 19.0657 16.668 19.0311C16.6912 18.9965 16.7256 18.971 16.7655 18.959C16.8054 18.9469 16.8482 18.9491 16.8867 18.9651C16.9251 18.981 16.9569 19.0099 16.9765 19.0466C16.9961 19.0834 17.0023 19.1258 16.9942 19.1666C16.986 19.2075 16.964 19.2442 16.9317 19.2706C16.8995 19.2971 16.8592 19.3115 16.8175 19.3115C16.7697 19.3113 16.7238 19.2923 16.69 19.2585V19.2585ZM18.3754 18.9053C18.3754 18.8695 18.386 18.8344 18.4059 18.8046C18.4258 18.7748 18.4541 18.7516 18.4873 18.7378C18.5204 18.7241 18.5569 18.7205 18.592 18.7275C18.6272 18.7345 18.6595 18.7518 18.6849 18.7771C18.7102 18.8025 18.7275 18.8348 18.7345 18.87C18.7415 18.9051 18.7379 18.9416 18.7242 18.9747C18.7104 19.0079 18.6872 19.0362 18.6574 19.0561C18.6276 19.076 18.5925 19.0866 18.5567 19.0866V19.0866C18.5086 19.0866 18.4625 19.0675 18.4285 19.0335C18.3945 18.9995 18.3754 18.9534 18.3754 18.9053V18.9053ZM15.7127 18.8872C15.4825 18.6569 15.4885 18.2774 15.7262 18.0395C15.9639 17.8016 16.3435 17.7957 16.5739 18.0262C16.8044 18.2567 16.7982 18.636 16.5604 18.8737C16.5033 18.9313 16.4354 18.9771 16.3606 19.0084C16.2857 19.0397 16.2054 19.0558 16.1243 19.056C16.048 19.0564 15.9723 19.0417 15.9017 19.0127C15.8311 18.9837 15.7669 18.9409 15.7129 18.887L15.7127 18.8872ZM20.5515 18.8737C20.3138 18.636 20.3077 18.2565 20.538 18.0262C20.7682 17.7959 21.1478 17.8018 21.3857 18.0395C21.6236 18.2772 21.6295 18.6569 21.3992 18.8872C21.3451 18.9411 21.2809 18.9838 21.2103 19.0127C21.1396 19.0417 21.064 19.0564 20.9876 19.056C20.9065 19.0558 20.8263 19.0396 20.7515 19.0083C20.6767 18.977 20.6088 18.9313 20.5517 18.8737H20.5515ZM18.3758 18.3963C18.3758 18.3604 18.3864 18.3253 18.4063 18.2955C18.4262 18.2657 18.4545 18.2425 18.4877 18.2288C18.5208 18.215 18.5573 18.2114 18.5924 18.2184C18.6276 18.2254 18.6599 18.2427 18.6853 18.2681C18.7106 18.2934 18.7279 18.3257 18.7349 18.3609C18.7419 18.3961 18.7383 18.4325 18.7246 18.4656C18.7108 18.4988 18.6876 18.5271 18.6578 18.547C18.628 18.5669 18.5929 18.5776 18.5571 18.5776C18.5331 18.5776 18.5093 18.5729 18.4871 18.5636C18.465 18.5544 18.4449 18.5409 18.428 18.5238C18.4111 18.5068 18.3978 18.4865 18.3888 18.4643C18.3798 18.4421 18.3753 18.4182 18.3756 18.3942L18.3758 18.3963ZM17.9285 17.393C17.9286 17.2726 17.9643 17.1549 18.0312 17.0548C18.0981 16.9548 18.1932 16.8768 18.3045 16.8307C18.4157 16.7847 18.5381 16.7726 18.6562 16.7961C18.7743 16.8197 18.8828 16.8777 18.9679 16.9628C19.053 17.048 19.111 17.1564 19.1344 17.2745C19.1579 17.3926 19.1458 17.515 19.0998 17.6262C19.0537 17.7375 18.9756 17.8325 18.8755 17.8994C18.7754 17.9663 18.6577 18.002 18.5373 18.002C18.4574 18.002 18.3782 17.9863 18.3043 17.9557C18.2304 17.925 18.1633 17.8802 18.1068 17.8236C18.0502 17.7671 18.0054 17.6999 17.9748 17.6261C17.9442 17.5522 17.9285 17.473 17.9285 17.393V17.393ZM19.7382 17.7885C19.7088 17.759 19.6905 17.7202 19.6865 17.6787C19.6825 17.6373 19.693 17.5957 19.7162 17.5611C19.7394 17.5265 19.7738 17.501 19.8137 17.4889C19.8536 17.4769 19.8964 17.4791 19.9349 17.495C19.9733 17.511 20.0051 17.5398 20.0247 17.5766C20.0443 17.6134 20.0505 17.6558 20.0424 17.6966C20.0342 17.7375 20.0122 17.7742 19.98 17.8006C19.9477 17.827 19.9074 17.8415 19.8657 17.8415C19.8179 17.8413 19.772 17.8223 19.7382 17.7885V17.7885ZM17.0887 17.7748C17.0589 17.7452 17.0403 17.7061 17.0361 17.6644C17.0319 17.6226 17.0424 17.5807 17.0656 17.5457C17.0889 17.5108 17.1236 17.485 17.1638 17.4728C17.2039 17.4606 17.2471 17.4627 17.2859 17.4787C17.3247 17.4948 17.3567 17.5238 17.3765 17.5608C17.3962 17.5979 17.4026 17.6406 17.3943 17.6818C17.3861 17.7229 17.3639 17.76 17.3314 17.7866C17.2989 17.8131 17.2582 17.8276 17.2162 17.8276C17.1684 17.8275 17.1225 17.8085 17.0887 17.7748V17.7748Z" fill="url(#paint0_linear_9033_72212)"/>
<defs>
<linearGradient id="paint0_linear_9033_72212" x1="5.15467" y1="3.6965" x2="31.7947" y2="32.1365" gradientUnits="userSpaceOnUse">
<stop stop-color="#4D2FE5"/>
<stop offset="0.53" stop-color="#D51FD5"/>
<stop offset="1" stop-color="#FB767C"/>
</linearGradient>
</defs>
</svg>
