<svg width="18" height="19" viewBox="0 0 18 19" fill="none" xmlns="http://www.w3.org/2000/svg">
<path d="M11.9165 0.277344C11.8386 0.277344 11.7608 0.291517 11.687 0.320475C11.5437 0.377142 9.38149 1.26581 7.78566 3.79622C9.32941 4.34914 11.0022 5.32982 12.6693 6.99691C13.9918 8.31899 14.7583 10.0464 14.8283 11.8602C14.8833 13.2935 14.4951 14.6442 13.7305 15.7729C13.7846 15.8979 13.8295 16.012 13.8753 16.1261C16.1295 15.2616 17.7498 12.9584 17.7498 10.2497C17.7498 2.62051 12.3748 0.410892 12.146 0.320475C12.0723 0.291517 11.9944 0.277344 11.9165 0.277344ZM3.92172 3.99154C2.28506 4.03509 1.20341 4.48725 1.10516 4.53027C0.959322 4.59319 0.843365 4.70956 0.780448 4.85498C0.682532 5.0804 -1.55416 10.4395 3.83709 15.8299C5.01001 17.0032 6.53917 17.6827 8.14292 17.7448C8.2225 17.7481 8.30138 17.7497 8.38055 17.7497C9.36055 17.7497 10.2896 17.5123 11.1092 17.0669C10.9792 16.754 10.8145 16.3908 10.5941 15.9674C8.57034 12.0866 4.19822 8.52607 4.15447 8.49023C3.97572 8.34565 3.94844 8.08305 4.09344 7.9043C4.23802 7.72596 4.50021 7.69703 4.67937 7.84245C4.86395 7.99119 9.22748 11.5457 11.333 15.5825C11.5314 15.9629 11.6905 16.303 11.8197 16.603C12.2179 17.5272 12.3188 18.0498 12.3267 18.0923C12.3412 18.1735 12.3716 18.251 12.4162 18.3204C12.4609 18.3898 12.5188 18.4497 12.5866 18.4966C12.6545 18.5435 12.731 18.5765 12.8117 18.5937C12.8924 18.6109 12.9756 18.6119 13.0567 18.5968C13.1378 18.5816 13.2151 18.5506 13.2842 18.5054C13.3532 18.4603 13.4126 18.4019 13.459 18.3336C13.5053 18.2654 13.5377 18.1887 13.5543 18.1079C13.5709 18.0271 13.5713 17.9438 13.5555 17.8628C13.531 17.7311 13.367 16.9494 12.7743 15.6794C13.6192 14.6294 14.0499 13.306 13.9958 11.8927C13.9333 10.289 13.2534 8.75943 12.0801 7.5861C9.04798 4.55446 6.026 3.93554 3.92172 3.99154Z" fill="#40B58A"/>
</svg>
