<svg width="61" height="61" viewBox="0 0 61 61" fill="none" xmlns="http://www.w3.org/2000/svg">
<circle cx="30.5" cy="30.5" r="30.5" fill="url(#paint0_linear_8537_47095)"/>
<path d="M43.3298 21.4712L41.45 19.2859C39.8562 17.613 37.9384 16.2817 35.8133 15.373C33.6883 14.4643 31.4004 13.9971 29.089 14C19.6544 14 12 21.649 12 31.0769C12 40.5048 19.6544 48.1538 29.089 48.1538C32.6234 48.1536 36.0708 47.0588 38.9569 45.02C41.843 42.9812 44.0259 40.0988 45.2051 36.7692" stroke="#25252A" stroke-width="5" stroke-miterlimit="10" stroke-linecap="round"/>
<path d="M49.0003 16.4431V26.7408C49.0003 27.136 48.8545 27.5149 48.5951 27.7944C48.3356 28.0738 47.9836 28.2308 47.6167 28.2308H38.0539C36.8208 28.2308 36.2033 26.6263 37.075 25.6876L46.6386 15.3889C47.5103 14.4484 49.0003 15.1152 49.0003 16.4431Z" fill="#25252A"/>
<defs>
<linearGradient id="paint0_linear_8537_47095" x1="0" y1="33.1688" x2="61" y2="33.1688" gradientUnits="userSpaceOnUse">
<stop offset="0.427083" stop-color="#EC008C"/>
<stop offset="1" stop-color="#2B328C"/>
</linearGradient>
</defs>
</svg>
