<svg width="62" height="62" viewBox="0 0 62 62" fill="none" xmlns="http://www.w3.org/2000/svg">
<path d="M31.2801 4.66181e-05C14.3678 4.66181e-05 0.589844 11.1721 0.589844 25.0223C0.589844 25.3491 0.720568 25.6759 0.981563 25.937L21.0281 47.3007C21.4855 46.5168 22.1382 45.8633 22.9216 45.4063L3.65856 24.7612C3.98515 23.389 7.05419 21.5598 11.886 21.5598C16.9793 21.5598 19.7874 23.4542 20.2442 24.9572L26.3167 44.5569H29.19L23.2477 25.3492C23.117 25.0225 23.117 24.6305 23.2477 24.3038C24.0311 22.9973 26.9699 21.5598 31.3448 21.5598C35.589 21.5598 38.4622 22.9971 39.3112 24.2386C39.5071 24.5653 39.5071 25.0224 39.4419 25.3492L33.4997 44.5569H36.3073L42.3798 24.9572C42.8371 23.2587 45.6447 21.5598 50.803 21.5598C55.6352 21.5598 58.7044 23.3891 59.0305 24.7612L39.6381 45.4062C40.4215 45.8638 41.0746 46.5168 41.5315 47.3006L61.5781 25.9369C61.8391 25.6758 61.9698 25.349 61.9698 25.0223C61.9047 11.173 48.1918 0 31.2796 0L31.2801 4.66181e-05Z" fill="url(#paint0_linear_7472_46264)"/>
<path d="M36.7647 47.3003H25.7949C24.2276 47.3003 22.9873 48.5417 22.9873 50.1094V59.1906C22.9873 60.7587 24.2281 61.9996 25.7949 61.9996H36.8304C38.3976 61.9996 39.6379 60.7582 39.6379 59.1906V50.1746C39.6379 48.6068 38.3321 47.3003 36.7647 47.3003Z" fill="url(#paint1_linear_7472_46264)"/>
<defs>
<linearGradient id="paint0_linear_7472_46264" x1="0.589844" y1="25.7197" x2="61.9698" y2="25.7197" gradientUnits="userSpaceOnUse">
<stop stop-color="#EC008C"/>
<stop offset="1" stop-color="#2B328C"/>
</linearGradient>
<linearGradient id="paint1_linear_7472_46264" x1="22.9873" y1="55.2931" x2="39.6379" y2="55.2931" gradientUnits="userSpaceOnUse">
<stop stop-color="#EC008C"/>
<stop offset="1" stop-color="#2B328C"/>
</linearGradient>
</defs>
</svg>
