<svg width="61" height="57" viewBox="0 0 61 57" fill="none" xmlns="http://www.w3.org/2000/svg">
<path fill-rule="evenodd" clip-rule="evenodd" d="M37.92 56.5892V51.3802H30.9324V56.5892H37.92ZM26.3422 16.6974C34.7685 17.2458 47.4419 13.8186 54.4984 9.15763C61.0749 4.77111 60.1845 1.41231 52.3061 0.93268C43.8115 0.38422 31.2064 3.81145 24.1499 8.47242C17.505 12.7906 18.4638 16.2177 26.3422 16.6974ZM53.6759 11.2827L55.0461 16.2861C55.4571 16.0805 55.7998 15.8064 56.2108 15.6008C59.2936 13.5446 60.9377 11.4883 60.5267 9.9806L59.5675 6.27939C58.4028 8.1984 56.0737 9.91223 53.6759 11.2828L53.6759 11.2827ZM45.9346 14.7784L47.3048 19.8506C49.7026 18.9597 51.8945 17.9999 53.7442 17.0403L52.4427 11.968C50.5247 12.9962 48.3324 13.9559 45.9345 14.7784H45.9346ZM37.9194 17.0402L39.2209 22.1124L46.0029 20.2618L44.6327 15.2584L37.919 17.0406L37.9194 17.0402ZM29.5616 18.1368L30.863 23.1401C32.9866 23.0717 35.3844 22.7973 37.8507 22.386L36.5492 17.3138C34.0146 17.7935 31.6851 18.0679 29.5616 18.1363V18.1368ZM21.478 20.467C22.0262 22.5233 26.0677 23.1401 29.4248 23.1401L28.1233 18.1368C25.3145 18.1368 22.4372 17.7939 20.5192 16.7658L21.4784 20.467H21.478ZM4.96824 25.3336L7.57162 20.8099C5.58477 18.8908 3.80391 16.6289 3.18737 14.4355L1.26936 17.7939C0.173345 19.576 2.57084 22.8661 4.96864 25.3336H4.96824ZM11.4765 30.7482L14.0799 26.2245C12.0247 24.7851 10.175 23.2774 8.5993 21.838L5.99593 26.2933C7.50289 27.801 9.42131 29.3092 11.4765 30.7485V30.7482ZM21.2729 30.4742L15.2446 26.9786L12.6412 31.5023L18.6696 34.9979L21.2729 30.4742ZM7.29732 18.5481C12.9146 24.9225 24.2865 31.4345 32.5762 33.147C37.4402 34.1751 41.4134 33.4898 39.1527 29.0345C38.399 27.5951 37.0976 25.8817 35.3163 24.168C30.7949 24.7848 21.3407 25.1961 20.176 20.8096L18.4635 14.4352C18.3264 14.0239 18.3264 13.6811 18.3264 13.3386C14.8325 11.8992 11.6815 11.0083 9.14642 10.8027C2.84376 10.3231 3.25482 13.9555 7.29673 18.548L7.29732 18.5481ZM26.4795 38.1513L29.0829 33.696C27.0277 33.0107 24.8354 32.1882 22.5746 31.0913L19.9713 35.615C22.2319 36.7116 24.4926 37.534 26.4795 38.1509V38.1513ZM27.9181 38.5625C31.138 39.385 35.1796 39.8647 36.276 38.0141L38.194 34.7241C36.0017 35.2038 33.1244 34.7925 30.4527 34.1072L27.9181 38.5625ZM47.6483 49.9403V55.0809C50.9365 54.19 54.6359 52.545 54.6359 50.4199V46.5815C53.0601 48.1581 50.32 49.1862 47.6483 49.9399V49.9403ZM19.8343 48.0896C27.8495 50.7627 41.0026 50.7627 49.0178 48.0896C55.7315 45.8278 56.8275 42.6062 50.1138 39.933C47.0994 38.7677 42.9207 37.8768 38.1254 37.6028L37.4404 38.6993C34.9059 43.2231 23.4648 38.5621 23.3962 38.5621C20.5189 39.179 18.1898 40.0015 16.5457 40.9612C11.8872 43.7027 14.8332 46.3758 19.8339 48.0896L19.8343 48.0896ZM21.2045 55.0809V49.9403C18.5328 49.1862 15.861 48.1581 14.2169 46.5819V50.4203C14.2169 52.545 17.9162 54.19 21.2045 55.0813V55.0809ZM29.5623 56.5203V51.2425C27.0278 51.1052 24.6983 50.694 22.5747 50.2827V55.4233C24.6299 55.9718 27.0277 56.3142 29.5623 56.5199V56.5203ZM39.2904 51.2425V56.5203C41.8249 56.3146 44.2228 55.9718 46.278 55.4237V50.2831C44.2228 50.6943 41.825 51.1056 39.2904 51.2428V51.2425Z" fill="url(#paint0_linear_7362_46290)"/>
<defs>
<linearGradient id="paint0_linear_7362_46290" x1="0.996094" y1="29.2043" x2="60.589" y2="29.2043" gradientUnits="userSpaceOnUse">
<stop stop-color="#EC008C"/>
<stop offset="1" stop-color="#2B328C"/>
</linearGradient>
</defs>
</svg>
