<svg width="45" height="65" viewBox="0 0 45 65" fill="none" xmlns="http://www.w3.org/2000/svg">
<path d="M30.8926 41.3258C31.1068 41.2545 31.3928 41.3971 31.3928 41.6832V63.6954C31.3928 64.2672 30.7501 64.6246 30.2498 64.2672L22.7494 59.4076C22.5352 59.2645 22.1779 59.2645 21.9637 59.4076L14.4633 64.2672C13.9631 64.5528 13.3203 64.2672 13.3203 63.6954L13.3208 41.6832C13.3208 41.4689 13.6063 41.2545 13.8211 41.3258C14.6068 41.6114 15.3925 42.112 15.8923 42.755L18.2495 45.5423C20.3208 47.9007 24.3214 47.9007 26.3926 45.5423L28.7499 42.755C29.3209 42.1119 30.0354 41.6114 30.8924 41.3258H30.8926Z" fill="url(#paint0_linear_7424_48101)"/>
<path d="M42.8933 19.0283L40.393 17.0985C39.25 16.1693 38.6072 14.7401 38.8215 13.2395L39.25 10.0948C39.6073 7.37892 37.25 5.0922 34.5355 5.37782L31.3929 5.80704C29.8926 6.02141 28.4641 5.37831 27.5359 4.23475L25.6071 1.73312C23.9644 -0.411041 20.6783 -0.411041 18.9643 1.73312L17.0356 4.23475C16.1068 5.37835 14.6783 6.02145 13.1786 5.80704L10.0355 5.37831C7.32097 5.02087 5.03544 7.37941 5.32091 10.0953L5.74941 13.24C5.96367 14.7411 5.32091 16.1703 4.17794 17.099L1.6776 19.0288C-0.465451 20.6724 -0.465451 23.9602 1.6776 25.6751L4.17794 27.6048C5.32094 28.5341 5.96371 29.9633 5.74941 31.4638L5.32091 34.6085C4.96365 37.3244 7.32097 39.6112 10.0355 39.3255L13.1786 38.8968C14.6789 38.6824 16.1073 39.3255 17.0356 40.4691L18.9643 42.9707C20.6071 45.1149 23.8932 45.1149 25.6071 42.9707L27.5359 40.4691C28.4646 39.3255 29.8931 38.6824 31.3929 38.8968L34.536 39.3255C37.2505 39.683 39.536 37.3244 39.2505 34.6085L38.822 31.4638C38.6078 29.9627 39.2505 28.5335 40.3935 27.6048L42.8939 25.6751C45.1076 23.9597 45.1076 20.6724 42.8934 19.0283L42.8933 19.0283ZM22.3213 37.8958C13.7497 37.8958 6.74934 30.9634 6.74934 22.3158C6.74934 13.7398 13.6781 6.73583 22.3213 6.73583C30.8928 6.73583 37.8932 13.6682 37.8932 22.3158C37.8932 30.8918 30.8931 37.8958 22.3213 37.8958Z" fill="url(#paint1_linear_7424_48101)"/>
<path d="M22.3198 9.23633C15.1055 9.23633 9.24805 15.0969 9.24805 22.3149C9.24805 29.5329 15.1056 35.3936 22.3198 35.3936C29.534 35.3936 35.3916 29.5329 35.3916 22.3149C35.3916 15.0969 29.534 9.23633 22.3198 9.23633ZM29.6772 20.457L26.4629 23.6017C26.3917 23.673 26.3199 23.8161 26.3199 23.9592L27.1057 28.3901C27.1769 28.7475 26.8202 28.9619 26.5342 28.8188L22.5342 26.7465C22.3912 26.6752 22.2487 26.6752 22.1769 26.7465L18.177 28.8188C17.8915 28.9619 17.5342 28.7475 17.6055 28.3901L18.3912 23.9592C18.3912 23.8161 18.3912 23.6735 18.2482 23.6017L15.034 20.457C14.8197 20.2427 14.891 19.8139 15.2482 19.7421L19.6768 19.0991C19.8198 19.0991 19.9623 19.0278 19.9623 18.8847L21.9623 14.8108C22.1053 14.5251 22.5338 14.5251 22.6768 14.8108L24.6769 18.8847C24.7482 19.0278 24.8199 19.0991 24.9624 19.0991L29.391 19.7421C29.8205 19.7421 29.9635 20.1709 29.6775 20.457H29.6772Z" fill="url(#paint2_linear_7424_48101)"/>
<defs>
<linearGradient id="paint0_linear_7424_48101" x1="13.3203" y1="53.0547" x2="31.3928" y2="53.0547" gradientUnits="userSpaceOnUse">
<stop stop-color="#EC008C"/>
<stop offset="1" stop-color="#2B328C"/>
</linearGradient>
<linearGradient id="paint1_linear_7424_48101" x1="0.0703125" y1="22.7286" x2="44.5541" y2="22.7286" gradientUnits="userSpaceOnUse">
<stop stop-color="#EC008C"/>
<stop offset="1" stop-color="#2B328C"/>
</linearGradient>
<linearGradient id="paint2_linear_7424_48101" x1="9.24805" y1="22.5366" x2="35.3916" y2="22.5366" gradientUnits="userSpaceOnUse">
<stop stop-color="#EC008C"/>
<stop offset="1" stop-color="#2B328C"/>
</linearGradient>
</defs>
</svg>
