<svg width="117" height="118" viewBox="0 0 117 118" fill="none" xmlns="http://www.w3.org/2000/svg">
<path d="M116.698 58.9186C116.698 91.144 90.5746 117.268 58.3492 117.268C26.1238 117.268 0 91.144 0 58.9186C0 26.6932 26.1238 0.569336 58.3492 0.569336C90.5746 0.569336 116.698 26.6932 116.698 58.9186Z" fill="black" fill-opacity="0.25"/>
<path d="M60.7142 73.4802C56.4505 74.1952 52.0717 73.3939 48.3363 71.2155C44.6019 69.0371 41.7475 65.619 40.2688 61.5549C39.7887 60.1057 38.7861 58.8875 37.4568 58.1386C36.1269 57.3893 34.5662 57.1629 33.0789 57.5035C31.5912 57.8437 30.2841 58.7267 29.4125 59.9797C28.2752 61.5545 27.9773 63.5859 28.6152 65.4209C30.714 71.4421 34.6359 76.6592 39.8352 80.3476C45.0345 84.036 51.2528 86.0112 57.6269 85.9997C58.4242 85.9997 59.2419 85.9997 60.0597 85.8974C67.0776 85.3431 73.6912 82.3898 78.7907 77.534C83.8896 72.6776 87.1635 66.214 88.0625 59.2281C88.962 52.2426 87.4313 45.1594 83.7284 39.17C80.0256 33.1795 74.3753 28.6465 67.7265 26.331C65.8925 25.6931 63.8621 25.9908 62.2881 27.1291C61.0358 28.0012 60.1533 29.3089 59.8132 30.797C59.4728 32.2854 59.6991 33.8471 60.448 35.1771C61.1964 36.5072 62.414 37.5108 63.8625 37.9906C69.0116 39.8335 73.0746 43.8715 74.9502 49.011C76.8257 54.1504 76.3197 59.8583 73.5683 64.5864C70.8174 69.3148 66.1073 72.5743 60.7142 73.4802Z" fill="url(#paint0_linear_7390_46312)"/>
<path fill-rule="evenodd" clip-rule="evenodd" d="M34.5026 53.2702C35.775 53.2752 37.0175 52.8839 38.0577 52.1511C39.0981 51.4178 39.8849 50.3795 40.3089 49.1791C42.1631 43.9552 46.2712 39.8449 51.4924 37.9897C52.9408 37.5098 54.1584 36.5063 54.9069 35.1762C55.6558 33.8461 55.8821 32.2846 55.5417 30.796C55.2017 29.308 54.3191 28.0003 53.0668 27.1282C51.4928 25.9899 49.4625 25.6922 47.6284 26.33C43.2776 27.8747 39.3255 30.3713 36.0612 33.6374C32.7969 36.9034 30.3015 40.8577 28.7576 45.2108C28.1201 47.0459 28.4176 49.0773 29.5553 50.6521C30.6871 52.2708 32.5283 53.2452 34.5026 53.2702Z" fill="url(#paint1_linear_7390_46312)"/>
<path d="M52.5477 80.5799L52.5477 80.5794C52.5133 80.0776 52.2536 79.6094 51.8395 79.319C51.8394 79.3189 51.8393 79.3188 51.8392 79.3188L45.8525 75.1068L49.7426 64.6466C49.7427 64.6462 49.7429 64.6458 49.743 64.6455C50.0212 63.9053 49.74 63.0865 49.0919 62.6598L49.0919 62.6598C48.4376 62.229 47.574 62.3128 47.011 62.8604C47.0108 62.8607 47.0105 62.8609 47.0103 62.8612L33.9226 75.504C33.9221 75.5045 33.9216 75.505 33.9211 75.5054C33.5535 75.8561 33.3757 76.3512 33.4095 76.8449L33.4094 76.8449L33.4103 76.8551C33.455 77.3562 33.7114 77.8026 34.1218 78.0903L34.1247 78.0923L40.2864 82.349L36.7004 91.6838L36.7003 91.6838L36.697 91.6927C36.4364 92.4117 36.6833 93.2328 37.3252 93.6723L37.472 93.7728L37.4921 93.7711C37.6087 93.832 37.732 93.8794 37.864 93.9127C38.3977 94.0471 38.9843 93.9072 39.4053 93.5177C39.4055 93.5175 39.4057 93.5173 39.406 93.5171L52.0127 81.9227C52.0128 81.9226 52.0128 81.9225 52.0129 81.9224C52.3891 81.5772 52.5817 81.0825 52.5477 80.5799Z" fill="#2B328C" stroke="#ECECEE"/>
<defs>
<linearGradient id="paint0_linear_7390_46312" x1="28.2852" y1="56.5088" x2="88.3138" y2="56.5088" gradientUnits="userSpaceOnUse">
<stop stop-color="#EC008C"/>
<stop offset="1" stop-color="#2B328C"/>
</linearGradient>
<linearGradient id="paint1_linear_7390_46312" x1="28.4277" y1="39.8662" x2="55.6963" y2="39.8662" gradientUnits="userSpaceOnUse">
<stop stop-color="#EC008C"/>
<stop offset="1" stop-color="#2B328C"/>
</linearGradient>
</defs>
</svg>
