<svg width="501" height="62" viewBox="0 0 501 76" fill="none" xmlns="http://www.w3.org/2000/svg">
<path opacity="0.3" d="M35.3 20.92L34.4685 22.7389L34.4793 22.7439L34.4901 22.7487L35.3 20.92ZM41.78 26.32L40.0986 27.403L40.1028 27.4095L40.1071 27.4161L41.78 26.32ZM41.78 42.76L43.4529 43.8561H43.4529L41.78 42.76ZM35.3 48.16L36.1099 49.9887L36.1207 49.9839L36.1315 49.9789L35.3 48.16ZM18.08 50.02V48.02H16.08V50.02H18.08ZM18.08 61V63H20.08V61H18.08ZM6.2 61H4.2V63H6.2V61ZM6.2 19V17H4.2V19H6.2ZM30.2 39.1L31.4852 40.6324L31.4995 40.6204L31.5136 40.6082L30.2 39.1ZM18.08 28.36V26.36H16.08V28.36H18.08ZM18.08 40.66H16.08V42.66H18.08V40.66ZM25.4 21C28.9786 21 31.9831 21.6028 34.4685 22.7389L36.1315 19.101C33.0169 17.6772 29.4214 17 25.4 17V21ZM34.4901 22.7487C36.9669 23.8455 38.8092 25.4011 40.0986 27.403L43.4614 25.237C41.7108 22.5189 39.2331 20.4745 36.1099 19.0913L34.4901 22.7487ZM40.1071 27.4161C41.385 29.3666 42.06 31.7136 42.06 34.54H46.06C46.06 31.0464 45.215 27.9134 43.4529 25.2239L40.1071 27.4161ZM42.06 34.54C42.06 37.3664 41.385 39.7134 40.1071 41.6639L43.4529 43.8561C45.215 41.1666 46.06 38.0336 46.06 34.54H42.06ZM40.1071 41.6639C38.8161 43.6344 36.9644 45.2 34.4685 46.341L36.1315 49.9789C39.2356 48.56 41.7039 46.5256 43.4529 43.8561L40.1071 41.6639ZM34.4901 46.3313C31.9988 47.4346 28.9864 48.02 25.4 48.02V52.02C29.4137 52.02 33.0012 51.3654 36.1099 49.9887L34.4901 46.3313ZM25.4 48.02H18.08V52.02H25.4V48.02ZM16.08 50.02V61H20.08V50.02H16.08ZM18.08 59H6.2V63H18.08V59ZM8.2 61V19H4.2V61H8.2ZM6.2 21H25.4V17H6.2V21ZM24.68 42.66C27.3605 42.66 29.7415 42.0949 31.4852 40.6324L28.9148 37.5676C28.1785 38.1851 26.8795 38.66 24.68 38.66V42.66ZM31.5136 40.6082C33.2738 39.0751 34.06 36.9565 34.06 34.54H30.06C30.06 36.0435 29.6062 36.9649 28.8864 37.5918L31.5136 40.6082ZM34.06 34.54C34.06 32.1235 33.2738 30.0049 31.5136 28.4718L28.8864 31.4882C29.6062 32.1151 30.06 33.0365 30.06 34.54H34.06ZM31.5136 28.4718C29.7684 26.9519 27.3756 26.36 24.68 26.36V30.36C26.8644 30.36 28.1516 30.8481 28.8864 31.4882L31.5136 28.4718ZM24.68 26.36H18.08V30.36H24.68V26.36ZM16.08 28.36V40.66H20.08V28.36H16.08ZM18.08 42.66H24.68V38.66H18.08V42.66ZM76.233 52.84L78.0871 52.0902L77.5815 50.84H76.233V52.84ZM58.473 52.84V50.84H57.1244L56.6189 52.0902L58.473 52.84ZM55.173 61V63H56.5215L57.0271 61.7498L55.173 61ZM43.053 61L41.2233 60.1923L39.9839 63H43.053V61ZM61.593 19V17H60.2896L59.7633 18.1923L61.593 19ZM73.293 19L75.1217 18.1901L74.5946 17H73.293V19ZM91.893 61V63H94.966L93.7217 60.1901L91.893 61ZM79.533 61L77.6788 61.7498L78.1844 63H79.533V61ZM72.753 44.08V46.08H75.7119L74.6088 43.3344L72.753 44.08ZM67.353 30.64L69.2088 29.8944L67.353 25.2755L65.4972 29.8944L67.353 30.64ZM61.953 44.08L60.0972 43.3344L58.994 46.08H61.953V44.08ZM76.233 50.84H58.473V54.84H76.233V50.84ZM56.6189 52.0902L53.3188 60.2502L57.0271 61.7498L60.3271 53.5898L56.6189 52.0902ZM55.173 59H43.053V63H55.173V59ZM44.8826 61.8077L63.4226 19.8077L59.7633 18.1923L41.2233 60.1923L44.8826 61.8077ZM61.593 21H73.293V17H61.593V21ZM71.4643 19.8098L90.0643 61.8099L93.7217 60.1901L75.1217 18.1901L71.4643 19.8098ZM91.893 59H79.533V63H91.893V59ZM81.3871 60.2502L78.0871 52.0902L74.3789 53.5898L77.6788 61.7498L81.3871 60.2502ZM74.6088 43.3344L69.2088 29.8944L65.4972 31.3856L70.8972 44.8256L74.6088 43.3344ZM65.4972 29.8944L60.0972 43.3344L63.8088 44.8256L69.2088 31.3856L65.4972 29.8944ZM61.953 46.08H72.753V42.08H61.953V46.08ZM113.971 49.84L115.623 48.7122L115.027 47.84H113.971V49.84ZM107.491 49.84V47.84H105.491V49.84H107.491ZM107.491 61V63H109.491V61H107.491ZM95.6109 61H93.6109V63H95.6109V61ZM95.6109 19V17H93.6109V19H95.6109ZM124.711 20.92L123.879 22.7389L123.89 22.7439L123.901 22.7487L124.711 20.92ZM131.191 26.32L129.51 27.403L129.514 27.4095L129.518 27.4161L131.191 26.32ZM131.311 42.52L129.62 41.452L129.615 41.46L131.311 42.52ZM125.251 47.8L124.378 46.0004L122.286 47.0148L123.602 48.9318L125.251 47.8ZM134.311 61V63H138.109L135.96 59.8682L134.311 61ZM121.591 61L119.939 62.1278L120.535 63H121.591V61ZM107.491 28.36V26.36H105.491V28.36H107.491ZM107.491 40.66H105.491V42.66H107.491V40.66ZM119.611 39.1L120.896 40.6324L120.91 40.6204L120.924 40.6082L119.611 39.1ZM113.971 47.84H107.491V51.84H113.971V47.84ZM105.491 49.84V61H109.491V49.84H105.491ZM107.491 59H95.6109V63H107.491V59ZM97.6109 61V19H93.6109V61H97.6109ZM95.6109 21H114.811V17H95.6109V21ZM114.811 21C118.39 21 121.394 21.6028 123.879 22.7389L125.542 19.101C122.428 17.6772 118.832 17 114.811 17V21ZM123.901 22.7487C126.378 23.8455 128.22 25.4011 129.51 27.403L132.872 25.237C131.122 22.5189 128.644 20.4745 125.521 19.0913L123.901 22.7487ZM129.518 27.4161C130.796 29.3666 131.471 31.7136 131.471 34.54H135.471C135.471 31.0464 134.626 27.9134 132.864 25.2239L129.518 27.4161ZM131.471 34.54C131.471 37.2515 130.833 39.5311 129.62 41.452L133.002 43.588C134.669 40.9489 135.471 37.9085 135.471 34.54H131.471ZM129.615 41.46C128.436 43.3463 126.718 44.8658 124.378 46.0004L126.123 49.5996C129.063 48.1742 131.386 46.1737 133.007 43.58L129.615 41.46ZM123.602 48.9318L132.662 62.1318L135.96 59.8682L126.9 46.6682L123.602 48.9318ZM134.311 59H121.591V63H134.311V59ZM123.243 59.8722L115.623 48.7122L112.319 50.9678L119.939 62.1278L123.243 59.8722ZM123.471 34.54C123.471 32.1235 122.685 30.0049 120.924 28.4718L118.297 31.4882C119.017 32.1151 119.471 33.0365 119.471 34.54H123.471ZM120.924 28.4718C119.179 26.9519 116.787 26.36 114.091 26.36V30.36C116.275 30.36 117.562 30.8481 118.297 31.4882L120.924 28.4718ZM114.091 26.36H107.491V30.36H114.091V26.36ZM105.491 28.36V40.66H109.491V28.36H105.491ZM107.491 42.66H114.091V38.66H107.491V42.66ZM114.091 42.66C116.771 42.66 119.152 42.0949 120.896 40.6324L118.326 37.5676C117.589 38.1851 116.29 38.66 114.091 38.66V42.66ZM120.924 40.6082C122.685 39.0751 123.471 36.9565 123.471 34.54H119.471C119.471 36.0435 119.017 36.9649 118.297 37.5918L120.924 40.6082ZM148.729 28.42H150.729V26.42H148.729V28.42ZM135.829 28.42H133.829V30.42H135.829V28.42ZM135.829 19V17H133.829V19H135.829ZM173.449 19H175.449V17H173.449V19ZM173.449 28.42V30.42H175.449V28.42H173.449ZM160.609 28.42V26.42H158.609V28.42H160.609ZM160.609 61V63H162.609V61H160.609ZM148.729 61H146.729V63H148.729V61ZM148.729 26.42H135.829V30.42H148.729V26.42ZM137.829 28.42V19H133.829V28.42H137.829ZM135.829 21H173.449V17H135.829V21ZM171.449 19V28.42H175.449V19H171.449ZM173.449 26.42H160.609V30.42H173.449V26.42ZM158.609 28.42V61H162.609V28.42H158.609ZM160.609 59H148.729V63H160.609V59ZM150.729 61V28.42H146.729V61H150.729ZM218.185 19H220.185V17H218.185V19ZM218.185 61V63H220.185V61H218.185ZM208.405 61L206.865 62.2759L207.465 63H208.405V61ZM189.865 38.62L191.405 37.3441L187.865 33.0707V38.62H189.865ZM189.865 61V63H191.865V61H189.865ZM178.225 61H176.225V63H178.225V61ZM178.225 19V17H176.225V19H178.225ZM188.005 19L189.545 17.7241L188.945 17H188.005V19ZM206.545 41.38L205.005 42.6559L208.545 46.9293V41.38H206.545ZM206.545 19V17H204.545V19H206.545ZM216.185 19V61H220.185V19H216.185ZM218.185 59H208.405V63H218.185V59ZM209.945 59.7241L191.405 37.3441L188.325 39.8959L206.865 62.2759L209.945 59.7241ZM187.865 38.62V61H191.865V38.62H187.865ZM189.865 59H178.225V63H189.865V59ZM180.225 61V19H176.225V61H180.225ZM178.225 21H188.005V17H178.225V21ZM186.465 20.2759L205.005 42.6559L208.085 40.1041L189.545 17.7241L186.465 20.2759ZM208.545 41.38V19H204.545V41.38H208.545ZM206.545 21H218.185V17H206.545V21ZM260.635 51.82H262.635V49.82H260.635V51.82ZM260.635 61V63H262.635V61H260.635ZM226.915 61H224.915V63H226.915V61ZM226.915 19V17H224.915V19H226.915ZM259.855 19H261.855V17H259.855V19ZM259.855 28.18V30.18H261.855V28.18H259.855ZM238.675 28.18V26.18H236.675V28.18H238.675ZM238.675 35.26H236.675V37.26H238.675V35.26ZM257.335 35.26H259.335V33.26H257.335V35.26ZM257.335 44.14V46.14H259.335V44.14H257.335ZM238.675 44.14V42.14H236.675V44.14H238.675ZM238.675 51.82H236.675V53.82H238.675V51.82ZM258.635 51.82V61H262.635V51.82H258.635ZM260.635 59H226.915V63H260.635V59ZM228.915 61V19H224.915V61H228.915ZM226.915 21H259.855V17H226.915V21ZM257.855 19V28.18H261.855V19H257.855ZM259.855 26.18H238.675V30.18H259.855V26.18ZM236.675 28.18V35.26H240.675V28.18H236.675ZM238.675 37.26H257.335V33.26H238.675V37.26ZM255.335 35.26V44.14H259.335V35.26H255.335ZM257.335 42.14H238.675V46.14H257.335V42.14ZM236.675 44.14V51.82H240.675V44.14H236.675ZM238.675 53.82H260.635V49.82H238.675V53.82ZM285.937 49.84L287.589 48.7122L286.993 47.84H285.937V49.84ZM279.457 49.84V47.84H277.457V49.84H279.457ZM279.457 61V63H281.457V61H279.457ZM267.577 61H265.577V63H267.577V61ZM267.577 19V17H265.577V19H267.577ZM296.677 20.92L295.846 22.7389L295.857 22.7439L295.867 22.7487L296.677 20.92ZM303.157 26.32L301.476 27.403L301.48 27.4095L301.484 27.4161L303.157 26.32ZM303.277 42.52L301.586 41.452L301.581 41.46L303.277 42.52ZM297.217 47.8L296.345 46.0004L294.253 47.0148L295.568 48.9318L297.217 47.8ZM306.277 61V63H310.076L307.926 59.8682L306.277 61ZM293.557 61L291.906 62.1278L292.501 63H293.557V61ZM279.457 28.36V26.36H277.457V28.36H279.457ZM279.457 40.66H277.457V42.66H279.457V40.66ZM291.577 39.1L292.863 40.6324L292.877 40.6204L292.891 40.6082L291.577 39.1ZM285.937 47.84H279.457V51.84H285.937V47.84ZM277.457 49.84V61H281.457V49.84H277.457ZM279.457 59H267.577V63H279.457V59ZM269.577 61V19H265.577V61H269.577ZM267.577 21H286.777V17H267.577V21ZM286.777 21C290.356 21 293.361 21.6028 295.846 22.7389L297.509 19.101C294.394 17.6772 290.799 17 286.777 17V21ZM295.867 22.7487C298.344 23.8455 300.187 25.4011 301.476 27.403L304.839 25.237C303.088 22.5189 300.61 20.4745 297.487 19.0913L295.867 22.7487ZM301.484 27.4161C302.762 29.3666 303.437 31.7136 303.437 34.54H307.437C307.437 31.0464 306.592 27.9134 304.83 25.2239L301.484 27.4161ZM303.437 34.54C303.437 37.2515 302.8 39.5311 301.586 41.452L304.968 43.588C306.635 40.9489 307.437 37.9085 307.437 34.54H303.437ZM301.581 41.46C300.402 43.3463 298.685 44.8658 296.345 46.0004L298.09 49.5996C301.03 48.1742 303.352 46.1737 304.973 43.58L301.581 41.46ZM295.568 48.9318L304.628 62.1318L307.926 59.8682L298.866 46.6682L295.568 48.9318ZM306.277 59H293.557V63H306.277V59ZM295.209 59.8722L287.589 48.7122L284.286 50.9678L291.906 62.1278L295.209 59.8722ZM295.437 34.54C295.437 32.1235 294.651 30.0049 292.891 28.4718L290.264 31.4882C290.984 32.1151 291.437 33.0365 291.437 34.54H295.437ZM292.891 28.4718C291.146 26.9519 288.753 26.36 286.057 26.36V30.36C288.242 30.36 289.529 30.8481 290.264 31.4882L292.891 28.4718ZM286.057 26.36H279.457V30.36H286.057V26.36ZM277.457 28.36V40.66H281.457V28.36H277.457ZM279.457 42.66H286.057V38.66H279.457V42.66ZM286.057 42.66C288.738 42.66 291.119 42.0949 292.863 40.6324L290.292 37.5676C289.556 38.1851 288.257 38.66 286.057 38.66V42.66ZM292.891 40.6082C294.651 39.0751 295.437 36.9565 295.437 34.54H291.437C291.437 36.0435 290.984 36.9649 290.264 37.5918L292.891 40.6082ZM317.201 60.58L317.709 58.6455L317.201 60.58ZM309.401 57.22L307.574 56.4066L306.904 57.9129L308.254 58.8585L309.401 57.22ZM313.301 48.46L314.403 46.7905L312.434 45.4918L311.474 47.6466L313.301 48.46ZM319.841 51.46L320.427 49.5478L319.841 51.46ZM332.021 46.54L331.173 48.3509L331.206 48.3667L331.24 48.3812L332.021 46.54ZM325.781 44.68L326.215 42.7276L326.202 42.7248L325.781 44.68ZM317.861 42.52L317.155 44.3912L317.171 44.3971L317.186 44.4027L317.861 42.52ZM312.221 24.88L313.87 26.0117L313.876 26.0042L313.881 25.9967L312.221 24.88ZM318.461 19.96L317.674 18.1217L317.664 18.1259L318.461 19.96ZM336.881 19.12L336.417 21.0653L336.431 21.0686L336.444 21.0717L336.881 19.12ZM343.961 21.82L345.809 22.5865L346.476 20.9787L344.975 20.0961L343.961 21.82ZM340.301 30.64L339.351 32.3998L341.3 33.4521L342.149 31.4065L340.301 30.64ZM323.501 28.48L324.567 30.1725L324.589 30.1586L324.611 30.1441L323.501 28.48ZM323.801 33.7L323 35.5323L323.801 33.7ZM329.981 35.44L330.397 33.4837L330.395 33.4832L329.981 35.44ZM337.901 37.66L337.183 39.5267L337.205 39.5349L337.227 39.5427L337.901 37.66ZM343.361 41.38L341.863 42.7044L341.879 42.7229L341.896 42.7409L343.361 41.38ZM343.601 55.12L341.952 53.9883L343.601 55.12ZM337.301 60.04L338.089 61.8783L338.1 61.8736L338.111 61.8687L337.301 60.04ZM327.101 59.84C323.868 59.84 320.739 59.4408 317.709 58.6455L316.694 62.5145C320.064 63.3992 323.535 63.84 327.101 63.84V59.84ZM317.709 58.6455C314.662 57.8457 312.299 56.8071 310.548 55.5815L308.254 58.8585C310.504 60.4329 313.341 61.6343 316.694 62.5145L317.709 58.6455ZM311.229 58.0334L315.129 49.2734L311.474 47.6466L307.574 56.4066L311.229 58.0334ZM312.2 50.1295C314.262 51.4891 316.62 52.5646 319.255 53.3722L320.427 49.5478C318.103 48.8354 316.101 47.9109 314.403 46.7905L312.2 50.1295ZM319.255 53.3722C321.91 54.1857 324.547 54.6 327.161 54.6V50.6C324.975 50.6 322.733 50.2543 320.427 49.5478L319.255 53.3722ZM327.161 54.6C329.544 54.6 331.628 54.3128 333.186 53.5339C333.993 53.1302 334.719 52.5646 335.238 51.7856C335.766 50.9942 336.001 50.1 336.001 49.18H332.001C332.001 49.4 331.952 49.5033 331.91 49.5668C331.859 49.6429 331.73 49.7898 331.397 49.9561C330.675 50.3172 329.339 50.6 327.161 50.6V54.6ZM336.001 49.18C336.001 48.1889 335.72 47.2381 335.106 46.42C334.51 45.6246 333.691 45.0758 332.803 44.6988L331.24 48.3812C331.672 48.5642 331.843 48.7354 331.906 48.82C331.953 48.8819 332.001 48.9711 332.001 49.18H336.001ZM332.87 44.7291C331.38 44.0305 329.119 43.3729 326.215 42.7276L325.348 46.6324C328.204 47.2671 330.103 47.8495 331.173 48.3509L332.87 44.7291ZM326.202 42.7248C323.095 42.0561 320.546 41.3578 318.536 40.6373L317.186 44.4027C319.417 45.2022 322.148 45.9439 325.361 46.6352L326.202 42.7248ZM318.568 40.6488C316.756 39.9654 315.207 38.8948 313.9 37.4156L310.903 40.0644C312.636 42.0252 314.726 43.4746 317.155 44.3912L318.568 40.6488ZM313.9 37.4156C312.784 36.1521 312.121 34.349 312.121 31.78H308.121C308.121 35.051 308.979 37.8879 310.903 40.0644L313.9 37.4156ZM312.121 31.78C312.121 29.6091 312.707 27.7065 313.87 26.0117L310.572 23.7483C308.935 26.1335 308.121 28.8309 308.121 31.78H312.121ZM313.881 25.9967C315.028 24.2916 316.778 22.8728 319.259 21.7941L317.664 18.1259C314.625 19.4471 312.215 21.3084 310.562 23.7632L313.881 25.9967ZM319.249 21.7983C321.733 20.7337 324.868 20.16 328.721 20.16V16.16C324.494 16.16 320.789 16.7863 317.674 18.1217L319.249 21.7983ZM328.721 20.16C331.325 20.16 333.889 20.4617 336.417 21.0653L337.346 17.1747C334.514 16.4983 331.638 16.16 328.721 16.16V20.16ZM336.444 21.0717C338.953 21.6334 341.113 22.4647 342.947 23.5439L344.975 20.0961C342.73 18.7753 340.17 17.8066 337.318 17.1683L336.444 21.0717ZM342.114 21.0534L338.454 29.8734L342.149 31.4065L345.809 22.5865L342.114 21.0534ZM341.252 28.8802C337.02 26.5953 332.816 25.4 328.661 25.4V29.4C332.027 29.4 335.582 30.3647 339.351 32.3998L341.252 28.8802ZM328.661 25.4C326.186 25.4 323.974 25.7611 322.392 26.8159L324.611 30.1441C325.189 29.7588 326.417 29.4 328.661 29.4V25.4ZM322.436 26.7875C320.87 27.7734 319.881 29.2668 319.881 31.18H323.881C323.881 30.8532 323.973 30.5466 324.567 30.1725L322.436 26.7875ZM319.881 31.18C319.881 32.1496 320.168 33.0719 320.771 33.8621C321.353 34.626 322.146 35.1586 323 35.5323L324.603 31.8677C324.177 31.6814 324.01 31.514 323.952 31.4379C323.914 31.3881 323.881 31.3304 323.881 31.18H319.881ZM323 35.5323C324.477 36.1787 326.705 36.792 329.568 37.3968L330.395 33.4832C327.578 32.888 325.686 32.3413 324.603 31.8677L323 35.5323ZM329.566 37.3963C332.706 38.0636 335.236 38.7775 337.183 39.5267L338.619 35.7933C336.407 34.9425 333.657 34.1764 330.397 33.4837L329.566 37.3963ZM337.227 39.5427C339.023 40.1867 340.561 41.2318 341.863 42.7044L344.86 40.0556C343.121 38.0882 341.02 36.6533 338.576 35.7773L337.227 39.5427ZM341.896 42.7409C343.026 43.9578 343.701 45.7214 343.701 48.28H347.701C347.701 44.9986 346.817 42.1622 344.827 40.0191L341.896 42.7409ZM343.701 48.28C343.701 50.404 343.119 52.288 341.952 53.9883L345.25 56.2517C346.884 53.872 347.701 51.196 347.701 48.28H343.701ZM341.952 53.9883C340.807 55.6576 339.033 57.0858 336.492 58.2113L338.111 61.8687C341.17 60.5142 343.596 58.6624 345.25 56.2517L341.952 53.9883ZM336.514 58.2017C334.027 59.2673 330.911 59.84 327.101 59.84V63.84C331.292 63.84 334.976 63.2127 338.089 61.8783L336.514 58.2017ZM391.499 19H393.499V17H391.499V19ZM391.499 61V63H393.499V61H391.499ZM379.619 61H377.619V63H379.619V61ZM379.619 44.62H381.619V42.62H379.619V44.62ZM363.419 44.62V42.62H361.419V44.62H363.419ZM363.419 61V63H365.419V61H363.419ZM351.539 61H349.539V63H351.539V61ZM351.539 19V17H349.539V19H351.539ZM363.419 19H365.419V17H363.419V19ZM363.419 34.78H361.419V36.78H363.419V34.78ZM379.619 34.78V36.78H381.619V34.78H379.619ZM379.619 19V17H377.619V19H379.619ZM389.499 19V61H393.499V19H389.499ZM391.499 59H379.619V63H391.499V59ZM381.619 61V44.62H377.619V61H381.619ZM379.619 42.62H363.419V46.62H379.619V42.62ZM361.419 44.62V61H365.419V44.62H361.419ZM363.419 59H351.539V63H363.419V59ZM353.539 61V19H349.539V61H353.539ZM351.539 21H363.419V17H351.539V21ZM361.419 19V34.78H365.419V19H361.419ZM363.419 36.78H379.619V32.78H363.419V36.78ZM381.619 34.78V19H377.619V34.78H381.619ZM379.619 21H391.499V17H379.619V21ZM400.229 19V17H398.229V19H400.229ZM412.109 19H414.109V17H412.109V19ZM412.109 61V63H414.109V61H412.109ZM400.229 61H398.229V63H400.229V61ZM400.229 21H412.109V17H400.229V21ZM410.109 19V61H414.109V19H410.109ZM412.109 59H400.229V63H412.109V59ZM402.229 61V19H398.229V61H402.229ZM450.011 20.92L449.179 22.7389L449.19 22.7439L449.201 22.7487L450.011 20.92ZM456.491 26.32L454.81 27.403L454.814 27.4095L454.818 27.4161L456.491 26.32ZM456.491 42.76L458.164 43.8561L456.491 42.76ZM450.011 48.16L450.821 49.9887L450.832 49.9839L450.842 49.9789L450.011 48.16ZM432.791 50.02V48.02H430.791V50.02H432.791ZM432.791 61V63H434.791V61H432.791ZM420.911 61H418.911V63H420.911V61ZM420.911 19V17H418.911V19H420.911ZM444.911 39.1L446.196 40.6324L446.21 40.6204L446.224 40.6082L444.911 39.1ZM432.791 28.36V26.36H430.791V28.36H432.791ZM432.791 40.66H430.791V42.66H432.791V40.66ZM440.111 21C443.69 21 446.694 21.6028 449.179 22.7389L450.842 19.101C447.728 17.6772 444.132 17 440.111 17V21ZM449.201 22.7487C451.678 23.8455 453.52 25.4011 454.81 27.403L458.172 25.237C456.422 22.5189 453.944 20.4745 450.821 19.0913L449.201 22.7487ZM454.818 27.4161C456.096 29.3666 456.771 31.7136 456.771 34.54H460.771C460.771 31.0464 459.926 27.9134 458.164 25.2239L454.818 27.4161ZM456.771 34.54C456.771 37.3664 456.096 39.7134 454.818 41.6639L458.164 43.8561C459.926 41.1666 460.771 38.0336 460.771 34.54H456.771ZM454.818 41.6639C453.527 43.6344 451.675 45.2 449.179 46.341L450.842 49.9789C453.947 48.56 456.415 46.5256 458.164 43.8561L454.818 41.6639ZM449.201 46.3313C446.71 47.4346 443.697 48.02 440.111 48.02V52.02C444.125 52.02 447.712 51.3654 450.821 49.9887L449.201 46.3313ZM440.111 48.02H432.791V52.02H440.111V48.02ZM430.791 50.02V61H434.791V50.02H430.791ZM432.791 59H420.911V63H432.791V59ZM422.911 61V19H418.911V61H422.911ZM420.911 21H440.111V17H420.911V21ZM439.391 42.66C442.071 42.66 444.452 42.0949 446.196 40.6324L443.626 37.5676C442.889 38.1851 441.59 38.66 439.391 38.66V42.66ZM446.224 40.6082C447.985 39.0751 448.771 36.9565 448.771 34.54H444.771C444.771 36.0435 444.317 36.9649 443.597 37.5918L446.224 40.6082ZM448.771 34.54C448.771 32.1235 447.985 30.0049 446.224 28.4718L443.597 31.4882C444.317 32.1151 444.771 33.0365 444.771 34.54H448.771ZM446.224 28.4718C444.479 26.9519 442.087 26.36 439.391 26.36V30.36C441.575 30.36 442.863 30.8481 443.597 31.4882L446.224 28.4718ZM439.391 26.36H432.791V30.36H439.391V26.36ZM430.791 28.36V40.66H434.791V28.36H430.791ZM432.791 42.66H439.391V38.66H432.791V42.66ZM470.359 60.58L470.867 58.6455L470.359 60.58ZM462.559 57.22L460.732 56.4066L460.061 57.9129L461.412 58.8585L462.559 57.22ZM466.459 48.46L467.56 46.7905L465.591 45.4918L464.632 47.6466L466.459 48.46ZM472.999 51.46L473.585 49.5478L472.999 51.46ZM485.179 46.54L484.33 48.3509L484.364 48.3667L484.398 48.3812L485.179 46.54ZM478.939 44.68L479.373 42.7276L479.36 42.7248L478.939 44.68ZM471.019 42.52L470.313 44.3912L470.329 44.3971L470.344 44.4027L471.019 42.52ZM465.379 24.88L467.028 26.0117L467.033 26.0042L467.038 25.9967L465.379 24.88ZM471.619 19.96L470.831 18.1217L470.822 18.1259L471.619 19.96ZM490.039 19.12L489.575 21.0653L489.588 21.0686L489.602 21.0717L490.039 19.12ZM497.119 21.82L498.966 22.5865L499.634 20.9787L498.133 20.0961L497.119 21.82ZM493.459 30.64L492.509 32.3998L494.458 33.4521L495.306 31.4065L493.459 30.64ZM476.659 28.48L477.725 30.1725L477.747 30.1586L477.769 30.1441L476.659 28.48ZM476.959 33.7L476.158 35.5323L476.959 33.7ZM483.139 35.44L483.555 33.4837L483.553 33.4832L483.139 35.44ZM491.059 37.66L490.341 39.5267L490.363 39.5349L490.384 39.5427L491.059 37.66ZM496.519 41.38L495.021 42.7044L495.037 42.7229L495.054 42.7409L496.519 41.38ZM496.759 55.12L495.11 53.9883L496.759 55.12ZM490.459 60.04L491.247 61.8783L491.258 61.8736L491.269 61.8687L490.459 60.04ZM480.259 59.84C477.026 59.84 473.897 59.4408 470.867 58.6455L469.851 62.5145C473.222 63.3992 476.693 63.84 480.259 63.84V59.84ZM470.867 58.6455C467.82 57.8457 465.457 56.8071 463.706 55.5815L461.412 58.8585C463.661 60.4329 466.499 61.6343 469.851 62.5145L470.867 58.6455ZM464.386 58.0334L468.286 49.2734L464.632 47.6466L460.732 56.4066L464.386 58.0334ZM465.358 50.1295C467.419 51.4891 469.778 52.5646 472.413 53.3722L473.585 49.5478C471.261 48.8354 469.259 47.9109 467.56 46.7905L465.358 50.1295ZM472.413 53.3722C475.068 54.1857 477.705 54.6 480.319 54.6V50.6C478.133 50.6 475.891 50.2543 473.585 49.5478L472.413 53.3722ZM480.319 54.6C482.701 54.6 484.786 54.3128 486.344 53.5339C487.151 53.1302 487.877 52.5646 488.396 51.7856C488.923 50.9942 489.159 50.1 489.159 49.18H485.159C485.159 49.4 485.11 49.5033 485.068 49.5668C485.017 49.6429 484.888 49.7898 484.555 49.9561C483.833 50.3172 482.497 50.6 480.319 50.6V54.6ZM489.159 49.18C489.159 48.1889 488.878 47.2381 488.264 46.42C487.668 45.6246 486.849 45.0758 485.96 44.6988L484.398 48.3812C484.829 48.5642 485.001 48.7354 485.064 48.82C485.111 48.8819 485.159 48.9711 485.159 49.18H489.159ZM486.028 44.7291C484.538 44.0305 482.277 43.3729 479.373 42.7276L478.505 46.6324C481.362 47.2671 483.261 47.8495 484.33 48.3509L486.028 44.7291ZM479.36 42.7248C476.253 42.0561 473.704 41.3578 471.694 40.6373L470.344 44.4027C472.574 45.2022 475.306 45.9439 478.518 46.6352L479.36 42.7248ZM471.725 40.6488C469.914 39.9654 468.365 38.8948 467.058 37.4156L464.061 40.0644C465.793 42.0252 467.884 43.4746 470.313 44.3912L471.725 40.6488ZM467.058 37.4156C465.941 36.1521 465.279 34.349 465.279 31.78H461.279C461.279 35.051 462.137 37.8879 464.061 40.0644L467.058 37.4156ZM465.279 31.78C465.279 29.6091 465.865 27.7065 467.028 26.0117L463.73 23.7483C462.093 26.1335 461.279 28.8309 461.279 31.78H465.279ZM467.038 25.9967C468.186 24.2916 469.936 22.8728 472.417 21.7941L470.822 18.1259C467.783 19.4471 465.372 21.3084 463.72 23.7632L467.038 25.9967ZM472.407 21.7983C474.891 20.7337 478.026 20.16 481.879 20.16V16.16C477.652 16.16 473.947 16.7863 470.831 18.1217L472.407 21.7983ZM481.879 20.16C484.483 20.16 487.047 20.4617 489.575 21.0653L490.504 17.1747C487.671 16.4983 484.795 16.16 481.879 16.16V20.16ZM489.602 21.0717C492.111 21.6334 494.271 22.4647 496.105 23.5439L498.133 20.0961C495.888 18.7753 493.327 17.8066 490.476 17.1683L489.602 21.0717ZM495.272 21.0534L491.612 29.8734L495.306 31.4065L498.966 22.5865L495.272 21.0534ZM494.41 28.8802C490.178 26.5953 485.974 25.4 481.819 25.4V29.4C485.185 29.4 488.74 30.3647 492.509 32.3998L494.41 28.8802ZM481.819 25.4C479.344 25.4 477.132 25.7611 475.55 26.8159L477.769 30.1441C478.346 29.7588 479.575 29.4 481.819 29.4V25.4ZM475.594 26.7875C474.028 27.7734 473.039 29.2668 473.039 31.18H477.039C477.039 30.8532 477.131 30.5466 477.725 30.1725L475.594 26.7875ZM473.039 31.18C473.039 32.1496 473.326 33.0719 473.928 33.8621C474.51 34.626 475.303 35.1586 476.158 35.5323L477.761 31.8677C477.335 31.6814 477.168 31.514 477.11 31.4379C477.072 31.3881 477.039 31.3304 477.039 31.18H473.039ZM476.158 35.5323C477.635 36.1787 479.863 36.792 482.726 37.3968L483.553 33.4832C480.735 32.888 478.843 32.3413 477.761 31.8677L476.158 35.5323ZM482.724 37.3963C485.863 38.0636 488.393 38.7775 490.341 39.5267L491.777 35.7933C489.565 34.9425 486.815 34.1764 483.555 33.4837L482.724 37.3963ZM490.384 39.5427C492.181 40.1867 493.719 41.2318 495.021 42.7044L498.018 40.0556C496.279 38.0882 494.178 36.6533 491.734 35.7773L490.384 39.5427ZM495.054 42.7409C496.184 43.9578 496.859 45.7214 496.859 48.28H500.859C500.859 44.9986 499.975 42.1622 497.985 40.0191L495.054 42.7409ZM496.859 48.28C496.859 50.404 496.277 52.288 495.11 53.9883L498.408 56.2517C500.041 53.872 500.859 51.196 500.859 48.28H496.859ZM495.11 53.9883C493.965 55.6576 492.191 57.0858 489.649 58.2113L491.269 61.8687C494.328 60.5142 496.754 58.6624 498.408 56.2517L495.11 53.9883ZM489.671 58.2017C487.185 59.2673 484.069 59.84 480.259 59.84V63.84C484.449 63.84 488.133 63.2127 491.247 61.8783L489.671 58.2017Z" fill="white"/>
<path d="M33.3 17.92L32.4685 19.7389L32.4793 19.7439L32.4901 19.7487L33.3 17.92ZM39.78 23.32L38.0986 24.403L38.1028 24.4095L38.1071 24.4161L39.78 23.32ZM39.78 39.76L41.4529 40.8561H41.4529L39.78 39.76ZM33.3 45.16L34.1099 46.9887L34.1207 46.9839L34.1315 46.9789L33.3 45.16ZM16.08 47.02V45.02H14.08V47.02H16.08ZM16.08 58V60H18.08V58H16.08ZM4.2 58H2.2V60H4.2V58ZM4.2 16V14H2.2V16H4.2ZM28.2 36.1L29.4852 37.6324L29.4995 37.6204L29.5136 37.6082L28.2 36.1ZM16.08 25.36V23.36H14.08V25.36H16.08ZM16.08 37.66H14.08V39.66H16.08V37.66ZM23.4 18C26.9786 18 29.9831 18.6028 32.4685 19.7389L34.1315 16.101C31.0169 14.6772 27.4214 14 23.4 14V18ZM32.4901 19.7487C34.9669 20.8455 36.8092 22.4011 38.0986 24.403L41.4614 22.237C39.7108 19.5189 37.2331 17.4745 34.1099 16.0913L32.4901 19.7487ZM38.1071 24.4161C39.385 26.3666 40.06 28.7136 40.06 31.54H44.06C44.06 28.0464 43.215 24.9134 41.4529 22.2239L38.1071 24.4161ZM40.06 31.54C40.06 34.3664 39.385 36.7134 38.1071 38.6639L41.4529 40.8561C43.215 38.1666 44.06 35.0336 44.06 31.54H40.06ZM38.1071 38.6639C36.8161 40.6344 34.9644 42.2 32.4685 43.341L34.1315 46.9789C37.2356 45.56 39.7039 43.5256 41.4529 40.8561L38.1071 38.6639ZM32.4901 43.3313C29.9988 44.4346 26.9864 45.02 23.4 45.02V49.02C27.4137 49.02 31.0012 48.3654 34.1099 46.9887L32.4901 43.3313ZM23.4 45.02H16.08V49.02H23.4V45.02ZM14.08 47.02V58H18.08V47.02H14.08ZM16.08 56H4.2V60H16.08V56ZM6.2 58V16H2.2V58H6.2ZM4.2 18H23.4V14H4.2V18ZM22.68 39.66C25.3605 39.66 27.7415 39.0949 29.4852 37.6324L26.9148 34.5676C26.1785 35.1851 24.8795 35.66 22.68 35.66V39.66ZM29.5136 37.6082C31.2738 36.0751 32.06 33.9565 32.06 31.54H28.06C28.06 33.0435 27.6062 33.9649 26.8864 34.5918L29.5136 37.6082ZM32.06 31.54C32.06 29.1235 31.2738 27.0049 29.5136 25.4718L26.8864 28.4882C27.6062 29.1151 28.06 30.0365 28.06 31.54H32.06ZM29.5136 25.4718C27.7684 23.9519 25.3756 23.36 22.68 23.36V27.36C24.8644 27.36 26.1516 27.8481 26.8864 28.4882L29.5136 25.4718ZM22.68 23.36H16.08V27.36H22.68V23.36ZM14.08 25.36V37.66H18.08V25.36H14.08ZM16.08 39.66H22.68V35.66H16.08V39.66ZM74.233 49.84L76.0871 49.0902L75.5815 47.84H74.233V49.84ZM56.473 49.84V47.84H55.1244L54.6189 49.0902L56.473 49.84ZM53.173 58V60H54.5215L55.0271 58.7498L53.173 58ZM41.053 58L39.2233 57.1923L37.9839 60H41.053V58ZM59.593 16V14H58.2896L57.7633 15.1923L59.593 16ZM71.293 16L73.1217 15.1901L72.5946 14H71.293V16ZM89.893 58V60H92.966L91.7217 57.1901L89.893 58ZM77.533 58L75.6788 58.7498L76.1844 60H77.533V58ZM70.753 41.08V43.08H73.7119L72.6088 40.3344L70.753 41.08ZM65.353 27.64L67.2088 26.8944L65.353 22.2755L63.4972 26.8944L65.353 27.64ZM59.953 41.08L58.0972 40.3344L56.994 43.08H59.953V41.08ZM74.233 47.84H56.473V51.84H74.233V47.84ZM54.6189 49.0902L51.3188 57.2502L55.0271 58.7498L58.3271 50.5898L54.6189 49.0902ZM53.173 56H41.053V60H53.173V56ZM42.8826 58.8077L61.4226 16.8077L57.7633 15.1923L39.2233 57.1923L42.8826 58.8077ZM59.593 18H71.293V14H59.593V18ZM69.4643 16.8098L88.0643 58.8099L91.7217 57.1901L73.1217 15.1901L69.4643 16.8098ZM89.893 56H77.533V60H89.893V56ZM79.3871 57.2502L76.0871 49.0902L72.3789 50.5898L75.6788 58.7498L79.3871 57.2502ZM72.6088 40.3344L67.2088 26.8944L63.4972 28.3856L68.8972 41.8256L72.6088 40.3344ZM63.4972 26.8944L58.0972 40.3344L61.8088 41.8256L67.2088 28.3856L63.4972 26.8944ZM59.953 43.08H70.753V39.08H59.953V43.08ZM111.971 46.84L113.623 45.7122L113.027 44.84H111.971V46.84ZM105.491 46.84V44.84H103.491V46.84H105.491ZM105.491 58V60H107.491V58H105.491ZM93.6109 58H91.6109V60H93.6109V58ZM93.6109 16V14H91.6109V16H93.6109ZM122.711 17.92L121.879 19.7389L121.89 19.7439L121.901 19.7487L122.711 17.92ZM129.191 23.32L127.51 24.403L127.514 24.4095L127.518 24.4161L129.191 23.32ZM129.311 39.52L127.62 38.452L127.615 38.46L129.311 39.52ZM123.251 44.8L122.378 43.0004L120.286 44.0148L121.602 45.9318L123.251 44.8ZM132.311 58V60H136.109L133.96 56.8682L132.311 58ZM119.591 58L117.939 59.1278L118.535 60H119.591V58ZM105.491 25.36V23.36H103.491V25.36H105.491ZM105.491 37.66H103.491V39.66H105.491V37.66ZM117.611 36.1L118.896 37.6324L118.91 37.6204L118.924 37.6082L117.611 36.1ZM111.971 44.84H105.491V48.84H111.971V44.84ZM103.491 46.84V58H107.491V46.84H103.491ZM105.491 56H93.6109V60H105.491V56ZM95.6109 58V16H91.6109V58H95.6109ZM93.6109 18H112.811V14H93.6109V18ZM112.811 18C116.39 18 119.394 18.6028 121.879 19.7389L123.542 16.101C120.428 14.6772 116.832 14 112.811 14V18ZM121.901 19.7487C124.378 20.8455 126.22 22.4011 127.51 24.403L130.872 22.237C129.122 19.5189 126.644 17.4745 123.521 16.0913L121.901 19.7487ZM127.518 24.4161C128.796 26.3666 129.471 28.7136 129.471 31.54H133.471C133.471 28.0464 132.626 24.9134 130.864 22.2239L127.518 24.4161ZM129.471 31.54C129.471 34.2515 128.833 36.5311 127.62 38.452L131.002 40.588C132.669 37.9489 133.471 34.9085 133.471 31.54H129.471ZM127.615 38.46C126.436 40.3463 124.718 41.8658 122.378 43.0004L124.123 46.5996C127.063 45.1742 129.386 43.1737 131.007 40.58L127.615 38.46ZM121.602 45.9318L130.662 59.1318L133.96 56.8682L124.9 43.6682L121.602 45.9318ZM132.311 56H119.591V60H132.311V56ZM121.243 56.8722L113.623 45.7122L110.319 47.9678L117.939 59.1278L121.243 56.8722ZM121.471 31.54C121.471 29.1235 120.685 27.0049 118.924 25.4718L116.297 28.4882C117.017 29.1151 117.471 30.0365 117.471 31.54H121.471ZM118.924 25.4718C117.179 23.9519 114.787 23.36 112.091 23.36V27.36C114.275 27.36 115.562 27.8481 116.297 28.4882L118.924 25.4718ZM112.091 23.36H105.491V27.36H112.091V23.36ZM103.491 25.36V37.66H107.491V25.36H103.491ZM105.491 39.66H112.091V35.66H105.491V39.66ZM112.091 39.66C114.771 39.66 117.152 39.0949 118.896 37.6324L116.326 34.5676C115.589 35.1851 114.29 35.66 112.091 35.66V39.66ZM118.924 37.6082C120.685 36.0751 121.471 33.9565 121.471 31.54H117.471C117.471 33.0435 117.017 33.9649 116.297 34.5918L118.924 37.6082ZM146.729 25.42H148.729V23.42H146.729V25.42ZM133.829 25.42H131.829V27.42H133.829V25.42ZM133.829 16V14H131.829V16H133.829ZM171.449 16H173.449V14H171.449V16ZM171.449 25.42V27.42H173.449V25.42H171.449ZM158.609 25.42V23.42H156.609V25.42H158.609ZM158.609 58V60H160.609V58H158.609ZM146.729 58H144.729V60H146.729V58ZM146.729 23.42H133.829V27.42H146.729V23.42ZM135.829 25.42V16H131.829V25.42H135.829ZM133.829 18H171.449V14H133.829V18ZM169.449 16V25.42H173.449V16H169.449ZM171.449 23.42H158.609V27.42H171.449V23.42ZM156.609 25.42V58H160.609V25.42H156.609ZM158.609 56H146.729V60H158.609V56ZM148.729 58V25.42H144.729V58H148.729ZM216.185 16H218.185V14H216.185V16ZM216.185 58V60H218.185V58H216.185ZM206.405 58L204.865 59.2759L205.465 60H206.405V58ZM187.865 35.62L189.405 34.3441L185.865 30.0707V35.62H187.865ZM187.865 58V60H189.865V58H187.865ZM176.225 58H174.225V60H176.225V58ZM176.225 16V14H174.225V16H176.225ZM186.005 16L187.545 14.7241L186.945 14H186.005V16ZM204.545 38.38L203.005 39.6559L206.545 43.9293V38.38H204.545ZM204.545 16V14H202.545V16H204.545ZM214.185 16V58H218.185V16H214.185ZM216.185 56H206.405V60H216.185V56ZM207.945 56.7241L189.405 34.3441L186.325 36.8959L204.865 59.2759L207.945 56.7241ZM185.865 35.62V58H189.865V35.62H185.865ZM187.865 56H176.225V60H187.865V56ZM178.225 58V16H174.225V58H178.225ZM176.225 18H186.005V14H176.225V18ZM184.465 17.2759L203.005 39.6559L206.085 37.1041L187.545 14.7241L184.465 17.2759ZM206.545 38.38V16H202.545V38.38H206.545ZM204.545 18H216.185V14H204.545V18ZM258.635 48.82H260.635V46.82H258.635V48.82ZM258.635 58V60H260.635V58H258.635ZM224.915 58H222.915V60H224.915V58ZM224.915 16V14H222.915V16H224.915ZM257.855 16H259.855V14H257.855V16ZM257.855 25.18V27.18H259.855V25.18H257.855ZM236.675 25.18V23.18H234.675V25.18H236.675ZM236.675 32.26H234.675V34.26H236.675V32.26ZM255.335 32.26H257.335V30.26H255.335V32.26ZM255.335 41.14V43.14H257.335V41.14H255.335ZM236.675 41.14V39.14H234.675V41.14H236.675ZM236.675 48.82H234.675V50.82H236.675V48.82ZM256.635 48.82V58H260.635V48.82H256.635ZM258.635 56H224.915V60H258.635V56ZM226.915 58V16H222.915V58H226.915ZM224.915 18H257.855V14H224.915V18ZM255.855 16V25.18H259.855V16H255.855ZM257.855 23.18H236.675V27.18H257.855V23.18ZM234.675 25.18V32.26H238.675V25.18H234.675ZM236.675 34.26H255.335V30.26H236.675V34.26ZM253.335 32.26V41.14H257.335V32.26H253.335ZM255.335 39.14H236.675V43.14H255.335V39.14ZM234.675 41.14V48.82H238.675V41.14H234.675ZM236.675 50.82H258.635V46.82H236.675V50.82ZM283.937 46.84L285.589 45.7122L284.993 44.84H283.937V46.84ZM277.457 46.84V44.84H275.457V46.84H277.457ZM277.457 58V60H279.457V58H277.457ZM265.577 58H263.577V60H265.577V58ZM265.577 16V14H263.577V16H265.577ZM294.677 17.92L293.846 19.7389L293.857 19.7439L293.867 19.7487L294.677 17.92ZM301.157 23.32L299.476 24.403L299.48 24.4095L299.484 24.4161L301.157 23.32ZM301.277 39.52L299.586 38.452L299.581 38.46L301.277 39.52ZM295.217 44.8L294.345 43.0004L292.253 44.0148L293.568 45.9318L295.217 44.8ZM304.277 58V60H308.076L305.926 56.8682L304.277 58ZM291.557 58L289.906 59.1278L290.501 60H291.557V58ZM277.457 25.36V23.36H275.457V25.36H277.457ZM277.457 37.66H275.457V39.66H277.457V37.66ZM289.577 36.1L290.863 37.6324L290.877 37.6204L290.891 37.6082L289.577 36.1ZM283.937 44.84H277.457V48.84H283.937V44.84ZM275.457 46.84V58H279.457V46.84H275.457ZM277.457 56H265.577V60H277.457V56ZM267.577 58V16H263.577V58H267.577ZM265.577 18H284.777V14H265.577V18ZM284.777 18C288.356 18 291.361 18.6028 293.846 19.7389L295.509 16.101C292.394 14.6772 288.799 14 284.777 14V18ZM293.867 19.7487C296.344 20.8455 298.187 22.4011 299.476 24.403L302.839 22.237C301.088 19.5189 298.61 17.4745 295.487 16.0913L293.867 19.7487ZM299.484 24.4161C300.762 26.3666 301.437 28.7136 301.437 31.54H305.437C305.437 28.0464 304.592 24.9134 302.83 22.2239L299.484 24.4161ZM301.437 31.54C301.437 34.2515 300.8 36.5311 299.586 38.452L302.968 40.588C304.635 37.9489 305.437 34.9085 305.437 31.54H301.437ZM299.581 38.46C298.402 40.3463 296.685 41.8658 294.345 43.0004L296.09 46.5996C299.03 45.1742 301.352 43.1737 302.973 40.58L299.581 38.46ZM293.568 45.9318L302.628 59.1318L305.926 56.8682L296.866 43.6682L293.568 45.9318ZM304.277 56H291.557V60H304.277V56ZM293.209 56.8722L285.589 45.7122L282.286 47.9678L289.906 59.1278L293.209 56.8722ZM293.437 31.54C293.437 29.1235 292.651 27.0049 290.891 25.4718L288.264 28.4882C288.984 29.1151 289.437 30.0365 289.437 31.54H293.437ZM290.891 25.4718C289.146 23.9519 286.753 23.36 284.057 23.36V27.36C286.242 27.36 287.529 27.8481 288.264 28.4882L290.891 25.4718ZM284.057 23.36H277.457V27.36H284.057V23.36ZM275.457 25.36V37.66H279.457V25.36H275.457ZM277.457 39.66H284.057V35.66H277.457V39.66ZM284.057 39.66C286.738 39.66 289.119 39.0949 290.863 37.6324L288.292 34.5676C287.556 35.1851 286.257 35.66 284.057 35.66V39.66ZM290.891 37.6082C292.651 36.0751 293.437 33.9565 293.437 31.54H289.437C289.437 33.0435 288.984 33.9649 288.264 34.5918L290.891 37.6082ZM315.201 57.58L315.709 55.6455L315.201 57.58ZM307.401 54.22L305.574 53.4066L304.904 54.9129L306.254 55.8585L307.401 54.22ZM311.301 45.46L312.403 43.7905L310.434 42.4918L309.474 44.6466L311.301 45.46ZM317.841 48.46L318.427 46.5478L317.841 48.46ZM330.021 43.54L329.173 45.3509L329.206 45.3667L329.24 45.3812L330.021 43.54ZM323.781 41.68L324.215 39.7276L324.202 39.7248L323.781 41.68ZM315.861 39.52L315.155 41.3912L315.171 41.3971L315.186 41.4027L315.861 39.52ZM310.221 21.88L311.87 23.0117L311.876 23.0042L311.881 22.9967L310.221 21.88ZM316.461 16.96L315.674 15.1217L315.664 15.1259L316.461 16.96ZM334.881 16.12L334.417 18.0653L334.431 18.0686L334.444 18.0717L334.881 16.12ZM341.961 18.82L343.809 19.5865L344.476 17.9787L342.975 17.0961L341.961 18.82ZM338.301 27.64L337.351 29.3998L339.3 30.4521L340.149 28.4065L338.301 27.64ZM321.501 25.48L322.567 27.1725L322.589 27.1586L322.611 27.1441L321.501 25.48ZM321.801 30.7L321 32.5323L321.801 30.7ZM327.981 32.44L328.397 30.4837L328.395 30.4832L327.981 32.44ZM335.901 34.66L335.183 36.5267L335.205 36.5349L335.227 36.5427L335.901 34.66ZM341.361 38.38L339.863 39.7044L339.879 39.7229L339.896 39.7409L341.361 38.38ZM341.601 52.12L339.952 50.9883L341.601 52.12ZM335.301 57.04L336.089 58.8783L336.1 58.8736L336.111 58.8687L335.301 57.04ZM325.101 56.84C321.868 56.84 318.739 56.4408 315.709 55.6455L314.694 59.5145C318.064 60.3992 321.535 60.84 325.101 60.84V56.84ZM315.709 55.6455C312.662 54.8457 310.299 53.8071 308.548 52.5815L306.254 55.8585C308.504 57.4329 311.341 58.6343 314.694 59.5145L315.709 55.6455ZM309.229 55.0334L313.129 46.2734L309.474 44.6466L305.574 53.4066L309.229 55.0334ZM310.2 47.1295C312.262 48.4891 314.62 49.5646 317.255 50.3722L318.427 46.5478C316.103 45.8354 314.101 44.9109 312.403 43.7905L310.2 47.1295ZM317.255 50.3722C319.91 51.1857 322.547 51.6 325.161 51.6V47.6C322.975 47.6 320.733 47.2543 318.427 46.5478L317.255 50.3722ZM325.161 51.6C327.544 51.6 329.628 51.3128 331.186 50.5339C331.993 50.1302 332.719 49.5646 333.238 48.7856C333.766 47.9942 334.001 47.1 334.001 46.18H330.001C330.001 46.4 329.952 46.5033 329.91 46.5668C329.859 46.6429 329.73 46.7898 329.397 46.9561C328.675 47.3172 327.339 47.6 325.161 47.6V51.6ZM334.001 46.18C334.001 45.1889 333.72 44.2381 333.106 43.42C332.51 42.6246 331.691 42.0758 330.803 41.6988L329.24 45.3812C329.672 45.5642 329.843 45.7354 329.906 45.82C329.953 45.8819 330.001 45.9711 330.001 46.18H334.001ZM330.87 41.7291C329.38 41.0305 327.119 40.3729 324.215 39.7276L323.348 43.6324C326.204 44.2671 328.103 44.8495 329.173 45.3509L330.87 41.7291ZM324.202 39.7248C321.095 39.0561 318.546 38.3578 316.536 37.6373L315.186 41.4027C317.417 42.2022 320.148 42.9439 323.361 43.6352L324.202 39.7248ZM316.568 37.6488C314.756 36.9654 313.207 35.8948 311.9 34.4156L308.903 37.0644C310.636 39.0252 312.726 40.4746 315.155 41.3912L316.568 37.6488ZM311.9 34.4156C310.784 33.1521 310.121 31.349 310.121 28.78H306.121C306.121 32.051 306.979 34.8879 308.903 37.0644L311.9 34.4156ZM310.121 28.78C310.121 26.6091 310.707 24.7065 311.87 23.0117L308.572 20.7483C306.935 23.1335 306.121 25.8309 306.121 28.78H310.121ZM311.881 22.9967C313.028 21.2916 314.778 19.8728 317.259 18.7941L315.664 15.1259C312.625 16.4471 310.215 18.3084 308.562 20.7632L311.881 22.9967ZM317.249 18.7983C319.733 17.7337 322.868 17.16 326.721 17.16V13.16C322.494 13.16 318.789 13.7863 315.674 15.1217L317.249 18.7983ZM326.721 17.16C329.325 17.16 331.889 17.4617 334.417 18.0653L335.346 14.1747C332.514 13.4983 329.638 13.16 326.721 13.16V17.16ZM334.444 18.0717C336.953 18.6334 339.113 19.4647 340.947 20.5439L342.975 17.0961C340.73 15.7753 338.17 14.8066 335.318 14.1683L334.444 18.0717ZM340.114 18.0534L336.454 26.8734L340.149 28.4065L343.809 19.5865L340.114 18.0534ZM339.252 25.8802C335.02 23.5953 330.816 22.4 326.661 22.4V26.4C330.027 26.4 333.582 27.3647 337.351 29.3998L339.252 25.8802ZM326.661 22.4C324.186 22.4 321.974 22.7611 320.392 23.8159L322.611 27.1441C323.189 26.7588 324.417 26.4 326.661 26.4V22.4ZM320.436 23.7875C318.87 24.7734 317.881 26.2668 317.881 28.18H321.881C321.881 27.8532 321.973 27.5466 322.567 27.1725L320.436 23.7875ZM317.881 28.18C317.881 29.1496 318.168 30.0719 318.771 30.8621C319.353 31.626 320.146 32.1586 321 32.5323L322.603 28.8677C322.177 28.6814 322.01 28.514 321.952 28.4379C321.914 28.3881 321.881 28.3304 321.881 28.18H317.881ZM321 32.5323C322.477 33.1787 324.705 33.792 327.568 34.3968L328.395 30.4832C325.578 29.888 323.686 29.3413 322.603 28.8677L321 32.5323ZM327.566 34.3963C330.706 35.0636 333.236 35.7775 335.183 36.5267L336.619 32.7933C334.407 31.9425 331.657 31.1764 328.397 30.4837L327.566 34.3963ZM335.227 36.5427C337.023 37.1867 338.561 38.2318 339.863 39.7044L342.86 37.0556C341.121 35.0882 339.02 33.6533 336.576 32.7773L335.227 36.5427ZM339.896 39.7409C341.026 40.9578 341.701 42.7214 341.701 45.28H345.701C345.701 41.9986 344.817 39.1622 342.827 37.0191L339.896 39.7409ZM341.701 45.28C341.701 47.404 341.119 49.288 339.952 50.9883L343.25 53.2517C344.884 50.872 345.701 48.196 345.701 45.28H341.701ZM339.952 50.9883C338.807 52.6576 337.033 54.0858 334.492 55.2113L336.111 58.8687C339.17 57.5142 341.596 55.6624 343.25 53.2517L339.952 50.9883ZM334.514 55.2017C332.027 56.2673 328.911 56.84 325.101 56.84V60.84C329.292 60.84 332.976 60.2127 336.089 58.8783L334.514 55.2017ZM389.499 16H391.499V14H389.499V16ZM389.499 58V60H391.499V58H389.499ZM377.619 58H375.619V60H377.619V58ZM377.619 41.62H379.619V39.62H377.619V41.62ZM361.419 41.62V39.62H359.419V41.62H361.419ZM361.419 58V60H363.419V58H361.419ZM349.539 58H347.539V60H349.539V58ZM349.539 16V14H347.539V16H349.539ZM361.419 16H363.419V14H361.419V16ZM361.419 31.78H359.419V33.78H361.419V31.78ZM377.619 31.78V33.78H379.619V31.78H377.619ZM377.619 16V14H375.619V16H377.619ZM387.499 16V58H391.499V16H387.499ZM389.499 56H377.619V60H389.499V56ZM379.619 58V41.62H375.619V58H379.619ZM377.619 39.62H361.419V43.62H377.619V39.62ZM359.419 41.62V58H363.419V41.62H359.419ZM361.419 56H349.539V60H361.419V56ZM351.539 58V16H347.539V58H351.539ZM349.539 18H361.419V14H349.539V18ZM359.419 16V31.78H363.419V16H359.419ZM361.419 33.78H377.619V29.78H361.419V33.78ZM379.619 31.78V16H375.619V31.78H379.619ZM377.619 18H389.499V14H377.619V18ZM398.229 16V14H396.229V16H398.229ZM410.109 16H412.109V14H410.109V16ZM410.109 58V60H412.109V58H410.109ZM398.229 58H396.229V60H398.229V58ZM398.229 18H410.109V14H398.229V18ZM408.109 16V58H412.109V16H408.109ZM410.109 56H398.229V60H410.109V56ZM400.229 58V16H396.229V58H400.229ZM448.011 17.92L447.179 19.7389L447.19 19.7439L447.201 19.7487L448.011 17.92ZM454.491 23.32L452.81 24.403L452.814 24.4095L452.818 24.4161L454.491 23.32ZM454.491 39.76L456.164 40.8561L454.491 39.76ZM448.011 45.16L448.821 46.9887L448.832 46.9839L448.842 46.9789L448.011 45.16ZM430.791 47.02V45.02H428.791V47.02H430.791ZM430.791 58V60H432.791V58H430.791ZM418.911 58H416.911V60H418.911V58ZM418.911 16V14H416.911V16H418.911ZM442.911 36.1L444.196 37.6324L444.21 37.6204L444.224 37.6082L442.911 36.1ZM430.791 25.36V23.36H428.791V25.36H430.791ZM430.791 37.66H428.791V39.66H430.791V37.66ZM438.111 18C441.69 18 444.694 18.6028 447.179 19.7389L448.842 16.101C445.728 14.6772 442.132 14 438.111 14V18ZM447.201 19.7487C449.678 20.8455 451.52 22.4011 452.81 24.403L456.172 22.237C454.422 19.5189 451.944 17.4745 448.821 16.0913L447.201 19.7487ZM452.818 24.4161C454.096 26.3666 454.771 28.7136 454.771 31.54H458.771C458.771 28.0464 457.926 24.9134 456.164 22.2239L452.818 24.4161ZM454.771 31.54C454.771 34.3664 454.096 36.7134 452.818 38.6639L456.164 40.8561C457.926 38.1666 458.771 35.0336 458.771 31.54H454.771ZM452.818 38.6639C451.527 40.6344 449.675 42.2 447.179 43.341L448.842 46.9789C451.947 45.56 454.415 43.5256 456.164 40.8561L452.818 38.6639ZM447.201 43.3313C444.71 44.4346 441.697 45.02 438.111 45.02V49.02C442.125 49.02 445.712 48.3654 448.821 46.9887L447.201 43.3313ZM438.111 45.02H430.791V49.02H438.111V45.02ZM428.791 47.02V58H432.791V47.02H428.791ZM430.791 56H418.911V60H430.791V56ZM420.911 58V16H416.911V58H420.911ZM418.911 18H438.111V14H418.911V18ZM437.391 39.66C440.071 39.66 442.452 39.0949 444.196 37.6324L441.626 34.5676C440.889 35.1851 439.59 35.66 437.391 35.66V39.66ZM444.224 37.6082C445.985 36.0751 446.771 33.9565 446.771 31.54H442.771C442.771 33.0435 442.317 33.9649 441.597 34.5918L444.224 37.6082ZM446.771 31.54C446.771 29.1235 445.985 27.0049 444.224 25.4718L441.597 28.4882C442.317 29.1151 442.771 30.0365 442.771 31.54H446.771ZM444.224 25.4718C442.479 23.9519 440.087 23.36 437.391 23.36V27.36C439.575 27.36 440.863 27.8481 441.597 28.4882L444.224 25.4718ZM437.391 23.36H430.791V27.36H437.391V23.36ZM428.791 25.36V37.66H432.791V25.36H428.791ZM430.791 39.66H437.391V35.66H430.791V39.66ZM468.359 57.58L468.867 55.6455L468.359 57.58ZM460.559 54.22L458.732 53.4066L458.061 54.9129L459.412 55.8585L460.559 54.22ZM464.459 45.46L465.56 43.7905L463.591 42.4918L462.632 44.6466L464.459 45.46ZM470.999 48.46L471.585 46.5478L470.999 48.46ZM483.179 43.54L482.33 45.3509L482.364 45.3667L482.398 45.3812L483.179 43.54ZM476.939 41.68L477.373 39.7276L477.36 39.7248L476.939 41.68ZM469.019 39.52L468.313 41.3912L468.329 41.3971L468.344 41.4027L469.019 39.52ZM463.379 21.88L465.028 23.0117L465.033 23.0042L465.038 22.9967L463.379 21.88ZM469.619 16.96L468.831 15.1217L468.822 15.1259L469.619 16.96ZM488.039 16.12L487.575 18.0653L487.588 18.0686L487.602 18.0717L488.039 16.12ZM495.119 18.82L496.966 19.5865L497.634 17.9787L496.133 17.0961L495.119 18.82ZM491.459 27.64L490.509 29.3998L492.458 30.4521L493.306 28.4065L491.459 27.64ZM474.659 25.48L475.725 27.1725L475.747 27.1586L475.769 27.1441L474.659 25.48ZM474.959 30.7L474.158 32.5323L474.959 30.7ZM481.139 32.44L481.555 30.4837L481.553 30.4832L481.139 32.44ZM489.059 34.66L488.341 36.5267L488.363 36.5349L488.384 36.5427L489.059 34.66ZM494.519 38.38L493.021 39.7044L493.037 39.7229L493.054 39.7409L494.519 38.38ZM494.759 52.12L493.11 50.9883L494.759 52.12ZM488.459 57.04L489.247 58.8783L489.258 58.8736L489.269 58.8687L488.459 57.04ZM478.259 56.84C475.026 56.84 471.897 56.4408 468.867 55.6455L467.851 59.5145C471.222 60.3992 474.693 60.84 478.259 60.84V56.84ZM468.867 55.6455C465.82 54.8457 463.457 53.8071 461.706 52.5815L459.412 55.8585C461.661 57.4329 464.499 58.6343 467.851 59.5145L468.867 55.6455ZM462.386 55.0334L466.286 46.2734L462.632 44.6466L458.732 53.4066L462.386 55.0334ZM463.358 47.1295C465.419 48.4891 467.778 49.5646 470.413 50.3722L471.585 46.5478C469.261 45.8354 467.259 44.9109 465.56 43.7905L463.358 47.1295ZM470.413 50.3722C473.068 51.1857 475.705 51.6 478.319 51.6V47.6C476.133 47.6 473.891 47.2543 471.585 46.5478L470.413 50.3722ZM478.319 51.6C480.701 51.6 482.786 51.3128 484.344 50.5339C485.151 50.1302 485.877 49.5646 486.396 48.7856C486.923 47.9942 487.159 47.1 487.159 46.18H483.159C483.159 46.4 483.11 46.5033 483.068 46.5668C483.017 46.6429 482.888 46.7898 482.555 46.9561C481.833 47.3172 480.497 47.6 478.319 47.6V51.6ZM487.159 46.18C487.159 45.1889 486.878 44.2381 486.264 43.42C485.668 42.6246 484.849 42.0758 483.96 41.6988L482.398 45.3812C482.829 45.5642 483.001 45.7354 483.064 45.82C483.111 45.8819 483.159 45.9711 483.159 46.18H487.159ZM484.028 41.7291C482.538 41.0305 480.277 40.3729 477.373 39.7276L476.505 43.6324C479.362 44.2671 481.261 44.8495 482.33 45.3509L484.028 41.7291ZM477.36 39.7248C474.253 39.0561 471.704 38.3578 469.694 37.6373L468.344 41.4027C470.574 42.2022 473.306 42.9439 476.518 43.6352L477.36 39.7248ZM469.725 37.6488C467.914 36.9654 466.365 35.8948 465.058 34.4156L462.061 37.0644C463.793 39.0252 465.884 40.4746 468.313 41.3912L469.725 37.6488ZM465.058 34.4156C463.941 33.1521 463.279 31.349 463.279 28.78H459.279C459.279 32.051 460.137 34.8879 462.061 37.0644L465.058 34.4156ZM463.279 28.78C463.279 26.6091 463.865 24.7065 465.028 23.0117L461.73 20.7483C460.093 23.1335 459.279 25.8309 459.279 28.78H463.279ZM465.038 22.9967C466.186 21.2916 467.936 19.8728 470.417 18.7941L468.822 15.1259C465.783 16.4471 463.372 18.3084 461.72 20.7632L465.038 22.9967ZM470.407 18.7983C472.891 17.7337 476.026 17.16 479.879 17.16V13.16C475.652 13.16 471.947 13.7863 468.831 15.1217L470.407 18.7983ZM479.879 17.16C482.483 17.16 485.047 17.4617 487.575 18.0653L488.504 14.1747C485.671 13.4983 482.795 13.16 479.879 13.16V17.16ZM487.602 18.0717C490.111 18.6334 492.271 19.4647 494.105 20.5439L496.133 17.0961C493.888 15.7753 491.327 14.8066 488.476 14.1683L487.602 18.0717ZM493.272 18.0534L489.612 26.8734L493.306 28.4065L496.966 19.5865L493.272 18.0534ZM492.41 25.8802C488.178 23.5953 483.974 22.4 479.819 22.4V26.4C483.185 26.4 486.74 27.3647 490.509 29.3998L492.41 25.8802ZM479.819 22.4C477.344 22.4 475.132 22.7611 473.55 23.8159L475.769 27.1441C476.346 26.7588 477.575 26.4 479.819 26.4V22.4ZM473.594 23.7875C472.028 24.7734 471.039 26.2668 471.039 28.18H475.039C475.039 27.8532 475.131 27.5466 475.725 27.1725L473.594 23.7875ZM471.039 28.18C471.039 29.1496 471.326 30.0719 471.928 30.8621C472.51 31.626 473.303 32.1586 474.158 32.5323L475.761 28.8677C475.335 28.6814 475.168 28.514 475.11 28.4379C475.072 28.3881 475.039 28.3304 475.039 28.18H471.039ZM474.158 32.5323C475.635 33.1787 477.863 33.792 480.726 34.3968L481.553 30.4832C478.735 29.888 476.843 29.3413 475.761 28.8677L474.158 32.5323ZM480.724 34.3963C483.863 35.0636 486.393 35.7775 488.341 36.5267L489.777 32.7933C487.565 31.9425 484.815 31.1764 481.555 30.4837L480.724 34.3963ZM488.384 36.5427C490.181 37.1867 491.719 38.2318 493.021 39.7044L496.018 37.0556C494.279 35.0882 492.178 33.6533 489.734 32.7773L488.384 36.5427ZM493.054 39.7409C494.184 40.9578 494.859 42.7214 494.859 45.28H498.859C498.859 41.9986 497.975 39.1622 495.985 37.0191L493.054 39.7409ZM494.859 45.28C494.859 47.404 494.277 49.288 493.11 50.9883L496.408 53.2517C498.041 50.872 498.859 48.196 498.859 45.28H494.859ZM493.11 50.9883C491.965 52.6576 490.191 54.0858 487.649 55.2113L489.269 58.8687C492.328 57.5142 494.754 55.6624 496.408 53.2517L493.11 50.9883ZM487.671 55.2017C485.185 56.2673 482.069 56.84 478.259 56.84V60.84C482.449 60.84 486.133 60.2127 489.247 58.8783L487.671 55.2017Z" fill="white"/>
</svg>
