<svg width="345" height="62" viewBox="0 0 345 76" fill="none" xmlns="http://www.w3.org/2000/svg">
<path opacity="0.3" d="M24.56 49.84L26.2117 48.7122L25.6162 47.84H24.56V49.84ZM18.08 49.84V47.84H16.08V49.84H18.08ZM18.08 61V63H20.08V61H18.08ZM6.2 61H4.2V63H6.2V61ZM6.2 19V17H4.2V19H6.2ZM35.3 20.92L34.4685 22.7389L34.4793 22.7439L34.4901 22.7487L35.3 20.92ZM41.78 26.32L40.0986 27.403L40.1028 27.4095L40.1071 27.4161L41.78 26.32ZM41.9 42.52L40.209 41.452L40.204 41.46L41.9 42.52ZM35.84 47.8L34.9675 46.0004L32.8753 47.0148L34.191 48.9318L35.84 47.8ZM44.9 61V63H48.6985L46.549 59.8682L44.9 61ZM32.18 61L30.5283 62.1278L31.1238 63H32.18V61ZM18.08 28.36V26.36H16.08V28.36H18.08ZM18.08 40.66H16.08V42.66H18.08V40.66ZM30.2 39.1L31.4852 40.6324L31.4995 40.6204L31.5136 40.6082L30.2 39.1ZM24.56 47.84H18.08V51.84H24.56V47.84ZM16.08 49.84V61H20.08V49.84H16.08ZM18.08 59H6.2V63H18.08V59ZM8.2 61V19H4.2V61H8.2ZM6.2 21H25.4V17H6.2V21ZM25.4 21C28.9786 21 31.9831 21.6028 34.4685 22.7389L36.1315 19.101C33.0169 17.6772 29.4214 17 25.4 17V21ZM34.4901 22.7487C36.9669 23.8455 38.8092 25.4011 40.0986 27.403L43.4614 25.237C41.7108 22.5189 39.2331 20.4745 36.1099 19.0913L34.4901 22.7487ZM40.1071 27.4161C41.385 29.3666 42.06 31.7136 42.06 34.54H46.06C46.06 31.0464 45.215 27.9134 43.4529 25.2239L40.1071 27.4161ZM42.06 34.54C42.06 37.2515 41.4222 39.5311 40.209 41.452L43.591 43.588C45.2578 40.9489 46.06 37.9085 46.06 34.54H42.06ZM40.204 41.46C39.0251 43.3463 37.3076 44.8658 34.9675 46.0004L36.7125 49.5996C39.6525 48.1742 41.9749 46.1737 43.596 43.58L40.204 41.46ZM34.191 48.9318L43.251 62.1318L46.549 59.8682L37.489 46.6682L34.191 48.9318ZM44.9 59H32.18V63H44.9V59ZM33.8317 59.8722L26.2117 48.7122L22.9083 50.9678L30.5283 62.1278L33.8317 59.8722ZM34.06 34.54C34.06 32.1235 33.2738 30.0049 31.5136 28.4718L28.8864 31.4882C29.6062 32.1151 30.06 33.0365 30.06 34.54H34.06ZM31.5136 28.4718C29.7684 26.9519 27.3756 26.36 24.68 26.36V30.36C26.8644 30.36 28.1516 30.8481 28.8864 31.4882L31.5136 28.4718ZM24.68 26.36H18.08V30.36H24.68V26.36ZM16.08 28.36V40.66H20.08V28.36H16.08ZM18.08 42.66H24.68V38.66H18.08V42.66ZM24.68 42.66C27.3605 42.66 29.7415 42.0949 31.4852 40.6324L28.9148 37.5676C28.1785 38.1851 26.8795 38.66 24.68 38.66V42.66ZM31.5136 40.6082C33.2738 39.0751 34.06 36.9565 34.06 34.54H30.06C30.06 36.0435 29.6062 36.9649 28.8864 37.5918L31.5136 40.6082ZM60.1441 59.02L59.2018 60.7842L59.2101 60.7885L60.1441 59.02ZM51.8041 51.22L50.0909 52.252L50.0954 52.2596L50.1 52.267L51.8041 51.22ZM51.8041 28.78L50.1 27.733L50.0954 27.7404L50.0909 27.748L51.8041 28.78ZM60.1441 20.98L59.2101 19.2114L59.2018 19.2158L60.1441 20.98ZM84.0841 20.98L83.1418 22.7442L83.1501 22.7485L84.0841 20.98ZM92.4241 28.78L90.7109 29.812L90.7154 29.8196L90.72 29.827L92.4241 28.78ZM92.4241 51.22L90.72 50.173L90.7154 50.1804L90.7109 50.188L92.4241 51.22ZM84.0841 59.02L83.1501 57.2514L83.1418 57.2558L84.0841 59.02ZM77.9041 50.5L78.9093 52.229L77.9041 50.5ZM81.9841 46.3L83.7324 47.2713L83.7369 47.2632L83.7413 47.255L81.9841 46.3ZM81.9841 33.76L80.2268 34.715L80.2312 34.7232L80.2357 34.7313L81.9841 33.76ZM77.9041 29.5L78.9093 27.771L78.9093 27.771L77.9041 29.5ZM66.3841 29.5L65.3788 27.771V27.771L66.3841 29.5ZM62.3041 33.76L64.0524 34.7313L64.0569 34.7232L64.0613 34.715L62.3041 33.76ZM62.3041 46.3L60.5468 47.255L60.5512 47.2632L60.5557 47.2713L62.3041 46.3ZM66.3841 50.5L67.3893 48.771L66.3841 50.5ZM72.1441 59.84C67.9955 59.84 64.3214 58.9643 61.078 57.2515L59.2101 60.7885C63.0867 62.8357 67.4127 63.84 72.1441 63.84V59.84ZM61.0863 57.2558C57.8714 55.5388 55.3576 53.183 53.5081 50.173L50.1 52.267C52.3305 55.897 55.3767 58.7412 59.2018 60.7841L61.0863 57.2558ZM53.5172 50.188C51.7187 47.2024 50.8041 43.824 50.8041 40H46.8041C46.8041 44.496 47.8894 48.5976 50.0909 52.252L53.5172 50.188ZM50.8041 40C50.8041 36.176 51.7187 32.7976 53.5172 29.812L50.0909 27.748C47.8894 31.4024 46.8041 35.504 46.8041 40H50.8041ZM53.5081 29.827C55.3576 26.817 57.8714 24.4612 61.0863 22.7441L59.2018 19.2158C55.3767 21.2588 52.3305 24.103 50.1 27.733L53.5081 29.827ZM61.078 22.7485C64.3214 21.0357 67.9955 20.16 72.1441 20.16V16.16C67.4127 16.16 63.0867 17.1643 59.2101 19.2115L61.078 22.7485ZM72.1441 20.16C76.293 20.16 79.9433 21.0358 83.1418 22.7441L85.0263 19.2158C81.1849 17.1642 76.8751 16.16 72.1441 16.16V20.16ZM83.1501 22.7485C86.4012 24.4654 88.9062 26.8163 90.7109 29.812L94.1372 27.748C91.9419 24.1037 88.8869 21.2546 85.018 19.2115L83.1501 22.7485ZM90.72 29.827C92.5533 32.8106 93.4841 36.1836 93.4841 40H97.4841C97.4841 35.4964 96.3748 31.3894 94.1281 27.733L90.72 29.827ZM93.4841 40C93.4841 43.8164 92.5533 47.1894 90.72 50.173L94.1281 52.267C96.3748 48.6106 97.4841 44.5036 97.4841 40H93.4841ZM90.7109 50.188C88.9062 53.1837 86.4012 55.5346 83.1501 57.2515L85.018 60.7885C88.8869 58.7454 91.9419 55.8963 94.1372 52.252L90.7109 50.188ZM83.1418 57.2558C79.9433 58.9642 76.293 59.84 72.1441 59.84V63.84C76.8751 63.84 81.1849 62.8358 85.0263 60.7841L83.1418 57.2558ZM72.1441 54C74.5932 54 76.8639 53.4182 78.9093 52.229L76.8988 48.771C75.5042 49.5818 73.9349 50 72.1441 50V54ZM78.9093 52.229C80.9519 51.0414 82.5638 49.3746 83.7324 47.2713L80.2357 45.3287C79.4043 46.8254 78.2962 47.9586 76.8988 48.771L78.9093 52.229ZM83.7413 47.255C84.9199 45.0863 85.4841 42.6506 85.4841 40H81.4841C81.4841 42.0694 81.0482 43.8337 80.2268 45.345L83.7413 47.255ZM85.4841 40C85.4841 37.3504 84.9202 34.9269 83.7324 32.7887L80.2357 34.7313C81.0479 36.1931 81.4841 37.9296 81.4841 40H85.4841ZM83.7413 32.805C82.5759 30.6606 80.9631 28.9651 78.9093 27.771L76.8988 31.229C78.285 32.0349 79.3922 33.1794 80.2268 34.715L83.7413 32.805ZM78.9093 27.771C76.8639 26.5818 74.5932 26 72.1441 26V30C73.9349 30 75.5042 30.4182 76.8988 31.229L78.9093 27.771ZM72.1441 26C69.6949 26 67.4242 26.5818 65.3788 27.771L67.3893 31.229C68.7839 30.4182 70.3532 30 72.1441 30V26ZM65.3788 27.771C63.325 28.9651 61.7122 30.6606 60.5468 32.805L64.0613 34.715C64.8959 33.1794 66.0031 32.0349 67.3893 31.229L65.3788 27.771ZM60.5557 32.7887C59.3679 34.9269 58.8041 37.3504 58.8041 40H62.8041C62.8041 37.9296 63.2402 36.1931 64.0524 34.7313L60.5557 32.7887ZM58.8041 40C58.8041 42.6506 59.3682 45.0863 60.5468 47.255L64.0613 45.345C63.2399 43.8337 62.8041 42.0694 62.8041 40H58.8041ZM60.5557 47.2713C61.7243 49.3746 63.3362 51.0414 65.3788 52.229L67.3893 48.771C65.9919 47.9585 64.8838 46.8254 64.0524 45.3287L60.5557 47.2713ZM65.3788 52.229C67.4242 53.4182 69.6949 54 72.1441 54V50C70.3532 50 68.7839 49.5818 67.3893 48.771L65.3788 52.229ZM129.61 52.84L131.464 52.0902L130.959 50.84H129.61V52.84ZM111.85 52.84V50.84H110.502L109.996 52.0902L111.85 52.84ZM108.55 61V63H109.899L110.404 61.7498L108.55 61ZM96.4303 61L94.6006 60.1923L93.3613 63H96.4303V61ZM114.97 19V17H113.667L113.141 18.1923L114.97 19ZM126.67 19L128.499 18.1901L127.972 17H126.67V19ZM145.27 61V63H148.343L147.099 60.1901L145.27 61ZM132.91 61L131.056 61.7498L131.562 63H132.91V61ZM126.13 44.08V46.08H129.089L127.986 43.3344L126.13 44.08ZM120.73 30.64L122.586 29.8944L120.73 25.2755L118.875 29.8944L120.73 30.64ZM115.33 44.08L113.475 43.3344L112.371 46.08H115.33V44.08ZM129.61 50.84H111.85V54.84H129.61V50.84ZM109.996 52.0902L106.696 60.2502L110.404 61.7498L113.704 53.5898L109.996 52.0902ZM108.55 59H96.4303V63H108.55V59ZM98.26 61.8077L116.8 19.8077L113.141 18.1923L94.6006 60.1923L98.26 61.8077ZM114.97 21H126.67V17H114.97V21ZM124.842 19.8098L143.442 61.8099L147.099 60.1901L128.499 18.1901L124.842 19.8098ZM145.27 59H132.91V63H145.27V59ZM134.764 60.2502L131.464 52.0902L127.756 53.5898L131.056 61.7498L134.764 60.2502ZM127.986 43.3344L122.586 29.8944L118.875 31.3856L124.275 44.8256L127.986 43.3344ZM118.875 29.8944L113.475 43.3344L117.186 44.8256L122.586 31.3856L118.875 29.8944ZM115.33 46.08H126.13V42.08H115.33V46.08ZM148.988 19V17H146.988V19H148.988ZM181.088 21.58L180.218 23.3808L181.088 21.58ZM189.368 51.1L191.068 52.1542L189.368 51.1ZM148.988 61H146.988V63H148.988V61ZM177.008 48.46L175.648 46.9935L175.642 46.9997L175.635 47.006L177.008 48.46ZM177.008 31.54L175.635 32.994L175.642 33.0003L175.648 33.0065L177.008 31.54ZM160.868 28.48V26.48H158.868V28.48H160.868ZM160.868 51.52H158.868V53.52H160.868V51.52ZM148.988 21H168.848V17H148.988V21ZM168.848 21C173.196 21 176.971 21.8117 180.218 23.3808L181.958 19.7792C178.086 17.9083 173.701 17 168.848 17V21ZM180.218 23.3808C183.459 24.9466 185.922 27.1374 187.669 29.9542L191.068 27.8458C188.895 24.3426 185.837 21.6534 181.958 19.7792L180.218 23.3808ZM187.669 29.9542C189.406 32.7551 190.308 36.0791 190.308 40H194.308C194.308 35.4409 193.251 31.3649 191.068 27.8458L187.669 29.9542ZM190.308 40C190.308 43.9209 189.406 47.2449 187.669 50.0458L191.068 52.1542C193.251 48.6351 194.308 44.5591 194.308 40H190.308ZM187.669 50.0458C185.922 52.8626 183.459 55.0534 180.218 56.6192L181.958 60.2208C185.837 58.3466 188.895 55.6574 191.068 52.1542L187.669 50.0458ZM180.218 56.6192C176.971 58.1883 173.196 59 168.848 59V63C173.701 63 178.086 62.0917 181.958 60.2208L180.218 56.6192ZM168.848 59H148.988V63H168.848V59ZM150.988 61V19H146.988V61H150.988ZM168.368 53.52C172.365 53.52 175.775 52.376 178.382 49.914L175.635 47.006C173.922 48.624 171.572 49.52 168.368 49.52V53.52ZM178.368 49.9265C181.057 47.4332 182.308 44.0361 182.308 40H178.308C178.308 43.1639 177.36 45.4068 175.648 46.9935L178.368 49.9265ZM182.308 40C182.308 35.9639 181.057 32.5668 178.368 30.0735L175.648 33.0065C177.36 34.5932 178.308 36.8361 178.308 40H182.308ZM178.382 30.086C175.775 27.624 172.365 26.48 168.368 26.48V30.48C171.572 30.48 173.922 31.376 175.635 32.994L178.382 30.086ZM168.368 26.48H160.868V30.48H168.368V26.48ZM158.868 28.48V51.52H162.868V28.48H158.868ZM160.868 53.52H168.368V49.52H160.868V53.52ZM236.829 61L234.829 61.0108L234.839 63H236.829V61ZM236.709 38.74L238.709 38.7292L238.67 31.5431L234.991 37.716L236.709 38.74ZM225.909 56.86V58.86H227.045L227.627 57.884L225.909 56.86ZM220.629 56.86L218.923 57.9053L219.509 58.86H220.629V56.86ZM209.889 39.34L211.594 38.2947L207.889 32.2506V39.34H209.889ZM209.889 61V63H211.889V61H209.889ZM198.909 61H196.909V63H198.909V61ZM198.909 19V17H196.909V19H198.909ZM208.689 19L210.397 17.9598L209.812 17H208.689V19ZM223.449 43.24L221.74 44.2802L223.47 47.1203L225.168 44.2615L223.449 43.24ZM237.849 19V17H236.71L236.129 17.9785L237.849 19ZM247.629 19L249.629 18.9943L249.623 17H247.629V19ZM247.749 61V63H249.754L249.749 60.9943L247.749 61ZM238.829 60.9892L238.709 38.7292L234.709 38.7508L234.829 61.0108L238.829 60.9892ZM234.991 37.716L224.191 55.836L227.627 57.884L238.427 39.764L234.991 37.716ZM225.909 54.86H220.629V58.86H225.909V54.86ZM222.334 55.8147L211.594 38.2947L208.183 40.3853L218.923 57.9053L222.334 55.8147ZM207.889 39.34V61H211.889V39.34H207.889ZM209.889 59H198.909V63H209.889V59ZM200.909 61V19H196.909V61H200.909ZM198.909 21H208.689V17H198.909V21ZM206.98 20.0402L221.74 44.2802L225.157 42.1998L210.397 17.9598L206.98 20.0402ZM225.168 44.2615L239.568 20.0215L236.129 17.9785L221.729 42.2185L225.168 44.2615ZM237.849 21H247.629V17H237.849V21ZM245.629 19.0057L245.749 61.0057L249.749 60.9943L249.629 18.9943L245.629 19.0057ZM247.749 59H236.829V63H247.749V59ZM284.645 52.84L286.499 52.0902L285.993 50.84H284.645V52.84ZM266.885 52.84V50.84H265.536L265.031 52.0902L266.885 52.84ZM263.585 61V63H264.933L265.439 61.7498L263.585 61ZM251.465 61L249.635 60.1923L248.396 63H251.465V61ZM270.005 19V17H268.701L268.175 18.1923L270.005 19ZM281.705 19L283.533 18.1901L283.006 17H281.705V19ZM300.305 61V63H303.378L302.133 60.1901L300.305 61ZM287.945 61L286.091 61.7498L286.596 63H287.945V61ZM281.165 44.08V46.08H284.124L283.021 43.3344L281.165 44.08ZM275.765 30.64L277.62 29.8944L275.765 25.2755L273.909 29.8944L275.765 30.64ZM270.365 44.08L268.509 43.3344L267.406 46.08H270.365V44.08ZM284.645 50.84H266.885V54.84H284.645V50.84ZM265.031 52.0902L261.731 60.2502L265.439 61.7498L268.739 53.5898L265.031 52.0902ZM263.585 59H251.465V63H263.585V59ZM253.294 61.8077L271.834 19.8077L268.175 18.1923L249.635 60.1923L253.294 61.8077ZM270.005 21H281.705V17H270.005V21ZM279.876 19.8098L298.476 61.8099L302.133 60.1901L283.533 18.1901L279.876 19.8098ZM300.305 59H287.945V63H300.305V59ZM289.799 60.2502L286.499 52.0902L282.791 53.5898L286.091 61.7498L289.799 60.2502ZM283.021 43.3344L277.62 29.8944L273.909 31.3856L279.309 44.8256L283.021 43.3344ZM273.909 29.8944L268.509 43.3344L272.22 44.8256L277.62 31.3856L273.909 29.8944ZM270.365 46.08H281.165V42.08H270.365V46.08ZM333.123 20.92L332.291 22.7389L332.302 22.7439L332.313 22.7487L333.123 20.92ZM339.603 26.32L337.921 27.403L337.925 27.4095L337.93 27.4161L339.603 26.32ZM339.603 42.76L341.276 43.8561L339.603 42.76ZM333.123 48.16L333.933 49.9887L333.943 49.9839L333.954 49.9789L333.123 48.16ZM315.903 50.02V48.02H313.903V50.02H315.903ZM315.903 61V63H317.903V61H315.903ZM304.023 61H302.023V63H304.023V61ZM304.023 19V17H302.023V19H304.023ZM328.023 39.1L329.308 40.6324L329.322 40.6204L329.336 40.6082L328.023 39.1ZM315.903 28.36V26.36H313.903V28.36H315.903ZM315.903 40.66H313.903V42.66H315.903V40.66ZM323.223 21C326.801 21 329.806 21.6028 332.291 22.7389L333.954 19.101C330.84 17.6772 327.244 17 323.223 17V21ZM332.313 22.7487C334.79 23.8455 336.632 25.4011 337.921 27.403L341.284 25.237C339.533 22.5189 337.056 20.4745 333.933 19.0913L332.313 22.7487ZM337.93 27.4161C339.208 29.3666 339.883 31.7136 339.883 34.54H343.883C343.883 31.0464 343.038 27.9134 341.276 25.2239L337.93 27.4161ZM339.883 34.54C339.883 37.3664 339.208 39.7134 337.93 41.6639L341.276 43.8561C343.038 41.1666 343.883 38.0336 343.883 34.54H339.883ZM337.93 41.6639C336.639 43.6344 334.787 45.2 332.291 46.341L333.954 49.9789C337.058 48.56 339.527 46.5256 341.276 43.8561L337.93 41.6639ZM332.313 46.3313C329.821 47.4346 326.809 48.02 323.223 48.02V52.02C327.236 52.02 330.824 51.3654 333.933 49.9887L332.313 46.3313ZM323.223 48.02H315.903V52.02H323.223V48.02ZM313.903 50.02V61H317.903V50.02H313.903ZM315.903 59H304.023V63H315.903V59ZM306.023 61V19H302.023V61H306.023ZM304.023 21H323.223V17H304.023V21ZM322.503 42.66C325.183 42.66 327.564 42.0949 329.308 40.6324L326.737 37.5676C326.001 38.1851 324.702 38.66 322.503 38.66V42.66ZM329.336 40.6082C331.096 39.0751 331.883 36.9565 331.883 34.54H327.883C327.883 36.0435 327.429 36.9649 326.709 37.5918L329.336 40.6082ZM331.883 34.54C331.883 32.1235 331.096 30.0049 329.336 28.4718L326.709 31.4882C327.429 32.1151 327.883 33.0365 327.883 34.54H331.883ZM329.336 28.4718C327.591 26.9519 325.198 26.36 322.503 26.36V30.36C324.687 30.36 325.974 30.8481 326.709 31.4882L329.336 28.4718ZM322.503 26.36H315.903V30.36H322.503V26.36ZM313.903 28.36V40.66H317.903V28.36H313.903ZM315.903 42.66H322.503V38.66H315.903V42.66Z" fill="#444F59"/>
<path d="M22.56 46.84L24.2117 45.7122L23.6162 44.84H22.56V46.84ZM16.08 46.84V44.84H14.08V46.84H16.08ZM16.08 58V60H18.08V58H16.08ZM4.2 58H2.2V60H4.2V58ZM4.2 16V14H2.2V16H4.2ZM33.3 17.92L32.4685 19.7389L32.4793 19.7439L32.4901 19.7487L33.3 17.92ZM39.78 23.32L38.0986 24.403L38.1028 24.4095L38.1071 24.4161L39.78 23.32ZM39.9 39.52L38.209 38.452L38.204 38.46L39.9 39.52ZM33.84 44.8L32.9675 43.0004L30.8753 44.0148L32.191 45.9318L33.84 44.8ZM42.9 58V60H46.6985L44.549 56.8682L42.9 58ZM30.18 58L28.5283 59.1278L29.1238 60H30.18V58ZM16.08 25.36V23.36H14.08V25.36H16.08ZM16.08 37.66H14.08V39.66H16.08V37.66ZM28.2 36.1L29.4852 37.6324L29.4995 37.6204L29.5136 37.6082L28.2 36.1ZM22.56 44.84H16.08V48.84H22.56V44.84ZM14.08 46.84V58H18.08V46.84H14.08ZM16.08 56H4.2V60H16.08V56ZM6.2 58V16H2.2V58H6.2ZM4.2 18H23.4V14H4.2V18ZM23.4 18C26.9786 18 29.9831 18.6028 32.4685 19.7389L34.1315 16.101C31.0169 14.6772 27.4214 14 23.4 14V18ZM32.4901 19.7487C34.9669 20.8455 36.8092 22.4011 38.0986 24.403L41.4614 22.237C39.7108 19.5189 37.2331 17.4745 34.1099 16.0913L32.4901 19.7487ZM38.1071 24.4161C39.385 26.3666 40.06 28.7136 40.06 31.54H44.06C44.06 28.0464 43.215 24.9134 41.4529 22.2239L38.1071 24.4161ZM40.06 31.54C40.06 34.2515 39.4222 36.5311 38.209 38.452L41.591 40.588C43.2578 37.9489 44.06 34.9085 44.06 31.54H40.06ZM38.204 38.46C37.0251 40.3463 35.3076 41.8658 32.9675 43.0004L34.7125 46.5996C37.6525 45.1742 39.9749 43.1737 41.596 40.58L38.204 38.46ZM32.191 45.9318L41.251 59.1318L44.549 56.8682L35.489 43.6682L32.191 45.9318ZM42.9 56H30.18V60H42.9V56ZM31.8317 56.8722L24.2117 45.7122L20.9083 47.9678L28.5283 59.1278L31.8317 56.8722ZM32.06 31.54C32.06 29.1235 31.2738 27.0049 29.5136 25.4718L26.8864 28.4882C27.6062 29.1151 28.06 30.0365 28.06 31.54H32.06ZM29.5136 25.4718C27.7684 23.9519 25.3756 23.36 22.68 23.36V27.36C24.8644 27.36 26.1516 27.8481 26.8864 28.4882L29.5136 25.4718ZM22.68 23.36H16.08V27.36H22.68V23.36ZM14.08 25.36V37.66H18.08V25.36H14.08ZM16.08 39.66H22.68V35.66H16.08V39.66ZM22.68 39.66C25.3605 39.66 27.7415 39.0949 29.4852 37.6324L26.9148 34.5676C26.1785 35.1851 24.8795 35.66 22.68 35.66V39.66ZM29.5136 37.6082C31.2738 36.0751 32.06 33.9565 32.06 31.54H28.06C28.06 33.0435 27.6062 33.9649 26.8864 34.5918L29.5136 37.6082ZM58.1441 56.02L57.2018 57.7842L57.2101 57.7885L58.1441 56.02ZM49.8041 48.22L48.0909 49.252L48.0954 49.2596L48.1 49.267L49.8041 48.22ZM49.8041 25.78L48.1 24.733L48.0954 24.7404L48.0909 24.748L49.8041 25.78ZM58.1441 17.98L57.2101 16.2114L57.2018 16.2158L58.1441 17.98ZM82.0841 17.98L81.1418 19.7442L81.1501 19.7485L82.0841 17.98ZM90.4241 25.78L88.7109 26.812L88.7154 26.8196L88.72 26.827L90.4241 25.78ZM90.4241 48.22L88.72 47.173L88.7154 47.1804L88.7109 47.188L90.4241 48.22ZM82.0841 56.02L81.1501 54.2514L81.1418 54.2558L82.0841 56.02ZM75.9041 47.5L76.9093 49.229L75.9041 47.5ZM79.9841 43.3L81.7324 44.2713L81.7369 44.2632L81.7413 44.255L79.9841 43.3ZM79.9841 30.76L78.2268 31.715L78.2312 31.7232L78.2357 31.7313L79.9841 30.76ZM75.9041 26.5L76.9093 24.771L76.9093 24.771L75.9041 26.5ZM64.3841 26.5L63.3788 24.771V24.771L64.3841 26.5ZM60.3041 30.76L62.0524 31.7313L62.0569 31.7232L62.0613 31.715L60.3041 30.76ZM60.3041 43.3L58.5468 44.255L58.5512 44.2632L58.5557 44.2713L60.3041 43.3ZM64.3841 47.5L65.3893 45.771L64.3841 47.5ZM70.1441 56.84C65.9955 56.84 62.3214 55.9643 59.078 54.2515L57.2101 57.7885C61.0867 59.8357 65.4127 60.84 70.1441 60.84V56.84ZM59.0863 54.2558C55.8714 52.5388 53.3576 50.183 51.5081 47.173L48.1 49.267C50.3305 52.897 53.3767 55.7412 57.2018 57.7841L59.0863 54.2558ZM51.5172 47.188C49.7187 44.2024 48.8041 40.824 48.8041 37H44.8041C44.8041 41.496 45.8894 45.5976 48.0909 49.252L51.5172 47.188ZM48.8041 37C48.8041 33.176 49.7187 29.7976 51.5172 26.812L48.0909 24.748C45.8894 28.4024 44.8041 32.504 44.8041 37H48.8041ZM51.5081 26.827C53.3576 23.817 55.8714 21.4612 59.0863 19.7441L57.2018 16.2158C53.3767 18.2588 50.3305 21.103 48.1 24.733L51.5081 26.827ZM59.078 19.7485C62.3214 18.0357 65.9955 17.16 70.1441 17.16V13.16C65.4127 13.16 61.0867 14.1643 57.2101 16.2115L59.078 19.7485ZM70.1441 17.16C74.293 17.16 77.9433 18.0358 81.1418 19.7441L83.0263 16.2158C79.1849 14.1642 74.8751 13.16 70.1441 13.16V17.16ZM81.1501 19.7485C84.4012 21.4654 86.9062 23.8163 88.7109 26.812L92.1372 24.748C89.9419 21.1037 86.8869 18.2546 83.018 16.2115L81.1501 19.7485ZM88.72 26.827C90.5533 29.8106 91.4841 33.1836 91.4841 37H95.4841C95.4841 32.4964 94.3748 28.3894 92.1281 24.733L88.72 26.827ZM91.4841 37C91.4841 40.8164 90.5533 44.1894 88.72 47.173L92.1281 49.267C94.3748 45.6106 95.4841 41.5036 95.4841 37H91.4841ZM88.7109 47.188C86.9062 50.1837 84.4012 52.5346 81.1501 54.2515L83.018 57.7885C86.8869 55.7454 89.9419 52.8963 92.1372 49.252L88.7109 47.188ZM81.1418 54.2558C77.9433 55.9642 74.293 56.84 70.1441 56.84V60.84C74.8751 60.84 79.1849 59.8358 83.0263 57.7841L81.1418 54.2558ZM70.1441 51C72.5932 51 74.8639 50.4182 76.9093 49.229L74.8988 45.771C73.5042 46.5818 71.9349 47 70.1441 47V51ZM76.9093 49.229C78.9519 48.0414 80.5638 46.3746 81.7324 44.2713L78.2357 42.3287C77.4043 43.8254 76.2962 44.9586 74.8988 45.771L76.9093 49.229ZM81.7413 44.255C82.9199 42.0863 83.4841 39.6506 83.4841 37H79.4841C79.4841 39.0694 79.0482 40.8337 78.2268 42.345L81.7413 44.255ZM83.4841 37C83.4841 34.3504 82.9202 31.9269 81.7324 29.7887L78.2357 31.7313C79.0479 33.1931 79.4841 34.9296 79.4841 37H83.4841ZM81.7413 29.805C80.5759 27.6606 78.9631 25.9651 76.9093 24.771L74.8988 28.229C76.285 29.0349 77.3922 30.1794 78.2268 31.715L81.7413 29.805ZM76.9093 24.771C74.8639 23.5818 72.5932 23 70.1441 23V27C71.9349 27 73.5042 27.4182 74.8988 28.229L76.9093 24.771ZM70.1441 23C67.6949 23 65.4242 23.5818 63.3788 24.771L65.3893 28.229C66.7839 27.4182 68.3532 27 70.1441 27V23ZM63.3788 24.771C61.325 25.9651 59.7122 27.6606 58.5468 29.805L62.0613 31.715C62.8959 30.1794 64.0031 29.0349 65.3893 28.229L63.3788 24.771ZM58.5557 29.7887C57.3679 31.9269 56.8041 34.3504 56.8041 37H60.8041C60.8041 34.9296 61.2402 33.1931 62.0524 31.7313L58.5557 29.7887ZM56.8041 37C56.8041 39.6506 57.3682 42.0863 58.5468 44.255L62.0613 42.345C61.2399 40.8337 60.8041 39.0694 60.8041 37H56.8041ZM58.5557 44.2713C59.7243 46.3746 61.3362 48.0414 63.3788 49.229L65.3893 45.771C63.9919 44.9585 62.8838 43.8254 62.0524 42.3287L58.5557 44.2713ZM63.3788 49.229C65.4242 50.4182 67.6949 51 70.1441 51V47C68.3532 47 66.7839 46.5818 65.3893 45.771L63.3788 49.229ZM127.61 49.84L129.464 49.0902L128.959 47.84H127.61V49.84ZM109.85 49.84V47.84H108.502L107.996 49.0902L109.85 49.84ZM106.55 58V60H107.899L108.404 58.7498L106.55 58ZM94.4303 58L92.6006 57.1923L91.3613 60H94.4303V58ZM112.97 16V14H111.667L111.141 15.1923L112.97 16ZM124.67 16L126.499 15.1901L125.972 14H124.67V16ZM143.27 58V60H146.343L145.099 57.1901L143.27 58ZM130.91 58L129.056 58.7498L129.562 60H130.91V58ZM124.13 41.08V43.08H127.089L125.986 40.3344L124.13 41.08ZM118.73 27.64L120.586 26.8944L118.73 22.2755L116.875 26.8944L118.73 27.64ZM113.33 41.08L111.475 40.3344L110.371 43.08H113.33V41.08ZM127.61 47.84H109.85V51.84H127.61V47.84ZM107.996 49.0902L104.696 57.2502L108.404 58.7498L111.704 50.5898L107.996 49.0902ZM106.55 56H94.4303V60H106.55V56ZM96.26 58.8077L114.8 16.8077L111.141 15.1923L92.6006 57.1923L96.26 58.8077ZM112.97 18H124.67V14H112.97V18ZM122.842 16.8098L141.442 58.8099L145.099 57.1901L126.499 15.1901L122.842 16.8098ZM143.27 56H130.91V60H143.27V56ZM132.764 57.2502L129.464 49.0902L125.756 50.5898L129.056 58.7498L132.764 57.2502ZM125.986 40.3344L120.586 26.8944L116.875 28.3856L122.275 41.8256L125.986 40.3344ZM116.875 26.8944L111.475 40.3344L115.186 41.8256L120.586 28.3856L116.875 26.8944ZM113.33 43.08H124.13V39.08H113.33V43.08ZM146.988 16V14H144.988V16H146.988ZM179.088 18.58L178.218 20.3808L179.088 18.58ZM187.368 48.1L189.068 49.1542L187.368 48.1ZM146.988 58H144.988V60H146.988V58ZM175.008 45.46L173.648 43.9935L173.642 43.9997L173.635 44.006L175.008 45.46ZM175.008 28.54L173.635 29.994L173.642 30.0003L173.648 30.0065L175.008 28.54ZM158.868 25.48V23.48H156.868V25.48H158.868ZM158.868 48.52H156.868V50.52H158.868V48.52ZM146.988 18H166.848V14H146.988V18ZM166.848 18C171.196 18 174.971 18.8117 178.218 20.3808L179.958 16.7792C176.086 14.9083 171.701 14 166.848 14V18ZM178.218 20.3808C181.459 21.9466 183.922 24.1374 185.669 26.9542L189.068 24.8458C186.895 21.3426 183.837 18.6534 179.958 16.7792L178.218 20.3808ZM185.669 26.9542C187.406 29.7551 188.308 33.0791 188.308 37H192.308C192.308 32.4409 191.251 28.3649 189.068 24.8458L185.669 26.9542ZM188.308 37C188.308 40.9209 187.406 44.2449 185.669 47.0458L189.068 49.1542C191.251 45.6351 192.308 41.5591 192.308 37H188.308ZM185.669 47.0458C183.922 49.8626 181.459 52.0534 178.218 53.6192L179.958 57.2208C183.837 55.3466 186.895 52.6574 189.068 49.1542L185.669 47.0458ZM178.218 53.6192C174.971 55.1883 171.196 56 166.848 56V60C171.701 60 176.086 59.0917 179.958 57.2208L178.218 53.6192ZM166.848 56H146.988V60H166.848V56ZM148.988 58V16H144.988V58H148.988ZM166.368 50.52C170.365 50.52 173.775 49.376 176.382 46.914L173.635 44.006C171.922 45.624 169.572 46.52 166.368 46.52V50.52ZM176.368 46.9265C179.057 44.4332 180.308 41.0361 180.308 37H176.308C176.308 40.1639 175.36 42.4068 173.648 43.9935L176.368 46.9265ZM180.308 37C180.308 32.9639 179.057 29.5668 176.368 27.0735L173.648 30.0065C175.36 31.5932 176.308 33.8361 176.308 37H180.308ZM176.382 27.086C173.775 24.624 170.365 23.48 166.368 23.48V27.48C169.572 27.48 171.922 28.376 173.635 29.994L176.382 27.086ZM166.368 23.48H158.868V27.48H166.368V23.48ZM156.868 25.48V48.52H160.868V25.48H156.868ZM158.868 50.52H166.368V46.52H158.868V50.52ZM234.829 58L232.829 58.0108L232.839 60H234.829V58ZM234.709 35.74L236.709 35.7292L236.67 28.5431L232.991 34.716L234.709 35.74ZM223.909 53.86V55.86H225.045L225.627 54.884L223.909 53.86ZM218.629 53.86L216.923 54.9053L217.509 55.86H218.629V53.86ZM207.889 36.34L209.594 35.2947L205.889 29.2506V36.34H207.889ZM207.889 58V60H209.889V58H207.889ZM196.909 58H194.909V60H196.909V58ZM196.909 16V14H194.909V16H196.909ZM206.689 16L208.397 14.9598L207.812 14H206.689V16ZM221.449 40.24L219.74 41.2802L221.47 44.1203L223.168 41.2615L221.449 40.24ZM235.849 16V14H234.71L234.129 14.9785L235.849 16ZM245.629 16L247.629 15.9943L247.623 14H245.629V16ZM245.749 58V60H247.754L247.749 57.9943L245.749 58ZM236.829 57.9892L236.709 35.7292L232.709 35.7508L232.829 58.0108L236.829 57.9892ZM232.991 34.716L222.191 52.836L225.627 54.884L236.427 36.764L232.991 34.716ZM223.909 51.86H218.629V55.86H223.909V51.86ZM220.334 52.8147L209.594 35.2947L206.183 37.3853L216.923 54.9053L220.334 52.8147ZM205.889 36.34V58H209.889V36.34H205.889ZM207.889 56H196.909V60H207.889V56ZM198.909 58V16H194.909V58H198.909ZM196.909 18H206.689V14H196.909V18ZM204.98 17.0402L219.74 41.2802L223.157 39.1998L208.397 14.9598L204.98 17.0402ZM223.168 41.2615L237.568 17.0215L234.129 14.9785L219.729 39.2185L223.168 41.2615ZM235.849 18H245.629V14H235.849V18ZM243.629 16.0057L243.749 58.0057L247.749 57.9943L247.629 15.9943L243.629 16.0057ZM245.749 56H234.829V60H245.749V56ZM282.645 49.84L284.499 49.0902L283.993 47.84H282.645V49.84ZM264.885 49.84V47.84H263.536L263.031 49.0902L264.885 49.84ZM261.585 58V60H262.933L263.439 58.7498L261.585 58ZM249.465 58L247.635 57.1923L246.396 60H249.465V58ZM268.005 16V14H266.701L266.175 15.1923L268.005 16ZM279.705 16L281.533 15.1901L281.006 14H279.705V16ZM298.305 58V60H301.378L300.133 57.1901L298.305 58ZM285.945 58L284.091 58.7498L284.596 60H285.945V58ZM279.165 41.08V43.08H282.124L281.021 40.3344L279.165 41.08ZM273.765 27.64L275.62 26.8944L273.765 22.2755L271.909 26.8944L273.765 27.64ZM268.365 41.08L266.509 40.3344L265.406 43.08H268.365V41.08ZM282.645 47.84H264.885V51.84H282.645V47.84ZM263.031 49.0902L259.731 57.2502L263.439 58.7498L266.739 50.5898L263.031 49.0902ZM261.585 56H249.465V60H261.585V56ZM251.294 58.8077L269.834 16.8077L266.175 15.1923L247.635 57.1923L251.294 58.8077ZM268.005 18H279.705V14H268.005V18ZM277.876 16.8098L296.476 58.8099L300.133 57.1901L281.533 15.1901L277.876 16.8098ZM298.305 56H285.945V60H298.305V56ZM287.799 57.2502L284.499 49.0902L280.791 50.5898L284.091 58.7498L287.799 57.2502ZM281.021 40.3344L275.62 26.8944L271.909 28.3856L277.309 41.8256L281.021 40.3344ZM271.909 26.8944L266.509 40.3344L270.22 41.8256L275.62 28.3856L271.909 26.8944ZM268.365 43.08H279.165V39.08H268.365V43.08ZM331.123 17.92L330.291 19.7389L330.302 19.7439L330.313 19.7487L331.123 17.92ZM337.603 23.32L335.921 24.403L335.925 24.4095L335.93 24.4161L337.603 23.32ZM337.603 39.76L339.276 40.8561L337.603 39.76ZM331.123 45.16L331.933 46.9887L331.943 46.9839L331.954 46.9789L331.123 45.16ZM313.903 47.02V45.02H311.903V47.02H313.903ZM313.903 58V60H315.903V58H313.903ZM302.023 58H300.023V60H302.023V58ZM302.023 16V14H300.023V16H302.023ZM326.023 36.1L327.308 37.6324L327.322 37.6204L327.336 37.6082L326.023 36.1ZM313.903 25.36V23.36H311.903V25.36H313.903ZM313.903 37.66H311.903V39.66H313.903V37.66ZM321.223 18C324.801 18 327.806 18.6028 330.291 19.7389L331.954 16.101C328.84 14.6772 325.244 14 321.223 14V18ZM330.313 19.7487C332.79 20.8455 334.632 22.4011 335.921 24.403L339.284 22.237C337.533 19.5189 335.056 17.4745 331.933 16.0913L330.313 19.7487ZM335.93 24.4161C337.208 26.3666 337.883 28.7136 337.883 31.54H341.883C341.883 28.0464 341.038 24.9134 339.276 22.2239L335.93 24.4161ZM337.883 31.54C337.883 34.3664 337.208 36.7134 335.93 38.6639L339.276 40.8561C341.038 38.1666 341.883 35.0336 341.883 31.54H337.883ZM335.93 38.6639C334.639 40.6344 332.787 42.2 330.291 43.341L331.954 46.9789C335.058 45.56 337.527 43.5256 339.276 40.8561L335.93 38.6639ZM330.313 43.3313C327.821 44.4346 324.809 45.02 321.223 45.02V49.02C325.236 49.02 328.824 48.3654 331.933 46.9887L330.313 43.3313ZM321.223 45.02H313.903V49.02H321.223V45.02ZM311.903 47.02V58H315.903V47.02H311.903ZM313.903 56H302.023V60H313.903V56ZM304.023 58V16H300.023V58H304.023ZM302.023 18H321.223V14H302.023V18ZM320.503 39.66C323.183 39.66 325.564 39.0949 327.308 37.6324L324.737 34.5676C324.001 35.1851 322.702 35.66 320.503 35.66V39.66ZM327.336 37.6082C329.096 36.0751 329.883 33.9565 329.883 31.54H325.883C325.883 33.0435 325.429 33.9649 324.709 34.5918L327.336 37.6082ZM329.883 31.54C329.883 29.1235 329.096 27.0049 327.336 25.4718L324.709 28.4882C325.429 29.1151 325.883 30.0365 325.883 31.54H329.883ZM327.336 25.4718C325.591 23.9519 323.198 23.36 320.503 23.36V27.36C322.687 27.36 323.974 27.8481 324.709 28.4882L327.336 25.4718ZM320.503 23.36H313.903V27.36H320.503V23.36ZM311.903 25.36V37.66H315.903V25.36H311.903ZM313.903 39.66H320.503V35.66H313.903V39.66Z" fill="#444F59"/>
</svg>
