<svg width="20" height="20" viewBox="0 0 22 22" fill="none" xmlns="http://www.w3.org/2000/svg">
<path d="M19.2224 0.599609C15.7922 0.599609 11.193 2.95321 8.10339 6.99961H5.54152C3.69128 6.99961 2.63103 8.38201 1.90021 9.84281L0.919922 11.7996H5.54152L7.94028 14.1996L10.339 16.5996V21.222L12.2948 20.2428C13.7549 19.5132 15.1365 18.4508 15.1365 16.5996V14.0364C19.1808 10.9452 21.5332 6.34201 21.5332 2.91161V0.599609H19.2224ZM15.1365 5.39961C15.5607 5.39961 15.9674 5.56818 16.2673 5.86824C16.5672 6.1683 16.7357 6.57526 16.7357 6.99961C16.7357 7.42396 16.5672 7.83092 16.2673 8.13098C15.9674 8.43104 15.5607 8.59961 15.1365 8.59961C14.7124 8.59961 14.3057 8.43104 14.0058 8.13098C13.7059 7.83092 13.5374 7.42396 13.5374 6.99961C13.5374 6.57526 13.7059 6.1683 14.0058 5.86824C14.3057 5.56818 14.7124 5.39961 15.1365 5.39961ZM4.74194 14.9996L3.94235 15.7996C2.78775 16.9548 2.34318 19.7996 2.34318 19.7996C2.34318 19.7996 5.05857 19.4828 6.34111 18.1996L7.14069 17.3996L4.74194 14.9996Z" fill="white"/>
</svg>
