<svg width="246" height="62" viewBox="0 0 246 76" fill="none" xmlns="http://www.w3.org/2000/svg">
<path opacity="0.3" d="M11 56.74L9.59406 58.1625L9.60233 58.1706L11 56.74ZM5.84 19V17H3.84V19H5.84ZM17.72 19H19.72V17H17.72V19ZM33.62 19V17H31.62V19H33.62ZM45.32 19H47.32V17H45.32V19ZM40.1 56.74L38.7023 55.3094L38.6941 55.3175L40.1 56.74ZM25.58 59.84C19.7084 59.84 15.4067 58.2493 12.3977 55.3094L9.60233 58.1706C13.5533 62.0307 18.9716 63.84 25.58 63.84V59.84ZM12.4059 55.3175C9.44779 52.3938 7.84 48.1479 7.84 42.28H3.84C3.84 48.8921 5.67221 54.2862 9.59408 58.1625L12.4059 55.3175ZM7.84 42.28V19H3.84V42.28H7.84ZM5.84 21H17.72V17H5.84V21ZM15.72 19V41.92H19.72V19H15.72ZM15.72 41.92C15.72 45.4901 16.4176 48.537 18.1469 50.7214C19.9468 52.9949 22.5913 54 25.7 54V50C23.4887 50 22.1432 49.3251 21.2831 48.2386C20.3524 47.063 19.72 45.0699 19.72 41.92H15.72ZM25.7 54C28.794 54 31.4247 52.9912 33.2126 50.7156C34.9284 48.5319 35.62 45.4875 35.62 41.92H31.62C31.62 45.0725 30.9916 47.0681 30.0674 48.2444C29.2153 49.3288 27.886 50 25.7 50V54ZM35.62 41.92V19H31.62V41.92H35.62ZM33.62 21H45.32V17H33.62V21ZM43.32 19V42.28H47.32V19H43.32ZM43.32 42.28C43.32 48.1414 41.6961 52.3845 38.7023 55.3094L41.4977 58.1706C45.4639 54.2955 47.32 48.8986 47.32 42.28H43.32ZM38.6941 55.3175C35.7283 58.2489 31.4529 59.84 25.58 59.84V63.84C32.1871 63.84 37.5917 62.0311 41.5059 58.1625L38.6941 55.3175ZM62.0134 28.42H64.0134V26.42H62.0134V28.42ZM49.1134 28.42H47.1134V30.42H49.1134V28.42ZM49.1134 19V17H47.1134V19H49.1134ZM86.7334 19H88.7334V17H86.7334V19ZM86.7334 28.42V30.42H88.7334V28.42H86.7334ZM73.8934 28.42V26.42H71.8934V28.42H73.8934ZM73.8934 61V63H75.8934V61H73.8934ZM62.0134 61H60.0134V63H62.0134V61ZM62.0134 26.42H49.1134V30.42H62.0134V26.42ZM51.1134 28.42V19H47.1134V28.42H51.1134ZM49.1134 21H86.7334V17H49.1134V21ZM84.7334 19V28.42H88.7334V19H84.7334ZM86.7334 26.42H73.8934V30.42H86.7334V26.42ZM71.8934 28.42V61H75.8934V28.42H71.8934ZM73.8934 59H62.0134V63H73.8934V59ZM64.0134 61V28.42H60.0134V61H64.0134ZM91.5094 19V17H89.5094V19H91.5094ZM103.389 19H105.389V17H103.389V19ZM103.389 61V63H105.389V61H103.389ZM91.5094 61H89.5094V63H91.5094V61ZM91.5094 21H103.389V17H91.5094V21ZM101.389 19V61H105.389V19H101.389ZM103.389 59H91.5094V63H103.389V59ZM93.5094 61V19H89.5094V61H93.5094ZM112.191 19V17H110.191V19H112.191ZM124.071 19H126.071V17H124.071V19ZM124.071 51.58H122.071V53.58H124.071V51.58ZM144.111 51.58H146.111V49.58H144.111V51.58ZM144.111 61V63H146.111V61H144.111ZM112.191 61H110.191V63H112.191V61ZM112.191 21H124.071V17H112.191V21ZM122.071 19V51.58H126.071V19H122.071ZM124.071 53.58H144.111V49.58H124.071V53.58ZM142.111 51.58V61H146.111V51.58H142.111ZM144.111 59H112.191V63H144.111V59ZM114.191 61V19H110.191V61H114.191ZM149.162 19V17H147.162V19H149.162ZM161.042 19H163.042V17H161.042V19ZM161.042 61V63H163.042V61H161.042ZM149.162 61H147.162V63H149.162V61ZM149.162 21H161.042V17H149.162V21ZM159.042 19V61H163.042V19H159.042ZM161.042 59H149.162V63H161.042V59ZM151.162 61V19H147.162V61H151.162ZM178.785 28.42H180.785V26.42H178.785V28.42ZM165.885 28.42H163.885V30.42H165.885V28.42ZM165.885 19V17H163.885V19H165.885ZM203.505 19H205.505V17H203.505V19ZM203.505 28.42V30.42H205.505V28.42H203.505ZM190.665 28.42V26.42H188.665V28.42H190.665ZM190.665 61V63H192.665V61H190.665ZM178.785 61H176.785V63H178.785V61ZM178.785 26.42H165.885V30.42H178.785V26.42ZM167.885 28.42V19H163.885V28.42H167.885ZM165.885 21H203.505V17H165.885V21ZM201.505 19V28.42H205.505V19H201.505ZM203.505 26.42H190.665V30.42H203.505V26.42ZM188.665 28.42V61H192.665V28.42H188.665ZM190.665 59H178.785V63H190.665V59ZM180.785 61V28.42H176.785V61H180.785ZM229.784 45.94L228.067 44.9149L227.784 45.3885V45.94H229.784ZM229.784 61V63H231.784V61H229.784ZM217.904 61H215.904V63H217.904V61ZM217.904 45.76H219.904V45.2071L219.62 44.7327L217.904 45.76ZM201.884 19V17H198.356L200.168 20.0273L201.884 19ZM214.424 19L216.142 17.9746L215.56 17H214.424V19ZM224.384 35.68L222.667 36.7054L224.384 39.5811L226.102 36.7054L224.384 35.68ZM234.344 19V17H233.209L232.627 17.9746L234.344 19ZM245.864 19L247.582 20.025L249.387 17H245.864V19ZM227.784 45.94V61H231.784V45.94H227.784ZM229.784 59H217.904V63H229.784V59ZM219.904 61V45.76H215.904V61H219.904ZM219.62 44.7327L203.6 17.9727L200.168 20.0273L216.188 46.7873L219.62 44.7327ZM201.884 21H214.424V17H201.884V21ZM212.707 20.0254L222.667 36.7054L226.102 34.6546L216.142 17.9746L212.707 20.0254ZM226.102 36.7054L236.062 20.0254L232.627 17.9746L222.667 34.6546L226.102 36.7054ZM234.344 21H245.864V17H234.344V21ZM244.147 17.9749L228.067 44.9149L231.502 46.965L247.582 20.025L244.147 17.9749Z" fill="white"/>
<path d="M9 53.74L7.59406 55.1625L7.60233 55.1706L9 53.74ZM3.84 16V14H1.84V16H3.84ZM15.72 16H17.72V14H15.72V16ZM31.62 16V14H29.62V16H31.62ZM43.32 16H45.32V14H43.32V16ZM38.1 53.74L36.7023 52.3094L36.6941 52.3175L38.1 53.74ZM23.58 56.84C17.7084 56.84 13.4067 55.2493 10.3977 52.3094L7.60233 55.1706C11.5533 59.0307 16.9716 60.84 23.58 60.84V56.84ZM10.4059 52.3175C7.44779 49.3938 5.84 45.1479 5.84 39.28H1.84C1.84 45.8921 3.67221 51.2862 7.59408 55.1625L10.4059 52.3175ZM5.84 39.28V16H1.84V39.28H5.84ZM3.84 18H15.72V14H3.84V18ZM13.72 16V38.92H17.72V16H13.72ZM13.72 38.92C13.72 42.4901 14.4176 45.537 16.1469 47.7214C17.9468 49.9949 20.5913 51 23.7 51V47C21.4887 47 20.1432 46.3251 19.2831 45.2386C18.3524 44.063 17.72 42.0699 17.72 38.92H13.72ZM23.7 51C26.794 51 29.4247 49.9912 31.2126 47.7156C32.9284 45.5319 33.62 42.4875 33.62 38.92H29.62C29.62 42.0725 28.9916 44.0681 28.0674 45.2444C27.2153 46.3288 25.886 47 23.7 47V51ZM33.62 38.92V16H29.62V38.92H33.62ZM31.62 18H43.32V14H31.62V18ZM41.32 16V39.28H45.32V16H41.32ZM41.32 39.28C41.32 45.1414 39.6961 49.3845 36.7023 52.3094L39.4977 55.1706C43.4639 51.2955 45.32 45.8986 45.32 39.28H41.32ZM36.6941 52.3175C33.7283 55.2489 29.4529 56.84 23.58 56.84V60.84C30.1871 60.84 35.5917 59.0311 39.5059 55.1625L36.6941 52.3175ZM60.0134 25.42H62.0134V23.42H60.0134V25.42ZM47.1134 25.42H45.1134V27.42H47.1134V25.42ZM47.1134 16V14H45.1134V16H47.1134ZM84.7334 16H86.7334V14H84.7334V16ZM84.7334 25.42V27.42H86.7334V25.42H84.7334ZM71.8934 25.42V23.42H69.8934V25.42H71.8934ZM71.8934 58V60H73.8934V58H71.8934ZM60.0134 58H58.0134V60H60.0134V58ZM60.0134 23.42H47.1134V27.42H60.0134V23.42ZM49.1134 25.42V16H45.1134V25.42H49.1134ZM47.1134 18H84.7334V14H47.1134V18ZM82.7334 16V25.42H86.7334V16H82.7334ZM84.7334 23.42H71.8934V27.42H84.7334V23.42ZM69.8934 25.42V58H73.8934V25.42H69.8934ZM71.8934 56H60.0134V60H71.8934V56ZM62.0134 58V25.42H58.0134V58H62.0134ZM89.5094 16V14H87.5094V16H89.5094ZM101.389 16H103.389V14H101.389V16ZM101.389 58V60H103.389V58H101.389ZM89.5094 58H87.5094V60H89.5094V58ZM89.5094 18H101.389V14H89.5094V18ZM99.3894 16V58H103.389V16H99.3894ZM101.389 56H89.5094V60H101.389V56ZM91.5094 58V16H87.5094V58H91.5094ZM110.191 16V14H108.191V16H110.191ZM122.071 16H124.071V14H122.071V16ZM122.071 48.58H120.071V50.58H122.071V48.58ZM142.111 48.58H144.111V46.58H142.111V48.58ZM142.111 58V60H144.111V58H142.111ZM110.191 58H108.191V60H110.191V58ZM110.191 18H122.071V14H110.191V18ZM120.071 16V48.58H124.071V16H120.071ZM122.071 50.58H142.111V46.58H122.071V50.58ZM140.111 48.58V58H144.111V48.58H140.111ZM142.111 56H110.191V60H142.111V56ZM112.191 58V16H108.191V58H112.191ZM147.162 16V14H145.162V16H147.162ZM159.042 16H161.042V14H159.042V16ZM159.042 58V60H161.042V58H159.042ZM147.162 58H145.162V60H147.162V58ZM147.162 18H159.042V14H147.162V18ZM157.042 16V58H161.042V16H157.042ZM159.042 56H147.162V60H159.042V56ZM149.162 58V16H145.162V58H149.162ZM176.785 25.42H178.785V23.42H176.785V25.42ZM163.885 25.42H161.885V27.42H163.885V25.42ZM163.885 16V14H161.885V16H163.885ZM201.505 16H203.505V14H201.505V16ZM201.505 25.42V27.42H203.505V25.42H201.505ZM188.665 25.42V23.42H186.665V25.42H188.665ZM188.665 58V60H190.665V58H188.665ZM176.785 58H174.785V60H176.785V58ZM176.785 23.42H163.885V27.42H176.785V23.42ZM165.885 25.42V16H161.885V25.42H165.885ZM163.885 18H201.505V14H163.885V18ZM199.505 16V25.42H203.505V16H199.505ZM201.505 23.42H188.665V27.42H201.505V23.42ZM186.665 25.42V58H190.665V25.42H186.665ZM188.665 56H176.785V60H188.665V56ZM178.785 58V25.42H174.785V58H178.785ZM227.784 42.94L226.067 41.9149L225.784 42.3885V42.94H227.784ZM227.784 58V60H229.784V58H227.784ZM215.904 58H213.904V60H215.904V58ZM215.904 42.76H217.904V42.2071L217.62 41.7327L215.904 42.76ZM199.884 16V14H196.356L198.168 17.0273L199.884 16ZM212.424 16L214.142 14.9746L213.56 14H212.424V16ZM222.384 32.68L220.667 33.7054L222.384 36.5811L224.102 33.7054L222.384 32.68ZM232.344 16V14H231.209L230.627 14.9746L232.344 16ZM243.864 16L245.582 17.025L247.387 14H243.864V16ZM225.784 42.94V58H229.784V42.94H225.784ZM227.784 56H215.904V60H227.784V56ZM217.904 58V42.76H213.904V58H217.904ZM217.62 41.7327L201.6 14.9727L198.168 17.0273L214.188 43.7873L217.62 41.7327ZM199.884 18H212.424V14H199.884V18ZM210.707 17.0254L220.667 33.7054L224.102 31.6546L214.142 14.9746L210.707 17.0254ZM224.102 33.7054L234.062 17.0254L230.627 14.9746L220.667 31.6546L224.102 33.7054ZM232.344 18H243.864V14H232.344V18ZM242.147 14.9749L226.067 41.9149L229.502 43.965L245.582 17.025L242.147 14.9749Z" fill="white"/>
</svg>
