<svg xmlns="http://www.w3.org/2000/svg" width="50" height="50" viewBox="0 0 48 48"><path fill="#FF4081" d="m10.5 17.5.5-.9 21.7 21.9-.4.5h-.5L10.5 17.5zM34 39H14v3h20v-3z"/><path fill="#9C27B0" d="m37.4 30.7-.5.9L15.3 9.5l.3-.5h.6l21.2 21.7zM32.3 39l1.7 3 11-18h-3.5l-9.2 15z"/><path fill="#00BCD4" d="M34 9H14V6h20v3zm-1.7 0h-.6L10.4 30.4l.5.9L32.6 9.5l-.3-.5z"/><path fill="#FFC107" d="M15.6 9 5.5 25.6 3 24 14 6l1.6 3zm17 .4-.3-.4h-1.7l-19 6.6-.8 1.3 21.8-7.5z"/><path fill="#FF5722" d="M15.7 39 14 42 3 24h3.5l9.2 15zm.3-8V9h-.4l-.6 1v21h-4.2l.6 1H15v5.9l.7 1.1h.3v-7h20.6l.6-1H16z"/><path fill="#03A9F4" d="M36.7 16.2 15.5 38.7l.2.3h.9l20.5-21.8L31.7 39h.7l.6-1 5-19.8-1.3-2zm4.8 7.8L32.3 9 34 6l11 18h-3.5z"/></svg>