<svg xmlns="http://www.w3.org/2000/svg" width="50" height="50" viewBox="0 0 48 48"><path fill="#212121" d="M6.28 31.32c-.801-.63-1.655-1.233-2.238-2.083-1.228-1.499-2.173-3.235-2.82-5.059C.831 22.992.698 21.72.194 20.58c-.527-.828.09-1.733.997-1.997.404-.078 1.114-.458.257-.186-.768.564-.843-.512-.055-.58.538-.071.736-.512.552-.908-.577-.376 1.4-.79.405-1.352-1.036-1.118 1.45-1.333.836-.064-.147.976 1.737-.179 1.3.949.444.541 1.664.123 1.633.883.647.044.869.589 1.477.631.63.284 1.771.508 1.985 1.218-.625.495-2.071-1.022-2.141.347.189 2.022.141 4.106.881 6.031.35 1.166 1.198 2.084 1.965 2.992.733.889 1.726 1.516 2.738 2.043.888.419 1.845.696 2.813.871.392-.3 1.085-1.416 1.698-.946.029.529-1.215 1.105-.059 1.047.679-.205 1.15.525 1.71-.133.515.61 2.142-.39 1.775.858-.496.32-1.219.127-1.715.567-.819-.409-1.471.366-2.377.268-1.007.18-2.031.253-3.051.255-1.674-.132-3.384-.188-4.977-.771-.897-.261-1.773-.772-2.561-1.283zm1.414.612c.876.379 1.733.778 2.693.899 1.523.212 3.096.538 4.625.24-.692-.312-1.407.122-2.097-.223-.827.178-1.714-.045-2.554-.155-.956-.426-1.987-.718-2.882-1.271-1.118-.408.578.524.88.599.699.397-.769-.203-.976-.368-.586-.328-.66-.26-.058.074.122.07.242.145.369.205zm-1.667-1.178c.849.314-.004-.597-.393-.544-.172-.299-.659-.488-.316-.649-.617.214-.646-.814-.936-.667-.653-.206-.254-.936-1.031-1.384-.071-.472-.772-.882-.996-1.595-.099-.365-.792-1.412-.366-.437.363.939 1.001 1.742 1.532 2.545.412.764.9 1.563 1.651 2.04.253.243.497.615.855.691zM9.767 32.333c.348.219 2.03.481.977.09-.177.037-1.954-.503-.977-.09zM5.924 29.213c.408.313 1.645.04.625-.187-.465-.248-1.511-.417-.798.149l.173.038zm1.975 1.046c.998.282-.839-.631-.246-.104l.131.059.115.045zm1.728.999c.945.009-.853-.13 0 0zM7.907 29.731c.725.093-.862-.493-.159-.052l.159.052zm2.519 1.548c.677-.405.454.947 1.148.114.685-.5-.592.618.253.089.611-.408 1.512.194 2.082.39.41-.02.808.354 1.228.126.808-.218-1.581-.323-.955-.709-.74.215-1.286-.257-1.65-.731-.83-.192-1.789-.616-2.203-1.35-.169-.276.244.039-.146-.412-.5-.445-.75-.95-1.085-1.49-.401-.214-.448-.844-.488-.021.003-.519-.484-.868-.603-.723-.002-.5.522-.249.155-.619-.079-.518-.339-1.058-.417-1.643-.121-.282-.017-.886-.414-.248-.145.675-.048-.829.177-.333.295-.506-.106-.446-.122-.376.192-.427.122-1.032-.05-.801.102-.452.162-1.665-.153-1.45.191-.473.362-2.165-.467-1.52-.336.005-.918.122-1.194.259.863.476-.087.172-.438.096-.046.44-.394.25-.828.254.694.086-.338.71-.736.468-.52.247.444.864.008 1.055.054.288-.792-.104-.726.56-.502-.211-.069.788.182.45.854.231.601.758.623 1.259-.139.292-.687-.686-.122-.64-.446-.724-.493-.262-.863.075-.086.024.945.479.298.703.569.088.585.586.701.901.342.356.272-.393.681.035-.259-.382-1.372-1.075-.476-.853-.005-.384-.162-.694.112-.686.272-.492-.285 1.214.328.588.17-.074.212-.493.517.04.443.436.16.751-.465.352.112.379.836.515.7 1.108.144.522.346.329.522.299.138.507.216.134.223-.107.632.135.484.509.682.77.435.197-.623-1.332.124-.46.786.71.295 1.006-.411.893.447-.036.591.604 1.149.581.509.242.854 1.173-.024.786-.305-.275-1.382-.613-.502-.091.813.377 1.459.602 2.243 1.074.561.401.804.86 1.016.95-.472.225-1.422-.18-.716-.304-.44-.08-.935-.303-.513.246.358.299 1.269.267 1.433.301-.138.305-.376.329.006.353-.426.228.137.263.176.392zm-.871-2.459c-.259-.271-.326-.778-.046-.337.144.058.46.83.046.337zM7.895 26.085c-.309-.692.219-.378.068.113l-.068-.113zM5.052 24.19c-.138-.227-.366-.893-.293-1.096.067.331.704 1.425.313.453-.432-.815.517.264.615.468.045.202-.267-.055-.055.419-.386-.54-.228.297-.58-.244zm-1.434-1.205c-.327-.325-.564-.625.015-.202.223.009-.496-.681.054-.219.578.106.286.948-.069.421zM3.814 22.487c-.951-.846 1.195.442.155.157l-.155-.157zm2.724 1.583c-.411-.247-.109-1.737.031-.718.4-.129-.022.526.276.52-.046.414-.18.563-.307.198zm-2.537-1.861c-.611-.843 1.775.852.391.214-.145-.038-.319-.051-.391-.214zm1.94 1.029c-.058-.71.129.117 0 0zM4.094 21.888c.363-.078 1.504.638.456.204-.116-.129-.364-.071-.456-.204zm3.118 1.553c.039-.726.217-.433.001.104l-.001-.104zm-2.847-1.806c.148-.217-.393-.981.078-.274.203.162.589.271.248.339.535.472-.131.128-.326-.065zM6.456 21.693c-.046-.28.157.352 0 0zm.275-.447c-.189-.333.238-1.466.286-.763-.199.547-.057.854.081.119.257-.577-.055 1.141-.367.644zM7.513 29.346c.54.139.538-.084.049-.15-.263-.244-1.092-.504-.35-.03.05.124.205.121.301.18zm-1.919-1.274c.298.222 1.121.629.424.085.235-.273-.45-.419-.223-.601-.578-.354-.456-.322-.051-.311-.695-.311.1-.287.063-.446-.268-.053-1.331-.472-.705.034-.636-.324-.151.121-.344.074-.65-.177.579.495-.103.328.373.295 1.004.757.158.313-.112.159.605.402.781.524zm6.753 3.959c.285-.276.012.44.472-.068.005-.363-.014-.578-.529-.137-.142.08-.206.415.057.205zm-4.668-2.997c.317.282 1.456.207.385.035-.159-.234-1.008-.178-.385-.035zm5.481 3.271c.54-.572-.524.034 0 0zM2.456 25.526c-.461-.657-.286-.953-.731-1.489-.084-.41-.762-1.342-.351-.355.377.577.489 1.47 1.082 1.844zM13.591 32.218c.482-.311-.111-.263-.087.029l.087-.029zM14.364 32.428c.618-.446-.374-.085-.13.084l.13-.084zM4.001 25.822c.453.101 1.81 1.115 1.009.07-.41-.121-.164-1.123-.582-.946.281.469.231.668-.358.373-.741-.362-.416.179-.271.328-.199.045.26.172.202.175zm-2.063-1.629c.081-.335-.746-1.845-.391-.756.128.228.115.66.391.756zm9.336 5.605c-.095-.243-.375-.006 0 0zM16.103 32.012c.448-.091 1.469.228 1.634-.119-.544-.013-1.883-.384-1.946.088l.119.019.193.012zM2.144 22.267c.452-.178-.823-.367-.092-.034l.092.034zM.733 20.688c-.082-.468-.071-1.29.711-1.012-1.043.207.722 1.296.499.436.438.021.858-.259.628.167.864-.095 1.463-.845 2.297-.74.65-.086 1.361-.151 2.061-.413.576-.041 1.13-.662.815-1.029-.785-.066-1.608.032-2.476.204-.962.2-1.836.58-2.806.743-.946.127.19.35-.081.4-.494.171.589.287-.064.467-.403-.077-.823-.215-.651-.64-.906.118-1.703.494-.987 1.416l.054.001zm2.184-1.112c.212-.783 1.138.644.348.104-.094-.071-.25-.128-.348-.104zm.43-.373c.028-.36.891.191.142.13l-.142-.13zm.669-.306c.324-.389 1.834-.248.729-.038-.296-.223-.523.132-.729.038zm2.531-.307c.204-.536.794-.215.095-.108.015.058-.021.277-.095.108zm-4.514 2.842c.611-.374-.649-.325 0 0zM19.698 32.019c.488.002 1.479-.152.417-.151-.167.026-.971.021-.417.151zM2.882 21.338c.395-.027.618-.436-.076-.412-1.076-.111.95.369-.138.231-.147.097.205.207.214.181zM2.329 18.217c.705-.24 1.669-.509 2.002.118-.339-.408-.137-.809.183-.213.452.603.679-.274.385-.477.335.417.717.614.225.026.535-.643-1.071.084-1.436.077-.177.08-1.814.419-1.359.469zm.413-.791c.402-.303 1.391.181.756-.302-.062-.054-1.389.366-.756.302zm1.466.061c.471.012-.203-.632.358-.34-.092-.301-.653-.357-.927-.477-.156.274.315.82.569.817zM3.598 16.299c.758-.101-.193-.327-.153-.008l.153.008zm-1.119-.875c-.534-.697 1.004.117.462-.613-.457-.363-.895.41-.462.613zm6.853 3.691c.245-.434-1.011-.585-.165-.154.077.026.06.184.165.154z"/><path fill="#212121" d="M20.891 16.121c-.088.345-.142.925-.162 1.739 0 .16-.072.24-.216.24-.144 0-.245-.07-.301-.209-.155-.376-.301-.639-.441-.788a1.061 1.061 0 0 0-.657-.317c-.294-.046-1.025-.07-2.195-.07-.268 0-.443.028-.526.085-.052.036-.077.113-.077.232v3.502c0 .119.075.175.224.17a39.583 39.583 0 0 0 1.994-.093c.17-.021.285-.076.344-.166.059-.09.117-.323.174-.7.036-.206.157-.286.363-.24.175.036.25.116.224.24-.144.701-.191 1.613-.139 2.736.005.134-.08.206-.255.216-.144.015-.234-.062-.271-.232-.134-.644-.383-.988-.746-1.032-.363-.044-.955-.066-1.774-.066-.093 0-.139.034-.139.1v3.478c0 .258.095.433.286.526.149.077.472.147.966.209.252.026.363.137.332.332-.031.17-.258.237-.68.201-1.221-.098-2.229-.093-3.022.015-.222.031-.332-.059-.332-.271 0-.134.111-.211.332-.232.505-.057.758-.5.758-1.33v-6.617c0-.34-.061-.602-.182-.785-.121-.183-.347-.349-.676-.499-.206-.093-.283-.219-.232-.379.026-.098.067-.152.124-.162.052-.015.188-.005.41.031.325.052 1.09.077 2.296.077 1.422 0 2.651-.031 3.687-.093.345-.021.518.008.518.085a.418.418 0 0 1-.009.067zM25.915 25.945c0 .206-.116.296-.348.271-.711-.067-1.592-.057-2.644.031-.211.021-.341.015-.39-.015-.049-.031-.073-.116-.073-.255 0-.124.14-.228.421-.313.281-.085.421-.339.421-.761v-6.995c0-.417-.061-.724-.182-.92-.121-.196-.334-.348-.638-.456-.16-.057-.24-.137-.24-.24 0-.155.116-.271.348-.348.35-.113.714-.289 1.09-.526.309-.186.505-.278.587-.278.191 0 .286.131.286.394l-.031.773a36.33 36.33 0 0 0-.015 1.507l.031 6.903c0 .314.077.542.232.684.155.142.42.236.796.282.233.025.349.113.349.262zM32.964 25.427c0 .108-.197.272-.591.491-.394.219-.71.329-.947.329-.201 0-.379-.098-.533-.294-.155-.196-.263-.294-.325-.294-.046 0-.291.106-.734.317a3.085 3.085 0 0 1-1.337.317c-.423 0-.776-.124-1.059-.371-.309-.273-.464-.644-.464-1.113 0-.891 1.02-1.53 3.061-1.917.35-.067.528-.209.533-.425l.015-.495c.031-.845-.343-1.268-1.121-1.268-.222 0-.432.198-.63.595-.198.397-.483.611-.854.642-.423.041-.634-.137-.634-.533 0-.247.314-.536.943-.866.66-.345 1.293-.518 1.901-.518 1.046 0 1.564.497 1.554 1.492l-.031 3.185c-.005.335.137.502.425.502.057 0 .165-.013.325-.039.16-.026.252-.039.278-.039.151.001.225.101.225.302zm-2.38-1.762c.005-.129-.024-.214-.089-.255-.064-.041-.166-.049-.305-.023-1.242.222-1.863.626-1.863 1.214 0 .593.322.889.966.889.258 0 .523-.049.796-.147.319-.113.479-.25.479-.41l.016-1.268zM38.731 24.507c0 .546-.21.98-.63 1.302-.42.322-.993.483-1.72.483-.484 0-.969-.052-1.453-.155-.417-.093-.66-.178-.727-.255-.041-.072-.062-.425-.062-1.059 0-.273.062-.415.186-.425.124-.015.229.052.317.201.386.675 1.01 1.013 1.871 1.013.727 0 1.09-.253 1.09-.758a.721.721 0 0 0-.247-.557c-.18-.17-.531-.368-1.051-.595-.752-.335-1.255-.629-1.507-.881-.273-.268-.41-.629-.41-1.082 0-.557.214-.989.642-1.299.397-.299.928-.448 1.592-.448.417 0 .799.034 1.144.1.371.067.564.149.58.247.041.289.126.706.255 1.252.015.067-.057.121-.216.162-.17.036-.283.008-.34-.085-.407-.665-.922-.997-1.546-.997-.706 0-1.059.227-1.059.68 0 .253.095.453.286.603.17.129.569.33 1.198.603.66.283 1.108.539 1.345.765.307.297.462.691.462 1.185zM47.697 25.899c0 .18-.121.276-.363.286a22.86 22.86 0 0 0-1.415.077c-.289.057-.495.021-.618-.108a16.04 16.04 0 0 1-2.072-2.752c-.046-.082-.106-.124-.178-.124-.088 0-.24.077-.456.232-.242.134-.363.325-.363.572 0 .175.005.428.015.758.01.33.093.546.247.649.108.072.358.129.75.17.242.031.363.121.363.271 0 .119-.019.192-.058.22-.039.028-.14.035-.305.019-.515-.046-1.386-.021-2.613.077-.309.026-.477-.013-.502-.116a.614.614 0 0 1-.015-.155c0-.16.157-.281.472-.363.283-.072.425-.405.425-.997V17.86c0-.423-.041-.716-.124-.881-.113-.211-.35-.376-.711-.495-.17-.057-.255-.137-.255-.24 0-.149.121-.265.363-.348a4.89 4.89 0 0 0 1.105-.533c.283-.186.459-.278.526-.278.211 0 .317.134.317.402l-.008.765c-.005.376-.008.881-.008 1.515l.015 4.839c0 .134.036.201.108.201.077 0 .196-.067.356-.201.428-.335.953-.773 1.577-1.314.124-.129.186-.232.186-.309 0-.139-.209-.237-.626-.294-.18-.021-.265-.121-.255-.301.015-.18.106-.258.271-.232.371.052.912.08 1.623.085.495.005.987.008 1.476.008.16.005.24.1.24.286 0 .175-.126.271-.379.286a2.86 2.86 0 0 0-1.121.271c-.49.222-1.013.611-1.569 1.167a.141.141 0 0 0-.062.116c0 .072.088.245.263.518.644.979 1.252 1.719 1.824 2.218.366.314.709.472 1.028.472.237 0 .384.017.441.05.057.033.085.122.085.266z"/></svg>