<svg xmlns="http://www.w3.org/2000/svg" width="50" height="50" viewBox="0 0 48 48"><path fill="#8bc34a" d="M28.211 4.419C26.841 4.107 25.472 4 24 4 12.947 4 4 12.947 4 24c0 1.472.21 3.051.526 4.42C8.63 17.684 16.948 8.63 28.211 4.419zM43.79 21.262c-.21-1.789-.736-3.47-1.369-5.049-17.788 5.683-24.317 20.736-26.106 26.316 1.579.629 3.265 1.155 5.053 1.365 1.896-4.841 7.895-16.736 22.422-22.632zm0 5.579c-1.896.95-4.844 2.841-8.947 6.632-4.634 4.42-6.842 8.104-7.792 10.317a20.12 20.12 0 0 0 7.368-2.738L44 44s-1.896-7.052-2.841-9.79c1.369-2.208 2.208-4.737 2.631-7.369zm-4.107-15.263c-1.262-1.579-2.632-2.841-4.313-4.001C29.999 9.156 14 15.369 7.577 35.472c1.16 1.579 2.422 3.055 4.001 4.211C18.42 18.844 34.21 12.947 39.683 11.578z"/></svg>