<svg xmlns="http://www.w3.org/2000/svg" width="50" height="50" viewBox="0 0 48 48"><path fill="#212121" d="m13.432 18 .068 10H15V18zM32 18v10.005h1.805s.015-3.609.035-3.608c.019.001 2.69 3.743 2.716 3.733.027-.01 1.599-.576 1.599-.59 0-.014-2.684-3.441-2.684-3.448 0-.006 2.251-2.509 2.231-2.529-.06-.06-1.281-.586-1.314-.566-.018.011-2.582 2.796-2.582 2.796V18H32zM2.099 21.05c-.651.137-1.259.552-1.509 1.031-.23.44-.227 1.043.007 1.491.16.305.625.735 1.348 1.246.782.552 1.078.832 1.153 1.092.111.385-.06.752-.434.931-.187.089-.27.101-.603.086-.433-.02-.729-.132-1.172-.446-.14-.099-.269-.167-.285-.152-.016.016-.155.224-.311.466l-.283.435.109.081c.06.045.248.158.422.255 1.187.66 2.944.555 3.835-.229a1.807 1.807 0 0 0 .602-1.647c-.089-.582-.409-.965-1.417-1.695-.791-.573-1.166-.889-1.253-1.059-.167-.326-.049-.643.307-.827.178-.092.251-.102.608-.087.347.015.453.041.741.179l.335.161.263-.41c.144-.224.252-.426.239-.445-.048-.071-.598-.299-.941-.391-.458-.121-1.339-.155-1.761-.066zm7.932.885c.788.369 1.212 1.528 1.041 2.852-.06.467-.227 1.032-.383 1.296-.159.268-.463.56-.705.675-.444.212-1.107.13-1.523-.187-.577-.442-.893-1.524-.772-2.649.111-1.032.483-1.684 1.133-1.986.334-.155.878-.155 1.209-.001zm-.718-1.151c-.472.106-.85.319-1.254.705l-.366.35V21H6v10h1.693v-4.08l.324.319c.592.583 1.287.814 2.101.701.532-.074.904-.21 1.3-.475 1.111-.743 1.721-2.221 1.554-3.771-.158-1.467-.912-2.484-2.128-2.871-.313-.099-1.165-.121-1.531-.039zm6.945.216s.055 5.284.091 5.438c.136.583.525 1.137.964 1.374.403.218.727.287 1.333.284.861-.004 1.386-.211 2.027-.8L21 27v1h1.742l-.023-7H21s.025 4.347 0 4.5c-.1.611-.573 1.109-1.053 1.27-.287.096-.786.174-1.086.127-.312-.049-.828-.39-.861-.897v-4.977L16.258 21zm14.484 7s-.055-5.284-.091-5.438c-.136-.583-.525-1.137-.964-1.374-.403-.218-.727-.287-1.333-.284-.861.004-1.386.211-2.027.8L26 22v-1h-1.742l.023 7H26s-.025-4.347 0-4.5c.1-.611.573-1.109 1.053-1.27.287-.096.661-.17 1.086-.127.427.044.892.432.861.897v4.977l1.742.023z"/><path fill="#77b539" fill-rule="evenodd" d="M40 20.5V22l6 2-6 2.601V28l7-3v-2z" clip-rule="evenodd"/></svg>