<?xml version="1.0" encoding="utf-8"?>
<!-- Generator: Adobe Illustrator 26.0.0, SVG Export Plug-In . SVG Version: 6.00 Build 0)  -->
<svg version="1.0" id="Layer_1" xmlns="http://www.w3.org/2000/svg" xmlns:xlink="http://www.w3.org/1999/xlink" x="0px" y="0px"
	 viewBox="0 0 50 50" enable-background="new 0 0 50 50" xml:space="preserve">
<g>
	<path fill="#F15A24" d="M23.552,43.125c-1.455-11.627-2.913-23.274-4.393-35.099c2.516-0.052,4.905-0.028,7.398-0.016
		c0.56,6.15,1.111,12.204,1.662,18.258c0.064,0.004,0.129,0.009,0.193,0.013c0.553-6.042,1.107-12.085,1.667-18.202
		c2.218,0,4.386,0,6.683,0c0.652,6.001,1.051,12.046,1.901,18.051c0.545-6.006,1.09-12.013,1.64-18.07c2.465,0,4.829,0,7.187,0
		c0.259,0.965-3.994,33.714-4.308,35.2c-2.618,0-5.252,0-7.989,0c-0.553-6.095-1.102-12.15-1.652-18.205
		c-0.062-0.003-0.125-0.007-0.187-0.01c-0.558,6.05-1.116,12.099-1.672,18.122C30.464,43.419,24.448,43.385,23.552,43.125z"/>
	<path fill="#F15A24" d="M6.928,8.056c3.088,0,6.045,0,9.164,0c1.474,11.712,2.947,23.418,4.431,35.21c-2.35,0-4.596,0-6.967,0
		c-0.154-1.901-0.307-3.789-0.464-5.74c-1.071,0-2.064,0-3.155,0c-0.157,1.929-0.311,3.815-0.469,5.752c-2.349,0-4.595,0-6.968,0
		C3.977,31.526,5.445,19.851,6.928,8.056z M12.691,31.598c-0.371-5.131-0.734-10.16-1.097-15.189
		c-0.059,0.001-0.117,0.003-0.176,0.004c-0.358,5.038-0.717,10.076-1.08,15.185C11.166,31.598,11.85,31.598,12.691,31.598z"/>
</g>
</svg>
