<svg version="1.0" id="Layer_1" xmlns="http://www.w3.org/2000/svg" xmlns:xlink="http://www.w3.org/1999/xlink" x="0px"
    y="0px" viewBox="0 0 50 50" enable-background="new 0 0 50 50" xml:space="preserve">
    <path fill="#F7931E" d="M35.262,12.573c0.917,0,1.822,0,2.744,0c0,1.686,0,3.366,0,5.046c0.011,0.003,0.022,0.005,0.033,0.008
	c0.016-0.035,0.036-0.07,0.049-0.106c0.545-1.602,1.089-3.204,1.634-4.806c0.06-0.175,0.022-0.146,0.205-0.146
	c0.833-0.001,1.667,0,2.5,0c0.04,0,0.079,0,0.139,0c-0.021,0.057-0.036,0.102-0.054,0.145c-0.653,1.59-1.305,3.181-1.961,4.77
	c-0.035,0.086-0.038,0.161-0.016,0.25c0.744,2.921,1.493,5.841,2.227,8.765c0.919,3.664,1.824,7.331,2.736,10.997
	c0.007,0.029,0.013,0.058,0.022,0.103c-0.042,0-0.077,0-0.112,0c-12.697,0-25.393,0-38.09,0.002c-0.085,0-0.113-0.028-0.132-0.105
	c-0.892-3.612-1.788-7.223-2.676-10.836c-0.028-0.113,0.002-0.243,0.02-0.363c0.237-1.561,0.476-3.122,0.714-4.683
	c0.074-0.487,0.149-0.975,0.223-1.462c0.006-0.039,0.015-0.077,0.023-0.121c0.556,0,1.108,0,1.668,0
	c0.04,0.239,0.079,0.475,0.118,0.712c0.256,1.565,0.512,3.13,0.769,4.695c0.057,0.345,0.116,0.69,0.168,1.036
	c0.013,0.085,0.037,0.119,0.129,0.117c0.246-0.007,0.493-0.002,0.74-0.002c0.028,0,0.057-0.003,0.088-0.019
	c-0.02-0.008-0.04-0.018-0.06-0.024c-0.43-0.121-0.702-0.404-0.847-0.819c-0.096-0.273-0.135-0.556-0.154-0.859
	c0.133-0.012,0.263-0.025,0.394-0.035c0.239-0.018,0.479-0.031,0.718-0.054c0.075-0.007,0.087,0.02,0.096,0.085
	c0.02,0.141,0.039,0.285,0.083,0.42c0.059,0.183,0.193,0.259,0.387,0.246c0.159-0.01,0.276-0.109,0.318-0.284
	c0.056-0.235,0.019-0.463-0.077-0.683c-0.107-0.242-0.275-0.44-0.458-0.626c-0.223-0.229-0.455-0.45-0.674-0.684
	c-0.351-0.375-0.605-0.803-0.685-1.32c-0.055-0.353-0.049-0.705,0.064-1.048c0.157-0.479,0.482-0.781,0.972-0.9
	c0.353-0.086,0.708-0.078,1.058,0.02c0.364,0.102,0.628,0.327,0.795,0.665c0.153,0.309,0.209,0.642,0.237,0.993
	c-0.384,0.03-0.758,0.06-1.135,0.089c-0.021-0.113-0.033-0.216-0.061-0.314c-0.023-0.082-0.056-0.165-0.101-0.237
	c-0.084-0.135-0.239-0.188-0.393-0.148c-0.138,0.036-0.22,0.145-0.231,0.314c-0.015,0.23,0.038,0.449,0.167,0.637
	c0.124,0.18,0.266,0.35,0.416,0.509c0.249,0.264,0.522,0.506,0.767,0.774c0.467,0.511,0.69,1.116,0.648,1.812
	c-0.046,0.767-0.461,1.278-1.103,1.451c-0.015,0.004-0.029,0.013-0.071,0.031c0.543,0,1.057,0,1.584,0
	c0.002-0.05,0.007-0.101,0.007-0.152c0-4.56,0-9.12,0.001-13.68c0-0.207-0.02-0.176,0.174-0.176c0.927-0.001,1.853-0.001,2.78,0
	c0.588,0.001,1.172,0.046,1.743,0.201c1.064,0.288,1.806,0.95,2.264,1.943c0.293,0.635,0.456,1.307,0.56,1.995
	c0.172,1.134,0.205,2.277,0.169,3.421c-0.022,0.692-0.064,1.385-0.132,2.074c-0.077,0.778-0.246,1.539-0.571,2.257
	c-0.528,1.167-1.437,1.829-2.69,2.039c-0.085,0.014-0.171,0.027-0.257,0.038c-0.082,0.011-0.165,0.019-0.247,0.04
	c2.291,0,4.582,0,6.873,0c0.002-0.004,0.003-0.008,0.005-0.012c-0.035-0.009-0.07-0.019-0.105-0.027
	c-0.893-0.204-1.577-0.677-1.971-1.526c-0.152-0.329-0.259-0.674-0.302-1.032c-0.044-0.363-0.083-0.73-0.083-1.095
	c-0.006-3.4-0.004-6.8-0.004-10.2c0-0.033,0-0.066,0-0.107c0.939,0,1.87,0,2.818,0c0,0.044,0,0.089,0,0.134
	c0,3.427-0.002,6.853,0.003,10.28c0,0.248,0.022,0.502,0.08,0.742c0.121,0.502,0.518,0.634,0.969,0.519
	c0.201-0.051,0.343-0.189,0.408-0.38c0.059-0.175,0.093-0.36,0.121-0.543c0.019-0.124,0.011-0.253,0.011-0.379
	c0-3.41,0-6.82,0-10.23c0-0.176-0.008-0.15,0.15-0.15c0.84-0.001,1.68,0.001,2.52-0.002c0.094,0,0.116,0.028,0.116,0.118
	c-0.002,3.397-0.001,6.793-0.003,10.19c0,0.538-0.049,1.071-0.193,1.593c-0.312,1.128-1.042,1.815-2.181,2.07
	c-0.026,0.006-0.052,0.012-0.078,0.019c-0.009,0.002-0.016,0.008-0.042,0.022c1.691,0,3.363,0,5.061,0
	c-0.036-0.02-0.048-0.03-0.062-0.034c-0.942-0.291-1.499-0.951-1.789-1.867c-0.17-0.537-0.243-1.091-0.284-1.651
	c-0.001-0.016,0-0.033,0-0.065c0.865-0.065,1.726-0.129,2.596-0.194c0.019,0.173,0.029,0.34,0.059,0.502
	c0.037,0.199,0.074,0.401,0.142,0.591c0.18,0.508,0.615,0.589,1,0.494c0.246-0.06,0.4-0.233,0.484-0.465
	c0.13-0.358,0.107-0.722,0.027-1.084c-0.098-0.449-0.31-0.847-0.604-1.193c-0.295-0.348-0.609-0.68-0.93-1.004
	c-0.473-0.475-0.968-0.927-1.394-1.447c-0.556-0.678-0.965-1.43-1.131-2.299c-0.144-0.756-0.148-1.513,0.066-2.258
	c0.345-1.194,1.147-1.891,2.359-2.118c0.636-0.119,1.275-0.104,1.906,0.042c0.992,0.229,1.662,0.832,2.034,1.775
	c0.224,0.567,0.319,1.161,0.374,1.763c0.002,0.019-0.002,0.038-0.004,0.066c-0.826,0.065-1.648,0.129-2.468,0.193
	c-0.035-0.212-0.05-0.413-0.103-0.604c-0.054-0.194-0.122-0.391-0.223-0.562c-0.189-0.319-0.565-0.436-0.917-0.315
	c-0.222,0.076-0.35,0.239-0.401,0.461c-0.089,0.384-0.02,0.756,0.113,1.117c0.153,0.416,0.405,0.774,0.707,1.093
	c0.321,0.338,0.656,0.664,0.993,0.986c0.512,0.488,1.024,0.974,1.449,1.544c0.885,1.189,1.211,2.519,0.954,3.974
	c-0.221,1.249-0.936,2.102-2.153,2.512c-0.026,0.009-0.052,0.02-0.074,0.048c0.032,0.001,0.063,0.004,0.095,0.004
	c0.837,0,1.674,0,2.51,0c0.132,0,0.132,0,0.132-0.138c0-4.573,0-9.147,0-13.72C35.262,12.679,35.262,12.633,35.262,12.573z
	 M24.042,36.801c-0.011-0.057-0.018-0.099-0.028-0.14c-0.091-0.413-0.182-0.826-0.273-1.239c-0.582-2.645-1.164-5.289-1.743-7.934
	c-0.018-0.084-0.051-0.111-0.138-0.111c-0.88,0.003-1.76,0.004-2.64,0c-0.094,0-0.123,0.034-0.141,0.118
	c-0.625,2.922-1.251,5.843-1.878,8.764c-0.038,0.175-0.073,0.35-0.113,0.537c0.046,0.002,0.078,0.005,0.11,0.005
	c0.673,0,1.347-0.001,2.02,0.002c0.086,0,0.113-0.028,0.125-0.109c0.096-0.612,0.197-1.223,0.293-1.835
	c0.011-0.072,0.036-0.093,0.108-0.093c0.53,0.003,1.06,0.003,1.59,0c0.073,0,0.095,0.024,0.107,0.094
	c0.103,0.608,0.212,1.214,0.314,1.822c0.016,0.095,0.05,0.123,0.146,0.122c0.673-0.005,1.347-0.002,2.02-0.002
	C23.958,36.801,23.994,36.801,24.042,36.801z M36.137,34.352c0.071,0.427,0.181,0.826,0.368,1.202
	c0.316,0.633,0.815,1.049,1.498,1.226c0.791,0.205,1.585,0.196,2.369-0.039c0.601-0.18,1.094-0.516,1.429-1.059
	c0.253-0.411,0.357-0.865,0.371-1.342c0.027-0.922-0.27-1.709-0.974-2.322c-0.155-0.135-0.318-0.266-0.492-0.375
	c-0.339-0.212-0.692-0.4-1.032-0.609c-0.283-0.174-0.564-0.354-0.83-0.552c-0.198-0.148-0.332-0.354-0.39-0.601
	c-0.12-0.512,0.163-0.866,0.687-0.862c0.309,0.002,0.552,0.138,0.711,0.394c0.106,0.171,0.177,0.364,0.255,0.55
	c0.026,0.063,0.045,0.09,0.119,0.073c0.416-0.091,0.834-0.177,1.251-0.265c0.178-0.037,0.356-0.075,0.558-0.118
	c-0.089-0.261-0.16-0.511-0.258-0.75c-0.29-0.711-0.77-1.239-1.519-1.471c-0.776-0.241-1.559-0.243-2.331,0.014
	c-0.736,0.246-1.254,0.729-1.498,1.48c-0.143,0.44-0.148,0.892-0.08,1.345c0.119,0.8,0.534,1.425,1.183,1.886
	c0.414,0.294,0.866,0.536,1.297,0.808c0.264,0.167,0.53,0.335,0.778,0.524c0.23,0.176,0.387,0.411,0.444,0.704
	c0.085,0.433-0.091,0.777-0.464,0.904c-0.578,0.198-1.107-0.055-1.308-0.63c-0.032-0.091-0.053-0.186-0.076-0.279
	c-0.016-0.067-0.027-0.135-0.042-0.215C37.481,34.099,36.813,34.225,36.137,34.352z M17.632,29.291
	c0.003-0.047,0.006-0.083,0.006-0.119c0-0.56-0.002-1.12,0.002-1.68c0.001-0.094-0.029-0.116-0.119-0.116
	c-1.86,0.002-3.72,0.002-5.579,0c-0.094,0-0.124,0.022-0.124,0.121c0.003,3.063,0.003,6.126,0,9.189
	c0,0.094,0.028,0.117,0.119,0.116c0.807-0.003,1.613-0.004,2.42,0.001c0.105,0.001,0.126-0.032,0.126-0.13
	c-0.003-1.213-0.002-2.426-0.002-3.64c0-0.042,0-0.084,0-0.14c0.795,0,1.577,0,2.361,0c0-0.625,0-1.236,0-1.86
	c-0.789,0-1.57,0-2.353,0c0-0.586,0-1.161,0-1.743C15.535,29.291,16.574,29.291,17.632,29.291z M32.833,27.379
	c-0.051,0-0.08,0-0.11,0c-0.66,0-1.32,0.002-1.98-0.002c-0.09-0.001-0.11,0.028-0.11,0.113c0.002,3.066,0.002,6.132,0,9.198
	c0,0.084,0.018,0.115,0.109,0.115c1.656-0.003,3.313-0.003,4.969,0c0.089,0,0.113-0.025,0.112-0.113c-0.004-0.56-0.004-1.12,0-1.68
	c0.001-0.096-0.025-0.123-0.122-0.123c-0.91,0.004-1.82,0.002-2.729,0.002c-0.042,0-0.085-0.004-0.14-0.006
	C32.833,32.38,32.833,29.886,32.833,27.379z M26.909,27.387c-0.736,0-1.461,0-2.195,0c0,0.04,0,0.073,0,0.106
	c0,3.066,0,6.133-0.002,9.199c0,0.088,0.024,0.112,0.112,0.112c1.653-0.003,3.306-0.003,4.959,0c0.09,0,0.119-0.023,0.118-0.116
	c-0.004-0.56-0.002-1.12-0.002-1.68c0-0.036-0.003-0.071-0.005-0.119c-0.998,0-1.986,0-2.985,0
	C26.909,32.379,26.909,29.885,26.909,27.387z M14.771,19.58c0,1.206,0,2.413,0,3.619c0,0.203,0.002,0.407-0.001,0.61
	c-0.001,0.071,0.024,0.093,0.093,0.091c0.12-0.004,0.24-0.002,0.36-0.001c0.365,0.004,0.642-0.153,0.83-0.463
	c0.058-0.096,0.109-0.199,0.151-0.304c0.168-0.422,0.231-0.868,0.279-1.315c0.085-0.8,0.098-1.603,0.096-2.406
	c-0.002-0.863-0.022-1.726-0.175-2.58c-0.068-0.378-0.16-0.75-0.367-1.082c-0.147-0.236-0.348-0.408-0.626-0.459
	c-0.156-0.029-0.318-0.032-0.477-0.036c-0.183-0.004-0.162-0.024-0.162,0.156C14.771,16.801,14.771,18.19,14.771,19.58z
	 M38.55,20.64c-0.008-0.001-0.016-0.001-0.024-0.002c-0.007,0.015-0.015,0.029-0.02,0.044c-0.162,0.455-0.324,0.909-0.484,1.365
	c-0.014,0.04-0.018,0.085-0.018,0.127c-0.001,1.432,0,2.865-0.002,4.297c0,0.084,0.018,0.116,0.11,0.115
	c0.576-0.004,1.153-0.002,1.729-0.002c0.032,0,0.063-0.003,0.106-0.006C39.479,24.59,39.014,22.615,38.55,20.64z M6.762,25.156
	c-0.252,0-0.488,0.003-0.724-0.002c-0.075-0.001-0.096,0.027-0.102,0.097c-0.022,0.262-0.049,0.523-0.074,0.785
	c-0.017,0.178-0.032,0.355-0.048,0.539c0.373,0,0.732,0,1.102,0C6.864,26.099,6.814,25.634,6.762,25.156z M6.637,23.992
	c-0.092-0.834-0.183-1.653-0.273-2.472c-0.018,0-0.036,0-0.055,0.001c-0.081,0.822-0.163,1.645-0.244,2.472
	C6.264,23.992,6.442,23.992,6.637,23.992z" />
    <path fill="#F7931E" d="M20.536,29.537c0.19,1.115,0.38,2.23,0.572,3.353c-0.389,0-0.764,0-1.15,0
	c0.183-1.123,0.364-2.239,0.546-3.354C20.515,29.536,20.525,29.536,20.536,29.537z" />
</svg>