<?xml version="1.0" encoding="utf-8"?>
<!-- Generator: Adobe Illustrator 26.0.0, SVG Export Plug-In . SVG Version: 6.00 Build 0)  -->
<svg version="1.0" id="Layer_1" xmlns="http://www.w3.org/2000/svg" xmlns:xlink="http://www.w3.org/1999/xlink" x="0px" y="0px"
	 viewBox="0 0 50 50" enable-background="new 0 0 50 50" xml:space="preserve">
<g>
	<path fill="#150502" d="M19.149,38.16c-1.402-3.671-2.455-7.437-3.059-11.324c-0.029-0.799-0.229-1.599,0.018-2.396
		c0.186-0.095,0.245,0.045,0.312,0.168c0.129,0.543,0.034,1.121,0.257,1.653c0.2,0.477,0.458,0.873,1.049,0.883
		c0.046,0.078,0.078,0.16,0.098,0.247c0.043,0.546,0.237,1.073,0.209,1.628c0.087,0.911,0.176,1.822,0.333,2.724
		c0.094,0.572,0.228,1.135,0.376,1.696c0.192,1.317,0.567,2.601,0.689,3.929C19.46,37.668,19.658,38.046,19.149,38.16z"/>
	<path fill="#140503" d="M33.722,26.949c-0.168,0.955-0.308,1.917-0.51,2.865c-0.619,2.905-1.441,5.752-2.524,8.52
		c-0.515-0.108-0.34-0.493-0.287-0.787c0.181-1.017,0.218-2.06,0.554-3.05c0.079-0.233,0.161-0.482,0.064-0.738
		c-0.056-0.122-0.088-0.249-0.066-0.384c0.392-0.81,0.694-1.644,0.679-2.562c-0.004-0.349-0.009-0.697,0.025-1.045
		c0.126-0.751,0.197-1.513,0.426-2.244c1.181-0.395,1.25-1.377,1.256-2.393c0.046-0.222,0.016-0.488,0.324-0.555
		C34.074,25.358,33.734,26.157,33.722,26.949z"/>
	<path fill="#2E1406" d="M25.469,44.266c-0.075,0.638-0.216,1.256-0.591,1.849c-1.248-4.206-1.918-8.497-2.176-12.861
		c-0.146-0.408-0.042-0.829-0.066-1.244c-0.013-0.227,0.077-0.379,0.336-0.362c0.098,0.037,0.17,0.103,0.216,0.198
		c0.157,1.39,0.321,2.779,0.594,4.153c0.012,0.346,0,0.694,0.086,1.034c0.123,0.462,0.213,0.918,0.169,1.411
		c-0.073,0.82,0.34,1.506,0.728,2.188c0.05,0.191,0.113,0.378,0.152,0.572c0.06,0.933,0.057,1.87,0.184,2.796
		c0.067-0.004,0.129,0.006,0.191,0.028C25.383,44.083,25.438,44.166,25.469,44.266z"/>
	<path fill="#220E07" d="M25.469,44.266c-0.074-0.065-0.148-0.13-0.222-0.195c-0.367-1.061-0.212-2.149-0.166-3.232
		c0.002-0.05,0.023-0.079,0.025-0.079c0.651-0.152,0.517-0.711,0.596-1.157c0.098-0.553,0.18-1.108,0.278-1.661
		c0.034-0.194,0.042-0.391,0.057-0.586c0.204-1.33,0.388-2.663,0.437-4.009c0.013-0.537,0.208-1.075,0.032-1.622
		c-0.367,0.008-0.52,0.351-0.818,0.421c-0.082,0.015-0.164,0.012-0.245-0.006c-0.206-0.087-0.351-0.23-0.421-0.444
		c-0.004-0.085,0.021-0.162,0.071-0.23c0.184-0.183,0.425-0.25,0.666-0.301c0.514-0.109,0.835-0.393,0.896-0.933
		c0.104-0.246,0.055-0.57,0.431-0.749c0.218,0.398,0.216,0.83,0.232,1.257c-0.169,3.727-0.654,7.416-1.292,11.089
		C25.883,42.651,25.761,43.476,25.469,44.266z"/>
	<path fill="#4E2104" d="M37.659,10.221c-0.874,1.255-1.752,2.509-2.386,3.91c-0.273-0.233-0.043-0.54-0.12-0.799
		c-0.228-0.304-0.348,0.059-0.52,0.088c-0.189,0.302-0.645,0.385-0.664,0.826c0.003,0.082-0.004,0.16-0.02,0.239
		c-0.102,0.375-0.136,0.761-0.212,1.139c-0.075,0.374-0.228,0.701-0.723,0.538c-0.25-0.295-0.155-0.683-0.274-1.014
		c-0.078-0.396,0.08-0.766,0.125-1.148c0.165-0.521,0.519-0.918,0.87-1.317c0.253-0.339,0.609-0.574,0.894-0.881
		c0.253-0.272,0.482-0.567,0.748-0.828c0.254-0.161,0.408-0.468,0.743-0.512C36.677,10.674,37.117,10.118,37.659,10.221z"/>
	<path fill="#331607" d="M35.283,13.261c0.31,0.294-0.1,0.579-0.011,0.87c-0.42,1.506-0.741,3.022-0.829,4.595
		c-0.144,2.568-0.366,5.132-0.557,7.697c-0.014,0.187,0.056,0.402-0.164,0.526c-0.099-0.775,0.157-1.569-0.124-2.334
		c-0.252-0.12-0.419-0.333-0.595-0.538c0.072-0.369,0.416-0.62,0.434-1.013c0.166-1.18-0.108-2.383,0.199-3.554
		c-0.024-1.375,0.197-2.715,0.557-4.035c0.076-0.24,0.142-0.482,0.084-0.738C34.41,14.107,34.693,13.579,35.283,13.261z"/>
	<path fill="#4D2004" d="M14.246,13.411c-0.205-0.375-0.234-0.83-0.533-1.162c-0.044-0.45-0.042-0.929-0.648-1.022
		c-0.398-0.316-0.688-0.713-0.883-1.18c0.543-0.042,1.008,0.405,1.568,0.25c0.312,0.07,0.474,0.358,0.736,0.503
		c0.489,0.575,1.006,1.124,1.548,1.65c0.167,0.211,0.367,0.393,0.545,0.595c0.154,0.192,0.279,0.401,0.357,0.637
		c0.065,0.418,0.221,0.824,0.159,1.259c-0.093,0.288-0.066,0.613-0.263,0.87c-0.296,0.168-0.488,0.019-0.653-0.213
		c-0.148-0.402-0.771-0.619-0.475-1.198c0.021-0.113,0.054-0.223,0.098-0.324c0.1-0.502-0.489-0.511-0.618-0.85
		c-0.172-0.08-0.302-0.35-0.538-0.108C14.547,13.261,14.436,13.389,14.246,13.411z"/>
	<path fill="#D79448" d="M30.135,30.342c-0.196-2.186-0.069-4.377-0.082-6.565c-0.008-1.314-0.121-2.635,0.085-3.946
		c0.259-0.031,0.547-0.155,0.69,0.207c0.014,2.654,0.211,5.307-0.005,7.961c-0.038,0.087-0.1,0.152-0.183,0.196
		c-0.271,0.339-0.223,0.746-0.25,1.141C30.365,29.684,30.477,30.072,30.135,30.342z"/>
	<path fill="#F7EBBA" d="M16.436,13.105c-0.213-0.124-0.391-0.281-0.502-0.506c-0.252-0.794-0.722-1.416-1.447-1.838
		c-0.203-0.187-0.362-0.409-0.415-0.677c-0.05-0.252,0.055-0.365,0.314-0.224c0.755,0.854,1.828,1.242,2.737,1.871
		c0.234,0.515,0.745,0.418,1.163,0.525c0.536,0.24,1.182,0.28,1.537,0.849c0.027,0.191-0.112,0.267-0.24,0.217
		c-0.462-0.18-0.848,0.002-1.236,0.207c-0.181,0.07-0.365,0.127-0.551,0.182c-0.156,0.038-0.312,0.04-0.466-0.01
		c-0.111-0.043-0.206-0.109-0.293-0.188C16.835,13.378,16.765,13.052,16.436,13.105z"/>
	<path fill="#66350C" d="M25.791,12.401c0.416,2.144,1.089,4.201,2.062,6.159c0.048,0.097,0.067,0.214-0.036,0.305
		c-0.386,0.191-0.493-0.129-0.634-0.359c-0.208-0.338-0.413-0.674-0.744-0.91c-0.639-0.887-0.876-1.916-1.049-2.969
		c0.095-0.721-0.37-1.336-0.385-2.039c-0.006-0.299-0.162-0.602,0.052-0.887C25.736,11.478,25.457,12.26,25.791,12.401z"/>
	<path fill="#371C0C" d="M16.244,24.443c-0.318,0.78-0.002,1.602-0.154,2.393c-0.264-0.809-0.202-1.656-0.27-2.485
		c-0.112-1.369-0.159-2.743-0.338-4.107c-0.035-0.267,0.061-0.552,0.096-0.828c-0.079-1.122-0.177-2.241-0.386-3.35
		c-0.04-0.21-0.135-0.511,0.191-0.647c0.779,0.656,0.592,1.622,0.767,2.464c0.095,0.457,0.01,0.944,0.041,1.416
		c0.3,1.184,0.043,2.4,0.203,3.591c0.045,0.128,0.044,0.29,0.125,0.387C16.952,23.8,16.725,24.148,16.244,24.443z"/>
	<path fill="#512609" d="M23.023,31.723c-0.645,0.397-0.123,1.04-0.322,1.531c-0.297-1.014-0.103-2.057-0.166-3.084
		c-0.111-1.789-0.125-3.584-0.179-5.377c-0.069-0.114-0.066-0.237-0.04-0.362c0.097-0.218,0.041-0.555,0.428-0.548
		c0.281,0.137,0.414,0.362,0.405,0.673c-0.082,1.118,0.213,2.218,0.159,3.335c-0.015,1.144,0.055,2.288-0.039,3.432
		C23.231,31.482,23.17,31.629,23.023,31.723z"/>
	<path fill="#553215" d="M31.175,33.571c0.283,0.238,0.152,0.512,0.058,0.773c-0.403,1.119-0.375,2.324-0.695,3.46
		c-0.055,0.196-0.044,0.395,0.151,0.53c-0.017,0.376-0.201,0.686-0.498,1.246c0-2.465,0-4.683,0-6.9
		c0.131-0.351,0.029-0.716,0.064-1.073c0.017-0.177-0.066-0.415,0.24-0.434c0.154,0.12,0.197,0.292,0.222,0.471
		c0.045,0.66-0.032,1.324,0.031,1.98C30.905,33.714,31.045,33.689,31.175,33.571z"/>
	<path fill="#553316" d="M19.149,38.16c0.243-0.202,0.16-0.442,0.099-0.694c-0.275-1.14-0.284-2.333-0.704-3.445
		c-0.079-0.21-0.12-0.442,0.104-0.613c0.033,0.004,0.066,0.009,0.099,0.011c0.309,0.02,0.252-0.247,0.323-0.415
		c0.067-0.669-0.037-1.341,0.067-2.007c0.042-0.145,0.102-0.276,0.259-0.331c0.325,0.191,0.16,0.505,0.174,0.761
		c0.052,0.979-0.064,1.963,0.063,2.941c0,1.59,0,3.18,0,4.932C19.334,38.873,19.18,38.546,19.149,38.16z"/>
	<path fill="#633F0A" d="M27.815,18.991c-0.34,2.192-0.162,4.411-0.342,6.611c-0.16,0.192-0.186,0.666-0.617,0.297
		c-0.293-0.721-0.109-1.476-0.159-2.215c-0.013-0.939,0.199-1.864,0.18-2.804c0.127-0.635-0.272-1.335,0.232-1.925
		C27.351,18.842,27.583,18.91,27.815,18.991z"/>
	<path fill="#381A08" d="M37.659,10.221c-0.496,0.251-0.929,0.837-1.575,0.299c-0.064-0.259,0.104-0.424,0.257-0.58
		c0.893-0.915,1.835-1.778,2.441-2.945c0.147-0.284,0.38-0.699,0.855-0.685c-0.144,1.084-0.452,2.092-1.234,2.913
		C38.119,9.522,37.905,9.886,37.659,10.221z"/>
	<path fill="#381A08" d="M13.751,10.344c-0.635,0.487-1.08-0.025-1.57-0.298c-0.938-1.089-1.692-2.278-2.063-3.687
		c-0.033-0.125-0.065-0.19,0.049-0.26c0.633,0,0.833,0.565,1.049,0.954c0.571,1.025,1.383,1.818,2.202,2.62
		C13.601,9.851,13.933,9.977,13.751,10.344z"/>
	<path fill="#E9D387" d="M39.637,6.31c-0.414,0.133-0.623,0.537-0.763,0.841c-0.635,1.383-1.81,2.29-2.791,3.369
		c-0.2,0.217-0.342,0.497-0.647,0.602c-0.136-0.183-0.329-0.21-0.538-0.195c-0.136-0.088-0.226-0.195-0.164-0.37
		c1.803-1.212,3.185-2.859,4.607-4.464c0.103-0.117,0.199-0.339,0.386-0.203C39.937,6.041,39.675,6.168,39.637,6.31z"/>
	<path fill="#E79F48" d="M19.707,19.701c0.19,1.259,0.078,2.526,0.072,3.788c-0.01,2.221,0.103,4.445-0.073,6.665
		c-0.289-0.197-0.251-0.506-0.274-0.793c0.015-1.603-0.05-3.208,0.038-4.811c0.017-0.314-0.145-0.078-0.234-0.086
		c-0.443-0.332-0.336-0.821-0.317-1.25c0.049-1.067,0.126-2.132,0.05-3.198C19.06,19.553,19.413,19.695,19.707,19.701z"/>
	<path fill="#E7D084" d="M13.751,10.344c-1.185-1.147-2.292-2.357-3.116-3.801c-0.105-0.184-0.204-0.411-0.468-0.444
		c-0.036-0.097-0.13-0.234-0.096-0.283c0.142-0.206,0.28-0.081,0.401,0.051c0.376,0.412,0.784,0.8,1.119,1.242
		c0.799,1.056,1.784,1.914,2.795,2.749c-0.132,0.169-0.132,0.169,0.196,0.856c0.015,0.163-0.028,0.258-0.215,0.186
		C14.058,10.829,13.954,10.532,13.751,10.344z"/>
	<path fill="#572F10" d="M24.018,12.549c0.17-1.771,0.504-3.514,0.888-5.263c0.354,0.547,0.14,1.174,0.299,1.738
		c-0.096,0.705,0.282,1.403,0.035,2.11c-0.262,0.436-0.391,0.928-0.583,1.393C24.486,12.944,24.402,12.935,24.018,12.549z"/>
	<path fill="#F8F5D0" d="M29.658,13.541c0.469-0.74,1.262-0.908,2.018-1.142c0.465-0.03,0.892-0.204,1.326-0.352
		c0.674-0.024,0.674-0.024,0.336,0.882c-0.198,0.441-0.502,0.773-0.962,0.946c-0.195,0.063-0.392,0.074-0.591,0.02
		c-0.243-0.157-0.526-0.192-0.801-0.255c-0.33-0.436-0.581-0.055-0.855,0.083C29.937,13.755,29.672,13.969,29.658,13.541z"/>
	<path fill="#734428" d="M17.806,13.582c0.176-0.072,0.351-0.144,0.527-0.215c0.534-0.128,1.086-0.397,1.523,0.202
		c0.079,0.22-0.089,0.333-0.206,0.468c-0.315,0.086-0.231,0.427-0.391,0.612c-0.025,0.599-0.052,1.198,0.015,1.796
		c0.013,0.177,0.025,0.354,0.038,0.53c-0.232,0.109-0.454,0.158-0.618-0.111c-0.13-0.401-0.115-0.812-0.043-1.217
		c0.038-0.214-0.088-0.111-0.168-0.114c-0.56-0.346-0.121-0.683,0.009-1.03c-0.235-0.161-0.628-0.064-0.737-0.437
		C17.699,13.895,18.275,13.794,17.806,13.582z"/>
	<path fill="#391F11" d="M15.398,15.456c-0.342,0.663,0.049,1.313,0.094,1.957c0.047,0.667,0.102,1.332,0.087,2.003
		c-0.298-0.795-0.213-1.64-0.327-2.459c-0.17-1.229-0.507-2.411-1.006-3.546c0.104-0.107,0.208-0.213,0.313-0.32
		c0.561,0.261,0.739,0.819,1.01,1.304c0.04,0.154,0.027,0.308,0.002,0.462C15.481,15.047,15.614,15.302,15.398,15.456z"/>
	<path fill="#4C2B15" d="M26.966,25.961c0.26,0.009,0.324-0.26,0.507-0.36c0.071,0.236,0.079,0.47-0.026,0.7
		c-0.209,0.97,0.033,1.959-0.128,2.931c-0.013,0.501,0.194,1.003,0,1.504c-0.228-0.309-0.209-0.676-0.203-1.134
		c-0.265,0.27-0.066,0.613-0.314,0.771c-0.429-0.482-0.246-1.056-0.232-1.6c0.008-0.305,0.152-0.596,0.134-0.908
		c0.001-0.251-0.019-0.502-0.001-0.754C26.756,26.721,26.61,26.284,26.966,25.961z"/>
	<path fill="#8E5412" d="M24.018,12.549c0.158,0.11,0.326,0.401,0.445-0.034c0.125-0.458,0.202-0.94,0.601-1.269
		c0.165,0.15,0.152,0.311,0.026,0.477c0.14,0.73,0.136,1.495,0.493,2.171c0.136,0.258,0.027,0.485-0.002,0.726
		c-0.273,0.049-0.392-0.172-0.555-0.317c-0.042-0.064-0.072-0.133-0.095-0.207c-0.02-0.075-0.031-0.151-0.037-0.228
		c-0.011-0.159-0.003-0.317,0.006-0.476c0.004-0.071,0.072-0.149-0.01-0.216c-0.035,0.075-0.096,0.122-0.168,0.161
		c-0.302,0.051-0.6,0.072-0.883-0.078C23.913,13.026,23.818,12.751,24.018,12.549z"/>
	<path fill="#744428" d="M30.52,17.149c0.014-0.661,0.05-1.322,0.032-1.982c-0.009-0.341,0.009-0.73-0.372-0.941
		c-0.014-0.157,0.09-0.208,0.215-0.241c0.282-0.02,0.454,0.142,0.597,0.355c0.139,0.278,0.28,0.556,0.456,0.814
		c0.052,0.155,0.053,0.306-0.038,0.447c0.002,0.193-0.311-0.176-0.243,0.134c0.059,0.273,0.059,0.55,0.061,0.829
		c-0.009,0.225-0.032,0.444-0.188,0.624C30.859,17.296,30.685,17.285,30.52,17.149z"/>
	<path fill="#F5EABD" d="M33.208,12.898c0.032-0.157,0.067-0.314,0.095-0.472c0.018-0.101,0.277-0.186,0.039-0.293
		c-0.069-0.031-0.196,0.065-0.296,0.103c-0.129-0.079-0.277-0.15-0.171-0.345c0.62-0.445,1.241-0.89,1.861-1.334
		c0.059,0.108,0.118,0.215,0.177,0.322c-0.046,0.312-0.257,0.535-0.424,0.782c-0.281,0.301-0.404,0.708-0.682,1.011
		C33.625,12.795,33.492,13.045,33.208,12.898z"/>
	<path fill="#B46C2A" d="M22.319,17.964c0.292-0.728,0.584-1.455,0.876-2.183c0.268-0.232,0.522-0.173,0.771,0.034
		c0.039,0.069,0.063,0.142,0.075,0.22c-0.02,0.359-0.093,0.702-0.296,1.007c-0.383,0.365-0.768,0.728-1.227,1.003
		C22.436,18.056,22.37,18.027,22.319,17.964z"/>
	<path fill="#3E2719" d="M25.09,11.723c-0.009-0.159-0.017-0.318-0.026-0.478c0.104-0.737-0.131-1.495,0.142-2.222
		c0.4,1.09,0.49,2.234,0.586,3.377C25.28,12.462,25.571,11.693,25.09,11.723z"/>
	<path fill="#BD6918" d="M23.84,13.259c0.305-0.23,0.613-0.039,0.92-0.008c0.5,0.04-0.022,0.57,0.327,0.683
		c-0.009,0.067-0.018,0.135-0.027,0.202c-0.205,0.299-0.005,0.715-0.283,0.993c-0.242-0.036-0.557-0.367-0.638,0.204
		c-0.025,0.18-0.233,0.208-0.364,0.008c-0.214-0.64,0.09-1.275,0.013-1.914C23.807,13.371,23.824,13.315,23.84,13.259z"/>
	<path fill="#784323" d="M22.417,24.435c-0.02,0.12-0.041,0.239-0.061,0.358c-0.231-1.367-0.057-2.75-0.157-4.124
		c-0.037-0.507-0.041-1.011-0.205-1.497c0.045-0.323,0.265-0.297,0.496-0.251c0.255,0.188,0.41,0.435,0.435,0.756
		c-0.057,0.117-0.15,0.206-0.233,0.302c-0.172,1.003,0.025,2.014-0.081,3.018C22.675,23.495,22.459,23.953,22.417,24.435z"/>
	<path fill="#A25213" d="M30.484,31.224c-0.373,0.43,0.064,1.024-0.295,1.457c-0.018-0.78-0.037-1.559-0.055-2.338
		c0.022-0.492,0.025-0.986,0.073-1.475c0.025-0.255-0.028-0.569,0.297-0.709c0.489,0.911,0.195,1.869,0.17,2.811
		C30.637,31.074,30.573,31.159,30.484,31.224z"/>
	<path fill="#9A4F17" d="M30.52,17.149c0.157-0.003,0.315-0.006,0.472-0.009c0.456,0.492,0.121,1.011,0.056,1.522
		c-0.168,0.29-0.093,0.831-0.694,0.678C30.172,18.591,30.541,17.885,30.52,17.149z"/>
	<path fill="#A25E1B" d="M19.625,29.347c0.027,0.269,0.054,0.538,0.08,0.807c-0.024,1.404-0.048,2.809-0.072,4.214
		c-0.269-0.89-0.045-1.805-0.138-2.702c-0.033-0.317,0.119-0.669-0.159-0.945c-0.318-0.325-0.242-0.707-0.157-1.09
		C19.265,29.438,19.394,29.312,19.625,29.347z"/>
	<path fill="#E9DBAE" d="M19.845,13.761c-0.36-0.683-1.018-0.224-1.512-0.394c0.421-0.517,0.975-0.279,1.49-0.263
		c0.492,0.315,1.036,0.597,0.863,1.34C20.189,14.483,20.014,14.126,19.845,13.761z"/>
	<path fill="#995719" d="M23.79,13.427c0.236,0.671,0.033,1.368,0.123,2.048c0.083,0.112,0.071,0.215-0.029,0.31
		c-0.23-0.001-0.459-0.003-0.689-0.004C23.393,14.997,23.591,14.212,23.79,13.427z"/>
	<path fill="#98501C" d="M18.853,16.969c0.155-0.115,0.308-0.089,0.46,0.006c0.068,0.622,0.137,1.245,0.205,1.867
		c-0.346,0.565-0.51,0.045-0.734-0.123c-0.071-0.168-0.051-0.343-0.038-0.517C18.821,17.794,18.425,17.345,18.853,16.969z"/>
	<path fill="#894506" d="M27.815,18.991c-0.226,0.008-0.453,0.016-0.679,0.025c-0.038-0.01-0.076-0.019-0.115-0.028
		c-0.367-0.328-0.541-0.758-0.649-1.223c0.009-0.133,0.089-0.212,0.203-0.265c0.689,0.205,0.611,1.109,1.244,1.366
		C27.855,18.908,27.854,18.95,27.815,18.991z"/>
	<path fill="#BD6E1F" d="M18.837,18.668c0.266-0.096,0.347,0.536,0.681,0.173c0.208,0.254,0.13,0.572,0.19,0.859
		c-0.202,0.553-0.358-0.044-0.538-0.021c-0.035-0.021-0.07-0.042-0.105-0.063C18.877,19.327,18.495,19.083,18.837,18.668z"/>
	<path fill="#C77D30" d="M30.355,19.339c0.437-0.03,0.32-0.478,0.519-0.688c0.185-0.032,0.303,0.058,0.388,0.211
		c0.075,0.249-0.022,0.458-0.154,0.659c-0.123,0.141-0.256,0.27-0.439,0.333c-0.182,0.085-0.367,0.26-0.533-0.023
		C30.09,19.614,30.279,19.502,30.355,19.339z"/>
	<path fill="#DDB875" d="M29.658,13.541c0.142,0.274,0.324,0.016,0.485,0.037c0.07-0.06,0.141-0.059,0.214-0.006
		c0.061,0.183-0.022,0.314-0.156,0.425c-0.371,0.175-0.547,0.698-1.071,0.603C29.04,14.115,29.36,13.834,29.658,13.541z"/>
	<path fill="#794412" d="M13.064,11.227c0.31-0.427,0.399,0.016,0.576,0.141c0.382,0.269,0.399,0.559,0.072,0.881
		C13.302,12.032,13.373,11.509,13.064,11.227z"/>
	<path fill="#C07436" d="M22.51,19.041c-0.184-0.004-0.38-0.054-0.515,0.132c-0.271-0.505,0.128-0.83,0.325-1.208
		c0,0,0.066,0.032,0.066,0.032c0.192,0.137,0.403,0.26,0.401,0.541C22.754,18.738,22.716,18.936,22.51,19.041z"/>
	<path fill="#503320" d="M19.845,13.761c0.28,0.228,0.561,0.455,0.841,0.683c0.005,0.284-0.063,0.461-0.36,0.211
		c-0.233-0.196-0.451-0.411-0.675-0.618C19.504,13.795,19.63,13.747,19.845,13.761z"/>
	<path fill="#E5C983" d="M18.286,12.255c-0.44,0.272-0.861-0.004-1.25-0.112c-0.376-0.105,0.071-0.263,0.087-0.413
		C17.511,11.905,17.898,12.08,18.286,12.255z"/>
	<path fill="#633F0A" d="M27.319,29.233c0.019-0.978-0.205-1.967,0.129-2.931C27.402,27.279,27.533,28.264,27.319,29.233z"/>
	<path fill="#E0C580" d="M32.874,11.891c0.057,0.115,0.114,0.23,0.171,0.345c-0.44,0.188-0.886,0.338-1.369,0.164
		C32.037,12.139,32.461,12.028,32.874,11.891z"/>
	<path fill="#4B2D19" d="M29.13,14.601c0.329-0.24,0.658-0.48,0.987-0.72c0.173-0.043,0.229,0.047,0.23,0.201
		c-0.056,0.048-0.111,0.096-0.166,0.144C29.802,14.27,29.71,15.12,29.13,14.601z"/>
	<path fill="#98501C" d="M19.275,16.444c-0.206-0.597-0.165-1.196-0.015-1.796C19.265,15.247,19.27,15.845,19.275,16.444z"/>
	<path fill="#EDBA79" d="M19.328,29.517c0.003,0.401,0.005,0.802,0.008,1.204c-0.009,0.09-0.018,0.18-0.027,0.27
		c-0.071,0.159-0.283,0.356-0.332,0.155c-0.2-0.837-1.114-1.287-1.141-2.196c-0.099-0.542-0.212-1.082-0.177-1.638
		c0.047-0.109,0.22,0.193,0.223-0.069c0.004-0.299-0.197-0.66,0.248-0.827c0.637,0.346,0.414,1.029,0.624,1.561
		c0.214,0.053,0.38-0.378,0.639-0.095C19.541,28.435,19.582,28.982,19.328,29.517z"/>
	<path fill="#A25E1B" d="M17.837,28.95c0.066-0.048,0.132-0.095,0.199-0.143c-0.156,0.823,0.542,1.179,0.973,1.639
		c0.172,0.183-0.406,0.745,0.301,0.545c-0.017,0.756,0.178,1.528-0.163,2.262c-0.415-0.041-0.333-0.426-0.463-0.664
		c-0.104-0.392-0.227-0.778-0.363-1.332c0.004,0.055-0.02,0.163-0.014,0.175c0.091,0.185,0.22,0.407-0.153,0.434
		C17.949,30.905,17.884,29.929,17.837,28.95z"/>
	<path fill="#3F1502" d="M17.605,27.146c-0.731,0.243-0.944-0.313-1.138-0.794c-0.199-0.496-0.237-1.038-0.193-1.578
		c0.282-0.095-0.246-0.99,0.56-0.567c0.171,0.231,0.184,0.52,0.288,0.777c0.083-0.217-0.099-0.667,0.432-0.491
		c0.216,0.491,0.111,1.032,0.247,1.535C17.734,26.399,17.95,26.823,17.605,27.146z"/>
	<path fill="#553316" d="M18.154,31.866c0.226-0.091,0.112-0.349,0.249-0.5c0.187,0.379,0.492,0.706,0.418,1.172
		c0.055,0.312,0.283,0.658-0.173,0.868l0.002,0.001C18.247,32.97,18.28,32.392,18.154,31.866z"/>
	<path fill="#EA9739" d="M17.605,27.146c0.143-0.341-0.187-0.692,0.022-1.031c0.237-0.327,0.427-0.153,0.614,0.056
		c0.074,0.127,0.182,0.263-0.073,0.314c-0.371,0.336,0.039,0.837-0.252,1.219c-0.094-0.143-0.175-0.267-0.256-0.391
		C17.642,27.257,17.623,27.201,17.605,27.146z"/>
	<path fill="#845704" d="M16.767,24.284c-0.579-0.254-0.11,0.546-0.492,0.489c-0.01-0.11-0.02-0.22-0.03-0.33
		c0.38-0.447,0.218-0.902,0.017-1.356c0.037-0.018,0.073-0.036,0.11-0.054c0.223,0.02,0.375,0.157,0.518,0.312
		c0.138,0.169,0.222,0.356,0.193,0.581C17.042,24.102,16.953,24.237,16.767,24.284z"/>
	<path fill="#EDB873" d="M30.533,31.02c-0.009-0.954-0.019-1.907-0.028-2.861c0.051-0.004,0.103-0.007,0.154-0.009
		c0.146-0.075,0.401,0.208,0.462-0.157c0.208-1.241,0.637-2.457,0.697-3.699c0.028-0.588,0.063-1.117,0.294-1.644
		c0.036-0.082,0.115-0.111,0.205-0.11c0.225,0.137,0.25,0.365,0.277,0.594c0.035,0.392,0.004,0.785,0.016,1.177
		c-0.014,1.071-0.038,2.141-0.39,3.17c-0.074,0.731-0.137,1.464-0.353,2.171c-0.143,0.133-0.062,0.534-0.407,0.406
		c-0.304-0.113,0.029-0.362-0.024-0.5c-0.181,0.394-0.444,0.787-0.504,1.265C30.909,31.005,30.801,31.23,30.533,31.02z"/>
	<path fill="#331607" d="M32.219,27.481c0.058-1.064,0.117-2.128,0.175-3.192c0.39,0.026,0.299,0.345,0.353,0.576
		c-0.066,0.489-0.14,0.978-0.112,1.474c0.029-1.303,0.119-1.406,0.924-1.052c-0.065,0.493-0.072,1.003-0.209,1.475
		C33.2,27.283,32.804,27.568,32.219,27.481z"/>
	<path fill="#C87921" d="M30.533,31.02c0.306-0.626,0.613-1.252,0.917-1.875c0.158,0.249,0.033,0.523-0.006,0.787
		c0.264,0.031,0.252-0.244,0.421-0.279c-0.008,0.4-0.016,0.8-0.024,1.199c-0.235,0.274-0.358,0.641-0.692,0.834
		c-0.207,0.146-0.411,0.395-0.642,0.032c-0.008-0.165-0.016-0.329-0.023-0.494C30.501,31.156,30.517,31.088,30.533,31.02z"/>
	<path fill="#864B12" d="M31.009,31.554c0.455-0.024,0.282-0.792,0.833-0.702c-0.074,0.908-0.063,1.844-0.825,2.527
		c-0.254-0.227-0.22-0.549-0.278-0.841C30.738,32.185,30.894,31.875,31.009,31.554z"/>
	<path fill="#6E3806" d="M33.56,25.287c-1.246-0.221-0.584,0.925-1.013,1.41c0-0.642,0-1.207,0-1.773
		c0.161-0.263,0.143-0.59,0.303-0.853c0.073-0.042,0.142-0.035,0.205,0.02c0.396-0.049,0.528,0.177,0.543,0.523
		C33.586,24.839,33.573,25.063,33.56,25.287z"/>
	<path fill="#28170C" d="M30.859,32.582c0.229,0.231,0.143,0.524,0.158,0.798c0.053,0.064,0.105,0.128,0.158,0.192
		c0.039,0.408-0.358,0.186-0.494,0.341C30.515,33.439,30.557,32.993,30.859,32.582z"/>
	<path fill="#754A1D" d="M23.557,36.122c-0.235-1.405-0.574-2.798-0.506-4.239c0.509-0.21,0.736,0.36,1.149,0.415
		c0.174,0.178,0.188,0.338-0.007,0.484c0.2,0.02,0.288-0.393,0.579-0.244c0.406,0.683,0.061,1.492,0.373,2.191
		c0.029,0.162-0.044,0.29-0.139,0.41c-0.239,0.48,0.115,1.041-0.204,1.511C24.093,37.165,23.861,36.558,23.557,36.122z"/>
	<path fill="#411F03" d="M26.266,37.298c-0.085,1.272-0.367,2.51-0.588,3.76c-0.425-0.01,0.097-0.455-0.43-0.431
		c0,1.132,0,2.288,0,3.444c-0.053,0.004-0.106,0.007-0.16,0.008c-0.184-0.639-0.145-1.298-0.174-1.951
		c-0.014-0.324,0.077-0.669-0.176-0.95c-0.054-0.162-0.107-0.325-0.161-0.487c0.048-0.05,0.1-0.096,0.156-0.138
		c0.262-0.253,0.108-0.57,0.133-0.86c0.011-0.472-0.059-0.94-0.066-1.412c0.146-0.709-0.092-1.465,0.26-2.149
		c0.524-0.118,0.789,0.252,1.079,0.575C26.236,36.892,26.109,37.125,26.266,37.298z"/>
	<path fill="#4E2805" d="M24.914,38.34c0.298,0.489,0.141,1.023,0.154,1.541c-0.226,0.218-0.066,0.587-0.31,0.798
		c-0.06,0.004-0.12,0.008-0.18,0.012c-0.018-0.141-0.044-0.267-0.206-0.325c-0.227-0.08-0.669-0.156-0.033-0.33
		c-0.022-0.072-0.026-0.191-0.069-0.208c-0.667-0.254-0.5-0.939-0.453-1.315c0.061-0.493-0.097-0.921-0.09-1.378
		c0.452-0.228,0.786-0.018,1.094,0.293C24.928,37.724,24.971,38.027,24.914,38.34z"/>
	<path fill="#975D1C" d="M24.254,32.403c-0.544,0.157-0.789-0.379-1.203-0.52c-0.012-0.053-0.021-0.106-0.027-0.159
		c0.021-0.117,0.041-0.235,0.062-0.352c0.516-0.213,1.062-0.369,1.223-1.032c0.062-0.256,0.298-0.322,0.527-0.109
		c0.111,0.185,0.124,0.392,0.131,0.599c0.031,0.289-0.055,0.577-0.005,0.866C24.868,32.073,24.626,32.303,24.254,32.403z"/>
	<path fill="#60370C" d="M24.739,41.178c0.409,0.052,0.348,0.368,0.35,0.639c0.004,0.754,0,1.508-0.001,2.261
		c-0.004,0.027-0.004,0.056-0.014,0.082c-0.028,0.075-0.124,0.156-0.137,0.049c-0.081-0.676-0.138-1.355-0.186-2.034
		C24.727,41.844,24.741,41.51,24.739,41.178z"/>
	<path fill="#62370B" d="M24.727,37.476c-0.333-0.114-0.667-0.227-1-0.341c-0.304-0.296-0.11-0.676-0.17-1.014
		c0.392,0.152,0.574,0.778,1.152,0.509C24.985,36.906,24.971,37.189,24.727,37.476z"/>
	<path fill="#4E2805" d="M24.316,41.856c-0.089-0.391-0.329-0.74-0.212-1.165C24.42,41.134,24.42,41.134,24.316,41.856z"/>
	<path fill="#4D2703" d="M26.266,37.298c-0.201-0.121-0.157-0.322-0.166-0.505c-0.301-0.526-0.378-1.219-1.08-1.443
		c-0.106-0.062-0.197-0.131-0.105-0.27c0.056-0.108,0.111-0.216,0.167-0.323c-0.145-0.836-0.325-1.675,0.143-2.476
		c0.05-0.084,0.118-0.151,0.203-0.2c0.062,0.01,0.124,0.019,0.186,0.029c0.124,0.563,0.707,0.72,1,1.133
		c0.302,0.397,0.059,0.795,0.007,1.195C26.496,35.39,26.383,36.344,26.266,37.298z"/>
	<path fill="#6C3804" d="M26.936,27.806c-0.116,0.853-0.218,1.706-0.135,2.569c0.114,0.597-0.34,0.754-0.743,0.915
		c-0.304,0.122-0.637,0.174-0.956,0.257c-0.264-0.222-0.158-0.53-0.186-0.805c0.088-0.537-0.24-1.084,0.038-1.616
		c0.09-0.066-0.028,0.014,0.064-0.052c0.818-0.585,0.854-0.57,0.974,0.359c0.035-0.389,0.048-0.834,0.208-1.249
		C26.327,27.855,26.492,27.544,26.936,27.806z"/>
	<path fill="#633608" d="M26.613,33.242c-0.504-0.228-1.216-0.272-1-1.133c0.315-0.339,0.617-0.699,1.154-0.76
		C26.762,31.991,26.914,32.632,26.613,33.242z"/>
	<path fill="#41220B" d="M25.426,32.08c-0.007,0.06-0.015,0.12-0.022,0.179c-0.209,0.154-0.447,0.238-0.701,0.278
		c-0.165,0.138-0.33,0.276-0.587,0.491c0.059-0.269,0.098-0.447,0.138-0.626c0.146-0.298,0.355-0.536,0.657-0.684l0.055-0.057
		l0.07,0.036C25.226,31.763,25.356,31.891,25.426,32.08z"/>
	<path fill="#D6A150" d="M25.035,31.698c-0.044-0.006-0.086,0.001-0.125,0.021c-0.271-0.252-0.141-0.574-0.149-0.871
		c0.084-0.098,0.142-0.248,0.319-0.162c0.007,0.288,0.015,0.575,0.022,0.863C25.077,31.596,25.055,31.646,25.035,31.698z"/>
	<path fill="#663301" d="M34.401,14.775c0.202,0.163,0.202,0.334,0.023,0.514c-0.562,0.59-0.265,1.432-0.612,2.086
		c-0.318,0.32-0.524,0.85-1.141,0.615c-0.029-0.496,0.189-0.978,0.06-1.488c-0.042-0.164,0.017-0.411,0.315-0.37
		c0.447-0.035,0.515-0.337,0.506-0.705c-0.011-0.42,0.056-0.821,0.348-1.152C34.148,14.36,34.261,14.581,34.401,14.775z"/>
	<path fill="#9B612A" d="M33.018,13.878c0.121,0.434-0.159,0.831-0.117,1.258c0.125,0.671-0.179,1.308-0.155,1.969
		c-0.384,0.09-0.025,0.774-0.581,0.73c-0.274-0.355-0.145-0.83-0.36-1.202c-0.145-0.341-0.295-0.686,0.283-0.756
		c0.207,0.074,0.361,0.181,0.3,0.395c-0.038-0.794,0.125-1.623,0.097-2.461C32.697,13.567,32.864,13.671,33.018,13.878z"/>
	<path fill="#271002" d="M32.581,17.168c0.107-0.677,0.214-1.355,0.321-2.032c0.28,0.298,0.091,0.665,0.145,0.996
		c-0.316,0.591,0.202,1.321-0.314,1.878c0.104,0.122,0.168,0.262,0.187,0.422c-0.018,0.371,0.131,1.008-0.265,1.007
		c-0.514-0.001-0.286-0.643-0.346-1.017c-0.018-0.11,0.001,0.03-0.001-0.083C32.399,17.95,32.399,17.538,32.581,17.168z"/>
	<path fill="#B56613" d="M34.401,14.775c-0.207-0.127-0.535-0.132-0.501-0.499c0,0,0.014,0.004,0.014,0.004
		c0.282-0.303,0.452-0.676,0.645-1.034c0.161-0.086,0.32-0.176,0.483-0.258c0.105-0.053,0.206-0.239,0.32-0.096
		c0.05,0.062-0.048,0.242-0.079,0.369C34.989,13.766,34.695,14.27,34.401,14.775z"/>
	<path fill="#EEC05F" d="M34.392,11.555c0.162-0.235,0.236-0.536,0.521-0.676c0.161-0.092,0.362-0.293,0.475-0.252
		c0.216,0.079-0.023,0.327,0.049,0.495c-0.226,0.262-0.452,0.524-0.678,0.785C34.561,11.868,34.331,11.863,34.392,11.555z"/>
	<path fill="#EECC90" d="M33.018,13.878c-0.169-0.024-0.3-0.208-0.496-0.119c-0.065,0.047-0.117,0.038-0.155-0.035
		c0.33-0.225,0.61-0.501,0.841-0.826c0.171-0.105,0.342-0.21,0.512-0.315c0.073,0.047,0.171,0.067,0.193,0.171
		C33.615,13.129,33.316,13.504,33.018,13.878z"/>
	<path fill="#FADC95" d="M33.913,12.755c-0.064-0.057-0.128-0.114-0.193-0.171c0.29-0.3,0.221-0.834,0.671-1.029
		c0.122,0.117,0.245,0.235,0.367,0.352C34.621,12.333,34.104,12.381,33.913,12.755z"/>
	<path fill="#7F4105" d="M34.559,13.246c-0.012,0.472-0.101,0.895-0.646,1.034c-0.151-0.102-0.303-0.204-0.654-0.441
		C34.043,14.058,34.148,13.42,34.559,13.246z"/>
	<path fill="#895B04" d="M32.74,18.346c-0.003-0.112-0.006-0.224-0.008-0.335c0.453-0.054,0.611-0.535,0.994-0.69
		c0.216,0.715-0.032,1.455,0.122,2.174c-0.175,0.956-0.095,1.924-0.143,2.886c-0.015,0.296,0.077,0.613-0.134,0.88
		c-0.032-0.026-0.064-0.052-0.096-0.077c-0.195-0.646-0.27-1.318-0.291-1.981C33.155,20.226,32.757,19.317,32.74,18.346z"/>
	<path fill="#A27825" d="M33.848,19.495c-0.263-0.712-0.062-1.45-0.122-2.174c0.052-0.438,0.12-0.875,0.151-1.314
		c0.026-0.372,0.1-0.68,0.547-0.718C34.209,16.688,33.763,18.055,33.848,19.495z"/>
	<path fill="#895B04" d="M33.055,24.091c-0.058,0.001-0.115,0.003-0.173,0.004c-0.419-0.248-0.118-0.422,0.061-0.61
		c0.181-0.125,0.327-0.335,0.596-0.251c0,0,0.031,0.026,0.031,0.026C33.627,23.679,33.265,23.838,33.055,24.091z"/>
	<path fill="#9E6229" d="M17.131,13.406c0.059,0.061,0.118,0.121,0.176,0.182c0.083,0.811,0.071,1.626,0.149,2.284
		c0.007-0.031,0.125-0.131,0.311-0.156c0.52,0.213,0.176,0.603,0.191,0.92c-0.108,0.327-0.063,0.695-0.267,0.996
		c-0.298,0.143-0.333-0.099-0.378-0.279c-0.042-0.169-0.074-0.33-0.242-0.423c-0.313-0.639-0.092-1.312-0.134-1.968
		c-0.056-0.452-0.113-0.903-0.169-1.355C16.84,13.451,16.98,13.419,17.131,13.406z"/>
	<path fill="#5D3100" d="M16.273,15.45c0.094,0.221,0.261,0.337,0.501,0.348c0.512,0.511,0.152,1.137,0.224,1.707
		c-0.418,0.254-0.698,0.036-0.95-0.278c-0.05-0.078-0.08-0.163-0.091-0.255c-0.024-0.301-0.007-0.604-0.019-0.906
		C15.927,15.82,15.843,15.48,16.273,15.45z"/>
	<path fill="#F5CE7C" d="M14.366,10.901c0.072-0.062,0.144-0.124,0.215-0.186c0.812,0.202,1.307,0.891,1.352,1.884
		C15.35,12.089,14.815,11.536,14.366,10.901z"/>
	<path fill="#270F02" d="M16.937,17.5c-0.196-0.554,0.167-1.16-0.163-1.701c0.059-0.278-0.11-0.601,0.163-0.838
		c0.266,0.654,0.094,1.376,0.318,2.036c0.176,0.366,0.17,0.774,0.268,1.157c0.009,0.193,0.018,0.389-0.008,0.58
		c-0.033,0.234,0,0.591-0.32,0.573c-0.287-0.016-0.264-0.366-0.293-0.605c-0.02-0.164-0.011-0.331-0.014-0.497
		C16.883,17.97,16.828,17.729,16.937,17.5z"/>
	<path fill="#B66814" d="M15.433,14.43c-0.291-0.446-0.583-0.893-0.875-1.339c-0.034-0.129-0.138-0.31-0.089-0.376
		c0.123-0.164,0.21,0.085,0.329,0.092c0.206,0.011,0.374,0.076,0.476,0.267c0.159,0.379,0.349,0.74,0.638,1.04
		c0.008,0.107,0.016,0.214,0.024,0.321C15.769,14.467,15.601,14.479,15.433,14.43z"/>
	<path fill="#803F02" d="M15.433,14.43c0.169-0.094,0.337-0.082,0.504,0.004c-0.058,0.238-0.42,0.563,0.209,0.59
		c0.182,0.008,0.11,0.271,0.127,0.426c-0.386,0.473,0.078,1.041-0.171,1.53c-0.127,0.031-0.23-0.01-0.228-0.146
		c0.012-0.677-0.247-1.287-0.464-1.907C15.418,14.761,15.425,14.596,15.433,14.43z"/>
	<path fill="#814306" d="M15.913,14.114c-0.55-0.139-0.693-0.529-0.638-1.04c0.402,0.157,0.485,0.851,1.111,0.571
		C16.356,14.017,15.976,13.877,15.913,14.114z"/>
	<path fill="#EEC98C" d="M17.131,13.406c-0.054,0.189-0.191,0.227-0.364,0.2c-0.111-0.167-0.221-0.335-0.332-0.502
		C16.647,12.739,16.647,12.739,17.131,13.406z"/>
	<path fill="#FDF2CE" d="M32.226,22.564c-0.208,2.002-0.604,3.974-1,5.958c-0.204-0.047-0.395-0.193-0.567-0.372
		c0.057-2.765-0.147-5.531,0.011-8.296c0.04-0.187,0.093-0.362,0.327-0.385c0.285-0.173,0.568-0.334,0.799,0.075
		c0.059,0.471,0.297,0.857,0.579,1.226C32.409,21.376,32.594,21.993,32.226,22.564z"/>
	<path fill="#250E05" d="M17.823,15.798c-0.248,0.106-0.531,0.467-0.563-0.205c-0.033-0.674-0.306-1.342,0.047-2.005
		c0.166-0.002,0.333-0.004,0.499-0.006c0.229,0.069,0.503-0.06,0.745,0.208c-0.183,0.24-0.606,0.023-0.73,0.335
		C17.881,14.682,17.918,15.24,17.823,15.798z"/>
	<path fill="#D59833" d="M26.575,17.498c-0.045,0.057-0.09,0.114-0.135,0.171c-0.682-0.083-0.845-0.605-0.989-1.077
		c-0.012,0.262,0.075,0.63-0.269,0.926c-0.424-0.333-0.287-0.801-0.332-1.218c0.016-0.688-0.048-1.383,0.233-2.038
		c0.26-0.012,0.338,0.231,0.499,0.358C25.846,15.603,25.984,16.629,26.575,17.498z"/>
	<path fill="#845704" d="M16.937,17.5c0.101,0.159,0.198,0.319,0.142,0.521c-0.153,1.424-0.461,2.827-0.577,4.256
		c-0.022,0.273,0.025,0.567-0.206,0.786c0,0-0.034,0.024-0.034,0.024c-0.269-0.664-0.099-1.361-0.153-2.041
		c-0.046-0.576-0.084-1.152-0.125-1.729c0.141-0.718-0.08-1.457,0.125-2.171C16.372,17.294,16.589,17.55,16.937,17.5z"/>
	<path fill="#A47A26" d="M16.108,17.147c-0.069,0.722,0.137,1.46-0.125,2.171c0.012-1.319-0.138-2.613-0.585-3.862
		c0.087-0.174-0.141-0.356,0.012-0.529c0.825,0.484,0.344,1.408,0.692,2.053C16.1,17.036,16.103,17.091,16.108,17.147z"/>
	<path fill="#B47737" d="M24.711,30.2c-0.269,0.016-0.277,0.209-0.31,0.416c-0.087,0.542-0.75,0.913-1.316,0.754
		c-0.002-1.19-0.004-2.381-0.006-3.571c0.173-0.257-0.111-0.754,0.185-0.809c0.501-0.094,0.384,0.566,0.674,0.787
		c0.027,0.073,0.034,0.148,0.023,0.224c-0.131,0.512,0.163,0.982,0.089,1.503c0.242-0.068,0.218-0.314,0.394-0.371
		c0.428,0.148,0.315,0.539,0.383,0.849C24.824,30.074,24.785,30.147,24.711,30.2z"/>
	<path fill="#D28C41" d="M23.894,27.82c-0.577,0.06-0.252-0.561-0.539-0.742c-0.268,0.188,0.003,0.562-0.276,0.721
		c-0.069-0.838-0.156-1.674-0.198-2.513c-0.014-0.284-0.155-0.624,0.166-0.856c0.541-0.2,0.559,0.234,0.673,0.553
		c0.318,0.733-0.007,1.559,0.332,2.297C24.135,27.46,24.37,27.769,23.894,27.82z"/>
	<path fill="#E8B072" d="M23.562,25.107c-0.08-0.295-0.092-0.642-0.515-0.676c-0.119-0.169-0.238-0.339-0.357-0.508
		c0.21-0.273,0.475-0.277,0.765-0.154c0.095,0.051,0.181,0.113,0.251,0.199c0.068,0.083,0.061,0.206,0.151,0.276
		c-0.066-0.097-0.019-0.189,0.011-0.283c0.18-0.261,0.364-0.339,0.51,0.018c0.102,0.25,0.091,0.527,0.144,0.79
		C24.392,25.416,23.98,25.27,23.562,25.107z"/>
	<path fill="#713B13" d="M23.361,23.913c-0.225-0.131-0.447,0.013-0.67,0.01c-0.091,0.171-0.183,0.341-0.274,0.512
		c-0.005-0.505-0.009-1.01-0.014-1.515c0.171-0.078,0.311,0.01,0.454,0.084C23.122,23.253,23.649,23.358,23.361,23.913z"/>
	<path fill="#915D2A" d="M30.859,32.582c-0.042,0.446-0.292,0.864-0.178,1.33c-0.368-0.707-0.094-1.465-0.173-2.195
		c0.25,0.199,0.35-0.061,0.501-0.164C31.031,31.907,31.015,32.255,30.859,32.582z"/>
	<path fill="#27160C" d="M18.647,33.406c0.291-0.243,0.121-0.578,0.173-0.868c0.338,0.134,0.058,0.55,0.327,0.715
		c-0.048,0.144,0.13,0.393-0.212,0.402C18.735,33.661,18.634,33.616,18.647,33.406z"/>
	<path fill="#D4710B" d="M27.135,19.016c-0.016,0.63-0.032,1.26-0.048,1.89c-0.099,0.293-0.075,0.617-0.226,0.897
		c-0.845,0.853-0.947,1.995-1.206,3.078c-0.139,0.584-0.349,0.663-0.758,0.295c-0.113-1.791-0.03-3.583-0.04-5.373
		c-0.001-0.226,0.038-0.447,0.191-0.63c0.189-0.179,0.433-0.24,0.674-0.308c0.325-0.074,0.654-0.093,0.985-0.042
		c0.134,0.041,0.258,0.1,0.366,0.191L27.135,19.016z"/>
	<path fill="#BA6407" d="M25.066,25.436c0.282-0.087,0.475-0.349,0.412-0.567c-0.131-0.45,0.101-0.743,0.287-1.076
		c0.027-0.048,0.07-0.118,0.054-0.156c-0.411-0.992,0.597-1.287,0.934-1.909c0.308,0.587-0.047,1.237,0.171,1.832
		c0.014,0.8,0.028,1.601,0.042,2.401c-0.015,0.385-0.03,0.769-0.046,1.154c-0.25,0.07-0.321-0.152-0.453-0.276
		c-0.373-0.554-0.89-0.916-1.513-1.14c-0.063-0.055-0.089-0.125-0.084-0.207c0.027-0.029,0.054-0.059,0.081-0.088
		C24.989,25.415,25.027,25.426,25.066,25.436z"/>
	<path fill="#DE9E47" d="M26.923,23.56c-0.309-0.587-0.062-1.227-0.171-1.832c0.096-0.28,0.124-0.589,0.335-0.823
		C27.032,21.79,26.978,22.675,26.923,23.56z"/>
	<path fill="#FCEFC5" d="M18.169,26.484c0.113-0.074,0.121-0.144-0.009-0.208c-0.493-0.861-0.519-1.864-0.849-2.776
		c-0.028-0.127-0.036-0.255-0.027-0.385c0.169-0.89,0.144-1.78-0.001-2.669c-0.001-0.133,0.027-0.26,0.093-0.376
		c0.102-0.116,0.217-0.13,0.37-0.092c0.054,0.013,0.138,0.216,0.123,0.059c-0.044-0.45,0.062-0.814,0.505-0.916
		c0.403-0.093,0.654,0.191,0.773,0.572c0,0,0.024-0.014,0.024-0.014c0.173,1.327,0.014,2.655,0.01,3.982
		c-0.001,0.272-0.061,0.559,0.125,0.804c0.065,0.073,0.097,0.158,0.096,0.256c-0.026,0.653-0.017,1.306-0.005,1.959
		c-0.012,0.387,0.073,0.793-0.221,1.125c-0.039,0.339-0.344,0.406-0.589,0.627C18.393,27.75,18.521,27.061,18.169,26.484z"/>
	<path fill="#C7721E" d="M19.308,24.568c-0.003-0.035-0.004-0.069-0.003-0.104c0.028-0.24,0.057-0.48,0.085-0.72
		c0.326,1.863,0.25,3.734,0.236,5.603c-0.099,0.056-0.198,0.113-0.298,0.169c-0.119-0.565,0.161-1.165-0.154-1.712
		c0.004-0.389,0.008-0.778,0.011-1.166C19.349,25.956,19.134,25.25,19.308,24.568z"/>
	<path fill="#220C05" d="M32.368,13.725c0.049,0.024,0.101,0.036,0.155,0.035c0.442,0.831-0.016,1.661,0.006,2.501
		c-0.282,0.083-0.268-0.318-0.5-0.298c-0.15-0.42-0.099-0.854-0.092-1.283c0.01-0.209-0.145-0.275-0.301-0.34
		c-0.182-0.097-0.492-0.093-0.443-0.392c0.045-0.271,0.273-0.314,0.518-0.232C31.929,13.718,32.148,13.722,32.368,13.725z"/>
	<path fill="#9A5A0A" d="M31.71,13.715c-0.149,0.063-0.299,0.126-0.531,0.223c0.225,0.235,0.557,0.094,0.681,0.328
		c-0.297,0.397-0.474,0.431-0.996,0.193c-0.104-0.221-0.268-0.359-0.518-0.378c-0.076-0.067-0.153-0.134-0.23-0.201
		c0.073-0.094,0.147-0.188,0.22-0.282c0.223-0.213,0.458-0.184,0.698-0.034C31.257,13.63,31.538,13.428,31.71,13.715z"/>
	<path fill="#EDCE74" d="M31.035,13.566c-0.233,0.011-0.465,0.023-0.698,0.034c-0.065-0.007-0.13-0.014-0.194-0.021
		C30.437,13.33,30.725,12.632,31.035,13.566z"/>
	<path fill="#E6A03D" d="M17.619,17.629c0.082-0.326-0.146-0.713,0.192-0.99c0.228-0.385,0.228-0.897,0.649-1.175
		c0.112,0.043,0.307-0.564,0.344,0.04c0.029,0.488,0.033,0.977,0.049,1.465c0.03,0.463,0.061,0.926,0.091,1.389
		c-0.321,0.014-0.483-0.38-0.819-0.327c-0.282,0.263,0.08,0.911-0.454,0.928c-0.287,0.009-0.176-0.458-0.206-0.722
		C17.468,18.021,17.457,17.803,17.619,17.629z"/>
	<path fill="#E2AB56" d="M18.461,15.464c-0.149,0.429-0.23,0.895-0.649,1.175c-0.101-0.282,0.166-0.559,0.012-0.841
		c-0.325-0.557-0.267-1.115-0.002-1.674c0.35,0.081,0.7,0.163,1.063,0.247C18.685,14.712,18.207,14.952,18.461,15.464z"/>
	<path fill="#904A06" d="M26.644,26.791c0.092,0.108,0.184,0.216,0.276,0.325c0.005,0.23,0.011,0.46,0.016,0.691
		c-0.658,0.016-0.608,0.551-0.652,0.959c-0.039,0.368-0.016,0.725-0.427,0.929c-0.234-0.257,0.033-0.627-0.195-0.929
		c-0.179,0.163-0.228,0.522-0.572,0.411c-0.144-0.14-0.208-0.314-0.222-0.509c-0.014-0.409-0.022-0.818,0.015-1.227
		c0.078-0.364,0.19-0.726,0.114-1.108c0.001-0.178,0.075-0.316,0.223-0.414c0.341-0.069,0.498,0.184,0.673,0.395
		C26.093,26.555,26.313,26.757,26.644,26.791z"/>
	<path fill="#EBCC85" d="M25.083,14.262c-0.007,0.736-0.015,1.472-0.022,2.209c-0.232,0.043-0.363-0.082-0.456-0.273
		c-0.093-0.385-0.166-0.769,0.12-1.113c0.149-0.304-0.278-0.811,0.336-0.95C25.068,14.178,25.075,14.22,25.083,14.262z"/>
	<path fill="#C48F34" d="M25.087,13.933c-0.607,0.011,0.004-0.562-0.327-0.683c0.044-0.152,0.088-0.305,0.161-0.56
		C25.186,13.141,25.074,13.547,25.087,13.933z"/>
	<path fill="#E19A3A" d="M32.014,16.482c0.179,0.422,0.213,0.866,0.198,1.317c0.177,0.209,0.146,0.462,0.153,0.708
		c-0.047,0.264,0.109,0.625-0.335,0.7c-0.294-0.302-0.22-0.686-0.232-1.05c-0.009-0.164,0.027-0.477-0.049-0.472
		c-1.035,0.062-0.501-0.772-0.695-1.18c-0.009-0.324-0.095-0.672-0.006-0.967c0.092-0.305,0.182,0.113,0.307,0.077
		C31.798,15.735,31.473,16.438,32.014,16.482z"/>
	<path fill="#FABE59" d="M31.054,16.505c0.263,0.287,0.035,0.66,0.171,0.97c0.797-0.405,0.797-0.405,0.784,0.528
		c-0.323,0.24-0.46,0.662-0.837,0.848c-0.099-0.066-0.199-0.132-0.298-0.198c0.003-0.507,0.252-0.995,0.119-1.512
		C31.013,16.928,31.034,16.716,31.054,16.505z"/>
	<path fill="#E1AB57" d="M32.014,16.482c-0.662,0.048-0.417-0.594-0.658-0.867c-0.008-0.157-0.015-0.315-0.023-0.472
		c0.018-0.586,0.384-0.622,0.833-0.527c-0.269,0.426,0.231,0.93-0.137,1.346C31.52,16.121,32.017,16.309,32.014,16.482z"/>
	<path fill="#C7893D" d="M32.166,14.617c-0.4-0.018-0.607,0.269-0.833,0.527c-0.364-0.086-0.31-0.457-0.468-0.684
		c0.35,0.03,0.694,0.027,0.996-0.193C32.075,14.285,32.207,14.375,32.166,14.617z"/>
	<path fill="#F7CD88" d="M23.57,16.984c0.119-0.332,0.238-0.664,0.357-0.996c0.345-0.273,0.685-0.538,0.736,0.213
		c0.011,0.169,0.106,0.312,0.18,0.459c0.156,0.375,0.099,0.773,0.125,1.163c-0.113,0.721-0.133,0.74-0.524,0.481
		c-0.104-0.689-0.104-0.689-0.938-0.999C23.475,17.188,23.468,17.075,23.57,16.984z"/>
	<path fill="#DC9944" d="M24.732,16.79c-0.121-0.086-0.181-0.21-0.156-0.35c0.112-0.63-0.25-0.564-0.649-0.452
		c-0.014-0.068-0.029-0.135-0.043-0.203c0.009-0.103,0.019-0.207,0.029-0.31c0.201-0.168,0.147-0.402,0.16-0.619
		c0.013-0.223,0.01-0.499,0.297-0.508c0.288-0.008,0.175,0.281,0.224,0.448c0.03,0.1,0.086,0.193,0.131,0.288
		c0.014,0.409,0.027,0.817,0.041,1.226C24.857,16.478,24.898,16.642,24.732,16.79z"/>
	<path fill="#E59E37" d="M23.57,16.984c0.002,0.112,0.003,0.225,0.005,0.337c0.021,0.456-0.342,0.763-0.452,1.169
		c-0.059,0.058-0.129,0.093-0.211,0.106c-0.083-0.005-0.156-0.035-0.218-0.09c-0.079-0.185-0.349-0.254-0.309-0.511
		C22.78,17.659,23.175,17.322,23.57,16.984z"/>
	<path fill="#964509" d="M22.787,23.099c-0.128-0.06-0.256-0.119-0.384-0.179c0.146-1.071-0.256-2.17,0.165-3.227
		c0.604,0.414,0.234,1.099,0.453,1.62c0.035,0.128,0.055,0.259,0.066,0.391c0.003,0.388,0.054,0.774,0.07,1.163
		C23.104,23.056,23.02,23.197,22.787,23.099z"/>
	<path fill="#DEAA66" d="M22.694,18.507c0.066,0.003,0.133,0.005,0.199,0.008c0.223,0.443,0.757,0.238,1.063,0.511
		c0.138,0.643-0.531,0.348-0.717,0.616c-0.125,0.155-0.258,0.171-0.398,0.02c-0.265-0.124-0.252-0.397-0.331-0.621
		C22.535,18.851,22.52,18.646,22.694,18.507z"/>
	<path fill="#F1C995" d="M22.841,19.661c0.15,0.032,0.282,0.012,0.37-0.131c0.459-0.22,0.434,0.108,0.325,0.342
		c-0.235,0.5-0.354,1.048-0.656,1.517c-0.317-0.526-0.011-1.167-0.311-1.696C22.659,19.683,22.75,19.672,22.841,19.661z"/>
	<path fill="#FAD28E" d="M17.61,18.343c0.024,0.158,0.048,0.315,0.073,0.473c0.03,0.001,0.06,0.001,0.089,0.002
		c0.019-0.387,0.039-0.775,0.06-1.206c0.465,0.144,0.893,0.281,1.111,0.747c-0.036,0.104-0.071,0.207-0.107,0.31
		c-0.156,0.419,0.461,0.607,0.308,1.025c-0.769-0.749-0.858-0.698-1.251,0.712c-0.138-0.121-0.13-0.398-0.399-0.369
		c-0.443-0.506,0.031-1.073-0.105-1.599C17.425,18.315,17.498,18.284,17.61,18.343z"/>
	<path fill="#F9D595" d="M24.732,16.79c0.011-0.159,0.023-0.319,0.034-0.478c0.098,0.053,0.197,0.106,0.295,0.16
		c0.086,0.288-0.074,0.611,0.159,0.953c0.027-0.521,0.051-0.975,0.087-1.657c0.328,0.831,0.547,1.487,1.133,1.902
		c0.212,0.448,0.423,0.896,0.635,1.344c-0.098,0-0.197-0.001-0.295-0.001c-0.39-0.196-0.989-0.109-1.007-0.635
		c0.031,0.125,0.227,0.375-0.007,0.64c-0.151,0.169-0.349,0.126-0.538,0.119c-0.325-0.126-0.326-0.403-0.318-0.683
		c0.008-0.274,0.031-0.551-0.158-0.785C24.867,17.373,24.878,17.079,24.732,16.79z"/>
	<path fill="#FCD795" d="M31.172,18.85c0.182-0.378,0.272-0.848,0.837-0.848c0.008,0.389,0.016,0.777,0.024,1.166
		c0.058,0.284-0.064,0.393-0.341,0.349c-0.205-0.402-0.491,0.368-0.696-0.048C31.055,19.263,31.113,19.056,31.172,18.85z"/>
	<path fill="#F3BB69" d="M17.495,23.572c0.344,0.871,0.53,1.782,0.664,2.705c-0.175-0.063-0.278-0.363-0.533-0.162
		c-0.146-0.547-0.16-1.108-0.17-1.669C17.225,24.143,17.2,23.85,17.495,23.572z"/>
	<path fill="#A04D01" d="M17.495,23.572c-0.013,0.291-0.026,0.582-0.039,0.873c-0.277,0.229-0.093,0.575-0.216,0.865
		c-0.391-0.246-0.518-0.596-0.474-1.026c0.067-0.125,0.134-0.25,0.201-0.375c0.149,0.012,0.21-0.01,0.183-0.201
		c-0.028-0.196-0.043-0.46,0.297-0.446C17.463,23.365,17.479,23.468,17.495,23.572z"/>
	<path fill="#CE7802" d="M17.447,23.262c-0.22,0.163-0.139,0.406-0.166,0.621c-0.062,0.5-0.208,0.025-0.314,0.026
		c-0.063-0.164-0.125-0.328-0.188-0.492c-0.507-0.774-0.348-1.608-0.16-2.416c0.088-0.38,0.272-0.826,0.854-0.643
		C17.661,21.328,17.64,22.296,17.447,23.262z"/>
	<path fill="#A96003" d="M17.473,20.359c-0.75,0.388-1.048,1.177-0.809,2.245c0.061,0.272,0.14,0.533,0.115,0.814
		c-0.162-0.118-0.323-0.236-0.484-0.354c-0.071-1.138,0.061-2.291,0.311-3.366c0.123-0.53-0.107-1.254,0.473-1.676
		c0.033,0.383,0.066,0.765,0.1,1.148c0.02,0.001,0.039,0.002,0.059,0.003c0.035-0.327,0.07-0.653,0.105-0.98
		c0.132-0.03,0.21-0.012,0.129,0.146c0.008,0.566,0.017,1.132,0.025,1.698C17.488,20.143,17.48,20.251,17.473,20.359z"/>
	<path fill="#CF7804" d="M33.054,23.586c-0.102,0.155-0.386,0.248-0.171,0.509c0.163,0.388-0.12,0.595-0.336,0.829
		c-0.03-0.217,0.03-0.455-0.152-0.635c-0.005-0.401-0.009-0.801-0.014-1.202c0.291-0.551,0.205-1.206,0.078-1.696
		c-0.092-0.354-0.215-0.595-0.007-0.915c0.529-0.039,0.703,0.372,0.777,0.738C33.391,22.009,33.556,22.829,33.054,23.586z"/>
	<path fill="#E39A44" d="M32.41,20.525c-0.125,0.665,0.537,1.198,0.309,1.892c-0.081,0.248,0.056,0.585-0.339,0.67
		c-0.041-0.178,0.005-0.381-0.154-0.524c0-0.675,0.001-1.35,0.001-2.025c0.029-0.017,0.059-0.033,0.088-0.05
		C32.347,20.501,32.379,20.513,32.41,20.525z"/>
	<path fill="#DEB877" d="M24.914,35.08c0.057,0.061,0.114,0.123,0.171,0.184c0.23,0.241,0.279,0.516,0.149,0.822
		c-0.358,0.716,0.096,1.546-0.319,2.254c-0.062-0.288-0.125-0.576-0.188-0.864c-0.006-0.282-0.012-0.564-0.019-0.845
		c0.029-0.469,0.101-0.935-0.053-1.403C24.539,34.873,24.787,35.061,24.914,35.08z"/>
	<path fill="#B48546" d="M24.703,32.538c0.091-0.453,0.43-0.28,0.701-0.278c-0.425,0.791-0.28,1.656-0.323,2.497
		c-0.477-0.145-0.266-0.514-0.277-0.82C24.785,33.47,24.738,33.004,24.703,32.538z"/>
	<path fill="#2E1A0A" d="M25.233,36.086c-0.05-0.274-0.099-0.548-0.149-0.822c0.737-0.104,0.728,0.588,0.995,0.966
		c0.091,0.128,0.018,0.372,0.02,0.563C25.809,36.559,25.417,36.45,25.233,36.086z"/>
	<path fill="#A6753A" d="M24.758,40.679c0.057-0.284-0.122-0.66,0.31-0.799C24.987,40.156,25.381,40.615,24.758,40.679z"/>
	<path fill="#EFC693" d="M25.071,28.655c0.006,0.173,0.013,0.347,0.019,0.52c-0.003,0.503-0.006,1.006-0.009,1.51
		c-0.106,0.054-0.213,0.108-0.319,0.162c-0.017-0.216-0.034-0.432-0.05-0.647c0.007-0.061,0.015-0.121,0.022-0.182
		c-0.122-0.358-0.062-0.733-0.101-1.099C24.713,28.723,24.845,28.611,25.071,28.655z"/>
	<path fill="#E3B471" d="M32.233,18.522c-0.007-0.241-0.014-0.482-0.02-0.723c0.356-0.075-0.101-0.623,0.368-0.631
		c-0.03,0.4-0.06,0.8-0.09,1.2c-0.022,0.059-0.051,0.115-0.085,0.168C32.345,18.566,32.288,18.561,32.233,18.522z"/>
	<path fill="#A65E03" d="M32.353,18.509c0.046-0.047,0.092-0.095,0.138-0.141c0.033,0.326,0.067,0.651,0.1,0.977
		c0.02,0,0.041-0.001,0.061-0.001c0.029-0.332,0.059-0.665,0.088-0.997c0.145,0.244,0.587,0.361,0.214,0.803
		c-0.297,0.351,0.373,0.31,0.376,0.69c0.007,1.133,0.132,2.264,0.21,3.396c-0.162,0.117-0.324,0.234-0.486,0.351
		c-0.039-0.589,0.242-1.142,0.173-1.743c-0.066-0.585-0.287-1.038-0.817-1.318c0,0-0.061,0.005-0.061,0.005
		C31.864,19.855,32.314,19.183,32.353,18.509z"/>
	<path fill="#E3B572" d="M17.47,18.337c-0.043-0.049-0.086-0.098-0.129-0.146c-0.029-0.398-0.058-0.796-0.086-1.194
		c0.441,0.026,0.024,0.548,0.365,0.632c-0.003,0.238-0.006,0.475-0.009,0.713C17.564,18.338,17.517,18.336,17.47,18.337z"/>
	<path fill="#F8DAA1" d="M32.353,18.509c-0.001,0.674-0.003,1.348-0.004,2.022c-0.04,0.005-0.081,0.008-0.122,0.008
		c-0.844,0.008-0.409-0.653-0.535-1.021c0.162-0.069,0.28-0.182,0.341-0.349c0.249-0.159,0.109-0.438,0.199-0.646
		C32.273,18.518,32.313,18.513,32.353,18.509z"/>
	<path fill="#E8A14D" d="M23.562,25.107c0.219-0.258,0.765,0.267,0.834-0.349c-0.087-0.133-0.086-0.278,0.059-0.339
		c0.129-0.054,0.257,0.04,0.353,0.144c0.131,0.286,0.147,0.587,0.109,0.895l0.01-0.015c-0.451,0.335,0.156,0.754-0.086,1.107
		c-0.242,0.493-0.318,1.004-0.232,1.552c0.047,0.302,0.038,0.617-0.133,0.898c-0.255,0.168-0.429,0.092-0.505-0.19
		c-0.073-0.269-0.114-0.546-0.078-0.827c0.004-0.054,0.005-0.108,0.002-0.162c0.367-0.35-0.145-0.508-0.184-0.78
		C23.616,26.397,23.819,25.733,23.562,25.107z"/>
	<path fill="#D87B1F" d="M24.404,29.004c0.14-0.842-0.404-1.775,0.334-2.538c0.134,0.026,0.223,0.104,0.265,0.234
		c-0.173,0.536-0.302,1.076-0.124,1.639c0.026,0.173-0.029,0.328-0.106,0.478c-0.013,0.4-0.027,0.801-0.04,1.201
		c-0.306-0.205-0.01-0.637-0.319-0.841c-0.045-0.036-0.062-0.074-0.049-0.114C24.377,29.024,24.39,29.004,24.404,29.004z"/>
	<path fill="#D28C41" d="M24.404,29.004c0.003,0.058,0.006,0.116,0.01,0.174c-0.095,0.252,0.192,0.74-0.245,0.736
		c-0.4-0.004-0.405-0.408-0.305-0.781c0.1-0.37-0.471-0.773,0.028-1.15c0.142,0.16,0.292,0.292,0.2,0.563
		C24.014,28.773,24.106,28.983,24.404,29.004z"/>
	<path fill="#FBE3BF" d="M24.716,24.638c-0.175-0.142-0.291-0.128-0.32,0.12c-0.258-0.19-0.09-0.476-0.16-0.701
		c-0.15-0.479-0.213,0.093-0.338,0.043c-0.161-0.483-0.217-1.014-0.615-1.392c0.025-0.386-0.241-0.664-0.372-0.993
		c-0.01-0.109-0.021-0.218-0.031-0.327c-0.087-0.572,0.168-1.046,0.439-1.512c0.098-0.17,0.28-0.339-0.108-0.347
		c0.054-0.391,0.753,0.071,0.668-0.505c0.778-0.306,1.114-0.141,1.094,0.715c-0.029,1.205,0.002,2.415-0.103,3.615
		C24.833,23.779,25.123,24.259,24.716,24.638z"/>
	<path fill="#EDC18F" d="M23.396,22.567c0.455,0.417,0.831,0.86,0.502,1.533c-0.062,0.114-0.062,0.114-0.537-0.188
		c0.022-0.422-0.305-0.597-0.574-0.814c0.157,0.023,0.245-0.054,0.285-0.199C23.149,22.759,23.088,22.484,23.396,22.567z"/>
	<path fill="#FDF7E3" d="M24.716,24.638c0.011-1.516-0.035-3.03,0.183-4.542c0.115-0.801-0.21-1.076-1.019-1.071
		c-0.37-0.092-1.027,0.373-0.987-0.51c0.053-0.015,0.106-0.018,0.16-0.008c0.475-0.238,0.947-0.493,1.509-0.33
		c0.156,0.146,0.17,0.147,0.176,0.059c0.013-0.189,0.01-0.378,0.014-0.568c0.662,0.326,0.101,1.049,0.476,1.468
		c-0.249,1.05-0.093,2.116-0.119,3.174c-0.026,1.042-0.029,2.084-0.042,3.126c-0.05,0-0.1,0.007-0.148,0.022
		C24.763,25.207,24.714,24.929,24.716,24.638z"/>
	<path fill="#FDEFC3" d="M25.766,19.017c0.149-0.462-0.594-0.774-0.155-1.394c0.341,0.552,0.5,1.218,1.169,1.389
		C26.442,19.014,26.104,19.015,25.766,19.017z"/>
	<path fill="#331404" d="M26.644,26.791c-0.37,0.24-0.622,0.043-0.824-0.244c-0.175-0.25-0.277-0.566-0.657-0.578
		c-0.179-0.045-0.301-0.129-0.235-0.342C25.793,25.583,26.213,26.194,26.644,26.791z"/>
	<path fill="#FAEACA" d="M24.928,25.627c-0.009,0.175,0.131,0.247,0.236,0.342c-0.027,0.099-0.053,0.198-0.079,0.297
		c-0.007,0.166-0.016,0.331-0.183,0.428c-0.055-0.076-0.11-0.152-0.164-0.229c0.011-0.17,0.009-0.333-0.123-0.47
		c-0.516-0.533,0.036-0.465,0.313-0.552C24.928,25.505,24.928,25.566,24.928,25.627z"/>
	<path fill="#E79F48" d="M19.308,24.568c0.002,0.693,0.174,1.395-0.123,2.07C19.219,25.948,19.059,25.246,19.308,24.568z"/>
	<path fill="#EDBB72" d="M24.902,26.694c0.021-0.159,0.027-0.326,0.183-0.428c0.333,0.355,0.091,0.705-0.01,1.056
		c-0.353,0.261,0.043,0.791-0.37,1.03C24.43,27.759,24.556,27.213,24.902,26.694z"/>
	<path fill="#FBEDCD" d="M24.705,28.352c0.017-0.301,0.036-0.602,0.049-0.903c0.013-0.288,0.163-0.213,0.321-0.127
		c-0.002,0.444-0.003,0.889-0.005,1.333c-0.099,0.054-0.198,0.108-0.298,0.162C24.75,28.662,24.728,28.507,24.705,28.352z"/>
	<path fill="#5A2601" d="M25.635,28.151c0-0.389,0-0.778,0-1.315C25.99,27.386,25.633,27.762,25.635,28.151z"/>
	<path fill="#FCEDB4" d="M24.562,18.177c-0.504,0.108-0.926,0.587-1.509,0.33c-0.144-0.535,0.319-0.803,0.523-1.185
		c0.143-0.242,0.596,0.304,0.651-0.26c0.007-0.077,0.186,0.108,0.245,0.217C24.625,17.565,24.58,17.872,24.562,18.177z"/>
	<path fill="#EDC591" d="M23.396,22.567c-0.108,0.111-0.216,0.222-0.324,0.333c-0.308-0.36-0.267-0.768-0.161-1.184
		C23.126,21.969,23.667,22.036,23.396,22.567z"/>
</g>
</svg>
