<svg version="1.1" id="Layer_1" xmlns="http://www.w3.org/2000/svg" xmlns:xlink="http://www.w3.org/1999/xlink" x="0px"
    y="0px" viewBox="0 0 48 48" style="enable-background:new 0 0 48 48;" xml:space="preserve">
    <style type="text/css">
        .st0 {
            fill: url(#SVGID_1_);
        }

        .st1 {
            fill: url(#SVGID_00000183964234093973055380000001851657829518841013_);
        }

        .st2 {
            fill: url(#SVGID_00000052085935527352229030000009717819192824542872_);
        }

        .st3 {
            fill: url(#SVGID_00000148621376262319151790000001494228900660099493_);
        }
    </style>
    <g>
        <linearGradient id="SVGID_1_" gradientUnits="userSpaceOnUse" x1="0.3333" y1="24.0203" x2="43.0562" y2="24.0203">
            <stop offset="0" style="stop-color:#364563" />
            <stop offset="0.5158" style="stop-color:#A94B23" />
            <stop offset="1" style="stop-color:#F8A532" />
        </linearGradient>
        <path class="st0" d="M1.5,24c0-5.5,0-11,0-16.4c0-1.1,0-1.1,1.1-1.1c3.4,0,6.8,0,10.2,0c0.4,0,0.8,0,1.2,0.1
		c0.9,0.2,1.5,0.8,1.8,1.6C16,8.5,16,8.9,16,9.3c0,3.7,0,7.4,0,11.1c0,0.2,0,0.4-0.1,0.6c-0.1,0.6-0.4,1-0.9,1.3
		c-0.4,0.2-0.7,0.5-1,0.7c-0.2,0.2-0.2,0.3,0,0.5c0.3,0.2,0.6,0.5,1,0.7c0.7,0.4,1,1,1.1,1.7c0,0.2,0,0.4,0,0.7c0,4,0,8,0,12
		c0,0.5-0.1,1-0.2,1.4c-0.3,0.8-0.9,1.3-1.7,1.5c-0.4,0.1-0.7,0.1-1.1,0.1c-3.6,0-7.1,0-10.7,0c-0.1,0-0.3,0-0.4,0
		c-0.3,0-0.5-0.2-0.5-0.5c0-0.2,0-0.5,0-0.7C1.5,34.9,1.5,29.5,1.5,24z M6.8,31.9c0,1.1,0,2.1,0,3.2c0,0.8,0,1.5,0,2.3
		c0,0.3,0.1,0.5,0.4,0.5c0.8,0,1.7,0.1,2.5,0c0.6-0.1,1-0.4,1.2-1c0.1-0.3,0.1-0.5,0.1-0.8c0-2.7,0-5.5,0-8.2c0-0.2,0-0.4,0-0.6
		c-0.1-0.7-0.5-1.1-1.2-1.3c-0.8-0.2-1.7-0.1-2.6-0.1c-0.2,0-0.4,0.1-0.4,0.4c0,0.2,0,0.4,0,0.5C6.8,28.5,6.8,30.2,6.8,31.9z
		 M6.8,16c0,1.6,0,3.3,0,4.9c0,0.6,0,0.6,0.6,0.7c0.6,0.1,1.2,0,1.8,0c1.3-0.1,1.7-0.6,1.8-1.8c0-2.5,0-5,0-7.5
		c0-1.2-0.5-1.8-1.7-1.9c-0.6,0-1.1,0-1.7,0c-0.7,0-0.7,0.1-0.7,0.7C6.8,12.8,6.8,14.4,6.8,16z" />

        <linearGradient id="SVGID_00000041259883129777238060000001730665717855284644_" gradientUnits="userSpaceOnUse"
            x1="0.3333" y1="23.8053" x2="43.0562" y2="23.8053">
            <stop offset="0" style="stop-color:#364563" />
            <stop offset="0.5158" style="stop-color:#A94B23" />
            <stop offset="1" style="stop-color:#F8A532" />
        </linearGradient>
        <path style="fill:url(#SVGID_00000041259883129777238060000001730665717855284644_);" d="M19.7,23.8c0-5.4,0-10.9,0-16.3
		c0-1.1,0-1.1,1.1-1.1c3.4,0,6.7,0,10.1,0c0.1,0,0.2,0,0.3,0c0.7,0,0.7,0.1,0.7,0.8c0,0.9,0,1.9,0,2.8c0,0.7-0.1,0.8-0.7,0.8
		c-1.7,0-3.4,0-5.1,0c-1,0-1,0-1,1c0,2.7,0,5.5,0,8.2c0,0.1,0,0.2,0,0.3c0,0.6,0.1,0.7,0.7,0.7c0.7,0,1.4,0,2,0c1.2,0,2.3,0,3.5,0
		c0.6,0,0.7,0.1,0.7,0.7c0,1.1,0,2.2,0,3.2c0,0.6-0.1,0.7-0.7,0.7c-1.4,0-2.9,0-4.3,0c-0.4,0-0.8,0-1.3,0c-0.5,0-0.6,0.1-0.6,0.6
		c0,0.2,0,0.4,0,0.6c0,4.3,0,8.7,0,13c0,1.2,0,1.2-1.2,1.2c-1.1,0-2.1,0-3.2,0c-0.8,0-0.9-0.1-0.9-0.9c0-4.8,0-9.5,0-14.3
		C19.7,25.3,19.7,24.5,19.7,23.8z" />

        <linearGradient id="SVGID_00000073709391609713106190000007009388601143505828_" gradientUnits="userSpaceOnUse"
            x1="0.3333" y1="23.9915" x2="43.0562" y2="23.9915">
            <stop offset="0" style="stop-color:#364563" />
            <stop offset="0.5158" style="stop-color:#A94B23" />
            <stop offset="1" style="stop-color:#F8A532" />
        </linearGradient>
        <path style="fill:url(#SVGID_00000073709391609713106190000007009388601143505828_);" d="M42,24c0,5.5,0,11,0,16.6c0,1,0,1-1,1
		c-1,0-2.1,0-3.1,0c-0.7,0-0.7-0.1-0.7-0.7c0-0.2,0-0.4,0-0.6c0-8.3,0-16.7,0-25c0-1,0-1-1-1c-0.8,0-1.5,0-2.3,0
		c-0.6,0-0.6-0.1-0.6-0.6c0-0.8,0-1.5,0-2.3c0-0.3,0.1-0.4,0.4-0.6c0.4-0.2,0.8-0.4,1.2-0.6C36.1,9.4,37.2,8.3,38,7
		c0.3-0.4,0.5-0.6,1.1-0.6c0.8,0,1.6,0,2.4,0c0.5,0,0.6,0.1,0.6,0.6c0,0.2,0,0.4,0,0.6C42,13.1,42,18.6,42,24z" />

        <linearGradient id="SVGID_00000054956425411074730890000007029594637054783111_" gradientUnits="userSpaceOnUse"
            x1="0.3333" y1="7.175" x2="43.0562" y2="7.175">
            <stop offset="0" style="stop-color:#364563" />
            <stop offset="0.5158" style="stop-color:#A94B23" />
            <stop offset="1" style="stop-color:#F8A532" />
        </linearGradient>
        <path style="fill:url(#SVGID_00000054956425411074730890000007029594637054783111_);" d="M43.7,6.6c0.6-0.2,1.1-0.1,1.6-0.1
		c0.1,0,0.2,0.1,0.3,0.3c0.1,0.2,0.1,0.4,0.2,0.6c0.1-0.3,0.2-0.5,0.3-0.7c0-0.1,0.1-0.2,0.3-0.1c0.1,0,0.1,0.1,0.2,0.2
		c0,0.3,0,0.7,0,1c0,0.1-0.1,0.2-0.2,0.2c-0.1,0-0.1-0.1-0.1-0.1c0-0.1,0-0.2,0-0.3C45.9,7.6,46,8,45.7,7.9c-0.2,0-0.2-0.3-0.4-0.5
		c0,0.1,0,0.1,0,0.2c0,0.1,0,0.2-0.2,0.2C45,7.9,45,7.8,45,7.7c0-0.2,0-0.4,0-0.7c0-0.1-0.1-0.2-0.2-0.2c-0.2,0-0.2,0.1-0.2,0.3
		c0,0.2,0,0.4,0,0.6c0,0.1,0,0.2-0.2,0.2c-0.1,0-0.1-0.1-0.2-0.3c0-0.1,0-0.2,0-0.3C44.2,7,44.1,6.8,43.7,6.6z" />
    </g>
</svg>