<?xml version="1.0" encoding="utf-8"?>
<!-- Generator: Adobe Illustrator 26.0.0, SVG Export Plug-In . SVG Version: 6.00 Build 0)  -->
<svg version="1.0" id="Layer_1" xmlns="http://www.w3.org/2000/svg" xmlns:xlink="http://www.w3.org/1999/xlink" x="0px" y="0px"
	 viewBox="0 0 50 50" enable-background="new 0 0 50 50" xml:space="preserve">
<g>
	<linearGradient id="SVGID_1_" gradientUnits="userSpaceOnUse" x1="-5.0292" y1="43.9289" x2="58.9525" y2="43.9289">
		<stop  offset="0" style="stop-color:#B0854E"/>
		<stop  offset="0.4799" style="stop-color:#FFEC81"/>
		<stop  offset="1" style="stop-color:#B98E53"/>
	</linearGradient>
	<path fill="url(#SVGID_1_)" d="M2.944,42.345c0.016,0.465,0.149,1.077,0.277,1.69c0.055,0.263,0.123,0.523,0.189,0.783
		c0.028,0.111,0.006,0.278,0.133,0.305c0.101,0.022,0.163-0.126,0.229-0.209c0.33-0.412,0.646-0.834,0.904-1.296
		c0.088-0.157,0.151-0.307,0.06-0.504c-0.093-0.202,0.055-0.284,0.241-0.303c0.436-0.045,0.779,0.229,0.982,0.621
		c0.37,0.714,0.747,1.428,1.214,2.086c0.168,0.236,0.194-0.001,0.225-0.097c0.268-0.825,0.434-1.674,0.54-2.533
		c0.072-0.59,0.228-1.173,0.165-1.778c-0.014-0.134,0.049-0.254,0.191-0.306c0.151-0.055,0.225,0.062,0.287,0.155
		c0.102,0.151,0.225,0.28,0.359,0.397c0.196,0.171,0.233,0.384,0.13,0.591c-0.303,0.607-0.335,1.28-0.505,1.919
		c-0.183,0.691-0.274,1.397-0.367,2.105c-0.056,0.427-0.251,0.81-0.65,1.038c-0.181,0.104-0.304,0.08-0.422-0.142
		c-0.307-0.577-0.724-1.091-0.984-1.697c-0.141-0.329-0.341-0.623-0.545-0.914c-0.142-0.203-0.304-0.187-0.434-0.007
		c-0.542,0.746-1.152,1.46-1.301,2.416c-0.035,0.221-0.159,0.294-0.356,0.328c-0.193,0.032-0.318-0.023-0.419-0.195
		c-0.165-0.28-0.256-0.586-0.318-0.896c-0.25-1.237-0.486-2.477-0.717-3.718c-0.049-0.263-0.068-0.532-0.081-0.8
		c-0.014-0.269,0.07-0.327,0.322-0.251C2.796,41.281,2.959,41.542,2.944,42.345z"/>
	
		<linearGradient id="SVGID_00000046319037906380176900000002461631012264775342_" gradientUnits="userSpaceOnUse" x1="-5.0292" y1="43.8763" x2="58.9525" y2="43.8763">
		<stop  offset="0" style="stop-color:#B0854E"/>
		<stop  offset="0.4799" style="stop-color:#FFEC81"/>
		<stop  offset="1" style="stop-color:#B98E53"/>
	</linearGradient>
	<path fill="url(#SVGID_00000046319037906380176900000002461631012264775342_)" d="M39.095,44.271
		c-0.084,0.067-0.171,0.131-0.253,0.201c-0.464,0.392-0.622,0.275-0.947-0.078c-0.529-0.574-1.171-1.008-1.747-1.521
		c-0.055-0.049-0.118-0.136-0.204-0.079c-0.062,0.041-0.034,0.13-0.031,0.196c0.024,0.636-0.105,1.266-0.061,1.903
		c0.036,0.524,0.038,1.05,0.113,1.571c0.056,0.39-0.006,0.441-0.393,0.333c-0.47-0.132-0.528-0.232-0.526-0.712
		c0.006-1.223,0.001-2.446-0.007-3.669c-0.003-0.403,0.084-0.811-0.092-1.207c-0.058-0.131,0.062-0.213,0.186-0.189
		c0.207,0.039,0.416,0.029,0.622,0.055c0.287,0.037,0.401,0.256,0.28,0.536c-0.088,0.203-0.054,0.322,0.154,0.427
		c0.348,0.176,0.619,0.465,0.914,0.715c0.358,0.303,0.724,0.589,1.161,0.773c0.146,0.062,0.281,0.15,0.423,0.22
		c0.128,0.064,0.245,0.257,0.377,0.175c0.119-0.074,0.046-0.278,0.051-0.424c0.018-0.626,0.032-1.252,0.043-1.879
		c0.003-0.148,0.006-0.297-0.065-0.438c-0.107-0.211,0.025-0.292,0.198-0.271c0.235,0.028,0.47,0.086,0.693,0.165
		c0.179,0.063,0.271,0.199,0.153,0.4c-0.029,0.049-0.044,0.114-0.041,0.171c0.049,1.239-0.108,2.482,0.066,3.721
		c0.04,0.281,0.013,0.577-0.02,0.861c-0.052,0.445-0.628,0.703-0.997,0.473c-0.092-0.057-0.097-0.101-0.072-0.189
		c0.212-0.735,0.005-1.48,0.099-2.218C39.146,44.287,39.121,44.279,39.095,44.271z"/>
	
		<linearGradient id="SVGID_00000174575529428102950020000009982820026786217095_" gradientUnits="userSpaceOnUse" x1="-5.0292" y1="43.9649" x2="58.9525" y2="43.9649">
		<stop  offset="0" style="stop-color:#B0854E"/>
		<stop  offset="0.4799" style="stop-color:#FFEC81"/>
		<stop  offset="1" style="stop-color:#B98E53"/>
	</linearGradient>
	<path fill="url(#SVGID_00000174575529428102950020000009982820026786217095_)" d="M15.993,42.808
		c0.009-0.394-0.033-1.007-0.158-1.613c-0.031-0.147,0.013-0.246,0.169-0.242c0.461,0.015,0.879,0.284,0.866,0.773
		c-0.042,1.53-0.14,3.056-0.25,4.582c-0.02,0.276-0.194,0.444-0.364,0.624c-0.048,0.051-0.087,0.063-0.149,0.011
		c-0.106-0.088-0.246-0.145-0.329-0.249c-0.128-0.162-0.27-0.152-0.448-0.135c-0.72,0.067-1.414,0.297-2.149,0.285
		c-1.164-0.019-1.564-0.534-1.671-1.614c-0.07-0.707-0.033-1.417-0.04-2.124c-0.005-0.589,0.052-1.177-0.06-1.761
		c-0.025-0.131,0.04-0.209,0.175-0.222c0.317-0.029,0.587,0.077,0.803,0.305c0.134,0.141,0.214,0.283,0.074,0.497
		c-0.137,0.209-0.098,0.483-0.125,0.726c-0.071,0.648-0.16,1.298-0.114,1.951c0.024,0.342,0.033,0.696,0.165,1.023
		c0.104,0.255,0.293,0.432,0.575,0.452c0.822,0.058,1.62-0.1,2.411-0.304c0.271-0.07,0.414-0.228,0.457-0.514
		C15.943,44.519,15.993,43.777,15.993,42.808z"/>
	
		<linearGradient id="SVGID_00000054238172944583811330000006704044900460212670_" gradientUnits="userSpaceOnUse" x1="-5.0292" y1="43.9468" x2="58.9525" y2="43.9468">
		<stop  offset="0" style="stop-color:#B0854E"/>
		<stop  offset="0.4799" style="stop-color:#FFEC81"/>
		<stop  offset="1" style="stop-color:#B98E53"/>
	</linearGradient>
	<path fill="url(#SVGID_00000054238172944583811330000006704044900460212670_)" d="M21.8,43.676
		c0.429,0.057,0.686,0.379,1.008,0.582c0.418,0.264,0.789,0.599,1.216,0.854c0.418,0.249,0.657,0.656,0.872,1.069
		c0.129,0.248,0.005,0.509-0.073,0.748c-0.042,0.13-0.158,0.102-0.261,0.005c-0.34-0.319-0.707-0.612-1.033-0.945
		c-0.551-0.562-1.202-1.013-1.737-1.589c-0.268-0.288-0.612-0.435-0.956-0.59c-0.122-0.055-0.2-0.055-0.215,0.118
		c-0.064,0.742-0.106,1.483,0.031,2.223c0.074,0.399-0.408,0.917-0.8,0.865c-0.12-0.016-0.103-0.11-0.099-0.183
		c0.014-0.267,0.05-0.534,0.053-0.801c0.01-0.805-0.009-1.612,0.019-2.416c0.017-0.476,0.056-0.948,0.001-1.425
		c-0.035-0.304-0.014-0.609-0.151-0.902c-0.107-0.228-0.017-0.329,0.239-0.334c0.069-0.001,0.139,0.004,0.208,0.015
		c0.601,0.09,0.677,0.208,0.57,0.804c-0.077,0.427-0.157,0.85-0.083,1.296c0.035,0.214,0.119,0.246,0.276,0.23
		c0.462-0.049,0.887-0.199,1.263-0.48c0.695-0.521,1.308-1.12,1.788-1.85c0.131-0.198,0.291-0.033,0.372,0.04
		c0.221,0.197,0.319,0.474,0.367,0.765c0.012,0.072-0.011,0.132-0.092,0.165c-0.68,0.279-1.241,0.741-1.807,1.191
		C22.484,43.362,22.115,43.445,21.8,43.676z"/>
	
		<linearGradient id="SVGID_00000154425621721409791170000001638944307403552431_" gradientUnits="userSpaceOnUse" x1="-5.0292" y1="43.8504" x2="58.9525" y2="43.8504">
		<stop  offset="0" style="stop-color:#B0854E"/>
		<stop  offset="0.4799" style="stop-color:#FFEC81"/>
		<stop  offset="1" style="stop-color:#B98E53"/>
	</linearGradient>
	<path fill="url(#SVGID_00000154425621721409791170000001638944307403552431_)" d="M26.913,43.863
		c-0.002-1.393,0.681-2.365,1.962-2.818c0.962-0.34,1.921-0.19,2.784,0.453c1.157,0.863,1.208,2.613,0.817,3.578
		c-0.193,0.477-0.505,0.872-0.952,1.147c-0.107,0.066-0.197,0.103-0.351,0.061c-0.243-0.067-0.483-0.058-0.645,0.249
		c-0.187,0.355-0.604,0.3-0.915,0.289c-1.103-0.038-2.164-0.62-2.578-1.928C26.927,44.556,26.897,44.217,26.913,43.863z
		 M27.663,44.022c-0.1,0.893,0.876,2.174,2.14,2.007c0.177-0.023,0.354-0.051,0.532-0.064c0.67-0.048,1.156-0.359,1.422-0.986
		c0.277-0.654,0.289-1.337,0.123-2.008c-0.202-0.812-0.879-1.207-1.531-1.319c-0.474-0.081-0.955,0.018-1.407,0.178
		c-0.361,0.128-0.673,0.376-0.874,0.689C27.792,42.947,27.669,43.444,27.663,44.022z"/>
	
		<linearGradient id="SVGID_00000137842182818845376010000001953093532618505895_" gradientUnits="userSpaceOnUse" x1="-5.0292" y1="43.8348" x2="58.9525" y2="43.8348">
		<stop  offset="0" style="stop-color:#B0854E"/>
		<stop  offset="0.4799" style="stop-color:#FFEC81"/>
		<stop  offset="1" style="stop-color:#B98E53"/>
	</linearGradient>
	<path fill="url(#SVGID_00000137842182818845376010000001953093532618505895_)" d="M46.068,41.006c0.169,0,0.338-0.008,0.507,0.002
		c0.193,0.012,0.374,0.075,0.505,0.224c0.144,0.163,0.254,0.375,0.152,0.57c-0.085,0.162-0.314,0.112-0.466,0.068
		c-0.714-0.206-1.42-0.068-2.128,0.015c-0.394,0.046-0.75,0.192-1.038,0.459c-0.107,0.099-0.171,0.268-0.208,0.417
		c-0.161,0.635-0.149,1.281,0.01,1.909c0.188,0.739,0.814,1.188,1.648,1.225c0.394,0.018,0.779,0.029,1.154-0.19
		c0.264-0.154,0.362-0.398,0.523-0.612c0.046-0.061-0.009-0.09-0.054-0.107c-0.122-0.047-0.242-0.074-0.376-0.025
		c-0.16,0.059-0.319,0.007-0.458-0.071c-0.214-0.12-0.25-0.434-0.055-0.506c0.475-0.174,0.909-0.451,1.415-0.543
		c0.329-0.06,0.668,0.123,0.794,0.435c0.091,0.228,0.024,0.335-0.222,0.348c-0.256,0.013-0.517-0.03-0.766,0.07
		c-0.163,0.065-0.242,0.132-0.063,0.282c0.122,0.103,0.249,0.195,0.381,0.284c0.264,0.177,0.267,0.264,0.087,0.533
		c-0.21,0.314-0.506,0.517-0.853,0.615c-0.848,0.239-1.712,0.42-2.563,0.032c-0.54-0.247-0.948-0.609-1.187-1.211
		c-0.382-0.962-0.297-1.897-0.061-2.852c0.054-0.219,0.147-0.423,0.019-0.659c-0.076-0.14-0.01-0.264,0.179-0.293
		c0.746-0.114,1.491-0.229,2.235-0.356C45.473,41.018,45.769,40.998,46.068,41.006z"/>
	
		<linearGradient id="SVGID_00000150816361806938574490000005900192193035770768_" gradientUnits="userSpaceOnUse" x1="-5.0292" y1="37.5367" x2="58.9525" y2="37.5367">
		<stop  offset="0" style="stop-color:#B0854E"/>
		<stop  offset="0.4799" style="stop-color:#FFEC81"/>
		<stop  offset="1" style="stop-color:#B98E53"/>
	</linearGradient>
	<path fill="url(#SVGID_00000150816361806938574490000005900192193035770768_)" d="M29.892,37.085
		c-0.164,0.179-0.336,0.352-0.491,0.539c-0.192,0.231-0.356,0.245-0.567,0.032c-0.167-0.168-0.336-0.333-0.553-0.549
		c0,0.49-0.009,0.921,0.005,1.35c0.004,0.13,0.079,0.273-0.122,0.293c-0.162,0.017-0.265-0.082-0.281-0.244
		c-0.052-0.505-0.086-1.01-0.033-1.518c0.011-0.108,0.01-0.218,0.017-0.326c0.007-0.104-0.115-0.254,0.075-0.296
		c0.155-0.035,0.337-0.047,0.422,0.13c0.124,0.262,0.372,0.409,0.541,0.629c0.098,0.128,0.255,0.142,0.365,0.018
		c0.196-0.221,0.466-0.39,0.56-0.684c0.07-0.218,0.216-0.138,0.335-0.111c0.147,0.034,0.326,0.118,0.251,0.299
		c-0.237,0.566-0.053,1.134-0.05,1.7c0,0.078,0.013,0.163-0.012,0.234c-0.049,0.14-0.172,0.2-0.31,0.171
		c-0.138-0.029-0.138-0.155-0.119-0.266C30.003,38.027,29.933,37.567,29.892,37.085z"/>
	
		<linearGradient id="SVGID_00000135678973606585020870000001509546653562538382_" gradientUnits="userSpaceOnUse" x1="-5.0292" y1="37.4924" x2="58.9525" y2="37.4924">
		<stop  offset="0" style="stop-color:#B0854E"/>
		<stop  offset="0.4799" style="stop-color:#FFEC81"/>
		<stop  offset="1" style="stop-color:#B98E53"/>
	</linearGradient>
	<path fill="url(#SVGID_00000135678973606585020870000001509546653562538382_)" d="M9.576,37.503
		c-0.016-0.341,0.076-0.686-0.039-1.031c-0.055-0.166,0.124-0.191,0.233-0.134c0.176,0.092,0.331,0.073,0.509,0.012
		c0.296-0.103,0.598-0.11,0.826,0.141c0.21,0.231,0.21,0.497,0.038,0.763c-0.084,0.131,0.048,0.165,0.117,0.226
		c0.31,0.272,0.37,0.636,0.135,0.92c-0.161,0.196-0.4,0.231-0.639,0.259c-0.3,0.035-0.598-0.052-0.906,0.035
		c-0.186,0.052-0.282-0.128-0.276-0.33C9.582,38.076,9.576,37.789,9.576,37.503z M10.695,38.319c0.158-0.02,0.369-0.032,0.397-0.274
		c0.025-0.217-0.125-0.338-0.315-0.41c-0.225-0.086-0.448-0.001-0.671,0.014c-0.084,0.006-0.091,0.081-0.092,0.158
		C10.01,38.183,10.181,38.32,10.695,38.319z M10.251,37.304c0.193-0.002,0.379-0.041,0.532-0.159c0.12-0.092,0.213-0.22,0.144-0.386
		c-0.061-0.148-0.191-0.195-0.342-0.18c-0.159,0.015-0.314,0.051-0.457,0.123c-0.212,0.107-0.15,0.303-0.133,0.473
		C10.011,37.328,10.143,37.304,10.251,37.304z"/>
	
		<linearGradient id="SVGID_00000091714773360820690300000007043750636960026269_" gradientUnits="userSpaceOnUse" x1="-5.0292" y1="37.491" x2="58.9525" y2="37.491">
		<stop  offset="0" style="stop-color:#B0854E"/>
		<stop  offset="0.4799" style="stop-color:#FFEC81"/>
		<stop  offset="1" style="stop-color:#B98E53"/>
	</linearGradient>
	<path fill="url(#SVGID_00000091714773360820690300000007043750636960026269_)" d="M38.149,37.194c0-0.219,0.009-0.438-0.003-0.656
		c-0.007-0.13-0.025-0.245,0.151-0.258c0.161-0.012,0.264,0.066,0.322,0.21c0.01,0.026,0.005,0.059,0.004,0.088
		c-0.004,0.636-0.004,0.636,0.661,0.621c0.569-0.013,0.653-0.13,0.474-0.676c-0.029-0.088-0.076-0.176,0.014-0.244
		c0.11-0.084,0.228-0.034,0.339,0.011c0.099,0.04,0.172,0.097,0.151,0.223c-0.103,0.622-0.076,1.246-0.013,1.87
		c0.017,0.174-0.035,0.341-0.225,0.363c-0.214,0.025-0.216-0.153-0.215-0.309c0.001-0.189-0.01-0.379,0.001-0.567
		c0.012-0.225-0.092-0.309-0.304-0.289c-0.01,0.001-0.02,0-0.03,0c-1.073-0.009-0.857-0.003-0.877,0.852
		c-0.003,0.112,0.05,0.271-0.129,0.279c-0.16,0.007-0.251-0.11-0.262-0.269C38.179,38.028,38.132,37.612,38.149,37.194z"/>
	
		<linearGradient id="SVGID_00000157294431383120597070000008985031716754759099_" gradientUnits="userSpaceOnUse" x1="-5.0292" y1="37.4982" x2="58.9525" y2="37.4982">
		<stop  offset="0" style="stop-color:#B0854E"/>
		<stop  offset="0.4799" style="stop-color:#FFEC81"/>
		<stop  offset="1" style="stop-color:#B98E53"/>
	</linearGradient>
	<path fill="url(#SVGID_00000157294431383120597070000008985031716754759099_)" d="M17.761,38.514
		c-0.008,0.109-0.007,0.236-0.124,0.212c-0.133-0.028-0.307-0.026-0.367-0.2c-0.009-0.026,0.006-0.06,0.002-0.088
		c-0.091-0.622-0.434-0.841-1.046-0.656c-0.309,0.093-0.293,0.394-0.37,0.63c-0.044,0.133,0.036,0.384-0.227,0.301
		c-0.196-0.062-0.246-0.253-0.185-0.467c0.134-0.47,0.391-0.89,0.535-1.355c0.023-0.075,0.096-0.152,0.055-0.224
		c-0.193-0.341,0.035-0.282,0.236-0.261c0.135,0.014,0.25-0.053,0.367-0.105c0.169-0.076,0.322-0.014,0.371,0.14
		c0.2,0.625,0.496,1.212,0.705,1.832C17.741,38.355,17.747,38.446,17.761,38.514z M16.305,37.486
		c0.205-0.029,0.321-0.057,0.439-0.058c0.167-0.003,0.188-0.09,0.128-0.21c-0.095-0.19-0.008-0.556-0.287-0.546
		c-0.255,0.009-0.259,0.352-0.328,0.573c-0.006,0.019-0.007,0.039-0.013,0.058C16.208,37.435,16.26,37.49,16.305,37.486z"/>
	
		<linearGradient id="SVGID_00000052082603897099228620000006856965653019195059_" gradientUnits="userSpaceOnUse" x1="-5.0292" y1="37.5125" x2="58.9525" y2="37.5125">
		<stop  offset="0" style="stop-color:#B0854E"/>
		<stop  offset="0.4799" style="stop-color:#FFEC81"/>
		<stop  offset="1" style="stop-color:#B98E53"/>
	</linearGradient>
	<path fill="url(#SVGID_00000052082603897099228620000006856965653019195059_)" d="M22.962,37.38
		c0.328,0.246,0.671,0.412,0.947,0.669c0.08,0.074,0.172,0.136,0.204,0.25c0.038,0.134,0.028,0.28-0.066,0.364
		c-0.108,0.096-0.201-0.047-0.271-0.108c-0.344-0.3-0.675-0.615-1.012-0.923c-0.086-0.079-0.178-0.206-0.3-0.149
		c-0.109,0.051-0.051,0.197-0.054,0.301c-0.005,0.199,0.004,0.398,0.007,0.597c0.002,0.115-0.022,0.216-0.135,0.277
		c-0.139,0.075-0.237,0.131-0.274-0.112c-0.064-0.421,0.032-0.834,0.018-1.251c-0.008-0.248-0.003-0.497-0.015-0.746
		c-0.006-0.118-0.062-0.271,0.137-0.239c0.138,0.022,0.343,0.019,0.287,0.278c-0.027,0.124-0.012,0.257-0.025,0.385
		c-0.026,0.259,0.129,0.26,0.297,0.195c0.293-0.113,0.524-0.318,0.734-0.547c0.06-0.066,0.108-0.143,0.169-0.207
		c0.053-0.055,0.109-0.139,0.199-0.091c0.109,0.059,0.165,0.172,0.199,0.285c0.03,0.101-0.067,0.126-0.133,0.169
		C23.579,36.97,23.285,37.167,22.962,37.38z"/>
	
		<linearGradient id="SVGID_00000048495116565424267020000005411059150874455194_" gradientUnits="userSpaceOnUse" x1="-5.0292" y1="37.4871" x2="58.9525" y2="37.4871">
		<stop  offset="0" style="stop-color:#B0854E"/>
		<stop  offset="0.4799" style="stop-color:#FFEC81"/>
		<stop  offset="1" style="stop-color:#B98E53"/>
	</linearGradient>
	<path fill="url(#SVGID_00000048495116565424267020000005411059150874455194_)" d="M20.17,36.27
		c0.143,0.012,0.282,0.022,0.407,0.094c0.085,0.049,0.126,0.134,0.108,0.228c-0.025,0.128-0.146,0.109-0.218,0.084
		c-0.26-0.093-0.512-0.01-0.766,0.01c-0.364,0.028-0.549,0.179-0.605,0.537c-0.058,0.363-0.031,0.711,0.293,0.97
		c0.329,0.263,0.82,0.154,0.981-0.233c0.08-0.194,0.214-0.105,0.32-0.063c0.146,0.057,0.219,0.172,0.133,0.334
		c-0.148,0.281-0.408,0.413-0.697,0.457c-0.754,0.115-1.532-0.389-1.449-1.265c0.026-0.279,0.128-0.542,0.134-0.821
		c0.002-0.087,0.054-0.119,0.131-0.131C19.351,36.404,19.761,36.337,20.17,36.27z"/>
	
		<linearGradient id="SVGID_00000162332032635940576130000008445403109509078679_" gradientUnits="userSpaceOnUse" x1="-5.0292" y1="37.5425" x2="58.9525" y2="37.5425">
		<stop  offset="0" style="stop-color:#B0854E"/>
		<stop  offset="0.4799" style="stop-color:#FFEC81"/>
		<stop  offset="1" style="stop-color:#B98E53"/>
	</linearGradient>
	<path fill="url(#SVGID_00000162332032635940576130000008445403109509078679_)" d="M36.011,37.629
		c0.015,0.257,0.026,0.514,0.047,0.771c0.017,0.207-0.062,0.383-0.261,0.4c-0.212,0.018-0.218-0.185-0.222-0.347
		c-0.01-0.466-0.023-0.932-0.027-1.398c-0.002-0.248-0.086-0.36-0.343-0.244c-0.053,0.024-0.117,0.047-0.172,0.039
		c-0.174-0.024-0.306-0.131-0.326-0.3c-0.023-0.191,0.166-0.174,0.277-0.188c0.562-0.074,1.128-0.07,1.693-0.075
		c0.153-0.001,0.289,0.06,0.292,0.231c0.003,0.164-0.148,0.191-0.273,0.222c-0.13,0.032-0.255-0.029-0.382-0.035
		c-0.204-0.011-0.348,0.04-0.318,0.302C36.018,37.21,36,37.42,36,37.629C36.004,37.629,36.007,37.629,36.011,37.629z"/>
	
		<linearGradient id="SVGID_00000142863705222486779820000014346327274599853226_" gradientUnits="userSpaceOnUse" x1="-5.0292" y1="37.4997" x2="58.9525" y2="37.4997">
		<stop  offset="0" style="stop-color:#B0854E"/>
		<stop  offset="0.4799" style="stop-color:#FFEC81"/>
		<stop  offset="1" style="stop-color:#B98E53"/>
	</linearGradient>
	<path fill="url(#SVGID_00000142863705222486779820000014346327274599853226_)" d="M12.646,37.478c0-0.317,0.01-0.635-0.004-0.952
		c-0.008-0.187,0.062-0.258,0.24-0.235c0.164,0.021,0.304,0.074,0.241,0.28c-0.142,0.467-0.049,0.946-0.081,1.418
		c-0.014,0.212,0.079,0.267,0.279,0.276c0.359,0.015,0.709-0.079,1.066-0.063c0.082,0.004,0.219-0.055,0.214,0.117
		c-0.004,0.137-0.029,0.263-0.203,0.274c-0.069,0.005-0.141,0.016-0.208,0.002c-0.428-0.089-0.84-0.026-1.254,0.098
		c-0.199,0.06-0.315-0.023-0.3-0.264c0.018-0.316,0.005-0.634,0.005-0.952C12.643,37.478,12.644,37.478,12.646,37.478z"/>
	
		<linearGradient id="SVGID_00000098222435056468928330000007764068262609680551_" gradientUnits="userSpaceOnUse" x1="-5.0292" y1="37.503" x2="58.9525" y2="37.503">
		<stop  offset="0" style="stop-color:#B0854E"/>
		<stop  offset="0.4799" style="stop-color:#FFEC81"/>
		<stop  offset="1" style="stop-color:#B98E53"/>
	</linearGradient>
	<path fill="url(#SVGID_00000098222435056468928330000007764068262609680551_)" d="M32.329,37.989
		c0.213-0.61-0.29-0.897-0.666-1.258c-0.067-0.064-0.308-0.111-0.126-0.279c0.145-0.134,0.31-0.123,0.423,0.067
		c0.099,0.165,0.251,0.281,0.382,0.415c0.134,0.137,0.271,0.146,0.411,0.002c0.159-0.163,0.333-0.314,0.45-0.514
		c0.056-0.095,0.128-0.157,0.242-0.117c0.107,0.037,0.205,0.109,0.225,0.219c0.021,0.11-0.104,0.126-0.176,0.172
		c-0.518,0.329-0.811,0.762-0.713,1.412c0.035,0.236,0.122,0.611-0.258,0.604c-0.331-0.006-0.103-0.369-0.179-0.557
		C32.332,38.12,32.338,38.077,32.329,37.989z"/>
</g>
<g>
	
		<linearGradient id="SVGID_00000018948560883105000930000011283007827740142218_" gradientUnits="userSpaceOnUse" x1="-27.8333" y1="14.9864" x2="105.3687" y2="14.9864">
		<stop  offset="0" style="stop-color:#B0854E"/>
		<stop  offset="0.4799" style="stop-color:#FFEC81"/>
		<stop  offset="1" style="stop-color:#B98E53"/>
	</linearGradient>
	<path fill="url(#SVGID_00000018948560883105000930000011283007827740142218_)" d="M27.471,20.859
		c-0.46,0.107-0.492,0.423-0.499,0.838c-0.011,0.651,0.07,1.334-0.321,1.927c-0.028,0.042-0.066,0.077-0.107,0.123
		c-0.127-0.147,0.102-0.299-0.065-0.446c-0.178,0.182-0.38,0.34-0.662,0.353c-0.047,0.002-0.389,0.067-0.05,0.231
		c0.062,0.03-0.013,0.138-0.065,0.164c-0.176,0.088-0.313,0.248-0.529,0.265c-0.282,0.022-0.454,0.19-0.56,0.464
		c0.23,0.117,0.38-0.168,0.591-0.082c-0.534,0.563-1.179,0.925-1.913,1.143c-0.221,0.065-0.428,0.155-0.611,0.311
		c-0.417,0.353-0.912,0.145-1.375,0.156c-0.491,0.012-0.789-0.332-1.077-0.643c-0.156-0.168-0.281-0.458-0.038-0.66
		c0.594-0.492,1.001-1.139,1.49-1.718c0.042-0.05,0.097-0.087,0.182-0.162c0.019,0.275-0.255,0.384-0.255,0.566
		c0.251-0.226,0.516-0.453,0.768-0.695c0.377-0.362,0.89-0.512,1.287-0.842c0.104-0.087,0.22-0.158,0.327-0.241
		c0.063-0.049,0.157-0.102,0.131-0.188c-0.038-0.127-0.157-0.067-0.246-0.064c-1.205,0.045-2.358,0.334-3.502,0.7
		c-0.711,0.227-1.025,0.775-1.284,1.374c-0.327,0.757-0.451,1.585-0.795,2.345c-0.148,0.327-0.408,0.452-0.648,0.631
		c-0.149,0.112-0.346,0.158-0.506,0.259c-0.289,0.183-0.546,0.371-0.691-0.155c-0.048-0.175-0.245-0.103-0.395-0.077
		c-0.468,0.081-0.605-0.004-0.734-0.464c-0.071-0.254-0.262-0.408-0.437-0.574c-0.555-0.526-0.566-0.844-0.089-1.418
		c0.41-0.494,0.747-1.036,0.926-1.661c0.139-0.485,0.284-0.965,0.588-1.38c0.047-0.064,0.104-0.148,0.048-0.223
		c-0.059-0.08-0.146-0.02-0.224-0.004c-0.856,0.174-1.698,0.479-2.596,0.274c-0.127-0.029-0.278-0.021-0.404,0.017
		c-0.557,0.171-0.975-0.023-1.335-0.447c-0.115-0.135-0.138-0.209-0.095-0.405c0.058-0.267-0.136-0.536-0.336-0.738
		c-0.142-0.143-0.322-0.249-0.486-0.37c-0.092-0.067-0.191-0.123-0.289-0.017c-0.082,0.088-0.113,0.23-0.042,0.301
		c0.361,0.36,0.093,0.718-0.033,1.031c-0.187,0.465-0.333,0.965-0.59,1.381c-0.331,0.536-0.441,1.145-0.724,1.689
		c-0.063,0.121-0.152,0.209-0.309,0.261c0.133-0.756,0.374-1.465,0.523-2.192c0.233-1.136,0.647-2.234,0.719-3.406
		c0.018-0.293,0.055-0.602,0.312-0.814c0.09-0.074,0.134-0.174,0.13-0.287c-0.025-0.771,0.356-1.478,0.35-2.248
		c-0.002-0.213,0.153-0.367,0.29-0.523c0.074-0.084,0.113-0.21-0.02-0.279c-0.128-0.066-0.195,0.026-0.24,0.14
		c-0.127,0.315-0.233,0.64-0.437,0.917c-0.044,0.06-0.064,0.18-0.166,0.137c-0.111-0.046-0.047-0.129-0.003-0.2
		c0.096-0.154,0.056-0.322-0.072-0.397c-0.146-0.086-0.24,0.085-0.318,0.184c-0.31,0.394-0.61,0.795-0.912,1.196
		c-0.041,0.054-0.111,0.124-0.101,0.172c0.106,0.484-0.298,0.612-0.571,0.821c-0.34,0.26-0.606,0.583-0.869,0.912
		c-0.186,0.233-0.16,0.508-0.164,0.78c-0.006,0.557-0.419,0.794-0.937,0.593c-0.731-0.285-1.179-0.875-1.652-1.443
		c-0.073-0.088-0.106-0.219-0.134-0.336c-0.083-0.352-0.242-0.661-0.468-0.941c-0.49-0.608-0.365-1.514,0.339-1.859
		c0.569-0.279,1.122-0.597,1.704-0.842c0.749-0.316,1.389-0.333,1.94,0.436c0.136,0.19,0.286,0.123,0.425,0.033
		c0.603-0.393,1.2-0.793,1.8-1.191c0.319-0.212,0.297-0.596,0.448-0.892c0.047-0.092,0.028-0.26,0.162-0.25
		c0.261,0.018,0.406,0.026,0.103-0.213c-0.017-0.013-0.026-0.07-0.02-0.073c0.318-0.176-0.057-0.471,0.136-0.714
		c0.176-0.221,0.191-0.562,0.316-0.831c0.164-0.352,0.298-0.715,0.547-1.034c0.233-0.298,0.306-0.699,0.405-1.068
		c0.043-0.159,0.089-0.312,0.159-0.46c0.267-0.565,0.587-1.105,0.772-1.707c0.012-0.039,0.023-0.087,0.051-0.11
		c0.385-0.31,0.311-0.571-0.076-0.81c-0.069-0.043-0.123-0.122-0.086-0.209c0.046-0.109,0.143-0.104,0.243-0.079
		c0.109,0.028,0.262,0.161,0.322,0.012c0.072-0.178-0.151-0.177-0.25-0.249c-0.042-0.03-0.087-0.056-0.126-0.082
		c0.029-0.161,0.147-0.122,0.228-0.119c0.327,0.012,0.618-0.051,0.846-0.311c0.101-0.115,0.251-0.152,0.394-0.202
		c0.317-0.111,0.616-0.23,0.814-0.55c0.38-0.612,1.028-0.753,1.661-0.389c0.515,0.297,0.905,0.726,1.217,1.225
		c0.171,0.274,0.082,0.915-0.117,1.18c-0.5,0.666-1.231,1.099-1.724,1.782c-0.578,0.801-1.037,1.674-1.6,2.482
		c-0.068,0.098-0.131,0.229-0.002,0.329c0.109,0.084,0.238,0.024,0.28-0.072c0.201-0.454,0.667-0.622,0.995-0.936
		c0.362-0.345,0.782-0.63,1.18-0.936c0.174-0.134,0.36-0.242,0.586-0.203c-0.069,0.612-0.496,1.047-0.723,1.566
		c-0.307,0.7-0.865,0.968-1.469,1.24c-0.268,0.121-0.548,0.166-0.814-0.021c-0.085-0.06-0.152-0.083-0.251-0.004
		c-0.735,0.591-1.161,1.347-1.297,2.284c-0.056,0.389-0.214,0.752-0.416,1.099c-0.4,0.683-0.7,1.44-0.836,2.193
		c-0.107,0.593-0.338,1.07-0.722,1.427c-0.299,0.278-0.47,0.575-0.685,0.997c0.3-0.14,0.513-0.247,0.731-0.339
		c0.654-0.273,1.331-0.46,2.036-0.553c0.582-0.076,1.132-0.286,1.688-0.461c0.524-0.165,0.577-0.384,0.234-0.828
		c-0.181-0.234-0.307-0.508-0.548-0.7c-0.076-0.061-0.142-0.193-0.135-0.287c0.04-0.562-0.475-1-0.334-1.594
		c0.042-0.175-0.18-0.32-0.325-0.443c-0.184-0.155-0.136-0.317,0.052-0.373c0.846-0.251,1.477-0.912,2.303-1.194
		c0.113-0.039,0.228-0.071,0.372-0.051c-0.465,0.306-0.923,0.621-1.396,0.914c-0.357,0.221-0.556,0.507-0.516,0.939
		c0.016,0.169,0.084,0.214,0.239,0.138c1.561-0.771,3.058-1.664,4.639-2.396c0.01-0.005,0.014-0.022,0.041-0.065
		c-1.115,0.34-2.128,0.89-3.273,1.187c0.209-0.449,0.546-0.64,0.943-0.747c0.215-0.058,0.423,0.032,0.667-0.078
		c0.592-0.267,1.169-0.565,1.755-0.843c0.136-0.065,0.273-0.149,0.424-0.122c0.554,0.097,0.888-0.177,1.165-0.696
		c-0.722,0.222-1.4-0.115-2.098,0.092c-0.427,0.126-0.764-0.223-1.011-0.558c-0.213-0.289-0.042-0.596,0.105-0.837
		c0.462-0.751,0.939-1.501,1.616-2.085c0.294-0.253,0.53-0.545,0.727-0.871c0.147-0.243,0.34-0.461,0.596-0.534
		c0.694-0.198,1.246-0.646,1.851-0.996c0.581-0.336,1.149-0.229,1.734-0.071c0.067,0.018,0.159,0.046,0.119,0.124
		c-0.229,0.443,0.127,0.325,0.339,0.39c0.168,0.051,0.462,0.001,0.411,0.352c-0.012,0.081,0.133,0.05,0.203,0.076
		c0.279,0.105,0.336,0.353,0.344,0.596c0.008,0.25-0.178,0.284-0.399,0.278c-0.25-0.007-0.204,0.196-0.198,0.358
		c0.007,0.175,0.067,0.293,0.27,0.263c0.04-0.006,0.079-0.017,0.119-0.027c0.103-0.027,0.237-0.107,0.304-0.01
		c0.107,0.156-0.153,0.152-0.161,0.282c0.005,0.065,0.059,0.071,0.115,0.073c0.091,0.003,0.209-0.04,0.242,0.085
		c0.033,0.122-0.085,0.153-0.164,0.2c-0.521,0.307-0.838,0.812-1.219,1.255c-0.061,0.071-0.108,0.166-0.056,0.264
		c0.059,0.111,0.161,0.072,0.253,0.052c0.392-0.084,0.785-0.003,1.177-0.005c0.369-0.002,0.52,0.238,0.565,0.708
		c0.024,0.249-0.187,0.609,0.289,0.696c0.1,0.018,0.081,0.191,0.056,0.297c-0.155,0.649-0.382,1.242-0.852,1.764
		c-0.468,0.52-0.885,1.084-1.406,1.56c-0.152,0.139-0.035,0.226,0.11,0.232c0.264,0.011,0.506-0.081,0.731-0.217
		c0.093-0.056,0.181-0.153,0.277-0.163c1.028-0.102,1.967-0.643,3.008-0.634c0.389,0.004,0.769,0.227,1.178,0.109
		c-0.046-0.018-0.101-0.039-0.156-0.061c0.19-0.102,0.19-0.102,0.925-0.018c-0.415-0.003-0.519,0.163-0.3,0.519
		c-0.226,0.01-0.44,0.02-0.654,0.03c-0.001,0.011-0.002,0.022-0.004,0.033c0.184,0.016,0.367,0.031,0.612,0.052
		c-0.504,0.349-1.035,0.359-1.534,0.381c-0.615,0.027-1.132,0.281-1.636,0.563c-0.216,0.121-0.429,0.226-0.66,0.293
		c-0.845,0.247-1.688,0.507-2.544,0.711c-0.674,0.161-1.078,0.745-1.697,0.99c-0.309,0.122-0.576,0.354-0.856,0.546
		c-0.162,0.111-0.344,0.21-0.47,0.526c2.547-1.14,5.006-2.237,7.654-3.076c-0.081,0.27-0.241,0.288-0.365,0.337
		c-0.657,0.26-1.307,0.536-1.961,0.801c-0.335,0.136-0.414,0.484-0.743,0.622c-1.387,0.585-2.698,1.337-4.131,1.828
		c-0.712,0.244-1.425,0.518-2.069,0.934c-0.322,0.208-0.482,0.472-0.495,0.868c-0.01,0.298,0.075,0.321,0.323,0.254
		c0.689-0.186,1.373-0.44,2.075-0.512c1.059-0.108,2.134-0.212,3.184,0.165c0.372,0.134,0.718,0.306,0.951,0.599
		c0.302,0.38,0.646,0.442,1.071,0.328L27.471,20.859z M26.484,22.391c0.007-0.475-0.327-0.666-0.806-0.466
		c-0.78,0.325-1.503,0.748-2.185,1.245c-0.504,0.367-0.907,0.815-1.167,1.384c-0.055,0.12-0.176,0.252-0.086,0.376
		c0.1,0.136,0.255,0.029,0.377-0.005c1.231-0.336,2.351-0.91,3.39-1.639C26.296,23.084,26.513,22.789,26.484,22.391z M18.261,15.705
		c0.145,0.007,0.299-0.048,0.436-0.14c0.249-0.166,0.474-0.351,0.646-0.607c0.233-0.346,0.391-0.75,0.757-0.997
		c0.096-0.065,0.26-0.15,0.188-0.273c-0.093-0.16-0.249-0.022-0.356,0.031c-0.694,0.34-1.385,0.686-2.071,1.044
		c-0.14,0.073-0.257,0.197-0.373,0.309c-0.107,0.104-0.099,0.229,0.021,0.315C17.728,15.544,17.939,15.725,18.261,15.705z
		 M23.847,12.988c0.385-0.304,0.804-0.564,1.113-0.956c0.048-0.062,0.128-0.123,0.083-0.212c-0.056-0.112-0.161-0.069-0.252-0.054
		C24.118,11.883,23.975,12.424,23.847,12.988z"/>
	
		<linearGradient id="SVGID_00000149383857698510764250000014155280283366821801_" gradientUnits="userSpaceOnUse" x1="-27.8333" y1="25.1013" x2="105.3687" y2="25.1013">
		<stop  offset="0" style="stop-color:#B0854E"/>
		<stop  offset="0.4799" style="stop-color:#FFEC81"/>
		<stop  offset="1" style="stop-color:#B98E53"/>
	</linearGradient>
	<path fill="url(#SVGID_00000149383857698510764250000014155280283366821801_)" d="M35.46,17.682c0.168,0.133,0.242,0.33,0.35,0.495
		c0.15,0.228,0.161,0.545,0.393,0.701c0.233,0.157,0.471-0.01,0.7-0.074c0.575-0.16,1.15-0.325,1.721-0.5
		c0.219-0.067,0.473-0.118,0.634-0.262c0.483-0.431,0.942-0.228,1.388,0.014c0.343,0.186,0.644,0.446,1.02,0.577
		c0.107,0.037,0.188,0.104,0.191,0.236c0.021,0.812-0.216,1.527-0.832,2.074c-0.218,0.194-0.353,0.443-0.648,0.721
		c0.331,0,0.565,0.008,0.798-0.001c1.13-0.043,2.191-0.353,3.175-0.899c0.581-0.322,0.647-0.891,0.682-1.524
		c0.056-1.027-0.763-1.413-1.22-2.067c-0.051-0.073-0.274-0.122-0.071-0.274c0.114-0.085,0.198-0.149,0.347-0.025
		c0.806,0.667,1.422,1.482,1.902,2.404c0.207,0.397,0.219,0.756-0.055,1.177c-0.975,1.502-2.494,1.928-4.113,2.11
		c-0.582,0.065-1.179,0.137-1.784,0.073c-0.344-0.037-0.629,0.275-0.893,0.506c-0.085,0.075-0.031,0.172,0.04,0.251
		c0.182,0.201,0.332,0.444,0.546,0.601c0.44,0.321,0.542,0.835,0.571,1.27c0.015,0.221-0.01,0.534-0.047,0.802
		c-0.03,0.212-0.243,0.278-0.396,0.384c-0.113,0.079-0.246,0.152-0.178,0.32c0.053,0.132,0.154,0.199,0.31,0.222
		c0.484,0.071,0.97,0.057,1.579,0.056c-0.362,0.179-0.638,0.172-0.905,0.205c-0.077,0.01-0.181,0.013-0.187,0.117
		c-0.005,0.091,0.079,0.135,0.155,0.168c0.05,0.021,0.103,0.046,0.155,0.048c0.893,0.043,1.77,0.35,2.681,0.154
		c0.331-0.071,0.676-0.049,1.015,0.004c0.369,0.058,0.419,0.157,0.244,0.51c0.229,0.075,0.445-0.107,0.686-0.037
		c-0.356,0.403-0.785,0.669-1.257,0.876c-0.097,0.043-0.204,0.102-0.265,0.184c-0.526,0.713-1.291,0.791-2.084,0.805
		c-0.176,0.003-0.362-0.003-0.525,0.052c-0.711,0.237-1.484,0.189-2.182,0.482c-0.03,0.013-0.075-0.009-0.125-0.058
		c0.573-0.364,1.277-0.299,1.877-0.577c-0.853,0.111-1.69,0.294-2.506,0.59c0.067,0.16,0.249,0.004,0.336,0.188
		c-0.446,0.018-0.835,0.331-1.3,0.069c-0.192-0.108-0.486,0.097-0.72,0.289c-0.207,0.17-0.5,0.23-0.774,0.197
		c-0.397-0.049-0.773-0.104-1.014,0.33c-0.055,0.099-0.966,0.148-1.122,0.115c-0.085-0.018-0.185,0.025-0.277,0.048
		c-0.516,0.129-0.945,0.458-1.438,0.638c-0.607,0.222-1.21,0.475-1.88,0.381c-0.356-0.05-0.642,0.028-0.818,0.376
		c-0.06,0.119-0.149,0.23-0.322,0.189c-0.163-0.039-0.205-0.143-0.213-0.297c-0.005-0.089-0.096-0.177-0.094-0.264
		c0.012-0.507-0.356-0.512-0.693-0.511c-0.195,0.001-0.348-0.019-0.453-0.191c-0.121-0.198-0.02-0.37,0.079-0.532
		c0.291-0.475,0.816-0.539,1.277-0.631c0.844-0.167,1.587-0.511,2.29-0.991c0.592-0.404,1.281-0.652,1.82-1.151
		c0.663-0.614,1.348-1.204,2.01-1.862c-0.383,0.143-0.758,0.036-1.132,0.045c-0.553,0.014-1.096-0.093-1.644-0.14
		c-0.17-0.014-0.376-0.037-0.409-0.259c-0.03-0.205,0.081-0.358,0.248-0.481c0.404-0.297,0.735-0.68,1.25-0.841
		c0.419-0.131,0.369-0.614,0.478-0.957c0.045-0.141,0.03-0.293,0.2-0.357c-0.077-0.097-0.136-0.041-0.194-0.029
		c-0.658,0.133-0.923-0.048-1.154-0.707c-0.113-0.323-0.234-0.598-0.521-0.783c-0.197-0.127-0.219-0.28-0.119-0.487
		c0.224-0.462,0.418-0.938,0.653-1.394c0.16-0.311,0.443-0.504,0.766-0.638c0.484-0.202,0.897-0.46,1.119-0.991
		c0.198-0.475,0.52-0.89,0.884-1.261L35.46,17.682z M35.052,23.607c0.026-0.007,0.054-0.009,0.079-0.02
		c0.561-0.25,1.083-0.551,1.356-1.138c0.05-0.108,0.091-0.215,0.207-0.218c0.445-0.013,0.641-0.37,0.895-0.639
		c0.137-0.145,0.201-0.333,0.054-0.517c-0.151-0.19-0.332-0.329-0.596-0.231c-0.362,0.135-0.634,0.366-0.749,0.746
		c-0.039,0.129-0.035,0.277-0.182,0.343c-0.212,0.095-0.277,0.281-0.322,0.487c-0.058,0.266-0.156,0.498-0.455,0.586
		c-0.213,0.063-0.302,0.265-0.406,0.437C34.857,23.566,34.925,23.616,35.052,23.607z"/>
	
		<linearGradient id="SVGID_00000168114262717734207490000006169814123597050281_" gradientUnits="userSpaceOnUse" x1="-27.8333" y1="20.187" x2="105.3687" y2="20.187">
		<stop  offset="0" style="stop-color:#B0854E"/>
		<stop  offset="0.4799" style="stop-color:#FFEC81"/>
		<stop  offset="1" style="stop-color:#B98E53"/>
	</linearGradient>
	<path fill="url(#SVGID_00000168114262717734207490000006169814123597050281_)" d="M27.473,20.865
		c0.188-0.377,0.404-0.731,0.71-1.031c0.204-0.2,0.321-0.464,0.419-0.737c0.253-0.708,0.626-1.35,1.142-1.899
		c0.154-0.163,0.333-0.319,0.606-0.25c0.148,0.038,0.238-0.101,0.343-0.185c0.124-0.099,0.169-0.281,0.397-0.343
		c-0.159,0.333-0.294,0.639-0.332,0.97c-0.071,0.624,0.162,1.21,0.294,1.796c0.09,0.398,0.263-0.1,0.475-0.081
		c-0.324,0.565-0.561,1.144-0.655,1.777c-0.07,0.475-0.022,0.949-0.042,1.423c-0.018,0.423-0.339,0.779-0.755,0.775
		c-0.092-0.001-0.176,0.008-0.265,0.018c-0.82,0.093-0.82,0.091-0.91,0.855c-0.027-0.421-0.156-0.734-0.643-0.773
		c-0.137-0.011-0.129-0.217-0.137-0.353c-0.022-0.372-0.094-0.719-0.364-1.008c-0.248-0.266-0.184-0.641-0.285-0.96
		C27.471,20.859,27.473,20.865,27.473,20.865z"/>
	
		<linearGradient id="SVGID_00000061442694230764446620000012504489465652891310_" gradientUnits="userSpaceOnUse" x1="-27.8333" y1="13.33" x2="105.3687" y2="13.33">
		<stop  offset="0" style="stop-color:#B0854E"/>
		<stop  offset="0.4799" style="stop-color:#FFEC81"/>
		<stop  offset="1" style="stop-color:#B98E53"/>
	</linearGradient>
	<path fill="url(#SVGID_00000061442694230764446620000012504489465652891310_)" d="M36.051,11.973
		c-0.016-0.242-0.288-0.293-0.362-0.596c0.555,0.332,1.08,0.198,1.604,0.09c0.066-0.014,0.153-0.011,0.193-0.052
		c0.417-0.422,0.797-0.138,1.154,0.078c0.345,0.208,0.808,0.318,0.859,0.839c0.005,0.051,0.033,0.109,0.07,0.145
		c0.558,0.549,0.302,1.145,0.104,1.739c-0.057,0.171-0.175,0.28-0.347,0.308c-0.482,0.078-0.971,0.163-1.441-0.039
		c-0.408-0.176-0.77-0.137-1.163,0.073c-0.574,0.306-1.175,0.56-1.768,0.828c-0.104,0.047-0.213,0.127-0.405,0.042
		c0.407-0.242,0.783-0.461,1.155-0.686c0.712-0.432,0.811-0.926,0.276-1.564c-0.297-0.354-0.392-0.8-0.622-1.182
		c-0.034-0.057-0.049-0.133,0.015-0.186c0.074-0.062,0.157-0.048,0.221,0.013C35.724,11.942,35.848,12.066,36.051,11.973z"/>
	
		<linearGradient id="SVGID_00000119093845875397120120000004176826035069344411_" gradientUnits="userSpaceOnUse" x1="-27.8333" y1="16.7551" x2="105.3687" y2="16.7551">
		<stop  offset="0" style="stop-color:#B0854E"/>
		<stop  offset="0.4799" style="stop-color:#FFEC81"/>
		<stop  offset="1" style="stop-color:#B98E53"/>
	</linearGradient>
	<path fill="url(#SVGID_00000119093845875397120120000004176826035069344411_)" d="M35.466,17.679
		c-0.88,0.259-1.68-0.024-2.472-0.467c0.003-0.11,0.175-0.154,0.322-0.215c0.503-0.206,1.017-0.386,1.51-0.613
		c0.985-0.452,2.031-0.567,3.092-0.596c1-0.028,2.003-0.115,3.002,0.013c0.653,0.084,1.365-0.004,1.938,0.635
		c-1.306-0.103-2.547-0.266-3.783,0.08c-1.221,0.342-2.389,0.842-3.613,1.167C35.46,17.682,35.466,17.679,35.466,17.679z"/>
	
		<linearGradient id="SVGID_00000047758636946697121010000012404839342677884566_" gradientUnits="userSpaceOnUse" x1="-27.8333" y1="26.181" x2="105.3687" y2="26.181">
		<stop  offset="0" style="stop-color:#B0854E"/>
		<stop  offset="0.4799" style="stop-color:#FFEC81"/>
		<stop  offset="1" style="stop-color:#B98E53"/>
	</linearGradient>
	<path fill="url(#SVGID_00000047758636946697121010000012404839342677884566_)" d="M8.939,26.68
		c-0.084,0.414-0.476,0.531-0.62,0.839c-0.508-0.196-0.281,0.457-0.662,0.516c0.153-0.335-0.005-0.668,0.16-0.992
		c0.199-0.39,0.276-0.82,0.321-1.253c0.011-0.104,0.02-0.249-0.038-0.308c-0.078-0.079-0.226-0.081-0.133-0.256
		c0.071-0.133,0.156-0.095,0.27-0.08c0.228,0.03,0.284-0.167,0.354-0.325c0.074-0.166,0.065-0.367,0.248-0.496
		c-0.317,0.697,0.058,1.504-0.384,2.18c-0.069,0.106-0.1,0.246,0.022,0.331C8.66,26.964,8.761,26.758,8.939,26.68z"/>
</g>
</svg>
