<svg xmlns="http://www.w3.org/2000/svg" xmlns:xlink="http://www.w3.org/1999/xlink" viewBox="0 0 48 48" width="48px"
    height="48px">
    <defs>
        <linearGradient id="linear0" gradientUnits="userSpaceOnUse" x1="86.188133" y1="16.503941" x2="86.188133"
            y2="226.806183" gradientTransform="matrix(0.27907,0,0,0.27907,0,0)">
            <stop offset="0" style="stop-color:rgb(4.705882%,4.705882%,4.705882%);stop-opacity:1;" />
            <stop offset="0.695" style="stop-color:rgb(6.666667%,6.666667%,6.666667%);stop-opacity:1;" />
        </linearGradient>
        <linearGradient id="linear1" gradientUnits="userSpaceOnUse" x1="85.054001" y1="30.126881" x2="85.054001"
            y2="195.913376" gradientTransform="matrix(0.27907,0,0,0.27907,0,0)">
            <stop offset="0" style="stop-color:rgb(26.666668%,26.666668%,26.666668%);stop-opacity:1;" />
            <stop offset="0.699" style="stop-color:rgb(28.627452%,28.627452%,28.627452%);stop-opacity:1;" />
        </linearGradient>
    </defs>
    <g id="surface29145112">
        <rect x="0" y="0" width="48" height="48"
            style="fill:rgb(94.509804%,76.862746%,5.882353%);fill-opacity:1;stroke:none;" />
        <path style=" stroke:none;fill-rule:nonzero;fill:url(#linear0);"
            d="M 24.082031 43.476562 C 16.734375 43.476562 9.683594 39.304688 6.378906 32.21875 C 1.835938 22.472656 6.066406 10.847656 15.8125 6.304688 C 20.535156 4.101562 25.828125 3.871094 30.722656 5.652344 C 35.617188 7.433594 39.523438 11.011719 41.726562 15.734375 C 46.269531 25.480469 42.039062 37.105469 32.292969 41.648438 C 29.636719 42.890625 26.839844 43.476562 24.082031 43.476562 Z M 24.042969 5.964844 C 21.449219 5.964844 18.867188 6.535156 16.445312 7.664062 C 7.449219 11.859375 3.542969 22.585938 7.738281 31.582031 C 11.933594 40.578125 22.664062 44.484375 31.660156 40.289062 C 40.65625 36.09375 44.558594 25.363281 40.367188 16.371094 C 38.332031 12.011719 34.726562 8.707031 30.210938 7.058594 C 28.203125 6.328125 26.121094 5.964844 24.042969 5.964844 Z M 16.128906 6.984375 L 16.136719 6.984375 Z M 30.074219 36.890625 L 30.082031 36.890625 Z M 30.074219 36.890625 " />
        <path style=" stroke:none;fill-rule:nonzero;fill:url(#linear1);"
            d="M 23.738281 39.046875 C 23.117188 39.046875 22.492188 39.011719 21.882812 38.9375 C 20.027344 38.71875 18.632812 37.210938 18.5625 35.355469 C 18.449219 32.472656 18.382812 29.425781 18.355469 26.296875 C 18.3125 22.964844 18.308594 19.753906 18.34375 16.753906 C 18.351562 15.761719 18.933594 14.824219 19.824219 14.371094 C 20.207031 14.167969 20.644531 14.0625 21.085938 14.0625 C 21.753906 14.0625 22.394531 14.300781 22.886719 14.738281 C 25.164062 16.710938 27.464844 18.757812 29.714844 20.8125 C 32.011719 22.882812 34.277344 24.988281 36.4375 27.0625 C 37.726562 28.296875 37.957031 30.300781 36.980469 31.820312 C 35.371094 34.320312 33.09375 36.308594 30.390625 37.570312 C 28.289062 38.550781 26.050781 39.046875 23.738281 39.046875 Z M 15.277344 35.679688 C 15.488281 32.546875 15.65625 29.375 15.765625 26.242188 C 15.828125 24.898438 15.867188 23.554688 15.90625 22.210938 L 15.910156 22.082031 C 15.933594 21.253906 15.960938 20.429688 15.988281 19.601562 C 16.007812 19.226562 16.011719 18.789062 16.015625 18.335938 C 16.023438 17.542969 16.03125 16.722656 16.113281 16.070312 C 16.351562 14.496094 17.382812 13.078125 18.789062 12.371094 C 19.496094 11.996094 20.300781 11.796875 21.121094 11.796875 C 21.90625 11.796875 22.679688 11.980469 23.359375 12.324219 C 24.046875 12.667969 24.746094 13.28125 25.429688 13.882812 C 25.71875 14.136719 26 14.382812 26.265625 14.59375 C 26.800781 15.042969 27.339844 15.492188 27.875 15.941406 C 29.035156 16.914062 30.199219 17.890625 31.382812 18.84375 C 33.832031 20.863281 36.285156 22.820312 38.671875 24.65625 C 38.917969 22.027344 38.453125 19.367188 37.328125 16.957031 C 34.875 11.695312 29.53125 8.296875 23.710938 8.296875 C 21.519531 8.296875 19.394531 8.769531 17.394531 9.703125 C 9.898438 13.195312 6.644531 22.140625 10.140625 29.636719 C 11.28125 32.078125 13.058594 34.171875 15.277344 35.679688 Z M 15.277344 35.679688 " />
    </g>
</svg>