<svg xmlns="http://www.w3.org/2000/svg" xmlns:xlink="http://www.w3.org/1999/xlink" viewBox="0 0 48 48" width="48px"
    height="48px">
    <defs>
        <linearGradient id="linear0" gradientUnits="userSpaceOnUse" x1="120.821419" y1="42.156059" x2="15.26333"
            y2="169.994446" gradientTransform="matrix(0.27907,0,0,0.27907,0,0)">
            <stop offset="0" style="stop-color:rgb(28.627452%,28.627452%,28.627452%);stop-opacity:1;" />
            <stop offset="0.699" style="stop-color:rgb(24.705882%,24.705882%,24.705882%);stop-opacity:1;" />
        </linearGradient>
        <linearGradient id="linear1" gradientUnits="userSpaceOnUse" x1="130.371887" y1="32.375198" x2="-3.52986"
            y2="194.539795" gradientTransform="matrix(0.27907,0,0,0.27907,0,0)">
            <stop offset="0" style="stop-color:rgb(6.666667%,6.666667%,6.666667%);stop-opacity:1;" />
            <stop offset="0.695" style="stop-color:rgb(2.745098%,2.745098%,2.745098%);stop-opacity:1;" />
        </linearGradient>
        <linearGradient id="linear2" gradientUnits="userSpaceOnUse" x1="96.23777" y1="34.518349" x2="78.307671"
            y2="134.691208" gradientTransform="matrix(0.27907,0,0,0.27907,0,0)">
            <stop offset="0" style="stop-color:rgb(6.666667%,6.666667%,6.666667%);stop-opacity:1;" />
            <stop offset="0.675" style="stop-color:rgb(2.745098%,2.745098%,2.745098%);stop-opacity:1;" />
        </linearGradient>
    </defs>
    <g id="surface29137537">
        <rect x="0" y="0" width="48" height="48"
            style="fill:rgb(94.509804%,76.862746%,5.882353%);fill-opacity:1;stroke:none;" />
        <path style=" stroke:none;fill-rule:nonzero;fill:url(#linear0);"
            d="M 14.210938 35.398438 C 13.730469 35 13.273438 34.574219 12.847656 34.128906 C 11.558594 32.777344 11.445312 30.726562 12.570312 29.253906 C 14.316406 26.960938 16.207031 24.566406 18.179688 22.136719 C 20.265625 19.539062 22.308594 17.058594 24.242188 14.769531 C 24.882812 14.011719 25.929688 13.660156 26.90625 13.875 C 27.328125 13.964844 27.734375 14.160156 28.074219 14.441406 C 28.589844 14.867188 28.929688 15.460938 29.03125 16.113281 C 29.53125 19.082031 30.003906 22.121094 30.429688 25.140625 C 30.882812 28.203125 31.289062 31.265625 31.636719 34.238281 C 31.84375 36.015625 30.742188 37.703125 29.023438 38.253906 C 26.191406 39.160156 23.167969 39.242188 20.28125 38.496094 C 18.035156 37.910156 15.992188 36.871094 14.210938 35.398438 Z M 9.828125 27.414062 C 11.988281 25.132812 14.136719 22.789062 16.214844 20.445312 C 17.121094 19.449219 18.007812 18.4375 18.894531 17.425781 L 18.976562 17.332031 C 19.523438 16.707031 20.066406 16.085938 20.617188 15.46875 C 20.871094 15.1875 21.148438 14.855469 21.441406 14.507812 C 21.953125 13.902344 22.480469 13.273438 22.960938 12.824219 C 24.144531 11.761719 25.847656 11.324219 27.378906 11.675781 C 28.160156 11.835938 28.910156 12.195312 29.542969 12.71875 C 30.148438 13.21875 30.628906 13.851562 30.933594 14.550781 C 31.242188 15.253906 31.394531 16.171875 31.539062 17.070312 C 31.601562 17.449219 31.660156 17.820312 31.726562 18.148438 C 31.859375 18.835938 31.984375 19.523438 32.113281 20.210938 C 32.390625 21.703125 32.664062 23.199219 32.96875 24.6875 C 33.574219 27.804688 34.21875 30.871094 34.886719 33.808594 C 36.75 31.9375 38.089844 29.589844 38.757812 27.015625 C 40.214844 21.398438 38.257812 15.375 33.769531 11.667969 C 32.078125 10.273438 30.140625 9.285156 28.003906 8.730469 C 20 6.652344 11.796875 11.476562 9.71875 19.480469 C 9.042969 22.09375 9.078125 24.835938 9.828125 27.414062 Z M 9.828125 27.414062 " />
        <path style=" stroke:none;fill-rule:nonzero;fill:rgb(100%,100%,100%);fill-opacity:1;"
            d="M 29.25 21 L 30.75 21 L 30.75 22.5 L 29.25 22.5 Z M 29.25 21 " />
        <path style=" stroke:none;fill-rule:nonzero;fill:url(#linear1);"
            d="M 11.65625 39.027344 C 5.992188 34.351562 3.210938 26.644531 5.175781 19.078125 C 7.875 8.667969 18.539062 2.398438 28.945312 5.101562 C 33.988281 6.410156 38.21875 9.601562 40.859375 14.089844 C 43.5 18.582031 44.230469 23.828125 42.925781 28.871094 C 40.226562 39.28125 29.558594 45.550781 19.152344 42.851562 C 16.3125 42.113281 13.78125 40.785156 11.65625 39.027344 Z M 35.507812 10.082031 C 33.511719 8.429688 31.15625 7.222656 28.570312 6.554688 C 18.964844 4.058594 9.121094 9.847656 6.625 19.453125 C 4.132812 29.058594 9.921875 38.90625 19.527344 41.398438 C 29.136719 43.890625 38.980469 38.101562 41.472656 28.496094 C 42.679688 23.839844 42.003906 18.996094 39.566406 14.851562 C 38.484375 13.007812 37.109375 11.402344 35.507812 10.082031 Z M 28.757812 5.824219 L 28.765625 5.832031 Z M 20.46875 37.769531 L 20.476562 37.773438 Z M 20.46875 37.769531 " />
        <path style=" stroke:none;fill-rule:nonzero;fill:rgb(100%,100%,100%);fill-opacity:1;"
            d="M 27.601562 37.207031 L 21.816406 37.464844 C 21.480469 37.480469 21.140625 37.457031 20.816406 37.398438 C 19.96875 37.246094 19.183594 36.855469 18.539062 36.246094 C 17.644531 35.40625 17.140625 34.273438 17.113281 33.050781 L 16.964844 23.757812 L 17.707031 23.746094 C 17.707031 23.746094 17.707031 23.746094 17.714844 23.746094 L 20.128906 23.699219 L 20.128906 19.761719 L 17.734375 19.804688 L 17.644531 19.804688 L 16.894531 19.824219 L 16.808594 14.597656 C 16.765625 12.15625 18.632812 10.152344 21.0625 10.03125 L 26.675781 9.726562 C 27.902344 9.65625 29.074219 10.078125 29.980469 10.902344 C 30.882812 11.734375 31.394531 12.871094 31.425781 14.105469 L 31.511719 17.570312 C 31.554688 19.078125 31 20.511719 29.953125 21.597656 L 29.625 21.949219 C 30.132812 22.351562 30.566406 22.847656 30.917969 23.40625 C 31.429688 24.246094 31.714844 25.210938 31.738281 26.191406 L 31.902344 32.589844 C 31.960938 35.023438 30.039062 37.09375 27.601562 37.207031 Z M 27.601562 37.207031 " />
        <path style=" stroke:none;fill-rule:nonzero;fill:url(#linear2);"
            d="M 31.902344 32.589844 L 31.738281 26.1875 C 31.714844 25.210938 31.429688 24.246094 30.917969 23.40625 C 30.570312 22.847656 30.132812 22.351562 29.625 21.949219 L 29.957031 21.59375 C 31.003906 20.511719 31.558594 19.078125 31.515625 17.570312 L 31.425781 14.101562 C 31.394531 12.871094 30.882812 11.734375 29.980469 10.902344 C 29.078125 10.078125 27.902344 9.652344 26.679688 9.722656 L 21.0625 10.03125 C 18.632812 10.152344 16.765625 12.15625 16.808594 14.59375 L 16.894531 19.820312 L 17.644531 19.804688 L 17.734375 19.804688 L 20.128906 19.757812 L 20.132812 23.699219 L 17.714844 23.746094 C 17.707031 23.746094 17.707031 23.746094 17.707031 23.746094 L 16.964844 23.757812 L 17.117188 33.046875 C 17.140625 34.273438 17.648438 35.40625 18.539062 36.246094 C 19.1875 36.855469 19.96875 37.246094 20.816406 37.398438 C 21.140625 37.457031 21.480469 37.480469 21.820312 37.464844 L 27.605469 37.203125 C 30.039062 37.09375 31.960938 35.023438 31.902344 32.589844 Z M 27.535156 35.699219 L 21.753906 35.960938 C 20.9375 36.003906 20.164062 35.714844 19.566406 35.15625 C 18.972656 34.59375 18.628906 33.839844 18.613281 33.019531 L 18.484375 25.234375 L 21.632812 25.171875 L 21.636719 25.164062 L 23.507812 25.132812 L 23.644531 32.03125 C 23.648438 32.390625 23.914062 32.691406 24.261719 32.75 C 24.304688 32.761719 24.359375 32.761719 24.410156 32.765625 C 24.824219 32.753906 25.152344 32.417969 25.144531 31.996094 L 24.988281 24.347656 C 24.984375 24.148438 24.90625 23.960938 24.753906 23.828125 C 24.613281 23.6875 24.417969 23.613281 24.21875 23.617188 L 21.628906 23.671875 L 21.625 19.722656 L 23.707031 19.683594 C 24.117188 19.675781 24.445312 19.335938 24.4375 18.917969 L 24.359375 15.09375 C 24.351562 14.679688 24.011719 14.351562 23.59375 14.359375 C 23.179688 14.371094 22.851562 14.707031 22.859375 15.128906 L 22.917969 18.203125 L 18.371094 18.289062 L 18.304688 14.574219 C 18.273438 12.945312 19.519531 11.605469 21.144531 11.523438 L 26.761719 11.21875 C 27.574219 11.171875 28.355469 11.457031 28.957031 12.007812 C 29.558594 12.5625 29.902344 13.320312 29.925781 14.136719 L 30.011719 17.605469 C 30.042969 18.714844 29.632812 19.761719 28.871094 20.5625 L 27.234375 22.265625 L 28.101562 22.734375 C 28.722656 23.066406 29.257812 23.574219 29.632812 24.195312 C 30.011719 24.804688 30.21875 25.507812 30.234375 26.226562 L 30.402344 32.625 C 30.449219 34.246094 29.15625 35.632812 27.535156 35.699219 Z M 27.535156 35.699219 " />
    </g>
</svg>