<svg xmlns="http://www.w3.org/2000/svg" width="50" height="50" viewBox="0 0 48 48">
    <path fill="#4979b3"
        d="m23.838 44.946 8.728-8.118 10.351-4.161-2.639-9.438-8.118-3.044-1.523-6.799 3.451-2.537-1.827-4.161-8.321-2.334-7.612 1.928-2.334 4.668 3.857 3.552-2.131 5.886-7.206 2.943-3.754 8.727 11.873 6.191z" />
    <path fill="#283d5b"
        d="m30.188 6.472.598 1.675-4.427 2.153.24 10.169 7.656 3.349 1.436 5.503-6.819 2.871-4.666 5.862-4.426-5.981-6.819-2.752 1.077-5.383 7.058-2.512.478-11.246-4.067-1.794.718-2.751 5.622-1.197z" />
    <path fill="#d6e5e5" d="m27 5.434-2.914 4.371-3.297-4.601 2.914-.844c-.001.001 1.686.691 3.297 1.074z" />
    <path
        d="M23.901 45.576h-.002c-.421-.002-3.129-2.656-3.155-2.683a66.84 66.84 0 0 1-1.196-1.263c-1.324-1.421-2.692-2.891-4.296-3.814-1.604-.925-3.356-1.712-5.05-2.474a91.623 91.623 0 0 1-3.182-1.48c-.281-.139-.829-.361-1.338-.568-1.396-.567-1.479-.601-1.479-.979 0-.486.23-.968.434-1.394.088-.186.175-.364.23-.527l.19-.571c.527-1.588 1.072-3.23 1.902-4.723.123-.221.331-.635.522-1.016.523-1.043.523-1.043.745-1.116.567-.181 1.082-.404 1.626-.64.242-.104.487-.21.74-.314.477-.196.967-.348 1.44-.494.615-.19 1.195-.37 1.74-.636.773-.378 1.26-.591 1.58-.693.053-.16.12-.39.162-.535.054-.187.104-.354.137-.448.101-.286.208-.568.315-.85.222-.584.432-1.135.59-1.718.088-.323.353-.965.639-1.651l.077-.183c-.984-.884-3.82-3.521-3.637-4.132.285-.956 1.898-4.028 2.254-4.383.042-.041 7.634-2.439 8.35-2.099.617.296 6.065 1.86 6.859 1.968.036.002.189.002.357.002.753.003.815.003.975.163.458.458 2.031 4.205 2.083 4.522.078.484-.347.911-2.393 2.404-.305.222-.547.396-.634.475a.544.544 0 0 1-.156.099c-.016.231.032.478.088.767.025.129.05.261.071.396.194 1.264.467 2.5.708 3.543.057.248.076.498.093.747.016.234.03.445.083.634 1.183.145 2.467.884 3.516 1.487.223.128.437.251.639.363a12.94 12.94 0 0 0 2.4 1.013c.126.032.688.049 1.129.044a.534.534 0 0 1 .467.306c.122.289.269.603.316.671.247.343.558 1.348 1.011 2.969l.254.878a53.2 53.2 0 0 1 .487 1.715c.103.396.297.915.484 1.417.445 1.193.59 1.624.415 1.962-.309.594-4.732 2.866-5.991 3.078-.881.148-4.057 1.148-4.338 1.28-.59.452-2.818 2.577-3.297 3.083-.675.712-3.585 3.439-4.396 4.035-.383.282-.57.498-.787.749a8.177 8.177 0 0 1-.426.465.498.498 0 0 1-.355.149zM5.251 32.035c.225.097.546.227.806.333.536.217 1.112.452 1.407.599 1.029.511 2.087.986 3.147 1.463 1.716.772 3.491 1.57 5.139 2.52 1.734.999 3.155 2.524 4.529 3.999.395.424.785.843 1.178 1.244.442.451 1.769 1.641 2.401 2.193l.065-.075c.235-.272.478-.553.952-.901.716-.526 3.549-3.166 4.263-3.918.507-.535 2.784-2.706 3.483-3.231.32-.24 4.027-1.313 4.712-1.429 1.174-.197 4.456-1.989 5.207-2.538-.064-.263-.255-.775-.401-1.167-.196-.526-.399-1.07-.515-1.515a48.889 48.889 0 0 0-.479-1.683l-.258-.892c-.44-1.574-.729-2.467-.86-2.655a3.962 3.962 0 0 1-.292-.56c-.402-.003-.888-.022-1.107-.091a13.832 13.832 0 0 1-2.584-1.091c-.207-.114-.427-.241-.656-.372-1.04-.599-2.334-1.344-3.346-1.378a.5.5 0 0 1-.272-.091.806.806 0 0 1-.206-.214c-.218-.422-.248-.855-.273-1.237-.013-.196-.024-.395-.069-.59-.245-1.061-.522-2.319-.721-3.615a9.192 9.192 0 0 0-.065-.359c-.093-.482-.19-.981-.004-1.541.097-.297.372-.344.503-.355.136-.106.347-.261.596-.443.507-.37 1.638-1.194 1.954-1.555-.234-.627-1.28-3.052-1.677-3.724-.307-.004-.781-.005-.848-.014-.864-.118-6.031-1.599-7.052-2.013-.856.075-6.538 1.589-7.347 1.907-.307.435-1.53 2.73-1.899 3.714.553.681 3.031 3.114 3.467 3.485l.013.008c.348.233.247.476-.023 1.123-.194.464-.519 1.241-.597 1.528-.172.629-.4 1.229-.62 1.81-.104.275-.209.55-.308.829-.029.082-.072.23-.119.393-.25.859-.326 1.119-.684 1.188a.516.516 0 0 1-.079.008c-.263.091-1.117.464-1.5.651-.615.3-1.26.499-1.883.692-.457.142-.914.282-1.356.464-.248.102-.486.205-.723.307-.489.211-.993.429-1.534.613-.08.152-.206.405-.34.672-.198.396-.414.824-.542 1.054-.784 1.411-1.314 3.008-1.827 4.552l-.191.573a5.813 5.813 0 0 1-.276.641c-.108.226-.225.47-.289.684zm37.311.388zM31.381 13.558l-.001.004.001-.004zm-.566-.571c-.001.001-.001.001 0 0-.001.001-.001.001 0 0z" />
    <path fill="#d6e5e5" d="m23.94 31.043 7.103-3.45-6.799-4.059-6.19 2.537-1.015 1.421z" />
    <path
        d="M24.051 38.82a.498.498 0 0 1-.404-.206l-.483-.638a10.375 10.375 0 0 1-.534-.715 24.158 24.158 0 0 0-1.096-1.48c-.249-.319-.498-.638-.736-.964a14.337 14.337 0 0 1-.476-.708c-.23-.358-.448-.696-.708-.995-.31-.354-.77-.57-1.256-.798l-.299-.142c-.819-.399-1.623-.709-2.474-1.037-.384-.148-.771-.297-1.163-.456-.146-.06-.335-.104-.535-.153-.618-.153-1.387-.343-1.73-.968-.149-.273-.068-.589.076-1.082.035-.121.071-.231.08-.3.15-1.389 1.255-3.92 1.302-4.027a.502.502 0 0 1 .277-.266c1.04-.402 2.056-.952 3.037-1.482.622-.336 1.243-.672 1.876-.977.345-.167.739-.295 1.119-.419.444-.146.902-.295 1.241-.494.008-.076.013-.169.015-.209.042-.492.018-.898-.006-1.328a21.205 21.205 0 0 1-.027-.563c-.033-1.062-.05-2.126-.066-3.191-.012-.776-.024-1.553-.043-2.329a7.64 7.64 0 0 1 .039-.748c.038-.458.085-1.03-.027-1.311-.071-.179-.271-.285-.594-.438l-.099-.047c-.576-.279-1.159-.524-1.746-.772l-.411-.165c-.815-.293-1.187-.426-1.233-.818-.087-.729.328-1.641.662-2.373l.131-.291a.499.499 0 1 1 .916.402l-.137.304c-.215.472-.523 1.149-.577 1.618.189.079.463.177.575.217.095.034.166.06.194.072l.265.112c.604.254 1.202.507 1.793.793l.093.044c.389.185.874.416 1.094.973.198.499.143 1.17.094 1.762-.02.239-.04.462-.035.642.019.778.031 1.558.043 2.336.016 1.059.033 2.118.066 3.175.005.179.016.358.026.538.026.447.052.909.01 1.382-.024.454-.061.773-.319.953-.466.324-1.057.518-1.629.704-.365.12-.71.232-.995.37-.62.299-1.227.627-1.834.956-.949.513-1.928 1.042-2.955 1.458-.254.603-1.031 2.509-1.144 3.546a3.341 3.341 0 0 1-.114.473c-.031.105-.083.281-.104.392.191.197.676.317 1.04.407.251.062.486.123.67.197.386.157.768.304 1.146.449.833.321 1.695.653 2.553 1.071l.286.135c.533.25 1.137.533 1.585 1.046.309.354.557.739.796 1.111.143.223.286.446.442.659.232.317.474.628.717.939.385.494.784 1.005 1.14 1.542.15.226.317.436.484.646l.211.27c.209-.225.41-.552.582-.833a8.62 8.62 0 0 1 .294-.46l.48-.686c.559-.802 1.136-1.631 1.762-2.399l.209-.266c.271-.349.578-.745.947-1.013.507-.368 1.08-.543 1.635-.712.185-.057.37-.113.548-.176.575-.205 1.138-.436 1.701-.666.427-.175.854-.35 1.286-.514a8.75 8.75 0 0 1 .362-.121c.248-.079.938-.298 1.215-.47-.009-.096-.029-.219-.037-.27l-.017-.114c-.092-.781-.324-1.532-.516-2.1-.227-.672-.421-1.351-.616-2.031l-.158-.55c-.038-.004-.375-.15-.502-.205-.088-.039-.164-.072-.216-.099-.57-.29-1.188-.541-1.785-.784a30.678 30.678 0 0 1-1.444-.616c-.662-.309-1.377-.561-2.069-.805l-.285-.101c-.076-.027-.153-.049-.228-.071-.385-.113-.911-.267-1.114-.907-.232-.731-.177-1.476-.124-2.197.021-.282.042-.562.043-.835.002-1.028-.102-2.079-.203-3.094-.034-.34-.067-.68-.098-1.021l-.05-.52c-.045-.45-.09-.903-.104-1.352-.001-.034-.007-.078-.013-.127-.028-.235-.063-.528.056-.768.493-.99 1.783-1.506 2.82-1.921.252-.101.486-.194.679-.285l.372-.18c.185-.091.37-.182.557-.266l.034-.013c-.039-.287-.188-.654-.304-.939-.05-.124-.098-.242-.138-.351a.5.5 0 0 1 .939-.343c.036.098.079.205.125.317.209.515.469 1.156.36 1.732-.056.31-.32.406-.6.507-.185.082-.359.167-.532.253l-.388.188c-.208.098-.461.2-.733.309-.833.333-1.973.79-2.296 1.438.015-.033.032.129.041.204.01.083.018.159.02.214.013.427.056.856.099 1.284l.051.53c.03.337.063.674.097 1.011.104 1.04.21 2.115.208 3.194 0 .296-.023.601-.045.908-.049.654-.094 1.272.08 1.82.036.114.098.149.442.25.093.027.187.055.28.088l.284.1c.714.251 1.453.512 2.16.841.458.214.928.405 1.398.596.616.251 1.254.51 1.862.819.039.02.095.044.16.072.513.223.948.439 1.065.844l.159.554c.19.665.38 1.328.602 1.985.208.614.459 1.43.562 2.303.08.503.116.851-.097 1.092-.312.353-.979.586-1.753.833-.131.042-.241.076-.311.103-.424.161-.843.333-1.262.505-.578.237-1.155.473-1.745.683-.193.068-.392.129-.591.19-.498.152-.968.295-1.339.565-.253.184-.514.52-.745.817l-.225.285c-.602.738-1.168 1.552-1.716 2.339l-.483.691c-.082.117-.167.257-.259.405-.328.536-.735 1.202-1.343 1.465a.452.452 0 0 1-.197.043z" />
    <path
        d="M24.026 31.715c-.546 0-1.021-.3-1.403-.542-.114-.071-.224-.142-.331-.2a482.504 482.504 0 0 0-5.323-2.788.5.5 0 0 1-.23-.64l.09-.227c.114-.296.256-.665.485-.938.595-.709 1.56-1.07 2.41-1.389.21-.079.414-.155.6-.233.339-.142 1.228-.583 1.741-.837l.349-.172c.125-.06.238-.119.344-.173.632-.325 1.177-.606 2.155-.174.203.09.401.194.593.304.289.166 3.645 1.967 4.294 2.288.077.038.171.063.265.091.214.064.458.138.657.298.21.17.343.378.459.562l.092.141c.087.107.206.253.195.467-.025.66-.811.988-1.188 1.146-.483.203-1.751.85-2.977 1.477-2.9 1.481-3.06 1.538-3.269 1.54l-.008-.001zm-6.197-4.211a424.23 424.23 0 0 1 4.938 2.589c.126.068.256.15.39.234.28.177.569.36.814.384.341-.132 1.742-.847 2.877-1.427 1.299-.664 2.526-1.291 3.024-1.5.262-.109.413-.19.501-.248l-.036-.055c-.083-.131-.161-.254-.244-.32-.047-.038-.209-.086-.316-.119a2.758 2.758 0 0 1-.421-.153c-.664-.328-4.015-2.126-4.348-2.317a5.498 5.498 0 0 0-.501-.257c-.541-.239-.715-.15-1.292.149-.113.058-.234.121-.367.185l-.339.167c-.531.263-1.45.718-1.8.864-.197.083-.412.163-.635.247-.735.275-1.568.587-1.995 1.096-.092.111-.177.298-.25.481zM23.886 10.493c-.571 0-.85-.64-1.037-1.071-.043-.098-.078-.187-.111-.239-.142-.201-.3-.393-.458-.585-.197-.24-.393-.48-.567-.737-.468-.693-.799-1.424-1.125-2.174a.5.5 0 0 1 .917-.399c.306.706.616 1.39 1.036 2.012.156.231.334.447.511.663.174.211.347.423.505.646.076.107.138.25.209.415.036.083.095.219.154.332.54-.653 1.676-2.704 2.08-3.434l.277-.497a.5.5 0 1 1 .871.491l-.273.49c-1.882 3.399-2.396 4.024-2.898 4.081a.707.707 0 0 1-.091.006zm-.142-.961z" />
</svg>