<?xml version="1.0" encoding="utf-8"?>
<!-- Generator: Adobe Illustrator 26.0.0, SVG Export Plug-In . SVG Version: 6.00 Build 0)  -->
<svg version="1.0" id="Layer_1" xmlns="http://www.w3.org/2000/svg" xmlns:xlink="http://www.w3.org/1999/xlink" x="0px" y="0px"
	 viewBox="0 0 50 50" enable-background="new 0 0 50 50" xml:space="preserve">
<g>
	<polygon fill="#AEAEAE" points="4.033,34.999 3.859,34.999 3.478,35.739 3.102,34.999 2.928,34.999 2.562,34.999 2.562,36.142 
		2.928,36.142 2.928,35.386 3.355,36.155 3.593,36.155 4.033,35.386 4.033,36.149 4.399,36.149 4.399,34.999 	"/>
	<g>
		<rect x="20.437" y="20.787" fill-rule="evenodd" clip-rule="evenodd" fill="#79B831" width="3.99" height="12.252"/>
		<rect x="25.663" y="20.787" fill-rule="evenodd" clip-rule="evenodd" fill="#79B831" width="3.99" height="12.252"/>
		<polygon fill-rule="evenodd" clip-rule="evenodd" fill="#AEAEAE" points="13.481,27.333 7.143,20.787 6.525,20.787 2.5,20.787 
			2.5,33.039 6.525,33.039 6.525,25.545 13.481,32.629 19.731,26.251 19.731,20.787 		"/>
		<polygon fill-rule="evenodd" clip-rule="evenodd" fill="#AEAEAE" points="36.519,26.494 42.857,33.039 43.475,33.039 47.5,33.039 
			47.5,20.787 43.475,20.787 43.475,28.282 36.519,21.198 30.269,27.575 30.269,33.039 		"/>
		<path fill="#AEAEAE" d="M7.489,34.999H6.694c-0.214,0-0.387,0.173-0.387,0.387v0.383c0,0.214,0.173,0.387,0.387,0.387h0.794
			c0.214,0,0.387-0.173,0.387-0.387v-0.383C7.876,35.172,7.703,34.999,7.489,34.999z M7.583,35.676c0,0.105-0.085,0.19-0.19,0.19
			H6.84c-0.105,0-0.19-0.085-0.19-0.19v-0.212c0-0.105,0.085-0.19,0.19-0.19h0.553c0.105,0,0.19,0.085,0.19,0.19V35.676z"/>
		<path fill="#AEAEAE" d="M10.844,34.999H9.783v1.156h1.061c0.26,0,0.47-0.21,0.47-0.47v-0.216
			C11.314,35.21,11.104,34.999,10.844,34.999z M11.01,35.627c0,0.128-0.103,0.231-0.231,0.231h-0.656v-0.594h0.656
			c0.128,0,0.231,0.103,0.231,0.231V35.627z"/>
		<polygon fill="#AEAEAE" points="14.483,35.319 14.483,34.999 13.596,34.999 13.21,34.999 13.21,35.319 13.21,35.417 13.21,35.737 
			13.21,36.155 13.278,36.155 13.596,36.155 14.483,36.155 14.483,35.836 13.596,35.836 13.596,35.737 14.415,35.737 14.415,35.417 
			13.596,35.417 13.596,35.319 		"/>
		<polygon fill="#AEAEAE" points="20.834,34.999 20.834,35.745 20.253,34.999 20.084,34.999 19.681,34.999 19.681,36.155 
			20.084,36.155 20.084,35.433 20.625,36.155 20.834,36.155 21.237,36.155 21.237,34.999 		"/>
		<polygon fill="#AEAEAE" points="43.077,35.319 43.077,34.999 42.19,34.999 41.804,34.999 41.804,35.319 41.804,35.417 
			41.804,35.737 41.804,36.155 41.872,36.155 42.19,36.155 43.077,36.155 43.077,35.836 42.19,35.836 42.19,35.737 43.009,35.737 
			43.009,35.417 42.19,35.417 42.19,35.319 		"/>
		<polygon fill="#AEAEAE" points="23.994,34.999 24.365,36.155 24.73,36.155 25.013,35.458 25.295,36.155 25.642,36.155 
			25.998,34.999 25.686,34.999 25.466,35.791 25.127,34.999 24.839,34.999 24.583,35.802 24.326,34.999 		"/>
		<path fill="#AEAEAE" d="M28.326,34.999H27.92l-0.668,1.156h0.396l0.131-0.209h0.672l0.148,0.209h0.413L28.326,34.999z
			 M27.917,35.67l0.206-0.343l0.206,0.343H27.917z"/>
		<path fill="#AEAEAE" d="M31.595,35.705c0,0,0.165-0.074,0.165-0.319c0-0.246-0.144-0.387-0.144-0.387h-1.194v1.156h0.285v-0.342
			h0.66c0,0,0.079,0.097,0.077,0.342h0.287C31.732,36.155,31.782,35.86,31.595,35.705z M31.432,35.484
			c0,0.058-0.047,0.105-0.105,0.105h-0.628v-0.32h0.628c0.058,0,0.105,0.047,0.105,0.105V35.484z"/>
		<path fill="#AEAEAE" d="M17.567,35.705c0,0,0.165-0.074,0.165-0.319c0-0.246-0.144-0.387-0.144-0.387h-1.194v1.156h0.285v-0.342
			h0.66c0,0,0.079,0.097,0.077,0.342h0.287C17.704,36.155,17.755,35.86,17.567,35.705z M17.404,35.484
			c0,0.058-0.047,0.105-0.105,0.105h-0.628v-0.32h0.628c0.058,0,0.105,0.047,0.105,0.105V35.484z"/>
		<polygon fill="#AEAEAE" points="34.537,35.335 34.537,34.999 33.693,34.999 33.29,34.999 33.29,35.335 33.29,35.464 33.29,35.773 
			33.29,36.155 33.693,36.155 33.693,35.773 34.449,35.773 34.449,35.464 33.693,35.464 33.693,35.335 		"/>
		<path fill="#AEAEAE" d="M36.83,34.999h-0.406l-0.668,1.156h0.396l0.131-0.209h0.672l0.148,0.209h0.413L36.83,34.999z
			 M36.421,35.67l0.206-0.343l0.206,0.343H36.421z"/>
		<path fill="#AEAEAE" d="M40.102,35.705c0,0,0.165-0.074,0.165-0.319c0-0.246-0.144-0.387-0.144-0.387H38.93v1.156h0.285v-0.342
			h0.66c0,0,0.079,0.097,0.077,0.342h0.287C40.239,36.155,40.29,35.86,40.102,35.705z M39.939,35.484
			c0,0.058-0.047,0.105-0.105,0.105h-0.628v-0.32h0.628c0.058,0,0.105,0.047,0.105,0.105V35.484z"/>
		<path fill-rule="evenodd" clip-rule="evenodd" fill="#AEAEAE" d="M44.767,35.491c-0.019-0.083-0.029-0.074-0.077-0.129
			c0.162-0.072,0.079-0.221,0.047-0.246c-0.069-0.052-0.244-0.043-0.336-0.024v0.546l0.091,0.004l0.001-0.235
			c0.205-0.008,0.168,0.067,0.211,0.234l0.097-0.001C44.788,35.591,44.779,35.541,44.767,35.491z M44.491,35.333l0.005-0.181
			C44.751,35.127,44.774,35.351,44.491,35.333z"/>
		<path fill-rule="evenodd" clip-rule="evenodd" fill="#AEAEAE" d="M44.767,35.491c-0.019-0.083-0.029-0.074-0.077-0.129
			c0.162-0.072,0.079-0.221,0.047-0.246c-0.069-0.052-0.244-0.043-0.336-0.024v0.546l0.091,0.004l0.001-0.235
			c0.205-0.008,0.168,0.067,0.211,0.234l0.097-0.001C44.788,35.591,44.779,35.541,44.767,35.491z M44.491,35.333l0.005-0.181
			C44.751,35.127,44.774,35.351,44.491,35.333z"/>
		<path fill-rule="evenodd" clip-rule="evenodd" fill="#AEAEAE" d="M44.767,35.491c-0.019-0.083-0.029-0.074-0.077-0.129
			c0.162-0.072,0.079-0.221,0.047-0.246c-0.069-0.052-0.244-0.043-0.336-0.024v0.546l0.091,0.004l0.001-0.235
			c0.205-0.008,0.168,0.067,0.211,0.234l0.097-0.001C44.788,35.591,44.779,35.541,44.767,35.491z M44.491,35.333l0.005-0.181
			C44.751,35.127,44.774,35.351,44.491,35.333z"/>
		<path fill-rule="evenodd" clip-rule="evenodd" fill="#AEAEAE" d="M45.073,35.275c-0.094-0.633-1.083-0.501-0.979,0.164
			C44.191,36.055,45.173,35.949,45.073,35.275z M44.653,35.767c-0.251,0.037-0.434-0.141-0.464-0.347
			c-0.082-0.564,0.722-0.655,0.791-0.127C45.013,35.533,44.851,35.738,44.653,35.767z"/>
		<rect x="45.97" y="34.999" fill-rule="evenodd" clip-rule="evenodd" fill="#AEAEAE" width="0.547" height="1.156"/>
		<rect x="46.86" y="34.999" fill-rule="evenodd" clip-rule="evenodd" fill="#AEAEAE" width="0.547" height="1.156"/>
		<path fill-rule="evenodd" clip-rule="evenodd" fill="#AEAEAE" d="M39.708,18.589c-0.025-0.107-0.038-0.096-0.099-0.166
			c0.209-0.093,0.102-0.286,0.06-0.317c-0.088-0.067-0.315-0.056-0.433-0.031v0.704l0.117,0.005l0.001-0.303
			c0.264-0.011,0.217,0.086,0.273,0.302l0.125-0.001C39.735,18.717,39.723,18.653,39.708,18.589z M39.352,18.384l0.006-0.233
			C39.687,18.119,39.716,18.408,39.352,18.384z"/>
		<path fill-rule="evenodd" clip-rule="evenodd" fill="#AEAEAE" d="M39.708,18.589c-0.025-0.107-0.038-0.096-0.099-0.166
			c0.209-0.093,0.102-0.286,0.06-0.317c-0.088-0.067-0.315-0.056-0.433-0.031v0.704l0.117,0.005l0.001-0.303
			c0.264-0.011,0.217,0.086,0.273,0.302l0.125-0.001C39.735,18.717,39.723,18.653,39.708,18.589z M39.352,18.384l0.006-0.233
			C39.687,18.119,39.716,18.408,39.352,18.384z"/>
		<path fill-rule="evenodd" clip-rule="evenodd" fill="#AEAEAE" d="M39.708,18.589c-0.025-0.107-0.038-0.096-0.099-0.166
			c0.209-0.093,0.102-0.286,0.06-0.317c-0.088-0.067-0.315-0.056-0.433-0.031v0.704l0.117,0.005l0.001-0.303
			c0.264-0.011,0.217,0.086,0.273,0.302l0.125-0.001C39.735,18.717,39.723,18.653,39.708,18.589z M39.352,18.384l0.006-0.233
			C39.687,18.119,39.716,18.408,39.352,18.384z"/>
		<path fill-rule="evenodd" clip-rule="evenodd" fill="#AEAEAE" d="M40.102,18.31c-0.122-0.816-1.397-0.647-1.262,0.211
			C38.965,19.315,40.231,19.179,40.102,18.31z M39.561,18.944c-0.323,0.047-0.559-0.182-0.598-0.447
			c-0.106-0.727,0.931-0.845,1.021-0.164C40.025,18.643,39.816,18.907,39.561,18.944z"/>
		<path fill="#AEAEAE" d="M12.74,14.991v1.161h1.509v-0.989c0-0.726-0.589-1.315-1.315-1.315h-0.9c-0.726,0-1.315,0.589-1.315,1.315
			v0.989l0,0.706v0.928c0,0.682,0.589,1.235,1.315,1.235h0.9c0.726,0,1.315-0.553,1.315-1.235v-0.928H12.74v0.926v0.201v0.109
			v-0.109c0,0.111-0.078,0.201-0.174,0.201h-0.174c-0.096,0-0.174-0.09-0.174-0.201v0.109v-0.109v-0.201v-2.794v-0.087v-0.087
			c0-0.096,0.078-0.174,0.174-0.174h0.174c0.096,0,0.174,0.078,0.174,0.174v0.135V14.991z"/>
		<path fill="#AEAEAE" d="M17.334,13.849l-1.187,0.018l-1.187-0.018l-0.711,5.173h1.496l0.102-1.006h0.3h0.3l0.102,1.006h1.496
			L17.334,13.849z M16.147,17.141h-0.362l0.362-2.141l0.362,2.141H16.147z"/>
		<polygon fill="#AEAEAE" points="19.762,17.94 19.762,13.849 18.221,13.849 18.221,17.94 18.221,19.022 19.762,19.022 
			20.605,19.022 20.605,17.94 		"/>
		<polygon fill="#AEAEAE" points="22.445,17.94 22.445,13.849 20.905,13.849 20.905,17.94 20.905,19.022 22.445,19.022 
			23.288,19.022 23.288,17.94 		"/>
		<path fill="#AEAEAE" d="M27.241,13.849h-2.275v5.173h2.275c0.679,0,1.229-0.55,1.229-1.229v-2.714
			C28.47,14.399,27.92,13.849,27.241,13.849z M27.049,17.705c0,0.215-0.174,0.39-0.39,0.39h-0.167V14.74h0.167
			c0.215,0,0.39,0.174,0.39,0.39V17.705z"/>
		<path fill="#AEAEAE" d="M23.33,15.025L23.33,15.025c-0.285,0-0.519,0.234-0.519,0.519v0.796c0,0.285,0.234,0.519,0.519,0.519h0
			c0.285,0,0.519-0.234,0.519-0.519v-0.796C23.849,15.259,23.615,15.025,23.33,15.025z M23.463,16.503
			c0,0.064-0.052,0.116-0.116,0.116s-0.116-0.052-0.116-0.116v-1.055c0-0.064,0.052-0.116,0.116-0.116s0.116,0.052,0.116,0.116
			V16.503z"/>
		<polygon fill="#AEAEAE" points="24.712,15.495 24.712,15.025 24.37,15.025 23.955,15.025 23.955,15.495 23.955,15.762 
			23.955,16.153 23.955,16.839 24.37,16.839 24.37,16.153 24.643,16.153 24.643,15.762 24.37,15.762 24.37,15.495 		"/>
		<path fill="#AEAEAE" d="M30.644,13.849v4.307c0,0-0.011,0.132-0.171,0.132s-0.172-0.132-0.172-0.132v-4.311h-1.536v3.981
			c0,0.658,0.534,1.192,1.192,1.192h0.344v0.004h0.343h0.265c0.658,0,1.192-0.534,1.192-1.192v-3.981H30.644z"/>
		<polygon fill="#AEAEAE" points="35.694,13.849 32.49,13.849 32.49,14.952 33.335,14.952 33.335,19.022 34.849,19.022 
			34.849,14.952 35.694,14.952 		"/>
		<polygon fill="#AEAEAE" points="37.174,13.849 37.606,15.862 37.999,13.849 39.38,13.849 38.259,17.066 38.259,19.022 
			36.9,19.022 36.9,17.066 35.885,13.849 		"/>
	</g>
</g>
</svg>
