<svg version="1.1" id="Layer_1" xmlns="http://www.w3.org/2000/svg" xmlns:xlink="http://www.w3.org/1999/xlink" x="0px"
    y="0px" viewBox="0 0 50 50" style="enable-background:new 0 0 50 50;" xml:space="preserve">
    <style type="text/css">
        .st0 {
            fill: #FFD308;
        }
    </style>
    <path class="st0" d="M46,13.5v23.7c0,0.4-0.2,0.7-0.5,0.9L25,49.9c-0.3,0.2-0.7,0.2-1,0L3.5,38.1C3.2,37.9,3,37.5,3,37.2V13.5
	c0-0.4,0.2-0.7,0.5-0.9L24,0.8c0.3-0.2,0.7-0.2,1,0l20.5,11.8C45.8,12.8,46,13.2,46,13.5z" />
    <path d="M45.5,12.7L25,0.8c-0.3-0.2-0.7-0.2-1,0L3.5,12.7C3.2,12.8,3,13.2,3,13.5v23.7c0,0.4,0.2,0.7,0.5,0.9L24,49.9
	c0.3,0.2,0.7,0.2,1,0l20.5-11.8c0.3-0.2,0.5-0.5,0.5-0.9V13.5C46,13.2,45.8,12.8,45.5,12.7z M18,36l-4,2l-4-2.2v-20l3-1.8l5,2.8V36z
	 M29,30l-4.5,2.5l0,0l0,0L20,30V18l4.5,2.3L29,18V30z M39,35.8L35,38l-4-2V16.8l5-2.8l3,1.8V35.8z" />
</svg>