<?xml version="1.0" encoding="utf-8"?>
<!-- Generator: Adobe Illustrator 26.0.0, SVG Export Plug-In . SVG Version: 6.00 Build 0)  -->
<svg version="1.0" id="Layer_1" xmlns="http://www.w3.org/2000/svg" xmlns:xlink="http://www.w3.org/1999/xlink" x="0px" y="0px"
	 viewBox="0 0 50 50" enable-background="new 0 0 50 50" xml:space="preserve">
<g>
	<path fill="#FF6600" d="M12.112,2.524c0.215,0,0.41,0,0.606,0c3.253,0,6.505,0.006,9.758-0.008
		c0.397-0.002,0.665,0.142,0.973,0.385c0.741,0.586,0.931,1.291,0.929,2.226c-0.032,13.501-0.024,27.001-0.013,40.502
		c0,0.446-0.148,0.747-0.432,1.088c-0.523,0.629-1.127,0.792-1.922,0.782c-3.283-0.043-6.566-0.026-9.85-0.008
		c-0.457,0.002-0.602-0.114-0.6-0.588c0.018-4.28,0.013-8.561,0.005-12.841c-0.001-0.316,0.088-0.546,0.316-0.767
		c0.716-0.694,1.425-1.396,2.108-2.122c0.157-0.168,0.26-0.44,0.279-0.673c0.042-0.503,0.011-1.012,0.013-1.518
		c0.017-3.45,0.03-6.901,0.059-10.351c0.003-0.399-0.114-0.698-0.395-0.979c-0.585-0.584-1.147-1.19-1.705-1.8
		c-0.092-0.1-0.162-0.264-0.162-0.399c-0.008-4.234-0.005-8.469-0.003-12.703C12.075,2.706,12.089,2.661,12.112,2.524z"/>
	<path fill="#FF6600" d="M40.195,2.524c0,0.264,0,0.446,0,0.627c0,3.974-0.007,7.948,0.01,11.922
		c0.002,0.423-0.137,0.733-0.408,1.02c-0.537,0.567-1.085,1.124-1.602,1.708c-0.137,0.155-0.252,0.394-0.253,0.595
		c-0.014,4.035-0.014,8.071,0.001,12.106c0.001,0.201,0.109,0.448,0.249,0.595c0.698,0.733,1.435,1.429,2.132,2.164
		c0.15,0.158,0.266,0.42,0.267,0.635c0.015,4.357,0.007,8.715,0.02,13.073c0.001,0.408-0.127,0.522-0.526,0.521
		c-3.529-0.013-7.058-0.003-10.587-0.02c-0.215-0.001-0.453-0.135-0.639-0.265c-0.761-0.53-0.983-1.235-0.975-2.19
		c0.048-6.088,0.015-12.176,0.015-18.264c0-5.828,0.008-11.656,0.011-17.484c0.001-1.637,0.003-3.274-0.015-4.911
		c-0.004-0.364,0.135-0.605,0.356-0.888c0.603-0.773,1.339-0.986,2.308-0.966c3.006,0.063,6.015,0.023,9.022,0.023
		C39.762,2.524,39.943,2.524,40.195,2.524z"/>
</g>
</svg>
