<svg version="1.0" id="Layer_1" xmlns="http://www.w3.org/2000/svg" xmlns:xlink="http://www.w3.org/1999/xlink" x="0px"
    y="0px" viewBox="0 0 50 50" enable-background="new 0 0 50 50" xml:space="preserve">
    <g>
        <path fill="#3FA9F5" d="M35.949,41.504c-0.221,0.834-0.271,1.627,0.04,2.451c0.271,0.733-0.06,1.306-0.352,2.019
		c-0.713,1.768-1.919,1.547-3.335,1.326c-4.109-0.623-8.227-0.542-12.326,0.141c-0.884,0.151-1.688,0.08-1.939-1.025
		c-0.05-0.211-0.221-0.422-0.392-0.563c-0.593-0.522-0.663-1.135-0.382-1.818c0.723-1.818-0.05-3.295-1.065-4.711
		c-0.462-0.653-0.854-1.346-1.226-2.049c-0.552-1.075-0.171-2.079,0.131-3.104c0.08-0.301,0.281-0.442,0.603-0.261
		c0.834,0.452,1.668,0.894,1.617,2.049c-0.03,0.593,0.231,1.075,0.703,1.356c0.834,0.492,1.005,1.256,1.085,2.11
		c0.121,1.216,0.261,2.431,0.412,3.797c0.733-0.552,0.723-1.386,1.226-1.909c0.362,0.1,0.241,0.482,0.402,0.703
		c0.181,0.251,0.372,0.452,0.643,0.201c0.321-0.311,0.844-0.05,0.934-0.131c0.743-0.593,1.748,0.472,2.381-0.432
		c0.03-0.04,0.131-0.07,0.181-0.05c0.904,0.321,1.989-0.141,2.672,0.151c0.763,0.321,1.457-0.04,2.17,0.261
		c0.472,0.201,1.135-0.04,1.748,0.211c0.291,0.121,0.291-0.663,0.643-0.924c0.512,0.502,0.542,1.286,1.226,1.888
		c0.121-1.065,0.231-1.969,0.321-2.873c0.121-1.226,0.141-2.451,1.426-3.194c0.482-0.281,0.522-0.924,0.542-1.447
		c0.04-0.984,0.753-1.356,1.477-1.708c0.552-0.281,0.683,0.161,0.814,0.553c0.542,1.527,0.171,2.883-0.763,4.139
		C36.914,39.545,36.261,40.419,35.949,41.504z" />
        <path fill="#3FA9F5" d="M41.053,18.329c0.06,0.332-0.241,0.542-0.522,0.653c-0.402,0.151-0.824,0.241-1.246,0.342
		c-1.919,0.452-3.888,0.412-5.836,0.593c-3.496,0.311-6.982,0.211-10.477,0.151c-0.804-0.02-1.688,0.121-2.341-0.583
		c-0.211-0.231-0.352-0.07-0.482,0.08c-0.211,0.211-0.442,0.362-0.693,0.11c-0.271-0.261-0.241-0.623-0.06-0.914
		c0.462-0.733,1.155-1.145,1.999-1.155c0.914-0.02,1.517-0.131,1.868-1.236c0.332-1.055,1.537-1.497,2.501-2.019
		c0.432-0.231,0.743,0.171,1.025,0.442c0.422,0.402,0.763,0.633,1.135-0.09c0.241-0.472,0.683-0.402,0.974,0
		c0.392,0.532,0.753,1.095,1.095,1.668c0.171,0.271,0.392,0.603,0.161,0.924c-0.251,0.342-0.623,0.502-1.055,0.432
		c-0.492-0.08-0.974-0.241-1.607,0.151c1.296,0.251,2.411,0.321,3.546,0.281c3.084-0.11,6.178,0.311,9.272-0.08
		C40.56,18.048,40.982,17.897,41.053,18.329z" />
        <path fill="#3FA9F5" d="M41.354,20.519c-0.07-0.623-0.432-0.784-0.984-0.693c-2.431,0.412-4.892,0.482-7.353,0.583
		c-5.364,0.211-10.729,0.291-16.083-0.04c-2.331-0.151-3.546,1.567-5.123,2.702c-0.151,0.11-0.161,0.422-0.201,0.653
		c-0.271,1.286-0.11,2.582-0.191,3.878c-0.09,1.617,0.633,2.752,1.899,3.616c1.165,0.784,2.351,1.527,3.526,2.28
		c0.563,0.352,0.934,0.834,1.045,1.507c0.141,0.884,0.452,1.647,1.326,2.089c0.402,0.201,0.563,0.613,0.673,1.055
		c0.121,0.482,0.181,0.984,0.623,1.497c0.321-0.693,0.532-1.517,1.376-0.623c0.03,0.04,0.151,0.05,0.181,0.02
		c0.663-0.653,1.507,0.452,2.19-0.231c0.121-0.11,0.352,0.131,0.492,0.261c0.151,0.141,0.301,0.281,0.532,0.211
		c0.904-0.281,1.808-0.231,2.722-0.01c0.11,0.02,0.291-0.02,0.362-0.09c0.713-0.723,1.647,0.231,2.421-0.311
		c0.1-0.07,0.643,0.271,0.974-0.141c0.241-0.281,0.462-0.131,0.643,0.141c0.161,0.261,0.09,0.643,0.482,0.894
		c0.442-1.316,0.653-2.682,2.019-3.355c0.201-0.1,0.301-0.522,0.332-0.804c0.131-1.366,1.015-2.099,2.12-2.692
		c1.065-0.563,2.039-1.266,3.004-1.979c1.075-0.784,1.537-1.858,1.587-3.174C42.057,25.321,41.615,22.93,41.354,20.519z
		 M23.312,30.444c-0.442,0.593-1.286-0.06-1.929-0.221c-2.11-0.542-4.159-1.216-5.646-2.973c-0.904-1.075-1.487-2.27-1.657-3.667
		c-0.06-0.552,0.171-0.743,0.703-0.643c3.215,0.994,6.499,1.909,8.097,5.374C23.192,28.998,23.784,29.841,23.312,30.444z
		 M28.606,34.462c-1.326,0.432-2.642,0.342-3.918-0.191c-0.241-0.1-0.311-0.342-0.231-0.593c0.372-1.105,0.774-2.2,1.547-3.104
		c0.331-0.382,0.743-0.502,1.125-0.121c0.934,0.954,1.406,2.16,1.748,3.255C28.908,34.121,28.837,34.382,28.606,34.462z
		 M36.854,27.953c-1.798,1.577-4.058,2.059-6.278,2.632c-0.753,0.191-0.784-0.301-0.643-0.814c0.542-1.878,1.517-3.496,3.164-4.581
		c1.597-1.045,3.425-1.597,5.244-2.15c0.603-0.191,0.894,0.01,0.864,0.814C38.963,25.411,38.159,26.818,36.854,27.953z" />
        <path fill="#3FA9F5" d="M37.165,9.981c0.01,0.663,0.03,1.326-0.201,1.969c-0.432,1.165-1.517,1.909-2.692,1.828
		c-1.326-0.08-2.2-0.854-2.471-2.19c-0.211-1.015-0.141-2.049-0.131-3.084c0-0.824,0.372-1.226,1.216-1.185
		c0.532,0.02,1.065,0,1.597,0C37.446,7.309,37.145,6.988,37.165,9.981z" />
        <path fill="#3FA9F5" d="M42.459,10.614c-1.005-2.26-2.311-4.35-4.018-6.158c-0.753-0.794-1.637-1.175-2.762-1.145
		c-1.517,0.05-2.994,0.151-4.44,0.623c-0.442,0.151-0.914,0.301-1.436,0.01c0.482-0.623,1.175-0.462,1.738-0.753
		C29.42,2.407,27.26,2.437,25.1,2.578c-2.491,0.181-4.772,1.195-6.73,2.582c-2.059,1.447-3.817,3.315-5.937,4.711
		c-0.141,0.09-0.251,0.221-0.362,0.342c-0.201,0.221-0.522,0.462-0.382,0.753c0.171,0.372,0.542,0.1,0.794,0.03
		c1.868-0.482,3.717-1.025,5.475-1.858c1.005-0.482,2.069-0.713,3.194-0.713c-0.352,0.422-0.713,0.763-1.155,0.964
		c-3.094,1.426-5.846,3.456-8.8,5.133c-1.175,0.673-2.17,1.547-2.531,2.953c-0.332,1.296-0.774,2.542-1.256,3.787
		c-0.452,1.155-0.221,2.3,0.392,3.365c0.171,0.291,0.452,0.532,0.824,0.442c0.321-0.08,0.241-0.422,0.291-0.673
		c0.201-0.864,0.1-1.868,0.683-2.572c0.954-1.165,1.436-3.014,3.536-2.732c0.141,0.02,0.311-0.11,0.442-0.201
		c2.24-1.527,4.782-2.361,7.343-3.084c0.904-0.251,1.657-0.653,2.32-1.286c0.763-0.743,1.507-1.517,2.3-2.22
		c0.874-0.763,1.889-1.145,3.054-0.763c1.165,0.392,1.587,1.316,1.728,2.461c0.09,0.824,0.261,1.637,0.422,2.461
		c0.231,1.105,0.733,1.487,1.818,1.326c1.005-0.151,1.999-0.151,2.994-0.07c1.246,0.1,2.461-0.11,3.677-0.301
		c1.346-0.211,1.838-0.914,1.758-2.3c-0.02-0.412,0.01-0.763,0.412-1.035C42.861,13.096,43.172,12.212,42.459,10.614z
		 M37.788,11.167c-0.141,2.019-1.658,3.395-3.536,3.325c-1.808-0.08-3.184-1.547-3.245-3.516c-0.04-1.105,0-2.2-0.03-3.295
		c-0.02-0.763,0.332-1.115,1.065-1.115c0.804-0.01,1.597-0.01,2.401-0.01v-0.04h2.391c0.643,0,1.005,0.281,0.994,0.964
		C37.818,8.706,37.878,9.941,37.788,11.167z" />
    </g>
</svg>