<?xml version="1.0" encoding="utf-8"?>
<!-- Generator: Adobe Illustrator 26.0.0, SVG Export Plug-In . SVG Version: 6.00 Build 0)  -->
<svg version="1.0" id="Layer_1" xmlns="http://www.w3.org/2000/svg" xmlns:xlink="http://www.w3.org/1999/xlink" x="0px" y="0px"
	 viewBox="0 0 50 50" enable-background="new 0 0 50 50" xml:space="preserve">
<g>
	<path fill="#F56701" d="M7.479,24.181c-0.116-0.362-0.183-0.574-0.293-0.917c0.823,0.623,1.358,0.131,1.858-0.325
		c0.442-0.403,0.829-0.868,1.215-1.327c0.235-0.28,0.423-0.599,0.67-0.956c-0.427-0.223-0.903-0.357-1.375-0.296
		c-0.763,0.099-1.515,0.29-2.268,0.455c-0.127,0.028-0.246,0.11-0.36,0.183c-0.224,0.143-0.442,0.297-0.663,0.446
		c-0.052-0.025-0.105-0.05-0.157-0.075c0.082,0.17,0.163,0.339,0.282,0.586c-0.335-0.132-0.598-0.235-0.861-0.338
		c-0.028,0.036-0.057,0.072-0.085,0.107c0.164,0.237,0.327,0.475,0.491,0.712C5.912,22.468,5.89,22.5,5.868,22.531
		c-0.165-0.081-0.334-0.155-0.496-0.243c-0.583-0.314-1.188-0.593-1.737-0.958c-0.546-0.363-1.059-0.786-1.539-1.234
		c-0.252-0.234,0.024-0.924,0.434-1.063c0.919-0.312,1.651-0.897,2.362-1.518c0.687-0.6,1.454-1.034,2.34-1.269
		c0.543-0.144,0.613-0.289,0.392-0.79c-0.202-0.459-0.082-0.83,0.217-1.194c0.312-0.38,0.592-0.786,0.905-1.165
		c0.114-0.138,0.265-0.265,0.426-0.339c1.5-0.692,3.007-1.371,4.511-2.054c1.19-0.54,1.648-1.976,1-3.134
		c-0.222-0.398-0.441-0.797-0.662-1.196c0.025-0.042,0.05-0.083,0.075-0.125c0.414,0.061,0.835,0.09,1.24,0.187
		c1.426,0.345,2.782,0.846,3.85,1.913c0.325,0.324,0.717,0.322,1.123,0.273c1.192-0.144,2.374-0.094,3.542,0.196
		c0.254,0.063,0.498,0.182,0.754,0.22c0.282,0.042,0.596,0.093,0.858,0.013c1.423-0.434,2.867-0.601,4.345-0.422
		c0.481,0.058,0.855-0.068,1.218-0.401c1.391-1.278,3.118-1.731,5.091-2.005C35.93,6.616,35.84,6.925,35.66,7.165
		c-0.611,0.814-0.599,1.706-0.32,2.604c0.084,0.27,0.353,0.558,0.612,0.686c1.51,0.744,3.036,1.454,4.569,2.15
		c0.524,0.238,0.992,0.496,1.192,1.081c0.038,0.11,0.134,0.208,0.223,0.292c0.508,0.48,0.796,1.005,0.52,1.737
		c-0.044,0.118,0.175,0.473,0.313,0.499c1.403,0.262,2.339,1.275,3.424,2.051c0.335,0.239,0.695,0.47,1.078,0.61
		c0.752,0.275,0.982,0.973,0.405,1.532c-0.394,0.381-0.872,0.684-1.339,0.98c-0.61,0.387-1.246,0.735-1.874,1.094
		c-0.155,0.089-0.324,0.153-0.557,0.15c0.2-0.251,0.4-0.502,0.599-0.754c-0.021-0.036-0.042-0.071-0.063-0.107
		c-0.271,0.085-0.543,0.171-0.911,0.286c0.098-0.165,0.149-0.244,0.193-0.328c0.058-0.111,0.111-0.225,0.166-0.338
		c-0.137,0.005-0.274,0.008-0.41,0.015c-0.044,0.003-0.087,0.018-0.065-0.099c-0.256-0.167-0.492-0.394-0.772-0.489
		c-0.899-0.307-1.83-0.45-2.783-0.356c-0.217,0.021-0.428,0.103-0.72,0.177c0.784,1.105,1.457,2.173,2.601,2.777
		c0.29,0.154,0.697,0.088,1.08,0.126c-0.013,0.131-0.029,0.292-0.052,0.528c0.337-0.083,0.635-0.156,1.077-0.265
		c-0.148,0.234-0.214,0.358-0.299,0.469c-0.282,0.368-0.578,0.725-0.854,1.097c-0.442,0.596-0.842,0.678-1.525,0.361
		c-1.006-0.466-2.021-0.918-3.047-1.337c-0.218-0.089-0.505,0.004-0.757-0.019c-0.248-0.022-0.523-0.028-0.733-0.14
		c-0.611-0.328-1.187-0.721-1.797-1.052c-0.144-0.078-0.4-0.079-0.547-0.004c-0.722,0.368-1.38,0.804-1.708,1.613
		c-0.241,0.596-0.651,1.075-1.2,1.437c-0.601,0.397-0.805,1.039-0.93,1.701c-0.236,1.259-0.438,2.524-0.685,3.78
		c-0.046,0.234-0.184,0.521-0.371,0.646c-1.295,0.865-2.603,1.712-3.936,2.517c-0.217,0.131-0.619,0.126-0.862,0.017
		c-1.389-0.622-2.648-1.458-3.814-2.439c-0.381-0.321-0.532-0.709-0.614-1.193c-0.242-1.427-0.518-2.849-0.835-4.261
		c-0.063-0.28-0.322-0.577-0.572-0.74c-0.666-0.434-1.105-1.008-1.378-1.746c-0.457-1.235-1.755-1.633-2.84-0.905
		c-0.422,0.283-0.862,0.539-1.305,0.787c-0.088,0.049-0.246,0.037-0.346-0.007c-0.448-0.198-0.878-0.131-1.302,0.055
		c-0.862,0.379-1.723,0.762-2.581,1.15c-0.827,0.375-1.054,0.337-1.644-0.353c-0.414-0.484-0.808-0.986-1.149-1.546
		C6.598,23.842,6.981,23.989,7.479,24.181z M26.865,27.41c0.075,0.025,0.149,0.05,0.224,0.075c0.165-0.279,0.342-0.553,0.493-0.84
		c0.151-0.287,0.317-0.416,0.606-0.159c0.24,0.213,0.481,0.242,0.743,0.01c0.095-0.084,0.253-0.091,0.368-0.158
		c0.094-0.056,0.199-0.134,0.242-0.228c0.178-0.388,0.307-0.8,0.506-1.176c0.259-0.488,0.331-0.944,0.017-1.438
		c-0.472-0.742-0.915-1.502-1.381-2.248c-0.127-0.203-0.291-0.382-0.438-0.572c0.02-0.027,0.039-0.055,0.059-0.082
		c0.346,0.146,0.692,0.292,1.09,0.46c-0.022-0.208-0.033-0.307-0.045-0.427c0.533,0.398,1.005,0.8,1.526,1.125
		c0.532,0.332,0.783,0.211,1.162-0.292c0.453-0.602,0.917-1.206,1.454-1.729c0.335-0.326,0.436-0.628,0.263-1.015
		c-0.25-0.563-0.551-1.103-0.812-1.661c-0.132-0.282-0.29-0.27-0.506-0.11c-0.402,0.297-0.419,0.708-0.414,1.161
		c0.003,0.243-0.073,0.58-0.242,0.714c-0.522,0.416-1.107,0.745-1.832,0.601c-0.06-0.012-0.133,0.041-0.2,0.064
		c-0.033,0.046-0.067,0.092-0.1,0.138c0.188,0.094,0.376,0.189,0.564,0.283c-0.038,0.057-0.075,0.114-0.113,0.171
		c-0.258-0.074-0.549-0.094-0.768-0.231c-0.594-0.37-1.121-0.207-1.647,0.117c-0.197,0.122-0.387,0.256-0.58,0.385
		c-0.053-0.01-0.106-0.02-0.159-0.029c0.601-0.706,0.135-1.176-0.216-1.697c-0.211-0.314-0.386-0.675-0.479-1.039
		c-0.113-0.445-0.027-0.888,0.332-1.246c0.093,0.161,0.126,0.315,0.13,0.47c0.013,0.554,0.038,0.575,0.589,0.401
		c0.039,0.096,0.081,0.193,0.119,0.292c0.262,0.686,0.49,0.834,1.1,0.465c0.978-0.591,1.967-1.127,3.061-1.481
		c0.469-0.152,0.522-0.564,0.231-0.984c-0.114-0.165-0.262-0.31-0.354-0.485c-0.094-0.18-0.138-0.385-0.203-0.58
		c0.051-0.021,0.101-0.043,0.152-0.064c0.083,0.102,0.159,0.21,0.25,0.304c0.323,0.328,0.696,0.495,1.17,0.382
		c0.475-0.113,0.574-0.496,0.611-0.881c0.032-0.332-0.028-0.673-0.046-1.009c-0.014-0.248-0.026-0.497-0.042-0.798
		c0.135,0.065,0.176,0.083,0.214,0.103c0.136,0.072,0.272,0.145,0.408,0.217c0.046-0.154,0.143-0.313,0.128-0.461
		C34.044,11.619,34,11,33.857,10.407c-0.161-0.663-0.195-1.272,0.204-1.864c0.103-0.153,0.13-0.357,0.231-0.653
		c-0.267,0.081-0.44,0.096-0.568,0.18c-0.412,0.269-0.834,0.532-1.201,0.855c-0.623,0.548-0.605,0.721-0.125,1.401
		c0.186,0.263,0.294,0.581,0.456,0.912c-0.499-0.229-0.873-0.439-1.273-0.575c-0.491-0.167-0.956-0.339-1.277-0.784
		c-0.071-0.098-0.229-0.181-0.352-0.188c-1.233-0.071-2.472-0.19-3.673,0.234c-0.703,0.248-1.438,0.396-2.132,0.114
		c-1.302-0.531-2.639-0.414-3.978-0.349c-0.162,0.008-0.378,0.104-0.467,0.231c-0.564,0.803-1.55,0.628-2.331,1.023
		c0.058-0.299,0.213-0.521,0.319-0.765c0.105-0.239,0.304-0.585,0.214-0.735c-0.481-0.803-1.225-1.292-2.158-1.526
		c0.057,0.302,0.128,0.588,0.281,0.822c0.296,0.454,0.296,0.904,0.175,1.415c-0.149,0.625-0.236,1.268-0.308,1.908
		c-0.022,0.191,0.097,0.398,0.152,0.597c0.182-0.061,0.363-0.122,0.586-0.197c-0.01,0.15-0.009,0.314-0.033,0.473
		c-0.045,0.305-0.128,0.605-0.15,0.911c-0.035,0.49,0.116,0.924,0.539,1.21c0.41,0.277,0.761,0.05,1.109-0.169
		c0.133-0.084,0.285-0.138,0.428-0.206c0.032,0.038,0.064,0.076,0.096,0.114c-0.138,0.186-0.267,0.379-0.414,0.558
		c-0.484,0.589-0.303,1.04,0.418,1.266c0.668,0.21,1.304,0.524,1.942,0.819c0.264,0.122,0.489,0.324,0.743,0.471
		c0.74,0.43,1.055,0.306,1.338-0.509c0.024-0.069,0.058-0.135,0.096-0.224c0.14,0.094,0.257,0.174,0.477,0.322
		c0.057-0.448,0.103-0.811,0.169-1.324c0.14,0.259,0.239,0.387,0.283,0.532c0.205,0.672,0.051,1.28-0.362,1.833
		c-0.413,0.552-0.901,1.089-0.226,1.811c-0.127,0.01-0.162,0.024-0.182,0.012c-0.08-0.046-0.157-0.098-0.231-0.152
		c-0.661-0.479-1.313-0.99-2.154-0.325c-0.081,0.064-0.249,0.02-0.406,0.027c0.071-0.182,0.118-0.303,0.185-0.476
		c-0.172-0.025-0.303-0.058-0.435-0.062c-1.334-0.04-1.769-0.435-1.891-1.752c-0.043-0.459-0.278-0.73-0.807-0.863
		c-0.317,0.675-0.651,1.346-0.947,2.034c-0.143,0.332,0.006,0.61,0.255,0.872c0.456,0.479,0.914,0.965,1.305,1.496
		c0.71,0.966,1.023,1.019,1.931,0.205c0.115-0.103,0.211-0.227,0.327-0.328c0.148-0.127,0.308-0.239,0.482-0.372
		c0.07,0.16,0.12,0.274,0.18,0.412c0.366-0.193,0.698-0.369,1.028-0.543c-0.607,1.022-1.193,1.998-1.767,2.981
		c-0.262,0.45-0.244,0.904,0.004,1.367c0.189,0.352,0.341,0.725,0.503,1.091c0.223,0.505,0.831,0.77,1.307,0.5
		c0.368-0.209,0.518-0.073,0.685,0.232c0.161,0.294,0.362,0.565,0.546,0.847c0.06-0.025,0.121-0.05,0.181-0.075
		c-0.035-0.295-0.026-0.604-0.115-0.883c-0.12-0.376-0.076-0.543,0.363-0.545c0.326-0.002,0.651-0.088,1.109-0.156
		c0.174,0.159,0.501,0.293,0.906,0.037c0.09-0.057,0.259,0.004,0.39,0.023c0.227,0.034,0.457,0.129,0.678,0.109
		c0.479-0.044,0.509,0.181,0.426,0.557C26.886,26.878,26.889,27.147,26.865,27.41z M22.427,28.838
		c-0.044,0.007-0.089,0.013-0.133,0.02c-0.027,0.2-0.043,0.402-0.085,0.599c-0.046,0.218-0.069,0.462-0.186,0.639
		c-0.392,0.594-0.281,1.263,0.335,1.632c0.768,0.46,1.538,0.92,2.334,1.327c0.206,0.105,0.561,0.104,0.764-0.004
		c0.775-0.414,1.52-0.885,2.269-1.347c0.413-0.255,0.728-0.841,0.5-1.227c-0.301-0.511-0.36-1.048-0.479-1.589
		c-0.004-0.016-0.051-0.022-0.137-0.057c-0.254,0.439-0.514,0.888-0.825,1.426c-0.097-0.283-0.151-0.443-0.206-0.603
		c-0.05-0.029-0.101-0.057-0.151-0.086c-0.147,0.193-0.258,0.469-0.452,0.551c-0.137,0.058-0.385-0.148-0.486-0.193
		c-0.351,0-0.626,0-0.965,0c-0.53,0.82-0.647-0.262-1.05-0.351c-0.07,0.179-0.138,0.351-0.225,0.574
		C22.954,29.68,22.691,29.259,22.427,28.838z M11.858,14.104c-0.313,0.118-0.692,0.182-0.973,0.384
		c-0.566,0.406-1.079,0.886-1.735,1.438c0.311,0.104,0.521,0.253,0.701,0.222C10.946,15.96,11.864,15.55,11.858,14.104z
		 M38.392,14.401c0.069,0.444-0.048,0.932,0.422,1.174c0.434,0.224,0.895,0.404,1.358,0.56c0.124,0.042,0.301-0.07,0.453-0.112
		c-0.056-0.125-0.108-0.251-0.17-0.373c-0.041-0.081-0.102-0.151-0.143-0.232C39.985,14.775,39.196,14.34,38.392,14.401z
		 M21.467,18.578c-0.674-0.439-1.307-0.861-1.952-1.262c-0.113-0.07-0.282-0.05-0.424-0.072c-0.013,0.159-0.072,0.332-0.031,0.475
		C19.334,18.682,20.524,19.127,21.467,18.578z M28.669,18.636c0.067,0.038,0.126,0.085,0.193,0.108
		c0.798,0.279,1.479,0.001,2.017-0.852c0.08-0.127,0.051-0.324,0.072-0.488c-0.184-0.005-0.417-0.085-0.545-0.002
		C29.819,17.783,29.262,18.209,28.669,18.636z"/>
	<path fill="#F56701" d="M24.936,3.386c-4.191-0.106-8.311,0.475-12.391,1.393c-0.341,0.077-0.521,0.244-0.505,0.599
		c0.057,1.325,0.098,2.652,0.179,3.976c0.035,0.582-0.455,1.142-1.035,1.055c-0.106-0.016-0.246-0.229-0.26-0.363
		c-0.118-1.12-0.221-2.242-0.305-3.365c-0.051-0.677-0.043-1.359-0.091-2.036c-0.029-0.41,0.126-0.618,0.52-0.737
		c5.268-1.588,10.672-2.008,16.135-1.833c3.964,0.128,7.879,0.621,11.682,1.822c0.491,0.155,0.713,0.364,0.672,0.907
		c-0.122,1.647-0.191,3.299-0.308,4.947c-0.018,0.248,0.099,0.654-0.339,0.693c-0.399,0.035-1.018-0.493-1.006-0.849
		c0.033-1.034,0.055-2.071,0.149-3.1c0.14-1.532,0.149-1.55-1.335-1.899c-2.879-0.678-5.803-1.045-8.752-1.201
		C26.946,3.341,25.94,3.386,24.936,3.386z"/>
	<path fill="#F56701" d="M19.036,30.985c-0.659-0.728-1.377-1.411-1.963-2.193c-0.812-1.085-1.53-2.24-2.274-3.375
		c-0.277-0.423-0.137-0.718,0.363-0.817c0.436-0.086,0.739,0.126,0.98,0.467c0.818,1.157,1.644,2.308,2.453,3.47
		c0.495,0.711,0.521,1.542,0.627,2.349C19.16,30.918,19.098,30.951,19.036,30.985z"/>
	<path fill="#F56701" d="M30.954,30.952c-0.105-1.149,0.258-2.039,0.899-2.869c0.657-0.851,1.251-1.752,1.876-2.629
		c0.169-0.237,0.325-0.493,0.535-0.69c0.304-0.285,0.655-0.23,0.973,0.004c0.323,0.237,0.127,0.503-0.001,0.737
		c-1.063,1.933-2.397,3.663-3.963,5.215C31.2,30.793,31.106,30.843,30.954,30.952z"/>
	<path fill="#F56701" d="M27.002,24.507c-0.049-0.339-0.053-0.645-0.152-0.915c-0.038-0.102-0.332-0.203-0.446-0.155
		c-0.112,0.047-0.233,0.315-0.194,0.434c0.162,0.488-0.102,0.645-0.49,0.75c-0.573,0.156-1.138,0.162-1.646-0.174
		c-0.12-0.08-0.222-0.332-0.188-0.469c0.065-0.262,0.082-0.522-0.193-0.554c-0.173-0.02-0.449,0.176-0.543,0.349
		c-0.095,0.173-0.021,0.438-0.021,0.807c-0.367-0.226-0.703-0.391-0.98-0.625c-0.09-0.076-0.088-0.357-0.027-0.5
		c0.303-0.711,0.802-1.235,1.62-1.25c0.953-0.017,1.909,0.014,2.859,0.079c0.765,0.053,1.117,0.654,1.392,1.268
		c0.056,0.126-0.045,0.417-0.167,0.509C27.555,24.265,27.226,24.391,27.002,24.507z"/>
</g>
<g>
	<path fill="#808080" d="M9.918,47.837c-1.822,0-3.643-0.007-5.465,0.007c-0.314,0.002-0.437-0.045-0.436-0.405
		c0.016-3.135,0.016-6.271,0-9.406c-0.002-0.362,0.127-0.404,0.438-0.403c3.568,0.01,7.137,0.005,10.705,0.007
		c1.072,0.001,1.701,0.516,1.814,1.569c0.077,0.724,0.095,1.462-0.059,2.185c-0.124,0.583-0.415,1.022-1.068,1.098
		c-0.126,0.015-0.237,0.037-0.237,0.202c0.001,0.172,0.132,0.129,0.225,0.137c0.695,0.062,1.087,0.466,1.201,1.125
		c0.146,0.842,0.169,1.699-0.006,2.535c-0.188,0.897-0.779,1.343-1.694,1.346C13.531,47.842,11.725,47.837,9.918,47.837z
		 M10.599,43.805c-0.611,0-1.222-0.008-1.833,0.003c-0.383,0.007-0.885-0.166-1.117,0.067c-0.231,0.232-0.033,0.735-0.074,1.116
		c-0.032,0.3,0.082,0.367,0.368,0.364c1.505-0.014,3.01-0.007,4.514-0.006c1.17,0,1.163,0.001,1.121-1.165
		c-0.01-0.277-0.081-0.393-0.388-0.386C12.327,43.818,11.463,43.805,10.599,43.805z M10.5,40.125c-0.641,0-1.282,0-1.923,0
		c-1.007,0-0.988,0-1.007,1.02c-0.007,0.361,0.126,0.406,0.436,0.403c1.461-0.015,2.922-0.007,4.383-0.007
		c1.111,0,1.102,0,1.053-1.1c-0.012-0.261-0.106-0.324-0.348-0.321C12.229,40.132,11.365,40.125,10.5,40.125z"/>
	<path fill="#808080" d="M24.391,37.632c1.598,0,3.195-0.001,4.793,0c1.023,0.001,1.572,0.474,1.721,1.491
		c0.039,0.265,0.068,0.535,0.069,0.802c0.006,1.866,0.007,3.733,0.001,5.599c-0.002,0.448-0.043,0.893-0.208,1.318
		c-0.247,0.638-0.7,0.988-1.394,0.989c-3.329,0.002-6.659,0.002-9.988,0c-0.654,0-1.099-0.326-1.353-0.918
		c-0.149-0.346-0.22-0.711-0.22-1.088c-0.001-2.06-0.004-4.121,0.004-6.181c0.001-0.251,0.04-0.507,0.098-0.751
		c0.205-0.86,0.713-1.258,1.596-1.26C21.136,37.629,22.763,37.632,24.391,37.632z M24.366,40.693c-0.88,0-1.76,0.009-2.64-0.005
		c-0.305-0.005-0.422,0.086-0.417,0.407c0.016,1.088,0.016,2.177,0,3.266c-0.004,0.314,0.101,0.415,0.411,0.413
		c1.775-0.01,3.549-0.009,5.324-0.001c0.283,0.001,0.394-0.082,0.39-0.384c-0.016-1.103-0.017-2.207,0-3.311
		c0.005-0.337-0.14-0.394-0.429-0.39C26.126,40.702,25.246,40.693,24.366,40.693z"/>
	<path fill="#F56701" d="M45.888,37.637c-0.676,0.796-1.278,1.513-1.946,2.172c-0.223,0.221-0.515,0.21-0.8,0.21
		c-2.032,0.001-4.064,0-6.096,0.001c-0.463,0-1.06,0.482-1.089,0.928c-0.033,0.515-0.008,1.033-0.008,1.519
		c0.268-0.235,0.545-0.454,0.793-0.7c0.26-0.258,0.555-0.385,0.92-0.385c2.211,0.002,4.423-0.008,6.634,0.001
		c0.991,0.004,1.52,0.456,1.606,1.431c0.103,1.161,0.115,2.329-0.01,3.489c-0.11,1.024-0.716,1.536-1.741,1.538
		c-3.063,0.005-6.126,0.002-9.189,0.002c-1.186,0-1.855-0.578-1.886-1.791c-0.051-1.956-0.019-3.914-0.023-5.871
		c0-0.258,0.136-0.458,0.295-0.636c0.479-0.533,0.973-1.053,1.453-1.585c0.207-0.23,0.469-0.319,0.76-0.319
		C38.966,37.636,42.371,37.637,45.888,37.637z M39.471,45.476c1.014,0,2.027-0.008,3.04,0.005c0.3,0.004,0.445-0.078,0.414-0.404
		c-0.023-0.251-0.027-0.509,0.001-0.759c0.043-0.385-0.081-0.513-0.489-0.506c-1.55,0.028-3.103,0.077-4.649-0.007
		c-0.836-0.045-1.295,0.361-1.741,0.92c-0.147,0.184-0.137,0.403-0.081,0.597c0.066,0.23,0.297,0.15,0.463,0.151
		C37.444,45.479,38.457,45.476,39.471,45.476z"/>
</g>
</svg>
