<svg xmlns="http://www.w3.org/2000/svg" width="50" height="50" viewBox="0 0 48 48">
    <path fill="#90a4ae"
        d="M8.491 28.884c.109.918.69 2.108 1.203 3.127H6.111a2.65 2.65 0 0 1-.669-.078 3.081 3.081 0 0 1-2.294-2.1A2.869 2.869 0 0 1 3 28.899v-7.34c0-.856.7-1.556 1.556-1.556H6V18.01c0-3.173.928-5.629 4-6.01h1.016c-.824 1.828-1.793 3.879-1.793 6.01v7h.007c-.482 1.034-.786 2.077-.786 3.111 0 .234.016.49.047.763zM39.51 28.884c-.109.918-.69 2.108-1.203 3.127h3.583c.233 0 .459-.023.669-.078a3.081 3.081 0 0 0 2.294-2.1c.101-.296.148-.607.148-.933v-7.34c0-.856-.7-1.556-1.556-1.556h-1.444V18.01c0-3.173-.928-5.629-4-6.01h-1.016c.824 1.828 1.793 3.879 1.793 6.01v7h-.008c.482 1.034.786 2.077.786 3.111.001.234-.015.49-.046.763z" />
    <path fill="#455a64"
        d="M39 17.776v7h-.008c-.608-1.299-1.484-2.59-2.361-3.889-1.579-2.333-6.632-4.918-12.639-4.918-6.961 0-11.053 3.111-12.632 5.444-.876 1.299-1.753 2.59-2.361 3.889v-7.526c0-2.131.458-4.169 1.295-5.997a14.473 14.473 0 0 1 1.721-2.87A15.022 15.022 0 0 1 24 2.998c4.895 0 9.253 2.318 11.984 5.903a14.766 14.766 0 0 1 1.721 2.878A14.386 14.386 0 0 1 39 17.776z" />
    <path fill="#d7ccc8"
        d="M39.192 24.688c-.616-1.305-1.504-2.602-2.392-3.906-1.009-1.479-1.519-4.189-1.717-5.987a2.003 2.003 0 0 0-1.988-1.792L14.924 13c-1.036 0-1.915.786-2.001 1.819-.152 1.836-.58 4.29-1.723 5.963-.888 1.305-1.776 2.602-2.392 3.906C8.312 25.727 8 26.774 8 27.813c0 1.023.304 2.5.984 3.828.872 1.719 2.368 3.203 4.616 3.203 3.024 0 3.16 3.57 3.344 5.985.056.79.056 1.446.056 1.829 0 1.371 7 1.363 7 1.363s7 .008 7-1.363c0-.383 0-1.039.056-1.828.184-2.414.32-5.985 3.344-5.985 2.248 0 3.744-1.484 4.616-3.203.68-1.329.984-2.805.984-3.829 0-1.039-.312-2.086-.808-3.125z" />
    <path fill="#263238"
        d="M26.984 35.846c0 .742-.513 1.154-1.197 1.154-.94 0-1.624-1.567-1.795-2.226 0 .825-.684 2.226-1.795 2.226-.684 0-1.197-.412-1.197-1.154 0-1.567 1.881-4.617 2.992-4.865 1.112.412 2.992 3.298 2.992 4.865zM19.434 22.818c-2.714-1-5.126.3-5.93 2.9-1.307 3.8.201 5.6 1.407 6 3.216.9 5.93-.3 6.834-3.3.704-1.9-.1-4.8-2.311-5.6zM28.559 22.818c-2.211.8-3.015 3.7-2.312 5.6.905 3 3.618 4.2 6.834 3.3 1.206-.4 2.714-2.2 1.407-6-.803-2.6-3.215-3.9-5.929-2.9z" />
</svg>