<svg version="1.1" id="Layer_1" xmlns="http://www.w3.org/2000/svg" xmlns:xlink="http://www.w3.org/1999/xlink" x="0px"
    y="0px" viewBox="0 0 48 48" style="enable-background:new 0 0 48 48;" xml:space="preserve">
    <style type="text/css">
        .st0 {
            fill: #21367D;
        }

        .st1 {
            fill: #FFFFFF;
        }
    </style>
    <rect class="st0" width="48" height="48" />
    <g>
        <path class="st1" d="M39.4,22.3c-1.7,0-3.5,0-5.2,0c0,0-0.1,0-0.1,0c-0.1,0-0.1,0-0.1,0c0,0.1,0.1,0.1,0.1,0.1
		c0.2,0.1,0.5,0.2,0.7,0.4c0.2,0.1,0.3,0.2,0.2,0.4c-0.1,0.2-0.2,0.4-0.3,0.6c-0.1,0.3-0.1,0.3,0.2,0.3c2.2,0,4.5,0,6.7,0
		c0.9,0,1.5,0.5,1.9,1.2c0.2,0.5,0.3,1.1,0,1.6c-0.3,0.7-0.6,1.5-1,2.2c-0.2,0.5-0.6,0.9-1.1,1.3c-0.3,0.2-0.6,0.4-1,0.6
		c-0.5,0.2-1.1,0.3-1.6,0.3c-3.3,0-6.5,0-9.8,0c-0.2,0-0.3,0-0.5,0c-0.3,0-0.3-0.1-0.2-0.3c0.1-0.3,0.3-0.7,0.4-1
		c0.1-0.3,0.2-0.6,0.4-0.8c0.2-0.3,0.5-0.5,0.9-0.5c2.8,0,5.6,0,8.4,0c0.3,0,0.6,0,0.8,0c0.2,0,0.3-0.1,0.4-0.3
		c0.2-0.5,0.4-0.9,0.6-1.4c0.1-0.2,0.1-0.3-0.2-0.3c-1.4,0-2.8,0-4.2,0c-0.8,0-1.6,0-2.4,0c-0.4,0-0.9-0.1-1.2-0.3
		c-0.4-0.2-0.7-0.5-0.8-0.9c-0.3-0.6-0.2-1.2,0.1-1.8c0.3-0.6,0.5-1.3,0.8-1.9c0.6-1.1,1.4-1.7,2.6-2.1c0.5-0.1,1-0.1,1.6-0.1
		c3.2,0,6.4,0,9.6,0c0.5,0,0.6,0.1,0.4,0.6c-0.2,0.4-0.4,0.9-0.6,1.3c-0.2,0.4-0.6,0.7-1.2,0.7c-1.2,0-2.4,0-3.6,0
		C40.5,22.3,39.9,22.3,39.4,22.3C39.4,22.3,39.4,22.3,39.4,22.3z" />
        <path class="st1" d="M31.2,17.9c-0.4,0-0.8,0-1.3,0c-0.2,0-0.3,0.1-0.3,0.3c0,0.1,0,0.1,0,0.2c-0.3,0.4-0.1,0.8,0,1.1
		c0.1,0.3,0,0.3-0.2,0.4C29.2,20,29,20,28.8,20c-0.2,0-0.3-0.1-0.3-0.2c0,0,0-0.1-0.1-0.1c-0.1,0-0.1,0.1-0.1,0.1
		c0,0.2-0.2,0.3-0.2,0.5c-0.1,0.4-0.7,0.6-1.1,0.4c-0.2-0.1-0.3-0.2-0.5-0.3c-0.2-0.1-0.3,0-0.4,0.1c-0.1,0.1-0.1,0.2,0,0.4
		c0.1,0.1,0.1,0.2,0,0.3c-0.3,0.5-0.5,1-0.8,1.4c0,0.1-0.1,0.2-0.2,0.2c-0.2,0-0.2,0.1-0.2,0.2c0,0,0,0,0,0
		c-0.1,0.7,0.3,1.1,0.6,1.6c0.3,0.6,0.7,1.2,1,1.9c0.2,0.3,0.4,0.6,0.3,1c0,0.1,0,0.2-0.1,0.4c-0.3,0.6-0.5,1.2-0.7,1.7
		c-0.3,0.6-0.5,1.1-0.7,1.7c-0.1,0.2-0.2,0.3-0.3,0.4c-0.2,0.2-0.2,0.3-0.1,0.6c0.2,0.3,0.6,0.3,0.9,0.4c0.1,0,0.3,0.1,0.3,0.2
		c0,0.2-0.1,0.3-0.2,0.3c-0.3,0.1-0.7,0.2-1,0.1c-0.4,0-0.8,0-1.3,0c-0.2,0-0.3,0-0.5,0c-0.1,0-0.1-0.1-0.1-0.2c0-0.7,0.3-1.4,0.5-2
		c0.1-0.2,0.1-0.4,0.1-0.6c0.1-0.3,0.1-0.7,0.2-1c0-0.2,0.1-0.4,0.2-0.6c0.2-0.4,0.4-0.7,0.6-1.1c0.1-0.3,0.1-0.3-0.1-0.4
		c-0.3-0.2-0.5-0.5-0.7-0.8c-0.3-0.4-0.5-0.8-0.8-1.2c-0.1-0.1-0.2-0.2-0.3-0.2c-0.2,0-0.2,0.1-0.3,0.3c-0.4,0.9-0.8,1.8-1.3,2.7
		c-0.2,0.5-0.6,0.9-1,1.3c-0.2,0.2-0.4,0.5-0.6,0.8c-0.5,0.5-1,1.1-1.4,1.7C18,32.1,18,32.2,18,32.3c0,0.4-0.1,0.7-0.1,1.1
		c0,0.1-0.1,0.2-0.2,0.2c-0.4,0-0.8,0-1.2,0c-0.2,0-0.3-0.2-0.2-0.4c0.1-0.2,0.3-0.4,0.4-0.7c0.1-0.2,0.1-0.4,0-0.6
		c0-0.1,0-0.2,0-0.3c0.3-0.6,0.6-1.3,0.9-1.9c0.2-0.5,0.4-0.9,0.7-1.4c0.2-0.4,0.5-0.7,0.9-0.9c0.1-0.1,0.2-0.2,0.2-0.3
		c0.1-0.8,0.2-1.6,0.3-2.3c0-0.1,0-0.2,0.2-0.2c0.3,0,0.4-0.3,0.4-0.5c0.1-0.1,0.1-0.3,0.2-0.4c0.1-0.2,0.2-0.5,0.4-0.6
		c0.3-0.2,0.3-0.6,0.4-0.9c0-0.2-0.1-0.3-0.2-0.3c-0.2-0.1-0.3-0.2-0.2-0.5c0.2-0.5,0.3-1,0.5-1.4c0.1-0.2,0.2-0.3,0.4-0.3
		c0.3,0,0.4-0.2,0.5-0.4c0.2-0.5,0.4-1,0.8-1.5c0.2-0.3,0.5-0.6,0.9-0.8c0.1-0.1,0.3-0.1,0.4-0.1c0.1,0,0.2,0,0.3-0.1
		c0.2-0.1,0.1-0.3,0-0.4c-0.1,0-0.1-0.1-0.1-0.2c0-0.4-0.1-0.8,0.2-1.2c0.2-0.3,0.4-0.4,0.7-0.5c0.8-0.2,1.4,0.1,1.9,0.7
		c0.2,0.3,0.5,0.6,0.4,1c-0.1,0.2-0.1,0.3-0.3,0.3c-0.1,0-0.2,0.1-0.1,0.2c0,0.1,0.1,0.1,0.2,0.1c0.3,0.1,0.6,0,0.9,0
		c1.3,0,2.6,0,3.9,0c0.2,0,0.3,0,0.4-0.1c0.1-0.1,0.2-0.1,0.2,0.1c0,0.2,0.1,0.2,0.2,0.2c0.2,0,0.5,0,0.7,0c0.1,0,0.2,0,0.2,0.1
		c0,0.1-0.1,0.1-0.2,0.1c-0.2,0-0.5,0-0.7,0c-0.2,0-0.2,0.1-0.2,0.2c0,0.4,0,0.4-0.4,0.4C32,17.9,31.6,17.9,31.2,17.9z" />
        <path class="st1" d="M11.4,22.3c-1.6,0-3.1,0-4.7,0c-0.1,0-0.2-0.1-0.3,0c-0.1,0-0.1,0-0.2,0.1c0,0.1,0.1,0.1,0.1,0.1
		c0.3,0.1,0.5,0.2,0.8,0.3c0.2,0.1,0.3,0.2,0.2,0.4c-0.2,0.6-0.5,1.1-0.7,1.7c-0.4,1-0.8,1.9-1.2,2.9c-0.1,0.2-0.2,0.5-0.3,0.7
		c-0.1,0.2-0.1,0.3,0.2,0.3c2.9,0,5.7,0,8.6,0c0,0,0,0,0,0c0.3,0,0.3,0,0.2,0.3c-0.2,0.6-0.5,1.1-0.7,1.7c-0.2,0.4-0.6,0.7-1,0.7
		c-1.9,0-3.8,0-5.8,0c-1,0-2,0-2.9,0c-0.5,0-1-0.2-1.4-0.5c-0.4-0.4-0.6-0.9-0.7-1.4c-0.1-0.3,0.1-0.5,0.2-0.8
		C2,27.8,2.4,26.9,2.8,26c0.5-1.2,1-2.4,1.5-3.6c0.5-1.2,1.4-2.1,2.6-2.5c0.3-0.1,0.6-0.2,0.9-0.2c0.2,0,0.5,0,0.7,0
		c2.2-0.1,4.5-0.1,6.7,0c0.8,0,1.7,0,2.5,0c0.2,0,0.2,0.1,0.2,0.2c-0.2,0.4-0.3,0.8-0.5,1.2c-0.1,0.2-0.2,0.4-0.3,0.6
		c-0.2,0.4-0.7,0.5-1.1,0.5C14.5,22.3,13,22.3,11.4,22.3C11.4,22.3,11.4,22.3,11.4,22.3z" />
    </g>
</svg>