<?xml version="1.0" encoding="utf-8"?>
<!-- Generator: Adobe Illustrator 26.0.0, SVG Export Plug-In . SVG Version: 6.00 Build 0)  -->
<svg version="1.0" id="Layer_1" xmlns="http://www.w3.org/2000/svg" xmlns:xlink="http://www.w3.org/1999/xlink" x="0px" y="0px"
	 viewBox="0 0 50 50" enable-background="new 0 0 50 50" xml:space="preserve">
<g>
	<path fill="#FEEF00" d="M35.894,27.365c1.662-0.112,3.352,0.076,4.959-0.609c0.529-0.226,1.044,0.022,1.528,0.428
		c0.646,0.543,1.201,1.257,2.168,1.342c0.817,0.071,0.65,0.878,0.461,1.183c-0.573,0.921-1.117,1.926-2.487,1.94
		c-4.214,0.045-8.413,0.465-12.619,0.633c-4.396,0.176-8.766,0.792-13.187,0.617c-2.171-0.086-4.362,0.288-6.541,0.492
		c-0.722,0.068-1.409,0.102-2.095-0.206c-1.837-0.826-3.686-1.626-5.5-2.422c0.116-0.487,0.327-0.669,0.574-0.642
		c2.186,0.237,4.048-0.777,5.976-1.535c1.923-0.756,3.889-0.793,5.883-0.357c0.304-0.183,0.607-0.216,0.906,0.011
		c1.925,0.533,3.908,0.287,5.851,0.325c5.491,0.107,10.986,0.003,16.479-0.023c0.238-0.001,0.52,0.07,0.685-0.346
		c-0.862-0.976-2.073-0.227-3.056-0.55c-0.104-0.069-0.136-0.133-0.097-0.193C35.819,27.394,35.856,27.365,35.894,27.365z"/>
	<path fill="#FEEF00" d="M15.92,28.24c-0.302-0.004-0.604-0.007-0.906-0.011c0.1-0.257,1.007-0.39,0.061-0.812
		c-0.59-0.263-1.216,0.309-1.834-0.284c1.831-1.278,3.66-2.424,5.693-3.303c7.302-3.159,14.42-6.723,21.41-10.518
		c2.798-1.519,4.995-1.263,7.236,1.187c-2.128,0.673-3.78,2.728-6.394,1.789c-0.447-0.16-0.775,0.175-1.122,0.364
		c-6.373,3.465-12.793,6.847-19.072,10.476c-1.354,0.782-2.541,0.383-3.798,0.572C16.739,27.769,16.001,27.255,15.92,28.24z"/>
	<path fill="#FEF018" d="M35.894,27.365c-0.001,0.094-0.006,0.188-0.016,0.281c-0.634,0-1.269,0-1.903,0
		c-0.001-0.094-0.003-0.187-0.004-0.281C34.612,27.365,35.253,27.365,35.894,27.365z"/>
</g>
</svg>
