<svg version="1.1" id="Layer_1" xmlns="http://www.w3.org/2000/svg" xmlns:xlink="http://www.w3.org/1999/xlink" x="0px"
    y="0px" viewBox="0 0 50 50" style="enable-background:new 0 0 50 50;" xml:space="preserve">
    <style type="text/css">
        .st0 {
            fill: url(#SVGID_1_);
        }
    </style>
    <linearGradient id="SVGID_1_" gradientUnits="userSpaceOnUse" x1="25.0001" y1="0.3333" x2="25.0001" y2="48.5869">
        <stop offset="0" style="stop-color:#3574B5" />
        <stop offset="1" style="stop-color:#BEB3F1" />
    </linearGradient>
    <path class="st0" d="M37.5,6c-1.2,0-2.3,0.4-3.3,1L32,8.2V20c0,3.9-3.1,7-7,7c-1.8,0-3.6-0.7-4.9-2c-1.3-1.3-2.1-3.1-2-5V8.2
	l-2.2-1.3c-1.6-1-3.6-1.2-5.4-0.7C8.5,6.7,7,7.9,6,9.5c-0.6,1.1-1,2.3-1,3.6c0,2.6,1.4,4.9,3.6,6.2c5.7,3.3,9.2,9.4,9.2,15.9v1.6
	c0,1.9,0.8,3.7,2.1,5.1c1.3,1.3,3.1,2.1,4.9,2.1H25c1.8,0,3.6-0.7,4.9-2.1c1.4-1.4,2.3-3.4,2.3-5.4v-1.3c0-3.3,0.9-6.4,2.5-9.2
	c1.6-2.8,3.9-5.1,6.7-6.7c1.7-1,2.9-2.5,3.3-4.4c0.5-1.9,0.2-3.8-0.7-5.4c-1-1.7-2.5-2.9-4.4-3.3C38.9,6,38.2,5.9,37.5,6L37.5,6z
	 M25,7c-1.6,0-3.1,0.8-4,2c-0.6,0.8-1,1.9-1,3v8c0,1.4,0.6,2.6,1.5,3.5c0.9,0.9,2.2,1.5,3.5,1.5c2.8,0,5-2.2,5-5v-8
	c0-1.1-0.3-2.1-1-3C28.1,7.8,26.6,7,25,7L25,7z" />
</svg>