<?xml version="1.0" encoding="utf-8"?>
<!-- Generator: Adobe Illustrator 26.0.0, SVG Export Plug-In . SVG Version: 6.00 Build 0)  -->
<svg version="1.0" id="Layer_1" xmlns="http://www.w3.org/2000/svg" xmlns:xlink="http://www.w3.org/1999/xlink" x="0px" y="0px"
	 viewBox="0 0 50 50" enable-background="new 0 0 50 50" xml:space="preserve">
<g>
	<g>
		<path fill="#0D2F8C" d="M25.011,45.096c-2.223-3.833-4.472-7.58-6.578-11.405c-0.836-1.519-0.785-3.256,0.088-4.77
			c4.163-7.222,8.367-14.42,12.605-21.599c0.923-1.564,2.34-2.432,4.257-2.417c4.123,0.034,8.246,0.01,12.369,0.01
			c0.18,0,0.36,0,0.538,0c0.059,0.235-0.104,0.36-0.189,0.507c-2.787,4.808-5.582,9.611-8.358,14.425
			c-0.207,0.359-0.414,0.507-0.838,0.502c-1.92-0.025-3.84-0.011-5.76-0.011c-0.173,0-0.346,0-0.607,0
			c1.835-3.148,3.623-6.215,5.465-9.375c-0.666,0-1.223,0-1.78,0c-0.325,0-0.356,0.3-0.467,0.489
			c-2.321,3.961-4.632,7.928-6.945,11.893c-1.491,2.557-2.975,5.118-4.484,7.664c-0.212,0.357-0.234,0.629-0.001,0.967
			c0.246,0.357,0.448,0.745,0.675,1.128c0.237-0.146,0.298-0.37,0.406-0.555c1.961-3.355,3.922-6.71,5.867-10.074
			c0.194-0.335,0.395-0.473,0.798-0.468c2.094,0.024,4.188,0.011,6.298,0.011C38.197,22.522,25.559,44.356,25.011,45.096z"/>
		<path fill="#0D2F8C" d="M30.53,4.915c-1.15,1.972-2.259,3.859-3.349,5.757c-0.176,0.307-0.431,0.242-0.681,0.242
			c-2.587,0.003-5.173,0.018-7.76-0.011c-0.513-0.006-0.829,0.121-1.032,0.6c-0.147,0.345-0.371,0.658-0.6,1.053
			c2.981,0,5.895,0,8.791,0c0.121,0.26-0.055,0.388-0.137,0.529c-0.998,1.725-2.018,3.438-3,5.172
			c-0.201,0.354-0.426,0.448-0.812,0.445c-2.627-0.017-5.254,0-7.881-0.018c-0.39-0.003-0.617,0.098-0.81,0.454
			c-0.509,0.937-1.068,1.846-1.606,2.766c-0.223-0.059-0.253-0.261-0.34-0.41c-0.974-1.669-1.934-3.346-2.921-5.008
			c-0.187-0.314-0.206-0.537-0.012-0.865c1.608-2.721,3.161-5.475,4.797-8.179c0.978-1.617,2.415-2.542,4.39-2.533
			C21.849,4.928,26.133,4.915,30.53,4.915z"/>
		<path fill="#0D2F8C" d="M1.699,4.936c3.687,0,7.274,0,10.952,0c-1.841,3.156-3.65,6.258-5.493,9.417
			C5.331,11.201,3.539,8.109,1.699,4.936z"/>
	</g>
</g>
</svg>
