<svg version="1.1" id="Layer_1" xmlns="http://www.w3.org/2000/svg" xmlns:xlink="http://www.w3.org/1999/xlink" x="0px"
    y="0px" viewBox="0 0 48 48" style="enable-background:new 0 0 48 48;" xml:space="preserve">
    <style type="text/css">
        .st0 {
            fill: #C6CDC7;
        }
    </style>
    <path class="st0" d="M17.3,1.9L9.6,21.1l1.2,2.4l3.6,2.4L12,25.8l7.2,14.1v-7.7c0,0-2.1-0.4-1.9-2.4c0.2-2,0.6-3.8,0-4.8
	c0,0,3.8,1,3.8,2.9c0.7-0.8,1-1.8,1-2.9c0,0,1.9,1,1.9,6.7c0,1.9,0,1.9-1,2.9c-1,1.1-1,2.8,0,3.8c0,0.6-0.1,1.2-0.4,1.7
	c-0.3,0.4-0.4,0.8-0.6,1.2c-0.2,1,0.1,2,0.6,2.9l1.3,1.9l2.9-3.8c-0.5,0.2-2.4,1.4-2.4,1.4S23,42.5,24,41.3c1-1.2,1.4-1.7,1-2.9
	c-0.4-1.2-1-1.9,0-2.9c1-1.4,1.7-3.1,1.9-4.8c0.1-0.6-0.4-1.4-0.5-3.4c0-1,1.4-2.4,1.4-2.4c0,1,0.3,2.1,1,2.9c0-1.9,2.9-2.9,2.9-2.9
	c-0.6,1-0.2,2.8,0,4.8c0.2,2-1.9,2.4-1.9,2.4v7.7l8.6-18.7L32.6,1.9c-0.1,1-0.9,1.8-1.9,1.9c-0.5,0-0.9,0.4-1,0.9c0,0,0,0,0,0
	c1,0,1.9,0.8,1.9,1.8c0,0,0,0.1,0,0.1l1,4.8c-0.5,0.5-0.9,1.2-1,1.9c1.9-1,1.9,1.9,1.9,4.8c0,2.1-1,2.9-2.9,2.9s0-3.8,0-3.8
	c-1.9,0-3.8,2.9-3.8,2.9v-1.9c-0.7,0.1-1.4,0.4-1.9,1c0-0.6,0-1.3,0-1.9c0.1-1,1.1-1.5,1.9-1.9c1.9-1,1.9-1.9,1.9-2.9
	c0.1-1.1-0.2-2.1-1-2.9c-0.1-1-0.1-1.9,0-2.9c-1.9,1.9-2.9,1-2.9,1l-1-1.9c-0.2-0.6-0.2-1.3,0-1.9c-1,0.4-1.3,1.9-1.2,2.7
	c0.3,0.8-0.1,1.6-0.8,2.1c-0.6,0.4-1,1.9-1,1.9c-1,1.9,0,2.9,0,2.9s1.9-2.9,3.8-2.9c1.8,0,1.6,2.5,0,2.9c-1.6,0.4-2.8,1.2-3.1,2.7
	c-0.1,1,0,2,0.2,3c-0.5-0.5-1.2-0.9-1.9-1v1.9c0,0-2.9-2.9-3.8-2.9c0,0,1.9,3.8,0,3.8c-1,0-1.9,0-1.9-1.9c0-3.2,1-6.7,2.9-5.8
	c-0.1-0.7-0.4-1.4-1-1.9l1.9-5.8c0,0,0-1,1.9-1c0-0.5-0.4-0.9-0.9-1c0,0,0,0,0,0C18.2,3.8,17.4,2.9,17.3,1.9z" />
</svg>