<?xml version="1.0" encoding="utf-8"?>
<!-- Generator: Adobe Illustrator 26.0.0, SVG Export Plug-In . SVG Version: 6.00 Build 0)  -->
<svg version="1.0" id="Layer_1" xmlns="http://www.w3.org/2000/svg" xmlns:xlink="http://www.w3.org/1999/xlink" x="0px" y="0px"
	 viewBox="0 0 50 50" enable-background="new 0 0 50 50" xml:space="preserve">
<path fill="#D0AB67" d="M37.873,4.261c0.91-0.087,1.474-0.91,2.34-1.084c0.043,3.337-0.477,6.675-0.433,10.012l-0.954-0.043
	c-0.043-1.257-0.303-2.471-0.824-3.597c-0.607-1.17-1.95-1.69-3.207-1.82c-1.344-0.173-2.687-0.347-4.031-0.433
	c-2.947-0.043-5.895-0.13-8.842,0c-0.217,5.461-0.347,10.922-0.347,16.383c2.427,0.043,4.811,0,7.238-0.13
	c1.734-0.087,3.554,0.217,5.244-0.347c1.777-0.78,1.95-2.947,2.384-4.551l0.737,0.13c0.13,1.734,0,3.467,0,5.158
	c0.087,2.557-0.087,5.158,0.043,7.715l-0.867-0.043c-0.303-1.734-0.91-3.381-1.734-4.941c-4.334-0.13-8.668,0-13.046-0.043
	c-0.087,2.384,0,4.768,0.043,7.195c-0.087,1.43,0.173,2.861,0.173,4.291c0.13,1.43,0.087,2.947,0.91,4.204
	c0.607,1.04,1.777,1.56,2.904,1.734c3.814,0.563,7.758,0.173,11.356-1.17c0.13,0.26,0.26,0.52,0.433,0.78
	c-0.13-0.303-0.217-0.563-0.347-0.867c1.127-0.607,2.297-1.214,3.164-2.167c0.91-1.17,1.69-2.427,2.254-3.814l0.737,0.26
	c-0.39,1.517-0.954,2.991-1.43,4.464c-0.563,1.734-1.127,3.467-1.734,5.201c-1.56-0.043-3.164,0.087-4.724,0.043
	c-1.864,0.043-3.771-0.13-5.634,0.043h-0.087c-3.121-0.13-6.241-0.087-9.362-0.13c0.347-1.387-0.173-2.774,0.087-4.161
	c0.087-0.737,0.347-1.474,0.043-2.21c-0.043,1.257-0.477,2.427-0.52,3.684c-0.13,0.91-0.303,1.777-0.563,2.644
	c-1.517,0.26-3.077-0.087-4.638,0.173H8.227c-0.477-0.043-0.954-0.087-1.43-0.13v-0.954c1.864-0.13,3.771-0.26,5.504-1.04
	c1.344-0.607,1.95-2.124,2.21-3.467c0.26-1.907,0.39-3.857,0.39-5.808c0.303-5.548,0.173-11.139,0.173-16.687
	c1.214,0.217,2.427,0.78,2.947,1.95c-0.087-0.52-0.217-1.04-0.477-1.56c-0.607-1.04-1.777-1.647-2.471-2.644
	c-0.173-1.56,0-3.121-0.217-4.638c0.043-1.474-0.173-2.947-0.693-4.334l-0.477-0.347l0.477-0.52l-0.52,0.347
	c-1.69-1.084-3.727-1.43-5.721-1.604V4.391c8.582,0.087,17.12,0.043,25.702,0.043C35.012,4.477,36.442,4.391,37.873,4.261"/>
</svg>
