<?xml version="1.0" encoding="utf-8"?>
<!-- Generator: Adobe Illustrator 26.0.0, SVG Export Plug-In . SVG Version: 6.00 Build 0)  -->
<svg version="1.0" id="Layer_1" xmlns="http://www.w3.org/2000/svg" xmlns:xlink="http://www.w3.org/1999/xlink" x="0px" y="0px"
	 viewBox="0 0 50 50" enable-background="new 0 0 50 50" xml:space="preserve">
<linearGradient id="SVGID_00000163058375724867106680000008518439335102220441_" gradientUnits="userSpaceOnUse" x1="24.1105" y1="4.8889" x2="24.1105" y2="61.4484">
	<stop  offset="0" style="stop-color:#6C90A3"/>
	<stop  offset="1" style="stop-color:#F3D99A"/>
</linearGradient>
<path fill="url(#SVGID_00000163058375724867106680000008518439335102220441_)" d="M40.047,35.349c0,0,0.654-0.867,1.321-0.426
	s1.037,1.605,0,3.168s-3.765,3.95-4.305,4.504c-0.54,0.554-1.961,1.804-2.145,2.358c-0.185,0.554-0.185,0.725-0.185,0.725
	s-4.845-0.369-6.393-0.71c-1.549-0.341-2.785-0.895-2.898-0.753c-0.114,0.142-0.27,0.597-0.426,0.838
	c-0.156,0.242-1.051,1.236-1.122,1.236c-0.071,0-0.654-0.114-0.654-0.284s-0.625-1.975-1.676-2.5
	c-1.051-0.526-2.799-1.094-3.41-0.966c-0.611,0.128-4.887,1.691-5.413,1.975c-0.526,0.284-2.33,0.824-4.063,0.895
	s-2.472,0.085-2.472,0.085s2.884-2.685,3.708-4.22s1.819-4.142,1.989-6.475s0.213-5.032-0.242-5.615
	c-0.455-0.582-0.895-1.066-1.392-1.066c-0.497,0-0.44,0-0.44,0s0.369-0.725,1.037-0.838c0.668-0.114,0.838-0.213,0.838-0.213
	s0.478-15.41,0.516-16.376c0.038-0.966,0.095-3.239,0.095-3.239s-1.193-1.383-1.819-1.648C9.871,5.538,9.322,5.178,9.322,5.121
	c0-0.057,2.084,0,2.084,0l11.972-0.265c0,0,0.833,0.152,2.046,0.095c1.212-0.057,4.13-0.133,4.414-0.17
	c0.284-0.038,2.557-0.076,2.766,0.076c0.208,0.152,1.023,0.663,1.023,0.663s0.284-1.156,0.53-1.307
	c0.246-0.152,0.852-0.474,1.156-0.493s0.36,0,0.36,0s-0.739,1.174-0.152,3.94s2.444,7.596,2.444,7.596l-2.008-0.095
	c0,0-2.595-5.475-5.55-6.763s-3.978-1.591-6.668-1.572c-2.69,0.019-3.808,0.019-3.808,0.019l0.398,16.405l6.611-5.816
	c0,0,0.606,1.156,1.099,1.459s2.633,1.515,2.974,1.648s2.804,0.36,3.618,0.379c0.815,0.019,2.747-0.227,3.315-0.644
	c0.568-0.417,0.568-0.417,0.568-0.417l0.189,0.152c0,0-1.004,1.137-2.178,2.254s-2.709,2.292-2.804,3.163s-0.303,1.553-0.208,1.781
	c0.095,0.227-0.796-0.076-0.852-0.549c-0.057-0.474-0.133-0.928-0.133-0.928S28.871,25.519,27.299,25s-3.845-2.451-3.845-2.451
	l-3.315,2.595c0,0,0.038,6.914-0.796,9.093s-2.444,5.437-3.107,6.119c-0.663,0.682-1.004,1.193-1.004,1.193s4.812-3.561,4.963-3.675
	c0.152-0.114,1.402-0.909,1.402-0.909s2.898,2.141,4.887,2.349s3.959,0.436,4.281,0.568c0.322,0.133,3.883,0.303,4.205,0.246
	c0.322-0.057,2.898-0.398,3.201-0.53s2.349-1.819,2.586-2.482C40.995,36.453,41.317,35.629,40.047,35.349z"/>
</svg>
