<svg xmlns="http://www.w3.org/2000/svg" width="50" height="50" viewBox="0 0 64 64"><linearGradient id="a" x1="33.506" x2="33.506" y1="-4.29" y2="69.858" gradientUnits="userSpaceOnUse"><stop offset="0" stop-color="#6dc7ff"/><stop offset=".699" stop-color="#e6abff"/></linearGradient><path fill="url(#a)" d="M58.2 36.24c-.33-.65-2.21.65-3.81 1.47-.62.31-1.33.26-2.17-.16-.01-.01-1.72-.89-1.72-2.55 0-1.39.45-2.25.64-2.55.48-.14 1.36-.63 1.36-2.45 0-.4.28-.49.5-.5h.5V29c0-.6-.4-1.5-1.5-1.5-.15 0-.23-.03-.24-.06-.05-.11.04-.53.59-1.09.33-.33.75-.83.54-1.34-.16-.38-.56-.51-.88-.51-.16 0-1.51-.11-1.51-2.47 0-.01.07-.89.75-1.46.5-.42 1.23-.58 2.15-.49.16.08.35.09.52.02.2-.09-.92-1.25-.92-3.1 0 0 1.66-.27 2.22-.55l.13-.1c2.33-2.32 1.06-3.65 1-3.7l-.35-.36-1.35 1.36-.1.13c-.19.37-.61.95-.92 1-.04 0-.12.02-.28-.13l-.35-.36-.35.36c-1.14 1.13.35 3.3.35 3.35 0 0-1.3.11-2.5-.04-1.18-.61-1.48-.63-1.99-.52-.13.03-.27.06-.51.06-.4 0-.49-.28-.5-.5v-.5s-1.67 1.55-1.81 1.78c-.12.19-.48.22-.69.22-1.41 0-1.5-1.25-1.5-1.5 0-.6-.4-1.5-1.5-1.5h-.5v1.19l-1.61.81c-.49-.03-2.39-.21-2.39-1.5 0-.29-.02-.6-.04-.92-.06-.95-.13-1.94.41-2.4.49-.43 1.51-.49 3.13-.18.82 0 1.49-.16 2.02-.28.9-.22 1.23-.27 1.63.13l.35.36 1.13-1.14c.35.1.91.17 1.52-.08.79-.33 1.4-1.09 1.8-2.27.23-.33.44-.64.63-.93 1.59-2.32 2.38-3.49 1.37-5.51l-.31-.62-.72.71c-1.7 1.71-2.06 2.06-3.1 2.32l-.31-.08c-1.36-.35-2.26-.57-3.36.54-.46.46-.9.89-1.37.98-.53.11-1.16-.21-1.93-.98l-.43-.44-.34.51c-.8 1.21-1.14 1.96-1.37 2.46-.32.72-.38.84-1.43 1.37-1.81.9-4.62.17-4.73.15-.05-.01-1.12-.1-1.87.58-.45.4-.68.98-.68 1.72 0 1.12-.34 1.47-.52 1.5h-.48v.5c0 .61-.2 1.5-.5 1.5l-.16.03c-2.16.72-3.09-.3-3.33-.65.04-.26.2-.88.84-1.53.33-.33.75-.83.54-1.34-.16-.38-.56-.51-.89-.51-.61 0-1.5-.2-1.5-.5 0-2.47-1.44-2.5-1.5-2.5h-.21l-1.14 1.15-1.96 3.85H16.5v.5c0 1.18.08 1.29 1.15 2.35.85.86.85.86.85 1.65 0 .59.25.97.58 1.21l-.43.44c-.65.65-1.84-.42-1.86-.43L16 20c.03.11.29.79-1.22 1.55-2.41 1.21-3.71-1.44-3.78-1.55l-2-2 .86 3.42c.38.99.32 2.1-.15 3.04L9 25l1.35.35c.22-.22.98-.83 1.55-.73.09.02.38.06.65.6.17.35.2.66.08.95-.3.72-1.39 1.22-1.79 1.36l-.34.11v1.67l.28.14c.72.36 1.72 1.1 1.72 1.55v1.12l.05.1c.01.02.88 1.8 0 3.56-.71 1.43-1.8 2.55-2.46 2.55-.09 0-.37 0-.64-.55l-.54-1.08-.38 1.14c-1.13 3.37 3.07 5.52 3.25 5.61l.1.05H12c.25 0 2.5.09 2.5 2.5 0 1.35 0 2.33-.08 2.48-.05.02-.26.02-.42.02-1.1 0-1.5.9-1.5 1.5v.21l.15.14c.11.12 1.18 1.15 2.35 1.15h.12l.1-.05c1.46-.73 4.5.47 5.55 1 .07.03 1.73.92 1.73 3.55v.5h2.01l.15-.17c.06-.07 1.49-1.69 3.12-.88l.11.05c2.2 1.11 4.28 2.15 5.03.73l.05-.21c.03-.5.65-1.99 1.58-2.53.41-.24.81-.25 1.23-.04.8.4 1.24.79 1.46 1.07.23.29.26.48.26.48v.18l.11.14c.07.07 1.4 1.66 3.84 1.66.28 0 .57-.02.88-.07l.51-.08-.09-.5c-.23-1.28-.27-2.1 1.62-3.99.02-.03 2.01-2.17 4.08-1.57l.47.14.15-.47c.43-1.35-.39-2.42-.64-2.71-.06-.15-.18-.56.01-1.01.22-.5.79-.92 1.65-1.22.82-.04 2.37-.57 2.85-2.36.4-1.47 3.23-3.16 4.28-3.69l1.13-1.1c.62-.61.23-1.38-.15-2.11zm-12.21 2.34c-1.99 7.67-9.86 12.3-17.54 10.3-7.67-1.99-12.29-9.85-10.3-17.53 1.68-6.47 7.53-10.77 13.92-10.77 1.19 0 2.4.15 3.61.46 2.07.54 3.95 1.5 5.54 2.82a14.57 14.57 0 0 1 3.25 3.81c1.94 3.32 2.48 7.19 1.52 10.91z"/><linearGradient id="b" x1="32" x2="32" y1="-17.546" y2="68.008" gradientUnits="userSpaceOnUse"><stop offset="0" stop-color="#1a6dff"/><stop offset=".695" stop-color="#c822ff"/></linearGradient><path fill="url(#b)" d="M32 51c-8.822 0-16-7.178-16-16s7.178-16 16-16 16 7.178 16 16-7.178 16-16 16zm0-30c-7.72 0-14 6.28-14 14s6.28 14 14 14 14-6.28 14-14-6.28-14-14-14z"/><linearGradient id="c" x1="33.504" x2="33.504" y1="-17.546" y2="68.008" gradientUnits="userSpaceOnUse"><stop offset="0" stop-color="#1a6dff"/><stop offset=".695" stop-color="#c822ff"/></linearGradient><path fill="url(#c)" d="M58.64 36.01a9.051 9.051 0 0 1-.415-.897.695.695 0 0 0-1.125-.25c-.893.837-2.229 2.033-2.94 2.397-.17.09-.7.35-1.71-.15C52.44 37.1 51 36.34 51 35c0-1.08.29-1.79.47-2.12C52.18 32.6 53 31.81 53 30l1-1c0-.85-.54-1.75-1.58-1.96.07-.09.16-.21.29-.33.25-.25 1-1.01.64-1.89-.25-.6-.86-.82-1.32-.82-.17-.01-1.03-.16-1.03-1.94 0-.01.07-.68.57-1.1.38-.32.96-.46 1.7-.39.27.1.57.11.84-.01.53-.22.89-1.56.89-1.56l-1-1c-1-1 .84-.8 1.45-1.11l.14-.07.12-.11c1.789-1.795 2.24-3.268 2.322-4.065a.88.88 0 0 0-.491-.875l-.38-.19a1.227 1.227 0 0 0-1.607.47c-.59 1.004-1.581 2.335-1.934 2.16l-.681-.088a1.364 1.364 0 0 0-1.386.722C51.287 15.356 51 15.925 51 16l1 2c-.13 0-1.17-.5-1.35-.52-1.11-.58-1.55-.67-2.24-.53-.13.03-.22.05-.41.05v-1h-2s0 2-1 2c-.81 0-.99-.55-1-1 0-.97-.7-2-2-2h-1v1.38l-1.21.61c-.52-.05-1.79-.23-1.79-.99 0-.3-.02-.62-.04-.95-.05-.79-.11-1.69.23-2 .17-.14.76-.44 2.61-.07l.2.02c.88 0 1.58-.17 2.14-.3.45-.105.916.221 1.268.572a.75.75 0 0 0 1.153-.09l.729-1.062c.42.07.96.07 1.55-.17.92-.38 1.61-1.22 2.06-2.5.21-.32.369-.644.6-.88 2.518-2.569 1.811-5.199 1.217-6.473a.658.658 0 0 0-1.056-.192c-.96.925-2.777 2.62-3.341 2.765l-.18-.05c-1.42-.35-2.53-.64-3.85.67-.38.39-.78.79-1.11.85-.268.054-1.047-.564-1.634-1.072a.8.8 0 0 0-1.21.191c-.566.937-1.425 2.377-1.577 2.72-.29.64-.31.68-1.21 1.13-1.35.67-3.56.31-4.29.12L32.1 9.2c-.14-.01-1.36-.11-2.26.71-.38.34-.84.99-.84 2.09 0 .63-.12.91-.18 1h-.81L28 14c0 .35-.08.8-.17 1l-.15.05c-1.56.52-2.33.02-2.63-.29.07-.25.25-.64.66-1.05.25-.25 1-1.01.64-1.89-.25-.61-.86-.82-1.35-.82-.35 0-.79-.08-1-.17C23.92 8.03 22.08 8 22 8h-.41l-1.41 1.41-1.8 3.59H16v1c0 1.33.16 1.58 1.29 2.71.33.33.65.64.69.74.02.06.02.32.02.55 0 .49.15.89.38 1.21l-.09.08c-.22.22-.92-.22-1.16-.44L16 19c.09.29 0 2-1 2-1.6 0-3.61-2.02-4.68-3.11-.26-.26-.48-.48-.65-.63l-.59-.49-.62.32c-.75.4-.65 1.18-.42 2.88.04.24.07.44.07.54.08 1.11.19 3.15.1 4.36-.03.09-.08.21-.13.33-.15.36-.42 1.05.14 1.56.26.24.73.39 1.24.13 1.29-.68 2.27-1 2.74-1.07 0 .06-.02.11-.03.16-.21.5-1.09.94-1.49 1.07l-.68.23v2.34l.55.27c.66.33 1.38.9 1.45 1.11v1.24l.11.21c0 .01.75 1.59 0 3.1a7.12 7.12 0 0 1-1.047 1.56c-.233.26-.855-.122-1.355-.506a.806.806 0 0 0-1.19.249l-.468.827c-1.26 3.78 3.31 6.12 3.5 6.21l.21.11h.23c.47.01 2.01.17 2.01 2 0 .83 0 1.58-.03 2-1.28.02-1.97 1.04-1.97 2v.41l.29.3c.13.13 1.33 1.29 2.71 1.29h.24l.21-.11c1.06-.53 3.63.27 5.09 1 .046.023.877 1.071 1.264 2.593.216.849.997 1.428 1.867 1.33l.802-.09c.338-.038.652-.177.915-.393.455-.373 1.294-.874 2.162-.44l.11.06c2.33 1.16 4.73 2.37 5.7.51l.1-.19.01-.22c.02-.403.579-1.711 1.349-2.14.247-.138.563-.107.814.022 1.089.562 1.328 1.041 1.367 1.148v.28l.23.28c.07.08 1.55 1.84 4.22 1.84.167 0 .757-.071 1.249-.134.334-.043.567-.369.475-.693-.235-.822-.314-2.384 1.567-3.983.022-.018 1.81-1.94 3.57-1.42l.94.28.29-.94c.43-1.33-.16-2.51-.67-3.12a.863.863 0 0 1 .04-.56c.15-.35.61-.67 1.28-.92.98-.07 2.69-.71 3.23-2.72.3-1.08 2.53-2.63 4.03-3.38l.14-.07 1.12-1.11c.869-.88.329-1.93-.071-2.7zm-7.15 6.73a1.612 1.612 0 0 1-1.5 1.26l-.31.05c-1.35.45-2.23 1.16-2.63 2.11-.48 1.16 0 2.17.06 2.29l.17.25c.02.01.18.19.3.46-2.38.06-4.23 2.06-4.29 2.13-1.67 1.68-2.17 2.85-2.14 4.17a3.712 3.712 0 0 1-2.23-.95c-.19-.58-.75-1.54-2.47-2.4-.87-.44-1.82-.41-2.66.08-1.15.68-1.97 2.16-2.23 3.22-.63-.06-2.09-.79-3-1.25l-.11-.05c-1.83-.92-3.58-.01-4.53.83-.41-2.77-2.38-3.79-2.47-3.83-.44-.22-4.21-2.05-6.61-1.13-.04-.01-.09-.02-.13-.04C16 49.69 16 48.59 16 46c0-2.77-2.13-3.88-3.73-3.99-.46-.27-1.73-1.08-2.23-2.18 1.61 0 3.07-1.81 3.85-3.38 1.01-2.01.38-3.98.11-4.66V31c0-1.07-1-1.94-1.78-2.45.63-.35 1.43-.94 1.79-1.8.29-.7.25-1.46-.12-2.2l-.07-.14-.11-.12c-.29-.28-.97-.96-3.48.04.03-1.2-.04-2.69-.11-3.84C11.45 21.72 13.19 23 15 23c1.18 0 1.81-.52 2.12-.95.18-.25.3-.51.37-.78.77.19 1.58.08 2.22-.56l2.7-2.71H20c0-1.33-.16-1.58-1.29-2.71l-.29-.29h1.2l2.2-4.41.14-.14c.03.14.04.32.04.55 0 1.06.83 1.62 1.8 1.86-.77 1.06-.8 2.02-.8 2.14v.24l.11.21c.47.94 2.13 2.46 5.07 1.54 1.12-.11 1.64-1.2 1.78-2.32C30.47 14.3 31 13.55 31 12c0-.29.06-.5.18-.61.18-.17.52-.2.67-.2.61.14 3.49.76 5.6-.3 1.4-.7 1.69-1.11 2.13-2.09.15-.32.33-.73.66-1.29.8.55 1.57.75 2.33.6.92-.19 1.57-.83 2.14-1.4.48-.48.58-.49 1.94-.15l.66.17.23-.05c1.13-.26 1.74-.63 2.7-1.53-.22.55-.67 1.23-1.4 2.3-.21.3-.43.63-.67 1l-.12.23c-.25.75-.59 1.25-.96 1.41-.12.05-.23.07-.34.07-.17 0-.3-.05-.3-.05l-.65-.33-.94.94c-.76-.3-1.53-.12-2.18.04-.48.11-.98.23-1.59.24-2-.39-3.35-.21-4.21.55-1.09.95-1 2.44-.92 3.63.02.28.04.56.04.82 0 2.37 2.62 3 4 3h.24l1.94-.97c.34 1 1.2 1.97 2.82 1.97 1.15 0 1.7-.5 1.96-.93.06-.09.1-.18.14-.27.26.13.56.2.9.2.4 0 .66-.06.83-.09.03-.01.06-.02.07-.02.04 0 .24.05.98.44l.16.08.17.03h.05c-1.14.98-1.25 2.35-1.26 2.56 0 2.22.97 3.29 1.9 3.74-.61.78-.8 1.6-.53 2.28.18.41.51.72.94.87-.19.3-.31.67-.31 1.11 0 .75-.2.99-.15 1h-.47l-.3.35C49.97 31.49 49 32.7 49 35c0 2.59 2.45 3.84 2.55 3.89 1.31.66 2.36.58 3.1.33-1.29.86-2.78 2.13-3.16 3.52zm4.92-4.56"/><linearGradient id="d" x1="57.952" x2="57.952" y1="-17.546" y2="68.008" gradientUnits="userSpaceOnUse"><stop offset="0" stop-color="#1a6dff"/><stop offset=".695" stop-color="#c822ff"/></linearGradient><path fill="url(#d)" d="M58 28c1-1 .68 1.39.68 1.39L58.27 32S56 30 58 28z"/></svg>