<svg version="1.0" id="Layer_1" xmlns="http://www.w3.org/2000/svg" xmlns:xlink="http://www.w3.org/1999/xlink" x="0px"
    y="0px" viewBox="0 0 50 50" enable-background="new 0 0 50 50" xml:space="preserve">
    <g>
        <g>
            <path fill="#4A9AE6" d="M1.525,40.657c0.126-0.072,0.254-0.005,0.379,0.003c0.227,0.013,0.453,0.058,0.679,0.091
			c0.39,0.056,0.611,0.306,0.625,0.704c0.001,0.029,0,0.058,0.001,0.088c0.001,0.042,0,0.087,0.051,0.103
			c0.049,0.016,0.091-0.001,0.123-0.039c0.077-0.091,0.116-0.19,0.07-0.311c-0.033-0.087-0.107-0.192-0.02-0.266
			c0.096-0.082,0.199,0.007,0.285,0.058c0.089,0.053,0.168,0.123,0.25,0.187c0.066,0.052,0.129,0.068,0.202,0.009
			c0.077-0.063,0.165-0.114,0.24-0.179c0.139-0.121,0.295-0.128,0.458-0.077c0.243,0.077,0.472,0.187,0.699,0.302
			c0.029,0.015,0.063,0.046,0.091,0.026c0.039-0.029,0.006-0.068-0.007-0.102c-0.024-0.064-0.045-0.134,0.004-0.189
			c0.049-0.055,0.123-0.042,0.189-0.029c0.036,0.007,0.072,0.021,0.106,0.038c0.209,0.106,0.424,0.193,0.657,0.23
			c0.102,0.016,0.175,0.071,0.187,0.187c0.006,0.055,0.029,0.11,0.094,0.117c0.063,0.007,0.094-0.04,0.123-0.089
			c0.039-0.066,0.05-0.141,0.068-0.213c0.012-0.048,0.021-0.098,0.039-0.144c0.069-0.174,0.175-0.209,0.333-0.108
			c0.147,0.095,0.294,0.19,0.45,0.269c0.095,0.048,0.157,0.032,0.196-0.07c0.015-0.039,0.036-0.075,0.057-0.111
			c0.034-0.06,0.083-0.097,0.154-0.076c0.07,0.021,0.114,0.068,0.111,0.147c-0.001,0.021,0,0.042-0.002,0.063
			c-0.007,0.065-0.006,0.125,0.066,0.159c0.079,0.038,0.133,0.003,0.188-0.051c0.074-0.073,0.136-0.159,0.23-0.211
			c0.189-0.104,0.385-0.09,0.581-0.024c0.048,0.016,0.097,0.04,0.145,0.027c0.267-0.071,0.52,0.03,0.778,0.062
			c0.665,0.083,1.312,0.073,1.921-0.26c0.271-0.148,0.573-0.167,0.876-0.147c0.105,0.007,0.191,0.063,0.241,0.158
			c0.035,0.066,0.062,0.136,0.087,0.207c0.026,0.074,0.061,0.089,0.111,0.024c0.181-0.236,0.412-0.278,0.689-0.199
			c0.329,0.094,0.67,0.112,1.011,0.14c0.425,0.034,0.833-0.07,1.276-0.078c-0.084-0.108-0.153-0.187-0.25-0.238
			c-0.203-0.106-0.42-0.187-0.586-0.353c-0.025-0.025-0.064-0.047-0.098-0.049c-0.228-0.012-0.412-0.127-0.592-0.248
			c-0.285-0.191-0.595-0.335-0.901-0.487c-0.142-0.071-0.282-0.145-0.412-0.236c-0.103-0.072-0.184-0.057-0.26,0.036
			c-0.01,0.013-0.021,0.026-0.032,0.039c-0.133,0.173-0.232,0.167-0.334-0.021c-0.071-0.132-0.141-0.265-0.211-0.397
			c-0.091-0.173-0.336-0.296-0.527-0.262c-0.268,0.048-0.54-0.084-0.669-0.325c-0.01-0.018-0.02-0.037-0.028-0.056
			c-0.055-0.12-0.134-0.164-0.27-0.118c-0.133,0.045-0.275,0.066-0.412,0.099c-0.075,0.018-0.156,0.04-0.202-0.041
			c-0.047-0.081,0.012-0.143,0.065-0.196c0.49-0.494,0.969-1,1.56-1.381c0.284-0.183,0.472-0.465,0.683-0.722
			c0.127-0.154,0.245-0.316,0.39-0.455c0.106-0.101,0.165-0.092,0.252,0.029c0.081,0.112,0.109,0.24,0.123,0.375
			c0.019,0.189,0.08,0.363,0.186,0.527c0.045-0.045,0.028-0.093,0.027-0.136c-0.004-0.345-0.055-0.688-0.051-1.035
			c0.003-0.273,0.102-0.475,0.364-0.583c0.148-0.061,0.271-0.163,0.4-0.255c0.119-0.085,0.191-0.064,0.248,0.075
			c0.112,0.271,0.175,0.555,0.23,0.842c0.04,0.212,0.104,0.418,0.206,0.614c-0.027-0.217-0.007-0.434-0.03-0.65
			c-0.035-0.319-0.135-0.626-0.178-0.943c-0.013-0.098-0.013-0.2-0.003-0.299c0.008-0.077,0.055-0.143,0.137-0.161
			c0.088-0.019,0.134,0.036,0.174,0.109c0.202,0.367,0.477,0.658,0.863,0.838c0.181,0.085,0.346,0.201,0.5,0.33
			c0.222,0.186,0.499,0.283,0.731,0.453c0.325,0.239,0.673,0.442,1.019,0.65c0.334,0.201,0.706,0.324,1.026,0.556
			c0.206,0.149,0.485,0.167,0.725,0.264c0.501,0.201,0.963,0.476,1.441,0.721c0.094,0.048,0.159,0.134,0.235,0.205
			c0.12,0.113,0.199,0.125,0.351,0.057c0.2-0.09,0.387-0.083,0.556,0.073c0.077,0.071,0.164,0.1,0.274,0.077
			c0.191-0.04,0.385-0.068,0.578-0.097c0.098-0.015,0.176,0.009,0.192,0.124c0.016,0.119,0.038,0.238,0.044,0.358
			c0.013,0.3,0.01,0.6,0.019,0.9c0.012,0.387,0.022,0.775,0.04,1.162c0.017,0.367,0,0.734,0.02,1.1
			c0.027,0.491,0.033,0.982,0.054,1.473c0.011,0.258,0.014,0.516,0.017,0.774c0.002,0.196-0.036,0.223-0.226,0.204
			c-0.433-0.045-0.851-0.142-1.256-0.309c-0.277-0.114-0.541-0.048-0.764,0.156c-0.142,0.13-0.31,0.192-0.499,0.198
			c-0.398,0.013-0.754,0.162-1.102,0.335c-0.052,0.026-0.095,0.064-0.108,0.129c-0.031,0.151-0.085,0.201-0.243,0.21
			c-0.183,0.011-0.373,0.033-0.483-0.172c-0.026-0.049-0.076-0.043-0.122-0.025c-0.352,0.136-0.724,0.135-1.091,0.181
			c-0.279,0.035-0.537-0.006-0.798-0.086c-0.159-0.049-0.305-0.013-0.44,0.075c-0.215,0.14-0.435,0.148-0.662,0.031
			c-0.168-0.087-0.332-0.118-0.507-0.003c-0.138,0.091-0.291,0.057-0.434,0.001c-0.312-0.122-0.634-0.167-0.968-0.151
			c-0.168,0.008-0.33,0.044-0.492,0.079c-0.345,0.074-0.641-0.035-0.915-0.232c-0.091-0.065-0.092-0.173-0.116-0.268
			c-0.044-0.168-0.067-0.177-0.197-0.067c-0.286,0.24-0.594,0.236-0.883,0.005c-0.229-0.183-0.266-0.182-0.472-0.011
			c-0.156,0.13-0.27,0.084-0.311-0.112c-0.014-0.07-0.02-0.14-0.025-0.21c-0.008-0.12-0.071-0.169-0.189-0.164
			c-0.174,0.007-0.267,0.118-0.34,0.257c-0.11,0.209-0.286,0.304-0.52,0.298c-0.056-0.001-0.106-0.014-0.153-0.046
			c-0.118-0.079-0.233-0.156-0.385-0.163c-0.087-0.005-0.119-0.071-0.097-0.165c0.081-0.356,0.228-0.676,0.493-0.936
			c0.081-0.079,0.127-0.184,0.167-0.291c0.018-0.049,0.013-0.087-0.033-0.119c-0.101-0.071-0.312-0.036-0.384,0.065
			c-0.049,0.069-0.078,0.147-0.103,0.226c-0.084,0.262-0.167,0.524-0.247,0.787c-0.103,0.338-0.298,0.572-0.672,0.616
			c-0.062,0.007-0.121,0.032-0.182,0.044c-0.143,0.028-0.192-0.028-0.137-0.163c0.03-0.073,0.039-0.144,0.025-0.219
			c-0.016-0.081-0.065-0.136-0.145-0.156c-0.085-0.021-0.13,0.034-0.17,0.097c-0.076,0.121-0.131,0.125-0.226,0.011
			c-0.045-0.054-0.079-0.118-0.126-0.17c-0.06-0.067-0.125-0.09-0.2-0.009c-0.085,0.092-0.177,0.198-0.319,0.15
			c-0.137-0.047-0.149-0.19-0.181-0.308c-0.028-0.104-0.035-0.213-0.036-0.322c-0.001-0.122,0.062-0.183,0.169-0.215
			c0.107-0.032,0.224-0.027,0.325-0.084c0.045-0.025,0.089-0.049,0.081-0.112C7.596,42.994,7.543,43,7.493,42.991
			c-0.181-0.032-0.361-0.058-0.546-0.05c-0.206,0.01-0.276,0.082-0.257,0.283c0.008,0.091,0.018,0.182,0.026,0.273
			c0.006,0.07-0.025,0.124-0.085,0.155c-0.058,0.031-0.111,0.013-0.16-0.031c-0.199-0.182-0.439-0.256-0.704-0.285
			c-0.214-0.023-0.412-0.101-0.579-0.245c-0.153-0.132-0.336-0.198-0.529-0.242c-0.063-0.014-0.116-0.032-0.104-0.111
			c0.011-0.07,0.067-0.078,0.123-0.081c0.32-0.014,0.632,0.02,0.926,0.159c0.026,0.012,0.053,0.026,0.08,0.034
			c0.024,0.007,0.054,0.012,0.07-0.011c0.017-0.023,0.001-0.05-0.015-0.068c-0.024-0.028-0.051-0.055-0.081-0.077
			c-0.125-0.089-0.2-0.209-0.23-0.359c-0.03-0.148-0.097-0.208-0.244-0.219c-0.029-0.002-0.059-0.003-0.088-0.001
			c-0.27,0.026-0.466-0.064-0.543-0.344c-0.026-0.094-0.094-0.122-0.184-0.103c-0.138,0.029-0.278,0.056-0.414,0.095
			c-0.197,0.056-0.211,0.098-0.083,0.263c0.099,0.127,0.173,0.263,0.219,0.418c0.022,0.074,0.027,0.146-0.034,0.196
			c-0.06,0.048-0.132,0.034-0.199-0.002c-0.195-0.106-0.371-0.231-0.515-0.407c-0.132-0.16-0.326-0.223-0.532-0.186
			c-0.307,0.056-0.575-0.046-0.837-0.181c-0.066-0.034-0.127-0.08-0.192-0.117c-0.059-0.034-0.101-0.078-0.084-0.151
			c0.018-0.076,0.08-0.104,0.149-0.114c0.134-0.019,0.258,0.021,0.371,0.085c0.093,0.053,0.192,0.101,0.267,0.183
			c0.016,0.017,0.036,0.045,0.062,0.026c0.031-0.022,0.014-0.053,0-0.078c-0.044-0.076-0.089-0.149-0.17-0.196
			c-0.334-0.192-0.582-0.484-0.856-0.744C1.525,40.724,1.525,40.69,1.525,40.657z M11.319,41.689c-0.136,0-0.201,0.09-0.161,0.298
			c0.04,0.207,0.125,0.397,0.224,0.581c0.023,0.042,0.037,0.109,0.099,0.096c0.058-0.012,0.074-0.073,0.083-0.129
			c0.003-0.016,0.001-0.033,0.003-0.05c0.014-0.182,0.042-0.354,0.225-0.457c0.09-0.051,0.048-0.128-0.008-0.175
			C11.666,41.755,11.533,41.688,11.319,41.689z" />
            <path fill="#4A9AE6" d="M20.591,4.834c0.057,0.075,0.144,0.125,0.17,0.227c0.037,0.15-0.029,0.247-0.182,0.254
			c-0.021,0.001-0.042,0.001-0.062,0C20.362,5.311,20.253,5.25,20.22,5.15c-0.035-0.106,0.021-0.226,0.145-0.316
			C20.44,4.834,20.515,4.834,20.591,4.834z" />
            <path fill="#4A9AE6"
                d="M42.875,29.425c0.113,0.131,0.13,0.26,0.03,0.394c-0.052,0.069-0.019,0.134,0.007,0.2
			c0.098,0.242,0.061,0.322-0.185,0.416c-0.219,0.084-0.33,0.258-0.384,0.475c-0.077,0.311-0.102,0.633-0.195,0.941
			c-0.023,0.074-0.013,0.157,0.028,0.231c0.071,0.131,0.052,0.247-0.059,0.35c-0.039,0.036-0.065,0.087-0.103,0.125
			c-0.105,0.104-0.217,0.195-0.379,0.192c-0.068-0.001-0.105,0.018-0.054,0.098c0.097,0.148,0.08,0.2-0.079,0.28
			c-0.143,0.072-0.264,0.171-0.385,0.275c-0.12,0.103-0.145,0.225-0.122,0.371c0.024,0.146-0.015,0.213-0.158,0.246
			c-0.209,0.047-0.325,0.177-0.362,0.382c-0.074,0.412-0.29,0.712-0.683,0.873c-0.061,0.025-0.116,0.062-0.134,0.123
			c-0.043,0.152-0.14,0.273-0.22,0.404c-0.021,0.035-0.034,0.076-0.044,0.116c-0.044,0.163-0.124,0.205-0.281,0.14
			c-0.069-0.029-0.134-0.067-0.203-0.098c-0.027-0.012-0.064-0.047-0.086-0.003c-0.02,0.04,0.024,0.057,0.051,0.073
			c0.09,0.052,0.144,0.121,0.136,0.233c-0.005,0.067-0.027,0.107-0.094,0.128c-0.399,0.125-0.803,0.213-1.224,0.219
			c-0.434,0.007-0.867-0.02-1.3-0.035c-0.279-0.009-0.558-0.009-0.837-0.018c-0.092-0.003-0.181-0.02-0.268-0.053
			c-0.138-0.052-0.206-0.149-0.227-0.299c-0.035-0.251-0.086-0.5-0.132-0.749c-0.028-0.152-0.03-0.308-0.032-0.46
			c-0.008-0.596-0.088-1.19-0.055-1.786c0.013-0.228,0.019-0.457,0.073-0.681c0.03-0.125,0.064-0.138,0.171-0.073
			c0.166,0.101,0.166,0.101,0.239-0.077c0.005-0.012,0.008-0.025,0.016-0.034c0.145-0.163,0.27-0.327,0.212-0.571
			c-0.015-0.062,0.074-0.115,0.138-0.147c0.147-0.072,0.252-0.189,0.345-0.318c0.136-0.189,0.247-0.395,0.393-0.577
			c0.047-0.059,0.068-0.132,0.065-0.211c-0.007-0.158,0.049-0.286,0.19-0.368c0.076-0.044,0.097-0.093,0.04-0.171
			c-0.052-0.071-0.036-0.15-0.002-0.226c0.066-0.15,0.152-0.289,0.257-0.413c0.194-0.228,0.291-0.49,0.318-0.785
			c0.02-0.223,0.126-0.396,0.327-0.501c0.074-0.038,0.09-0.065,0.032-0.135c-0.096-0.114-0.106-0.253-0.07-0.391
			c0.071-0.266,0.151-0.528,0.25-0.785c0.061-0.16,0.169-0.227,0.335-0.221c0.06,0.002,0.142,0.031,0.176-0.028
			c0.037-0.065-0.034-0.119-0.066-0.175c-0.002-0.004-0.004-0.007-0.006-0.011c-0.047-0.068-0.125-0.133-0.132-0.205
			c-0.009-0.092,0.113-0.106,0.173-0.16c0.027-0.025,0.064-0.051,0.046-0.094c-0.021-0.049-0.067-0.041-0.109-0.035
			c-0.016,0.002-0.032,0.011-0.048,0.013c-0.059,0.008-0.128,0.018-0.159-0.04c-0.027-0.05,0.013-0.101,0.047-0.145
			c0.134-0.175,0.172-0.366,0.141-0.587c-0.04-0.288-0.014-0.574,0.119-0.842c0.07-0.141,0.085-0.287,0.077-0.446
			c-0.022-0.454-0.01-0.909,0.125-1.349c0.037-0.121,0.012-0.221-0.063-0.315c-0.15-0.186-0.159-0.328-0.043-0.538
			c0.054-0.097,0.127-0.182,0.129-0.306c0.002-0.116-0.041-0.194-0.141-0.241c-0.162-0.076-0.242-0.213-0.283-0.376
			c-0.078-0.309-0.082-0.617,0.015-0.924c0.084-0.269,0.009-0.462-0.237-0.595c-0.237-0.128-0.378-0.323-0.433-0.58
			c-0.062-0.289-0.215-0.541-0.315-0.814c-0.017-0.047-0.067-0.085-0.107-0.12c-0.161-0.143-0.238-0.33-0.279-0.533
			c-0.033-0.162-0.102-0.284-0.267-0.346c-0.14-0.053-0.275-0.121-0.407-0.191c-0.146-0.077-0.16-0.134-0.091-0.282
			c0.099-0.214,0.245-0.397,0.399-0.572c0.395-0.45,0.795-0.897,1.194-1.343c0.097-0.109,0.2-0.211,0.298-0.32
			c0.197-0.221,0.407-0.43,0.613-0.642c0.314-0.323,0.629-0.645,0.942-0.968c0.183-0.189,0.386-0.355,0.582-0.53
			c0.032-0.028,0.068-0.05,0.11-0.055c0.063-0.008,0.109,0.021,0.084,0.084c-0.116,0.294-0.071,0.613-0.137,0.906
			c-0.049,0.219-0.022,0.324,0.15,0.429c0.057,0.035,0.09,0.098,0.103,0.167c0.026,0.142,0.104,0.251,0.21,0.345
			c0.137,0.123,0.252,0.266,0.36,0.414c0.05,0.068,0.08,0.065,0.131,0.007c0.078-0.09,0.177-0.134,0.299-0.127
			c0.142,0.008,0.225,0.077,0.219,0.216c-0.008,0.191-0.031,0.38,0.044,0.565c0.018,0.045-0.017,0.096-0.041,0.14
			c-0.059,0.108-0.044,0.16,0.069,0.2c0.272,0.095,0.417,0.304,0.518,0.556c0.063,0.156,0.046,0.309-0.012,0.463
			c-0.026,0.07-0.049,0.142-0.066,0.215c-0.03,0.126,0.003,0.236,0.114,0.307c0.356,0.227,0.581,0.565,0.789,0.918
			c0.011,0.018,0.017,0.04,0.031,0.054c0.148,0.143,0.179,0.315,0.156,0.514c-0.015,0.13,0.07,0.239,0.146,0.337
			c0.094,0.121,0.148,0.249,0.134,0.404c-0.003,0.037-0.007,0.081,0.01,0.111c0.113,0.194,0.129,0.398,0.09,0.615
			c-0.033,0.182,0.084,0.292,0.229,0.346c0.427,0.159,0.495,0.541,0.588,0.909c0.027,0.107-0.072,0.191-0.185,0.173
			c-0.241-0.039-0.235-0.04-0.194,0.21c0.03,0.182,0.062,0.359,0.16,0.52c0.08,0.131,0.186,0.22,0.328,0.274
			c0.181,0.07,0.189,0.122,0.053,0.262c-0.268,0.277-0.466,0.607-0.7,0.91c-0.08,0.103-0.171,0.195-0.271,0.276
			c-0.055,0.045-0.114,0.088-0.156,0.144c-0.142,0.188-0.176,0.162-0.374,0.021c-0.406-0.289-0.679-0.691-0.96-1.09
			c-0.222-0.315-0.522-0.561-0.79-0.835c-0.07-0.072-0.157-0.078-0.238-0.016c-0.183,0.137-0.379,0.262-0.543,0.42
			c-0.288,0.279-0.603,0.525-0.915,0.774c-0.077,0.062-0.143,0.131-0.188,0.213c-0.055,0.102-0.136,0.152-0.239,0.184
			c-0.076,0.024-0.15,0.05-0.203,0.116c-0.044,0.055-0.028,0.083,0.036,0.092c0.097,0.014,0.183-0.014,0.256-0.077
			c0.432-0.371,0.863-0.745,1.295-1.116c0.155-0.133,0.313-0.261,0.467-0.394c0.086-0.074,0.167-0.077,0.24,0.007
			c0.349,0.402,0.754,0.753,1.054,1.199c0.123,0.182,0.276,0.343,0.414,0.515c0.25,0.311,0.249,0.718-0.018,1.042
			c-0.35,0.423-0.739,0.802-1.17,1.14c-0.19,0.149-0.426,0.138-0.631-0.025c-0.462-0.37-0.905-0.761-1.317-1.187
			c-0.086-0.089-0.188-0.164-0.284-0.243c-0.072-0.06-0.148-0.08-0.219,0.003c-0.072,0.084-0.033,0.158,0.028,0.221
			c0.195,0.2,0.393,0.395,0.613,0.569c0.378,0.3,0.726,0.637,1.121,0.916c0.105,0.074,0.214,0.144,0.325,0.211
			c0.077,0.047,0.164,0.06,0.228-0.018c0.318-0.387,0.745-0.669,1.034-1.083c0.167-0.24,0.333-0.479,0.552-0.676
			c0.053-0.048,0.057-0.119,0.076-0.182c0.036-0.122,0.079-0.149,0.188-0.091c0.245,0.131,0.466,0.293,0.612,0.538
			c0.134,0.224,0.286,0.428,0.509,0.574c0.123,0.081,0.182,0.218,0.127,0.351c-0.11,0.268-0.125,0.536-0.092,0.82
			c0.023,0.201-0.007,0.218-0.208,0.182c-0.101-0.018-0.096,0.047-0.083,0.104c0.035,0.149,0.013,0.299,0.02,0.449
			c0.003,0.056-0.014,0.108-0.035,0.157c-0.031,0.07-0.081,0.104-0.16,0.07c-0.023-0.01-0.046-0.019-0.07-0.028
			c-0.299-0.119-0.441,0.05-0.475,0.267c-0.034,0.22-0.126,0.401-0.264,0.568c-0.158,0.193-0.189,0.402-0.066,0.626
			c0.016,0.029,0.029,0.06,0.04,0.091c0.066,0.188,0.029,0.265-0.161,0.331C42.932,29.404,42.909,29.412,42.875,29.425z" />
            <path fill="#4A9AE6"
                d="M28.615,38.261c-0.078-0.093-0.186-0.147-0.289-0.206c-0.057-0.033-0.131-0.058-0.116-0.142
			c0.013-0.076,0.083-0.082,0.146-0.093c0.328-0.059,0.621-0.212,0.921-0.347c0.128-0.058,0.258-0.113,0.366-0.212
			c0.063-0.058,0.153-0.085,0.243-0.089c0.194-0.01,0.342-0.088,0.467-0.246c0.318-0.402,0.706-0.728,1.148-0.989
			c0.497-0.293,0.968-0.623,1.356-1.055c0.149-0.166,0.314-0.304,0.497-0.429c0.187-0.128,0.303-0.33,0.441-0.507
			c0.174-0.223,0.347-0.447,0.516-0.674c0.035-0.047,0.074-0.066,0.128-0.052c0.057,0.014,0.06,0.062,0.062,0.109
			c0.015,0.437,0.063,0.872,0.053,1.31c-0.011,0.533,0.04,1.064,0.076,1.596c0.007,0.112,0.046,0.221,0.093,0.323
			c0.054,0.117,0.162,0.16,0.278,0.159c0.359-0.005,0.717,0.023,1.072,0.058c0.558,0.055,1.116,0.033,1.674,0.05
			c0.183,0.006,0.366,0.018,0.549,0.021c0.064,0.001,0.116,0.02,0.134,0.088c0.017,0.069-0.017,0.111-0.078,0.138
			c-0.049,0.022-0.095,0.056-0.147,0.07c-0.241,0.064-0.441,0.182-0.592,0.389c-0.086,0.118-0.233,0.173-0.362,0.24
			c-0.175,0.091-0.322,0.208-0.399,0.396c-0.067,0.161-0.206,0.152-0.34,0.139c-0.072-0.007-0.122,0.006-0.179,0.054
			c-0.126,0.107-0.28,0.16-0.44,0.198c-0.125,0.03-0.25,0.065-0.373,0.105c-0.082,0.027-0.144,0.07-0.079,0.174
			c0.076,0.124,0.024,0.235-0.063,0.329c-0.082,0.089-0.126,0.195-0.168,0.304c-0.05,0.13-0.051,0.245,0.081,0.328
			c0.027,0.017,0.034,0.046,0.046,0.072c0.081,0.165,0.206,0.234,0.383,0.199c0.071-0.014,0.14-0.016,0.211-0.018
			c0.499-0.017,0.999-0.026,1.498-0.054c0.291-0.016,0.577-0.074,0.856-0.163c0.184-0.059,0.2-0.115,0.069-0.257
			c-0.124-0.135-0.261-0.257-0.408-0.368c-0.051-0.039-0.085-0.082-0.066-0.148c0.02-0.071,0.082-0.058,0.135-0.062
			c0.216-0.014,0.421,0.048,0.628,0.091c0.513,0.109,1.019,0.249,1.534,0.347c0.096,0.018,0.186,0.003,0.27-0.026
			c0.418-0.142,0.843-0.125,1.273-0.091c0.713,0.057,1.41,0.187,2.085,0.428c0.142,0.051,0.293,0.074,0.442,0.073
			c0.25-0.002,0.49,0.046,0.724,0.12c0.361,0.115,0.73,0.162,1.107,0.16c0.375-0.002,0.749,0.008,1.124,0.035
			c0.263,0.019,0.501-0.081,0.641-0.332c0.097-0.173,0.242-0.282,0.433-0.334c0.127-0.035,0.173-0.006,0.204,0.123
			c0.033,0.14,0.047,0.285,0.023,0.422c-0.061,0.365-0.118,0.735-0.418,1.004c-0.197,0.176-0.436,0.278-0.687,0.307
			c-0.37,0.043-0.721,0.164-1.087,0.223c-0.267,0.043-0.537,0.056-0.805,0.088c-0.163,0.019-0.308,0.054-0.406,0.205
			c-0.071,0.11-0.189,0.118-0.304,0.084c-0.246-0.074-0.477-0.04-0.701,0.075c-0.412,0.211-0.821,0.428-1.238,0.63
			c-0.378,0.183-0.778,0.29-1.201,0.313c-0.234,0.013-0.459,0.06-0.56,0.316c0.375,0.014,0.739-0.047,1.103-0.133
			c0.186-0.044,0.381-0.047,0.566,0.027c0.07,0.028,0.136,0.022,0.206-0.002c0.226-0.077,0.437-0.187,0.646-0.3
			c0.144-0.078,0.298-0.116,0.455-0.117c0.3-0.001,0.599-0.045,0.899-0.03c0.102,0.005,0.207-0.005,0.226,0.136
			c0.022,0.165-0.048,0.288-0.187,0.323c-0.044,0.011-0.089,0.02-0.134,0.028c-0.041,0.008-0.072,0.024-0.072,0.071
			c-0.001,0.039,0.024,0.062,0.057,0.074c0.263,0.097,0.523,0.107,0.77-0.041c0.15-0.09,0.147-0.241,0.125-0.39
			c-0.012-0.086-0.041-0.17-0.042-0.258c0-0.148,0.031-0.182,0.181-0.191c0.158-0.01,0.306,0.032,0.451,0.087
			c0.258,0.097,0.506,0.215,0.743,0.357c0.072,0.043,0.128,0.097,0.111,0.191c-0.016,0.091-0.097,0.089-0.163,0.11
			c-0.116,0.037-0.223-0.004-0.33-0.035c-0.156-0.046-0.308-0.102-0.463-0.152c-0.026-0.008-0.058-0.031-0.079,0.003
			c-0.02,0.032,0.012,0.053,0.029,0.075c0.104,0.13,0.163,0.273,0.118,0.441c-0.031,0.113-0.114,0.179-0.224,0.217
			c-0.336,0.118-0.685,0.182-1.036,0.217c-1.209,0.121-2.416,0.253-3.589,0.595c-0.238,0.069-0.486,0.119-0.74,0.065
			c-0.026-0.006-0.059,0.004-0.085,0.015c-0.171,0.072-0.342,0.048-0.514,0.007c-0.149-0.036-0.293-0.036-0.444,0.005
			c-0.131,0.036-0.27,0.059-0.406,0.063c-0.575,0.016-1.148,0.069-1.724,0.055c-0.425-0.01-0.849,0.017-1.273,0.046
			c-0.163,0.011-0.321-0.042-0.483-0.054c-0.248-0.019-0.496-0.052-0.745-0.066c-0.216-0.012-0.43-0.046-0.645-0.067
			c-0.191-0.018-0.371,0.04-0.545,0.108c-0.233,0.091-0.264,0.087-0.432-0.091c-0.046-0.049-0.105-0.071-0.167-0.075
			c-0.295-0.021-0.588-0.058-0.884-0.055c-0.516,0.006-1.03-0.045-1.544-0.096c-0.246-0.024-0.491,0.021-0.737,0.023
			c-0.141,0.001-0.273-0.025-0.39-0.11c-0.058-0.042-0.125-0.043-0.192-0.042c-0.43,0.007-0.856-0.04-1.277-0.123
			c-0.284-0.056-0.565-0.116-0.779-0.333c-0.037-0.038-0.07-0.024-0.094,0.01c-0.099,0.137-0.217,0.088-0.333,0.035
			c-0.367-0.168-0.686-0.409-1.005-0.651c-0.368-0.279-0.726-0.571-1.073-0.875c-0.217-0.19-0.325-0.322,0.047-0.538
			c0.353-0.205,0.724-0.354,1.114-0.466c0.357-0.103,0.694-0.26,1.026-0.424c0.111-0.054,0.114-0.103,0.025-0.171
			c-0.572-0.437-1.112-0.915-1.696-1.336c-0.243-0.175-0.499-0.333-0.74-0.511c-0.185-0.136-0.34-0.307-0.468-0.5
			c-0.048-0.073-0.063-0.147-0.012-0.222c0.053-0.078,0.13-0.088,0.22-0.083c0.407,0.022,0.785,0.178,1.181,0.252
			c0.161,0.031,0.325,0.009,0.487,0.013c0.112,0.003,0.224,0.003,0.336,0.023c0.104,0.019,0.145,0.061,0.118,0.17
			c-0.033,0.131-0.02,0.142,0.11,0.107c0.246-0.066,0.478-0.162,0.62-0.388c0.177-0.281,0.523-0.356,0.837-0.199
			c0.144,0.072,0.291,0.138,0.437,0.206C28.604,38.281,28.609,38.271,28.615,38.261z M41.902,40.31
			c-0.453,0.028-0.903,0.107-1.346,0.225c-0.082,0.022-0.138,0.072-0.18,0.144c-0.038,0.066-0.08,0.128-0.033,0.208
			c0.049,0.082,0.13,0.078,0.2,0.059c0.113-0.031,0.215-0.007,0.318,0.029c0.153,0.054,0.305,0.112,0.457,0.167
			c0.198,0.071,0.385,0.056,0.556-0.074c0.121-0.092,0.263-0.133,0.409-0.137c0.387-0.011,0.773-0.032,1.157-0.08
			c0.235-0.03,0.469-0.067,0.703-0.102c0.03-0.004,0.061-0.014,0.066-0.047c0.006-0.043-0.035-0.041-0.06-0.047
			c-0.092-0.024-0.185-0.052-0.279-0.067c-0.341-0.052-0.682-0.1-1.024-0.149C42.533,40.396,42.224,40.327,41.902,40.31z" />
            <path fill="#4A9AE6"
                d="M14.001,14.258c-0.12-0.099-0.263-0.096-0.394-0.12c-0.283-0.051-0.567-0.095-0.856-0.081
			c-0.108,0.006-0.193-0.046-0.264-0.122c-0.219-0.234-0.434-0.472-0.656-0.703c-0.244-0.253-0.52-0.467-0.817-0.655
			c-0.316-0.201-0.533-0.498-0.745-0.797c-0.032-0.046-0.047-0.104-0.01-0.153c0.038-0.051,0.098-0.037,0.151-0.024
			c0.024,0.006,0.047,0.017,0.068,0.031c0.319,0.208,0.483,0.077,0.771-0.191c0.035-0.033,0.069-0.081,0.078-0.127
			c0.056-0.284,0.271-0.319,0.501-0.324c0.225-0.005,0.451-0.001,0.676-0.002c0.237-0.001,0.338-0.075,0.414-0.301
			c0.06-0.178,0.121-0.355,0.184-0.531c0.049-0.138,0.052-0.274,0.015-0.417c-0.06-0.229,0.009-0.363,0.224-0.446
			c0.171-0.066,0.343-0.129,0.517-0.187c0.14-0.046,0.174-0.017,0.157,0.127c-0.01,0.085,0.022,0.095,0.092,0.063
			c0.177-0.081,0.325-0.202,0.46-0.339c0.08-0.082,0.169-0.145,0.284-0.173C14.96,8.759,14.988,8.673,15,8.568
			c0.038-0.346,0.137-0.676,0.271-0.996c0.05-0.12,0.133-0.221,0.213-0.323c0.081-0.103,0.406-0.175,0.525-0.126
			c0.079,0.033,0.097,0.103,0.099,0.173c0.004,0.12,0.012,0.241-0.012,0.362c-0.023,0.115-0.024,0.236,0.021,0.346
			c0.079,0.193,0.01,0.348-0.103,0.497c-0.125,0.165-0.116,0.206,0.043,0.322c0.084,0.061,0.14,0.038,0.181-0.043
			c0.028-0.055,0.044-0.117,0.068-0.174c0.041-0.099,0.108-0.145,0.218-0.104c0.031,0.012,0.064,0.017,0.097,0.024
			c0.142,0.03,0.199-0.001,0.253-0.134c0.069-0.171,0.096-0.184,0.27-0.133c0.148,0.043,0.296,0.087,0.453,0.078
			c0.061-0.003,0.133-0.001,0.16,0.069c0.03,0.079-0.022,0.132-0.075,0.183c-0.045,0.043-0.159,0.08-0.117,0.132
			c0.046,0.056,0.119-0.038,0.17-0.079c0.088-0.069,0.177-0.104,0.289-0.067c0.087,0.028,0.156-0.016,0.209-0.079
			c0.131-0.157,0.305-0.174,0.489-0.153c0.077,0.009,0.099,0.004,0.129-0.088c0.05-0.153,0.142-0.301,0.247-0.426
			c0.06-0.072,0.181-0.036,0.272-0.002c0.054,0.02,0.106,0.049,0.155,0.08c0.173,0.109,0.338,0.101,0.496-0.029
			c0.025-0.021,0.064-0.037,0.061-0.074c-0.003-0.046-0.051-0.031-0.08-0.042c-0.062-0.024-0.128-0.032-0.192-0.052
			c-0.11-0.035-0.11-0.113-0.099-0.199c0.01-0.084,0.071-0.103,0.145-0.105c0.136-0.004,0.263-0.048,0.384-0.103
			c0.149-0.067,0.289-0.075,0.421,0.033c0.101,0.082,0.188,0.067,0.268-0.033c0.041-0.051,0.093-0.088,0.163-0.064
			c0.073,0.025,0.076,0.088,0.08,0.154c0.008,0.142,0.04,0.161,0.158,0.091c0.226-0.133,0.448-0.273,0.651-0.441
			c0.06-0.049,0.108-0.116,0.152-0.181c0.05-0.074,0.11-0.101,0.191-0.064c0.07,0.031,0.084,0.003,0.091-0.063
			c0.01-0.095,0.033-0.188,0.05-0.282c0.011-0.058,0.041-0.1,0.1-0.116c0.063-0.017,0.107,0.02,0.137,0.066
			c0.042,0.066,0.075,0.139,0.113,0.208c0.019,0.034,0.022,0.082,0.08,0.099c0.016-0.051,0.03-0.102,0.048-0.151
			c0.049-0.131,0.146-0.201,0.284-0.203c0.136-0.002,0.261-0.036,0.38-0.106c0.246-0.144,0.52-0.194,0.8-0.221
			c0.369-0.036,0.737-0.072,1.108-0.079c0.132-0.002,0.222-0.085,0.265-0.212c0.019-0.056,0.037-0.114,0.116-0.107
			c0.081,0.007,0.097,0.068,0.11,0.131c0.067,0.323,0.078,0.651,0.104,0.979c0.053,0.686,0.087,1.372,0.066,2.059
			c-0.008,0.255,0.008,0.517-0.063,0.769c-0.019,0.067-0.033,0.136-0.115,0.144c-0.072,0.007-0.098-0.056-0.121-0.109
			c-0.094-0.216-0.269-0.347-0.474-0.441c-0.409-0.188-0.819-0.372-1.231-0.554c-0.122-0.054-0.249-0.096-0.374-0.142
			c-0.034-0.012-0.078-0.042-0.103-0.003c-0.03,0.047,0.022,0.074,0.051,0.099c0.306,0.259,0.63,0.489,0.98,0.687
			c0.363,0.204,0.716,0.424,1.062,0.657c0.21,0.141,0.299,0.352,0.34,0.588c0.051,0.29,0.022,0.583,0.027,0.874
			c0.001,0.036,0.005,0.08-0.04,0.096c-0.052,0.019-0.087-0.008-0.115-0.049c-0.288-0.41-0.735-0.59-1.164-0.791
			c-0.374-0.176-0.768-0.299-1.167-0.406c-0.028-0.008-0.056-0.02-0.084-0.022c-0.029-0.002-0.069-0.042-0.085,0.01
			c-0.011,0.035,0.021,0.058,0.048,0.08c0.111,0.09,0.241,0.148,0.361,0.222c0.337,0.208,0.675,0.413,1.047,0.555
			c0.117,0.044,0.238,0.077,0.356,0.117c0.039,0.013,0.08,0.027,0.113,0.05c0.053,0.037,0.097,0.084,0.066,0.158
			c-0.033,0.078-0.1,0.066-0.16,0.049c-0.128-0.036-0.245-0.106-0.381-0.118c-0.008-0.001-0.017-0.007-0.024-0.005
			c-0.212,0.046-0.418,0.007-0.624-0.038c-0.055-0.012-0.105,0.02-0.148,0.056c-0.098,0.082-0.206,0.138-0.338,0.146
			c-0.099,0.006-0.172,0.082-0.261,0.115c-0.152,0.057-0.186,0.04-0.225-0.113c-0.018-0.072-0.026-0.153-0.13-0.155
			c-0.11-0.002-0.213,0.016-0.262,0.128c-0.029,0.068-0.038,0.145-0.06,0.216c-0.06,0.189-0.172,0.27-0.366,0.282
			c-0.294,0.018-0.58,0.079-0.834,0.235c-0.198,0.122-0.396,0.136-0.608,0.055c-0.039-0.015-0.079-0.028-0.12-0.036
			c-0.229-0.049-0.236-0.046-0.369,0.15c-0.08,0.118-0.177,0.198-0.324,0.232c-0.317,0.074-0.607,0.234-0.925,0.303
			c-0.173,0.037-0.334,0.076-0.458,0.218c-0.112,0.128-0.272,0.191-0.422,0.262c-0.078,0.037-0.144,0.087-0.194,0.154
			c-0.149,0.205-0.339,0.354-0.576,0.442c-0.263,0.097-0.471,0.263-0.632,0.49c-0.118,0.167-0.261,0.287-0.477,0.305
			c-0.102,0.008-0.181,0.084-0.264,0.137c-0.198,0.126-0.406,0.232-0.632,0.296c-0.194,0.055-0.287,0.187-0.319,0.374
			c-0.026,0.155-0.072,0.298-0.202,0.403c-0.11,0.088-0.071,0.225-0.093,0.34c-0.036,0.187-0.175,0.266-0.327,0.151
			c-0.271-0.204-0.574-0.379-0.71-0.718c-0.011-0.028-0.031-0.049-0.058-0.063c-0.227-0.117-0.366-0.315-0.463-0.539
			c-0.07-0.162-0.169-0.295-0.296-0.412c-0.04-0.037-0.078-0.075-0.114-0.117c-0.039-0.046-0.064-0.097-0.03-0.16
			c0.031-0.058,0.075-0.087,0.141-0.084c0.179,0.007,0.358-0.01,0.536-0.025C13.837,14.341,13.923,14.325,14.001,14.258z" />
            <path fill="#4A9AE6"
                d="M10.212,23.532c-0.242,0.065-0.406,0.204-0.578,0.324c-0.372,0.26-0.735,0.533-1.122,0.77
			c-0.149,0.091-0.295,0.102-0.451,0.028c-0.079-0.037-0.158-0.078-0.242-0.099c-0.256-0.067-0.477-0.193-0.668-0.374
			c-0.018-0.017-0.037-0.038-0.059-0.046c-0.416-0.156-0.765-0.437-1.156-0.634c-0.414-0.208-0.75-0.49-1.023-0.856
			c-0.116-0.155-0.057-0.43,0.123-0.568c0.133-0.102,0.167-0.347,0.06-0.478c-0.104-0.127-0.142-0.28-0.137-0.432
			c0.006-0.175-0.051-0.326-0.11-0.481c-0.053-0.141-0.107-0.281-0.096-0.436c0.009-0.132,0.054-0.243,0.182-0.306
			c0.108-0.053,0.155-0.133,0.113-0.254c-0.036-0.106-0.025-0.216-0.017-0.323c0.01-0.133,0.1-0.167,0.209-0.087
			c0.027,0.02,0.049,0.046,0.076,0.065c0.043,0.031,0.087,0.043,0.139,0.012c0.058-0.035,0.03-0.081,0.017-0.121
			c-0.05-0.168-0.009-0.331,0.032-0.492c0.028-0.111,0-0.203-0.072-0.288c-0.086-0.103-0.075-0.181,0.032-0.264
			c0.016-0.013,0.035-0.022,0.051-0.035c0.13-0.107,0.137-0.148,0.019-0.27c-0.11-0.115-0.137-0.241-0.118-0.399
			C5.44,17.3,5.362,17.136,5.23,17.003c-0.065-0.065-0.099-0.136-0.106-0.231c-0.01-0.143-0.073-0.272-0.139-0.398
			c-0.089-0.173-0.021-0.295,0.175-0.32c0.151-0.019,0.288,0.002,0.397,0.128c0.074,0.085,0.176,0.139,0.267,0.204
			c0.116,0.082,0.111,0.141-0.012,0.21C5.805,16.6,5.797,16.604,5.79,16.607c-0.049,0.024-0.133,0.025-0.113,0.105
			c0.022,0.086,0.098,0.053,0.158,0.041c0.094-0.019,0.189-0.036,0.285-0.022c0.136,0.02,0.18,0.076,0.169,0.212
			c-0.002,0.021-0.005,0.041-0.01,0.062c-0.063,0.248-0.03,0.305,0.227,0.372c0.084,0.022,0.172,0.032,0.256,0.053
			c0.132,0.033,0.193,0.096,0.154,0.224c-0.091,0.298-0.064,0.602-0.079,0.904c-0.009,0.179-0.052,0.207-0.237,0.21
			c-0.187,0.003-0.376-0.019-0.571,0.033c0.127,0.066,0.279,0.103,0.329,0.246c0.058,0.164,0.179,0.178,0.322,0.19
			c0.148,0.013,0.295,0.05,0.442,0.08c0.046,0.009,0.097,0.032,0.12-0.025c0.022-0.053-0.028-0.084-0.064-0.109
			c-0.059-0.042-0.113-0.085-0.149-0.148c-0.028-0.05-0.042-0.114-0.018-0.157c0.071-0.125,0.003-0.219-0.048-0.323
			c-0.11-0.228-0.069-0.407,0.129-0.564c0.092-0.073,0.119-0.152,0.099-0.271c-0.025-0.146-0.033-0.299,0.02-0.445
			c0.032-0.088,0.083-0.162,0.168-0.21c0.102-0.058,0.122-0.133,0.054-0.239c-0.114-0.177-0.109-0.184,0.059-0.323
			c0.038-0.032,0.07-0.071,0.108-0.104c0.075-0.066,0.134-0.121,0.016-0.212c-0.062-0.047-0.05-0.142-0.023-0.213
			c0.028-0.074,0.099-0.097,0.175-0.096c0.118,0.002,0.232-0.007,0.334-0.079c0.06-0.042,0.083-0.09,0.053-0.159
			c-0.015-0.034-0.031-0.069-0.043-0.104c-0.059-0.16-0.034-0.238,0.12-0.318c0.083-0.044,0.106-0.071,0.028-0.148
			c-0.207-0.206-0.159-0.402,0.121-0.514c0.162-0.065,0.327-0.126,0.493-0.18c0.142-0.046,0.237-0.13,0.283-0.273
			c0.041-0.13,0.116-0.247,0.14-0.386c0.019-0.108-0.016-0.206-0.015-0.31c0.002-0.247,0.101-0.453,0.37-0.499
			c0.176-0.03,0.274-0.177,0.283-0.365c0.004-0.079,0.004-0.159,0.001-0.238c-0.003-0.073,0.019-0.135,0.085-0.168
			c0.069-0.035,0.14-0.02,0.2,0.026c0.135,0.105,0.27,0.209,0.399,0.32c0.438,0.38,0.861,0.775,1.267,1.188
			c0.062,0.063,0.116,0.132,0.155,0.21c0.074,0.147,0.028,0.253-0.128,0.299c-0.051,0.015-0.103,0.025-0.172,0.042
			c0.1,0.067,0.191,0.11,0.294,0.126c0.312,0.048,0.573,0.197,0.793,0.418c0.358,0.361,0.723,0.717,1.063,1.095
			c0.234,0.26,0.512,0.479,0.707,0.775c0.053,0.08,0.108,0.16,0.108,0.261c0,0.125-0.072,0.207-0.195,0.216
			c-0.049,0.004-0.101,0.002-0.149-0.008c-0.424-0.086-0.87,0.124-1.045,0.515c-0.106,0.237-0.231,0.462-0.362,0.684
			c-0.082,0.139-0.134,0.286-0.172,0.44c-0.036,0.148-0.106,0.271-0.242,0.348c-0.194,0.11-0.322,0.266-0.374,0.489
			c-0.036,0.156-0.124,0.29-0.228,0.412c-0.093,0.11-0.162,0.231-0.198,0.371c-0.074,0.285-0.258,0.512-0.407,0.756
			c-0.233,0.383-0.361,0.796-0.356,1.244c0.003,0.281-0.072,0.544-0.141,0.809c-0.096,0.369-0.124,0.738-0.027,1.111
			c0.023,0.09,0.018,0.172-0.027,0.253c-0.062,0.112-0.066,0.225-0.018,0.348c0.066,0.166,0.117,0.338,0.113,0.522
			c-0.002,0.078,0.039,0.145,0.093,0.199c0.184,0.186,0.291,0.413,0.359,0.662c0.024,0.088,0.059,0.174,0.084,0.262
			c0.047,0.173-0.017,0.261-0.194,0.253c-0.241-0.011-0.47-0.086-0.676-0.203c-0.347-0.198-0.707-0.38-1.004-0.651
			c-0.166-0.151-0.382-0.242-0.511-0.435c-0.021-0.031-0.055-0.035-0.089-0.036c-0.042-0.001-0.084,0.002-0.125-0.004
			c-0.239-0.031-0.338-0.232-0.193-0.426c0.193-0.259,0.436-0.468,0.695-0.66C9.636,24.129,9.909,23.838,10.212,23.532z" />
            <path fill="#4A9AE6" d="M6.074,27.63c-0.114,0.083-0.227,0.166-0.342,0.247c-0.044,0.031-0.089,0.063-0.136,0.088
			c-0.061,0.032-0.124,0.033-0.168-0.028c-0.046-0.063-0.017-0.123,0.03-0.168c0.31-0.296,0.625-0.588,0.98-0.831
			c0.328-0.225,0.622-0.489,0.895-0.777c0.134-0.142,0.29-0.249,0.476-0.312c0.135-0.046,0.226-0.155,0.328-0.245
			c0.109-0.096,0.22-0.107,0.346-0.051c0.25,0.111,0.448,0.303,0.685,0.434c0.525,0.292,1.015,0.636,1.481,1.016
			c0.108,0.088,0.24,0.15,0.366,0.215c0.255,0.132,0.413,0.32,0.387,0.625c-0.032,0.37,0.089,0.701,0.245,1.03
			c0.39,0.822,0.821,1.62,1.32,2.381c0.025,0.038,0.049,0.079,0.082,0.11c0.095,0.088,0.162,0.181,0.166,0.321
			c0.003,0.1,0.072,0.184,0.138,0.261c0.062,0.073,0.123,0.147,0.163,0.235c0.021,0.046,0.049,0.088,0.1,0.107
			c0.188,0.072,0.315,0.216,0.428,0.371c0.123,0.17,0.291,0.298,0.421,0.462c0.081,0.103,0.136,0.22,0.188,0.338
			c0.067,0.153,0.106,0.179,0.265,0.149c0.037-0.007,0.074-0.014,0.109-0.027c0.064-0.022,0.126-0.029,0.165,0.038
			c0.035,0.06,0.007,0.117-0.034,0.16c-0.11,0.114-0.22,0.229-0.338,0.334c-0.293,0.259-0.592,0.511-0.885,0.77
			c-0.241,0.213-0.478,0.43-0.691,0.67c-0.217,0.244-0.439,0.48-0.704,0.671c-0.284,0.204-0.569,0.406-0.826,0.646
			c-0.104,0.097-0.186,0.212-0.282,0.315c-0.205,0.22-0.451,0.394-0.677,0.591c-0.11,0.096-0.225,0.186-0.291,0.322
			c-0.037,0.075-0.103,0.097-0.179,0.074c-0.075-0.023-0.102-0.08-0.09-0.157c0.019-0.115-0.034-0.176-0.146-0.184
			c-0.195-0.015-0.32-0.15-0.454-0.266c-0.053-0.046-0.044-0.122-0.026-0.178c0.042-0.127-0.001-0.234-0.07-0.329
			c-0.259-0.358-0.26-0.746-0.128-1.143c0.042-0.125,0.018-0.181-0.099-0.223c-0.093-0.033-0.184-0.056-0.281-0.027
			c-0.066,0.019-0.12,0.003-0.144-0.061c-0.028-0.073,0.025-0.106,0.081-0.132c0.026-0.012,0.054-0.023,0.081-0.034
			c0.05-0.021,0.056-0.056,0.032-0.101c-0.022-0.042-0.051-0.073-0.098-0.041c-0.185,0.128-0.379,0.133-0.583,0.053
			c-0.071-0.028-0.127,0.009-0.181,0.053c-0.131,0.108-0.194,0.105-0.301-0.021c-0.063-0.075-0.149-0.101-0.236-0.132
			c-0.215-0.077-0.35-0.285-0.334-0.504c0.004-0.052,0.012-0.101,0.064-0.126c0.124-0.06,0.247-0.123,0.373-0.176
			c0.103-0.043,0.211-0.039,0.319-0.008c0.048,0.014,0.097,0.026,0.146,0.028c0.187,0.01,0.188,0.007,0.176-0.173
			c-0.001-0.021-0.001-0.042,0.002-0.062c0.027-0.201-0.029-0.267-0.236-0.278c-0.075-0.004-0.15,0.008-0.223-0.017
			c-0.097-0.032-0.14-0.089-0.096-0.189c0.037-0.086,0.062-0.171,0.03-0.266c-0.011-0.033-0.013-0.082,0.003-0.11
			c0.068-0.118,0.006-0.196-0.07-0.273c-0.106-0.108-0.147-0.251-0.202-0.385c-0.104-0.252-0.234-0.489-0.421-0.689
			c-0.066-0.071-0.065-0.16-0.087-0.243c-0.073-0.275-0.171-0.54-0.344-0.768c-0.17-0.225-0.224-0.49-0.281-0.754
			c-0.056-0.263-0.144-0.513-0.26-0.754c-0.074-0.153-0.158-0.302-0.203-0.469c-0.027-0.101-0.094-0.184-0.177-0.252
			c-0.15-0.122-0.169-0.185-0.11-0.369c0.012-0.038,0.02-0.073,0.001-0.109c-0.07-0.132-0.008-0.231,0.079-0.325
			C5.892,27.87,6.015,27.78,6.074,27.63z" />
            <path fill="#4A9AE6" d="M26.499,9.854c-0.077-1.314-0.04-2.628-0.051-3.942c-0.001-0.075,0.001-0.15,0.024-0.223
			c0.01-0.033,0.016-0.069,0.058-0.071c0.035-0.001,0.063,0.018,0.08,0.05c0.002,0.004,0.005,0.007,0.006,0.011
			c0.102,0.355,0.408,0.361,0.691,0.399c0.098,0.013,0.201,0.01,0.3,0.001c0.428-0.04,0.792,0.102,1.115,0.377
			c0.232,0.198,0.517,0.261,0.813,0.274c0.15,0.007,0.301-0.003,0.444,0.054c0.047,0.019,0.089,0.01,0.131-0.015
			c0.107-0.063,0.175-0.02,0.213,0.085c0.026,0.074,0.044,0.151,0.065,0.227c0.014,0.052,0.038,0.094,0.099,0.097
			c0.055,0.002,0.062-0.045,0.08-0.082c0.022-0.045,0.048-0.088,0.077-0.128c0.128-0.173,0.22-0.171,0.343,0.007
			c0.1,0.145,0.125,0.151,0.287,0.078c0.223-0.102,0.317-0.072,0.437,0.141c0.039,0.07,0.087,0.12,0.176,0.116
			c0.093-0.004,0.168,0.031,0.229,0.104c0.066,0.079,0.144,0.085,0.232,0.025c0.144-0.099,0.274-0.217,0.428-0.303
			c0.089-0.05,0.182-0.061,0.278-0.047c0.069,0.01,0.115,0.042,0.046,0.114c-0.079,0.082-0.125,0.173-0.103,0.293
			c0.015,0.082-0.036,0.13-0.105,0.166c-0.063,0.033-0.134,0.072-0.121,0.156c0.013,0.081,0.088,0.099,0.158,0.121
			c0.129,0.041,0.247,0.012,0.363-0.041c0.075-0.035,0.147-0.08,0.225-0.107c0.209-0.073,0.319,0.004,0.332,0.228
			c0.003,0.046,0.002,0.092,0.001,0.138c-0.003,0.102,0.008,0.192,0.127,0.227c0.146,0.043,0.253,0.015,0.33-0.096
			c0.035-0.051,0.064-0.108,0.105-0.155c0.1-0.114,0.176-0.116,0.285-0.01c0.03,0.029,0.057,0.061,0.081,0.095
			c0.063,0.087,0.144,0.151,0.247,0.181c0.087,0.026,0.151,0.065,0.155,0.169c0.003,0.076,0.049,0.08,0.103,0.043
			c0.069-0.046,0.132-0.103,0.204-0.142c0.116-0.062,0.197-0.004,0.191,0.128c-0.005,0.099-0.056,0.182-0.096,0.269
			c-0.064,0.137-0.043,0.184,0.103,0.228c0.032,0.01,0.065,0.016,0.097,0.02c0.231,0.029,0.403,0.146,0.521,0.346
			c0.133,0.226,0.178,0.225,0.311-0.001c0.08-0.137,0.175-0.264,0.279-0.383c0.053-0.061,0.117-0.104,0.196-0.083
			c0.099,0.026,0.187,0,0.279-0.028c0.108-0.033,0.165,0.005,0.163,0.116c-0.004,0.273,0.006,0.54,0.119,0.797
			c0.031,0.072,0.016,0.165-0.003,0.247c-0.013,0.057-0.03,0.114-0.033,0.171c-0.003,0.064-0.033,0.144,0.035,0.186
			c0.071,0.044,0.148,0.011,0.209-0.036c0.054-0.042,0.108-0.073,0.17-0.034c0.071,0.044,0.093,0.118,0.079,0.197
			c-0.044,0.253-0.03,0.509-0.016,0.761c0.032,0.574,0.05,1.149,0.045,1.724c-0.002,0.226-0.052,0.26-0.263,0.178
			c-0.524-0.203-1.023-0.467-1.55-0.664c-0.313-0.117-0.632-0.212-0.961-0.27c-0.049-0.009-0.1-0.005-0.15-0.004
			c-0.108,0.001-0.16,0.06-0.158,0.166c0.003,0.168,0.056,0.328,0.093,0.49c0.171,0.763,0.346,1.526,0.519,2.289
			c0.013,0.057,0.024,0.114,0.031,0.172c0.009,0.072-0.005,0.139-0.085,0.158c-0.074,0.018-0.158,0.005-0.177-0.076
			c-0.06-0.252-0.242-0.412-0.414-0.582c-0.063-0.062-0.105-0.14-0.143-0.219c-0.057-0.118-0.147-0.181-0.279-0.168
			c-0.156,0.016-0.262-0.039-0.33-0.185c-0.069-0.146-0.213-0.208-0.353-0.263c-0.137-0.054-0.253-0.125-0.318-0.263
			c-0.012-0.025-0.032-0.05-0.055-0.065c-0.368-0.237-0.696-0.529-1.073-0.753c-0.297-0.177-0.612-0.298-0.96-0.328
			c-0.153-0.013-0.293-0.068-0.397-0.188c-0.052-0.06-0.123-0.068-0.19-0.083c-0.13-0.03-0.237-0.087-0.322-0.197
			c-0.095-0.125-0.234-0.186-0.388-0.206c-0.183-0.024-0.331-0.098-0.434-0.258c-0.079-0.122-0.215-0.162-0.366-0.101
			c-0.367,0.146-0.696,0.089-1.011-0.143c-0.238-0.176-0.528-0.217-0.81-0.274c-0.033-0.007-0.066-0.011-0.098-0.017
			c-0.178-0.033-0.259,0.006-0.346,0.169c-0.116,0.217-0.257,0.253-0.473,0.129c-0.09-0.051-0.107-0.137-0.118-0.222
			c-0.024-0.181-0.048-0.363-0.053-0.546C26.492,10.462,26.499,10.158,26.499,9.854z" />
            <path fill="#4A9AE6"
                d="M5.045,23.266c0.244-0.047,0.437,0.136,0.643,0.257c0.697,0.409,1.362,0.868,2.028,1.324
			c0.088,0.06,0.171,0.131,0.236,0.22c0.088,0.121,0.084,0.185-0.044,0.266c-0.229,0.145-0.455,0.292-0.661,0.47
			c-0.185,0.16-0.374,0.316-0.531,0.507c-0.178,0.216-0.405,0.383-0.63,0.548c-0.218,0.16-0.44,0.314-0.663,0.468
			c-0.047,0.033-0.101,0.058-0.155,0.077c-0.163,0.057-0.238-0.007-0.212-0.181c0.006-0.037,0.016-0.074,0.031-0.108
			c0.05-0.109,0.092-0.209-0.008-0.32c-0.051-0.057-0.044-0.15-0.011-0.216c0.101-0.198,0.076-0.406,0.055-0.611
			c-0.029-0.285-0.06-0.57-0.141-0.847c-0.054-0.184-0.117-0.364-0.219-0.529c-0.123-0.199-0.082-0.337,0.128-0.441
			c0.052-0.026,0.071-0.049,0.037-0.103c-0.043-0.068-0.021-0.134,0.01-0.202c0.098-0.211,0.091-0.227-0.079-0.378
			c-0.042-0.037-0.127-0.054-0.094-0.141c0.033-0.086,0.111-0.054,0.173-0.061C4.964,23.264,4.989,23.266,5.045,23.266z" />
            <path fill="#4A9AE6" d="M24.475,38.924c0.096,0.017,0.159,0.087,0.231,0.143c0.542,0.419,1.046,0.889,1.63,1.254
			c0.169,0.106,0.346,0.2,0.491,0.341c0.155,0.151,0.143,0.285-0.064,0.326c-0.528,0.105-0.982,0.414-1.508,0.514
			c-0.171,0.033-0.341,0.075-0.511,0.114c-0.156,0.036-0.215-0.009-0.224-0.17c-0.015-0.265-0.036-0.53-0.069-0.794
			c-0.065-0.511-0.129-1.023-0.106-1.541C24.347,39.021,24.351,38.93,24.475,38.924z" />
            <path fill="#4A9AE6"
                d="M36.209,15.285c-0.118,0.016-0.184-0.064-0.231-0.162c-0.135-0.279-0.204-0.58-0.281-0.877
			c-0.059-0.23-0.115-0.46-0.188-0.686c-0.087-0.268-0.074-0.542-0.034-0.815c0.016-0.108,0.108-0.115,0.197-0.08
			c0.213,0.084,0.427,0.164,0.635,0.258c0.405,0.184,0.807,0.377,1.22,0.543c0.211,0.085,0.244,0.223,0.073,0.378
			c-0.22,0.199-0.432,0.402-0.609,0.64c-0.102,0.138-0.189,0.285-0.254,0.443C36.643,15.152,36.456,15.284,36.209,15.285z" />
            <path fill="#4A9AE6" d="M24.58,42.46c0.037,0.019,0.092,0.033,0.123,0.067c0.146,0.158,0.336,0.248,0.527,0.327
			c0.261,0.109,0.492,0.259,0.701,0.446c0.248,0.222,0.496,0.443,0.743,0.666c0.03,0.027,0.059,0.061,0.076,0.097
			c0.015,0.033,0.013,0.074-0.017,0.105c-0.028,0.028-0.061,0.024-0.092,0.007c-0.087-0.048-0.142-0.02-0.197,0.06
			c-0.082,0.12-0.217,0.158-0.352,0.157c-0.254-0.001-0.495,0.052-0.734,0.13c-0.044,0.014-0.09,0.035-0.133,0.009
			c-0.179-0.111-0.378-0.084-0.572-0.085c-0.175-0.002-0.213-0.029-0.208-0.2c0.008-0.284-0.01-0.568-0.036-0.848
			c-0.027-0.285,0.047-0.553,0.061-0.829C24.474,42.508,24.506,42.468,24.58,42.46z" />
            <path fill="#4A9AE6" d="M38.485,10.91c0,0.096-0.003,0.192,0.001,0.288c0.004,0.085,0.033,0.165,0.134,0.165
			c0.241,0,0.468,0.069,0.697,0.13c0.104,0.028,0.212,0.046,0.316,0.076c0.142,0.04,0.183,0.192,0.066,0.275
			c-0.13,0.092-0.194,0.226-0.271,0.353c-0.139,0.231-0.299,0.444-0.524,0.596c-0.162,0.11-0.246,0.28-0.361,0.426
			c-0.047,0.059-0.1,0.112-0.152,0.165c-0.027,0.028-0.056,0.048-0.099,0.027c-0.042-0.02-0.07-0.05-0.065-0.097
			c0.01-0.099,0.021-0.198,0.037-0.296c0.083-0.508,0.094-1.014,0-1.524c-0.041-0.225-0.024-0.458-0.003-0.686
			c0.006-0.07,0.013-0.141,0.013-0.211c0-0.068,0.01-0.135,0.091-0.138c0.075-0.002,0.111,0.06,0.115,0.126
			c0.007,0.108,0.002,0.217,0.002,0.325C38.482,10.91,38.484,10.91,38.485,10.91z" />
            <path fill="#4A9AE6" d="M44.621,23.065c-0.037,0.136-0.071,0.269-0.109,0.401c-0.087,0.31-0.107,0.63-0.139,0.949
			c-0.011,0.106,0.012,0.208,0.06,0.303c0.031,0.062,0.045,0.125,0.038,0.193c-0.014,0.131-0.125,0.18-0.235,0.104
			c-0.189-0.131-0.295-0.336-0.443-0.504c-0.088-0.099-0.158-0.214-0.239-0.32c-0.082-0.107-0.078-0.21-0.005-0.322
			c0.129-0.198,0.301-0.356,0.469-0.518c0.132-0.126,0.275-0.242,0.411-0.364c0.041-0.037,0.084-0.059,0.136-0.036
			C44.613,22.973,44.619,23.021,44.621,23.065z" />
            <path fill="#4A9AE6" d="M17.256,7.044c-0.165,0-0.279-0.128-0.247-0.294c0.043-0.224,0.092-0.447,0.189-0.657
			c0.073-0.16,0.184-0.287,0.312-0.4c0.145-0.128,0.25-0.1,0.296,0.086c0.023,0.093,0.08,0.139,0.156,0.179
			c0.22,0.115,0.234,0.299,0.033,0.445c-0.096,0.07-0.174,0.151-0.23,0.257c-0.076,0.143-0.19,0.251-0.329,0.334
			C17.379,7.026,17.317,7.052,17.256,7.044z" />
            <path fill="#4A9AE6" d="M18.807,6.989c0-0.205,0.063-0.265,0.26-0.284c0.272-0.026,0.547-0.044,0.798-0.173
			c0.046-0.024,0.099-0.04,0.135,0.01c0.032,0.044,0.023,0.096-0.01,0.139c-0.213,0.278-0.445,0.538-0.743,0.73
			c-0.107,0.069-0.295,0-0.365-0.123C18.844,7.221,18.807,7.075,18.807,6.989z" />
            <path fill="#4A9AE6" d="M18.09,7.704c0,0.023,0.001,0.044,0,0.065c-0.015,0.225,0.039,0.275,0.261,0.23
			c0.058-0.012,0.115-0.014,0.173-0.012c0.04,0.002,0.075,0.014,0.085,0.059c0.011,0.048-0.008,0.094-0.053,0.098
			c-0.193,0.019-0.365,0.077-0.51,0.215c-0.038,0.036-0.105,0.009-0.152-0.022c-0.186-0.123-0.334-0.289-0.476-0.455
			c-0.096-0.112-0.034-0.266,0.155-0.45c0.11-0.107,0.256-0.134,0.36-0.058C18.043,7.455,18.104,7.564,18.09,7.704z" />
            <path fill="#4A9AE6" d="M19.006,5.916c-0.077,0.001-0.152-0.003-0.197-0.08c-0.048-0.081-0.013-0.153,0.029-0.222
			c0.057-0.095,0.132-0.17,0.236-0.216c0.126-0.056,0.25-0.115,0.374-0.174c0.131-0.062,0.234-0.034,0.307,0.088
			c0.096,0.16,0.041,0.309-0.131,0.375c-0.128,0.049-0.253,0.108-0.378,0.165C19.168,5.886,19.092,5.92,19.006,5.916z" />
            <path fill="#4A9AE6" d="M15.929,6.993C15.779,6.992,15.7,6.912,15.7,6.761c0.001-0.166,0.142-0.326,0.285-0.325
			c0.135,0.001,0.274,0.121,0.276,0.237C16.264,6.837,16.101,6.994,15.929,6.993z" />
        </g>
    </g>
</svg>