<?xml version="1.0" encoding="utf-8"?>
<!-- Generator: Adobe Illustrator 26.0.0, SVG Export Plug-In . SVG Version: 6.00 Build 0)  -->
<svg version="1.0" id="Layer_1" xmlns="http://www.w3.org/2000/svg" xmlns:xlink="http://www.w3.org/1999/xlink" x="0px" y="0px"
	 viewBox="0 0 50 50" enable-background="new 0 0 50 50" xml:space="preserve">
<path fill="#E10A17" d="M34.033,21.225c-0.368,1.19-0.749,2.376-1.102,3.57c-0.985,3.337-2.034,6.655-3.044,9.984
	c-0.04,0.131-0.081,0.197-0.241,0.197c-2.553-0.007-5.107-0.005-7.66-0.006c-0.031,0-0.061-0.003-0.107-0.006
	c0.316-0.97,0.629-1.929,0.943-2.889c0.643-1.968,1.31-3.928,1.922-5.905c0.621-2.007,1.276-4.002,1.924-6
	c0.053-0.163,0.091-0.34,0.333-0.262c0.015,0.013,0.027,0.028,0.036,0.046c0.008,0.018,0.014,0.037,0.021,0.056
	c0.009,0.018,0.02,0.035,0.036,0.05c0.023,0.009,0.045,0.014,0.07,0.016c1.095-0.003,2.189,0.013,3.282-0.009
	c0.025-0.01,0.052-0.017,0.078-0.022c0.383-0.043,0.771,0.026,1.151-0.045c0.032-0.03,0.01-0.066,0.009-0.099
	c0.448-0.106,0.894-0.217,1.299-0.447c0.826-0.469,1.34-1.198,1.634-2.073c0.554-1.648,1.079-3.306,1.603-4.964
	c0.073-0.232,0.158-0.323,0.424-0.323c3.701,0.012,7.402,0.009,11.102,0.006c0.161,0,0.232-0.004,0.168,0.204
	c-0.819,2.676-1.626,5.355-2.437,8.033c-0.04,0.132-0.085,0.262-0.128,0.393c-0.115,0.072-0.095,0.185-0.091,0.294
	c-0.004,0.016-0.007,0.033-0.011,0.049c-0.161,0.005-0.161,0.005-0.165-0.229c0.02,0.111-0.069,0.134-0.169,0.148
	c-3.313,0.01-6.625,0.002-9.937,0.005c-0.154,0-0.308-0.004-0.462,0.006c-0.119,0.049-0.25,0.01-0.372,0.045
	C34.104,21.105,34.092,21.18,34.033,21.225z"/>
<path fill="#01135D" d="M26.805,12.252c0.264,0.03,0.528,0.062,0.793,0.088c0.185,0.018,0.095,0.142,0.075,0.214
	c-0.168,0.583-0.344,1.163-0.518,1.743c-0.434,1.445-0.844,2.898-1.302,4.337c-0.327,1.025-1.05,1.548-2.079,1.711
	c-0.08,0.013-0.16,0.023-0.24,0.034c-0.096-0.013-0.193-0.037-0.287,0.014c-0.058,0.053-0.127,0.051-0.198,0.039
	c-0.015-0.022-0.024-0.048-0.046-0.066c-0.052-0.038-0.146-0.009-0.162-0.103c0.012-0.023,0.031-0.033,0.055-0.039
	c0.024-0.006,0.018-0.015-0.006,0c-0.187,0.122-0.4,0.074-0.602,0.093c-0.063,0.006-0.121,0-0.158,0.063
	c-0.098,0.032-0.183,0.01-0.259-0.057c-0.081-0.076-0.182-0.058-0.277-0.058c-0.518-0.002-1.037-0.004-1.555,0
	c-0.203,0.002-0.403-0.014-0.602-0.038c-0.001,0.02-0.104,0.002-0.021,0.047c0.059,0.032,0.143,0.016,0.186,0.088
	c0.006,0.02,0.007,0.041,0.002,0.062c-0.017,0.06-0.096,0.012-0.117,0.067c-0.144,0.062-0.297,0.014-0.444,0.037
	c-0.147-0.026-0.293-0.045-0.438,0.011c-0.033,0.012-0.066,0.025-0.1,0.037c-0.114-0.014-0.228-0.039-0.339,0.013
	c-0.513,0.107-1.028,0.202-1.537,0.324c-1.657,0.398-3.18,1.094-4.539,2.123c-1.391,1.055-2.54,2.33-3.354,3.885
	c-0.604,1.154-1.061,2.361-1.205,3.666c-0.186,1.682,0.182,3.216,1.254,4.552c0.826,1.03,1.872,1.781,3.04,2.375
	c0.454,0.231,0.454,0.228,0.344,0.722c-0.07,0.316-0.142,0.632-0.198,0.95c-0.02,0.113-0.053,0.121-0.157,0.101
	c-1.735-0.321-3.321-0.974-4.673-2.127c-1.251-1.067-2.172-2.371-2.719-3.927c-0.191-0.543-0.312-1.104-0.406-1.671
	c0.015-0.143,0.045-0.286-0.015-0.426c-0.011-0.037-0.022-0.074-0.033-0.111c0.007-0.21,0.059-0.422-0.027-0.627
	c-0.056-0.146-0.02-0.297-0.021-0.446c0.023-0.194,0.03-0.389-0.003-0.582c-0.023-0.427,0.022-0.848,0.089-1.269
	c0.054-0.111,0.025-0.226,0.014-0.34c0.095-1.124,0.331-2.22,0.683-3.291c0.59-1.797,1.461-3.451,2.578-4.975
	c0.681-0.929,1.401-1.829,2.264-2.597c1.349-1.201,2.845-2.181,4.503-2.91c1.261-0.555,2.557-1.003,3.899-1.313
	c1.001-0.232,2.014-0.402,3.039-0.484c0.298-0.024,0.595-0.054,0.892-0.081c0.139,0.036,0.283-0.006,0.422,0.024
	c0.099,0.078,0.218,0.015,0.322,0.046c0.017,0.005,0.015,0.026,0.009-0.002c-0.095-0.021-0.197,0.005-0.295-0.014
	c-0.026-0.015-0.033-0.035-0.022-0.063c0.257-0.085,0.523-0.02,0.783-0.042c0.439,0.027,0.877,0.026,1.316,0
	c0.178,0.027,0.363-0.041,0.537,0.038c0.096,0.046,0.194,0.03,0.292,0.011c0.099,0.006,0.205-0.041,0.295,0.036
	c0.096,0.048,0.193,0.034,0.291,0.01c0.251-0.02,0.49,0.056,0.734,0.086C26.642,12.269,26.722,12.278,26.805,12.252z"/>
<path fill="#01135D" d="M23.81,25.082c-0.164,0.54-0.321,1.065-0.484,1.589c-0.831,2.68-1.666,5.359-2.491,8.04
	c-0.062,0.203-0.143,0.269-0.363,0.268c-2.294-0.01-4.588-0.006-6.883-0.006c-0.096,0-0.193,0-0.313,0
	c0.274-0.814,0.541-1.61,0.81-2.405c0.576-1.7,1.126-3.409,1.74-5.095c0.501-1.378,1.501-2.193,2.987-2.355
	c0.729-0.08,1.461-0.025,2.192-0.033C21.932,25.074,22.859,25.082,23.81,25.082z"/>
<path fill="#E50A19" d="M45.015,20.926c0.115-0.098-0.107-0.155-0.02-0.259c0.1,0.056,0.103,0.157,0.124,0.254
	c0.015,0.068-0.001,0.175,0.128,0.152c-0.006,0.114-0.073,0.147-0.179,0.143c-0.13-0.004-0.26,0.002-0.39,0.002
	c-3.459,0-6.919,0-10.378,0c-0.089,0-0.178,0.005-0.268,0.007c0.022-0.072,0.024-0.153,0.096-0.201
	c0.028-0.028,0.061-0.024,0.096-0.016c0.07,0.038,0.073,0.085,0.004,0.15c0.102-0.049,0.122-0.184,0.245-0.176
	c0.253-0.014,0.505-0.006,0.757-0.006c3.139-0.001,6.278,0,9.417-0.001c0.098,0,0.195,0.004,0.292-0.006
	C44.968,20.961,44.993,20.947,45.015,20.926z"/>
<path fill="#031558" d="M21.924,20.292c0.069,0.081,0.162,0.037,0.244,0.048c0.224-0.071,0.454-0.054,0.683-0.049
	c0.082,0.012,0.176-0.033,0.244,0.05c-0.079,0.091-0.199,0.048-0.292,0.091c-0.03,0.003-0.06,0.006-0.09,0.009
	c-0.267,0.058-0.533-0.004-0.8-0.004c-0.683,0.001-1.367,0.001-2.05-0.001c-0.096,0-0.197,0.02-0.282-0.048
	c-0.062-0.085-0.164-0.031-0.242-0.071c-0.092-0.048-0.083-0.081-0.002-0.124c0.187-0.054,0.353,0.062,0.541,0.056
	c0.588-0.019,1.178-0.008,1.767-0.006C21.739,20.244,21.84,20.224,21.924,20.292z"/>
<path fill="#E8101B" d="M27.001,19.999c0-0.016,0-0.033,0-0.049c0.084-0.045,0.175-0.022,0.262-0.022
	c0.979-0.002,1.958-0.001,2.937-0.002c0.088,0,0.178,0.015,0.265-0.015c0.342,0.001,0.683,0.003,1.025,0.004
	c-0.042,0.127-0.154,0.095-0.244,0.101c-0.242,0.016-0.486-0.023-0.727,0.028c-0.06,0.016-0.121,0.023-0.183,0.023
	c-0.995,0.002-1.991,0.001-2.986,0C27.23,20.067,27.104,20.089,27.001,19.999z"/>
<path fill="#E10000" d="M30.465,19.911c-0.077,0.068-0.17,0.039-0.256,0.039c-1.069,0.002-2.138,0.001-3.208,0.001
	c0-0.014,0-0.028,0.001-0.042C28.156,19.909,29.311,19.91,30.465,19.911z"/>
<path fill="#0D176C" d="M19.581,20.389c1.044,0.007,2.089-0.028,3.132,0.052c-0.194,0.079-0.397,0.02-0.595,0.038
	c-0.758-0.039-1.517-0.006-2.275-0.018c-0.087-0.001-0.178,0.023-0.261-0.023C19.581,20.421,19.581,20.405,19.581,20.389z"/>
<path fill="#000347" d="M19.581,20.437c0.76,0,1.52,0,2.281,0.002c0.086,0,0.179-0.029,0.256,0.039
	c-0.877,0.003-1.754,0.006-2.631,0.01C19.472,20.388,19.553,20.462,19.581,20.437z"/>
<path fill="#E10C0F" d="M30.516,19.999c0.183-0.099,0.381-0.024,0.57-0.047c0.134-0.017,0.275,0.038,0.404-0.037
	c0.065-0.005,0.129-0.01,0.194-0.015c0.048,0.019,0.082,0.051,0.101,0.099c-0.175,0.042-0.35,0.096-0.534,0.05
	C31.007,20.02,30.755,20.105,30.516,19.999z"/>
<path fill="#010648" d="M24.413,12.056c-0.439,0.063-0.877,0.064-1.316,0C23.536,12.056,23.974,12.056,24.413,12.056z"/>
<path fill="#E50A19" d="M45.258,21.024c-0.04-0.12-0.158-0.264,0.091-0.294C45.319,20.828,45.288,20.926,45.258,21.024z"/>
<path fill="#010855" d="M3.941,30.396c0.127,0.204,0.073,0.416,0.027,0.627C3.959,30.814,3.95,30.605,3.941,30.396z"/>
<path fill="#010350" d="M3.916,29.367c0.07,0.194,0.064,0.388,0.003,0.582C3.918,29.756,3.917,29.561,3.916,29.367z"/>
<path fill="#000853" d="M18.604,20.537c0.144-0.097,0.29-0.084,0.438-0.011C18.896,20.53,18.75,20.533,18.604,20.537z"/>
<path fill="#010A4D" d="M4.001,31.134c0.108,0.138,0.062,0.282,0.015,0.426C4.007,31.418,3.976,31.277,4.001,31.134z"/>
<path fill="#000745" d="M22.314,12.144c-0.145-0.017-0.297,0.04-0.437-0.037c0.146-0.003,0.291-0.006,0.437-0.009
	C22.314,12.114,22.314,12.129,22.314,12.144L22.314,12.144z"/>
<path fill="#010551" d="M22.803,20.433c0.071-0.115,0.207-0.023,0.292-0.091c-0.016,0.03-0.032,0.059-0.047,0.089
	C22.966,20.431,22.884,20.432,22.803,20.433z"/>
<path fill="#00074C" d="M23.246,20.391c0.091-0.089,0.189-0.055,0.287-0.014C23.437,20.382,23.342,20.387,23.246,20.391z"/>
<path fill="#010450" d="M18.165,20.587c0.11-0.084,0.224-0.068,0.339-0.013C18.392,20.578,18.278,20.582,18.165,20.587z"/>
<path fill="#01044E" d="M4.019,27.758c0.051,0.116,0.072,0.23-0.014,0.34C4.01,27.985,4.015,27.872,4.019,27.758z"/>
<path fill="#00054F" d="M25.242,12.106c-0.1,0.055-0.197,0.067-0.292-0.011C25.048,12.099,25.145,12.102,25.242,12.106z"/>
<path fill="#000250" d="M25.828,12.151c-0.099,0.061-0.197,0.07-0.291-0.01C25.634,12.145,25.731,12.148,25.828,12.151z"/>
<path fill="#00074D" d="M26.805,12.252c-0.084,0.055-0.166,0.068-0.242-0.014C26.644,12.242,26.724,12.247,26.805,12.252z"/>
<path fill="#E40D1A" d="M36.375,12.242c0-0.016,0-0.033,0-0.049c0.076-0.043,0.159-0.023,0.239-0.023
	c3.632-0.001,7.264-0.001,10.897,0c0.08,0,0.163-0.02,0.239,0.023c-0.001,0.04-0.01,0.076-0.049,0.097
	c-0.092-0.048-0.192-0.024-0.287-0.024c-3.583-0.002-7.167-0.001-10.75-0.002C36.567,12.265,36.467,12.288,36.375,12.242z"/>
<path fill="#DF0A0A" d="M47.749,12.193c-3.792,0-7.583,0-11.375,0c0.072-0.079,0.168-0.047,0.253-0.047
	c3.623-0.002,7.246-0.002,10.868,0C47.581,12.147,47.677,12.114,47.749,12.193z"/>
<path fill="#E6051B" d="M36.375,12.242c3.683,0,7.365,0,11.048,0.001c0.093,0,0.197-0.037,0.277,0.047
	c-3.683,0-7.365,0-11.048-0.001C36.559,12.289,36.455,12.326,36.375,12.242z"/>
<path fill="#DA0D1A" d="M34.226,21.024c-0.032,0-0.065,0-0.097,0c-0.008-0.001-0.017,0-0.023-0.004
	c-0.009-0.008-0.016-0.019-0.024-0.028c0.113-0.006,0.227-0.011,0.34-0.017c0.076-0.043,0.159-0.023,0.239-0.023
	c3.372-0.001,6.744-0.001,10.116,0c0.08,0,0.163-0.02,0.239,0.023c-0.055,0.101-0.149,0.046-0.222,0.046
	c-3.474,0.003-6.947,0.003-10.421,0.003C34.324,21.066,34.275,21.059,34.226,21.024z"/>
<path fill="#E70715" d="M45.015,20.975c-3.531,0-7.062,0-10.594,0c0.089-0.088,0.201-0.047,0.302-0.047
	c3.431-0.002,6.861-0.002,10.292-0.002C45.015,20.942,45.015,20.959,45.015,20.975z"/>
<path fill="#DA0E13" d="M27.001,20.097c0-0.016,0-0.033,0-0.049c0.085-0.044,0.176-0.022,0.263-0.022
	c1.016-0.002,2.031-0.001,3.047-0.001c0.06,0.001,0.121-0.002,0.181,0.003c0.033,0.015,0.041,0.038,0.024,0.069v0
	c-0.051,0.035-0.11,0.023-0.165,0.023c-1.061,0.001-2.123,0.001-3.184,0C27.111,20.12,27.052,20.132,27.001,20.097z"/>
<path fill="#E8061A" d="M27.001,20.097c1.172,0,2.343,0,3.515,0c-0.055,0.068-0.133,0.048-0.203,0.048
	c-1.036,0.001-2.072,0.001-3.109,0C27.134,20.145,27.056,20.165,27.001,20.097z"/>
<path fill="#E2071C" d="M30.369,20.048c-1.123,0-2.246,0-3.368,0c0-0.016,0-0.032,0-0.048c1.123,0,2.246,0,3.368,0
	c0.016,0.011,0.021,0.022,0.016,0.032C30.38,20.042,30.375,20.048,30.369,20.048z"/>
<path fill="#E2071C" d="M30.516,20.097c0-0.016,0-0.032,0-0.049c0.257-0.07,0.524,0.023,0.781-0.049
	c0.163,0.095,0.325-0.043,0.488,0c-0.101,0.092-0.227,0.097-0.353,0.098C31.127,20.097,30.821,20.097,30.516,20.097z"/>
<path fill="#D70E18" d="M47.047,14.878c-0.097-0.1-0.099-0.206-0.03-0.359C47.082,14.663,47.001,14.775,47.047,14.878z"/>
<path fill="#D21211" d="M46.732,15.888c-0.004-0.114-0.026-0.177,0.02-0.239C46.781,15.722,46.786,15.789,46.732,15.888z"/>
<path fill="#D31411" d="M33.07,23.793c0.039,0.129,0.042,0.19,0,0.296C33.07,23.983,33.07,23.921,33.07,23.793z"/>
<path fill="#DA1924" d="M33.191,19.738c-0.038-0.056-0.054-0.07-0.051-0.076c0.017-0.035,0.038-0.069,0.085-0.065
	c0.004,0,0.011,0.028,0.007,0.04C33.222,19.668,33.208,19.698,33.191,19.738z"/>
<path fill="#CF110C" d="M34.653,17.688c-0.017,0.023-0.036,0.048-0.054,0.073c-0.008-0.018-0.027-0.041-0.022-0.052
	c0.013-0.026,0.038-0.046,0.057-0.068C34.64,17.655,34.645,17.669,34.653,17.688z"/>
<path fill="#011263" d="M21.924,20.292c-0.568,0-1.136-0.001-1.705,0c-0.298,0.001-0.598,0.02-0.883-0.098
	c0.154-0.13,0.307,0.01,0.462,0.006c0.629-0.015,1.26-0.008,1.889-0.004C21.773,20.197,21.893,20.144,21.924,20.292z"/>
<path fill="#011263" d="M22.851,20.292c-0.225,0.054-0.454,0.055-0.683,0.049c-0.007-0.034-0.044-0.092,0.02-0.09
	c0.27,0.007,0.538-0.005,0.81-0.039C22.949,20.238,22.9,20.265,22.851,20.292z"/>
<path fill="#02124D" d="M22.314,12.144c0.11,0,0.221,0,0.331,0C22.533,12.179,22.421,12.233,22.314,12.144
	C22.314,12.144,22.314,12.144,22.314,12.144z"/>
<path fill="#DD090D" d="M34.486,21.128c3.472,0,6.943,0,10.415,0c0,0.008,0,0.016,0,0.024c-3.475,0-6.95,0-10.425,0
	C34.48,21.144,34.483,21.136,34.486,21.128z"/>
<path fill="#E10A17" d="M34.226,21.024c0.049,0,0.098,0,0.146,0c0.013,0.122-0.059,0.173-0.16,0.14
	C34.156,21.144,34.292,21.08,34.226,21.024z"/>
<path fill="#E10A17" d="M31.297,19.999c-0.255,0.103-0.522,0.022-0.781,0.049c-0.049,0-0.098,0-0.146,0c0-0.016,0-0.032,0-0.049
	c0.049,0,0.097,0,0.146,0C30.776,19.999,31.037,19.999,31.297,19.999z"/>
</svg>
