<svg xmlns="http://www.w3.org/2000/svg" width="50" height="50" viewBox="0 0 64 64"><path fill="#8d6c9f" d="M61.575 27.006c-1.262-2.92-5.234-5-10.075-5H0v13h45.987l.322.118c1.567.577 3.362.882 5.191.882 4.266 0 7.851-1.618 9.509-4H64v-5h-2.425zm-15.566 2.152.007-.006.001.008-.008-.002zM7 43.006a1 1 0 0 1-1-1v-2a1 1 0 0 1 2 0v2a1 1 0 0 1-1 1zm5 0a1 1 0 0 1-1-1v-2a1 1 0 0 1 2 0v2a1 1 0 0 1-1 1zm5 0a1 1 0 0 1-1-1v-2a1 1 0 0 1 2 0v2a1 1 0 0 1-1 1zm5 0a1 1 0 0 1-1-1v-2a1 1 0 0 1 2 0v2a1 1 0 0 1-1 1zm5 0a1 1 0 0 1-1-1v-2a1 1 0 0 1 2 0v2a1 1 0 0 1-1 1zm5 0a1 1 0 0 1-1-1v-2a1 1 0 0 1 2 0v2a1 1 0 0 1-1 1zm5 0a1 1 0 0 1-1-1v-2a1 1 0 0 1 2 0v2a1 1 0 0 1-1 1zm5 0a1 1 0 0 1-1-1v-2a1 1 0 0 1 2 0v2a1 1 0 0 1-1 1zm5 0a1 1 0 0 1-1-1v-2a1 1 0 0 1 2 0v2a1 1 0 0 1-1 1zm5 0a1 1 0 0 1-1-1v-2a1 1 0 0 1 2 0v2a1 1 0 0 1-1 1zm5 0a1 1 0 0 1-1-1v-2a1 1 0 0 1 2 0v2a1 1 0 0 1-1 1z"/><path fill="#ffeb9b" d="M2 24.006v9h4v-3h6v3h3v-5a3 3 0 0 0-3-3v3H5v-4H2zM17 33.006l3-4h5l-2-2h-1l2-3 7 9h-3l-1-2h-6l-1 2zM33 24.006v8l1 1h10v-1l-1-1h-6v-4l-2-3z"/><ellipse cx="50.5" cy="29.006" fill="#ffeb9b" rx="1.5" ry="1"/><path fill="#ffeb9b" d="M47 33.248c1.306.481 2.848.759 4.5.759 4.69 0 8.5-2.24 8.5-5s-3.81-5-8.5-5c-4.108 0-7.541 1.719-8.33 4l.83 1c0-1.66 2.91-3 6.5-3s6.5 1.34 6.5 3-2.91 3-6.5 3c-1.289 0-2.49-.173-3.5-.471v1.712z"/><path fill="#ffeb9b" d="M59 29.006h3v1h-3z"/></svg>