<svg xmlns="http://www.w3.org/2000/svg"  viewBox="0 0 48 48" width="48px" height="48px"><linearGradient id="8zrVNxWdH0dMf0tV5lDAta" x1="24.116" x2="23.919" y1="30.267" y2="10.709" gradientUnits="userSpaceOnUse"><stop offset="0" stop-color="#e52030"/><stop offset=".557" stop-color="#ee3d4a"/><stop offset="1" stop-color="#f44f5a"/></linearGradient><path fill="url(#8zrVNxWdH0dMf0tV5lDAta)" d="M21,26v13c-2.988-4.662-5.977-6.986-10.532-6.271c-3.351,0.957-2.218,3.644,7.372,7.564	C5.011,38.521-2.558,31.819,1.277,27c1.287,3.766,12.755,3.952,14.84,1.755C17.862,26.452,12.239,22.149,4,20	c4.266-2.396,8.67-4.457,16.665-4.553C12.527,17.314,8.266,22.053,21,26z M47.569,23.777c-2.872,7.181-18.527,3.686-18.862,1.005	c-0.192-2.25,6.606-6.176,11.92-7.995C36.894,13.676,31.147,12.132,25,12c10.745,3.59,8.734,7.277-1,13v10	c2.745-6.963,11.936-6.915,12.463-4.569c0.424,1.891-4.564,4.25-9.814,6.08C37.181,34.548,50.154,31.484,47.569,23.777z M24.351,20.808c0,0,1.372-3.862-1.101-8.378c-2.316-4.229,0.814-9,0.814-9s-4.548,4.691-2.442,9.718s0.287,8.809,0.287,8.809	L24.351,20.808z"/></svg>