<?xml version="1.0" encoding="utf-8"?>
<!-- Generator: Adobe Illustrator 26.0.0, SVG Export Plug-In . SVG Version: 6.00 Build 0)  -->
<svg version="1.0" id="Layer_1" xmlns="http://www.w3.org/2000/svg" xmlns:xlink="http://www.w3.org/1999/xlink" x="0px" y="0px"
	 viewBox="0 0 50 50" enable-background="new 0 0 50 50" xml:space="preserve">
<g>
	<path fill="#FADD4E" d="M29.522,45.674c-1.319-1.161-2.428-2.111-3.505-3.096c-0.465-0.425-0.845-0.695-1.428-0.139
		c-0.588,0.561-0.285,0.92,0.079,1.427c0.496,0.69,1.341,1.238,1.223,2.384c-0.907-0.304-1.188-1.114-1.708-1.646
		c-0.629-0.642-1.154-0.839-1.862-0.157c-0.467,0.45-0.998,0.833-1.502,1.245c-0.172,0.141-0.375,0.277-0.582,0.133
		c-0.205-0.142-0.149-0.39-0.102-0.602c0.174-0.781,0.632-1.426,1.04-2.088c0.306-0.497,0.379-0.995-0.245-1.138
		c-2.899-0.665-2.873-3.162-3.234-5.29c-0.179-1.057-0.508-1.913-1.235-2.6c-0.966-0.911-0.936-1.81-0.328-2.908
		c1.146-2.069,2.623-3.872,4.215-5.598c1.708-1.852,3.485-3.664,3.9-6.318c0.083-0.528,0.427-0.611,0.939-0.648
		c2.262-0.162,3.133-1.933,1.953-3.852c-0.578-0.94-1.392-1.661-2.172-2.411c-1.069-1.029-1.31-2.244-0.763-3.57
		c0.646-1.567,1.015-3.264,2.106-4.928c0.303,1.047,0.009,1.787-0.114,2.514c-0.445,2.627-0.184,5.084,1.411,7.327
		c0.727,1.022,1.395,2.101,1.957,3.221c0.806,1.605,0.519,2.87-0.738,4.136c-0.65,0.655-1.439,1.112-2.191,1.625
		c-2.592,1.765-5.022,3.726-6.952,6.216c-0.961,1.24-1.685,2.639-1.702,4.281c-0.003,0.334-0.064,0.765,0.356,0.887
		c0.339,0.099,0.549-0.227,0.709-0.474c2.008-3.1,5.188-4.95,7.833-7.371c1.858-1.7,3.758-3.368,4.362-5.995
		c0.255-1.109,0.043-2.148-0.259-3.199c-0.088-0.306-0.406-0.725,0.001-0.927c0.395-0.197,0.572,0.273,0.754,0.547
		c2.888,4.357,2.807,7.81-0.232,12.096c-0.871,1.229-1.963,2.178-3.232,2.97c-2.097,1.308-4.223,2.582-6.105,4.202
		c-1.229,1.058-1.209,1.36,0.082,2.355c1.988,1.531,1.982,1.523,4.017,0.101c0.995-0.695,2.042-1.318,3.018-2.038
		c0.764-0.564,1.123-0.134,1.561,0.427c0.584,0.747-0.146,0.904-0.505,1.152c-1.034,0.716-2.113,1.365-3.163,2.057
		c-0.779,0.514-0.929,0.964-0.068,1.671C28.711,42.967,29.389,44.156,29.522,45.674z"/>
</g>
</svg>
