<svg version="1.0" id="Layer_1" xmlns="http://www.w3.org/2000/svg" xmlns:xlink="http://www.w3.org/1999/xlink" x="0px"
    y="0px" viewBox="0 0 50 50" enable-background="new 0 0 50 50" xml:space="preserve">
    <path fill="#FFFFFF" d="M30.391,46.496c-1.136,0-2.062-0.803-2.194-1.884c-0.208-0.864-0.205-1.696-0.203-2.501
	c0.001-0.352,0.003-0.703-0.016-1.054c-0.083-1.587-0.106-3.314-0.07-5.28c0.012-0.608-0.001-1.218-0.014-1.827
	c-0.03-1.45-0.061-2.949,0.219-4.468c0.108-0.587,0.051-1.228-0.01-1.906c-0.025-0.283-0.051-0.572-0.066-0.867
	c-0.009,0-0.018,0-0.027,0c-0.342,0-0.685,0.026-1.027,0.052c-0.393,0.03-0.786,0.058-1.179,0.058c-0.307,0-0.59-0.017-0.858-0.052
	c-0.575,0.104-1.188,0.151-1.959,0.151c-0.35,0-0.699-0.01-1.05-0.019c-0.331-0.009-0.662-0.018-0.993-0.018l-0.167,0.001
	c-0.2,0.002-0.399,0.031-0.597,0.058c-0.292,0.039-0.583,0.075-0.876,0.075c-0.3,0.153-0.602,0.185-0.797,0.204
	c-0.077,0.307-0.245,0.853-0.844,1.159l-0.298,0.152l-0.023-0.004c-0.06,0.042-0.126,0.084-0.199,0.123
	c-0.16,0.642-0.63,1.065-0.983,1.335c0.096,0.215,0.145,0.495,0.091,0.858c-0.005,0.289-0.024,0.583-0.044,0.877
	c-0.025,0.376-0.05,0.732-0.026,1.069c0.037,0.508-0.108,0.968-0.41,1.293c-0.26,0.28-0.617,0.435-1.004,0.435
	c-0.234,0-0.474-0.057-0.716-0.168c-0.046,0.027-0.288,0.17-0.334,0.193c-0.348,0.179-0.667,0.268-0.967,0.269
	c-0.373,0-0.716-0.141-0.966-0.397c-0.444-0.455-0.428-1.086-0.42-1.39c-0.114-1.891-0.178-3.789-0.191-5.857
	c-0.01-1.561,0.013-3.122,0.036-4.683l0.025-1.847c-0.134-0.335-0.111-0.648-0.097-0.824l-0.069-0.48l0.173-0.2l0.017-1.79
	c-0.028-0.054-0.052-0.109-0.072-0.166l-0.048-0.132l-0.01-0.14c-0.075-1.086,0.073-1.76,0.992-2.087
	c0.009-0.016,0.018-0.031,0.027-0.047c0.161-0.263,0.424-0.449,0.74-0.522l0.191-0.044l0.194,0.031
	c0.455,0.072,0.851,0.231,1.201,0.371c0.213,0.085,0.426,0.174,0.652,0.23c0.849,0.208,1.405,1.111,1.322,2.147
	c-0.078,1.023-0.126,1.933-0.148,2.779c-0.002,0.111-0.014,0.213-0.034,0.308c0.153,0.35,0.136,0.729,0.122,1.05
	c-0.034,0.683-0.042,1.364-0.041,2.061c0.988-1.017,2.241-1.151,3.153-1.151l7.114,0.01c0.312,0.001,0.617,0.052,0.886,0.097
	c0.139,0.023,0.277,0.049,0.408,0.061c-0.008-0.121-0.026-0.267-0.04-0.379c-0.032-0.257-0.069-0.549-0.057-0.844
	c0.031-0.83,0.031-1.662,0.031-2.494l0.003-1.119c-0.007-0.036-0.029-0.092-0.047-0.15c-0.187-0.606-0.161-1.115,0.076-1.52
	c-0.103-0.201-0.164-0.458-0.148-0.787c-0.041-1.603-0.082-3.17-0.108-4.739c-0.009-0.137-0.026-0.373,0.047-0.636
	c-0.059-0.19-0.057-0.347-0.055-0.388c0.01-0.248,0.016-0.495,0.022-0.743c0.028-1.146,0.056-2.332,0.471-3.522
	c0.116-0.329,0.465-1.327,1.457-1.327c0.193,0,0.382,0.042,0.566,0.125c0.276-0.115,0.52-0.169,0.755-0.169
	c0.214,0,0.757,0.056,1.112,0.573c0.26,0.013,1.068,0.153,1.09,1.369l0.015,0.597c0.017,0.555,0.034,1.129-0.008,1.716
	c-0.05,0.686-0.006,1.383,0.039,2.122c0.066,1.056,0.134,2.148-0.073,3.278c0,0.028-0.002,0.056-0.005,0.085
	c0.177,0.307,0.231,0.689,0.14,1.087c0.007,2.443,0.014,4.886,0.016,7.329c0,0.191,0,0.393,0.005,0.557
	c0.124,0,0.619-0.014,0.619-0.014c0.256,0,0.511,0.018,0.765,0.036c0.205,0.015,0.41,0.03,0.615,0.03
	c0.119,0,0.237-0.005,0.355-0.022c0.343-0.097,0.702-0.144,1.093-0.144c0.151,0,0.304,0.007,0.458,0.02l0.106,0.006
	c0.296,0.014,1.197,0.058,1.545,1c0.217,0.589,0.187,1.139-0.068,1.579l0.231,0.234l-0.685,0.73
	c-0.454,0.453-1.168,1.054-2.114,1.054c-0.219,0-0.436-0.032-0.652-0.095c-0.185,0.119-0.407,0.183-0.643,0.183
	c-0.158,0-0.326-0.028-0.512-0.085c-0.085-0.026-0.179-0.039-0.289-0.039c-0.211,0-0.458,0.049-0.718,0.101
	c-0.071,0.014-0.143,0.029-0.217,0.042c0.007,0.617-0.006,1.228-0.019,1.825c-0.025,1.125-0.048,2.188,0.054,3.256
	c0.12,1.234,0.095,2.473,0.07,3.672c-0.011,0.508-0.021,1.016-0.02,1.523c-0.008,0.274,0.004,0.515,0.015,0.758
	c0.028,0.597,0.059,1.27-0.142,1.972l-0.014,0.163c0.015,0.268,0.055,0.537,0.095,0.805c0.113,0.775,0.239,1.646-0.086,2.578
	l-0.047,0.962c0.076,0.485-0.006,0.902-0.242,1.242c-0.391,0.563-1.028,0.658-1.408,0.715l-0.082,0.013
	C30.994,46.435,30.692,46.496,30.391,46.496z" />
    <path fill="#4D4D4D"
        d="M30.883,4.509c0.284,0,0.412,0.241,0.437,0.75c0.122-0.005,0.243-0.007,0.365-0.01
	c0.121-0.121,0.205-0.169,0.263-0.169c0.117,0,0.13,0.195,0.133,0.383c0.012,0.741,0.062,1.485,0.01,2.224
	c-0.131,1.804,0.322,3.611-0.043,5.41c0.088,0.172-0.536,0.291-0.026,0.51c0.238,0.102,0.248,0.353,0.167,0.589
	c0.007,2.488,0.014,4.976,0.017,7.465c0.002,1.335,0.001,1.56,0.989,1.56c0.139,0,0.298-0.004,0.48-0.011
	c0.053-0.002,0.106-0.003,0.159-0.003c0.463,0,0.922,0.067,1.381,0.067c0.192,0,0.384-0.012,0.576-0.045
	c0.287-0.087,0.577-0.121,0.872-0.121c0.124,0,0.249,0.006,0.375,0.017c0.317,0.026,0.653-0.021,0.791,0.353
	c0.141,0.381,0.141,0.744-0.267,0.987c-0.312,0.153-0.193,0.324-0.021,0.498c-0.434,0.432-0.887,0.761-1.405,0.761
	c-0.274,0-0.566-0.092-0.883-0.308c-0.117-0.069-0.234-0.138-0.35-0.21c0.002,0.207,0.24,0.606-0.061,0.606
	c-0.053,0-0.124-0.013-0.215-0.041c-0.199-0.06-0.394-0.083-0.586-0.083c-0.618,0-1.205,0.239-1.813,0.239
	c-0.052,0-0.104-0.002-0.156-0.006c0.112,2.028-0.126,4.054,0.069,6.092c0.164,1.685,0.043,3.399,0.045,5.1
	c-0.026,0.846,0.155,1.702-0.114,2.538c-0.01,0.112-0.019,0.222-0.029,0.334c0.043,1.065,0.455,2.128,0.019,3.196
	c-0.019,0.412-0.038,0.825-0.06,1.235c0.186,0.877-0.484,0.832-1.015,0.934c-0.194,0.097-0.397,0.142-0.593,0.142
	c-0.606,0-1.153-0.424-1.201-1.052c-0.288-1.132-0.145-2.29-0.207-3.437c-0.091-1.733-0.1-3.477-0.069-5.208
	c0.038-2.04-0.188-4.092,0.188-6.13c0.214-1.17-0.088-2.35-0.072-3.53c0.007-0.472-0.405-0.412-0.729-0.424
	c-0.096-0.004-0.192-0.006-0.288-0.006c-0.736,0-1.471,0.111-2.207,0.111c-0.293,0-0.586-0.018-0.879-0.067
	c-0.643,0.131-1.29,0.165-1.938,0.165c-0.681,0-1.362-0.037-2.042-0.037c-0.059,0-0.118,0-0.177,0.001
	c-0.496,0.006-0.979,0.133-1.469,0.133c-0.096,0-0.193-0.005-0.29-0.017c-0.355,0.417-1.092-0.007-1.387,0.675
	c-0.112,0.262-0.088,0.648-0.415,0.815c-0.015-0.003-0.031-0.004-0.045-0.004c-0.234,0-0.386,0.318-0.625,0.318
	c-0.066,0-0.14-0.025-0.223-0.087c-0.018-0.014-0.036-0.019-0.054-0.019c-0.069,0-0.128,0.09-0.113,0.15
	c0.248,0.963-0.577,1.275-1.096,1.726c-0.338,0.291-0.276,0.677-0.481,1.006c0.017,0.003,0.032,0.005,0.047,0.005
	c0.217,0,0.243-0.315,0.416-0.315c0.023,0,0.048,0.005,0.076,0.018c0.26,0.107,0.138,0.369,0.136,0.553
	c-0.002,0.675-0.112,1.342-0.064,2.026c0.023,0.318-0.093,0.653-0.412,0.653c-0.101,0-0.223-0.034-0.367-0.112
	c-0.102-0.056-0.207-0.078-0.31-0.078c-0.347,0-0.679,0.25-0.824,0.324c-0.221,0.114-0.388,0.161-0.515,0.161
	c-0.48,0-0.368-0.677-0.381-0.9c-0.122-1.911-0.179-3.83-0.191-5.746c-0.014-2.257,0.041-4.516,0.064-6.774
	c-0.195-0.231-0.067-0.508-0.102-0.758c0.038-0.041,0.072-0.083,0.102-0.126c0.01-0.825,0.017-1.652,0.024-2.476
	c-0.06-0.057-0.11-0.119-0.136-0.191c-0.069-1.008-0.014-1.068,0.841-1.187c0.169-0.024-0.145-0.355,0.143-0.422
	c0.617,0.098,1.158,0.434,1.771,0.584c0.379,0.093,0.601,0.589,0.56,1.092c-0.072,0.941-0.126,1.888-0.15,2.834
	c-0.01,0.417-0.307,0.45-0.66,0.62c0.157-0.04,0.282-0.059,0.381-0.059c0.402,0,0.388,0.309,0.367,0.779
	c-0.074,1.518-0.026,3.041-0.026,4.638c0.458-0.453,0.999-0.837,1.332-1.354c0.682-1.058,1.668-1.325,2.81-1.325
	c0.324,0,0.648,0,0.971,0c2.048,0,4.095,0.006,6.141,0.01c0.457,0.002,0.988,0.165,1.432,0.165c0.23,0,0.437-0.044,0.598-0.177
	c0.51-0.422,0.145-1.328,0.172-2.019c0.045-1.213,0.026-2.429,0.036-3.644c0.012-0.479-0.515-1.02,0.169-1.418
	c0.267-0.198,0.589-0.417-0.012-0.565c-0.355-0.088-0.269-0.329-0.274-0.546c-0.043-1.563-0.083-3.127-0.11-4.693
	c-0.002-0.219-0.086-0.417,0.253-0.629c0.427-0.265-0.274-0.041-0.262-0.336c0.055-1.337-0.01-2.691,0.439-3.975
	c0.098-0.279,0.237-0.654,0.509-0.654c0.132,0,0.295,0.088,0.5,0.318c0.045,0.051,0.078,0.07,0.102,0.07
	c0.081,0,0.079-0.208,0.148-0.244C30.548,4.573,30.736,4.509,30.883,4.509 M30.883,2.5c-0.253,0-0.505,0.036-0.765,0.112
	c-0.205-0.051-0.393-0.068-0.556-0.068c-0.777,0-1.825,0.347-2.404,1.998c-0.468,1.343-0.5,2.666-0.528,3.833
	c-0.006,0.242-0.012,0.483-0.021,0.724c-0.006,0.147,0.003,0.297,0.029,0.447c-0.029,0.196-0.038,0.408-0.021,0.639
	c0.027,1.554,0.067,3.111,0.109,4.667c-0.012,0.295,0.015,0.561,0.073,0.8c-0.161,0.483-0.193,1.094,0.042,1.854l0.001,0.002
	c-0.002,0.34-0.002,0.66-0.003,0.98c0,0.846-0.001,1.645-0.031,2.448c-0.001,0.034-0.002,0.068-0.002,0.102
	c-0.061-0.003-0.123-0.005-0.186-0.005l-1.432-0.003c-1.571-0.003-3.143-0.007-4.715-0.007l-0.973,0c-0.002,0-0.003,0-0.005,0
	c-0.397,0-1.215,0.001-2.111,0.325c0.003-0.059,0.005-0.119,0.008-0.178c0.013-0.296,0.033-0.736-0.097-1.2
	c0.006-0.065,0.009-0.129,0.011-0.191c0.021-0.824,0.068-1.718,0.145-2.728c0.123-1.521-0.754-2.868-2.084-3.195
	c-0.135-0.033-0.321-0.108-0.518-0.186c-0.379-0.152-0.851-0.341-1.417-0.431l-0.386-0.061l-0.381,0.088
	c-0.485,0.112-0.904,0.372-1.206,0.743c-1.288,0.633-1.404,1.874-1.33,2.96l0.02,0.285l0.099,0.269
	c0.003,0.008,0.006,0.015,0.008,0.023c-0.003,0.391-0.007,0.779-0.011,1.165l-0.227,0.242l0.118,0.824
	c-0.016,0.235-0.026,0.605,0.096,1.019c-0.007,0.55-0.015,1.101-0.023,1.652c-0.023,1.544-0.047,3.141-0.037,4.722
	c0.013,2.067,0.075,3.967,0.191,5.806c-0.01,0.431-0.02,1.393,0.705,2.136c0.44,0.452,1.039,0.7,1.685,0.7
	c0.455,0,0.915-0.121,1.405-0.369c0.203,0.05,0.407,0.075,0.611,0.075c0.67,0,1.288-0.268,1.74-0.755
	c0.487-0.524,0.733-1.273,0.675-2.055c-0.018-0.261,0.004-0.583,0.027-0.924c0.019-0.28,0.037-0.56,0.042-0.841
	c0.027-0.213,0.032-0.413,0.017-0.6c0.251-0.256,0.507-0.584,0.688-0.987l0.165-0.085c0.6-0.306,0.937-0.766,1.131-1.166
	c0.09-0.025,0.183-0.055,0.279-0.093c0.292-0.013,0.558-0.049,0.781-0.079c0.184-0.025,0.358-0.048,0.479-0.049l0.153-0.001
	c0.321,0,0.643,0.009,0.965,0.018c0.359,0.01,0.718,0.019,1.077,0.019c0.767,0,1.395-0.044,1.986-0.141
	c0.264,0.028,0.538,0.042,0.831,0.042c0.444,0,0.856-0.031,1.255-0.061c0.017-0.001,0.035-0.003,0.052-0.004
	c0.053,0.595,0.093,1.112,0.014,1.544c-0.299,1.615-0.266,3.166-0.235,4.666c0.013,0.621,0.025,1.207,0.014,1.789
	c-0.036,1.996-0.012,3.746,0.072,5.35c0.017,0.315,0.016,0.647,0.015,0.998c-0.003,0.811-0.006,1.725,0.218,2.688
	c0.219,1.557,1.553,2.707,3.182,2.707c0.389,0,0.78-0.07,1.148-0.205c0.481-0.072,1.428-0.232,2.052-1.13
	c0.261-0.376,0.53-0.99,0.425-1.855c0.012-0.246,0.024-0.493,0.036-0.741c0.344-1.109,0.195-2.135,0.083-2.904
	c-0.034-0.233-0.066-0.454-0.081-0.648c0.215-0.821,0.181-1.576,0.152-2.194c-0.01-0.216-0.022-0.432-0.015-0.647l0.001-0.032
	l0-0.033c-0.001-0.5,0.01-1.001,0.02-1.502c0.025-1.228,0.051-2.498-0.075-3.791c-0.097-1.006-0.074-2.04-0.05-3.135
	c0.007-0.319,0.014-0.642,0.018-0.968c0.252,0.069,0.494,0.105,0.733,0.105c0.265,0,0.522-0.045,0.76-0.132
	c0.177,0.029,0.355,0.044,0.535,0.044c1.471,0,2.489-1.014,2.823-1.347l1.416-1.411l-0.514-0.521
	c0.11-0.522,0.066-1.094-0.146-1.671c-0.264-0.715-0.901-1.582-2.439-1.656l-0.072-0.004c-0.18-0.015-0.361-0.023-0.54-0.023
	c-0.455,0-0.878,0.052-1.286,0.16c-0.046,0.004-0.1,0.006-0.162,0.006c-0.181,0-0.361-0.015-0.542-0.028
	c-0.153-0.011-0.305-0.022-0.458-0.029c-0.003-2.263-0.009-4.521-0.016-6.778c0.085-0.47,0.043-0.93-0.109-1.339
	c0.177-1.163,0.108-2.277,0.046-3.272c-0.044-0.704-0.085-1.369-0.04-1.986c0.046-0.643,0.028-1.244,0.01-1.826
	c-0.006-0.192-0.012-0.384-0.015-0.575c-0.025-1.445-0.859-2.067-1.571-2.274C32.003,2.666,31.351,2.5,30.883,2.5L30.883,2.5z" />
</svg>