<svg version="1.0" id="Layer_1" xmlns="http://www.w3.org/2000/svg" xmlns:xlink="http://www.w3.org/1999/xlink" x="0px"
    y="0px" viewBox="0 0 50 50" enable-background="new 0 0 50 50" xml:space="preserve">
    <g id="Layer_1-2">
        <g>
            <path fill="#022E85" d="M42.176,20.269l-0.686,1.097l-0.056-0.365c-0.208-1.364-1.558-2.188-3.138-1.789
			c-1.001,0.252-1.765,1.034-1.991,1.557c0,0-1.064-1.418-3.394-1.233c0.461-1.803-1.058-3.374-3.133-2.793
			c-1.05,0.294-1.994,1.07-2.372,2.546l-0.272,1.061c0,0-0.719,0.132-1.257,0.498c0,0-1.396-0.97-3.057,0.135
			c0,0-0.541-1.611-2.509-1.475c0.352-2.253-2.239-4.357-5.331-2.046l-2.924,2.185c-0.026-1.108-0.796-2.464-2.784-2.464
			s-3.73,1.581-4.078,2.941L2.607,30.237c-0.512,2.002,0.887,3.305,2.643,3.305s3.635-1.081,4.152-3.1L9.745,29.1l1.833,2.104
			c0.557,0.64,1.032,1.018,1.87,1.119c1.005,0.121,2.038-0.18,2.76-0.757c0.895,0.791,2.818,0.758,4.005-0.626
			c1.358,1.62,4.026,0.768,4.857-1.092c0.61,1.834,2.765,1.923,3.994,1.036c1.283,0.314,3.29,0.052,4.968-1.108
			c-0.89,1.306-0.616,3.765,2.276,3.765c3.037,0,4.9-1.621,6.276-3.823l4.243-6.788c0.173-0.277,0.485-0.727,0.619-1.252
			c0.036-0.142,0.053-0.457,0.053-0.612c0-1.507-1.365-2.539-2.869-2.353C43.573,18.845,42.597,19.595,42.176,20.269L42.176,20.269z
			" />
            <g>
                <path fill="#FDCA01" d="M36.882,29.427c0.119,0,0.265,0.035,0.404,0.026c0.409-0.028,1.011-0.35,0.877-1.135l-0.907-5.946
				c-0.177-1.16,0.779-1.817,1.556-1.957c0.84-0.151,1.275,0.249,1.379,0.929l0.553,3.631l2.492-3.986
				c0.33-0.528,0.898-0.976,1.646-1.019c1.204-0.069,1.659,1.006,1.102,1.897l-4.485,7.175c-1.632,2.611-3.269,3.221-5.281,3.221
				c-1.597,0-1.551-1.158-1.067-1.853C35.525,29.872,36.149,29.426,36.882,29.427L36.882,29.427z" />
                <path fill="#FDCA01" d="M36.068,22.84c0.287,1.027,0.026,2.385-0.758,3.749c-0.804,1.397-2.018,2.327-3.333,2.789
				c-1.234,0.434-2.393,0.484-3.15,0.065c-0.425,0.454-0.884,0.66-1.411,0.697c-0.79,0.055-1.357-0.458-1.115-1.401l2.401-9.351
				c0.193-0.752,1.022-1.425,1.777-1.478c1.002-0.07,1.376,0.591,1.188,1.325l-0.528,2.058c0.626-0.332,1.531-0.505,2.172-0.498
				C34.732,20.811,35.724,21.609,36.068,22.84L36.068,22.84z M32.942,25.383c0,0,0.658-0.933,0.602-1.064
				c-0.075-0.177-1.189-0.149-1.189-0.149s-0.602-0.825-0.785-0.799c-0.206,0.03-0.619,1.094-0.619,1.094s-1.05,0.422-1.073,0.611
				c-0.027,0.221,0.788,0.81,0.788,0.81s-0.054,1.101,0.143,1.172c0.159,0.058,1.074-0.59,1.074-0.59s1.038,0.28,1.172,0.114
				C33.171,26.439,32.941,25.383,32.942,25.383L32.942,25.383z" />
                <path fill="#022E85" d="M27.807,20.584c1.264-0.3,2.482,0.709,2.351,2.148c-0.082,0.911-0.581,1.659-1.599,2.081
				c-0.684,0.284-1.754,0.697-2.289,1.057L27.807,20.584L27.807,20.584z" />
                <path fill="#FDCA01" d="M24.022,29.055l0.559-2.178c0.316-1.042,0.979-1.897,2.28-2.434c0.315-0.13,1.706-0.413,2.146-1.318
				c0.393-0.809,0.036-1.713-1.118-1.633c-0.683,0.048-1.54,0.42-2.322,1.112c-0.001-0.478-0.433-0.92-1.12-0.872
				c-0.87,0.061-1.655,0.705-1.831,1.39l-1.532,5.967c-0.242,0.941,0.234,1.477,1.114,1.416
				C23.057,30.444,23.842,29.754,24.022,29.055L24.022,29.055z" />
                <path fill="#FDCA01" d="M16.101,28.316l-3.265-3.748l5.232-3.911c1.214-0.908,1.361-2.237,0.26-2.771
				c-0.806-0.391-1.786,0.007-2.551,0.579l-5.726,4.28l0.713-2.786c0.213-0.834-0.498-1.546-1.526-1.501
				c-1.34,0.059-2.534,0.932-2.856,2.191l-2.528,9.879c-0.663,2.59,3.662,2.12,4.294-0.349l0.594-2.322
				c0.155-0.607,0.929-0.791,1.34-0.318l2.674,3.069c0.323,0.371,0.716,0.503,1.364,0.458
				C15.709,30.955,16.904,29.239,16.101,28.316L16.101,28.316z" />
                <g>
                    <path fill="#FDCA01" d="M17.738,31.307c-0.687,0-1.067-0.304-1.264-0.559c-0.323-0.416-0.346-0.922-0.26-1.257l0.896-3.489
					c0.226-0.881,1.085-1.817,2.287-1.901c0.053-0.004,0.106-0.006,0.157-0.006c0.668,0,1.045,0.306,1.244,0.562
					c0.279,0.359,0.385,0.877,0.271,1.32l-0.917,3.573c-0.104,0.403-0.386,0.82-0.775,1.144c-0.426,0.354-0.948,0.57-1.47,0.606
					C17.85,31.305,17.793,31.307,17.738,31.307L17.738,31.307L17.738,31.307z" />
                    <path fill="#022E85" d="M19.553,24.594c0.937,0,1.151,0.803,1.034,1.26l-0.917,3.573c-0.151,0.588-0.879,1.313-1.797,1.377
					c-0.047,0.003-0.091,0.005-0.135,0.005c-0.966,0-1.149-0.779-1.042-1.194l0.896-3.489c0.174-0.678,0.869-1.46,1.84-1.528
					C19.474,24.595,19.514,24.594,19.553,24.594 M19.554,23.598c-0.063,0-0.127,0.002-0.191,0.007
					c-1.438,0.1-2.465,1.219-2.735,2.273l-0.896,3.489c-0.147,0.573-0.013,1.219,0.349,1.686c0.376,0.485,0.965,0.752,1.658,0.752
					c0.067,0,0.135-0.002,0.204-0.007c0.626-0.044,1.249-0.299,1.754-0.72c0.474-0.395,0.808-0.893,0.938-1.403l0.917-3.573
					c0.153-0.595,0.015-1.265-0.36-1.749C20.814,23.867,20.232,23.598,19.554,23.598L19.554,23.598L19.554,23.598z" />
                </g>
                <path fill="#FDCA01" d="M19.613,23.838c1.073-0.075,1.862-0.971,2.002-1.518c0.256-0.997-0.286-1.604-1.21-1.54
				c-0.928,0.065-1.81,0.812-2.019,1.629S18.643,23.906,19.613,23.838z" />
            </g>
        </g>
    </g>
</svg>