<?xml version="1.0" encoding="utf-8"?>
<!-- Generator: Adobe Illustrator 26.0.0, SVG Export Plug-In . SVG Version: 6.00 Build 0)  -->
<svg version="1.0" id="Layer_1" xmlns="http://www.w3.org/2000/svg" xmlns:xlink="http://www.w3.org/1999/xlink" x="0px" y="0px"
	 viewBox="0 0 50 50" enable-background="new 0 0 50 50" xml:space="preserve">
<path fill="#D4145A" d="M15.415,48.492c0.266-0.292,0.554-0.567,0.796-0.877c1.856-2.377,3.01-5.051,3.477-8.039
	c0.471-3.013,0.339-6.044,0.325-9.07c-0.002-0.335-0.318-0.722-0.584-0.989c-0.383-0.385-0.476-0.696-0.006-1.039
	c0.505-0.369,0.601-0.853,0.554-1.455c-0.057-0.732-0.024-1.474,0.009-2.21c0.019-0.422-0.091-0.646-0.544-0.533
	c-1.065,0.266-2.143,0.495-3.187,0.83c-1.142,0.366-2.252,0.835-3.376,1.258c-0.105,0.039-0.211,0.075-0.363,0.011
	c0.45-0.25,0.904-0.493,1.349-0.752c2.091-1.22,3.978-2.713,5.771-4.33c0.126-0.114,0.27-0.296,0.271-0.447
	c0.017-2.312,0.012-4.625,0.012-7.089c-0.503,0.311-0.881,0.616-1.313,0.793c-0.437,0.179-0.927,0.231-1.547,0.374
	c0.91-0.603,1.691-1.068,2.403-1.622c0.243-0.189,0.421-0.595,0.441-0.913c0.058-0.938,0.002-1.883,0.032-2.824
	c0.017-0.542-0.048-1.008-0.539-1.34c-0.139-0.094-0.219-0.275-0.345-0.442c1.988-0.777,2.944-2.56,4.238-3.99
	c0.054-0.06,0.107-0.122,0.163-0.18c0.012-0.013,0.037-0.012,0.185-0.057c0,1.636,0,3.24,0,5.026
	c0.296-0.194,0.449-0.249,0.534-0.357c0.77-0.979,1.518-1.976,2.298-2.947c0.144-0.179,0.404-0.374,0.613-0.377
	c2.847-0.028,5.694-0.025,8.54-0.026c0.077,0,0.155,0.027,0.312,0.057c-0.361,0.611-0.721,1.171-1.032,1.757
	c-1.742,3.277-2.401,6.798-2.227,10.476c0.066,1.381,0.269,2.761,0.503,4.126c0.092,0.537,0.44,1.03,0.708,1.626
	c-1.908,1.057-3.729,2.41-5.058,4.346c-0.427-0.522-0.786-1.038-1.221-1.479c-0.94-0.951-2.14-1.389-3.431-1.616
	c-0.368-0.065-0.548,0.11-0.543,0.462c0.015,1.043,0.037,2.087,0.08,3.129c0.006,0.141,0.127,0.293,0.228,0.411
	c0.223,0.26,0.468,0.502,0.695,0.741c-0.025,0.068-0.028,0.122-0.055,0.142c-0.922,0.665-0.909,1.621-0.893,2.625
	c0.036,2.232-0.079,4.47,0.032,6.697c0.075,1.503-0.497,2.663-1.398,3.733c-1.997,2.37-4.297,4.428-6.69,6.386
	c-0.04,0.033-0.099,0.043-0.149,0.064C15.461,48.539,15.438,48.516,15.415,48.492z M28.951,21.731
	c-0.14-4.301-0.627-8.453,0.739-12.52c-0.89-0.06-1.627-0.072-2.354-0.167c-1.075-0.14-2.068-0.149-2.676,0.976
	c-0.093,0.172-0.263,0.311-0.422,0.436c-0.468,0.368-0.557,0.857-0.554,1.42c0.014,2.273,0,4.547,0,6.82
	c0,0.218,0.031,0.437,0.049,0.679C25.728,19.55,27.355,20.467,28.951,21.731z"/>
</svg>
