<?xml version="1.0" encoding="utf-8"?>
<!-- Generator: Adobe Illustrator 26.0.0, SVG Export Plug-In . SVG Version: 6.00 Build 0)  -->
<svg version="1.0" id="Layer_1" xmlns="http://www.w3.org/2000/svg" xmlns:xlink="http://www.w3.org/1999/xlink" x="0px" y="0px"
	 viewBox="0 0 50 50" enable-background="new 0 0 50 50" xml:space="preserve">
<g>
	<rect x="10.531" y="3.623" fill="#ED1D24" width="28.939" height="11.647"/>
	<g>
		<path fill="#FFFFFF" d="M35.02,6.338V4.555h-4.961l-0.816,5.956l-0.807-5.956h-1.789l0.2,1.589
			c-0.207-0.407-0.939-1.589-2.551-1.589c-0.011-0.001-1.791,0-1.791,0l-0.007,8.681l-1.304-8.681l-2.343-0.001l-1.349,8.995
			l0.001-8.993h-2.242l-0.808,5.052l-0.787-5.052h-2.243v9.779h1.766V9.62l0.803,4.713h0.939l0.792-4.713v4.713h3.405l0.207-1.505
			h1.371l0.206,1.505l3.343,0.002h0.003v-0.002h0.002h0.002v-3.174l0.41-0.06l0.848,3.236h0.002h1.725h0.002l-0.001-0.002h0.003
			h0.002l-1.113-3.793c0.564-0.417,1.201-1.477,1.032-2.491V8.049c0.002,0.014,1.051,6.291,1.051,6.291l2.057-0.006l1.405-8.863
			v8.864h3.335v-1.759h-1.583v-2.243h1.583V8.547h-1.583V6.338H35.02z M19.544,11.278l0.485-4.181l0.504,4.181H19.544z
			 M24.678,9.348c-0.136,0.066-0.278,0.099-0.416,0.099V6.301c0.002,0,0.005-0.001,0.009-0.001c0.138-0.001,1.17,0.042,1.17,1.556
			C25.441,8.649,25.09,9.148,24.678,9.348 M38.579,12.573v1.759h-3.253V4.554h1.752v8.02H38.579L38.579,12.573z"/>
	</g>
</g>
<g>
	<polygon fill="#E6E6E6" points="15.358,29.683 5.731,26.073 1.76,42.108 13.643,37.686 6.899,38.535 9.158,28.987 	"/>
	<polygon fill="#E6E6E6" points="34.642,37.31 44.269,40.92 48.24,24.885 36.357,29.307 43.101,28.457 40.842,38.006 	"/>
	<polygon fill="#F9D429" points="6.333,21.56 25.767,21.56 38.282,35.128 22.307,34.587 43.818,45.237 24.323,45.237 11.688,31.699 
		27.783,32.27 	"/>
</g>
</svg>
