<?xml version="1.0" encoding="utf-8"?>
<!-- Generator: Adobe Illustrator 26.0.0, SVG Export Plug-In . SVG Version: 6.00 Build 0)  -->
<svg version="1.0" id="Layer_1" xmlns="http://www.w3.org/2000/svg" xmlns:xlink="http://www.w3.org/1999/xlink" x="0px" y="0px"
	 viewBox="0 0 50 50" enable-background="new 0 0 50 50" xml:space="preserve">
<g>
	<path fill="#FA0000" d="M46.869,13.495c-2.291,0.162-4.582,0.334-6.864,0.505c-3.238,0.235-6.476,0.478-9.705,0.722
		c-0.144,0.009-0.207-0.036-0.271-0.153c-0.64-1.209-1.281-2.417-1.921-3.626c-0.189-0.361-0.388-0.722-0.577-1.091
		C27.513,9.86,27.504,9.86,27.495,9.87c-0.289,7.333-0.577,14.675-0.866,22.008c-0.009,0.018-0.018,0.036-0.018,0.054
		c0,0.018,0.018,0.036,0.063,0.036c0.253-1.01,0.505-2.02,0.758-3.022c0.947-3.743,1.894-7.477,2.841-11.221
		c0.036-0.135,0.081-0.189,0.225-0.198c0.658-0.036,1.317-0.099,1.975-0.144c0.478-0.036,0.947-0.072,1.434-0.099
		c-0.009,0.054-0.018,0.099-0.027,0.144c-0.803,2.977-1.615,5.962-2.426,8.939c-0.812,3.004-1.624,6.007-2.444,9.002
		c-0.027,0.099-0.09,0.198,0.108,0.216c1.01,0.063,2.02,0.144,3.031,0.217c1.687,0.117,3.382,0.243,5.069,0.37
		c2.517,0.18,5.033,0.37,7.55,0.559c0.189,0.018,0.244-0.018,0.235-0.225c-0.063-1.506-0.117-3.013-0.171-4.519
		c-0.072-2.011-0.153-4.014-0.216-6.016c-0.009-0.298-0.054-0.595,0.018-0.902c0.848-3.364,1.687-6.729,2.535-10.093
		c0.126-0.478,0.207-0.965,0.388-1.434v-0.09C47.32,13.441,47.095,13.477,46.869,13.495z M42.792,17.618
		c-0.207,1.416-0.388,2.841-0.577,4.266C42.179,22.2,42.179,22.2,41.854,22.2h-1.055c-0.397,0-0.794,0-1.191,0.009
		c-0.144,0-0.189-0.036-0.162-0.189c0.117-0.83,0.225-1.669,0.334-2.499c0.009-0.099,0.027-0.189,0.027-0.289
		c0.018-0.379-0.243-0.658-0.631-0.658c-0.171,0.009-0.334,0.027-0.505,0.036c-0.397,0.027-0.604,0.207-0.658,0.604
		c-0.108,0.821-0.216,1.642-0.325,2.462c-0.054,0.406-0.108,0.812-0.162,1.218c-0.063,0.433,0.144,0.676,0.577,0.676
		c0.713,0.009,1.416,0.009,2.12,0c0.117,0,0.198,0.036,0.289,0.117c0.388,0.397,0.776,0.803,1.173,1.191
		c0.09,0.09,0.108,0.171,0.09,0.289c-0.334,2.562-0.676,5.114-1.01,7.676c-0.018,0.117-0.072,0.18-0.162,0.262
		c-0.379,0.325-0.794,0.388-1.299,0.343c-1.678-0.153-3.364-0.262-5.042-0.379c-0.415-0.036-0.776-0.469-0.722-0.875
		c0.207-1.533,0.415-3.067,0.613-4.6c0.018-0.135,0.045-0.189,0.189-0.189c0.803,0.009,1.606,0.009,2.399,0
		c0.162,0,0.18,0.054,0.162,0.189c-0.144,1.064-0.28,2.129-0.424,3.184c-0.072,0.514,0.135,0.785,0.649,0.83
		c0.135,0.009,0.28,0.018,0.415,0.027c0.415,0.009,0.649-0.18,0.704-0.595c0.09-0.676,0.18-1.362,0.271-2.048
		c0.126-0.956,0.244-1.921,0.388-2.877c0.063-0.406-0.171-0.722-0.613-0.704c-0.694,0.027-1.38,0-2.075,0.009
		c-0.126,0-0.216-0.036-0.307-0.126c-0.379-0.388-0.758-0.776-1.146-1.155c-0.099-0.099-0.135-0.189-0.117-0.325
		c0.189-1.38,0.37-2.76,0.55-4.14c0.081-0.604,0.162-1.209,0.244-1.813c0.009-0.108,0.036-0.198,0.135-0.253
		c0.009,0,0.018,0,0.018-0.009c0.487-0.541,1.146-0.532,1.795-0.577c1.569-0.108,3.13-0.225,4.699-0.352
		c0.207-0.018,0.298,0.099,0.433,0.198C42.802,17.058,42.838,17.293,42.792,17.618z"/>
	<path fill="#FA0000" d="M23.382,14.803c-1.714-0.117-3.437-0.253-5.15-0.379c-1.669-0.126-3.337-0.253-5.006-0.37
		c-2.48-0.189-4.961-0.37-7.441-0.559c-0.162-0.009-0.216,0.018-0.207,0.198c0.153,3.716,0.298,7.441,0.451,11.158
		c0,0.135-0.009,0.262-0.045,0.388c-0.893,2.958-1.777,5.917-2.661,8.875c-0.253,0.848-0.514,1.705-0.767,2.571h0.207
		c0.893-0.063,1.786-0.126,2.679-0.198c2.688-0.198,5.367-0.397,8.055-0.595c2.111-0.162,4.23-0.316,6.341-0.478
		c0.144-0.009,0.225,0.027,0.298,0.153c0.55,0.884,1.1,1.759,1.66,2.643c0.415,0.658,0.83,1.317,1.245,1.975
		c0.009,0,0.027-0.009,0.045-0.009c0-0.117-0.009-0.235,0-0.352c0.072-3.761,0.153-7.514,0.235-11.275
		c0.036-1.948,0.072-3.897,0.108-5.845c0.054-2.553,0.108-5.114,0.162-7.667C23.598,14.876,23.571,14.812,23.382,14.803z
		 M21.74,17.717c-0.343,2.535-0.676,5.069-1.01,7.604c-0.316,2.363-0.631,4.717-0.938,7.081c-0.018,0.162-0.072,0.216-0.234,0.225
		c-0.767,0.045-1.524,0.108-2.282,0.171c-0.162,0.009-0.198-0.009-0.171-0.18c0.334-2.499,0.667-4.997,0.992-7.495
		c0.09-0.676,0.18-1.353,0.271-2.029c0.045-0.072,0.054-0.153,0.009-0.271c-0.027,0.081-0.045,0.126-0.054,0.18
		c-1.082,3.265-2.156,6.53-3.229,9.796c-0.045,0.135-0.126,0.171-0.253,0.18c-0.604,0.036-1.218,0.081-1.822,0.135
		c-0.18,0.018-0.235-0.027-0.244-0.207c-0.054-1.2-0.126-2.39-0.189-3.581c-0.108-1.957-0.225-3.924-0.334-5.881
		c-0.009-0.144-0.018-0.289-0.018-0.442c-0.009-0.036,0.009-0.09-0.009-0.144v-0.009c0.009-0.018,0-0.036-0.009-0.045
		c-0.072,0.09-0.072,0.189-0.063,0.289c-0.108,0.866-0.216,1.732-0.334,2.589c-0.289,2.192-0.577,4.375-0.866,6.566
		c-0.036,0.289-0.081,0.577-0.108,0.866c-0.018,0.117-0.045,0.162-0.171,0.171c-0.794,0.054-1.578,0.117-2.372,0.18
		c-0.126,0.009-0.153-0.018-0.135-0.153c0.379-2.85,0.749-5.701,1.127-8.542c0.271-2.056,0.541-4.113,0.821-6.17
		c0.063-0.451-0.09-0.866-0.144-1.299c-0.027-0.18-0.063-0.361-0.099-0.541c-0.018-0.099,0-0.126,0.108-0.117
		c1.299,0.099,2.589,0.198,3.888,0.28c0.171,0.018,0.126,0.135,0.126,0.225c0.054,1.479,0.108,2.968,0.153,4.456
		c0.09,2.499,0.171,4.997,0.253,7.487c0,0.018,0.009,0.036,0.018,0.063c0.09-0.045,0.063-0.126,0.081-0.189
		c1.191-3.851,2.372-7.694,3.554-11.545c0.036-0.135,0.09-0.18,0.235-0.162c1.091,0.09,2.183,0.171,3.274,0.244
		C21.731,17.509,21.758,17.554,21.74,17.717z"/>
</g>
<path fill="#FC8E8E" d="M26.799,32.628c0.016,0.031,0.033,0.062,0.049,0.093c0.01,0.05-0.007,0.13-0.046,0.109
	C26.709,32.781,26.77,32.698,26.799,32.628z"/>
<path fill="#FEFEFE" d="M10.83,22.623c0.02,0.06,0,0.12,0.01,0.16c-0.03-0.03-0.04-0.06-0.04-0.09c-0.02,0.06-0.02,0.13-0.05,0.19
	c-0.01-0.11-0.01-0.22,0.07-0.32c0.01,0.01,0.02,0.03,0.01,0.05V22.623z"/>
<path fill="#FEFEFE" d="M17.64,22.883c0.01-0.03,0.02-0.06,0.01-0.09c-0.01-0.02,0.01-0.06-0.03-0.06c0,0-0.02,0.03-0.03,0.05
	c0.01-0.06,0.03-0.11,0.06-0.2C17.7,22.713,17.69,22.803,17.64,22.883z"/>
</svg>
