<?xml version="1.0" encoding="UTF-8"?>
<svg xmlns="http://www.w3.org/2000/svg" xmlns:xlink="http://www.w3.org/1999/xlink" viewBox="0 0 48 48" width="48px" height="48px">
<g id="surface29258203">
<rect x="0" y="0" width="48" height="48" style="fill:rgb(0%,0%,0%);fill-opacity:1;stroke:none;"/>
<path style=" stroke:none;fill-rule:nonzero;fill:rgb(94.509804%,76.862746%,5.882353%);fill-opacity:1;" d="M 23.25 5.25 C 12.894531 5.25 4.5 13.644531 4.5 24 C 4.5 34.355469 12.894531 42.75 23.25 42.75 C 29.988281 42.75 35.890625 39.195312 39.195312 33.863281 L 24.691406 24 L 39.195312 14.136719 C 35.890625 8.804688 29.988281 5.25 23.25 5.25 Z M 33.75 21.75 C 32.507812 21.75 31.5 22.757812 31.5 24 C 31.5 25.242188 32.507812 26.25 33.75 26.25 C 34.992188 26.25 36 25.242188 36 24 C 36 22.757812 34.992188 21.75 33.75 21.75 Z M 42 21.75 C 40.757812 21.75 39.75 22.757812 39.75 24 C 39.75 25.242188 40.757812 26.25 42 26.25 C 43.242188 26.25 44.25 25.242188 44.25 24 C 44.25 22.757812 43.242188 21.75 42 21.75 Z M 42 21.75 "/>
</g>
</svg>
