<?xml version="1.0" encoding="utf-8"?>
<!-- Generator: Adobe Illustrator 26.0.0, SVG Export Plug-In . SVG Version: 6.00 Build 0)  -->
<svg version="1.0" id="Layer_1" xmlns="http://www.w3.org/2000/svg" xmlns:xlink="http://www.w3.org/1999/xlink" x="0px"
    y="0px" viewBox="0 0 50 50" enable-background="new 0 0 50 50" xml:space="preserve">
    <path fill="#DC4A67" d="M19.827,1.964c-1.068,2.324-1.897,4.715-2.283,7.31c0.32-0.361,0.575-0.715,0.895-0.994
	c0.32-0.279,0.706-0.485,1.068-0.731c0.041,0.025,0.074,0.049,0.115,0.082c-0.09,0.255-0.148,0.534-0.279,0.756
	c-0.624,1.035-0.994,2.144-1.109,3.343c-0.025,0.271,0.041,0.542,0.041,0.813c0,0.214-0.025,0.427-0.041,0.632
	c-0.008,0.066-0.025,0.148,0,0.205c0.279,0.468,0.526,0.961,0.854,1.396c0.279,0.361,0.649,0.657,0.977,0.977
	c0.205,0.197,0.411,0.402,0.624,0.6c0.066,0.057,0.164,0.074,0.255,0.09c0.517,0.066,1.035,0.123,1.544,0.181
	c0.246,0.025,0.485,0.057,0.731,0.066c1.487,0.033,2.982,0,4.468,0.09c2.497,0.148,4.92,0.624,7.08,1.996
	c0.255,0.164,0.485,0.353,0.723,0.534c0.222,0.172,0.402,0.345,0.172,0.649c-0.033,0.041-0.049,0.148-0.016,0.189
	c0.082,0.14,0.222,0.255,0.279,0.411c0.049,0.148,0.025,0.32,0.033,0.46c0.189,0.033,0.37,0.066,0.632,0.107
	c0.23-0.14,0.493-0.099,0.632,0.271c0.312,0.83,0.665,1.651,0.813,2.513c0.304,1.75,0.082,3.466-0.591,5.125
	c-0.756,1.856-2.062,3.228-3.762,4.23c-1.306,0.772-2.727,1.265-4.23,1.462c-0.172,0.025-0.386-0.09-0.542-0.205
	c-0.205-0.14-0.37-0.337-0.616-0.575c0.057,0.23,0.074,0.378,0.131,0.509c0.115,0.296-0.033,0.427-0.287,0.435
	c-0.862,0.025-1.717,0.049-2.579,0.033c-0.255-0.008-0.279,0.099-0.271,0.279c0.016,0.435,0.049,0.871,0.049,1.298
	c0.008,2.423-0.016,4.846,0.025,7.269c0.016,0.821,0.189,1.651,0.279,2.472c0.025,0.222,0.025,0.452,0.025,0.682
	c0,0.123-0.025,0.246,0.049,0.394c0.09-0.123,0.181-0.246,0.312-0.411c0.246,0.361,0.476,0.706,0.756,1.117c-0.427,0-0.789,0-1.15,0
	c-0.632,0-1.257,0.025-1.889-0.008c-0.205-0.008-0.402-0.148-0.608-0.214c-0.09-0.025-0.189-0.041-0.279-0.025
	c-0.493,0.074-0.977,0.23-1.47,0.238c-2.111,0.025-4.214,0.008-6.325,0.008c-0.69,0-0.715-0.033-0.608-0.731
	c-0.09,0.074-0.181,0.115-0.222,0.181c-0.263,0.526-0.715,0.591-1.24,0.55c-0.46-0.033-0.928-0.008-1.388-0.008
	c-0.025-0.041-0.041-0.074-0.066-0.115c0.09-0.074,0.164-0.172,0.271-0.23c0.255-0.131,0.575-0.197,0.78-0.386
	c1.183-1.084,2.308-2.234,2.899-3.778c0.37-0.961,0.715-1.93,1.002-2.916c0.115-0.394,0.279-0.559,0.674-0.542
	c0.107,0.008,0.222-0.049,0.329-0.074c-0.041-0.025-0.082-0.057-0.123-0.082c0.066-0.23,0.107-0.46,0.189-0.682
	c0.049-0.123,0.148-0.222,0.238-0.32c0.591-0.608,0.591-0.608,0.016-1.191c-0.493-0.493-0.608-1.109-0.55-1.774
	c0.082-0.945,0.164-1.897,0.23-2.842c0.049-0.698,0.082-1.388,0.074-2.086c-0.008-1.257-0.008-2.513-0.09-3.77
	c-0.107-1.635-0.131-3.285-0.567-4.879c-0.016-0.057-0.033-0.14-0.016-0.189c0.263-0.632,0.871-0.953,1.503-0.764
	c-0.23-0.476-0.46-0.879-1.027-1.002c-0.246-0.049-0.46-0.263-0.682-0.402c-0.271-0.164-0.542-0.329-0.805-0.501
	c-0.115-0.074-0.238-0.14-0.312-0.238c-0.214-0.263-0.402-0.542-0.6-0.821c-0.033-0.049-0.09-0.14-0.074-0.172
	c0.246-0.435-0.156-0.419-0.361-0.542c-0.164-0.099-0.337-0.197-0.468-0.329c-0.682-0.706-1.593-1.027-2.423-1.487
	c-1.585-0.887-3.08-1.889-4.345-3.203c-1.24-1.281-2.16-2.76-2.571-4.518C4.689,7.993,4.492,7.763,4.82,7.574
	c0.057-0.033-0.057-0.427-0.14-0.632C4.442,6.374,4.557,4.839,4.837,4.395C5.116,5.282,5.321,6.284,5.74,7.188
	c0.509,1.092,1.207,2.094,1.815,3.138c0.238,0.402,0.452,0.821,0.674,1.232c0.148-0.156,0.312-0.09,0.526,0.123
	c0.427,0.419,0.895,0.797,1.355,1.183c0.099,0.082,0.222,0.14,0.271,0.164c0.287-0.772,0.55-1.52,0.862-2.251
	c0.107-0.246,0.361-0.427,0.509-0.665c0.172-0.279,0.287-0.6,0.468-0.871c0.214-0.32,0.476-0.608,0.805-0.862
	c-0.115,0.32-0.246,0.632-0.329,0.953c-0.214,0.764-0.337,1.552-0.616,2.292c-0.23,0.608-0.172,1.191-0.189,1.799
	c-0.008,0.361,0.107,0.559,0.444,0.723c1.322,0.649,2.637,1.331,3.951,2.004c0.082,0.041,0.164,0.074,0.23,0.107
	c-0.222-0.723-0.468-1.446-0.657-2.177c-0.279-1.076-0.263-2.168-0.099-3.269c0.476-3.236,1.988-5.996,3.885-8.583
	C19.687,2.128,19.761,2.046,19.827,1.964z M25.067,24.757c-0.164-0.049-0.279-0.09-0.32-0.099c0.115,0.616,0.304,1.232,0.32,1.848
	c0.049,1.61,0.041,3.228,0.008,4.846c-0.008,0.476-0.164,0.953-0.246,1.421c-0.016,0.074,0,0.148,0,0.238
	c0.304-0.197,0.559-0.468,0.862-0.55c1.396-0.394,2.448-1.265,3.392-2.308c0.222-0.238,0.402-0.485,0.665-0.329
	c0.016-0.197-0.041-0.452,0.057-0.6c1.092-1.585,1.487-3.294,0.895-5.166c-0.345-1.109-1.06-1.914-2.136-2.415
	c-1.01-0.476-2.086-0.517-3.162-0.641c-0.287-0.033-0.378,0.09-0.37,0.378c0.025,0.986,0.033,1.971,0.041,2.949
	C25.083,24.469,25.075,24.601,25.067,24.757z" />
</svg>