<?xml version="1.0" encoding="utf-8"?>
<!-- Generator: Adobe Illustrator 26.0.0, SVG Export Plug-In . SVG Version: 6.00 Build 0)  -->
<svg version="1.0" id="Layer_1" xmlns="http://www.w3.org/2000/svg" xmlns:xlink="http://www.w3.org/1999/xlink" x="0px" y="0px"
	 viewBox="0 0 50 50" enable-background="new 0 0 50 50" xml:space="preserve">
<g>
	<path fill="#E19D3D" d="M48.884,37.503c0,0.222,0,0.443,0,0.665c-0.462,0.969-0.858,1.175-1.898,0.896
		c-0.611-0.164-1.206-0.395-1.801-0.617c-4.999-1.862-10.145-3.1-15.461-3.568c-7.168-0.63-14.195,0.14-21.07,2.261
		c-1.976,0.61-3.917,1.338-5.903,1.913c-1.186,0.343-1.724-0.116-1.625-1.323c0.264-3.197,0.571-6.392,0.899-9.583
		c0.122-1.193,0.73-2.067,1.936-2.442c0.236-0.073,0.451-0.209,0.682-0.299c0.674-0.263,0.964-0.776,1.013-1.474
		c0.211-3.009,0.44-6.017,0.642-9.027c0.093-1.379,0.423-1.862,1.76-2.257c3.436-1.014,6.965-1.578,10.527-1.712
		c4.119-0.155,8.25-0.143,12.37-0.017c3.734,0.114,7.423,0.703,11.015,1.791c1.175,0.356,1.521,0.8,1.606,2.005
		c0.216,3.064,0.433,6.128,0.652,9.193c0.049,0.686,0.33,1.218,1.001,1.493c0.332,0.136,0.654,0.298,0.988,0.43
		c0.868,0.343,1.419,0.944,1.541,1.888c0.216,1.672,0.434,3.344,0.627,5.019C48.567,34.323,48.719,35.914,48.884,37.503z
		 M25.702,28.484c0.077,0.002,0.154,0.003,0.232,0.005c0.154,0.964,0.309,1.927,0.461,2.891c0.205,1.299,0.206,1.28,1.49,1.408
		c0.605,0.06,0.832-0.127,0.699-0.735c-0.536-2.455-1.077-4.909-1.585-7.37c-0.118-0.573-0.417-0.769-0.963-0.806
		c-1.351-0.091-1.357-0.089-1.601,1.225c-0.183,0.981-0.407,1.955-0.612,2.932c-0.081,0.002-0.162,0.004-0.243,0.006
		c-0.272-0.797-0.547-1.594-0.816-2.392c-0.444-1.317-0.443-1.303-1.842-1.37c-0.517-0.024-0.746,0.149-0.813,0.681
		c-0.29,2.276-0.622,4.547-0.916,6.823c-0.027,0.211,0.037,0.547,0.183,0.65c0.775,0.549,1.561,0.182,1.696-0.76
		c0.139-0.964,0.264-1.929,0.395-2.894c0.289,0.193,0.402,0.401,0.478,0.623c0.251,0.731,0.497,1.464,0.731,2.201
		c0.303,0.953,1.134,0.603,1.758,0.685c0.568,0.074,0.599-0.424,0.676-0.846C25.291,30.453,25.502,29.47,25.702,28.484z
		 M18.656,22.603c0.76-0.072,1.45-0.095,2.119-0.226c0.19-0.037,0.474-0.406,0.452-0.591c-0.332-2.771-0.717-5.536-1.068-8.305
		c-0.064-0.505-0.335-0.675-0.78-0.632c-0.77,0.075-1.538,0.172-2.306,0.274c-0.707,0.094-0.999,0.528-1.129,1.22
		c-0.493,2.63-1.042,5.25-1.56,7.876c-0.06,0.304-0.062,0.62-0.096,0.986c0.34-0.032,0.558-0.048,0.775-0.074
		c1.116-0.134,2.363-0.083,2.263-1.798c-0.008-0.137,0.483-0.355,0.769-0.427c0.09-0.022,0.336,0.292,0.392,0.486
		C18.586,21.732,18.592,22.097,18.656,22.603z M28.355,22.285c-0.453-0.98-0.802-1.912-1.297-2.758
		c-0.448-0.765-0.216-1.184,0.495-1.468c0.627-0.25,0.788-0.699,0.714-1.32c-0.131-1.097-0.195-2.204-0.386-3.289
		c-0.048-0.273-0.45-0.663-0.719-0.689c-1.32-0.125-2.651-0.127-3.976-0.209c-0.593-0.037-0.749,0.195-0.757,0.764
		c-0.036,2.656-0.116,5.311-0.178,7.966c-0.03,1.265-0.026,1.226,1.239,1.261c0.669,0.019,0.88-0.233,0.875-0.858
		c-0.005-0.641,0.062-1.283,0.098-1.924c0.509,0.428,0.839,0.892,1.137,1.376C26.489,22.582,26.484,22.585,28.355,22.285z
		 M8.263,21.728c0.008,0,0.016,0.001,0.024,0.001c-0.029,0.331-0.07,0.661-0.084,0.992c-0.109,2.603-0.349,2.211,2.011,1.617
		c0.244-0.061,0.59-0.488,0.567-0.713c-0.202-2.018,0.634-3.224,2.637-3.61c0.664-0.128,0.771-0.584,0.703-1.179
		c-0.169-1.481-0.35-2.963-0.442-4.45c-0.046-0.739-0.375-0.806-0.955-0.657c-1.093,0.28-2.182,0.586-3.288,0.805
		c-0.597,0.119-0.847,0.388-0.872,0.985C8.479,17.59,8.366,19.659,8.263,21.728z M11.438,31.47c0.097-0.013,0.194-0.025,0.291-0.038
		c0.186,0.482,0.452,0.95,0.542,1.45c0.209,1.164,1.043,0.765,1.738,0.787c0.743,0.023,0.843-0.474,0.894-1.026
		c0.227-2.451,0.455-4.902,0.662-7.355c0.015-0.182-0.076-0.476-0.209-0.549c-0.715-0.39-1.683,0.226-1.733,1.05
		c-0.065,1.088-0.154,2.175-0.232,3.263c-0.068,0.007-0.137,0.015-0.205,0.022c-0.298-0.983-0.601-1.963-0.89-2.949
		c-0.119-0.405-0.195-0.908-0.77-0.729c-0.548,0.171-1.388-0.123-1.433,0.963c-0.1,2.432-0.3,4.859-0.454,7.289
		c-0.017,0.265-0.002,0.533-0.002,0.807c1.615-0.134,1.749-0.263,1.8-1.702C11.451,32.327,11.438,31.899,11.438,31.47z
		 M34.418,33.318c0.578,0.079,0.833-0.004,0.725-0.603c-0.363-2.009-0.65-4.032-1.018-6.04c-0.401-2.187-0.427-2.183-2.631-2.419
		c-0.028-0.003-0.055-0.005-0.083-0.009c-0.678-0.091-1.02,0.196-1.118,0.884c-0.321,2.24-0.678,4.475-1.006,6.715
		c-0.034,0.233-0.008,0.675,0.064,0.691c0.664,0.15,1.344,0.281,2.019,0.279c0.127,0,0.227-0.627,0.387-0.941
		c0.098-0.192,0.277-0.455,0.439-0.47c0.176-0.016,0.439,0.18,0.546,0.356c0.121,0.199,0.054,0.511,0.172,0.714
		c0.155,0.267,0.372,0.553,0.636,0.688C33.828,33.308,34.193,33.284,34.418,33.318z M6.402,34.037
		c0.027,0.21,0.084,0.422,0.076,0.632c-0.025,0.651,0.249,0.789,0.814,0.529c0.199-0.092,0.415-0.163,0.63-0.201
		c0.781-0.136,0.896-0.592,0.813-1.32c-0.196-1.703-0.253-3.423-0.442-5.127c-0.279-2.521,0.213-2.43-2.247-1.548
		c-0.052,0.019-0.106,0.03-0.16,0.044c-0.823,0.208-1.217,0.763-1.371,1.578c-0.265,1.41-0.572,2.813-0.873,4.216
		c-0.263,1.227-0.541,2.451-0.853,3.859c0.453-0.136,0.724-0.237,1.004-0.299c0.924-0.203,1.653-0.535,1.622-1.699
		C5.403,34.192,5.802,33.943,6.402,34.037z M46.217,36.728c0-0.903,0.017-1.587-0.003-2.27c-0.074-2.582-0.078-2.582-2.226-3.922
		c-0.047-0.029-0.093-0.061-0.144-0.082c-0.834-0.346-0.966-1.038-0.957-1.839c0.008-0.656,0.389-0.634,0.742-0.393
		c0.226,0.154,0.306,0.527,0.44,0.808c0.122,0.257,0.162,0.668,0.354,0.756c0.532,0.242,1.124,0.35,1.89,0.566
		c-0.276-1.073-0.195-2.143-1.082-2.599c-1.166-0.599-2.449-0.979-3.703-1.389c-0.588-0.192-0.897,0.14-0.841,0.755
		c0.062,0.688,0.19,1.374,0.205,2.062c0.022,0.996,0.405,1.696,1.372,2.043c0.284,0.102,0.55,0.258,0.819,0.4
		c0.988,0.524,1.388,1.681,0.96,2.8c-0.763-0.038-1.129-0.412-1.134-1.203c-0.001-0.248-0.168-0.638-0.357-0.713
		c-0.49-0.193-1.034-0.246-1.602-0.365c0,0.672-0.079,1.208,0.024,1.708c0.089,0.43,0.287,1.048,0.606,1.185
		C43.042,35.657,44.562,36.14,46.217,36.728z M35.959,13.653c-0.014,0.247-0.044,0.338-0.019,0.408
		c1.107,3.008,1.731,6.098,1.652,9.318c-0.005,0.199,0.174,0.534,0.336,0.585c0.828,0.26,1.679,0.447,2.674,0.698
		c-0.087-0.796-0.052-1.449-0.24-2.031c-0.626-1.933-0.112-3.541,1.157-5.038c0.5-0.59,0.84-1.316,1.257-1.986
		c-1.515-0.768-1.59-0.751-2.534,0.395c-0.351,0.426-0.718,0.84-1.221,1.426c-0.246-1.051-0.411-1.828-0.617-2.595
		c-0.067-0.249-0.193-0.615-0.377-0.677C37.368,13.933,36.673,13.817,35.959,13.653z M33.385,15.164
		c0.285,0.013,0.581,0.031,0.878,0.037c0.29,0.007,0.58,0.001,0.848,0.001c0.243-1.465,0.102-1.827-0.814-1.928
		c-1.704-0.187-3.413-0.328-5.122-0.455c-0.185-0.014-0.501,0.152-0.563,0.31c-0.403,1.043-0.048,1.561,1.032,1.582
		c0.166,0.003,0.334,0.019,0.498,0.004c0.706-0.068,0.917,0.263,0.878,0.939c-0.106,1.851-0.171,3.705-0.242,5.559
		c-0.075,1.968-0.083,1.59,1.529,1.671c1.115,0.056,1.091,0.051,1.082-1.046C33.373,19.654,33.385,17.47,33.385,15.164z
		 M40.296,34.786c0.286-1.362,0.086-1.962-0.798-2.022c-1.072-0.073-1.21-0.692-1.266-1.539c-0.107-1.628-0.248-3.254-0.416-4.877
		c-0.119-1.144-0.499-1.394-1.91-1.196c0,2.675-0.006,5.383,0.014,8.091c0.001,0.179,0.164,0.478,0.307,0.517
		C37.575,34.128,38.936,34.45,40.296,34.786z M18.467,28.61c0.028,0,0.055-0.001,0.083-0.001c0-1.161,0.002-2.322-0.001-3.483
		c-0.001-0.426,0.146-0.96-0.585-0.914c-0.571,0.036-1.146-0.047-1.199,0.86c-0.136,2.316-0.354,4.627-0.571,6.937
		c-0.116,1.226-0.102,1.249,1.154,1.159c0.657-0.047,0.975-0.247,0.963-0.995C18.292,30.986,18.408,29.797,18.467,28.61z"/>
	<path fill="#E19D3D" d="M18.337,15.874c0.086,0.923,0.201,1.844,0.247,2.769c0.025,0.508-0.294,0.672-0.902,0.477
		c0.146-1.061,0.294-2.14,0.442-3.219C18.195,15.892,18.266,15.883,18.337,15.874z"/>
	<path fill="#E19D3D" d="M25.948,16.032c-0.123,0.423-0.215,0.862-0.395,1.259c-0.04,0.088-0.572,0.071-0.578,0.04
		c-0.091-0.438-0.156-0.886-0.172-1.334c-0.01-0.271,0.037-0.559,0.132-0.812c0.072-0.193,0.258-0.343,0.394-0.512
		c0.148,0.191,0.355,0.363,0.427,0.58c0.074,0.224,0.193,0.371,0.193,0.619C26.007,15.885,25.889,16.018,25.948,16.032z"/>
	<path fill="#E19D3D" d="M11.904,17.135c0,0.412,0.074,0.843-0.026,1.23c-0.065,0.252-0.383,0.438-0.588,0.653
		c-0.105-0.216-0.303-0.434-0.3-0.649c0.01-0.823,0.067-1.648,0.151-2.467c0.017-0.161,0.236-0.302,0.361-0.452
		c0.127,0.149,0.343,0.287,0.364,0.45c0.053,0.405,0.017,0.822,0.017,1.234C11.89,17.135,11.897,17.135,11.904,17.135z"/>
	<path fill="#E19D3D" d="M32.519,27.236c0.081,0.769,0.173,1.538,0.228,2.309c0.007,0.095-0.187-0.041-0.288,0.062
		c-0.124-0.145-0.359-0.048-0.354-0.188c0.024-0.724,0.11-1.446,0.175-2.169C32.36,27.245,32.44,27.241,32.519,27.236z"/>
	<path fill="#E19D3D" d="M5.878,32.563c0.163-1.051,0.301-1.947,0.466-3.014C6.915,30.691,6.731,32.237,5.878,32.563z"/>
</g>
</svg>
