<?xml version="1.0" encoding="utf-8"?>
<!-- Generator: Adobe Illustrator 26.0.0, SVG Export Plug-In . SVG Version: 6.00 Build 0)  -->
<svg version="1.0" id="Layer_1" xmlns="http://www.w3.org/2000/svg" xmlns:xlink="http://www.w3.org/1999/xlink" x="0px" y="0px"
	 viewBox="0 0 50 50" enable-background="new 0 0 50 50" xml:space="preserve">
<g>
	<g>
		<g>
			<path fill="#0D1330" d="M36.124,36.666c-5.092,0-9.601-3.326-11.124-8.144c-1.523,4.818-6.032,8.144-11.124,8.144
				C7.443,36.666,2.21,31.433,2.21,25s5.233-11.666,11.666-11.666c3.872,0,7.483,1.917,9.66,5.127l0.067,0.099l-2.984,2.657h4.295
				l0.031,0.093c0.019,0.057,0.037,0.113,0.055,0.168c1.523-4.819,6.032-8.145,11.125-8.145c6.433,0,11.666,5.233,11.666,11.666
				S42.557,36.666,36.124,36.666z"/>
		</g>
	</g>
	<path fill="none" d="M28.452,18.694c-1.324,1.599-2.156,3.62-2.266,5.831c0.006,0,0.013,0,0.019,0
		C26.309,22.316,27.134,20.295,28.452,18.694z"/>
	<polygon fill="none" points="26.183,24.595 26.183,24.6 26.183,24.937 	"/>
	<path fill="none" d="M3.979,25.055c0-2.413,0.865-4.63,2.303-6.363c-1.45,1.736-2.322,3.962-2.322,6.386
		c0,0.427,0.027,0.848,0.08,1.261c0.006-0.001,0.014-0.002,0.022-0.004C4.007,25.917,3.979,25.489,3.979,25.055z"/>
	<path fill="none" d="M14.102,20.276c-1.518,0-2.876,0.685-3.77,1.757c0.894-1.058,2.243-1.733,3.75-1.733
		c1.406,0,2.743,0.597,3.669,1.637l3.923-3.493c-0.001-0.001-0.002-0.002-0.003-0.003l-3.9,3.473
		C16.846,20.873,15.508,20.276,14.102,20.276z"/>
	<path fill="none" d="M14.102,35.087c-4.713,0-8.684-3.208-9.806-7.537c-0.009,0.002-0.017,0.003-0.024,0.004
		c1.115,4.338,5.091,7.556,9.811,7.556c3.147,0,5.962-1.43,7.821-3.669C20.045,33.667,17.238,35.087,14.102,35.087z"/>
	<path fill="none" d="M13.888,22.586h-0.02v2.506c0.006-0.001,0.013-0.001,0.02-0.002V22.586z"/>
	<path fill="none" d="M36.124,34.931c-5.229,0-9.514-4.041-9.902-9.17c-0.007,0-0.014,0-0.021,0c0.377,5.14,4.667,9.194,9.904,9.194
		c3.09,0,5.85-1.411,7.672-3.624C41.955,33.53,39.203,34.931,36.124,34.931z"/>
	<path fill="none" d="M26.194,24.937c-0.004,0-0.007,0-0.011,0c-0.003,0-0.005,0-0.008,0c0,0,0,0.001,0,0.001
		C26.181,24.938,26.187,24.938,26.194,24.937C26.194,24.937,26.194,24.937,26.194,24.937z"/>
	<path fill="none" d="M13.888,27.094v-0.763c-0.007,0-0.013,0.001-0.02,0.002v0.785h4.618c-0.168,0.348-0.378,0.673-0.623,0.969
		c0.254-0.302,0.47-0.635,0.643-0.993H13.888z"/>
	<path fill="#0D1330" d="M42.291,26.134c0.28,0.046,0.561,0.094,0.841,0.143C42.852,26.228,42.572,26.18,42.291,26.134z"/>
	<path fill="#0D1330" d="M40.881,25.918C40.881,25.918,40.881,25.918,40.881,25.918c0.114,0.018,0.229,0.034,0.344,0.051
		C41.111,25.951,40.996,25.934,40.881,25.918z"/>
	<path fill="#0D1330" d="M43.347,26.315c0.28,0.05,0.559,0.101,0.838,0.154C43.906,26.416,43.627,26.365,43.347,26.315z"/>
	<path fill="#0D1330" d="M41.439,26.001c0.281,0.043,0.561,0.086,0.841,0.132C42,26.087,41.72,26.043,41.439,26.001z"/>
	<path fill="#0D1330" d="M30.122,25.001c0.393,0.013,0.789,0.028,1.186,0.046c0,0,0,0,0-0.001
		C30.911,25.029,30.515,25.014,30.122,25.001z"/>
	<path fill="#0D1330" d="M41.162,26.375c0.069,0.01,0.138,0.021,0.208,0.031C41.3,26.396,41.231,26.386,41.162,26.375z"/>
	<path fill="#0D1330" d="M44.194,26.47c0.279,0.053,0.558,0.109,0.836,0.165C44.752,26.579,44.473,26.524,44.194,26.47z"/>
	<path fill="#0D1330" d="M28.312,25.368c-0.064-0.001-0.128-0.002-0.193-0.003C28.183,25.365,28.247,25.367,28.312,25.368z"/>
	<path fill="#0D1330" d="M30.109,25.413c-0.066-0.002-0.132-0.004-0.198-0.006C29.976,25.408,30.042,25.41,30.109,25.413z"/>
	<path fill="#0D1330" d="M30.921,25.442c-0.005,0-0.01,0-0.014,0C30.912,25.441,30.916,25.441,30.921,25.442z"/>
	<path fill="#0D1330" d="M42.216,26.539C42.216,26.54,42.216,26.54,42.216,26.539C42.216,26.54,42.216,26.54,42.216,26.539z"/>
	<path fill="#0D1330" d="M28.137,24.953c-0.533-0.008-1.061-0.013-1.582-0.015C27.076,24.939,27.604,24.944,28.137,24.953z"/>
	<path fill="#0D1330" d="M29.935,24.995c-0.544-0.017-1.083-0.03-1.617-0.039C28.852,24.965,29.391,24.978,29.935,24.995z"/>
	<path fill="#0D1330" d="M27.334,25.354c-0.005,0-0.009,0-0.014,0C27.325,25.354,27.33,25.354,27.334,25.354z"/>
	<path fill="#0D1330" d="M26.368,25.349c0.062,0,0.125,0,0.188,0.001C26.493,25.35,26.431,25.349,26.368,25.349z"/>
	<path fill="#0D1330" d="M29.109,25.384c-0.005,0-0.01,0-0.014,0C29.1,25.384,29.104,25.384,29.109,25.384z"/>
	<path fill="#0D1330" d="M44.948,27.039c0.069,0.014,0.139,0.028,0.208,0.042C45.087,27.067,45.017,27.053,44.948,27.039z"/>
	<path fill="#1B1F4F" d="M40.652,26.718c-0.696,1.815-2.453,3.104-4.513,3.104c-2.366,0-4.334-1.701-4.75-3.948
		c-1.68-0.074-3.402-0.112-5.167-0.113c0.389,5.129,4.674,9.17,9.902,9.17c3.079,0,5.831-1.401,7.652-3.601
		c0.883-1.073,1.544-2.334,1.917-3.713C44.081,27.268,42.399,26.969,40.652,26.718z"/>
	<path fill="#0D1330" d="M26.194,24.937C26.194,24.937,26.194,24.937,26.194,24.937c0.062,0.001,0.123,0,0.185,0
		C26.318,24.937,26.255,24.937,26.194,24.937z"/>
	<path fill="#0D1330" d="M45.875,26.813C45.875,26.813,45.875,26.813,45.875,26.813c-0.211-0.046-0.422-0.091-0.633-0.134
		C45.453,26.722,45.664,26.768,45.875,26.813z"/>
	<path fill="#0D1330" d="M36.105,15.093c5.485,0,9.931,4.446,9.931,9.931c0,0.469-0.033,0.93-0.096,1.382
		c-0.019,0.136-0.04,0.272-0.065,0.407c0,0,0,0,0,0.001c-0.025,0.135-0.052,0.27-0.082,0.403c0,0,0,0,0,0.001
		c-0.03,0.134-0.064,0.268-0.099,0.4c-0.372,1.38-1.034,2.641-1.917,3.713c1.423-1.719,2.279-3.924,2.279-6.33
		c0-5.485-4.446-9.931-9.931-9.931c-3.091,0-5.851,1.412-7.673,3.626C30.273,16.494,33.025,15.093,36.105,15.093z"/>
	<path fill="#0D1330" d="M31.321,24.634c0.182-2.503,2.269-4.477,4.818-4.477c2.669,0,4.832,2.164,4.832,4.832
		c0,0.177-0.01,0.351-0.029,0.522c1.73,0.251,3.397,0.549,4.997,0.895c0.063-0.452,0.096-0.913,0.096-1.382
		c0-5.485-4.446-9.931-9.931-9.931c-3.08,0-5.832,1.402-7.653,3.602c-1.317,1.601-2.143,3.621-2.247,5.831
		C27.951,24.525,29.656,24.563,31.321,24.634z"/>
	<path fill="#0D1330" d="M31.308,25.046C31.308,25.046,31.308,25.046,31.308,25.046c0.002,0.14,0.009,0.277,0.022,0.413
		c0,0,0,0,0,0.001c0.014,0.14,0.034,0.278,0.059,0.414c0.416,2.246,2.383,3.948,4.75,3.948c2.06,0,3.817-1.289,4.513-3.104
		c0.05-0.13,0.094-0.262,0.132-0.397c0,0,0-0.001,0-0.001c0.038-0.132,0.07-0.265,0.097-0.401c0,0,0-0.001,0-0.001
		c0.026-0.134,0.047-0.269,0.061-0.406c0.018-0.172,0.029-0.346,0.029-0.522c0-2.669-2.163-4.832-4.832-4.832
		c-2.549,0-4.636,1.975-4.818,4.477c-0.009,0.117-0.014,0.235-0.014,0.355C31.307,25.008,31.308,25.027,31.308,25.046z"/>
	<path fill="#0D1330" d="M43.06,26.683c0.069,0.012,0.138,0.024,0.207,0.036C43.199,26.707,43.13,26.695,43.06,26.683z"/>
	<path fill="#0D1330" d="M20.716,25.052c-0.227,0.009-0.451,0.019-0.673,0.03C20.265,25.071,20.489,25.061,20.716,25.052z"/>
	<path fill="#0D1330" d="M19.218,25.122c-0.215,0.011-0.428,0.023-0.638,0.035C18.79,25.146,19.002,25.134,19.218,25.122z"/>
	<path fill="#0D1330" d="M19.878,25.089c-0.221,0.011-0.44,0.021-0.656,0.033C19.438,25.111,19.657,25.1,19.878,25.089z"/>
	<path fill="#1B1F4F" d="M14.083,29.857c-2.07,0-3.841-1.274-4.545-3.065c-2.946,0.359-4.86,0.69-5.242,0.757
		c1.122,4.328,5.093,7.537,9.806,7.537c3.136,0,5.943-1.42,7.801-3.645c1.298-1.564,2.128-3.523,2.278-5.664
		c-2.086,0.033-4.207,0.116-6.33,0.249c-1.399,0.088-2.726,0.192-3.964,0.305v0.763h4.618c-0.173,0.357-0.389,0.691-0.643,0.993
		C16.969,29.166,15.607,29.857,14.083,29.857z"/>
	<path fill="#0D1330" d="M21.409,25.025c-0.232,0.008-0.462,0.017-0.69,0.027C20.947,25.042,21.177,25.034,21.409,25.025z"/>
	<path fill="#0D1330" d="M9.24,25.583c0.015,0.138,0.036,0.274,0.063,0.408c0.027,0.136,0.06,0.271,0.099,0.403
		c0.04,0.135,0.085,0.268,0.136,0.398c0.704,1.79,2.475,3.065,4.545,3.065c1.524,0,2.886-0.691,3.78-1.77
		c-0.894,1.065-2.247,1.746-3.76,1.746c-2.685,0-4.87-2.144-4.87-4.779c0-1.146,0.413-2.198,1.101-3.022
		c-0.699,0.828-1.12,1.889-1.12,3.046C9.213,25.249,9.222,25.417,9.24,25.583z"/>
	<path fill="#0D1330" d="M14.083,15.047c2.902,0,5.667,1.237,7.589,3.393l0.023-0.02c-1.922-2.159-4.69-3.397-7.593-3.397
		c-3.147,0-5.963,1.43-7.821,3.669C8.14,16.467,10.947,15.047,14.083,15.047z"/>
	<path fill="#0D1330" d="M23.946,22.589l0,0.224c0.132,0.566,0.214,1.145,0.245,1.728c0.007,0.137,0.011,0.274,0.013,0.412
		c0,0,0,0,0,0c0.001,0.042,0.002,0.084,0.002,0.126c0,0.096-0.002,0.191-0.004,0.286c0,0,0,0,0,0
		c-0.004,0.138-0.011,0.275-0.021,0.412c-0.149,2.142-0.98,4.1-2.278,5.664c1.45-1.736,2.322-3.962,2.322-6.386
		c0-0.764-0.087-1.526-0.26-2.266l0-0.224l-0.152-0.003h-9.926v0.024h9.906L23.946,22.589z"/>
	<path fill="#0D1330" d="M18.421,25.167c-0.209,0.012-0.417,0.025-0.621,0.037C18.004,25.191,18.211,25.179,18.421,25.167z"/>
	<path fill="#0D1330" d="M17.774,24.793c2.151-0.135,4.301-0.219,6.417-0.252c-0.031-0.583-0.113-1.162-0.245-1.728l0-0.224
		l-0.152-0.003h-9.906v2.504C15.104,24.981,16.405,24.879,17.774,24.793z"/>
	<path fill="#0D1330" d="M19.243,25.534c-0.001,0-0.002,0-0.002,0C19.241,25.534,19.242,25.534,19.243,25.534z"/>
	<path fill="#0D1330" d="M18.6,25.569c-0.051,0.003-0.102,0.006-0.153,0.009C18.498,25.575,18.549,25.572,18.6,25.569z"/>
	<path fill="#0D1330" d="M20.059,25.494c-0.054,0.002-0.107,0.005-0.16,0.008C19.952,25.499,20.006,25.496,20.059,25.494z"/>
	<path fill="#0D1330" d="M23.189,25.384c-0.058,0.001-0.117,0.003-0.175,0.004C23.072,25.387,23.13,25.386,23.189,25.384z"/>
	<path fill="#0D1330" d="M4.061,26.336c0.351-0.063,2.24-0.392,5.179-0.753c-0.018-0.166-0.027-0.334-0.027-0.505
		c0-1.156,0.421-2.218,1.12-3.046c0.894-1.071,2.252-1.757,3.77-1.757c1.406,0,2.743,0.597,3.669,1.637l3.9-3.473
		c-1.922-2.156-4.688-3.393-7.589-3.393c-3.136,0-5.943,1.42-7.801,3.645c-1.438,1.733-2.303,3.949-2.303,6.363
		C3.979,25.489,4.007,25.917,4.061,26.336z"/>
	<path fill="#0D1330" d="M21.591,25.431c-0.056,0.002-0.112,0.004-0.168,0.006C21.479,25.435,21.535,25.433,21.591,25.431z"/>
	<path fill="#0D1330" d="M24.204,24.953C24.204,24.953,24.204,24.953,24.204,24.953c-0.346,0.005-0.688,0.012-1.027,0.019
		C23.516,24.964,23.859,24.958,24.204,24.953z"/>
	<path fill="#0D1330" d="M23.009,24.976c-0.485,0.012-0.962,0.026-1.431,0.043C22.047,25.003,22.524,24.988,23.009,24.976z"/>
	<path fill="#0D1330" d="M23.921,25.369c-0.002,0-0.005,0-0.007,0C23.916,25.369,23.919,25.369,23.921,25.369z"/>
	<path fill="#FFFFFF" d="M26.2,25.349c-0.004-0.116-0.007-0.232-0.007-0.349c0-0.021,0.001-0.042,0.001-0.062
		c-0.006,0-0.013,0-0.019,0c0,0.029-0.001,0.057-0.001,0.086c0,0.109,0.002,0.217,0.006,0.325c0.001,0,0.003,0,0.004,0
		C26.189,25.349,26.195,25.349,26.2,25.349z"/>
	<path fill="#FFFFFF" d="M45.03,26.635c-0.278-0.056-0.557-0.112-0.836-0.165c-0.003,0-0.006-0.001-0.009-0.002
		c-0.279-0.053-0.558-0.104-0.838-0.154c-0.072-0.013-0.143-0.025-0.215-0.038c-0.28-0.049-0.56-0.097-0.841-0.143
		c-0.004-0.001-0.007-0.001-0.011-0.002c-0.28-0.046-0.56-0.089-0.841-0.132c-0.071-0.011-0.143-0.022-0.214-0.032
		c-0.115-0.017-0.23-0.033-0.344-0.05c-0.026,0.136-0.059,0.27-0.097,0.401c0.126,0.018,0.252,0.037,0.378,0.055
		c0.069,0.01,0.138,0.021,0.208,0.031c0.282,0.043,0.564,0.087,0.846,0.133c0,0,0.001,0,0.001,0
		c0.282,0.046,0.563,0.094,0.844,0.143c0.069,0.012,0.138,0.024,0.207,0.036c0.562,0.1,1.122,0.207,1.68,0.32
		c0.069,0.014,0.139,0.028,0.208,0.042c0.212,0.044,0.425,0.089,0.636,0.135c0.03-0.133,0.058-0.268,0.082-0.403
		c-0.211-0.046-0.422-0.091-0.633-0.134C45.171,26.664,45.101,26.65,45.03,26.635z"/>
	<path fill="#FFFFFF" d="M26.556,25.35c0.254,0.001,0.508,0.002,0.765,0.004c0.005,0,0.009,0,0.014,0
		c0.26,0.002,0.522,0.006,0.785,0.01c0.064,0.001,0.128,0.002,0.193,0.003c0.26,0.005,0.521,0.01,0.783,0.016
		c0.005,0,0.009,0,0.014,0c0.266,0.006,0.533,0.014,0.801,0.022c0.066,0.002,0.132,0.004,0.198,0.006
		c0.265,0.009,0.531,0.018,0.798,0.029c0.005,0,0.01,0,0.014,0c0.136,0.006,0.272,0.011,0.409,0.017
		c-0.013-0.136-0.02-0.274-0.022-0.413c-0.397-0.017-0.793-0.033-1.186-0.046c-0.063-0.002-0.125-0.004-0.188-0.006
		c-0.544-0.017-1.083-0.03-1.617-0.039c-0.06-0.001-0.121-0.002-0.181-0.003c-0.533-0.008-1.061-0.013-1.582-0.015
		c-0.059,0-0.117,0-0.175,0c-0.062,0-0.123,0-0.185,0c0,0.021-0.001,0.042-0.001,0.062c0,0.117,0.003,0.233,0.007,0.349
		c0.056,0,0.112,0,0.169,0C26.431,25.349,26.493,25.35,26.556,25.35z"/>
	<path fill="#29377D" d="M26.194,24.937c0.001-0.138,0.004-0.275,0.011-0.412c-0.006,0-0.012,0-0.019,0
		c-0.001,0.023-0.002,0.046-0.003,0.07v0.342l0-0.337c-0.005,0.112-0.008,0.224-0.009,0.337c0.003,0,0.005,0,0.008,0
		C26.187,24.937,26.19,24.937,26.194,24.937z"/>
	<path fill="#29377D" d="M26.2,25.35c-0.007,0-0.014,0-0.02,0c0.005,0.138,0.011,0.275,0.021,0.411c0.007,0,0.014,0,0.021,0
		C26.212,25.625,26.205,25.488,26.2,25.35z"/>
	<path fill="#29377D" d="M41.225,25.968c0.071,0.011,0.143,0.021,0.214,0.032c0.281,0.043,0.561,0.086,0.841,0.132
		c0.004,0.001,0.007,0.001,0.011,0.002c0.28,0.046,0.561,0.094,0.841,0.143c0.072,0.013,0.143,0.025,0.215,0.038
		c0.28,0.05,0.559,0.101,0.838,0.154c0.003,0.001,0.006,0.001,0.009,0.002c0.279,0.053,0.558,0.109,0.836,0.165
		c0.071,0.014,0.141,0.029,0.212,0.043c0.211,0.044,0.422,0.088,0.633,0.134c0.024-0.135,0.046-0.27,0.065-0.407
		c-1.599-0.346-3.267-0.644-4.997-0.895c-0.015,0.137-0.035,0.273-0.061,0.406C40.996,25.934,41.111,25.951,41.225,25.968z"/>
	<path fill="#29377D" d="M26.555,24.938c0.521,0.001,1.049,0.006,1.582,0.015c0.06,0.001,0.12,0.002,0.181,0.003
		c0.534,0.009,1.073,0.022,1.617,0.039c0.063,0.002,0.125,0.004,0.188,0.006c0.393,0.013,0.788,0.028,1.186,0.045
		c0-0.019-0.001-0.038-0.001-0.057c0-0.119,0.006-0.238,0.014-0.355c-1.665-0.072-3.37-0.109-5.116-0.109
		c-0.006,0.137-0.01,0.274-0.011,0.412c0.062,0,0.124,0,0.185,0C26.438,24.937,26.496,24.938,26.555,24.938z"/>
	<path fill="#29377D" d="M44.948,27.039c-0.558-0.113-1.118-0.22-1.68-0.32c-0.069-0.012-0.138-0.024-0.207-0.036
		c-0.281-0.049-0.562-0.097-0.844-0.143c0,0-0.001,0-0.001,0c-0.282-0.046-0.564-0.09-0.846-0.133
		c-0.069-0.011-0.138-0.021-0.208-0.031c-0.126-0.019-0.252-0.036-0.378-0.055c-0.039,0.135-0.083,0.267-0.132,0.397
		c1.748,0.251,3.43,0.55,5.041,0.899c0.036-0.132,0.069-0.266,0.099-0.4c-0.212-0.046-0.424-0.091-0.636-0.135
		C45.087,27.067,45.017,27.053,44.948,27.039z"/>
	<path fill="#29377D" d="M31.33,25.46c-0.136-0.006-0.273-0.013-0.409-0.018c-0.005,0-0.01,0-0.014,0
		c-0.267-0.011-0.533-0.02-0.798-0.029c-0.066-0.002-0.132-0.004-0.198-0.006c-0.268-0.008-0.535-0.016-0.801-0.022
		c-0.005,0-0.01,0-0.014,0c-0.262-0.006-0.523-0.011-0.783-0.016c-0.064-0.001-0.128-0.002-0.193-0.003
		c-0.263-0.004-0.525-0.008-0.785-0.01c-0.005,0-0.009,0-0.014,0c-0.256-0.002-0.511-0.004-0.765-0.004
		c-0.063,0-0.125,0-0.188-0.001c-0.057,0-0.112,0-0.169,0c0.005,0.138,0.012,0.275,0.022,0.412c1.765,0.001,3.487,0.039,5.167,0.113
		C31.364,25.738,31.343,25.6,31.33,25.46z"/>
	<path fill="#29377D" d="M26.2,25.349c-0.005,0-0.011,0-0.016,0c-0.002,0-0.003,0-0.004,0c0,0,0,0,0,0.001
		C26.186,25.35,26.193,25.35,26.2,25.349C26.2,25.349,26.2,25.349,26.2,25.349z"/>
	<path fill="#29377D" d="M28.119,25.364c-0.263-0.004-0.525-0.008-0.785-0.01C27.594,25.357,27.856,25.36,28.119,25.364z"/>
	<path fill="#29377D" d="M30.921,25.442c0.136,0.006,0.272,0.012,0.409,0.018c0,0,0,0,0-0.001
		C31.193,25.453,31.057,25.447,30.921,25.442z"/>
	<path fill="#29377D" d="M44.185,26.469c0.003,0.001,0.006,0.001,0.009,0.002C44.191,26.47,44.188,26.469,44.185,26.469z"/>
	<path fill="#29377D" d="M27.321,25.354c-0.256-0.002-0.511-0.004-0.765-0.004C26.81,25.351,27.064,25.352,27.321,25.354z"/>
	<path fill="#29377D" d="M42.217,26.54c0.282,0.046,0.563,0.094,0.844,0.143C42.779,26.634,42.498,26.586,42.217,26.54z"/>
	<path fill="#29377D" d="M43.132,26.277c0.072,0.013,0.143,0.025,0.215,0.038C43.275,26.302,43.204,26.29,43.132,26.277z"/>
	<path fill="#29377D" d="M45.792,27.217C45.792,27.217,45.792,27.216,45.792,27.217c-0.212-0.046-0.424-0.091-0.636-0.135
		C45.368,27.126,45.581,27.171,45.792,27.217z"/>
	<path fill="#29377D" d="M41.225,25.968c0.071,0.011,0.143,0.021,0.214,0.032C41.368,25.99,41.297,25.979,41.225,25.968z"/>
	<path fill="#29377D" d="M42.28,26.133c0.004,0.001,0.007,0.001,0.011,0.002C42.288,26.134,42.284,26.133,42.28,26.133z"/>
	<path fill="#29377D" d="M28.318,24.956c-0.06-0.001-0.121-0.002-0.181-0.003C28.197,24.954,28.257,24.955,28.318,24.956z"/>
	<path fill="#29377D" d="M30.122,25.001c-0.063-0.002-0.125-0.004-0.188-0.006C29.997,24.997,30.06,24.999,30.122,25.001z"/>
	<path fill="#29377D" d="M26.379,24.937c0.058,0,0.117,0,0.175,0C26.496,24.938,26.438,24.937,26.379,24.937z"/>
	<path fill="#29377D" d="M30.907,25.441c-0.267-0.011-0.533-0.02-0.798-0.029C30.374,25.421,30.64,25.43,30.907,25.441z"/>
	<path fill="#29377D" d="M29.91,25.406c-0.268-0.008-0.535-0.016-0.801-0.022C29.375,25.39,29.642,25.398,29.91,25.406z"/>
	<path fill="#29377D" d="M41.369,26.407c0.282,0.043,0.564,0.087,0.846,0.133C41.934,26.493,41.652,26.45,41.369,26.407z"/>
	<path fill="#29377D" d="M26.2,25.349C26.2,25.349,26.2,25.349,26.2,25.349c0.056,0.001,0.112,0,0.169,0
		C26.312,25.349,26.256,25.349,26.2,25.349z"/>
	<path fill="#29377D" d="M43.268,26.719c0.562,0.1,1.122,0.207,1.68,0.32C44.39,26.926,43.829,26.819,43.268,26.719z"/>
	<path fill="#29377D" d="M40.784,26.32C40.784,26.32,40.784,26.321,40.784,26.32c0.126,0.019,0.252,0.037,0.378,0.055
		C41.036,26.357,40.91,26.338,40.784,26.32z"/>
	<path fill="#29377D" d="M45.03,26.635c0.071,0.014,0.141,0.029,0.212,0.043C45.171,26.664,45.101,26.65,45.03,26.635z"/>
	<path fill="#29377D" d="M29.095,25.383c-0.262-0.006-0.523-0.011-0.783-0.016C28.572,25.372,28.833,25.377,29.095,25.383z"/>
	<path fill="#FFFFFF" d="M13.888,25.504c-0.007,0.001-0.013,0.001-0.02,0.002v0.414c0.007-0.001,0.013-0.001,0.02-0.002V25.504z"/>
	<path fill="#FFFFFF" d="M4.123,26.744c-0.009,0.001-0.017,0.003-0.023,0.004c0.023,0.136,0.049,0.271,0.077,0.405
		c0.007-0.001,0.015-0.003,0.024-0.004C4.173,27.014,4.147,26.879,4.123,26.744z"/>
	<path fill="#FFFFFF" d="M9.303,25.991c-2.962,0.364-4.862,0.696-5.179,0.752c0.023,0.136,0.049,0.27,0.078,0.404
		c0.327-0.058,2.234-0.391,5.2-0.754C9.363,26.262,9.33,26.128,9.303,25.991z"/>
	<path fill="#FFFFFF" d="M18.447,25.578c0.051-0.003,0.102-0.006,0.153-0.009c0.211-0.012,0.424-0.024,0.64-0.035
		c0.001,0,0.002,0,0.002,0c0.216-0.011,0.435-0.022,0.656-0.033c0.053-0.003,0.107-0.005,0.16-0.008
		c0.445-0.021,0.9-0.04,1.364-0.056c0.056-0.002,0.112-0.004,0.168-0.006c0.233-0.008,0.466-0.016,0.703-0.023
		c0.001,0,0.001,0,0.002,0c0.237-0.007,0.476-0.014,0.717-0.019c0.058-0.002,0.117-0.003,0.175-0.004
		c0.24-0.006,0.482-0.011,0.725-0.015c0.002,0,0.005,0,0.007,0c0.093-0.002,0.187-0.003,0.28-0.004
		c0.003-0.095,0.004-0.19,0.004-0.286c0-0.042-0.001-0.084-0.002-0.126c-0.346,0.005-0.688,0.012-1.027,0.019
		c-0.056,0.001-0.112,0.003-0.169,0.004c-0.485,0.012-0.962,0.026-1.431,0.043c-0.056,0.002-0.113,0.004-0.169,0.006
		c-0.232,0.008-0.462,0.017-0.69,0.027c-0.001,0-0.002,0-0.003,0c-0.227,0.009-0.451,0.019-0.673,0.03
		c-0.055,0.003-0.11,0.005-0.165,0.008c-0.221,0.011-0.44,0.021-0.656,0.033c-0.001,0-0.003,0-0.004,0
		c-0.215,0.011-0.428,0.023-0.638,0.035c-0.053,0.003-0.106,0.006-0.159,0.009c-0.209,0.012-0.417,0.025-0.621,0.037
		c-1.378,0.087-2.688,0.189-3.912,0.3v0.413c1.231-0.111,2.55-0.215,3.938-0.302C18.03,25.603,18.237,25.59,18.447,25.578z"/>
	<path fill="#29377D" d="M13.888,25.917c-0.007,0.001-0.013,0.001-0.02,0.002v0.414c0.007-0.001,0.013-0.001,0.02-0.002V25.917z"/>
	<path fill="#29377D" d="M4.061,26.336c-0.008,0.002-0.015,0.003-0.022,0.004c0.017,0.137,0.038,0.273,0.061,0.408
		c0.006-0.001,0.014-0.003,0.023-0.004C4.1,26.609,4.079,26.473,4.061,26.336z"/>
	<path fill="#29377D" d="M13.888,25.09c-0.007,0.001-0.013,0.001-0.02,0.002v0.414c0.007,0,0.013-0.001,0.02-0.002V25.09z"/>
	<path fill="#29377D" d="M4.202,27.148c-0.009,0.002-0.017,0.003-0.024,0.004c0.029,0.135,0.06,0.269,0.094,0.402
		c0.007-0.001,0.016-0.003,0.024-0.004C4.262,27.417,4.231,27.283,4.202,27.148z"/>
	<path fill="#29377D" d="M23.921,25.369c-0.002,0-0.005,0-0.007,0c-0.244,0.004-0.485,0.01-0.725,0.015
		c-0.058,0.001-0.117,0.003-0.175,0.004c-0.241,0.006-0.481,0.012-0.717,0.019c-0.001,0-0.001,0-0.002,0
		c-0.237,0.007-0.471,0.015-0.703,0.023c-0.056,0.002-0.112,0.004-0.168,0.006c-0.464,0.017-0.919,0.036-1.364,0.056
		c-0.054,0.002-0.107,0.005-0.16,0.008c-0.221,0.011-0.44,0.021-0.656,0.033c-0.001,0-0.002,0-0.002,0
		c-0.216,0.011-0.429,0.023-0.64,0.035c-0.051,0.003-0.102,0.006-0.153,0.009c-0.209,0.012-0.417,0.025-0.621,0.037
		c-1.388,0.087-2.707,0.191-3.938,0.302v0.414c1.238-0.112,2.565-0.217,3.964-0.305c2.122-0.133,4.243-0.217,6.33-0.249
		c0.01-0.137,0.017-0.274,0.021-0.412C24.108,25.367,24.014,25.367,23.921,25.369z"/>
	<path fill="#29377D" d="M9.402,26.394c-2.967,0.363-4.873,0.695-5.2,0.754c0.029,0.135,0.06,0.269,0.095,0.402
		c0.382-0.068,2.296-0.398,5.242-0.757C9.487,26.662,9.442,26.53,9.402,26.394z"/>
	<path fill="#29377D" d="M18.421,25.167c0.053-0.003,0.106-0.006,0.159-0.009c0.21-0.012,0.423-0.024,0.638-0.035
		c0.001,0,0.003,0,0.004,0c0.216-0.011,0.435-0.022,0.656-0.033c0.055-0.003,0.11-0.005,0.165-0.008
		c0.222-0.01,0.446-0.02,0.673-0.03c0.001,0,0.002,0,0.003,0c0.227-0.009,0.458-0.018,0.69-0.027
		c0.056-0.002,0.113-0.004,0.169-0.006c0.468-0.017,0.946-0.031,1.431-0.043c0.056-0.001,0.112-0.003,0.169-0.004
		c0.338-0.008,0.681-0.014,1.027-0.02c-0.002-0.137-0.006-0.275-0.013-0.412c-2.116,0.033-4.266,0.117-6.417,0.252
		c-1.369,0.086-2.67,0.188-3.886,0.297v0.414c1.224-0.11,2.534-0.213,3.912-0.3C18.004,25.191,18.211,25.179,18.421,25.167z"/>
	<path fill="#29377D" d="M9.24,25.583c-2.939,0.361-4.827,0.69-5.179,0.753c0.018,0.137,0.039,0.273,0.062,0.408
		c0.317-0.057,2.217-0.388,5.179-0.752C9.276,25.857,9.255,25.721,9.24,25.583z"/>
	<path fill="#29377D" d="M23.914,25.369c-0.244,0.004-0.485,0.01-0.725,0.015C23.429,25.379,23.67,25.374,23.914,25.369z"/>
	<path fill="#29377D" d="M24.202,25.365C24.202,25.365,24.202,25.365,24.202,25.365c-0.093,0.001-0.187,0.002-0.28,0.004
		C24.014,25.367,24.108,25.367,24.202,25.365z"/>
	<path fill="#29377D" d="M23.014,25.389c-0.241,0.006-0.481,0.012-0.717,0.019C22.533,25.401,22.773,25.394,23.014,25.389z"/>
	<path fill="#29377D" d="M22.294,25.408c-0.237,0.007-0.471,0.015-0.703,0.023C21.823,25.423,22.057,25.415,22.294,25.408z"/>
	<path fill="#29377D" d="M18.447,25.578c-0.209,0.012-0.417,0.025-0.621,0.037C18.03,25.603,18.237,25.59,18.447,25.578z"/>
	<path fill="#29377D" d="M20.043,25.082c-0.055,0.003-0.11,0.005-0.165,0.008C19.933,25.087,19.988,25.084,20.043,25.082z"/>
	<path fill="#29377D" d="M20.72,25.052c-0.001,0-0.002,0-0.003,0C20.717,25.052,20.718,25.052,20.72,25.052z"/>
	<path fill="#29377D" d="M19.222,25.122c-0.001,0-0.003,0-0.004,0C19.219,25.122,19.221,25.122,19.222,25.122z"/>
	<path fill="#29377D" d="M21.423,25.437c-0.464,0.017-0.919,0.036-1.364,0.056C20.504,25.473,20.959,25.454,21.423,25.437z"/>
	<path fill="#29377D" d="M18.58,25.158c-0.053,0.003-0.106,0.006-0.159,0.009C18.473,25.164,18.526,25.161,18.58,25.158z"/>
	<path fill="#29377D" d="M21.578,25.019c-0.056,0.002-0.113,0.004-0.169,0.006C21.465,25.023,21.522,25.021,21.578,25.019z"/>
	<path fill="#29377D" d="M19.899,25.501c-0.221,0.011-0.44,0.021-0.656,0.033C19.458,25.522,19.678,25.512,19.899,25.501z"/>
	<path fill="#29377D" d="M19.24,25.534c-0.216,0.011-0.429,0.023-0.64,0.035C18.811,25.557,19.024,25.545,19.24,25.534z"/>
	<path fill="#29377D" d="M23.178,24.972c-0.056,0.001-0.112,0.003-0.169,0.004C23.065,24.975,23.121,24.974,23.178,24.972z"/>
	<path fill="#FFFFFF" d="M40.991,24.965c0,2.669-2.164,4.832-4.833,4.832c-2.669,0-4.832-2.163-4.832-4.832
		c0-2.669,2.163-4.832,4.832-4.832C38.827,20.133,40.991,22.297,40.991,24.965z"/>
	<g>
		<path fill="#D53931" d="M36.133,28.715c-2.044,0-3.707-1.663-3.707-3.707c0-2.044,1.663-3.707,3.707-3.707
			c2.044,0,3.707,1.663,3.707,3.707C39.839,27.052,38.177,28.715,36.133,28.715z"/>
		<path fill="#0D1330" d="M36.133,21.472c1.953,0,3.536,1.583,3.536,3.536c0,1.953-1.583,3.536-3.536,3.536
			c-1.953,0-3.536-1.583-3.536-3.536C32.597,23.055,34.18,21.472,36.133,21.472 M36.133,21.131c-2.138,0-3.877,1.739-3.877,3.877
			c0,2.138,1.739,3.877,3.877,3.877c2.138,0,3.877-1.739,3.877-3.877C40.01,22.871,38.271,21.131,36.133,21.131L36.133,21.131z"/>
	</g>
	<path fill="#FFFFFF" d="M39.669,25.008c0,1.953-1.583,3.536-3.536,3.536c-1.953,0-3.536-1.583-3.536-3.536"/>
	<g>
		<rect x="32.597" y="24.009" fill="#0D1330" width="7.072" height="1.999"/>
	</g>
	<g>
		<path fill="#FFFFFF" d="M36.124,26.346c-0.733,0-1.329-0.596-1.329-1.329c0-0.733,0.596-1.329,1.329-1.329
			s1.329,0.596,1.329,1.329C37.453,25.75,36.857,26.346,36.124,26.346z"/>
		<path fill="#0D1330" d="M36.124,23.858c0.64,0,1.159,0.519,1.159,1.159c0,0.64-0.519,1.159-1.159,1.159
			c-0.64,0-1.159-0.519-1.159-1.159C34.965,24.377,35.484,23.858,36.124,23.858 M36.124,23.518c-0.827,0-1.499,0.673-1.499,1.499
			c0,0.827,0.673,1.499,1.499,1.499c0.827,0,1.499-0.673,1.499-1.499C37.624,24.19,36.951,23.518,36.124,23.518L36.124,23.518z"/>
	</g>
	<path fill="#FFFFFF" d="M8.357,17.901c0-0.109-0.088-0.197-0.197-0.197c-0.109,0-0.197,0.088-0.197,0.197
		c0,0.109,0.088,0.197,0.197,0.197C8.268,18.099,8.357,18.01,8.357,17.901z"/>
	<path fill="#FFFFFF" d="M11.078,19.979c0-0.137-0.069-0.249-0.154-0.249c-0.085,0-0.154,0.111-0.154,0.249
		c0,0.138,0.069,0.249,0.154,0.249C11.009,20.228,11.078,20.116,11.078,19.979z"/>
	<path fill="#FFFFFF" d="M8.314,19.438c0-0.095-0.069-0.172-0.154-0.172c-0.085,0-0.155,0.077-0.155,0.172
		c0,0.095,0.069,0.172,0.155,0.172C8.245,19.61,8.314,19.533,8.314,19.438z"/>
	<path fill="#FFFFFF" d="M7.241,21.103c0-0.09-0.046-0.163-0.103-0.163c-0.057,0-0.103,0.073-0.103,0.163
		c0,0.09,0.046,0.163,0.103,0.163C7.195,21.266,7.241,21.193,7.241,21.103z"/>
	<path fill="#FFFFFF" d="M9.644,21.635c0-0.081-0.073-0.146-0.163-0.146c-0.09,0-0.163,0.065-0.163,0.146
		c0,0.081,0.073,0.146,0.163,0.146C9.571,21.781,9.644,21.716,9.644,21.635z"/>
	<path fill="#FFFFFF" d="M8.949,22.339c0-0.095-0.077-0.172-0.172-0.172c-0.095,0-0.172,0.077-0.172,0.172
		c0,0.095,0.077,0.172,0.172,0.172C8.872,22.511,8.949,22.434,8.949,22.339z"/>
	<path fill="#FFFFFF" d="M12.374,19.249c0-0.109-0.085-0.197-0.189-0.197c-0.104,0-0.189,0.088-0.189,0.197
		c0,0.109,0.085,0.197,0.189,0.197C12.289,19.446,12.374,19.358,12.374,19.249z"/>
	<path fill="#FFFFFF" d="M10.451,16.974c0-0.081-0.065-0.146-0.146-0.146c-0.081,0-0.146,0.065-0.146,0.146
		c0,0.081,0.065,0.146,0.146,0.146C10.386,17.12,10.451,17.055,10.451,16.974z"/>
	<path fill="#FFFFFF" d="M11.232,16.253c0,0.085-0.069,0.155-0.155,0.155c-0.085,0-0.155-0.069-0.155-0.155
		c0-0.085,0.069-0.155,0.155-0.155C11.163,16.099,11.232,16.168,11.232,16.253z"/>
	<path fill="#FFFFFF" d="M12.734,17.901c0,0.09-0.069,0.163-0.154,0.163c-0.085,0-0.155-0.073-0.155-0.163
		c0-0.09,0.069-0.163,0.155-0.163C12.665,17.738,12.734,17.811,12.734,17.901z"/>
	<path fill="#FFFFFF" d="M13.455,18.236c0,0.119-0.069,0.215-0.154,0.215c-0.085,0-0.155-0.096-0.155-0.215
		c0-0.119,0.069-0.215,0.155-0.215C13.386,18.021,13.455,18.117,13.455,18.236z"/>
	<path fill="#FFFFFF" d="M14.288,17.901c0-0.09-0.069-0.163-0.155-0.163c-0.085,0-0.155,0.073-0.155,0.163
		c0,0.09,0.069,0.163,0.155,0.163C14.219,18.064,14.288,17.991,14.288,17.901z"/>
	<path fill="#FFFFFF" d="M14.897,17.481c0-0.09-0.069-0.163-0.155-0.163c-0.085,0-0.154,0.073-0.154,0.163
		c0,0.09,0.069,0.163,0.154,0.163C14.828,17.644,14.897,17.571,14.897,17.481z"/>
	<path fill="#FFFFFF" d="M14.897,16.339c0,0.085-0.069,0.154-0.155,0.154c-0.085,0-0.154-0.069-0.154-0.154
		c0-0.085,0.069-0.155,0.154-0.155C14.828,16.185,14.897,16.254,14.897,16.339z"/>
	<path fill="#FFFFFF" d="M16.425,17.901c0-0.09-0.069-0.163-0.154-0.163c-0.085,0-0.155,0.073-0.155,0.163
		c0,0.09,0.069,0.163,0.155,0.163C16.356,18.064,16.425,17.991,16.425,17.901z"/>
	<path fill="#FFFFFF" d="M16.271,18.116c0,0.095-0.069,0.172-0.155,0.172c-0.085,0-0.154-0.077-0.154-0.172
		c0-0.095,0.069-0.172,0.154-0.172C16.202,17.944,16.271,18.021,16.271,18.116z"/>
	<path fill="#FFFFFF" d="M18.133,17.695c0,0.081-0.054,0.146-0.12,0.146c-0.066,0-0.12-0.065-0.12-0.146
		c0-0.081,0.054-0.146,0.12-0.146C18.08,17.549,18.133,17.615,18.133,17.695z"/>
	<path fill="#FFFFFF" d="M17.764,18.545c0-0.085-0.061-0.155-0.137-0.155c-0.076,0-0.137,0.069-0.137,0.155
		c0,0.085,0.061,0.154,0.137,0.154C17.703,18.7,17.764,18.63,17.764,18.545z"/>
	<path fill="#FFFFFF" d="M17.953,20.699c0-0.081-0.058-0.146-0.129-0.146c-0.071,0-0.129,0.065-0.129,0.146
		c0,0.081,0.058,0.146,0.129,0.146C17.895,20.845,17.953,20.78,17.953,20.699z"/>
	<path fill="#FFFFFF" d="M19.67,17.695c0,0.081-0.05,0.146-0.112,0.146c-0.062,0-0.112-0.065-0.112-0.146
		c0-0.081,0.05-0.146,0.112-0.146C19.62,17.549,19.67,17.615,19.67,17.695z"/>
	<path fill="#FFFFFF" d="M5.235,22.569c0-0.096-0.124-0.174-0.277-0.174c-0.153,0-0.277,0.078-0.277,0.174
		c0,0.096,0.124,0.174,0.277,0.174C5.111,22.742,5.235,22.665,5.235,22.569z"/>
	<path fill="#FFFFFF" d="M4.81,22.44c0-0.085-0.058-0.154-0.129-0.154c-0.071,0-0.129,0.069-0.129,0.154
		c0,0.085,0.058,0.155,0.129,0.155C4.752,22.594,4.81,22.525,4.81,22.44z"/>
	<path fill="#FFFFFF" d="M4.745,23.933c0-0.064-0.061-0.116-0.135-0.116s-0.135,0.052-0.135,0.116c0,0.064,0.061,0.116,0.135,0.116
		S4.745,23.997,4.745,23.933z"/>
	<path fill="#FFFFFF" d="M6.277,24.487c0-0.071-0.052-0.129-0.116-0.129c-0.064,0-0.116,0.058-0.116,0.129
		c0,0.071,0.052,0.129,0.116,0.129C6.225,24.616,6.277,24.558,6.277,24.487z"/>
	<path fill="#FFFFFF" d="M7.649,25.311c0-0.082-0.052-0.148-0.116-0.148c-0.064,0-0.116,0.066-0.116,0.148
		c0,0.082,0.052,0.148,0.116,0.148C7.597,25.459,7.649,25.393,7.649,25.311z"/>
	<path fill="#FFFFFF" d="M14.675,24.477c-0.047-0.114-0.178-0.168-0.291-0.121c-0.114,0.047-0.168,0.177-0.121,0.291
		c0.047,0.114,0.178,0.168,0.292,0.121C14.667,24.721,14.722,24.591,14.675,24.477z"/>
	<path fill="#FFFFFF" d="M16.61,24.906c0-0.085-0.058-0.155-0.129-0.155c-0.071,0-0.129,0.069-0.129,0.155
		c0,0.085,0.058,0.154,0.129,0.154C16.552,25.06,16.61,24.991,16.61,24.906z"/>
	<path fill="#FFFFFF" d="M18.58,24.249c0-0.078-0.069-0.142-0.155-0.142c-0.085,0-0.154,0.063-0.154,0.142
		c0,0.078,0.069,0.142,0.154,0.142C18.51,24.391,18.58,24.327,18.58,24.249z"/>
	<path fill="#FFFFFF" d="M22.803,23.669c0-0.071-0.063-0.129-0.142-0.129c-0.078,0-0.142,0.058-0.142,0.129
		c0,0.071,0.063,0.129,0.142,0.129C22.739,23.798,22.803,23.741,22.803,23.669z"/>
	<path fill="#FFFFFF" d="M23.125,24.197c0-0.085,0.063-0.154,0.142-0.154c0.078,0,0.142,0.069,0.142,0.154
		c0,0.085-0.063,0.155-0.142,0.155C23.188,24.352,23.125,24.283,23.125,24.197z"/>
	<path fill="#FFFFFF" d="M28.339,24.841c0-0.071-0.046-0.129-0.103-0.129c-0.057,0-0.103,0.058-0.103,0.129
		c0,0.071,0.046,0.129,0.103,0.129C28.293,24.97,28.339,24.912,28.339,24.841z"/>
	<path fill="#FFFFFF" d="M28.172,22.948c0-0.085-0.052-0.155-0.116-0.155c-0.064,0-0.116,0.069-0.116,0.155
		c0,0.085,0.052,0.155,0.116,0.155C28.12,23.103,28.172,23.034,28.172,22.948z"/>
	<path fill="#FFFFFF" d="M29.549,22.717c0-0.078-0.104-0.142-0.232-0.142c-0.128,0-0.232,0.063-0.232,0.142
		c0,0.078,0.104,0.142,0.232,0.142C29.445,22.858,29.549,22.795,29.549,22.717z"/>
	<path fill="#FFFFFF" d="M29.524,21.957c0-0.071-0.063-0.129-0.142-0.129c-0.078,0-0.142,0.058-0.142,0.129
		c0,0.071,0.063,0.129,0.142,0.129C29.46,22.086,29.524,22.028,29.524,21.957z"/>
	<path fill="#FFFFFF" d="M29.807,20.67c0-0.078,0.058-0.142,0.129-0.142c0.071,0,0.129,0.063,0.129,0.142
		c0,0.078-0.058,0.142-0.129,0.142C29.865,20.811,29.807,20.748,29.807,20.67z"/>
	<path fill="#FFFFFF" d="M31.275,21.931c0,0.078-0.063,0.142-0.142,0.142c-0.078,0-0.142-0.063-0.142-0.142
		c0-0.078,0.063-0.142,0.142-0.142C31.211,21.79,31.275,21.853,31.275,21.931z"/>
	<path fill="#FFFFFF" d="M32.421,20.657c0-0.085-0.063-0.155-0.142-0.155c-0.078,0-0.142,0.069-0.142,0.155
		c0,0.085,0.063,0.155,0.142,0.155C32.357,20.811,32.421,20.742,32.421,20.657z"/>
	<path fill="#FFFFFF" d="M28.764,19.498c0-0.092-0.058-0.167-0.129-0.167c-0.071,0-0.129,0.075-0.129,0.167
		c0,0.092,0.058,0.167,0.129,0.167C28.706,19.665,28.764,19.59,28.764,19.498z"/>
	<path fill="#FFFFFF" d="M29.318,19.112c0-0.1-0.075-0.18-0.167-0.18c-0.092,0-0.167,0.081-0.167,0.18c0,0.1,0.075,0.18,0.167,0.18
		C29.243,19.292,29.318,19.211,29.318,19.112z"/>
	<path fill="#FFFFFF" d="M36.182,15.455c-0.084-0.087-0.194-0.116-0.245-0.067c-0.051,0.05-0.024,0.16,0.061,0.247
		c0.084,0.087,0.194,0.117,0.245,0.067C36.294,15.652,36.267,15.542,36.182,15.455z"/>
	<path fill="#FFFFFF" d="M35.897,16.086c0-0.078-0.046-0.142-0.103-0.142c-0.057,0-0.103,0.063-0.103,0.142
		c0,0.078,0.046,0.142,0.103,0.142C35.851,16.228,35.897,16.164,35.897,16.086z"/>
	<path fill="#FFFFFF" d="M36.515,16.009c0-0.043-0.069-0.077-0.154-0.077c-0.085,0-0.155,0.035-0.155,0.077
		c0,0.043,0.069,0.077,0.155,0.077C36.446,16.086,36.515,16.051,36.515,16.009z"/>
	<path fill="#FFFFFF" d="M32.408,16.768c0-0.064-0.063-0.116-0.142-0.116c-0.078,0-0.142,0.052-0.142,0.116
		c0,0.064,0.063,0.116,0.142,0.116C32.344,16.884,32.408,16.832,32.408,16.768z"/>
	<path fill="#FFFFFF" d="M35.06,17.438c0-0.078,0.052-0.142,0.116-0.142c0.064,0,0.116,0.063,0.116,0.142
		c0,0.078-0.052,0.142-0.116,0.142C35.112,17.58,35.06,17.516,35.06,17.438z"/>
	<path fill="#FFFFFF" d="M32.601,17.798c0-0.085-0.069-0.154-0.154-0.154c-0.085,0-0.155,0.069-0.155,0.154
		c0,0.085,0.069,0.155,0.155,0.155C32.531,17.953,32.601,17.884,32.601,17.798z"/>
	<path fill="#FFFFFF" d="M31.622,18.571c0-0.071-0.063-0.129-0.142-0.129c-0.078,0-0.142,0.058-0.142,0.129
		c0,0.071,0.063,0.129,0.142,0.129C31.559,18.7,31.622,18.642,31.622,18.571z"/>
	<path fill="#FFFFFF" d="M34.802,19.318c0-0.071-0.075-0.129-0.167-0.129c-0.092,0-0.167,0.058-0.167,0.129
		c0,0.071,0.075,0.129,0.167,0.129C34.727,19.446,34.802,19.389,34.802,19.318z"/>
	<path fill="#FFFFFF" d="M36.656,19.125c0-0.092,0.04-0.167,0.09-0.167c0.05,0,0.09,0.075,0.09,0.167c0,0.092-0.04,0.167-0.09,0.167
		C36.697,19.292,36.656,19.217,36.656,19.125z"/>
	<path fill="#FFFFFF" d="M37.828,18.519c0,0.078-0.052,0.142-0.116,0.142c-0.064,0-0.116-0.063-0.116-0.142
		c0-0.078,0.052-0.142,0.116-0.142C37.776,18.378,37.828,18.441,37.828,18.519z"/>
	<path fill="#FFFFFF" d="M37.506,20.064c0-0.092,0.075-0.167,0.167-0.167c0.093,0,0.167,0.075,0.167,0.167
		c0,0.092-0.075,0.167-0.167,0.167C37.581,20.232,37.506,20.157,37.506,20.064z"/>
	<path fill="#FFFFFF" d="M39.785,17.489c0,0.064-0.052,0.116-0.116,0.116c-0.064,0-0.116-0.052-0.116-0.116
		c0-0.064,0.052-0.116,0.116-0.116C39.733,17.374,39.785,17.425,39.785,17.489z"/>
	<path fill="#FFFFFF" d="M38.836,20.276c-0.106-0.095-0.153-0.215-0.105-0.268c0.048-0.053,0.172-0.018,0.278,0.077
		c0.106,0.095,0.153,0.215,0.105,0.268C39.066,20.405,38.942,20.371,38.836,20.276z"/>
	<path fill="#FFFFFF" d="M39.94,19.279c0-0.064-0.046-0.116-0.103-0.116c-0.057,0-0.103,0.052-0.103,0.116
		c0,0.064,0.046,0.116,0.103,0.116C39.894,19.395,39.94,19.343,39.94,19.279z"/>
	<path fill="#FFFFFF" d="M39.811,20.425c0-0.085-0.046-0.155-0.103-0.155c-0.057,0-0.103,0.069-0.103,0.155
		c0,0.085,0.046,0.154,0.103,0.154C39.765,20.579,39.811,20.51,39.811,20.425z"/>
	<path fill="#FFFFFF" d="M40.519,20.476c0-0.092-0.046-0.167-0.103-0.167c-0.057,0-0.103,0.075-0.103,0.167
		c0,0.092,0.046,0.167,0.103,0.167C40.473,20.644,40.519,20.569,40.519,20.476z"/>
	<path fill="#FFFFFF" d="M40.206,21.791c0-0.071-0.046-0.129-0.103-0.129c-0.057,0-0.103,0.058-0.103,0.129
		c0,0.071,0.046,0.129,0.103,0.129C40.16,21.92,40.206,21.862,40.206,21.791z"/>
	<path fill="#FFFFFF" d="M41.266,22.021c0,0.071-0.098,0.129-0.219,0.129c-0.121,0-0.219-0.058-0.219-0.129
		c0-0.071,0.098-0.129,0.219-0.129C41.168,21.893,41.266,21.95,41.266,22.021z"/>
	<path fill="#FFFFFF" d="M41.601,18.597c0-0.1-0.081-0.18-0.18-0.18c-0.1,0-0.18,0.081-0.18,0.18c0,0.1,0.081,0.18,0.18,0.18
		C41.52,18.777,41.601,18.696,41.601,18.597z"/>
	<path fill="#FFFFFF" d="M43.158,20.142c0-0.064,0.052-0.116,0.116-0.116c0.064,0,0.116,0.052,0.116,0.116
		c0,0.064-0.052,0.116-0.116,0.116C43.21,20.258,43.158,20.206,43.158,20.142z"/>
	<path fill="#FFFFFF" d="M43.223,24.146c0-0.1-0.104-0.18-0.232-0.18c-0.128,0-0.232,0.081-0.232,0.18c0,0.1,0.104,0.18,0.232,0.18
		C43.119,24.326,43.223,24.245,43.223,24.146z"/>
	<path fill="#FFFFFF" d="M44.781,22.794c0-0.092-0.069-0.167-0.154-0.167c-0.085,0-0.155,0.075-0.155,0.167
		c0,0.092,0.069,0.167,0.155,0.167C44.711,22.961,44.781,22.886,44.781,22.794z"/>
	<path fill="#FFFFFF" d="M41.369,25.704c0,0.071-0.069,0.129-0.154,0.129c-0.085,0-0.155-0.058-0.155-0.129
		c0-0.071,0.069-0.129,0.155-0.129C41.299,25.575,41.369,25.633,41.369,25.704z"/>
	<path fill="#FFFFFF" d="M43.635,25.305c0-0.064-0.063-0.116-0.142-0.116c-0.078,0-0.142,0.052-0.142,0.116
		c0,0.064,0.063,0.116,0.142,0.116C43.571,25.421,43.635,25.369,43.635,25.305z"/>
	<path fill="#FFFFFF" d="M45.502,25.15c0-0.071-0.058-0.129-0.129-0.129c-0.071,0-0.129,0.058-0.129,0.129
		c0,0.071,0.058,0.129,0.129,0.129C45.444,25.279,45.502,25.221,45.502,25.15z"/>
	<g>
		<path fill="#28367B" d="M31.397,25.914c-0.003-0.014-0.006-0.027-0.008-0.04c-1.68-0.074-3.402-0.112-5.167-0.113
			c0.002,0.025,0.005,0.05,0.007,0.076C27.926,25.827,29.658,25.85,31.397,25.914z"/>
		<path fill="#28367B" d="M45.538,28.136c0.056-0.171,0.108-0.344,0.155-0.519c-1.007-0.218-2.042-0.417-3.104-0.597
			c0.514,0.09,1.023,0.186,1.527,0.288C43.31,27.51,45.223,27.982,45.538,28.136z"/>
		<path fill="#28367B" d="M29.987,32.339c-0.601-0.052-0.257-0.103-0.257-0.103s0.755-0.635-0.601-0.549
			c-0.429-0.137-0.412-0.498-0.412-0.498s0.463-0.051,0.824,0.137c0.361,0.189,1.167,0.309,1.442,0.051
			c0.275-0.258-1.03-0.464-0.155-0.687c0.979-0.034,2.438-0.292,1.03-0.446c-1.408-0.155-1.768,0.326-2.249,0.223
			c-0.48-0.103-1.356-0.292-1.562-0.069c-0.029,0.031-0.104,0.05-0.219,0.061c0.625,0.948,1.408,1.782,2.312,2.466
			c0.065-0.021,0.159-0.039,0.293-0.054C31.635,32.734,33.215,32.202,29.987,32.339z"/>
		<path fill="#28367B" d="M31.996,33.678c0.223-0.326-0.326-0.412-0.635-0.343c-0.119,0.026-0.46-0.016-0.767-0.085
			c0.46,0.309,0.947,0.58,1.458,0.81C31.955,33.961,31.892,33.829,31.996,33.678z"/>
		<path fill="#28367B" d="M43.686,31.154c-0.618,1.27-1.957,1.734-1.957,1.734c-0.206-0.378-1.751,0.292-2.455,0.412
			c-0.704,0.12-2.352,0.807-2.3,0.464c0.052-0.343-0.807-0.515-1.013-0.172c-0.206,0.343-0.669,0.429-0.996,0.464
			c-0.326,0.034-0.652,0.154-0.91,0.309c-0.184,0.11-0.989,0.002-1.434-0.069c1.089,0.411,2.27,0.636,3.503,0.636
			c3.079,0,5.831-1.401,7.652-3.601c0.244-0.297,0.471-0.609,0.68-0.933c-0.039-0.004-0.077-0.008-0.118-0.015
			C42.519,30.073,41.901,30.313,43.686,31.154z"/>
		<path fill="#28367B" d="M24.181,25.777c-2.086,0.033-4.207,0.116-6.33,0.249c-1.399,0.088-2.726,0.192-3.964,0.305v0.086
			c3.01-0.256,6.536-0.476,10.285-0.553C24.176,25.835,24.179,25.806,24.181,25.777z"/>
		<path fill="#28367B" d="M19.567,30.571c3.382-0.858,0.738-0.824-1.871-0.137c-2.609,0.687,1.699-0.824-0.944-0.755
			c-2.644,0.069-1.356,0.258-1.888,0.584c-0.532,0.326-1.785-0.103-2.215-0.463c-0.429-0.361-1.665-0.567-3.725-0.567
			c-2.06,0-2.73-0.309-1.803-0.498c0.927-0.189,1.888-0.807-2.318-0.395c-0.09,0.009-0.175,0.017-0.258,0.024
			c1.383,3.911,5.145,6.723,9.557,6.723c3.136,0,5.943-1.42,7.801-3.645c0.177-0.213,0.344-0.434,0.503-0.66
			c-0.253,0.039-0.513,0.083-0.779,0.133C17.884,31.618,16.185,31.429,19.567,30.571z"/>
		<path fill="#28367B" d="M9.538,26.793c-1.47,0.179-2.683,0.351-3.577,0.487c0.889-0.12,2.112-0.275,3.597-0.44
			C9.551,26.824,9.544,26.809,9.538,26.793z"/>
		<path fill="#28367B" d="M30.594,33.25c-0.154-0.104-0.305-0.212-0.453-0.324C29.845,33.019,30.189,33.158,30.594,33.25z"/>
		<path fill="#28367B" d="M32.322,34.245c0,0,0.121,0.023,0.3,0.051c-0.193-0.073-0.383-0.152-0.57-0.236
			C32.163,34.175,32.322,34.245,32.322,34.245z"/>
		<path fill="#28367B" d="M45.558,28.146c-0.005-0.003-0.013-0.007-0.02-0.01c-0.265,0.804-0.631,1.563-1.081,2.261
			C46.141,30.583,45.797,28.284,45.558,28.146z"/>
	</g>
	<path fill="#FFFFFF" d="M36.124,15.069c5.485,0,9.931,4.446,9.931,9.931c0,5.485-4.446,9.931-9.931,9.931
		c-5.485,0-9.931-4.446-9.931-9.931C26.193,19.515,30.639,15.069,36.124,15.069 M36.124,14.245c-5.93,0-10.755,4.825-10.755,10.755
		s4.825,10.755,10.755,10.755c5.93,0,10.755-4.825,10.755-10.755S42.055,14.245,36.124,14.245L36.124,14.245z"/>
	<path fill="#FFFFFF" d="M14.102,15.023c2.903,0,5.67,1.238,7.593,3.397l-3.923,3.493c-0.926-1.04-2.264-1.637-3.669-1.637
		c-2.685,0-4.87,2.144-4.87,4.779c0,2.635,2.185,4.779,4.87,4.779c1.942,0,3.622-1.122,4.403-2.739h-4.618v-4.532h9.985
		c0,0,0.013,0.001,0.032,0.027c0.024,0.033,0.061,0.2,0.061,0.2c0.172,0.74,0.26,1.502,0.26,2.266
		c0,5.532-4.541,10.032-10.123,10.032c-5.582,0-10.123-4.5-10.123-10.032C3.979,19.524,8.52,15.023,14.102,15.023 M14.102,14.405
		c-5.923,0-10.741,4.777-10.741,10.65c0,5.872,4.819,10.65,10.741,10.65c5.923,0,10.741-4.777,10.741-10.65
		c0-0.786-0.087-1.572-0.26-2.335l-0.053-0.16c0,0-0.128-0.274-0.212-0.364c-0.081-0.088-0.34-0.248-0.34-0.248l-0.152-0.003
		l-0.007,0h-0.007h-5.147l3.439-3.063l0.462-0.411l-0.411-0.462C20.117,15.719,17.182,14.405,14.102,14.405L14.102,14.405z
		 M14.102,29.216c-2.345,0-4.252-1.866-4.252-4.161c0-2.294,1.908-4.161,4.252-4.161c1.046,0,2.049,0.377,2.823,1.05h-3.038H13.27
		v0.618v4.532v0.618h0.618h3.482C16.571,28.648,15.375,29.216,14.102,29.216L14.102,29.216z"/>
</g>
</svg>
