<svg version="1.0" id="Layer_1" xmlns="http://www.w3.org/2000/svg" xmlns:xlink="http://www.w3.org/1999/xlink" x="0px"
    y="0px" viewBox="0 0 50 50" enable-background="new 0 0 50 50" xml:space="preserve">
    <g>
        <path fill="#C1272D"
            d="M27.716,2.5c0.211,0.705,0.49,1.397,0.62,2.117c0.307,1.703,1.332,2.894,2.723,3.746
		c1.794,1.098,2.267,2.548,2.083,4.63c-0.257,2.899-0.081,5.836-0.111,8.757c-0.016,1.626,0.012,3.243,0.37,4.84
		c0.285,1.27,0.841,2.383,1.778,3.3c0.387,0.379,0.689,0.461,0.878-0.17c0.077-0.258,0.197-0.53,0.517-0.528
		c0.388,0.003,0.554,0.314,0.659,0.624c0.294,0.869,0.523,1.763,0.554,2.678c0.106,3.139-0.091,6.243-1.016,9.277
		c-0.92,3.019-4.35,5.763-7.258,5.724c-0.373-0.005-0.833,0.087-0.994-0.375c-0.185-0.53,0.305-0.7,0.627-0.931
		c0.459-0.33,1.104-0.543,0.732-1.333c-0.03-0.063,0.002-0.195,0.054-0.252c0.839-0.924,0.13-1.754-0.168-2.595
		c-0.17-0.479-0.474-0.586-0.838-0.132c-0.42,0.524-0.579,1.151-0.746,1.781c-0.098,0.367-0.191,0.81-0.705,0.754
		c-0.459-0.05-0.45-0.482-0.522-0.821c-0.043-0.202-0.102-0.407-0.1-0.61c0.031-2.712-0.18-5.43,0.111-8.136
		c0.273-2.539-1.287-3.739-3.66-2.761c-0.354,0.146-0.69,0.336-1.037,0.498c-0.533,0.25-1.083,0.261-1.64,0.091
		c-2.672-0.817-5.023,0.349-5.933,2.993c-0.214,0.621-0.566,1.163-0.804,1.764c-0.108,0.271-0.273,0.465-0.589,0.431
		c-0.305-0.033-0.445-0.26-0.539-0.522c-0.02-0.055-0.045-0.113-0.046-0.17c-0.037-2.826-0.751-5.612-0.462-8.46
		c0.13-1.286,0.735-2.363,1.359-3.425c1.241-2.11,2.548-4.181,3.822-6.271c1.548-2.54,2.912-5.19,4.596-7.649
		c1.687-2.464,3.133-5.067,4.428-7.757c0.19-0.394,0.481-0.739,0.726-1.106C27.362,2.5,27.539,2.5,27.716,2.5z M28.136,26.514
		c-0.899-1.12-1.212-2.241-1.153-3.499c0.048-1.027,0.02-2.059,0.002-3.088c-0.005-0.267,0.147-0.666-0.237-0.754
		c-0.293-0.068-0.418,0.283-0.548,0.5c-0.755,1.261-1.484,2.536-2.602,3.533c-0.141,0.125-0.252,0.351-0.267,0.539
		c-0.072,0.881-0.517,1.472-1.303,1.844c-0.392,0.186-0.562,0.525-0.466,0.948c0.109,0.475,0.517,0.421,0.86,0.397
		c1.103-0.078,2.173,0.006,3.184,0.508c0.343,0.17,0.694,0.17,0.963-0.153C26.943,26.836,27.444,26.617,28.136,26.514z
		 M33.204,41.727c0.294-0.173,0.377-0.207,0.442-0.262c2.03-1.693,1.731-4.819,0.343-6.852c-0.118-0.174-0.282-0.342-0.513-0.236
		c-0.251,0.115-0.242,0.379-0.263,0.614C33.019,37.186,33.632,39.366,33.204,41.727z M36.622,31.435
		c0.127,2.242-0.173,4.462-0.41,6.68c-0.28,2.617-0.995,5.033-3.465,6.514c-0.468,0.281-0.86,0.69-1.287,1.04
		c1.748-0.735,3.265-1.712,4.018-3.557C36.885,38.66,36.778,35.05,36.622,31.435z M13.418,35.787
		c0.578-2.332,2.149-3.71,4.291-4.563c0.79-0.314,1.516-0.285,2.278,0.142c1.045,0.585,1.729,0.435,2.613-0.443
		c-0.326-0.063-0.555,0.168-0.819,0.272c-0.586,0.231-1.148,0.254-1.681-0.119c-0.81-0.567-1.667-0.497-2.529-0.178
		c-1.09,0.404-2.086,0.996-2.886,1.83C13.882,33.563,13.388,34.578,13.418,35.787z M31.64,42.764
		c0.093-0.212,0.194-0.42,0.278-0.635c0.676-1.745,0.382-3.547,0.276-5.33c-0.063-1.065-0.119-2.12,0.137-3.161
		c0.134-0.544,0.288-1.105,1.026-1.138c0.275-0.013,0.457-0.188,0.351-0.478c-0.169-0.461-0.092-0.881,0.138-1.312
		c-0.421,0.148-0.452,0.476-0.445,0.827c0.005,0.229,0.099,0.537-0.179,0.628c-1.306,0.427-1.2,1.545-1.237,2.55
		c-0.04,1.086-0.047,2.177,0.128,3.261C32.378,39.611,31.884,41.164,31.64,42.764z M22.455,29.785
		c0.233-0.019,0.472-0.015,0.699-0.062c0.315-0.065,0.423-0.311,0.151-0.484c-0.533-0.339-0.99-0.852-1.69-0.868
		c-0.333-0.008-0.684,0.023-0.816,0.381c-0.152,0.412,0.213,0.556,0.48,0.722C21.636,29.697,22.031,29.795,22.455,29.785z" />
    </g>
</svg>