<?xml version="1.0" encoding="utf-8"?>
<!-- Generator: Adobe Illustrator 26.0.0, SVG Export Plug-In . SVG Version: 6.00 Build 0)  -->
<svg version="1.0" id="Layer_1" xmlns="http://www.w3.org/2000/svg" xmlns:xlink="http://www.w3.org/1999/xlink" x="0px" y="0px"
	 viewBox="0 0 50 50" enable-background="new 0 0 50 50" xml:space="preserve">
<g>
	<linearGradient id="SVGID_1_" gradientUnits="userSpaceOnUse" x1="12.8833" y1="25" x2="37.9318" y2="25">
		<stop  offset="0" style="stop-color:#924D00"/>
		<stop  offset="0.4749" style="stop-color:#CDBD00"/>
		<stop  offset="1" style="stop-color:#934B00"/>
	</linearGradient>
	<path fill="url(#SVGID_1_)" d="M35.454,33.143c0,0.733,0,1.43,0,2.16c0.889,0.031,1.781-0.001,2.668,0.018
		c0.054,0.204,0.066,6.208,0.014,6.541c-8.406,0-16.814,0-25.241,0c0-2.173,0-4.344,0-6.542c0.871,0,1.736,0,2.618,0
		c0-0.729,0-1.432,0-2.17c-0.627-0.016-1.25-0.005-1.874-0.007c-0.637-0.002-1.274,0-1.91,0c-0.628,0-1.256,0-1.883,0
		s-1.256,0-1.883,0c-0.628,0-1.256,0-1.883,0c-0.637,0-1.274,0-1.91,0c-0.628,0-1.256,0-1.883,0c-0.625,0-1.249,0-1.937,0
		c2.028-3.608,4.03-7.163,6.041-10.733c1.587,0,3.171,0,4.782,0c0.002-1.656-0.001-3.289,0.002-4.935c1.47,0,2.901,0,4.344,0
		c0-0.92,0-1.822,0-2.746c-0.886,0-1.761,0-2.677,0c0-2.196,0-4.368,0-6.513c0.025-0.035,0.029-0.043,0.035-0.049
		c0.006-0.006,0.015-0.01,0.023-0.012c0.035-0.006,0.07-0.016,0.105-0.016c8.341-0.001,16.681,0,25.022,0.001
		c0.035,0,0.07,0.012,0.122,0.021c0,2.175,0,4.348,0,6.555c-0.882,0-1.764,0-2.658,0c0,0.926,0,1.819,0,2.747
		c1.437,0.016,2.871,0.028,4.337,0.003c0,1.652,0,3.286,0,4.946c0.099,0,0.168,0,0.236,0c1.211,0,2.422,0.021,3.632-0.009
		c0.626-0.016,1.159,0.167,1.658,0.516c0.482,0.338,0.903,0.736,1.232,1.226c0.274,0.408,0.444,0.855,0.48,1.351
		c0.044,0.617,0.074,1.233,0.003,1.851c-0.067,0.577-0.293,1.083-0.633,1.546c-0.031,0.043-0.057,0.089-0.1,0.156
		c1.107,1.346,2.213,2.69,3.319,4.035c-0.009,0.02-0.018,0.039-0.027,0.059C44.906,33.143,40.187,33.143,35.454,33.143z
		 M27.344,17.465c0.548,0,1.048-0.003,1.548,0c1.381,0.008,2.761,0.02,4.142,0.027c0.148,0.001,0.296-0.025,0.464-0.04
		c0-1.536,0-3.045,0-4.574c0.968,0,1.914,0,2.875,0c0-0.971,0-1.924,0-2.873c-0.267-0.06-21.532-0.052-21.752,0.011
		c0.014,0.938,0.027,1.883,0.042,2.86c0.962,0,1.915,0,2.895,0c0,1.542,0,3.052,0,4.577c0.257,0.015,0.488,0.038,0.718,0.039
		c1.004,0.004,2.008,0.002,3.013,0.002c0.636,0,1.272,0.003,1.908-0.002c0.166-0.001,0.331-0.025,0.512-0.039
		c0-1.535,0-3.044,0-4.568c1.215,0,2.411,0,3.635,0C27.344,14.41,27.344,15.92,27.344,17.465z M33.485,37.144
		c0-0.362,0-0.692,0-1.022c0-0.323,0-0.645,0-0.968c0-0.332,0.001-0.663,0-0.995c-0.001-0.327,0.005-0.655-0.004-0.977
		c-0.9-0.071-5.809-0.062-6.134,0.014c0,1.305,0,2.618,0,3.929c-1.233,0-2.437,0-3.657,0c0-1.325,0-2.629,0-3.931
		c-0.394-0.06-5.821-0.075-6.131-0.013c-0.004,1.314,0.001,2.633-0.003,3.97c-0.988,0-1.937,0-2.912,0c0,0.968,0,1.919,0,2.88
		c7.248,0,14.486,0,21.721,0c0.054-0.391,0.038-2.689-0.023-2.888C35.405,37.144,34.465,37.144,33.485,37.144z M11.953,23.941
		c-0.064-0.013-0.09-0.022-0.116-0.022c-1.219-0.001-2.439-0.001-3.658-0.003c-0.131,0-0.212,0.048-0.276,0.166
		c-0.456,0.831-0.916,1.661-1.38,2.488c-0.879,1.568-1.762,3.135-2.643,4.703c-0.036,0.064-0.061,0.135-0.092,0.203
		c0.199,0,0.368-0.002,0.538,0c0.609,0.007,1.219,0.011,1.828,0.026c0.162,0.004,0.257-0.042,0.336-0.195
		c0.246-0.477,0.519-0.94,0.765-1.417c0.079-0.154,0.178-0.201,0.339-0.191c0.241,0.015,0.484,0.021,0.725,0.02
		c0.43-0.002,0.86-0.013,1.29-0.017c0.068-0.001,0.135,0.015,0.228,0.027c0,0.585,0,1.154,0,1.744c0.722,0,1.416,0,2.117,0
		C11.953,28.964,11.953,26.46,11.953,23.941z M43.575,28.808c0.11-0.061,0.186-0.104,0.263-0.146
		c0.619-0.337,1.023-0.852,1.145-1.54c0.137-0.769,0.022-1.513-0.407-2.185c-0.42-0.658-1.014-1.019-1.807-1.02
		c-1.165-0.002-2.33-0.001-3.496,0c-0.078,0-0.156,0.009-0.229,0.013c-0.054,0.467-0.077,7.187-0.025,7.532c0.698,0,1.4,0,2.113,0
		c0-0.202,0.001-0.397,0-0.593c-0.001-0.197-0.006-0.394-0.007-0.591c-0.001-0.197-0.008-0.394,0.002-0.591
		c0.009-0.187-0.043-0.381,0.062-0.638c0.39,0.411,0.741,0.793,1.106,1.161c0.39,0.395,0.794,0.777,1.189,1.166
		c0.08,0.079,0.156,0.115,0.28,0.114c0.716-0.008,1.433,0.003,2.149,0.005c0.09,0,0.191,0.034,0.303-0.064
		C45.339,30.559,44.471,29.697,43.575,28.808z M28.149,26.958c0-1.017,0-2.023,0-3.026c-0.716,0-1.403,0-2.086,0
		c-0.059,0.256-0.055,7.307,0.005,7.533c0.691,0,1.385,0,2.102,0c0-0.999,0-1.988,0-2.982c0.564,0,1.105,0,1.655,0
		c0,0.348,0,0.677,0,1.006c0,0.331-0.004,0.663,0.001,0.994c0.005,0.326-0.021,0.654,0.019,0.992c0.722,0,1.416,0,2.115,0
		c0-2.518,0-5.02,0-7.541c-0.703,0-1.396,0-2.117,0c0,0.34,0,0.67,0,0.999c0,0.34,0.001,0.681,0,1.021
		c-0.001,0.327,0.005,0.655-0.004,1.003C29.268,26.958,28.733,26.958,28.149,26.958z M32.94,23.925
		c-0.068,0.466-0.067,7.303-0.002,7.534c1.724,0,3.448,0,5.188,0c-0.036-0.692,0.011-1.366-0.031-2.046c-1.101,0-2.164,0-3.233,0
		c0-0.33,0-0.639,0-0.974c0.732-0.012,1.452,0.005,2.162-0.01c0-0.511,0-0.982,0-1.47c-0.728,0-1.441,0-2.16,0
		c0-0.335,0-0.653,0-0.986c1.085,0,2.155,0,3.221,0c0.058-0.403,0.038-1.859-0.027-2.047C36.359,23.925,34.656,23.925,32.94,23.925z
		 M14.823,25.96c0.387,0,0.744,0,1.101,0c0.367,0,0.735,0,1.102,0c0.351,0,0.703,0,1.04,0c0-0.69,0-1.356,0-2.026
		c-1.741,0-3.456,0-5.199,0c0,2.512,0,5.007,0,7.542c0.341,0,0.687,0,1.034,0c0.35,0,0.699,0,1.049,0s0.699,0,1.049,0
		c0.35,0,0.699,0.003,1.049-0.001c0.345-0.004,0.691,0.017,1.029-0.013c0-0.695,0-1.353,0-2.03c-0.555,0-1.092,0.002-1.628-0.001
		c-0.534-0.002-1.068,0.011-1.618-0.009c0-0.345,0-0.654,0-0.998c0.735,0,1.454,0,2.171,0c0-0.496,0-0.958,0-1.456
		c-0.723,0-1.449,0-2.178,0C14.823,26.622,14.823,26.31,14.823,25.96z M20.839,26.006c0,0.639,0,1.237,0,1.835
		c0,0.609-0.001,1.218,0,1.827c0.001,0.595-0.006,1.191,0.005,1.791c0.831,0,1.623,0,2.431,0c0-1.824,0-3.629,0-5.452
		c0.626-0.032,1.238,0.023,1.851-0.009c0-0.707,0-1.383,0-2.062c-2.058,0-4.095,0-6.138,0c0,0.697,0,1.373,0,2.07
		C19.601,26.006,20.198,26.006,20.839,26.006z M12.909,18.842c-0.067,0.398-0.044,3.321,0.024,3.528c0.318,0,0.637,0,0.965,0
		c0-0.195-0.007-0.373,0.002-0.55c0.009-0.18-0.042-0.366,0.044-0.56c0.063,0.054,0.112,0.092,0.156,0.134
		c0.296,0.286,0.59,0.575,0.888,0.859c0.056,0.053,0.128,0.123,0.195,0.126c0.355,0.013,0.71,0.006,1.065,0.006
		c0.007-0.018,0.014-0.035,0.02-0.053c-0.39-0.371-0.78-0.742-1.183-1.125c0.065-0.032,0.104-0.052,0.144-0.07
		c0.588-0.26,0.808-0.653,0.721-1.285c-0.082-0.59-0.461-0.981-1.039-1.003C14.249,18.823,13.585,18.842,12.909,18.842z
		 M24.922,22.387c-0.388-1.216-0.758-2.376-1.128-3.535c-0.361,0-0.698,0-1.046,0c-0.482,1.168-0.96,2.327-1.457,3.535
		c0.239,0,0.433,0.002,0.626-0.001c0.142-0.002,0.316,0.036,0.418-0.032c0.1-0.066,0.126-0.242,0.185-0.37
		c0.004-0.008,0.005-0.017,0.008-0.026c0.039-0.114,0.112-0.168,0.24-0.166c0.331,0.006,0.663,0.001,0.994,0.003
		c0.06,0,0.12,0.018,0.179,0.027c0.055,0.191,0.106,0.368,0.163,0.563c0.177,0,0.337,0,0.497,0
		C24.688,22.387,24.776,22.387,24.922,22.387z M35.386,20.562c0-0.215,0-0.43,0-0.645c0-0.283-0.112-0.522-0.3-0.726
		c-0.474-0.511-1.394-0.553-1.932-0.1c-0.223,0.188-0.381,0.419-0.393,0.706c-0.021,0.5-0.04,1.004,0,1.501
		c0.05,0.621,0.54,1.028,1.164,1.034c0.108,0.001,0.215,0.002,0.323,0c0.637-0.014,1.131-0.515,1.139-1.154
		C35.388,20.973,35.386,20.767,35.386,20.562z M18.484,18.843c0,0.218,0.762,3.26,0.893,3.544c0.279,0,0.565-0.005,0.851,0.002
		c0.138,0.003,0.2-0.051,0.251-0.181c0.417-1.045,0.843-2.086,1.266-3.129c0.028-0.068,0.045-0.141,0.072-0.226
		c-0.298,0-0.564,0-0.84,0c-0.296,0.723-0.588,1.438-0.88,2.152c-0.015-0.001-0.029-0.002-0.044-0.003
		c-0.176-0.711-0.352-1.422-0.534-2.159C19.171,18.843,18.828,18.843,18.484,18.843z M28.121,18.853c0,0.2,0.009,0.387-0.003,0.573
		c-0.011,0.181,0.047,0.322,0.157,0.466c0.377,0.488,0.742,0.985,1.11,1.48c0.033,0.045,0.051,0.102,0.087,0.178
		c-0.467,0.003-0.901-0.001-1.334,0.003c0,0.295,0,0.55,0,0.802c0.327,0.06,2.201,0.046,2.404-0.02c0-0.19-0.005-0.387,0.002-0.583
		c0.005-0.142-0.038-0.257-0.124-0.37c-0.357-0.47-0.708-0.946-1.061-1.42c-0.061-0.082-0.115-0.169-0.205-0.302
		c0.497,0,0.938,0,1.367,0c0-0.289,0-0.545,0-0.805C29.716,18.853,28.931,18.853,28.121,18.853z M37.779,20.288
		c-0.267,0-0.522,0-0.779,0c0-0.21,0-0.384,0-0.578c0.387,0,0.758,0,1.148,0c0-0.291,0-0.563,0-0.853c-0.72,0-1.431,0-2.14,0
		c-0.066,0.223-0.066,3.226,0.002,3.51c0.314,0,0.63,0,0.972,0c0-0.48,0-0.941,0-1.434c0.28,0,0.535,0,0.798,0
		C37.779,20.707,37.779,20.515,37.779,20.288z M25.531,22.368c0.689,0,1.348,0,2.027,0c0.005-0.281,0.023-0.543-0.016-0.81
		c-0.365,0-0.7,0-1.053,0c0-0.914,0-1.805,0-2.709c-0.328,0-0.638,0-0.958,0C25.531,20.024,25.531,21.186,25.531,22.368z
		 M16.807,22.366c0.36,0,0.686,0,1.002,0c0-1.182,0-2.342,0-3.499c-0.34-0.051-0.841-0.039-1.053,0.032
		C16.773,20.04,16.79,21.192,16.807,22.366z"/>
	<path fill="#FFFFFF" d="M27.344,17.465c0-1.545,0-3.055,0-4.58c-1.224,0-2.421,0-3.635,0c0,1.523,0,3.033,0,4.568
		c-0.181,0.015-0.346,0.038-0.512,0.039c-0.636,0.005-1.272,0.002-1.908,0.002c-1.004,0-2.008,0.002-3.013-0.002
		c-0.231-0.001-0.461-0.024-0.718-0.039c0-1.525,0-3.035,0-4.577c-0.98,0-1.933,0-2.895,0c-0.014-0.977-0.028-1.922-0.042-2.86
		c0.22-0.062,21.485-0.07,21.752-0.011c0,0.949,0,1.901,0,2.873c-0.961,0-1.906,0-2.875,0c0,1.528,0,3.038,0,4.574
		c-0.168,0.015-0.316,0.041-0.464,0.04c-1.381-0.006-2.761-0.018-4.142-0.027C28.392,17.462,27.892,17.465,27.344,17.465z"/>
	<path fill="#FFFFFF" d="M36.364,40.031H14.642v-2.88h2.912c0.005-1.336-0.001-2.656,0.003-3.97
		c0.311-0.061,5.738-0.047,6.131,0.013v3.931h3.657v-3.93c0.325-0.076,5.235-0.085,6.134-0.014c0.009,0.322,0.003,0.65,0.004,0.977
		c0.001,0.332,0,0.663,0,0.995v1.99h2.856C36.401,37.342,36.418,39.64,36.364,40.031z"/>
	<path fill="#FFFFFF" d="M11.953,23.941c0,2.519,0,5.023,0,7.532c-0.701,0-1.395,0-2.117,0c0-0.59,0-1.159,0-1.744
		c-0.093-0.011-0.16-0.027-0.228-0.027c-0.43,0.004-0.86,0.015-1.29,0.017c-0.242,0.001-0.484-0.005-0.725-0.02
		c-0.161-0.01-0.259,0.037-0.339,0.191c-0.246,0.477-0.519,0.94-0.765,1.417c-0.079,0.152-0.173,0.199-0.336,0.195
		c-0.609-0.015-1.218-0.019-1.828-0.026c-0.169-0.002-0.339,0-0.538,0c0.031-0.068,0.056-0.139,0.092-0.203
		c0.88-1.568,1.763-3.134,2.643-4.703c0.464-0.827,0.924-1.657,1.38-2.488c0.065-0.118,0.145-0.166,0.276-0.166
		c1.219,0.003,2.439,0.002,3.658,0.003C11.863,23.919,11.889,23.928,11.953,23.941z M9.858,28.261c0-0.747-0.001-1.44,0.001-2.132
		c0-0.094-0.031-0.15-0.13-0.168c-0.21-0.037-0.302,0.002-0.413,0.2c-0.244,0.436-0.484,0.874-0.726,1.311
		c-0.141,0.254-0.282,0.509-0.443,0.799C8.731,28.268,9.279,28.282,9.858,28.261z"/>
	<path fill="#FFFFFF" d="M43.575,28.808c0.896,0.89,1.764,1.751,2.642,2.623c-0.112,0.098-0.212,0.065-0.303,0.064
		c-0.716-0.002-1.433-0.013-2.149-0.005c-0.124,0.001-0.2-0.035-0.28-0.114c-0.396-0.39-0.799-0.771-1.189-1.166
		c-0.364-0.369-0.715-0.75-1.106-1.161c-0.105,0.257-0.053,0.451-0.062,0.638c-0.01,0.197-0.003,0.394-0.002,0.591
		c0.001,0.197,0.006,0.394,0.007,0.591c0.001,0.196,0,0.391,0,0.593c-0.713,0-1.415,0-2.113,0c-0.053-0.345-0.03-7.065,0.025-7.532
		c0.074-0.004,0.152-0.013,0.229-0.013c1.165-0.001,2.33-0.002,3.496,0c0.793,0.001,1.387,0.362,1.807,1.02
		c0.429,0.672,0.544,1.417,0.407,2.185c-0.122,0.688-0.526,1.202-1.145,1.54C43.762,28.704,43.685,28.747,43.575,28.808z
		 M41.136,25.763c0,0.611,0,1.162,0,1.733c0.276,0,0.543,0,0.809,0c0.063,0,0.129,0.01,0.187-0.007
		c0.162-0.048,0.33-0.088,0.477-0.166c0.406-0.217,0.549-0.78,0.183-1.159c-0.174-0.18-0.379-0.316-0.621-0.346
		C41.839,25.775,41.5,25.78,41.136,25.763z"/>
	<path fill="#FFFFFF" d="M28.149,26.958c0.584,0,1.119,0,1.69,0c0.009-0.349,0.003-0.676,0.004-1.003c0.001-0.34,0-0.681,0-1.021
		c0-0.329,0-0.658,0-0.999c0.721,0,1.414,0,2.117,0c0,2.521,0,5.023,0,7.541c-0.7,0-1.394,0-2.115,0
		c-0.04-0.338-0.014-0.666-0.019-0.992c-0.005-0.331-0.001-0.663-0.001-0.994c0-0.329,0-0.658,0-1.006c-0.55,0-1.091,0-1.655,0
		c0,0.994,0,1.983,0,2.982c-0.717,0-1.412,0-2.102,0c-0.06-0.226-0.064-7.276-0.005-7.533c0.683,0,1.369,0,2.086,0
		C28.149,24.936,28.149,25.942,28.149,26.958z"/>
	<path fill="#FFFFFF" d="M32.94,23.925c1.717,0,3.419,0,5.119,0c0.065,0.188,0.084,1.644,0.027,2.047c-1.067,0-2.136,0-3.221,0
		c0,0.333,0,0.651,0,0.986c0.719,0,1.432,0,2.16,0c0,0.488,0,0.96,0,1.47c-0.709,0.015-1.429-0.002-2.162,0.01
		c0,0.335,0,0.645,0,0.974c1.07,0,2.132,0,3.233,0c0.042,0.681-0.006,1.355,0.031,2.046c-1.74,0-3.465,0-5.188,0
		C32.872,31.227,32.872,24.391,32.94,23.925z"/>
	<path fill="#FFFFFF" d="M14.823,25.96c0,0.35,0,0.662,0,1.009c0.729,0,1.455,0,2.178,0c0,0.497,0,0.959,0,1.456
		c-0.717,0-1.437,0-2.171,0c0,0.343,0,0.653,0,0.998c0.549,0.02,1.084,0.007,1.618,0.009c0.536,0.002,1.073,0.001,1.628,0.001
		c0,0.677,0,1.335,0,2.03c-0.338,0.03-0.684,0.009-1.029,0.013c-0.349,0.004-0.699,0.001-1.049,0.001c-0.35,0-0.699,0-1.049,0
		s-0.699,0-1.049,0c-0.347,0-0.694,0-1.034,0c0-2.534,0-5.029,0-7.542c1.743,0,3.458,0,5.199,0c0,0.671,0,1.336,0,2.026
		c-0.337,0-0.688,0-1.04,0c-0.367,0-0.735,0-1.102,0C15.567,25.96,15.21,25.96,14.823,25.96z"/>
	<path fill="#FFFFFF" d="M20.839,26.006c-0.641,0-1.238,0-1.85,0c0-0.697,0-1.374,0-2.07c2.043,0,4.08,0,6.138,0
		c0,0.679,0,1.355,0,2.062c-0.612,0.033-1.225-0.023-1.851,0.009c0,1.823,0,3.628,0,5.452c-0.808,0-1.601,0-2.431,0
		c-0.011-0.601-0.004-1.196-0.005-1.791c-0.001-0.609,0-1.218,0-1.827C20.839,27.243,20.839,26.645,20.839,26.006z"/>
	<path fill="#FFFFFF" d="M12.909,18.842c0.677,0,1.34-0.02,2.002,0.006c0.579,0.022,0.957,0.413,1.039,1.003
		c0.088,0.632-0.133,1.026-0.721,1.285c-0.04,0.018-0.078,0.038-0.144,0.07c0.403,0.383,0.793,0.754,1.183,1.125
		c-0.007,0.018-0.014,0.035-0.02,0.053c-0.355,0-0.711,0.007-1.065-0.006c-0.067-0.002-0.139-0.072-0.195-0.126
		c-0.298-0.284-0.592-0.573-0.888-0.859c-0.044-0.042-0.093-0.08-0.156-0.134c-0.086,0.194-0.035,0.381-0.044,0.56
		c-0.009,0.177-0.002,0.356-0.002,0.55c-0.328,0-0.647,0-0.965,0C12.865,22.164,12.842,19.24,12.909,18.842z M13.927,20.53
		c0.241-0.012,0.447-0.011,0.649-0.037c0.092-0.012,0.186-0.063,0.265-0.117c0.157-0.108,0.177-0.296,0.058-0.442
		c-0.102-0.124-0.241-0.192-0.394-0.205c-0.184-0.016-0.371-0.004-0.578-0.004C13.927,19.986,13.927,20.238,13.927,20.53z"/>
	<path fill="#FFFFFF" d="M24.922,22.387c-0.146,0-0.234,0-0.322,0c-0.16,0-0.32,0-0.497,0c-0.056-0.194-0.108-0.372-0.163-0.563
		c-0.059-0.009-0.119-0.027-0.179-0.027c-0.331-0.003-0.663,0.003-0.994-0.003c-0.128-0.003-0.201,0.052-0.24,0.166
		c-0.003,0.008-0.005,0.017-0.008,0.026c-0.058,0.128-0.085,0.304-0.185,0.37c-0.102,0.067-0.275,0.029-0.418,0.032
		c-0.194,0.003-0.387,0.001-0.626,0.001c0.498-1.207,0.976-2.367,1.457-3.535c0.348,0,0.685,0,1.046,0
		C24.164,20.012,24.534,21.172,24.922,22.387z M23.726,21.161c-0.155-0.381-0.201-0.772-0.395-1.182
		c-0.166,0.433-0.307,0.801-0.453,1.182C23.172,21.161,23.428,21.161,23.726,21.161z"/>
	<path fill="#FFFFFF" d="M35.386,20.562c0,0.206,0.002,0.412,0,0.618c-0.008,0.639-0.502,1.14-1.139,1.154
		c-0.107,0.002-0.215,0.001-0.323,0c-0.624-0.006-1.114-0.413-1.164-1.034c-0.04-0.497-0.021-1.001,0-1.501
		c0.012-0.287,0.17-0.518,0.393-0.706c0.538-0.454,1.459-0.411,1.932,0.1c0.188,0.203,0.3,0.442,0.3,0.726
		C35.386,20.132,35.386,20.347,35.386,20.562z M33.594,20.632c0,0.161-0.011,0.323,0.003,0.483c0.02,0.242,0.239,0.434,0.471,0.429
		c0.222-0.004,0.442-0.175,0.449-0.385c0.013-0.366,0.002-0.734-0.005-1.1c-0.003-0.161-0.103-0.267-0.242-0.326
		c-0.329-0.138-0.649,0.06-0.674,0.416C33.585,20.309,33.594,20.471,33.594,20.632z"/>
	<path fill="#FFFFFF" d="M18.484,18.843c0.344,0,0.687,0,1.036,0c0.182,0.737,0.358,1.448,0.534,2.159
		c0.015,0.001,0.029,0.002,0.044,0.003c0.292-0.714,0.584-1.429,0.88-2.152c0.276,0,0.542,0,0.84,0
		c-0.027,0.085-0.045,0.157-0.072,0.226c-0.423,1.043-0.849,2.084-1.266,3.129c-0.052,0.13-0.113,0.185-0.251,0.181
		c-0.286-0.007-0.572-0.002-0.851-0.002C19.246,22.103,18.484,19.061,18.484,18.843z"/>
	<path fill="#FFFFFF" d="M28.121,18.853c0.81,0,1.594,0,2.4,0c0,0.26,0,0.516,0,0.805c-0.429,0-0.87,0-1.367,0
		c0.09,0.133,0.144,0.22,0.205,0.302c0.352,0.474,0.703,0.95,1.061,1.42c0.086,0.113,0.129,0.229,0.124,0.37
		c-0.007,0.196-0.002,0.393-0.002,0.583c-0.203,0.066-2.078,0.08-2.404,0.02c0-0.252,0-0.507,0-0.802
		c0.433-0.004,0.867,0,1.334-0.003c-0.036-0.076-0.053-0.133-0.087-0.178c-0.367-0.495-0.732-0.992-1.11-1.48
		c-0.111-0.143-0.168-0.285-0.157-0.466C28.13,19.24,28.121,19.053,28.121,18.853z"/>
	<path fill="#FFFFFF" d="M37.779,20.288c0,0.227,0,0.419,0,0.645c-0.263,0-0.518,0-0.798,0c0,0.493,0,0.953,0,1.434
		c-0.342,0-0.659,0-0.972,0c-0.068-0.284-0.068-3.287-0.002-3.51c0.71,0,1.42,0,2.14,0c0,0.29,0,0.562,0,0.853
		c-0.39,0-0.761,0-1.148,0c0,0.194,0,0.369,0,0.578C37.257,20.288,37.512,20.288,37.779,20.288z"/>
	<path fill="#FFFFFF" d="M25.531,22.368c0-1.182,0-2.344,0-3.519c0.321,0,0.63,0,0.958,0c0,0.904,0,1.795,0,2.709
		c0.353,0,0.688,0,1.053,0c0.039,0.268,0.021,0.529,0.016,0.81C26.879,22.368,26.221,22.368,25.531,22.368z"/>
	<path fill="#FFFFFF" d="M16.807,22.366c-0.017-1.174-0.034-2.326-0.05-3.468c0.211-0.071,0.713-0.083,1.053-0.032
		c0,1.157,0,2.317,0,3.499C17.493,22.366,17.167,22.366,16.807,22.366z"/>
	<path d="M9.858,28.261c-0.579,0.021-1.127,0.007-1.712,0.011c0.161-0.291,0.302-0.545,0.443-0.799
		c0.242-0.437,0.483-0.875,0.726-1.311c0.111-0.198,0.203-0.237,0.413-0.2c0.1,0.017,0.131,0.073,0.13,0.168
		C9.857,26.822,9.858,27.514,9.858,28.261z"/>
	<path d="M41.136,25.763c0.364,0.017,0.703,0.012,1.036,0.054c0.241,0.03,0.447,0.166,0.621,0.346
		c0.366,0.379,0.223,0.942-0.183,1.159c-0.147,0.078-0.316,0.118-0.477,0.166c-0.058,0.017-0.124,0.007-0.187,0.007
		c-0.266,0.001-0.533,0-0.809,0C41.136,26.925,41.136,26.374,41.136,25.763z"/>
	<path d="M13.927,20.53c0-0.292,0-0.544,0-0.804c0.207,0,0.393-0.012,0.578,0.004c0.153,0.013,0.293,0.08,0.394,0.205
		c0.119,0.145,0.099,0.334-0.058,0.442c-0.079,0.054-0.173,0.106-0.265,0.117C14.373,20.519,14.168,20.518,13.927,20.53z"/>
	<path d="M23.726,21.161c-0.298,0-0.554,0-0.848,0c0.146-0.381,0.287-0.749,0.453-1.182C23.526,20.388,23.571,20.779,23.726,21.161z
		"/>
	<path d="M33.594,20.632c0-0.161-0.009-0.323,0.002-0.483c0.025-0.356,0.345-0.554,0.674-0.416c0.139,0.058,0.239,0.165,0.242,0.326
		c0.007,0.367,0.017,0.734,0.005,1.1c-0.007,0.211-0.227,0.381-0.449,0.385c-0.232,0.005-0.451-0.187-0.471-0.429
		C33.583,20.956,33.594,20.794,33.594,20.632z"/>
	<path fill="#1A1047" d="M46.328,29.048c0.042-0.066,0.068-0.113,0.1-0.156c0.34-0.463,0.567-0.969,0.633-1.546
		c0.071-0.618,0.042-1.234-0.003-1.851c-0.036-0.496-0.205-0.943-0.48-1.351c-0.329-0.489-0.75-0.888-1.232-1.226
		c-0.498-0.349-1.032-0.532-1.657-0.516c-1.21,0.03-2.421,0.009-3.632,0.009h-0.236v-4.946c-0.241,0.004-0.481,0.007-0.72,0.009
		c-0.793,0.008-1.579,0.006-2.363,0H11.167c-0.002,1.646,0.001,3.279-0.002,4.935H6.384c-2.009,3.567-4.009,7.119-6.036,10.724
		h29.957c-0.113,0-0.226,0-0.337,0.001c0.182-0.001,0.366-0.001,0.55-0.001c0.119,0,0.238,0,0.356,0c-0.02,0-0.04,0-0.06,0h18.811
		c0.008-0.016,0.015-0.033,0.022-0.05C48.541,31.739,47.435,30.394,46.328,29.048z M28.114,19.426
		c0.012-0.185,0.002-0.372,0.002-0.573h2.401v0.805H29.15c0.09,0.133,0.144,0.22,0.205,0.302c0.352,0.474,0.703,0.95,1.06,1.42
		c0.086,0.113,0.129,0.229,0.124,0.37c-0.006,0.196-0.002,0.393-0.002,0.583c-0.203,0.066-2.078,0.08-2.405,0.02v-0.802
		c0.433-0.004,0.867,0,1.334-0.003c-0.036-0.076-0.053-0.133-0.087-0.178c-0.367-0.495-0.732-0.992-1.109-1.48
		C28.16,19.748,28.102,19.607,28.114,19.426z M23.789,18.853c0.37,1.159,0.74,2.319,1.128,3.535h-0.819
		c-0.056-0.194-0.107-0.372-0.163-0.563c-0.059-0.009-0.119-0.027-0.179-0.027c-0.331-0.003-0.663,0.003-0.994-0.003
		c-0.128-0.002-0.201,0.052-0.24,0.166c-0.003,0.008-0.005,0.017-0.008,0.026c-0.058,0.128-0.085,0.304-0.185,0.37
		c-0.102,0.067-0.275,0.029-0.417,0.032c-0.194,0.003-0.387,0.001-0.627,0.001c0.498-1.207,0.976-2.367,1.458-3.535H23.789z
		 M17.804,18.866v3.499h-1.003c-0.017-1.174-0.034-2.326-0.05-3.468C16.963,18.827,17.464,18.815,17.804,18.866z M12.903,18.842
		c0.677,0,1.341-0.02,2.002,0.006c0.579,0.022,0.957,0.413,1.039,1.003c0.088,0.632-0.133,1.026-0.721,1.285
		c-0.04,0.017-0.078,0.038-0.144,0.07c0.403,0.383,0.793,0.754,1.183,1.125c-0.007,0.018-0.013,0.035-0.02,0.053
		c-0.355,0-0.711,0.007-1.065-0.006c-0.067-0.002-0.139-0.073-0.195-0.126c-0.298-0.284-0.592-0.572-0.888-0.859
		c-0.044-0.043-0.093-0.08-0.156-0.134c-0.086,0.194-0.035,0.381-0.044,0.56c-0.009,0.177-0.002,0.356-0.002,0.55h-0.965
		C12.859,22.164,12.837,19.24,12.903,18.842z M11.948,31.473H9.831v-1.744c-0.093-0.011-0.16-0.027-0.228-0.027
		c-0.43,0.004-0.86,0.015-1.29,0.017c-0.242,0.001-0.484-0.005-0.725-0.02c-0.161-0.01-0.259,0.037-0.339,0.191
		c-0.246,0.477-0.519,0.94-0.765,1.417c-0.079,0.152-0.174,0.199-0.336,0.195c-0.609-0.015-1.218-0.019-1.827-0.026
		c-0.17-0.002-0.339,0-0.538,0c0.031-0.068,0.056-0.139,0.092-0.203c0.88-1.568,1.763-3.134,2.643-4.703
		c0.464-0.827,0.924-1.657,1.38-2.488c0.065-0.118,0.145-0.166,0.277-0.166c1.219,0.003,2.439,0.002,3.658,0.004
		c0.026,0,0.052,0.01,0.116,0.022V31.473z M18.07,31.462c-0.338,0.03-0.684,0.009-1.028,0.013c-0.35,0.004-0.699,0.001-1.049,0.001
		h-3.132v-7.542h5.199v2.026h-3.243v1.009h2.178v1.456h-2.171v0.998c0.549,0.02,1.084,0.007,1.618,0.009
		c0.536,0.002,1.073,0,1.628,0V31.462z M19.515,18.843c0.182,0.737,0.358,1.448,0.534,2.159c0.015,0.001,0.029,0.002,0.044,0.003
		c0.292-0.714,0.584-1.429,0.88-2.152h0.84c-0.027,0.085-0.045,0.157-0.072,0.226c-0.423,1.043-0.849,2.084-1.266,3.129
		c-0.052,0.13-0.113,0.185-0.251,0.181c-0.286-0.007-0.572-0.002-0.851-0.002c-0.131-0.284-0.893-3.326-0.893-3.544H19.515z
		 M25.121,25.998c-0.612,0.033-1.225-0.022-1.851,0.01v5.452h-2.431c-0.011-0.6-0.003-1.196-0.005-1.791
		c-0.002-0.609-0.001-1.218-0.001-1.827v-1.835h-1.85v-2.07h6.138V25.998z M25.526,18.849h0.958v2.709h1.053
		c0.039,0.268,0.022,0.529,0.016,0.811h-2.027V18.849z M31.955,31.476H29.84c-0.04-0.338-0.014-0.666-0.019-0.992
		c-0.005-0.331-0.001-0.663-0.001-0.994v-1.006h-1.655v2.982h-2.102c-0.06-0.226-0.064-7.277-0.005-7.533h2.086v3.026h1.69
		c0.009-0.349,0.003-0.676,0.004-1.003c0.001-0.34,0-0.681,0-1.021v-0.999h2.117V31.476z M32.755,19.798
		c0.012-0.287,0.17-0.518,0.393-0.707c0.538-0.454,1.459-0.411,1.932,0.1c0.188,0.203,0.3,0.442,0.3,0.726c0,0.215,0,0.43,0,0.645
		c0,0.206,0.002,0.412,0,0.618c-0.008,0.639-0.502,1.14-1.139,1.154c-0.107,0.002-0.215,0.001-0.323,0
		c-0.624-0.006-1.114-0.413-1.164-1.034C32.715,20.802,32.734,20.298,32.755,19.798z M32.933,31.458
		c-0.066-0.231-0.066-7.067,0.002-7.534h5.119c0.065,0.188,0.085,1.644,0.027,2.047h-3.221v0.986h2.16v1.47
		c-0.709,0.015-1.429-0.003-2.162,0.009v0.974h3.233c0.042,0.681-0.006,1.355,0.031,2.047H32.933z M38.142,19.71h-1.148v0.578h0.779
		v0.645h-0.798v1.434h-0.972c-0.068-0.284-0.068-3.287-0.002-3.51h2.141V19.71z M45.909,31.495
		c-0.716-0.002-1.433-0.013-2.149-0.005c-0.124,0.001-0.2-0.035-0.28-0.114c-0.396-0.39-0.799-0.771-1.189-1.166
		c-0.364-0.369-0.715-0.75-1.106-1.161c-0.105,0.257-0.053,0.451-0.062,0.638c-0.01,0.197-0.003,0.394-0.002,0.591
		c0.001,0.197,0.006,0.394,0.007,0.591c0.001,0.196,0,0.391,0,0.593h-2.113c-0.053-0.345-0.03-7.065,0.024-7.532
		c0.074-0.005,0.152-0.013,0.23-0.013c1.165-0.001,2.331-0.002,3.496,0c0.793,0.001,1.387,0.362,1.807,1.02
		c0.429,0.672,0.544,1.417,0.407,2.185c-0.122,0.688-0.526,1.202-1.145,1.54c-0.077,0.042-0.154,0.085-0.263,0.146
		c0.896,0.89,1.763,1.751,2.641,2.623C46.1,31.529,46,31.495,45.909,31.495z"/>
	<path d="M27.447,33.183c0.006-0.001,0.012-0.001,0.018-0.001c-0.013,0.001-0.024,0.002-0.035,0.003
		c-0.011,0.001-0.021,0.002-0.03,0.003C27.414,33.186,27.43,33.184,27.447,33.183z"/>
	<path d="M27.572,33.175c0.022-0.001,0.045-0.002,0.07-0.003C27.617,33.173,27.594,33.174,27.572,33.175z"/>
	<path d="M27.667,33.17c0.022-0.001,0.046-0.002,0.07-0.003C27.713,33.168,27.689,33.17,27.667,33.17z"/>
	<path d="M27.795,33.165c0.029-0.001,0.059-0.002,0.091-0.003C27.854,33.163,27.824,33.164,27.795,33.165z"/>
	<path d="M27.886,33.162c0.031-0.001,0.064-0.002,0.098-0.003C27.95,33.16,27.917,33.161,27.886,33.162z"/>
	<path d="M27.375,33.19c0.008-0.001,0.016-0.002,0.025-0.003C27.391,33.188,27.383,33.189,27.375,33.19z"/>
	<path d="M31.053,33.134c0.097,0,0.192,0.001,0.287,0.001C31.246,33.135,31.15,33.135,31.053,33.134z"/>
	<path d="M28.38,33.15c0.036-0.001,0.072-0.001,0.109-0.002C28.452,33.149,28.416,33.15,28.38,33.15z"/>
	<path d="M28.738,33.145c0.044-0.001,0.088-0.001,0.133-0.002c-0.03,0.001-0.06,0.001-0.089,0.001c-0.03,0-0.059,0.001-0.088,0.001
		c-0.029,0-0.058,0.001-0.086,0.001C28.652,33.146,28.695,33.145,28.738,33.145z"/>
	<path d="M29.615,33.136c0.034,0,0.068-0.001,0.102-0.001c-0.011,0-0.023,0-0.034,0C29.66,33.136,29.637,33.136,29.615,33.136
		c-0.068,0.001-0.135,0.001-0.201,0.001C29.48,33.137,29.547,33.136,29.615,33.136z"/>
	<path d="M31.78,33.139c0.004,0,0.008,0,0.012,0c-0.008,0-0.017,0-0.026,0c-0.027,0-0.055-0.001-0.082-0.001
		c0.024,0,0.048,0.001,0.072,0.001C31.764,33.139,31.772,33.139,31.78,33.139z"/>
	<path d="M31.888,33.14c0.027,0,0.054,0.001,0.08,0.001c-0.023,0-0.047-0.001-0.07-0.001c-0.008,0-0.016,0-0.023,0
		c-0.004,0-0.008,0-0.012,0C31.872,33.14,31.88,33.14,31.888,33.14z"/>
	<path d="M33.388,33.176c0.032,0.002,0.062,0.004,0.087,0.006v0C33.45,33.18,33.42,33.178,33.388,33.176z"/>
	<path fill="#FFFFFF" d="M33.475,33.182L33.475,33.182c-0.026-0.002-0.055-0.004-0.087-0.006
		C33.42,33.178,33.45,33.18,33.475,33.182z"/>
	<g>
		
			<linearGradient id="SVGID_00000178190306395171538660000003975493181482795433_" gradientUnits="userSpaceOnUse" x1="7.8649" y1="32.9427" x2="7.8649" y2="24.2084">
			<stop  offset="0" style="stop-color:#F3EDF4"/>
			<stop  offset="1" style="stop-color:#A595EF"/>
		</linearGradient>
		<path fill="url(#SVGID_00000178190306395171538660000003975493181482795433_)" d="M11.832,23.918
			c-1.219-0.001-2.439-0.001-3.658-0.004c-0.131,0-0.212,0.048-0.277,0.166c-0.456,0.832-0.916,1.661-1.38,2.488
			c-0.879,1.568-1.762,3.135-2.643,4.703c-0.036,0.065-0.062,0.135-0.092,0.203c0.199,0,0.368-0.002,0.538,0
			c0.609,0.007,1.218,0.011,1.827,0.026c0.162,0.004,0.257-0.043,0.336-0.195c0.246-0.477,0.519-0.94,0.765-1.417
			c0.079-0.154,0.178-0.201,0.339-0.191c0.241,0.015,0.483,0.021,0.725,0.02c0.43-0.002,0.86-0.013,1.29-0.017
			c0.068-0.001,0.135,0.015,0.228,0.027v1.744h2.117v-7.532C11.884,23.928,11.858,23.918,11.832,23.918z M9.853,28.261
			c-0.579,0.021-1.127,0.007-1.712,0.011c0.161-0.291,0.302-0.545,0.443-0.8c0.242-0.437,0.483-0.875,0.726-1.311
			c0.111-0.198,0.203-0.237,0.413-0.2c0.1,0.017,0.131,0.073,0.131,0.168C9.852,26.822,9.853,27.514,9.853,28.261z"/>
		
			<linearGradient id="SVGID_00000147927935356168487870000001485863356033686963_" gradientUnits="userSpaceOnUse" x1="42.5986" y1="32.9427" x2="42.5986" y2="24.2084">
			<stop  offset="0" style="stop-color:#F3EDF4"/>
			<stop  offset="1" style="stop-color:#A595EF"/>
		</linearGradient>
		<path fill="url(#SVGID_00000147927935356168487870000001485863356033686963_)" d="M43.57,28.808
			c0.11-0.061,0.186-0.104,0.263-0.146c0.619-0.338,1.022-0.852,1.145-1.54c0.137-0.769,0.022-1.513-0.407-2.185
			c-0.42-0.658-1.014-1.019-1.807-1.02c-1.165-0.002-2.331-0.001-3.496,0c-0.078,0-0.156,0.009-0.23,0.013
			c-0.054,0.467-0.077,7.186-0.024,7.532h2.113c0-0.202,0.001-0.397,0-0.593c-0.001-0.197-0.006-0.394-0.007-0.591
			c-0.001-0.197-0.008-0.394,0.002-0.591c0.009-0.187-0.043-0.381,0.062-0.638c0.39,0.411,0.741,0.793,1.106,1.161
			c0.39,0.395,0.793,0.776,1.189,1.166c0.08,0.079,0.156,0.115,0.28,0.114c0.716-0.008,1.433,0.003,2.149,0.005
			c0.09,0,0.191,0.034,0.303-0.065C45.334,30.559,44.466,29.697,43.57,28.808z M42.604,27.322c-0.147,0.079-0.315,0.118-0.477,0.166
			c-0.058,0.017-0.124,0.007-0.187,0.007c-0.266,0.001-0.533,0-0.809,0v-1.733c0.364,0.017,0.703,0.012,1.036,0.054
			c0.241,0.03,0.447,0.166,0.621,0.346C43.154,26.543,43.011,27.105,42.604,27.322z"/>
		
			<linearGradient id="SVGID_00000062167769620862883930000000448647811550960314_" gradientUnits="userSpaceOnUse" x1="28.9857" y1="32.9427" x2="28.9857" y2="24.2084">
			<stop  offset="0" style="stop-color:#F3EDF4"/>
			<stop  offset="1" style="stop-color:#A595EF"/>
		</linearGradient>
		<path fill="url(#SVGID_00000062167769620862883930000000448647811550960314_)" d="M28.144,26.958c0.584,0,1.119,0,1.69,0
			c0.009-0.349,0.003-0.676,0.004-1.003c0.001-0.34,0-0.681,0-1.021c0-0.329,0-0.658,0-0.999c0.721,0,1.414,0,2.117,0
			c0,2.521,0,5.023,0,7.541c-0.7,0-1.394,0-2.115,0c-0.04-0.338-0.014-0.666-0.019-0.992c-0.005-0.331-0.001-0.663-0.001-0.994
			c0-0.329,0-0.658,0-1.006c-0.55,0-1.091,0-1.655,0c0,0.994,0,1.983,0,2.982c-0.717,0-1.412,0-2.102,0
			c-0.06-0.226-0.064-7.276-0.005-7.533c0.683,0,1.369,0,2.086,0C28.144,24.936,28.144,25.942,28.144,26.958z"/>
		
			<linearGradient id="SVGID_00000162342309238200423140000004628775267749126588_" gradientUnits="userSpaceOnUse" x1="35.5025" y1="32.9427" x2="35.5025" y2="24.2084">
			<stop  offset="0" style="stop-color:#F3EDF4"/>
			<stop  offset="1" style="stop-color:#A595EF"/>
		</linearGradient>
		<path fill="url(#SVGID_00000162342309238200423140000004628775267749126588_)" d="M32.935,23.925c1.717,0,3.419,0,5.119,0
			c0.065,0.188,0.084,1.644,0.027,2.047c-1.067,0-2.136,0-3.221,0c0,0.333,0,0.651,0,0.986c0.719,0,1.432,0,2.16,0
			c0,0.488,0,0.96,0,1.47c-0.709,0.015-1.429-0.002-2.162,0.01c0,0.335,0,0.645,0,0.974c1.07,0,2.132,0,3.233,0
			c0.042,0.681-0.006,1.355,0.031,2.046c-1.74,0-3.465,0-5.188,0C32.867,31.227,32.867,24.391,32.935,23.925z"/>
		
			<linearGradient id="SVGID_00000080886970226638953100000012027431148585213626_" gradientUnits="userSpaceOnUse" x1="15.4661" y1="32.9427" x2="15.4661" y2="24.2084">
			<stop  offset="0" style="stop-color:#F3EDF4"/>
			<stop  offset="1" style="stop-color:#A595EF"/>
		</linearGradient>
		<path fill="url(#SVGID_00000080886970226638953100000012027431148585213626_)" d="M14.818,25.96c0,0.35,0,0.662,0,1.009
			c0.729,0,1.455,0,2.178,0c0,0.497,0,0.959,0,1.456c-0.717,0-1.437,0-2.171,0c0,0.343,0,0.653,0,0.998
			c0.549,0.02,1.084,0.007,1.618,0.009c0.536,0.002,1.073,0.001,1.628,0.001c0,0.677,0,1.335,0,2.03
			c-0.338,0.03-0.684,0.009-1.029,0.013c-0.349,0.004-0.699,0.001-1.049,0.001s-0.699,0-1.049,0c-0.35,0-0.699,0-1.049,0
			c-0.347,0-0.694,0-1.034,0c0-2.534,0-5.029,0-7.542c1.743,0,3.458,0,5.199,0c0,0.671,0,1.336,0,2.026c-0.337,0-0.688,0-1.04,0
			c-0.367,0-0.735,0-1.102,0C15.562,25.96,15.205,25.96,14.818,25.96z"/>
		
			<linearGradient id="SVGID_00000131351660963303068020000008527132213535524787_" gradientUnits="userSpaceOnUse" x1="22.0521" y1="32.9427" x2="22.0521" y2="24.2084">
			<stop  offset="0" style="stop-color:#F3EDF4"/>
			<stop  offset="1" style="stop-color:#A595EF"/>
		</linearGradient>
		<path fill="url(#SVGID_00000131351660963303068020000008527132213535524787_)" d="M20.834,26.006c-0.641,0-1.238,0-1.85,0
			c0-0.697,0-1.374,0-2.07c2.043,0,4.08,0,6.138,0c0,0.679,0,1.355,0,2.062c-0.612,0.033-1.225-0.023-1.851,0.009
			c0,1.823,0,3.628,0,5.452c-0.808,0-1.601,0-2.431,0c-0.011-0.601-0.004-1.196-0.005-1.791c-0.001-0.609,0-1.218,0-1.827
			C20.834,27.243,20.834,26.645,20.834,26.006z"/>
	</g>
	
		<linearGradient id="SVGID_00000129189659337657958900000008975375041591293370_" gradientUnits="userSpaceOnUse" x1="14.5632" y1="18.6601" x2="14.5632" y2="34.538">
		<stop  offset="0" style="stop-color:#F3EDF4"/>
		<stop  offset="1" style="stop-color:#A595EF"/>
	</linearGradient>
	<path fill="url(#SVGID_00000129189659337657958900000008975375041591293370_)" d="M15.08,21.207
		c0.065-0.032,0.104-0.052,0.144-0.07c0.588-0.26,0.809-0.653,0.721-1.285c-0.082-0.59-0.461-0.981-1.039-1.003
		c-0.662-0.026-1.326-0.006-2.002-0.006c-0.067,0.398-0.044,3.322,0.024,3.528h0.965c0-0.195-0.007-0.373,0.002-0.55
		c0.009-0.18-0.042-0.366,0.044-0.56c0.063,0.054,0.112,0.092,0.156,0.134c0.296,0.286,0.59,0.575,0.888,0.859
		c0.056,0.053,0.128,0.124,0.195,0.126c0.355,0.012,0.71,0.006,1.065,0.006c0.007-0.017,0.013-0.035,0.02-0.053
		C15.873,21.96,15.483,21.59,15.08,21.207z M14.835,20.376c-0.079,0.054-0.173,0.106-0.265,0.117
		c-0.202,0.026-0.407,0.025-0.649,0.037v-0.804c0.207,0,0.393-0.012,0.577,0.004c0.153,0.013,0.293,0.08,0.394,0.205
		C15.012,20.08,14.992,20.268,14.835,20.376z"/>
	
		<linearGradient id="SVGID_00000036218250567322189590000003856933269576547007_" gradientUnits="userSpaceOnUse" x1="23.1011" y1="18.6601" x2="23.1011" y2="34.538">
		<stop  offset="0" style="stop-color:#F3EDF4"/>
		<stop  offset="1" style="stop-color:#A595EF"/>
	</linearGradient>
	<path fill="url(#SVGID_00000036218250567322189590000003856933269576547007_)" d="M23.789,18.853h-1.046
		c-0.482,1.168-0.96,2.327-1.458,3.535c0.239,0,0.433,0.002,0.627-0.001c0.142-0.002,0.316,0.036,0.417-0.032
		c0.1-0.066,0.126-0.242,0.185-0.37c0.004-0.008,0.005-0.017,0.008-0.026c0.04-0.114,0.112-0.168,0.24-0.166
		c0.331,0.006,0.663,0.001,0.994,0.003c0.06,0.001,0.12,0.018,0.179,0.027c0.055,0.191,0.106,0.368,0.163,0.563h0.819
		C24.529,21.172,24.159,20.012,23.789,18.853z M22.873,21.161c0.146-0.381,0.287-0.749,0.453-1.182
		c0.194,0.41,0.239,0.801,0.395,1.182H22.873z"/>
	
		<linearGradient id="SVGID_00000000183579986405063730000003245208670556383109_" gradientUnits="userSpaceOnUse" x1="34.0569" y1="18.6601" x2="34.0569" y2="34.538">
		<stop  offset="0" style="stop-color:#F3EDF4"/>
		<stop  offset="1" style="stop-color:#A595EF"/>
	</linearGradient>
	<path fill="url(#SVGID_00000000183579986405063730000003245208670556383109_)" d="M35.381,20.561c0-0.215,0-0.43,0-0.645
		c0-0.283-0.112-0.522-0.3-0.726c-0.474-0.511-1.394-0.553-1.932-0.1c-0.223,0.188-0.381,0.419-0.393,0.707
		c-0.021,0.5-0.04,1.004,0,1.501c0.05,0.621,0.54,1.028,1.164,1.034c0.108,0.001,0.215,0.002,0.323,0
		c0.637-0.014,1.131-0.514,1.139-1.154C35.383,20.974,35.381,20.767,35.381,20.561z M34.512,21.159
		c-0.007,0.211-0.227,0.381-0.449,0.385c-0.232,0.005-0.451-0.187-0.471-0.429c-0.013-0.16-0.003-0.322-0.003-0.483
		c0-0.161-0.009-0.323,0.002-0.483c0.025-0.356,0.345-0.554,0.674-0.416c0.139,0.058,0.239,0.165,0.242,0.326
		C34.514,20.426,34.524,20.793,34.512,21.159z"/>
	
		<linearGradient id="SVGID_00000083775659935145623190000010819398273946019990_" gradientUnits="userSpaceOnUse" x1="20.1459" y1="18.6601" x2="20.1459" y2="34.538">
		<stop  offset="0" style="stop-color:#F3EDF4"/>
		<stop  offset="1" style="stop-color:#A595EF"/>
	</linearGradient>
	<path fill="url(#SVGID_00000083775659935145623190000010819398273946019990_)" d="M18.479,18.843c0.344,0,0.687,0,1.036,0
		c0.182,0.737,0.358,1.448,0.534,2.159c0.015,0.001,0.029,0.002,0.044,0.003c0.292-0.714,0.584-1.429,0.88-2.152
		c0.276,0,0.542,0,0.84,0c-0.027,0.085-0.045,0.157-0.072,0.226c-0.423,1.043-0.849,2.084-1.266,3.129
		c-0.052,0.13-0.113,0.185-0.251,0.181c-0.286-0.007-0.572-0.002-0.851-0.002C19.241,22.103,18.479,19.061,18.479,18.843z"/>
	
		<linearGradient id="SVGID_00000135665908413747888710000005974614895305971349_" gradientUnits="userSpaceOnUse" x1="29.3262" y1="18.6601" x2="29.3262" y2="34.538">
		<stop  offset="0" style="stop-color:#F3EDF4"/>
		<stop  offset="1" style="stop-color:#A595EF"/>
	</linearGradient>
	<path fill="url(#SVGID_00000135665908413747888710000005974614895305971349_)" d="M28.116,18.853c0.81,0,1.594,0,2.4,0
		c0,0.26,0,0.516,0,0.805c-0.429,0-0.87,0-1.367,0c0.09,0.133,0.144,0.22,0.205,0.302c0.352,0.474,0.703,0.95,1.061,1.42
		c0.086,0.113,0.129,0.229,0.124,0.37c-0.007,0.196-0.002,0.393-0.002,0.583c-0.203,0.066-2.078,0.08-2.404,0.02
		c0-0.252,0-0.507,0-0.802c0.433-0.004,0.867,0,1.334-0.003c-0.036-0.076-0.053-0.133-0.087-0.178
		c-0.367-0.495-0.732-0.992-1.11-1.48c-0.111-0.143-0.168-0.285-0.157-0.466C28.125,19.24,28.116,19.053,28.116,18.853z"/>
	
		<linearGradient id="SVGID_00000037666790191540585260000010638375651309511826_" gradientUnits="userSpaceOnUse" x1="37.0472" y1="18.6601" x2="37.0472" y2="34.538">
		<stop  offset="0" style="stop-color:#F3EDF4"/>
		<stop  offset="1" style="stop-color:#A595EF"/>
	</linearGradient>
	<path fill="url(#SVGID_00000037666790191540585260000010638375651309511826_)" d="M37.774,20.288c0,0.227,0,0.419,0,0.645
		c-0.263,0-0.518,0-0.798,0c0,0.493,0,0.953,0,1.434c-0.342,0-0.659,0-0.972,0c-0.068-0.284-0.068-3.287-0.002-3.51
		c0.71,0,1.42,0,2.14,0c0,0.29,0,0.562,0,0.853c-0.39,0-0.761,0-1.148,0c0,0.194,0,0.369,0,0.578
		C37.252,20.288,37.506,20.288,37.774,20.288z"/>
	
		<linearGradient id="SVGID_00000085220852208672361280000009086368210625642398_" gradientUnits="userSpaceOnUse" x1="26.5441" y1="18.6601" x2="26.5441" y2="34.538">
		<stop  offset="0" style="stop-color:#F3EDF4"/>
		<stop  offset="1" style="stop-color:#A595EF"/>
	</linearGradient>
	<path fill="url(#SVGID_00000085220852208672361280000009086368210625642398_)" d="M25.526,22.368c0-1.182,0-2.344,0-3.519
		c0.321,0,0.63,0,0.958,0c0,0.904,0,1.795,0,2.709c0.353,0,0.688,0,1.053,0c0.039,0.268,0.021,0.529,0.016,0.81
		C26.874,22.368,26.215,22.368,25.526,22.368z"/>
	
		<linearGradient id="SVGID_00000048487386535926333310000001727349427813388680_" gradientUnits="userSpaceOnUse" x1="17.2778" y1="18.6601" x2="17.2778" y2="34.538">
		<stop  offset="0" style="stop-color:#F3EDF4"/>
		<stop  offset="1" style="stop-color:#A595EF"/>
	</linearGradient>
	<path fill="url(#SVGID_00000048487386535926333310000001727349427813388680_)" d="M16.802,22.366
		c-0.017-1.174-0.034-2.326-0.05-3.468c0.211-0.071,0.713-0.083,1.053-0.032c0,1.157,0,2.317,0,3.499
		C17.488,22.366,17.162,22.366,16.802,22.366z"/>
	<path fill="#1A1047" d="M9.853,28.261c-0.579,0.021-1.127,0.007-1.712,0.011c0.161-0.291,0.302-0.545,0.443-0.799
		c0.242-0.437,0.483-0.875,0.726-1.311c0.111-0.198,0.203-0.237,0.413-0.2c0.1,0.017,0.131,0.073,0.13,0.168
		C9.852,26.822,9.853,27.514,9.853,28.261z"/>
	<path fill="#1A1047" d="M41.131,25.763c0.364,0.017,0.703,0.012,1.036,0.054c0.241,0.03,0.447,0.166,0.621,0.346
		c0.366,0.379,0.223,0.942-0.183,1.159c-0.147,0.078-0.316,0.118-0.477,0.166c-0.058,0.017-0.124,0.007-0.187,0.007
		c-0.266,0.001-0.533,0-0.809,0C41.131,26.925,41.131,26.374,41.131,25.763z"/>
	<path fill="#1A1047" d="M13.921,20.53c0-0.292,0-0.544,0-0.804c0.207,0,0.393-0.012,0.578,0.004
		c0.153,0.013,0.293,0.08,0.394,0.205c0.119,0.145,0.099,0.334-0.058,0.442c-0.079,0.054-0.173,0.106-0.265,0.117
		C14.368,20.519,14.163,20.518,13.921,20.53z"/>
	<path d="M23.721,21.161c-0.298,0-0.554,0-0.848,0c0.146-0.381,0.287-0.749,0.453-1.182C23.521,20.388,23.566,20.779,23.721,21.161z
		"/>
	<path fill="#1A1047" d="M33.589,20.632c0-0.161-0.009-0.323,0.002-0.483c0.025-0.356,0.345-0.554,0.674-0.416
		c0.139,0.058,0.239,0.165,0.242,0.326c0.007,0.367,0.017,0.734,0.005,1.1c-0.007,0.211-0.227,0.381-0.449,0.385
		c-0.232,0.005-0.451-0.187-0.471-0.429C33.578,20.956,33.589,20.794,33.589,20.632z"/>
</g>
</svg>
