<?xml version="1.0" encoding="utf-8"?>
<!-- Generator: Adobe Illustrator 26.0.0, SVG Export Plug-In . SVG Version: 6.00 Build 0)  -->
<svg version="1.0" id="Layer_1" xmlns="http://www.w3.org/2000/svg" xmlns:xlink="http://www.w3.org/1999/xlink" x="0px" y="0px"
	 viewBox="0 0 50 50" enable-background="new 0 0 50 50" xml:space="preserve">
<g>
	<path fill="#251F54" d="M24.349,33.664c-1.143,0-2.254-0.006-3.365,0.008c-0.116,0.001-0.253,0.097-0.343,0.186
		c-0.423,0.423-0.833,0.859-1.249,1.289c-0.509,0.526-1.017,1.052-1.528,1.576c-0.139,0.142-0.27,0.298-0.43,0.412
		c-0.355,0.252-0.212,0.57-0.072,0.821c0.131,0.234,0.008,0.354-0.124,0.399c-0.235,0.079-0.499,0.12-0.745,0.101
		c-0.209-0.017-0.366-0.019-0.515,0.15c-0.184,0.209-0.392,0.398-0.59,0.596c-0.312,0.312-0.621,0.629-0.941,0.933
		c-0.061,0.058-0.167,0.098-0.252,0.098c-2.037,0.005-4.073,0.003-6.11,0.007c-0.122,0-0.187-0.035-0.226-0.154
		c-0.072-0.219-0.166-0.43-0.24-0.648c-0.042-0.123-0.105-0.152-0.218-0.094c-0.081,0.041-0.208,0.01-0.157,0.196
		c0.056,0.205,0.136,0.498,0.039,0.631c-0.258,0.353-0.317,0.921-0.933,0.949c-0.039,0.779,0.074,1.507,0.454,2.181
		c0.022,0.038,0.083,0.075,0.128,0.077c0.429,0.018,0.513,0.13,0.386,0.542c0.426,0.37,0.933,0.482,1.482,0.427
		c0.086-0.009,0.187-0.082,0.241-0.155c0.309-0.415,0.662-0.777,1.151-0.974c0.162-0.065,0.337-0.096,0.52-0.146
		c0.238-0.833-0.396-1.333-1.543-1.186c-0.006-0.022-0.011-0.045-0.017-0.067c0.314-0.079,0.628-0.158,0.945-0.237
		c-0.069-0.543-0.16-0.604-1.067-0.712c0.175-0.039,0.348-0.095,0.525-0.114c0.66-0.072,1.31-0.06,1.888,0.335
		c0.099,0.068,0.194,0.15,0.269,0.242c0.224,0.277,0.176,0.55-0.133,0.733c-0.137,0.081-0.292,0.132-0.456,0.205
		c0.325,0.482,0.334,1.008,0.143,1.54c-0.184,0.512-0.498,0.934-0.936,1.269c-0.419,0.32-0.874,0.531-1.395,0.634
		c-0.359,0.071-0.697,0.244-1.052,0.341c-0.341,0.093-0.614-0.051-0.76-0.352c-0.014-0.029-0.053-0.053-0.085-0.064
		c-0.79-0.274-1.412-0.774-1.889-1.422C4.47,44.5,3.813,44.774,3.146,45.052c-0.126-0.487-0.304-0.913-0.334-1.349
		c-0.053-0.785,0.28-1.172,1.041-1.374c0.03-0.008,0.057-0.028,0.104-0.053c-0.155-0.259-0.201-0.508,0.073-0.724
		c0.036-0.029,0.032-0.118,0.034-0.18c0.03-1.383,0.361-2.682,1.082-3.872c0.067-0.11,0.158-0.205,0.22-0.317
		c0.126-0.231,0.225-0.477,0.363-0.7c0.164-0.265,0.33-0.54,0.548-0.757c0.139-0.139,0.374-0.181,0.616-0.288
		c-0.219-0.537-0.455-1.124-0.699-1.708c-0.028-0.067-0.095-0.133-0.16-0.166c-1.009-0.499-2.059-0.699-3.165-0.38
		c-0.218,0.063-0.421,0.181-0.646,0.28c0.555-1.323,1.891-2.244,3.373-1.795c0.777,0.235,1.075,0.863,0.962,1.57
		c-0.045,0.281,0.015,0.464,0.191,0.685c0.313,0.392,0.564,0.833,0.836,1.245c0.35-0.172,0.778-0.345,1.164-0.585
		c0.245-0.152,0.426-0.407,0.638-0.613c0.522-0.507,1.049-1.01,1.568-1.521c0.609-0.601,1.208-1.212,1.817-1.813
		c0.671-0.662,1.345-1.321,2.026-1.973c0.129-0.124,0.129-0.212,0.018-0.339c-0.494-0.564-1.095-0.973-1.794-1.236
		c-0.527-0.199-1.067-0.368-1.585-0.588c-0.773-0.327-1.327-0.887-1.678-1.657c-0.233-0.511-0.487-1.013-0.762-1.503
		c-0.154-0.274-0.443-0.374-0.75-0.387c-0.253-0.011-0.507-0.002-0.764-0.028c0.655-0.441,1.347-0.758,2.171-0.801
		c0.033-0.551-0.255-0.946-0.688-1.35c0.243,0,0.418-0.025,0.584,0.004c0.813,0.142,1.584,0.418,2.185,0.994
		c0.711,0.681,1.554,0.67,2.418,0.55c0.595-0.083,1.179-0.247,1.767-0.38c0.073-0.016,0.139-0.063,0.23-0.106
		c-1.144-0.695-1.937-1.598-2.122-2.991c0.645,0.342,1.28,0.577,1.964,0.6c0.234,0.008,0.472-0.107,0.707-0.191
		c-0.834-0.358-1.592-0.825-2.258-1.408c-0.344-0.301-0.595-0.728-0.825-1.134c-0.324-0.571-0.601-1.168-1.164-1.555
		c-0.096-0.066-0.201-0.117-0.362-0.21c0.915-0.055,1.753-0.045,2.556,0.348c0.098-0.455-0.037-0.819-0.251-1.166
		c-0.334-0.543-0.806-0.943-1.376-1.2c-0.818-0.369-1.66-0.688-2.488-1.036c-0.255-0.107-0.485-0.24-0.665-0.479
		c-0.29-0.385-0.628-0.733-0.95-1.101c0.908-0.049,1.842,0.064,2.81-0.105c-0.262-0.409-0.529-0.753-0.915-0.991
		c-0.383-0.236-0.806-0.302-1.249-0.349C9.003,8.813,8.447,8.69,7.899,8.556C7.425,8.439,6.963,8.269,6.47,8.114
		c0.427-0.131,0.817-0.239,1.2-0.371c0.51-0.175,0.879-0.56,1.282-0.893c0.301-0.249,0.664-0.355,1.038-0.384
		c1.129-0.09,2.132,0.239,3.001,0.967c0.116,0.097,0.237,0.19,0.356,0.285c0.261-0.295,0.223-0.947-0.09-1.519
		c0.306-0.061,1.016,0.163,1.554,0.533c0.464,0.319,0.902,0.675,1.356,1.019c-0.013-1.541-0.916-3.08-2.64-3.437
		c0.974-0.092,1.908,0.089,2.841,0.381c0.934,0.292,1.744,0.805,2.606,1.336c0-0.347,0-0.656,0-1.002
		c0.261,0.056,0.57,0.067,0.827,0.188c0.66,0.309,1.315,0.639,1.939,1.015c0.482,0.29,0.915,0.663,1.396,1.018
		c0.012-0.368-0.177-0.615-0.35-0.873c1.745,0.668,3.159,1.732,4.142,3.363c0.34-0.327,0.415-0.757,0.529-1.188
		c0.638,0.4,1.17,0.897,1.519,1.563c0.22,0.42,0.378,0.874,0.606,1.29c0.3,0.546,0.83,0.821,1.383,1.043
		c0.162,0.065,0.485-0.284,0.452-0.465c-0.088-0.493-0.298-0.935-0.566-1.351c-0.258-0.4-0.351-0.84-0.411-1.308
		c-0.062-0.483,0.012-0.944,0.067-1.426c0.265,0.338,0.498,0.671,0.768,0.97c0.322,0.358,0.68,0.684,1.016,1.03
		c0.334,0.344,0.762,0.504,1.202,0.655c0.581,0.199,1.089,0.501,1.499,0.984c0.457,0.537,0.956,1.044,1.615,1.344
		c0.569,0.259,1.161,0.419,1.794,0.455c0.553,0.032,1.067-0.055,1.586-0.239c0.626-0.221,1.092-0.624,1.486-1.134
		c0.554-0.716,0.806-1.541,0.799-2.431c-0.006-0.787-0.233-1.505-0.727-2.157c-0.399-0.527-0.866-0.904-1.479-1.127
		c-0.703-0.256-1.36-0.109-1.998,0.21c-0.646,0.323-1.071,0.835-1.172,1.555c-0.101,0.715-0.066,1.408,0.468,1.995
		c0.465,0.512,1.494,0.504,2.011,0.118c0.63-0.471,0.673-1.315,0.46-1.884c-0.118-0.315-0.486-0.468-0.874-0.405
		c0.148,0.042,0.313,0.067,0.458,0.134c0.375,0.175,0.417,0.544,0.406,0.88c-0.015,0.469-0.2,0.875-0.629,1.144
		c-0.713,0.448-1.654,0.111-1.893-0.634c-0.152-0.475-0.175-0.934-0.039-1.41c0.177-0.619,0.606-1.005,1.179-1.223
		c0.475-0.18,0.976-0.233,1.474-0.058c0.616,0.217,1.052,0.639,1.361,1.207c0.332,0.61,0.541,1.251,0.449,1.951
		c-0.042,0.318-0.131,0.635-0.242,0.936c-0.263,0.711-0.699,1.274-1.388,1.647c-1.013,0.548-2.019,0.452-3.01,0
		c-0.408-0.186-0.82-0.431-1.13-0.747c-0.428-0.436-0.73-0.983-0.881-1.593c-0.221-0.892-0.156-1.776,0.104-2.646
		c0.221-0.739,0.565-1.428,1.101-1.987c0.348-0.363,0.743-0.682,1.215-0.903c0.527-0.248,1.047-0.525,1.63-0.578
		c0.589-0.053,1.186-0.037,1.779-0.03c0.627,0.008,1.208,0.228,1.745,0.518c0.491,0.266,0.963,0.587,1.389,0.947
		c0.615,0.52,1.133,1.134,1.528,1.847c0.393,0.71,0.624,1.457,0.651,2.272c0.028,0.852-0.105,1.677-0.399,2.472
		c-0.173,0.468-0.397,0.918-0.599,1.376c-0.064,0.146-0.13,0.291-0.193,0.437c-0.087,0.201-0.205,0.344-0.429,0.437
		c-0.944,0.391-1.414,1.1-1.409,2.138c0.002,0.456,0.074,0.88,0.316,1.26c0.202,0.318,0.499,0.53,0.875,0.609
		c0.499,0.106,0.968,0.01,1.33-0.344c0.193-0.188,0.322-0.46,0.426-0.716c0.167-0.412,0.129-0.827-0.1-1.219
		c-0.183-0.313-0.66-0.507-0.944-0.349c-0.245,0.136-0.427,0.344-0.515,0.623c0.199,0.156,0.275-0.016,0.328-0.13
		c0.19-0.402,0.842-0.285,0.956,0.06c0.049,0.15,0.104,0.307,0.106,0.461c0.007,0.497-0.296,1.135-0.888,1.268
		c-0.592,0.132-0.978,0.019-1.291-0.499c-0.547-0.906-0.19-2.356,0.98-2.776c1.243-0.446,2.315,0.318,2.706,1.283
		c0.218,0.537,0.339,1.104,0.296,1.687c-0.056,0.749-0.288,1.421-0.82,1.992c-0.491,0.526-1.058,0.839-1.774,0.894
		c-0.06,0.005-0.156,0.059-0.164,0.102c-0.009,0.052,0.05,0.125,0.094,0.176c0.433,0.502,0.785,1.058,0.9,1.714
		c0.153,0.869-0.017,1.689-0.467,2.46c-0.351,0.601-0.869,1.022-1.393,1.451c-0.231,0.189-0.41,0.441-0.61,0.667
		c-0.132,0.15-0.27,0.298-0.385,0.461c-0.325,0.459-0.45,0.981-0.437,1.535c0.003,0.118,0.057,0.249,0.126,0.348
		c0.386,0.56,0.518,1.164,0.415,1.84c-0.075,0.498-0.212,0.955-0.601,1.292c-0.336,0.291-0.688,0.541-1.134,0.683
		c-0.454,0.144-0.885,0.39-1.293,0.646c-0.319,0.2-0.479,0.552-0.591,0.911c-0.156,0.502-0.296,0.999-0.2,1.543
		c0.099,0.562,0.44,0.864,0.946,1.022c0.643,0.201,1.3,0.362,1.935,0.585c1.091,0.382,1.857,1.123,2.348,2.174
		c0.25,0.535,0.368,1.094,0.369,1.663c0.002,0.865-0.268,1.667-0.785,2.367c-0.574,0.777-1.33,1.284-2.274,1.528
		c-1.249,0.323-2.373,0.046-3.4-0.675c-0.671-0.47-1.125-1.112-1.416-1.89c-0.315-0.845-0.78-1.612-1.525-2.156
		c-0.989-0.723-1.825-0.746-2.849-0.072c-0.741,0.488-1.295,1.171-1.68,1.97c-0.167,0.346-0.247,0.734-0.369,1.103
		c-0.238,0.721-1.137,1.216-1.869,1.052c-1.05-0.235-1.496-1.104-1.377-1.964c0.031-0.228,0.125-0.47,0.259-0.656
		c0.387-0.536,0.095-1.039-0.256-1.331c-0.607-0.506-1.327-0.731-2.117-0.743c-0.273-0.004-0.547-0.022-0.818-0.052
		c-0.068-0.007-0.161-0.071-0.186-0.132c-0.381-0.942-0.754-1.886-1.124-2.833c-0.023-0.058-0.015-0.139,0.005-0.201
		c0.263-0.808,0.533-1.613,0.797-2.421C24.153,34.327,24.245,34.006,24.349,33.664z M26.976,30.559
		c-0.708,2.199-1.409,4.376-2.114,6.562c0.063,0.004,0.111,0.01,0.159,0.01c3.521,0,7.043,0,10.564,0.003
		c0.142,0,0.216-0.04,0.267-0.176c0.188-0.497,0.391-0.988,0.583-1.483c0.153-0.396,0.298-0.795,0.462-1.231
		c-2.509,0-4.983,0-7.474,0c0.386-1.179,0.763-2.324,1.134-3.471c0.052-0.16,0.128-0.219,0.306-0.219
		c2.15,0.007,4.3,0.003,6.45,0.008c0.161,0,0.242-0.04,0.299-0.199c0.262-0.72,0.538-1.435,0.812-2.151
		c0.065-0.17,0.139-0.336,0.221-0.532c-2.371,0-4.705,0-7.042,0c0.008-0.066,0.007-0.117,0.022-0.162
		c0.346-1.065,0.698-2.128,1.036-3.195c0.058-0.182,0.132-0.246,0.331-0.245c1.899,0.009,3.797,0.005,5.696,0.005
		c0.657,0,1.314-0.005,1.972,0.003c0.147,0.002,0.209-0.049,0.257-0.185c0.161-0.457,0.333-0.909,0.508-1.361
		c0.165-0.426,0.339-0.849,0.52-1.299c-2.78,0-5.525,0-8.304,0c0.806-2.536,1.604-5.046,2.412-7.588c-0.108,0-0.194,0-0.28,0
		c-1.055,0-2.11,0.006-3.164-0.005c-0.206-0.002-0.353,0.074-0.488,0.207c-0.836,0.82-1.675,1.637-2.508,2.46
		c-0.845,0.836-1.68,1.683-2.528,2.516c-0.472,0.464-0.97,0.901-1.445,1.362c-0.824,0.798-1.64,1.605-2.46,2.408
		c-0.802,0.786-1.606,1.57-2.407,2.356c-0.94,0.923-1.877,1.848-2.818,2.771c-0.662,0.65-1.328,1.295-1.991,1.944
		c-0.849,0.83-1.696,1.661-2.545,2.492c-0.692,0.677-1.385,1.353-2.076,2.031c-0.94,0.922-1.879,1.846-2.818,2.77
		c-0.041,0.041-0.074,0.091-0.132,0.164c1.573,0,3.105,0.001,4.638-0.004c0.069,0,0.154-0.048,0.205-0.099
		c0.915-0.924,1.827-1.852,2.739-2.779c1.174-1.193,2.348-2.386,3.527-3.575c0.06-0.061,0.164-0.11,0.248-0.11
		C22.142,30.558,24.535,30.559,26.976,30.559z"/>
	<path fill="#251F54" d="M6.58,14.565c0.748,0.179,1.544,0.241,2.111,0.845c0.451,0.48,1.002,0.731,1.638,0.84
		c0.396,0.068,0.798,0.123,1.179,0.243c0.736,0.232,1.376,0.887,1.356,1.741c-0.017,0.725-0.515,1.379-1.113,1.455
		c-0.597,0.076-1.136-0.088-1.62-0.428c-0.508-0.358-0.89-0.837-1.084-1.418c-0.185-0.553-0.559-0.946-0.918-1.37
		c-0.212-0.25-0.408-0.526-0.55-0.819C7.352,15.186,7.101,14.761,6.58,14.565z"/>
	<path fill="#251F54" d="M40.563,36.282c0.624-0.653,1.205-1.357,1.887-1.942c0.48-0.411,1.091-0.674,1.657-0.978
		c0.419-0.225,0.875-0.337,1.356-0.375c0.81-0.063,1.651,0.83,1.644,1.624c-0.007,0.773-0.611,1.475-1.255,1.604
		c-0.542,0.109-1.041,0.017-1.473-0.342c-0.36-0.3-0.787-0.341-1.226-0.328c-0.851,0.025-1.577,0.466-2.36,0.719
		c-0.06,0.019-0.117,0.045-0.175,0.068C40.599,36.317,40.581,36.3,40.563,36.282z"/>
	<path fill="#251F54" d="M25.242,4.692c0.726,0.356,1.414,0.691,1.758,1.426c0.101,0.216,0.107,0.478,0.144,0.72
		c0.051,0.332,0.09,0.666,0.144,1.07c-0.339-0.102-0.639-0.178-0.929-0.282C25.596,7.351,25.23,6.853,25.434,6.1
		C25.562,5.628,25.45,5.177,25.242,4.692z"/>
	<path fill="#251F54" d="M8.432,21.559c-0.467,0.122-0.92,0.254-1.38,0.357c-0.358,0.08-0.841-0.204-1.049-0.556
		c-0.191-0.324-0.388-0.647-0.614-0.947c-0.104-0.138-0.284-0.22-0.465-0.355c0.625-0.033,1.199-0.193,1.787-0.02
		c0.398,0.117,0.735,0.296,0.985,0.645C7.905,20.974,8.157,21.235,8.432,21.559z"/>
	<path fill="#FFFFFF" d="M26.976,30.559c-2.441,0-4.835-0.001-7.228,0.005c-0.084,0-0.188,0.05-0.248,0.11
		c-1.179,1.188-2.353,2.382-3.527,3.575c-0.913,0.927-1.824,1.855-2.739,2.779c-0.051,0.051-0.136,0.099-0.205,0.099
		c-1.533,0.006-3.065,0.004-4.638,0.004c0.058-0.073,0.091-0.123,0.132-0.164c0.939-0.924,1.878-1.847,2.818-2.77
		c0.691-0.678,1.384-1.354,2.076-2.031c0.848-0.83,1.696-1.662,2.545-2.492c0.663-0.649,1.329-1.294,1.991-1.944
		c0.94-0.922,1.877-1.848,2.818-2.771c0.801-0.787,1.605-1.571,2.407-2.356c0.82-0.803,1.636-1.61,2.46-2.408
		c0.476-0.46,0.973-0.898,1.445-1.362c0.849-0.833,1.683-1.68,2.528-2.516c0.833-0.823,1.672-1.64,2.508-2.46
		c0.136-0.133,0.282-0.209,0.488-0.207c1.055,0.011,2.11,0.005,3.164,0.005c0.086,0,0.172,0,0.28,0
		c-0.808,2.542-1.606,5.053-2.412,7.588c2.78,0,5.525,0,8.304,0c-0.181,0.451-0.355,0.873-0.52,1.299
		c-0.175,0.451-0.347,0.904-0.508,1.361c-0.048,0.135-0.11,0.186-0.257,0.185c-0.657-0.008-1.314-0.003-1.972-0.003
		c-1.899,0-3.797,0.004-5.696-0.005c-0.199-0.001-0.273,0.063-0.331,0.245c-0.338,1.067-0.69,2.13-1.036,3.195
		c-0.015,0.045-0.013,0.096-0.022,0.162c2.336,0,4.67,0,7.042,0c-0.082,0.196-0.156,0.362-0.221,0.532
		c-0.274,0.716-0.55,1.431-0.812,2.151c-0.058,0.159-0.138,0.199-0.299,0.199c-2.15-0.005-4.3-0.001-6.45-0.008
		c-0.178-0.001-0.254,0.059-0.306,0.219c-0.371,1.147-0.748,2.292-1.134,3.471c2.491,0,4.965,0,7.474,0
		c-0.163,0.437-0.308,0.836-0.462,1.231c-0.192,0.495-0.395,0.986-0.583,1.483c-0.051,0.136-0.125,0.176-0.267,0.176
		c-3.521-0.004-7.043-0.003-10.564-0.003c-0.048,0-0.096-0.006-0.159-0.01C25.567,34.935,26.268,32.758,26.976,30.559z
		 M22.477,27.664c1.823,0,3.611,0,5.43,0c0.876-2.703,1.755-5.417,2.634-8.13c-0.012-0.008-0.024-0.017-0.036-0.025
		C27.836,22.22,25.168,24.93,22.477,27.664z"/>
	<path fill="#251F54" d="M22.477,27.664c2.691-2.734,5.359-5.445,8.028-8.155c0.012,0.008,0.024,0.017,0.036,0.025
		c-0.879,2.714-1.758,5.427-2.634,8.13C26.088,27.664,24.3,27.664,22.477,27.664z"/>
</g>
</svg>
