<?xml version="1.0" encoding="utf-8"?>
<!-- Generator: Adobe Illustrator 26.0.0, SVG Export Plug-In . SVG Version: 6.00 Build 0)  -->
<svg version="1.1" id="Layer_1" xmlns="http://www.w3.org/2000/svg" xmlns:xlink="http://www.w3.org/1999/xlink" x="0px" y="0px"
	 viewBox="0 0 48 48" style="enable-background:new 0 0 48 48;" xml:space="preserve">
<style type="text/css">
	.st0{fill:#C2AE5F;}
</style>
<path class="st0" d="M23,1.9C19.3,2,15.8,3,12.8,4.8h5.5c4.2,0,9.6,1.6,9.6,6.7c0,2.8-1,6-3.8,7.7c0.3,0.8,0.6,1.2,1,1.9
	c0.6-1.3,3-2.8,4.8-2.9h7.7V25c-0.1,0-0.1,0-0.2-0.1c-0.4-1.7-3-3.7-6.1-3.7c-1.4,0-2.4,0.8-2.4,1.9c0,1.3,0.8,1.9,1.9,2.9
	c1.6,1.3,5,3.6,5.8,4.1c1.7,1,3.2,2.4,3.6,4.3c0.1,0.5,0.2,1.1,0.2,1.7h0v1.1c5.6-6.6,7.2-18.2,0-27.1C35.7,4.2,29.2,1.8,23,1.9z
	 M10.3,6.5C5.3,10.2,1.9,16.4,1.9,23c0,3.8,0.8,7.7,2.9,11.4c1.5,2.7,3.6,4.9,6.1,6.7c2.5,1.8,5.3,3,8.3,3.6
	c1.3,0.3,3.1,0.4,4.7,0.4c-2-1.3-3.8-3.5-3.8-6.7c0-3.8,2.6-5.8,4.8-5.8c0.8,0,1.9,0.3,1.9,1.4c0,2-2.3,2.4-2.9,2.4
	c-0.5,0-1,1.3-1,2.4c0,1.7,1.3,2.8,2.8,3.5c2.1,1,4,1,6.1,0.2c1-0.4,1.9-0.9,2.5-1.8c1.3-1.8,1.4-3.8-0.1-5.6c-0.8-1-1.9-1.9-3-2.5
	c-2.1-1.2-3.9-2.4-5.8-3.9c-1.9-1.5-3.7-3.1-5.1-5c-1-1.4-1.8-2.9-2.2-4.7c-0.1-0.4-0.1-0.4,0.3-0.5c1.3-0.2,2.4-0.8,3.2-1.8
	c1.1-1.3,1.3-2.6,1.3-4.3c0-2.1-1.5-4.2-3.5-5.3c-1-0.5-2.1-0.6-3.2-0.3c-0.5,0.1-0.9,0.2-0.9,0.8v20.7c0,1.3,0.8,1.6,1.9,2.1
	c0.1,0,0.2,0.1,0.3,0.1c0,0,0,0,0,0.1H8.7c0.1-0.1,0.2-0.2,0.4-0.3c0.8-0.4,1.5-1.2,1.5-2.1V7.7C10.6,7.4,10.4,6.8,10.3,6.5z"/>
</svg>
