<?xml version="1.0" encoding="utf-8"?>
<!-- Generator: Adobe Illustrator 26.0.0, SVG Export Plug-In . SVG Version: 6.00 Build 0)  -->
<svg version="1.0" id="Layer_1" xmlns="http://www.w3.org/2000/svg" xmlns:xlink="http://www.w3.org/1999/xlink" x="0px" y="0px"
	 viewBox="0 0 50 50" enable-background="new 0 0 50 50" xml:space="preserve">
<g>
	<path fill="#78E7FE" d="M43.86,16.345h-3.63c-1.56-6.66-7.55-11.63-14.7-11.63c-7.14,0-13.13,4.97-14.69,11.63H7.21
		c-0.01,0.2-0.01,0.41-0.01,0.62c0,10.13,8.21,18.34,18.33,18.34c10.13,0,18.34-8.21,18.34-18.34
		C43.87,16.755,43.87,16.545,43.86,16.345z M25.31,30.765c-2.33,0-4.21-1.89-4.21-4.21c0-2.33,1.88-4.22,4.21-4.22
		c2.32,0,4.21,1.89,4.21,4.22C29.52,28.875,27.63,30.765,25.31,30.765z M33.42,27.465c0.03-0.3,0.05-0.6,0.05-0.91
		c0-4.51-3.65-8.17-8.16-8.17s-8.17,3.66-8.17,8.17c0,0.12,0,0.24,0.01,0.36c-1.62-1.91-2.6-4.38-2.6-7.09
		c0-1.22,0.2-2.39,0.57-3.48c1.45-4.36,5.57-7.5,10.41-7.5c4.85,0,8.97,3.14,10.42,7.5c0.37,1.09,0.57,2.26,0.57,3.48
		C36.52,22.805,35.34,25.485,33.42,27.465z"/>
	<path fill="#78E7FE" d="M12.28,32.895H2.64l4.17-7.07C8.1,28.565,9.98,30.975,12.28,32.895z"/>
	<path fill="#78E7FE" d="M20.46,37.065l-8.04,4.44v-8.5C14.74,34.905,17.47,36.305,20.46,37.065z"/>
	<path fill="#78E7FE" d="M30.07,37.195l-4.54,8.09l-4.31-8.05c1.39,0.29,2.83,0.45,4.31,0.45
		C27.09,37.685,28.61,37.515,30.07,37.195z"/>
	<path fill="#78E7FE" d="M37.92,33.575v7.93l-7.13-4.49C33.41,36.325,35.82,35.145,37.92,33.575z"/>
	<path fill="#78E7FE" d="M47.36,32.555l-8.63,0.39c2.3-1.91,4.19-4.31,5.49-7.03L47.36,32.555z"/>
</g>
</svg>
