<?xml version="1.0" encoding="utf-8"?>
<!-- Generator: Adobe Illustrator 26.0.0, SVG Export Plug-In . SVG Version: 6.00 Build 0)  -->
<svg version="1.0" id="Layer_1" xmlns="http://www.w3.org/2000/svg" xmlns:xlink="http://www.w3.org/1999/xlink" x="0px" y="0px"
	 viewBox="0 0 50 50" enable-background="new 0 0 50 50" xml:space="preserve">
<g>
	<g>
		<linearGradient id="SVGID_1_" gradientUnits="userSpaceOnUse" x1="25" y1="239.3333" x2="25" y2="0.2164">
			<stop  offset="0" style="stop-color:#18365B"/>
			<stop  offset="1" style="stop-color:#53CFC2"/>
		</linearGradient>
		<path fill="url(#SVGID_1_)" d="M24.952,2.995c1.384,0.241,2.782,0.437,4.151,0.756c0.37,0.086,0.918,0.542,0.924,0.838
			c0.017,0.862,0.579,1.051,1.17,1.348c4.726,2.375,7.547,6.201,8.535,11.374c0.145,0.762,0.397,1.185,1.209,1.359
			c1.359,0.291,1.873,1.035,1.768,2.41c-0.113,1.474-0.256,2.947-0.439,4.414c-0.196,1.57-1.473,2.148-2.832,1.321
			c-1.206-0.735-2.398-1.495-3.624-2.196c-0.477-0.273-0.59-0.568-0.525-1.108c0.259-2.153,0.472-4.312,0.67-6.471
			c0.12-1.316-0.364-1.704-1.627-1.249c-0.891,0.321-1.772,0.714-2.588,1.194c-2.066,1.215-4.104,2.478-6.125,3.768
			c-0.49,0.313-0.81,0.311-1.306,0.003C22,19.316,19.666,17.909,17.31,16.54c-0.645-0.374-1.37-0.651-2.093-0.839
			c-0.95-0.247-1.382,0.186-1.265,1.152c0.271,2.251,0.526,4.503,0.844,6.747c0.084,0.593-0.081,0.889-0.585,1.168
			c-1.264,0.7-2.495,1.459-3.742,2.189c-1.172,0.685-2.484,0.202-2.707-1.151c-0.283-1.713-0.421-3.458-0.481-5.195
			c-0.036-1.027,0.628-1.744,1.655-1.92c0.863-0.148,1.095-0.588,1.257-1.42c1.03-5.276,3.939-9.155,8.838-11.467
			c0.475-0.224,0.759-0.42,0.833-1.037c0.046-0.385,0.581-0.912,0.987-1.016C22.179,3.413,23.55,3.24,24.952,2.995z"/>
		
			<linearGradient id="SVGID_00000075854830146901523060000015969361533290944405_" gradientUnits="userSpaceOnUse" x1="25.022" y1="239.3333" x2="25.022" y2="0.2164">
			<stop  offset="0" style="stop-color:#18365B"/>
			<stop  offset="1" style="stop-color:#53CFC2"/>
		</linearGradient>
		<path fill="url(#SVGID_00000075854830146901523060000015969361533290944405_)" d="M15.477,16.283
			c0.227,2.13,1.1,3.874,2.948,4.988c1.864,1.123,3.755,1.353,5.649-0.05c0.293,0.205,0.582,0.406,0.893,0.623
			c0.316-0.225,0.603-0.43,0.882-0.629c3.278,2.387,8.254,0.242,9.065-4.976c0.16,0.387,0.491,0.792,0.452,1.157
			c-0.233,2.187-0.539,4.367-0.857,6.544c-0.044,0.304-0.257,0.599-0.44,0.864c-0.673,0.972-1.412,1.903-2.036,2.904
			c-0.401,0.644-0.882,0.809-1.611,0.832c-0.812,0.026-1.235-0.27-1.592-0.959c-0.573-1.107-1.344-2.118-1.85-3.251
			c-0.912-2.042-2.793-1.99-3.673-0.031c-0.562,1.251-1.353,2.401-2.051,3.59c-0.449,0.765-2.128,0.933-2.682,0.241
			c-0.924-1.154-1.822-2.329-2.694-3.523c-0.201-0.276-0.309-0.654-0.359-0.999c-0.29-1.982-0.548-3.969-0.819-5.954
			C14.619,17.052,14.704,16.542,15.477,16.283z"/>
		
			<linearGradient id="SVGID_00000005267394179370931510000010189557497995265929_" gradientUnits="userSpaceOnUse" x1="25.1089" y1="239.3333" x2="25.1089" y2="0.2164">
			<stop  offset="0" style="stop-color:#18365B"/>
			<stop  offset="1" style="stop-color:#53CFC2"/>
		</linearGradient>
		<path fill="url(#SVGID_00000005267394179370931510000010189557497995265929_)" d="M25.121,36.068
			c-1.478-0.001-2.956,0.023-4.433-0.007c-1.689-0.034-2.625-1.56-1.793-3.022c1.606-2.822,3.273-5.61,4.951-8.39
			c0.667-1.105,1.874-1.122,2.532-0.027c1.674,2.783,3.323,5.58,4.925,8.405c0.85,1.498-0.038,2.971-1.751,3.04
			c-0.066,0.003-0.131,0.002-0.197,0.002C27.945,36.068,26.533,36.068,25.121,36.068z M25.266,25.767c-0.076,0-0.152,0-0.229,0
			c0,2.806,0,5.613,0,8.419c0.076-0.001,0.152-0.001,0.229-0.002C25.266,31.379,25.266,28.573,25.266,25.767z M22.628,34.203
			c0.136-0.004,0.272-0.007,0.407-0.011c0-1.82,0-3.641,0-5.461C22.453,30.549,22.688,32.379,22.628,34.203z M27.29,34.211
			c0.623-1.569,0.429-4.925,0-5.299C27.29,30.631,27.29,32.421,27.29,34.211z"/>
		
			<linearGradient id="SVGID_00000170998600891835395040000015882937739620497589_" gradientUnits="userSpaceOnUse" x1="14.4254" y1="239.3333" x2="14.4254" y2="0.2164">
			<stop  offset="0" style="stop-color:#18365B"/>
			<stop  offset="1" style="stop-color:#53CFC2"/>
		</linearGradient>
		<path fill="url(#SVGID_00000170998600891835395040000015882937739620497589_)" d="M18.196,33.088
			c-1.819,0.25-3.341,0.08-4.48-1.478c-0.928-1.27-1.981-2.447-3.062-3.768c1.606-0.979,3.158-1.925,4.8-2.926
			c0.864,1.139,1.721,2.252,2.553,3.384c0.124,0.169,0.179,0.426,0.181,0.643C18.204,30.289,18.196,31.636,18.196,33.088z"/>
		
			<linearGradient id="SVGID_00000109712160610635901510000007663922276265789627_" gradientUnits="userSpaceOnUse" x1="35.9856" y1="239.3333" x2="35.9856" y2="0.2164">
			<stop  offset="0" style="stop-color:#18365B"/>
			<stop  offset="1" style="stop-color:#53CFC2"/>
		</linearGradient>
		<path fill="url(#SVGID_00000109712160610635901510000007663922276265789627_)" d="M34.991,24.879
			c1.634,1.014,3.162,1.964,4.775,2.966c-1.278,1.534-2.458,3.071-3.768,4.487c-0.998,1.078-2.377,0.886-3.791,0.783
			c0-1.485-0.007-2.921,0.009-4.358c0.002-0.179,0.093-0.385,0.204-0.532C33.248,27.129,34.093,26.044,34.991,24.879z"/>
		
			<linearGradient id="SVGID_00000088812078428851411630000013047175111859609230_" gradientUnits="userSpaceOnUse" x1="29.8331" y1="239.3333" x2="29.8331" y2="0.2164">
			<stop  offset="0" style="stop-color:#18365B"/>
			<stop  offset="1" style="stop-color:#53CFC2"/>
		</linearGradient>
		<path fill="url(#SVGID_00000088812078428851411630000013047175111859609230_)" d="M26.208,20.803
			c2.517-1.484,4.792-2.825,7.25-4.274c0.007,1.979-0.697,3.316-2.114,4.23C29.786,21.762,28.153,21.76,26.208,20.803z"/>
		
			<linearGradient id="SVGID_00000106130104673382664910000005055853367401921669_" gradientUnits="userSpaceOnUse" x1="19.9416" y1="239.3333" x2="19.9416" y2="0.2164">
			<stop  offset="0" style="stop-color:#18365B"/>
			<stop  offset="1" style="stop-color:#53CFC2"/>
		</linearGradient>
		<path fill="url(#SVGID_00000106130104673382664910000005055853367401921669_)" d="M23.488,20.926
			c-1.832,0.893-3.358,0.825-4.824-0.076c-1.396-0.857-2.119-2.136-2.268-4.09C18.83,18.19,21.041,19.489,23.488,20.926z"/>
		
			<linearGradient id="SVGID_00000086650094152385285940000005029742834019834277_" gradientUnits="userSpaceOnUse" x1="30.6373" y1="239.3333" x2="30.6373" y2="0.2164">
			<stop  offset="0" style="stop-color:#18365B"/>
			<stop  offset="1" style="stop-color:#53CFC2"/>
		</linearGradient>
		<path fill="url(#SVGID_00000086650094152385285940000005029742834019834277_)" d="M29.698,29.033c0.748,0,1.282,0,1.878,0
			c0,0.988,0,1.949,0,2.911c-0.058,0.029-0.115,0.058-0.173,0.088C30.862,31.08,30.321,30.128,29.698,29.033z"/>
		
			<linearGradient id="SVGID_00000042004836466650166110000016152441285704438454_" gradientUnits="userSpaceOnUse" x1="19.7235" y1="239.3333" x2="19.7235" y2="0.2164">
			<stop  offset="0" style="stop-color:#18365B"/>
			<stop  offset="1" style="stop-color:#53CFC2"/>
		</linearGradient>
		<path fill="url(#SVGID_00000042004836466650166110000016152441285704438454_)" d="M18.786,31.919c0-0.935,0-1.87,0-2.879
			c0.574,0,1.108,0,1.874,0c-0.595,1.051-1.132,2.001-1.668,2.95C18.924,31.966,18.855,31.943,18.786,31.919z"/>
	</g>
	<g>
		
			<linearGradient id="SVGID_00000102529632575173338790000008316370281405071780_" gradientUnits="userSpaceOnUse" x1="25" y1="239.3333" x2="25" y2="0.2164">
			<stop  offset="0" style="stop-color:#18365B"/>
			<stop  offset="1" style="stop-color:#53CFC2"/>
		</linearGradient>
		<path fill="url(#SVGID_00000102529632575173338790000008316370281405071780_)" d="M45.062,46.65c-0.817,0-1.635-0.014-2.452,0.004
			c-0.847,0.019-1.693,0-2.539,0.024c-1.326,0.038-2.652,0.005-3.978,0.031c-1.888,0.038-3.777,0.043-5.665,0.064
			c-1.184,0.013-2.368-0.001-3.552,0.017c-0.034,0.001-0.069,0-0.103-0.002c-0.034-0.003-0.072-0.005-0.082-0.046
			c-0.01-0.039,0.019-0.063,0.047-0.084c0.055-0.041,0.115-0.075,0.164-0.122c0.199-0.186,0.28-0.403,0.24-0.684
			c-0.084-0.585-0.141-1.173-0.211-1.76c-0.029-0.242-0.101-0.479-0.092-0.726c0.002-0.043-0.001-0.098-0.055-0.107
			c-0.055-0.01-0.07,0.045-0.089,0.083c-0.317,0.623-0.636,1.245-0.949,1.87c-0.283,0.563-0.561,1.129-0.842,1.694
			c-0.021,0.043-0.039,0.101-0.095,0.101c-0.061,0-0.063-0.066-0.084-0.107c-0.432-0.861-0.866-1.721-1.297-2.582
			c-0.158-0.315-0.309-0.632-0.466-0.947c-0.022-0.043-0.028-0.122-0.099-0.105c-0.054,0.013-0.039,0.083-0.047,0.129
			c-0.08,0.511-0.173,1.021-0.231,1.534c-0.041,0.358-0.064,0.719-0.105,1.078c-0.033,0.293,0.173,0.461,0.384,0.613
			c0.037,0.027,0.106,0.037,0.086,0.1c-0.018,0.057-0.082,0.043-0.129,0.044c-1.556,0.041-3.112,0.027-4.668,0.015
			c-0.572-0.004-1.145-0.013-1.717-0.02c-0.861-0.011-1.722-0.007-2.583-0.034c-0.866-0.027-1.732-0.016-2.598-0.025
			c-1.277-0.012-2.554-0.01-3.831-0.034c-1.713-0.031-3.425-0.007-5.138-0.016c-0.093,0-0.185,0.015-0.278,0.016
			c-0.107,0.001-0.192-0.021-0.191-0.161c0.001-0.131,0.057-0.19,0.184-0.189c0.421,0.003,0.841-0.016,1.262-0.027
			c2.153-0.056,4.306-0.023,6.459-0.029c2.457-0.007,4.914-0.003,7.37-0.013c0.954-0.004,1.908-0.032,2.861-0.051
			c0.56-0.011,0.758-0.169,0.893-0.713c0.16-0.646,0.253-1.304,0.363-1.958c0.066-0.39,0.148-0.777,0.209-1.168
			c0.079-0.501,0.146-1.005,0.215-1.508c0.03-0.219-0.121-0.382-0.368-0.395c-0.234-0.013-0.469-0.023-0.704-0.024
			c-0.724-0.005-1.449-0.004-2.173-0.01c-0.925-0.007-1.85-0.004-2.774-0.033c-0.93-0.029-1.859-0.01-2.789-0.025
			c-0.744-0.012-1.487-0.019-2.231-0.026c-0.312-0.003-0.315,0.009-0.237,0.3c0.045,0.168,0.136,0.314,0.211,0.466
			c0.633,1.29,1.269,2.579,1.905,3.868c0.116,0.236,0.278,0.435,0.471,0.613c0.037,0.034,0.105,0.061,0.081,0.126
			c-0.025,0.068-0.097,0.052-0.154,0.058c-0.386,0.04-0.772,0.022-1.159,0.027c-0.146,0.002-0.291,0.027-0.439,0.007
			c-0.11-0.015-0.132-0.053-0.084-0.153c0.094-0.193,0.036-0.491-0.115-0.645c-0.05-0.051-0.109-0.06-0.174-0.06
			c-0.504-0.001-1.008,0-1.512-0.003c-0.1-0.001-0.166,0.039-0.21,0.129c-0.085,0.178-0.182,0.35-0.034,0.546
			c0.051,0.068,0.016,0.133-0.073,0.148c-0.072,0.012-0.146,0.024-0.219,0.025c-0.46,0.004-0.92,0.005-1.38,0.005
			c-0.042,0-0.099,0.014-0.12-0.033c-0.023-0.052,0.034-0.075,0.067-0.099c0.282-0.208,0.437-0.507,0.588-0.81
			c0.304-0.612,0.611-1.222,0.915-1.834c0.341-0.686,0.679-1.374,1.018-2.061c0.078-0.158,0.147-0.32,0.234-0.472
			c0.07-0.122,0.019-0.145-0.09-0.146c-0.108-0.001-0.215-0.005-0.323-0.005c-1.062-0.001-2.124,0.013-3.186-0.006
			c-0.636-0.012-1.271,0.001-1.907-0.009c-0.474-0.008-0.949,0.014-1.423,0.013c-0.416-0.001-0.831-0.015-1.247-0.02
			c-0.106-0.001-0.18-0.023-0.183-0.152c-0.002-0.123,0.035-0.2,0.169-0.204c0.034-0.001,0.068-0.004,0.103-0.005
			c0.748-0.012,1.497-0.014,2.245-0.018c2.906-0.016,5.813-0.009,8.719-0.011c1.003-0.001,2.007,0.016,3.01-0.009
			c0.94-0.024,1.879,0.004,2.818-0.026c1.53-0.048,3.06-0.097,4.592-0.081c0.089,0.001,0.215-0.042,0.257,0.05
			c0.04,0.089-0.083,0.14-0.14,0.201c-0.26,0.276-0.312,0.61-0.146,0.959c0.396,0.835,0.847,1.642,1.269,2.463
			c0.082,0.159,0.125,0.162,0.208,0.004c0.292-0.553,0.578-1.11,0.865-1.665c0.139-0.269,0.279-0.537,0.405-0.813
			c0.167-0.367,0.127-0.656-0.147-0.957c-0.023-0.025-0.047-0.051-0.064-0.08c-0.048-0.079-0.051-0.137,0.068-0.14
			c0.117-0.003,0.234-0.02,0.351-0.02c0.705-0.002,1.411-0.03,2.114,0.006c1.716,0.089,3.433,0.06,5.15,0.087
			c2.574,0.039,5.148,0.009,7.722,0.023c0.94,0.005,1.88-0.014,2.819,0.007c1.14,0.025,2.28,0.011,3.42,0.026
			c0.141,0.002,0.204,0.058,0.206,0.185c0.002,0.137-0.081,0.17-0.201,0.17c-0.499-0.001-0.998,0.002-1.498,0.004
			c-2.442,0.009-4.884,0.007-7.326,0.033c-1.517,0.016-3.034,0.002-4.551,0.032c-0.685,0.014-1.369,0.004-2.054,0.033
			c-0.346,0.015-0.694-0.02-1.041,0.008c-0.16,0.013-0.189,0.037-0.143,0.189c0.075,0.248,0.205,0.474,0.318,0.707
			c0.461,0.95,0.919,1.902,1.389,2.847c0.191,0.384,0.35,0.786,0.602,1.138c0.042,0.059,0.079,0.135,0.166,0.127
			c0.089-0.008,0.128-0.087,0.159-0.158c0.045-0.104,0.064-0.215,0.064-0.329c0-1.095,0.002-2.191,0-3.286
			c-0.001-0.307-0.104-0.565-0.386-0.726c-0.039-0.022-0.081-0.047-0.07-0.1c0.013-0.063,0.07-0.059,0.118-0.063
			c0.117-0.008,0.234-0.021,0.351-0.021c0.524-0.002,1.047,0.002,1.571-0.003c0.328-0.003,0.611,0.08,0.882,0.285
			c0.291,0.22,0.473,0.486,0.614,0.815c0.171,0.399,0.071,0.756-0.085,1.116c-0.068,0.157-0.169,0.299-0.291,0.42
			c-0.111,0.111-0.126,0.208-0.036,0.347c0.302,0.468,0.621,0.925,0.942,1.38c0.047,0.067,0.108,0.127,0.171,0.18
			c0.116,0.097,0.225,0.058,0.26-0.09c0.013-0.056,0.012-0.116,0.012-0.175c0-1.11-0.004-2.22-0.001-3.33
			c0.001-0.308-0.078-0.569-0.35-0.745c-0.045-0.029-0.093-0.067-0.07-0.131c0.02-0.055,0.076-0.058,0.124-0.062
			c0.073-0.007,0.147-0.01,0.22-0.009c0.592,0.007,1.184,0.007,1.775,0.012c0.537,0.004,1.076-0.006,1.614-0.014
			c0.044-0.001,0.088-0.002,0.132,0.002c0.133,0.012,0.152,0.047,0.091,0.169c-0.139,0.282-0.103,0.481,0.116,0.702
			c0.471,0.476,0.939,0.955,1.408,1.432c0.034,0.035,0.069,0.07,0.105,0.102c0.025,0.022,0.054,0.047,0.091,0.026
			c0.03-0.017,0.027-0.05,0.026-0.079c-0.006-0.186-0.015-0.371-0.018-0.557c-0.005-0.313-0.004-0.626-0.008-0.939
			c-0.004-0.248-0.092-0.457-0.291-0.613c-0.027-0.021-0.051-0.046-0.075-0.07c-0.028-0.027-0.062-0.056-0.052-0.099
			c0.012-0.054,0.063-0.058,0.106-0.062c0.083-0.008,0.166-0.012,0.249-0.011c0.577,0.007,1.155,0.016,1.731,0.01
			c0.851-0.008,1.703-0.003,2.554-0.013c0.33-0.004,0.349,0.031,0.452,0.352c0.162,0.507,0.109,1.026,0.122,1.542
			c0.012,0.483-0.042,0.968,0.039,1.449c0.004,0.023,0.013,0.051-0.017,0.063c-0.027,0.01-0.045-0.011-0.063-0.028
			c-0.05-0.047-0.099-0.095-0.147-0.143c-0.139-0.141-0.315-0.205-0.505-0.197c-0.201,0.008-0.4,0-0.6-0.004
			c-0.161-0.003-0.218,0.042-0.225,0.202c-0.009,0.21-0.005,0.42-0.006,0.631c-0.001,0.085,0.044,0.124,0.127,0.124
			c0.318-0.002,0.638,0.016,0.954-0.012c0.219-0.02,0.42-0.121,0.562-0.311c0.046-0.062,0.097-0.169,0.191-0.119
			c0.083,0.044,0.052,0.152,0.028,0.229c-0.08,0.262-0.127,0.532-0.23,0.788c-0.156,0.387-0.287,0.472-0.704,0.491
			c-0.817,0.036-1.634,0.016-2.451,0.022c-0.071,0.001-0.175,0.028-0.202-0.043c-0.03-0.076,0.081-0.104,0.126-0.156
			c0.019-0.022,0.046-0.036,0.069-0.055c0.203-0.16,0.3-0.35,0.296-0.627c-0.016-1.134-0.009-2.269-0.004-3.403
			c0.001-0.19-0.062-0.341-0.191-0.474c-0.131-0.135-0.241-0.14-0.383-0.021c-0.166,0.138-0.213,0.321-0.213,0.524
			c-0.001,0.528-0.003,1.056-0.003,1.584c0.001,0.978,0.005,1.956,0.002,2.934c0,0.138,0.05,0.178,0.179,0.179
			c0.538,0.005,1.076,0.017,1.614,0.026c0.528,0.009,1.057,0.021,1.585,0.026c0.116,0.001,0.191,0.029,0.194,0.159
			c0.003,0.133-0.067,0.177-0.193,0.177c-0.861-0.002-1.723-0.001-2.584-0.001C45.062,46.649,45.062,46.649,45.062,46.65z
			 M38.03,46.25c0,0.003,0,0.006,0,0.01c1.893,0,3.787,0,5.68,0c0.088,0,0.176-0.001,0.264-0.004
			c0.109-0.003,0.118-0.056,0.055-0.128c-0.068-0.077-0.147-0.143-0.217-0.217c-0.628-0.664-1.255-1.329-1.883-1.993
			c-0.205-0.216-0.413-0.429-0.624-0.641c-0.032-0.032-0.074-0.08-0.125-0.059c-0.049,0.02-0.028,0.078-0.032,0.119
			c-0.049,0.458-0.014,0.918-0.023,1.377c-0.007,0.355,0.072,0.67,0.395,0.877c0.039,0.025,0.085,0.062,0.069,0.119
			c-0.017,0.061-0.076,0.052-0.123,0.054c-0.239,0.01-0.479,0.015-0.718,0.026c-0.606,0.026-1.211-0.022-1.818-0.008
			c-0.738,0.017-1.477,0.022-2.215-0.012c-0.3-0.014-0.512-0.135-0.663-0.383c-0.237-0.388-0.474-0.775-0.711-1.164
			c-0.053-0.088-0.103-0.177-0.156-0.265c-0.035-0.058-0.084-0.102-0.156-0.084c-0.067,0.017-0.078,0.082-0.091,0.139
			c-0.006,0.028-0.008,0.058-0.009,0.087c-0.001,0.298-0.013,0.597,0.003,0.894c0.013,0.239,0.091,0.461,0.304,0.607
			c0.038,0.026,0.1,0.042,0.079,0.106c-0.018,0.056-0.076,0.054-0.125,0.056c-0.21,0.009-0.42,0.022-0.63,0.023
			c-0.837,0.004-1.673,0.004-2.51,0.005c-0.068,0-0.137-0.001-0.205-0.005c-0.069-0.005-0.092-0.04-0.041-0.094
			c0.177-0.186,0.102-0.379,0.019-0.572c-0.053-0.123-0.14-0.187-0.285-0.185c-0.489,0.006-0.978,0.002-1.468,0.001
			c-0.065,0-0.125,0.006-0.176,0.055c-0.167,0.161-0.207,0.399-0.091,0.599c0.059,0.102,0.033,0.152-0.081,0.172
			c-0.18,0.03-0.361,0.021-0.542,0.027c-0.06,0.002-0.142-0.029-0.171,0.045c-0.03,0.074,0.021,0.141,0.068,0.198
			c0.123,0.15,0.301,0.158,0.47,0.158c0.973,0.003,1.946,0.049,2.919,0.054C34.322,46.258,36.176,46.25,38.03,46.25z M29.695,40.43
			c0-0.001,0-0.003,0-0.004c-0.215,0-0.43-0.003-0.646,0.001c-0.22,0.004-0.44,0.015-0.659,0.023
			c-0.231,0.008-0.423,0.193-0.388,0.418c0.044,0.28,0.06,0.563,0.105,0.842c0.097,0.597,0.215,1.19,0.307,1.787
			c0.054,0.352,0.123,0.702,0.184,1.053c0.011,0.063,0.009,0.166,0.081,0.174c0.08,0.009,0.097-0.096,0.128-0.157
			c0.261-0.519,0.521-1.039,0.776-1.561c0.399-0.816,0.825-1.619,1.21-2.442c0.056-0.12,0.012-0.132-0.085-0.132
			C30.37,40.43,30.032,40.43,29.695,40.43z M39.008,43.251c0.001,0,0.003,0,0.004,0c0,0.591-0.004,1.182,0.002,1.773
			c0.002,0.266,0.175,0.505,0.396,0.58c0.058,0.02,0.109,0.029,0.164-0.016c0.209-0.169,0.351-0.355,0.348-0.652
			c-0.009-0.884,0.009-1.768,0.012-2.652c0.001-0.249-0.011-0.498-0.021-0.747c-0.01-0.238-0.107-0.431-0.3-0.577
			c-0.077-0.058-0.152-0.07-0.23-0.023c-0.22,0.132-0.376,0.306-0.376,0.583C39.009,42.099,39.008,42.675,39.008,43.251z
			 M46.892,42.736c0-0.001,0-0.003,0-0.004c0.161,0,0.322,0.005,0.483-0.002c0.158-0.007,0.392-0.344,0.324-0.483
			c-0.092-0.187-0.201-0.359-0.434-0.422c-0.243-0.065-0.485-0.04-0.727-0.048c-0.182-0.006-0.231,0.036-0.239,0.214
			c-0.009,0.204-0.004,0.41-0.007,0.614c-0.001,0.092,0.039,0.133,0.132,0.132C46.579,42.734,46.735,42.736,46.892,42.736z
			 M34.93,42.395c0,0-0.001,0-0.001,0c0,0.107-0.001,0.214,0,0.322c0,0.064,0.022,0.12,0.093,0.128
			c0.177,0.019,0.348,0.017,0.494-0.117c0.189-0.174,0.164-0.391,0.111-0.598c-0.047-0.182-0.204-0.257-0.39-0.279
			c-0.221-0.026-0.294,0.026-0.306,0.251C34.925,42.2,34.93,42.297,34.93,42.395z M30.79,43.91c0-0.001,0-0.002,0-0.003
			c0.102,0,0.205-0.001,0.307,0c0.108,0.001,0.141-0.04,0.094-0.145c-0.101-0.227-0.197-0.456-0.294-0.684
			c-0.013-0.031-0.022-0.07-0.062-0.073c-0.042-0.004-0.055,0.035-0.072,0.063c-0.134,0.232-0.255,0.47-0.355,0.719
			c-0.039,0.097,0.002,0.124,0.09,0.123C30.595,43.909,30.692,43.91,30.79,43.91z M10.154,43.909c0-0.001,0-0.003,0-0.004
			c0.102,0,0.205,0.001,0.307,0c0.095-0.001,0.119-0.043,0.079-0.132c-0.102-0.227-0.201-0.455-0.299-0.683
			c-0.04-0.095-0.087-0.101-0.139-0.013c-0.132,0.223-0.251,0.452-0.341,0.695c-0.036,0.097,0.002,0.138,0.1,0.138
			C9.959,43.909,10.056,43.909,10.154,43.909z"/>
		
			<linearGradient id="SVGID_00000090991699712679009970000014770181312999303082_" gradientUnits="userSpaceOnUse" x1="14.5875" y1="239.3333" x2="14.5875" y2="0.2164">
			<stop  offset="0" style="stop-color:#18365B"/>
			<stop  offset="1" style="stop-color:#53CFC2"/>
		</linearGradient>
		<path fill="url(#SVGID_00000090991699712679009970000014770181312999303082_)" d="M15.162,44.73
			c0.517,0.039,0.986-0.155,1.415-0.472c0.028-0.02,0.055-0.041,0.084-0.059c0.035-0.021,0.073-0.033,0.11-0.008
			c0.039,0.025,0.046,0.07,0.032,0.105c-0.168,0.401-0.056,0.847-0.207,1.252c-0.034,0.092-0.06,0.17-0.172,0.193
			c-0.372,0.079-0.74,0.191-1.121,0.215c-0.975,0.063-1.822-0.208-2.435-1.012c-0.416-0.547-0.535-1.18-0.496-1.856
			c0.034-0.582,0.233-1.098,0.608-1.538c0.34-0.399,0.778-0.656,1.28-0.816c0.275-0.088,0.552-0.107,0.836-0.119
			c0.323-0.014,0.616,0.099,0.918,0.168c0.153,0.035,0.299,0.078,0.458,0.078c0.168,0,0.214,0.049,0.191,0.216
			c-0.055,0.397-0.096,0.795-0.092,1.197c0.001,0.057-0.003,0.125-0.064,0.155c-0.066,0.032-0.107-0.027-0.151-0.063
			c-0.216-0.176-0.429-0.365-0.705-0.437c-0.392-0.102-0.793-0.137-1.183,0.004c-0.659,0.237-0.933,1.056-0.804,1.64
			c0.039,0.175,0.084,0.352,0.177,0.511C14.122,44.563,14.458,44.731,15.162,44.73z"/>
		
			<linearGradient id="SVGID_00000091737154876209563930000013667161242607437211_" gradientUnits="userSpaceOnUse" x1="18.5633" y1="239.3333" x2="18.5633" y2="0.2164">
			<stop  offset="0" style="stop-color:#18365B"/>
			<stop  offset="1" style="stop-color:#53CFC2"/>
		</linearGradient>
		<path fill="url(#SVGID_00000091737154876209563930000013667161242607437211_)" d="M18.258,40.736c0.416,0,0.832-0.001,1.248,0.001
			c0.22,0.001,0.291,0.05,0.354,0.256c0.069,0.224,0.104,0.453,0.121,0.69c0.042,0.597-0.013,1.191-0.004,1.787
			c0.003,0.182,0.008,0.361,0.061,0.537c0.014,0.047,0.054,0.115-0.009,0.146c-0.069,0.033-0.103-0.041-0.134-0.086
			c-0.1-0.145-0.237-0.23-0.405-0.271c-0.038-0.009-0.078-0.021-0.115-0.017c-0.22,0.023-0.439,0.016-0.659-0.005
			c-0.166-0.016-0.226,0.04-0.234,0.205c-0.009,0.195-0.013,0.39-0.018,0.585c-0.003,0.114,0.049,0.17,0.168,0.169
			c0.294-0.004,0.589,0.015,0.88-0.01c0.229-0.019,0.448-0.101,0.596-0.301c0.017-0.024,0.037-0.046,0.058-0.066
			c0.032-0.031,0.067-0.064,0.115-0.049c0.06,0.019,0.057,0.076,0.053,0.123c-0.025,0.269-0.1,0.529-0.191,0.781
			c-0.189,0.523-0.279,0.581-0.838,0.583c-0.788,0.003-1.576,0-2.364-0.001c-0.051,0-0.121,0.02-0.144-0.042
			c-0.022-0.059,0.035-0.1,0.077-0.129c0.29-0.199,0.374-0.475,0.378-0.82c0.012-0.914,0.004-1.828,0.01-2.742
			c0.001-0.176-0.014-0.351-0.02-0.527c-0.009-0.266-0.127-0.466-0.358-0.6c-0.046-0.027-0.108-0.051-0.095-0.116
			c0.015-0.074,0.088-0.07,0.145-0.07c0.44-0.002,0.881-0.001,1.321-0.001C18.258,40.742,18.258,40.739,18.258,40.736z
			 M19.062,42.734C19.062,42.734,19.062,42.734,19.062,42.734c0.146-0.001,0.293,0.001,0.439-0.001
			c0.197-0.003,0.442-0.302,0.372-0.482c-0.07-0.181-0.181-0.34-0.386-0.415c-0.258-0.094-0.522-0.049-0.783-0.061
			c-0.166-0.008-0.214,0.046-0.224,0.216c-0.012,0.204,0.009,0.41-0.019,0.614c-0.014,0.097,0.043,0.13,0.132,0.129
			C18.75,42.733,18.906,42.734,19.062,42.734z"/>
		
			<linearGradient id="SVGID_00000004540048643500830340000002182429226892578750_" gradientUnits="userSpaceOnUse" x1="6.5259" y1="239.3333" x2="6.5259" y2="0.2164">
			<stop  offset="0" style="stop-color:#18365B"/>
			<stop  offset="1" style="stop-color:#53CFC2"/>
		</linearGradient>
		<path fill="url(#SVGID_00000004540048643500830340000002182429226892578750_)" d="M5.916,40.739c0.331,0,0.6-0.002,0.869,0
			c0.555,0.004,0.983,0.271,1.323,0.679c0.251,0.301,0.282,0.68,0.263,1.056c-0.008,0.174-0.023,0.35-0.097,0.515
			c-0.277,0.619-0.799,0.878-1.429,0.981c-0.105,0.017-0.212,0.034-0.321,0.018c-0.094-0.014-0.154,0.036-0.158,0.13
			c-0.017,0.327-0.031,0.655,0.009,0.98c0.026,0.206,0.184,0.325,0.337,0.442c0.039,0.03,0.08,0.057,0.119,0.085
			c0.028,0.02,0.063,0.037,0.053,0.079c-0.011,0.048-0.054,0.054-0.092,0.057c-0.171,0.01-0.342,0.024-0.512,0.025
			c-0.484,0.004-0.968,0.003-1.452,0.003c-0.052,0-0.121,0.018-0.145-0.041c-0.025-0.061,0.041-0.092,0.076-0.129
			c0.02-0.021,0.045-0.038,0.068-0.056c0.203-0.161,0.301-0.356,0.297-0.631c-0.013-1.123-0.009-2.247-0.002-3.37
			c0.002-0.273-0.104-0.468-0.331-0.609c-0.048-0.03-0.117-0.055-0.102-0.127c0.016-0.077,0.091-0.058,0.146-0.065
			C5.215,40.717,5.597,40.754,5.916,40.739z M6.362,42.376c-0.002,0-0.004,0-0.005,0c0,0.117,0,0.235,0,0.352
			c0,0.075,0.032,0.124,0.113,0.123c0.112-0.001,0.226,0.005,0.337-0.012c0.144-0.022,0.265-0.101,0.296-0.25
			c0.09-0.442,0.01-0.721-0.483-0.744c-0.024-0.001-0.049-0.005-0.073-0.008c-0.116-0.011-0.178,0.045-0.183,0.157
			C6.358,42.122,6.362,42.249,6.362,42.376z"/>
		
			<linearGradient id="SVGID_00000003071407604230111810000013195223448498514339_" gradientUnits="userSpaceOnUse" x1="3.2769" y1="239.3333" x2="3.2769" y2="0.2164">
			<stop  offset="0" style="stop-color:#18365B"/>
			<stop  offset="1" style="stop-color:#53CFC2"/>
		</linearGradient>
		<path fill="url(#SVGID_00000003071407604230111810000013195223448498514339_)" d="M3.423,40.62
			c0.273-0.042,0.535,0.102,0.808,0.184c0.095,0.029,0.221,0.016,0.279,0.106c0.057,0.088-0.039,0.184-0.034,0.282
			c0.014,0.264-0.041,0.526-0.014,0.79c0.003,0.029-0.001,0.059-0.006,0.087c-0.009,0.047-0.009,0.104-0.063,0.124
			c-0.055,0.02-0.092-0.022-0.126-0.056c-0.148-0.146-0.32-0.252-0.516-0.325c-0.133-0.05-0.27-0.057-0.404-0.05
			c-0.241,0.012-0.37,0.319-0.227,0.526c0.093,0.134,0.227,0.224,0.358,0.321c0.371,0.275,0.764,0.524,1.02,0.932
			c0.486,0.776,0.218,2.09-0.908,2.367c-0.327,0.08-0.64,0.047-0.958-0.005c-0.136-0.022-0.273-0.039-0.409-0.019
			c-0.13,0.019-0.189-0.039-0.222-0.155c-0.079-0.279-0.096-0.568-0.149-0.851c-0.026-0.141-0.025-0.282-0.024-0.424
			c0-0.053-0.006-0.117,0.052-0.142c0.063-0.028,0.111,0.018,0.156,0.057c0.088,0.077,0.159,0.172,0.265,0.229
			c0.233,0.125,0.489,0.174,0.744,0.214c0.166,0.026,0.319-0.056,0.392-0.204c0.07-0.143,0.066-0.305-0.045-0.442
			c-0.145-0.181-0.328-0.321-0.511-0.46c-0.301-0.229-0.584-0.474-0.805-0.784c-0.415-0.584-0.291-1.479,0.266-1.938
			C2.649,40.731,2.995,40.6,3.423,40.62z"/>
	</g>
</g>
</svg>
