<?xml version="1.0" encoding="utf-8"?>
<!-- Generator: Adobe Illustrator 26.0.0, SVG Export Plug-In . SVG Version: 6.00 Build 0)  -->
<svg version="1.0" id="Layer_1" xmlns="http://www.w3.org/2000/svg" xmlns:xlink="http://www.w3.org/1999/xlink" x="0px" y="0px"
	 viewBox="0 0 50 50" enable-background="new 0 0 50 50" xml:space="preserve">
<g>
	<path fill="#4A658D" d="M8.906,40.716c-0.075-0.073-0.153-0.143-0.225-0.219c-1.121-1.184-2.106-2.472-2.947-3.869
		c-0.67-1.113-1.24-2.276-1.709-3.488c-0.035-0.091-0.071-0.183-0.106-0.274c0.039-0.657,0.16-1.298,0.349-1.929
		c0.485-1.623,1.362-3.027,2.415-4.332c0.544-0.674,1.119-1.32,1.715-1.948c0.558-0.587,1.121-1.169,1.68-1.755
		c0.896-0.939,1.797-1.874,2.64-2.862c1.206-1.413,2.347-2.875,3.27-4.494c1.017-1.782,1.706-3.676,1.977-5.715
		c0.098-0.742,0.157-1.489,0.117-2.237c-0.065-1.232-0.234-2.449-0.663-3.616c-0.017-0.046-0.036-0.092-0.031-0.144
		c0.136-0.075,0.286-0.114,0.431-0.163c0.739-0.247,1.487-0.461,2.248-0.628c0.598-0.131,1.199-0.241,1.805-0.325
		c0.687-0.094,1.375-0.156,2.067-0.191c0.581-0.03,1.162-0.033,1.743-0.017c0.482,0.013,0.963,0.046,1.444,0.093
		c0.412,0.041,0.823,0.091,1.233,0.151c0.661,0.096,1.315,0.229,1.963,0.386c0.793,0.192,1.572,0.432,2.341,0.707
		c0.011,0.004,0.019,0.014,0.029,0.022c-0.223,0.585-0.377,1.189-0.492,1.804c-0.177,0.952-0.251,1.913-0.205,2.879
		c0.097,2.019,0.591,3.939,1.451,5.771c0.76,1.619,1.778,3.067,2.878,4.464c0.677,0.86,1.397,1.683,2.142,2.485
		c0.703,0.756,1.421,1.497,2.133,2.244c1.168,1.225,2.346,2.443,3.345,3.818c0.739,1.017,1.36,2.094,1.76,3.291
		c0.201,0.6,0.328,1.217,0.421,1.842c0.013,0.087-0.016,0.173,0.007,0.258c-0.053,0.204-0.14,0.395-0.217,0.59
		c-0.661,1.668-1.515,3.232-2.552,4.695c-0.565,0.798-1.18,1.556-1.847,2.271c-0.072,0.077-0.141,0.156-0.214,0.232
		c-0.047,0.049-0.086,0.106-0.15,0.136c-0.092-0.002-0.141-0.072-0.193-0.13c-0.61-0.687-1.308-1.278-2.023-1.849
		c-1.154-0.921-2.403-1.699-3.728-2.35c-2.047-1.005-4.202-1.67-6.453-2.028c-0.677-0.108-1.358-0.188-2.043-0.23
		c-0.654-0.04-1.307-0.084-1.962-0.068c-1.653,0.041-3.289,0.225-4.904,0.591c-1.948,0.442-3.804,1.13-5.566,2.067
		c-1.342,0.713-2.591,1.567-3.744,2.56c-0.498,0.428-0.96,0.892-1.424,1.354C9.051,40.626,9,40.703,8.906,40.716z"/>
	<path fill="#C72336" d="M34.465,45.406c-0.239,0.13-0.491,0.232-0.741,0.337c-1.025,0.432-2.077,0.786-3.156,1.059
		c-0.641,0.162-1.287,0.296-1.939,0.402c-0.684,0.111-1.371,0.193-2.061,0.241c-0.901,0.062-1.804,0.069-2.706,0.024
		c-0.408-0.02-0.814-0.051-1.22-0.093c-0.473-0.048-0.945-0.113-1.414-0.193c-0.81-0.137-1.61-0.318-2.401-0.543
		c-1.483-0.422-2.907-0.993-4.273-1.709c-1.207-0.633-2.348-1.369-3.419-2.212c-0.296-0.233-0.583-0.478-0.874-0.718
		c-0.028-0.023-0.052-0.052-0.077-0.079c-0.009-0.069,0.039-0.106,0.083-0.145c0.916-0.754,1.911-1.388,2.968-1.923
		c1.236-0.626,2.533-1.087,3.886-1.389c0.677-0.151,1.361-0.257,2.05-0.331c0.591-0.063,1.186-0.039,1.779-0.046
		c1.617-0.019,3.186,0.265,4.728,0.734c0.837,0.255,1.646,0.578,2.428,0.966c1.229,0.611,2.37,1.359,3.415,2.252
		c1.078,0.921,2.03,1.955,2.842,3.117C34.414,45.232,34.488,45.3,34.465,45.406z"/>
	<path fill="#2F4C79" d="M17.387,3.835c0.047,0.036,0.062,0.089,0.081,0.142c0.145,0.4,0.264,0.809,0.357,1.224
		c0.061,0.27,0.116,0.541,0.152,0.815c0.018,0.133,0.058,0.266,0.045,0.403c0.07,0.183,0.006,0.382,0.068,0.567
		c0.019,0.056,0.004,0.123,0.006,0.185c0.002,0.105-0.007,0.209,0.028,0.312c0.015,0.045,0.008,0.098,0.008,0.147
		c0.001,0.235,0.002,0.47,0,0.705c-0.001,0.129,0.005,0.257-0.029,0.386c-0.021,0.082-0.006,0.172-0.008,0.259
		c-0.002,0.092,0.01,0.186-0.029,0.275c-0.007,0.016-0.008,0.037-0.006,0.055c0.018,0.168-0.026,0.332-0.046,0.496
		c-0.025,0.2-0.054,0.401-0.093,0.6c-0.04,0.205-0.073,0.411-0.119,0.615c-0.101,0.445-0.217,0.884-0.352,1.32
		c-0.149,0.478-0.325,0.943-0.517,1.405c-0.2,0.48-0.428,0.946-0.672,1.404c-0.226,0.424-0.462,0.844-0.729,1.245
		c-0.103,0.154-0.197,0.313-0.302,0.465c-0.312,0.451-0.621,0.904-0.96,1.335c-0.248,0.314-0.48,0.641-0.737,0.947
		c-0.154,0.184-0.293,0.381-0.464,0.552c-0.095,0.095-0.171,0.21-0.255,0.315c-0.012,0.014-0.023,0.029-0.035,0.043
		c-0.133,0.146-0.279,0.282-0.395,0.44c-0.147,0.2-0.354,0.345-0.489,0.555c-0.003,0.005-0.008,0.009-0.013,0.014
		c-0.212,0.225-0.424,0.449-0.635,0.674c-0.156,0.166-0.308,0.337-0.466,0.501c-0.159,0.165-0.335,0.314-0.481,0.489
		c-0.27,0.324-0.594,0.594-0.872,0.909c-0.258,0.292-0.547,0.554-0.805,0.845c-0.164,0.185-0.353,0.348-0.504,0.541
		c-0.141,0.181-0.328,0.319-0.451,0.514c-0.013,0.02-0.034,0.036-0.051,0.054c-0.167,0.165-0.311,0.35-0.461,0.529
		c-0.126,0.151-0.251,0.303-0.379,0.454c-0.156,0.184-0.301,0.374-0.445,0.566c-0.203,0.271-0.403,0.545-0.59,0.827
		c-0.301,0.453-0.56,0.929-0.808,1.414c-0.283,0.553-0.484,1.136-0.665,1.725c-0.096,0.311-0.161,0.631-0.207,0.955
		c-0.027,0.195-0.066,0.387-0.074,0.585c-0.003,0.076-0.014,0.159-0.067,0.225c-0.106-0.23-0.18-0.472-0.261-0.712
		c-0.298-0.891-0.54-1.797-0.723-2.718c-0.122-0.618-0.219-1.24-0.291-1.866c-0.074-0.645-0.117-1.292-0.141-1.94
		c-0.003-0.074,0.004-0.148,0.006-0.222c0.111,0.032,0.069,0.127,0.079,0.198c0.01,0.074-0.013,0.146-0.017,0.205
		c0.04-0.157,0.114-0.315,0.196-0.469c0.308-0.578,0.721-1.079,1.163-1.555c1.02-1.097,1.967-2.254,2.846-3.466
		c0.813-1.122,1.594-2.265,2.322-3.445c0.664-1.076,1.226-2.204,1.638-3.402c0.333-0.968,0.563-1.957,0.636-2.983
		c0.064-0.898-0.015-1.775-0.266-2.639C11.066,7.708,11,7.576,10.943,7.44c0.114-0.093,0.227-0.189,0.344-0.279
		c1.22-0.944,2.528-1.746,3.914-2.421c0.666-0.324,1.348-0.612,2.044-0.866C17.291,3.857,17.336,3.834,17.387,3.835z"/>
	<path fill="#2F4C79" d="M46.131,32.725c-0.035-0.022-0.049-0.057-0.045-0.095c0.014-0.132-0.031-0.256-0.047-0.384
		c-0.023-0.188-0.063-0.375-0.103-0.561c-0.039-0.186-0.079-0.373-0.13-0.557c-0.111-0.398-0.241-0.79-0.402-1.171
		c-0.168-0.398-0.359-0.785-0.573-1.162c-0.183-0.322-0.379-0.635-0.583-0.944c-0.207-0.314-0.434-0.613-0.661-0.912
		c-0.19-0.25-0.384-0.496-0.589-0.734c-0.108-0.126-0.22-0.251-0.325-0.378c-0.118-0.142-0.264-0.261-0.361-0.42
		c-0.006-0.01-0.015-0.02-0.024-0.028c-0.194-0.173-0.349-0.383-0.529-0.57c-0.316-0.33-0.638-0.655-0.946-0.991
		c-0.296-0.324-0.623-0.618-0.913-0.946c-0.259-0.291-0.548-0.553-0.804-0.845c-0.164-0.186-0.354-0.347-0.505-0.541
		c-0.164-0.21-0.382-0.37-0.529-0.593c-0.01-0.015-0.025-0.028-0.039-0.04c-0.173-0.151-0.303-0.341-0.462-0.505
		c-0.171-0.177-0.327-0.368-0.485-0.557c-0.138-0.165-0.264-0.34-0.404-0.504c-0.12-0.14-0.233-0.287-0.351-0.428
		c-0.15-0.18-0.291-0.366-0.433-0.552c-0.179-0.235-0.356-0.472-0.528-0.712c-0.193-0.27-0.383-0.544-0.569-0.819
		c-0.234-0.347-0.46-0.701-0.667-1.066c-0.198-0.349-0.403-0.694-0.577-1.055c-0.205-0.428-0.399-0.861-0.572-1.304
		c-0.124-0.316-0.239-0.635-0.34-0.959c-0.159-0.511-0.308-1.025-0.401-1.554c-0.027-0.151-0.067-0.3-0.095-0.451
		c-0.021-0.115-0.027-0.232-0.051-0.346c-0.032-0.151-0.023-0.306-0.065-0.456c-0.011-0.04-0.006-0.086-0.007-0.129
		c-0.002-0.092,0.005-0.185-0.029-0.275c-0.013-0.033-0.007-0.073-0.008-0.11c-0.004-0.148,0.012-0.296-0.033-0.441
		c-0.012-0.04-0.003-0.086-0.003-0.129c0-0.322-0.001-0.643,0-0.965c0-0.111-0.01-0.222,0.029-0.33
		c0.012-0.033,0.006-0.073,0.007-0.11c0.003-0.129,0.015-0.257,0.027-0.386c0.015-0.153,0.051-0.304,0.048-0.458
		c-0.002-0.093,0.027-0.183,0.043-0.273c0.086-0.478,0.171-0.956,0.314-1.421c0.062-0.2,0.125-0.4,0.199-0.595
		c0.017-0.044,0.043-0.073,0.081-0.096c0.209,0.056,0.407,0.143,0.607,0.223c1.66,0.657,3.216,1.507,4.673,2.538
		c0.338,0.239,0.663,0.494,0.993,0.744c0.039,0.029,0.084,0.053,0.107,0.099c-0.073,0.338-0.206,0.659-0.263,1.003
		c-0.112,0.673-0.161,1.344-0.109,2.028c0.112,1.488,0.537,2.886,1.14,4.241c0.54,1.214,1.231,2.34,1.976,3.437
		c0.5,0.737,0.994,1.478,1.52,2.197c0.654,0.893,1.335,1.765,2.068,2.596c0.442,0.5,0.91,0.977,1.321,1.504
		c0.278,0.356,0.527,0.732,0.697,1.135c0.012-0.082-0.071-0.208,0.07-0.28c0.02,0.216,0.002,0.432-0.009,0.648
		c-0.015,0.284-0.036,0.567-0.056,0.851c-0.032,0.437-0.084,0.873-0.143,1.307c-0.093,0.686-0.222,1.365-0.38,2.038
		c-0.198,0.842-0.443,1.67-0.74,2.483C46.155,32.682,46.142,32.704,46.131,32.725z"/>
	<path fill="#E16136" d="M34.465,45.406c-0.129-0.225-0.292-0.428-0.445-0.636c-0.164-0.224-0.335-0.442-0.511-0.656
		c-0.121-0.148-0.259-0.282-0.381-0.429c-0.341-0.409-0.737-0.766-1.112-1.142c-0.147-0.148-0.315-0.276-0.474-0.412
		c-0.103-0.088-0.2-0.182-0.307-0.267c-0.256-0.203-0.514-0.402-0.779-0.594c-0.3-0.218-0.606-0.426-0.92-0.622
		c-0.283-0.176-0.573-0.339-0.862-0.505c-0.139-0.08-0.279-0.159-0.424-0.228c-0.295-0.141-0.594-0.275-0.89-0.414
		c-0.375-0.176-0.764-0.316-1.152-0.457c-0.278-0.101-0.562-0.188-0.846-0.269c-0.308-0.087-0.62-0.162-0.931-0.238
		c-0.305-0.074-0.611-0.141-0.922-0.181c-0.195-0.025-0.386-0.076-0.581-0.096c-0.153-0.016-0.306-0.036-0.458-0.055
		c-0.195-0.025-0.394-0.01-0.587-0.058c-0.047-0.012-0.098-0.008-0.148-0.008c-0.656-0.001-1.311-0.001-1.967,0
		c-0.068,0-0.136-0.003-0.202,0.022c-0.023,0.009-0.049,0.014-0.073,0.012c-0.205-0.018-0.405,0.039-0.608,0.041
		c-0.105,0.001-0.208,0.027-0.31,0.043c-0.328,0.051-0.655,0.102-0.982,0.163c-0.4,0.075-0.794,0.173-1.187,0.274
		c-0.137,0.035-0.275,0.071-0.409,0.115c-0.322,0.105-0.645,0.21-0.964,0.323c-0.319,0.114-0.634,0.239-0.946,0.375
		c-0.266,0.116-0.523,0.252-0.788,0.369c-0.231,0.102-0.445,0.24-0.668,0.36c-0.234,0.126-0.463,0.26-0.687,0.402
		c-0.271,0.172-0.54,0.346-0.8,0.535c-0.204,0.149-0.405,0.302-0.612,0.448c-0.061,0.043-0.113,0.095-0.168,0.145
		c-0.028,0.026-0.058,0.046-0.096,0.051c-0.034-0.083,0.033-0.125,0.077-0.172c1.248-1.353,2.685-2.457,4.307-3.329
		c1.852-0.996,3.816-1.661,5.872-2.07c0.849-0.169,1.706-0.279,2.569-0.355c0.975-0.086,1.952-0.091,2.926-0.058
		c1.08,0.037,2.154,0.164,3.219,0.364c1.617,0.303,3.185,0.765,4.693,1.423c1.556,0.679,2.998,1.547,4.298,2.643
		c0.52,0.438,1.011,0.908,1.461,1.419c0.06,0.068,0.135,0.132,0.119,0.239c-0.163,0.169-0.35,0.312-0.531,0.461
		c-1.085,0.894-2.244,1.677-3.475,2.354c-0.411,0.226-0.829,0.438-1.254,0.636C34.524,45.387,34.494,45.395,34.465,45.406z"/>
	<path fill="#213150" d="M10.943,7.44c0.055,0.008,0.08,0.042,0.102,0.093c0.08,0.181,0.129,0.373,0.18,0.563
		c0.073,0.273,0.121,0.551,0.159,0.832c0.021,0.154,0.027,0.306,0.031,0.46c0.001,0.062,0.003,0.122,0.021,0.183
		c0.014,0.046,0.014,0.097,0.014,0.146c0.002,0.167,0.001,0.334,0,0.501c0,0.056-0.001,0.111-0.02,0.165
		c-0.01,0.028-0.017,0.061-0.014,0.091c0.017,0.193-0.026,0.381-0.045,0.57c-0.023,0.232-0.067,0.462-0.111,0.691
		c-0.046,0.235-0.097,0.47-0.158,0.702c-0.066,0.25-0.147,0.496-0.22,0.744c-0.123,0.414-0.285,0.814-0.443,1.215
		c-0.05,0.126-0.112,0.247-0.167,0.371c-0.122,0.277-0.249,0.552-0.39,0.819c-0.192,0.365-0.398,0.722-0.604,1.08
		c-0.272,0.471-0.571,0.923-0.871,1.375c-0.256,0.385-0.509,0.772-0.772,1.152C7.4,19.53,7.163,19.868,6.921,20.202
		c-0.254,0.349-0.512,0.694-0.772,1.037c-0.164,0.216-0.334,0.426-0.502,0.638c-0.137,0.174-0.275,0.347-0.414,0.519
		c-0.073,0.091-0.16,0.169-0.231,0.265c-0.098,0.133-0.224,0.246-0.327,0.376c-0.154,0.193-0.343,0.354-0.488,0.555
		c-0.007,0.01-0.016,0.019-0.025,0.028c-0.217,0.211-0.405,0.448-0.604,0.674c-0.168,0.191-0.319,0.391-0.461,0.6
		c-0.206,0.302-0.369,0.626-0.513,0.961c-0.004,0.01-0.012,0.018-0.019,0.027c-0.005-0.001-0.013,0.001-0.015-0.002
		c-0.003-0.005-0.003-0.012-0.003-0.018c-0.001-0.105-0.002-0.21-0.004-0.315c-0.001-0.048,0.011-0.1-0.032-0.139
		c-0.015-0.544-0.017-1.087,0.019-1.631c0.015-0.222,0.03-0.444,0.046-0.666c0.032-0.431,0.085-0.86,0.144-1.289
		C2.835,20.99,3,20.167,3.211,19.354c0.571-2.204,1.459-4.273,2.659-6.207c1.006-1.621,2.201-3.088,3.577-4.407
		c0.451-0.432,0.918-0.846,1.406-1.236C10.882,7.481,10.913,7.461,10.943,7.44z"/>
	<path fill="#213150" d="M47.491,25.334c-0.037,0.033-0.031,0.078-0.032,0.121c-0.002,0.08-0.004,0.16-0.006,0.241
		c0,0.002-0.008,0.005-0.017,0.009c-0.042-0.028-0.054-0.078-0.074-0.12c-0.168-0.359-0.38-0.691-0.618-1.007
		c-0.077-0.103-0.172-0.194-0.246-0.3c-0.11-0.158-0.268-0.273-0.37-0.436c-0.006-0.01-0.016-0.019-0.025-0.028
		c-0.199-0.177-0.355-0.393-0.541-0.584c-0.137-0.141-0.257-0.298-0.385-0.447c-0.096-0.112-0.194-0.223-0.29-0.335
		c-0.139-0.164-0.281-0.327-0.415-0.495c-0.161-0.202-0.315-0.409-0.473-0.614c-0.181-0.234-0.355-0.472-0.534-0.707
		c-0.232-0.304-0.447-0.618-0.673-0.926c-0.222-0.303-0.422-0.622-0.638-0.93c-0.159-0.227-0.313-0.457-0.463-0.689
		c-0.271-0.419-0.552-0.831-0.811-1.258c-0.359-0.592-0.682-1.203-0.979-1.827c-0.185-0.389-0.354-0.787-0.501-1.193
		c-0.08-0.22-0.158-0.441-0.229-0.664c-0.133-0.416-0.236-0.841-0.332-1.267c-0.058-0.258-0.099-0.519-0.133-0.78
		c-0.023-0.175-0.067-0.352-0.048-0.533c0.003-0.03,0.003-0.063-0.003-0.092c-0.068-0.325-0.017-0.653-0.031-0.979
		c0.045-0.236,0.043-0.477,0.076-0.714c0.019-0.14,0.051-0.278,0.079-0.417c0.05-0.254,0.125-0.502,0.212-0.745
		c0.019-0.053,0.034-0.106,0.079-0.144c0.055,0.04,0.112,0.077,0.164,0.119c1.846,1.514,3.417,3.274,4.706,5.284
		c1.207,1.88,2.113,3.895,2.718,6.046c0.229,0.815,0.411,1.641,0.546,2.478c0.136,0.849,0.225,1.703,0.266,2.562
		c0.019,0.408,0.028,0.816,0.027,1.224C47.498,25.235,47.494,25.284,47.491,25.334z"/>
	<path fill="#DBA648" d="M39.811,41.923c-0.067-0.112-0.152-0.209-0.246-0.3c-0.208-0.202-0.378-0.442-0.599-0.631
		c-0.192-0.164-0.367-0.348-0.566-0.505c-0.121-0.095-0.226-0.209-0.347-0.306c-0.269-0.216-0.537-0.434-0.821-0.63
		c-0.259-0.179-0.517-0.359-0.781-0.53c-0.347-0.225-0.705-0.432-1.068-0.631c-0.288-0.157-0.578-0.309-0.874-0.449
		c-0.273-0.129-0.548-0.254-0.828-0.37c-0.279-0.116-0.558-0.233-0.843-0.335c-0.29-0.104-0.575-0.223-0.875-0.299
		c-0.179-0.045-0.353-0.112-0.53-0.164c-0.502-0.149-1.008-0.281-1.522-0.384c-0.277-0.056-0.552-0.128-0.831-0.171
		c-0.273-0.042-0.544-0.098-0.82-0.127c-0.208-0.022-0.414-0.052-0.622-0.074c-0.257-0.028-0.515-0.048-0.771-0.076
		c-0.185-0.021-0.371-0.009-0.553-0.034c-0.376-0.052-0.752-0.026-1.129-0.032c-0.371-0.005-0.742,0-1.113,0.001
		c-0.086,0-0.172-0.001-0.257,0.025c-0.052,0.016-0.11,0.007-0.166,0.01c-0.166,0.007-0.334-0.015-0.497,0.034
		c-0.034,0.01-0.074,0.003-0.111,0.004c-0.105,0.003-0.21-0.008-0.312,0.031c-0.017,0.006-0.037,0.005-0.055,0.006
		c-0.296,0.009-0.586,0.069-0.879,0.102c-0.202,0.023-0.402,0.057-0.602,0.087c-0.225,0.034-0.448,0.08-0.671,0.123
		c-0.514,0.098-1.022,0.223-1.528,0.357c-0.238,0.063-0.475,0.131-0.711,0.204c-0.253,0.078-0.504,0.164-0.755,0.248
		c-0.386,0.13-0.764,0.282-1.14,0.438c-0.474,0.196-0.941,0.406-1.395,0.645c-0.41,0.215-0.816,0.438-1.208,0.684
		c-0.267,0.167-0.53,0.339-0.789,0.518c-0.304,0.211-0.601,0.431-0.886,0.667c-0.199,0.165-0.403,0.325-0.598,0.495
		c-0.135,0.118-0.257,0.25-0.385,0.376c-0.057,0.056-0.11,0.117-0.181,0.158c-0.031,0.018-0.06,0.045-0.081,0.075
		c-0.137,0.193-0.322,0.341-0.48,0.514c-0.041,0.045-0.096,0.079-0.116,0.142c-0.029,0.035-0.057,0.07-0.086,0.105
		c-0.094-0.08-0.191-0.156-0.281-0.239c-0.323-0.297-0.645-0.595-0.95-0.911c-0.017-0.018-0.031-0.038-0.047-0.056
		c0.343-0.366,0.694-0.723,1.062-1.063c0.636-0.587,1.306-1.134,2.015-1.634c0.662-0.468,1.346-0.9,2.057-1.289
		c0.896-0.49,1.821-0.916,2.776-1.279c0.908-0.345,1.834-0.631,2.778-0.857c0.57-0.136,1.144-0.257,1.724-0.345
		c0.421-0.063,0.842-0.125,1.267-0.165c0.27-0.025,0.541-0.049,0.812-0.073c0.284-0.025,0.569-0.017,0.852-0.04
		c0.414-0.034,0.828-0.022,1.242-0.019c0.334,0.002,0.667,0.018,1,0.038c0.308,0.018,0.616,0.041,0.923,0.075
		c0.343,0.037,0.685,0.091,1.028,0.134c0.564,0.072,1.121,0.179,1.676,0.301c0.73,0.161,1.452,0.353,2.162,0.587
		c0.74,0.243,1.467,0.52,2.18,0.834c0.884,0.389,1.735,0.842,2.558,1.347c0.648,0.398,1.272,0.834,1.871,1.302
		c0.331,0.259,0.652,0.53,0.966,0.809c0.282,0.251,0.56,0.506,0.826,0.773c0.161,0.162,0.314,0.332,0.471,0.499
		c-0.155,0.193-0.339,0.359-0.517,0.529c-0.245,0.235-0.499,0.461-0.75,0.69C39.862,41.889,39.836,41.905,39.811,41.923z"/>
	<path fill="#F3F5F9" d="M25.033,16.281c-0.032,0.001-0.068-0.012-0.085-0.048c-0.023-0.05-0.041-0.103-0.058-0.156
		c-0.05-0.159-0.097-0.319-0.146-0.478c-0.119-0.391-0.329-0.731-0.588-1.042c-0.377-0.452-0.851-0.769-1.392-0.988
		c-0.217-0.088-0.431-0.185-0.661-0.237c-0.03-0.007-0.059-0.018-0.087-0.032c-0.074-0.038-0.081-0.141-0.007-0.18
		c0.059-0.031,0.125-0.051,0.19-0.069c0.191-0.053,0.378-0.115,0.561-0.19c0.666-0.272,1.205-0.7,1.599-1.304
		c0.241-0.37,0.418-0.77,0.529-1.199c0.014-0.054,0.028-0.108,0.049-0.159c0.017-0.042,0.051-0.072,0.098-0.073
		c0.049-0.001,0.085,0.029,0.1,0.07c0.03,0.081,0.052,0.165,0.077,0.248c0.143,0.485,0.363,0.932,0.672,1.333
		c0.327,0.423,0.736,0.745,1.218,0.977c0.28,0.134,0.575,0.225,0.866,0.328c0.029,0.01,0.059,0.018,0.087,0.031
		c0.042,0.021,0.065,0.057,0.061,0.105c-0.004,0.04-0.027,0.069-0.063,0.085c-0.022,0.01-0.047,0.016-0.07,0.024
		c-0.192,0.069-0.385,0.133-0.575,0.207c-0.306,0.119-0.596,0.271-0.861,0.467c-0.373,0.277-0.675,0.616-0.909,1.016
		c-0.106,0.181-0.198,0.371-0.278,0.565c-0.08,0.194-0.167,0.385-0.211,0.591C25.131,16.249,25.096,16.278,25.033,16.281z"/>
	<path fill="#F3F5F9" d="M27.302,23.859c-0.001,0.052-0.015,0.08-0.045,0.093c-0.102,0.044-0.204,0.085-0.306,0.128
		c-0.142,0.059-0.288,0.112-0.426,0.179c-0.464,0.226-0.818,0.57-1.07,1.019c-0.066,0.118-0.126,0.241-0.179,0.366
		c-0.062,0.147-0.15,0.283-0.175,0.445c-0.003,0.022-0.022,0.043-0.038,0.062c-0.023,0.028-0.072,0.024-0.1-0.002
		c-0.024-0.023-0.032-0.052-0.041-0.081c-0.034-0.112-0.066-0.225-0.103-0.336c-0.221-0.657-0.637-1.149-1.252-1.471
		c-0.214-0.112-0.438-0.198-0.67-0.265c-0.036-0.01-0.071-0.021-0.106-0.033c-0.039-0.013-0.061-0.041-0.06-0.083
		c0.001-0.044,0.029-0.066,0.067-0.078c0.029-0.01,0.059-0.018,0.088-0.027c0.106-0.032,0.214-0.062,0.319-0.097
		c0.804-0.273,1.333-0.821,1.609-1.619c0.04-0.117,0.071-0.236,0.108-0.354c0.009-0.029,0.02-0.058,0.036-0.084
		c0.023-0.038,0.089-0.04,0.111-0.003c0.019,0.031,0.033,0.066,0.043,0.101c0.038,0.124,0.072,0.249,0.112,0.372
		c0.204,0.615,0.602,1.069,1.165,1.382c0.239,0.132,0.497,0.218,0.755,0.302c0.041,0.013,0.083,0.025,0.122,0.043
		C27.289,23.827,27.303,23.849,27.302,23.859z"/>
	<path fill="#F3F5F9" d="M14.452,29.947c-0.006,0.009-0.013,0.03-0.026,0.036c-0.056,0.025-0.114,0.045-0.171,0.068
		c-0.114,0.046-0.231,0.088-0.342,0.141c-0.356,0.17-0.631,0.43-0.822,0.775c-0.099,0.178-0.187,0.362-0.239,0.56
		c-0.006,0.023-0.02,0.045-0.033,0.065c-0.014,0.022-0.07,0.021-0.081-0.004c-0.022-0.05-0.043-0.102-0.057-0.155
		c-0.038-0.137-0.086-0.27-0.151-0.397c-0.178-0.346-0.44-0.609-0.781-0.792c-0.174-0.094-0.358-0.167-0.544-0.233
		c-0.023-0.008-0.047-0.016-0.068-0.027c-0.033-0.017-0.032-0.074,0.002-0.092c0.027-0.014,0.056-0.024,0.085-0.035
		c0.121-0.046,0.244-0.087,0.363-0.138c0.451-0.196,0.769-0.529,0.973-0.973c0.057-0.123,0.112-0.248,0.146-0.38
		c0.006-0.024,0.012-0.049,0.024-0.069c0.009-0.014,0.028-0.028,0.043-0.03c0.025-0.004,0.049,0.009,0.058,0.035
		c0.015,0.041,0.027,0.082,0.041,0.123c0.085,0.253,0.198,0.492,0.358,0.708c0.253,0.34,0.594,0.551,0.99,0.684
		c0.064,0.022,0.129,0.042,0.192,0.066C14.433,29.892,14.453,29.91,14.452,29.947z"/>
	<path fill="#F3F5F9" d="M38.979,29.929c0.003,0.037-0.017,0.055-0.038,0.064c-0.08,0.032-0.162,0.059-0.243,0.088
		c-0.198,0.072-0.386,0.164-0.557,0.288c-0.251,0.181-0.438,0.416-0.574,0.692c-0.074,0.149-0.146,0.299-0.192,0.46
		c-0.007,0.023-0.016,0.046-0.027,0.068c-0.013,0.025-0.065,0.027-0.081,0.004c-0.013-0.02-0.026-0.042-0.033-0.065
		c-0.019-0.058-0.036-0.118-0.054-0.177c-0.154-0.504-0.469-0.875-0.934-1.121c-0.164-0.087-0.337-0.152-0.511-0.216
		c-0.028-0.011-0.057-0.021-0.084-0.035c-0.027-0.014-0.027-0.06-0.005-0.079c0.035-0.031,0.079-0.033,0.119-0.047
		c0.223-0.073,0.441-0.159,0.638-0.29c0.262-0.175,0.466-0.404,0.613-0.682c0.084-0.158,0.158-0.321,0.206-0.495
		c0.01-0.035,0.027-0.068,0.044-0.101c0.013-0.025,0.068-0.024,0.08,0.002c0.02,0.045,0.037,0.091,0.052,0.137
		c0.099,0.302,0.24,0.581,0.45,0.823c0.246,0.284,0.562,0.458,0.913,0.575c0.064,0.021,0.127,0.045,0.19,0.071
		C38.964,29.899,38.972,29.919,38.979,29.929z"/>
	<path fill="#F3F5F9" d="M30.47,29.937c-0.007,0.01-0.012,0.024-0.022,0.028c-0.045,0.019-0.091,0.037-0.138,0.053
		c-0.371,0.13-0.631,0.377-0.778,0.741c-0.023,0.057-0.046,0.114-0.07,0.171c-0.009,0.022-0.015,0.049-0.049,0.044
		c-0.03-0.005-0.036-0.031-0.044-0.053c-0.012-0.035-0.022-0.071-0.033-0.106c-0.11-0.334-0.324-0.577-0.643-0.725
		c-0.095-0.044-0.194-0.08-0.291-0.119c-0.018-0.007-0.032-0.019-0.034-0.039c-0.002-0.022,0.013-0.033,0.03-0.039
		c0.035-0.013,0.069-0.025,0.105-0.036c0.396-0.127,0.665-0.389,0.815-0.775c0.022-0.057,0.042-0.116,0.064-0.173
		c0.006-0.017,0.015-0.035,0.039-0.031c0.02,0.003,0.03,0.018,0.036,0.036c0.016,0.047,0.032,0.093,0.049,0.139
		c0.147,0.394,0.413,0.665,0.817,0.797c0.046,0.015,0.091,0.036,0.136,0.056C30.474,29.912,30.477,29.923,30.47,29.937z"/>
	<path fill="#F3F5F9" d="M19.168,20.805c-0.005,0.01-0.007,0.026-0.015,0.03c-0.044,0.021-0.089,0.041-0.136,0.057
		c-0.373,0.128-0.633,0.372-0.78,0.738c-0.023,0.057-0.047,0.114-0.068,0.171c-0.009,0.023-0.016,0.051-0.043,0.054
		c-0.04,0.004-0.045-0.035-0.056-0.06c-0.012-0.028-0.017-0.059-0.026-0.089c-0.114-0.364-0.349-0.617-0.7-0.765
		c-0.085-0.036-0.171-0.07-0.256-0.107c-0.008-0.004-0.016-0.019-0.016-0.029c0-0.01,0.007-0.025,0.015-0.029
		c0.033-0.016,0.067-0.031,0.102-0.042c0.421-0.127,0.694-0.407,0.848-0.814c0.022-0.057,0.009-0.161,0.089-0.16
		c0.064,0.001,0.055,0.099,0.076,0.154c0.101,0.259,0.245,0.483,0.479,0.642c0.103,0.07,0.216,0.118,0.331,0.163
		c0.046,0.018,0.092,0.035,0.137,0.054C19.16,20.779,19.163,20.795,19.168,20.805z"/>
	<path fill="#F3F5F9" d="M21.707,29.936c-0.007,0.01-0.011,0.025-0.02,0.029c-0.039,0.018-0.079,0.034-0.12,0.047
		c-0.387,0.129-0.655,0.382-0.804,0.762c-0.022,0.057-0.045,0.115-0.069,0.171c-0.007,0.017-0.018,0.032-0.041,0.028
		c-0.02-0.003-0.031-0.017-0.037-0.035c-0.014-0.041-0.027-0.082-0.041-0.123c-0.11-0.335-0.324-0.577-0.643-0.726
		c-0.1-0.047-0.205-0.085-0.307-0.129c-0.009-0.004-0.017-0.019-0.018-0.03c-0.001-0.01,0.006-0.025,0.013-0.029
		c0.033-0.016,0.067-0.031,0.102-0.041c0.42-0.128,0.696-0.405,0.847-0.813c0.019-0.052,0.038-0.104,0.059-0.155
		c0.003-0.008,0.019-0.015,0.029-0.015c0.01,0,0.025,0.009,0.029,0.017c0.016,0.04,0.03,0.081,0.044,0.122
		c0.144,0.409,0.41,0.697,0.829,0.832c0.047,0.015,0.091,0.036,0.136,0.056C21.702,29.909,21.703,29.925,21.707,29.936z"/>
	<path fill="#F3F5F9" d="M31.958,19.754c0.011,0.004,0.026,0.005,0.031,0.013c0.013,0.02,0.021,0.043,0.03,0.066
		c0.035,0.085,0.066,0.173,0.106,0.256c0.144,0.298,0.373,0.502,0.685,0.613c0.064,0.023,0.126,0.049,0.188,0.076
		c0.022,0.009,0.019,0.05-0.004,0.061c-0.028,0.014-0.055,0.028-0.085,0.037c-0.46,0.136-0.736,0.454-0.889,0.895
		c-0.008,0.023-0.015,0.047-0.025,0.068c-0.005,0.01-0.018,0.019-0.029,0.02c-0.009,0.001-0.025-0.007-0.029-0.015
		c-0.015-0.033-0.029-0.068-0.039-0.103c-0.111-0.38-0.349-0.646-0.714-0.799c-0.085-0.036-0.171-0.071-0.256-0.108
		c-0.008-0.003-0.014-0.02-0.014-0.03c0.001-0.01,0.008-0.025,0.017-0.029c0.033-0.016,0.068-0.031,0.103-0.041
		c0.423-0.127,0.695-0.409,0.845-0.816c0.017-0.046,0.033-0.093,0.051-0.138C31.936,19.769,31.949,19.763,31.958,19.754z"/>
</g>
</svg>
