<svg version="1.0" id="Layer_1" xmlns="http://www.w3.org/2000/svg" xmlns:xlink="http://www.w3.org/1999/xlink" x="0px"
    y="0px" viewBox="0 0 50 50" enable-background="new 0 0 50 50" xml:space="preserve">
    <path fill-rule="evenodd" clip-rule="evenodd" fill="#750014"
        d="M24.228,33c-0.486-0.709-3.078-4.493-3.078-4.493l1.976,5.434
	l-6.125,0.889l6.125,0.889l-2.371,4.643c0,0,2.958-3.11,3.376-3.549c-0.172,6.733-0.215,8.39-0.215,8.39s-15.115-7.014-6.718-22.525
	c0,0-10.472-11.559-0.988-18.672c0,0-16.202,9.78-5.927,26.575c0,0-8.496-8.298-4.05-16.696c0,0-7.706,10.867,1.68,22.821
	c0,0-2.569-1.581-4.841-7.607c0,0,1.657,17.94,21.729,18.176c0,0.002,0,0.002,0,0.002c0.067,0,0.133,0,0.2,0c0.066,0,0.133,0,0.2,0
	c0,0,0,0,0-0.002C45.271,47.04,46.929,29.1,46.929,29.1c-2.272,6.026-4.84,7.607-4.84,7.607c9.385-11.954,1.679-22.821,1.679-22.821
	c4.446,8.398-4.051,16.696-4.051,16.696C49.992,13.787,33.79,4.007,33.79,4.007c9.484,7.113-0.988,18.672-0.988,18.672
	c8.397,15.51-6.718,22.525-6.718,22.525s-0.042-1.657-0.214-8.39c0.418,0.439,3.376,3.549,3.376,3.549l-2.371-4.643l6.125-0.889
	l-6.125-0.889l1.975-5.434c0,0-2.592,3.784-3.078,4.493c-0.22-8.6-0.766-29.939-0.769-30.04c-0.001-0.237-0.001-0.238-0.001-0.238
	s0,0-0.002,0.098c-0.003-0.098-0.003-0.098-0.003-0.098s0,0.001-0.001,0.238C24.992,3.129,24.448,24.419,24.228,33L24.228,33z" />
</svg>