<svg xmlns="http://www.w3.org/2000/svg"  viewBox="0 0 48 48" width="48px" height="48px"><path fill="#01579b" d="M31.76 7.86C31.29 8.9 31 10.25 31 12v27.73L27 46V5.28c0-.08.02-.17.06-.24L31.76 7.86zM21 13L21 46 17 39.73 17 13zM16 12.03V38c-3 1-4 1-4 1V12.03H16zM32 12.03V38c3.01 1 4.013 1 4.013 1V12.03H32z"/><path fill="#1976d2" d="M16 14.03L21 14V5.285c0-.177-.091-.339-.243-.429C19.744 4.257 16 5 16 6S16 11.002 16 14.03zM16 12.03V14h-4v-1.97C12 9 10.13 6.29 7.3 5.22 7.157 5.172 7.04 5.11 7 5h4C14.03 5 16 7.88 16 12.03zM32 12.03V14h4.013v-1.97c0-3.03 1.876-5.74 4.716-6.81C40.88 5.161 40.96 5.11 41 5h-3.983C33.977 5 32 7.88 32 12.03z"/><g><path fill="#e3f2fd" d="M37 5c1 0 4 0 4 0s-2-.375-4-.375c-1.567 0-3.396.499-4.62 2.17l-5.316-1.757 4.701 2.821C31.293 8.903 31 10.25 31 12c0 5.594 0 23.352 0 25.729L27 46l5.07-7.818c0 0 1.008-.042 3.93.818 0 0-1-1-4-2V12.03C32 7.875 33.972 5 37 5zM11 5c-1 0-4 0-4 0s2-.375 4-.375c1.567 0 3.396.499 4.62 2.17l5.316-1.757-4.701 2.821C16.707 8.903 17 10.25 17 12c0 5.594 0 23.352 0 25.729L21 46l-5.07-7.818c0 0-1.008-.042-3.93.818 0 0 1-1 4-2V12.03C16 7.875 14.028 5 11 5z"/></g><g><path fill="#1976d2" d="M43 13l-4 5-1-1H25.25c0 0 2-2 3.75-2C33 15 43 13 43 13zM39 32.167c0 0-8.25 5.771-13.671-3.168C22.468 24.294 25.114 18 25.114 18L27 20l3.375-2c0 0-2.807 14.444 8.304 14.178C38.786 32.178 38.893 32.178 39 32.167zM18.62 34H5l4-5 1 1 3 2 3-2L6.77 18 12 21l1.73-3 7.49 10.23C23.02 30.59 21.6 34 18.62 34zM24 13l-4 5-1-1H6v-1c2-1 7.343-1 9-1L24 13z"/></g><g><path fill="#ffb74d" d="M41 5c-.26-.04-2.14-.38-4-.38-1.57 0-3.4.5-4.62 2.18l-5.32-1.76c.04-.07.1-.14.18-.18C28.26 4.26 32.13 2 33 2c1 0 5.39 1.73 7.76 2.56C40.96 4.63 41.05 4.84 41 5zM11 4.62C9.14 4.62 7.26 4.96 7 5 6.95 4.84 7.04 4.63 7.24 4.56 9.61 3.73 14 2 15 2c.87 0 4.74 2.26 5.76 2.86.08.04.14.11.18.18L15.62 6.8C14.4 5.12 12.57 4.62 11 4.62zM18.08 30.66c-.26.53-.76.84-1.34.84H9.79L9 29l1 1h6C16 30 16 30 18.08 30.66zM27.49 13.25l1.13 1.58L25.25 17C25.25 17 26.15 14.12 27.49 13.25z"/><path fill="#ffb74d" d="M43 13l-4 2.12-.88-.62h-8.97l-1.66-1.25c.24-.16.5-.25.76-.25C32.25 13 43 13 43 13zM24 13l-4 2.12-.88-.62h-8.87c0 0-4.25-.09-4.25 2.5v-1c0-1.66 1.34-3 3-3H24zM25.11 18L30.38 18 27.91 19.15 26.67 19.15zM13.73 18L11.59 19.97 6.77 18z"/></g><g><path fill="#e3f2fd" d="M9 15.5h10l1 .75L24 13l-4 2.125L19.125 14.5H10.25c0 0-4.25-.088-4.25 2.5C6 17 6.109 15.5 9 15.5zM28 19.953L30.375 18l-2.469 1.148h-1.234L25.114 18l1.292 1.891c0 0-3.057 15.759 12.373 12.321C37.084 32.531 25.919 34.112 28 19.953zM18.722 28.482l-6.216-8.133 0 0 0 0-.054-.071L13.73 18l-2.144 1.972L6.77 18l4.855 2.844 6.302 8.246c.354.463.412 1.052.153 1.575S17.318 31.5 16.735 31.5h-6.95L9 29v2.5L5 34l4-1.5 0 0h7.735c.958 0 1.816-.534 2.241-1.392C19.4 30.249 19.303 29.243 18.722 28.482zM39 15.125L38.125 14.5 29.151 14.5 27.489 13.25 28.623 14.832 25.25 17 28.687 15.5 38 15.5 39 16.25 43 13z"/></g><g><path fill="#1e88e5" d="M21 46c0 0-7-3-9-7 2.92-.86 3.93-.82 3.93-.82L21 46zM36 39c-2 4-9 7-9 7l5.07-7.82C32.07 38.18 33.08 38.14 36 39z"/></g></svg>