<svg version="1.0" id="Layer_1" xmlns="http://www.w3.org/2000/svg" xmlns:xlink="http://www.w3.org/1999/xlink" x="0px"
    y="0px" viewBox="0 0 50 50" enable-background="new 0 0 50 50" xml:space="preserve">
    <g>
        <path fill="#3FA9F5" d="M27.925,48.103c-0.375,0-0.749,0-1.124,0c-0.411-0.287-1.029-0.023-1.364-0.494
		c-0.369-0.517-0.239-2.457,0.275-2.84c0.866-0.645,1.438-1.385,1.681-2.483c0.141-0.638,0.115-0.904-0.526-0.914
		c-1.245-0.02-2.492-0.034-3.735,0.014c-0.872,0.034-1.077,0.508-0.596,1.248c0.379,0.583,0.9,1.063,1.463,1.428
		c1.043,0.675,1.207,1.605,1.16,2.736c-0.036,0.863-0.403,1.138-1.201,1.151c-0.738,0.011-1.497-0.158-2.216,0.154
		c-0.999,0-1.999,0-2.998,0c-0.083-0.043-0.162-0.099-0.25-0.127c-0.969-0.311-1.86-0.605-1.357-1.998
		c0.174-0.482-0.327-0.444-0.68-0.285c-1.483,0.669-2.063,0.44-2.756-1.106c-0.094-0.211-0.184-0.26-0.414-0.235
		c-1.405,0.155-1.895-0.233-2.198-1.638c-0.084-0.388,0.012-1.154-0.798-0.466c-0.35,0.297-0.781,0.045-1.101-0.233
		c-1.111-0.97-1.922-2.174-2.594-3.47c-0.597-1.15-0.638-2.455-0.96-3.676c-0.363-1.377-0.195-2.727-0.219-4.083
		c-0.007-0.389,0.066-0.944,0.447-1.291c0.411-0.374,0.579-0.885,0.757-1.383c0.684-1.912,1.302-3.845,1.793-5.816
		c0.483-1.936,0.857-3.916,1.442-5.806c0.876-2.828,1.893-5.611,2.517-8.515c0.309-1.44,0.811-2.82,1.369-4.179
		c0.145-0.352,0.334-0.694,0.79-0.692c0.466,0.002,0.619,0.372,0.764,0.718c0.132,0.316,0.233,0.646,0.335,0.973
		c1.024,3.276,1.679,6.665,3.01,9.848c0.216,0.518,0.53,0.965,0.436,1.642c-0.111,0.796,0.542,1.198,1.208,0.769
		c1.029-0.663,2.193-0.435,3.275-0.627c1.906-0.338,3.817,0.18,5.714,0.46c0.837,0.124,1.849,0.618,1.632-0.986
		c-0.009-0.07,0.087-0.16,0.145-0.232c0.631-0.768,0.925-1.693,1.189-2.624c0.828-2.912,1.771-5.792,2.449-8.747
		c0.128-0.559,0.411-1.128,1.049-1.188c0.71-0.067,0.788,0.593,0.935,1.089c2.043,6.877,4.086,13.755,6.113,20.637
		c0.626,2.125,1.208,4.263,1.811,6.395c0,1.187,0,2.375,0,3.562c-0.54,0.181-1.098,0.227-1.662,0.224
		c-1.903-0.009-3.806-0.049-5.708-0.021c-0.833,0.012-1.378-0.167-1.715-1.047c-0.427-1.114-1.425-1.646-2.522-1.547
		c-1.143,0.104-1.889,0.779-2.313,1.795c-0.426,1.022-0.128,2.13,0.7,2.904c1.29,1.206,3.395,0.764,4.131-0.902
		c0.256-0.579,0.496-1.065,1.237-1.059c2.339,0.018,4.678-0.057,7.016,0.107c0.469,0.033,0.725,0.189,0.61,0.687
		c-0.53,2.299-1.484,4.363-3.344,5.906c-0.563,0.467-1.083,0.395-1.527-0.19c-0.302-0.397-0.596-0.801-0.908-1.19
		c-0.159-0.199-0.365-0.397-0.636-0.225c-0.304,0.192-0.241,0.489-0.086,0.744c0.276,0.453,0.595,0.879,0.865,1.335
		c0.423,0.716,0.267,1.211-0.449,1.627c-0.7,0.407-1.235,0.232-1.691-0.4c-0.13-0.18-0.254-0.539-0.555-0.343
		c-0.291,0.189-0.283,0.458-0.072,0.802c0.36,0.587,0.504,1.227-0.178,1.743c-0.67,0.507-1.281,0.56-1.865-0.163
		c-0.179-0.222-0.481-0.484-0.808-0.216c-0.285,0.234-0.093,0.527,0.031,0.767c0.383,0.738,0.135,1.141-0.619,1.404
		c-0.839,0.293-1.689,0.406-2.57,0.416C29.281,47.962,28.585,47.815,27.925,48.103z M10.422,34.98c0,0.099,0.001,0.198,0.001,0.297
		c1.102,0,2.204,0.011,3.306-0.005c0.494-0.007,0.781,0.159,0.984,0.653c0.495,1.203,1.734,1.941,2.792,1.753
		c0.819-0.146,1.915-1.673,1.954-2.722c0.039-1.069-0.605-1.89-1.693-2.155c-1.527-0.372-2.479-0.043-2.947,1.204
		c-0.301,0.802-0.765,1.026-1.548,0.987C12.324,34.944,11.372,34.98,10.422,34.98z" />
    </g>
</svg>