<svg version="1.0" id="Layer_1" xmlns="http://www.w3.org/2000/svg" xmlns:xlink="http://www.w3.org/1999/xlink" x="0px"
    y="0px" viewBox="0 0 50 50" enable-background="new 0 0 50 50" xml:space="preserve">
    <g>
        <path fill="#F66A02" d="M17.855,42.539c-0.023-0.016-0.049-0.024-0.077-0.023c-0.033-0.024-0.065-0.049-0.097-0.074
		c-0.12-0.059-0.24-0.175-0.374-0.119c-0.308,0.127-0.35-0.119-0.451-0.29c-0.219-0.233-0.507,0.054-0.737-0.098
		c-0.147-0.092-0.238-0.238-0.31-0.384c-0.136-0.277-0.359-0.421-0.63-0.55c-0.492-0.236-0.844-0.683-1.332-0.935
		c-0.106-0.055-0.198-0.139-0.314-0.178c-0.072-0.032-0.14-0.07-0.205-0.115c-0.03-0.021-0.059-0.044-0.087-0.065
		c-0.058-0.027-0.091,0.008-0.121,0.051c-0.042,0.086-0.075,0.175-0.134,0.251c-0.041,0.047-0.091,0.08-0.154,0.088
		c-0.22-0.098-0.124-0.261-0.086-0.413c0.01-0.035,0.02-0.071,0.027-0.106c-0.102-0.211-0.143-0.005-0.207,0.032
		c-0.045,0.08-0.132,0.148-0.143,0.228c-0.098,0.67-0.705,0.71-1.155,0.933c-0.186,0.092-0.387,0.05-0.503-0.164
		c-0.191-0.272-0.286-0.575-0.185-0.895c0.086-0.274,0.043-0.45-0.235-0.555c-0.053-0.02-0.08-0.088-0.101-0.145
		c-0.029-0.106-0.009-0.199,0.045-0.297c0.041-0.074,0.264-0.015,0.146-0.197c-0.051-0.078-0.125-0.132-0.223-0.12
		c-0.116,0.014-0.185,0.087-0.214,0.198c-0.019,0.072-0.011,0.148-0.013,0.223c-0.012,0.647-0.014,0.651-0.467,0.717
		c-0.174-0.045-0.351-0.069-0.532-0.058c-0.066-0.017-0.115-0.056-0.149-0.115c-0.034-0.174,0.097-0.241,0.207-0.322
		c0.024-0.02,0.046-0.044,0.06-0.071c-0.272-0.028-0.467-0.369-0.784-0.183C8.294,38.819,8.267,38.85,8.24,38.88
		c-0.143,0.15-0.291,0.296-0.418,0.461c-0.088,0.1-0.194,0.181-0.291,0.269c-0.235,0.213-0.392,0.148-0.466-0.152
		c0.044-0.251,0.54-0.328,0.268-0.7c-0.065-0.11-0.115-0.225-0.101-0.357c0.003-0.041,0.011-0.081,0.021-0.121
		c0.007-0.172,0.153-0.397-0.169-0.444c-0.187,0.003-0.369,0.102-0.56,0.034c-0.531-0.336-0.558-0.507-0.155-1.004
		c0.041-0.051,0.052-0.103,0.022-0.163c-0.021-0.035-0.038-0.071-0.054-0.108c-0.015-0.039-0.026-0.078-0.033-0.119
		c-0.025-0.183,0.025-0.348,0.089-0.519c0.168-0.449,0.084-0.57-0.381-0.584c-0.077-0.002-0.144-0.032-0.208-0.072
		c-0.221-0.211-0.565-0.341-0.497-0.745c0.007-0.043,0.02-0.085,0.037-0.125c0.027-0.066,0.068-0.125,0.069-0.205
		c0.003-0.457,0.107-0.562,0.553-0.566c0.06-0.001,0.117-0.005,0.169-0.035c0.106-0.065,0.104-0.151,0.047-0.248
		c-0.058-0.098-0.154-0.203-0.045-0.31c0.165-0.162,0.322,0.043,0.485,0.03c0.03-0.018,0.057-0.039,0.079-0.067
		c0.058-0.172-0.077-0.238-0.176-0.323c-0.068-0.048-0.133-0.099-0.183-0.167c-0.044-0.522,0.29-0.14,0.446-0.187
		c0.038,0.016,0.071,0.039,0.101,0.067c0.077,0.109,0.112,0.25,0.239,0.323c0.152,0.089,0.325,0.138,0.45-0.001
		c0.17-0.19-0.088-0.346-0.088-0.53c-0.007-0.044-0.022-0.095-0.005-0.133c0.227-0.497,0.114-1.018,0.108-1.53
		c-0.002-0.185,0.049-0.352,0.111-0.52c0.129-0.265,0.029-0.538,0.022-0.806c-0.016-0.664,0.051-1.328,0.001-1.991
		c-0.013-0.298,0.027-0.597-0.009-0.895c-0.047-0.06-0.084-0.124-0.09-0.202c-0.098-0.184-0.205-0.366-0.058-0.574
		c0.166-0.196,0.227-0.411,0.178-0.672c-0.103-0.545,0.074-1.081,0.073-1.624c-0.004-1.513-0.019-3.027,0.008-4.54
		c0.01-0.587-0.05-1.113-0.526-1.513c-0.109-0.198-0.032-0.369,0.075-0.537c0.022-0.036,0.048-0.07,0.077-0.101
		c0.103-0.111,0.283-0.138,0.34-0.302c0.065-0.163-0.005-0.322-0.013-0.483c0.146-0.519-0.102-1.035-0.011-1.553
		c0.075-0.204,0.237-0.339,0.386-0.484c0.732-0.409,1.352-0.999,2.136-1.325c0.035-0.021,0.07-0.042,0.104-0.064
		c0.125-0.063,0.259-0.112,0.361-0.215c0.743-0.489,1.532-0.903,2.255-1.424c0.449-0.345,0.912-0.67,1.374-0.997
		c0.183-0.13,0.34-0.303,0.552-0.384c0.222-0.085,0.334-0.241,0.374-0.464c0.172-0.275,0.322-0.609,0.704-0.213
		c0.068,0.071,0.178,0.016,0.249-0.04c0.307-0.244,0.66-0.407,0.999-0.596c0.258-0.177-0.137-0.588,0.257-0.717
		c0.259-0.084,0.472-0.241,0.664-0.428c0.199-0.106,0.38-0.237,0.557-0.375c0.033-0.023,0.067-0.044,0.101-0.065
		c0.102-0.063,0.189-0.149,0.304-0.189c0.348-0.185,0.823,0.017,1.107-0.364c0.348-0.119,0.205-0.434,0.264-0.668
		c0.028-0.067,0.072-0.121,0.127-0.168c0.149-0.116,0.308-0.196,0.505-0.145c0.292,0.26,0.582,0.278,0.937,0.085
		c0.314-0.171,0.478-0.076,0.454,0.219c-0.158,1.923,0.283,3.83,0.165,5.748c-0.142,2.312-0.045,4.625-0.103,6.937
		c-0.015,0.613,0.041,1.229,0.08,1.844c-0.124,2.945-0.035,5.891-0.06,8.837c-0.001,0.138,0.018,0.271,0.062,0.401
		c0.033,0.513,0.052,1.023-0.042,1.537c-0.065,0.355-0.061,0.731-0.009,1.087c0.15,1.041,0.123,2.091,0.055,3.126
		c-0.061,0.924-0.024,1.837,0,2.755c-0.124,0.732-0.07,1.467-0.034,2.202c-0.047,0.583-0.082,1.165,0.101,1.736
		c0.06,0.189,0.055,0.385,0.016,0.578c-0.413,0.551,0.02,1.06,0.083,1.587c0.014,0.115,0.082,0.223,0.066,0.346
		c-0.016,0.116-0.101,0.203-0.127,0.315c-0.078,0.181-0.089,0.372-0.091,0.566c-0.002,0.224,0.001,0.447-0.26,0.561
		c-0.25,0.109-0.426-0.011-0.605-0.154c-0.035-0.028-0.073-0.051-0.113-0.07c-0.037-0.023-0.068-0.053-0.093-0.089
		c-0.254-0.286-0.594-0.456-0.905-0.665c-0.461-0.25-0.9-0.537-1.35-0.806c-0.441-0.271-0.844-0.602-1.321-0.815
		C17.954,42.727,17.932,42.61,17.855,42.539z" />
        <path fill="#F66A02"
            d="M43.68,14.709c-0.03,0.061-0.061,0.122-0.091,0.183c0,0,0,0,0,0c-0.132,0.101-0.255,0.214-0.253,0.394
		c0.003,0.235-0.152,0.368-0.299,0.51c-0.003,0.267-0.006,0.534-0.009,0.801c-0.132,0.243-0.014,0.365,0.131,0.592
		c0.304,0.474,0.838,0.857,0.795,1.518c-0.08,0.159-0.145,0.327-0.244,0.474c-0.152,0.227-0.114,0.388,0.122,0.513
		c0.352,0.187,0.447,0.463,0.284,0.827c-0.036,0.088-0.096,0.149-0.188,0.184c-0.411,0.157-0.502,0.333-0.385,0.763
		c0.059,0.217,0.18,0.42,0.153,0.657c-0.016,0.178-0.103,0.317-0.259,0.398c-0.24,0.126-0.325,0.353-0.252,0.57
		c0.107,0.315,0.061,0.617,0.048,0.927c-0.041,0.199,0.084,0.385,0.049,0.584c-0.067,0.133-0.234,0.197-0.25,0.365
		c-0.326,0.413-0.567,0.045-0.833-0.089c-0.105-0.127-0.201-0.291-0.363-0.049c-0.084,0.126-0.21,0.158-0.354,0.101
		c-0.077-0.043-0.127-0.11-0.166-0.186c-0.042-0.095-0.077-0.194-0.131-0.284c-0.307-0.512-0.392-0.534-0.939-0.243
		c-0.17,0.105-0.289,0.048-0.372-0.119c-0.057-0.248-0.084-0.495-0.008-0.748c0.027-0.089-0.019-0.188-0.134-0.182
		c-0.076,0.004-0.065,0.079-0.05,0.138c0.023,0.058,0.043,0.116,0.05,0.177c-0.017,0.179-0.123,0.321-0.202,0.474
		c-0.153,0.122-0.282,0.142-0.353-0.084c0.016-0.235,0.147-0.438,0.137-0.695c-0.011-0.293-0.151-0.501-0.362-0.563
		c-0.348-0.101-0.649-0.325-1.012-0.37c-0.303-0.038-0.589-0.078-0.685-0.448c-0.021-0.083-0.141-0.151-0.226-0.214
		c-0.038-0.013-0.075-0.029-0.111-0.048c-0.113-0.108-0.203-0.244-0.364-0.294c-0.817-0.658-1.667-1.259-2.637-1.683
		c-0.296-0.129-0.531-0.382-0.794-0.578c-0.947-0.561-1.825-1.236-2.809-1.738c-0.817-0.515-1.633-1.031-2.45-1.546
		c-0.502-0.408-1.082-0.689-1.642-1.001c-0.134,0.006-0.225-0.049-0.262-0.183c-0.584-0.315-0.594-0.84-0.589-1.423
		c0.021-2.845,0.006-5.69,0.012-8.535c0.001-0.406-0.082-0.808-0.018-1.22c0.055-0.358,0.201-0.467,0.484-0.247
		c0.248,0.193,0.554,0.308,0.753,0.57c0.148,0.195,0.371,0.25,0.611,0.232c0.86,0.981,2.08,1.454,3.104,2.203
		c0.068,0.05,0.167,0.057,0.252,0.084c0.183,0.118,0.365,0.236,0.548,0.355c0.313,0.091,0.63,0.15,0.827,0.472
		c0.122,0.201,0.408,0.158,0.598,0.28c0.138,0.089,0.291,0.153,0.413,0.265c0.178,0.156,0.226,0,0.289-0.12
		c0.091-0.174,0.216-0.313,0.427-0.235c0.212,0.078,0.223,0.29,0.173,0.459c-0.11,0.37,0.053,0.492,0.386,0.524
		c0.103,0.01,0.268-0.016,0.303,0.045c0.332,0.58,0.992,0.362,1.459,0.614c0.256,0.138,0.497,0.273,0.678,0.502
		c0.331,0.206,0.275-0.232,0.456-0.275c0.032-0.025,0.065-0.051,0.097-0.076c0.216-0.053,0.383,0.045,0.541,0.173
		c0.137,0.097,0.331,0.005,0.458,0.137c0.04,0.049,0.062,0.107,0.071,0.169c0.039,0.076,0.077,0.151,0.116,0.227
		c0.259,0.222,0.317-0.019,0.406-0.178c0.204-0.363,0.47-0.418,0.858-0.173l-0.002,0.004c0.121,0.156-0.004,0.248-0.098,0.336
		c-0.097,0.092-0.164,0.176-0.058,0.302c0.085,0.1,0.184,0.149,0.316,0.101c0.056-0.02,0.11-0.047,0.166-0.068
		c0.355-0.13,0.707-0.192,1.045,0.046l-0.002,0c0.142,0.132,0.311,0.238,0.464,0.347c0.272,0.193,0.55,0.062,0.763-0.18
		c0.096-0.386,0.622-0.807,1.065-0.792c0.25,0.009,0.512-0.036,0.757,0.061c0.061,0.023,0.115,0.057,0.164,0.098
		c0.084,0.095,0.184,0.129,0.306,0.079c0.041-0.004,0.079,0.004,0.114,0.025c0.125,0.321-0.24,0.432-0.289,0.679
		c-0.112,0.293-0.036,0.72-0.526,0.748c-0.137-0.023-0.274-0.042-0.413-0.023c-0.203,0.055-0.3,0.237-0.438,0.367
		c-0.021,0.053-0.025,0.108-0.021,0.164c0.032,0.163,0.148,0.278,0.232,0.412c0.038,0.054,0.068,0.113,0.089,0.176
		c-0.014,0.341,0.287,0.627,0.173,0.985c-0.081,0.186-0.318,0.341-0.058,0.583c0.099,0.092,0.069,0.269-0.111,0.316
		c-0.13,0.034-0.239,0.071-0.203,0.232c0.039,0.172,0.146,0.246,0.331,0.225C43.541,14.555,43.695,14.505,43.68,14.709z" />
        <path fill="#F66A02"
            d="M27.768,30.337c-0.086-0.063-0.172-0.125-0.257-0.188c-0.313-0.25-0.657-0.451-1.013-0.633
		c-0.092-0.058-0.184-0.116-0.276-0.175c-0.852-0.364-0.862-1.077-0.844-1.862c0.026-1.131,0.055-2.264-0.026-3.398
		c-0.022-0.301-0.219-0.259-0.349-0.391c0.502-0.207,0.375-0.665,0.381-1.023c0.028-1.528,0.012-3.057,0.012-4.586
		c0-0.206-0.038-0.467,0.289-0.2c2.366,1.502,4.73,3.005,7.099,4.502c0.161,0.102,0.319,0.236,0.531,0.23
		c0.665,0.395,1.33,0.79,1.995,1.185c0.565,0.56,1.282,0.891,1.955,1.285c1.01,0.593,2.041,1.156,2.962,1.884
		c0.478,0.378,1.102,0.488,1.544,0.913c0.21,0.128,0.419,0.255,0.629,0.383c0.153,0.117,0.306,0.234,0.459,0.352
		c0.25,0.159,0.361,0.359,0.194,0.644c-0.056,0.095-0.06,0.2-0.059,0.306c0.003,0.993-0.038,1.989,0.057,2.979
		c0.033,0.342,0.145,0.684,0.356,0.976c0.01,0.026,0.02,0.052,0.031,0.077c-0.146,0.169-0.306,0.322-0.094,0.567
		c0.123,0.143,0.062,0.339,0.032,0.513c-0.335,0.117-0.545,0.294-0.43,0.703c0.134,0.479-0.303,0.918-0.129,1.413
		c0.018,0.052-0.07,0.068-0.134,0.076c-0.522,0.07-0.663,0.298-0.518,0.813c0.033,0.116,0.21,0.239,0.049,0.354
		c-0.104,0.074-0.237-0.031-0.326-0.101c-0.35-0.276-0.645-0.103-0.947,0.089c-0.048,0.03-0.114,0.03-0.172,0.045
		c-0.605-0.149-1.121,0.042-1.589,0.416c-0.211,0.451-0.716,0.56-1.042,0.884c-0.157,0.156-0.427,0.161-0.643,0.317
		c-0.264,0.191-0.331,0.423-0.448,0.663c-0.008,0.026-0.018,0.052-0.03,0.076c-0.277,0.14-0.633,0.17-0.635,0.626
		c-0.001,0.174-0.249,0.288-0.352,0.456c-0.116,0.228-0.295,0.36-0.557,0.362c-0.164-0.039-0.307,0.031-0.452,0.091
		c-0.186,0.056-0.395,0.024-0.561,0.154c-0.072,0.039-0.146,0.069-0.23,0.062c-0.233,0.16-0.408,0.367-0.776,0.182
		c-0.324-0.163-0.679,0.187-0.674,0.566c0.001,0.105-0.013,0.209-0.02,0.314c-0.127,0.218-0.306,0.224-0.498,0.108
		c-0.242-0.145-0.455-0.1-0.664,0.066c-0.274,0.217-0.629,0.282-0.914,0.48c-0.123,0.059-0.247,0.117-0.37,0.176
		c-0.315,0.242-0.66,0.434-1.007,0.623c-0.484,0.306-0.967,0.612-1.451,0.917c-0.751,0.322-1.355,0.887-2.075,1.261
		c-0.102,0.053-0.185,0.202-0.311,0.139c-0.129-0.065-0.064-0.218-0.064-0.33c-0.004-1.375-0.002-2.75-0.004-4.125
		c-0.001-0.678,0.031-1.358-0.091-2.031c0.103-0.166,0.079-0.35,0.078-0.531c-0.008-1.24-0.011-2.481-0.032-3.721
		c-0.003-0.172,0.088-0.232,0.185-0.328c0.413-0.409,0.987-0.578,1.416-0.96c0.07-0.106,0.202-0.137,0.28-0.234
		c0.429-0.251,0.832-0.547,1.285-0.758c0.413-0.279,0.827-0.558,1.24-0.838c0.295-0.126,0.587-0.255,0.639-0.628
		c0.279-0.453-0.059-0.627-0.369-0.814c-0.295,0.043-0.549-0.076-0.802-0.199C28.898,30.928,28.331,30.635,27.768,30.337z" />
    </g>
</svg>