<svg xmlns="http://www.w3.org/2000/svg"  viewBox="0 0 48 48" width="48px" height="48px"><path fill="#fcbf95" d="M10.641,32.889c0,0,0.061,6.179,3.696,8.894c3.461,1.439,6.604,2.484,8.345,3.36 c1.74,0.875,5.203-0.224,6.721-1.092s6.977-3.423,7.839-5.836c0.862-2.413,2.192-9.978,2.192-9.978l0.987-7.555 c0,0-20.698-10.181-30.418-0.276C10.924,31.323,10.641,32.889,10.641,32.889z"/><path fill="#d03827" d="M40.421,25.739c-1.568-1.404-3.135-2.808-4.703-4.212c-0.91-0.815-1.835-1.64-2.932-2.175 c-0.768-0.374-1.601-0.597-2.441-0.752c-2.476-0.457-5.023-0.342-7.527-0.081c-2.638,0.275-5.302,0.722-7.695,1.865 c-2.394,1.143-4.514,3.063-5.406,5.561c0,0,0.281-4.046,3.561-7.03s4.468-4.597,9.004-4.801s7.428,0.554,9.244,1.578 s5.397,3.562,6.657,5.652C39.441,23.433,40.421,25.739,40.421,25.739z"/><path fill="#fcbf95" d="M42.874,26.489c-0.229-0.243-0.502-0.459-0.825-0.544c-0.486-0.129-1.239-0.141-1.628,0.178 c-0.388,0.319-0.538,0.92-0.791,1.354l-1.361,8.708c0.557,0.098,1.372-0.049,1.824-0.388c0.452-0.339,0.8-0.797,1.133-1.254 c0.882-1.214,1.715-2.509,2.057-3.97C43.625,29.112,43.902,27.581,42.874,26.489z"/><path fill="#c56528" d="M40.801,25.089c-0.638,0.356-0.881,1.137-1.057,1.846c-0.508,2.045-0.922,4.114-1.24,6.197 c-0.133-0.473-0.266-0.946-0.399-1.42c-0.081-0.289-0.164-0.581-0.298-0.85c-0.167-0.334-0.413-0.626-0.562-0.969 c-0.303-0.698-0.169-1.497-0.07-2.251c0.181-1.39,0.316-3.222,0.215-4.62C37.389,23.023,39.484,25.212,40.801,25.089z"/><path fill="#fcbf95" d="M9.752,26.399c-0.329-0.777-1.325-0.964-2.165-1.043c-0.734-0.069-1.597-0.088-2.064,0.482 c-0.277,0.338-0.334,0.8-0.36,1.236c-0.118,1.998,0.213,4.021,0.96,5.877c0.283,0.704,0.635,1.397,1.179,1.926 c0.888,0.865,2.268,1.185,3.446,0.8L9.752,26.399z"/><path fill="#d6e5e5" d="M31.257,26.695c-0.042-0.713-0.237-1.518-0.867-1.855c-0.249-0.133-0.54-0.174-0.822-0.16 c-0.919,0.046-1.736,0.651-2.267,1.402c-0.531,0.751-0.822,1.641-1.106,2.516l3.243,3.046 C30.823,30.46,31.364,28.514,31.257,26.695z"/><path fill="#c56528" d="M12.249,22.638l-2.455,3.098c0.176,1.716,0.305,4.176,0.481,5.892 c0.037,0.361,0.092,0.759,0.365,0.998c0.312-0.666,0.624-1.332,0.936-1.998c0.278-0.593,0.557-1.19,0.732-1.821 c0.235-0.851,0.275-1.743,0.263-2.626C12.555,24.994,12.447,23.808,12.249,22.638z"/><path fill="#513620" d="M29.481,33.516c2.199-0.284,4.298-1.3,5.886-2.848c0.06,1.044,0.118,2.106-0.134,3.121 c-0.252,1.015-0.868,1.992-1.821,2.422c-0.194,0.088-0.411,0.16-0.537,0.332c-0.139,0.19-0.128,0.445-0.161,0.678 c-0.107,0.754-0.741,1.362-1.464,1.6s-1.518,0.157-2.251-0.05c-0.675,1.284-2.452,1.842-3.74,1.174 c-0.223-0.116-0.439-0.265-0.689-0.297c-0.265-0.034-0.525,0.07-0.783,0.14c-1.49,0.404-3.214-0.468-3.772-1.906 c-1.117,0.432-2.478,0.654-3.436-0.066c-0.363-0.273-0.626-0.653-0.883-1.027c-1.043-1.518-2.137-3.281-1.721-5.075 c1.198,1.36,3.136,2.025,4.917,1.686c0,0,0.913,2.299,3.025,3.384C24.675,38.2,29.476,37.294,29.481,33.516z"/><path fill="#d6e5e5" d="M21.228,25.97c-0.283-0.506-0.671-0.971-1.185-1.24c-0.513-0.269-1.165-0.316-1.665-0.023 c-0.166,0.097-0.31,0.226-0.448,0.359c-0.362,0.347-0.704,0.741-0.849,1.22c-0.141,0.465-0.513,2.375,0.731,4.596 c0.215,0.383,0.576,0.761,1.22,1.039l2.784-3.043C21.927,27.88,21.719,26.847,21.228,25.97z"/><path fill="#010101" d="M15.186,23.523c-0.141,0-0.28-0.059-0.379-0.174c-0.18-0.209-0.156-0.524,0.053-0.705 c1.315-1.133,2.998-1.725,4.467-1.592c1.046,0.096,1.915,0.54,2.516,1.286c0.173,0.215,0.139,0.53-0.076,0.703 c-0.216,0.173-0.53,0.141-0.703-0.076c-0.427-0.53-1.059-0.848-1.827-0.918c-1.215-0.109-2.61,0.395-3.724,1.354 C15.417,23.483,15.302,23.523,15.186,23.523z"/><path fill="#010101" d="M27.483,23.432c-0.111,0-0.223-0.037-0.315-0.112c-0.215-0.174-0.247-0.489-0.072-0.703 c0.917-1.127,2.09-1.868,3.303-2.089c1.446-0.261,2.947,0.279,3.747,1.341c0.166,0.221,0.122,0.534-0.099,0.7 c-0.219,0.164-0.533,0.124-0.7-0.099c-0.579-0.769-1.694-1.154-2.77-0.958c-0.979,0.178-1.939,0.794-2.706,1.735 C27.772,23.369,27.628,23.432,27.483,23.432z"/><path fill="#ef4823" d="M9.393,25.311c-0.107-1.024,0.664-2.033,1.215-2.903c1.289-2.035,2.872-3.882,4.685-5.468 c0.817-0.714,1.688-1.38,2.668-1.846c1.428-0.678,3.028-0.902,4.606-1.001c1.175-0.073,2.356-0.081,3.527,0.036 c6.341,0.63,12.137,5.283,14.196,11.314c1.273-1.451,1.718-3.423,1.569-5.347c-0.15-1.924-0.818-3.766-1.514-5.566 c-0.462-1.195-0.943-2.391-1.6-3.491c-0.798-1.336-1.843-2.511-2.978-3.576c-1.835-1.722-3.944-3.188-6.305-4.058 s-4.989-1.117-7.414-0.444c-2.823,0.784-5.16,2.719-7.403,4.604c-0.899,0.755-1.798,1.511-2.697,2.266 c-0.51,0.429-1.023,0.859-1.474,1.35c-0.531,0.577-0.972,1.232-1.349,1.919C7.08,16.835,7.342,21.581,9.393,25.311z"/><path fill="#d6e5e5" d="M29.283,14.788c0.016-0.091,0.319-0.453,0.367-0.532c0.448-0.753,0.578-1.65,0.635-2.524 c0.071-1.09,0.022-2.256-0.586-3.163c-0.335-0.5-0.816-0.882-1.306-1.231c-0.949-0.676-1.989-1.269-3.134-1.484 c-2.002-0.376-4.187,0.551-5.307,2.252c-1.12,1.701-1.171,4.249,0.09,6.201C20.04,14.307,26.175,13.248,29.283,14.788z"/><path fill="#010101" d="M43.237,26.146c-0.34-0.361-0.687-0.586-1.061-0.686c-0.297-0.077-0.773-0.119-1.237-0.039 c1.071-1.412,1.578-3.294,1.416-5.365c-0.154-1.979-0.819-3.829-1.547-5.708c-0.479-1.236-0.964-2.439-1.636-3.567 c-0.738-1.234-1.74-2.439-3.066-3.684c-2.07-1.942-4.248-3.343-6.475-4.162c-2.595-0.958-5.337-1.119-7.72-0.457 c-2.978,0.827-5.429,2.886-7.591,4.703l-2.709,2.275c-0.511,0.43-1.039,0.874-1.508,1.385c-0.523,0.567-0.987,1.228-1.42,2.018 c-1.98,3.619-1.944,8.233,0.029,12.184c-0.357-0.1-0.732-0.153-1.081-0.186c-0.59-0.055-1.813-0.17-2.498,0.664 c-0.362,0.442-0.441,0.994-0.472,1.523c-0.122,2.065,0.222,4.173,0.994,6.093c0.259,0.643,0.64,1.461,1.294,2.098 c0.729,0.71,1.755,1.101,2.773,1.101c0.332,0,0.66-0.052,0.98-0.137c0.365,1.424,0.879,2.736,1.509,3.773 c0.813,1.337,1.693,2.258,2.695,2.815c0.825,0.46,1.729,0.673,2.603,0.879c0.534,0.126,1.039,0.245,1.526,0.416 c0.551,0.193,1.074,0.451,1.63,0.725c0.758,0.372,1.541,0.758,2.4,0.966c0.489,0.118,1.006,0.177,1.542,0.177 c1.162,0,2.418-0.276,3.705-0.823c1.194-0.506,2.309-1.182,3.388-1.835c0.361-0.219,0.723-0.438,1.087-0.65l0.52-0.3 c1.362-0.782,2.771-1.591,3.748-2.889c0.61-0.81,1.024-1.787,1.317-2.761c0.084,0.008,0.162,0.021,0.253,0.021 c0.58,0,1.287-0.159,1.765-0.517c0.501-0.376,0.871-0.857,1.237-1.36c0.896-1.231,1.773-2.587,2.14-4.149 C44.066,29.419,44.515,27.502,43.237,26.146z M9.563,13.341c0.393-0.719,0.811-1.313,1.278-1.821 c0.426-0.464,0.907-0.868,1.427-1.306l2.697-2.266c2.085-1.752,4.447-3.736,7.216-4.506c2.185-0.605,4.709-0.452,7.106,0.432 c2.1,0.773,4.164,2.104,6.137,3.953c1.256,1.18,2.202,2.314,2.891,3.468c0.633,1.061,1.101,2.221,1.563,3.416 c0.699,1.807,1.339,3.581,1.483,5.425c0.126,1.624-0.2,3.108-0.925,4.273c-1.854-4.535-5.79-8.196-10.379-9.865 c0.007-0.01,0.018-0.026,0.022-0.033c0.521-0.873,0.647-1.878,0.704-2.747c0.068-1.05,0.055-2.394-0.67-3.474 c-0.382-0.571-0.914-0.991-1.432-1.36c-0.771-0.55-1.956-1.31-3.331-1.567c-2.2-0.414-4.589,0.602-5.818,2.468 c-1.17,1.778-1.217,4.267-0.184,6.249c-0.54,0.144-1.08,0.316-1.602,0.564c-0.886,0.421-1.744,1.014-2.782,1.922 c-1.854,1.621-3.462,3.497-4.778,5.576l-0.214,0.33c-0.267,0.408-0.55,0.843-0.761,1.303C7.796,20.334,7.902,16.374,9.563,13.341z M12.071,26.188c0.01,0.709-0.009,1.632-0.244,2.485c-0.164,0.593-0.438,1.178-0.704,1.743l-0.384,0.82 c-0.073-0.783-0.14-1.687-0.205-2.591c-0.073-0.993-0.145-1.979-0.228-2.813c0.349-0.859,0.872-1.675,1.54-2.419 C11.973,24.336,12.059,25.264,12.071,26.188z M10.617,23.32c0.065-0.101,0.129-0.205,0.193-0.303l0.221-0.341 c1.265-1.998,2.81-3.801,4.592-5.359c0.966-0.845,1.754-1.391,2.554-1.771c1.453-0.69,3.127-0.872,4.421-0.953 c1.287-0.078,2.416-0.067,3.447,0.034c5.492,0.546,10.614,4.253,13.048,9.25l-3.04-2.722c-0.924-0.827-1.878-1.683-3.047-2.252 c-0.722-0.352-1.538-0.604-2.569-0.793c-2.718-0.504-5.527-0.311-7.67-0.088c-2.437,0.253-5.276,0.679-7.859,1.911 C13.151,20.77,11.678,21.949,10.617,23.32z M27.735,8.713c-0.057-0.198-0.229-0.341-0.435-0.36c-0.193-0.014-0.4,0.089-0.493,0.274 c-0.304,0.605-0.675,1.174-1.066,1.775c-0.261,0.398-0.526,0.806-0.771,1.228c-0.335-0.416-0.577-0.83-0.826-1.392 c-0.072-0.163-0.134-0.334-0.196-0.505c-0.176-0.485-0.376-1.035-0.813-1.449c-0.113-0.106-0.263-0.158-0.424-0.13 c-0.153,0.024-0.287,0.119-0.36,0.257c-0.87,1.623-1.601,3.334-2.185,5.086c-0.807-1.646-0.75-3.67,0.202-5.116 c1.013-1.54,2.984-2.377,4.798-2.036c0.898,0.169,1.832,0.613,2.936,1.399c0.44,0.313,0.888,0.665,1.182,1.103 c0.556,0.83,0.561,1.96,0.502,2.853c-0.04,0.62-0.129,1.308-0.385,1.916C28.771,12.206,28.228,10.433,27.735,8.713z M28.499,14.053 c-0.774-0.198-1.561-0.342-2.355-0.42c-0.615-0.062-1.259-0.092-1.945-0.092c-0.527,0-1.08,0.018-1.663,0.054 c-0.426,0.027-0.899,0.073-1.385,0.134c0.471-1.4,1.03-2.773,1.691-4.091c0.059,0.139,0.111,0.286,0.166,0.437 c0.07,0.192,0.141,0.386,0.223,0.57c0.397,0.896,0.799,1.49,1.479,2.195c0.112,0.116,0.273,0.168,0.435,0.146 c0.16-0.024,0.299-0.125,0.372-0.27c0.303-0.604,0.672-1.169,1.063-1.768c0.176-0.271,0.354-0.544,0.528-0.823 C27.523,11.522,27.98,12.897,28.499,14.053z M7.649,34.52c-0.521-0.506-0.842-1.203-1.063-1.754 c-0.718-1.784-1.037-3.741-0.924-5.661c0.021-0.361,0.065-0.727,0.247-0.948c0.307-0.373,0.995-0.362,1.631-0.302 c0.697,0.065,1.526,0.209,1.752,0.74c0.022,0.052,0.056,0.095,0.092,0.135c0.053,0.63,0.103,1.307,0.152,1.988 c0.077,1.05,0.153,2.099,0.242,2.961c0.031,0.3,0.094,0.765,0.377,1.134c0.057,0.812,0.17,1.62,0.327,2.409 C9.501,35.498,8.38,35.229,7.649,34.52z M36.26,38.853c-0.854,1.134-2.172,1.891-3.447,2.623l-0.525,0.304 c-0.369,0.215-0.735,0.438-1.102,0.659c-1.048,0.635-2.132,1.291-3.26,1.77c-1.681,0.713-3.277,0.921-4.622,0.594 c-0.751-0.182-1.452-0.526-2.193-0.891c-0.558-0.274-1.134-0.558-1.741-0.771c-0.537-0.188-1.091-0.319-1.626-0.445 c-0.846-0.199-1.644-0.388-2.347-0.779c-0.846-0.472-1.607-1.276-2.326-2.462c-1.021-1.68-1.75-4.251-1.92-6.737l0.879-1.877 c0.282-0.603,0.574-1.227,0.761-1.899c0.271-0.977,0.292-1.991,0.281-2.767c-0.016-1.205-0.127-2.423-0.329-3.619 c-0.001-0.008-0.007-0.014-0.008-0.022c0.756-0.656,1.63-1.234,2.603-1.698c2.446-1.167,5.181-1.574,7.532-1.819 c2.074-0.216,4.791-0.402,7.385,0.077c0.94,0.172,1.676,0.397,2.313,0.708c1.043,0.509,1.944,1.316,2.816,2.098l1.513,1.355 c0.062,1.16-0.007,2.75-0.216,4.327l-0.02,0.14c-0.1,0.75-0.21,1.59,0.13,2.37c0.09,0.22,0.21,0.41,0.34,0.61 c0.08,0.13,0.16,0.25,0.23,0.39c0.11,0.22,0.18,0.48,0.26,0.76l0.376,1.334C37.818,35.557,37.188,37.62,36.26,38.853z M38.37,30.91 c-0.03-0.09-0.07-0.18-0.12-0.27c-0.08-0.17-0.18-0.32-0.28-0.48c-0.1-0.15-0.2-0.3-0.27-0.46c-0.23-0.53-0.14-1.17-0.05-1.84 l0.02-0.15c0.164-1.237,0.249-2.476,0.254-3.536l1.704,1.526c-0.193,0.402-0.295,0.818-0.368,1.11 C38.92,28.16,38.63,29.53,38.37,30.91z M42.796,30.459c-0.324,1.39-1.141,2.644-1.974,3.789c-0.319,0.438-0.638,0.856-1.028,1.148 c-0.212,0.159-0.585,0.274-0.943,0.309l1.26-8.063c0.071-0.134,0.138-0.278,0.203-0.426c0.125-0.278,0.254-0.567,0.425-0.707 c0.196-0.163,0.736-0.201,1.182-0.082c0.188,0.05,0.38,0.182,0.589,0.404C43.35,27.724,43.124,29.057,42.796,30.459z"/><path fill="#4b7bb2" d="M19.932,30.152c-0.519-0.714-0.703-1.661-0.49-2.518c0.055-0.222,0.147-0.452,0.336-0.581 c0.197-0.133,0.453-0.127,0.69-0.115c0.193,0.009,0.389,0.019,0.569,0.088c0.18,0.069,0.736,0.681,0.784,0.867l0.299,1.093 C22.122,28.986,20.411,29.554,19.932,30.152z"/><path fill="#4b7bb2" d="M27.901,30.031c0.148-0.201,0.551-0.734,0.699-0.935c0.064-0.087,0.127-0.174,0.179-0.268 c0.281-0.51,0.164-1.178-0.193-1.638c-0.079-0.102-0.17-0.197-0.282-0.259c-0.199-0.11-0.439-0.104-0.665-0.091 c-0.282,0.016-0.597,0.057-0.773,0.278l-0.837,1.873C26.029,28.991,27.661,29.453,27.901,30.031z"/><path fill="#010101" d="M35.866,30.641c-0.011-0.195-0.136-0.367-0.318-0.438c-0.183-0.072-0.39-0.029-0.529,0.107 c-1.404,1.368-3.216,2.287-5.143,2.631c-0.018-0.191-0.046-0.385-0.093-0.581c-0.025-0.104-0.06-0.198-0.089-0.296 c0.023-0.014,0.049-0.023,0.07-0.041c1.375-1.176,2.121-3.178,1.994-5.357c-0.083-1.418-0.661-2.016-1.132-2.268 c-0.31-0.164-0.668-0.239-1.082-0.217c-0.995,0.05-1.961,0.637-2.65,1.611c-0.575,0.812-0.877,1.736-1.167,2.63 c-0.294-0.052-0.583-0.088-0.834-0.088c-0.006,0-0.012,0-0.017,0l-0.617-0.003c-0.655-0.009-1.29-0.011-1.93,0.103 c0.016-0.942-0.204-1.888-0.664-2.71c-0.374-0.668-0.842-1.151-1.389-1.438c-0.705-0.369-1.529-0.376-2.149-0.013 c-0.213,0.124-0.388,0.28-0.542,0.43c-0.358,0.343-0.794,0.816-0.982,1.438c-0.072,0.239-0.666,2.414,0.773,4.984 c0.261,0.465,0.663,0.834,1.184,1.112c-0.024,0.233-0.028,0.466-0.006,0.699c-1.543,0.206-3.169-0.383-4.201-1.554 c-0.124-0.141-0.318-0.201-0.497-0.154c-0.182,0.045-0.322,0.188-0.365,0.371c-0.457,1.971,0.688,3.857,1.796,5.472 c0.264,0.385,0.563,0.82,0.993,1.144c1.05,0.79,2.403,0.631,3.481,0.287c0.799,1.398,2.597,2.194,4.157,1.768l0.162-0.046 c0.165-0.048,0.313-0.097,0.428-0.08c0.102,0.013,0.231,0.085,0.369,0.161l0.152,0.084c0.452,0.233,0.948,0.344,1.444,0.344 c1.067,0,2.135-0.509,2.76-1.389c0.809,0.177,1.539,0.16,2.174-0.049c0.968-0.318,1.676-1.105,1.803-2.004l0.021-0.184 c0.009-0.093,0.022-0.233,0.049-0.269c0.026-0.036,0.154-0.092,0.239-0.129l0.099-0.043c1.013-0.456,1.778-1.462,2.102-2.759 C35.99,32.814,35.928,31.709,35.866,30.641z M29.595,25.18c0.214-0.008,0.414,0.023,0.56,0.101 c0.443,0.237,0.573,0.917,0.604,1.444c0.103,1.768-0.449,3.375-1.474,4.368c-0.221-0.397-0.483-0.743-0.773-1.048 c0.621-0.823,1.219-1.619,0.732-2.714c-0.275-0.619-0.874-0.974-1.496-1.006C28.249,25.643,28.933,25.213,29.595,25.18z M27.092,27.55c0.043-0.022,0.087-0.04,0.128-0.078c0.24-0.223,0.705-0.177,0.92,0.006c0.338,0.288,0.361,0.8,0.165,1.167 c-0.139,0.259-0.329,0.5-0.521,0.738c-0.15-0.12-0.301-0.236-0.454-0.347c-0.188-0.137-0.409-0.247-0.641-0.342 C26.814,28.311,26.942,27.924,27.092,27.55z M23.78,29.328c0.151,0,0.307,0.002,0.467,0.004l0.632,0.003c0.005,0,0.009,0,0.013,0 c0.573,0,1.389,0.174,1.851,0.509c1.052,0.764,1.764,1.49,2.067,2.751c0.098,0.401,0.117,0.87,0.063,1.473 c-0.025,0.288-0.067,0.623-0.183,0.92c-0.542,1.394-2.539,1.702-3.373,1.771c-1.162,0.096-2.033,0.001-2.737-0.301 c-0.522-0.224-1.037-0.595-1.619-1.168c-0.861-0.851-1.324-1.642-1.414-2.419c-0.131-1.129,0.593-2.374,1.761-3.028 C22.118,29.387,22.88,29.328,23.78,29.328z M21.325,28.027c0.017,0.234,0.016,0.467-0.005,0.7 c-0.166,0.069-0.333,0.147-0.501,0.241c-0.254,0.142-0.483,0.311-0.7,0.491c-0.103-0.214-0.186-0.437-0.227-0.681 c-0.05-0.303-0.125-0.962,0.1-1.218C20.406,27.089,21.073,27.611,21.325,28.027z M18.248,30.639 c-1.26-2.248-0.713-4.128-0.689-4.206c0.121-0.398,0.446-0.746,0.718-1.006c0.111-0.107,0.231-0.217,0.354-0.288 c0.318-0.186,0.782-0.176,1.181,0.035c0.373,0.194,0.702,0.545,0.979,1.04c0.049,0.087,0.083,0.182,0.126,0.273 c-0.465-0.146-0.966-0.135-1.39,0.135c-1.109,0.706-0.706,2.589-0.14,3.583c-0.241,0.314-0.433,0.654-0.575,1.008 C18.576,31.05,18.376,30.868,18.248,30.639z M34.748,33.668c-0.245,0.982-0.821,1.764-1.627,2.126 c-0.195,0.084-0.462,0.2-0.648,0.455c-0.188,0.257-0.216,0.537-0.237,0.763l-0.016,0.14c-0.073,0.518-0.525,0.997-1.125,1.195 c-0.538,0.177-1.197,0.156-1.96-0.057c-0.227-0.063-0.468,0.039-0.577,0.249c-0.542,1.031-2.034,1.499-3.066,0.963l-0.129-0.07 c-0.193-0.107-0.435-0.241-0.729-0.279c-0.317-0.04-0.604,0.044-0.836,0.113l-0.141,0.04c-1.257,0.343-2.706-0.396-3.175-1.604 c-0.1-0.258-0.389-0.385-0.646-0.285c-0.729,0.28-2.082,0.656-2.955,0.001c-0.3-0.226-0.539-0.574-0.771-0.911 c-0.824-1.2-1.613-2.461-1.713-3.722c1.238,0.944,2.86,1.369,4.406,1.131c0.271,0.693,0.743,1.382,1.456,2.086 c0.675,0.664,1.287,1.102,1.929,1.376c0.772,0.33,1.6,0.418,2.313,0.418c0.329,0,0.634-0.019,0.898-0.041 c1.269-0.104,3.504-0.554,4.224-2.404c0.16-0.414,0.214-0.836,0.246-1.192c0.006-0.064,0.01-0.141,0.015-0.213 c1.833-0.298,3.581-1.057,5.031-2.211C34.931,32.391,34.902,33.047,34.748,33.668z"/></svg>