<svg version="1.1" id="Layer_1" xmlns="http://www.w3.org/2000/svg" xmlns:xlink="http://www.w3.org/1999/xlink" x="0px"
    y="0px" viewBox="0 0 50 50" style="enable-background:new 0 0 50 50;" xml:space="preserve">
    <style type="text/css">
        .st0 {
            fill: #E02B08;
        }
    </style>
    <path class="st0"
        d="M12,7.2V29H3.4C3.1,27.7,3,26.4,3,25C3,17.7,6.5,11.2,12,7.2z M4.5,33H12v9.8C8.6,40.3,6,36.9,4.5,33z M22,33
	h23.5C42.3,41.2,34.3,47,25,47c-1,0-2-0.1-3-0.2V33z M47,25c0,1.4-0.1,2.7-0.4,4H22V3.2C23,3.1,24,3,25,3C37.2,3,47,12.9,47,25z" />
</svg>