<svg version="1.0" id="Layer_1" xmlns="http://www.w3.org/2000/svg" xmlns:xlink="http://www.w3.org/1999/xlink" x="0px"
    y="0px" viewBox="0 0 50 50" enable-background="new 0 0 50 50" xml:space="preserve">
    <g>
        <path fill="#49D49C" d="M31.863,22.296c-2.239,0.003-4.479,0.008-6.718,0.01c-2.24,0.002-4.479,0.001-6.719,0.002
		c-0.333,0-0.351,0.031-0.189,0.341c0.536,1.022,1.386,1.7,2.416,2.174c0.248,0.114,0.502,0.219,0.76,0.308
		c0.838,0.29,1.234,0.956,1.04,1.767c-0.192,0.803-1.01,1.4-1.794,1.268c-0.324-0.055-0.417,0.037-0.474,0.345
		c-0.267,1.454-0.566,2.901-0.839,4.354c-0.053,0.282-0.142,0.363-0.442,0.287c-0.785-0.198-1.58-0.355-2.372-0.527
		c-0.302-0.066-0.333-0.115-0.199-0.414c0.699-1.562,1.398-3.124,2.107-4.682c0.118-0.259,0.19-0.451-0.149-0.597
		c-0.15-0.065-0.277-0.205-0.388-0.334c-0.153-0.177-0.263-0.166-0.409,0.011c-0.754,0.914-1.516,1.821-2.274,2.732
		c-0.615,0.74-1.231,1.479-1.84,2.223c-0.128,0.156-0.235,0.177-0.406,0.059c-0.903-0.618-1.812-1.226-2.718-1.839
		c-0.252-0.171-0.254-0.238-0.011-0.417c1.215-0.895,2.431-1.788,3.646-2.684c0.856-0.631,1.707-1.27,2.565-1.898
		c0.152-0.111,0.184-0.198,0.081-0.37c-0.113-0.189-0.19-0.403-0.258-0.613c-0.061-0.188-0.15-0.234-0.337-0.162
		c-1.135,0.436-2.272,0.865-3.409,1.295c-1.573,0.594-3.148,1.183-4.718,1.783c-0.222,0.085-0.353,0.046-0.462-0.169
		c-0.652-1.282-1.31-2.56-1.968-3.839c-0.092-0.179-0.047-0.255,0.153-0.273c0.968-0.091,1.934-0.191,2.902-0.283
		c1.602-0.151,3.205-0.298,4.808-0.447c0.817-0.076,1.633-0.158,2.45-0.221c0.195-0.015,0.265-0.061,0.244-0.268
		c-0.024-0.23-0.026-0.469,0.01-0.696c0.034-0.217-0.023-0.274-0.237-0.3c-1.94-0.234-3.878-0.479-5.817-0.723
		c-1.768-0.222-3.535-0.449-5.304-0.663c-0.223-0.027-0.34-0.113-0.409-0.327c-0.539-1.677-1.088-3.351-1.632-5.027
		c-0.026-0.081-0.099-0.181-0.006-0.251c0.079-0.061,0.175-0.002,0.26,0.028c1.485,0.539,2.97,1.08,4.456,1.618
		c2.752,0.996,5.506,1.99,8.258,2.985c0.276,0.1,0.555,0.193,0.823,0.313c0.208,0.093,0.303,0.025,0.4-0.163
		c0.475-0.911,1.112-1.69,1.947-2.298c0.078-0.057,0.139-0.153,0.291-0.132c-0.046,0.283-0.187,0.529-0.291,0.782
		c-0.533,1.293-0.906,2.624-0.944,4.028c-0.015,0.546,0.072,1.09,0.237,1.616c0.017,0.054,0.049,0.13,0.092,0.145
		c0.089,0.032,0.111-0.068,0.146-0.122c1.323-2.051,2.645-4.103,3.967-6.155c0.867-1.345,1.736-2.688,2.599-4.035
		c0.197-0.307,0.286-0.067,0.376,0.071c0.704,1.076,1.399,2.158,2.102,3.236c1.482,2.274,2.967,4.546,4.45,6.82
		c0.061,0.093,0.115,0.19,0.173,0.286C31.88,22.269,31.872,22.283,31.863,22.296z M21.615,17.107c0.02,0.046,0.028,0.076,0.045,0.1
		c1.05,1.6,2.103,3.197,3.147,4.8c0.154,0.237,0.211,0.104,0.303-0.037c1.008-1.53,2.019-3.058,3.026-4.588
		c0.053-0.081,0.171-0.165,0.122-0.26c-0.059-0.114-0.202-0.056-0.306-0.056c-2.006-0.003-4.011-0.003-6.017-0.001
		C21.835,17.063,21.732,17.041,21.615,17.107z" />
        <path fill="#49D49C" d="M31.885,22.253c0.262-0.442,0.301-0.94,0.334-1.431c0.081-1.234-0.189-2.414-0.589-3.571
		c-0.169-0.488-0.352-0.971-0.564-1.443c-0.035-0.079-0.094-0.158-0.036-0.296c0.472,0.33,0.907,0.682,1.272,1.114
		c0.361,0.426,0.69,0.876,0.938,1.378c0.098,0.199,0.199,0.25,0.426,0.167c3.319-1.214,6.642-2.417,9.964-3.623
		c1.161-0.422,2.321-0.846,3.484-1.264c0.109-0.039,0.241-0.143,0.341-0.054c0.109,0.098-0.011,0.225-0.046,0.333
		c-0.529,1.637-1.067,3.272-1.589,4.912c-0.081,0.254-0.216,0.337-0.473,0.366c-1.287,0.149-2.571,0.325-3.856,0.485
		c-2.129,0.265-4.259,0.526-6.389,0.789c-0.291,0.036-0.581,0.086-0.873,0.113c-0.18,0.016-0.228,0.102-0.193,0.261
		c0.055,0.251,0.062,0.505,0.014,0.755c-0.036,0.189,0.049,0.223,0.209,0.237c1.542,0.139,3.084,0.283,4.626,0.426
		c1.784,0.165,3.568,0.329,5.352,0.494c0.07,0.007,0.139,0.031,0.21,0.034c0.216,0.009,0.262,0.087,0.158,0.287
		c-0.67,1.284-1.337,2.569-1.993,3.859c-0.105,0.207-0.221,0.218-0.412,0.146c-1.893-0.72-3.787-1.437-5.682-2.153
		c-0.815-0.308-1.632-0.607-2.444-0.921c-0.211-0.082-0.316-0.042-0.371,0.182c-0.038,0.156-0.088,0.322-0.181,0.448
		c-0.217,0.297-0.08,0.443,0.17,0.626c2.026,1.484,4.042,2.983,6.065,4.471c0.208,0.153,0.221,0.243-0.003,0.392
		c-0.893,0.595-1.784,1.195-2.663,1.811c-0.226,0.158-0.353,0.133-0.523-0.073c-1.107-1.345-2.223-2.682-3.337-4.021
		c-0.253-0.303-0.517-0.598-0.761-0.908c-0.136-0.173-0.237-0.143-0.36,0.003c-0.118,0.14-0.245,0.281-0.411,0.356
		c-0.28,0.126-0.286,0.287-0.167,0.548c0.715,1.566,1.414,3.138,2.118,4.709c0.147,0.327,0.131,0.351-0.234,0.431
		c-0.791,0.174-1.584,0.338-2.37,0.534c-0.258,0.064-0.345-0.011-0.39-0.248c-0.243-1.283-0.494-2.564-0.742-3.846
		c-0.044-0.228-0.094-0.456-0.134-0.685c-0.034-0.197-0.128-0.264-0.337-0.235c-0.994,0.142-1.829-0.506-1.951-1.5
		c-0.078-0.638,0.333-1.253,1.007-1.489c0.998-0.349,1.919-0.822,2.633-1.626c0.323-0.363,0.626-0.744,0.731-1.239
		C31.872,22.283,31.88,22.269,31.885,22.253z" />
        <path fill="#49D49C" d="M24.933,23.497c0.062,0.01,0.073,0.062,0.089,0.109c0.045,0.134,0.089,0.269,0.133,0.403
		c0.25,0.767,0.462,1.54,0.991,2.194c0.37,0.456,0.558,1.032,0.703,1.604c0.19,0.753,0.6,1.363,1.158,1.888
		c0.333,0.314,0.329,0.32-0.081,0.546c-0.293,0.161-0.597,0.303-0.88,0.479c-1.148,0.718-1.232,1.074-1.007,2.373
		c0.05,0.29,0.165,0.563,0.296,0.827c0.071,0.145,0.082,0.281,0.028,0.437c-0.431,1.233-0.854,2.468-1.285,3.701
		c-0.031,0.09-0.03,0.24-0.14,0.248c-0.118,0.008-0.12-0.142-0.152-0.229c-0.465-1.242-0.924-2.486-1.39-3.728
		c-0.051-0.136-0.045-0.245,0.023-0.372c0.36-0.672,0.441-1.401,0.427-2.15c-0.003-0.181-0.093-0.299-0.203-0.423
		c-0.489-0.551-1.118-0.895-1.763-1.219c-0.324-0.163-0.336-0.187-0.065-0.432c0.697-0.629,1.192-1.362,1.341-2.316
		c0.074-0.473,0.279-0.923,0.575-1.295c0.503-0.63,0.687-1.389,0.952-2.117c0.052-0.143,0.099-0.287,0.153-0.429
		C24.852,23.552,24.872,23.502,24.933,23.497z" />
        <path fill="#49D49C"
            d="M29.489,37.694c-0.144-0.053-0.236-0.178-0.346-0.275c-0.471-0.415-0.939-0.835-1.407-1.252
		c-0.107-0.096-0.192-0.208-0.248-0.341c-0.153-0.366,0.025-0.649,0.424-0.674c0.567-0.035,0.565-0.033,0.262-0.506
		c-0.333-0.52-0.665-1.042-0.99-1.567c-0.295-0.477-0.198-0.978,0.225-1.213c0.469-0.261,1.042-0.074,1.275,0.427
		c0.397,0.854,0.796,1.707,1.173,2.57c0.098,0.225,0.224,0.294,0.459,0.292c1.023-0.01,2.047-0.004,3.071-0.003
		c0.206,0,0.427-0.007,0.519,0.225c0.092,0.232-0.033,0.424-0.201,0.562c-0.721,0.589-1.453,1.167-2.18,1.748
		c-0.134,0.107-0.263,0.224-0.406,0.318c-0.102,0.067-0.196,0.25-0.32,0.162c-0.102-0.072,0.019-0.224,0.058-0.333
		c0.154-0.429,0.323-0.852,0.479-1.28c0.115-0.314,0.103-0.329-0.219-0.33c-0.557-0.002-1.115,0.006-1.672-0.004
		c-0.236-0.004-0.313,0.059-0.227,0.301c0.108,0.305,0.188,0.62,0.278,0.931C29.516,37.523,29.564,37.599,29.489,37.694z" />
        <path fill="#49D49C" d="M19.102,38.23c-0.46-0.359-0.921-0.717-1.38-1.077c-0.431-0.337-0.86-0.675-1.29-1.013
		c-0.064-0.05-0.129-0.099-0.185-0.157c-0.163-0.172-0.332-0.358-0.228-0.615c0.099-0.244,0.34-0.218,0.552-0.218
		c1.003-0.002,2.006-0.009,3.008,0.005c0.261,0.003,0.395-0.08,0.501-0.324c0.362-0.836,0.751-1.66,1.13-2.488
		c0.099-0.217,0.232-0.405,0.456-0.509c0.342-0.159,0.803-0.077,1.043,0.181c0.239,0.257,0.279,0.629,0.071,0.988
		c-0.239,0.411-0.504,0.807-0.758,1.21c-0.156,0.248-0.31,0.498-0.468,0.746c-0.087,0.137-0.065,0.203,0.108,0.193
		c0.091-0.005,0.182,0.002,0.273,0c0.204-0.006,0.395,0.029,0.491,0.23c0.1,0.209,0.057,0.416-0.077,0.601
		c-0.041,0.057-0.091,0.109-0.143,0.156c-0.524,0.477-1.05,0.952-1.576,1.426c-0.057,0.052-0.115,0.15-0.2,0.104
		c-0.094-0.05-0.025-0.148-0.005-0.219c0.094-0.331,0.195-0.66,0.296-0.988c0.05-0.163,0.015-0.244-0.178-0.242
		c-0.608,0.007-1.216,0.007-1.823,0c-0.205-0.002-0.248,0.063-0.173,0.252c0.178,0.452,0.344,0.909,0.513,1.364
		c0.041,0.111,0.074,0.226,0.111,0.339C19.148,38.192,19.125,38.211,19.102,38.23z" />
    </g>
</svg>