<svg version="1.0" id="Layer_1" xmlns="http://www.w3.org/2000/svg" xmlns:xlink="http://www.w3.org/1999/xlink" x="0px"
    y="0px" viewBox="0 0 50 50" enable-background="new 0 0 50 50" xml:space="preserve">
    <g>
        <path fill="#FEE896" d="M49.272,12.769c-0.589,0.543-1.139,1.125-1.699,1.697c-1.079,1.104-2.179,2.187-3.248,3.3
		c-0.223,0.233-0.444,0.288-0.745,0.304c-0.747,0.042-1.448-0.177-2.158-0.333c-2.533-0.557-5.062-1.134-7.593-1.703
		c-1.876-0.423-3.753-0.843-5.628-1.274c-0.212-0.049-0.265,0.006-0.26,0.206c0.021,0.867-0.146,0.646,0.649,0.952
		c3.697,1.425,7.397,2.839,11.096,4.257c0.028,0.011,0.057,0.016,0.085,0.026c0.713,0.253,0.707,0.253,0.712,1
		c0.001,0.172-0.048,0.271-0.206,0.346c-1.841,0.873-3.678,1.754-5.518,2.627c-0.261,0.124-0.549,0.022-0.821,0.058
		c-0.336,0.045-0.451-0.221-0.629-0.412c-0.445-0.477-0.898-0.947-1.351-1.417c-1.187-1.232-2.377-2.461-3.563-3.695
		c-0.781-0.813-1.555-1.632-2.337-2.444c-0.105-0.109-0.144-0.221-0.143-0.369c0.004-1.494,0.005-2.988-0.001-4.483
		c-0.001-0.179,0.065-0.294,0.199-0.4c0.953-0.752,1.903-1.509,2.854-2.262c0.065-0.051,0.142-0.159,0.223-0.082
		c0.083,0.079-0.028,0.158-0.072,0.227c-0.511,0.787-1.019,1.577-1.541,2.357c-0.113,0.17-0.063,0.202,0.102,0.203
		c0.188,0.001,0.376,0.001,0.564,0.001c6.723,0,13.445,0.002,20.168-0.009c0.281,0,0.402,0.093,0.491,0.337
		c0.106,0.294,0.189,0.602,0.37,0.865C49.272,12.69,49.272,12.73,49.272,12.769z" />
        <path fill="#FEE896" d="M23.96,43.946c-0.376-0.673-0.752-1.345-1.127-2.018c-0.149-0.268-0.267-0.557-0.443-0.805
		c-0.333-0.469-0.395-0.98-0.393-1.541c0.015-3.938,0.008-7.877,0.008-11.815c0-0.109,0-0.217,0-0.38
		c-0.354,0.376-0.601,0.775-0.879,1.149c-0.641,0.865-1.27,1.738-1.903,2.608c-0.05,0.069-0.089,0.186-0.196,0.132
		c-0.098-0.05-0.013-0.145,0.008-0.21c0.517-1.545,1.039-3.088,1.558-4.632c0.286-0.851,0.569-1.703,0.815-2.607
		c-1.739,1.207-3.478,2.415-5.24,3.638c-0.057-0.173,0.032-0.245,0.096-0.323c1.151-1.405,2.301-2.811,3.453-4.214
		c0.595-0.725,1.195-1.445,1.795-2.166c0.047-0.057,0.076-0.162,0.173-0.138c0.1,0.026,0.064,0.13,0.079,0.203
		c0.143,0.735,0.364,1.437,0.873,2.013c0.312,0.353,0.684,0.629,1.125,0.794c0.231,0.086,0.314,0.213,0.314,0.461
		c-0.006,6.501-0.005,13.002-0.004,19.504c0,0.119,0.007,0.238-0.055,0.347C24,43.946,23.98,43.946,23.96,43.946z" />
        <path fill="#FEE896" d="M26.04,43.946c-0.062-0.109-0.054-0.228-0.054-0.347c0-6.502,0.001-13.003-0.005-19.505
		c0-0.249,0.089-0.368,0.316-0.46c0.821-0.333,1.382-0.932,1.703-1.753c0.136-0.349,0.247-0.708,0.297-1.082
		c0.009-0.069,0.011-0.147,0.095-0.165c0.073-0.015,0.096,0.059,0.131,0.102c0.617,0.745,1.234,1.49,1.849,2.238
		c0.953,1.159,1.905,2.318,2.853,3.481c0.245,0.301,0.519,0.583,0.724,0.915c-0.024,0.028-0.048,0.056-0.073,0.084
		c-1.741-1.209-3.482-2.417-5.288-3.671c0.175,0.53,0.326,0.992,0.48,1.452c0.653,1.948,1.309,3.895,1.959,5.844
		c0.02,0.061,0.111,0.155-0.002,0.204c-0.1,0.043-0.128-0.072-0.17-0.129c-0.609-0.827-1.214-1.656-1.821-2.485
		c-0.306-0.419-0.614-0.836-0.979-1.24c0,0.113,0,0.226,0,0.34c0,3.968-0.006,7.937,0.008,11.905
		c0.002,0.511-0.095,0.956-0.36,1.401c-0.515,0.866-0.976,1.763-1.461,2.647c-0.043,0.078-0.094,0.151-0.141,0.226
		C26.079,43.946,26.059,43.946,26.04,43.946z" />
        <path fill="#FEE896" d="M11.916,11.408c3.416,0,6.832,0,10.248,0c0.059,0,0.119-0.002,0.178,0c0.192,0.009,0.194-0.049,0.094-0.199
		c-0.509-0.765-1.008-1.536-1.507-2.307c-0.048-0.074-0.18-0.156-0.078-0.251c0.102-0.095,0.172,0.039,0.243,0.095
		c0.968,0.766,1.933,1.536,2.904,2.298c0.139,0.109,0.202,0.23,0.193,0.403c-0.048,0.946,0.018,1.892-0.016,2.839
		c-0.019,0.54,0.015,1.083-0.027,1.625c-0.01,0.135-0.034,0.243-0.132,0.345c-0.574,0.6-1.138,1.21-1.711,1.81
		c-1.242,1.302-2.488,2.601-3.733,3.9c-0.663,0.692-1.332,1.379-1.992,2.073c-0.163,0.171-0.341,0.191-0.573,0.208
		c-0.583,0.042-1.051-0.222-1.539-0.454c-1.518-0.721-3.035-1.444-4.556-2.158c-0.224-0.105-0.353-0.213-0.341-0.501
		c0.029-0.66,0.007-0.665,0.677-0.924c1.861-0.72,3.722-1.439,5.585-2.153c1.974-0.756,3.948-1.513,5.928-2.253
		c0.283-0.106,0.373-0.252,0.362-0.543c-0.022-0.538-0.005-0.536-0.528-0.418c-1.903,0.432-3.805,0.865-5.709,1.293
		c-2.827,0.635-5.656,1.265-8.483,1.901c-0.411,0.092-0.825,0.066-1.24,0.073c-0.111,0.002-0.181-0.059-0.253-0.132
		c-1.667-1.704-3.334-3.408-5.004-5.11c-0.092-0.094-0.136-0.175-0.075-0.312c0.121-0.27,0.23-0.546,0.328-0.826
		c0.082-0.235,0.209-0.331,0.477-0.33C5.064,11.411,8.49,11.408,11.916,11.408z" />
    </g>
</svg>