<svg version="1.1" id="Layer_1" xmlns="http://www.w3.org/2000/svg" xmlns:xlink="http://www.w3.org/1999/xlink" x="0px"
    y="0px" viewBox="0 0 48 48" style="enable-background:new 0 0 48 48;" xml:space="preserve">
    <style type="text/css">
        .st0 {
            fill: #28ABCD;
        }
    </style>
    <g>
        <g>
            <path class="st0" d="M24,14.9c-0.3,0.4-0.4,0.8-0.5,1.1c-1.2,2.6-2.3,5.2-3.5,7.8c-1.3,3-2.6,5.9-3.9,8.9
			c-1.3,2.8-2.5,5.7-3.8,8.5c-0.3,0.8-0.7,1.6-1,2.4C11.1,43.8,11,44,10.6,44c-2.9,0-5.7,0-8.6,0c-0.1,0-0.2,0-0.2,0
			c-0.2,0-0.3-0.1-0.2-0.3c0.1-0.3,0.3-0.6,0.4-0.9c0.8-1.8,1.6-3.6,2.4-5.5c0.7-1.7,1.5-3.3,2.2-5c1.1-2.4,2.1-4.8,3.2-7.1
			c1-2.2,2-4.4,3-6.6c1.3-3,2.6-5.9,3.9-8.9C17.4,8,18.2,6.2,19,4.4C19.2,4,19.4,3.9,19.7,4c0.5,0.1,1,0,1.5,0c0.6,0,1.1,0,1.7,0
			c1.4-0.1,2.8,0,4.2,0c0.5,0,0.9,0,1.4,0c0.2,0,0.3,0.2,0.4,0.3c0.6,1.4,1.3,2.9,1.9,4.3c1.1,2.5,2.3,5.1,3.4,7.6
			c1.4,3.2,2.9,6.4,4.3,9.6c0.7,1.6,1.4,3.2,2.1,4.8c1.4,3,2.7,6.1,4,9.1c0.6,1.3,1.1,2.5,1.7,3.8c0,0.1,0.1,0.2,0.1,0.3
			c0.1,0.2,0,0.2-0.2,0.2c-1-0.1-1.9,0.1-2.9,0c-0.5,0-1.1,0-1.6,0c-1.3-0.1-2.7,0.1-4,0c-0.5,0-1.1,0-1.6,0c-1.3-0.1-2.7,0-4,0
			c-1.4,0-2.8,0-4.2,0c-0.6,0-1.3,0-1.9,0c-0.2,0-0.3-0.1-0.4-0.3c-0.6-1-1.3-2.1-1.9-3.1c-0.9-1.4-1.8-2.9-2.7-4.3
			c0-0.1-0.1-0.2-0.1-0.2c-0.1-0.2-0.1-0.3,0.2-0.3c0.6,0,1.3,0,1.9,0c1.4,0,2.8,0,4.2,0c1.3,0,2.7,0,4,0c0.7,0,1.3,0,2,0
			c0.3,0,0.2-0.1,0.2-0.3c-0.9-2-1.8-4-2.7-6.1c-0.7-1.6-1.5-3.2-2.2-4.9c-0.7-1.6-1.5-3.2-2.2-4.8c-0.7-1.5-1.3-3-2-4.5
			C24.1,15.1,24,15,24,14.9z" />
        </g>
    </g>
</svg>