<svg version="1.1" id="Layer_1" xmlns="http://www.w3.org/2000/svg" xmlns:xlink="http://www.w3.org/1999/xlink" x="0px"
    y="0px" viewBox="0 0 48 48" style="enable-background:new 0 0 48 48;" xml:space="preserve">
    <style type="text/css">
        .st0 {
            fill: #FFE622;
        }
    </style>
    <path class="st0" d="M22.9,1.9c-1,0-2.7,0.1-4.4,0.6C17,3,15.7,3.7,14.8,4.7c-1.2,1.2-1.9,2.7-2.1,4.5v0v29.9c0,0,0,0.6,0.2,1.4
	c0.2,0.7,0.6,1.8,1.6,2.9c0.8,0.8,1.9,1.5,3.2,2c1.4,0.5,3.2,0.8,5.2,0.8c0.2,0,0.4,0,0.5,0c0,0,0.6,0.1,1.4,0.1
	c1,0,2.3-0.1,3.8-0.5c1.5-0.4,2.8-1,3.8-1.9c1.2-1.1,2-2.6,2.3-4.4v0v-19l0,0c0,0-0.2-1-1.2-2c-0.6-0.6-1.4-1-2.3-1.3
	c-1.1-0.4-2.5-0.6-4-0.6c0,0-0.1,0-0.2,0c-0.4,0-1.3,0-2.2,0.1c-0.7,0.1-1.3,0.2-1.7,0.4c-0.4,0.2-0.7,0.4-0.8,0.7l0-7.2
	c0.1-0.1,0.7-0.7,1.5-0.7c0,0,0.1,0,0.1,0c0.6,0,1.2,0.3,1.7,0.8l0,3.6c0,0.5,0.4,0.9,0.9,0.9h7.4c0.5,0,0.9-0.4,0.9-0.9V9.2
	c0,0,0-0.7-0.3-1.6c-0.2-0.8-0.8-2.1-1.9-3.1c-0.9-0.8-1.9-1.4-3.2-1.9c-1.3-0.4-2.8-0.6-4.5-0.6c-0.3,0-0.6,0-0.9,0
	C23.7,2,23.4,1.9,22.9,1.9z M28.7,24.7c0.2,0,0.3,0,0.5,0.1c0.5,0.2,0.8,0.5,0.8,0.5v3.4c-1.5,0-2.7,0.2-3.3,0.4
	c-0.8,0.2-1.2,0.4-1.2,0.4l0,0v3.7c-0.9-0.1-1.6,0.1-2,0.3C23,33.8,22.8,34,22.8,34l0,0v7.1h-0.3v0.3h-2.1v-0.3h-0.7v-0.7H20V26.8
	l0-0.2h-0.3v-0.5H20v-0.5h0.5v-0.2h2.3c0.1,0.4,0.4,0.6,0.7,0.7c0.5,0.2,1.1,0.1,1.8-0.1c0.6-0.2,1-0.4,1-0.4l0,0
	C27.4,24.8,28.1,24.7,28.7,24.7z M24.4,29.5l0,0.6l0,0c0,0,0.5,0.1,0.5,0.4l-0.1,0.1c0,0,0,0,0,0c-0.1-0.2-0.7-0.6-1.7,0.3l0,0V33
	h2.2v-3L25,29.5H24.4z" />
</svg>