<svg xmlns="http://www.w3.org/2000/svg"  viewBox="0 0 48 48" width="48px" height="48px"><path fill="#ef6c00" d="M37.89,31.92l-0.12,0.05c-0.26,0.11-0.53,0.21-0.81,0.31c-1.11,3.79-3.83,6.89-7.37,8.5	C27.89,41.56,25.99,42,24,42c-1.98,0-3.86-0.43-5.56-1.21c-3.55-1.6-6.29-4.71-7.4-8.51c-0.28-0.1-0.55-0.2-0.81-0.31l-0.12-0.05	c-0.4-0.17-0.86-0.36-1.34-0.59C10.09,38.53,16.42,44,24,44s13.91-5.47,15.23-12.67C38.75,31.56,38.29,31.75,37.89,31.92z M24,15	c2.35,0,4.56,0.61,6.49,1.67l1.34-1.54C29.53,13.78,26.86,13,24,13s-5.53,0.78-7.83,2.13l1.34,1.54C19.44,15.61,21.65,15,24,15z"/><path fill="#ef6c00" d="M46,12c-2.777,2.777-4.092,0.878-3.242-0.643C44.848,8.698,46,5.407,46,2L25.49,25.41L25.111,22H26	l-1-1l-1.414-1.414c-0.781-0.781-2.047-0.781-2.828,0l2.16,2.16L22.51,25.41L2,2c0,3.407,1.152,6.698,3.242,9.357	C6.092,12.878,4.777,14.777,2,12c0.655,1.964,1.821,3.719,3.38,5.082l2.824,2.471C7.084,19.185,5.858,19,5,19c-2,0-3-2-3-2	c0,5,5,6,5,6c3,1-2,1-2,1c0,1,3,2,5,3c-1,1-3,0-3,0c0,1.5,2.5,2.5,4,3.125C12.476,30.74,14.076,31,15.676,31H19c-2,0-3,2-3,2	c2.253,0,3.689-0.406,4.592-0.853C21.488,34.497,20,36,20,36l-1-2l-1,3c0,0,1,3,4.141,3h0.015C22.056,39.548,22,39.017,22,38.4	c0-2.485,2-5.4,2-5.4s2,2.915,2,5.4c0,0.617-0.056,1.148-0.155,1.6h0.015C29,40,30,37,30,37l-1-3l-1,2c0,0-1.488-1.503-0.592-3.853	C28.311,32.594,29.747,33,32,33c0,0-1-2-3-2h3.324c1.599,0,3.199-0.26,4.676-0.875C38.5,29.5,41,28.5,41,27c0,0-2,1-3,0c2-1,5-2,5-3	c0,0-5,0-2-1c0,0,5-1,5-6c0,0-1,2-3,2c-0.858,0-2.084,0.185-3.204,0.554l2.824-2.471C44.179,15.719,45.345,13.964,46,12z"/></svg>