<svg xmlns="http://www.w3.org/2000/svg"  viewBox="0 0 100 100" width="48px" height="48px"><path fill="#0b81a0" d="M2.5,55.473c1.75,0.5,10-0.5,16-5c0.25,2.5,1,5,1,5c-2,1.25-6,3-8,4c1,3.25,4.25,11.5,5.5,13.5	s2.25,3.5,5,5c-3-0.25-7-1.5-7-1.5c-1.5-3-6.445-13.89-7.5-16C6.75,58.973,4.75,56.723,2.5,55.473z"/><path fill="#0b81a0" d="M15.5,61.473c1.5,0.25,4-0.5,5.25-1.5c0.5,1.25,1.25,2.5,1.25,2.5c-0.5,0.5-1.5,1.5-1.5,1.5	c1,2,3.75,8.5,6,10c-2-0.25-4.25-1-4.25-1C21,70.223,18.25,62.723,15.5,61.473z"/><path fill="#0b81a0" d="M97.5,55.473c-1.75,0.5-10-0.5-16-5c-0.25,2.5-1,5-1,5c2,1.25,6,3,8,4c-1,3.25-4.25,11.5-5.5,13.5	s-2.25,3.5-5,5c3-0.25,7-1.5,7-1.5c1.5-3,6.445-13.89,7.5-16C93.25,58.973,95.25,56.723,97.5,55.473z"/><path fill="#0b81a0" d="M84.5,61.473c-1.5,0.25-4-0.5-5.25-1.5c-0.5,1.25-1.25,2.5-1.25,2.5c0.5,0.5,1.5,1.5,1.5,1.5	c-1,2-3.75,8.5-6,10c2-0.25,4.25-1,4.25-1C79,70.223,81.75,62.723,84.5,61.473z"/><path fill="#0b81a0" d="M78,43.973c-14-5-25-13-28-23c-3,10-14,18-28,23c-1,7.75,0.5,17.75,10,26	c-8.5-12.5-5.83-18.952,2.25-23.75c8-4.75,15.75-9.25,15.75-9.25s7.75,4.5,15.75,9.25c8.08,4.798,10.75,11.25,2.25,23.75	C77.5,61.723,79,51.723,78,43.973z"/><path fill="#0b81a0" d="M67.5,55.473c-6.5-2.5-15.5-7.25-17.5-14c-2,6.75-11,11.5-17.5,14c-0.75,3.5-0.5,10.5,5.5,17	c-7.5-10.5-1.457-13.426,2-15.5c5-3,10-5.5,10-5.5s5,2.5,10,5.5c3.457,2.074,9.5,5,2,15.5C68,65.973,68.25,58.973,67.5,55.473z"/><path fill="#0b81a0" d="M61.305,64.517C58,62.723,51.5,59.723,50,55.473c-1.5,4.25-8,7.25-11.305,9.044	c-0.485,2.261-0.445,6.706,3.805,10.956c-5.25-6.25-0.456-9.165,1.04-9.987c3.21-1.763,6.46-3.553,6.46-3.553s3.25,1.79,6.46,3.553	c1.496,0.822,6.29,3.737,1.04,9.987C61.75,71.223,61.79,66.778,61.305,64.517z"/><path fill="#1f212b" d="M68,70.973c-0.237,0-0.475-0.084-0.664-0.253c-0.376-0.333-0.445-0.894-0.163-1.31	c4.093-6.018,5.675-10.773,4.837-14.538c-0.659-2.963-2.811-5.438-6.771-7.79C58.49,43.075,51.846,39.203,50,38.13	c-1.846,1.073-8.49,4.945-15.239,8.952c-3.96,2.352-6.111,4.827-6.771,7.79c-0.838,3.765,0.744,8.521,4.837,14.538	c0.282,0.416,0.213,0.977-0.163,1.31c-0.375,0.335-0.94,0.337-1.319,0.008c-10.261-8.91-11.284-19.537-10.337-26.883	c0.049-0.373,0.302-0.688,0.656-0.813c14.716-5.256,24.694-13.4,27.378-22.346c0.127-0.423,0.517-0.713,0.958-0.713	s0.831,0.29,0.958,0.713c2.684,8.945,12.662,17.09,27.378,22.346c0.354,0.126,0.607,0.44,0.656,0.813	c0.947,7.346-0.076,17.973-10.337,26.883C68.468,70.891,68.233,70.973,68,70.973z M50,35.973c0.174,0,0.347,0.045,0.502,0.135	c0.078,0.046,7.846,4.558,15.759,9.256c4.467,2.652,6.914,5.535,7.701,9.074c0.542,2.437,0.248,5.167-0.898,8.247	c4.074-6.354,4.572-12.925,4.017-17.98C63.247,39.655,53.769,32.328,50,23.84c-3.769,8.488-13.247,15.815-27.08,20.864	c-0.556,5.056-0.058,11.627,4.017,17.98c-1.146-3.08-1.44-5.811-0.898-8.247c0.787-3.539,3.234-6.422,7.701-9.074	c7.913-4.698,15.681-9.21,15.759-9.256C49.653,36.018,49.826,35.973,50,35.973z"/><path fill="#1f212b" d="M62,72.973c-0.111,0-0.223-0.037-0.315-0.112c-0.205-0.166-0.245-0.464-0.092-0.679	c2.748-3.847,3.885-7.017,3.377-9.421c-0.547-2.588-2.894-3.978-4.779-5.093l-0.447-0.267c-4.335-2.601-8.718-4.849-9.743-5.368	c-1.025,0.52-5.41,2.769-9.743,5.368l-0.447,0.267c-1.886,1.115-4.232,2.505-4.779,5.093c-0.508,2.404,0.629,5.574,3.377,9.421	c0.153,0.215,0.113,0.513-0.092,0.679s-0.504,0.146-0.683-0.049c-5.601-6.067-6.576-12.989-5.622-17.443	c0.036-0.165,0.152-0.302,0.31-0.362c5.542-2.132,15.146-6.742,17.2-13.675c0.127-0.426,0.832-0.426,0.959,0	c2.054,6.933,11.658,11.543,17.2,13.675c0.157,0.061,0.273,0.197,0.31,0.362c0.954,4.454-0.021,11.376-5.622,17.443	C62.27,72.918,62.135,72.973,62,72.973z M50,50.973c0.076,0,0.153,0.018,0.224,0.053c0.05,0.025,5.074,2.543,10.033,5.519	l0.443,0.263c1.945,1.152,4.61,2.729,5.248,5.747c0.183,0.869,0.19,1.8,0.02,2.799c1.764-4.467,1.338-8.195,1.096-9.513	C61.669,53.737,52.839,49.426,50,42.925c-2.839,6.501-11.669,10.812-17.063,12.915c-0.242,1.317-0.668,5.046,1.096,9.513	c-0.171-0.999-0.163-1.93,0.02-2.799c0.638-3.018,3.303-4.595,5.248-5.747l0.443-0.263c4.959-2.976,9.983-5.493,10.033-5.519	C49.847,50.99,49.924,50.973,50,50.973z"/><path fill="#1f212b" d="M57.5,75.973c-0.121,0-0.242-0.044-0.338-0.132c-0.197-0.181-0.217-0.484-0.045-0.689	c1.772-2.11,2.517-4.004,2.213-5.628c-0.262-1.398-1.309-2.609-3.11-3.599L50,62.503l-6.219,3.422	c-1.803,0.989-2.85,2.2-3.111,3.599c-0.304,1.624,0.44,3.518,2.213,5.628c0.172,0.205,0.152,0.509-0.045,0.689	c-0.196,0.182-0.501,0.176-0.691-0.015c-4.748-4.748-4.337-9.564-3.94-11.414c0.031-0.144,0.122-0.266,0.251-0.335	c0.363-0.197,0.766-0.409,1.195-0.636c3.427-1.806,8.605-4.535,9.876-8.135c0.141-0.4,0.803-0.4,0.943,0	c1.271,3.6,6.449,6.329,9.876,8.135c0.43,0.227,0.832,0.438,1.195,0.636c0.129,0.069,0.22,0.191,0.251,0.335	c0.396,1.85,0.808,6.666-3.94,11.414C57.756,75.924,57.628,75.973,57.5,75.973z M50,61.433c0.083,0,0.166,0.021,0.241,0.062	l6.46,3.553c2.077,1.141,3.292,2.585,3.612,4.292c0.049,0.266,0.077,0.535,0.082,0.809c0.808-2.278,0.668-4.214,0.465-5.304	c-0.304-0.163-0.633-0.336-0.979-0.519c-3.244-1.71-7.996-4.214-9.882-7.642c-1.886,3.428-6.638,5.932-9.882,7.642	c-0.346,0.183-0.675,0.355-0.979,0.519c-0.203,1.09-0.343,3.025,0.465,5.304c0.005-0.273,0.033-0.543,0.082-0.809	c0.32-1.707,1.535-3.151,3.613-4.292l6.459-3.553C49.834,61.453,49.917,61.433,50,61.433z"/><path fill="#1f212b" d="M75.5,46.973c-0.048,0-0.096-0.007-0.144-0.021c-4.462-1.338-13.947-5.557-21.19-12.877	c-0.194-0.196-0.192-0.513,0.004-0.707c0.197-0.195,0.514-0.191,0.707,0.004c7.102,7.178,16.396,11.312,20.767,12.623	c0.265,0.079,0.415,0.357,0.335,0.622C75.914,46.833,75.715,46.973,75.5,46.973z"/><path fill="#1f212b" d="M52.454,31.973c-0.142,0-0.282-0.06-0.381-0.176c-0.706-0.83-1.372-1.683-1.98-2.533	c-0.16-0.226-0.108-0.537,0.116-0.698c0.226-0.159,0.537-0.107,0.698,0.116c0.591,0.829,1.24,1.658,1.928,2.467	c0.179,0.211,0.153,0.526-0.057,0.705C52.684,31.934,52.569,31.973,52.454,31.973z"/><path fill="#1f212b" d="M22,78.473c-0.014,0-0.027-0.001-0.042-0.002c-3.02-0.251-6.941-1.469-7.107-1.521	c-0.13-0.041-0.237-0.133-0.298-0.254c-0.819-1.639-2.686-5.671-4.331-9.229c-1.384-2.99-2.691-5.815-3.169-6.771	c-0.712-1.425-2.635-3.586-4.796-4.786c-0.222-0.124-0.316-0.395-0.219-0.629c0.097-0.235,0.354-0.363,0.6-0.289	c1.615,0.459,9.727-0.543,15.562-4.92c0.144-0.107,0.335-0.131,0.501-0.058c0.165,0.073,0.278,0.229,0.296,0.408	c0.243,2.424,0.975,4.882,0.981,4.906c0.065,0.216-0.022,0.448-0.214,0.567c-1.419,0.888-3.744,1.982-5.796,2.948	c-0.686,0.323-1.325,0.625-1.862,0.887c1.109,3.436,4.136,11.086,5.317,12.977c1.293,2.068,2.218,3.408,4.815,4.826	c0.208,0.112,0.308,0.355,0.239,0.582C22.415,78.329,22.22,78.473,22,78.473z M15.352,76.057c0.61,0.183,2.51,0.731,4.471,1.102	c-1.424-1.114-2.244-2.318-3.246-3.921c-1.306-2.088-4.551-10.358-5.554-13.617c-0.072-0.234,0.035-0.485,0.254-0.595	c0.608-0.304,1.401-0.678,2.267-1.085c1.783-0.84,3.971-1.87,5.372-2.697c-0.188-0.683-0.578-2.207-0.811-3.871	c-4.78,3.296-10.652,4.541-13.812,4.69c1.677,1.295,3.038,2.951,3.655,4.187c0.484,0.969,1.795,3.801,3.182,6.798	C12.711,70.466,14.496,74.323,15.352,76.057z"/><path fill="#1f212b" d="M26.5,74.473c-0.021,0-0.041-0.001-0.062-0.004c-2.025-0.253-4.252-0.99-4.346-1.021	c-0.132-0.044-0.239-0.142-0.297-0.268c-0.205-0.45-0.449-1.027-0.728-1.683c-1.364-3.218-3.648-8.604-5.774-9.569	c-0.229-0.104-0.345-0.36-0.271-0.601c0.073-0.241,0.314-0.393,0.561-0.348c1.323,0.222,3.682-0.459,4.855-1.397	c0.124-0.099,0.285-0.131,0.44-0.093c0.152,0.04,0.277,0.15,0.336,0.298c0.479,1.199,1.208,2.416,1.215,2.429	c0.118,0.196,0.087,0.448-0.075,0.61l-1.247,1.247c0.137,0.283,0.295,0.621,0.473,0.999c1.2,2.555,3.435,7.309,5.198,8.484	c0.193,0.129,0.272,0.373,0.191,0.591C26.896,74.345,26.707,74.473,26.5,74.473z M22.614,72.565c0.398,0.125,1.326,0.403,2.37,0.633	c-1.626-1.987-3.252-5.448-4.311-7.7c-0.247-0.526-0.458-0.974-0.621-1.301c-0.097-0.192-0.059-0.425,0.094-0.577l1.229-1.229	c-0.205-0.363-0.537-0.979-0.843-1.655c-0.996,0.617-2.343,1.072-3.55,1.228c1.979,2.006,3.756,6.197,5.006,9.144	C22.223,71.659,22.433,72.155,22.614,72.565z"/><path fill="#1f212b" d="M78,78.473c-0.22,0-0.415-0.144-0.479-0.356c-0.068-0.227,0.031-0.47,0.239-0.582	c2.598-1.418,3.522-2.758,4.815-4.826c1.182-1.891,4.208-9.541,5.317-12.977c-0.537-0.262-1.177-0.563-1.862-0.887	c-2.052-0.966-4.377-2.061-5.796-2.948c-0.191-0.119-0.279-0.352-0.214-0.567c0.007-0.024,0.739-2.485,0.981-4.906	c0.018-0.18,0.131-0.335,0.296-0.408s0.356-0.05,0.501,0.058c5.838,4.379,13.948,5.38,15.562,4.92	c0.246-0.072,0.502,0.055,0.6,0.289s0.003,0.505-0.219,0.629c-2.161,1.2-4.084,3.361-4.796,4.786	c-0.478,0.955-1.785,3.78-3.169,6.771c-1.646,3.559-3.512,7.591-4.331,9.229c-0.061,0.121-0.168,0.213-0.298,0.254	c-0.166,0.052-4.088,1.27-7.107,1.521C78.027,78.472,78.014,78.473,78,78.473z M81.085,55.243c1.401,0.827,3.589,1.857,5.372,2.697	c0.865,0.407,1.658,0.781,2.267,1.085c0.219,0.109,0.326,0.36,0.254,0.595c-1.003,3.259-4.248,11.529-5.554,13.617	c-1.002,1.603-1.822,2.807-3.246,3.921c1.961-0.37,3.86-0.919,4.471-1.102c0.855-1.733,2.641-5.591,4.223-9.01	c1.387-2.997,2.697-5.829,3.182-6.798c0.617-1.235,1.979-2.892,3.655-4.187c-3.16-0.149-9.031-1.395-13.812-4.69	C81.663,53.036,81.272,54.561,81.085,55.243z"/><path fill="#1f212b" d="M73.5,74.473c-0.207,0-0.396-0.128-0.469-0.325c-0.081-0.218-0.002-0.462,0.191-0.591	c1.764-1.176,3.998-5.93,5.198-8.484c0.178-0.378,0.336-0.716,0.473-0.999l-1.247-1.247c-0.162-0.162-0.193-0.414-0.075-0.61	c0.007-0.013,0.736-1.232,1.215-2.429c0.059-0.147,0.184-0.258,0.336-0.298c0.155-0.037,0.316-0.006,0.44,0.093	c1.174,0.938,3.537,1.616,4.855,1.397c0.242-0.044,0.487,0.106,0.561,0.348c0.073,0.24-0.043,0.497-0.271,0.601	c-2.126,0.966-4.41,6.352-5.774,9.569c-0.278,0.655-0.522,1.232-0.728,1.683c-0.058,0.126-0.165,0.224-0.297,0.268	c-0.094,0.031-2.32,0.769-4.346,1.021C73.541,74.472,73.521,74.473,73.5,74.473z M78.625,62.391l1.229,1.229	c0.152,0.152,0.19,0.385,0.094,0.577c-0.163,0.327-0.374,0.774-0.621,1.301c-1.059,2.252-2.685,5.713-4.311,7.7	c1.044-0.229,1.972-0.508,2.37-0.633c0.182-0.409,0.392-0.905,0.626-1.458c1.25-2.946,3.027-7.138,5.006-9.144	c-1.207-0.155-2.554-0.61-3.55-1.228C79.162,61.411,78.83,62.028,78.625,62.391z"/></svg>