<?xml version="1.0" encoding="UTF-8"?>
<svg xmlns="http://www.w3.org/2000/svg" xmlns:xlink="http://www.w3.org/1999/xlink" viewBox="0 0 48 48" width="48px" height="48px">
<defs>
<linearGradient id="linear0" gradientUnits="userSpaceOnUse" x1="35.609371" y1="27.635559" x2="35.609371" y2="131.117752" gradientTransform="matrix(0.27907,0,0,0.27907,0,0)">
<stop offset="0" style="stop-color:rgb(90.980393%,90.980393%,90.980393%);stop-opacity:1;"/>
<stop offset="1" style="stop-color:rgb(40.000001%,40.000001%,40.000001%);stop-opacity:1;"/>
</linearGradient>
<linearGradient id="linear1" gradientUnits="userSpaceOnUse" x1="76.257812" y1="27.635559" x2="76.257812" y2="131.117752" gradientTransform="matrix(0.27907,0,0,0.27907,0,0)">
<stop offset="0" style="stop-color:rgb(90.980393%,90.980393%,90.980393%);stop-opacity:1;"/>
<stop offset="1" style="stop-color:rgb(40.000001%,40.000001%,40.000001%);stop-opacity:1;"/>
</linearGradient>
<linearGradient id="linear2" gradientUnits="userSpaceOnUse" x1="114.21875" y1="27.635559" x2="114.21875" y2="131.117752" gradientTransform="matrix(0.27907,0,0,0.27907,0,0)">
<stop offset="0" style="stop-color:rgb(90.980393%,90.980393%,90.980393%);stop-opacity:1;"/>
<stop offset="1" style="stop-color:rgb(40.000001%,40.000001%,40.000001%);stop-opacity:1;"/>
</linearGradient>
<linearGradient id="linear3" gradientUnits="userSpaceOnUse" x1="73.785309" y1="11.68525" x2="73.785309" y2="147.360992" gradientTransform="matrix(0.27907,0,0,0.27907,0,0)">
<stop offset="0" style="stop-color:rgb(69.01961%,69.01961%,69.01961%);stop-opacity:1;"/>
<stop offset="1" style="stop-color:rgb(18.039216%,18.039216%,18.039216%);stop-opacity:1;"/>
</linearGradient>
<linearGradient id="linear4" gradientUnits="userSpaceOnUse" x1="146.904114" y1="11.68525" x2="146.904114" y2="147.360992" gradientTransform="matrix(0.27907,0,0,0.27907,0,0)">
<stop offset="0" style="stop-color:rgb(69.01961%,69.01961%,69.01961%);stop-opacity:1;"/>
<stop offset="1" style="stop-color:rgb(18.039216%,18.039216%,18.039216%);stop-opacity:1;"/>
</linearGradient>
<linearGradient id="linear5" gradientUnits="userSpaceOnUse" x1="81.769867" y1="33.08313" x2="81.960693" y2="33.08313" gradientTransform="matrix(0.27907,0,0,0.27907,0,0)">
<stop offset="0" style="stop-color:rgb(69.01961%,69.01961%,69.01961%);stop-opacity:1;"/>
<stop offset="1" style="stop-color:rgb(18.039216%,18.039216%,18.039216%);stop-opacity:1;"/>
</linearGradient>
</defs>
<g id="surface29327733">
<rect x="0" y="0" width="48" height="48" style="fill:rgb(100%,100%,100%);fill-opacity:1;stroke:none;"/>
<path style=" stroke:none;fill-rule:nonzero;fill:url(#linear0);" d="M 7.5 11.8125 C 7.6875 12 13.5 24 13.5 24 L 8.25 32.25 L 6.375 12.1875 Z M 7.5 11.8125 "/>
<path style=" stroke:none;fill-rule:nonzero;fill:url(#linear1);" d="M 13.875 22.3125 L 21 11.25 L 28.6875 23.4375 L 21.75 39.9375 Z M 13.875 22.3125 "/>
<path style=" stroke:none;fill-rule:nonzero;fill:url(#linear2);" d="M 29.0625 22.6875 L 34.125 9.5625 L 34.6875 12.9375 L 34.5 32.25 Z M 29.0625 22.6875 "/>
<path style=" stroke:none;fill-rule:nonzero;fill:url(#linear3);" d="M 13.390625 26.042969 C 12.445312 27.871094 11.5625 29.496094 10.777344 31.167969 C 10.558594 31.636719 10.640625 32.242188 10.546875 32.773438 C 10.496094 33.054688 10.535156 33.558594 9.972656 33.152344 C 9.910156 33.105469 9.664062 33.226562 9.5625 33.324219 C 9.050781 33.8125 8.636719 34.34375 8.679688 35.121094 C 8.6875 35.285156 8.484375 35.460938 8.378906 35.628906 C 8.277344 35.460938 8.148438 35.304688 8.082031 35.125 C 7.996094 34.890625 8.03125 34.570312 7.882812 34.410156 C 7.222656 33.691406 7.273438 32.828125 7.226562 31.949219 C 7.046875 28.644531 6.816406 25.347656 6.621094 22.042969 C 6.558594 20.996094 6.589844 19.941406 6.507812 18.894531 C 6.40625 17.628906 6.222656 16.371094 6.089844 15.109375 C 5.941406 13.707031 5.8125 12.300781 5.671875 10.898438 C 5.5625 9.832031 5.839844 8.722656 5.285156 7.707031 C 5.191406 7.53125 5.164062 7.246094 5.234375 7.066406 C 5.347656 6.785156 5.527344 6.460938 5.769531 6.328125 C 5.9375 6.238281 6.363281 6.363281 6.5 6.535156 C 6.882812 7.003906 7.25 7.515625 7.484375 8.070312 C 9.082031 11.855469 10.632812 15.660156 12.222656 19.449219 C 12.5 20.109375 12.910156 20.714844 13.34375 21.5 C 14.007812 20.625 14.546875 19.839844 14.765625 18.960938 C 14.878906 18.503906 15.097656 18.214844 15.324219 17.859375 C 15.949219 16.882812 16.542969 15.886719 17.128906 14.886719 C 17.886719 13.601562 18.578125 12.277344 19.390625 11.03125 C 19.777344 10.433594 20.324219 9.917969 20.882812 9.46875 C 21.335938 9.109375 21.742188 9.265625 21.894531 9.796875 C 22.320312 11.28125 23.234375 12.519531 23.953125 13.851562 C 24.691406 15.230469 25.515625 16.5625 26.320312 17.902344 C 26.914062 18.882812 27.535156 19.847656 28.265625 21.015625 C 28.84375 19.335938 29.339844 17.878906 29.84375 16.417969 C 30.542969 14.394531 31.242188 12.371094 31.957031 10.355469 C 32.253906 9.507812 32.535156 8.640625 32.933594 7.839844 C 33.332031 7.035156 33.863281 6.296875 34.347656 5.535156 C 34.570312 5.179688 34.847656 5.175781 35.171875 5.425781 C 35.667969 5.804688 35.902344 6.273438 35.878906 6.921875 C 35.800781 8.992188 35.730469 11.066406 35.722656 13.136719 C 35.710938 16.195312 35.746094 19.25 35.78125 22.304688 C 35.808594 24.667969 35.867188 27.035156 35.914062 29.398438 C 35.929688 30.015625 36.03125 30.640625 35.964844 31.246094 C 35.894531 31.917969 35.671875 32.570312 35.511719 33.226562 C 35.492188 33.292969 35.433594 33.386719 35.386719 33.398438 C 34.613281 33.519531 34.28125 34.003906 34.246094 34.746094 C 34.070312 34.71875 33.773438 34.738281 33.746094 34.65625 C 33.605469 34.285156 33.464844 33.886719 33.464844 33.5 C 33.457031 31.847656 32.410156 30.707031 31.53125 29.222656 C 31.46875 29.800781 31.433594 30.144531 31.394531 30.484375 C 31.382812 28.675781 30.484375 27.300781 29.242188 25.90625 C 29.074219 26.351562 28.929688 26.710938 28.808594 27.074219 C 27.71875 30.3125 26.644531 33.558594 25.539062 36.792969 C 25.117188 38.03125 24.699219 39.277344 24.148438 40.464844 C 23.820312 41.167969 23.316406 41.828125 22.765625 42.386719 C 22.191406 42.96875 21.71875 42.832031 21.265625 42.136719 C 21.125 41.925781 21.023438 41.609375 20.828125 41.535156 C 19.910156 41.191406 19.738281 40.386719 19.417969 39.597656 C 17.84375 35.722656 16.222656 31.867188 14.582031 28.019531 C 14.316406 27.390625 13.875 26.835938 13.390625 26.042969 Z M 20.757812 12.792969 C 20.46875 13.242188 20.207031 13.625 19.96875 14.019531 C 19.582031 14.671875 19.21875 15.339844 18.824219 15.988281 C 18.171875 17.074219 17.417969 18.109375 16.867188 19.246094 C 16.3125 20.375 15.179688 21.234375 15.234375 22.65625 C 15.238281 22.714844 15.179688 22.8125 15.125 22.835938 C 14.269531 23.183594 14.703125 23.734375 14.929688 24.214844 C 16.476562 27.460938 18.035156 30.703125 19.59375 33.941406 C 20.136719 35.074219 20.695312 36.199219 21.34375 37.515625 C 21.644531 36.933594 21.871094 36.535156 22.058594 36.117188 C 22.300781 35.589844 22.496094 35.042969 22.738281 34.515625 C 23.746094 32.304688 24.847656 30.128906 25.75 27.871094 C 26.34375 26.402344 26.652344 24.816406 27.09375 23.285156 C 27.246094 22.765625 27.085938 22.34375 26.753906 21.90625 C 26.097656 21.054688 25.136719 19.582031 24.5625 18.675781 C 23.40625 16.855469 22.269531 15.023438 21.121094 13.195312 C 21.046875 13.082031 20.9375 12.992188 20.757812 12.792969 Z M 33.695312 13.605469 C 33.695312 13.4375 33.464844 13.394531 33.402344 13.550781 C 32.601562 15.542969 31.742188 17.519531 31.011719 19.539062 C 30.605469 20.660156 30.375 21.84375 30.121094 23.015625 C 30.058594 23.296875 30.140625 23.683594 30.296875 23.929688 C 31.1875 25.300781 32.117188 26.648438 33.046875 27.996094 C 33.167969 28.175781 33.359375 28.308594 33.695312 28.636719 Z M 8.925781 28.257812 C 9.027344 28.289062 9.035156 28.289062 9.136719 28.320312 C 9.339844 28.070312 9.601562 27.859375 9.632812 27.5 C 9.726562 26.480469 10.203125 25.535156 11.050781 24.964844 C 12.296875 24.121094 12.097656 23.675781 11.820312 23.117188 C 10.90625 21.261719 9.992188 19.402344 9.089844 17.539062 C 8.648438 16.632812 8.230469 15.71875 7.800781 14.808594 C 7.742188 14.683594 7.554688 14.734375 7.566406 14.871094 C 8.023438 19.335938 8.472656 23.796875 8.925781 28.257812 Z M 15.796875 20.375 L 15.871094 20.421875 L 15.878906 20.347656 Z M 15.796875 20.375 "/>
<path style=" stroke:none;fill-rule:nonzero;fill:url(#linear4);" d="M 41.195312 33.824219 C 41.695312 33.824219 41.980469 33.816406 42.265625 33.828125 C 42.914062 33.851562 43.414062 34.3125 43.488281 34.964844 C 43.53125 35.34375 43.464844 35.660156 43.082031 35.890625 C 42.730469 36.105469 42.429688 36.40625 42.050781 36.714844 C 41.945312 36.25 41.707031 35.859375 41.121094 35.992188 C 40.574219 36.121094 40.402344 36.550781 40.328125 37.042969 C 40.324219 37.078125 40.332031 37.117188 40.324219 37.152344 C 40.199219 37.546875 40.054688 38.285156 39.957031 38.277344 C 39.324219 38.234375 39.65625 37.617188 39.484375 37.269531 C 39.328125 36.949219 39.148438 36.640625 38.949219 36.347656 C 38.402344 35.546875 38.304688 34.761719 38.894531 33.929688 C 39.355469 33.28125 39.792969 32.609375 40.207031 31.925781 C 40.5 31.441406 40.730469 30.917969 40.996094 30.414062 C 41.039062 30.339844 40.953125 30.257812 40.882812 30.300781 C 40.566406 30.503906 40.308594 30.871094 39.964844 30.992188 C 39.609375 31.113281 39.132812 31.21875 38.828125 31.078125 C 38.394531 30.871094 38.605469 30.363281 38.707031 29.996094 C 38.925781 29.222656 40.199219 28.207031 40.980469 28.136719 C 41.890625 28.058594 42.644531 28.867188 42.675781 29.992188 C 42.707031 31.007812 42.316406 31.90625 41.828125 32.769531 C 41.65625 33.078125 41.464844 33.375 41.195312 33.824219 Z M 41.195312 33.824219 "/>
<path style=" stroke:none;fill-rule:nonzero;fill:url(#linear5);" d="M 22.839844 9.257812 L 22.820312 9.207031 L 22.871094 9.214844 Z M 22.839844 9.257812 "/>
</g>
</svg>
