<?xml version="1.0" encoding="utf-8"?>
<!-- Generator: Adobe Illustrator 26.0.0, SVG Export Plug-In . SVG Version: 6.00 Build 0)  -->
<svg version="1.0" id="Layer_1" xmlns="http://www.w3.org/2000/svg" xmlns:xlink="http://www.w3.org/1999/xlink" x="0px" y="0px"
	 viewBox="0 0 50 50" enable-background="new 0 0 50 50" xml:space="preserve">
<g>
	<g>
		<path fill="#66655E" d="M38.094,11.708l-3.068-3.115l-3.294-3.257H18.267l-3.208,3.257l-3.068,3.115h9.817v28.131l3.235,3.199
			l3.234-3.199V11.708h0.001L38.094,11.708z"/>
		<path fill="#66655E" d="M34.914,14.752h-3.088v12.552L28.6,30.492l2.272,2.206l2.295,2.229l4.938-4.883l0.001-15.292H34.914z
			 M18.261,27.304V14.752h-6.28v15.292l4.94,4.883l2.295-2.229l2.271-2.206L18.261,27.304z"/>
		<path fill="#66655E" d="M17.783,3.622l-7.947,7.943v19.254L25,45.699l15.163-14.881V11.565l-7.946-7.944H17.783z M8.378,10.607
			l8.452-8.444l0.25-0.252h15.839l0.25,0.252l8.452,8.444l0.254,0.254v20.669l-0.257,0.251l-16.02,15.722L25,48.089l-0.599-0.587
			L8.382,31.781l-0.258-0.251V10.861L8.378,10.607L8.378,10.607z"/>
	</g>
</g>
</svg>
