<?xml version="1.0" encoding="utf-8"?>
<!-- Generator: Adobe Illustrator 26.0.0, SVG Export Plug-In . SVG Version: 6.00 Build 0)  -->
<svg version="1.0" id="Layer_1" xmlns="http://www.w3.org/2000/svg" xmlns:xlink="http://www.w3.org/1999/xlink" x="0px" y="0px"
	 viewBox="0 0 50 50" enable-background="new 0 0 50 50" xml:space="preserve">
<g>
	<g>
		<path fill="#0862B3" d="M45.205,28.159c0-0.321,0-0.5,0-0.679c0-6.167,0-12.334,0-18.502c0-0.626-0.121-0.75-0.735-0.752
			c-0.477-0.002-0.956,0.025-1.431-0.009c-0.366-0.026-0.441,0.1-0.44,0.45c0.011,5.128,0.003,10.256,0.014,15.384
			c0.001,0.353-0.093,0.604-0.348,0.847c-0.555,0.526-1.079,1.084-1.685,1.698c0-6.618,0-13.137,0-19.67
			c0.093-0.066,0.143,0.036,0.182,0.093c0.418,0.612,0.993,0.753,1.714,0.716c1.156-0.059,2.317,0,3.475-0.024
			c0.387-0.008,0.686,0.074,0.928,0.388c0.144,0.187,0.32,0.356,0.505,0.504c0.238,0.191,0.28,0.355,0.011,0.545
			c-0.167,0.118-0.13,0.3-0.13,0.467c0,5.162,0.001,10.324,0.002,15.486c0,0.102-0.037,0.251,0.016,0.298
			c0.474,0.422,0.023,0.615-0.205,0.851C46.49,26.859,45.895,27.458,45.205,28.159z"/>
		<path fill="#0862B3" d="M8.943,10.204c0.211-0.142,0.17-0.262,0.005-0.439C7.837,8.572,7.842,8.568,6.211,8.568
			c-0.426,0-0.856-0.038-1.277,0.008C3.948,8.682,3.086,8.523,2.51,7.615c-0.007-0.01-0.032-0.008-0.089-0.021v19.834
			c0.624-0.637,1.171-1.184,1.705-1.746c0.178-0.188,0.367-0.265,0.628-0.255c0.51,0.019,1.023,0.021,1.533,0
			c0.283-0.011,0.394,0.064,0.38,0.366c-0.023,0.503-0.006,1.008-0.006,1.512c0.037,0.023,0.073,0.046,0.11,0.069
			c0.573-0.594,1.154-1.181,1.715-1.786c0.245-0.265,0.795-0.479,0.236-0.965c-0.06-0.053-0.015-0.229-0.015-0.349
			c-0.001-4.481,0.001-8.963-0.004-13.444C8.702,10.583,8.714,10.358,8.943,10.204z M6.233,24.937
			c-0.459-0.022-0.922-0.032-1.379,0.002c-0.379,0.029-0.48-0.079-0.477-0.468c0.02-2.486,0.011-4.973,0.011-7.459
			S4.4,12.04,4.378,9.554C4.374,9.137,4.501,9.025,4.891,9.061c0.337,0.031,0.68,0.005,1.021,0.006
			c0.586,0.003,0.746,0.162,0.747,0.754c0.001,4.342,0.001,8.685,0.001,13.028c0,0.562-0.026,1.125,0.009,1.685
			C6.692,24.9,6.542,24.952,6.233,24.937z"/>
		<path fill="#0862B3" d="M10.794,18.871c0-3.862,0-7.635,0-11.434c0.062,0.021,0.122,0.023,0.142,0.051
			c0.562,0.803,1.32,1.026,2.287,0.949c1.115-0.088,1.119-0.021,1.43-1.091c0.152-0.523,0.31-1.044,0.466-1.565
			c0.01-0.032,0.03-0.06,0.13-0.257c0.345,0.403,0.64,0.776,0.966,1.118c0.157,0.165,0.15,0.251-0.008,0.402
			c-0.441,0.42-0.866,0.857-1.383,1.375c1.08,0,2.059-0.05,3.031,0.016c0.807,0.055,1.467-0.098,1.941-0.791
			c0.165-0.242,0.308-0.221,0.51-0.007c0.514,0.545,1.05,1.071,1.588,1.592c0.173,0.168,0.236,0.269,0.024,0.478
			c-1.225,1.204-2.433,2.427-3.742,3.602c0.414-1.446,0.828-2.893,1.253-4.38c-2.022,0-3.997-0.011-5.972,0.01
			c-0.384,0.004-0.583,0.281-0.583,0.684c0.002,2.147,0.008,4.295-0.011,6.442c-0.003,0.353,0.116,0.405,0.431,0.404
			c2.744-0.013,5.487-0.009,8.231-0.009c0.307,0,1.417,0.835,1.486,1.115c0.038,0.153-0.089,0.216-0.176,0.277
			c-0.316,0.22-0.369,0.518-0.367,0.883c0.015,1.977,0.005,3.954,0.01,5.931c0,0.182-0.071,0.39,0.075,0.54
			c0.167,0.173,0.046,0.264-0.064,0.375c-0.841,0.843-1.682,1.687-2.527,2.535c-0.177-0.137-0.094-0.3-0.094-0.434
			c0.006-3.323,0.02-6.646,0.031-9.969c0.002-0.646-0.132-0.782-0.765-0.782c-2.011-0.001-4.022,0.006-6.033-0.008
			c-0.267-0.002-0.441,0.088-0.617,0.267C11.95,17.736,11.402,18.269,10.794,18.871z"/>
		<path fill="#0862B3" d="M35.958,15.572c0.082,0.084,0.16,0.172,0.252,0.272c-0.097,0.105-0.181,0.21-0.279,0.297
			c-0.286,0.255-0.51,0.748-0.84,0.73c-0.281-0.015-0.526-0.477-0.81-0.714c-0.26-0.216-0.288-0.358-0.019-0.617
			C35.121,14.709,35.109,14.696,35.958,15.572z"/>
		<path fill="#0862B3" d="M36.363,22.427c-0.304,0.005-0.418-0.069-0.411-0.393c0.021-0.937,0.031-1.875-0.003-2.811
			c-0.015-0.405,0.19-0.379,0.462-0.383c0.298-0.005,0.532-0.018,0.493,0.409c-0.039,0.422-0.008,0.85-0.008,1.415
			c0.532-0.536,0.959-0.994,1.417-1.418c0.384-0.355,0.627-0.666,0.552-1.29c-0.13-1.076-0.067-2.177-0.067-3.267
			c0-0.308-0.119-0.643,0.175-0.911c0.136-0.124-0.052-0.198-0.115-0.278c-0.45-0.578-0.982-0.963-1.777-0.803
			c-0.229,0.046-0.478-0.014-0.714,0.012c-0.345,0.037-0.486-0.063-0.464-0.439c0.034-0.561,0.008-1.124,0.009-1.686
			c0.001-0.763,0.004-0.806,0.783-0.75c0.637,0.045,1.323-0.265,1.911,0.223c0.078,0.064,0.15-0.014,0.217-0.071
			c0.211-0.18,0.429-0.351,0.644-0.525c-0.039-0.046-0.078-0.092-0.118-0.139c-0.832,0-1.665,0.001-2.498,0
			c-1.016-0.001-1.094-0.097-0.944-1.122c0.019-0.131,0.077-0.22,0.164-0.302c0.097-0.092,0.146-0.169,0.024-0.291
			c-0.607-0.606-1.207-1.219-1.896-1.917v2.524c0,1.104-0.002,1.14-1.106,1.089c-0.566-0.026-1.19,0.26-1.704-0.224
			c-0.087-0.083-0.151,0.023-0.207,0.077c-0.203,0.197-0.402,0.398-0.668,0.663c1.154,0,2.203,0.01,3.252-0.006
			c0.31-0.005,0.46,0.04,0.442,0.408c-0.032,0.697-0.025,1.397-0.002,2.095c0.011,0.323-0.096,0.392-0.405,0.394
			c-0.865,0.005-1.758,0.137-2.326-0.794v8.646c0.147,0.025,0.182-0.096,0.247-0.16c0.45-0.441,0.911-0.873,1.334-1.339
			c0.315-0.348,0.708-0.243,1.043-0.18c0.218,0.041,0.091,0.388,0.096,0.594c0.015,0.613,0.005,1.227,0.005,1.84
			c-0.001,1.105-0.002,1.135-1.117,1.092c-0.551-0.021-1.158,0.245-1.652-0.232c-0.086-0.082-0.147,0.017-0.206,0.073
			c-0.203,0.195-0.406,0.389-0.708,0.676c1.112,0,2.077,0.034,3.039-0.014c0.536-0.026,0.674,0.13,0.66,0.661
			c-0.039,1.488-0.014,2.978-0.014,4.491c1.16-0.871,2.117-1.792,1.757-3.387c-0.029-0.13-0.005-0.272-0.004-0.408
			c0.007-0.424-0.145-0.981,0.066-1.238c0.249-0.302,0.828-0.09,1.264-0.1c0.372-0.008,0.828-0.157,1.098,0.061
			c0.349,0.282,0.46,0.066,0.644-0.114c0.126-0.123,0.246-0.255,0.437-0.455C38.36,22.421,37.361,22.41,36.363,22.427z
			 M33.656,18.342c-0.275,0.004-0.344-0.091-0.343-0.351c0.009-1.481,0.009-2.963-0.001-4.445c-0.002-0.255,0.055-0.358,0.335-0.352
			c0.851,0.018,1.703,0.003,2.554,0.011c0.444,0.004,0.691,0.232,0.693,0.687c0.004,0.681,0.001,1.362,0.001,2.043
			c0.001,0.664-0.014,1.329,0.006,1.992c0.009,0.298-0.051,0.424-0.386,0.416C35.564,18.321,34.609,18.326,33.656,18.342z"/>
		<path fill="#0862B3" d="M27.448,27.364c0-4.01,0-7.917,0-11.892c0.649,0.638,1.261,1.235,1.865,1.838
			c0.121,0.121,0.067,0.292,0.067,0.441c0.003,2.435-0.002,4.87,0.007,7.305c0.001,0.277-0.077,0.475-0.279,0.667
			C28.567,26.236,28.045,26.771,27.448,27.364z"/>
		<path fill="#0862B3" d="M14.71,14.468c0.392-1.355,0.763-2.638,1.181-4.086c0.459,0.502,0.836,0.93,1.234,1.339
			c0.144,0.148,0.134,0.229-0.006,0.366C16.331,12.857,15.551,13.636,14.71,14.468z"/>
		<path fill="#0862B3" d="M43.907,14.042c-0.333-0.362-0.624-0.692-0.93-1.007c-0.129-0.133-0.189-0.236-0.007-0.361
			c0.027-0.019,0.048-0.047,0.073-0.071c0.292-0.281,0.581-0.777,0.878-0.782c0.287-0.005,0.572,0.509,0.878,0.771
			c0.215,0.185,0.235,0.309,0.01,0.51C44.508,13.373,44.245,13.686,43.907,14.042z"/>
		<path fill="#0862B3" d="M45.194,18.782c-0.287,0.23-0.472,0.353-0.627,0.506c-0.645,0.636-0.642,0.64-1.29-0.008
			c-0.483-0.483-0.483-0.483,0.003-0.967c0.643-0.641,0.639-0.636,1.294,0.001C44.73,18.465,44.922,18.579,45.194,18.782z"/>
		<path fill="#0862B3" d="M29.383,13.983c-0.662-0.655-1.297-1.282-1.976-1.953c0.604,0,1.186,0.004,1.769-0.002
			c0.251-0.002,0.204,0.175,0.205,0.32C29.386,12.891,29.383,13.434,29.383,13.983z"/>
		<path fill="#0862B3" d="M27.551,7.718c0.442,0,0.997,0.01,1.551-0.005c0.232-0.006,0.287,0.082,0.283,0.295
			c-0.012,0.543-0.004,1.086-0.004,1.575C28.77,8.961,28.144,8.323,27.551,7.718z"/>
		<path fill="#0862B3" d="M9.932,22.812c0.161-0.121,0.334-0.229,0.48-0.365c0.188-0.175,0.278-0.31,0.6-0.083
			c0.347,0.245,0.858,0.087,1.294,0.071c0.254-0.009,0.689,0.245,0.713-0.324c0.001-0.02,0.082-0.056,0.122-0.052
			c0.076,0.007,0.113,0.072,0.114,0.143c0.003,0.34,0.004,0.681,0.002,1.021c0,0.073-0.033,0.134-0.11,0.147
			c-0.104,0.018-0.168-0.038-0.157-0.14c0.038-0.347-0.211-0.273-0.4-0.273c-0.851-0.003-1.702-0.001-2.553-0.001
			C10.003,22.909,9.968,22.861,9.932,22.812z"/>
		<path fill="#0862B3" d="M19.339,22.586c-0.159,0.12-0.329,0.228-0.475,0.363c-0.185,0.171-0.271,0.256-0.598,0.102
			c-0.543-0.255-1.198-0.066-1.805-0.08c-0.029-0.001-0.069,0.061-0.086,0.102c-0.044,0.107,0.065,0.329-0.161,0.294
			c-0.216-0.034-0.111-0.248-0.124-0.385c-0.015-0.169-0.014-0.341,0.001-0.51c0.013-0.14-0.089-0.349,0.107-0.4
			c0.225-0.058,0.135,0.169,0.178,0.276c0.073,0.18,0.234,0.094,0.351,0.095c0.833,0.009,1.667,0.005,2.5,0.005
			C19.265,22.494,19.302,22.54,19.339,22.586z"/>
		<path fill="#0862B3" d="M15.126,22.856c0,0.903,0.002,1.805-0.002,2.708c-0.001,0.119,0.068,0.314-0.155,0.297
			c-0.168-0.013-0.12-0.178-0.12-0.289c-0.002-1.805-0.003-3.61,0-5.416c0-0.119-0.065-0.311,0.158-0.293
			c0.175,0.013,0.116,0.181,0.116,0.286C15.128,21.05,15.126,21.953,15.126,22.856z"/>
		<path fill="#0862B3" d="M14.523,22.65c0,0.578,0.003,1.157-0.002,1.735c-0.001,0.126,0.041,0.306-0.172,0.296
			c-0.174-0.008-0.135-0.168-0.135-0.277c-0.003-1.191-0.003-2.381,0.001-3.572c0-0.122-0.051-0.316,0.164-0.297
			c0.191,0.017,0.141,0.202,0.142,0.329C14.525,21.459,14.522,22.055,14.523,22.65z"/>
		<path fill="#0862B3" d="M15.75,22.803c0,0.322,0.002,0.644-0.001,0.966c-0.001,0.095,0.02,0.218-0.129,0.224
			c-0.137,0.006-0.16-0.091-0.16-0.203c0.001-0.695,0.001-1.39,0-2.084c0-0.108,0.011-0.225,0.139-0.229
			c0.18-0.007,0.149,0.148,0.15,0.259C15.753,22.092,15.75,22.448,15.75,22.803z"/>
		<path fill="#0862B3" d="M13.605,22.5c0-0.323-0.001-0.647,0.001-0.97c0.001-0.089,0.025-0.176,0.135-0.176
			c0.103,0,0.145,0.076,0.146,0.17c0.003,0.647,0.004,1.294,0.004,1.94c0,0.109-0.028,0.208-0.169,0.195
			c-0.115-0.01-0.116-0.107-0.117-0.189c-0.003-0.323-0.001-0.647-0.001-0.97C13.604,22.5,13.605,22.5,13.605,22.5z"/>
		<path fill="#0862B3" d="M36.21,15.844c-0.097,0.105-0.181,0.21-0.279,0.297c-0.286,0.255-0.51,0.748-0.84,0.73
			c-0.281-0.015-0.526-0.477-0.81-0.714c-0.26-0.216-0.288-0.358-0.019-0.617c0.859-0.831,0.847-0.844,1.696,0.032
			C36.04,15.656,36.118,15.744,36.21,15.844z"/>
		<path fill="#0862B3" d="M14.4,20.721c0,1.254,0,2.508,0,3.763c-0.018,0-0.036,0-0.053,0.001c0-1.255,0-2.509,0-3.764
			C14.365,20.721,14.382,20.721,14.4,20.721z"/>
		<path fill="#0862B3" d="M36.21,15.844c-0.097,0.105-0.181,0.21-0.279,0.297c-0.286,0.255-0.51,0.748-0.84,0.73
			c-0.281-0.015-0.526-0.477-0.81-0.714c-0.26-0.216-0.288-0.358-0.019-0.617c0.859-0.831,0.847-0.844,1.696,0.032
			C36.04,15.656,36.118,15.744,36.21,15.844z"/>
	</g>
	<g>
		<path fill="#0862B3" d="M17.387,37.996c0.034-0.031,0.046-0.05,0.059-0.051c0.304-0.024,0.609-0.039,0.91,0.014
			c0.311,0.054,0.484,0.274,0.478,0.59c-0.002,0.092-0.017,0.185-0.034,0.276c-0.328,1.736-0.658,3.472-0.987,5.208
			c-0.009,0.05-0.025,0.099-0.032,0.149c-0.018,0.142-0.094,0.203-0.239,0.202c-0.499-0.004-0.998,0.002-1.497-0.003
			c-0.183-0.002-0.206-0.022-0.246-0.221c-0.1-0.506-0.193-1.013-0.289-1.52c-0.016-0.082-0.035-0.164-0.084-0.248
			c-0.048,0.245-0.096,0.49-0.144,0.735c-0.066,0.34-0.127,0.681-0.198,1.021c-0.045,0.215-0.067,0.231-0.29,0.233
			c-0.44,0.004-0.88,0.003-1.32,0.001c-0.267-0.001-0.282-0.011-0.333-0.274c-0.16-0.83-0.316-1.661-0.473-2.492
			c-0.171-0.905-0.341-1.811-0.515-2.716c-0.07-0.365-0.207-0.696-0.546-0.896c0.061-0.101,0.145-0.072,0.215-0.074
			c0.254-0.004,0.508-0.005,0.761-0.001c0.479,0.007,0.672,0.17,0.761,0.641c0.304,1.603,0.608,3.206,0.913,4.809
			c0.012,0.063,0,0.137,0.079,0.198c0.085-0.44,0.169-0.869,0.251-1.299c0.132-0.689,0.257-1.38,0.395-2.067
			c0.055-0.276-0.011-0.538-0.051-0.804c-0.015-0.1-0.036-0.2-0.053-0.3c-0.014-0.088,0.015-0.155,0.111-0.163
			c0.186-0.015,0.372-0.026,0.549,0.055c0.214,0.099,0.303,0.28,0.344,0.499c0.223,1.188,0.447,2.376,0.674,3.563
			c0.03,0.156,0.044,0.318,0.112,0.48c0.072-0.047,0.062-0.121,0.074-0.18c0.28-1.47,0.559-2.94,0.837-4.41
			c0.013-0.066,0.014-0.135,0.025-0.201C17.652,38.469,17.617,38.21,17.387,37.996z"/>
		<path fill="#0862B3" d="M6.147,33.962c-0.105,0.548-0.208,1.087-0.311,1.626c-0.011,0.058-0.022,0.116-0.036,0.174
			c-0.051,0.21-0.071,0.232-0.292,0.234c-0.448,0.004-0.897,0.005-1.345,0c-0.228-0.002-0.253-0.022-0.298-0.258
			c-0.183-0.955-0.361-1.911-0.541-2.866c-0.143-0.756-0.285-1.512-0.431-2.267c-0.04-0.208-0.098-0.41-0.195-0.601
			c-0.085-0.169-0.227-0.284-0.366-0.399c0.047-0.081,0.112-0.059,0.167-0.06c0.271-0.003,0.541-0.003,0.812-0.001
			c0.467,0.003,0.661,0.164,0.748,0.621c0.304,1.603,0.607,3.206,0.912,4.809c0.014,0.073,0.034,0.145,0.083,0.217
			C5.1,34.96,5.146,34.729,5.19,34.498c0.168-0.889,0.332-1.778,0.506-2.666c0.059-0.301-0.008-0.589-0.06-0.879
			c-0.072-0.403-0.076-0.403,0.318-0.4c0.426,0.003,0.564,0.119,0.646,0.551c0.237,1.246,0.472,2.492,0.709,3.738
			c0.02,0.105,0.045,0.209,0.077,0.356c0.071-0.108,0.076-0.192,0.091-0.27c0.267-1.412,0.533-2.824,0.798-4.237
			c0.025-0.133,0.047-0.267,0.061-0.401c0.026-0.26-0.022-0.502-0.226-0.673c0.048-0.083,0.104-0.07,0.151-0.07
			c0.22-0.002,0.44-0.007,0.66,0.001c0.453,0.016,0.701,0.314,0.62,0.759c-0.136,0.749-0.283,1.495-0.425,2.243
			c-0.198,1.047-0.396,2.093-0.593,3.14c-0.055,0.291-0.07,0.31-0.356,0.311c-0.44,0.002-0.88,0.002-1.32,0
			c-0.269-0.002-0.286-0.015-0.335-0.271c-0.101-0.523-0.197-1.047-0.297-1.57C6.203,34.093,6.206,34.023,6.147,33.962z"/>
		<path fill="#0862B3" d="M19.726,37.984c0.064-0.076,0.155-0.054,0.235-0.054c0.863-0.002,1.726-0.002,2.589-0.001
			c0.303,0.001,0.316,0.011,0.375,0.322c0.212,1.113,0.419,2.227,0.63,3.34c0.154,0.814,0.31,1.628,0.465,2.442
			c0.011,0.058,0.023,0.116,0.03,0.175c0.012,0.102-0.034,0.168-0.139,0.169c-0.313,0.003-0.626,0.003-0.939,0
			c-0.089-0.001-0.136-0.059-0.155-0.142c-0.017-0.074-0.035-0.148-0.049-0.223c-0.121-0.64-0.242-1.28-0.363-1.919
			c-0.014-0.075-0.028-0.15-0.048-0.223c-0.068-0.253-0.207-0.372-0.469-0.382c-0.279-0.01-0.558-0.008-0.837-0.005
			c-0.214,0.002-0.239,0.024-0.282,0.242c-0.124,0.639-0.243,1.279-0.365,1.919c-0.035,0.183-0.073,0.365-0.106,0.548
			c-0.023,0.128-0.091,0.192-0.224,0.191c-0.279-0.002-0.558,0.004-0.838-0.001c-0.18-0.003-0.206-0.031-0.174-0.218
			c0.063-0.367,0.138-0.731,0.209-1.096c0.255-1.311,0.506-2.624,0.769-3.934c0.085-0.425,0.07-0.809-0.305-1.101
			C19.727,38.025,19.73,38.002,19.726,37.984z M21.17,38.466c0.131,0.166,0.136,0.329,0.114,0.502
			c-0.069,0.528-0.195,1.045-0.285,1.569c-0.054,0.313-0.046,0.324,0.28,0.331c0.236,0.005,0.472-0.022,0.707,0.026
			c0.171,0.035,0.195,0.013,0.165-0.163c-0.051-0.299-0.109-0.598-0.169-0.895c-0.07-0.347-0.117-0.7-0.24-1.035
			C21.634,38.508,21.533,38.446,21.17,38.466z"/>
		<path fill="#0862B3" d="M20.299,29.548c0.382-0.003,0.702-0.033,1.019,0.016c0.296,0.046,0.479,0.272,0.495,0.591
			c0.013,0.245,0.005,0.49,0.005,0.736c0.001,0.321-0.003,0.643,0.002,0.964c0.003,0.193,0.03,0.22,0.224,0.222
			c0.398,0.005,0.795,0.002,1.193,0.002c0.324,0,0.328,0.002,0.61,0.142c0.071-0.045,0.046-0.12,0.046-0.182
			c0.002-0.516,0.004-1.032,0-1.548c-0.004-0.443-0.059-0.582-0.335-0.893c0.022-0.065,0.081-0.052,0.128-0.052
			c0.245-0.002,0.491-0.008,0.736,0.001c0.395,0.014,0.624,0.244,0.643,0.639c0.006,0.118,0.002,0.237,0.002,0.355
			c0,1.683,0,3.367,0,5.05c0,0.406-0.002,0.408-0.411,0.408c-0.161,0-0.322,0.003-0.482-0.001c-0.241-0.007-0.275-0.038-0.277-0.287
			c-0.004-0.584-0.001-1.167-0.002-1.751c0-0.245,0.004-0.491-0.002-0.736c-0.008-0.352-0.2-0.548-0.554-0.556
			c-0.414-0.008-0.829-0.004-1.244-0.002c-0.261,0.001-0.275,0.014-0.276,0.272c-0.002,0.863-0.001,1.726-0.001,2.589
			c0,0.472,0,0.473-0.474,0.473c-0.186,0-0.373,0.005-0.558-0.004c-0.16-0.008-0.187-0.041-0.198-0.201
			c-0.005-0.076-0.002-0.152-0.002-0.228c0-1.65-0.001-3.299,0-4.949C20.586,30.259,20.563,29.908,20.299,29.548z"/>
		<path fill="#0862B3" d="M13.31,29.555c0.353,0,0.707-0.022,1.057,0.007c0.306,0.025,0.495,0.262,0.505,0.571
			c0.008,0.27,0.003,0.541,0.003,0.812c0,1.344-0.011,2.689,0.007,4.033c0.005,0.404-0.168,0.654-0.498,0.837
			c-0.3,0.167-0.622,0.259-0.958,0.319c-0.695,0.124-1.38,0.085-2.056-0.118c-0.204-0.061-0.396-0.145-0.573-0.264
			c-0.272-0.184-0.409-0.425-0.407-0.766c0.009-1.395,0.004-2.79,0.004-4.185c0-0.118,0-0.237-0.003-0.355
			c-0.008-0.322-0.071-0.622-0.343-0.827c0.027-0.095,0.097-0.072,0.15-0.072c0.262-0.003,0.524-0.007,0.786,0
			c0.413,0.011,0.639,0.24,0.64,0.655c0.003,1.496,0.001,2.993,0.002,4.489c0,0.093-0.002,0.186,0.004,0.279
			c0.01,0.176,0.081,0.326,0.206,0.45c0.399,0.397,1.197,0.398,1.6,0.004c0.134-0.131,0.212-0.281,0.208-0.472
			c-0.003-0.11,0.001-0.22,0.001-0.33c0-1.243,0-2.486,0-3.728c0-0.127-0.002-0.254-0.001-0.38c0.004-0.349-0.054-0.674-0.357-0.908
			C13.293,29.588,13.302,29.571,13.31,29.555z"/>
		<path fill="#0862B3" d="M39.5,30.076c0.252,0.296,0.29,0.627,0.29,0.968c0,1.522,0,3.044,0,4.567c0,0.042,0.001,0.085-0.001,0.127
			c-0.011,0.216-0.041,0.252-0.253,0.258c-0.254,0.007-0.508,0.008-0.761,0.001c-0.173-0.005-0.201-0.04-0.212-0.214
			c-0.005-0.076-0.002-0.152-0.002-0.228c0-1.531,0-3.061,0-4.592c0-0.093,0.001-0.186,0-0.279
			c-0.005-0.416-0.046-0.817-0.439-1.063c0.038-0.095,0.106-0.074,0.16-0.074c0.973-0.001,1.946-0.012,2.918,0.003
			c0.754,0.012,1.324,0.571,1.331,1.323c0.015,1.624,0.006,3.247,0.004,4.871c0,0.22-0.034,0.251-0.249,0.256
			c-0.245,0.005-0.491,0.006-0.736,0c-0.214-0.005-0.24-0.035-0.245-0.26c-0.004-0.211-0.001-0.423-0.001-0.634
			c0-1.404,0-2.808,0-4.211c0-0.093,0.003-0.187-0.008-0.279c-0.036-0.284-0.251-0.52-0.528-0.533
			C40.355,30.062,39.942,30.076,39.5,30.076z"/>
		<path fill="#0862B3" d="M34.229,32.528c0.089,0.068,0.135,0.104,0.182,0.139c0.336,0.249,0.504,0.586,0.515,0.999
			c0.018,0.659,0.048,1.318,0.039,1.977c-0.007,0.494,0.203,0.836,0.68,0.965c0.021,0.006,0.038,0.028,0.056,0.041
			c-0.013,0.065-0.064,0.058-0.101,0.055c-0.337-0.029-0.673-0.067-0.993-0.188c-0.506-0.191-0.711-0.477-0.717-1.014
			c-0.005-0.406,0.001-0.812-0.003-1.217c-0.003-0.314-0.043-0.623-0.133-0.925c-0.129-0.434-0.398-0.718-0.857-0.8
			c-0.024-0.004-0.046-0.016-0.089-0.031c0.074-0.069,0.158-0.072,0.233-0.086c0.125-0.023,0.247-0.056,0.365-0.103
			c0.35-0.138,0.474-0.318,0.476-0.693c0.001-0.237,0.01-0.474-0.005-0.71c-0.023-0.357-0.145-0.662-0.509-0.808
			c-0.062-0.025-0.129-0.051-0.194-0.051c-0.371-0.005-0.742-0.002-1.105-0.002c-0.05,0.072,0.006,0.105,0.03,0.143
			c0.112,0.179,0.139,0.378,0.139,0.584c0,0.702,0.001,1.403,0.001,2.105c0,0.93,0.001,1.86-0.001,2.79
			c0,0.282-0.019,0.299-0.304,0.303c-0.203,0.003-0.406,0.002-0.609,0c-0.287-0.004-0.311-0.029-0.316-0.325
			c-0.001-0.076,0-0.152,0-0.228c0-1.513,0-3.027,0-4.54c0-0.118-0.001-0.237-0.002-0.355c-0.002-0.356-0.05-0.694-0.352-0.922
			c0.026-0.103,0.096-0.083,0.149-0.083c1.032-0.001,2.063-0.008,3.095,0.004c0.55,0.006,0.916,0.353,0.984,0.901
			c0.051,0.404,0.036,0.81,0.013,1.215C34.872,32.085,34.706,32.4,34.229,32.528z"/>
		<path fill="#0862B3" d="M23.804,37.981c0.047-0.069,0.121-0.05,0.185-0.05c0.38-0.002,0.761-0.004,1.141,0
			c0.255,0.003,0.277,0.02,0.328,0.284c0.163,0.846,0.321,1.694,0.481,2.541c0.172,0.913,0.344,1.827,0.516,2.74
			c0.009,0.05,0.023,0.099,0.032,0.149c0.018,0.103,0.037,0.202,0.175,0.208c0.132,0.006,0.235-0.045,0.285-0.166
			c0.025-0.062,0.036-0.13,0.048-0.196c0.25-1.329,0.5-2.657,0.75-3.986c0.083-0.44,0.167-0.88,0.251-1.32
			c0.044-0.232,0.06-0.249,0.297-0.254c0.22-0.005,0.44-0.005,0.659,0c0.25,0.005,0.276,0.037,0.229,0.291
			c-0.115,0.623-0.234,1.246-0.352,1.868c-0.233,1.229-0.465,2.458-0.699,3.686c-0.085,0.447-0.275,0.605-0.729,0.606
			c-0.575,0.002-1.15,0.002-1.725,0c-0.285-0.001-0.299-0.009-0.352-0.283c-0.21-1.104-0.417-2.209-0.626-3.313
			c-0.119-0.631-0.237-1.262-0.362-1.892C24.26,38.507,24.182,38.383,23.804,37.981z"/>
		<path fill="#0862B3" d="M43.386,29.585c0.121-0.056,0.206-0.041,0.29-0.041c0.955-0.001,1.911-0.001,2.866,0
			c0.733,0.001,1.123,0.395,1.125,1.133c0.001,0.396,0.001,0.396-0.39,0.397c-0.186,0-0.372-0.001-0.558-0.003
			c-0.119-0.001-0.19-0.054-0.193-0.183c-0.002-0.111-0.031-0.218-0.072-0.32c-0.108-0.273-0.305-0.465-0.598-0.484
			c-0.385-0.026-0.773-0.006-1.202-0.006c0.319,0.383,0.319,0.811,0.318,1.243c-0.004,1.209-0.001,2.418-0.001,3.626
			c0,0.068-0.002,0.135,0.001,0.203c0.009,0.205,0.029,0.229,0.242,0.233c0.254,0.005,0.507,0.006,0.761-0.001
			c0.307-0.009,0.493-0.184,0.498-0.49c0.01-0.608,0.004-1.217,0.003-1.826c0-0.191-0.08-0.343-0.247-0.443
			c-0.042-0.025-0.09-0.043-0.114-0.09c0.042-0.072,0.108-0.047,0.162-0.048c0.245-0.003,0.491-0.007,0.736,0.001
			c0.357,0.012,0.553,0.202,0.555,0.555c0.006,0.904,0.004,1.809,0.001,2.714c-0.001,0.205-0.034,0.236-0.235,0.244
			C47.156,36.004,46.978,36.001,46.8,36c-0.291-0.002-0.291-0.003-0.344-0.279c-0.054-0.039-0.094,0.003-0.136,0.026
			c-0.31,0.172-0.644,0.25-0.997,0.252c-0.296,0.001-0.592,0.004-0.888-0.001c-0.469-0.009-0.695-0.24-0.696-0.712
			c-0.002-1.403-0.001-2.807-0.001-4.21c0-0.127-0.001-0.254,0-0.38C43.743,30.294,43.716,29.901,43.386,29.585z"/>
		<path fill="#0862B3" d="M38.259,38.817c-0.015-0.006-0.038-0.007-0.043-0.017c-0.144-0.294-0.395-0.361-0.698-0.351
			c-0.355,0.012-0.71,0-1.066,0.004c-0.356,0.003-0.509,0.156-0.514,0.511c-0.004,0.33,0.012,0.66-0.006,0.989
			c-0.015,0.275,0.091,0.466,0.303,0.628c0.489,0.377,0.97,0.764,1.454,1.146c0.146,0.115,0.29,0.233,0.438,0.345
			c0.174,0.132,0.259,0.301,0.254,0.524c-0.008,0.38,0.002,0.761-0.003,1.141c-0.005,0.398-0.23,0.638-0.626,0.642
			c-0.871,0.008-1.742,0.007-2.613,0.001c-0.347-0.002-0.549-0.203-0.574-0.548c-0.008-0.105-0.028-0.217,0.031-0.315
			c0.027,0.005,0.052,0.002,0.057,0.01c0.147,0.275,0.383,0.346,0.68,0.334c0.439-0.017,0.879-0.003,1.319-0.006
			c0.36-0.003,0.487-0.13,0.494-0.49c0.004-0.186-0.002-0.372,0.001-0.558c0.003-0.184-0.073-0.32-0.217-0.435
			c-0.622-0.495-1.233-1.003-1.862-1.489c-0.257-0.198-0.386-0.419-0.371-0.752c0.022-0.489,0.004-0.981,0.007-1.471
			c0.003-0.487,0.224-0.722,0.711-0.728c0.753-0.009,1.506-0.011,2.258,0.001C38.192,37.941,38.441,38.333,38.259,38.817z"/>
		<path fill="#0862B3" d="M33.644,38.796c-0.082-0.024-0.102-0.086-0.136-0.132c-0.091-0.125-0.219-0.201-0.365-0.203
			c-0.632-0.008-1.264-0.003-1.938-0.003c0.29,0.303,0.316,0.653,0.316,1.01c-0.001,1.319,0,2.639,0,3.958
			c0,0.068-0.002,0.135,0.001,0.203c0.008,0.197,0.028,0.225,0.219,0.226c0.491,0.004,0.981,0,1.472,0.001
			c0.175,0,0.307-0.075,0.415-0.208c0.036-0.045,0.047-0.111,0.111-0.133c0.2,0.41-0.052,0.854-0.503,0.864
			c-0.55,0.012-1.1,0.004-1.649,0.004c-0.338,0-0.677,0.002-1.015-0.001c-0.254-0.002-0.279-0.026-0.282-0.274
			c-0.004-0.397-0.001-0.795-0.001-1.192c0-1.302,0-2.605,0-3.907c0-0.195-0.007-0.388-0.058-0.579
			c-0.045-0.166-0.12-0.313-0.249-0.418c0.048-0.1,0.124-0.081,0.187-0.082c0.956-0.002,1.912,0.005,2.868-0.003
			C33.596,37.922,33.787,38.401,33.644,38.796z"/>
		<path fill="#0862B3" d="M29.868,35.115c0.055,0.199,0.054,0.366,0.005,0.526c-0.05,0.164-0.168,0.269-0.334,0.319
			C29.416,35.998,29.289,36,29.162,36c-0.787,0-1.573,0-2.36,0c-0.025,0-0.051,0-0.076,0c-0.286-0.005-0.305-0.022-0.306-0.302
			c-0.002-0.778-0.001-1.556-0.001-2.334c0-0.829,0-1.658,0-2.486c0-0.076,0.003-0.152-0.001-0.228
			c-0.021-0.378-0.019-0.764-0.33-1.051c0.075-0.075,0.155-0.053,0.227-0.053c0.947-0.002,1.895-0.002,2.842,0
			c0.339,0.001,0.553,0.147,0.622,0.411c0.029,0.11,0.023,0.296-0.015,0.47c-0.015-0.003-0.04-0.001-0.045-0.01
			c-0.146-0.269-0.368-0.364-0.672-0.352c-0.473,0.018-0.947,0.004-1.421,0.006c-0.081,0-0.167-0.023-0.267,0.038
			c0.269,0.276,0.264,0.623,0.264,0.97c-0.001,1.294,0,2.588,0,3.882c0,0.068,0,0.135,0,0.203c0.002,0.309,0.002,0.31,0.309,0.311
			c0.389,0.001,0.778,0,1.167,0C29.56,35.475,29.562,35.474,29.868,35.115z"/>
		<path fill="#0862B3" d="M15.588,30.665c-0.019-0.299-0.049-0.54,0.031-0.776c0.059-0.171,0.191-0.273,0.367-0.32
			c0.091-0.024,0.184-0.025,0.277-0.025c0.956,0,1.912,0,2.868,0c0.093,0,0.186-0.002,0.277,0.025
			c0.224,0.067,0.369,0.205,0.391,0.445c0.019,0.207,0.067,0.416,0.004,0.62c-0.089,0.023-0.091-0.048-0.112-0.085
			c-0.108-0.185-0.27-0.273-0.482-0.275c-0.22-0.002-0.44-0.005-0.66-0.001c-0.2,0.004-0.22,0.025-0.228,0.216
			c-0.004,0.093-0.001,0.186-0.001,0.279c0,1.616,0,3.231,0,4.847c0,0.383-0.001,0.383-0.378,0.384
			c-0.195,0-0.389,0.004-0.584-0.003c-0.176-0.007-0.205-0.039-0.216-0.211c-0.005-0.076-0.002-0.152-0.002-0.228
			c0-1.607,0-3.214,0-4.821c0-0.051,0-0.102,0-0.152c-0.003-0.306-0.006-0.31-0.314-0.312c-0.186-0.001-0.372,0.006-0.558-0.001
			c-0.249-0.009-0.449,0.066-0.573,0.295C15.683,30.587,15.659,30.6,15.588,30.665z"/>
		<path fill="#0862B3" d="M35.808,29.575c0.019-0.036,0.065-0.03,0.105-0.03c0.262-0.001,0.524-0.007,0.786,0.001
			c0.377,0.012,0.595,0.217,0.638,0.589c0.011,0.092,0.01,0.185,0.01,0.278c0.001,1.723,0.001,3.447,0,5.17
			c0,0.416-0.001,0.416-0.428,0.416c-0.161,0-0.321,0.003-0.482-0.001c-0.239-0.006-0.264-0.029-0.268-0.262
			c-0.004-0.236-0.001-0.473-0.001-0.71c0-1.436,0-2.872,0.001-4.308c0-0.169-0.011-0.337-0.038-0.504
			c-0.036-0.224-0.105-0.426-0.302-0.563C35.809,29.637,35.795,29.614,35.808,29.575z"/>
		<path fill="#0862B3" d="M33.127,41.919c-0.166-0.589-0.53-1.009-1.065-1.266c0.031-0.089,0.087-0.087,0.135-0.087
			c0.262-0.002,0.524-0.006,0.786,0.001c0.17,0.005,0.21,0.038,0.213,0.185c0.007,0.379,0.002,0.758,0.002,1.136
			C33.175,41.899,33.151,41.909,33.127,41.919z"/>
		<path fill="#0862B3" d="M29.225,33.533c-0.175-0.579-0.517-1.02-1.065-1.267c0.039-0.095,0.095-0.085,0.143-0.085
			c0.262-0.001,0.524,0,0.787,0c0.116,0,0.2,0.038,0.2,0.172c0.001,0.387,0,0.775,0,1.162
			C29.268,33.521,29.247,33.527,29.225,33.533z"/>
	</g>
</g>
</svg>
