<svg xmlns="http://www.w3.org/2000/svg"  viewBox="0 0 64 64" width="50px" height="50px"><linearGradient id="gpoKs3EPQ863Hi4wUS_PKa" x1="33.506" x2="33.506" y1="-4.29" y2="69.858" gradientUnits="userSpaceOnUse"><stop offset="0" stop-color="#6dc7ff"/><stop offset=".699" stop-color="#e6abff"/></linearGradient><path fill="url(#gpoKs3EPQ863Hi4wUS_PKa)" d="M58.2,36.24c-0.33-0.65-2.21,0.65-3.81,1.47c-0.62,0.31-1.33,0.26-2.17-0.16 c-0.01-0.01-1.72-0.89-1.72-2.55c0-1.39,0.45-2.25,0.64-2.55c0.48-0.14,1.36-0.63,1.36-2.45c0-0.4,0.28-0.49,0.5-0.5h0.5V29 c0-0.6-0.4-1.5-1.5-1.5c-0.15,0-0.23-0.03-0.24-0.06c-0.05-0.11,0.04-0.53,0.59-1.09c0.33-0.33,0.75-0.83,0.54-1.34 c-0.16-0.38-0.56-0.51-0.88-0.51c-0.16,0-1.51-0.11-1.51-2.47c0-0.01,0.07-0.89,0.75-1.46c0.5-0.42,1.23-0.58,2.15-0.49 c0.16,0.08,0.35,0.09,0.52,0.02C54.12,20.01,53,18.85,53,17c0,0,1.66-0.27,2.22-0.55l0.13-0.1c2.33-2.32,1.06-3.65,1-3.7L56,12.29 l-1.35,1.36l-0.1,0.13c-0.19,0.37-0.61,0.95-0.92,1c-0.04,0-0.12,0.02-0.28-0.13L53,14.29l-0.35,0.36C51.51,15.78,53,17.95,53,18 c0,0-1.3,0.11-2.5-0.04c-1.18-0.61-1.48-0.63-1.99-0.52c-0.13,0.03-0.27,0.06-0.51,0.06c-0.4,0-0.49-0.28-0.5-0.5v-0.5 c0,0-1.67,1.55-1.81,1.78c-0.12,0.19-0.48,0.22-0.69,0.22c-1.41,0-1.5-1.25-1.5-1.5c0-0.6-0.4-1.5-1.5-1.5h-0.5v1.19l-1.61,0.81 c-0.49-0.03-2.39-0.21-2.39-1.5c0-0.29-0.02-0.6-0.04-0.92c-0.06-0.95-0.13-1.94,0.41-2.4c0.49-0.43,1.51-0.49,3.13-0.18 c0.82,0,1.49-0.16,2.02-0.28c0.9-0.22,1.23-0.27,1.63,0.13L45,12.71l1.13-1.14c0.35,0.1,0.91,0.17,1.52-0.08 c0.79-0.33,1.4-1.09,1.8-2.27c0.23-0.33,0.44-0.64,0.63-0.93c1.59-2.32,2.38-3.49,1.37-5.51l-0.31-0.62l-0.72,0.71 c-1.7,1.71-2.06,2.06-3.1,2.32l-0.31-0.08c-1.36-0.35-2.26-0.57-3.36,0.54c-0.46,0.46-0.9,0.89-1.37,0.98 c-0.53,0.11-1.16-0.21-1.93-0.98l-0.43-0.44l-0.34,0.51c-0.8,1.21-1.14,1.96-1.37,2.46c-0.32,0.72-0.38,0.84-1.43,1.37 c-1.81,0.9-4.62,0.17-4.73,0.15c-0.05-0.01-1.12-0.1-1.87,0.58c-0.45,0.4-0.68,0.98-0.68,1.72c0,1.12-0.34,1.47-0.52,1.5H28.5V14 c0,0.61-0.2,1.5-0.5,1.5l-0.16,0.03c-2.16,0.72-3.09-0.3-3.33-0.65c0.04-0.26,0.2-0.88,0.84-1.53c0.33-0.33,0.75-0.83,0.54-1.34 c-0.16-0.38-0.56-0.51-0.89-0.51c-0.61,0-1.5-0.2-1.5-0.5c0-2.47-1.44-2.5-1.5-2.5h-0.21l-1.14,1.15l-1.96,3.85H16.5V14 c0,1.18,0.08,1.29,1.15,2.35c0.85,0.86,0.85,0.86,0.85,1.65c0,0.59,0.25,0.97,0.58,1.21l-0.43,0.44 c-0.65,0.65-1.84-0.42-1.86-0.43L16,20c0.03,0.11,0.29,0.79-1.22,1.55C12.37,22.76,11.07,20.11,11,20l-2-2l0.86,3.42 c0.38,0.99,0.32,2.1-0.15,3.04L9,25l1.35,0.35c0.22-0.22,0.98-0.83,1.55-0.73c0.09,0.02,0.38,0.06,0.65,0.6 c0.17,0.35,0.2,0.66,0.08,0.95c-0.3,0.72-1.39,1.22-1.79,1.36l-0.34,0.11v1.67l0.28,0.14c0.72,0.36,1.72,1.1,1.72,1.55v1.12 l0.05,0.1c0.01,0.02,0.88,1.8,0,3.56c-0.71,1.43-1.8,2.55-2.46,2.55c-0.09,0-0.37,0-0.64-0.55L8.91,36.7l-0.38,1.14 c-1.13,3.37,3.07,5.52,3.25,5.61l0.1,0.05H12c0.25,0,2.5,0.09,2.5,2.5c0,1.35,0,2.33-0.08,2.48C14.37,48.5,14.16,48.5,14,48.5 c-1.1,0-1.5,0.9-1.5,1.5v0.21l0.15,0.14c0.11,0.12,1.18,1.15,2.35,1.15h0.12l0.1-0.05c1.46-0.73,4.5,0.47,5.55,1 c0.07,0.03,1.73,0.92,1.73,3.55v0.5h2.01l0.15-0.17c0.06-0.07,1.49-1.69,3.12-0.88l0.11,0.05c2.2,1.11,4.28,2.15,5.03,0.73 l0.05-0.21c0.03-0.5,0.65-1.99,1.58-2.53c0.41-0.24,0.81-0.25,1.23-0.04c0.8,0.4,1.24,0.79,1.46,1.07C37.47,54.81,37.5,55,37.5,55 v0.18l0.11,0.14c0.07,0.07,1.4,1.66,3.84,1.66c0.28,0,0.57-0.02,0.88-0.07l0.51-0.08l-0.09-0.5c-0.23-1.28-0.27-2.1,1.62-3.99 c0.02-0.03,2.01-2.17,4.08-1.57l0.47,0.14l0.15-0.47c0.43-1.35-0.39-2.42-0.64-2.71c-0.06-0.15-0.18-0.56,0.01-1.01 c0.22-0.5,0.79-0.92,1.65-1.22c0.82-0.04,2.37-0.57,2.85-2.36c0.4-1.47,3.23-3.16,4.28-3.69l1.13-1.1 C58.97,37.74,58.58,36.97,58.2,36.24z M45.99,38.58c-1.99,7.67-9.86,12.3-17.54,10.3c-7.67-1.99-12.29-9.85-10.3-17.53 c1.68-6.47,7.53-10.77,13.92-10.77c1.19,0,2.4,0.15,3.61,0.46c2.07,0.54,3.95,1.5,5.54,2.82c1.28,1.06,2.38,2.34,3.25,3.81 C46.41,30.99,46.95,34.86,45.99,38.58z"/><linearGradient id="gpoKs3EPQ863Hi4wUS_PKb" x1="32" x2="32" y1="-17.546" y2="68.008" gradientUnits="userSpaceOnUse"><stop offset="0" stop-color="#1a6dff"/><stop offset=".695" stop-color="#c822ff"/></linearGradient><path fill="url(#gpoKs3EPQ863Hi4wUS_PKb)" d="M32,51c-8.822,0-16-7.178-16-16 s7.178-16,16-16s16,7.178,16,16S40.822,51,32,51z M32,21c-7.72,0-14,6.28-14,14s6.28,14,14,14s14-6.28,14-14S39.72,21,32,21z"/><linearGradient id="gpoKs3EPQ863Hi4wUS_PKc" x1="33.504" x2="33.504" y1="-17.546" y2="68.008" gradientUnits="userSpaceOnUse"><stop offset="0" stop-color="#1a6dff"/><stop offset=".695" stop-color="#c822ff"/></linearGradient><path fill="url(#gpoKs3EPQ863Hi4wUS_PKc)" d="M58.64,36.01 c-0.143-0.281-0.295-0.58-0.415-0.897c-0.174-0.46-0.766-0.587-1.125-0.25c-0.893,0.837-2.229,2.033-2.94,2.397 c-0.17,0.09-0.7,0.35-1.71-0.15C52.44,37.1,51,36.34,51,35c0-1.08,0.29-1.79,0.47-2.12C52.18,32.6,53,31.81,53,30l1-1 c0-0.85-0.54-1.75-1.58-1.96c0.07-0.09,0.16-0.21,0.29-0.33c0.25-0.25,1-1.01,0.64-1.89C53.1,24.22,52.49,24,52.03,24 C51.86,23.99,51,23.84,51,22.06c0-0.01,0.07-0.68,0.57-1.1c0.38-0.32,0.96-0.46,1.7-0.39c0.27,0.1,0.57,0.11,0.84-0.01 C54.64,20.34,55,19,55,19l-1-1c-1-1,0.84-0.8,1.45-1.11l0.14-0.07l0.12-0.11c1.789-1.795,2.24-3.268,2.322-4.065 c0.038-0.366-0.162-0.71-0.491-0.875l-0.38-0.19c-0.577-0.288-1.28-0.086-1.607,0.47c-0.59,1.004-1.581,2.335-1.934,2.16 l-0.681-0.088c-0.568-0.074-1.121,0.214-1.386,0.722C51.287,15.356,51,15.925,51,16l1,2c-0.13,0-1.17-0.5-1.35-0.52 c-1.11-0.58-1.55-0.67-2.24-0.53C48.28,16.98,48.19,17,48,17v-1h-2c0,0,0,2-1,2c-0.81,0-0.99-0.55-1-1c0-0.97-0.7-2-2-2h-1v1.38 l-1.21,0.61C39.27,16.94,38,16.76,38,16c0-0.3-0.02-0.62-0.04-0.95c-0.05-0.79-0.11-1.69,0.23-2c0.17-0.14,0.76-0.44,2.61-0.07 L41,13c0.88,0,1.58-0.17,2.14-0.3c0.45-0.105,0.916,0.221,1.268,0.572c0.335,0.334,0.885,0.3,1.153-0.09l0.729-1.062 c0.42,0.07,0.96,0.07,1.55-0.17c0.92-0.38,1.61-1.22,2.06-2.5c0.21-0.32,0.369-0.644,0.6-0.88 c2.518-2.569,1.811-5.199,1.217-6.473c-0.192-0.411-0.729-0.507-1.056-0.192C49.701,2.83,47.884,4.525,47.32,4.67l-0.18-0.05 c-1.42-0.35-2.53-0.64-3.85,0.67c-0.38,0.39-0.78,0.79-1.11,0.85c-0.268,0.054-1.047-0.564-1.634-1.072 c-0.376-0.326-0.952-0.235-1.21,0.191c-0.566,0.937-1.425,2.377-1.577,2.72c-0.29,0.64-0.31,0.68-1.21,1.13 c-1.35,0.67-3.56,0.31-4.29,0.12L32.1,9.2c-0.14-0.01-1.36-0.11-2.26,0.71C29.46,10.25,29,10.9,29,12c0,0.63-0.12,0.91-0.18,1 h-0.81L28,14c0,0.35-0.08,0.8-0.17,1l-0.15,0.05c-1.56,0.52-2.33,0.02-2.63-0.29c0.07-0.25,0.25-0.64,0.66-1.05 c0.25-0.25,1-1.01,0.64-1.89C26.1,11.21,25.49,11,25,11c-0.35,0-0.79-0.08-1-0.17C23.92,8.03,22.08,8,22,8h-0.41l-1.41,1.41 L18.38,13H16v1c0,1.33,0.16,1.58,1.29,2.71c0.33,0.33,0.65,0.64,0.69,0.74C18,17.51,18,17.77,18,18c0,0.49,0.15,0.89,0.38,1.21 l-0.09,0.08c-0.22,0.22-0.92-0.22-1.16-0.44L16,19c0.09,0.29,0,2-1,2c-1.6,0-3.61-2.02-4.68-3.11c-0.26-0.26-0.48-0.48-0.65-0.63 l-0.59-0.49l-0.62,0.32c-0.75,0.4-0.65,1.18-0.42,2.88c0.04,0.24,0.07,0.44,0.07,0.54c0.08,1.11,0.19,3.15,0.1,4.36 c-0.03,0.09-0.08,0.21-0.13,0.33c-0.15,0.36-0.42,1.05,0.14,1.56c0.26,0.24,0.73,0.39,1.24,0.13c1.29-0.68,2.27-1,2.74-1.07 c0,0.06-0.02,0.11-0.03,0.16c-0.21,0.5-1.09,0.94-1.49,1.07L10,27.28v2.34l0.55,0.27c0.66,0.33,1.38,0.9,1.45,1.11v1.24l0.11,0.21 c0,0.01,0.75,1.59,0,3.1c-0.325,0.649-0.702,1.177-1.047,1.56c-0.233,0.26-0.855-0.122-1.355-0.506 c-0.387-0.298-0.95-0.176-1.19,0.249L8.05,37.68c-1.26,3.78,3.31,6.12,3.5,6.21L11.76,44h0.23c0.47,0.01,2.01,0.17,2.01,2 c0,0.83,0,1.58-0.03,2C12.69,48.02,12,49.04,12,50v0.41l0.29,0.3C12.42,50.84,13.62,52,15,52h0.24l0.21-0.11 c1.06-0.53,3.63,0.27,5.09,1c0.046,0.023,0.877,1.071,1.264,2.593c0.216,0.849,0.997,1.428,1.867,1.33l0.802-0.09 c0.338-0.038,0.652-0.177,0.915-0.393c0.455-0.373,1.294-0.874,2.162-0.44l0.11,0.06c2.33,1.16,4.73,2.37,5.7,0.51l0.1-0.19 l0.01-0.22c0.02-0.403,0.579-1.711,1.349-2.14c0.247-0.138,0.563-0.107,0.814,0.022c1.089,0.562,1.328,1.041,1.367,1.148v0.28 l0.23,0.28c0.07,0.08,1.55,1.84,4.22,1.84c0.167,0,0.757-0.071,1.249-0.134c0.334-0.043,0.567-0.369,0.475-0.693 c-0.235-0.822-0.314-2.384,1.567-3.983c0.022-0.018,1.81-1.94,3.57-1.42l0.94,0.28l0.29-0.94c0.43-1.33-0.16-2.51-0.67-3.12 c-0.03-0.12-0.06-0.34,0.04-0.56c0.15-0.35,0.61-0.67,1.28-0.92c0.98-0.07,2.69-0.71,3.23-2.72c0.3-1.08,2.53-2.63,4.03-3.38 l0.14-0.07l1.12-1.11C59.58,37.83,59.04,36.78,58.64,36.01z M51.49,42.74c-0.31,1.16-1.31,1.25-1.5,1.26l-0.31,0.05 c-1.35,0.45-2.23,1.16-2.63,2.11c-0.48,1.16,0,2.17,0.06,2.29l0.17,0.25c0.02,0.01,0.18,0.19,0.3,0.46 c-2.38,0.06-4.23,2.06-4.29,2.13c-1.67,1.68-2.17,2.85-2.14,4.17c-1.17-0.09-1.93-0.67-2.23-0.95c-0.19-0.58-0.75-1.54-2.47-2.4 c-0.87-0.44-1.82-0.41-2.66,0.08c-1.15,0.68-1.97,2.16-2.23,3.22c-0.63-0.06-2.09-0.79-3-1.25l-0.11-0.05 c-1.83-0.92-3.58-0.01-4.53,0.83c-0.41-2.77-2.38-3.79-2.47-3.83c-0.44-0.22-4.21-2.05-6.61-1.13c-0.04-0.01-0.09-0.02-0.13-0.04 C16,49.69,16,48.59,16,46c0-2.77-2.13-3.88-3.73-3.99c-0.46-0.27-1.73-1.08-2.23-2.18c1.61,0,3.07-1.81,3.85-3.38 c1.01-2.01,0.38-3.98,0.11-4.66V31c0-1.07-1-1.94-1.78-2.45c0.63-0.35,1.43-0.94,1.79-1.8c0.29-0.7,0.25-1.46-0.12-2.2l-0.07-0.14 l-0.11-0.12c-0.29-0.28-0.97-0.96-3.48,0.04c0.03-1.2-0.04-2.69-0.11-3.84C11.45,21.72,13.19,23,15,23c1.18,0,1.81-0.52,2.12-0.95 c0.18-0.25,0.3-0.51,0.37-0.78c0.77,0.19,1.58,0.08,2.22-0.56l2.7-2.71H20c0-1.33-0.16-1.58-1.29-2.71c-0.1-0.1-0.2-0.2-0.29-0.29 h1.2l2.2-4.41l0.14-0.14C21.99,10.59,22,10.77,22,11c0,1.06,0.83,1.62,1.8,1.86C23.03,13.92,23,14.88,23,15v0.24l0.11,0.21 c0.47,0.94,2.13,2.46,5.07,1.54c1.12-0.11,1.64-1.2,1.78-2.32C30.47,14.3,31,13.55,31,12c0-0.29,0.06-0.5,0.18-0.61 c0.18-0.17,0.52-0.2,0.67-0.2c0.61,0.14,3.49,0.76,5.6-0.3c1.4-0.7,1.69-1.11,2.13-2.09c0.15-0.32,0.33-0.73,0.66-1.29 c0.8,0.55,1.57,0.75,2.33,0.6c0.92-0.19,1.57-0.83,2.14-1.4c0.48-0.48,0.58-0.49,1.94-0.15l0.66,0.17l0.23-0.05 c1.13-0.26,1.74-0.63,2.7-1.53c-0.22,0.55-0.67,1.23-1.4,2.3c-0.21,0.3-0.43,0.63-0.67,1l-0.12,0.23 c-0.25,0.75-0.59,1.25-0.96,1.41c-0.12,0.05-0.23,0.07-0.34,0.07c-0.17,0-0.3-0.05-0.3-0.05L45.8,9.78l-0.94,0.94 c-0.76-0.3-1.53-0.12-2.18,0.04c-0.48,0.11-0.98,0.23-1.59,0.24c-2-0.39-3.35-0.21-4.21,0.55c-1.09,0.95-1,2.44-0.92,3.63 C35.98,15.46,36,15.74,36,16c0,2.37,2.62,3,4,3h0.24l1.94-0.97c0.34,1,1.2,1.97,2.82,1.97c1.15,0,1.7-0.5,1.96-0.93 c0.06-0.09,0.1-0.18,0.14-0.27c0.26,0.13,0.56,0.2,0.9,0.2c0.4,0,0.66-0.06,0.83-0.09c0.03-0.01,0.06-0.02,0.07-0.02 c0.04,0,0.24,0.05,0.98,0.44l0.16,0.08l0.17,0.03h0.05C49.12,20.42,49.01,21.79,49,22c0,2.22,0.97,3.29,1.9,3.74 c-0.61,0.78-0.8,1.6-0.53,2.28c0.18,0.41,0.51,0.72,0.94,0.87C51.12,29.19,51,29.56,51,30c0,0.75-0.2,0.99-0.15,1h-0.47l-0.3,0.35 C49.97,31.49,49,32.7,49,35c0,2.59,2.45,3.84,2.55,3.89c1.31,0.66,2.36,0.58,3.1,0.33C53.36,40.08,51.87,41.35,51.49,42.74z M56.41,38.18"/><linearGradient id="gpoKs3EPQ863Hi4wUS_PKd" x1="57.952" x2="57.952" y1="-17.546" y2="68.008" gradientUnits="userSpaceOnUse"><stop offset="0" stop-color="#1a6dff"/><stop offset=".695" stop-color="#c822ff"/></linearGradient><path fill="url(#gpoKs3EPQ863Hi4wUS_PKd)" d="M58,28c1-1,0.68,1.39,0.68,1.39L58.27,32 C58.27,32,56,30,58,28z"/></svg>