<svg xmlns="http://www.w3.org/2000/svg"  viewBox="0 0 64 64" width="50px" height="50px"><path fill="#8d6c9f" d="M61.575,27.006c-1.262-2.92-5.234-5-10.075-5c-4.929,0-51.5,0-51.5,0v13h44h1.987l0.322,0.118 c1.567,0.577,3.362,0.882,5.191,0.882c4.266,0,7.851-1.618,9.509-4H64v-5H61.575z M46.009,29.158 c0.002-0.002,0.005-0.004,0.007-0.006c0,0.003,0.001,0.005,0.001,0.008L46.009,29.158z"/><path fill="#8d6c9f" d="M7,43.006c-0.552,0-1-0.448-1-1v-2c0-0.552,0.448-1,1-1s1,0.448,1,1v2 C8,42.558,7.552,43.006,7,43.006z M12,43.006c-0.552,0-1-0.448-1-1v-2c0-0.552,0.448-1,1-1s1,0.448,1,1v2 C13,42.558,12.552,43.006,12,43.006z M17,43.006c-0.552,0-1-0.448-1-1v-2c0-0.552,0.448-1,1-1s1,0.448,1,1v2 C18,42.558,17.552,43.006,17,43.006z M22,43.006c-0.552,0-1-0.448-1-1v-2c0-0.552,0.448-1,1-1s1,0.448,1,1v2 C23,42.558,22.552,43.006,22,43.006z M27,43.006c-0.552,0-1-0.448-1-1v-2c0-0.552,0.448-1,1-1s1,0.448,1,1v2 C28,42.558,27.552,43.006,27,43.006z M32,43.006c-0.552,0-1-0.448-1-1v-2c0-0.552,0.448-1,1-1c0.552,0,1,0.448,1,1v2 C33,42.558,32.552,43.006,32,43.006z M37,43.006c-0.552,0-1-0.448-1-1v-2c0-0.552,0.448-1,1-1s1,0.448,1,1v2 C38,42.558,37.552,43.006,37,43.006z M42,43.006c-0.552,0-1-0.448-1-1v-2c0-0.552,0.448-1,1-1s1,0.448,1,1v2 C43,42.558,42.552,43.006,42,43.006z M47,43.006c-0.552,0-1-0.448-1-1v-2c0-0.552,0.448-1,1-1s1,0.448,1,1v2 C48,42.558,47.552,43.006,47,43.006z M52,43.006c-0.552,0-1-0.448-1-1v-2c0-0.552,0.448-1,1-1s1,0.448,1,1v2 C53,42.558,52.552,43.006,52,43.006z M57,43.006c-0.552,0-1-0.448-1-1v-2c0-0.552,0.448-1,1-1s1,0.448,1,1v2 C58,42.558,57.552,43.006,57,43.006z"/><path fill="#ffeb9b" d="M2,24.006v9h4v-3h6v3h3v-5c0-1.657-1.343-3-3-3h0v3H5v-4H2z"/><polygon fill="#ffeb9b" points="17,33.006 20,29.006 25,29.006 23,27.006 22,27.006 24,24.006 31,33.006 28,33.006 27,31.006 21,31.006 20,33.006"/><polygon fill="#ffeb9b" points="33,24.006 33,32.006 34,33.006 44,33.006 44,32.006 43,31.006 37,31.006 37,27.006 35,24.006"/><ellipse cx="50.5" cy="29.006" fill="#ffeb9b" rx="1.5" ry="1"/><path fill="#ffeb9b" d="M47,33.248c1.306,0.481,2.848,0.759,4.5,0.759c4.69,0,8.5-2.24,8.5-5s-3.81-5-8.5-5 c-4.108,0-7.541,1.719-8.33,4l0.83,1c0-1.66,2.91-3,6.5-3s6.5,1.34,6.5,3c0,1.66-2.91,3-6.5,3c-1.289,0-2.49-0.173-3.5-0.471 L47,33.248z"/><rect width="3" height="1" x="59" y="29.006" fill="#ffeb9b"/></svg>