<svg xmlns="http://www.w3.org/2000/svg" width="50" height="50" viewBox="0 0 48 48"><path fill="#e53935" d="M35.25 31.001C36.283 31.724 37 33 37 34c0 1.25-.25 2.125-1.125 3 0 0 .125.125.75.125 3.5 0 4.375-1.944 4.375-2.625 0-2-2-2.5-2-2.5a6.536 6.536 0 0 1 1.806.185c1.683.431 2.943 1.374 3.729 2.924.306.604.456 1.206.464 1.794.016 1.159-.5 2.346-1.625 3.346C41.525 41.894 38.125 42 38 42a3.63 3.63 0 0 0 2.625 1.125C41.25 43.125 42 43 42 43c-.036.047-.75.875-2.64 1.576A7.805 7.805 0 0 1 37 45a6.607 6.607 0 0 1-1.42-.132c-1.906-.386-3.215-1.502-4.036-3.206-.274-.568-.544-1.787-.544-2.037-.618.604-.977 1.337-1 2.125.125 1.625 1.013 2.232 1 2.25-.144-.059-3-.625-3-4.625-.013-.642.003-1.161 0-1.75-.005-1.031-.475-1.89-1.282-2.555a546.754 546.754 0 0 0-4.093-3.343c-.935-.756-1.518-1.686-1.531-2.901-.008-.758-.367-1.313-.959-1.76-.372-.281-.749-.561-1.086-.88-.595-.564-.706-1.262-.503-2.047.035.029.064.041.068.059.233.944.953 1.287 1.831 1.429.471.076.951.109 1.416.208.488.105.765.449.877.92.069.291.124.586.192.877.131.561.416.795.997.832.382.024.765.043 1.146.081.597.06 1.115.299 1.578.676 1.614 1.314 3.236 2.619 4.851 3.931.415.336 1.123.848 1.873.848.875 0 2-.625 2-1.875 0-.75-.125-1.124-.125-1.124z"/><path fill="#e53935" d="M25.891 36.073a543.677 543.677 0 0 0-3.431-2.802c-.641 1.039-3.108 4.728-6.589 4.728-1.726 0-3.306-1.013-4.121-2.592a6.821 6.821 0 0 1-.75-3.031c0-4.25 2.675-6.575 2.739-6.658-.726-.179-1.273-.103-1.864.29a63.483 63.483 0 0 1-1.758 1.119C10 27.125 10 27.125 10 27l.375-2.5c-.576.194-1.875.875-3.375 2.375-.75.75-1.357 1.416-1.357 1.416-.393-1.416.232-3.916.354-4.791.072-.51-.125-.5-.125-.5-.25 0-.997.765-1.372 1.156-1.159 1.206-1.895 2.584-2.31 4.208-.078.308-.127.699-.19 1.011.024.008.625-.875 1.125-.875.25 0 .265.383.257.518-.013.209-.084.418-.15.621-.464 1.435-.729 2.886-.74 4.361-.005.676.044 1.356.151 2.042.183 1.167.467 2.021.981 3.083.726 1.5 2.033 2.812 2.125 2.875-.063-.214-.188-.505-.209-.67-.042-.319-.107-.647-.072-.962.044-.396.39-.486.678-.206.129.126 1.545 1.465 2.38 2.011 1.893 1.236 3.89 1.82 5.974 1.827a12.862 12.862 0 0 0 3.317-.444c1.632-.429 3.072-1.223 4.356-2.295 1.645-1.372 2.912-3.132 3.921-4.989-.066-.067-.125-.135-.203-.199zm5.429-13.99c-1.992 1.314-3.654 3.497-5.105 5.364-.01.013-.016.027-.023.04.451.164.881.4 1.28.725.533.434 1.067.865 1.601 1.298l.118-.239c.989-2.037 2.183-4.476 3.696-6.181 1.478-1.666 4.073-2.181 5.999-1.251.24.116.434.167.624.16.194-.007.384-.073.615-.193a10.282 10.282 0 0 1 4.829-1.159c.334.003 1.046.103 1.046.103-.625-.625-1.444-1.26-2.156-1.661C42.519 18.344 41.157 18 39.75 18c-2 0-3 .624-3.535.624-.215 0-.32-.058-.394-.156-.065-.085-.04-.276.01-.395C36.125 17.5 36.934 17.045 37 17c-.625 0-2.003.741-2.796 1.355-.533.412-1.062.829-1.599 1.236a1.159 1.159 0 0 1-.368.185c-.353.103-.533-.071-.429-.414.047-.154.119-.304.199-.444.129-.227.275-.445.425-.683-3.807 2.391-4.459 5.671-4.432 5.641a12.44 12.44 0 0 1 3.875-2.875 11.402 11.402 0 0 1 5-1.125s.125.101.125.125c0 0-.75 0-1.545.237-1.501.345-2.863 1.005-4.135 1.845z"/><path fill="#e53935" d="M16.75 11.25c0 .5.132.997.275 1.413.372 1.086 1.086 1.964 1.899 2.76.802.785 1.649 1.525 2.467 2.294.825.775 1.542 1.63 1.968 2.686.241.597.36 1.216.266 1.858-.026.179.04.265.199.333.406.173.664.46.686.915.01.215.144.181.273.114.716-.372 1.045-.935 1.091-.997.082.171.127.383.125.625-.012 1.346-1.205 3.555-2.328 3.995.015-.098.026-.177.04-.256.158-.888-.284-1.616-1.153-1.906-.587-.196-1.072-.2-1.685-.209h-.5c.047-.108.393-.823.47-1.101.11-.395-.034-.677-.439-.766a6.161 6.161 0 0 0-1.345-.156 13.253 13.253 0 0 0-3.059.372c-.14.034-.366.106-.503.151.875 0 2 .375 2 .375s-.5 1-.5 1.625c0 .5.25.875.5.875s.389-.168.503-.25c-.023.136-.161.855-.18 1.193-.029.531.18.807.805.807H19c-.25.875-2.132 2.027-3.25 2a1.228 1.228 0 0 1-.208-.022c.458-.228 1.148-1.103 1.148-1.477l-1.492.19s.509-.635.672-.954c.423-.825.47-1.668-.09-2.456-.473-.666-1.239-.951-2.03-1.03-1.25 0-1.9.35-2 .375.569-1.24 1.381-2.005 2.625-2.625-1-.5-2-.625-2-.625 1-.625 2.5-1.125 3.625-1.375-.125 0-.437.004-.5 0-3.75 0-5.219 1.938-5.25 2 .605.104 1 .125 1.75.375 0 0-2 .375-5 2.625.02-.113.375-.875.375-1.625 0-2.625-3.324-2.099-3.375-2.125.081-.073.75-.625 2.863-1.645.396-.214 1.512-.73 1.512-1.355 0-.875-1.735-2.15-1.875-2.25 1.375 0 2.147.129 3.25.375-.588-1.004-.752-2.05-.486-3.088.426.8 1.038 1.428 1.784 1.92.686.453 1.409.852 2.111 1.282.532.326 1.084.628 1.576 1.005.378.29.677.681 1.008 1.028.055.058.099.126.149.189l.086-.042c-.079-.197-.142-.402-.239-.591-.393-.765-.974-1.378-1.693-1.852-.295-.195-.456-.426-.513-.753a7.647 7.647 0 0 1 .011-2.85c.101-.503.706-1.624.706-1.624v.125c.034 1.325.538 2.386 1.375 3.375.878 1.037 2.027 1.805 3.017 2.73 1.733 1.645 2.471 2.568 2.608 2.77 0 0-.051-.214-.082-.283-.476-1.091-1.247-1.97-2.11-2.778-.75-.702-1.512-1.393-2.275-2.082a1.42 1.42 0 0 1-.483-.91c-.175-1.447.437-2.688.45-2.697zM19 20s.08.497.199.743C19.75 21.875 21 22 21 22s0-.875-1.25-1.75C19.381 19.992 19 20 19 20z"/><path fill="#e53935" d="M8 12.625C8.25 11.375 9 10 9 10s.463 1.573 1.25 2.625c.389.52.909 1.098 1.514 1.497.114.075.229.149.346.222a8.615 8.615 0 0 1 .159-1.974c.109-.545.492-1.328.73-1.784V10.5C13 8.567 14.343 7 16 7s3 1.567 3 3.5c0 1.377-.111 2.059-.271 2.5l-.042.106c.131.212.287.426.465.645l.031.039c.187.226.4.459.65.704.471.461.976.922 1.463 1.367.33.301.66.602.985.908.079.074.142.147.217.221C24.042 15.314 25 13.142 25 11c0-5-4.029-8-9-8s-9 3.125-9 8c0 1.216.318 2.439.865 3.58A8.95 8.95 0 0 1 8 12.625z"/></svg>