<svg xmlns="http://www.w3.org/2000/svg" width="50" height="50" viewBox="0 0 64 64"><linearGradient id="a" x1="32.144" x2="32.144" y1="23" y2="43.165" gradientUnits="userSpaceOnUse"><stop offset="0" stop-color="#1a6dff"/><stop offset="1" stop-color="#c822ff"/></linearGradient><path fill="url(#a)" d="M13.963 25.872h2.957v.569h-2.957v.032h-2V23h4.941v.569h-2.941v2.303zM1.91 23H1v3.473h2v-.032h3.117v-.569H3v-.915h1.441v-.569H3v-.819h3.117V23H1.91zm20.178 0h.269v3.473h-2v-.367H19.34v.351h-2v-2.505l.857-.952h3.891zm-1.732 2.213v-1.644H19.34v1.644h1.016zM27.066 23h.843v2.117h-2v-.016h-1.08v1.372h-2V23h4.237zm-1.156 1.532v-.963h-1.08v.963h1.08zm22.828.697.877 1.245h-2.118l-1.013-1.265v1.265h-2V23h5.08v2.229h-.826zm-2.254-1.66v.718h1.08v-.718h-1.08zM62.78 23h-2.04l-1.373 1.843L57.995 23h-2.491v3.473h2.04v-.956l.604.956H60.587l.577-.913v.913h2.04V23h-.424zm-8.49 0h.773v2.505l-.773.86v.092h-4.3v-2.505l.856-.952h3.444zm-1.227 2.888v-2.319H51.99v2.319h1.073zM9.489 24.532h-.952v-.963h2.926V23H7.255v.136l-.718.704v1.261h2.952v.771H6.537v.569h2.952v.016h1.144l.856-.77v-1.155h-2zM29.245 23h-.91v3.473h2v-.032h3.117v-.569h-3.117v-.915h1.442v-.569h-1.442v-.819h3.117V23h-4.207zm10.611 0h-.91v3.473h2v-1.516h1.441v-.569h-1.441v-.819h3.117V23h-4.207zM23.191 42.128l.007-.111h-.016l.009.111zm.138-2.107.052-.793h-.052v.793zm6.391 1.29.101-.013-.186-.445.085.458zm-6.209.88.277-2.964h-.403l.126 2.964zm.606-.382.109-2.581h-.353l.244 2.581zm.785-2.582h-.651l.051 3.386.047.528h.045l.106-1.269.234 1.269h.374l.065-.467h-.271v-3.447zm.373 2.711.023-.162.018 1.364h.185l.126-.758v-3.155h-.352v2.711zm8.424 1.203h.08l-.024-.519-.056.519zm.377 0h.205l-.11-1.125-.095 1.125zm.676 0h.036l-.011-.199-.025.199zm-4.699-.024.046-.329-.108-.006.062.335zm.383-.128.03-.18-.032-.002.002.182zm.445.152h.145l.177-.247.004-.039-.329-.02.003.306zm.744-15.95.066 2.059v8.154h-1.863l.813 2.959-.234.446-.003-.214-.042.299-.086.164-2.01-4.264.431-1.002-.934.646-.431 1.628.263.287.506-1.176 1.499 3.589-.047.565-.151.019-.114-1.297-.246 3.088h-.029l.044-2.202-.165-.019-.051-1.282-.038 1.272-.584-.067-.021 2.298h-.221l-.065-.835.021-1.271-.121-.008-.086-1.101-.05 1.092-.102-.007.037 1.443-.031.688h-.123l-.274-3.535-.056 3.38-.631-2.296-.016-.414-.026.261-.36-1.31h.324v.221h2.085v-.721h-2.085v.009h-.459l-.33-1.2v1.2h-.352v-.226h.306v-.378h-.207v-.189h-.328v.189h-.213v-.324h-.652v.459h.117v.469h-.97v-2.361h-.22v1.045h-.18v.576h.18v.739h-.187l-.113-1.428v1.428h-.47l-.202-4.269-.018 4.269h-.73v-7.381l1.729.033v-.431l-1.729-.023v-3.489l.133.743.088-.997h.092l.136 1.637.139-1.637h.235l.07 2.054.073-2.054h7.907l.185 2.543.129-2.543h.205l.206 2.865.063-2.865H31.625zm-4.17 3h-1.827v4.181h1.827v-4.181zm-10.252 1.745.196-.428-.474-.009.091.129.187.308zm2.637 10.862.319-2.043.096 1.883.287-2.649.128 2.808.005-.063v-3.507h-1.007l.172 3.571zm-1.053-.319.543.287.103-3.539h-.865l.219 3.252zm-3.574-4.332.163.325-.067-2.312-.096 1.987zm.716 4.094-.062-.225.168-2.154-.383-.838-.276-.552.124 4.294.478-.253-.049-.272zM-.003 30.191h2.692V43.14h.008l.058-1.939.075-2.489.16 4.021.287-3.606.191 2.17.128-1.532.447 2.426.351-2.521.032 2.394.415-2.489.032 2.84.319-.447.383-3.798.16 4.245.479-1.053.063-3.862.351 4.532.191-4.213.106 1.358v-8.986H10v-3H-.003v3zm14.865 8.833.144.239-.096.622-.338.444-.093.178-.113.207.209 1.923.096-1.883.319 2.043.224-4.651-.136-.272-.216 1.15zm-.754 2.166-.063.238.115 1.37.085-1.858-.137.25zm20.92 1.951h.103l-.068-.582-.035.582zm-14.75-14.768-.007-1.182h-.46l-.274 2.582-.083-2.582h-.551l-.071 3.248-.234-3.248h-.158l-.149 2.926-.213-2.926h-5.704l-1.699 4.564v9.105l.04.948.285-3.031.319 3.415.128-3 .191 2.936.383-4.819v4.819l.085-.059c.041-.486.091-.96.147-1.142.027-.088.083-.196.148-.308l.29-6.15.024 5.682c.078-.105.15-.198.215-.278.128-.208.209-.345.209-.345s.359-.455.239-.574c-.12-.12-.263-.814-.192-1.149.072-.335.192-1.269.12-1.34-.072-.072-.048-1.221-.048-1.221s-.742-.981-.551-1.484c.191-.503.646-1.221.646-1.221s.12-1.149.598-1.604c.479-.455.91-.024.91-.024l.551-.646s-.455-.886.335-1.245c.79-.359 1.197.551 1.197.551l.694.429-.646.239.144.383-.229.206.229.057.096-.168.317.005.018-.196h-.239l.048-.359 1.197-.024.048.594 1.939.028.024.263.093.021v-3.858h-.194l-.205 1.182zm.233 3.255h-1.133l-.494 1.077-.862 1.245-1.053-.503-.144.431.431.12-.359 1.317-.527.168.048.742.407.718.215.79.407.981.239-.024-.048 1.364-.168.168.185 2.944h.108l.033-2.027.157 2.027h.142l.02-3.942.351 3.383.025-3.379h-.075v-.251h-.229v-.239h.307l.004-.503.034.503h.913l.075-2.577.124 2.577h1.03v-7.395l-.069-.001-.094.286zm1.978 10.276.319.223v-2.9h-.446l.127 2.677zm-1.098-.193.173-1.403.128 2.234.16-2.617.255 2.202.012-2.9h-.728v2.484zm1.718-.621v-1.863h-.148l.148 1.863zm-5.279-8.122.455-.287v-.718l-.02-.303-.628.99.193.318zm.263-2.441-.311-.024-.032.223.495.007-.008-.015-.144-.191zm24.056 10.826-.18 1.788h.423l-.034-.912-.209-.876zm10.02.582.059-.162-.042-.985-.017 1.147zm-.619 1.23h.173l.041-.114-.009-1.865-.205 1.979zm2.665-13.783v2.772h.102l.027.732.096.388.019-.166-.023-5.63-.221 1.904zm-1.183-2.191h-.05l-.11 2.426-.263-2.426h-.036l-.084 1.66-.259-1.66h-.078l-.301 6.255-.181-6.255h-.557l-.283 4.181-.031-4.181h-.021l-.331 3.192-.016-3.192H44.99l-1.699 4.564v6.287h1.731v5.122h.708l-.062-1.479v-6.871l.279 3.514v-3.576h.367l.303 6.416.027-6.416h.149l.111.958.058-.958h.196l.033.576.071-.576h.025v-4.539h2.008v7.152l.076-2.613h.366v8.117l-.024-.153-.023.447h.98V38.16h1.269v-2.996l.056.555.08-3.567h.08l.39 3.874-.025-3.862.005-.012h.513l.193 3.188.061-.786v-4.387l-.005.054-.255-3.03zm-4.295 15.974h.331l-.153-1.819-.178 1.819zm.538 0h.187l-.132-1.213-.055 1.213zm1.897 0h.222l-.022-2.968-.2 2.968zm7.956-.048-.192-2.17-.175 2.194h.781l-.287-1.556-.127 1.532zm-23.107.024h.254l-.254-3.199v3.199zm23.802 0h.252l-.022-1.652-.23 1.652zm.23-15.918v5.146l-.8 2.884-.801-2.884v-5.146h-1.823l-.054 3.606-.128-3.032-.287 3.033-.319-3.415-.128 3-.191-2.936-.383 4.819v-4.819l-.319.223-.21 4.452h.242l.322 1.547.092-1.534.241 2.165.123-2.178h.019v5.981l.359 1.444v-1.417h.062l.162 2.318.023.094.094-2.412h.092l.254 3.531.01-3.531h.623l.432 4.597-.026.382h.217l-.021-2.896-.112 1.655-.062-3.737h.229l.203.907-.013-.907h.157l.287 1.647-.032-1.647h.152l.333 2.225.074-2.225h.232l.239 1.263-.01-1.263h.116l.205 1.626.113-2.214.32 4.642-.154.924h.325l-.094-5.368.304-.244.289 4.461-.116 1.151h.436l-.118-3.152-.169 1.68.061-4.165.381 2.918-.066-3.002.478 3.002-.026 1.593.193-.777-.086-1.104.071-2.371.265 2.47.026-.106-.141-2.851h.012v-6.613l.167-1.071h.021l.314 6.535.189-6.535h.138l.407.215.287 4.245.032-4.372.345 3.323.007-.027.017-3.385h.134v-2.37h-4.237zm2.425 12.435.002-.007-.001-.012-.001.019zm-4.362 3.483h.207l-.01-1.907-.197 1.907zm-9.859.024h.161l-.11-.894-.051.894zm10.158-.144-.004.12h.182l-.104-2.609-.074 2.489zm-1.708-.632.187.752h.16l-.144-4.971-.203 4.219zm-15.828.752h.237l-.021-1.556-.216 1.556zm-.703 0h.391l-.269-1.46-.122 1.46zm-.719-.024-.001.024h.175l-.1-2.513-.074 2.489zm.355.024h.352l-.185-2.098-.167 2.098zm-3.302 0h.142l-.056-1.316-.086 1.316zm.875 0h.099l-.026-1.731-.073 1.731zm-.504 0h.326l-.164-1.731-.162 1.731zm9.523.024h.217l-.131-2.011-.086 2.011zm.66 0v-3.894l-.309 3.894h.309zm-5.797-.024h.294l-.019-1.652-.275 1.652zm6.606.024h.226l-.078-1.277-.148 1.277zm-.314-3.016-.142 3.016h.346l-.013-3.016h-.191zm-1.746 3.016h.456l-.227-2.426-.229 2.426zM36.67 30.159v-2.936h-2.169l-.058 1.639-.056-1.639h-.284l-.104 1.222-.101-1.222h-.163l-.052.582-.104-.582h-.597l-.097.673-.005-.673h-.31l-.132.767-.004-.687v12.358h.275l-.089 3.061.018.235.144-3.165-.006-.132h.012l.042-.917.072.917h.929l.052-2.954h.467l.074 2.954h.916l-.014 3.48h.31l-.189-4.011v-.593h.92l.073-3.744h.611l.105 3.744h1.642v1.843h.934v-1.58h.957v-.757h.671l-1.301-5.464 2.356-5.387h-4.447l-1.298 2.968zm6.695 13.006h.425l-.269-3.431-.156 3.431z"/></svg>