<svg xmlns="http://www.w3.org/2000/svg" width="50" height="50" fill-rule="evenodd" clip-rule="evenodd" viewBox="0 0 48 48"><linearGradient id="a" x1="24" x2="24" y1="39.744" y2="6.848" gradientTransform="matrix(1 0 0 -1 0 47.89)" gradientUnits="userSpaceOnUse"><stop offset="0" stop-color="#4c4c4c"/><stop offset="1" stop-color="#343434"/></linearGradient><path fill="url(#a)" d="M5 8h38a1 1 0 0 1 1 1v4a1 1 0 0 1-1 1 3.18 3.18 0 0 0-2.866 1.803L28.283 40.474a.999.999 0 0 1-.88.526h-4.785a.998.998 0 0 1-.894-.553l-10.935-22.87A6.473 6.473 0 0 0 5 14a1 1 0 0 1-1-1V9a1 1 0 0 1 1-1z"/><path fill="#fff" d="M6 11.323V11a1 1 0 0 1 1-1h18a1 1 0 0 1 1 1v.219a1 1 0 0 1-.757.97l-.824.206a2 2 0 0 0-1.304 2.835l4.345 8.69a.5.5 0 0 0 .922-.065l2.846-8.539a2.442 2.442 0 0 0-1.544-3.088 1 1 0 0 1-.684-.949V11a1 1 0 0 1 1-1h11.061a.94.94 0 0 1 .939.939v.384a.94.94 0 0 1-.642.891 5.997 5.997 0 0 0-3.469 3.009L27.267 38.416a1 1 0 0 1-.909.584h-2.729c-.385 0-.735-.221-.902-.567l-9.874-20.571a10.997 10.997 0 0 0-5.831-5.453l-.394-.158A.999.999 0 0 1 6 11.323z"/><linearGradient id="b" x1="14.755" x2="36.92" y1="40.623" y2="18.457" gradientTransform="matrix(1 0 0 -1 0 47.89)" gradientUnits="userSpaceOnUse"><stop offset="0" stop-color="#4caf50"/><stop offset=".133" stop-color="#4aae50"/><stop offset=".239" stop-color="#43a94e"/><stop offset=".373" stop-color="#38a14c"/><stop offset=".482" stop-color="#279648"/><stop offset=".621" stop-color="#184"/><stop offset="1" stop-color="#088242"/></linearGradient><path fill="url(#b)" d="M39.609 11h-8.338c-.317 0-.417.427-.134.568l.394.197a3 3 0 0 1 1.444 3.797L31.6 19l-3.201 8.002a.5.5 0 0 1-.906.05l-6.044-11.333a3 3 0 0 1 1.305-4.095c.31-.155.2-.623-.147-.623H9.496c-.42 0-.573.553-.213.769a13.997 13.997 0 0 1 5.524 6.172l8.926 19.475a1 1 0 0 0 .909.583h.703a1 1 0 0 0 .917-.601l9.405-21.621a9 9 0 0 1 4.094-4.158c.309-.155.193-.62-.152-.62z"/></svg>