<svg xmlns="http://www.w3.org/2000/svg"  viewBox="0 0 48 48" width="50px" height="50px"><polygon fill="#4979b3" points="23.838,44.946 32.566,36.828 42.917,32.667 40.278,23.229 32.16,20.185 30.637,13.386 34.088,10.849 32.261,6.688 23.94,4.354 16.328,6.282 13.994,10.95 17.851,14.502 15.72,20.388 8.514,23.331 4.76,32.058 16.633,38.249"/><polygon fill="#283d5b" points="30.188,6.472 30.786,8.147 26.359,10.3 26.599,20.469 34.255,23.818 35.691,29.321 28.872,32.192 24.206,38.054 19.78,32.073 12.961,29.321 14.038,23.938 21.096,21.426 21.574,10.18 17.507,8.386 18.225,5.635 23.847,4.438"/><path fill="#d6e5e5" d="M27,5.434l-2.914,4.371l-3.297-4.601l2.914-0.844C23.702,4.361,25.389,5.051,27,5.434z"/><path d="M23.901,45.576c0,0-0.001,0-0.002,0c-0.421-0.002-3.129-2.656-3.155-2.683c-0.399-0.407-0.796-0.833-1.196-1.263 c-1.324-1.421-2.692-2.891-4.296-3.814c-1.604-0.925-3.356-1.712-5.05-2.474C9.13,34.86,8.061,34.379,7.02,33.862 c-0.281-0.139-0.829-0.361-1.338-0.568c-1.396-0.567-1.479-0.601-1.479-0.979c0-0.486,0.23-0.968,0.434-1.394 c0.088-0.186,0.175-0.364,0.23-0.527l0.19-0.571c0.527-1.588,1.072-3.23,1.902-4.723c0.123-0.221,0.331-0.635,0.522-1.016 c0.523-1.043,0.523-1.043,0.745-1.116c0.567-0.181,1.082-0.404,1.626-0.64c0.242-0.104,0.487-0.21,0.74-0.314 c0.477-0.196,0.967-0.348,1.44-0.494c0.615-0.19,1.195-0.37,1.74-0.636c0.773-0.378,1.26-0.591,1.58-0.693 c0.053-0.16,0.12-0.39,0.162-0.535c0.054-0.187,0.104-0.354,0.137-0.448c0.101-0.286,0.208-0.568,0.315-0.85 c0.222-0.584,0.432-1.135,0.59-1.718c0.088-0.323,0.353-0.965,0.639-1.651c0.027-0.066,0.053-0.127,0.077-0.183 c-0.984-0.884-3.82-3.521-3.637-4.132c0.285-0.956,1.898-4.028,2.254-4.383c0.042-0.041,7.634-2.439,8.35-2.099 c0.617,0.296,6.065,1.86,6.859,1.968c0.036,0.002,0.189,0.002,0.357,0.002c0.753,0.003,0.815,0.003,0.975,0.163 c0.458,0.458,2.031,4.205,2.083,4.522c0.078,0.484-0.347,0.911-2.393,2.404c-0.305,0.222-0.547,0.396-0.634,0.475 c-0.05,0.045-0.103,0.077-0.156,0.099c-0.016,0.231,0.032,0.478,0.088,0.767c0.025,0.129,0.05,0.261,0.071,0.396 c0.194,1.264,0.467,2.5,0.708,3.543c0.057,0.248,0.076,0.498,0.093,0.747c0.016,0.234,0.03,0.445,0.083,0.634 c1.183,0.145,2.467,0.884,3.516,1.487c0.223,0.128,0.437,0.251,0.639,0.363c0.741,0.408,1.526,0.739,2.4,1.013 c0.126,0.032,0.688,0.049,1.129,0.044c0.178,0.001,0.388,0.119,0.467,0.306c0.122,0.289,0.269,0.603,0.316,0.671 c0.247,0.343,0.558,1.348,1.011,2.969l0.254,0.878c0.169,0.57,0.337,1.139,0.487,1.715c0.103,0.396,0.297,0.915,0.484,1.417 c0.445,1.193,0.59,1.624,0.415,1.962c-0.309,0.594-4.732,2.866-5.991,3.078c-0.881,0.148-4.057,1.148-4.338,1.28 c-0.59,0.452-2.818,2.577-3.297,3.083c-0.675,0.712-3.585,3.439-4.396,4.035c-0.383,0.282-0.57,0.498-0.787,0.749 c-0.126,0.146-0.257,0.296-0.426,0.465C24.161,45.523,24.034,45.576,23.901,45.576z M5.251,32.035 c0.225,0.097,0.546,0.227,0.806,0.333c0.536,0.217,1.112,0.452,1.407,0.599c1.029,0.511,2.087,0.986,3.147,1.463 c1.716,0.772,3.491,1.57,5.139,2.52c1.734,0.999,3.155,2.524,4.529,3.999c0.395,0.424,0.785,0.843,1.178,1.244 c0.442,0.451,1.769,1.641,2.401,2.193c0.022-0.025,0.043-0.05,0.065-0.075c0.235-0.272,0.478-0.553,0.952-0.901 c0.716-0.526,3.549-3.166,4.263-3.918c0.507-0.535,2.784-2.706,3.483-3.231c0.32-0.24,4.027-1.313,4.712-1.429 c1.174-0.197,4.456-1.989,5.207-2.538c-0.064-0.263-0.255-0.775-0.401-1.167c-0.196-0.526-0.399-1.07-0.515-1.515 c-0.147-0.565-0.312-1.124-0.479-1.683l-0.258-0.892c-0.44-1.574-0.729-2.467-0.86-2.655c-0.083-0.115-0.198-0.352-0.292-0.56 c-0.402-0.003-0.888-0.022-1.107-0.091c-0.938-0.293-1.784-0.65-2.584-1.091c-0.207-0.114-0.427-0.241-0.656-0.372 c-1.04-0.599-2.334-1.344-3.346-1.378c-0.098-0.003-0.192-0.035-0.272-0.091c-0.065-0.046-0.168-0.143-0.206-0.214 c-0.218-0.422-0.248-0.855-0.273-1.237c-0.013-0.196-0.024-0.395-0.069-0.59c-0.245-1.061-0.522-2.319-0.721-3.615 c-0.019-0.122-0.042-0.242-0.065-0.359c-0.093-0.482-0.19-0.981-0.004-1.541c0.097-0.297,0.372-0.344,0.503-0.355 c0.136-0.106,0.347-0.261,0.596-0.443c0.507-0.37,1.638-1.194,1.954-1.555c-0.234-0.627-1.28-3.052-1.677-3.724 c-0.307-0.004-0.781-0.005-0.848-0.014c-0.864-0.118-6.031-1.599-7.052-2.013c-0.856,0.075-6.538,1.589-7.347,1.907 c-0.307,0.435-1.53,2.73-1.899,3.714c0.553,0.681,3.031,3.114,3.467,3.485c0.004,0.002,0.008,0.005,0.013,0.008 c0.348,0.233,0.247,0.476-0.023,1.123c-0.194,0.464-0.519,1.241-0.597,1.528c-0.172,0.629-0.4,1.229-0.62,1.81 c-0.104,0.275-0.209,0.55-0.308,0.829c-0.029,0.082-0.072,0.23-0.119,0.393c-0.25,0.859-0.326,1.119-0.684,1.188 c-0.026,0.005-0.052,0.007-0.079,0.008c-0.263,0.091-1.117,0.464-1.5,0.651c-0.615,0.3-1.26,0.499-1.883,0.692 c-0.457,0.142-0.914,0.282-1.356,0.464c-0.248,0.102-0.486,0.205-0.723,0.307c-0.489,0.211-0.993,0.429-1.534,0.613 c-0.08,0.152-0.206,0.405-0.34,0.672c-0.198,0.396-0.414,0.824-0.542,1.054c-0.784,1.411-1.314,3.008-1.827,4.552l-0.191,0.573 c-0.066,0.198-0.168,0.416-0.276,0.641C5.432,31.577,5.315,31.821,5.251,32.035z M42.562,32.423L42.562,32.423L42.562,32.423z M31.381,13.558c0,0.001,0,0.002-0.001,0.004C31.38,13.56,31.381,13.559,31.381,13.558z M30.815,12.987 C30.814,12.988,30.814,12.988,30.815,12.987C30.814,12.988,30.814,12.988,30.815,12.987z"/><polygon fill="#d6e5e5" points="23.94,31.043 31.043,27.593 24.244,23.534 18.054,26.071 17.039,27.492"/><path d="M24.051,38.82c-0.156,0-0.308-0.073-0.404-0.206l-0.483-0.638c-0.185-0.233-0.369-0.466-0.534-0.715 c-0.335-0.505-0.722-1.001-1.096-1.48c-0.249-0.319-0.498-0.638-0.736-0.964c-0.167-0.229-0.322-0.468-0.476-0.708 c-0.23-0.358-0.448-0.696-0.708-0.995c-0.31-0.354-0.77-0.57-1.256-0.798l-0.299-0.142c-0.819-0.399-1.623-0.709-2.474-1.037 c-0.384-0.148-0.771-0.297-1.163-0.456c-0.146-0.06-0.335-0.104-0.535-0.153c-0.618-0.153-1.387-0.343-1.73-0.968 c-0.149-0.273-0.068-0.589,0.076-1.082c0.035-0.121,0.071-0.231,0.08-0.3c0.15-1.389,1.255-3.92,1.302-4.027 c0.054-0.122,0.153-0.218,0.277-0.266c1.04-0.402,2.056-0.952,3.037-1.482c0.622-0.336,1.243-0.672,1.876-0.977 c0.345-0.167,0.739-0.295,1.119-0.419c0.444-0.146,0.902-0.295,1.241-0.494c0.008-0.076,0.013-0.169,0.015-0.209 c0.042-0.492,0.018-0.898-0.006-1.328c-0.011-0.188-0.021-0.375-0.027-0.563c-0.033-1.062-0.05-2.126-0.066-3.191 c-0.012-0.776-0.024-1.553-0.043-2.329c-0.005-0.209,0.016-0.47,0.039-0.748c0.038-0.458,0.085-1.03-0.027-1.311 c-0.071-0.179-0.271-0.285-0.594-0.438l-0.099-0.047c-0.576-0.279-1.159-0.524-1.746-0.772L18.2,9.412 c-0.815-0.293-1.187-0.426-1.233-0.818c-0.087-0.729,0.328-1.641,0.662-2.373l0.131-0.291c0.111-0.253,0.405-0.369,0.659-0.257 c0.253,0.111,0.368,0.406,0.257,0.659l-0.137,0.304c-0.215,0.472-0.523,1.149-0.577,1.618c0.189,0.079,0.463,0.177,0.575,0.217 c0.095,0.034,0.166,0.06,0.194,0.072l0.265,0.112c0.604,0.254,1.202,0.507,1.793,0.793l0.093,0.044 c0.389,0.185,0.874,0.416,1.094,0.973c0.198,0.499,0.143,1.17,0.094,1.762c-0.02,0.239-0.04,0.462-0.035,0.642 c0.019,0.778,0.031,1.558,0.043,2.336c0.016,1.059,0.033,2.118,0.066,3.175c0.005,0.179,0.016,0.358,0.026,0.538 c0.026,0.447,0.052,0.909,0.01,1.382c-0.024,0.454-0.061,0.773-0.319,0.953c-0.466,0.324-1.057,0.518-1.629,0.704 c-0.365,0.12-0.71,0.232-0.995,0.37c-0.62,0.299-1.227,0.627-1.834,0.956c-0.949,0.513-1.928,1.042-2.955,1.458 c-0.254,0.603-1.031,2.509-1.144,3.546c-0.011,0.104-0.058,0.281-0.114,0.473c-0.031,0.105-0.083,0.281-0.104,0.392 c0.191,0.197,0.676,0.317,1.04,0.407c0.251,0.062,0.486,0.123,0.67,0.197c0.386,0.157,0.768,0.304,1.146,0.449 c0.833,0.321,1.695,0.653,2.553,1.071l0.286,0.135c0.533,0.25,1.137,0.533,1.585,1.046c0.309,0.354,0.557,0.739,0.796,1.111 c0.143,0.223,0.286,0.446,0.442,0.659c0.232,0.317,0.474,0.628,0.717,0.939c0.385,0.494,0.784,1.005,1.14,1.542 c0.15,0.226,0.317,0.436,0.484,0.646l0.211,0.27c0.209-0.225,0.41-0.552,0.582-0.833c0.103-0.169,0.201-0.328,0.294-0.46 l0.48-0.686c0.559-0.802,1.136-1.631,1.762-2.399l0.209-0.266c0.271-0.349,0.578-0.745,0.947-1.013 c0.507-0.368,1.08-0.543,1.635-0.712c0.185-0.057,0.37-0.113,0.548-0.176c0.575-0.205,1.138-0.436,1.701-0.666 c0.427-0.175,0.854-0.35,1.286-0.514c0.082-0.031,0.209-0.072,0.362-0.121c0.248-0.079,0.938-0.298,1.215-0.47 c-0.009-0.096-0.029-0.219-0.037-0.27c-0.001-0.006-0.016-0.108-0.017-0.114c-0.092-0.781-0.324-1.532-0.516-2.1 c-0.227-0.672-0.421-1.351-0.616-2.031l-0.158-0.55c-0.038-0.004-0.375-0.15-0.502-0.205c-0.088-0.039-0.164-0.072-0.216-0.099 c-0.57-0.29-1.188-0.541-1.785-0.784c-0.485-0.197-0.971-0.395-1.444-0.616c-0.662-0.309-1.377-0.561-2.069-0.805l-0.285-0.101 c-0.076-0.027-0.153-0.049-0.228-0.071c-0.385-0.113-0.911-0.267-1.114-0.907c-0.232-0.731-0.177-1.476-0.124-2.197 c0.021-0.282,0.042-0.562,0.043-0.835c0.002-1.028-0.102-2.079-0.203-3.094c-0.034-0.34-0.067-0.68-0.098-1.021l-0.05-0.52 c-0.045-0.45-0.09-0.903-0.104-1.352c-0.001-0.034-0.007-0.078-0.013-0.127c-0.028-0.235-0.063-0.528,0.056-0.768 c0.493-0.99,1.783-1.506,2.82-1.921c0.252-0.101,0.486-0.194,0.679-0.285l0.372-0.18c0.185-0.091,0.37-0.182,0.557-0.266 c0.012-0.004,0.023-0.009,0.034-0.013c-0.039-0.287-0.188-0.654-0.304-0.939c-0.05-0.124-0.098-0.242-0.138-0.351 c-0.095-0.259,0.039-0.546,0.298-0.641c0.26-0.094,0.546,0.038,0.641,0.298c0.036,0.098,0.079,0.205,0.125,0.317 c0.209,0.515,0.469,1.156,0.36,1.732c-0.056,0.31-0.32,0.406-0.6,0.507c-0.185,0.082-0.359,0.167-0.532,0.253l-0.388,0.188 c-0.208,0.098-0.461,0.2-0.733,0.309c-0.833,0.333-1.973,0.79-2.296,1.438c0.015-0.033,0.032,0.129,0.041,0.204 c0.01,0.083,0.018,0.159,0.02,0.214c0.013,0.427,0.056,0.856,0.099,1.284l0.051,0.53c0.03,0.337,0.063,0.674,0.097,1.011 c0.104,1.04,0.21,2.115,0.208,3.194c0,0.296-0.023,0.601-0.045,0.908c-0.049,0.654-0.094,1.272,0.08,1.82 c0.036,0.114,0.098,0.149,0.442,0.25c0.093,0.027,0.187,0.055,0.28,0.088l0.284,0.1c0.714,0.251,1.453,0.512,2.16,0.841 c0.458,0.214,0.928,0.405,1.398,0.596c0.616,0.251,1.254,0.51,1.862,0.819c0.039,0.02,0.095,0.044,0.16,0.072 c0.513,0.223,0.948,0.439,1.065,0.844l0.159,0.554c0.19,0.665,0.38,1.328,0.602,1.985c0.208,0.614,0.459,1.43,0.562,2.303 c0.08,0.503,0.116,0.851-0.097,1.092c-0.312,0.353-0.979,0.586-1.753,0.833c-0.131,0.042-0.241,0.076-0.311,0.103 c-0.424,0.161-0.843,0.333-1.262,0.505c-0.578,0.237-1.155,0.473-1.745,0.683c-0.193,0.068-0.392,0.129-0.591,0.19 c-0.498,0.152-0.968,0.295-1.339,0.565c-0.253,0.184-0.514,0.52-0.745,0.817l-0.225,0.285c-0.602,0.738-1.168,1.552-1.716,2.339 l-0.483,0.691c-0.082,0.117-0.167,0.257-0.259,0.405c-0.328,0.536-0.735,1.202-1.343,1.465 C24.186,38.807,24.118,38.82,24.051,38.82z"/><path d="M24.026,31.715c-0.546,0-1.021-0.3-1.403-0.542c-0.114-0.071-0.224-0.142-0.331-0.2c-1.635-0.883-5.323-2.788-5.323-2.788 c-0.232-0.12-0.333-0.399-0.23-0.64l0.09-0.227c0.114-0.296,0.256-0.665,0.485-0.938c0.595-0.709,1.56-1.07,2.41-1.389 c0.21-0.079,0.414-0.155,0.6-0.233c0.339-0.142,1.228-0.583,1.741-0.837l0.349-0.172c0.125-0.06,0.238-0.119,0.344-0.173 c0.632-0.325,1.177-0.606,2.155-0.174c0.203,0.09,0.401,0.194,0.593,0.304c0.289,0.166,3.645,1.967,4.294,2.288 c0.077,0.038,0.171,0.063,0.265,0.091c0.214,0.064,0.458,0.138,0.657,0.298c0.21,0.17,0.343,0.378,0.459,0.562l0.092,0.141 c0.087,0.107,0.206,0.253,0.195,0.467c-0.025,0.66-0.811,0.988-1.188,1.146c-0.483,0.203-1.751,0.85-2.977,1.477 c-2.9,1.481-3.06,1.538-3.269,1.54C24.032,31.715,24.029,31.715,24.026,31.715z M17.829,27.504 c1.002,0.519,3.628,1.881,4.938,2.589c0.126,0.068,0.256,0.15,0.39,0.234c0.28,0.177,0.569,0.36,0.814,0.384 c0.341-0.132,1.742-0.847,2.877-1.427c1.299-0.664,2.526-1.291,3.024-1.5c0.262-0.109,0.413-0.19,0.501-0.248l-0.036-0.055 c-0.083-0.131-0.161-0.254-0.244-0.32c-0.047-0.038-0.209-0.086-0.316-0.119c-0.15-0.045-0.298-0.092-0.421-0.153 c-0.664-0.328-4.015-2.126-4.348-2.317c-0.163-0.093-0.329-0.181-0.501-0.257c-0.541-0.239-0.715-0.15-1.292,0.149 c-0.113,0.058-0.234,0.121-0.367,0.185l-0.339,0.167c-0.531,0.263-1.45,0.718-1.8,0.864c-0.197,0.083-0.412,0.163-0.635,0.247 c-0.735,0.275-1.568,0.587-1.995,1.096C17.987,27.134,17.902,27.321,17.829,27.504z"/><path d="M23.886,10.493c-0.571,0-0.85-0.64-1.037-1.071c-0.043-0.098-0.078-0.187-0.111-0.239c-0.142-0.201-0.3-0.393-0.458-0.585 c-0.197-0.24-0.393-0.48-0.567-0.737c-0.468-0.693-0.799-1.424-1.125-2.174c-0.11-0.253,0.006-0.548,0.259-0.658 c0.254-0.111,0.548,0.006,0.658,0.259c0.306,0.706,0.616,1.39,1.036,2.012c0.156,0.231,0.334,0.447,0.511,0.663 c0.174,0.211,0.347,0.423,0.505,0.646c0.076,0.107,0.138,0.25,0.209,0.415c0.036,0.083,0.095,0.219,0.154,0.332 C24.46,8.703,25.596,6.652,26,5.922l0.277-0.497c0.135-0.241,0.439-0.328,0.681-0.19c0.241,0.136,0.326,0.44,0.19,0.681 l-0.273,0.49c-1.882,3.399-2.396,4.024-2.898,4.081C23.946,10.491,23.916,10.493,23.886,10.493z M23.744,9.532L23.744,9.532 L23.744,9.532z"/></svg>