<svg xmlns="http://www.w3.org/2000/svg"  viewBox="0 0 48 48" width="50px" height="50px"><linearGradient id="NYEPEBbGaZ5fYtJGT6oHBa" x1="24" x2="24" y1="47.766" y2="-19.02" gradientUnits="userSpaceOnUse"><stop offset="0" stop-color="#e8e8e8"/><stop offset=".544" stop-color="#f7f7f7"/><stop offset="1" stop-color="#fcfcfc"/></linearGradient><path fill="url(#NYEPEBbGaZ5fYtJGT6oHBa)" d="M44.676,11.397l-0.074-0.809l-0.735-0.515c-3.088-2.132-8.971-4.632-19.485-4.632 c-3.971,0-7.574,0.368-10.735,1.103C12.544,5.588,11.073,5,9.529,5c-3.456,0-6.324,2.794-6.324,6.324 c0,1.103,0.294,2.132,0.809,3.088c0.147,5.441,1.838,11.103,5.147,16.838c5.441,9.191,11.25,11.912,14.044,13.162 c0.221,0.074,0.368,0.147,0.515,0.221L24.456,45l0.735-0.368c0.147-0.074,0.368-0.147,0.515-0.221 c2.868-1.25,8.603-3.971,13.897-13.162C45.411,21.176,44.897,13.824,44.676,11.397L44.676,11.397z"/><linearGradient id="NYEPEBbGaZ5fYtJGT6oHBb" x1="25.901" x2="29.012" y1="43.232" y2="37.531" gradientUnits="userSpaceOnUse"><stop offset="0" stop-color="#01164b"/><stop offset="1" stop-color="#001b50"/></linearGradient><path fill="url(#NYEPEBbGaZ5fYtJGT6oHBb)" d="M30.26,37.43c0.28,0.75,0.43,1.87-0.54,2.68c-0.08,0.06-0.16,0.13-0.26,0.19 c-0.07,0.05-0.14,0.09-0.2,0.14c-1.17,0.82-2.23,1.4-3.12,1.84c-0.66,0.33-1.23,0.6-1.68,0.81h-0.01v-1.4 c2.06-1.11,3.98-2.52,5.78-4.33C30.24,37.38,30.25,37.41,30.26,37.43z"/><linearGradient id="NYEPEBbGaZ5fYtJGT6oHBc" x1="37.946" x2="38.671" y1="26.529" y2="25.2" gradientUnits="userSpaceOnUse"><stop offset="0" stop-color="#01164b"/><stop offset="1" stop-color="#001b50"/></linearGradient><path fill="url(#NYEPEBbGaZ5fYtJGT6oHBc)" d="M37.91,24.59c0.54,0.69,0.9,1.47,0.96,2.25c-0.37-0.37-0.94-0.49-1.62-0.54 C37.49,25.72,37.71,25.15,37.91,24.59z"/><linearGradient id="NYEPEBbGaZ5fYtJGT6oHBd" x1="31.847" x2="36.939" y1="38.287" y2="28.956" gradientUnits="userSpaceOnUse"><stop offset="0" stop-color="#01164b"/><stop offset="1" stop-color="#001b50"/></linearGradient><path fill="url(#NYEPEBbGaZ5fYtJGT6oHBd)" d="M38.06,30.37c-0.15,0.25-0.29,0.5-0.44,0.74s-0.3,0.48-0.44,0.71 c-0.14,0.22-0.28,0.43-0.41,0.64c-0.16,0.24-0.31,0.47-0.47,0.7c-0.15,0.21-0.29,0.42-0.44,0.63c-0.28,0.39-0.55,0.76-0.83,1.11 c-0.17,0.22-0.34,0.43-0.52,0.64c-0.28,0.34-0.56,0.66-0.83,0.97c-0.22,0.24-0.44,0.48-0.67,0.71c-0.16,0.17-0.33,0.34-0.49,0.5 c-0.22,0.22-0.44,0.43-0.66,0.62c-0.24,0.23-0.47,0.43-0.71,0.63c0.1-0.67-0.04-1.4-0.39-2.17c1.91-2.04,3.63-4.54,5.17-7.61 c0.24-0.47,0.46-0.94,0.67-1.4h0.06C38.13,27.79,39.01,28.82,38.06,30.37z"/><linearGradient id="NYEPEBbGaZ5fYtJGT6oHBe" x1="38.106" x2="43.415" y1="22.995" y2="13.268" gradientUnits="userSpaceOnUse"><stop offset="0" stop-color="#01164b"/><stop offset="1" stop-color="#001b50"/></linearGradient><path fill="url(#NYEPEBbGaZ5fYtJGT6oHBe)" d="M41.49,22.83c-0.08,0.26-0.18,0.54-0.28,0.81c-0.21,0.58-0.45,1.17-0.71,1.77 c-0.29-0.84-1.02-1.72-2.05-2.46c1.28-4.23,1.43-7.62,1.23-9.64l3.18-1.77c0.02,0.17,0.03,0.36,0.04,0.56 C43.04,14.17,43.14,17.86,41.49,22.83z"/><radialGradient id="NYEPEBbGaZ5fYtJGT6oHBf" cx="11.065" cy="16.884" r="30.387" gradientUnits="userSpaceOnUse"><stop offset="0" stop-color="#019eef"/><stop offset=".154" stop-color="#0194e5"/><stop offset=".417" stop-color="#0278cb"/><stop offset=".755" stop-color="#034ca1"/><stop offset="1" stop-color="#04287e"/></radialGradient><path fill="url(#NYEPEBbGaZ5fYtJGT6oHBf)" d="M27.911,21.912L27.911,21.912l-1.25,1.103l0.956,0.294l0.956-1.03l-0.515-0.22L27.911,21.912 z M29.603,22.647L29.161,22.5l-1.029,1.176l0.735,0.221C29.014,23.309,29.603,22.647,29.603,22.647z M23.867,18.971 c0.441,0.515,0.882,1.25,0.882,1.25c0.735-0.735,2.279-1.029,4.265-0.956C26.22,18.676,23.867,18.971,23.867,18.971z M30.779,19.559c0,0-0.147,0.294-0.221,0.368c-0.074,0.074-0.588,0.147-0.882,0.221c-0.294,0.147-0.809,0.368-0.956,0.515 c-0.074,0.074-0.074,0.294-0.074,0.368c0,0,0.046,0.021,0.1,0.041c-0.013-0.014-0.026-0.027-0.026-0.041V20.81 c0,0,0.956-0.735,2.426-0.735l0.221-0.441L30.779,19.559z M21.147,17.868c0,0,0.809,0,1.912,0.221 c-0.735-0.515-1.912-0.809-1.912-0.809V17.868z M23.867,20.441l0.221,0.074l0.441-0.074c-0.809-1.029-1.765-1.103-1.765-1.103 C23.206,19.632,23.867,20.441,23.867,20.441z M27.103,16.765c-0.074-0.147-0.221-0.147-1.103-0.294 c-0.809-0.074-1.544-0.147-1.691-0.147s-0.221,0.074-0.221,0.074s-0.441,0.294-0.809,0.515c-0.368,0.221-0.441,0.294-0.515,0.441 c-0.074,0.074,0.147,0.368,0.147,0.368l0.588,0.735c0.074,0,0.294,0.147,0.294,0.147s1.176-0.073,1.912-0.147h1.912 c0.074,0,0-0.294-0.147-0.662C27.323,17.5,27.103,16.765,27.103,16.765z M28.834,21.132l0.033-0.029 c-0.032,0-0.079-0.016-0.121-0.032C28.769,21.094,28.799,21.115,28.834,21.132z M19.603,16.103c0,0,0.515,0.294,0.588,0.294 s1.103,0.368,1.544,0.515c0.368,0.147,0.588,0,0.662,0c0.074,0,1.324-0.735,1.324-0.735c-1.103-0.441-2.132-0.735-2.132-0.735 C21.514,15.441,19.603,16.103,19.603,16.103z M20.632,17.647l0.221,0.074c0,0,0.147,0,0.147-0.147V17.28l-0.221-0.147l-0.294-0.074 c0.074,0.074,0.074,0.147,0.074,0.147h0.073c0-0.074,0.074-0.074,0.074,0c0,0,0.147,0.074,0.074,0.294 C20.853,17.573,20.706,17.647,20.632,17.647z M27.691,17.573l0.441,0.809l1.471,0.515c-0.588-1.25-1.544-1.471-1.544-1.471 L27.691,17.573z M17.911,18.235c0,0-0.221-0.294-0.441-0.147c-0.164,0.109-0.326,0.38-0.369,0.662l-0.439,0.146 c-0.147-0.294-0.809-1.103-0.809-1.103l-0.147,0.588c0.074,0.074,0.441,0.662,0.515,0.809L16,19.412c0,0-0.074,0.147-0.074,0.221 s-0.073,0.147-0.073,0.147l-0.294,0.147h-0.074l-1.029-0.809v0.588h0.074c0.074,0.147,0.221,0.441,0.588,0.588 c0.294,0.147,0.662,0.147,0.809,0.073c0.147,0.074,0.221,0.074,0.294,0.147c0.294,0.147,0.368,0.073,0.368,0.073l0.441-0.147h0.074 l0.073-0.074l0.147-0.294c0,0,0.735,0.074,1.029,0.074c0.294-0.441,1.25-1.103,1.912-1.176c0.662,0,1.765,0.147,2.647,1.029 c0.809,0.882,0.588,2.059,0.588,2.059l1.618,0.515l-0.735-0.515c-0.588-1.471-1.985-2.794-1.985-2.794S22.03,19.19,21.81,19.19 c-0.221-0.074-0.368-0.221-0.368-0.221s-0.074-0.074-0.221-0.294l-0.147-0.294c0,0-0.147-0.147-0.368-0.294 c-0.221-0.147-1.029-0.221-1.471-0.294c-0.441-0.073-0.441,0-0.441,0c1.25,0.294,1.618,0.368,1.691,0.441 c0,0,0.074,0.147,0.147,0.221c-1.029-0.221-1.985-0.074-2.206,0c0.147,0.221,0.147,0.515,0,0.735 c-0.147,0.147-0.588,0.368-0.588,0.368h-0.147l-0.368-0.073c-0.332-0.066-0.245-0.607-0.225-0.713 c-0.012,0.091-0.013,0.184,0.004,0.272c0.073,0.368,0.147,0.368,0.368,0.368c-0.368-0.147-0.294-0.735,0-1.103 C17.691,18.015,17.911,18.235,17.911,18.235z M15.264,19.338l0.147-0.073v-0.589l-0.147,0.074V19.338z M14.529,15.735 c-0.368,0.441-0.515,1.029-0.515,1.029s-0.074,1.029-0.074,1.176c-0.074,0.147,0.147,0.221,0.147,0.221l0,0l-0.074,0.809h0.441 l0.074-0.515v0.294h0.074v-0.441h-0.074v-0.294l0.662,0.368l0.074,0.147l0.147,0.147h0.147l0.073-0.074v-0.073 c-0.441,0-0.441-0.221-0.441-0.221s0.074-0.515,0.147-0.662c0.073-0.147,0.368-0.074,0.368-0.074L15.632,17.5h-0.147 c-0.147-0.074-0.588-0.368-0.735-0.441v-0.074l0.074-0.074v-0.294h0.073c0-0.073,0.074-0.073,0.074-0.147 c0.147,0,1.25-0.221,1.25-0.221l-0.045-0.01c0.171-0.019,0.486-0.064,0.486-0.064l-1.397-0.368l-0.074,0.221v-0.074 C14.897,15.882,14.676,15.809,14.529,15.735z M32.544,23.382l-0.588,0.809v0.074h0.809C32.911,23.75,32.544,23.382,32.544,23.382z M31.735,26.029l-0.294-0.882h-0.074l-0.441,0.809L31,26.029C31.367,26.176,31.735,26.029,31.735,26.029z M28.353,21.838 l1.618,0.515c0.368-0.294,0.882-0.368,0.882-0.368c-0.294-0.147-1.544-0.662-1.912-0.809c0,0-0.053-0.018-0.106-0.044l-0.629,0.559 L28.353,21.838z M31.147,24.338c-0.368,0.735-0.294,1.25-0.294,1.25l0.368-0.809v-0.147C31.294,24.632,31.22,24.485,31.147,24.338z M31.808,24.853l0.221,0.956c0,0,0.221-0.221,0.441-0.515c0.221-0.294,0.294-0.588,0.294-0.588l-0.882,0.074L31.808,24.853z M31.367,23.971l0.147,0.221l0.074-0.074l0.588-0.735V23.31C31.882,23.309,31.367,23.971,31.367,23.971z M20.338,17.059 l0.003,0.001c-0.026-0.067-0.077-0.075-0.077-0.075c-0.041,0-0.099,0.045-0.147,0.098l0.073-0.025L20.338,17.059L20.338,17.059z M15.706,15.809c1.176,0.147,1.397,0.368,1.397,0.368s0.441-0.074,0.662-0.074c-0.368-0.294-1.985-0.809-1.985-0.809 S15.706,15.515,15.706,15.809z M20.117,17.083l-0.147,0.049l-0.074,0.515h0.074l0.147-0.074c-0.073-0.147-0.073-0.221-0.073-0.368 C20.044,17.173,20.079,17.126,20.117,17.083z M13.132,17.426c0,0.221,0.147,0.221,0.147,0.221l-0.074,0.809h0.515v-0.074h-0.074 v-0.073h-0.073l0.073-0.147l0.074-0.368l-0.074-0.074v-0.147L13.72,17.5l0.074-0.882l-0.333-0.2 c-0.092,0.07-0.182,0.143-0.278,0.208C13.161,16.919,13.132,17.334,13.132,17.426z M15.117,19.265h0.074V18.75L15.117,19.265z M14.97,19.191h0.074v-0.515L14.97,19.191z M42.861,11.544L42.861,11.544c-12.706-3.676-26.948-1.685-26.877-0.666 C15.995,11.025,16,11.173,16,11.323c0,1.61-0.599,3.077-1.581,4.202c0.217,0.07,0.495,0.14,0.846,0.21l0.147-0.368 c0,0,0.147,0,0.221,0.074c0-0.368,0.221-0.368,0.221-0.368s0-0.073,0.074-0.073c0.368,0.073,1.397,0.588,1.838,0.809 c0.441,0.221,0.441,0.294,0.441,0.294s1.029,0,1.324-0.073c0.294,0,0.809-0.221,1.544-0.441c0.735-0.221,0.882-0.294,1.029-0.294 s1.471,0.073,2.647,0.221c1.176,0.147,2.279,0.588,2.5,0.735l0.368,0.073l0.074-0.221l-0.588-0.221c0,0,0.074-0.368,0.074-0.441 s0.074-0.147,0.147-0.147c0.074,0,0.735,0.147,0.956,0.221c0.221,0.073,0.956,0.588,1.029,0.588s0.073,0.074,0.073,0.074 c0,0.147-0.147,0.441-0.147,0.441s0.221,0.074,0.294,0.147c0.073,0.073,0.294,0.221,0.515,0.441 c0.221,0.147,0.147,0.368,0.147,0.368l0.515,0.515v0.221l1.25,1.25v0.074L31.367,20c0,0,0.809-0.074,1.397,0.221 c0.588,0.294,0.662,0.441,0.662,0.588c-0.147,0.074-0.368,0.147-0.368,0.147c-0.441,0.147-1.544,0.882-1.544,0.882v0.074 l0.588,0.147c0.662-0.588,1.838-0.809,2.721-0.662c1.399,0.273,2.649,0.846,3.628,1.551C39.479,23.687,43.076,13.758,42.861,11.544 z M36.661,27.794c-1.544,0-3.088-0.515-4.191-1.838v0.074c-0.662,0.882-1.397,0.882-1.691,0.882s-1.25-0.441-1.618-0.882 s-0.368-1.25-0.368-1.25l-1.471-0.515l-1.838-1.029l-0.294-0.074c-0.588,0.294-1.324,0.074-1.985-0.441 c-0.074,0.294-0.441,1.029-0.882,1.397C21.882,24.485,21,25,20.338,25s-2.132-0.735-2.574-1.765s0-2.132,0-2.132l-0.735-0.147 l-0.294-0.368c0,0-0.882,0.735-1.838,0.441s-1.765-1.103-1.985-1.838c-0.147-0.735,0.074-1.397,0.147-1.471 c-0.147-0.515-0.147-0.809-0.147-0.809h-0.073v-0.076c-0.95,0.559-2.053,0.885-3.235,0.885c-1.333,0-2.569-0.408-3.594-1.105 c0.153,1.603,0.587,3.488,1.167,5.59c0.809,2.941,3.456,3.897,7.427,4.559c7.332,1.171,14.405,6.058,16.16,10.034 c0.339,0.769,2.943-1.387,5.296-5.431C37.014,29.823,38.132,27.794,36.661,27.794z M32.323,22.279 c0.073,0.073,0.147,0.073,0.221,0.147c0.441,0.294,0.662,0.441,0.735,1.103c0.073,0.515-0.074,1.25-0.441,1.912 c1.366,0.926,3.086,0.753,4.412,0.853c0.673,0.051,0.81-0.338,0.81-0.338s0.384-0.669-0.153-1.363 C36.508,22.787,33.917,21.536,32.323,22.279z M12.25,28.971c-0.956,0-2.059,0.368-1.397,1.397 c5.441,9.338,11.176,11.544,13.603,12.721c1.103-0.515,1.868-1.323,4-2.794c1.25-0.809,2.103-2.059,1.809-2.868 C28.72,33.603,20.264,29.265,12.25,28.971z M14.897,19.118v-0.515l-0.074,0.515H14.897z M20.264,21.25l0.588,0.441L21,21.618 l0.662-1.029C20.853,20.515,20.264,21.25,20.264,21.25z M21.294,23.897l-0.441-1.103h-0.147l-0.735,0.882 C20.485,24.118,21.294,23.897,21.294,23.897z M20.341,17.06c0.017,0.043,0.025,0.104-0.003,0.219c0,0.294-0.221,0.294-0.221,0.294 s0.074,0,0.221,0.074c0.147,0,0.221-0.147,0.221-0.294C20.558,17.138,20.352,17.064,20.341,17.06z M19.97,21.691 c-0.515,0.956-0.147,1.618-0.147,1.618l0.662-0.956v-0.147L19.97,21.691z M14.603,18.897h0.073v-0.441L14.603,18.897z M14.75,18.971h0.073v-0.442l-0.073-0.073V18.971z M22.617,22.426L21.441,22.5l-0.073,0.073l0.368,1.177 C22.47,23.235,22.617,22.426,22.617,22.426z M22.029,20.735l-0.588,1.029l0.074,0.073l1.176,0.074 C22.691,21.103,22.029,20.735,22.029,20.735z"/><radialGradient id="NYEPEBbGaZ5fYtJGT6oHBg" cx="15.965" cy="11.431" r="29.742" gradientUnits="userSpaceOnUse"><stop offset="0" stop-color="#65c5f7"/><stop offset="1" stop-color="#08388d"/></radialGradient><path fill="url(#NYEPEBbGaZ5fYtJGT6oHBg)" d="M42.861,11.544C40.656,10,35.264,7.206,24.456,7.206c-3.75,0-6.912,0.368-9.412,0.882 c0.515,0.809,0.809,1.765,0.882,2.794c2.794-0.515,5.809-0.809,9.044-0.735c6.912,0.074,12.5,1.618,14.779,3.162L42.861,11.544"/><radialGradient id="NYEPEBbGaZ5fYtJGT6oHBh" cx="8.674" cy="9.563" r="6.788" gradientUnits="userSpaceOnUse"><stop offset="0" stop-color="#fff"/><stop offset="1"/></radialGradient><circle cx="9.603" cy="11.324" r="4.559" fill="url(#NYEPEBbGaZ5fYtJGT6oHBh)"/><linearGradient id="NYEPEBbGaZ5fYtJGT6oHBi" x1="25.773" x2="43.891" y1="44.407" y2="13.189" gradientUnits="userSpaceOnUse"><stop offset="0" stop-color="#001a4c"/><stop offset="1" stop-color="#011c51"/></linearGradient><path fill="url(#NYEPEBbGaZ5fYtJGT6oHBi)" d="M30.26,37.43c-0.01-0.02-0.02-0.05-0.03-0.07c-1.8,1.81-3.72,3.22-5.78,4.33v1.4h0.01 c0.45-0.21,1.02-0.48,1.68-0.81c0.88-0.46,1.94-1.05,3.12-1.84c0.06-0.05,0.13-0.09,0.2-0.14c0.1-0.06,0.18-0.13,0.26-0.19 C30.69,39.3,30.54,38.18,30.26,37.43z M37.91,24.59c-0.2,0.56-0.42,1.13-0.66,1.71c0.68,0.05,1.25,0.17,1.62,0.54 C38.81,26.06,38.45,25.28,37.91,24.59z M36.66,27.79H36.6c-0.21,0.46-0.43,0.93-0.67,1.4c-1.54,3.07-3.26,5.57-5.17,7.61 c0.35,0.77,0.49,1.5,0.39,2.17c2.938-1.943,6.76-8.35,6.91-8.6C39.01,28.82,38.13,27.79,36.66,27.79z M42.9,12.1 c-0.01-0.2-0.02-0.39-0.04-0.56l-3.18,1.77c0.2,2.02,0.05,5.41-1.23,9.64c1.03,0.74,1.76,1.62,2.05,2.46 c0.26-0.6,0.5-1.19,0.71-1.77c0.1-0.27,0.2-0.55,0.28-0.81C43.16,17.93,43.07,14.18,42.9,12.1z"/></svg>