<svg xmlns="http://www.w3.org/2000/svg" xml:space="preserve" id="Layer_1" x="0" y="0" style="enable-background:new 0 0 72.7 80.9" version="1.1" viewBox="0 0 72.7 80.9"><style>.st1{fill:#a0a8d4}</style><g id="Layer_1_00000049216471798175502890000006318023516466656703_"><linearGradient id="SVGID_1_" x1="42.042" x2="12.66" y1="762.588" y2="794.44" gradientTransform="translate(-6 -761.64)" gradientUnits="userSpaceOnUse"><stop offset=".58" style="stop-color:#a0a8d4"/><stop offset=".73" style="stop-color:#8791c7"/><stop offset=".91" style="stop-color:#6470b4"/></linearGradient><path d="M9.3 32.8c.8 1.7 2.8 5.1 2.8 5.1L35 0 12.7 15.6c-1.3.9-2.4 2.1-3.2 3.5-2.1 4.3-2.1 9.3-.2 13.7z" style="fill:url(#SVGID_1_)"/><path d="M.3 45.2c.5 7.3 4.2 14.1 10 18.5L35 80.9S19.5 58.6 6.5 36.4c-1.3-2.3-2.2-4.9-2.6-7.6-.2-1.2-.2-2.4 0-3.6-.3.6-1 1.9-1 1.9C1.6 29.8.7 32.7.2 35.7c-.3 3.2-.3 6.4.1 9.5z" class="st1"/><linearGradient id="SVGID_00000041290057621389763610000007807030157455862694_" x1="42.659" x2="72.029" y1="841.659" y2="809.829" gradientTransform="translate(-6 -761.64)" gradientUnits="userSpaceOnUse"><stop offset=".58" style="stop-color:#a0a8d4"/><stop offset=".73" style="stop-color:#8791c7"/><stop offset=".91" style="stop-color:#6470b4"/></linearGradient><path d="M63.3 48.2c-.8-1.7-2.8-5.1-2.8-5.1L37.6 80.9 60 65.4c1.3-.9 2.4-2.1 3.2-3.5 2-4.3 2.1-9.3.1-13.7z" style="fill:url(#SVGID_00000041290057621389763610000007807030157455862694_)"/><path d="M72.4 35.7c-.5-7.3-4.2-14.1-10-18.5L37.7 0s15.5 22.3 28.5 44.5c1.3 2.3 2.2 4.9 2.6 7.6.2 1.2.2 2.4 0 3.6.3-.6 1-1.9 1-1.9 1.3-2.7 2.2-5.6 2.7-8.5.2-3.3.2-6.4-.1-9.6z" class="st1"/><linearGradient id="SVGID_00000083789650806173036420000010692886349605777067_" x1="42.323" x2="42.323" y1="761.24" y2="842.84" gradientTransform="translate(-6 -761.64)" gradientUnits="userSpaceOnUse"><stop offset="0" style="stop-color:#513eff"/><stop offset=".18" style="stop-color:#5157ff"/><stop offset=".57" style="stop-color:#5298ff"/><stop offset="1" style="stop-color:#52e5ff"/></linearGradient><path d="M9.5 19.1c.8-1.4 1.8-2.6 3.2-3.5L35 0 12.1 37.8s-2-3.4-2.8-5.1c-1.9-4.3-1.9-9.3.2-13.6zM.3 45.2c.5 7.3 4.2 14.1 10 18.5L35 80.9S19.5 58.6 6.5 36.4c-1.3-2.3-2.2-4.9-2.6-7.6-.2-1.2-.2-2.4 0-3.6-.3.6-1 1.9-1 1.9C1.6 29.8.7 32.7.2 35.7c-.3 3.2-.3 6.4.1 9.5zm63 3c-.8-1.7-2.8-5.1-2.8-5.1L37.6 80.9 60 65.4c1.3-.9 2.4-2.1 3.2-3.5 2-4.3 2.1-9.3.1-13.7zm9-12.4c-.5-7.3-4.2-14.1-10-18.5L37.7 0s15.5 22.3 28.5 44.5c1.3 2.3 2.2 4.9 2.6 7.6.2 1.2.2 2.4 0 3.6.3-.6 1-1.9 1-1.9 1.3-2.7 2.2-5.6 2.7-8.5.2-3.3.2-6.4-.2-9.5z" style="fill:url(#SVGID_00000083789650806173036420000010692886349605777067_)"/></g></svg>