<svg width="194" height="60" viewBox="0 0 254 60" fill="none" xmlns="http://www.w3.org/2000/svg">
<path d="M75.8397 15.3887C76.0054 16.3486 76.1 17.3189 76.123 18.2922C76.123 18.8174 76.1049 19.3397 76.0747 19.859C76.0465 20.3545 75.983 20.8475 75.8849 21.3344L61.6658 28.7702L75.8849 35.9287C75.9823 36.4077 76.0457 36.8928 76.0747 37.3804C76.1049 37.8879 76.123 38.4043 76.123 38.9266C76.123 39.3574 76.1049 39.8472 76.0747 40.4019C76.0368 40.9897 75.9583 41.5743 75.8397 42.1517L56.3585 32.1842C56.0835 31.004 55.942 29.7978 55.9365 28.5873C55.9408 27.4837 56.0825 26.3848 56.3585 25.3149L75.8397 15.3887Z" fill="white"/>
<path d="M90.0011 41.2415C88.234 41.2808 86.4778 40.9592 84.8445 40.2973C83.4473 39.707 82.2093 38.807 81.228 37.6682C80.2479 36.5065 79.5116 35.1668 79.0611 33.7261C78.5636 32.1435 78.3176 30.4954 78.3317 28.8397C78.3166 27.167 78.5594 25.5018 79.052 23.9002C79.4963 22.4435 80.233 21.0882 81.2189 19.9137C82.2028 18.771 83.4396 17.8628 84.8355 17.2581C86.4648 16.5809 88.2226 16.251 89.9921 16.2902C91.7693 16.2531 93.5345 16.5829 95.1728 17.2581C96.5853 17.8609 97.8402 18.7688 98.8436 19.9137C99.845 21.0794 100.586 22.4373 101.02 23.9002C101.499 25.5022 101.737 27.1643 101.725 28.8338C101.739 30.4878 101.502 32.1348 101.02 33.7202C100.583 35.1685 99.8456 36.5127 98.8527 37.6682C97.8518 38.8092 96.5956 39.7089 95.1819 40.2973C93.5396 40.9575 91.776 41.2789 90.0011 41.2415ZM90.0011 36.2637C91.7592 36.2637 93.023 35.6253 93.7925 34.3487C94.562 33.072 94.9428 31.2356 94.9347 28.8397C94.9347 26.4437 94.551 24.6073 93.7835 23.3307C93.0159 22.054 91.7522 21.4156 89.9921 21.4156C88.2642 21.4156 87.0165 22.054 86.249 23.3307C85.4814 24.6073 85.0967 26.4437 85.0947 28.8397C85.0947 31.2356 85.4794 33.072 86.249 34.3487C87.0185 35.6253 88.2692 36.2637 90.0011 36.2637Z" fill="white"/>
<path d="M119.714 6.98797C120.267 6.89723 120.824 6.83616 121.384 6.80502C121.932 6.77257 122.475 6.75781 123.011 6.75781C123.548 6.75781 124.093 6.77257 124.657 6.80502C125.225 6.83535 125.792 6.89642 126.354 6.98797V39.9062C124.879 40.3366 123.377 40.6678 121.857 40.8977C120.027 41.1477 118.18 41.2631 116.333 41.2429C114.715 41.2493 113.104 41.0236 111.553 40.5731C110.073 40.1524 108.701 39.4304 107.526 38.4545C106.322 37.4278 105.379 36.1408 104.772 34.6953C104.097 33.1609 103.759 31.2862 103.759 29.0712C103.748 27.3813 104.043 25.7029 104.63 24.114C105.178 22.6194 106.026 21.2477 107.126 20.0803C108.235 18.9277 109.573 18.0098 111.059 17.3834C112.678 16.7084 114.422 16.3708 116.182 16.3919C116.746 16.3919 117.336 16.4155 117.948 16.4627C118.545 16.5042 119.137 16.603 119.714 16.7578V6.98797ZM119.714 21.7888C119.21 21.6601 118.699 21.5616 118.183 21.4937C117.691 21.4414 117.196 21.4178 116.7 21.4229C115.757 21.4015 114.823 21.6157 113.988 22.0455C113.232 22.4503 112.581 23.0185 112.083 23.7068C111.559 24.4451 111.183 25.2742 110.974 26.15C110.737 27.1082 110.618 28.091 110.622 29.0771C110.594 30.1637 110.754 31.247 111.095 32.2816C111.352 33.0704 111.795 33.789 112.388 34.3795C112.938 34.9033 113.609 35.2908 114.344 35.5097C115.137 35.7458 115.962 35.8623 116.791 35.8549C117.278 35.8566 117.765 35.8339 118.249 35.787C118.744 35.7303 119.234 35.6316 119.711 35.492L119.714 21.7888Z" fill="white"/>
<path d="M136.242 30.7761C136.366 32.6213 137.025 33.959 138.219 34.7891C139.412 35.6193 140.981 36.0333 142.926 36.0314C144.024 36.0308 145.12 35.932 146.199 35.7363C147.283 35.5448 148.347 35.2594 149.379 34.8836C149.762 35.5866 150.065 36.3287 150.283 37.0966C150.539 37.9978 150.682 38.9263 150.708 39.8614C148.056 40.8189 145.246 41.2881 142.42 41.2453C140.16 41.2453 138.221 40.9375 136.603 40.3217C135.097 39.7846 133.739 38.9106 132.637 37.7694C131.6 36.6501 130.829 35.32 130.38 33.8744C129.396 30.6558 129.404 27.2247 130.401 24.0101C130.866 22.5402 131.627 21.1759 132.637 19.9971C133.647 18.847 134.901 17.9266 136.311 17.3002C137.925 16.6078 139.673 16.2694 141.435 16.3087C142.989 16.2833 144.531 16.5852 145.955 17.194C147.238 17.7525 148.386 18.57 149.325 19.5929C150.272 20.643 150.986 21.8751 151.419 23.2105C151.898 24.662 152.136 26.1792 152.124 27.7044C152.124 28.2946 152.1 28.867 152.055 29.4336C152.01 30.0001 151.953 30.4575 151.889 30.7938L136.242 30.7761ZM145.802 26.2114C145.739 24.7399 145.322 23.5498 144.551 22.641C143.779 21.7322 142.704 21.2787 141.326 21.2807C139.757 21.2807 138.564 21.7105 137.749 22.5702C136.933 23.4298 136.447 24.6436 136.29 26.2114H145.802Z" fill="white"/>
<path d="M172.087 36.5892C172.371 37.1001 172.593 37.6418 172.748 38.2032C172.935 38.8494 173.046 39.5149 173.076 40.1861C171.043 40.9226 168.887 41.2819 166.72 41.2454C162.702 41.2454 159.672 40.131 157.63 37.9022C155.589 35.6735 154.565 32.6687 154.559 28.8878C154.544 27.2302 154.798 25.5807 155.313 24.0014C155.777 22.5585 156.538 21.2239 157.549 20.0799C158.568 18.9516 159.827 18.0553 161.238 17.4537C162.857 16.7809 164.603 16.451 166.361 16.4859C167.528 16.4755 168.694 16.5524 169.848 16.7161C170.829 16.8635 171.792 17.1107 172.72 17.4537C172.71 18.066 172.638 18.6757 172.506 19.2743C172.382 19.903 172.18 20.5144 171.904 21.0949C170.213 20.5518 168.442 20.2875 166.663 20.313C164.252 20.313 162.443 21.0998 161.238 22.6736C160.032 24.2473 159.437 26.3226 159.451 28.8996C159.451 31.8503 160.126 34.0093 161.476 35.3764C162.826 36.7436 164.678 37.4321 167.03 37.4419C167.905 37.4464 168.778 37.3852 169.643 37.259C170.48 37.1211 171.299 36.8966 172.087 36.5892Z" fill="white"/>
<path d="M176.609 17.0374C176.953 16.9784 177.284 16.9312 177.598 16.8988C177.911 16.8663 178.24 16.8545 178.586 16.8545C178.933 16.8545 179.277 16.8692 179.623 16.8988C179.939 16.9276 180.253 16.9739 180.563 17.0374C180.657 17.4978 180.753 18.1056 180.847 18.858C180.932 19.4931 180.979 20.1326 180.988 20.7731C181.668 19.7067 182.556 18.7822 183.601 18.0525C184.684 17.2853 186.074 16.9007 187.769 16.8988C188.02 16.8988 188.279 16.8988 188.547 16.9224C188.775 16.9347 189.002 16.9583 189.228 16.9932C189.293 17.2853 189.34 17.5808 189.37 17.8784C189.4 18.1735 189.418 18.5069 189.418 18.8433C189.417 19.2289 189.393 19.6142 189.346 19.997C189.297 20.3983 189.243 20.7819 189.18 21.1507C188.927 21.0889 188.666 21.0582 188.405 21.0593H187.76C186.944 21.057 186.131 21.1733 185.349 21.4045C184.569 21.6418 183.858 22.061 183.279 22.6261C182.608 23.3026 182.108 24.123 181.817 25.0221C181.419 26.2906 181.237 27.6144 181.278 28.9407V40.6904C180.896 40.7546 180.51 40.7999 180.123 40.8262C179.699 40.8586 179.313 40.8734 178.969 40.8734C178.626 40.8734 178.24 40.8586 177.815 40.8262C177.39 40.7937 176.992 40.7495 176.609 40.6904V17.0374Z" fill="white"/>
<path d="M201.322 41.2428C199.624 41.2785 197.937 40.9565 196.377 40.2985C195.013 39.7034 193.805 38.8125 192.845 37.693C191.874 36.5424 191.156 35.2086 190.735 33.7745C189.823 30.5781 189.823 27.1981 190.735 24.0017C191.155 22.5665 191.874 21.2315 192.845 20.0802C193.808 18.9588 195.015 18.0617 196.377 17.454C197.943 16.8152 199.624 16.4863 201.321 16.4863C203.018 16.4863 204.698 16.8152 206.265 17.454C207.627 18.0617 208.834 18.9588 209.797 20.0802C210.763 21.2328 211.476 22.5677 211.892 24.0017C212.804 27.1981 212.804 30.5781 211.892 33.7745C211.475 35.2074 210.762 36.5411 209.797 37.693C208.837 38.8125 207.629 39.7034 206.265 40.2985C204.706 40.9565 203.02 41.2785 201.322 41.2428ZM201.322 37.6016C203.486 37.6016 205.087 36.8324 206.123 35.2941C207.16 33.7558 207.679 31.6205 207.679 28.8881C207.679 26.1518 207.16 24.0233 206.123 22.5027C205.087 20.9821 203.486 20.2208 201.322 20.2189C199.154 20.2189 197.561 20.9802 196.543 22.5027C195.524 24.0253 195.012 26.1538 195.008 28.8881C195.008 31.6244 195.519 33.7597 196.539 35.2941C197.56 36.8285 199.154 37.5976 201.322 37.6016Z" fill="white"/>
<path d="M213.377 17.0374C213.817 16.9784 214.257 16.9312 214.697 16.8988C215.137 16.8663 215.529 16.8545 215.872 16.8545C216.312 16.8545 216.777 16.8692 217.217 16.8988C217.657 16.9283 218.069 16.9784 218.422 17.0374L223.13 36.3558L228.446 17.0374C228.793 16.9784 229.166 16.9312 229.576 16.8988C229.986 16.8663 230.408 16.8545 230.848 16.8545C231.348 16.884 231.782 16.9076 232.144 16.9224C232.499 16.9396 232.852 16.9781 233.202 17.0374L238.476 36.0312L243.183 17.0374C243.53 16.9784 243.874 16.9312 244.22 16.8988C244.567 16.8663 244.943 16.8545 245.35 16.8545C245.697 16.8545 246.08 16.8692 246.505 16.8988C246.93 16.9283 247.361 16.9784 247.801 17.0374L240.589 40.6904C240.182 40.7495 239.766 40.7967 239.341 40.8262C238.916 40.8557 238.533 40.8734 238.187 40.8734C237.84 40.8734 237.466 40.8586 237.056 40.8262C236.646 40.7937 236.24 40.7495 235.833 40.6904L230.652 22.8002L225.227 40.6904C224.787 40.7495 224.356 40.7967 223.931 40.8262C223.506 40.8557 223.124 40.8734 222.777 40.8734C222.43 40.8734 222.048 40.8586 221.623 40.8262C221.237 40.8001 220.853 40.7548 220.471 40.6904L213.377 17.0374Z" fill="white"/>
<path d="M40.6017 9.10938C24.3483 8.5576 20.2465 18.3156 19.2882 21.8359C19.2788 21.8974 19.2896 21.9602 19.319 22.0154C19.3483 22.0705 19.3947 22.1152 19.4515 22.143C19.5083 22.1708 19.5727 22.1804 19.6353 22.1702C19.698 22.1601 19.7558 22.1309 19.8005 22.0867C21.9433 19.3808 24.49 18.6373 27.3591 19.251L30.837 28.6225C30.2042 28.8461 29.6504 29.2432 29.2416 29.7663C28.8328 30.2895 28.5863 30.9167 28.5315 31.5732C28.5315 31.6293 28.5315 31.6824 28.5315 31.7355L16.8982 32.488C16.8086 32.1942 16.6426 31.9283 16.4165 31.7162C16.1904 31.5042 15.9119 31.3532 15.6083 31.2782L15.8313 16.321C16.1023 16.2672 16.3577 16.1551 16.579 15.9928C16.8003 15.8305 16.982 15.6221 17.1109 15.3826C17.2398 15.1431 17.3128 14.8786 17.3245 14.6081C17.3362 14.3376 17.2863 14.068 17.1785 13.8187L28.7967 5.90195L28.86 5.9403C29.2257 6.17755 29.6609 6.29056 30.0987 6.26193C36.4065 5.80162 39.5168 6.91404 41.0056 7.89663C41.1319 7.97483 41.2281 8.09203 41.2787 8.2297C41.3294 8.36738 41.3318 8.51766 41.2854 8.6568C41.2391 8.79593 41.1467 8.91597 41.0229 8.99794C40.8991 9.07991 40.7509 9.11912 40.6017 9.10938ZM47.1779 33.9132C40.1708 27.2032 33.7514 21.2251 28.3838 19.5313L31.699 28.4366C32.2096 28.3806 32.7265 28.4362 33.2125 28.5995C33.6984 28.7628 34.1413 29.0296 34.5092 29.3808C34.8771 29.7319 35.1608 30.1586 35.3398 30.6301C35.5189 31.1016 35.5888 31.6062 35.5446 32.1073L47.0844 34.1168C47.1088 34.1174 47.1328 34.1109 47.1534 34.0982C47.174 34.0855 47.1904 34.0672 47.2004 34.0454C47.2103 34.0236 47.2135 33.9995 47.2095 33.976C47.2055 33.9524 47.1945 33.9306 47.1779 33.9132ZM7.4379 18.5517C7.35872 18.5853 7.28782 18.6352 7.23002 18.6979C7.17221 18.7606 7.12884 18.8348 7.10284 18.9154C7.07684 18.9959 7.06881 19.081 7.0793 19.1649C7.08979 19.2488 7.11855 19.3295 7.16364 19.4015L14.3335 31.4109L14.7434 31.3077L14.9694 16.2944C14.5591 16.1967 14.1947 15.9658 13.9357 15.6393L7.4379 18.5517ZM15.4847 12.6502L17.7813 4.2997C12.7784 6.01112 8.73986 10.9713 7.06118 17.1767C7.04681 17.238 7.04981 17.3019 7.06986 17.3617C7.08991 17.4214 7.12625 17.4747 7.17495 17.5157C7.22366 17.5567 7.28287 17.5839 7.34621 17.5943C7.40955 17.6048 7.4746 17.5981 7.53434 17.575L13.5619 14.8662C13.523 14.6949 13.5098 14.519 13.5228 14.344C13.5643 13.8689 13.7915 13.4279 14.157 13.1129C14.5226 12.7979 14.9982 12.6332 15.4847 12.6532V12.6502ZM69.5824 52.6562C62.5302 48.5074 55.5894 41.9657 49.0886 35.7544C49.0706 35.7351 49.0463 35.7223 49.0199 35.7183C48.9934 35.7143 48.9664 35.7192 48.9432 35.7323C48.92 35.7454 48.902 35.7658 48.8923 35.7902C48.8826 35.8146 48.8817 35.8415 48.8897 35.8665L51.3369 45.8813H51.3761C52.0125 45.9346 52.6014 46.233 53.0133 46.711C53.4252 47.189 53.6266 47.8075 53.5731 48.4307C53.5731 48.4661 53.5581 48.4986 53.5551 48.534L69.4076 53.0161C69.456 53.0388 69.5116 53.0418 69.5622 53.0244C69.6128 53.0069 69.6542 52.9705 69.6774 52.9232C69.7006 52.8758 69.7036 52.8214 69.6858 52.7719C69.668 52.7224 69.6308 52.6818 69.5824 52.6591V52.6562ZM16.6903 13.1165L27.992 5.42983C24.7974 3.63579 21.6329 3.2817 18.7487 4.00758L16.3226 12.8598C16.4556 12.9335 16.579 13.0227 16.6903 13.1253V13.1165ZM50.05 50.2956L46.557 53.4824C54.0915 55.4564 63.6181 56.6927 75.598 56.2265C75.6779 56.2359 75.7584 56.2138 75.8217 56.1651C75.885 56.1164 75.9259 56.0451 75.9355 55.9669C75.9451 55.8886 75.9226 55.8098 75.8728 55.7478C75.8231 55.6859 75.7503 55.6458 75.6703 55.6364L53.3109 49.3159C53.0892 49.7233 52.7504 50.0582 52.3363 50.279C51.9222 50.4998 51.4511 50.5968 50.9813 50.5582C50.6575 50.5389 50.3409 50.4567 50.05 50.3162V50.2956ZM18.9355 45.9964L15.0176 34.7217C14.7069 34.6956 14.4086 34.5904 14.1522 34.4166C13.8959 34.2427 13.6905 34.0062 13.5564 33.7305C13.4223 33.4549 13.3643 33.1497 13.388 32.8453C13.4117 32.5408 13.5163 32.2478 13.6915 31.9952L6.86829 20.5818C6.84002 20.5365 6.79824 20.5007 6.74858 20.4794C6.69892 20.458 6.64377 20.4521 6.59056 20.4624C6.53735 20.4727 6.48865 20.4987 6.45101 20.5369C6.41337 20.5752 6.3886 20.6238 6.38006 20.6762C5.37646 29.0917 8.60424 38.9264 18.9355 45.9964ZM36.8707 53.3732C36.9792 53.3732 36.9219 53.1725 36.8224 53.1283C35.4572 52.4762 25.816 47.6635 22.1874 39.7822C23.6441 41.6717 25.3919 43.3281 27.3682 44.6922L30.5598 34.9548C30.0682 34.7307 29.6364 34.3979 29.2986 33.9826C28.9607 33.5674 28.726 33.081 28.6129 32.5617L16.9253 33.3437C16.8641 33.6194 16.7364 33.8768 16.5529 34.0945C16.3694 34.3121 16.1354 34.4836 15.8705 34.5948L20.12 46.7872C20.8553 47.2416 27.1512 53.1519 36.8707 53.3761V53.3732ZM28.0915 45.2203C31.6297 47.758 36.934 50.6939 44.4624 52.9188L33.453 34.9843C32.9172 35.2231 32.3281 35.3247 31.7412 35.2793C31.6223 35.2651 31.5046 35.2434 31.3886 35.2144L28.0915 45.2203ZM34.1944 34.5535L45.6469 53.1873L49.3809 49.7822C49.1187 49.485 48.9363 49.1285 48.8502 48.7449C48.7642 48.3613 48.7773 47.9627 48.8884 47.5853C48.9994 47.2079 49.2048 46.8636 49.4861 46.5836C49.7673 46.3035 50.1155 46.0966 50.4991 45.9816L47.9524 35.5685C47.9177 35.4297 47.842 35.3039 47.7349 35.2069C47.6277 35.1098 47.4937 35.0457 47.3496 35.0226L35.3608 32.9365C35.1428 33.576 34.7371 34.1385 34.1944 34.5535Z" fill="url(#paint0_linear_7353_46261)"/>
<g opacity="0.15">
<path opacity="0.15" d="M31.6869 28.4365L31.8436 21.1305C30.7518 20.4784 29.5919 19.9422 28.3838 19.5312L31.6869 28.4365Z" fill="black"/>
<path opacity="0.15" d="M14.3338 31.4105L9.12599 17.7959L7.43826 18.5513C7.35908 18.5849 7.28819 18.6347 7.23038 18.6975C7.17258 18.7602 7.12921 18.8344 7.1032 18.915C7.0772 18.9955 7.06917 19.0806 7.07966 19.1645C7.09015 19.2484 7.11892 19.329 7.16401 19.4011L14.3338 31.4105Z" fill="black"/>
<path opacity="0.15" d="M18.7494 4.00742L16.3232 12.8596C16.3534 12.8773 16.3805 12.9009 16.4106 12.9216L21.5793 3.70054C20.6266 3.68615 19.6758 3.78926 18.7494 4.00742Z" fill="black"/>
<path opacity="0.15" d="M17.1787 13.8191C17.1989 13.9026 17.213 13.9874 17.2209 14.0729L34.2428 6.19742C32.8612 6.14048 31.4773 6.1661 30.0989 6.27413C29.6613 6.30123 29.2266 6.18835 28.8602 5.95251L28.7969 5.90234L17.1787 13.8191Z" fill="black"/>
<path opacity="0.15" d="M28.6134 32.5703L16.9259 33.3434C16.8647 33.6192 16.737 33.8766 16.5535 34.0942C16.37 34.3118 16.136 34.4834 15.8711 34.5945L16.6245 36.7574L28.6797 32.7385C28.6556 32.6736 28.6315 32.6234 28.6134 32.5703Z" fill="black"/>
<path opacity="0.15" d="M16.8983 32.4884L19.6107 32.3114L15.8314 16.3066L15.6084 31.2786C15.912 31.3537 16.1905 31.5046 16.4166 31.7167C16.6427 31.9287 16.8087 32.1947 16.8983 32.4884Z" fill="black"/>
<path opacity="0.15" d="M7.06167 17.1768C7.0473 17.2381 7.05031 17.3021 7.07036 17.3618C7.09041 17.4216 7.12675 17.4748 7.17545 17.5158C7.22415 17.5568 7.28337 17.584 7.34671 17.5945C7.41004 17.605 7.47509 17.5983 7.53484 17.5752L13.5624 14.8664C13.5624 14.8163 13.5624 14.7661 13.5624 14.7159L7.95677 14.5625C7.60757 15.4165 7.30871 16.2893 7.06167 17.1768Z" fill="black"/>
<path opacity="0.15" d="M51.3883 45.8841C51.4365 45.8841 51.4727 45.9166 51.5209 45.9225L53.1031 39.5401C51.753 38.2772 50.4148 37.0054 49.1008 35.7484C49.0828 35.7291 49.0585 35.7163 49.0321 35.7123C49.0056 35.7083 48.9786 35.7132 48.9554 35.7263C48.9322 35.7394 48.9142 35.7598 48.9045 35.7842C48.8948 35.8086 48.8939 35.8355 48.9019 35.8605L51.3491 45.8753L51.3883 45.8841Z" fill="black"/>
<path opacity="0.15" d="M47.9945 51.0384L34.1943 34.5527L45.6347 53.1865L47.9945 51.0384Z" fill="black"/>
<path opacity="0.15" d="M13.3935 41.1835L6.41357 20.6553C6.41357 20.673 6.38343 20.67 6.38042 20.6877C5.58779 27.321 7.49854 34.8187 13.3935 41.1835Z" fill="black"/>
<path opacity="0.15" d="M53.3106 49.3457C53.0889 49.7531 52.75 50.0879 52.336 50.3087C51.9219 50.5295 51.4508 50.6266 50.981 50.588C50.6551 50.5595 50.3384 50.4672 50.0497 50.3165L49.8086 50.5378L68.5152 53.642L53.3106 49.3457Z" fill="black"/>
<path opacity="0.15" d="M31.3859 35.2148L28.0918 45.2208C28.8874 45.7902 29.7825 46.3804 30.759 46.9764L31.4552 35.2296L31.3859 35.2148Z" fill="black"/>
<path opacity="0.15" d="M22.6543 40.7207C23.8086 42.9337 27.1238 48.6876 32.1749 52.8187C33.7172 53.1581 35.29 53.3479 36.8704 53.3852C36.8886 53.3569 36.8983 53.3242 36.8983 53.2908C36.8983 53.2574 36.8886 53.2246 36.8704 53.1964C36.8548 53.1725 36.8329 53.1531 36.8071 53.1403C36.6353 53.0577 36.3369 52.9101 35.9361 52.7006C35.6347 52.5442 35.2761 52.3524 34.8722 52.1252C34.4684 51.898 34.0193 51.6384 33.5371 51.3433C33.3201 51.2105 33.0941 51.0689 32.8651 50.9213C32.5848 50.7443 32.2985 50.5584 32.0031 50.3578C31.8223 50.2397 31.6414 50.1158 31.4576 49.986C28.4046 47.8437 24.7881 44.7042 22.6543 40.7207Z" fill="black"/>
<path opacity="0.15" d="M22.1904 39.791C22.1904 39.8087 22.2748 39.971 22.4195 40.2602C22.3441 40.1067 22.2628 39.9504 22.1904 39.791Z" fill="black"/>
</g>
<defs>
<linearGradient id="paint0_linear_7353_46261" x1="57.6036" y1="24.2688" x2="8.00617" y2="52.7898" gradientUnits="userSpaceOnUse">
<stop stop-color="#EC008C"/>
<stop offset="1" stop-color="#2B328C"/>
</linearGradient>
</defs>
</svg>
