<svg xmlns="http://www.w3.org/2000/svg" width="50" height="50" viewBox="0 0 48 48"><path fill="#004d40" fill-rule="evenodd" d="M8 16v12.646C6.655 28.9 5.949 29 4.878 29 1.67 28.997 0 27.565 0 24.816c0-2.649 1.771-4.368 4.516-4.368.426 0 .75.033 1.143.134V16H8zm-2.341 6.672a2.658 2.658 0 0 0-.886-.134c-1.328 0-2.096.809-2.096 2.228 0 1.381.734 2.143 2.079 2.143.291 0 .527-.016.903-.067v-4.17z" clip-rule="evenodd"/><path fill="#004d40" fill-rule="evenodd" d="M12 20.046v6.618c0 2.076-.155 3.224-.612 4.084-.426.827-.987 1.349-2.146 1.925l-2.437-1.149c1.159-.539 1.721-1.015 2.079-1.742.375-.743.494-1.754.494-4.017v-5.721H12zM9.377 16H12v2.713H9.377zM13.734 20.876a7.54 7.54 0 0 1 3.408-.795c1.321 0 2.189.363 2.573 1.073.215.397.285.914.285 2.021v5.407c-1.152.171-2.606.294-3.673.294-2.156 0-3.123-.778-3.123-2.505 0-1.868 1.285-2.731 4.441-3.006v-.585c0-.483-.235-.658-.884-.658-.95 0-2.02.278-3.024.812l-.003-2.058zm4.027 4.231c-1.702.171-2.255.449-2.255 1.141 0 .518.318.761 1.02.761.384 0 .735-.034 1.235-.12v-1.782zM21.418 20.693c1.52-.421 2.772-.613 4.041-.613 1.318 0 2.273.317 2.839.93.532.578.702 1.212.702 2.563v5.303h-2.574v-5.195c0-1.038-.335-1.424-1.252-1.424-.351 0-.669.035-1.186.195v6.425h-2.57v-8.184zM30.177 30.006c.919.486 1.839.71 2.812.71 1.721 0 2.454-.473 2.454-2.176v-.052c-.51.258-1.025.366-1.704.366-2.302 0-3.739-1.547-3.739-3.997 0-3.043 2.141-4.762 5.974-4.762 1.126 0 2.167.121 3.427.383l-.899 1.93c-.699-.138-.057-.021-.584-.072v.279l.034 1.13.017 1.461c.017.366.017.73.034 1.096v.73c0 2.295-.19 3.131-.751 4.02-.818 1.302-2.234 1.947-4.246 1.947-1.024 0-1.91-.155-2.829-.521v-2.472zm5.215-7.755h-.275c-.51-.017-1.108.121-1.518.383-.628.365-.953 1.027-.953 1.964 0 1.337.649 2.102 1.808 2.102.358 0 .649-.069.987-.172v-.923c0-.314-.017-.662-.017-1.027l-.017-1.234-.017-.886v-.207zM43.566 20.046c2.753 0 4.434 1.66 4.434 4.348 0 2.756-1.752 4.483-4.544 4.483-2.756 0-4.456-1.659-4.456-4.33.005-2.773 1.757-4.501 4.566-4.501zm-.057 6.706c1.057 0 1.681-.838 1.681-2.294 0-1.439-.607-2.294-1.663-2.294-1.093 0-1.718.838-1.718 2.294.001 1.456.629 2.294 1.7 2.294z" clip-rule="evenodd"/></svg>