<svg xmlns="http://www.w3.org/2000/svg" width="50" height="50" viewBox="0 0 48 48"><path fill="#26c6da" fill-rule="evenodd" d="M32.466 9.628 44.737 19.8l-4.462 8.991-7.35-2.035h-6.431z" clip-rule="evenodd"/><path fill="#66bb6a" fill-rule="evenodd" d="M30.431 9.234 20.981 3 5.559 9.431 3 36.6 17.372 45l3.872-4.528-1.182-24.216z" clip-rule="evenodd"/><path fill="#9ccc65" fill-rule="evenodd" d="M35.944 14.484H21.375L34.237 3z" clip-rule="evenodd"/><path fill="#ffee58" fill-rule="evenodd" d="m45 40.537-12.797 4.397-17.062-4.79 4.922-23.888 1.968-1.772 10.435-.984-.985 10.434 8.269-3.215z" clip-rule="evenodd"/><path fill="#212121" fill-rule="evenodd" d="M11 11h26v26H11z" clip-rule="evenodd"/><path fill="#fff" fill-rule="evenodd" d="M14 33h10v2H14zm.075-19h4.633C21.433 14 23 15.533 23 17.8c0 2.533-2.044 3.867-4.565 3.867h-1.908V25h-2.453V14h.001zm6.404 3.933c0-1.067-.749-1.667-2.044-1.667h-1.908v3.4h1.976c1.339.001 1.976-.799 1.976-1.733zm4.34 1.568a5.38 5.38 0 0 1 5.5-5.5c1.982 0 3.197.639 4.156 1.663l-1.471 1.727c-.831-.767-1.663-1.215-2.686-1.215-1.79 0-3.069 1.471-3.069 3.325 0 1.79 1.279 3.325 3.069 3.325 1.215 0 1.982-.512 2.814-1.215l1.471 1.471C33.515 24.233 32.3 25 30.254 25a5.432 5.432 0 0 1-5.435-5.499" clip-rule="evenodd"/></svg>