<svg fill="#CC0000" xmlns="http://www.w3.org/2000/svg"  viewBox="0 0 32 32" width="50px" height="50px"><path d="M 10.03125 9.5742188 C 9.78025 9.5742188 9.5228594 9.5890938 9.2558594 9.6210938 L 9.4082031 10.099609 C 9.6432031 10.074609 9.8763281 10.066406 10.111328 10.066406 L 10.193359 10.066406 L 10.03125 9.5742188 z M 13.117188 10.050781 L 13.085938 10.583984 C 13.352938 10.673984 13.611141 10.771953 13.869141 10.876953 L 13.902344 10.333984 C 13.829344 10.293984 13.626187 10.196781 13.117188 10.050781 z M 6.4667969 10.357422 C 6.2647969 10.462422 6.0539375 10.575078 5.8359375 10.705078 L 6.2070312 11.271484 C 6.4170312 11.141484 6.6200781 11.021016 6.8300781 10.916016 L 6.4667969 10.357422 z M 10.134766 10.382812 C 9.9080981 10.384485 9.6785937 10.396797 9.4492188 10.419922 C 7.0892188 10.629922 4.19 12.779609 2.5 15.599609 C 0.8 18.429609 0.5703125 20.830078 0.5703125 20.830078 L 6.9492188 20.830078 C 6.9492187 20.830078 5.7295312 15.26 9.7695312 13 C 10.609531 12.59 13.220937 11.109219 17.460938 13.949219 L 17.779297 13.660156 C 16.579297 12.628906 13.534778 10.357727 10.134766 10.382812 z M 13.101562 12.589844 L 13.070312 13.097656 C 13.337312 13.105656 13.602141 13.138313 13.869141 13.195312 L 13.902344 12.693359 C 13.628344 12.637359 13.360563 12.605844 13.101562 12.589844 z M 11.210938 12.783203 C 10.935938 12.863203 10.702 12.953969 10.5 13.042969 L 10.685547 13.599609 C 10.919547 13.486609 11.154672 13.389406 11.388672 13.316406 L 11.210938 12.783203 z M 3.2011719 12.816406 C 2.9911719 13.018406 2.7895156 13.219875 2.6035156 13.421875 L 3.2246094 13.955078 C 3.3946094 13.737078 3.5813906 13.518406 3.7753906 13.316406 L 3.2011719 12.816406 z M 8.9882812 14.011719 C 8.8022813 14.182719 8.6313281 14.366734 8.4863281 14.552734 L 8.875 15.134766 C 9.012 14.932766 9.1735625 14.746547 9.3515625 14.560547 L 8.9882812 14.011719 z M 10.150391 15.164062 L 10.150391 20.726562 L 11.503906 20.726562 L 11.503906 19.189453 L 11.675781 19.367188 L 12.945312 20.726562 L 15 20.726562 L 13.216797 18.927734 L 13.429688 18.908203 C 13.482687 18.903203 14.753906 18.768547 14.753906 17.060547 C 14.753906 15.349547 13.195672 15.170063 13.138672 15.164062 L 10.150391 15.164062 z M 17.109375 15.203125 C 16.059375 15.203125 15.705078 16.168422 15.705078 16.607422 L 15.705078 20.726562 L 17.082031 20.726562 L 17.082031 19.716797 L 18.761719 19.716797 L 18.761719 20.726562 L 20.087891 20.726562 L 20.087891 16.607422 C 20.087891 15.462422 19.049547 15.203125 18.685547 15.203125 L 17.109375 15.203125 z M 21.007812 15.203125 L 21.007812 20.724609 L 22.449219 20.724609 L 22.449219 15.203125 L 21.007812 15.203125 z M 23.318359 15.203125 L 23.318359 20.726562 L 26.960938 20.726562 L 26.960938 19.447266 L 24.753906 19.447266 L 24.753906 15.203125 L 23.318359 15.203125 z M 29.03125 15.203125 C 28.43925 15.203125 27.619141 15.698859 27.619141 16.630859 L 27.619141 17.140625 C 27.619141 18.098625 28.46225 18.544922 29.03125 18.544922 L 29.748047 18.546875 C 29.861047 18.543875 30.376953 18.544922 30.376953 18.544922 L 30.376953 19.455078 L 27.699219 19.462891 L 27.699219 20.724609 L 30.244141 20.724609 C 30.770141 20.724609 31.616484 20.343266 31.646484 19.322266 L 31.646484 18.755859 C 31.646484 17.877859 30.933141 17.353516 30.244141 17.353516 L 28.826172 17.353516 L 28.826172 16.474609 L 31.4375 16.474609 L 31.4375 15.203125 L 29.03125 15.203125 z M 7.5585938 16.265625 C 7.4525937 16.565625 7.3794531 16.86525 7.3144531 17.15625 L 7.9707031 17.673828 C 8.0027031 17.358828 8.059625 17.042562 8.140625 16.726562 L 7.5585938 16.265625 z M 17.667969 16.369141 L 18.207031 16.369141 C 18.629031 16.369141 18.749906 16.637203 18.753906 16.783203 L 18.753906 18.283203 L 17.074219 18.283203 L 17.074219 16.783203 C 17.074219 16.779203 17.081969 16.369141 17.667969 16.369141 z M 11.505859 16.408203 L 12.884766 16.414062 C 12.900766 16.421062 13.296875 16.576062 13.296875 17.164062 C 13.296875 17.751063 12.895797 17.913734 12.841797 17.927734 L 11.505859 17.927734 L 11.505859 16.408203 z M 0.40429688 16.591797 C 0.25129687 16.938797 0.081 17.342547 0 17.560547 L 0.9296875 17.900391 C 1.0346875 17.625391 1.2039844 17.228687 1.3339844 16.929688 L 0.40429688 16.591797 z M 7.1933594 19.208984 C 7.2093594 19.636984 7.2510156 19.984562 7.2910156 20.226562 L 8.2617188 20.574219 C 8.1887187 20.259219 8.1154063 19.903437 8.0664062 19.523438 L 7.1933594 19.208984 z"/></svg>