<?xml version="1.0" encoding="utf-8"?>
<!-- Generator: Adobe Illustrator 26.0.0, SVG Export Plug-In . SVG Version: 6.00 Build 0)  -->
<svg version="1.0" id="Layer_1" xmlns="http://www.w3.org/2000/svg" xmlns:xlink="http://www.w3.org/1999/xlink" x="0px" y="0px"
	 viewBox="0 0 50 50" enable-background="new 0 0 50 50" xml:space="preserve">
<g>
	<g>
		<path fill="#FF54D8" d="M28.405,10.338c6.196,0.227,10.999,2.952,14.348,8.16c2.151,3.345,3.072,7.056,2.645,11.012
			c-0.637,5.904-3.518,10.507-8.515,13.7c-6.863,4.385-15.834,3.808-22.109-1.382c-3.26-2.697-5.352-6.126-6.064-10.331
			c-0.315-1.86-0.306-3.716,0.359-5.52c0.679-1.842,1.927-3.137,3.753-3.86c0.251-0.099,0.287-0.168,0.14-0.403
			c-2.443-3.909-4.604-7.979-6.834-12.009C5.388,8.365,4.744,6.988,4.544,5.446C4.501,5.107,4.484,4.767,4.519,4.428
			c0.038-0.37,0.221-0.534,0.594-0.569c0.342-0.032,0.649,0.073,0.941,0.233c0.721,0.396,1.303,0.96,1.831,1.577
			c1.543,1.803,2.892,3.753,4.264,5.685c1.806,2.544,3.616,5.085,5.407,7.64c0.76,1.085,1.489,2.192,2.127,3.356
			c0.033,0.06,0.07,0.131,0.125,0.165c0.757,0.465,1.456,1.034,2.322,1.305c0.249,0.078,0.5,0.131,0.76,0.06
			c0.453-0.124,0.831-0.351,0.971-0.827c0.132-0.449-0.095-0.798-0.393-1.102c-0.366-0.373-0.83-0.61-1.263-0.889
			c-1.177-0.76-2.025-1.765-2.396-3.14c-0.625-2.318,0.347-4.765,2.416-6.032c1.439-0.881,3.029-1.3,4.693-1.464
			C27.408,10.377,27.9,10.334,28.405,10.338z M38.4,39.167c0.037-0.029,0.077-0.054,0.109-0.086
			c5.527-5.55,6.23-13.817,2.001-19.873c-3.336-4.777-7.928-7.067-13.814-6.461c-1.218,0.126-2.396,0.465-3.427,1.174
			c-1.128,0.775-1.625,2.036-1.289,3.318c0.237,0.904,0.857,1.515,1.63,1.99c0.55,0.338,1.087,0.696,1.562,1.137
			c0.485,0.451,0.829,0.983,0.963,1.64c0.382,1.871-0.804,3.642-2.75,4.12c-0.397,0.098-0.805,0.09-1.212,0.135
			c0.011,0.148,0.1,0.231,0.161,0.326c0.336,0.523,0.675,1.043,1.015,1.564c0.08,0.122,0.144,0.216-0.023,0.346
			c-1.195,0.932-2.429,1.802-3.797,2.469c-0.197,0.096-0.299,0.077-0.422-0.108c-0.558-0.84-1.119-1.678-1.702-2.501
			c-0.161-0.227-0.133-0.301,0.109-0.42c1.185-0.58,2.286-1.298,3.27-2.177c0.737-0.658,0.656-0.387,0.161-1.203
			c-0.111-0.182-0.178-0.208-0.356-0.044c-1.11,1.025-2.361,1.845-3.721,2.506c-0.259,0.126-0.375,0.067-0.522-0.164
			c-0.554-0.87-1.131-1.726-1.7-2.587c-0.084-0.127-0.15-0.242-0.357-0.19c-1.677,0.419-2.805,1.403-3.253,3.105
			c-0.423,1.608-0.316,3.216,0.062,4.807c0.92,3.871,3.146,6.851,6.393,9.07c3.537,2.418,7.47,3.212,11.695,2.645
			c2.478-0.333,4.757-1.203,6.839-2.581C36.883,40.558,37.714,39.949,38.4,39.167z"/>
		<path fill="#FF54D8" d="M31.13,34.924c0.026,0.281-0.138,0.493-0.282,0.701c-0.914,1.323-2.197,2.001-3.784,2.137
			c-2.233,0.021-3.84-1.158-5.233-2.74c-0.738-0.837-1.217-1.827-1.642-2.847c-0.064-0.154-0.043-0.228,0.103-0.303
			c1.128-0.583,2.169-1.3,3.139-2.116c0.183-0.154,0.268-0.027,0.38,0.061c1.193,0.936,2.252,2.014,3.296,3.109
			c0.242,0.254,0.497,0.496,0.746,0.743c0.351,0.444,0.776,0.815,1.213,1.167c0.757,0.609,1.274,0.624,2.068,0.094L31.13,34.924z"/>
		<path fill="#FF54D8" d="M31.135,34.93c0.004-0.009,0.006-0.02,0.012-0.027c0.003-0.004,0.013-0.002,0.019-0.002
			c-0.012,0.008-0.024,0.016-0.036,0.023C31.13,34.924,31.135,34.93,31.135,34.93z"/>
		<circle fill="#FF54D8" cx="36.512" cy="32.112" r="2.818"/>
		<circle fill="#FF54D8" cx="37.579" cy="23.478" r="2.818"/>
		<circle fill="#FF54D8" cx="30.511" cy="18.742" r="2.818"/>
	</g>
</g>
</svg>
