<svg version="1.0" xmlns="http://www.w3.org/2000/svg" viewBox="0 0 50 50">
    <g fill="#FF54D8">
        <path
            d="M28.405 10.338c6.196.227 10.999 2.952 14.348 8.16 2.151 3.345 3.072 7.056 2.645 11.012-.637 5.904-3.518 10.507-8.515 13.7-6.863 4.385-15.834 3.808-22.109-1.382-3.26-2.697-5.352-6.126-6.064-10.331-.315-1.86-.306-3.716.359-5.52.679-1.842 1.927-3.137 3.753-3.86.251-.099.287-.168.14-.403-2.443-3.909-4.604-7.979-6.834-12.009-.74-1.34-1.384-2.717-1.584-4.259a4.447 4.447 0 01-.025-1.018c.038-.37.221-.534.594-.569.342-.032.649.073.941.233.721.396 1.303.96 1.831 1.577 1.543 1.803 2.892 3.753 4.264 5.685 1.806 2.544 3.616 5.085 5.407 7.64.76 1.085 1.489 2.192 2.127 3.356.033.06.07.131.125.165.757.465 1.456 1.034 2.322 1.305.249.078.5.131.76.06.453-.124.831-.351.971-.827.132-.449-.095-.798-.393-1.102-.366-.373-.83-.61-1.263-.889-1.177-.76-2.025-1.765-2.396-3.14a5.41 5.41 0 012.416-6.032c1.439-.881 3.029-1.3 4.693-1.464.49-.049.982-.092 1.487-.088zM38.4 39.167c.037-.029.077-.054.109-.086 5.527-5.55 6.23-13.817 2.001-19.873-3.336-4.777-7.928-7.067-13.814-6.461-1.218.126-2.396.465-3.427 1.174-1.128.775-1.625 2.036-1.289 3.318.237.904.857 1.515 1.63 1.99.55.338 1.087.696 1.562 1.137.485.451.829.983.963 1.64.382 1.871-.804 3.642-2.75 4.12-.397.098-.805.09-1.212.135.011.148.1.231.161.326.336.523.675 1.043 1.015 1.564.08.122.144.216-.023.346-1.195.932-2.429 1.802-3.797 2.469-.197.096-.299.077-.422-.108a100.91 100.91 0 00-1.702-2.501c-.161-.227-.133-.301.109-.42a14.346 14.346 0 003.27-2.177c.737-.658.656-.387.161-1.203-.111-.182-.178-.208-.356-.044-1.11 1.025-2.361 1.845-3.721 2.506-.259.126-.375.067-.522-.164-.554-.87-1.131-1.726-1.7-2.587-.084-.127-.15-.242-.357-.19-1.677.419-2.805 1.403-3.253 3.105-.423 1.608-.316 3.216.062 4.807.92 3.871 3.146 6.851 6.393 9.07 3.537 2.418 7.47 3.212 11.695 2.645a16.148 16.148 0 006.839-2.581c.858-.566 1.689-1.175 2.375-1.957z" />
        <path
            d="M31.13 34.924c.026.281-.138.493-.282.701-.914 1.323-2.197 2.001-3.784 2.137-2.233.021-3.84-1.158-5.233-2.74-.738-.837-1.217-1.827-1.642-2.847-.064-.154-.043-.228.103-.303a17.021 17.021 0 003.139-2.116c.183-.154.268-.027.38.061 1.193.936 2.252 2.014 3.296 3.109.242.254.497.496.746.743.351.444.776.815 1.213 1.167.757.609 1.274.624 2.068.094l-.004-.006zM31.135 34.93c.004-.009.006-.02.012-.027.003-.004.013-.002.019-.002a.722.722 0 01-.036.023l.005.006z" />
        <circle cx="36.512" cy="32.112" r="2.818" />
        <circle cx="37.579" cy="23.478" r="2.818" />
        <circle cx="30.511" cy="18.742" r="2.818" />
    </g>
</svg>