<?xml version="1.0" encoding="utf-8"?>
<!-- Generator: Adobe Illustrator 26.0.0, SVG Export Plug-In . SVG Version: 6.00 Build 0)  -->
<svg version="1.0" id="Layer_1" xmlns="http://www.w3.org/2000/svg" xmlns:xlink="http://www.w3.org/1999/xlink" x="0px" y="0px"
	 viewBox="0 0 50 50" enable-background="new 0 0 50 50" xml:space="preserve">
<g>
	<path fill="#00CBB8" d="M37.997,38.12l-0.01,0.98h0.01v3.6c0,0.5-0.41,0.9-0.9,0.9h-25.65c-0.5,0-0.9-0.4-0.9-0.9v-3.6h0.01
		l-0.01-0.98H37.997z"/>
	<path fill="#00CBB8" d="M46.937,20.06c-0.81,5.59-5.81,6.86-7.89,7.15c-0.54,0.07-0.94,0.51-0.94,1.05l-0.08,7.07h-27.5l-0.05-7.03
		c0-0.47-0.32-0.9-0.79-1.03c-1.74-0.45-5.84-1.84-6.51-4.98c-0.59-2.79-0.26-6.91,3.48-9.63c6.16-4.5,11.61,0.72,11.61,0.72
		c0-0.06-0.03-1.62-2.68-2.89c-0.67-0.32-0.82-1.21-0.28-1.73c3.07-2.98,10.94-5.03,15.54-0.45c4.3,4.3,4.46,8.02,3.68,10.38
		c1.69-1.91,1.77-5.24,0.11-7.95c-0.4-0.64,0-1.51,0.75-1.6C42.087,8.29,47.977,12.86,46.937,20.06z"/>
</g>
</svg>
