<svg version="1.0" id="Layer_1" xmlns="http://www.w3.org/2000/svg" xmlns:xlink="http://www.w3.org/1999/xlink" x="0px"
    y="0px" viewBox="0 0 50 50" enable-background="new 0 0 50 50" xml:space="preserve">
    <g>
        <g>
            <path fill="#FFD456" d="M40.383,40.49l-10.33-10.34l-1.78-1.78l-3.55,3.55c0.46,0.11,0.89,0.16,1.29,0.17L36.863,44
			c1.06,1.06,2.71,1.13,3.68,0.16C41.503,43.19,41.433,41.54,40.383,40.49z M17.483,17.59c-3.92-3.92-7.83-7.83-10.18-10.19
			c-0.34-0.33-0.75-0.48-1.22-0.42c-0.32,0.04-0.81,0.35-0.89,1.16c-0.35,3.31,2.08,9.06,10.72,17.7c0.31,0.31,0.61,0.61,0.91,0.88
			l4.9-4.9L17.483,17.59z M44.863,12.72c-0.55-0.55-1.31-0.69-1.7-0.3l-7.73,7.73c-0.38,0.38-1.1,0.29-1.59-0.2
			c-0.5-0.5-0.59-1.21-0.2-1.6l7.73-7.73c0.38-0.38,0.25-1.15-0.3-1.69c-0.55-0.55-1.31-0.69-1.69-0.3l-7.74,7.72
			c-0.38,0.39-1.1,0.3-1.6-0.2c-0.49-0.49-0.58-1.21-0.2-1.59l7.74-7.73c0.38-0.38,0.25-1.14-0.3-1.69
			c-0.55-0.55-1.31-0.68-1.69-0.3l-8.35,8.35c-2.72,2.73-1.85,4.63-0.3,6.35l-0.92,0.92l-12.73,12.73l-7.83,7.83
			c-1.06,1.06-1.13,2.71-0.16,3.68c0.97,0.96,2.62,0.89,3.68-0.16l7.83-7.83l12.73-12.73l0.92-0.93c1.72,1.56,3.62,2.43,6.36-0.3
			l8.34-8.34C45.543,14.02,45.413,13.26,44.863,12.72z" />
        </g>
    </g>
</svg>