<?xml version="1.0" encoding="utf-8"?>
<!-- Generator: Adobe Illustrator 26.0.0, SVG Export Plug-In . SVG Version: 6.00 Build 0)  -->
<svg version="1.0" id="Layer_1" xmlns="http://www.w3.org/2000/svg" xmlns:xlink="http://www.w3.org/1999/xlink" x="0px" y="0px"
	 viewBox="0 0 50 50" enable-background="new 0 0 50 50" xml:space="preserve">
<g>
	<path fill-rule="evenodd" clip-rule="evenodd" fill="#00CBB8" d="M45.425,22.672v14.24c0,0.77-0.66,1.44-1.43,1.44h-1.38v4.15
		c0,1.59-1.03,2.1-2.26,1.18l-7.12-5.33h-9.58c-0.72,0-1.39-0.67-1.39-1.44v-8.74h9.22c1.42,0,2.66-1.28,2.66-2.73v-4.21h9.85
		C44.765,21.232,45.425,21.902,45.425,22.672z"/>
	<path fill-rule="evenodd" clip-rule="evenodd" fill="#FF54D8" d="M32.395,7.582v17.11c0,0.92-0.8,1.73-1.66,1.73h-11.51l-8.55,6.4
		c-0.5,0.37-0.97,0.55-1.37,0.55c-0.8,0-1.34-0.7-1.34-1.97v-4.98h-1.66c-0.93,0-1.73-0.81-1.73-1.73V7.582
		c0-0.92,0.8-1.72,1.73-1.72h24.43C31.595,5.862,32.395,6.662,32.395,7.582z"/>
</g>
</svg>
