<?xml version="1.0" encoding="utf-8"?>
<!-- Generator: Adobe Illustrator 26.0.0, SVG Export Plug-In . SVG Version: 6.00 Build 0)  -->
<svg version="1.0" id="Layer_1" xmlns="http://www.w3.org/2000/svg" xmlns:xlink="http://www.w3.org/1999/xlink" x="0px" y="0px"
	 viewBox="0 0 50 50" enable-background="new 0 0 50 50" xml:space="preserve">
<path fill="#00CBB8" d="M16.465,9.662l0,24.281c0,0.327-0.363,0.522-0.632,0.337c-1.119-0.766-2.515-1.221-4.031-1.221
	c-3.675,0-6.655,2.675-6.655,5.975c0,3.3,2.979,5.975,6.655,5.975s6.655-2.675,6.655-5.975V17.102c0-0.2,0.144-0.371,0.341-0.404
	l20.583-3.506c0.25-0.043,0.479,0.15,0.479,0.404l0,16.022c0,0.327-0.363,0.522-0.632,0.337c-1.119-0.766-2.515-1.221-4.031-1.221
	c-3.675,0-6.655,2.675-6.655,5.975c0,3.3,2.979,5.975,6.655,5.975s6.655-2.675,6.655-5.975V5.478c0-0.254-0.229-0.447-0.479-0.404
	L16.807,9.257C16.61,9.291,16.465,9.462,16.465,9.662z"/>
</svg>
