<svg version="1.0" id="Layer_1" xmlns="http://www.w3.org/2000/svg" xmlns:xlink="http://www.w3.org/1999/xlink" x="0px"
    y="0px" viewBox="0 0 50 50" enable-background="new 0 0 50 50" xml:space="preserve">
    <path fill="#FF54D8" d="M16.351,43.325l-2.985-5.097c-0.14-0.239-0.451-0.322-0.691-0.183c-0.693,0.4-1.114,0.577-1.204,0.487
	c-0.091-0.093,0.088-0.514,0.487-1.205c0.139-0.24,0.056-0.551-0.183-0.691L6.677,33.65c-0.437-0.256-0.271-0.924,0.235-0.946
	l8.135-0.351c0.156-0.007,0.296-0.08,0.387-0.207c2.317-3.244,5.472-7.443,9.034-11.984c0.1-0.127,0.197-0.241,0.297-0.365
	L9.367,7.603c-0.39-0.309-0.149-0.936,0.347-0.905l3.173,0.2c0.059,0.004,0.118,0.018,0.172,0.042l4.584,2.014
	c0.213,0.094,0.454,0.022,0.604-0.155c0.734-0.865,1.616-1.181,2.126-0.674c0.337,0.343,0.303,0.856-0.018,1.378
	c-0.163,0.266-0.07,0.614,0.216,0.74l3.057,1.345c0.214,0.094,0.456,0.022,0.606-0.157c0.741-0.887,1.632-1.219,2.151-0.7
	c0.345,0.346,0.306,0.87-0.03,1.402c-0.168,0.266-0.075,0.617,0.212,0.744l2.765,1.218c0.191,0.084,0.417,0.038,0.564-0.11
	c5.82-5.87,11.16-8.914,13.098-6.986c1.93,1.938-1.114,7.283-6.984,13.099c-0.149,0.147-0.195,0.373-0.11,0.564l1.219,2.769
	c0.127,0.288,0.478,0.38,0.744,0.212c0.532-0.336,1.056-0.376,1.406-0.028c0.513,0.515,0.183,1.406-0.702,2.148
	c-0.179,0.15-0.251,0.392-0.157,0.606l1.345,3.054c0.126,0.286,0.474,0.379,0.74,0.215c0.522-0.321,1.034-0.354,1.38-0.011
	c0.506,0.504,0.185,1.386-0.68,2.121c-0.177,0.15-0.248,0.391-0.154,0.604l2.016,4.59c0.024,0.054,0.038,0.113,0.042,0.172
	l0.202,3.171c0.032,0.497-0.596,0.738-0.905,0.348L30.198,25.237c-0.12,0.102-0.237,0.2-0.363,0.297
	c-4.537,3.564-8.739,6.718-11.981,9.035c-0.127,0.091-0.2,0.231-0.206,0.386l-0.352,8.133
	C17.275,43.596,16.607,43.761,16.351,43.325z" />
</svg>