<?xml version="1.0" encoding="utf-8"?>
<!-- Generator: Adobe Illustrator 26.0.0, SVG Export Plug-In . SVG Version: 6.00 Build 0)  -->
<svg version="1.0" id="Layer_1" xmlns="http://www.w3.org/2000/svg" xmlns:xlink="http://www.w3.org/1999/xlink" x="0px" y="0px"
	 viewBox="0 0 50 50" enable-background="new 0 0 50 50" xml:space="preserve">
<g>
	<path fill="#1F448E" d="M2.505,25.021C2.445,12.559,12.661,2.543,24.906,2.5c12.508-0.044,22.596,10.191,22.589,22.492
		C47.488,37.437,37.308,47.527,24.971,47.5C12.487,47.473,2.457,37.293,2.505,25.021z M25.041,46.427
		c11.944-0.093,21.371-9.501,21.36-21.457C46.39,13.078,36.763,3.548,24.912,3.588C13.048,3.628,3.595,13.049,3.588,24.991
		C3.581,36.406,12.718,46.366,25.041,46.427z"/>
	<path fill="#1F448E" d="M24.987,46.296C13.06,46.225,3.591,36.639,3.711,24.779C3.829,13.065,13.298,3.705,25.013,3.717
		c11.903,0.013,21.374,9.66,21.265,21.468C46.168,36.939,36.683,46.254,24.987,46.296z M25.002,45.748
		c11.447,0.046,20.693-9.167,20.746-20.661c0.053-11.42-9.272-20.83-20.734-20.845C13.519,4.228,4.241,13.457,4.241,24.982
		C4.24,36.102,13.265,45.788,25.002,45.748z"/>
	<path fill="#1F448E" d="M12.111,11.561c-0.154,0.125-0.25,0.078-0.358-0.004c-0.285-0.214-0.49-0.54-0.869-0.624
		c-0.049-0.011-0.049-0.06-0.016-0.098c0.061-0.071,0.13-0.107,0.209-0.029c0.141,0.138,0.276,0.281,0.418,0.417
		c0.056,0.054,0.093,0.134,0.2,0.154c-0.079-0.255-0.235-0.457-0.345-0.682c-0.122-0.248-0.123-0.254,0.147-0.442
		c-0.023,0.265-0.055,0.513,0.221,0.675c0.094,0.055-0.016,0.235,0.049,0.349c0.053,0.093,0.045,0.285,0.178,0.249
		c0.157-0.043,0.106-0.211,0.061-0.338c-0.019-0.053-0.038-0.106-0.061-0.169c0.086-0.014,0.099,0.057,0.133,0.091
		c0.119,0.121,0.198,0.106,0.278-0.048c0.107-0.205,0.218-0.402,0.152-0.648c-0.02-0.074,0.016-0.17-0.122-0.163
		c-0.083,0.004-0.084-0.082-0.063-0.129c0.052-0.118-0.004-0.217-0.066-0.346c0.232,0.044,0.387,0.137,0.471,0.322
		c0.07,0.155,0.131,0.113,0.195,0.003c0.082-0.141,0.17-0.281,0.237-0.43c0.056-0.124,0.032-0.242-0.137-0.232
		c-0.192,0.012-0.242-0.127-0.353-0.287c0.194,0.052,0.335,0.11,0.501,0.092c0.178-0.019,0.112,0.179,0.163,0.305
		c0.214-0.214,0.419-0.42,0.625-0.626c0.072-0.072,0.056-0.146,0.006-0.222c-0.044-0.068-0.084-0.137-0.161-0.263
		c0.169,0.088,0.336,0.012,0.404,0.192c0.026,0.067,0.062,0.019,0.094,0.001c0.289-0.159,0.339-0.273,0.268-0.597
		c-0.005-0.022-0.001-0.046-0.001-0.078c0.103,0.036,0.12,0.136,0.178,0.199c0.054,0.059,0.111,0.063,0.175,0.025
		c0.064-0.038,0.132-0.076,0.11-0.17c-0.025-0.105-0.151-0.188-0.071-0.316c0.041-0.065,0.318-0.208,0.514-0.261
		C15.391,7.547,15.268,7.6,15.228,7.72c-0.021,0.063-0.05,0.126,0.002,0.185c0.06,0.069,0.119,0.022,0.176-0.007
		c0.044-0.022,0.087-0.046,0.131-0.068c0.357-0.18,0.357-0.18,0.232-0.58c0.138,0.087,0.309,0.031,0.37,0.227
		c0.03,0.097,0.113,0.033,0.153-0.015c0.097-0.116,0.164-0.226,0.357-0.107c0.088,0.054,0.262-0.015,0.283-0.191
		c0.011-0.089,0.008-0.181,0.084-0.285c0.021,0.099,0.033,0.18,0.056,0.258c0.014,0.048,0.048,0.092,0.106,0.083
		c0.027-0.004,0.073-0.045,0.07-0.053c-0.107-0.256,0.163-0.287,0.265-0.457c0.055,0.248,0.3,0.239,0.44,0.375
		c0.057,0.055,0.223,0.036,0.305-0.079c0.052-0.073,0.11-0.142,0.167-0.212c0.096-0.118,0.118-0.224-0.06-0.279
		C18.22,6.47,18.2,6.358,18.183,6.226c0.124-0.006,0.18,0.095,0.273,0.122c0.244,0.07,0.268,0.142,0.139,0.356
		c-0.034,0.056-0.075,0.108-0.109,0.164c-0.064,0.106-0.038,0.173,0.091,0.182c0.245,0.016,0.491,0.029,0.736,0.043
		c0.137,0.008,0.186-0.049,0.125-0.177c-0.035-0.074-0.061-0.171-0.122-0.21c-0.308-0.2-0.224-0.466-0.132-0.753
		c0.121,0.182,0.143,0.392,0.219,0.581c0.077,0.193,0.043,0.484,0.253,0.559c0.294,0.104,0.615,0.207,0.938,0.129
		c1.685-0.405,3.393-0.58,5.124-0.511c2.345,0.095,4.594,0.617,6.737,1.576c1.651,0.739,3.159,1.707,4.527,2.889
		c1.54,1.331,2.817,2.885,3.839,4.644c1.312,2.259,2.115,4.686,2.377,7.288c0.373,3.693-0.305,7.186-2.027,10.471
		c-0.75,1.431-1.677,2.745-2.802,3.907c-0.325,0.335-0.407,0.755-0.587,1.144c-0.01,0.022-0.006,0.052-0.019,0.071
		c-0.227,0.335-0.074,0.591,0.153,0.852c0.163,0.187,0.308,0.347,0.593,0.209c-0.188,0.168-0.376,0.336-0.568,0.507
		c-0.078-0.096-0.03-0.179-0.033-0.256c-0.006-0.15-0.063-0.27-0.182-0.36c-0.217-0.162-0.217-0.161-0.201-0.483
		c-0.181,0.279-0.333,0.511-0.48,0.745c-0.041,0.066,0.005,0.124,0.064,0.131c0.191,0.023,0.19,0.154,0.201,0.298
		c0.008,0.103,0.053,0.203,0.054,0.328c-0.11-0.132-0.216-0.268-0.332-0.394c-0.047-0.051-0.077-0.176-0.185-0.101
		c-0.078,0.054-0.112,0.144-0.071,0.241c0.076,0.18,0.075,0.364,0.041,0.612c-0.056-0.159-0.025-0.28-0.087-0.377
		c-0.049-0.077-0.114-0.137-0.201-0.083c-0.081,0.05-0.016,0.118,0.019,0.168c0.063,0.089,0.076,0.152-0.042,0.213
		c-0.059,0.03-0.094,0.107-0.158,0.183c-0.13-0.275-0.266-0.165-0.412-0.015c-0.091,0.093-0.204,0.165-0.299,0.256
		c-0.058,0.056-0.185,0.087-0.123,0.206c0.05,0.095,0.123,0.177,0.251,0.164c0.038-0.004,0.077-0.01,0.125,0.006
		c-0.165,0.167-0.358,0.287-0.568,0.384c-0.013-0.027-0.025-0.041-0.025-0.056c-0.001-0.134,0.138-0.289-0.041-0.394
		c-0.066-0.039-0.462,0.279-0.479,0.376c-0.027,0.162-0.05,0.323-0.184,0.502c0.007-0.116,0.015-0.188,0.015-0.26
		c0.001-0.064,0.018-0.136-0.041-0.184c-0.038-0.031-0.079-0.003-0.113,0.019c-0.071,0.048-0.086,0.116-0.059,0.195
		c0.012,0.036,0.025,0.072,0.029,0.143c-0.289-0.279-0.544-0.072-0.805,0.017c-0.044,0.015-0.102,0.03-0.094,0.094
		c0.006,0.05,0.059,0.046,0.096,0.061c0.155,0.063,0.155,0.064,0.237,0.311c-0.159-0.073-0.291-0.173-0.461-0.144
		c-0.055,0.009-0.068-0.059-0.083-0.106c-0.053-0.162-0.162-0.052-0.245-0.043c-0.073,0.008-0.128,0.009-0.123,0.141
		c0.006,0.163-0.061,0.333-0.024,0.558c-0.151-0.146-0.166-0.305-0.239-0.43c-0.078-0.134-0.407-0.178-0.511-0.064
		c-0.06,0.066-0.012,0.124,0.017,0.179c0.089,0.176,0.215,0.324,0.365,0.463c-0.162,0.132-0.245,0.068-0.311-0.08
		c-0.081-0.183-0.111-0.39-0.273-0.588c-0.033,0.242-0.016,0.443,0.019,0.636c0.043,0.234-0.041,0.341-0.296,0.363
		c0.037-0.151,0.167-0.252,0.157-0.407c-0.011-0.165-0.191-0.296-0.091-0.483c0.012-0.022-0.043-0.051-0.074-0.042
		c-0.229,0.066-0.455-0.031-0.684-0.007c-0.155,0.016-0.223,0.08-0.222,0.23c0.002,0.243,0.072,0.468,0.167,0.688
		c0.078,0.182,0.244,0.115,0.454,0.118c-0.302,0.144-0.55,0.207-0.789,0.28c-0.069-0.076-0.012-0.122,0.011-0.167
		c0.055-0.108,0.091-0.238,0.041-0.333c-0.122-0.232-0.171-0.439-0.015-0.682c0.06-0.094-0.066-0.15-0.159-0.165
		c-0.299-0.049-0.599-0.093-0.898-0.142c-0.14-0.023-0.249,0.068-0.376,0.095c-0.963,0.207-1.931,0.366-2.916,0.435
		c-1.872,0.131-3.719-0.01-5.543-0.446c-2.792-0.667-5.295-1.916-7.499-3.759c-2.012-1.682-3.592-3.704-4.74-6.059
		c-0.939-1.928-1.521-3.96-1.733-6.097C6.421,23.223,7.084,19.744,8.79,16.47c0.758-1.456,1.71-2.778,2.834-3.975
		C11.956,12.14,11.962,12.146,12.111,11.561z M38.36,13.603c-0.222,0.262-0.445,0.523-0.665,0.788
		c-0.07,0.084-0.128,0.178-0.037,0.286c0.335,0.395,0.289,0.513,0.758,0.25c0.024-0.013,0.059-0.033,0.077,0.014
		c-0.313,0.396-0.313,0.396-0.217,0.543c0.238,0.364,0.238,0.364,0.802,0.231c-0.354,0.401-0.354,0.401-0.263,0.565
		c0.219,0.394,0.219,0.394,0.766,0.308c-0.098,0.19-0.423,0.247-0.257,0.581c0.161,0.323,0.352,0.439,0.75,0.237
		c-0.402,0.456-0.398,0.454-0.218,0.803c0.063,0.122,0.138,0.157,0.275,0.135c0.343-0.054,0.668-0.167,0.994-0.277
		c0.161-0.054,0.192-0.146,0.122-0.302c-0.663-1.465-1.5-2.822-2.523-4.064c-0.106-0.129-0.207-0.205-0.366-0.097
		c0.1-0.109,0.118-0.197,0.001-0.329c-1.09-1.229-2.311-2.306-3.693-3.197c-0.075-0.048-0.147-0.11-0.247-0.067
		c-0.019-0.122-0.118-0.17-0.21-0.224c-0.606-0.362-1.226-0.696-1.869-0.988c-2.202-1.002-4.514-1.516-6.929-1.586
		c-0.796-0.023-1.59,0.019-2.381,0.105c-0.51,0.056-1.021,0.123-1.53,0.253c0.062,0.095,0.155,0.112,0.233,0.147
		c0.414,0.185,0.798,0.42,1.168,0.679c0.26,0.182,0.261,0.18,0.296-0.136c0.001-0.01,0.021-0.017,0.035-0.028
		c0.076,0.093,0.072,0.215,0.115,0.319c0.037,0.089,0.079,0.154,0.188,0.166c0.396,0.041,0.532-0.071,0.593-0.455
		c0.045-0.282,0.037-0.568,0.074-0.852c0.075,0.291,0.116,0.583,0.18,0.87c0.091,0.41,0.124,0.418,0.532,0.37
		c0.183-0.021,0.285-0.091,0.315-0.276c0.01-0.063-0.005-0.145,0.055-0.186c0.149,0.137-0.014,0.447,0.319,0.487
		c0.4,0.048,0.673-0.042,0.687-0.546c0.132,0.229-0.051,0.541,0.285,0.591c0.16,0.024,0.328,0.094,0.485,0.031
		c0.177-0.07,0.143-0.293,0.252-0.431c0.075,0.194-0.04,0.45,0.255,0.541c0.394,0.122,0.658,0.031,0.76-0.415
		c0.013,0.119,0.002,0.207,0.002,0.296c0,0.099,0.009,0.198,0.105,0.26c0.3,0.196,0.569,0.131,0.716-0.191
		c0.131-0.288,0.239-0.586,0.357-0.88c-0.023,0.353-0.095,0.696-0.107,1.047c-0.007,0.196,0.055,0.301,0.251,0.352
		c0.418,0.109,0.384,0.227,0.632-0.255c0.014-0.027,0.037-0.048,0.068-0.087c0.061,0.218-0.151,0.465,0.146,0.624
		c0.369,0.198,0.618,0.109,0.782-0.314c0.047,0.255-0.195,0.481,0.075,0.64c0.389,0.229,0.413,0.222,0.821-0.11
		c0.066,0.173-0.198,0.406,0.1,0.536c0.142,0.062,0.276,0.175,0.421,0.19c0.167,0.017,0.203-0.227,0.381-0.303
		c-0.019,0.077-0.022,0.127-0.043,0.169c-0.129,0.265,0.039,0.368,0.232,0.495c0.2,0.131,0.311,0.067,0.458-0.079
		c0.257-0.256,0.445-0.567,0.696-0.826c-0.04,0.089-0.076,0.181-0.122,0.267c-0.144,0.268-0.269,0.543-0.364,0.833
		c-0.029,0.09-0.039,0.166,0.045,0.243c0.332,0.306,0.442,0.311,0.777,0.015c0.014-0.013,0.04-0.013,0.063-0.021
		c0.007,0.192-0.261,0.352-0.056,0.543c0.124,0.116,0.247,0.253,0.415,0.3c0.181,0.05,0.256-0.198,0.44-0.21
		c-0.033,0.191-0.267,0.338-0.08,0.531c0.113,0.117,0.235,0.239,0.377,0.311c0.171,0.087,0.264-0.155,0.493-0.168
		c-0.207,0.241-0.246,0.424-0.015,0.656c0.221,0.222,0.405,0.244,0.659,0.062c-0.015,0.077-0.024,0.119-0.049,0.147
		c-0.221,0.253,0.015,0.388,0.136,0.56c0.142,0.201,0.286,0.094,0.425,0.012C37.833,13.933,38.095,13.766,38.36,13.603z
		 M15.523,40.035c0.011,0.012,0.021,0.027,0.034,0.035c1.358,0.88,2.822,1.523,4.369,1.987c0.116,0.035,0.167-0.019,0.218-0.098
		c0.002,0.194,0.157,0.205,0.29,0.24c2.28,0.597,4.589,0.746,6.925,0.432c0.389-0.052,0.781-0.097,1.177-0.209
		c-0.333-0.169-0.643-0.318-0.945-0.483c-0.303-0.165-0.581-0.368-0.855-0.579c-0.22-0.17-0.388-0.091-0.423,0.185
		c-0.011,0.089-0.015,0.178-0.025,0.3c-0.145-0.199-0.033-0.487-0.378-0.525c-0.416-0.047-0.403,0.253-0.474,0.579
		c-0.035-0.149-0.046-0.213-0.065-0.274c-0.038-0.123-0.01-0.293-0.233-0.274c-0.201,0.018-0.406-0.027-0.427,0.287
		c-0.022,0.338-0.094,0.674-0.144,1.01c-0.054-0.353-0.041-0.707-0.112-1.052c-0.022-0.108-0.018-0.231-0.173-0.262
		c-0.319-0.064-0.424-0.004-0.516,0.308c-0.013,0.044-0.002,0.102-0.058,0.128c-0.112-0.471-0.114-0.46-0.472-0.513
		c-0.352-0.052-0.221,0.299-0.369,0.415c-0.097-0.156,0.06-0.412-0.242-0.499c-0.353-0.101-0.508,0.049-0.593,0.383
		c-0.031-0.259,0.012-0.478-0.339-0.551c-0.372-0.077-0.366,0.202-0.506,0.421c-0.008-0.109-0.023-0.172-0.015-0.231
		c0.032-0.225-0.071-0.314-0.285-0.368c-0.232-0.058-0.293,0.08-0.36,0.232c-0.132,0.299-0.258,0.601-0.387,0.902
		c0.022-0.36,0.145-0.705,0.15-1.068c0.002-0.167-0.06-0.239-0.214-0.303c-0.26-0.108-0.398-0.021-0.489,0.218
		c-0.019,0.051-0.035,0.118-0.096,0.132c-0.081-0.193,0.213-0.429-0.096-0.571c-0.11-0.05-0.241-0.117-0.348-0.097
		c-0.192,0.034-0.194,0.28-0.332,0.397c-0.067-0.209,0.243-0.466-0.122-0.618c-0.39-0.163-0.385-0.174-0.769,0.218
		c-0.061-0.195,0.234-0.427-0.053-0.59c-0.147-0.084-0.293-0.207-0.467-0.201c-0.176,0.005-0.227,0.226-0.402,0.32
		c0.028-0.098,0.04-0.163,0.065-0.222c0.085-0.201,0.045-0.345-0.173-0.423c-0.045-0.016-0.087-0.047-0.126-0.076
		c-0.134-0.102-0.238-0.08-0.362,0.039c-0.256,0.244-0.45,0.54-0.699,0.789c0.066-0.266,0.229-0.488,0.326-0.741
		c0.164-0.431,0.162-0.417-0.196-0.684c-0.175-0.131-0.298-0.128-0.439,0.031c-0.049,0.056-0.091,0.136-0.193,0.14
		c-0.007-0.195,0.281-0.357,0.072-0.56c-0.122-0.119-0.259-0.235-0.41-0.312c-0.192-0.099-0.277,0.181-0.452,0.188
		c-0.01-0.19,0.264-0.319,0.057-0.526c-0.348-0.346-0.343-0.351-0.841-0.168c0.001-0.18,0.3-0.314,0.085-0.521
		c-0.129-0.125-0.228-0.304-0.398-0.357c-0.174-0.054-0.294,0.16-0.486,0.199c0.078-0.181,0.273-0.282,0.231-0.475
		c-0.069-0.321-0.431-0.476-0.711-0.31c-0.295,0.175-0.584,0.361-0.876,0.542c0.238-0.303,0.557-0.533,0.774-0.855
		c0.059-0.088,0.128-0.165,0.064-0.288c-0.228-0.438-0.364-0.488-0.819-0.281c-0.021,0.01-0.046,0.013-0.053-0.014
		c0.057-0.193,0.399-0.239,0.262-0.521c-0.18-0.372-0.422-0.589-0.861-0.28c0.385-0.401,0.385-0.401,0.306-0.561
		c-0.23-0.464-0.23-0.464-0.782-0.386c0.336-0.402,0.325-0.396,0.125-0.801c-0.171-0.346-0.416-0.038-0.619-0.094
		c0.006-0.072,0.073-0.081,0.117-0.109c0.197-0.122,0.293-0.258,0.169-0.505c-0.166-0.329-0.164-0.334-0.491-0.285
		c-0.342,0.052-0.66,0.194-0.999,0.253C8.649,31.575,8.721,31.52,8.8,31.48c0.272-0.136,0.539-0.279,0.783-0.462
		c0.063-0.047,0.131-0.089,0.121-0.195c-0.036-0.4-0.218-0.56-0.616-0.532c-0.024,0.002-0.05-0.006-0.043-0.052
		c0.128-0.136,0.452-0.161,0.304-0.481c-0.065-0.14-0.048-0.321-0.167-0.43C9.03,29.19,8.836,29.34,8.651,29.294
		c0.153-0.173,0.507-0.117,0.442-0.503c-0.065-0.384-0.197-0.609-0.666-0.496c0.167-0.197,0.497-0.117,0.469-0.456
		c-0.033-0.396-0.146-0.677-0.642-0.612c0.092-0.052,0.16-0.081,0.23-0.096c0.23-0.049,0.322-0.174,0.245-0.407
		c-0.015-0.045-0.017-0.098-0.014-0.146c0.012-0.171-0.088-0.23-0.235-0.253c-0.243-0.039-0.487-0.063-0.734-0.062
		C7.262,26.263,7.256,26.26,7.3,26.743c0.147,1.611,0.536,3.165,1.12,4.672c0.032,0.084,0.056,0.175,0.156,0.207
		c-0.049,0.093-0.003,0.173,0.032,0.256c0.585,1.404,1.351,2.704,2.27,3.914c0.15,0.198,0.269,0.432,0.504,0.556
		c0.028,0.125,0.114,0.215,0.194,0.307c0.666,0.766,1.385,1.479,2.173,2.118C14.312,39.231,14.878,39.689,15.523,40.035z
		 M10.045,15.713c0.317,0.131,0.633,0.263,0.952,0.391c0.09,0.036,0.181,0.067,0.274-0.015c0.323-0.285,0.339-0.523,0.051-0.844
		c-0.02-0.023-0.051-0.047-0.005-0.09c0.062,0.027,0.13,0.054,0.194,0.087c0.144,0.075,0.224,0.049,0.196-0.128
		c-0.102-0.624-0.083-1.248-0.001-1.931c-0.437,0.485-0.815,0.943-1.156,1.431c-0.229,0.327-0.49,0.635-0.646,1.01
		c-0.038,0.043-0.082,0.081-0.112,0.129c-0.908,1.484-1.581,3.067-2.015,4.753c-0.021,0.083-0.028,0.161,0.01,0.239
		c-0.115,0.057-0.112,0.174-0.136,0.274c-0.258,1.096-0.393,2.209-0.439,3.332c-0.022,0.547-0.039,1.098,0.028,1.645
		c0.019,0.153,0.076,0.228,0.235,0.197c0.297-0.057,0.597-0.097,0.892-0.175c0.217-0.057,0.31-0.156,0.299-0.393
		c-0.021-0.429-0.007-0.43-0.426-0.53c-0.038-0.009-0.076-0.019-0.129-0.032c0.188-0.127,0.499,0.001,0.548-0.332
		c0.058-0.396-0.038-0.672-0.525-0.696c0.23-0.085,0.509,0.017,0.567-0.32c0.065-0.38,0.012-0.665-0.471-0.708
		c0.544-0.134,0.525-0.138,0.615-0.545c0.083-0.378-0.258-0.338-0.456-0.486c0.1-0.006,0.165-0.02,0.228-0.013
		c0.32,0.035,0.331-0.199,0.396-0.416c0.066-0.22-0.031-0.304-0.205-0.396c-0.328-0.174-0.697-0.239-1.025-0.411
		c0.32,0.003,0.629,0.102,0.951,0.1c0.436-0.003,0.426,0.003,0.557-0.4c0.062-0.192,0.032-0.311-0.153-0.395
		c-0.054-0.024-0.13-0.036-0.144-0.116c0.51-0.095,0.515-0.094,0.64-0.553c0.089-0.326-0.292-0.287-0.386-0.475
		c0.202-0.045,0.449,0.218,0.608-0.098c0.216-0.43,0.218-0.429-0.145-0.844c0.197-0.036,0.416,0.194,0.586-0.11
		c0.186-0.332,0.235-0.593-0.15-0.826c0.127,0.012,0.218,0.042,0.312,0.061c0.069,0.014,0.14,0.051,0.212,0.001
		c0.272-0.191,0.297-0.583,0.045-0.803C10.496,16.089,10.269,15.903,10.045,15.713z M40.525,33.592
		c0.083-0.048,0.125-0.128,0.167-0.208c0.611-1.157,1.098-2.365,1.448-3.626c0.372-1.341,0.569-2.71,0.634-4.098
		c0.033-0.713,0.005-1.427-0.049-2.138c-0.01-0.135-0.027-0.282-0.22-0.251c-0.356,0.058-0.713,0.117-1.052,0.246
		c-0.077,0.029-0.148,0.06-0.16,0.163c-0.052,0.439,0.042,0.581,0.456,0.671c0.031,0.007,0.064,0.016,0.067,0.058
		c-0.156,0.112-0.448-0.019-0.493,0.3c-0.056,0.398,0.062,0.647,0.566,0.642c-0.24,0.145-0.562,0.002-0.57,0.371
		c-0.01,0.467-0.022,0.467,0.519,0.686c-0.389-0.007-0.585,0.093-0.622,0.468c-0.038,0.38,0.25,0.374,0.499,0.506
		c-0.154,0.011-0.251,0.014-0.347,0.026c-0.091,0.012-0.174,0.043-0.219,0.136c-0.163,0.337-0.082,0.545,0.27,0.685
		c0.122,0.049,0.245,0.095,0.369,0.136c0.171,0.055,0.344,0.104,0.517,0.156c-0.369,0.008-0.723-0.053-1.084-0.044
		c-0.173,0.004-0.266,0.051-0.305,0.237c-0.095,0.447-0.104,0.445,0.309,0.636c0.027,0.012,0.065,0.018,0.057,0.058
		c-0.195,0.077-0.46-0.141-0.598,0.183c-0.149,0.35-0.157,0.625,0.329,0.761c-0.253,0.066-0.495-0.135-0.614,0.139
		c-0.065,0.149-0.13,0.309-0.141,0.467c-0.013,0.184,0.24,0.191,0.313,0.349c-0.192,0.035-0.401-0.132-0.54,0.122
		c-0.172,0.313-0.271,0.593,0.165,0.807c-0.112-0.003-0.185-0.014-0.252-0.037c-0.264-0.093-0.316,0.112-0.407,0.276
		c-0.087,0.155-0.143,0.279,0.049,0.414c0.294,0.206,0.567,0.441,0.85,0.663c-0.348-0.12-0.669-0.309-1.031-0.393
		c-0.085-0.02-0.183-0.071-0.248,0.026c-0.104,0.156-0.236,0.308-0.265,0.492c-0.022,0.137,0.147,0.202,0.224,0.305
		c0.019,0.025,0.044,0.053,0.009,0.079c-0.175,0.026-0.343-0.239-0.512-0.002c-0.095,0.133-0.219,0.263-0.258,0.412
		c-0.046,0.176,0.205,0.246,0.248,0.413c-0.1,0.021-0.158-0.082-0.253-0.042c0.031,0.622,0.048,1.245-0.029,1.931
		c0.673-0.753,1.235-1.503,1.731-2.302C40.228,34.19,40.439,33.924,40.525,33.592z M32.111,27.965
		c0.088,0.182,0.308,0.014,0.383,0.166c0.058,0.116,0.137,0.177,0.248,0.218c0.07,0.026,0.117,0.077,0.096,0.15
		c-0.062,0.205,0.077,0.229,0.219,0.269c0.515,0.144,1.014,0.331,1.485,0.584c1.129,0.606,2.043,1.446,2.733,2.528
		c0.038,0.059,0.077,0.175,0.147,0.14c0.142-0.071,0.128-0.004,0.145,0.098c0.024,0.143,0.142,0.22,0.271,0.259
		c0.136,0.041,0.15-0.096,0.204-0.169c0.042-0.056,0.08-0.096,0.162-0.074c0.222,0.061,0.348,0.346,0.238,0.567
		c-0.117-0.106-0.184-0.334-0.361-0.283c-0.152,0.044-0.019,0.227-0.029,0.343c-0.081,0.055-0.31-0.16-0.24,0.1
		c0.092,0.342,0.25,0.667,0.341,1.019c0.048-0.024,0.068-0.027,0.076-0.038c0.044-0.059,0.087-0.119,0.127-0.181
		c1.929-2.998,2.756-6.276,2.513-9.83c-0.113-1.659-0.488-3.255-1.11-4.796c-0.071-0.175-0.128-0.356-0.313-0.454
		c-0.061-0.032-0.108-0.091-0.07-0.163c0.076-0.141,0.001-0.252-0.056-0.369c-0.673-1.37-1.521-2.619-2.549-3.752
		c-1.534-1.691-3.346-2.986-5.434-3.902c-0.066-0.029-0.133-0.105-0.219-0.038c0.003,0.02,0,0.039,0.008,0.051
		c0.04,0.062,0.082,0.123,0.124,0.183c0.843,1.204,1.514,2.496,1.977,3.891c0.675,2.034,0.928,4.117,0.716,6.255
		c-0.188,1.891-0.699,3.683-1.563,5.377c-0.389,0.762-0.847,1.48-1.348,2.172c-0.041,0.056-0.13,0.108-0.086,0.187
		c0.041,0.074,0.134,0.039,0.205,0.04c0.212,0.004,0.424,0.001,0.64,0.001c0.04-0.063-0.058-0.13,0.002-0.217
		c0.063,0.097,0.1,0.217,0.219,0.247c0.035,0.009,0.082-0.001,0.114-0.018c0.032-0.017,0.031-0.068,0.003-0.083
		C31.87,28.306,32.106,28.143,32.111,27.965z M19.16,21.295c-0.394-0.013-0.803,0.002-1.21-0.048c-1.666-0.205-3.095-0.9-4.27-2.089
		c-0.813-0.823-1.4-1.794-1.73-2.912c-0.018-0.06-0.018-0.149-0.088-0.165c-0.093-0.02-0.111,0.081-0.15,0.137
		c-0.451,0.649-0.827,1.34-1.159,2.055c-1.282,2.763-1.727,5.662-1.362,8.68c0.254,2.102,0.924,4.073,1.978,5.91
		c1.728,3.01,4.169,5.243,7.329,6.685c0.176,0.08,0.357,0.148,0.509,0.21C14.924,33.576,14.98,27.439,19.16,21.295z M24.575,14.173
		c0.077-3.058-2.516-5.839-5.806-5.832c-3.232,0.007-5.852,2.607-5.854,5.828c-0.001,3.232,2.601,5.807,5.838,5.841
		C21.898,20.042,24.651,17.377,24.575,14.173z M32.942,41.501c-0.107-0.015-0.065,0.12-0.145,0.088
		c-0.046-0.019-0.067-0.075-0.052-0.126c0.02-0.068,0.087-0.077,0.141-0.075c0.131,0.006,0.165,0.121,0.209,0.215
		c0.057,0.123,0.119,0.238,0.274,0.251c0.121,0.01,0.23,0.035,0.346,0.092c0.118,0.058,0.255-0.009,0.297-0.166
		c0.035-0.134,0.067-0.268,0.112-0.45c-0.081,0.089-0.162,0.139-0.208,0.035c-0.067-0.152-0.075-0.305,0.082-0.439
		c0.016,0.217,0.016,0.221,0.235,0.247c0.098,0.012,0.09,0.08,0.098,0.142c0.046,0.396,0.046,0.397,0.394,0.186
		c0.077-0.047,0.156-0.093,0.222-0.153c0.175-0.158,0.199-0.431,0.058-0.585c0.057,0.25,0.057,0.25-0.064,0.363
		c0.043-0.218-0.155-0.362-0.099-0.564c-0.124-0.008-0.02,0.163-0.132,0.134c-0.037-0.01-0.075-0.067-0.088-0.11
		c-0.017-0.055,0.038-0.085,0.08-0.109c0.063-0.038,0.126-0.03,0.184,0.014c0.039,0.03,0.074,0.065,0.111,0.097
		c0.05,0.042,0.101,0.099,0.172,0.061c0.084-0.046,0.028-0.115,0.012-0.173c-0.033-0.125-0.058-0.247,0.033-0.358
		c0.116,0.059,0.042,0.26,0.178,0.239c0.284-0.045,0.147,0.139,0.18,0.255c-0.089-0.007-0.066-0.086-0.117-0.108
		c0,0.168-0.206,0.234-0.193,0.415c0.003,0.049-0.059,0.11,0.009,0.149c0.059,0.035,0.109-0.017,0.152-0.052
		c0.102-0.082,0.202-0.167,0.302-0.252c0.096-0.082,0.128-0.136,0.07-0.297c-0.06-0.165-0.148-0.29-0.239-0.427
		c-0.065-0.098-0.078-0.206,0.013-0.316c0.1,0.22,0.105,0.225,0.2,0.212c0.262-0.036,0.307,0.011,0.257,0.27
		c-0.012,0.062-0.053,0.141,0.025,0.175c0.073,0.032,0.107-0.056,0.156-0.094c0.263-0.208,0.388-0.524,0.593-0.779
		c0.37-0.46,0.636-1.002,0.779-1.578c0.057-0.229,0.145-0.443,0.202-0.665c0.18-0.703,0.22-1.424,0.157-2.148
		c-0.011-0.122,0.005-0.275-0.061-0.356c-0.101-0.122-0.202,0.083-0.325,0.069c-0.036-0.004-0.095-0.024-0.125,0.036
		c0.097,0.079,0.287,0.001,0.345,0.227c-0.223-0.118-0.46-0.056-0.638-0.223c0.127-0.095,0.273-0.093,0.4-0.144
		c0.308-0.122,0.341-0.171,0.267-0.495c-0.258-1.135-0.761-2.152-1.549-3.006c-1.8-1.952-4.025-2.613-6.609-2.093
		c-0.669,0.135-1.319,0.361-1.872,0.778c-0.399,0.301-0.788,0.615-1.207,0.89c-0.118,0.078-0.216,0.175-0.311,0.277
		c-1.119,1.212-1.71,2.648-1.81,4.289c-0.027,0.45-0.022,0.904,0.063,1.349c0.527,2.754,2.102,4.601,4.776,5.488
		c0.931,0.309,1.888,0.303,2.851,0.219c0.131-0.011,0.241-0.133,0.343-0.118c0.342,0.05,0.62-0.116,0.929-0.204
		c-0.187,0.008-0.251-0.134-0.339-0.277c-0.036,0.137-0.026,0.275-0.22,0.263C32.965,41.897,32.876,41.697,32.942,41.501z
		 M23.951,34.059c0.217,0.081,0.217,0.081,0.271-0.119c0.026-0.095,0.054-0.189,0.075-0.285c0.016-0.078,0.096-0.169,0.038-0.23
		c-0.073-0.077-0.169,0.008-0.248,0.037c-1.743,0.643-3.547,0.921-5.4,0.918c-0.312-0.001-0.314-0.003-0.215,0.301
		c0.757,2.322,2.058,4.288,3.881,5.911c0.121,0.108,0.257,0.161,0.418,0.184c0.969,0.139,1.942,0.164,2.919,0.141
		c0.098-0.002,0.195-0.019,0.293-0.031c0.102-0.013,0.132-0.053,0.056-0.141c-0.156-0.179-0.31-0.36-0.464-0.541
		c-0.064-0.075-0.116-0.084-0.161,0.02c-0.019,0.043-0.018,0.11-0.114,0.118c0.047-0.325-0.033-0.6-0.228-0.857
		c-0.267-0.352-0.352-0.356-0.572,0.03c-0.005,0.009-0.027,0.008-0.079,0.023c0.108-0.132-0.114-0.393,0.207-0.388
		c0.205,0.003,0.216-0.054,0.129-0.223c-0.647-1.264-0.826-2.617-0.722-4.014C24.057,34.619,24.16,34.335,23.951,34.059z
		 M21.241,20.861c-0.266,0.077-0.528,0.194-0.799,0.221c-0.461,0.046-0.768,0.284-1.002,0.655c-0.013,0.021-0.029,0.04-0.043,0.06
		c-2.305,3.102-3.26,6.586-2.872,10.42c0.27,2.67,1.254,5.077,2.856,7.236c0.339,0.457,0.716,0.789,1.291,0.885
		c0.325,0.054,0.642,0.158,0.985,0.245c-0.019-0.059-0.019-0.078-0.029-0.088c-0.94-0.904-1.733-1.922-2.387-3.051
		c-0.597-1.028-1.04-2.119-1.355-3.263c-0.036-0.131-0.132-0.292,0.158-0.274c2.066,0.126,4.071-0.163,6.015-0.886
		c0.357-0.133,0.635-0.293,0.782-0.668c0.101-0.257,0.271-0.488,0.432-0.767c-0.437,0.192-0.822,0.376-1.218,0.532
		c-2.024,0.797-4.121,1.12-6.293,0.94c-0.231-0.019-0.304-0.133-0.334-0.338c-0.174-1.232-0.209-2.464-0.06-3.702
		c0.296-2.457,1.18-4.679,2.657-6.664C20.408,21.842,20.828,21.362,21.241,20.861z M24.463,18.502
		c0.129-0.066,0.258-0.133,0.387-0.199c0.967-0.499,1.982-0.868,3.04-1.118c1.39-0.328,2.796-0.455,4.223-0.34
		c0.405,0.033,0.431,0.042,0.49,0.446c0.19,1.315,0.205,2.629,0.01,3.944c-0.379,2.56-1.378,4.845-3.029,6.841
		c-0.205,0.248-0.418,0.49-0.627,0.734c0.424-0.061,0.82-0.16,1.222-0.226c0.092-0.015,0.153-0.092,0.21-0.163
		c0.816-1.016,1.488-2.121,2.004-3.318c1.099-2.549,1.43-5.201,1.038-7.944c-0.372-2.601-1.4-4.923-3.022-6.985
		c-0.06-0.077-0.121-0.175-0.204-0.209c-0.538-0.218-1.099-0.358-1.673-0.49c0.003,0.116,0.077,0.152,0.126,0.201
		c1.377,1.38,2.392,2.993,3.076,4.815c0.161,0.429,0.289,0.871,0.43,1.307c0.045,0.141,0.017,0.207-0.16,0.198
		c-0.688-0.036-1.375-0.035-2.064,0.019c-1.593,0.126-3.122,0.496-4.588,1.13c-0.103,0.045-0.183,0.101-0.232,0.205
		C24.934,17.744,24.697,18.108,24.463,18.502z M25.013,9.089c-0.287,0-0.574,0-0.861,0c-0.033,0-0.067,0.001-0.097,0.011
		c-0.066,0.024-0.168-0.01-0.194,0.072c-0.022,0.067,0.063,0.106,0.105,0.153c1.787,2.055,2.326,4.387,1.567,7.011
		c-0.021,0.073-0.095,0.16-0.012,0.226c0.065,0.052,0.14-0.015,0.207-0.039c0.726-0.263,1.463-0.491,2.218-0.649
		c1.142-0.239,2.296-0.371,3.466-0.314c0.191,0.009,0.238-0.058,0.174-0.228c-0.017-0.046-0.031-0.094-0.046-0.14
		c-0.722-2.226-1.962-4.118-3.676-5.707c-0.16-0.148-0.338-0.222-0.547-0.248C26.552,9.142,25.786,9.058,25.013,9.089z
		 M24.994,29.704c2.589,0.058,4.716-2.14,4.716-4.714c0-2.535-2.153-4.71-4.717-4.706c-2.565,0.004-4.731,2.136-4.717,4.753
		C20.289,27.499,22.375,29.769,24.994,29.704z M30.171,26.019c0.497-0.79,0.897-1.62,1.175-2.507c0.03-0.097,0.009-0.195-0.021-0.29
		c-0.753-2.396-2.342-3.926-4.757-4.611c-0.362-0.103-0.688-0.077-1.014,0.114c-0.247,0.145-0.515,0.253-0.766,0.392
		c-0.427,0.236-0.855,0.471-1.232,0.804c1.87-0.428,3.552-0.067,4.966,1.228C29.946,22.454,30.449,24.107,30.171,26.019z
		 M19.847,23.928c-0.062,0.065-0.088,0.083-0.102,0.108c-0.454,0.765-0.803,1.578-1.092,2.417c-0.036,0.105-0.028,0.21,0.005,0.314
		c0.774,2.491,2.427,4.045,4.962,4.663c0.136,0.033,0.255,0.015,0.381-0.037c0.508-0.213,0.998-0.459,1.478-0.728
		c0.157-0.088,0.312-0.182,0.464-0.279c0.144-0.091,0.283-0.19,0.424-0.285c-1.882,0.404-3.559,0.025-4.948-1.287
		C20.036,27.509,19.531,25.864,19.847,23.928z M41.617,22.296c-0.054,0.075-0.142,0.078-0.215,0.104
		c-0.169,0.062-0.261,0.163-0.219,0.353c0.042,0.19,0.003,0.432,0.315,0.43c0.32-0.002,0.64,0.004,0.959,0.016
		c0.198,0.007,0.239-0.089,0.21-0.261c-0.034-0.202-0.057-0.406-0.087-0.609c-0.212-1.41-0.593-2.773-1.131-4.093
		c-0.059-0.146-0.123-0.191-0.275-0.112c-0.291,0.152-0.581,0.302-0.852,0.49c-0.163,0.113-0.197,0.227-0.117,0.413
		c0.159,0.368,0.148,0.372,0.542,0.322c0.045-0.006,0.092-0.041,0.154,0.009c-0.101,0.063-0.195,0.125-0.292,0.18
		c-0.115,0.065-0.146,0.145-0.117,0.284c0.08,0.378,0.225,0.644,0.718,0.453c-0.149,0.208-0.47,0.147-0.435,0.447
		c0.044,0.382,0.166,0.679,0.688,0.546c-0.176,0.19-0.504,0.121-0.454,0.449C41.078,22.178,41.075,22.178,41.617,22.296z
		 M31.943,20.284c0.028-0.017,0.039-0.02,0.04-0.025c0.128-0.85,0.04-1.697-0.038-2.545c-0.012-0.125-0.094-0.152-0.203-0.167
		c-0.623-0.088-1.242-0.002-1.862,0.029c-0.247,0.012-0.493,0.056-0.789,0.092c0.586,0.374,1.119,0.723,1.585,1.167
		C31.143,19.28,31.568,19.762,31.943,20.284z M18.053,29.723c-0.027,0.121-0.054,0.19-0.056,0.26
		c-0.029,0.737-0.005,1.472,0.087,2.205c0.018,0.144,0.104,0.159,0.219,0.175c0.631,0.087,1.258,0.013,1.885-0.035
		c0.156-0.012,0.425,0.038,0.45-0.085c0.03-0.156-0.23-0.208-0.363-0.301C19.419,31.345,18.693,30.622,18.053,29.723z
		 M31.742,21.991c0.071-0.377,0.22-0.722-0.036-1.115c-0.802-1.229-1.827-2.194-3.124-2.887c-0.403-0.215-0.726-0.066-1.087,0.056
		C29.427,18.811,30.839,20.119,31.742,21.991z M18.258,27.993c-0.084,0.431-0.205,0.777,0.035,1.148
		c0.778,1.201,1.78,2.147,3.04,2.832c0.375,0.204,0.68,0.049,1.018-0.067C20.502,31.132,19.147,29.855,18.258,27.993z M26.51,18.347
		c2.457,0.674,4.112,2.183,4.992,4.588c0.118-0.246,0.17-0.437,0.07-0.666c-0.845-1.937-2.252-3.272-4.24-3.997
		C27.045,18.168,26.792,18.188,26.51,18.347z M23.32,31.622c-2.391-0.708-3.987-2.205-4.832-4.535
		c-0.125,0.277-0.141,0.506-0.032,0.749c0.842,1.868,2.224,3.154,4.141,3.873C22.844,31.802,23.057,31.77,23.32,31.622z"/>
	<path fill="#1F448E" d="M22.613,5.335c0,0.136-0.003,0.2,0.001,0.264c0.004,0.078,0.025,0.158,0.12,0.155
		c0.104-0.003,0.066-0.093,0.068-0.152c0.008-0.24,0.276-0.111,0.351-0.301c0.056,0.163,0.048,0.312,0.192,0.371
		c0.007,0.003,0.017,0.016,0.016,0.016c-0.161,0.189,0.006,0.406-0.045,0.581c-0.041,0.142-0.266,0.187-0.475,0.225
		c0.121-0.155,0.314-0.23,0.269-0.436c-0.022-0.101-0.072-0.179-0.178-0.198c-0.089,0.073,0.053,0.258-0.124,0.251
		c-0.14-0.005-0.269-0.079-0.323-0.229C22.42,5.703,22.494,5.551,22.613,5.335z"/>
	<path fill="#1F448E" d="M21.866,44.502c-0.015-0.151,0.023-0.294-0.109-0.383c-0.013-0.009-0.016-0.06-0.012-0.062
		c0.219-0.091,0.153-0.275,0.155-0.442c0.001-0.094,0.093-0.108,0.162-0.122c0.117-0.023,0.232-0.083,0.361-0.038
		c-0.025,0.095-0.116,0.083-0.175,0.118c-0.118,0.071-0.169,0.175-0.161,0.308c0.003,0.057,0.027,0.118,0.084,0.141
		c0.085,0.034,0.096-0.046,0.109-0.095c0.04-0.144,0.115-0.104,0.2-0.048c0.266,0.177,0.232,0.461-0.122,0.777
		c0.047-0.125,0.088-0.214,0.113-0.308c0.016-0.058-0.01-0.117-0.073-0.138c-0.025-0.008-0.085,0.011-0.085,0.021
		C22.299,44.549,22.028,44.405,21.866,44.502z"/>
	<path fill="#1F448E" d="M6.571,32.331c0.135-0.019,0.232-0.028,0.327-0.049c0.05-0.011,0.08-0.056,0.079-0.112
		c-0.001-0.047-0.038-0.095-0.073-0.076c-0.208,0.113-0.269-0.05-0.356-0.174c-0.018-0.025-0.048-0.041-0.089-0.074
		c0.107-0.073,0.237-0.108,0.272-0.241c0.006-0.022,0.034-0.06,0.035-0.059c0.213,0.114,0.365-0.104,0.528-0.103
		c0.173,0.001,0.285,0.215,0.38,0.413c-0.106-0.004-0.139-0.082-0.194-0.117c-0.143-0.091-0.278-0.088-0.402,0.032
		c-0.035,0.034-0.07,0.079-0.044,0.131c0.029,0.057,0.082,0.04,0.128,0.02c0.145-0.062,0.147,0.025,0.142,0.129
		C7.29,32.39,6.988,32.516,6.571,32.331z"/>
	<path fill="#1F448E" d="M37.436,9.441c-0.146,0.098-0.288,0.11-0.366,0.221c-0.039,0.055-0.077,0.117-0.028,0.179
		c0.065,0.083,0.123,0.015,0.159-0.033c0.171-0.229,0.292,0.093,0.475-0.004c-0.058,0.161-0.179,0.251-0.138,0.398
		c0.019,0.067-0.05,0.067-0.098,0.075c-0.088,0.014-0.141,0.077-0.188,0.146c-0.171,0.256-0.225,0.264-0.521,0.06
		c0.129-0.062,0.291-0.015,0.377-0.147c0.048-0.073,0.087-0.155,0.041-0.228c-0.069-0.11-0.121-0.001-0.172,0.036
		c-0.081,0.058-0.12,0.008-0.153-0.053c-0.094-0.17-0.093-0.329,0.068-0.461C37.035,9.512,37.201,9.456,37.436,9.441z"/>
	<path fill="#1F448E" d="M27.961,44.636c0.001-0.144,0.07-0.239,0.041-0.347c-0.018-0.067-0.043-0.132-0.12-0.134
		c-0.097-0.001-0.1,0.077-0.081,0.141c0.082,0.282-0.193,0.171-0.289,0.248c-0.091,0.072-0.058-0.101-0.106-0.13
		c-0.3-0.179-0.013-0.471-0.135-0.71c-0.06-0.118,0.242-0.204,0.426-0.246c-0.088,0.109-0.216,0.192-0.209,0.352
		c0.005,0.103,0.018,0.214,0.136,0.23c0.118,0.016,0.078-0.096,0.087-0.161c0.012-0.091,0.071-0.07,0.128-0.063
		c0.208,0.028,0.336,0.207,0.303,0.425C28.12,44.378,28.075,44.502,27.961,44.636z"/>
	<path fill="#1F448E" d="M43.186,28.964c0.115,0.131,0.133,0.314,0.328,0.359c0.1,0.023,0.191,0.009,0.234-0.081
		c0.048-0.101-0.066-0.09-0.114-0.114c-0.112-0.054-0.055-0.118-0.015-0.178c0.168-0.254,0.449-0.219,0.708,0.088
		c-0.063,0.049-0.102-0.019-0.149-0.033c-0.091-0.029-0.194-0.054-0.239,0.045c-0.06,0.133,0.082,0.115,0.143,0.134
		c0.21,0.065,0.044,0.224,0.085,0.334c0.04,0.109-0.079,0.058-0.133,0.056c-0.062-0.002-0.115,0.014-0.157,0.056
		c-0.077,0.076-0.131,0.083-0.176-0.033c-0.03-0.077-0.112-0.114-0.182-0.1c-0.32,0.064-0.318-0.161-0.338-0.366
		C43.175,29.077,43.184,29.02,43.186,28.964z"/>
	<path fill="#1F448E" d="M39.959,36.1c-0.008,0.201-0.046,0.345,0.068,0.453c0.077,0.073,0.177,0.124,0.265,0.066
		c0.104-0.068-0.016-0.117-0.05-0.168c-0.048-0.072-0.002-0.105,0.049-0.136c0.174-0.103,0.339-0.109,0.485,0.053
		c0.119,0.132,0.174,0.289,0.193,0.507c-0.077-0.128-0.124-0.226-0.19-0.309c-0.055-0.07-0.15-0.097-0.218-0.035
		c-0.09,0.082,0.023,0.119,0.064,0.169c0.041,0.049,0.162,0.101,0.039,0.158c-0.097,0.045,0.002,0.226-0.242,0.204
		c-0.326-0.029-0.363-0.346-0.617-0.434C39.698,36.591,39.824,36.313,39.959,36.1z"/>
	<path fill="#1F448E" d="M44.111,22.767c-0.072-0.085-0.23,0.069-0.245-0.094c-0.012-0.136,0.051-0.262,0.183-0.321
		c0.176-0.079,0.341-0.052,0.497,0.074c-0.055,0.056-0.106,0.036-0.153,0.041c-0.074,0.007-0.166,0.01-0.174,0.099
		c-0.01,0.116,0.096,0.091,0.159,0.086c0.215-0.018,0.144,0.185,0.206,0.277c0.075,0.112-0.09,0.066-0.122,0.114
		c-0.188,0.282-0.475,0.027-0.717,0.126c-0.129,0.053-0.204-0.245-0.276-0.474c0.173,0.157,0.292,0.321,0.504,0.242
		C44.054,22.906,44.108,22.852,44.111,22.767z"/>
	<path fill="#1F448E" d="M15.599,42.376c0.038-0.137,0.121-0.25,0.033-0.371c-0.005-0.006-0.009-0.016-0.007-0.023
		c0.006-0.022,0.016-0.061,0.024-0.061c0.307,0.005,0.16-0.39,0.377-0.436c0.145-0.031,0.302,0.019,0.502,0.115
		c-0.138,0.015-0.211,0.016-0.28,0.032c-0.145,0.033-0.224,0.129-0.23,0.279c-0.002,0.049-0.002,0.105,0.048,0.131
		c0.061,0.032,0.09-0.021,0.114-0.061c0.089-0.144,0.156-0.068,0.218,0.022c0.167,0.241,0.045,0.504-0.278,0.604
		c-0.012-0.048,0.027-0.072,0.051-0.102c0.058-0.075,0.117-0.169,0.026-0.237c-0.105-0.079-0.127,0.051-0.173,0.108
		c-0.035,0.042-0.062,0.116-0.131,0.052C15.812,42.351,15.71,42.376,15.599,42.376z"/>
	<path fill="#1F448E" d="M5.394,22.938c0.111,0,0.183,0.003,0.255-0.001c0.043-0.003,0.075-0.032,0.086-0.076
		c0.009-0.037-0.01-0.077-0.041-0.078c-0.31-0.008-0.161-0.292-0.297-0.444c0.153,0.002,0.284,0.037,0.372-0.077
		c0.01-0.012,0.037-0.029,0.038-0.027c0.156,0.181,0.399,0.078,0.56,0.165c0.139,0.076,0.103,0.306,0.135,0.487
		c-0.11-0.014-0.097-0.095-0.123-0.144c-0.076-0.142-0.195-0.191-0.349-0.169c-0.059,0.008-0.118,0.027-0.127,0.095
		c-0.008,0.067,0.049,0.076,0.098,0.082c0.152,0.019,0.117,0.099,0.064,0.188C5.921,23.179,5.686,23.191,5.394,22.938z"/>
	<path fill="#1F448E" d="M43.275,17.573c-0.109,0.063-0.219,0.096-0.233,0.225c-0.002,0.016-0.007,0.032-0.015,0.047
		c-0.018,0.034-0.052,0.046-0.081,0.026c-0.234-0.155-0.621,0.419-0.758-0.182c0.125-0.006,0.243,0.129,0.381,0.046
		c0.073-0.044,0.156-0.082,0.149-0.176c-0.009-0.139-0.107-0.054-0.167-0.049c-0.097,0.007-0.104-0.056-0.111-0.125
		c-0.023-0.229,0.134-0.384,0.4-0.39c0.105-0.003,0.21,0.002,0.33,0.083c-0.125,0.019-0.221,0.027-0.312,0.051
		c-0.068,0.018-0.116,0.073-0.101,0.148c0.022,0.105,0.097,0.055,0.156,0.041C43.007,17.296,43.007,17.296,43.275,17.573z"/>
	<path fill="#1F448E" d="M10.322,36.579c-0.176-0.083-0.339-0.104-0.469,0.066c-0.037,0.048-0.055,0.108-0.027,0.162
		c0.044,0.082,0.096,0.021,0.141-0.005c0.097-0.058,0.128,0,0.157,0.079c0.071,0.193-0.007,0.366-0.212,0.457
		c-0.145,0.064-0.294,0.068-0.518,0.014c0.195-0.028,0.333-0.022,0.426-0.131c0.039-0.047,0.059-0.099,0.026-0.157
		c-0.018-0.033-0.059-0.051-0.082-0.028c-0.216,0.223-0.325-0.041-0.498-0.101c0.063-0.103,0.185-0.154,0.188-0.282
		c0.002-0.074,0.057-0.086,0.122-0.083c0.099,0.005,0.166-0.053,0.226-0.125C9.971,36.241,10.211,36.299,10.322,36.579z"/>
	<path fill="#1F448E" d="M7.804,17.705c-0.038-0.171-0.099-0.317-0.284-0.369c-0.078-0.022-0.159-0.018-0.2,0.048
		c-0.061,0.098,0.05,0.099,0.098,0.123c0.104,0.053,0.072,0.106,0.015,0.171c-0.215,0.247-0.552,0.144-0.701-0.23
		c0.087,0.047,0.159,0.094,0.238,0.126c0.054,0.022,0.12,0.014,0.153-0.043c0.044-0.074-0.019-0.113-0.072-0.125
		c-0.26-0.06-0.084-0.232-0.081-0.344c0.005-0.171,0.134-0.026,0.199-0.052c0.145-0.059,0.243-0.011,0.321,0.116
		c0.015,0.024,0.054,0.035,0.084,0.048c0.099,0.042,0.24-0.021,0.299,0.121C7.903,17.36,7.884,17.515,7.804,17.705z"/>
	<path fill="#1F448E" d="M10.25,11.864c0.078,0.082,0.118,0.135,0.168,0.174c0.055,0.042,0.13,0.054,0.184,0.009
		c0.083-0.069,0-0.118-0.042-0.157c-0.191-0.176,0.12-0.274,0.051-0.437c0.115,0.068,0.263,0.086,0.33,0.139
		c0.173,0.137,0.319,0.329,0.417,0.528c0.042,0.086-0.067,0.241-0.186,0.363c0-0.103,0.004-0.178-0.001-0.253
		c-0.01-0.137-0.084-0.229-0.214-0.271c-0.048-0.016-0.102-0.015-0.138,0.025c-0.047,0.053-0.001,0.092,0.034,0.123
		c0.144,0.127,0.048,0.166-0.069,0.207C10.506,12.412,10.329,12.28,10.25,11.864z"/>
	<path fill="#1F448E" d="M31.916,7.661c0.165-0.031,0.321-0.04,0.391-0.198c0.043-0.098,0.057-0.209-0.031-0.271
		c-0.105-0.073-0.103,0.064-0.139,0.111c-0.064,0.084-0.11,0.035-0.161-0.008c-0.233-0.199-0.139-0.517,0.209-0.696
		c0.026,0.073-0.046,0.096-0.071,0.142c-0.046,0.085-0.086,0.184,0.005,0.243c0.118,0.076,0.119-0.062,0.158-0.121
		c0.035-0.052,0.078-0.153,0.135-0.069c0.067,0.099,0.29-0.068,0.252,0.17c-0.023,0.146,0.099,0.333-0.137,0.411
		c-0.026,0.009-0.04,0.069-0.051,0.108C32.385,7.783,32.266,7.826,31.916,7.661z"/>
	<path fill="#1F448E" d="M43.518,27.778c0.017,0.235,0.154,0.301,0.328,0.337c0.151,0.031,0.223-0.013,0.255-0.169
		c0.047-0.234,0.117-0.26,0.336-0.156c0.184,0.087,0.293,0.222,0.289,0.449c-0.125-0.002-0.168-0.112-0.254-0.147
		c-0.084-0.034-0.175-0.089-0.253-0.02c-0.093,0.082-0.035,0.18,0.015,0.266c0.02,0.034,0.047,0.064,0.072,0.098
		c-0.264,0.124-0.516,0.011-0.656-0.14C43.573,28.212,43.238,28.069,43.518,27.778z"/>
	<path fill="#1F448E" d="M6.318,24.089c-0.078-0.149-0.13-0.276-0.3-0.291c-0.19-0.016-0.349-0.021-0.34,0.239
		c0.003,0.079-0.029,0.139-0.122,0.155c-0.231,0.041-0.489-0.18-0.502-0.449c0.123,0.028,0.206,0.137,0.33,0.146
		c0.07,0.005,0.152,0.062,0.204-0.016c0.05-0.076,0.017-0.16-0.032-0.229c-0.036-0.051-0.082-0.096-0.131-0.151
		c0.248-0.121,0.529-0.056,0.66,0.071C6.182,23.659,6.5,23.774,6.318,24.089z"/>
	<path fill="#1F448E" d="M43.654,23.74c0.101,0.147,0.195,0.238,0.354,0.242c0.176,0.005,0.31,0.001,0.263-0.243
		c-0.039-0.205,0.073-0.26,0.263-0.216c0.219,0.05,0.396,0.132,0.418,0.408c-0.124-0.045-0.225-0.094-0.333-0.119
		c-0.075-0.017-0.173-0.038-0.221,0.053c-0.044,0.085,0.011,0.158,0.067,0.219c0.037,0.041,0.082,0.074,0.126,0.112
		c-0.24,0.161-0.503,0.117-0.684-0.017C43.597,23.95,43.619,23.92,43.654,23.74z"/>
	<path fill="#1F448E" d="M20.882,44.553c0.094-0.126,0.208-0.206,0.23-0.344c0.01-0.062,0.052-0.131-0.008-0.185
		c-0.058-0.052-0.127-0.021-0.184,0.007c-0.072,0.035-0.138,0.081-0.221,0.131c-0.018-0.258-0.003-0.533,0.201-0.662
		c0.12-0.076,0.236-0.389,0.486-0.148c-0.017,0.066-0.089,0.041-0.132,0.063c-0.173,0.089-0.204,0.26-0.208,0.418
		c-0.004,0.149,0.155,0.111,0.248,0.134c0.124,0.03,0.16,0.089,0.126,0.211C21.347,44.446,21.174,44.578,20.882,44.553z"/>
	<path fill="#1F448E" d="M42.749,16.537c-0.206,0.21-0.441,0.346-0.668,0.275c-0.12-0.038-0.394,0.04-0.408-0.26
		c0.136,0.033,0.252,0.097,0.387,0.043c0.182-0.073,0.319-0.145,0.165-0.367c-0.092-0.133-0.024-0.212,0.112-0.251
		c0.22-0.063,0.419-0.05,0.596,0.18c-0.134,0.012-0.244,0.011-0.348,0.033c-0.083,0.018-0.199,0.036-0.198,0.149
		c0.001,0.103,0.098,0.141,0.19,0.163C42.624,16.512,42.671,16.52,42.749,16.537z"/>
	<path fill="#1F448E" d="M28.587,44.317c-0.153-0.252-0.197-0.509-0.059-0.716c0.066-0.099,0.035-0.388,0.329-0.297
		c-0.073,0.112-0.149,0.207-0.138,0.339c0.015,0.192,0.05,0.348,0.303,0.267c0.164-0.053,0.223,0.031,0.231,0.184
		c0.012,0.242-0.1,0.417-0.35,0.51c0.028-0.126,0.065-0.24,0.076-0.357c0.007-0.076,0.004-0.184-0.08-0.215
		c-0.097-0.036-0.163,0.05-0.217,0.123C28.649,44.199,28.625,44.25,28.587,44.317z"/>
	<path fill="#1F448E" d="M39.471,11.222c-0.149,0.034-0.268,0.012-0.373,0.071c-0.049,0.028-0.116,0.048-0.116,0.114
		c0.001,0.087,0.09,0.047,0.133,0.075c0.122,0.079,0.209-0.013,0.31-0.092c-0.064,0.486-0.477,0.691-1.055,0.525
		c0.188-0.069,0.272-0.246,0.486-0.246c0.177,0,0.08-0.106,0.026-0.176c-0.154-0.2-0.134-0.256,0.115-0.325
		C39.171,11.119,39.258,11.127,39.471,11.222z"/>
	<path fill="#1F448E" d="M19.764,44.231c0.035-0.033,0.073-0.063,0.104-0.1c0.07-0.084,0.226-0.183,0.13-0.274
		c-0.07-0.066-0.238,0.018-0.317,0.136c-0.013,0.02-0.028,0.039-0.042,0.059c-0.245-0.402,0.167-0.914,0.782-0.955
		c-0.285,0.057-0.248,0.405-0.49,0.517c-0.084,0.039,0.018,0.094,0.078,0.12c0.085,0.036,0.225,0.009,0.235,0.136
		c0.01,0.125-0.104,0.197-0.192,0.269C19.975,44.201,19.888,44.246,19.764,44.231z"/>
	<path fill="#1F448E" d="M43.807,31.824c-0.116-0.129-0.154-0.266-0.275-0.332c-0.043-0.023-0.089-0.06-0.137-0.035
		c-0.079,0.042-0.005,0.098-0.004,0.148c0.002,0.122,0.081,0.187,0.201,0.235c-0.463,0.214-0.921-0.222-0.93-0.854
		c0.036,0.295,0.379,0.299,0.492,0.541c0.049,0.104,0.103-0.037,0.128-0.094c0.11-0.246,0.197-0.256,0.363-0.035
		C43.73,31.51,43.793,31.632,43.807,31.824z"/>
	<path fill="#1F448E" d="M6.567,21.855c-0.095-0.249-0.429-0.166-0.539-0.405c-0.024-0.051-0.082-0.006-0.102,0.049
		c-0.037,0.099,0.016,0.271-0.136,0.278c-0.169,0.007-0.261-0.15-0.354-0.274c-0.023-0.03-0.051-0.066-0.023-0.11
		c0.06-0.013,0.082,0.042,0.121,0.067c0.086,0.056,0.203,0.172,0.269,0.066c0.046-0.073-0.032-0.232-0.169-0.279
		c-0.029-0.01-0.057-0.021-0.094-0.035C5.956,20.931,6.495,21.27,6.567,21.855z"/>
	<path fill="#1F448E" d="M43.674,24.794c0.123,0.24,0.437,0.099,0.587,0.301c0.046,0.062,0.087-0.017,0.101-0.08
		c0.07-0.317,0.173-0.348,0.429-0.13c0.055,0.047,0.114,0.092,0.143,0.203c-0.11-0.051-0.193-0.093-0.28-0.128
		c-0.053-0.022-0.118-0.04-0.163,0.005c-0.065,0.066,0.026,0.093,0.048,0.139c0.044,0.093,0.106,0.164,0.227,0.172
		C44.444,25.605,43.905,25.366,43.674,24.794z"/>
	<path fill="#1F448E" d="M26.222,6.371c0.276-0.097,0.175-0.44,0.394-0.583c0.059-0.039-0.008-0.089-0.074-0.106
		c-0.327-0.086-0.35-0.179-0.107-0.42c0.039-0.039,0.073-0.091,0.166-0.093c-0.04,0.086-0.077,0.161-0.11,0.238
		c-0.023,0.053-0.049,0.112,0.002,0.16c0.063,0.058,0.098-0.023,0.148-0.037c0.116-0.033,0.127-0.155,0.188-0.239
		C27.12,5.699,26.793,6.279,26.222,6.371z"/>
	<path fill="#1F448E" d="M23.814,5.072c0.251-0.099,0.492-0.089,0.73-0.08c0.041,0.101-0.037,0.131-0.075,0.175
		c-0.138,0.158-0.173,0.329-0.081,0.523c0.021,0.043,0.061,0.111,0.046,0.132c-0.121,0.162-0.246,0.324-0.387,0.468
		c-0.063,0.065-0.169,0.042-0.298,0.006c0.531-0.171,0.356-0.588,0.372-0.933C24.129,5.175,24.004,5.088,23.814,5.072z"/>
	<path fill="#1F448E" d="M6.664,20.985c0.002-0.501-0.389-0.496-0.692-0.6c-0.209-0.072-0.364-0.004-0.505,0.175
		c0.061-0.245,0.121-0.49,0.199-0.807c0.164,0.356,0.364,0.525,0.702,0.44c0.071-0.018,0.093,0.05,0.116,0.103
		c0.045,0.106,0.097,0.21,0.188,0.283C6.826,20.702,6.792,20.823,6.664,20.985z"/>
	<path fill="#1F448E" d="M25.762,45.003c-0.257,0-0.513,0-0.818,0c0.253-0.233,0.366-0.468,0.207-0.763
		c-0.034-0.063,0.011-0.108,0.058-0.145c0.111-0.088,0.2-0.192,0.271-0.315c0.086-0.149,0.214-0.093,0.348-0.065
		c-0.486,0.142-0.381,0.538-0.402,0.876C25.412,44.827,25.567,44.917,25.762,45.003z"/>
	<path fill="#1F448E" d="M7.229,30.993c-0.341-0.428-0.696-0.171-1.041-0.066c-0.179,0.055-0.172,0.214-0.136,0.374
		c-0.02,0.001-0.04,0.003-0.06,0.004c-0.078-0.242-0.155-0.484-0.233-0.724c0.106-0.068,0.152,0.022,0.213,0.045
		c0.181,0.069,0.361,0.089,0.505-0.058c0.107-0.109,0.182-0.099,0.29-0.012c0.068,0.054,0.158,0.097,0.243,0.11
		C7.188,30.693,7.239,30.794,7.229,30.993z"/>
	<path fill="#1F448E" d="M26.614,43.661c-0.084,0.178,0.001,0.362-0.134,0.519c-0.085,0.098,0.007,0.131,0.105,0.14
		c0.278,0.026,0.311,0.098,0.163,0.345c-0.068,0.114-0.12,0.162-0.318,0.286c0.08-0.145,0.186-0.234,0.197-0.366
		c0.005-0.055,0.026-0.122-0.036-0.155c-0.058-0.03-0.078,0.043-0.119,0.062c-0.11,0.053-0.127,0.158-0.134,0.28
		C25.998,44.45,26.133,43.912,26.614,43.661z"/>
	<path fill="#1F448E" d="M7.282,34.282c-0.162-0.223-0.272-0.462-0.397-0.747c0.217,0.064,0.444,0.191,0.566,0.049
		c0.238-0.276,0.481-0.134,0.736-0.102c0.153,0.019,0.218,0.085,0.221,0.267c-0.375-0.316-0.675-0.045-0.993,0.089
		C7.195,33.93,7.282,34.116,7.282,34.282z"/>
	<path fill="#1F448E" d="M35.767,8.13c0.211,0.141,0.422,0.281,0.695,0.463c-0.36,0.058-0.594,0.163-0.63,0.494
		c-0.008,0.078-0.086,0.091-0.154,0.093c-0.117,0.004-0.229,0.031-0.329,0.09c-0.148,0.087-0.241,0.018-0.351-0.129
		c0.518,0.134,0.63-0.281,0.838-0.555c0.124-0.164,0.003-0.289-0.107-0.41C35.741,8.161,35.754,8.146,35.767,8.13z"/>
	<path fill="#1F448E" d="M31.048,6.527c0.023-0.001,0.047-0.001,0.07-0.005c0.136-0.023,0.29-0.117,0.404-0.035
		c0.157,0.112-0.048,0.241-0.039,0.371c0.004,0.057-0.021,0.119-0.004,0.17c0.078,0.248-0.093,0.304-0.305,0.391
		c0.058-0.181,0.106-0.326,0.15-0.471c0.023-0.076,0.086-0.162,0.025-0.231c-0.073-0.081-0.186-0.055-0.278-0.03
		c-0.084,0.023-0.161,0.073-0.293,0.137c0.103-0.304,0.193-0.568,0.287-0.843C31.288,6.186,31.243,6.35,31.048,6.527z"/>
	<path fill="#1F448E" d="M41.097,35.294c0.256,0.172,0.462,0.309,0.682,0.457c-0.273,0.132-0.273,0.132-0.477-0.146
		c-0.025,0.143-0.045,0.265-0.068,0.387c-0.025,0.134-0.09,0.164-0.202,0.078c-0.145-0.111-0.3-0.173-0.49-0.192
		c-0.195-0.02-0.086-0.243-0.17-0.356c0.176,0.04,0.291,0.172,0.438,0.251c0.069,0.037,0.129,0.123,0.218,0.072
		c0.089-0.052,0.083-0.153,0.084-0.242C41.11,35.522,41.103,35.442,41.097,35.294z"/>
	<path fill="#1F448E" d="M42.887,19.377c0.225,0.442,0.564,0.216,0.869,0.17c0.248-0.037,0.345-0.189,0.336-0.44
		c0.115,0.242,0.186,0.489,0.247,0.805c-0.296-0.216-0.554-0.263-0.798-0.01c-0.041,0.042-0.093,0.009-0.133-0.021
		c-0.119-0.09-0.251-0.146-0.397-0.182C42.854,19.658,42.883,19.514,42.887,19.377z"/>
	<path fill="#1F448E" d="M5.69,29.824c0.094,0.018,0.188,0.04,0.284,0.052c0.049,0.007,0.106-0.003,0.127-0.054
		c0.027-0.063-0.041-0.076-0.073-0.107c-0.023-0.023-0.052-0.041-0.07-0.068c-0.046-0.066-0.203,0.007-0.179-0.112
		c0.022-0.109,0.146-0.151,0.25-0.172c0.338-0.068,0.601,0.074,0.875,0.349c-0.236-0.06-0.427,0.072-0.612-0.071
		c-0.06-0.046-0.097,0.013-0.095,0.087c0.003,0.104,0.12,0.237-0.026,0.305c-0.144,0.067-0.285-0.02-0.414-0.093
		c-0.033-0.019-0.059-0.05-0.089-0.075C5.676,29.853,5.683,29.838,5.69,29.824z"/>
	<path fill="#1F448E" d="M10.597,38.01c-0.093-0.028-0.146-0.043-0.199-0.06c-0.356-0.111-0.365-0.15-0.107-0.405
		c0.051-0.051,0.109-0.112,0.125-0.178c0.057-0.235,0.206-0.265,0.423-0.207c-0.056,0.161-0.203,0.226-0.309,0.329
		c-0.062,0.06-0.17,0.105-0.141,0.21c0.028,0.104,0.135,0.133,0.231,0.159c0.069,0.019,0.148-0.009,0.233,0.062
		c-0.164,0.224-0.403,0.36-0.609,0.57C10.24,38.15,10.24,38.15,10.597,38.01z"/>
	<path fill="#1F448E" d="M20.693,6.755c0.56-0.249,0.343-0.639,0.289-0.983c-0.034-0.216-0.054-0.214-0.356-0.303
		c0.241-0.054,0.483-0.108,0.718-0.16c0.059,0.095-0.014,0.124-0.041,0.164c-0.125,0.188-0.155,0.381-0.013,0.568
		c0.074,0.097,0.07,0.166-0.01,0.255c-0.059,0.065-0.114,0.145-0.138,0.227C21.086,6.722,20.949,6.757,20.693,6.755z"/>
	<path fill="#1F448E" d="M41.771,14.087c0.12,0.188,0.24,0.376,0.396,0.621c-0.351-0.101-0.622-0.098-0.794,0.207
		c-0.028,0.05-0.085,0.048-0.132,0.028c-0.132-0.057-0.27-0.059-0.409-0.058c-0.148,0.001-0.185-0.108-0.224-0.264
		c0.243,0.248,0.476,0.148,0.689,0.008C41.493,14.5,41.797,14.449,41.771,14.087z"/>
	<path fill="#1F448E" d="M38.326,10.104c0.204,0.138,0.377,0.305,0.533,0.487c-0.052,0.09-0.126,0.06-0.185,0.067
		c-0.136,0.017-0.301,0.057-0.331,0.178c-0.107,0.43-0.49,0.203-0.724,0.324c-0.072,0.037-0.147-0.076-0.204-0.194
		c0.505,0.218,0.672-0.208,0.933-0.446C38.497,10.383,38.366,10.249,38.326,10.104z"/>
	<path fill="#1F448E" d="M5.059,26.208c-0.063-0.254-0.105-0.506-0.065-0.812c0.23,0.261,0.473,0.341,0.762,0.202
		c0.075-0.036,0.123,0.014,0.163,0.069c0.064,0.087,0.145,0.158,0.243,0.201c0.161,0.071,0.182,0.19,0.127,0.381
		c-0.196-0.524-0.616-0.361-0.975-0.358C5.13,25.892,5.084,26.044,5.059,26.208z"/>
	<path fill="#1F448E" d="M42.594,33.07c-0.099,0.027-0.155-0.032-0.223-0.055c-0.113-0.038-0.237-0.124-0.316,0.043
		c-0.072,0.153-0.011,0.277,0.126,0.354c0.157,0.088,0.325,0.157,0.486,0.238c0.071,0.036,0.156,0.055,0.205,0.129
		c-0.271,0.142-0.276,0.141-0.443-0.073c-0.085-0.108-0.201-0.17-0.332-0.198c-0.222-0.047-0.27-0.227-0.291-0.405
		c-0.024-0.208,0.098-0.292,0.316-0.247c0.039,0.008,0.091,0.025,0.118,0.009C42.472,32.722,42.53,32.885,42.594,33.07z"/>
	<path fill="#1F448E" d="M12.642,39.943c0.025-0.114,0.104-0.156,0.148-0.222c0.061-0.091,0.176-0.205,0.064-0.293
		c-0.099-0.079-0.263-0.124-0.385-0.001c-0.149,0.152-0.285,0.316-0.428,0.473c-0.032,0.035-0.071,0.064-0.129,0.114
		c-0.057-0.195-0.102-0.341,0.155-0.397c0.139-0.03,0.221-0.161,0.299-0.279c0.114-0.173,0.374-0.247,0.551-0.149
		c0.115,0.063,0.211,0.139,0.103,0.29c-0.031,0.044-0.064,0.11-0.054,0.157C13.027,39.907,12.839,39.914,12.642,39.943z"/>
	<path fill="#1F448E" d="M28.86,5.429c0.163,0.197,0.241,0.345,0.029,0.516c-0.089,0.072-0.081,0.211-0.077,0.326
		c0.009,0.223-0.152,0.319-0.315,0.385c-0.188,0.076-0.304-0.015-0.332-0.22c-0.005-0.04,0.002-0.093-0.021-0.119
		c-0.185-0.208-0.002-0.305,0.123-0.433c0.035,0.1-0.003,0.185-0.017,0.27c-0.02,0.115-0.049,0.264,0.084,0.296
		c0.145,0.035,0.302-0.027,0.349-0.2c0.049-0.181,0.077-0.368,0.115-0.553C28.813,5.618,28.833,5.541,28.86,5.429z"/>
	<path fill="#1F448E" d="M38.88,39.325c0.029-0.058,0.064-0.113,0.086-0.174c0.07-0.199-0.009-0.311-0.223-0.321
		c-0.06-0.003-0.155,0.037-0.144-0.068c0.024-0.228-0.045-0.428-0.131-0.639c0.252,0.249,0.505,0.497,0.756,0.746
		c0.061,0.061,0.063,0.126,0.003,0.194c-0.095,0.108-0.187,0.22-0.28,0.33C38.924,39.372,38.902,39.348,38.88,39.325z"/>
	<path fill="#1F448E" d="M29.988,43.179c0.085,0.336,0.17,0.671,0.253,1.007c0.021,0.086-0.017,0.141-0.103,0.163
		c-0.164,0.041-0.328,0.083-0.509,0.129c0.03-0.099,0.103-0.1,0.154-0.129c0.282-0.161,0.29-0.27,0.027-0.467
		c-0.049-0.037-0.107-0.072-0.049-0.132C29.913,43.59,29.918,43.383,29.988,43.179z"/>
	<path fill="#1F448E" d="M20.168,5.569c-0.042,0.102-0.115,0.105-0.167,0.136c-0.248,0.149-0.258,0.286-0.028,0.458
		c0.046,0.034,0.123,0.064,0.066,0.127C19.874,6.472,19.91,6.7,19.839,6.921c-0.092-0.352-0.186-0.704-0.274-1.056
		c-0.023-0.09,0.037-0.137,0.115-0.16C19.834,5.66,19.99,5.618,20.168,5.569z"/>
	<path fill="#1F448E" d="M35.378,7.887c-0.125,0.04-0.193-0.026-0.272-0.034c-0.247-0.026-0.334,0.06-0.289,0.299
		c0.011,0.058,0.067,0.14-0.044,0.153c-0.228,0.026-0.376,0.181-0.576,0.294c0.188-0.314,0.374-0.629,0.565-0.942
		c0.042-0.068,0.111-0.061,0.174-0.025C35.076,7.711,35.214,7.792,35.378,7.887z"/>
	<path fill="#1F448E" d="M5.026,24.483c0.018,0.061,0.036,0.123,0.055,0.184c0.087,0.286,0.193,0.319,0.432,0.13
		c0.045-0.035,0.086-0.1,0.135-0.019c0.127,0.214,0.356,0.239,0.558,0.346c-0.363,0-0.726,0.003-1.089-0.002
		c-0.1-0.001-0.14-0.074-0.14-0.168c-0.001-0.155,0-0.309,0-0.464C4.992,24.488,5.009,24.486,5.026,24.483z"/>
	<path fill="#1F448E" d="M42.523,15.477c-0.048-0.055-0.088-0.119-0.145-0.163c-0.167-0.129-0.314-0.085-0.364,0.122
		c-0.033,0.137-0.082,0.165-0.198,0.098c-0.191-0.11-0.38,0.02-0.64,0.016c0.369-0.207,0.68-0.383,0.993-0.557
		c0.076-0.042,0.141-0.033,0.187,0.049c0.075,0.133,0.15,0.266,0.225,0.399C42.561,15.453,42.542,15.465,42.523,15.477z"/>
	<path fill="#1F448E" d="M29.835,6.722c0.087-0.304,0.173-0.608,0.263-0.911c0.022-0.075,0.066-0.139,0.158-0.117
		c0.163,0.038,0.324,0.084,0.5,0.13c-0.062,0.071-0.113,0.052-0.159,0.054c-0.358,0.011-0.39,0.052-0.28,0.382
		c0.022,0.067,0.027,0.114-0.04,0.138c-0.177,0.064-0.283,0.209-0.385,0.36C29.873,6.745,29.854,6.734,29.835,6.722z"/>
	<path fill="#1F448E" d="M42.034,35.461c-0.031-0.1,0.02-0.163,0.03-0.234c0.03-0.215-0.062-0.315-0.274-0.269
		c-0.12,0.026-0.185,0.025-0.196-0.119c-0.014-0.193-0.181-0.301-0.251-0.491c0.313,0.19,0.626,0.38,0.938,0.572
		c0.049,0.03,0.049,0.087,0.022,0.132C42.222,35.187,42.162,35.338,42.034,35.461z"/>
	<path fill="#1F448E" d="M8.761,34.69c-0.281,0.162-0.563,0.324-0.845,0.485c-0.09,0.051-0.157,0.014-0.204-0.067
		c-0.068-0.118-0.135-0.238-0.207-0.365c0.107-0.024,0.129,0.055,0.174,0.091c0.201,0.157,0.306,0.131,0.394-0.109
		c0.023-0.061,0.031-0.151,0.12-0.112c0.182,0.08,0.366,0.046,0.551,0.015C8.75,34.648,8.755,34.669,8.761,34.69z"/>
	<path fill="#1F448E" d="M43.509,32.619c-0.139,0.044-0.272,0.054-0.385,0.157c-0.116,0.105-0.2,0.004-0.245-0.096
		c-0.042-0.095-0.054-0.204-0.085-0.305c-0.038-0.125-0.11-0.186-0.235-0.095c-0.158,0.116-0.268,0.013-0.427-0.088
		c0.186-0.04,0.329-0.077,0.448-0.183c0.102-0.091,0.181-0.007,0.236,0.081c0.058,0.093,0.059,0.202,0.078,0.307
		c0.026,0.141,0.083,0.243,0.247,0.133C43.292,32.428,43.396,32.533,43.509,32.619z"/>
	<path fill="#1F448E" d="M14.58,40.514c-0.241,0.033-0.329,0.311-0.572,0.346c-0.092,0.013,0.035,0.221-0.139,0.215
		c-0.112-0.004-0.208,0.035-0.278,0.147C13.482,40.753,13.95,40.425,14.58,40.514z"/>
	<path fill="#1F448E" d="M8.694,15.909c-0.039-0.148-0.06-0.295-0.244-0.338c-0.033-0.008-0.053-0.076-0.075-0.119
		C8.352,15.41,8.34,15.361,8.314,15.32c-0.052-0.082-0.224,0.055-0.228-0.124c-0.002-0.109-0.023-0.212-0.162-0.268
		C8.42,14.793,8.786,15.283,8.694,15.909z"/>
	<path fill="#1F448E" d="M6.188,18.119c0.14-0.042,0.275-0.055,0.38-0.167c0.095-0.102,0.184-0.036,0.237,0.056
		c0.044,0.076,0.071,0.165,0.092,0.251c0.045,0.177,0.11,0.268,0.303,0.138c0.14-0.094,0.249,0.02,0.364,0.092
		c-0.158,0.04-0.3,0.076-0.411,0.2c-0.091,0.102-0.177,0.034-0.242-0.051c-0.068-0.089-0.059-0.2-0.082-0.302
		c-0.029-0.13-0.1-0.257-0.251-0.151C6.414,18.301,6.313,18.192,6.188,18.119z"/>
	<path fill="#1F448E" d="M12.853,40.956c0.025-0.164,0.054-0.307-0.044-0.457c-0.07-0.107,0.034-0.169,0.122-0.189
		c0.102-0.023,0.21-0.021,0.315-0.023c0.153-0.004,0.263-0.025,0.187-0.228c-0.056-0.151,0.064-0.23,0.195-0.35
		c-0.014,0.188-0.022,0.329,0.064,0.46c0.077,0.117-0.015,0.189-0.118,0.211c-0.093,0.021-0.194,0.009-0.292,0.01
		c-0.159,0.001-0.308-0.007-0.225,0.24C13.112,40.79,12.941,40.857,12.853,40.956z"/>
	<path fill="#1F448E" d="M42.577,18.607c0.225,0.032,0.417-0.09,0.603,0.034c0.042,0.028,0.094,0.018,0.107-0.053
		c0.019-0.106,0.104-0.083,0.147-0.042c0.091,0.086,0.196,0.095,0.322,0.075C43.496,19.032,42.989,19.028,42.577,18.607z"/>
	<path fill="#1F448E" d="M39.055,37.098c0.214,0.035,0.362,0.034,0.513-0.025c0.162-0.063,0.196,0.083,0.209,0.193
		c0.011,0.094-0.025,0.193-0.031,0.29c-0.007,0.121,0.027,0.228,0.176,0.191c0.169-0.041,0.258,0.051,0.372,0.184
		c-0.176,0.018-0.333-0.012-0.486,0.044c-0.111,0.041-0.142-0.081-0.164-0.168c-0.026-0.106,0.013-0.211,0.019-0.316
		c0.008-0.127-0.04-0.218-0.188-0.168C39.281,37.386,39.206,37.244,39.055,37.098z"/>
	<path fill="#1F448E" d="M44.731,21.602c-0.12,0.107-0.226,0.211-0.267,0.373c-0.029,0.112-0.131,0.09-0.202,0.046
		c-0.082-0.052-0.152-0.123-0.223-0.19c-0.126-0.119-0.23-0.19-0.325,0.039c-0.067,0.161-0.234,0.095-0.368,0.113
		c0.121-0.112,0.213-0.225,0.258-0.383c0.047-0.163,0.177-0.125,0.277-0.055c0.078,0.055,0.131,0.145,0.199,0.215
		c0.101,0.103,0.202,0.158,0.282-0.023C44.434,21.573,44.584,21.603,44.731,21.602z"/>
	<path fill="#1F448E" d="M23.189,44.983c-0.077-0.17-0.137-0.306-0.283-0.385c-0.095-0.052-0.049-0.142,0.002-0.211
		c0.06-0.082,0.153-0.119,0.237-0.169c0.143-0.087,0.244-0.171,0.054-0.327c-0.115-0.095-0.057-0.24-0.043-0.42
		c0.115,0.18,0.196,0.326,0.357,0.402c0.086,0.041,0.051,0.126,0.011,0.192c-0.058,0.095-0.152,0.14-0.251,0.183
		c-0.229,0.1-0.238,0.149-0.082,0.339C23.285,44.703,23.26,44.822,23.189,44.983z"/>
	<path fill="#1F448E" d="M11.734,38.385c-0.276,0.276-0.504,0.505-0.733,0.733c-0.064,0.064-0.124,0.058-0.192-0.001
		c-0.104-0.089-0.213-0.17-0.357-0.284c0.177-0.058,0.223,0.021,0.289,0.04c0.162,0.045,0.291,0.022,0.288-0.174
		c-0.003-0.183,0.074-0.223,0.236-0.196C11.41,38.528,11.522,38.414,11.734,38.385z"/>
	<path fill="#1F448E" d="M17.765,43.717c-0.062-0.178-0.053-0.308-0.147-0.403c-0.157-0.159-0.05-0.244,0.099-0.305
		c0.068-0.028,0.142-0.039,0.213-0.058c0.143-0.036,0.235-0.096,0.12-0.255c-0.107-0.148,0.004-0.256,0.075-0.423
		c0.072,0.186,0.097,0.342,0.223,0.459c0.099,0.093-0.007,0.187-0.093,0.229c-0.086,0.041-0.19,0.043-0.284,0.069
		c-0.147,0.04-0.287,0.087-0.143,0.28C17.933,43.452,17.809,43.545,17.765,43.717z"/>
	<path fill="#1F448E" d="M9.627,35.524c-0.034,0.148-0.068,0.248-0.057,0.358c0.022,0.232-0.082,0.307-0.304,0.227
		c-0.054-0.019-0.102-0.052-0.154-0.076c-0.153-0.073-0.275-0.086-0.279,0.141C8.831,36.361,8.669,36.39,8.5,36.506
		c0.087-0.202,0.191-0.332,0.141-0.51c-0.029-0.101,0.075-0.14,0.16-0.136c0.08,0.004,0.162,0.028,0.236,0.06
		c0.178,0.077,0.316,0.111,0.326-0.163C9.367,35.627,9.483,35.578,9.627,35.524z"/>
	<path fill="#1F448E" d="M27.579,5.151c0.063,0.121,0.104,0.244,0.226,0.316c0.146,0.085,0.103,0.188,0.006,0.276
		c-0.053,0.048-0.123,0.08-0.188,0.111c-0.166,0.08-0.301,0.155-0.093,0.346c0.099,0.091,0.062,0.225,0.014,0.378
		c-0.102-0.155-0.175-0.301-0.331-0.383c-0.093-0.049-0.03-0.146,0.018-0.212c0.066-0.09,0.171-0.121,0.27-0.159
		c0.166-0.063,0.227-0.16,0.09-0.31C27.486,5.4,27.516,5.279,27.579,5.151z"/>
	<path fill="#1F448E" d="M10.045,13.911c-0.168-0.016-0.312,0.016-0.451,0.094c-0.109,0.062-0.164-0.018-0.206-0.107
		c-0.052-0.113-0.013-0.224,0.001-0.337c0.018-0.143-0.037-0.272-0.201-0.211c-0.192,0.071-0.261-0.05-0.421-0.19
		c0.212,0.036,0.356,0.056,0.488-0.037c0.079-0.056,0.137,0.002,0.175,0.075c0.044,0.084,0.035,0.175,0.037,0.265
		c0.003,0.182-0.036,0.394,0.282,0.264C9.877,13.675,9.951,13.828,10.045,13.911z"/>
	<path fill="#1F448E" d="M33.56,6.847c0.043,0.188,0.026,0.346,0.139,0.473c0.071,0.079,0.002,0.161-0.076,0.197
		c-0.088,0.04-0.185,0.066-0.281,0.082c-0.173,0.029-0.295,0.063-0.156,0.279c0.086,0.133-0.026,0.237-0.124,0.375
		c-0.031-0.18-0.051-0.319-0.157-0.435c-0.105-0.115-0.003-0.193,0.097-0.246c0.09-0.048,0.195-0.019,0.29-0.038
		c0.153-0.031,0.276-0.088,0.16-0.281C33.362,7.1,33.47,6.998,33.56,6.847z"/>
	<path fill="#1F448E" d="M40.037,11.83c-0.016,0.143-0.046,0.271-0.019,0.412c0.031,0.161-0.11,0.182-0.227,0.172
		c-0.096-0.008-0.189-0.051-0.285-0.068c-0.113-0.02-0.212,0.012-0.182,0.15c0.043,0.202-0.102,0.267-0.263,0.409
		c0.056-0.21,0.098-0.362,0.03-0.521c-0.043-0.1,0.046-0.144,0.132-0.162c0.117-0.025,0.224,0.011,0.333,0.053
		c0.162,0.062,0.286,0.044,0.259-0.172C39.791,11.924,39.944,11.91,40.037,11.83z"/>
	<path fill="#1F448E" d="M10.331,13.401c0.052-0.355,0.001-0.453-0.336-0.58c-0.077-0.029-0.066-0.057-0.045-0.096
		c0.05-0.093,0.015-0.191,0.022-0.288c0.283-0.018,0.439,0.234,0.475,0.39C10.479,12.971,10.672,13.26,10.331,13.401z"/>
	<path fill="#1F448E" d="M17.496,42.15c-0.178,0.013-0.327,0.085-0.351,0.237c-0.043,0.276-0.223,0.359-0.469,0.39
		c-0.012-0.268,0.125-0.501,0.343-0.597C17.12,42.137,17.299,41.868,17.496,42.15z"/>
	<path fill="#1F448E" d="M7.573,15.912c0.265,0.055,0.516,0.158,0.595,0.37c0.04,0.108,0.274,0.291,0.036,0.472
		c-0.074-0.265-0.22-0.425-0.501-0.409c-0.044,0.003-0.065-0.022-0.056-0.055C7.683,16.159,7.603,16.044,7.573,15.912z"/>
	<path fill="#1F448E" d="M40.222,23.773c-0.114-0.012-0.161-0.021-0.208-0.022c-0.079-0.001-0.19-0.023-0.195,0.088
		c-0.006,0.12,0.103,0.067,0.167,0.065c0.074-0.002,0.108,0.03,0.103,0.101c-0.005,0.087,0.044,0.153,0.097,0.228
		c-0.039,0.011-0.066,0.011-0.081,0.024c-0.206,0.176-0.457,0.07-0.684,0.094c-0.238,0.025-0.212-0.22-0.289-0.416
		c0.315,0.299,0.414,0.307,0.563,0.079c-0.05-0.074-0.231,0.04-0.207-0.131c0.019-0.135,0.089-0.25,0.237-0.281
		C39.896,23.567,40.038,23.629,40.222,23.773z"/>
	<path fill="#1F448E" d="M36.789,17.258c0.215,0.049,0.374,0.099,0.479-0.07c0.038-0.061,0.084-0.154-0.054-0.144
		c-0.08,0.006-0.165,0.063-0.187-0.067c-0.021-0.125-0.016-0.248,0.098-0.333c0.149-0.111,0.318-0.106,0.542-0.066
		c-0.135,0.043-0.238,0.034-0.313,0.099c-0.046,0.04-0.084,0.088-0.054,0.148c0.031,0.062,0.088,0.034,0.124,0.005
		c0.163-0.135,0.208,0.049,0.29,0.11c0.13,0.097-0.045,0.118-0.059,0.182c-0.063,0.271-0.376,0.211-0.527,0.385
		C37.084,17.557,36.909,17.416,36.789,17.258z"/>
	<path fill="#1F448E" d="M39.72,28.722c-0.039-0.009-0.093-0.04-0.116-0.025c-0.235,0.162-0.405-0.108-0.625-0.089
		c-0.128,0.011-0.163-0.155-0.102-0.47c0.068,0.178,0.127,0.344,0.336,0.317c0.066-0.008,0.18-0.034,0.089-0.131
		c-0.061-0.066-0.163-0.087-0.075-0.202c0.081-0.106,0.181-0.172,0.317-0.141c0.155,0.036,0.273,0.128,0.369,0.268
		c-0.09,0.024-0.12-0.041-0.17-0.062c-0.088-0.037-0.187-0.078-0.231,0.037c-0.045,0.115,0.082,0.095,0.138,0.12
		C39.834,28.429,39.63,28.605,39.72,28.722z"/>
	<path fill="#1F448E" d="M34.313,15.013c0.025-0.045,0.069-0.031,0.107-0.036c0.084-0.011,0.186-0.023,0.173-0.129
		c-0.014-0.119-0.117-0.054-0.178-0.044c-0.183,0.032-0.13-0.155-0.208-0.224c-0.089-0.079,0.061-0.075,0.085-0.118
		c0.137-0.25,0.419-0.1,0.617-0.224c0.113-0.071,0.212,0.173,0.281,0.321c-0.132-0.088-0.266-0.153-0.421-0.093
		c-0.065,0.025-0.117,0.074-0.108,0.147c0.009,0.071,0.072,0.047,0.118,0.042c0.13-0.014,0.128,0.067,0.112,0.157
		C34.845,15.067,34.606,15.15,34.313,15.013z"/>
	<path fill="#1F448E" d="M35.443,23.107c-0.104-0.144-0.143-0.294-0.298-0.325c-0.067-0.013-0.139-0.012-0.176,0.053
		c-0.045,0.078,0.027,0.094,0.079,0.116c0.1,0.042,0.05,0.102,0.016,0.157c-0.132,0.212-0.367,0.197-0.591-0.039
		c0.051-0.071,0.099-0.004,0.145,0.005c0.071,0.014,0.139,0.013,0.16-0.066c0.022-0.081-0.055-0.092-0.107-0.103
		c-0.201-0.045-0.075-0.205-0.096-0.304c-0.03-0.135,0.106-0.028,0.154-0.06c0.24-0.162,0.397,0.135,0.63,0.119
		C35.463,22.654,35.464,22.912,35.443,23.107z"/>
	<path fill="#1F448E" d="M34.274,15.828c0.19-0.018,0.396,0.144,0.494-0.056c0.067-0.136-0.13-0.175-0.219-0.249
		c0.392-0.251,0.868-0.136,0.922,0.293c-0.126-0.208-0.276-0.205-0.431-0.179c-0.115,0.019-0.166,0.074-0.146,0.204
		c0.034,0.227-0.054,0.306-0.28,0.263C34.466,16.075,34.335,16.016,34.274,15.828z"/>
	<path fill="#1F448E" d="M33.993,23.693c0.083,0.075,0.143,0.14,0.214,0.19c0.064,0.045,0.146,0.111,0.221,0.048
		c0.07-0.06,0.038-0.151,0.004-0.228c-0.016-0.037-0.039-0.07-0.07-0.127c0.254-0.021,0.481,0.056,0.583,0.239
		c0.054,0.098,0.304,0.214,0.102,0.417c-0.046-0.072-0.077-0.145-0.13-0.199c-0.152-0.158-0.347-0.15-0.406,0.027
		c-0.075,0.224-0.193,0.178-0.332,0.086C34.027,24.044,33.939,23.913,33.993,23.693z"/>
	<path fill="#1F448E" d="M38.718,28.969c0.036,0.185,0.155,0.266,0.319,0.303c0.093,0.021,0.151,0.005,0.197-0.088
		c0.125-0.255,0.294-0.264,0.47-0.032c0.068,0.089,0.076,0.129,0.058,0.304c-0.143-0.068-0.247-0.288-0.414-0.193
		c-0.137,0.078-0.004,0.23,0.045,0.348C38.923,29.609,38.565,29.281,38.718,28.969z"/>
	<path fill="#1F448E" d="M39.962,23.338c-0.274,0.141-0.67,0.08-0.865-0.131c-0.035-0.038-0.023-0.079-0.004-0.114
		c0.032-0.06,0.068-0.017,0.097,0.007c0.106,0.087,0.223,0.083,0.349,0.055c0.097-0.022,0.134-0.066,0.132-0.169
		c-0.007-0.265,0.075-0.319,0.332-0.234c0.161,0.053,0.202,0.097,0.263,0.287c-0.097,0.035-0.167-0.05-0.253-0.056
		c-0.08-0.006-0.174-0.037-0.225,0.048c-0.053,0.089,0.025,0.149,0.077,0.211C39.893,23.275,39.956,23.278,39.962,23.338z"/>
	<path fill="#1F448E" d="M40.049,21.778c-0.233-0.148-0.464-0.227-0.694-0.011c-0.016,0.015-0.07,0.014-0.089-0.001
		c-0.124-0.099-0.269-0.151-0.413-0.212c-0.092-0.039-0.106-0.135-0.079-0.278c0.158,0.278,0.382,0.271,0.622,0.21
		c0.226-0.058,0.498-0.059,0.443-0.444C39.965,21.235,40.038,21.503,40.049,21.778z"/>
	<path fill="#1F448E" d="M38.392,18.51c0.123,0.072,0.236,0.127,0.383,0.098c-0.195,0.382-0.608,0.435-1.001,0.137
		c0.152-0.028,0.268-0.123,0.425-0.084c0.088,0.022,0.135-0.017,0.112-0.125c-0.054-0.247,0.002-0.3,0.259-0.252
		c0.078,0.014,0.158,0.031,0.242,0.113C38.661,18.423,38.508,18.347,38.392,18.51z"/>
	<path fill="#1F448E" d="M39.268,24.825c0.16,0.065,0.33,0.006,0.457,0.148c0.076,0.084,0.137,0.054,0.156-0.068
		c0.039-0.252,0.129-0.283,0.334-0.116c0.072,0.058,0.152,0.116,0.184,0.246c-0.094-0.055-0.159-0.1-0.23-0.133
		c-0.055-0.025-0.129-0.083-0.177-0.014c-0.054,0.077,0.034,0.134,0.075,0.185c0.032,0.04,0.096,0.053,0.147,0.079
		C39.967,25.442,39.498,25.289,39.268,24.825z"/>
	<path fill="#1F448E" d="M39.439,30.295c-0.046-0.013-0.069-0.015-0.088-0.025c-0.084-0.045-0.162-0.222-0.245-0.109
		c-0.07,0.094,0.019,0.247,0.173,0.299c-0.345,0.198-0.756-0.109-0.802-0.589c0.068,0.029,0.141,0.046,0.196,0.087
		c0.145,0.109,0.286,0.399,0.41-0.019c0.015-0.051,0.09-0.024,0.13,0.006C39.324,30.03,39.411,30.131,39.439,30.295z"/>
	<path fill="#1F448E" d="M39.255,25.403c0.24,0.488,0.858,0.564,1.156,0.186c0.047,0.232-0.024,0.44-0.046,0.695
		c-0.196-0.226-0.399-0.339-0.664-0.221c-0.014,0.006-0.041,0.009-0.047,0.001c-0.123-0.167-0.341-0.25-0.413-0.459
		C39.227,25.564,39.246,25.511,39.255,25.403z"/>
	<path fill="#1F448E" d="M38.617,17.864c-0.284-0.06-0.504-0.04-0.686,0.191c-0.075,0.095-0.549-0.028-0.685-0.218
		c0.29,0.155,0.489,0.049,0.688-0.061c0.195-0.109,0.424-0.196,0.331-0.51C38.382,17.464,38.499,17.664,38.617,17.864z"/>
	<path fill="#1F448E" d="M34.63,17.96c-0.084-0.22-0.072-0.436-0.086-0.689c0.237,0.18,0.442,0.265,0.719,0.124
		c0.13-0.066,0.24,0.183,0.4,0.231c0.136,0.04,0.14,0.156,0.121,0.291C35.427,17.518,34.805,17.542,34.63,17.96z"/>
	<path fill="#1F448E" d="M34.692,20.621c0.049-0.036,0.071-0.004,0.098,0.01c0.082,0.045,0.195,0.157,0.252,0.064
		c0.059-0.096-0.036-0.206-0.16-0.248c-0.02-0.007-0.035-0.026-0.055-0.041c0.309-0.232,0.723-0.058,0.894,0.374
		c-0.08-0.006-0.179,0.015-0.232-0.024c-0.193-0.144-0.341-0.239-0.361,0.123c-0.003,0.061-0.097,0.045-0.148,0.018
		C34.857,20.834,34.756,20.746,34.692,20.621z"/>
	<path fill="#1F448E" d="M36.693,15.14c0.204,0.212,0.353,0.381,0.502,0.606c-0.307-0.048-0.552-0.008-0.668,0.292
		c-0.016,0.042-0.07,0.042-0.11,0.029c-0.129-0.042-0.256-0.037-0.388-0.012c-0.122,0.023-0.164-0.067-0.215-0.202
		c0.414,0.245,0.611-0.088,0.855-0.263C36.799,15.497,36.788,15.453,36.693,15.14z"/>
	<path fill="#1F448E" d="M40.185,22.522c-0.035-0.072-0.063-0.149-0.106-0.216c-0.12-0.187-0.225-0.2-0.351-0.026
		c-0.075,0.103-0.119,0.103-0.206,0.025c-0.119-0.107-0.29-0.088-0.482-0.173c0.339-0.067,0.63-0.122,0.921-0.182
		c0.115-0.024,0.166,0.026,0.184,0.134c0.025,0.143,0.055,0.285,0.083,0.427C40.213,22.515,40.199,22.519,40.185,22.522z"/>
	<path fill="#1F448E" d="M36.448,14.911c-0.337-0.154-0.339-0.155-0.457,0.157c-0.02,0.053-0.047,0.091-0.103,0.079
		c-0.148-0.03-0.284,0.039-0.454,0.017c0.202-0.194,0.402-0.39,0.609-0.579c0.08-0.073,0.152-0.018,0.211,0.044
		C36.325,14.704,36.408,14.773,36.448,14.911z"/>
	<path fill="#1F448E" d="M34.435,16.543c0.07,0.018,0.069,0.088,0.101,0.131c0.106,0.139,0.216,0.169,0.343,0.026
		c0.045-0.051,0.081-0.155,0.168-0.073c0.133,0.126,0.305,0.143,0.468,0.226c-0.286,0.052-0.573,0.105-0.859,0.157
		c-0.123,0.022-0.188-0.031-0.196-0.154C34.452,16.752,34.388,16.653,34.435,16.543z"/>
	<path fill="#1F448E" d="M33.581,24.582c0.188-0.067,0.314-0.075,0.429-0.147c0.155-0.096,0.217,0.063,0.24,0.177
		c0.042,0.212,0.086,0.369,0.356,0.222c0.072-0.039,0.168,0.025,0.269,0.098c-0.15,0.058-0.28,0.086-0.383,0.184
		c-0.091,0.087-0.162,0.001-0.214-0.077c-0.056-0.085-0.051-0.186-0.072-0.281c-0.023-0.107-0.087-0.197-0.205-0.115
		C33.86,24.743,33.763,24.662,33.581,24.582z"/>
	<path fill="#1F448E" d="M33.813,27.041c-0.174-0.17-0.28-0.406-0.531-0.509c-0.105-0.043-0.01-0.255-0.224-0.285
		C33.507,26.1,33.833,26.479,33.813,27.041z"/>
	<path fill="#1F448E" d="M34.826,13.571c-0.223-0.026-0.41,0.068-0.59-0.031c-0.154,0.239-0.31-0.037-0.481,0.03
		C33.973,13.201,34.401,13.201,34.826,13.571z"/>
	<path fill="#1F448E" d="M37.654,31.511c0.159-0.047,0.295-0.058,0.408-0.148c0.096-0.076,0.164,0.009,0.21,0.092
		c0.046,0.082,0.039,0.173,0.046,0.263c0.01,0.143,0.069,0.223,0.221,0.14c0.127-0.068,0.21-0.003,0.328,0.088
		c-0.147,0.038-0.264,0.057-0.365,0.133c-0.099,0.075-0.172-0.004-0.205-0.094c-0.031-0.082-0.034-0.175-0.056-0.261
		c-0.031-0.117-0.083-0.204-0.223-0.115C37.875,31.7,37.781,31.615,37.654,31.511z"/>
	<path fill="#1F448E" d="M14.589,30.424c0.276-0.056,0.267,0.112,0.246,0.272c-0.06,0.447,0.05,0.884,0.076,1.325
		c0.018,0.3,0.002,0.339-0.309,0.349c-0.096,0.003-0.191,0-0.307,0c0.061,0.164,0.144,0.163,0.262,0.126
		c0.338-0.106,0.534,0.091,0.459,0.445c-0.019,0.091-0.084,0.114-0.159,0.129c-0.136,0.027-0.273,0.053-0.441,0.085
		c0.09,0.045,0.162,0.068,0.219,0.111c0.08,0.061,0.122,0.061,0.198-0.022c0.135-0.148,0.205-0.118,0.248,0.083
		c0.026,0.12,0.04,0.243,0.07,0.362c0.039,0.152,0.026,0.26-0.167,0.269c-0.058,0.003-0.119,0.03-0.105,0.107
		c0.015,0.08,0.081,0.068,0.138,0.06c0.141-0.019,0.234,0.017,0.271,0.174c0.19,0.816,0.455,1.609,0.774,2.384
		c0.012,0.028,0.01,0.062,0.017,0.111c-0.14-0.006-0.213-0.104-0.296-0.17c-0.263-0.209-0.52-0.426-0.774-0.645
		c-0.057-0.049-0.171-0.085-0.126-0.184c0.047-0.104,0.166-0.164,0.268-0.127c0.133,0.048,0.164-0.042,0.236-0.102
		c0.116-0.096,0.062-0.189-0.01-0.246c-0.092-0.074-0.164,0.007-0.216,0.086c-0.213,0.322-0.426,0.337-0.729,0.043
		c-0.633-0.611-1.199-1.279-1.708-1.997c-1.442-2.035-2.319-4.291-2.619-6.764c-0.302-2.49,0.02-4.904,0.949-7.235
		c0.081-0.203,0.083-0.202,0.305-0.269c-0.086-0.066-0.175-0.161-0.085-0.241c0.17-0.15,0.153-0.369,0.243-0.546
		c0.151-0.299,0.531-0.337,0.732-0.072c0.105,0.139,0.106,0.16,0.005,0.365c0.209-0.073,0.295,0.059,0.396,0.19
		c1.092,1.414,2.51,2.332,4.237,2.779c0.103,0.027,0.21,0.042,0.31,0.077c0.068,0.024,0.193-0.006,0.182,0.116
		c-0.008,0.092-0.072,0.164-0.184,0.162c-0.068-0.002-0.118,0.034-0.112,0.101c0.037,0.388-0.222,0.631-0.434,0.895
		c-0.027,0.034-0.055,0.052-0.041,0.099c0.028,0.098-0.002,0.158-0.111,0.172c-0.099,0.013-0.175-0.006-0.225-0.103
		c-0.046-0.089-0.057-0.217-0.225-0.211c0.017,0.198,0.091,0.365,0.256,0.468c0.132,0.083,0.128,0.167,0.065,0.285
		c-0.221,0.413-0.376,0.854-0.548,1.287c-0.071,0.18-0.233,0.322-0.196,0.547c0.011,0.07-0.051,0.139-0.15,0.114
		c-0.046-0.012-0.1-0.038-0.128,0.023c-0.026,0.057,0.016,0.094,0.06,0.118c0.115,0.061,0.099,0.154,0.07,0.255
		c-0.274,0.929-0.469,1.872-0.549,2.839c-0.014,0.169-0.026,0.171-0.238,0.163C14.99,29.287,14.933,30.175,14.589,30.424z"/>
	<path fill="#1F448E" d="M23.303,14.177c-0.002,2.565-2.013,4.561-4.59,4.555c-2.479-0.005-4.528-2.072-4.529-4.57
		c-0.001-2.5,2.063-4.554,4.572-4.551C21.266,9.614,23.305,11.663,23.303,14.177z M18.783,9.963
		c-2.381-0.005-4.222,1.824-4.253,4.176c-0.029,2.175,1.683,4.265,4.234,4.264c2.373-0.001,4.193-1.822,4.22-4.225
		C23.01,11.862,21.103,9.968,18.783,9.963z"/>
	<path fill="#1F448E" d="M25.401,35.703c0.001-3.149,2.518-5.803,5.821-5.786c3.344,0.017,5.782,2.741,5.771,5.818
		c-0.012,3.105-2.505,5.79-5.811,5.777C27.765,41.498,25.382,38.693,25.401,35.703z M35.893,35.705
		c0.042-2.419-1.94-4.701-4.717-4.7c-2.708,0.001-4.693,2.217-4.681,4.681c0.013,2.63,2.095,4.738,4.708,4.739
		C33.816,40.424,35.894,38.333,35.893,35.705z"/>
	<path fill="#1F448E" d="M22.488,40.132c0.175-0.074,0.299-0.033,0.4-0.101c0.049-0.033,0.104-0.071,0.086-0.134
		c-0.027-0.089-0.094-0.026-0.144-0.022c-0.056,0.005-0.111,0.012-0.233,0.025c0.116-0.06,0.182-0.081,0.229-0.123
		c0.057-0.051,0.028-0.135-0.033-0.125c-0.158,0.027-0.238-0.125-0.354-0.118c-0.033-0.345,0.317-0.422,0.435-0.667
		c0.047-0.098,0.208,0.011,0.311,0.052c0.083,0.033,0.13,0.088,0.114,0.191c-0.052,0.315-0.1,0.631-0.146,0.948
		c-0.016,0.111-0.072,0.16-0.183,0.145C22.832,40.182,22.696,40.162,22.488,40.132z"/>
	<path fill="#1F448E" d="M21.184,36.439c-0.192-0.051-0.334-0.088-0.44,0.039c-0.04,0.048-0.114,0.151,0.024,0.153
		c0.103,0.001,0.175-0.015,0.187,0.113c0.012,0.133-0.019,0.25-0.147,0.309c-0.15,0.069-0.307,0.104-0.491,0.011
		c0.112-0.046,0.228-0.014,0.308-0.088c0.038-0.036,0.063-0.081,0.043-0.131c-0.027-0.068-0.082-0.045-0.12-0.016
		c-0.193,0.15-0.235-0.083-0.315-0.147c-0.102-0.082,0.077-0.1,0.102-0.168c0.092-0.251,0.392-0.171,0.554-0.332
		C20.931,36.138,21.091,36.273,21.184,36.439z"/>
	<path fill="#1F448E" d="M20.861,35.065c0.024,0.096,0.029,0.164,0.058,0.219c0.03,0.058,0.088,0.079,0.133,0.008
		c0.145-0.228,0.144-0.228,0.318-0.322c0.032,0.091,0.046,0.192,0.138,0.249c0.057,0.036,0.078,0.08,0.023,0.139
		c-0.049,0.053-0.047,0.118-0.032,0.185c0.071,0.322,0.021,0.386-0.37,0.437c0.15-0.116,0.281-0.223,0.213-0.414
		c-0.019-0.055-0.05-0.113-0.113-0.117c-0.098-0.006-0.062,0.071-0.061,0.122c0.002,0.122-0.08,0.103-0.153,0.087
		C20.767,35.604,20.697,35.371,20.861,35.065z"/>
	<path fill="#1F448E" d="M19.637,36.03c0.157,0.009,0.283,0.036,0.391-0.064c-0.045-0.147-0.18-0.13-0.294-0.147
		c0.201-0.411,0.595-0.446,0.987-0.086c-0.12,0.034-0.234,0.067-0.347,0.1c-0.074,0.021-0.154,0.054-0.148,0.14
		c0.022,0.304-0.173,0.229-0.338,0.2C19.809,36.158,19.728,36.135,19.637,36.03z"/>
	<path fill="#1F448E" d="M22.764,38.569c-0.25-0.049-0.345,0.176-0.543,0.16c-0.08-0.006-0.07,0.062-0.038,0.124
		c0.13,0.252,0.079,0.333-0.213,0.351c-0.09,0.005-0.177-0.004-0.284-0.073c0.164-0.056,0.356-0.003,0.442-0.192
		c-0.127-0.08-0.26-0.057-0.395-0.027C21.829,38.484,22.29,38.316,22.764,38.569z"/>
	<path fill="#1F448E" d="M24.196,39.174c-0.456,0.108-0.37,0.5-0.44,0.802c-0.044,0.191,0.121,0.242,0.244,0.338
		c-0.23-0.026-0.461,0.005-0.758-0.102c0.334-0.14,0.342-0.367,0.327-0.641c-0.009-0.171,0.245-0.235,0.34-0.389
		C23.976,39.075,24.089,39.162,24.196,39.174z"/>
	<path fill="#1F448E" d="M23.405,34.402c0.378,0.245,0.314,0.715,0.026,0.977c-0.083-0.118-0.138-0.225-0.054-0.371
		c0.039-0.069,0.078-0.16-0.083-0.145c-0.287,0.027-0.332-0.045-0.213-0.315c0.026-0.058,0.042-0.125,0.113-0.156
		c0.057,0.058,0.002,0.12,0.007,0.179c0.005,0.063-0.011,0.129,0.04,0.202C23.354,34.684,23.458,34.602,23.405,34.402z"/>
	<path fill="#1F448E" d="M22.233,38.06c-0.511-0.085-0.983,0.279-0.883,0.741c-0.105-0.125-0.177-0.208-0.245-0.293
		c-0.066-0.082-0.129-0.167-0.193-0.251c0.06-0.09,0.14-0.04,0.205-0.042c0.12-0.003,0.26-0.015,0.307-0.119
		c0.157-0.35,0.459-0.122,0.685-0.188C22.181,37.887,22.221,37.978,22.233,38.06z"/>
	<path fill="#1F448E" d="M28.009,12.169c0.113,0.062,0.194,0.105,0.257-0.029c0.061-0.129,0.173-0.193,0.306-0.225
		c0.047-0.011,0.098-0.019,0.145-0.014c0.074,0.007,0.198,0.032,0.191,0.082c-0.036,0.263,0.294,0.257,0.318,0.463
		c0.01,0.085-0.084,0.089-0.142,0.161c0.248-0.004,0.377,0.139,0.475,0.329c0.154,0.298,0.314,0.593,0.468,0.891
		c0.068,0.132,0.11,0.272,0.116,0.423c0.009,0.218-0.073,0.33-0.332,0.28c0.102-0.12,0.052-0.225-0.038-0.343
		c-0.115,0.216-0.386,0.224-0.451,0.098c-0.09-0.177-0.347-0.278-0.309-0.539c-0.055-0.009-0.113,0.038-0.175,0.066
		c-0.032,0.054,0.013,0.077,0.038,0.106c0.184,0.208,0.312,0.463,0.569,0.669c-0.484,0.012-0.922,0.131-1.379,0.15
		c-0.291,0.012-0.578,0.131-0.865,0.209c-0.172,0.047-0.324,0.081-0.275-0.216c-0.11,0.068-0.066,0.151-0.087,0.21
		c-0.037,0.103-0.117,0.142-0.212,0.126c-0.109-0.019-0.044-0.109-0.058-0.171c-0.055-0.249,0.057-0.492-0.072-0.761
		c-0.148-0.309-0.05-0.693-0.106-1.043c-0.139-0.882-0.395-1.724-0.82-2.511c-0.16-0.297-0.113-0.381,0.222-0.377
		c0.016,0,0.033,0,0.049,0.001c0.513,0.014,0.524,0.028,0.449,0.535c-0.005,0.031-0.006,0.063-0.01,0.105
		c0.176-0.003,0.171-0.101,0.161-0.227c-0.011-0.138-0.054-0.319,0.179-0.322c0.086-0.001,0.199-0.021,0.25,0.065
		c0.058,0.097-0.061,0.135-0.107,0.194c-0.068,0.088-0.079,0.176-0.031,0.275c0.061,0.123,0.13,0.046,0.217,0.029
		c0.181-0.034,0.07,0.156,0.135,0.224c0.106-0.035,0.199-0.05,0.225-0.207c0.025-0.151-0.053-0.187-0.141-0.243
		c-0.07-0.045-0.156-0.095-0.125-0.189c0.04-0.124,0.148-0.058,0.232-0.055c0.251,0.011,0.456,0.106,0.616,0.305
		c0.185,0.229,0.375,0.455,0.575,0.671c0.174,0.187,0.118,0.34-0.046,0.482C28.3,11.954,28.161,12.052,28.009,12.169z"/>
	<path fill="#1F448E" d="M24.991,29.267c-2.353-0.002-4.269-1.926-4.265-4.284c0.004-2.365,1.908-4.248,4.293-4.247
		c2.332,0.001,4.245,1.935,4.239,4.283C29.253,27.377,27.352,29.269,24.991,29.267z M29.008,25.009
		c0.002-2.258-1.749-3.991-3.997-4.031c-2.207-0.039-4.068,1.821-4.039,4.013c0.029,2.25,1.765,4.022,4.006,4.024
		C27.261,29.017,29.006,27.283,29.008,25.009z"/>
	<path fill="#1F448E" d="M18.728,18.114c-2.227-0.025-3.958-1.81-3.904-4.075c0.05-2.112,1.84-3.876,4.082-3.793
		c2.044,0.075,3.803,1.723,3.784,3.946C22.672,16.474,20.881,18.108,18.728,18.114z"/>
	<path fill="#1F448E" d="M31.217,39.957c-2.287,0.057-4.257-1.824-4.281-4.227c-0.025-2.359,1.883-4.262,4.239-4.266
		c2.361-0.005,4.293,1.892,4.282,4.232C35.446,38.245,33.367,40.011,31.217,39.957z M27.284,35.694
		c-0.057,1.96,1.552,3.929,3.878,3.942c2.203,0.013,3.94-1.707,3.946-3.892c0.005-2.209-1.741-3.965-3.941-3.962
		C29.017,31.784,27.286,33.528,27.284,35.694z"/>
</g>
</svg>
