<svg xmlns="http://www.w3.org/2000/svg" width="50" height="50" viewBox="0 0 48 48"><linearGradient id="a" x1="20.092" x2="28.314" y1="4.966" y2="43.644" gradientUnits="userSpaceOnUse"><stop offset="0" stop-color="#636363"/><stop offset="1" stop-color="#444"/></linearGradient><path fill="url(#a)" d="M43 10.077c-.506-.001-1.216-.054-1.717.024-.746.132-1.506-.086-2.258-.109-.011-.184.129-.513.122-.696-.141-.018-.281-.028-.417-.06-.127-.457-.078-.939-.093-1.408a27.859 27.859 0 0 1-.289-.006c-.023.534-.021 1.068-.027 1.602-.185-.151-.314-.444-.583-.423L30.392 9c-.388.042-.691-.223-1.004-.41a9.955 9.955 0 0 0-.117-.732c-.22.303-.24.691-.321 1.048-.584.116-1.161.443-1.756.495-.052-.344-.107-.687-.145-1.034.315-.152.669-.254.93-.502.307-.898-.048-1.832-.251-2.71A9.668 9.668 0 0 0 25.677 4h-1.042c-.716.234-1.429.617-1.836 1.291-.63.989-.717 2.259-.321 3.357l-.224.156c-.682-.54-1.625-.273-2.278.18-.948.719-1.454 1.895-1.664 3.055-.217.983-.12 1.992-.004 2.98-.392.097-.794.116-1.193.146-.167.007-.378.074-.396.273-.12.782-.031 1.586-.192 2.363a6.372 6.372 0 0 0-.154 1.514c.437.099.877.194 1.316.287-.3.138-.645.236-.859.509-.188 1.261.26 2.504.22 3.769-.22.192-.495.365-.567.673-.135.363.08.732.027 1.103-.051.404.04.806.169 1.184.121.317.02.657-.028.98-.142.836-.305 1.674-.34 2.523-.028.448.127.91-.016 1.345-.466 1.068-1.249 1.959-1.663 3.054-.183.504-.09 1.08-.353 1.558-.281.538-.669 1.069-.634 1.714-.031.437.317.829.17 1.266a103.23 103.23 0 0 1-.679 2.669c-.164.589-.195 1.234-.012 1.822.245.129.521.172.789.23h1.031c.333-.031.663-.087.996-.134.096-.462-.017-.913-.173-1.343-.194-1.084-.021-2.236.52-3.192.187-.248.527-.344.66-.64.199-.423.294-.886.476-1.316.256-.612.606-1.187.766-1.838.089-.356-.013-.721.019-1.081.097-.399.276-.79.57-1.078.394-.369.548-.934.979-1.269.294-.22.308-.614.37-.951.058-.446.203-.873.364-1.29.229-.577.387-1.21.828-1.665.28-.293.42-.683.522-1.071.175.339.315.715.596.981.315.158.774.073.965.434.549.836.59 1.312 1.141 2.148.263.519.897.392 1.366.406.27.371.571.478.481.928-.017.507-.445.898-.385 1.417.047 1.056.125 2.121.399 3.144.096.477.344.915.352 1.411.012.574-.097 1.514-.212 2.081-.28.759-.471 1.553-.507 2.366.662.39 1.426-.006 2.118.225.759.251 1.555.341 2.35.326.489-.009.979-.057 1.46-.132.003-.277.093-.578-.033-.837-.4-.473-1.069-.475-1.555-.802-.393-.354-.714-.786-1.042-1.201-.277-.326.094-.777.083-1.188.004-.624.001-1.267.231-1.855.17-.468.113-.974.021-1.451-.124-.587.086-1.166.14-1.747a67.67 67.67 0 0 0 .184-2.38c.036-.453-.119-.885-.229-1.316-.065-.406-.451-.635-.564-1.02-.662-1.826-1.268-3.329-2.572-4.785-.501-.499-.754-1.333-.45-2.004.282.077.562.162.848.234.305-.411.603-.865.652-1.393.05-.544.065-1.091.113-1.635.022-.593.15-1.204-.003-1.786-.1-.398-.493-.57-.797-.772.073-.277.147-.552.212-.831 1.003.489 1.933 1.198 3.056 1.372.301.046.623.19.922.052.412-.198.73-.544 1.09-.822.652-.513.562-1.449.789-2.181.222-.086.448-.165.673-.249-.148-.649-.406-1.305-.318-1.982.27-.369.611-.59.892-.951.201-.274.549-.345.866-.337.955-.005 1.911.012 2.867.001.031-.139-.082.139-.048 0 .994.057 1.989-.159 2.985-.035.621.107 1.455.063 2.079.017-.033-.184-.049-.724-.057-.907zm-12.297 3.497c-.189-.338-.472-.656-.528-1.046.03-.041.092-.12.122-.16.406-.043.815-.016 1.222.004-.263.406-.541.804-.816 1.202zm-.059-1.308c.27-.138.357-.423.392-.71.217-.011.435-.018.655-.023l.023.631c-.352.079-.713.078-1.07.102zM43 23h-7v-2h8.5a.5.5 0 0 0 .5-.5c0-.828-1.172-1.5-2-1.5h-7c-1.1 0-2 .9-2 2v2c.055.998 1 2 2 2h7v2h-8.5a.5.5 0 0 0-.5.5c0 .828 1.172 1.5 2 1.5h7c1.1 0 2-.9 2-2v-2c0-1-.88-1.981-2-2zM5 21h7.416c.325 0 .587-.311.486-.62A2 2 0 0 0 11 19H5a2 2 0 0 0-2 2v6a2 2 0 0 0 2 2h6a2 2 0 0 0 1.902-1.38c.1-.309-.162-.62-.486-.62H5v-6z"/></svg>