<svg xmlns="http://www.w3.org/2000/svg" width="50" height="50" viewBox="0 0 48 48"><path fill="#37474f" d="m22.463 27.062-.179-.352c-.131 0-.199-.003-.259 0-.071.003-.153-.109-.153-.109s-.115.103-.33.086l-.061 1.091s.253.041.261.099c.007.047-.051.121-.115.121s-.107-.075-.107-.075l-.055-.008-.302 4.391-.034-4.51-.228-.084-.095.45-.009 4.02-.303.99-.007 1.293.108.438.004.734-.14.518-.014 1.919L20.206 41l-.144-1.972-.148-.407.007-3.332-.071-.629s-.089 2.054-.119 2.821l-.227-3.336.026-2.188-.194-.794-.003-1.757-.302-.889V26.91s-.324-.087-.448-.192c-.116-.097-.267-.241-.267-.241l-.404.01-1.297-.699-.177-.021-.22-.333.246.252s.901.195 1.229.247c.13.021.315.043.231-.213-.006-.019.01-.05.022-.072.09-.167.117-.304-.136-.317-.022-.001-.092-.044-.097-.061-.021-.08-.038-.213-.125-.206-.166.013-.352-.08-.458-.112a.36.36 0 0 0-.188.001s-.106-.115-.157-.129c-.085-.022-.13-.005-.195-.011-.266-.024-.305.116-.384.324-.263-.357-.378-.229-.567-.324a3.4 3.4 0 0 0-.283-.114s-.141.063-.212.122c-.034.028-.136.031-.155.006a.434.434 0 0 0-.424-.182c-.153.019-.302-.066-.302-.066l-.012.399-.212.644-.057 1.391-.116.57-.034-2.992-.081-.004.007 4.037.035.066.007.487-.182.429-.02.449.072.145-.276 5.529-.048-3.772-.073-.156-.081 2.351-.231.733.021 1.859-.227.477v.699l.031.115-.196 2.356-.15-2.578-.165-.841-.015-1.633-.116-.396.002-1.803-.177-1.234-.001-2.706-.113-.419.01-1.626-.094-.394-.303 5.377-.054-6.687-.12-.116-.002-1.158c-.442.077-.814-.085-1.193-.248-.175-.076-.621-.033-.752-.1-.134-.069-.283-.182-.283-.182s-.28.029-.441-.023c-.318-.043-.384-.158-.524-.296-.454-.447-.964-.75-1.602-.797-.207-.015-.365-.119-.515-.268a1.073 1.073 0 0 0-.93-.31.564.564 0 0 1-.261-.028c-.287-.107-.57-.227-.854-.344-.105-.044-.31-.154-.31-.154s-.09.049-.135.078c-.022.014-.081-.004-.105-.027-.197-.189-.382-.382-.401-.689-.007-.11.019-.171-.026-.216-.148-.15-.333-.328-.331-.538.002-.236-.013-.56-.005-.796.012-.395.193-.671.52-.901.166-.117.33-.189.517-.206.223-.02.47.028.678.039.56.029.424.085.57.105.106.015.264.015.371.007.773-.031.841.044 1.256.337.377.267.816.099 1.031.252.07.05.252.273.474.35.336.116.435.09.641.145.617.165.762.169 1.107.151l.033.054.141.02.108-.088 1.063.021-.064-.977-.214-.677.293-1.199v-1.41l.041-.034.002-.157-.043-.053.001-.141.044-.008.002-.237-.057-.056.007-.507.282-.621.031-.578.375-.301s.197-.038.268-.065c.284-.109.436-.197.436-.197.561-.048.85-.185.85-.185l.108-.367c.044.146.151.55.151.55l.207-.079s.121.226.246.242l.089-.377.135.044.112-1.216.175 2.176.074.17s.051-.368.066-.441c.013.203.105.818.105.818s.269.508.348.764c0 0-.087.281-.158.707-.095.121-.259.237-.244.587.014.323.061.591.061.591l-.135.161.016 2.427-.384 1.461.993.085.356.167.463-.013.893.222.164-.037.355.212.22-.02s.031.042.066.054l-.046.199.062.084.174.02.344.29.211-.11-.134-2.847.121-.228-.002-.841-.379-1.101-.01-2.013-.103-.12-.03 1.015-.146-1.715-.172-.276-.001-.385-.045-.024c.001-.077.043-.302.043-.302l-.069-.089.114-1.135s.191-.072.358-.49c.142-.357.282-.479.497-.663.137-.118.255-.261.397-.372.16-.125.2-.266.507-.338.255-.059.443-.337.443-.337l.091.106.212-.632.148-.051L20.668 7l.117 2.06.099.016.096-.719.13 1.309.08.029.027-.397.105-.137.076-.835.089 1.151.05.161.051-.182.059.596.199.121.002.237.199.311s.029.373.025.471l-.01.291.07.316-.115.201-.005.123.046.039.009 1.131-.119.576.048.313-.206 3.773-.039-2.784-.141.64-.01 2.76.184.616.013 3.077s.119-.06.276-.054c.226.008.417.192.748.249.108.077.264.259.384.316.034.016.26.062.26.062l.232.217a.908.908 0 0 1 .527.101c.293.077.542.209.706.469.111.177.263.281.37.343.107.063.589.052.589.052l-.006-2.925-.25-.957-.022-2.148.272-.545-.024-1.815-.079-.268.005-.646-.068.086s-.049 2.018-.072 2.723c-.01 0-.195-3.698-.195-3.698l-.167-.343s.155-.428.155-.5c0-.174-.066-.255-.066-.255l-.022-.641s.128-.275.183-.622c.038-.239.04-.524.04-.524l.471-.575.012-.429.195-.228.098-1.871.101 1.409.204.755.098-.106v-.49l.109.194.039-.813.047.717.163.303.221-.058.478.283.177-.006.096-.345.103.535.158.109.054.179s.221.134.263.179c.109.163.315.738.315.738l.053.666c-.341.734-.379 1.093-.377 1.538.002.524-.092 1.677-.092 1.677l.207.956-.148 6.021-.121.563-.003-4.166-.043-.079-.164.765-.004 3.968-.085.73-.011.74s.104.082.254.114c.341.269.752.329 1.21.255.031-.005.064-.002.096-.004.173-.011.298.057.36.229.056.158.165.202.327.21.186.01.267-.01.451.031.124.028.143.167.473.167.214.01.388.099.562.213.132.087.452.238.452.238l-.057-2.138.039-1.972-.104-.462-.059-.07-.12 1.39-.277-1.88-.014-2.227.164-.581v-.886l-.133-.665.019-.262-.081-.047-.005-.17-.038-.063.237-1.234.327-.291.267-.686.065.259.066.043.1-1.669.205 1.275.15.131.118-.056.161-2.236.129 2.075.089-.841.069 1.007.079-.104.066.126.086.005.06.106.144-.007c.123.126.302.167.379.221.123.087.29.112.29.112s.243.376.353.635c.087.205.214.637.214.637l-.032.719.081.26-.207.565.241.356-.295 6.693-.116-4.39-.066.26.008 1.208-.264.613s-.013 2.053-.002 2.986c.004.322-.012.505-.012.505l-.295.737-.005.495.228.126c.366-.063.761-.045 1.082.168.119.079.27.111.411.148.196.052.151.003.352.03.069.009.313.159.382.121.072-.039.138-.235.243-.254.105-.019.216.161.217.239.001.073.007.206.007.206s.259.147.381.144c.532 0 .812.199 1.262.285.326.062.471.081.791.17.113.031.319.052.428.149.045.04.029.144.262.211.127.037.5.033.739.176.456.273.766.356 1.09.332a.585.585 0 0 1 .349.071c.299.201.626.288.973.326.078.009.19.069.266.091 0 .012-.134.079-.281.077-.107-.001-.224-.069-.291-.067-.368.01-.313-.024-.555-.076-.13-.028-.146.015-.229.118-.082.102-.214.182-.322.162-.122-.023-.225-.157-.436-.187-.493-.072-.388-.193-.791-.348-.106-.04-.409-.07-.524-.077-.455 0-.271-.199-.533-.219s-.269-.19-.378-.226c-.09-.03-.112.027-.376.015-.057-.003-.143.009-.185-.026-.386-.317-.864-.242-1.302-.333-.441-.023-.543-.145-.776-.155-.163-.007-.463.142-.463.142s-.014.139.005.195c.071.223.27.321.568.276.184-.028.358-.068.465.147.009.018.043.029.067.032.087.016.19-.002.271.013.099.019.174.072.264.09 1.893.384 1.892.588 2.306.588.239 0 .319.025.68.025.052 0 .144.222.791.374.155.051.214.09.775.09.123 0 .567.285.789.295.052.002.174-.007.176-.087.002-.066-.065-.13-.116-.154-.121-.058-.254-.086-.379-.135a.73.73 0 0 1-.182-.103c-.023-.018-.042-.046-.031-.103.012-.057.117-.018.117-.018s.213.187.765.271c.151.065.526.336.683.386.417-.003.549.061.65.148.053.045.105.061.213.081.138.026.43-.037.413.032-.014.12-.083.189-.225.155-.099-.023-.202-.046-.293-.09-.22-.108-.434-.214-.694-.181-.085.011-.184-.047-.269-.087-.192-.091-.376-.108-.567.008-.205.125-.419.087-.629.007-.155-.059-.46-.206-.46-.206s-.337-.014-.467.03c.003-.098-.01-.233-.158-.197s-.078.12-.019.17c-.112.01-.242.078-.355.067-.113-.01-.209-.098-.321-.241-.046-.059-.118-.136-.185-.146-.041-.006-.066.045-.121.047-.049.002-.166-.139-.256-.151-.176-.024-.309-.109-.407-.145-.185-.066-.315-.05-.315-.05s-.156-.099-.234-.127c-.224-.081-.257-.045-.269.188.018.209-.079.282-.135.4-.009.018-.093.034-.174-.05l.007-.06c.061-.042.146-.07.177-.129a.23.23 0 0 0 .022-.187c-.01-.037-.03-.125-.083-.143-.031-.011-.135.063-.167.054-.046-.012-.07-.146-.142-.087-.072.06-.024.124-.013.181.037.182-.051.323-.221.331-.101.004-.163-.034-.136-.152l.032-.154c.032-.169-.034-.26-.034-.26s-.554-.193-.709-.221c-.091-.016-.201.029-.219.083-.059.182-.023.222.068.343.02.026.046.064.078.084.085.054.166.099.09.226-.072.12-.153.186-.299.145-.155-.057-.21-.108-.458-.112a.563.563 0 0 1-.22-.106c-.204-.187-.461-.24-.729-.24-.066 0-.133-.052-.172-.104-.126-.172-.224-.213-.415-.218-.147-.005-.369.004-.515-.012a1.415 1.415 0 0 1-.298-.027l-.022-.146-.295-.015.11.989-.366 5.915-.102-4.284-.057-.01-.094.376v2.58l-.259.775-.3 3.792-.241-3.779-.02-2.052-.185-.727.007-1.108.111-.439v-1.949l-.182-.523s-.035-.002-.175.035c-.058.015-.192-.026-.192-.026l-.059 2.121-.059-2.106a2.141 2.141 0 0 0-.306.2c-.304.24-.611.357-.836.326-.139-.019-.223.06-.303.068-.042.004-.097-.018-.109-.047-.059-.147-.183-.165-.309-.195-.23-.054-.458-.12-.688-.177-.359-.088-.718-.119-1.072.031-.033.014-.08.031-.112.011-.16-.105-.314-.043-.462-.003-.275.074-.292-.13-.292-.13l-.069-.063-.225.876.008 3.999-.32.761v1.046l-.325 2.706-.212-3.585.028-2.055-.208-.568s-.135 2.233-.192 3.134l-.174-3.096-.206-.74.131-.669.008-2.188-.103-.044s-.138-.388-.232-.388-.863-.047-.863-.047-.56.174-.82.281c-.161.066-.244.03-.412.03-.022 0-.079.055-.144.102-.112.08-.212.091-.307-.016-.134-.153-.257-.148-.257-.148s-.224.091-.246.086a1.321 1.321 0 0 1-.246-.076.479.479 0 0 1 .002-.12l.195-.105.13.047.078.062.12-.022.107.07s.07-.014.091-.01c.014.003.037-.218.037-.218l.027.239c.128.029.155-.145.155-.223 0-.102-.062-.215-.062-.215l-.05-.017-.078.086-.07-.136-.206-.135-.325-.014-.231-.421zm.117.479s.246.141.193.182c-.021.016-.126-.098-.234-.096-.082.001-.19.114-.19.114l-.159-.003-.205.194-.118-.004-.079.079.021-.114s.219-.202.243-.239c.051-.079.084-.338.084-.338s.079.025.185.025l.095-.19.144.212.02.178zm6.937-.481-.026.278s.146.025.261.038c.057.006.11.104.104.339a.434.434 0 0 0 .313.027c.099-.025.193-.078.292-.092.149-.021.327-.074.446-.016.489.24.983.162 1.48.105.007-.074.006-.178.004-.222-.005-.13-.055-.089-.238-.049-.146.032-.231-.022-.309-.132-.075-.105-.157-.206-.238-.306-.008-.01-.034-.005-.06-.008l-.031.146c-.182.027-.14-.132-.221-.162-.096-.035-.215 0-.305-.043-.258-.124-.509-.26-.798-.096-.015.008-.04.007-.057 0-.118-.048-.367-.099-.367-.099s-.112.094-.385.093c-.378.037-.697-.063-.887-.44a.736.736 0 0 0-.177-.205c-.039-.035-.101-.043-.152-.063l-.031.049c.03.035.054.081.091.103.172.102.269.212.386.421.103.139.265.185.36.283.305-.003.39.033.545.051zm4.904 1.074s-.045.27.04.412c0 0 .187-.002.432.004.247.006.489.079.734.113.063.009.155.018.188-.018.043-.047.063-.141.053-.209-.027-.178-.144-.255-.379-.236-.355.029-.709.121-1.068-.066zm-16.317-2.399c-.002.186.121.337.237.37.188.054.189-.152.205-.294.001-.012.041-.123.04-.133-.013-.09-.023-.114-.074-.163-.055-.053-.188-.073-.259-.042-.077.034-.148.119-.149.262zm2.879 1.017.005.852.126.041-.017-.802-.114-.091zM2.245 19.848c-.125-.133-.173-.276-.31-.382-.046-.035-.111.013-.154-.035-.079-.09-.155-.186-.24-.189-.051-.002-.109.067-.161.082-.1.028-.222.067-.277.15-.07.106-.06.245-.093.368-.064.238-.005.441.216.539.294.13.523.38.883.114.114-.084.236.016.243-.303.003-.191-.032-.255-.107-.344zM45.892 30.61c.005.035.043.068.071.075.171.044.277.07.352.29.016.047.112.065.215.124.061.035.085.131.146.155.031.012.093.012.12.014.191.018.461.118.625.191.015.007.133-.057.23-.059.054-.001.09.057.126.061.078.008.135-.113.205-.18.014-.014-.044-.163-.088-.175-.206-.057-.28-.093-.391-.119-.115-.025-.445.028-.515-.047-.291-.31-.667-.393-1.074-.379-.016 0-.024.031-.022.049zM1.847 18.061c-.036-.169-.261-.275-.408-.193-.122.069-.174.127-.325.206-.129.067-.325.166-.266.383.062.228.211.368.403.37.409.002.685-.352.596-.766zm3.617 4.215c-.091-.16-.293-.181-.383-.181-.08 0-.061.079-.19.076-.271-.007-.304.079-.308.116-.042.409.039.478.314.484.227.005.472-.03.636-.211.093-.103.132-.102.194-.158-.072-.042-.206-.026-.263-.126zm34.215 8.55c.155.124.327.227.501.322.095.052.22-.043.217-.145-.001-.038-.045-.088-.047-.118-.015-.207-.003-.218-.264-.315-.094-.037-.177-.101-.267-.15-.163-.088-.212.003-.266.052.102.021-.051.257.126.354zM.621 18.401c-.064-.208-.223-.269-.404-.295-.15-.021-.245.153-.208.251.058.159.306.343.425.314.216.003.252-.057.187-.27zM43.986 29.59c-.08.008-.136.06-.061.148.123.144.558.248.818.188.058-.013.076-.067.115-.094-.276-.168-.556-.274-.872-.242zm-28.745-4.491c-.028.09.149.142.378.253.218.106.484.27.619.357-.265-.26-.93-.828-.997-.61zM48 30.945l-.606-.251-.122.098-.273-.058.025.074c.001 0 .64.156.976.137zm-8.69-.119a1.07 1.07 0 0 0-.711-.211c.168.188.672.368.711.211zM6.726 18.434c-.004-.133-.004-.211-.096-.221-.09 0-.143.089-.163.149-.049.149.101.256.303.221a.302.302 0 0 1-.044-.149zm38.4 11.582c.258.187.399.274.645.123-.2-.049-.381-.146-.668-.158 0 .001.009.025.023.035zm-6.722.529c.015-.086-.23-.088-.23-.088.14.21.215.174.23.088zm-27.02-10.976v-1.454l-.118 1.4.118.054z"/></svg>