<?xml version="1.0" encoding="utf-8"?>
<!-- Generator: Adobe Illustrator 26.0.0, SVG Export Plug-In . SVG Version: 6.00 Build 0)  -->
<svg version="1.1" id="Layer_1" xmlns="http://www.w3.org/2000/svg" xmlns:xlink="http://www.w3.org/1999/xlink" x="0px" y="0px"
	 viewBox="0 0 48 48" style="enable-background:new 0 0 48 48;" xml:space="preserve">
<style type="text/css">
	.st0{fill:#306498;}
</style>
<polygon class="st0" points="4.9,19.3 4.4,21.7 8.6,21.7 8.2,24.2 4,24.2 3.1,28.8 0,28.8 2.4,16.2 10.3,16.2 9.7,19.3 "/>
<polygon class="st0" points="18.9,19.3 18.5,21.7 22.6,21.7 22.3,24.2 18,24.2 17.2,28.8 14,28.8 16.5,16.2 25.1,16.2 24.3,19.3 "/>
<polygon class="st0" points="14.9,16.3 13.3,24.2 12.5,28.8 9.4,28.8 11.8,16.2 "/>
<polygon class="st0" points="47.9,16.9 46.4,24.2 45.6,28.8 45.3,28.8 "/>
<path class="st0" d="M29.7,16.2l-2.8,0l-5.4,12.5h3.1l0.7-1.7H29l0.3,1.7H32L29.7,16.2z M26.1,24.6l1.7-4.2l0.6,4.2H26.1z"/>
<path class="st0" d="M34,20.4h2.7c0,0-0.2-1.7,1.2-1.7c1.3,0,1.1,1.4,0.3,2.2c-5.5,5.9-5,5.3-5,5.3v2.5h7.3l0.5-2.5h-4.7
	c0,0,2.3-2.5,3.9-4.2c2.4-2.6,1-5.9-2.3-5.9C33.9,16.2,34,20.4,34,20.4z"/>
<polygon class="st0" points="48,16.2 47.9,16.8 45.3,28.8 42.5,28.8 44.4,18.7 42.5,18.7 42.9,17 44.8,16.6 46.4,16.2 "/>
</svg>
