<?xml version="1.0" encoding="utf-8"?>
<!-- Generator: Adobe Illustrator 26.0.0, SVG Export Plug-In . SVG Version: 6.00 Build 0)  -->
<svg version="1.0" id="Layer_1" xmlns="http://www.w3.org/2000/svg" xmlns:xlink="http://www.w3.org/1999/xlink" x="0px" y="0px"
	 viewBox="0 0 50 50" enable-background="new 0 0 50 50" xml:space="preserve">
<g>
	<path fill="#3D3633" d="M23.486,45.956c-0.993,0.039-1.959-0.16-2.827-0.597c-2.152-1.084-4.342-2.109-6.313-3.516
		c-1.34-0.956-2.265-2.21-2.646-3.839c-0.072-0.309-0.213-0.605-0.343-0.898c-0.342-0.768-0.572-1.542-0.292-2.388
		c0.062-0.187,0.149-0.368,0.098-0.596c-0.317-1.418-0.046-2.742,0.678-3.989c0.137-0.237-0.241-2.575-0.451-2.704
		c-0.138-0.085-0.337-0.074-0.509-0.099c-0.787-0.113-1.56-0.277-2.333-0.473c-3.098-0.785-3.981-4.516-1.979-6.871
		c0.323-0.38,0.644-0.819,1.066-1.046c0.866-0.466,0.912-1.177,0.972-2.034c0.224-3.194,0.966-6.268,3.11-8.751
		c3.269-3.784,7.487-4.77,12.245-3.729c3.48,0.761,6.38,2.647,9.067,4.91c2.085,1.756,3.868,3.789,5.534,5.931
		c0.218,0.281,0.442,0.44,0.776,0.491c3.972,0.614,5.9,5.337,4.9,8.442c-0.214,0.665-0.236,1.264-0.016,1.955
		c0.873,2.735-0.323,7.143-3.168,8.697c-0.196,0.107-0.354,0.172-0.291,0.515c0.362,1.96-0.301,3.166-2.229,4.036
		c-0.579,0.262-1.011,0.506-1.257,1.183c-0.315,0.865-1.208,1.154-2.036,1.398c-1.049,0.309-2.136,0.43-3.219,0.534
		c-0.491,0.047-0.894,0.21-1.301,0.464c-1.818,1.136-3.573,2.399-5.745,2.829C24.479,45.912,23.985,45.933,23.486,45.956z"/>
	<path fill="#FECF96" d="M12.293,31.431c0.034-0.141,0.025-0.319,0.109-0.419c0.938-1.115,0.604-2.306,0.254-3.513
		c-0.129-0.445-0.249-0.904-0.179-1.381c0.417-1.495,1.435-2.419,2.831-2.985c0.458-0.026,0.787,0.262,1.154,0.481
		c-0.108-0.345-0.388-0.681-0.016-1.026c1.474-0.627,3.048-0.766,4.612-0.939c0.366-0.04,0.698,0.1,0.799,0.524
		c0.039,0.171,0.037,0.346,0.017,0.57c0.41-0.422,0.719-0.919,1.304-1.066c3.219-0.179,6.17,0.7,8.953,2.253
		c0.517,0.288,0.678,0.69,0.472,1.258c-0.13,0.359-0.204,0.737-0.24,1.121c-0.1,1.071,0.266,1.932,1.223,2.447
		c0.649,0.349,0.907,0.903,1.018,1.559c0.455,2.686,0.058,5.133-1.869,7.232c-2.035,2.216-4.221,4.193-7.104,5.245
		c-1.676,0.611-3.379,0.757-5.119,0.306c-2.063-0.685-3.911-1.764-5.626-3.085c-0.825-0.635-1.294-1.517-1.667-2.456
		c-0.102-0.257-0.246-0.572,0.13-0.771c0.497-0.131,0.665,0.214,0.854,0.567c0.568,1.064,0.778,1.179,1.96,0.955
		c0.486-0.092,0.822,0.023,1.181,0.365c0.684,0.651,1.525,0.695,2.218,0.061c0.549-0.503,1.091-0.569,1.775-0.425
		c1.284,0.271,2.347-0.183,3.011-1.294c0.31-0.519,0.592-0.76,1.258-0.598c1.021,0.248,1.985-0.336,2.415-1.462
		c0.293-0.767,0.703-1.247,1.489-1.578c1.408-0.592,1.748-2.674,0.738-3.868c-0.284-0.336-0.526-0.315-0.795-0.006
		c-1.278,1.466-3.005,2.122-4.803,2.639c-0.355,0.102-0.734,0.275-1.098-0.005c-0.177-0.707-0.616-1.351-0.505-2.126
		c0.298-0.138,0.508,0.069,0.718,0.208c1.67,1.102,4.553-0.244,4.254-2.516c-0.14-1.063-0.265-2.09-0.79-3.029
		c-0.679-1.214-1.805-1.742-3.015-1.443c-1.089,0.269-1.743,1.24-1.774,2.633c-0.026,1.148-0.053,2.294,0.476,3.364
		c0.091,0.184,0.148,0.387,0.036,0.592c-0.654,0.138-0.836-0.56-1.218-0.651c0.905,0.882,1.209,2.356,0.644,3.636
		c-0.605,1.371-1.667,2.245-3.065,2.744c-1.314,0.469-2.678,0.476-4.014,0.274C13.108,35.491,11.956,33.73,12.293,31.431z"/>
	<path fill="#CB0A1B" d="M21.473,4.585c2.222,0.154,4.293,0.821,6.256,1.853c1.588,0.835,3.037,1.87,4.378,3.06
		c2.116,1.825,3.833,3.968,5.116,6.452c0.193,0.374,0.419,0.698,0.743,0.97c0.88,0.738,1.349,1.616,0.94,2.801
		c-0.437,1.263-1.289,2.015-2.624,2.172c-0.435,0.051-0.882,0.079-1.308-0.095c-0.081-0.044-0.151-0.102-0.212-0.17
		c-3.102-3.269-6.611-5.829-11.213-6.543c-0.69-0.107-1.422,0.125-2.073-0.263c-0.112-0.286,0.034-0.519,0.171-0.743
		c0.831-1.364,1.044-2.785,0.141-4.166c-0.946-1.448-2.413-1.767-4.046-1.596c-2.705,0.283-4.702,2.457-4.497,4.875
		c0.09,1.059,0.736,1.837,1.239,2.692c-0.091,0.475-0.459,0.589-0.853,0.597c-0.402,0.008-0.52-0.349-0.627-0.646
		c-1.373-3.81-0.474-7.402,3.187-9.604c0.932-0.56,1.942-0.969,2.976-1.31C19.923,4.727,20.7,4.665,21.473,4.585z"/>
	<path fill="#DE885D" d="M20.44,42.894c4.114,0.861,7.309-0.936,10.203-3.558c0.871-0.789,1.666-1.656,2.411-2.571
		c1.267-1.556,1.639-3.329,1.416-5.275c-0.037-0.321-0.016-0.649-0.065-0.967c-0.102-0.666-0.258-1.248-0.997-1.587
		c-1.132-0.519-1.539-1.802-1.171-3.271c0.32-1.278,0.311-1.262-0.847-1.872c-2.603-1.37-5.381-1.971-8.308-1.951
		c0.287-0.793,1.019-0.93,1.689-1.028c1.108-0.162,2.227-0.161,3.274,0.557c0.253-0.987-0.51-1.508-0.763-2.207
		c0.204-0.432,0.563-0.298,0.89-0.23c0.308,0.064,0.6,0.186,0.9,0.279c1.449,0.517,2.907,1.012,4.293,1.693
		c0.068,0.063,0.121,0.136,0.164,0.218c0.345,1.301,0.43,2.599-0.064,3.888c-0.137,0.358-0.236,0.727-0.313,1.101
		c-0.214,1.049-0.044,1.522,0.882,2.067c0.465,0.274,0.769,0.604,0.905,1.119c0.076,0.288,0.248,0.538,0.498,0.709
		c0.451,0.308,0.863,0.373,1.163-0.214c0.109-0.213,0.107-0.556,0.493-0.508c0.284,0.358,0.182,0.785,0.209,1.188
		c0.085,1.286,1.014,1.956,2.239,1.608c2.104-0.598,3.218-2.217,3.305-4.751c0.018-0.536-0.183-1.122,0.261-1.594
		c1.486,4.098-1.273,8.101-5.659,8.21c-0.31,2.382-1.628,4.131-3.526,5.474c-0.781,0.552-1.509,1.239-2.515,1.403
		c-1.101,0.648-2.202,1.296-3.303,1.944c-0.983,0.449-1.913,1.033-2.972,1.291c-1.305,0.318-2.607,0.314-3.859-0.267
		c-0.16-0.074-0.346-0.065-0.506-0.142l0.008,0.009C20.62,43.423,20.149,43.326,20.44,42.894z"/>
	<path fill="#7D0917" d="M29.105,19.389c-0.617,0.145-1.124-0.665-1.777-0.202c-0.931,0.003-1.769-0.472-2.69-0.523
		c-3.569-0.315-7.021-0.099-10.025,2.175c-1.068,0.606-1.6,1.585-1.955,2.716c-0.119,0.38,0.051,0.688,0.067,1.031
		c-0.165,0.386-0.124,0.852-0.45,1.177c-1.156,0.101-2.283-0.094-3.383-0.406c-2.381-0.674-3.106-3.436-1.311-5.408
		c0.099-0.109,0.192-0.232,0.312-0.311c1.153-0.756,1.896-1.712,1.608-3.195c-0.011-0.056,0.095-0.134,0.147-0.202
		c0.195,0.172,0.206,0.41,0.234,0.645c0.118,0.965,0.121,0.963,0.997,0.647c2.857-1.029,5.783-1.413,8.831-1.264
		c2.868,0.14,5.57,0.849,8.239,1.802c0.278,0.099,0.547,0.217,0.785,0.397c0.226,0.184,0.441,0.382,0.543,0.663
		C29.324,19.26,29.347,19.426,29.105,19.389z"/>
	<path fill="#FD302F" d="M28.75,18.687c-2.659-1.149-5.418-1.892-8.312-2.135c-3.447-0.289-6.793,0.106-10.003,1.431
		c-0.679,0.28-0.831,0.032-0.783-0.597c0.029-0.38-0.001-0.764-0.004-1.145c0.236-2.051,0.604-4.07,1.569-5.927
		c1.043-2.008,2.488-3.618,4.589-4.565c0.92-0.267,1.766-0.776,2.753-0.827c0.238-0.012,0.469-0.06,0.653,0.143
		c-0.824,0.378-1.666,0.721-2.468,1.14c-3.834,1.999-4.884,5.539-3.585,9.397c0.301,0.892,0.406,0.896,1.264,0.305
		c1.446-0.772,3.043-0.97,4.628-1.177c0.787-0.103,1.601-0.442,2.385,0.044c5.651-0.07,9.813,2.849,13.497,6.728
		c-0.619,0.335-1.107,0.062-1.569-0.336c-0.012-0.034-0.015-0.07-0.011-0.106c-1.057-0.697-2.258-1.106-3.38-1.674
		C29.551,19.17,29.138,18.954,28.75,18.687z"/>
	<path fill="#361F12" d="M23.625,32.132c2.265-0.505,4.465-1.14,5.923-3.151c0.29-0.4,0.435-0.2,0.648,0.057
		c1.566,1.886,1.031,4.007-1.269,4.807C28.48,34,28.536,34.31,28.45,34.573c-0.445,1.356-1.464,2.349-2.56,2.109
		c-0.872-0.19-1.124,0.122-1.539,0.753c-0.647,0.984-1.681,1.342-2.861,1.137c-0.681-0.118-1.255-0.261-1.855,0.421
		c-0.637,0.725-1.996,0.52-2.583-0.256c-0.218-0.289-0.365-0.32-0.687-0.243c-1.468,0.354-1.933,0.131-2.424-1.237
		c-0.125-0.35-0.298-0.37-0.567-0.369c-0.27-0.057-0.594-0.004-0.722-0.352c-0.372-0.449-0.617-0.965-0.686-1.538
		c-0.038-0.314,0.07-0.626,0.434-0.747c0.125,0.023,0.213,0.101,0.261,0.212c1.021,2.359,3.677,2.858,5.957,2.473
		c2.394-0.405,4.025-1.692,4.671-4.101C23.357,32.585,23.396,32.31,23.625,32.132z"/>
	<path fill="#7C0917" d="M34.948,21.676c1.192,0.066,2.396,0.103,3.199-1c0.849-1.166,1.11-2.365-0.084-3.345
		c-0.594-0.488-0.948-1.079-1.289-1.717c-1.141-2.135-2.641-3.997-4.335-5.713c-0.122-0.124-0.222-0.27-0.332-0.405
		c1.162,0.575,1.898,1.626,2.746,2.533c1.118,1.195,2.223,2.412,3.149,3.773c0.168,0.246,0.411,0.377,0.739,0.412
		c2.241,0.237,3.519,1.646,4.326,3.61c0.689,1.675,0.419,3.283-0.345,4.856c-0.337,0.09-0.45-0.208-0.624-0.377
		c-1.145-1.113-1.854-1.243-3.296-0.582c-0.212,0.097-0.419,0.207-0.655,0.237c-0.18,0.017-0.368-0.007-0.493-0.128
		c-0.798-0.772-1.717-1.37-2.673-1.92C34.906,21.869,34.916,21.762,34.948,21.676z"/>
	<path fill="#FECF97" d="M38.143,23.826c2.041-1.207,3.031-1.022,4.579,0.856c0.129,0.352,0.257,0.704,0.386,1.056
		c-0.026,1.494,0.014,2.984-0.699,4.386c-0.709,1.394-1.898,2.05-3.333,2.328c-0.94,0.182-1.929-0.683-2.011-1.672
		c-0.041-0.496-0.019-0.998-0.026-1.498c-0.404-1.504-0.376-3.011,0.041-4.499C37.219,24.291,37.601,23.938,38.143,23.826z"/>
	<path fill="#DC895D" d="M23.625,32.132c-0.342,2.955-2.461,4.9-5.584,5.122c-1.496,0.106-2.945-0.007-4.201-0.952
		c-0.7-0.527-1.214-1.189-1.439-2.051c-0.23-0.933-0.501-1.864-0.108-2.821c-0.185,2.802,1.804,4.396,4.3,4.266
		c1.19-0.062,2.335-0.158,3.417-0.701c2.775-1.393,3.18-4.175,0.865-6.356c0.893,0.104,1.413,0.736,2.033,1.197
		c0.083,0.037,0.133,0.102,0.156,0.189C23.294,30.717,23.71,31.358,23.625,32.132z"/>
	<path fill="#361F12" d="M31.408,40.823c1.03-0.729,2.167-1.296,3.128-2.132c1.302-1.133,2.217-2.491,2.615-4.187
		c0.045-0.191-0.044-0.506,0.298-0.558c0.224,0.21,0.51,0.16,0.756,0.123c0.905-0.136,1.295,0.501,1.585,1.129
		c0.29,0.627,0.118,1.26-0.399,1.77c-0.664,0.655-1.46,1.071-2.345,1.334c-0.375,0.111-0.733,0.171-0.561,0.753
		c0.102,0.346-0.149,0.728-0.461,0.887C34.577,40.68,33.037,41.001,31.408,40.823z"/>
	<path fill="#D38B63" d="M12.653,36.536c0.241,0.117,0.481,0.235,0.722,0.352c0.043,1.303,0.789,2.225,1.727,2.988
		c1.604,1.305,3.396,2.3,5.339,3.018c-0.049,0.325,0.27,0.489,0.336,0.764c-2.332-1.221-4.84-2.154-6.755-4.062
		C13.182,38.76,12.698,37.74,12.653,36.536z"/>
	<path fill="#D78960" d="M12.275,25.762c0.058-0.43-0.082-0.913,0.335-1.246c-0.137-0.798,0.366-1.226,0.981-1.47
		c0.574-0.228,1.23-0.443,1.746,0.195c-1.305,0.61-2.137,1.689-2.859,2.878C12.409,25.999,12.342,25.881,12.275,25.762z"/>
	<path fill="#D38B63" d="M20.768,43.649c0.203,0.008,0.434-0.045,0.604,0.034c1.967,0.918,3.798,0.423,5.603-0.487
		c0.358-0.181,0.688-0.457,1.129-0.428c-2.061,1.417-4.262,2.071-6.73,1.212C21.16,43.905,20.97,43.761,20.768,43.649z"/>
	<path fill="#DA363A" d="M19.213,5.063c-0.949-0.108-1.82,0.16-2.65,0.581c-0.251,0.128-0.497,0.123-0.757,0.103
		c1.764-0.996,3.673-1.289,5.667-1.164C20.739,4.836,19.984,4.989,19.213,5.063z"/>
	<path fill="#DE875D" d="M14.453,20.768c0.899-1.012,2.136-1.419,3.357-1.821c2.241-0.738,4.536-0.85,6.859-0.459
		c-1.564,0.77-2.507,1.986-2.705,3.745c-0.014,0.122-0.136,0.177-0.265,0.173c-0.01-0.725-0.55-0.576-0.945-0.515
		c-1.468,0.229-2.94,0.444-4.37,0.865C15.657,22.174,15.227,21.304,14.453,20.768z"/>
	<path fill="#F2F0E4" d="M23.065,30.026c-0.052-0.063-0.104-0.126-0.156-0.189c-0.644-1.29-0.798-2.659-0.724-4.084
		c0.071-1.369,0.776-2.459,1.897-2.775c1.229-0.346,2.543,0.205,3.251,1.378c0.79,1.309,1.05,2.746,0.868,4.24
		c-0.227,1.863-3.056,2.929-4.642,1.786C23.394,30.263,23.229,30.145,23.065,30.026z"/>
	<path fill="#371F12" d="M21.698,22.406c0.099-0.42,0.187-0.843,0.299-1.259c0.376-1.4,1.17-2.386,2.671-2.659
		c0.938,0.039,1.833,0.241,2.66,0.699c0.885,0.617,1.142,1.484,1.047,2.568c-1.829-1.05-3.583-1.241-5.294,0.087
		c-0.573,0.32-0.887,0.904-1.383,1.438C21.698,22.919,21.698,22.662,21.698,22.406z"/>
	<path fill="#391E10" d="M14.453,20.768c1.09,0.23,1.401,1.216,1.931,1.989c0.016,0.423,0.414,0.757,0.297,1.235
		c-0.488-0.206-0.799-0.693-1.344-0.751c-1.389-0.444-2.07-0.126-2.726,1.275c-0.63-1.115,0.202-1.923,0.657-2.762
		C13.496,21.329,13.882,20.884,14.453,20.768z"/>
	<path fill="#F2F0E4" d="M15.511,28.362c-1.078,0.601-1.055,0.596-1.329-0.556c-0.199-0.837-0.172-1.624,0.313-2.352
		c0.387-0.58,0.919-0.882,1.639-0.758c0.648,0.112,1.149,0.399,1.292,1.104c-0.158,0.158-0.367,0.169-0.57,0.199
		c-0.724,0.105-1.068,0.553-1.124,1.256C15.702,27.633,15.745,28.025,15.511,28.362z"/>
	<path fill="#DD895D" d="M21.625,40.268c1.29,0.179,2.34-0.56,3.475-1.014c0.175-0.07,0.379-0.301,0.552-0.104
		c0.211,0.24,0.032,0.488-0.115,0.717c-0.921,1.437-3.262,2.052-4.781,1.238c-0.274-0.147-0.658-0.331-0.569-0.685
		c0.073-0.291,0.459-0.126,0.706-0.148C21.126,40.251,21.363,40.268,21.625,40.268z"/>
	<path fill="#17A6D6" d="M15.511,28.362c-0.096-0.427-0.118-0.859-0.058-1.293c0.136-0.979,0.777-1.389,1.972-1.269
		c0.056,0.063,0.112,0.125,0.167,0.188c0.175,0.213,0.035,0.343-0.149,0.342c-0.51-0.002-0.701,0.304-0.801,0.731
		c-0.234,0.346-0.152,0.829-0.491,1.129C15.938,28.247,15.724,28.305,15.511,28.362z"/>
	<path fill="#392619" d="M16.151,28.189c-0.013-0.462-0.046-0.932,0.434-1.219c0.453,0.126,0.951-0.523,1.376,0.082
		c-0.037,0.323,0.238,0.611,0.112,0.932C17.429,28.053,16.79,28.121,16.151,28.189z"/>
	<path fill="#C8E3E6" d="M17.961,27.052c-0.161-0.173-0.324-0.229-0.517-0.036c-0.299,0.3-0.582,0.141-0.859-0.046
		c-0.115-0.59,0.047-0.952,0.726-0.812c0.193,0.04,0.266,0.018,0.281-0.171C18.02,26.237,17.966,26.653,17.961,27.052z"/>
	<path fill="#F5EFE5" d="M21.437,14.772c-2.127,0.06-4.209,0.385-6.238,1.035c-0.25,0.08-0.504,0.166-0.775,0.098
		c-1.931-1.854-1.954-4.485,0.004-6.305c1.427-1.326,3.175-1.82,5.074-1.48c2.712,0.485,3.922,3.421,2.475,5.848
		C21.811,14.244,21.617,14.504,21.437,14.772z"/>
	<path fill="#6C3412" d="M38.143,23.826c-0.766,0.639-1.152,1.426-1.099,2.455c0.051,0.998,0.001,2.001-0.004,3.002
		c-0.274,0.458-0.115,1.284-0.979,1.241c-0.828-0.04-1.26-0.592-1.403-1.344c-0.076-0.4-0.255-0.562-0.616-0.717
		c-1.148-0.494-1.522-1.222-1.108-2.402c0.566-1.61,0.877-3.213,0.431-4.898c0.523,0.112,1.046,0.224,1.569,0.336
		c0.005,0.059,0.01,0.118,0.015,0.176C36.154,22.184,37.047,23.155,38.143,23.826z"/>
	<path fill="#8D0F12" d="M28.75,18.687c1.621,0.622,3.257,1.215,4.604,2.371c-1.416-0.556-2.832-1.112-4.248-1.668
		C29.276,19.009,28.77,18.97,28.75,18.687z"/>
	<path fill="#DC8A5D" d="M40.942,28.072c-0.34-0.395-0.533-0.648-0.756-0.87c-0.259-0.258-0.59-0.267-0.902-0.13
		c-0.352,0.155-0.137,0.443-0.124,0.69c0.041,0.774-0.159,1.512-0.41,2.232c-0.147,0.423-0.373,0.367-0.619,0.041
		c-1.243-1.648,0.145-5.106,2.192-5.449c0.754-0.126,1.279,0.301,1.699,1.478c-0.514-0.308-0.884-0.673-1.442-0.674
		c-0.618-0.002-0.98,0.292-1.308,0.812C40.212,26.404,40.898,26.834,40.942,28.072z"/>
	<path fill="#19AFE4" d="M23.587,26.907c-0.038-0.829,0.094-1.613,0.804-2.14c1.138-0.844,2.477-0.509,3.112,0.775
		c0.486,0.981,0.574,2.029,0.368,3.098c-0.155,0.803-0.654,1.315-1.435,1.513c-0.776,0.197-1.464,0.006-1.994-0.621
		C23.802,28.775,23.551,27.886,23.587,26.907z"/>
	<path fill="#C60D1E" d="M18.492,10.578c-0.358,0.597-0.66,1.002-0.859,1.453c-0.313,0.71-0.654,0.586-1.069,0.118
		c-0.212-0.239-0.433-0.468-0.707-0.763c-0.531,1.243-0.47,2.53-0.751,3.745c-1.176-0.422-1.25-0.547-1.047-1.731
		c0.19-1.111,0.595-2.145,1.091-3.152c0.209-0.423,0.362-0.591,0.81-0.191c1.124,1.004,1.177,1.005,2.067-0.172
		c0.493-0.652,0.761-0.705,1.186,0.058c0.529,0.948,1.192,1.82,1.917,2.634c0.666,0.748-0.243,0.83-0.492,1.167
		c-0.344,0.465-0.575,0.119-0.791-0.178C19.236,12.729,18.86,11.777,18.492,10.578z"/>
	<path fill="#322118" d="M26.673,25.911c0.39,0.591,0.502,1.252,0.444,1.94c-0.058,0.698-0.338,1.303-1.102,1.397
		c-0.782,0.096-1.143-0.445-1.345-1.126c-0.398-1.342-0.119-2.212,0.873-2.68C25.877,25.699,26.255,25.853,26.673,25.911z"/>
	<path fill="#EDFBFB" d="M26.673,25.911c-0.604,0.392-0.967,0.2-1.131-0.469c0.179-0.364,0.414-0.676,0.869-0.475
		C26.844,25.157,26.869,25.517,26.673,25.911z"/>
</g>
</svg>
