<?xml version="1.0" encoding="utf-8"?>
<!-- Generator: Adobe Illustrator 26.0.0, SVG Export Plug-In . SVG Version: 6.00 Build 0)  -->
<svg version="1.1" id="Layer_1" xmlns="http://www.w3.org/2000/svg" xmlns:xlink="http://www.w3.org/1999/xlink" x="0px" y="0px"
	 viewBox="0 0 48 48" style="enable-background:new 0 0 48 48;" xml:space="preserve">
<style type="text/css">
	.st0{fill:#E72200;}
</style>
<g>
	<path class="st0" d="M30.1,7.9c0.4-0.3,0.8-0.2,1.1,0c0.1,0.1,0.3,0.2,0.5,0.2c0.3,0,0.5,0.1,0.7,0.3c0.3,0.3,0.4,0.2,0.6,0
		c0.2-0.2,0.4-0.4,0.6-0.6c0.1-0.1,0.2-0.2,0.3-0.1c0.1,0.1,0,0.2-0.1,0.3c-0.2,0.2-0.4,0.5-0.6,0.7c-0.2,0.2-0.2,0.4,0,0.5
		c0.1,0.1,0.2,0.2,0.2,0.2c0.2,0.2,0.2,0.3,0.1,0.5c-0.1,0.2,0,0.3,0.1,0.5c0.8,0.9,1.7,1.6,2.7,2.1c0.5,0.2,1.1,0.4,1.7,0.4
		c0.1,0,0.3,0,0.4,0c0.1,0.1,0.2,0.2,0.1,0.3c-0.3,0.3-0.4,0.7-0.7,1.1c-0.4,0.6-0.7,1.1-1.2,1.7c-0.4,0.5-0.8,0.9-1.1,1.4
		c-0.2,0.2-0.4,0.4-0.5,0.6c-0.1,0.2-0.2,0.1-0.3-0.1c0-0.1-0.1-0.2-0.2-0.1c-0.1,0.1-0.1,0.2,0,0.2c0.2,0.3,0.1,0.5-0.2,0.7
		c-0.8,0.8-1.6,1.6-2.4,2.3c-0.1,0.1-0.1,0.2-0.2,0.1c-0.1,0-0.1-0.2-0.1-0.2c0-0.4,0-0.9,0-1.3c0-0.7,0-1.5,0-2.2
		c0-0.2,0-0.4,0.2-0.5c0.6-0.6,0.6-1.3,0.4-2.1c-0.1-0.5-0.4-0.9-0.6-1.3c-0.2-0.3-0.9-0.4-1.2-0.1c-0.5,0.4-1.1,0.8-1.5,1.3
		c-0.6,0.6-1.2,1.2-1.7,1.9c-0.4,0.4-0.8,0.8-1.2,1.2c-0.2,0.2-0.4,0.4-0.7,0.6c-0.2,0.1-0.4,0.3-0.5,0.6c-0.2,0.4-0.5,0.6-0.8,0.8
		c-0.6,0.6-1.3,1.2-1.9,1.8c-0.6,0.6-1.2,1.2-1.9,1.8c-0.5,0.4-0.8,0.9-1.3,1.2c-0.7,0.6-1.3,1.4-2,2c-0.6,0.5-1.1,1.1-1.7,1.7
		c-0.4,0.5-0.9,0.9-1.4,1.3c-0.2,0.1-0.3,0.3-0.4,0.4c-0.3,0.4-0.6,0.7-1,1c-0.5,0.4-0.8,1.1-1.4,1.4c-0.6,0.4-1,1-1.5,1.5
		c-0.4,0.4-0.8,0.8-1.2,1.2c-0.5,0.7-1.1,1.2-1.5,1.9c-0.2,0.4-0.6,0.8-1,1.1c-0.2,0.1-0.4,0.4-0.5,0.6c-0.4,0.5-0.9,0.9-1.4,1.3
		c-0.4,0.3-0.7,0.8-1,1.1c-0.1,0.1-0.2,0.2-0.3,0.1c-0.1-0.1,0-0.2,0-0.4c0.4-0.9,0.7-1.7,1-2.6c0.1-0.3,0.2-0.5,0.3-0.8
		c0.1-0.2,0.2-0.5,0.2-0.7c0.1-0.6,0.4-1,0.8-1.5c0.6-0.7,1.3-1.4,1.9-2.2c0.7-0.8,1.5-1.7,2.2-2.5c0.2-0.2,0.4-0.4,0.6-0.4
		c0.1,0,0.2-0.1,0.2-0.1c0.3-0.5,0.8-0.7,1.2-1c0.1-0.1,0.2-0.2,0.2-0.3c0.3-0.5,0.8-0.8,1.2-1.2c0.5-0.5,1.1-1,1.7-1.5
		c0.1-0.1,0.3,0,0.4,0c0.3,0.1,0.3,0,0.3-0.3c-0.1-0.2,0-0.3,0.1-0.5c0.5-0.4,1-0.9,1.4-1.4c0.4-0.4,0.8-0.8,1.3-1.2
		c0.3-0.2,0.5-0.4,0.7-0.7c0.4-0.5,1-0.9,1.4-1.3c0.7-0.7,1.3-1.3,2-2c0.1-0.1,0.3-0.3,0.4-0.4c0.2-0.2,0.2-0.4,0-0.6
		c-0.7-0.7-1.3-1.5-2-2.1c-0.2-0.1-0.3-0.3-0.4-0.5c-0.2-0.2-0.4-0.4-0.6-0.6c-0.5-0.4-1-0.9-1.5-1.3c-0.2-0.2-0.3-0.2-0.5,0
		c-0.4,0.4-0.8,0.8-1,1.4c-0.2,0.7-0.3,1.6,0.4,2.2c0.2,0.1,0.2,0.3,0.2,0.6c0,1,0,2,0,3c0,0.1,0,0.2,0,0.3c0,0.1,0.1,0.3-0.1,0.4
		c-0.2,0.1-0.3-0.1-0.3-0.2c-0.8-0.7-1.5-1.4-2.2-2.1c-0.7-0.7-1.3-1.4-1.9-2.1c-0.8-1-1.5-1.9-2.2-3c-0.1-0.2-0.2-0.4-0.3-0.6
		c-0.2-0.2-0.1-0.4,0.2-0.4c0.6,0,1.2-0.1,1.7-0.4c0.1,0,0.2-0.1,0.2-0.1c0.2-0.1,0.4-0.2,0.7,0c0.1,0,0.1,0.1,0.2,0
		c-0.2-0.4-0.2-0.4,0.2-0.6c0.6-0.4,1.1-0.9,1.6-1.5c0.1-0.1,0.1-0.3,0.1-0.4c-0.1-0.2-0.1-0.3,0.1-0.5C15.1,9,15.1,9,14.6,8.4
		c-0.2-0.2-0.5-0.4-0.6-0.8c0.2,0,0.4,0.1,0.4,0.2c0.2,0.3,0.5,0.4,0.7,0.6c0.1,0.1,0.2,0.1,0.3,0c0.2-0.3,0.5-0.4,0.9-0.4
		c0.1,0,0.2,0,0.3-0.1c0.3-0.3,0.6-0.3,1-0.2c0.1,0,0.1,0.1,0.2,0c0.1,0,0-0.1,0-0.2c0-0.2-0.2-0.4,0-0.7c0.3-0.3,0.6-0.7,1.1-0.8
		c0.2-0.1,0.4,0.1,0.6,0.3c0.4,0.3,0.7,0.6,1,1C20.8,7.7,21,7.8,21.2,8c0.3,0.4,0.3,0.6,0,1c-0.4,0.4-0.8,0.7-1.4,0.6
		c0,0-0.1,0-0.1,0c0,0.1,0,0.1,0.1,0.2c0.3,0.2,0.3,0.5,0,0.8c-0.1,0.1-0.1,0.1-0.2,0.2c-0.2,0.2-0.2,0.3,0,0.5
		c1,1.3,2.1,2.4,3.2,3.7c0.3,0.3,0.5,0.6,0.8,0.9c0.3,0.4,0.6,0.4,0.9,0c0.8-1,1.7-2,2.5-2.9c0.5-0.6,1-1.2,1.5-1.8
		c0.2-0.2,0.2-0.4-0.1-0.5c-0.4-0.3-0.4-0.7,0-1c0.1,0,0.2,0,0.1-0.1c0,0-0.1,0-0.1,0c-0.7,0.4-1.1,0-1.4-0.4
		c-0.1-0.1-0.1-0.2-0.2-0.2c-0.3-0.3-0.4-0.4,0-0.8c0.6-0.6,1.2-1.3,1.9-1.9c0.2-0.2,0.5-0.2,0.7,0c0.3,0.3,0.7,0.6,0.8,1.1
		C30.2,7.5,30.1,7.7,30.1,7.9z"/>
	<path class="st0" d="M26.2,18.9c0.2,0,0.3,0,0.4,0.1c0.6,0.6,1.2,1.2,1.8,1.8c0.3,0.4,0.7,0.6,1.1,1c0.5,0.5,1,1,1.5,1.5
		c0.5,0.5,1.2,1,1.7,1.5c0.5,0.5,1,0.9,1.5,1.4c0.4,0.4,0.8,0.9,1.3,1.2c0.4,0.2,0.7,0.6,1,0.9c0.2,0.2,0.5,0.4,0.7,0.6
		c0.8,0.7,1.5,1.5,2.4,2.1c0.4,0.3,0.7,0.7,1.1,1.1c0.5,0.5,0.9,1,1.4,1.5c0.1,0.1,0.3,0.3,0.4,0.4c0.1,0.2,0.3,0.4,0.4,0.6
		c0.2,0.2,0.4,0.4,0.5,0.7c0.1,0.2,0.3,0.4,0.5,0.6c0.1,0.1,0.2,0.2,0.2,0.4c0,0.1,0.1,0.2,0.1,0.3c0.3,0.7,0.5,1.4,0.7,2
		c0.3,0.7,0.5,1.5,0.8,2.2c0,0.1,0,0.1,0.1,0.2c0,0.1,0.1,0.2,0,0.3c-0.1,0.1-0.2,0-0.3-0.1c-0.3-0.3-0.5-0.6-0.8-0.8
		c-0.4-0.4-0.7-0.8-1-1.3c-0.1-0.1-0.2-0.2-0.3-0.3c-0.7-0.6-1.3-1.3-2-1.9c-0.1-0.1-0.3-0.3-0.4-0.4c-0.3-0.2-0.4-0.5-0.4-0.9
		c0-0.2-0.1-0.3-0.2-0.2c-0.2,0-0.3,0-0.5-0.2c-0.6-0.7-1.3-1.5-2-2.2c-0.4-0.4-0.8-1-1.3-1.3c-0.4-0.3-0.7-0.8-1.1-1.1
		c-0.6-0.6-1.2-1.2-1.8-1.7c-0.7-0.6-1.4-1.1-1.9-1.9c-0.2-0.2-0.4-0.4-0.6-0.6c-0.3-0.2-0.6-0.5-0.9-0.8c-0.6-0.6-1.2-1.1-1.8-1.6
		c-0.7-0.6-1.4-1.1-2-1.9c-0.3-0.5-0.8-0.9-1.3-1.3c-0.3-0.3-0.3-0.5,0-0.8c0.2-0.2,0.5-0.5,0.7-0.7C25.8,18.9,25.9,18.8,26.2,18.9z
		"/>
	<path class="st0" d="M23.5,37c0.1-1.4,0-2.8,0.1-4.2c0-0.6-0.1-1.1-0.2-1.6c-0.1-0.4-0.4-0.6-0.6-0.8c-0.4-0.5-0.8-0.9-1.3-1.3
		c-0.5-0.5-1-1-1.6-1.3c-0.3-0.2-0.5-0.4-0.7-0.6c-0.1-0.1-0.1-0.3,0-0.4c0.5-0.5,1-1.1,1.5-1.6c0.2-0.2,0.4-0.3,0.6-0.6
		c0.6-0.6,1.1-1.2,1.7-1.8c0.2-0.2,0.4-0.3,0.6-0.5c0.1-0.1,0.3-0.3,0.3-0.4c0-0.1,0.1-0.2,0.3-0.2c0.1,0,0.2,0.1,0.2,0.2
		c0.2,0.3,0.5,0.5,0.7,0.8c0.5,0.7,1.3,1.2,1.8,1.9c0.2,0.3,0.5,0.5,0.8,0.7c0.1,0.1,0.2,0.2,0.3,0.4c0.1,0.1,0.1,0.3,0.3,0.3
		c0.3,0.2,0.6,0.5,0.9,0.7c0.2,0.2,0.2,0.4,0,0.5c-0.3,0.2-0.6,0.5-1,0.7c-0.5,0.3-0.8,0.7-1.2,1.1c-0.7,0.5-1.2,1.2-1.8,1.8
		c-0.4,0.3-0.6,0.7-0.6,1.3c0,0.4,0,0.8-0.1,1.2c0,0.4,0,0.9,0.1,1.3c0.1,0.5-0.1,1-0.1,1.6c0,0.1,0,0.2,0,0.3
		c0.2,0.9-0.1,1.7-0.2,2.5c0,0.1,0,0.2,0,0.3c0,0.8,0,1.6,0,2.4c0,0.1,0,0.3-0.1,0.3c-0.1,0-0.1-0.2-0.1-0.3c0-1.1,0-2.1-0.2-3.2
		C23.6,38,23.4,37.5,23.5,37z M24.1,29.3c0.2,0,0.4-0.1,0.5-0.3c0.1-0.2,0.3-0.4,0.5-0.6c0.3-0.2,0.6-0.5,0.8-0.7
		c0.2-0.3,0.4-0.6,0.6-0.8c0.2-0.2,0.2-0.4,0-0.5c-0.3-0.3-0.7-0.6-1-0.9c-0.4-0.3-0.8-0.8-1.2-1.1c-0.2-0.2-0.5-0.2-0.7,0
		c-0.6,0.7-1.3,1.3-2,2c-0.3,0.3-0.3,0.5,0,0.7c0.7,0.7,1.3,1.4,2,2.1C23.7,29.2,23.9,29.3,24.1,29.3z"/>
	<path class="st0" d="M31.5,35.4c0.3-0.8,0.5-1.6,0.7-2.4c0-0.2-0.1-0.2-0.2-0.2c-0.3,0-0.3-0.2-0.3-0.4c0-0.2,0.2-0.3,0.4-0.3
		c0.4,0,0.9,0,1.3,0c0.2,0,0.2,0.1,0.2,0.3c0,0.2,0,0.3-0.2,0.4c-0.4,0.1-0.5,0.4-0.6,0.7c-0.3,0.9-0.7,1.8-0.9,2.7
		c-0.1,0.4-0.2,0.8-0.4,1.2c-0.1,0.1-0.1,0.2-0.3,0.2c-0.1,0-0.2,0-0.3-0.2c-0.1-0.2-0.2-0.4-0.2-0.6c-0.2-0.6-0.3-1.3-0.5-1.9
		c0-0.1,0-0.2-0.1-0.2c-0.1,0-0.1,0.1-0.1,0.2c-0.2,0.6-0.5,1.2-0.7,1.8c-0.1,0.2-0.2,0.4-0.3,0.6c-0.1,0.2-0.2,0.2-0.4,0.2
		c-0.2,0-0.2-0.1-0.3-0.3c-0.3-1.1-0.6-2.1-0.9-3.2c-0.1-0.4-0.1-0.7-0.3-1.1c-0.1-0.1-0.1-0.2-0.3-0.2c-0.2,0-0.2-0.2-0.2-0.4
		c0-0.2,0.1-0.3,0.3-0.3c0.5,0,1,0,1.5,0c0.2,0,0.3,0.1,0.3,0.3c0,0.2,0.1,0.4-0.2,0.4c-0.2,0-0.2,0.1-0.1,0.3
		c0.1,0.8,0.4,1.5,0.5,2.3c0,0,0,0.1,0.1,0.1c0.1,0,0.1-0.1,0.1-0.1c0.2-0.5,0.4-1,0.6-1.5c0.1-0.2,0.1-0.4,0-0.7
		c-0.1-0.2-0.1-0.3-0.4-0.4c-0.2,0-0.2-0.2-0.2-0.3c0-0.2,0-0.3,0.2-0.3c0.4-0.1,0.8,0,1.2,0c0.1,0,0.2,0,0.3,0c0.2,0,0.4,0,0.4,0.3
		c0,0.2,0,0.4-0.3,0.4c-0.2,0-0.2,0.2-0.1,0.3c0.1,0.5,0.2,0.9,0.3,1.4C31.2,34.8,31.2,35.1,31.5,35.4z"/>
	<path class="st0" d="M16.1,35.4c0,0.3,0,0.6,0,1c0,0.4,0.1,0.5,0.5,0.5c0.4,0,0.4,0.1,0.4,0.4c0,0.2-0.1,0.2-0.3,0.2
		c-0.6,0-1.3,0-1.9,0c-0.2,0-0.3-0.2-0.3-0.3c0-0.2,0.1-0.3,0.3-0.3c0.1,0,0.2,0,0.2,0c0.2,0,0.3-0.1,0.3-0.3c0-1,0-2.1,0-3.1
		c0-0.3-0.3-0.4-0.6-0.5c-0.2-0.1-0.4-0.3-0.3-0.6c0-0.1,0.1-0.1,0.3-0.1c0.4,0,0.8,0,1.1,0c0.2,0,0.3,0.1,0.5,0.2
		c0.6,0.7,1.2,1.4,1.8,2.1c0.3,0.3,0.6,0.6,0.8,0.9c0,0,0.1,0.1,0.1,0c0,0,0.1-0.1,0.1-0.1c0-0.6,0.1-1.2,0.1-1.8
		c0-0.4-0.2-0.5-0.5-0.5c-0.4,0-0.4-0.1-0.4-0.4c0-0.2,0.1-0.3,0.3-0.3c0.6,0,1.3,0,1.9,0c0.2,0,0.2,0.1,0.2,0.3
		c0,0.2,0,0.3-0.2,0.4c-0.1,0-0.2,0.1-0.2,0.1C20,33,20,33.2,20,33.5c0,0.5,0,1,0,1.4c-0.1,0.7,0,1.5-0.1,2.2c0,0.1,0,0.3-0.1,0.4
		c-0.2,0.1-0.3,0-0.5-0.1c-0.3-0.3-0.5-0.5-0.8-0.8c-0.5-0.6-1-1.1-1.5-1.7c-0.2-0.2-0.4-0.5-0.6-0.7c-0.1-0.1-0.1-0.2-0.2-0.2
		c-0.1,0-0.1,0.2-0.1,0.3C16.1,34.7,16.1,35,16.1,35.4z"/>
</g>
</svg>
