<?xml version="1.0" encoding="utf-8"?>
<!-- Generator: Adobe Illustrator 26.0.0, SVG Export Plug-In . SVG Version: 6.00 Build 0)  -->
<svg version="1.0" id="Layer_1" xmlns="http://www.w3.org/2000/svg" xmlns:xlink="http://www.w3.org/1999/xlink" x="0px" y="0px"
	 viewBox="0 0 50 50" enable-background="new 0 0 50 50" xml:space="preserve">
<g>
	<path d="M24.1,48.712c-0.202,0.022-0.26-0.144-0.346-0.27c-0.503-0.734-0.882-1.528-1.092-2.393
		c-0.09-0.371-0.159-0.493-0.531-0.197c-1.117,0.89-2.398,1.293-3.836,1.147c-0.195-0.02-0.342-0.073-0.497-0.209
		c-0.888-0.782-1.296-1.801-1.481-2.966c-0.6,0.327-1.191,0.607-1.848,0.736c-0.489,0.095-0.975,0.037-1.462,0.058
		c-0.173,0.007-0.249-0.117-0.347-0.211c-1.045-0.994-1.578-2.219-1.645-3.654c-0.025-0.554-0.024-0.554-0.527-0.334
		C9.672,40.774,8.823,41,7.94,41.096c-0.161,0.017-0.296,0.029-0.406-0.141c-0.722-1.117-1.374-2.265-1.618-3.593
		c-0.39-2.12,0.301-3.878,1.817-5.351c0.192-0.187,0.377-0.395,0.603-0.53c1.128-0.675,1.535-1.786,1.835-2.967
		c0.327-1.289,0.454-2.606,0.575-3.926c0.032-0.348-0.088-0.529-0.383-0.707c-1.597-0.962-3.127-2.018-4.4-3.398
		c-0.58-0.629-1.078-1.313-1.314-2.16c-0.259-0.927-0.065-1.776,0.391-2.587c0.589-1.048,1.429-1.879,2.342-2.638
		c2.315-1.927,4.907-3.42,7.571-4.792c4.821-2.484,9.801-4.583,15.018-6.09c1.498-0.433,3.012-0.802,4.591-0.832
		c1.085-0.021,1.923,0.4,2.575,1.239c1.133,1.456,1.898,3.115,2.604,4.8c2.473,5.903,4.264,12.008,5.357,18.316
		c0.207,1.196,0.345,2.404,0.422,3.617c0.062,0.158,0.019,0.323,0.032,0.484c0,0.217,0,0.434,0,0.651c0,0.215,0,0.431,0,0.646
		c0.025,0.26-0.054,0.526,0.049,0.782c0,0.095,0,0.19,0,0.284c-0.091,0.271-0.058,0.557-0.092,0.835
		c-0.306,2.475-1.629,3.786-4.031,3.844c-1.666,0.04-3.256-0.343-4.837-0.794c-0.424-0.121-0.852-0.234-1.268-0.385
		c-0.222-0.081-0.429-0.087-0.614,0.094c-1.264,1.238-2.518,2.483-3.365,4.068c-0.262,0.489-0.364,0.995-0.352,1.546
		c0.031,1.401-0.112,2.77-0.776,4.045c-0.628,1.206-1.615,1.998-2.823,2.552C26.382,48.495,25.274,48.762,24.1,48.712z"/>
	<path fill="#7A7A7A" d="M45.601,31.918c-0.196-0.231-0.064-0.494-0.074-0.743c0.015-0.055,0.04-0.06,0.074-0.015
		C45.601,31.413,45.601,31.665,45.601,31.918z"/>
	<path fill="#7F7F7F" d="M45.518,30.487c0.003-0.221,0.006-0.441,0.009-0.662c0.029-0.033,0.053-0.029,0.075,0.008
		c0,0.221,0,0.442,0,0.663C45.568,30.541,45.54,30.538,45.518,30.487z"/>
	<path fill="#404040" d="M45.518,30.487c0.028,0.004,0.055,0.007,0.083,0.009c0,0.221,0,0.442,0,0.663
		c-0.024,0.01-0.049,0.014-0.074,0.015C45.524,30.946,45.521,30.716,45.518,30.487z"/>
	<path fill="#B8B8B8" d="M45.601,29.833l-0.037-0.01c0,0-0.038,0.002-0.038,0.002c-0.002-0.157-0.004-0.314-0.006-0.471
		c0.027-0.002,0.054-0.001,0.081,0.005C45.601,29.518,45.601,29.675,45.601,29.833z"/>
	<path fill="#EDFD65" d="M23.678,42.058c-0.301,0.452-0.575,0.906-0.892,1.328c-0.841,1.123-1.831,2.068-3.279,2.307
		c-1.039,0.172-1.084,0.169-1.554-0.773c-0.618-1.24-0.464-2.546-0.158-3.84c0.064-0.27,0.148-0.534,0.235-0.842
		c-0.242,0.062-0.283,0.249-0.37,0.378c-0.617,0.91-1.303,1.776-2.302,2.266c-1.807,0.887-2.301,0.709-2.915-1.23
		c-0.438-1.384-0.105-2.746,0.318-4.083c0.051-0.161,0.108-0.32,0.166-0.493c-0.218-0.026-0.253,0.146-0.334,0.238
		c-1.069,1.23-2.399,2.02-3.984,2.39c-0.173,0.041-0.314,0.095-0.438-0.118c-0.729-1.247-1.277-2.534-1.04-4.029
		c0.148-0.939,0.613-1.711,1.249-2.392c0.161-0.173,0.318-0.364,0.514-0.488c1.911-1.208,2.431-3.156,2.787-5.195
		c0.212-1.214,0.284-2.441,0.377-3.667c0.022-0.288-0.07-0.45-0.326-0.595c-1.526-0.864-2.98-1.834-4.278-3.023
		C7.023,19.8,6.64,19.362,6.3,18.884c-0.653-0.919-0.644-1.83-0.018-2.766c0.796-1.189,1.874-2.085,3.01-2.913
		c3.081-2.247,6.454-3.983,9.91-5.563c3.91-1.789,7.897-3.376,12.067-4.463c0.992-0.258,1.995-0.452,3.02-0.533
		c0.85-0.067,1.488,0.222,1.986,0.921c0.885,1.24,1.551,2.594,2.142,3.987c2.613,6.16,4.497,12.534,5.542,19.147
		c0.313,1.981,0.482,3.979,0.221,5.987c-0.03,0.234-0.066,0.47-0.129,0.696c-0.429,1.551-0.958,2.166-3.067,2.099
		c-2.035-0.065-3.967-0.666-5.862-1.367c-0.322-0.119-0.539-0.093-0.791,0.146c-1.548,1.468-3.061,2.965-4.121,4.847
		c-0.424,0.754-0.678,1.545-0.612,2.435c0.053,0.707,0.025,1.42-0.137,2.119c-0.431,1.86-1.695,2.878-3.443,3.405
		c-0.166,0.05-0.337,0.081-0.506,0.119c-1.018,0.232-1.024,0.234-1.391-0.716c-0.504-1.306-0.676-2.649-0.425-4.036
		c0.017-0.093,0.027-0.187,0.034-0.281C23.734,42.129,23.708,42.106,23.678,42.058z"/>
	<path d="M20.531,15.023c2.284,0.104,4.184,1.034,5.746,2.689c0.216,0.229,0.422,0.473,0.598,0.733
		c0.512,0.758,1.219,1.043,2.115,0.967c1.197-0.102,2.355,0.087,3.478,0.511c3.794,1.433,5.516,4.916,4.379,8.905
		c-0.579,2.033-1.667,3.734-3.4,4.98c-3.543,2.547-7.367,1.39-9.631-1.399c-0.149-0.184-0.283-0.379-0.426-0.567
		c-0.63-0.833-1.469-1.222-2.508-1.143c-1.209,0.093-2.38-0.013-3.531-0.443c-2.464-0.92-3.852-2.721-4.308-5.251
		c-0.638-3.539,1.266-7.463,4.403-9.186C18.403,15.292,19.429,15.02,20.531,15.023z"/>
	<path fill="#FEFEFE" d="M24.127,27.024c-0.536,0.414-1.045,0.748-1.608,0.992c-3.67,1.595-7.708-0.93-7.891-4.935
		c-0.144-3.144,1.711-5.923,4.532-6.789c3.619-1.111,7.202,1.471,7.31,5.266c0.003,0.118-0.044,0.246,0.056,0.381
		c0.941-0.752,1.984-1.27,3.189-1.404c2.86-0.318,5.298,1.337,6.075,4.121c1.106,3.958-1.8,8.105-5.809,8.292
		c-2.957,0.138-5.557-2.178-5.787-5.154C24.176,27.562,24.154,27.329,24.127,27.024z"/>
	<path d="M30.441,21.384c1.941,0.013,3.522,1.575,3.509,3.468c-0.011,1.742-1.513,3.166-3.303,3.132
		c-1.943-0.037-3.537-1.614-3.517-3.483C27.15,22.752,28.615,21.372,30.441,21.384z"/>
	<path d="M21.707,17.31c1.908,0.01,3.521,1.576,3.525,3.421c0.004,1.758-1.501,3.202-3.315,3.179
		c-1.934-0.024-3.539-1.611-3.517-3.478C18.423,18.675,19.878,17.3,21.707,17.31z"/>
</g>
</svg>
