<svg width="22" height="19" viewBox="0 0 22 19" fill="none" xmlns="http://www.w3.org/2000/svg">
<path fill-rule="evenodd" clip-rule="evenodd" d="M10.2632 11.6208L6.84245 14.8831L10.2632 18.2118H0.000976562V15.9927C0.000976562 13.0411 6.07845 11.5542 9.12355 11.5542C9.48825 11.5542 9.81828 11.5764 10.2632 11.6208ZM13.6858 4.8968C13.6858 7.34891 11.6435 9.33513 9.12355 9.33513C6.60358 9.33513 4.56135 7.34891 4.56135 4.8968C4.56135 2.44457 6.60358 0.458496 9.12355 0.458496C11.6435 0.458496 13.6858 2.44457 13.6858 4.8968ZM10.2632 14.8831L14.2219 18.7666L21.6687 11.4544L20.0714 9.88993L14.2219 15.6265L11.8605 13.3186L10.2632 14.8831Z" fill="#444F58"/>
</svg>
