<svg width="17" height="17" viewBox="0 0 17 17" fill="none" xmlns="http://www.w3.org/2000/svg">
<path d="M8.49995 3.87305C11.0554 3.87305 13.127 5.94463 13.127 8.50005C13.127 11.0555 11.0554 13.1271 8.49995 13.1271C5.94453 13.1271 3.87294 11.0555 3.87294 8.50005C3.87584 5.9458 5.9457 3.8759 8.49995 3.87305ZM8.49995 11.0822C9.92603 11.0822 11.0821 9.92613 11.0821 8.50005C11.0821 7.07393 9.92607 5.91787 8.49995 5.91787C7.07387 5.91787 5.91776 7.07397 5.91776 8.50005C5.91936 9.92547 7.07453 11.0806 8.49995 11.0822Z" fill="#242C33"/>
<path d="M8.49952 10.334C7.48691 10.334 6.66603 9.51308 6.66603 8.50048C6.66603 7.48787 7.48691 6.66699 8.49952 6.66699C9.51213 6.66699 10.333 7.48787 10.333 8.50048C10.333 9.51308 9.51213 10.334 8.49952 10.334Z" fill="#242C33"/>
<path d="M0.907524 9.8698C1.00271 9.78772 1.05035 9.66343 1.03439 9.53876C0.930502 8.73943 0.951374 7.92887 1.0963 7.13595C1.11914 7.01212 1.07819 6.88512 0.987312 6.79794L0.112217 5.9585L0.964943 4.00914L2.17697 4.09829C2.30491 4.10779 2.42878 4.05107 2.50511 3.94798C2.98248 3.30275 3.568 2.74508 4.23565 2.29967C4.34304 2.22807 4.40598 2.10621 4.40219 1.97719L4.36658 0.765819L6.34818 0.000976562L7.13109 0.908501C7.21326 1.00354 7.33755 1.05114 7.46217 1.03532C8.2615 0.931432 9.07206 0.95235 9.86498 1.09723C9.98881 1.12012 10.1159 1.07917 10.203 0.988243L11.0424 0.113148L12.9918 0.96578L12.9026 2.17781C12.8932 2.3057 12.9499 2.42953 13.0529 2.50595C13.6981 2.98332 14.2558 3.56884 14.7013 4.23648C14.7729 4.34388 14.8947 4.40682 15.0237 4.40303L16.2351 4.36742L17 6.34911L16.0925 7.13202C15.9973 7.2141 15.9497 7.33844 15.9657 7.4631C16.0695 8.26243 16.0487 9.07299 15.9037 9.86591C15.8809 9.98974 15.9219 10.1167 16.0127 10.2039L16.8878 11.0434L16.0351 12.9927L14.8231 12.9036C14.6952 12.8941 14.5713 12.9508 14.4949 13.0539C14.0176 13.6991 13.432 14.2567 12.7644 14.7022C12.657 14.7738 12.5941 14.8956 12.5979 15.0247L12.6335 16.236L10.6518 17.0009L9.86892 16.0934C9.78683 15.9982 9.6625 15.9506 9.53783 15.9666C8.7385 16.0705 7.92794 16.0496 7.13502 15.9047C7.01119 15.8817 6.88414 15.9227 6.797 16.0137L5.95757 16.8888L4.00821 16.036L4.09736 14.824C4.10677 14.6961 4.05005 14.5723 3.94705 14.4959C3.30187 14.0185 2.74419 13.433 2.29874 12.7653C2.22775 12.6572 2.10547 12.5941 1.97626 12.5988L0.764889 12.6344L0 10.6528L0.907524 9.8698ZM8.50002 13.8767C11.469 13.8767 13.8758 11.4699 13.8758 8.50095C13.8758 5.532 11.469 3.12521 8.50002 3.12521C5.53107 3.12521 3.12428 5.532 3.12428 8.50095C3.12764 11.4685 5.53247 13.8733 8.50002 13.8767Z" fill="#242C33"/>
</svg>
