<!-- <svg width="15" height="15" viewBox="0 0 15 15" fill="none" xmlns="http://www.w3.org/2000/svg">
<path d="M7.45052 14.3786C3.50388 14.3786 0.304688 11.1794 0.304688 7.23275C0.304688 3.2861 3.50388 0.0869141 7.45052 0.0869141C11.3972 0.0869141 14.5964 3.2861 14.5964 7.23275C14.5964 11.1794 11.3972 14.3786 7.45052 14.3786ZM4.64935 9.65804C4.8841 10.2065 5.27466 10.6739 5.7726 11.0024C6.27055 11.3309 6.85397 11.506 7.45052 11.506C8.04707 11.506 8.63049 11.3309 9.12844 11.0024C9.62638 10.6739 10.0169 10.2065 10.2517 9.65804C10.2887 9.57171 10.3083 9.47894 10.3094 9.38503C10.3105 9.29112 10.2931 9.19791 10.2582 9.11072C10.2233 9.02353 10.1716 8.94406 10.106 8.87687C10.0404 8.80967 9.96215 8.75605 9.87582 8.71908C9.78948 8.68211 9.69671 8.6625 9.6028 8.66138C9.50889 8.66026 9.41568 8.67765 9.32849 8.71255C9.2413 8.74745 9.16184 8.79919 9.09464 8.8648C9.02744 8.93041 8.97383 9.00862 8.93685 9.09495C8.81194 9.38557 8.60457 9.63319 8.3404 9.80718C8.07623 9.98117 7.76684 10.0739 7.45052 10.0739C7.1342 10.0739 6.82481 9.98117 6.56064 9.80718C6.29647 9.63319 6.0891 9.38557 5.96419 9.09495C5.88952 8.92059 5.74864 8.78304 5.57255 8.71255C5.39646 8.64206 5.19958 8.64441 5.02523 8.71908C4.85087 8.79375 4.71331 8.93463 4.64282 9.11072C4.57233 9.28681 4.57468 9.48369 4.64935 9.65804ZM5.30677 4.37441C5.11725 4.37441 4.93549 4.4497 4.80148 4.58371C4.66747 4.71772 4.59219 4.89948 4.59219 5.089V6.51816C4.59219 6.70768 4.66747 6.88944 4.80148 7.02345C4.93549 7.15746 5.11725 7.23275 5.30677 7.23275C5.49629 7.23275 5.67805 7.15746 5.81206 7.02345C5.94607 6.88944 6.02135 6.70768 6.02135 6.51816V5.089C6.02135 4.89948 5.94607 4.71772 5.81206 4.58371C5.67805 4.4497 5.49629 4.37441 5.30677 4.37441ZM9.59427 4.37441C9.40475 4.37441 9.22299 4.4497 9.08898 4.58371C8.95497 4.71772 8.87969 4.89948 8.87969 5.089V6.51816C8.87969 6.70768 8.95497 6.88944 9.08898 7.02345C9.22299 7.15746 9.40475 7.23275 9.59427 7.23275C9.78379 7.23275 9.96555 7.15746 10.0996 7.02345C10.2336 6.88944 10.3089 6.70768 10.3089 6.51816V5.089C10.3089 4.89948 10.2336 4.71772 10.0996 4.58371C9.96555 4.4497 9.78379 4.37441 9.59427 4.37441Z" fill="white"/>
</svg> -->
<svg xmlns="http://www.w3.org/2000/svg" width="42" height="23" viewBox="0 0 42 23" fill="none">
    <rect x="0.478516" width="41.521" height="22.0999" rx="3" fill="#484B5D" />
    <path
        d="M13.4505 18.3786C9.50388 18.3786 6.30469 15.1794 6.30469 11.2327C6.30469 7.2861 9.50388 4.08691 13.4505 4.08691C17.3972 4.08691 20.5964 7.2861 20.5964 11.2327C20.5964 15.1794 17.3972 18.3786 13.4505 18.3786ZM10.6494 13.658C10.8841 14.2065 11.2747 14.6739 11.7726 15.0024C12.2706 15.3309 12.854 15.506 13.4505 15.506C14.0471 15.506 14.6305 15.3309 15.1284 15.0024C15.6264 14.6739 16.0169 14.2065 16.2517 13.658C16.2887 13.5717 16.3083 13.4789 16.3094 13.385C16.3105 13.2911 16.2931 13.1979 16.2582 13.1107C16.2233 13.0235 16.1716 12.9441 16.106 12.8769C16.0404 12.8097 15.9621 12.7561 15.8758 12.7191C15.7895 12.6821 15.6967 12.6625 15.6028 12.6614C15.5089 12.6603 15.4157 12.6776 15.3285 12.7126C15.2413 12.7475 15.1618 12.7992 15.0946 12.8648C15.0274 12.9304 14.9738 13.0086 14.9369 13.095C14.8119 13.3856 14.6046 13.6332 14.3404 13.8072C14.0762 13.9812 13.7668 14.0739 13.4505 14.0739C13.1342 14.0739 12.8248 13.9812 12.5606 13.8072C12.2965 13.6332 12.0891 13.3856 11.9642 13.095C11.8895 12.9206 11.7486 12.783 11.5726 12.7126C11.3965 12.6421 11.1996 12.6444 11.0252 12.7191C10.8509 12.7938 10.7133 12.9346 10.6428 13.1107C10.5723 13.2868 10.5747 13.4837 10.6494 13.658ZM11.3068 8.37441C11.1173 8.37441 10.9355 8.4497 10.8015 8.58371C10.6675 8.71772 10.5922 8.89948 10.5922 9.089V10.5182C10.5922 10.7077 10.6675 10.8894 10.8015 11.0235C10.9355 11.1575 11.1173 11.2327 11.3068 11.2327C11.4963 11.2327 11.678 11.1575 11.8121 11.0235C11.9461 10.8894 12.0214 10.7077 12.0214 10.5182V9.089C12.0214 8.89948 11.9461 8.71772 11.8121 8.58371C11.678 8.4497 11.4963 8.37441 11.3068 8.37441ZM15.5943 8.37441C15.4048 8.37441 15.223 8.4497 15.089 8.58371C14.955 8.71772 14.8797 8.89948 14.8797 9.089V10.5182C14.8797 10.7077 14.955 10.8894 15.089 11.0235C15.223 11.1575 15.4048 11.2327 15.5943 11.2327C15.7838 11.2327 15.9655 11.1575 16.0996 11.0235C16.2336 10.8894 16.3089 10.7077 16.3089 10.5182V9.089C16.3089 8.89948 16.2336 8.71772 16.0996 8.58371C15.9655 8.4497 15.7838 8.37441 15.5943 8.37441Z"
        fill="white"
    />
    <path
        d="M32.24 12.1905V15.5797C32.24 15.7163 32.1957 15.8342 32.107 15.9335C32.0182 16.0329 31.9129 16.0825 31.7909 16.0825H30.5265C30.4045 16.0825 30.2992 16.0329 30.2105 15.9335C30.1217 15.8342 30.0774 15.7163 30.0774 15.5797V12.1905H27.0996C26.9776 12.1905 26.8722 12.1409 26.7835 12.0416C26.6948 11.9422 26.6504 11.8243 26.6504 11.6877V10.4587C26.6504 10.3221 26.6948 10.2042 26.7835 10.1049C26.8722 10.0055 26.9776 9.95589 27.0996 9.95589H30.0774V6.58531C30.0774 6.44875 30.1217 6.33081 30.2105 6.23149C30.2992 6.13218 30.4045 6.08252 30.5265 6.08252H31.7909C31.9129 6.08252 32.0182 6.13218 32.107 6.23149C32.1957 6.33081 32.24 6.44875 32.24 6.58531V9.95589H35.2012C35.3232 9.95589 35.4286 10.0055 35.5173 10.1049C35.606 10.2042 35.6504 10.3221 35.6504 10.4587V11.6877C35.6504 11.8243 35.606 11.9422 35.5173 12.0416C35.4286 12.1409 35.3232 12.1905 35.2012 12.1905H32.24Z"
        fill="white"
    />
</svg>
