<svg width="18" height="18" viewBox="0 0 12 13" fill="none" xmlns="http://www.w3.org/2000/svg">
<path fill-rule="evenodd" clip-rule="evenodd" d="M5.99982 0.485352C5.44753 0.485352 4.99982 0.933067 4.99982 1.48535V5.48535H1C0.447715 5.48535 0 5.93307 0 6.48535C0 7.03764 0.447715 7.48535 1 7.48535H4.99982L4.99982 11.4854C4.99982 12.0376 5.44753 12.4854 5.99982 12.4854C6.5521 12.4854 6.99982 12.0376 6.99982 11.4854L6.99982 7.48535L11 7.48535C11.5523 7.48535 12 7.03764 12 6.48535C12 5.93307 11.5523 5.48535 11 5.48535L6.99982 5.48535V1.48535C6.99982 0.933067 6.5521 0.485352 5.99982 0.485352Z" fill="#2FAD1D"/>
</svg>
