<svg width="26" height="25" viewBox="0 0 26 25" fill="none" xmlns="http://www.w3.org/2000/svg">
<path fill-rule="evenodd" clip-rule="evenodd" d="M13.1716 0.173096C6.45407 0.173096 0.989258 5.63852 0.989258 12.3569C0.989258 19.0753 6.45407 24.5407 13.1716 24.5407C19.8909 24.5407 25.3557 19.0753 25.3557 12.3569C25.3557 5.63852 19.8909 0.173096 13.1716 0.173096ZM19.2636 13.3722H14.1872V18.4488C14.1872 19.0092 13.7332 19.464 13.1716 19.464C12.6118 19.464 12.1578 19.0092 12.1578 18.4488V13.3722H7.08315C6.52153 13.3722 6.06751 12.9173 6.06751 12.3569C6.06751 11.7964 6.52153 11.3416 7.08315 11.3416H12.1578V6.26492C12.1578 5.70461 12.6118 5.24974 13.1716 5.24974C13.7332 5.24974 14.1872 5.70461 14.1872 6.26492V11.3416H19.2636C19.8253 11.3416 20.2793 11.7964 20.2793 12.3569C20.2793 12.9173 19.8253 13.3722 19.2636 13.3722Z" fill="white"/>
</svg>
