<svg width="88" height="88" viewBox="0 0 88 88" fill="none" xmlns="http://www.w3.org/2000/svg">
<g clip-path="url(#clip0)">
<path d="M1.48979 65.532C2.41626 66.1049 3.57347 66.1572 4.54781 65.6703L25.143 55.3713L25.143 62.8576C25.143 68.0648 29.3643 72.2861 34.5715 72.2861L78.5714 72.2861C83.7787 72.2861 88 68.0648 88 62.8576L88 25.1433C88 19.936 83.7787 15.7147 78.5714 15.7147L34.5715 15.7147C29.3643 15.7147 25.143 19.936 25.143 25.1433L25.143 32.6296L4.54781 22.3147C2.99504 21.5389 1.10749 22.1685 0.331478 23.7213C0.110859 24.1627 -0.00276601 24.65 -4.12136e-06 25.1433L-8.24272e-07 62.8576C-0.000550045 63.947 0.56314 64.9589 1.48979 65.532ZM31.4286 25.1433C31.4286 23.4075 32.8357 22.0004 34.5715 22.0004L78.5714 22.0004C80.3072 22.0004 81.7143 23.4075 81.7143 25.1433L81.7144 62.8576C81.7144 64.5934 80.3072 66.0005 78.5714 66.0005L34.5715 66.0005C32.8357 66.0005 31.4286 64.5934 31.4286 62.8576L31.4286 25.1433ZM6.28583 30.2283L25.143 39.6569L25.143 48.3437L6.28583 57.7722L6.28583 30.2283Z" fill="white" fill-opacity="0.3"/>
<path d="M56.5721 56.5713C63.5151 56.5713 69.1436 50.9429 69.1436 43.9998C69.1436 37.0567 63.5151 31.4283 56.5721 31.4283C49.629 31.4283 44.0006 37.0567 44.0006 43.9998C44.0006 50.9429 49.6292 56.5713 56.5721 56.5713ZM56.5721 37.7142C60.0435 37.7142 62.8577 40.5284 62.8577 43.9998C62.8577 47.4713 60.0435 50.2855 56.5721 50.2855C53.1006 50.2855 50.2864 47.4713 50.2864 43.9998C50.2864 40.5284 53.1006 37.7142 56.5721 37.7142Z" fill="white" fill-opacity="0.3"/>
</g>
<defs>
<clipPath id="clip0">
<rect width="88" height="88" fill="white" transform="translate(88 88) rotate(180)"/>
</clipPath>
</defs>
</svg>
