<svg width="8" height="13" viewBox="0 0 8 13" fill="none" xmlns="http://www.w3.org/2000/svg">
<path fill-rule="evenodd" clip-rule="evenodd" d="M5.56569 6.10344L1.06867 10.6073C0.9449 10.7313 0.87692 10.8972 0.87692 11.0723C0.87692 11.2492 0.9449 11.4151 1.06867 11.5391L1.46283 11.9329C1.58648 12.0569 1.75165 12.1262 1.92785 12.1262C2.10404 12.1262 2.26908 12.0569 2.39286 11.9329L7.74729 6.57024C7.87144 6.44625 7.93954 6.28032 7.93903 6.10344C7.93954 5.92474 7.87157 5.75881 7.74729 5.63482L2.39775 0.277605C2.27397 0.153615 2.10893 0.0843152 1.93274 0.0843152C1.75654 0.0843152 1.5915 0.153615 1.46772 0.277605L1.07369 0.67146C0.81748 0.92856 0.81748 1.34613 1.07369 1.60323L5.56569 6.10344Z" fill="white"/>
</svg>
