<svg width="24" height="24" viewBox="0 0 24 24" fill="none" xmlns="http://www.w3.org/2000/svg">
<path d="M22.3654 1.95726L21.5482 1.2342C20.6587 0.445921 19.5137 0.0117188 18.324 0.0117188C16.9316 0.0117188 15.6047 0.607642 14.6835 1.64685L12.3446 4.28615C12.0434 4.62538 11.8925 5.0618 11.9199 5.51465C11.9474 5.96686 12.1489 6.38177 12.4882 6.68257L12.7071 6.87695C13.0179 7.15293 13.4183 7.30484 13.834 7.30484L13.9354 7.30193C14.3876 7.27474 14.8028 7.07316 15.1046 6.73344L17.444 4.09384C17.8555 3.62929 18.6364 3.58262 19.1017 3.99388L19.9186 4.71852C20.1528 4.92588 20.2921 5.21291 20.3111 5.52684C20.3301 5.84051 20.2261 6.1418 20.0182 6.3758L14.9019 12.1472C14.5574 12.5363 13.9459 12.6486 13.4843 12.4107C12.7651 12.0398 11.8276 12.2168 11.2942 12.818L11.2541 12.8637C10.8805 13.284 10.7249 13.8424 10.8262 14.3982C10.9285 14.9507 11.2725 15.4245 11.7711 15.6854C12.4611 16.0461 13.2395 16.2444 14.0218 16.2444H14.0224C15.4142 16.2444 16.7416 15.6406 17.6634 14.6011L22.779 8.82659C24.5571 6.82031 24.3725 3.73709 22.3654 1.95726Z" fill="#295ECD"/>
<path d="M11.2916 17.1433C10.6172 16.5462 9.49451 16.6133 8.89518 17.2882L6.55688 19.927C6.14532 20.3914 5.36498 20.4395 4.90019 20.0278L4.0824 19.3024C3.84821 19.0948 3.70893 18.8078 3.68994 18.4941C3.67085 18.1809 3.7749 17.8797 3.98275 17.6457L9.09844 11.8747C9.43768 11.4917 10.0381 11.3759 10.4945 11.6001C11.2405 11.9676 12.1896 11.7885 12.7664 11.1356C13.1331 10.7225 13.2871 10.1738 13.19 9.63269C13.0935 9.08847 12.7584 8.62679 12.2715 8.36645C11.5708 7.9913 10.7779 7.79297 9.97904 7.79297C8.58664 7.79297 7.25976 8.38914 6.33852 9.42849L1.22218 15.1985C-0.55696 17.2048 -0.371754 20.2841 1.63467 22.0632L2.45187 22.7776C3.34094 23.566 4.48592 23.9904 5.67569 23.9904C5.67624 23.9904 5.67569 23.9904 5.67624 23.9904C7.06863 23.9904 8.39606 23.4039 9.31779 22.3645L11.6557 19.731C11.9574 19.3912 12.1084 18.9569 12.0809 18.5065C12.0546 18.0591 11.8472 17.6336 11.5116 17.337L11.2916 17.1433Z" fill="#295ECD"/>
</svg>
