<svg width="20" height="20" viewBox="0 0 20 20" fill="none" xmlns="http://www.w3.org/2000/svg">
<path d="M8.55 14.4504L6.55 16.4504C5.7 17.3004 4.35 17.3004 3.55 16.4504C2.7 15.6004 2.7 14.2504 3.55 13.4504L7.55 9.45039C8.4 8.60039 9.7 8.60039 10.55 9.45039C10.85 9.75039 11.3 9.75039 11.55 9.45039C11.85 9.15039 11.85 8.70039 11.55 8.45039C10.15 7.05039 7.9 7.05039 6.55 8.45039L2.55 12.4504C1.15 13.8504 1.15 16.1004 2.55 17.4504C3.95 18.8504 6.2 18.8504 7.55 17.4504L9.55 15.4504C9.85 15.1504 9.85 14.7004 9.55 14.4504C9.25 14.2004 8.8 14.2004 8.55 14.4504Z" fill="black"/>
<path d="M17.4502 2.55C16.0502 1.15 13.8002 1.15 12.4502 2.55L10.0502 4.95C9.7502 5.25 9.7502 5.7 10.0502 5.95C10.3502 6.25 10.8002 6.25 11.0502 5.95L13.4502 3.55C14.3002 2.7 15.6502 2.7 16.4502 3.55C17.3002 4.4 17.3002 5.7 16.4502 6.55L12.0502 10.95C11.2002 11.8 9.9002 11.8 9.0502 10.95C8.7502 10.65 8.3002 10.65 8.0502 10.95C7.7502 11.25 7.7502 11.7 8.0502 11.95C9.4502 13.35 11.7002 13.35 13.0502 11.95L17.4502 7.55C18.8502 6.15 18.8502 3.9 17.4502 2.55Z" fill="black"/>
</svg>
