<svg width="23" height="23"  xmlns="http://www.w3.org/2000/svg" xmlns:xlink="http://www.w3.org/1999/xlink" version="1.1" id="Capa_1" x="0px" y="0px" viewBox="0 0 426.667 426.667" style="enable-background:new 0 0 426.667 426.667;" xml:space="preserve">
<g>
	<g>
		<path d="M213.333,0C95.467,0,0,95.467,0,213.333s95.467,213.333,213.333,213.333S426.667,331.2,426.667,213.333S331.2,0,213.333,0    z M42.667,213.333c0-94.293,76.373-170.667,170.667-170.667c39.467,0,75.627,13.547,104.533,35.947L78.613,317.867    C56.213,288.96,42.667,252.8,42.667,213.333z M213.333,384c-39.467,0-75.627-13.547-104.533-35.947L348.053,108.8    C370.453,137.707,384,173.867,384,213.333C384,307.627,307.627,384,213.333,384z"/>
	</g>
</g><g> </g><g> </g><g> </g><g> </g><g> </g><g> </g><g> </g><g> </g><g> </g><g> </g><g> </g><g> </g><g> </g><g> </g><g> </g>
</svg>