<svg width="32" height="32" viewBox="0 0 32 32" fill="none" xmlns="http://www.w3.org/2000/svg">
<path d="M3.5 5H28.5C30.4299 5 32 6.57012 32 8.5V23.5C32 25.4299 30.4299 27 28.5 27H3.5C1.57013 27 0 25.4299 0 23.5V8.5C0 6.57012 1.57013 5 3.5 5ZM28.5 7H3.5C2.67294 7 2 7.67294 2 8.5V10.5H30V8.5C30 7.67294 29.3271 7 28.5 7ZM3.5 25H28.5C29.3271 25 30 24.3271 30 23.5V12.5H2V23.5C2 24.3271 2.67294 25 3.5 25Z" fill="#444F58"/>
<path d="M25 22H26C26.5523 22 27 21.5522 27 21V20C27 19.4477 26.5523 19 26 19H25C24.4478 19 24 19.4477 24 20V21C24 21.5522 24.4478 22 25 22Z" fill="#444F58"/>
</svg>
