<svg width="24" height="22" viewBox="0 0 24 22" fill="none" xmlns="http://www.w3.org/2000/svg">
<path fill-rule="evenodd" clip-rule="evenodd" d="M16 3.03529e-06C18.7579 -0.00300587 20.995 2.23143 20.9999 4.99072C21.0024 6.95881 19.8484 8.74463 18.0562 9.55243C17.978 9.58742 17.9022 9.61936 17.8239 9.65249C17.577 9.7522 17.3227 9.8314 17.0635 9.88975C17.0122 9.9007 16.9633 9.90657 16.9119 9.91665C16.621 9.97232 16.3276 10.0021 16.0318 10.0058C15.8997 10.0058 15.7653 9.99571 15.6308 9.98377C15.5819 9.98377 15.5305 9.98376 15.4816 9.97368C14.9144 9.90674 14.3594 9.74379 13.8459 9.49139C13.8264 9.48231 13.8068 9.48349 13.7873 9.47544C13.687 9.42732 13.5868 9.38546 13.4988 9.3313C13.5061 9.32122 13.511 9.3103 13.5183 9.30021C13.978 8.71064 14.3398 8.05166 14.5892 7.3479L14.621 7.26401C14.7335 6.92786 14.8239 6.58364 14.8851 6.23422C14.8948 6.18328 14.9022 6.13416 14.9095 6.079C14.9682 5.72336 14.9975 5.36385 15 5.00331C14.9975 4.64363 14.9682 4.28463 14.9095 3.92964C14.9022 3.87751 14.8948 3.82943 14.8851 3.77462C14.8239 3.42502 14.7335 3.08098 14.621 2.74483L14.5892 2.66073C14.3398 1.957 13.978 1.29802 13.5183 0.708454C13.511 0.698365 13.5061 0.687421 13.4988 0.677332C14.2567 0.233931 15.1222 3.03529e-06 16 3.03529e-06ZM3.00007 5.00349C2.99273 2.24724 5.22009 0.00723043 7.97558 0.000180142C9.26651 -0.00318275 10.5086 0.494732 11.4401 1.38897C11.4988 1.44499 11.555 1.50098 11.6112 1.55897C11.7824 1.73909 11.9413 1.93146 12.0856 2.13441C12.1296 2.19648 12.1687 2.26255 12.2103 2.32645C12.3496 2.54185 12.4719 2.7677 12.577 3.0021C12.6015 3.05912 12.621 3.11711 12.643 3.17413C12.7482 3.43325 12.8313 3.70114 12.89 3.97471C12.8973 4.00465 12.8998 4.03474 12.9047 4.06569C13.0318 4.68703 13.0318 5.32754 12.9047 5.94885C12.8998 5.97997 12.8973 6.00991 12.89 6.04C12.8313 6.31343 12.7482 6.58128 12.643 6.84058C12.621 6.8976 12.6015 6.95562 12.577 7.01262C12.4719 7.24669 12.3496 7.47218 12.2103 7.68708C12.1687 7.75116 12.1296 7.81709 12.0856 7.8793C11.9413 8.08225 11.7824 8.27447 11.6112 8.45456C11.555 8.51256 11.4988 8.56855 11.4401 8.62471C11.0342 9.0108 10.5672 9.32611 10.0587 9.55733C9.978 9.59432 9.89488 9.62827 9.81175 9.65736C9.57213 9.75305 9.32276 9.83007 9.07092 9.88739C9.00736 9.90152 8.94377 9.9096 8.87777 9.92052C8.60639 9.97114 8.33253 9.9989 8.05626 10.0036H7.94623C7.66996 9.9989 7.39368 9.97114 7.12227 9.92052C7.05871 9.9096 6.99268 9.90152 6.93157 9.88739C6.67731 9.83007 6.43035 9.75305 6.18829 9.65736C6.10517 9.62441 6.02449 9.59028 5.94381 9.55733C4.15407 8.74899 3.00251 6.96772 3.00007 5.00349ZM16 21.0141H7.51068e-05V19.0129C-0.0145994 15.6219 2.1223 12.5944 5.31789 11.4718C7.03426 12.1869 8.96578 12.1869 10.6821 11.4718C11.0171 11.5939 11.3423 11.738 11.6577 11.9031C11.8655 12.01 12.0562 12.1323 12.2567 12.2552C12.3863 12.3363 12.5183 12.4155 12.643 12.5044C12.8362 12.6416 13.0195 12.7906 13.198 12.9438C13.313 13.0439 13.4254 13.1439 13.5354 13.244C13.6993 13.4 13.8557 13.5651 14.0024 13.7343C14.11 13.8564 14.2152 13.9805 14.3129 14.1086C14.445 14.2766 14.5697 14.4488 14.6846 14.6259C14.7848 14.776 14.8753 14.9321 14.9633 15.0883C15.0635 15.2603 15.154 15.4325 15.2396 15.6116C15.3227 15.7907 15.3961 15.9869 15.4694 16.178C15.5305 16.3441 15.599 16.5092 15.6504 16.6782C15.7212 16.9104 15.7701 17.1506 15.819 17.3907C15.8484 17.5328 15.8875 17.672 15.9095 17.816C15.9682 18.2121 16 18.6122 16 19.0129V21.0141V21.0141ZM23.9999 21.0141H18V19.0129C18 18.6996 17.9829 18.3894 17.9535 18.0822C17.9462 17.9922 17.9315 17.9031 17.9217 17.8131C17.8948 17.592 17.8655 17.3727 17.8215 17.1556C17.8044 17.0628 17.7848 16.9698 17.7652 16.8763C17.7163 16.6535 17.6626 16.4327 17.599 16.2139C17.577 16.1418 17.5574 16.0688 17.5354 15.9979C17.2567 15.1021 16.8508 14.2507 16.3325 13.4691L16.2934 13.4121C16.1198 13.1565 15.9364 12.9093 15.7408 12.6705L15.7335 12.6615C15.5354 12.4134 15.3178 12.1721 15.0904 11.9441C15.1027 11.9441 15.1173 11.9441 15.1296 11.9441C15.4132 11.9813 15.6968 12.0013 15.9804 12.0042H16.0367C16.3007 12.0018 16.5623 11.9848 16.8239 11.9532C16.907 11.9431 16.9878 11.928 17.0709 11.915C17.2811 11.8824 17.4914 11.84 17.6992 11.7879C17.7579 11.7729 17.819 11.759 17.8777 11.742C18.1515 11.6678 18.4181 11.577 18.6797 11.4698C21.8777 12.5912 24.0146 15.6202 23.9999 19.0129V21.0141V21.0141Z" fill="white"/>
</svg>
