<svg width="25" height="25" viewBox="0 0 25 25" fill="none" xmlns="http://www.w3.org/2000/svg">
<path d="M12.5036 2.23218C18.1742 2.23218 22.7715 6.8295 22.7715 12.5C22.7715 18.1706 18.1742 22.7679 12.5036 22.7679C10.7884 22.7679 9.13309 22.3465 7.65541 21.5536L3.63398 22.7616C3.44093 22.8195 3.23582 22.824 3.04041 22.7747C2.84501 22.7253 2.66661 22.624 2.52415 22.4815C2.38169 22.3389 2.28048 22.1605 2.23128 21.965C2.18208 21.7696 2.18671 21.5645 2.24469 21.3715L3.45273 17.3509C2.65176 15.8596 2.23359 14.1928 2.23577 12.5C2.23577 6.8295 6.83309 2.23218 12.5036 2.23218ZM12.5036 3.57146C7.57237 3.57146 3.57505 7.56879 3.57505 12.5C3.57505 14.0804 3.98577 15.6 4.75541 16.9402L4.89827 17.1902L3.64559 21.3599L7.81702 20.1072L8.06702 20.25C9.4063 21.0179 10.9242 21.4286 12.5036 21.4286C17.4349 21.4286 21.4322 17.4313 21.4322 12.5C21.4322 7.56879 17.4349 3.57146 12.5036 3.57146V3.57146ZM9.15541 13.8393H13.1715C13.3411 13.8394 13.5045 13.9038 13.6284 14.0197C13.7524 14.1355 13.8278 14.2941 13.8394 14.4633C13.8509 14.6326 13.7978 14.7999 13.6907 14.9316C13.5837 15.0632 13.4306 15.1492 13.2626 15.1724L13.1715 15.1786H9.15541C8.98575 15.1786 8.82243 15.1141 8.69845 14.9983C8.57448 14.8824 8.49909 14.7239 8.48753 14.5546C8.47596 14.3853 8.52908 14.218 8.63615 14.0864C8.74322 13.9548 8.89626 13.8687 9.06434 13.8456L9.15541 13.8393H13.1715H9.15541V13.8393ZM9.15541 9.82146H15.8554C16.0251 9.82152 16.1884 9.88597 16.3124 10.0018C16.4363 10.1176 16.5117 10.2762 16.5233 10.4455C16.5349 10.6147 16.4817 10.7821 16.3747 10.9137C16.2676 11.0453 16.1146 11.1314 15.9465 11.1545L15.8554 11.1607H9.15541C8.98575 11.1607 8.82243 11.0962 8.69845 10.9804C8.57448 10.8646 8.49909 10.706 8.48753 10.5367C8.47596 10.3675 8.52908 10.2001 8.63615 10.0685C8.74322 9.93691 8.89626 9.85084 9.06434 9.82771L9.15541 9.82146H15.8554H9.15541Z" fill="white"/>
</svg>
