<svg width="21" height="21" viewBox="0 0 21 21" fill="none" xmlns="http://www.w3.org/2000/svg">
<path d="M3.85961 5.82213H16.7221C17.4044 5.82213 18.0587 6.09316 18.5411 6.5756C19.0236 7.05803 19.2946 7.71236 19.2946 8.39463V12.2534C19.2946 12.9356 19.0236 13.59 18.5411 14.0724C18.0587 14.5548 17.4044 14.8259 16.7221 14.8259H3.85961C3.17734 14.8259 2.52301 14.5548 2.04058 14.0724C1.55814 13.59 1.28711 12.9356 1.28711 12.2534V8.39463C1.28711 7.71236 1.55814 7.05803 2.04058 6.5756C2.52301 6.09316 3.17734 5.82213 3.85961 5.82213V5.82213ZM3.85961 7.10838C3.51847 7.10838 3.19131 7.24389 2.95009 7.48511C2.70887 7.72633 2.57336 8.05349 2.57336 8.39463V12.2534C2.57336 12.5945 2.70887 12.9217 2.95009 13.1629C3.19131 13.4041 3.51847 13.5396 3.85961 13.5396H16.7221C17.0632 13.5396 17.3904 13.4041 17.6316 13.1629C17.8728 12.9217 18.0084 12.5945 18.0084 12.2534V8.39463C18.0084 8.05349 17.8728 7.72633 17.6316 7.48511C17.3904 7.24389 17.0632 7.10838 16.7221 7.10838H3.85961ZM1.28711 2.6065C1.28711 2.43594 1.35487 2.27236 1.47548 2.15175C1.59609 2.03114 1.75967 1.96338 1.93023 1.96338H18.6515C18.8221 1.96338 18.9856 2.03114 19.1062 2.15175C19.2269 2.27236 19.2946 2.43594 19.2946 2.6065C19.2946 2.77707 19.2269 2.94065 19.1062 3.06126C18.9856 3.18187 18.8221 3.24963 18.6515 3.24963H1.93023C1.75967 3.24963 1.59609 3.18187 1.47548 3.06126C1.35487 2.94065 1.28711 2.77707 1.28711 2.6065V2.6065ZM1.28711 18.0415C1.28711 17.8709 1.35487 17.7074 1.47548 17.5867C1.59609 17.4661 1.75967 17.3984 1.93023 17.3984H18.6515C18.8221 17.3984 18.9856 17.4661 19.1062 17.5867C19.2269 17.7074 19.2946 17.8709 19.2946 18.0415C19.2946 18.2121 19.2269 18.3757 19.1062 18.4963C18.9856 18.6169 18.8221 18.6846 18.6515 18.6846H1.93023C1.75967 18.6846 1.59609 18.6169 1.47548 18.4963C1.35487 18.3757 1.28711 18.2121 1.28711 18.0415V18.0415Z" fill="white" stroke="white"/>
</svg>
