<svg width="24" height="24" viewBox="0 0 24 24" fill="none" xmlns="http://www.w3.org/2000/svg">
<path d="M23.0998 10.05L20.3998 9.375C20.2498 8.925 20.0248 8.4 19.7998 7.95L21.2248 5.625C21.3748 5.325 21.3748 5.025 21.1498 4.8L19.1998 2.85C18.9748 2.625 18.6748 2.625 18.3748 2.775L16.0498 4.2C15.5998 3.975 15.1498 3.75 14.6248 3.6L13.9498 0.9C13.8748 0.6 13.5748 0.375 13.2748 0.375H10.5748C10.2748 0.375 9.97481 0.6 9.89981 0.9L9.2248 3.6C8.77481 3.75 8.24981 3.975 7.79981 4.2L5.47481 2.775C5.17481 2.625 4.8748 2.625 4.6498 2.85L2.6998 4.8C2.4748 5.025 2.4748 5.325 2.6248 5.625L4.0498 7.95C3.8248 8.4 3.59981 8.85 3.44981 9.375L0.824805 10.05C0.524805 10.125 0.299805 10.425 0.299805 10.725V13.425C0.299805 13.725 0.524805 14.025 0.824805 14.1L3.44981 14.775C3.59981 15.225 3.8248 15.75 4.0498 16.2L2.6248 18.525C2.4748 18.825 2.4748 19.125 2.6998 19.35L4.6498 21.3C4.8748 21.525 5.17481 21.525 5.47481 21.375L7.79981 19.95C8.24981 20.175 8.69981 20.4 9.2248 20.55L9.89981 23.175C9.97481 23.475 10.2748 23.7 10.5748 23.7H13.2748C13.5748 23.7 13.8748 23.475 13.9498 23.175L14.6248 20.55C15.0748 20.4 15.5998 20.175 16.0498 19.95L18.3748 21.375C18.6748 21.525 18.9748 21.525 19.1998 21.3L21.1498 19.35C21.3748 19.125 21.3748 18.825 21.2248 18.525L19.7998 16.2C20.0248 15.75 20.2498 15.3 20.3998 14.775L23.0998 14.1C23.3998 14.025 23.6248 13.725 23.6248 13.425V10.725C23.6248 10.35 23.3998 10.125 23.0998 10.05ZM11.9248 15.45C10.0498 15.45 8.54981 13.95 8.54981 12.075C8.54981 10.2 10.0498 8.7 11.9248 8.7C13.7998 8.7 15.2998 10.2 15.2998 12.075C15.2998 13.95 13.7998 15.45 11.9248 15.45Z" fill="white"/>
</svg>
