<svg width="22" height="19" viewBox="0 0 22 19" fill="none" xmlns="http://www.w3.org/2000/svg">
<path fill-rule="evenodd" clip-rule="evenodd" d="M17.8662 9.1136C20.007 7.18833 20.182 3.89137 18.2583 1.74976C16.4932 -0.214382 13.5393 -0.5481 11.3821 0.97298C9.02993 -0.688174 5.77694 -0.126712 4.11761 2.22707C2.59322 4.38696 2.92509 7.34561 4.88892 9.11349C2.44917 10.4009 0.926615 12.9388 0.937559 15.6994V17.9385C0.937559 18.3505 1.27125 18.6846 1.68333 18.6846H21.0737C21.4857 18.6846 21.8194 18.3505 21.8194 17.9385V15.6994C21.8304 12.9388 20.306 10.4009 17.8662 9.1136ZM14.3616 1.52001C16.4184 1.51788 18.0869 3.18418 18.0887 5.24212C18.0905 6.70979 17.2317 8.04173 15.8933 8.64407C15.8368 8.67016 15.7784 8.69412 15.7201 8.7187C15.5359 8.79306 15.3463 8.85213 15.153 8.89564C15.1165 8.90391 15.0782 8.90831 15.0399 8.91584C14.8248 8.95722 14.6041 8.97955 14.3835 8.98217C14.285 8.98217 14.1847 8.97478 14.0863 8.96587C14.048 8.96587 14.0115 8.96587 13.9732 8.95834C13.5502 8.90845 13.1381 8.78679 12.7552 8.59869C12.7406 8.59191 12.7242 8.59266 12.7096 8.58676C12.6348 8.5509 12.5601 8.51955 12.4944 8.47916C12.4999 8.47177 12.5035 8.46361 12.5108 8.45608C12.8518 8.01641 13.1217 7.5248 13.3095 7.0001L13.3314 6.9374C13.4171 6.68671 13.4827 6.42999 13.5301 6.1694C13.5356 6.13141 13.5411 6.09478 13.5466 6.05377C13.5903 5.78841 13.614 5.52029 13.6158 5.25141C13.6122 4.98316 13.5903 4.71553 13.5466 4.45067C13.5411 4.41193 13.5356 4.37605 13.5301 4.33504C13.4827 4.07445 13.4171 3.81773 13.3314 3.56704L13.3095 3.50434C13.1217 2.97964 12.8518 2.48803 12.5108 2.04836C12.5035 2.04084 12.4999 2.03268 12.4944 2.02528C13.0615 1.69445 13.7052 1.52014 14.3616 1.52001ZM4.66646 5.25154C4.66099 3.1961 6.32213 1.5254 8.3753 1.52027C9.33809 1.51777 10.2644 1.88897 10.9591 2.55588C11.0029 2.59777 11.0448 2.63952 11.0868 2.6828C11.2144 2.81711 11.3329 2.96046 11.4405 3.11182C11.4733 3.15809 11.5025 3.20739 11.5335 3.25517C11.6374 3.41568 11.7304 3.58412 11.807 3.75893C11.8271 3.80143 11.8398 3.84471 11.8562 3.88721C11.9346 4.08059 11.9966 4.28037 12.0422 4.48429C12.0477 4.50662 12.0477 4.52906 12.0532 4.55214C12.148 5.01552 12.148 5.49332 12.0532 5.95671C12.0477 5.97978 12.0477 6.00222 12.0422 6.02455C11.9966 6.22847 11.9346 6.42823 11.8562 6.62161C11.8398 6.66414 11.8271 6.70739 11.807 6.74992C11.7286 6.92449 11.6374 7.09265 11.5335 7.25292C11.5025 7.30071 11.4733 7.34999 11.4405 7.39625C11.3329 7.54764 11.2144 7.6911 11.0868 7.82541C11.0448 7.86855 11.0029 7.91044 10.9591 7.95219C10.6583 8.24013 10.31 8.47527 9.92887 8.6477C9.8687 8.67531 9.80853 8.70077 9.74652 8.72233C9.56602 8.7938 9.38184 8.85125 9.19221 8.89401C9.14662 8.90442 9.09739 8.91045 9.04999 8.91859C8.84757 8.95634 8.64153 8.97704 8.43549 8.98054H8.35344C8.14737 8.97715 7.94316 8.95634 7.74077 8.91859C7.69334 8.91045 7.64412 8.90442 7.59672 8.89401C7.40889 8.85125 7.22292 8.7938 7.04422 8.72233C6.98222 8.69775 6.92023 8.67241 6.86004 8.6477C5.5253 8.04488 4.66829 6.71643 4.66646 5.25154ZM14.3616 17.192H2.42913V15.6995C2.41819 13.1707 4.01004 10.9128 6.39509 10.0755C7.67513 10.6088 9.11563 10.6088 10.3957 10.0755C10.6437 10.1665 10.8862 10.274 11.1214 10.3972C11.2764 10.477 11.4204 10.5681 11.5681 10.6599C11.6666 10.7203 11.7651 10.7793 11.8581 10.8457C12.0021 10.948 12.137 11.0592 12.2701 11.1733C12.3558 11.2479 12.4416 11.3225 12.5218 11.3972C12.6458 11.5137 12.7607 11.6367 12.8719 11.7629C12.9521 11.8539 13.0287 11.9464 13.1034 12.042C13.2001 12.1674 13.2931 12.2958 13.3806 12.4278C13.4554 12.5398 13.521 12.6561 13.5867 12.7726C13.6614 12.9009 13.7307 13.0294 13.7927 13.1629C13.8547 13.2966 13.9112 13.4428 13.9641 13.5854C14.0115 13.7092 14.0608 13.8323 14.1009 13.9585C14.1519 14.1316 14.1884 14.3108 14.2249 14.4898C14.2467 14.5958 14.2759 14.6995 14.2923 14.8069C14.3379 15.1025 14.3598 15.4008 14.3616 15.6995V17.192ZM20.3279 17.192H15.8532V15.6995C15.8532 15.4659 15.8386 15.2347 15.8185 15.0055C15.8131 14.9383 15.8021 14.872 15.7948 14.8048C15.7748 14.6398 15.7511 14.4764 15.7201 14.3144C15.7073 14.2453 15.6927 14.1758 15.6781 14.1062C15.6417 13.9401 15.5997 13.7753 15.5523 13.6121C15.5377 13.5585 15.5232 13.5039 15.5067 13.451C15.297 12.7829 14.9944 12.148 14.6078 11.5651L14.5786 11.5226C14.451 11.3321 14.3142 11.1477 14.1683 10.9696L14.1629 10.9629C14.0133 10.7778 13.8511 10.5979 13.6815 10.4278C13.6906 10.4278 13.7016 10.4278 13.7125 10.4278C13.9222 10.4555 14.1355 10.4704 14.347 10.4725H14.3872C14.5841 10.4708 14.781 10.4581 14.9761 10.4345C15.0363 10.427 15.0965 10.4158 15.1584 10.4062C15.3171 10.3817 15.4739 10.3501 15.6289 10.3114C15.6727 10.3001 15.7164 10.2897 15.762 10.277C15.9644 10.2218 16.1632 10.154 16.3583 10.074C18.7451 10.9104 20.3388 13.1693 20.3279 15.6997V17.192Z" fill="white"/>
</svg>
