<svg width="22" height="19" viewBox="0 0 22 19" fill="none" xmlns="http://www.w3.org/2000/svg">
<path fill-rule="evenodd" clip-rule="evenodd" d="M17.8671 9.11353C20.006 7.18827 20.181 3.89142 18.2573 1.7498C16.4922 -0.214444 13.5401 -0.54803 11.3811 0.973028C9.02893 -0.688236 5.77777 -0.126664 4.11663 2.22712C2.59407 4.38703 2.92592 7.34566 4.88977 9.11353C2.45002 10.4008 0.925638 12.9389 0.936582 15.6995V17.9384C0.936582 18.3506 1.27208 18.6847 1.68236 18.6847H21.0727C21.4848 18.6847 21.8184 18.3506 21.8184 17.9384V15.6995C21.8294 12.9389 20.3068 10.4008 17.8671 9.11353ZM14.3606 1.52006C16.4174 1.51781 18.0859 3.18423 18.0895 5.24206C18.0914 6.70984 17.2307 8.04167 15.8941 8.64412C15.8358 8.67021 15.7793 8.69404 15.7209 8.71874C15.5367 8.7931 15.3471 8.85217 15.1538 8.89569C15.1155 8.90385 15.0791 8.90823 15.0408 8.91575C14.8238 8.95727 14.605 8.97947 14.3843 8.98224C14.2859 8.98224 14.1856 8.97471 14.0853 8.9658C14.0488 8.9658 14.0105 8.9658 13.9741 8.95828C13.551 8.90836 13.1371 8.78683 12.7542 8.5986C12.7396 8.59183 12.725 8.59271 12.7104 8.5867C12.6357 8.55082 12.5609 8.5196 12.4953 8.47921C12.5007 8.47168 12.5044 8.46354 12.5099 8.45602C12.8527 8.01633 13.1225 7.52487 13.3085 7.00002L13.3322 6.93745C13.4161 6.68676 13.4836 6.43004 13.5291 6.16945C13.5364 6.13146 13.5419 6.09483 13.5474 6.05369C13.5911 5.78845 13.613 5.52034 13.6148 5.25146C13.613 4.98321 13.5911 4.71547 13.5474 4.45072C13.5419 4.41185 13.5364 4.37599 13.5291 4.33511C13.4836 4.07439 13.4161 3.8178 13.3322 3.56711L13.3085 3.50439C13.1225 2.97956 12.8527 2.4881 12.5099 2.04841C12.5044 2.04089 12.5007 2.03272 12.4953 2.0252C13.0605 1.69452 13.706 1.52006 14.3606 1.52006ZM4.66549 5.25159C4.66001 3.19602 6.32115 1.52545 8.37615 1.52019C9.33891 1.51768 10.2652 1.88902 10.9599 2.55593C11.0037 2.59771 11.0456 2.63946 11.0876 2.68271C11.2152 2.81705 11.3337 2.96051 11.4413 3.11187C11.4741 3.15816 11.5033 3.20744 11.5343 3.25509C11.6383 3.41573 11.7294 3.58416 11.8078 3.75898C11.8261 3.8015 11.8406 3.84475 11.8571 3.88728C11.9355 4.08053 11.9975 4.28031 12.0412 4.48434C12.0467 4.50667 12.0485 4.52911 12.0522 4.55219C12.147 5.01557 12.147 5.49326 12.0522 5.95662C12.0485 5.97983 12.0467 6.00216 12.0412 6.0246C11.9975 6.22852 11.9355 6.42828 11.8571 6.62166C11.8406 6.66419 11.8261 6.70746 11.8078 6.74996C11.7294 6.92453 11.6383 7.0927 11.5343 7.25297C11.5033 7.30076 11.4741 7.34993 11.4413 7.39632C11.3337 7.54768 11.2152 7.69104 11.0876 7.82535C11.0456 7.8686 11.0037 7.91035 10.9599 7.95224C10.6573 8.24018 10.309 8.47534 9.92969 8.64777C9.86953 8.67536 9.80753 8.70068 9.74554 8.72237C9.56684 8.79374 9.38086 8.85118 9.19304 8.89393C9.14564 8.90447 9.09821 8.9105 9.04899 8.91864C8.8466 8.95639 8.64236 8.97709 8.43632 8.98059H8.35426C8.14822 8.97709 7.94218 8.95639 7.73977 8.91864C7.69237 8.9105 7.64312 8.90447 7.59754 8.89393C7.40792 8.85118 7.22374 8.79374 7.04321 8.72237C6.98122 8.6978 6.92105 8.67235 6.86089 8.64777C5.52613 8.04493 4.66731 6.71648 4.66549 5.25159ZM14.3606 17.1921H2.42813V15.6996C2.41719 13.1706 4.01086 10.9128 6.39409 10.0755C7.67413 10.6089 9.11463 10.6089 10.3947 10.0755C10.6445 10.1666 10.887 10.2741 11.1222 10.3972C11.2772 10.477 11.4194 10.5681 11.569 10.6598C11.6656 10.7203 11.7641 10.7793 11.8571 10.8457C12.0011 10.948 12.1379 11.0591 12.271 11.1733C12.3567 11.248 12.4406 11.3226 12.5226 11.3972C12.6448 11.5136 12.7615 11.6367 12.8709 11.7629C12.9511 11.8539 13.0295 11.9465 13.1025 12.0421C13.2009 12.1674 13.2939 12.2958 13.3796 12.4278C13.4544 12.5398 13.5218 12.6562 13.5875 12.7727C13.6622 12.901 13.7297 13.0294 13.7936 13.163C13.8555 13.2965 13.9102 13.4429 13.9649 13.5853C14.0105 13.7092 14.0616 13.8324 14.0999 13.9584C14.1528 14.1316 14.1892 14.3107 14.2257 14.4898C14.2476 14.5958 14.2767 14.6996 14.2932 14.8069C14.3369 15.1024 14.3606 15.4007 14.3606 15.6996V17.1921ZM20.3269 17.1921H15.8522V15.6996C15.8522 15.4659 15.8394 15.2346 15.8175 15.0055C15.8121 14.9384 15.8011 14.8719 15.7938 14.8048C15.7738 14.6399 15.7519 14.4764 15.7191 14.3145C15.7063 14.2452 15.6917 14.1759 15.6771 14.1061C15.6407 13.94 15.6006 13.7753 15.5532 13.6122C15.5367 13.5584 15.5221 13.5039 15.5057 13.451C15.2979 12.783 14.9952 12.148 14.6086 11.5651L14.5794 11.5226C14.45 11.332 14.3132 11.1477 14.1674 10.9696L14.1619 10.9628C14.0142 10.7778 13.8519 10.5979 13.6823 10.4278C13.6914 10.4278 13.7024 10.4278 13.7115 10.4278C13.923 10.4555 14.1345 10.4704 14.346 10.4726H14.388C14.5849 10.4708 14.78 10.4582 14.9751 10.4346C15.0371 10.4271 15.0973 10.4158 15.1593 10.4061C15.3161 10.3818 15.4729 10.3502 15.6279 10.3113C15.6717 10.3001 15.7172 10.2897 15.761 10.2771C15.9652 10.2218 16.164 10.154 16.3591 10.074C18.7442 10.9104 20.3378 13.1694 20.3269 15.6996V17.1921Z" fill="#3E2D8C"/>
</svg>
