<svg width="21" height="21" viewBox="0 0 21 21" fill="none" xmlns="http://www.w3.org/2000/svg">
<path d="M3.85961 5.78795H16.7221C17.4044 5.78795 18.0587 6.05898 18.5411 6.54142C19.0236 7.02385 19.2946 7.67818 19.2946 8.36045V12.2192C19.2946 12.9015 19.0236 13.5558 18.5411 14.0382C18.0587 14.5207 17.4044 14.7917 16.7221 14.7917H3.85961C3.17734 14.7917 2.52301 14.5207 2.04058 14.0382C1.55814 13.5558 1.28711 12.9015 1.28711 12.2192V8.36045C1.28711 7.67818 1.55814 7.02385 2.04058 6.54142C2.52301 6.05898 3.17734 5.78795 3.85961 5.78795ZM3.85961 7.0742C3.51847 7.0742 3.19131 7.20971 2.95009 7.45093C2.70887 7.69215 2.57336 8.01931 2.57336 8.36045V12.2192C2.57336 12.5603 2.70887 12.8875 2.95009 13.1287C3.19131 13.3699 3.51847 13.5054 3.85961 13.5054H16.7221C17.0632 13.5054 17.3904 13.3699 17.6316 13.1287C17.8728 12.8875 18.0084 12.5603 18.0084 12.2192V8.36045C18.0084 8.01931 17.8728 7.69215 17.6316 7.45093C17.3904 7.20971 17.0632 7.0742 16.7221 7.0742H3.85961ZM1.28711 2.57232C1.28711 2.40176 1.35487 2.23818 1.47548 2.11757C1.59609 1.99696 1.75967 1.9292 1.93023 1.9292H18.6515C18.8221 1.9292 18.9856 1.99696 19.1062 2.11757C19.2269 2.23818 19.2946 2.40176 19.2946 2.57232C19.2946 2.74289 19.2269 2.90647 19.1062 3.02708C18.9856 3.14769 18.8221 3.21545 18.6515 3.21545H1.93023C1.75967 3.21545 1.59609 3.14769 1.47548 3.02708C1.35487 2.90647 1.28711 2.74289 1.28711 2.57232ZM1.28711 18.0073C1.28711 17.8368 1.35487 17.6732 1.47548 17.5526C1.59609 17.432 1.75967 17.3642 1.93023 17.3642H18.6515C18.8221 17.3642 18.9856 17.432 19.1062 17.5526C19.2269 17.6732 19.2946 17.8368 19.2946 18.0073C19.2946 18.1779 19.2269 18.3415 19.1062 18.4621C18.9856 18.5827 18.8221 18.6504 18.6515 18.6504H1.93023C1.75967 18.6504 1.59609 18.5827 1.47548 18.4621C1.35487 18.3415 1.28711 18.1779 1.28711 18.0073Z" fill="#2E363B" stroke="#2E363B"/>
</svg>
