<svg width="20" height="20" viewBox="0 0 20 20" fill="none" xmlns="http://www.w3.org/2000/svg">
<path d="M11.5006 10.15L17.8006 3.8C18.2006 3.4 18.2006 2.7 17.8006 2.3C17.4006 1.9 16.7006 1.9 16.3006 2.3L10.0006 8.65L3.65059 2.3C3.25059 1.9 2.55059 1.9 2.15059 2.3C1.75059 2.7 1.75059 3.4 2.15059 3.8L8.50059 10.15L2.20059 16.45C1.80059 16.85 1.80059 17.55 2.20059 17.95C2.40059 18.15 2.65059 18.25 2.95059 18.25C3.25059 18.25 3.50059 18.15 3.70059 17.95L10.0006 11.6L16.3506 17.95C16.5506 18.15 16.8006 18.25 17.1006 18.25C17.4006 18.25 17.6506 18.15 17.8506 17.95C18.2506 17.55 18.2506 16.85 17.8506 16.45L11.5006 10.15Z" fill="white"/>
</svg>
