<svg width="30" height="30" viewBox="0 0 30 30" fill="none" xmlns="http://www.w3.org/2000/svg">
<path d="M26.0998 13.05L23.3998 12.375C23.2498 11.925 23.0248 11.4 22.7998 10.95L24.2248 8.625C24.3748 8.325 24.3748 8.025 24.1498 7.8L22.1998 5.85C21.9748 5.625 21.6748 5.625 21.3748 5.775L19.0498 7.2C18.5998 6.975 18.1498 6.75 17.6248 6.6L16.9498 3.9C16.8748 3.6 16.5748 3.375 16.2748 3.375H13.5748C13.2748 3.375 12.9748 3.6 12.8998 3.9L12.2248 6.6C11.7748 6.75 11.2498 6.975 10.7998 7.2L8.47481 5.775C8.17481 5.625 7.8748 5.625 7.6498 5.85L5.6998 7.8C5.4748 8.025 5.4748 8.325 5.6248 8.625L7.0498 10.95C6.8248 11.4 6.59981 11.85 6.44981 12.375L3.8248 13.05C3.5248 13.125 3.2998 13.425 3.2998 13.725V16.425C3.2998 16.725 3.5248 17.025 3.8248 17.1L6.44981 17.775C6.59981 18.225 6.8248 18.75 7.0498 19.2L5.6248 21.525C5.4748 21.825 5.4748 22.125 5.6998 22.35L7.6498 24.3C7.8748 24.525 8.17481 24.525 8.47481 24.375L10.7998 22.95C11.2498 23.175 11.6998 23.4 12.2248 23.55L12.8998 26.175C12.9748 26.475 13.2748 26.7 13.5748 26.7H16.2748C16.5748 26.7 16.8748 26.475 16.9498 26.175L17.6248 23.55C18.0748 23.4 18.5998 23.175 19.0498 22.95L21.3748 24.375C21.6748 24.525 21.9748 24.525 22.1998 24.3L24.1498 22.35C24.3748 22.125 24.3748 21.825 24.2248 21.525L22.7998 19.2C23.0248 18.75 23.2498 18.3 23.3998 17.775L26.0998 17.1C26.3998 17.025 26.6248 16.725 26.6248 16.425V13.725C26.6248 13.35 26.3998 13.125 26.0998 13.05ZM14.9248 18.45C13.0498 18.45 11.5498 16.95 11.5498 15.075C11.5498 13.2 13.0498 11.7 14.9248 11.7C16.7998 11.7 18.2998 13.2 18.2998 15.075C18.2998 16.95 16.7998 18.45 14.9248 18.45Z" fill="black"/>
</svg>
