<svg width="25" height="25" viewBox="0 0 25 25" fill="none" xmlns="http://www.w3.org/2000/svg">
<path d="M8.33326 11.4586C8.33326 11.1823 8.44301 10.9173 8.63836 10.722C8.83371 10.5266 9.09866 10.4169 9.37493 10.4169H15.6249C15.9012 10.4169 16.1662 10.5266 16.3615 10.722C16.5569 10.9173 16.6666 11.1823 16.6666 11.4586C16.6666 11.7348 16.5569 11.9998 16.3615 12.1951C16.1662 12.3905 15.9012 12.5002 15.6249 12.5002H9.37493C9.09866 12.5002 8.83371 12.3905 8.63836 12.1951C8.44301 11.9998 8.33326 11.7348 8.33326 11.4586ZM9.37493 14.5836C9.09866 14.5836 8.83371 14.6933 8.63836 14.8887C8.44301 15.084 8.33326 15.349 8.33326 15.6252C8.33326 15.9015 8.44301 16.1664 8.63836 16.3618C8.83371 16.5571 9.09866 16.6669 9.37493 16.6669H13.5416C13.8179 16.6669 14.0828 16.5571 14.2782 16.3618C14.4735 16.1664 14.5833 15.9015 14.5833 15.6252C14.5833 15.349 14.4735 15.084 14.2782 14.8887C14.0828 14.6933 13.8179 14.5836 13.5416 14.5836H9.37493ZM2.08326 12.5002C2.08379 10.2165 2.83481 7.99618 4.22075 6.18105C5.60669 4.36592 7.55073 3.05656 9.75368 2.45447C11.9566 1.85238 14.2964 1.99094 16.4129 2.84882C18.5294 3.7067 20.3053 5.23636 21.4673 7.20238C22.6294 9.1684 23.1131 11.4618 22.8441 13.7297C22.5751 15.9975 21.5682 18.1141 19.9785 19.7537C18.3887 21.3933 16.3042 22.465 14.0458 22.8039C11.7873 23.1428 9.48005 22.7302 7.4791 21.6294L3.4291 22.8627C3.24845 22.9178 3.05625 22.9226 2.87304 22.8769C2.68983 22.8311 2.52252 22.7364 2.38899 22.6028C2.25546 22.4693 2.16074 22.302 2.11496 22.1188C2.06918 21.9356 2.07407 21.7434 2.1291 21.5627L3.36243 17.5065C2.52067 15.9723 2.08063 14.2501 2.08326 12.5002V12.5002ZM12.4999 4.16689C11.0206 4.16677 9.56797 4.56042 8.29114 5.30742C7.0143 6.05443 5.95933 7.12785 5.23457 8.41744C4.50981 9.70703 4.1414 11.1663 4.16716 12.6454C4.19293 14.1244 4.61195 15.57 5.38118 16.8336C5.45754 16.9591 5.50648 17.0993 5.52479 17.2451C5.54311 17.3909 5.53037 17.5389 5.48743 17.6794L4.68951 20.3023L7.30826 19.5044C7.44922 19.4615 7.59768 19.4489 7.74385 19.4676C7.89001 19.4863 8.03055 19.5357 8.15618 19.6127C9.25447 20.2833 10.4931 20.6904 11.7751 20.8021C13.057 20.9138 14.3474 20.7271 15.5452 20.2567C16.7429 19.7863 17.8154 19.0449 18.6786 18.0906C19.5419 17.1363 20.1724 15.995 20.5208 14.7562C20.8691 13.5175 20.9259 12.2149 20.6866 10.9505C20.4473 9.68617 19.9184 8.49441 19.1415 7.46864C18.3645 6.44287 17.3606 5.61097 16.2083 5.03813C15.056 4.4653 13.7867 4.16709 12.4999 4.16689V4.16689Z" fill="white"/>
</svg>
