<svg width="25" height="25" viewBox="0 0 25 25" fill="none" xmlns="http://www.w3.org/2000/svg">
<path d="M8.33326 11.4583C8.33326 11.182 8.44301 10.9171 8.63836 10.7217C8.83371 10.5264 9.09866 10.4166 9.37493 10.4166H15.6249C15.9012 10.4166 16.1662 10.5264 16.3615 10.7217C16.5569 10.9171 16.6666 11.182 16.6666 11.4583C16.6666 11.7346 16.5569 11.9995 16.3615 12.1949C16.1662 12.3902 15.9012 12.5 15.6249 12.5H9.37493C9.09866 12.5 8.83371 12.3902 8.63836 12.1949C8.44301 11.9995 8.33326 11.7346 8.33326 11.4583ZM9.37493 14.5833C9.09866 14.5833 8.83371 14.6931 8.63836 14.8884C8.44301 15.0838 8.33326 15.3487 8.33326 15.625C8.33326 15.9012 8.44301 16.1662 8.63836 16.3616C8.83371 16.5569 9.09866 16.6666 9.37493 16.6666H13.5416C13.8179 16.6666 14.0828 16.5569 14.2782 16.3616C14.4735 16.1662 14.5833 15.9012 14.5833 15.625C14.5833 15.3487 14.4735 15.0838 14.2782 14.8884C14.0828 14.6931 13.8179 14.5833 13.5416 14.5833H9.37493ZM2.08326 12.5C2.08379 10.2162 2.83481 7.99594 4.22075 6.18081C5.60669 4.36568 7.55073 3.05631 9.75368 2.45423C11.9566 1.85214 14.2964 1.9907 16.4129 2.84858C18.5294 3.70646 20.3053 5.23612 21.4673 7.20213C22.6294 9.16815 23.1131 11.4616 22.8441 13.7294C22.5751 15.9973 21.5682 18.1139 19.9785 19.7535C18.3887 21.3931 16.3042 22.4648 14.0458 22.8037C11.7873 23.1426 9.48005 22.7299 7.4791 21.6291L3.4291 22.8625C3.24845 22.9175 3.05625 22.9224 2.87304 22.8766C2.68983 22.8308 2.52252 22.7361 2.38899 22.6026C2.25546 22.4691 2.16074 22.3017 2.11496 22.1185C2.06918 21.9353 2.07407 21.7431 2.1291 21.5625L3.36243 17.5062C2.52067 15.9721 2.08063 14.2499 2.08326 12.5V12.5ZM12.4999 4.16665C11.0206 4.16652 9.56797 4.56018 8.29114 5.30718C7.0143 6.05418 5.95933 7.1276 5.23457 8.41719C4.50981 9.70678 4.1414 11.1661 4.16716 12.6451C4.19293 14.1242 4.61195 15.5698 5.38118 16.8333C5.45754 16.9588 5.50648 17.0991 5.52479 17.2449C5.54311 17.3906 5.53037 17.5386 5.48743 17.6791L4.68951 20.3021L7.30826 19.5041C7.44922 19.4612 7.59768 19.4487 7.74385 19.4673C7.89001 19.486 8.03055 19.5355 8.15618 19.6125C9.25447 20.283 10.4931 20.6901 11.7751 20.8018C13.057 20.9136 14.3474 20.7269 15.5452 20.2565C16.7429 19.786 17.8154 19.0446 18.6786 18.0903C19.5419 17.136 20.1724 15.9948 20.5208 14.756C20.8691 13.5173 20.9259 12.2147 20.6866 10.9503C20.4473 9.68593 19.9184 8.49416 19.1415 7.46839C18.3645 6.44262 17.3606 5.61072 16.2083 5.03789C15.056 4.46505 13.7867 4.16685 12.4999 4.16665V4.16665Z" fill="#2E363B"/>
</svg>
