<svg width="9" height="26" viewBox="0 0 9 26" fill="none" xmlns="http://www.w3.org/2000/svg">
<path fill-rule="evenodd" clip-rule="evenodd" d="M4.33346 0.86668C5.76995 0.86668 6.93306 2.03072 6.93306 3.46669C6.93306 4.90256 5.76995 6.06671 4.33346 6.06671C2.89696 6.06671 1.73386 4.90256 1.73386 3.46669C1.73386 2.03072 2.89696 0.86668 4.33346 0.86668Z" fill="white"/>
<path fill-rule="evenodd" clip-rule="evenodd" d="M4.33346 10.3998C5.76995 10.3998 6.93306 11.564 6.93306 12.9998C6.93306 14.4358 5.76995 15.5998 4.33346 15.5998C2.89696 15.5998 1.73386 14.4358 1.73386 12.9998C1.73386 11.564 2.89696 10.3998 4.33346 10.3998Z" fill="white"/>
<path fill-rule="evenodd" clip-rule="evenodd" d="M4.33346 19.9332C5.76995 19.9332 6.93306 21.0972 6.93306 22.5332C6.93306 23.9692 5.76995 25.1332 4.33346 25.1332C2.89696 25.1332 1.73386 23.9692 1.73386 22.5332C1.73386 21.0972 2.89696 19.9332 4.33346 19.9332Z" fill="white"/>
</svg>
