<svg width="30" height="30" viewBox="0 0 30 30" fill="none" xmlns="http://www.w3.org/2000/svg">
<path d="M21.9752 17.7C21.5252 18.15 21.5252 18.9 21.9752 19.35C22.2002 19.575 22.5002 19.725 22.8002 19.725C23.1002 19.725 23.4002 19.575 23.6252 19.35L27.1502 15.825L27.2252 15.75C27.2252 15.75 27.2252 15.75 27.2252 15.675C27.2252 15.675 27.2252 15.675 27.2252 15.6C27.2252 15.6 27.2252 15.6 27.2252 15.525C27.2252 15.525 27.2252 15.525 27.2252 15.45C27.2252 15.45 27.2252 15.45 27.2252 15.375C27.2252 15.375 27.2252 15.375 27.2252 15.3C27.2252 15.3 27.2252 15.3 27.2252 15.225C27.2252 15.225 27.2252 15.225 27.2252 15.15C27.2252 15.15 27.2252 15.15 27.2252 15.075V15V14.925C27.2252 14.925 27.2252 14.925 27.2252 14.85C27.2252 14.775 27.2252 14.775 27.2252 14.7C27.2252 14.625 27.2252 14.625 27.2252 14.55C27.2252 14.55 27.2252 14.55 27.2252 14.475V14.4V14.325C27.2252 14.325 27.2252 14.325 27.2252 14.25V14.175C27.2252 14.175 27.2252 14.175 27.2252 14.1C27.2252 14.1 27.2252 14.1 27.2252 14.025C27.2252 14.025 27.2252 14.025 27.2252 13.95C27.2252 13.95 27.2252 13.95 27.2252 13.875C27.2252 13.875 27.2252 13.875 27.2252 13.8C27.2252 13.8 27.2252 13.8 27.1502 13.725C27.1502 13.725 27.1502 13.725 27.1502 13.65L27.0752 13.575L23.5502 10.05C23.1002 9.60002 22.3502 9.60002 21.9002 10.05C21.4502 10.5 21.4502 11.25 21.9002 11.7L23.4002 13.2H9.90019C9.22519 13.2 8.7002 13.725 8.7002 14.4C8.7002 15.075 9.22519 15.6 9.90019 15.6H23.4752L21.9752 17.7Z" fill="black"/>
<path d="M2.5498 5.62505V24.3001C2.5498 24.9751 3.0748 25.5001 3.7498 25.5001H18.5998C19.2748 25.5001 19.7998 24.9751 19.7998 24.3001V19.6501C19.7998 18.9751 19.2748 18.4501 18.5998 18.4501C17.9248 18.4501 17.3998 18.9751 17.3998 19.6501V23.1751H4.8748V6.82505H17.3248V10.35C17.3248 11.025 17.8498 11.55 18.5248 11.55C19.1998 11.55 19.7248 11.025 19.7248 10.35V5.62505C19.7248 4.95005 19.1998 4.42505 18.5248 4.42505H3.6748C3.0748 4.50005 2.5498 5.02505 2.5498 5.62505Z" fill="black"/>
</svg>
