<svg width="30" height="30" viewBox="0 0 30 30" fill="none" xmlns="http://www.w3.org/2000/svg">
<path d="M18.4496 8.77505C17.1746 6.15005 14.4746 4.42505 11.4746 4.42505C7.19964 4.42505 3.67464 7.87505 3.67464 12.15C3.67464 13.275 3.89964 14.4 4.42464 15.45L3.67464 19.125C3.59964 19.575 3.97464 20.025 4.42464 19.875L8.09964 19.125C8.62464 19.35 9.07464 19.575 9.67464 19.65C8.47464 14.1 12.7496 8.85005 18.4496 8.77505Z" fill="white"/>
<path d="M25.5748 21.15C25.7248 20.85 25.7998 20.625 25.8748 20.325C27.5248 15.45 24.0748 10.35 18.8998 10.125C14.4748 9.9 10.7998 13.5 10.7998 17.85C10.7998 22.125 14.2498 25.575 18.5248 25.575C19.6498 25.575 20.7748 25.35 21.8248 24.825C25.8748 25.65 25.5748 25.575 25.6498 25.575C26.0998 25.575 26.3998 25.2 26.3248 24.75L25.5748 21.15Z" fill="white"/>
</svg>
