<svg width="8" height="14" viewBox="0 0 8 14" fill="none" xmlns="http://www.w3.org/2000/svg">
<path fill-rule="evenodd" clip-rule="evenodd" d="M5.56568 6.99682L1.0688 11.5025C0.9449 11.6265 0.87692 11.7924 0.87692 11.9675C0.87692 12.1444 0.9449 12.3103 1.0688 12.4343L1.46283 12.8282C1.58648 12.9521 1.75165 13.0214 1.92784 13.0214C2.10404 13.0214 2.26908 12.9521 2.39286 12.8282L7.74729 7.46544C7.87144 7.33963 7.93954 7.17369 7.93903 6.99863C7.93954 6.81994 7.87156 6.65401 7.74729 6.53002L2.39775 1.17095C2.27397 1.04696 2.10881 0.979486 1.93274 0.979486C1.75666 0.979486 1.5915 1.04696 1.46772 1.17095L1.07369 1.56663C0.81748 1.82373 0.81748 2.24131 1.07369 2.49841L5.56568 6.99682Z" fill="#2E363B"/>
</svg>
