<svg width="21" height="21" viewBox="0 0 21 21" fill="none" xmlns="http://www.w3.org/2000/svg">
<g clip-path="url(#clip0_8294_67529)">
<path d="M10.29 0C4.61548 0 0 4.61548 0 10.29C0 15.9645 4.61548 20.58 10.29 20.58C15.9645 20.58 20.58 15.9645 20.58 10.29C20.58 4.61548 15.9645 0 10.29 0ZM10.8057 1.45665C13.4437 1.6075 15.7665 2.90816 17.2856 4.86635C16.8847 4.85606 16.4856 4.85359 16.0882 4.85956C15.3984 4.87099 14.7092 4.90751 14.022 4.96904C13.8956 4.70821 13.6984 4.48822 13.4528 4.33427C13.2072 4.18031 12.9233 4.09861 12.6334 4.09851C12.5616 4.09852 12.4899 4.10354 12.4188 4.11353C11.9355 3.19602 11.3968 2.30876 10.8057 1.45665V1.45665ZM9.55488 1.47312C10.3034 2.49574 10.9523 3.53379 11.5075 4.58625C11.301 4.80656 11.1636 5.08261 11.1124 5.38023C10.1523 5.5673 9.20237 5.8029 8.26616 6.08612C8.14967 5.92862 8.00425 5.79473 7.83769 5.6916C8.22603 4.30554 8.76934 2.90116 9.46392 1.47991C9.49417 1.47723 9.52463 1.47579 9.55488 1.47312V1.47312ZM8.22953 1.68344C7.64917 2.9522 7.18612 4.21622 6.84161 5.47222C6.63321 5.49723 6.4321 5.56447 6.25057 5.66985C6.06905 5.77523 5.91092 5.91652 5.78586 6.08509C4.8573 5.78894 3.9168 5.53161 2.96681 5.31376C4.20669 3.48945 6.08381 2.19458 8.22953 1.68344V1.68344ZM16.6926 5.88547C17.1232 5.88814 17.5558 5.90193 17.9906 5.92457C18.5104 6.84006 18.8615 7.84147 19.0272 8.88109C17.7821 9.0836 16.57 9.36411 15.3899 9.71767C15.2625 9.55992 15.1053 9.42882 14.9272 9.33185C14.7492 9.23488 14.5537 9.17395 14.3521 9.15254C14.1538 8.36282 13.9121 7.58461 13.6283 6.82145C13.8835 6.6061 14.062 6.31378 14.137 5.98837C14.9806 5.9151 15.832 5.87991 16.6926 5.88547V5.88547ZM2.41445 6.24809C3.46444 6.4792 4.48891 6.74942 5.48354 7.06697C5.48361 7.06902 5.48367 7.07108 5.48375 7.07314C4.1444 7.62324 2.82749 8.27193 1.53259 9.01527C1.6711 8.05037 1.96912 7.11522 2.41445 6.24809V6.24809ZM11.2832 6.38886C11.4166 6.63007 11.6122 6.83115 11.8496 6.97121C12.087 7.11126 12.3576 7.18519 12.6332 7.1853C12.6471 7.18515 12.661 7.1848 12.6748 7.18427C12.9439 7.90473 13.1731 8.63945 13.3614 9.3851C13.2841 9.4341 13.2113 9.48989 13.1438 9.55179C11.6926 8.60592 10.1604 7.79031 8.5654 7.11451C8.56666 7.09696 8.56762 7.0794 8.56828 7.06182C9.46145 6.79208 10.3676 6.56747 11.2834 6.38886H11.2832ZM5.86653 8.02311C5.98002 8.15218 6.11427 8.26138 6.26373 8.34622C6.01018 10.3303 6.06637 12.2867 6.45327 14.2004C5.54147 14.8672 4.66301 15.5784 3.82109 16.3315C2.34447 14.7511 1.4406 12.6291 1.4406 10.29C1.4406 10.2803 1.44142 10.2711 1.44142 10.2614C2.8917 9.39004 4.36584 8.64175 5.86653 8.02332V8.02311ZM8.15524 8.05584C9.72745 8.72023 11.2361 9.52595 12.6627 10.4631C12.6516 10.5373 12.646 10.6123 12.6458 10.6874C12.6458 10.6906 12.6458 10.6938 12.6458 10.6971C10.8018 11.4637 9.04141 12.4217 7.3625 13.5606C7.07232 11.9146 7.04145 10.2369 7.25815 8.53C7.60207 8.47756 7.91819 8.31047 8.15524 8.05584V8.05584ZM19.1297 9.9068C19.1351 10.0338 19.1394 10.1614 19.1394 10.2898C19.1407 11.5432 18.8753 12.7825 18.3609 13.9255C17.4947 13.0031 16.5687 12.1388 15.5889 11.3381C15.6833 11.1352 15.7325 10.9143 15.733 10.6905C16.8477 10.3583 17.9822 10.0966 19.1297 9.9068V9.9068ZM12.9932 11.6621C13.2153 11.9347 13.5239 12.1234 13.8678 12.1967C14.093 14.236 14.0242 16.3263 13.676 18.4695C12.6023 18.913 11.4517 19.1407 10.29 19.1394C9.98603 19.1394 9.68557 19.1242 9.38962 19.0943C8.56396 17.6406 7.96775 16.1576 7.5932 14.6476C9.3071 13.4492 11.1048 12.4507 12.9932 11.6623V11.6621ZM14.8826 12.086C15.9402 12.9478 16.9333 13.8858 17.854 14.8925C17.0979 16.1331 16.0486 17.1688 14.7983 17.9087C15.0627 15.9326 15.0946 13.9897 14.8826 12.0864V12.086ZM6.71031 15.2872C7.03754 16.5 7.49935 17.6945 8.10008 18.8667C6.7993 18.536 5.59126 17.9125 4.56814 17.0437C5.26725 16.4222 5.98096 15.8357 6.71011 15.2872H6.71031Z" fill="white"/>
</g>
<defs>
<clipPath id="clip0_8294_67529">
<rect width="20.58" height="20.58" fill="white"/>
</clipPath>
</defs>
</svg>
