<svg width="23" height="16" viewBox="0 0 23 16" fill="none" xmlns="http://www.w3.org/2000/svg">
<path fill-rule="evenodd" clip-rule="evenodd" d="M20.9448 15.5312C20.6549 15.5312 20.365 15.438 20.1243 15.2573L16.8129 12.7702C16.6014 14.3277 15.2612 15.5312 13.6493 15.5312H3.61863C1.859 15.5312 0.4258 14.0978 0.4258 12.3356V3.66204C0.4258 2.39842 1.26093 0.92312 3.61863 0.92312H13.6493C15.3487 0.92312 16.7436 2.25971 16.8366 3.9378L20.0695 1.24077C20.4743 0.899414 21.0433 0.826298 21.5247 1.05267C22.006 1.27914 22.3124 1.76122 22.3124 2.29258V14.1616C22.3124 14.6803 22.0188 15.1549 21.5557 15.3869C21.3624 15.4836 21.1527 15.5312 20.9448 15.5312Z" fill="white"/>
</svg>
