<svg width="20" height="13" viewBox="0 0 20 13" fill="none" xmlns="http://www.w3.org/2000/svg">
<path fill-rule="evenodd" clip-rule="evenodd" d="M18.3114 12.776C18.0563 12.776 17.8012 12.6983 17.5893 12.5477L14.6754 10.4751C14.4892 11.7731 13.3098 12.776 11.8914 12.776H3.06439C1.51592 12.776 0.254704 11.5815 0.254704 10.113V2.88503C0.254704 1.83201 0.989614 0.6026 3.06439 0.6026H11.8914C13.3869 0.6026 14.6144 1.71642 14.6962 3.11483L17.5412 0.867305C17.8974 0.582845 18.3981 0.521915 18.8217 0.710555C19.2453 0.899285 19.5149 1.30101 19.5149 1.74381V11.6347C19.5149 12.0669 19.2565 12.4624 18.849 12.6558C18.6789 12.7364 18.4944 12.776 18.3114 12.776Z" fill="white"/>
</svg>
