<svg width="20" height="16" viewBox="0 0 20 16" fill="none" xmlns="http://www.w3.org/2000/svg">
<path fill-rule="evenodd" clip-rule="evenodd" d="M18.873 6.49088C18.9828 6.57273 19.1146 6.61486 19.2457 6.61486C19.3399 6.61486 19.4357 6.5934 19.5234 6.54957C19.733 6.44456 19.8665 6.22961 19.8665 5.99476V0.620354C19.8665 0.379755 19.7273 0.161421 19.5094 0.058938C19.2907 -0.0435804 19.0319 -0.0105755 18.8484 0.144061L17.3807 1.36535C17.3389 0.605428 16.7066 0.000198444 15.935 0.000198444H11.3818C10.3129 0.000198444 9.93368 0.668302 9.93368 1.24046V5.1679C9.93368 5.96585 10.5832 6.61486 11.3818 6.61486H15.935C16.6664 6.61486 17.2742 6.07002 17.37 5.36474L18.873 6.49088ZM8.7747 5.78807C8.71655 5.58961 8.69197 5.38287 8.69197 5.1679V4.13438H3.31151C2.4007 4.13438 1.65534 4.87853 1.65534 5.78807V14.0564H0.828082C0.371048 14.0564 0 14.426 0 14.8832C0 15.3405 0.371048 15.7101 0.828082 15.7101H19.0393C19.4955 15.7101 19.8665 15.3405 19.8665 14.8832C19.8665 14.426 19.4955 14.0564 19.0393 14.0564H18.2112V7.53264C18.1864 7.52655 18.1665 7.5114 18.1478 7.49723C18.1413 7.49224 18.1349 7.48737 18.1285 7.48306L17.7148 7.17712C17.3913 7.46656 16.9941 7.68151 16.5559 7.78072V14.0564H12.4171V13.8497C12.4171 12.5929 11.3982 11.5759 10.1401 11.5759H8.07111C6.81304 11.5759 5.79411 12.5929 5.79411 13.8497V14.0564H3.31151V5.78807H8.7747ZM10.7609 9.09534C10.7609 8.18209 10.0197 7.44172 9.1056 7.44172C8.19153 7.44172 7.45026 8.18209 7.45026 9.09534C7.45026 10.0087 8.19153 10.749 9.1056 10.749C10.0197 10.749 10.7609 10.0087 10.7609 9.09534Z" fill="#444F58"/>
</svg>
