<svg width="51" height="51" viewBox="0 0 51 51" fill="none" xmlns="http://www.w3.org/2000/svg">
<g clip-path="url(#clip0_9033_76070)">
<path d="M0.570312 25.0193C0.570312 11.2112 11.7623 0.0192871 25.5703 0.0192871C39.3784 0.0192871 50.5703 11.2112 50.5703 25.0193C50.5703 38.8273 39.3784 50.0193 25.5703 50.0193C11.7623 50.0193 0.570312 38.8273 0.570312 25.0193ZM2.896 25.0193C2.896 37.5221 13.0675 47.6936 25.5703 47.6936C38.0731 47.6936 48.2446 37.5221 48.2446 25.0193C48.2446 12.5165 38.0731 2.34497 25.5703 2.34497C13.0675 2.34497 2.896 12.5165 2.896 25.0193ZM14.206 39.913C12.5479 39.8819 11.4052 38.7722 10.9701 37.8869C10.5351 37.0017 10.5258 35.8517 10.9422 34.977C11.3585 34.1024 19.3641 17.9454 19.6288 17.3897C19.8935 16.8341 19.8649 16.8646 19.8689 16.2454C19.8728 15.6262 19.8689 9.06769 19.8689 9.06769C19.8689 9.06769 19.2318 9.06769 18.849 9.06769C17.9237 9.06965 17.513 8.39618 17.5082 7.85505C17.5034 7.32567 17.8703 6.61274 18.802 6.6105C19.5933 6.60854 20.9844 6.6105 22.3274 6.6105L22.3171 10.3732H25.1459V11.6043H22.3177V12.8648H25.1464V14.0898H22.3177V17.2496C22.3177 17.5685 22.2734 17.5769 22.1159 17.9107C21.9584 18.2445 13.5118 35.3385 13.2463 35.9051C12.9808 36.4717 13.5163 37.432 14.3118 37.4468C15.1072 37.4616 35.8258 37.4423 36.8356 37.4423C37.8454 37.4423 38.1226 36.2392 37.9245 35.8497C37.7264 35.4602 29.0958 18.0403 28.9458 17.7101C28.7958 17.3799 28.8143 17.4062 28.8219 16.8623C28.8294 16.3184 28.8219 6.61022 28.8219 6.61022C28.8219 6.61022 31.1945 6.61022 32.4313 6.61022C33.1587 6.61022 33.6489 7.18717 33.6489 7.81951C33.6489 8.41856 33.1808 9.02264 32.4313 9.02264C32.1011 9.02992 31.2732 9.02264 31.2732 9.02264C31.2732 9.02264 31.2732 16.1922 31.2732 16.5962C31.2732 17.0003 31.3884 17.0876 31.6509 17.6242C31.9133 18.1609 39.532 33.5092 40.0499 34.5484C40.5678 35.5876 40.7494 37.0811 39.8227 38.3229C38.896 39.5646 37.8017 39.8618 36.9304 39.8688C36.2214 39.8749 22.7119 39.9205 16.8149 39.9205C15.4662 39.9205 14.5169 39.918 14.2083 39.9124L14.206 39.913ZM24.6719 33.7932C24.6719 33.626 24.7215 33.4625 24.8144 33.3234C24.9073 33.1844 25.0393 33.076 25.1939 33.012C25.3484 32.948 25.5184 32.9313 25.6824 32.9639C25.8464 32.9965 25.9971 33.0771 26.1153 33.1953C26.2336 33.3136 26.3141 33.4642 26.3467 33.6282C26.3794 33.7923 26.3626 33.9623 26.2986 34.1168C26.2346 34.2713 26.1262 34.4034 25.9872 34.4963C25.8481 34.5892 25.6847 34.6388 25.5174 34.6388C25.4064 34.6388 25.2964 34.6169 25.1938 34.5744C25.0912 34.5319 24.998 34.4696 24.9194 34.391C24.8409 34.3125 24.7786 34.2192 24.7362 34.1166C24.6937 34.014 24.6718 33.904 24.6719 33.7929V33.7932ZM27.1873 33.6158C27.1459 33.5747 27.1202 33.5205 27.1143 33.4625C27.1085 33.4045 27.123 33.3462 27.1553 33.2977C27.1876 33.2492 27.2358 33.2134 27.2916 33.1964C27.3474 33.1794 27.4073 33.1823 27.4612 33.2046C27.5151 33.2269 27.5595 33.2672 27.587 33.3187C27.6145 33.3701 27.6232 33.4295 27.6118 33.4866C27.6004 33.5438 27.5695 33.5953 27.5244 33.6322C27.4792 33.6691 27.4227 33.6892 27.3644 33.6891C27.298 33.689 27.2343 33.6626 27.1873 33.6158V33.6158ZM23.5057 33.6158C23.4643 33.5747 23.4386 33.5205 23.4327 33.4625C23.4269 33.4045 23.4414 33.3462 23.4737 33.2977C23.506 33.2492 23.5542 33.2134 23.61 33.1964C23.6658 33.1794 23.7257 33.1823 23.7796 33.2046C23.8335 33.2269 23.8779 33.2672 23.9054 33.3187C23.9329 33.3701 23.9417 33.4295 23.9302 33.4866C23.9188 33.5438 23.8879 33.5953 23.8428 33.6322C23.7976 33.6691 23.7411 33.6892 23.6828 33.6891C23.6164 33.689 23.5527 33.6626 23.5057 33.6158V33.6158ZM28.2967 32.9516C27.9769 32.6318 27.9853 32.1046 28.3154 31.7745C28.6456 31.4443 29.1727 31.4359 29.4928 31.7557C29.8129 32.0755 29.8042 32.6027 29.4741 32.9331C29.3946 33.0128 29.3002 33.0761 29.1962 33.1193C29.0923 33.1625 28.9809 33.1848 28.8683 33.1849C28.7622 33.1855 28.6571 33.165 28.559 33.1247C28.4609 33.0844 28.3717 33.0251 28.2967 32.9502V32.9516ZM21.6137 32.9331C21.2835 32.6029 21.2751 32.0758 21.5949 31.7557C21.9147 31.4356 22.4422 31.444 22.7723 31.7745C23.1025 32.1049 23.1109 32.6318 22.7911 32.9516C22.716 33.0265 22.6269 33.0858 22.5287 33.1261C22.4306 33.1664 22.3255 33.1869 22.2194 33.1863C22.1069 33.1862 21.9955 33.1639 21.8915 33.1207C21.7876 33.0775 21.6932 33.0142 21.6137 32.9345V32.9331ZM25.2844 32.4373C25.2844 32.3875 25.2991 32.3388 25.3268 32.2974C25.3545 32.256 25.3938 32.2237 25.4398 32.2047C25.4858 32.1856 25.5365 32.1806 25.5853 32.1903C25.6342 32.2 25.679 32.224 25.7142 32.2592C25.7495 32.2945 25.7734 32.3393 25.7832 32.3882C25.7929 32.437 25.7879 32.4877 25.7688 32.5337C25.7498 32.5797 25.7175 32.619 25.6761 32.6467C25.6347 32.6744 25.586 32.6891 25.5362 32.6891C25.4694 32.6891 25.4053 32.6626 25.3581 32.6154C25.3109 32.5681 25.2844 32.5041 25.2844 32.4373ZM25.2844 31.7305C25.2844 31.6807 25.2991 31.632 25.3268 31.5906C25.3545 31.5492 25.3938 31.5169 25.4398 31.4979C25.4858 31.4788 25.5365 31.4738 25.5853 31.4836C25.6342 31.4933 25.679 31.5173 25.7142 31.5525C25.7495 31.5877 25.7734 31.6326 25.7832 31.6814C25.7929 31.7303 25.7879 31.7809 25.7688 31.8269C25.7498 31.8729 25.7175 31.9122 25.6761 31.9399C25.6347 31.9676 25.586 31.9824 25.5362 31.9824C25.4694 31.9824 25.4053 31.9558 25.3581 31.9086C25.3109 31.8614 25.2844 31.7973 25.2844 31.7305ZM27.781 31.5946C27.7397 31.5534 27.7139 31.4993 27.7081 31.4413C27.7022 31.3832 27.7167 31.325 27.749 31.2765C27.7813 31.228 27.8294 31.1922 27.8852 31.1752C27.941 31.1582 28.0009 31.161 28.0548 31.1833C28.1087 31.2056 28.1531 31.2458 28.1806 31.2972C28.2082 31.3486 28.217 31.408 28.2056 31.4652C28.1942 31.5224 28.1634 31.5738 28.1183 31.6108C28.0732 31.6477 28.0167 31.6679 27.9584 31.6679C27.8919 31.6678 27.8281 31.6414 27.781 31.5946V31.5946ZM22.9522 31.5946C22.9109 31.5534 22.8851 31.4993 22.8793 31.4413C22.8735 31.3832 22.8879 31.325 22.9202 31.2765C22.9525 31.228 23.0007 31.1922 23.0565 31.1752C23.1122 31.1582 23.1721 31.161 23.226 31.1833C23.2799 31.2056 23.3244 31.2458 23.3519 31.2972C23.3794 31.3486 23.3882 31.408 23.3768 31.4652C23.3655 31.5224 23.3346 31.5738 23.2895 31.6108C23.2444 31.6477 23.1879 31.6679 23.1296 31.6679C23.0631 31.6678 22.9994 31.6414 22.9522 31.5946V31.5946ZM25.2844 31.021C25.2844 30.9712 25.2991 30.9225 25.3268 30.8811C25.3545 30.8397 25.3938 30.8074 25.4398 30.7883C25.4858 30.7693 25.5365 30.7643 25.5853 30.774C25.6342 30.7837 25.679 30.8077 25.7142 30.8429C25.7495 30.8781 25.7734 30.923 25.7832 30.9718C25.7929 31.0207 25.7879 31.0713 25.7688 31.1173C25.7498 31.1633 25.7175 31.2027 25.6761 31.2303C25.6347 31.258 25.586 31.2728 25.5362 31.2728C25.4694 31.2728 25.4053 31.2463 25.3581 31.199C25.3109 31.1518 25.2844 31.0878 25.2844 31.021ZM27.2813 31.0946C27.24 31.0534 27.2142 30.9993 27.2083 30.9413C27.2025 30.8832 27.217 30.825 27.2493 30.7765C27.2816 30.728 27.3297 30.6922 27.3855 30.6752C27.4413 30.6582 27.5012 30.661 27.5551 30.6833C27.6089 30.7056 27.6534 30.7458 27.6809 30.7972C27.7084 30.8486 27.7172 30.908 27.7059 30.9652C27.6945 31.0224 27.6636 31.0738 27.6186 31.1108C27.5735 31.1477 27.517 31.1679 27.4587 31.1679C27.3922 31.1678 27.3284 31.1414 27.2813 31.0946V31.0946ZM23.452 31.0946C23.4106 31.0534 23.3849 30.9993 23.379 30.9413C23.3732 30.8832 23.3877 30.825 23.42 30.7765C23.4523 30.728 23.5004 30.6922 23.5562 30.6752C23.6119 30.6582 23.6719 30.661 23.7257 30.6833C23.7796 30.7056 23.8241 30.7458 23.8516 30.7972C23.8791 30.8486 23.8879 30.908 23.8765 30.9652C23.8652 31.0224 23.8343 31.0738 23.7892 31.1108C23.7442 31.1477 23.6876 31.1679 23.6294 31.1679C23.5629 31.1678 23.4991 31.1414 23.452 31.0946ZM29.7953 30.9989C29.7539 30.9577 29.7282 30.9036 29.7223 30.8456C29.7165 30.7876 29.731 30.7293 29.7633 30.6808C29.7956 30.6323 29.8437 30.5965 29.8995 30.5795C29.9552 30.5625 30.0152 30.5654 30.0691 30.5876C30.1229 30.6099 30.1674 30.6502 30.1949 30.7016C30.2224 30.753 30.2312 30.8123 30.2199 30.8695C30.2085 30.9267 30.1776 30.9781 30.1325 31.0151C30.0875 31.052 30.031 31.0722 29.9727 31.0722C29.9062 31.0721 29.8424 31.0458 29.7953 30.9989V30.9989ZM20.8515 30.9989C20.8102 30.9577 20.7844 30.9035 20.7786 30.8455C20.7727 30.7875 20.7872 30.7293 20.8195 30.6807C20.8519 30.6322 20.9 30.5964 20.9558 30.5794C21.0116 30.5625 21.0716 30.5654 21.1254 30.5877C21.1793 30.61 21.2238 30.6503 21.2512 30.7017C21.2787 30.7531 21.2875 30.8125 21.2761 30.8697C21.2646 30.9269 21.2337 30.9783 21.1886 31.0152C21.1435 31.0522 21.0869 31.0723 21.0286 31.0722C20.9622 31.072 20.8986 31.0457 20.8515 30.9989V30.9989ZM26.7796 30.5932C26.7383 30.552 26.7125 30.4979 26.7067 30.4399C26.7008 30.3818 26.7153 30.3236 26.7476 30.2751C26.7799 30.2266 26.8281 30.1908 26.8838 30.1738C26.9396 30.1568 26.9995 30.1596 27.0534 30.1819C27.1073 30.2042 27.1518 30.2444 27.1793 30.2958C27.2068 30.3472 27.2156 30.4066 27.2042 30.4638C27.1928 30.521 27.162 30.5724 27.1169 30.6094C27.0718 30.6463 27.0153 30.6665 26.957 30.6665C26.8905 30.6664 26.8267 30.64 26.7796 30.5932V30.5932ZM23.9536 30.5932C23.9123 30.552 23.8865 30.4979 23.8807 30.4399C23.8749 30.3818 23.8893 30.3236 23.9216 30.2751C23.9539 30.2266 24.0021 30.1908 24.0578 30.1738C24.1136 30.1568 24.1735 30.1596 24.2274 30.1819C24.2813 30.2042 24.3258 30.2444 24.3533 30.2958C24.3808 30.3472 24.3896 30.4066 24.3782 30.4638C24.3669 30.521 24.336 30.5724 24.2909 30.6094C24.2458 30.6463 24.1893 30.6665 24.131 30.6665C24.0645 30.6664 24.0008 30.64 23.9536 30.5932V30.5932ZM24.0376 29.0109C24.0376 28.7129 24.1259 28.4217 24.2915 28.1739C24.457 27.9262 24.6923 27.7331 24.9676 27.6191C25.2429 27.5051 25.5458 27.4753 25.838 27.5334C26.1302 27.5916 26.3987 27.7351 26.6093 27.9458C26.82 28.1565 26.9634 28.4249 27.0215 28.7172C27.0796 29.0094 27.0498 29.3123 26.9357 29.5876C26.8216 29.8628 26.6285 30.0981 26.3807 30.2636C26.133 30.4291 25.8417 30.5174 25.5437 30.5173C25.1442 30.5173 24.7611 30.3585 24.4786 30.076C24.1961 29.7935 24.0374 29.4104 24.0373 29.0109H24.0376ZM29.4816 28.9846C29.4816 28.8173 29.5311 28.6537 29.624 28.5146C29.7169 28.3755 29.849 28.267 30.0036 28.2029C30.1581 28.1389 30.3282 28.1221 30.4923 28.1547C30.6564 28.1873 30.8071 28.2678 30.9254 28.3861C31.0438 28.5044 31.1243 28.6551 31.157 28.8192C31.1897 28.9833 31.1729 29.1534 31.1089 29.3079C31.0449 29.4625 30.9365 29.5946 30.7974 29.6876C30.6583 29.7805 30.4947 29.8301 30.3274 29.8301C30.1032 29.8301 29.8881 29.7411 29.7295 29.5825C29.5708 29.4239 29.4817 29.2089 29.4816 28.9846V28.9846ZM19.915 28.9846C19.915 28.8173 19.9645 28.6537 20.0574 28.5146C20.1503 28.3755 20.2824 28.267 20.437 28.2029C20.5915 28.1389 20.7616 28.1221 20.9257 28.1547C21.0898 28.1873 21.2405 28.2678 21.3588 28.3861C21.4772 28.5044 21.5578 28.6551 21.5904 28.8192C21.6231 28.9833 21.6063 29.1534 21.5423 29.3079C21.4783 29.4625 21.3699 29.5946 21.2308 29.6876C21.0917 29.7805 20.9282 29.8301 20.7609 29.8301C20.5366 29.8301 20.3215 29.7411 20.1629 29.5825C20.0042 29.4239 19.9151 29.2089 19.915 28.9846V28.9846ZM28.7077 29.0025C28.7077 28.9527 28.7225 28.904 28.7501 28.8626C28.7778 28.8212 28.8171 28.7889 28.8631 28.7698C28.9092 28.7508 28.9598 28.7458 29.0086 28.7555C29.0575 28.7652 29.1024 28.7892 29.1376 28.8244C29.1728 28.8597 29.1968 28.9045 29.2065 28.9534C29.2162 29.0022 29.2112 29.0529 29.1922 29.0989C29.1731 29.1449 29.1408 29.1842 29.0994 29.2119C29.058 29.2395 29.0093 29.2543 28.9595 29.2543C28.8927 29.2543 28.8287 29.2278 28.7814 29.1806C28.7342 29.1333 28.7077 29.0693 28.7077 29.0025ZM28.0009 29.0025C28.0009 28.9527 28.0157 28.904 28.0434 28.8626C28.071 28.8212 28.1104 28.7889 28.1564 28.7698C28.2024 28.7508 28.253 28.7458 28.3019 28.7555C28.3507 28.7652 28.3956 28.7892 28.4308 28.8244C28.466 28.8597 28.49 28.9045 28.4997 28.9534C28.5094 29.0022 28.5045 29.0529 28.4854 29.0989C28.4663 29.1449 28.4341 29.1842 28.3926 29.2119C28.3512 29.2395 28.3025 29.2543 28.2527 29.2543C28.186 29.2543 28.1219 29.2278 28.0747 29.1806C28.0275 29.1333 28.0009 29.0693 28.0009 29.0025V29.0025ZM27.2916 29.0025C27.2916 28.9527 27.3064 28.904 27.3341 28.8626C27.3617 28.8212 27.4011 28.7889 27.4471 28.7698C27.4931 28.7508 27.5437 28.7458 27.5926 28.7555C27.6414 28.7652 27.6863 28.7892 27.7215 28.8244C27.7567 28.8597 27.7807 28.9045 27.7904 28.9534C27.8001 29.0022 27.7952 29.0529 27.7761 29.0989C27.757 29.1449 27.7248 29.1842 27.6834 29.2119C27.6419 29.2395 27.5933 29.2543 27.5435 29.2543C27.4767 29.2543 27.4126 29.2278 27.3654 29.1806C27.3182 29.1333 27.2916 29.0693 27.2916 29.0025ZM23.2947 29.0025C23.2947 28.9527 23.3095 28.904 23.3371 28.8626C23.3648 28.8212 23.4041 28.7889 23.4502 28.7698C23.4962 28.7508 23.5468 28.7458 23.5957 28.7555C23.6445 28.7652 23.6894 28.7892 23.7246 28.8244C23.7598 28.8597 23.7838 28.9045 23.7935 28.9534C23.8032 29.0022 23.7982 29.0529 23.7792 29.0989C23.7601 29.1449 23.7278 29.1842 23.6864 29.2119C23.645 29.2395 23.5963 29.2543 23.5465 29.2543C23.4797 29.2543 23.4157 29.2278 23.3685 29.1806C23.3212 29.1333 23.2947 29.0693 23.2947 29.0025ZM22.5857 29.0025C22.5857 28.9527 22.6005 28.904 22.6281 28.8626C22.6558 28.8212 22.6951 28.7889 22.7412 28.7698C22.7872 28.7508 22.8378 28.7458 22.8866 28.7555C22.9355 28.7652 22.9804 28.7892 23.0156 28.8244C23.0508 28.8597 23.0748 28.9045 23.0845 28.9534C23.0942 29.0022 23.0892 29.0529 23.0702 29.0989C23.0511 29.1449 23.0188 29.1842 22.9774 29.2119C22.936 29.2395 22.8873 29.2543 22.8375 29.2543C22.7707 29.2543 22.7067 29.2278 22.6595 29.1806C22.6122 29.1333 22.5857 29.0693 22.5857 29.0025ZM21.8789 29.0025C21.8789 28.9527 21.8937 28.904 21.9214 28.8626C21.949 28.8212 21.9884 28.7889 22.0344 28.7698C22.0804 28.7508 22.131 28.7458 22.1799 28.7555C22.2287 28.7652 22.2736 28.7892 22.3088 28.8244C22.344 28.8597 22.368 28.9045 22.3777 28.9534C22.3874 29.0022 22.3825 29.0529 22.3634 29.0989C22.3443 29.1449 22.3121 29.1842 22.2707 29.2119C22.2292 29.2395 22.1806 29.2543 22.1307 29.2543C22.064 29.2543 21.9999 29.2278 21.9527 29.1806C21.9055 29.1333 21.8789 29.0693 21.8789 29.0025V29.0025ZM26.7799 27.7666C26.7386 27.7254 26.7129 27.6712 26.7072 27.6132C26.7014 27.5552 26.716 27.497 26.7484 27.4485C26.7807 27.4001 26.8289 27.3643 26.8847 27.3474C26.9405 27.3305 27.0004 27.3335 27.0543 27.3558C27.1081 27.3781 27.1525 27.4185 27.18 27.4699C27.2074 27.5213 27.2161 27.5807 27.2047 27.6378C27.1932 27.695 27.1623 27.7464 27.1172 27.7833C27.0721 27.8202 27.0156 27.8403 26.9573 27.8402C26.8907 27.8401 26.827 27.8136 26.7799 27.7666ZM23.9539 27.7666C23.9127 27.7254 23.887 27.6712 23.8812 27.6132C23.8755 27.5552 23.89 27.497 23.9224 27.4485C23.9548 27.4 24.003 27.3643 24.0589 27.3474C24.1147 27.3305 24.1746 27.3335 24.2284 27.3559C24.2823 27.3782 24.3267 27.4186 24.3541 27.47C24.3815 27.5215 24.3902 27.5809 24.3787 27.638C24.3672 27.6952 24.3362 27.7466 24.2911 27.7835C24.2459 27.8203 24.1893 27.8404 24.131 27.8402C24.0646 27.84 24.0009 27.8136 23.9539 27.7666V27.7666ZM29.7953 27.3276C29.7544 27.2866 29.7291 27.2328 29.7235 27.1752C29.7179 27.1176 29.7325 27.0599 29.7647 27.0118C29.7969 26.9637 29.8448 26.9283 29.9002 26.9116C29.9555 26.8949 30.015 26.8979 30.0684 26.9201C30.1219 26.9423 30.166 26.9823 30.1932 27.0334C30.2204 27.0844 30.2291 27.1433 30.2178 27.2C30.2064 27.2568 30.1758 27.3078 30.1311 27.3445C30.0863 27.3812 30.0302 27.4012 29.9724 27.4012C29.9059 27.401 29.8423 27.3746 29.7953 27.3276ZM20.9041 27.3276C20.8629 27.2864 20.8372 27.2322 20.8314 27.1742C20.8257 27.1162 20.8402 27.058 20.8726 27.0095C20.905 26.9611 20.9532 26.9253 21.0089 26.9084C21.0647 26.8915 21.1247 26.8945 21.1785 26.9168C21.2323 26.9391 21.2768 26.9795 21.3042 27.0309C21.3316 27.0823 21.3404 27.1417 21.3289 27.1988C21.3175 27.256 21.2866 27.3074 21.2414 27.3443C21.1963 27.3812 21.1398 27.4013 21.0815 27.4012C21.015 27.4011 20.9512 27.3746 20.9041 27.3276V27.3276ZM27.281 27.2658C27.2397 27.2247 27.2139 27.1705 27.2081 27.1125C27.2022 27.0545 27.2167 26.9963 27.249 26.9477C27.2813 26.8992 27.3294 26.8634 27.3852 26.8464C27.441 26.8294 27.5009 26.8323 27.5548 26.8545C27.6087 26.8768 27.6531 26.9171 27.6806 26.9685C27.7082 27.0199 27.717 27.0792 27.7056 27.1364C27.6942 27.1936 27.6634 27.245 27.6183 27.282C27.5732 27.319 27.5167 27.3391 27.4584 27.3391C27.3919 27.339 27.3281 27.3127 27.281 27.2658V27.2658ZM23.4517 27.2658C23.4104 27.2247 23.3846 27.1705 23.3787 27.1125C23.3729 27.0545 23.3874 26.9963 23.4197 26.9477C23.452 26.8992 23.5001 26.8634 23.5559 26.8464C23.6117 26.8294 23.6716 26.8323 23.7255 26.8545C23.7793 26.8768 23.8238 26.9171 23.8513 26.9685C23.8788 27.0199 23.8876 27.0792 23.8763 27.1364C23.8649 27.1936 23.834 27.245 23.789 27.282C23.7439 27.319 23.6874 27.3391 23.6291 27.3391C23.5626 27.339 23.4988 27.3127 23.4517 27.2658V27.2658ZM25.2928 26.986C25.2928 26.9362 25.3075 26.8875 25.3352 26.8461C25.3629 26.8047 25.4022 26.7724 25.4482 26.7533C25.4942 26.7343 25.5449 26.7293 25.5937 26.739C25.6425 26.7487 25.6874 26.7727 25.7226 26.8079C25.7579 26.8431 25.7818 26.888 25.7916 26.9369C25.8013 26.9857 25.7963 27.0363 25.7772 27.0824C25.7582 27.1284 25.7259 27.1677 25.6845 27.1954C25.6431 27.223 25.5944 27.2378 25.5446 27.2378C25.4778 27.2378 25.4137 27.2113 25.3665 27.1641C25.3193 27.1168 25.2928 27.0528 25.2928 26.986ZM27.7807 26.7672C27.7395 26.726 27.7138 26.6718 27.708 26.6138C27.7023 26.5558 27.7168 26.4976 27.7492 26.4491C27.7816 26.4006 27.8298 26.3649 27.8856 26.348C27.9413 26.3311 28.0013 26.334 28.0551 26.3564C28.1089 26.3787 28.1534 26.419 28.1808 26.4704C28.2082 26.5219 28.217 26.5812 28.2055 26.6384C28.1941 26.6956 28.1632 26.747 28.1181 26.7839C28.0729 26.8208 28.0164 26.8409 27.9581 26.8408C27.8916 26.8406 27.8278 26.8142 27.7807 26.7672ZM22.952 26.7672C22.9111 26.7262 22.8858 26.6723 22.8802 26.6147C22.8746 26.5572 22.8892 26.4994 22.9214 26.4514C22.9536 26.4033 23.0015 26.3679 23.0568 26.3512C23.1122 26.3345 23.1717 26.3374 23.2251 26.3596C23.2786 26.3818 23.3226 26.4219 23.3499 26.4729C23.3771 26.524 23.3858 26.5829 23.3745 26.6396C23.3631 26.6963 23.3325 26.7474 23.2877 26.7841C23.243 26.8208 23.1869 26.8408 23.1291 26.8408C23.0626 26.8406 22.999 26.8141 22.952 26.7672V26.7672ZM25.2928 26.2767C25.2928 26.2269 25.3075 26.1782 25.3352 26.1368C25.3629 26.0954 25.4022 26.0631 25.4482 26.0441C25.4942 26.025 25.5449 26.02 25.5937 26.0297C25.6425 26.0394 25.6874 26.0634 25.7226 26.0986C25.7579 26.1339 25.7818 26.1787 25.7916 26.2276C25.8013 26.2764 25.7963 26.3271 25.7772 26.3731C25.7582 26.4191 25.7259 26.4584 25.6845 26.4861C25.6431 26.5138 25.5944 26.5285 25.5446 26.5285V26.5285C25.4778 26.5285 25.4137 26.502 25.3665 26.4548C25.3193 26.4075 25.2928 26.3435 25.2928 26.2767V26.2767ZM21.5947 26.2515C21.2748 25.9317 21.2832 25.4046 21.6134 25.0741C21.9436 24.7437 22.4707 24.7356 22.7908 25.0557C23.1109 25.3758 23.1022 25.9026 22.772 26.2328C22.6927 26.3128 22.5984 26.3763 22.4944 26.4198C22.3905 26.4633 22.279 26.4857 22.1663 26.486C22.0603 26.4865 21.9552 26.4661 21.8571 26.4258C21.7591 26.3855 21.6699 26.3262 21.5949 26.2512L21.5947 26.2515ZM28.3151 26.2328C27.985 25.9026 27.9766 25.3755 28.2964 25.0557C28.6162 24.7359 29.1433 24.744 29.4738 25.0741C29.8042 25.4043 29.8123 25.9317 29.4925 26.2515C29.4174 26.3264 29.3282 26.3856 29.2301 26.4259C29.132 26.4661 29.0269 26.4865 28.9209 26.486C28.8083 26.4857 28.6968 26.4632 28.5929 26.4197C28.489 26.3762 28.3947 26.3127 28.3154 26.2328H28.3151ZM25.2933 25.5697C25.2933 25.5198 25.3081 25.4712 25.3358 25.4297C25.3634 25.3883 25.4027 25.3561 25.4488 25.337C25.4948 25.3179 25.5454 25.313 25.5943 25.3227C25.6431 25.3324 25.688 25.3564 25.7232 25.3916C25.7584 25.4268 25.7824 25.4717 25.7921 25.5205C25.8018 25.5694 25.7968 25.62 25.7778 25.666C25.7587 25.712 25.7264 25.7514 25.685 25.779C25.6436 25.8067 25.5949 25.8215 25.5451 25.8215C25.5118 25.8215 25.4788 25.8149 25.448 25.8021C25.4173 25.7893 25.3893 25.7705 25.3659 25.7468C25.3424 25.7231 25.3239 25.695 25.3114 25.6641C25.2989 25.6332 25.2927 25.6002 25.293 25.5669L25.2933 25.5697ZM24.6722 24.1763C24.6722 24.009 24.7219 23.8456 24.8148 23.7066C24.9077 23.5676 25.0398 23.4592 25.1943 23.3953C25.3488 23.3313 25.5188 23.3146 25.6828 23.3473C25.8468 23.3799 25.9975 23.4605 26.1157 23.5787C26.2339 23.697 26.3144 23.8477 26.347 24.0117C26.3796 24.1757 26.3629 24.3457 26.2989 24.5002C26.2349 24.6547 26.1265 24.7867 25.9874 24.8796C25.8484 24.9725 25.6849 25.0221 25.5177 25.0221C25.4066 25.0221 25.2967 25.0002 25.1941 24.9577C25.0915 24.9152 24.9982 24.8529 24.9197 24.7743C24.8412 24.6958 24.7789 24.6025 24.7364 24.4999C24.694 24.3973 24.6721 24.2873 24.6722 24.1763V24.1763ZM27.1856 24.7255C27.1448 24.6845 27.1194 24.6306 27.1138 24.5731C27.1082 24.5155 27.1228 24.4577 27.155 24.4097C27.1872 24.3616 27.2351 24.3262 27.2905 24.3095C27.3459 24.2928 27.4053 24.2958 27.4588 24.3179C27.5122 24.3401 27.5563 24.3802 27.5835 24.4312C27.6107 24.4823 27.6194 24.5412 27.6081 24.5979C27.5968 24.6547 27.5661 24.7057 27.5214 24.7424C27.4766 24.7791 27.4206 24.7991 27.3627 24.7991C27.2963 24.7989 27.2326 24.7724 27.1856 24.7255V24.7255ZM23.5057 24.7065C23.4643 24.6653 23.4386 24.6112 23.4327 24.5531C23.4269 24.4951 23.4414 24.4369 23.4737 24.3884C23.506 24.3398 23.5542 24.304 23.61 24.287C23.6658 24.2701 23.7257 24.273 23.7796 24.2953C23.8335 24.3176 23.8779 24.3579 23.9054 24.4093C23.9329 24.4608 23.9417 24.5201 23.9302 24.5773C23.9188 24.6345 23.8879 24.6859 23.8428 24.7228C23.7976 24.7598 23.7411 24.7799 23.6828 24.7798C23.6164 24.7796 23.5527 24.7533 23.5057 24.7065V24.7065Z" fill="url(#paint0_linear_9033_76070)"/>
</g>
<defs>
<linearGradient id="paint0_linear_9033_76070" x1="6.93069" y1="5.15331" x2="43.9307" y2="44.6533" gradientUnits="userSpaceOnUse">
<stop stop-color="#4D2FE5"/>
<stop offset="0.53" stop-color="#D51FD5"/>
<stop offset="1" stop-color="#FB767C"/>
</linearGradient>
<clipPath id="clip0_9033_76070">
<rect width="50" height="50" fill="white" transform="translate(0.570312 0.0192871)"/>
</clipPath>
</defs>
</svg>
