<svg width="184" height="31" viewBox="0 0 184 31" fill="none" xmlns="http://www.w3.org/2000/svg">
<path d="M15.4545 30.9876V24.9612C21.856 24.9612 26.7938 18.6618 24.3258 11.9958C23.8767 10.7585 23.1607 9.63489 22.2284 8.70437C21.2961 7.77385 20.1703 7.05919 18.9307 6.61096C17.4919 6.07099 15.9437 5.88608 14.418 6.07199C12.8922 6.25789 11.434 6.8091 10.1677 7.67866C8.90132 8.54823 7.86429 9.7104 7.1449 11.0662C6.42551 12.422 6.04508 13.9312 6.03601 15.4653H0C0 5.42146 9.78579 -2.52202 20.4842 0.766075C22.7833 1.48686 24.8738 2.75158 26.5777 4.45251C28.2815 6.15344 29.5483 8.24019 30.27 10.535C33.5625 21.2186 25.6057 30.9876 15.4545 30.9876Z" fill="#0080FF"/>
<path d="M15.5461 24.9611H9.51011V19.0264H15.5461V24.9611ZM9.51011 29.6183H4.93765V24.9611H9.51011V29.6183ZM4.93765 24.9611H1.10156V21.1268H4.93765V24.9611ZM55.1447 8.98249C53.4075 7.79482 51.1213 7.14966 48.5596 7.14966H42.9827V24.9537H48.5614C51.1225 24.9537 53.3175 24.3147 55.1465 23.0366C56.1455 22.3112 56.9343 21.3349 57.4327 20.2067C57.9836 19.0191 58.2554 17.5583 58.2554 16.0059C58.2554 14.4535 57.9818 12.9927 57.4327 11.8967C56.8818 10.5349 56.151 9.62215 55.1447 8.98249ZM46.2752 10.1702H48.0124C49.9332 10.1702 51.5785 10.5367 52.8585 11.3578C54.2302 12.1789 54.8784 13.7405 54.8784 16.015C54.8784 18.2896 54.1439 19.941 52.8585 20.8537C51.6703 21.5868 50.115 22.0414 48.1024 22.0414H46.2752V10.1702ZM62.187 6.8839C61.9328 6.87712 61.68 6.92242 61.4441 7.01699C61.2081 7.11156 60.9941 7.2534 60.8153 7.43375C60.6069 7.59448 60.44 7.8026 60.3285 8.04075C60.217 8.27891 60.1642 8.5402 60.1744 8.80287C60.1744 9.31133 60.3768 9.79896 60.737 10.1585C61.0972 10.518 61.5858 10.72 62.0952 10.72C62.6046 10.72 63.0932 10.518 63.4534 10.1585C63.8136 9.79896 64.016 9.31133 64.016 8.80287C64.0227 8.54921 63.9772 8.29688 63.8825 8.06141C63.7877 7.82594 63.6457 7.61234 63.4651 7.43375C63.1915 7.06719 62.7305 6.8839 62.1796 6.8839H62.187ZM60.527 12.3622H63.7277V24.8713H60.5398V12.3622H60.527ZM75.1717 13.4619C74.2535 12.6408 73.1517 12.0928 71.9709 12.0928C71.1649 12.0751 70.3645 12.2294 69.6231 12.5455C68.8817 12.8616 68.2165 13.3322 67.6721 13.9256C66.5298 15.1333 65.9063 16.739 65.9349 18.3996C65.9349 20.1352 66.4858 21.6858 67.5876 22.8735C68.6894 24.0612 70.1475 24.6092 71.8865 24.6092C73.0055 24.6267 74.0989 24.2735 74.9954 23.6048V23.8779C74.9954 24.8823 74.7218 25.7107 74.1727 26.2606C73.6236 26.8104 72.8873 27.0817 71.8865 27.0817C70.4174 27.0817 69.5084 26.5318 68.4121 24.9812L66.2085 27.0817L66.3004 27.1733C66.7576 27.813 67.4885 28.4563 68.403 29.0904C69.3175 29.7246 70.5056 30.0068 71.8773 30.0068C73.7981 30.0068 75.2617 29.457 76.3579 28.2712C77.4542 27.0853 78.0951 25.6227 78.0951 23.7056V12.3622H74.9899V13.4619H75.1735H75.1717ZM74.3508 20.8574C73.7999 21.497 73.0654 21.7738 72.1472 21.7738C71.2291 21.7738 70.4945 21.5007 69.9436 20.8574C69.3927 20.2141 69.121 19.3911 69.121 18.3922C69.121 17.3933 69.4129 16.5612 69.9638 15.9216C70.5147 15.2819 71.2493 15.0052 72.1674 15.0052C73.0856 15.0052 73.8201 15.2783 74.371 15.9216C74.9219 16.5649 75.1937 17.3878 75.1937 18.3867C75.1937 19.3856 74.9201 20.2196 74.371 20.8519L74.3508 20.8574ZM81.0461 12.3604H84.2468V24.8694H81.0259V12.3622L81.0461 12.3604ZM82.5812 6.8839C82.3273 6.87762 82.0747 6.92291 81.8388 7.01703C81.6029 7.11115 81.3886 7.25213 81.209 7.43142C81.0294 7.61071 80.8881 7.82457 80.7938 8.06001C80.6995 8.29545 80.6542 8.54756 80.6604 8.80104C80.6604 9.3095 80.8628 9.79713 81.223 10.1567C81.5833 10.5162 82.0718 10.7182 82.5812 10.7182C83.0907 10.7182 83.5792 10.5162 83.9395 10.1567C84.2997 9.79713 84.5021 9.3095 84.5021 8.80104C84.5084 8.5474 84.4629 8.29514 84.3685 8.05957C84.2741 7.824 84.1327 7.61006 83.9529 7.43074C83.773 7.25143 83.5585 7.11048 83.3224 7.01647C83.0863 6.92247 82.8335 6.87736 82.5794 6.8839H82.5812ZM91.0816 8.98249H87.9764V12.3622H86.1401V15.1921H87.9764V20.3973C87.9764 22.0469 88.3436 23.2272 88.9827 23.8669C89.6217 24.5065 90.819 24.8713 92.367 24.8713C92.8872 24.8863 93.4076 24.8557 93.9224 24.7796H94.106V21.9479L93.0042 22.0396C92.2697 22.0396 91.7188 21.9479 91.5352 21.673C91.2616 21.3999 91.1679 20.8519 91.1679 20.0234V15.2837H94.095V12.452H91.1771L91.0816 8.98249ZM108.822 7.14966H112.023V24.9537H108.826V7.16066L108.822 7.14966ZM143.944 20.4908C143.476 21.0306 142.955 21.5219 142.389 21.9571C141.89 22.2585 141.318 22.4164 140.736 22.4134C140.307 22.4097 139.883 22.3178 139.492 22.1434C139.1 21.969 138.748 21.7159 138.459 21.3999C137.818 20.6668 137.541 19.8475 137.541 18.7515C137.541 17.6554 137.814 16.8343 138.459 16.103C138.737 15.7711 139.087 15.5077 139.484 15.3335C139.881 15.1593 140.312 15.0789 140.745 15.0986C141.751 15.0986 142.848 15.7383 143.762 16.8343L145.865 14.8182C144.493 13.0825 142.756 12.2614 140.651 12.2614C138.914 12.2614 137.451 12.9011 136.171 14.1786C134.973 15.4322 134.314 17.1036 134.334 18.8358C134.334 20.6686 134.975 22.3053 136.171 23.493C136.74 24.1103 137.433 24.6003 138.205 24.9308C138.978 25.2612 139.811 25.4246 140.651 25.4101C142.938 25.4101 144.767 24.4057 146.047 22.5802L143.944 20.4798V20.4908ZM156.839 14.1804C156.357 13.5477 155.726 13.0439 155.002 12.7141C154.172 12.3305 153.265 12.1423 152.351 12.1643C150.614 12.1643 149.15 12.8039 148.052 14.0814C147.013 15.4093 146.463 17.054 146.496 18.7386C146.496 20.6558 147.047 22.2082 148.234 23.3958C149.42 24.5835 150.885 25.2287 152.806 25.2287C154.909 25.2287 156.648 24.4076 158.019 22.6719L158.111 22.5802L156.009 20.5641C155.825 20.8372 155.551 21.0205 155.274 21.2973C155.015 21.5703 154.702 21.7879 154.356 21.9369C153.88 22.197 153.343 22.3237 152.801 22.3035C152.004 22.315 151.227 22.0565 150.597 21.5703C150.046 21.114 149.774 20.4707 149.679 19.6532H158.093V18.4655C158.113 17.6558 157.989 16.849 157.726 16.0829C157.592 15.375 157.275 14.7142 156.807 14.1657L156.839 14.1804ZM149.98 17.1092C150.12 16.5567 150.404 16.0508 150.803 15.643C151.019 15.428 151.277 15.2601 151.562 15.15C151.846 15.0399 152.15 14.9899 152.455 15.0033C153.19 15.0033 153.827 15.1866 154.193 15.643C154.56 16.0095 154.743 16.5594 154.833 17.1092H149.98ZM169.002 13.3648C168.084 12.5437 166.716 12.1771 165.071 12.1771C164.065 12.2056 163.073 12.4232 162.147 12.8186C161.325 13.275 160.495 13.9183 160.045 14.8347L162.065 16.7518C162.888 15.3827 163.802 14.919 165.082 14.919C165.68 14.9032 166.265 15.0978 166.735 15.4689C166.943 15.6296 167.11 15.8377 167.221 16.0759C167.333 16.314 167.386 16.5753 167.376 16.838V17.4776C166.639 17.2297 165.866 17.1058 165.089 17.1111C163.535 17.1111 162.254 17.4776 161.248 18.2108C160.241 18.9439 159.779 20.0436 159.779 21.3156C159.779 22.5033 160.146 23.416 160.967 24.1455C161.788 24.8749 162.803 25.1499 163.984 25.1499C165.165 25.1499 166.27 24.6935 167.368 23.8669V24.8713H170.477V16.8362C170.477 15.3699 170.02 14.1877 169.008 13.3666L169.002 13.3648ZM163.429 20.1224C163.796 19.8493 164.252 19.7558 164.898 19.7558C165.71 19.7832 166.512 19.9372 167.276 20.2122V21.3999C166.519 22.0646 165.541 22.4229 164.533 22.4043C163.982 22.4043 163.527 22.3126 163.247 22.0377C162.968 21.7628 162.79 21.4879 162.79 21.1213C162.823 20.919 162.896 20.7256 163.006 20.5528C163.117 20.38 163.261 20.2317 163.431 20.1169L163.429 20.1224ZM182.628 13.5481C181.71 12.5437 180.525 12.0818 178.97 12.0818C177.69 12.0818 176.684 12.4484 175.953 13.1815V12.4484H172.842V24.9574H176.043V18.022C176.043 17.1056 176.227 16.2863 176.684 15.7401C176.908 15.4735 177.189 15.261 177.507 15.1188C177.826 14.9766 178.172 14.9082 178.52 14.919C178.834 14.9038 179.147 14.9621 179.434 15.0895C179.721 15.2168 179.974 15.4095 180.173 15.6521C180.602 16.2358 180.828 16.9442 180.814 17.6683V24.9721H184V17.6573C183.908 15.9222 183.451 14.5525 182.628 13.5481ZM104.894 13.3648C103.976 12.5437 102.608 12.1771 100.963 12.1771C99.9555 12.2045 98.9624 12.4215 98.0358 12.8168C97.2131 13.2731 96.3831 13.9165 95.9332 14.8329L97.9531 16.75C98.7758 15.3809 99.6903 14.9172 100.97 14.9172C101.569 14.9014 102.154 15.096 102.623 15.467C102.831 15.6278 102.998 15.8359 103.11 16.074C103.221 16.3122 103.274 16.5735 103.264 16.8362V17.4758C102.527 17.2278 101.755 17.1039 100.978 17.1092C99.4228 17.1092 98.1423 17.4758 97.136 18.2089C96.1297 18.9421 95.6669 20.0418 95.6669 21.3138C95.6669 22.5014 96.0342 23.4142 96.855 24.1436C97.6759 24.8731 98.6913 25.148 99.8721 25.148C101.053 25.148 102.158 24.6917 103.256 23.865V24.8694H106.365V16.8362C106.365 15.3699 105.814 14.1877 104.896 13.3666L104.894 13.3648ZM99.2257 20.1224C99.593 19.8493 100.048 19.7558 100.695 19.7558C101.506 19.7832 102.309 19.9372 103.073 20.2122V21.3999C102.316 22.0646 101.337 22.4229 100.329 22.4043C99.7785 22.4043 99.323 22.3126 99.0439 22.0377C98.7648 21.7628 98.5867 21.4879 98.5867 21.1213C98.7234 20.7434 98.9422 20.4004 99.2276 20.1169L99.2257 20.1224ZM123.467 25.2305C121.658 25.2312 119.888 24.6963 118.383 23.6934C116.878 22.6905 115.705 21.2647 115.012 19.5962C114.319 17.9278 114.138 16.0917 114.49 14.3202C114.843 12.5487 115.714 10.9213 116.993 9.64396C118.272 8.36658 119.902 7.49656 121.677 7.14393C123.452 6.79131 125.292 6.97192 126.964 7.66293C128.635 8.35394 130.064 9.5243 131.07 11.026C132.075 12.5277 132.612 14.2932 132.612 16.0994C132.603 18.5178 131.637 20.8347 129.924 22.5452C128.211 24.2556 125.89 25.2208 123.467 25.2305ZM123.467 10.0749C122.291 10.073 121.14 10.4195 120.162 11.0703C119.183 11.7212 118.419 12.6472 117.967 13.7312C117.516 14.8153 117.397 16.0087 117.625 17.1604C117.853 18.3121 118.418 19.3704 119.249 20.2015C120.08 21.0325 121.139 21.5989 122.292 21.8291C123.446 22.0592 124.642 21.9428 125.729 21.4944C126.816 21.0461 127.745 20.286 128.399 19.3103C129.054 18.3346 129.403 17.1872 129.404 16.0132C129.406 15.2335 129.253 14.4612 128.955 13.7405C128.657 13.0199 128.219 12.365 127.667 11.8136C127.115 11.2622 126.459 10.8251 125.737 10.5274C125.015 10.2296 124.241 10.0771 123.46 10.0785" fill="#0080FF"/>
</svg>
