<svg width="35" height="28" viewBox="0 0 35 28" fill="none" xmlns="http://www.w3.org/2000/svg">
<path d="M29.6281 2.83436C27.3641 1.78489 24.9432 1.02218 22.4123 0.587891C22.1014 1.14464 21.7383 1.89348 21.4879 2.48917C18.7975 2.08832 16.1318 2.08832 13.4908 2.48917C13.2405 1.89348 12.8691 1.14464 12.5555 0.587891C10.0218 1.02218 7.59821 1.78769 5.33414 2.83991C0.767497 9.67663 -0.470445 16.3435 0.148527 22.9158C3.17737 25.1566 6.11268 26.5179 8.99845 27.4087C9.71096 26.4372 10.3464 25.4044 10.8939 24.316C9.85125 23.9235 8.85265 23.4391 7.90909 22.8768C8.15941 22.6931 8.40427 22.501 8.64083 22.3034C14.3959 24.9702 20.6489 24.9702 26.3352 22.3034C26.5745 22.501 26.8193 22.6931 27.0669 22.8768C26.1206 23.4419 25.1193 23.9263 24.0766 24.3188C24.6241 25.4044 25.2568 26.44 25.9721 27.4114C28.8606 26.5207 31.7986 25.1594 34.8275 22.9158C35.5538 15.2969 33.5868 8.6912 29.6281 2.83436ZM11.6779 18.8739C9.95031 18.8739 8.53353 17.2761 8.53353 15.3303C8.53353 13.3845 9.92005 11.7839 11.6779 11.7839C13.4358 11.7839 14.8526 13.3817 14.8223 15.3303C14.825 17.2761 13.4358 18.8739 11.6779 18.8739ZM23.2981 18.8739C21.5705 18.8739 20.1537 17.2761 20.1537 15.3303C20.1537 13.3845 21.5402 11.7839 23.2981 11.7839C25.056 11.7839 26.4728 13.3817 26.4425 15.3303C26.4425 17.2761 25.056 18.8739 23.2981 18.8739Z" fill="white"/>
</svg>
