<svg width="8" height="18" viewBox="0 0 8 18" fill="none" xmlns="http://www.w3.org/2000/svg">
<path transform="scale (-1, 1)" transform-origin="center" d="M4 8.1875C5.12227 8.1875 6.03125 7.27852 6.03125 6.15625C6.03125 5.03398 5.12227 4.125 4 4.125C2.87773 4.125 1.96875 5.03398 1.96875 6.15625C1.96875 6.60313 1.60313 6.96875 1.15625 6.96875C0.709375 6.96875 0.34375 6.60313 0.34375 6.15625C0.34375 4.41953 1.5625 2.96211 3.1875 2.59141V1.6875C3.1875 1.24062 3.55312 0.875 4 0.875C4.44688 0.875 4.8125 1.24062 4.8125 1.6875V2.59141C6.4375 2.96211 7.65625 4.41953 7.65625 6.15625C7.65625 8.17227 6.01602 9.8125 4 9.8125C2.87773 9.8125 1.96875 10.7215 1.96875 11.8438C1.96875 12.966 2.87773 13.875 4 13.875C5.12227 13.875 6.03125 12.966 6.03125 11.8438C6.03125 11.3969 6.39688 11.0312 6.84375 11.0312C7.29063 11.0312 7.65625 11.3969 7.65625 11.8438C7.65625 13.5805 6.4375 15.0379 4.8125 15.4086V16.3125C4.8125 16.7594 4.44688 17.125 4 17.125C3.55312 17.125 3.1875 16.7594 3.1875 16.3125V15.4086C1.5625 15.0379 0.34375 13.5805 0.34375 11.8438C0.34375 9.82773 1.98398 8.1875 4 8.1875Z" fill="#242C33"/>
</svg>
