<svg width="18" height="18" viewBox="0 0 18 18" fill="none" xmlns="http://www.w3.org/2000/svg">
<path d="M4.5486 8.20463C4.63973 8.00325 4.83998 7.875 5.06048 7.875H7.31048V0.5625C7.31048 0.252 7.56248 0 7.87298 0H10.123C10.4335 0 10.6855 0.252 10.6855 0.5625V7.875H12.9355C13.156 7.875 13.3562 8.00438 13.4474 8.20463C13.5396 8.406 13.5036 8.64112 13.3585 8.80762L9.42098 13.3076C9.3141 13.4303 9.15998 13.5 8.99798 13.5C8.83598 13.5 8.68185 13.4291 8.57498 13.3076L4.63748 8.80762C4.49123 8.64225 4.45748 8.406 4.5486 8.20463Z" fill="black"/>
<path d="M2.8125 12.375V15.75H15.1875V12.375H17.4375V16.875C17.4375 17.4971 16.9335 18 16.3125 18H1.6875C1.06537 18 0.5625 17.4971 0.5625 16.875V12.375H2.8125Z" fill="black"/>
</svg>
