<svg width="18" height="18" viewBox="0 0 18 18" fill="none" xmlns="http://www.w3.org/2000/svg">
<path d="M14.7855 9.00032C14.4305 9.00032 14.1426 9.28813 14.1426 9.64318V16.0716C14.1426 16.4267 13.8548 16.7145 13.4998 16.7145H1.92855C1.5735 16.7145 1.28568 16.4267 1.28568 16.0716V3.21468C1.28568 2.85963 1.5735 2.57182 1.92855 2.57182H9.64273C9.99778 2.57182 10.2856 2.284 10.2856 1.92896C10.2856 1.57391 9.99778 1.28613 9.64273 1.28613H1.92855C0.863439 1.28613 0 2.14957 0 3.21468V16.0716C0 17.1367 0.863439 18.0002 1.92855 18.0002H13.4998C14.5649 18.0002 15.4284 17.1367 15.4284 16.0716V9.64314C15.4284 9.28813 15.1406 9.00032 14.7855 9.00032Z" fill="white"/>
<path d="M17.2789 0.72088C16.8173 0.259234 16.1913 -6.51633e-05 15.5385 1.01705e-05C14.8853 -0.00187318 14.2586 0.257878 13.7983 0.721294L5.33067 9.18821C5.26042 9.25899 5.20742 9.34502 5.17574 9.43956L3.89006 13.2967C3.77785 13.6335 3.95997 13.9975 4.29682 14.1097C4.36217 14.1315 4.43061 14.1426 4.49947 14.1427C4.56848 14.1425 4.63707 14.1315 4.70261 14.1099L8.5597 12.8242C8.65443 12.7926 8.7405 12.7393 8.81105 12.6686L17.2787 4.20104C18.2397 3.24008 18.2398 1.68195 17.2789 0.72088ZM16.3697 3.29266L8.01263 11.6497L5.5158 12.4835L6.34699 9.98984L14.7072 1.63283C15.1669 1.17413 15.9113 1.17488 16.37 1.63449C16.5892 1.85405 16.7126 2.15128 16.7136 2.46147C16.7144 2.77331 16.5906 3.07254 16.3697 3.29266Z" fill="white"/>
</svg>
