<svg width="18" height="18" viewBox="0 0 18 18" fill="none" xmlns="http://www.w3.org/2000/svg">
<path d="M14.7855 9.00032C14.4305 9.00032 14.1426 9.28813 14.1426 9.64318V16.0716C14.1426 16.4267 13.8548 16.7145 13.4998 16.7145H1.92855C1.5735 16.7145 1.28568 16.4267 1.28568 16.0716V3.21468C1.28568 2.85963 1.5735 2.57182 1.92855 2.57182H9.64273C9.99778 2.57182 10.2856 2.284 10.2856 1.92896C10.2856 1.57391 9.99778 1.28613 9.64273 1.28613H1.92855C0.863439 1.28613 0 2.14957 0 3.21468V16.0716C0 17.1367 0.863439 18.0002 1.92855 18.0002H13.4998C14.5649 18.0002 15.4284 17.1367 15.4284 16.0716V9.64314C15.4284 9.28813 15.1406 9.00032 14.7855 9.00032Z" fill="#444F58"/>
<path d="M17.2784 0.72088C16.8169 0.259234 16.1908 -6.51633e-05 15.538 1.01705e-05C14.8848 -0.00187318 14.2581 0.257878 13.7978 0.721294L5.33018 9.18821C5.25993 9.25899 5.20693 9.34502 5.17525 9.43956L3.88957 13.2967C3.77736 13.6335 3.95948 13.9975 4.29633 14.1097C4.36169 14.1315 4.43013 14.1426 4.49898 14.1427C4.56799 14.1425 4.63658 14.1315 4.70212 14.1099L8.55921 12.8242C8.65394 12.7926 8.74001 12.7393 8.81056 12.6686L17.2782 4.20104C18.2392 3.24008 18.2393 1.68195 17.2784 0.72088ZM16.3692 3.29266L8.01214 11.6497L5.51531 12.4835L6.34651 9.98984L14.7068 1.63283C15.1664 1.17413 15.9109 1.17488 16.3696 1.63449C16.5887 1.85405 16.7121 2.15128 16.7131 2.46147C16.7139 2.77331 16.5901 3.07254 16.3692 3.29266Z" fill="#444F58"/>
</svg>
