<svg width="34" height="27" viewBox="0 0 34 27" fill="none" xmlns="http://www.w3.org/2000/svg">
<path d="M0 2C0 0.895431 0.895431 0 2 0H32C33.1046 0 34 0.895431 34 2V25C34 26.1046 33.1046 27 32 27H2C0.89543 27 0 26.1046 0 25V2Z" fill="white"/>
<path d="M16.9998 24.1998C22.6331 24.1998 27.1998 19.6331 27.1998 13.9998C27.1998 8.3665 22.6331 3.7998 16.9998 3.7998C11.3665 3.7998 6.7998 8.3665 6.7998 13.9998C6.7998 19.6331 11.3665 24.1998 16.9998 24.1998Z" fill="#FFC10E"/>
<path d="M23.3001 13.9997C23.2401 17.4797 20.4801 20.2397 17.0001 20.2997C13.5201 20.3597 10.7601 17.4197 10.7001 13.9997C10.7001 13.4597 9.86006 13.4597 9.92006 13.9997C9.98006 17.8997 13.1001 21.0197 17.0601 21.1397C20.9001 21.1997 24.0201 17.8397 24.1401 13.9997C24.1401 13.4597 23.3001 13.4597 23.3001 13.9997Z" fill="#333333"/>
<path d="M13.8798 12.0798C14.7745 12.0798 15.4998 11.3545 15.4998 10.4598C15.4998 9.56514 14.7745 8.83984 13.8798 8.83984C12.9851 8.83984 12.2598 9.56514 12.2598 10.4598C12.2598 11.3545 12.9851 12.0798 13.8798 12.0798Z" fill="#333333"/>
<path d="M19.9403 12.0798C20.835 12.0798 21.5603 11.3545 21.5603 10.4598C21.5603 9.56514 20.835 8.83984 19.9403 8.83984C19.0456 8.83984 18.3203 9.56514 18.3203 10.4598C18.3203 11.3545 19.0456 12.0798 19.9403 12.0798Z" fill="#333333"/>
</svg>
