<svg width="27" height="27" viewBox="0 0 27 27" fill="none" xmlns="http://www.w3.org/2000/svg">
<path d="M26.9037 13.8852C26.9037 6.68892 21.07 0.855217 13.8737 0.855217C6.67745 0.855217 0.84375 6.68892 0.84375 13.8852C0.84375 20.3888 5.60862 25.7793 11.8378 26.7568V17.6516H8.52939V13.8852H11.8378V11.0145C11.8378 7.74888 13.7831 5.94504 16.7594 5.94504C18.185 5.94504 19.6761 6.19953 19.6761 6.19953V9.40612H18.0331C16.4144 9.40612 15.9096 10.4105 15.9096 11.441V13.8852H19.5234L18.9457 17.6516H15.9096V26.7568C22.1388 25.7793 26.9037 20.3888 26.9037 13.8852Z" fill="#1877F2"/>
<path d="M18.9456 17.6522L19.5233 13.8857H15.9095V11.4415C15.9095 10.411 16.4143 9.40665 18.033 9.40665H19.676V6.20006C19.676 6.20006 18.1849 5.94556 16.7593 5.94556C13.783 5.94556 11.8377 7.7494 11.8377 11.015V13.8857H8.5293V17.6522H11.8377V26.7574C12.5011 26.8614 13.181 26.9156 13.8736 26.9156C14.5662 26.9156 15.2462 26.8614 15.9095 26.7574V17.6522H18.9456Z" fill="white"/>
</svg>
