<svg width="20" height="24" viewBox="0 0 20 24" fill="none" xmlns="http://www.w3.org/2000/svg">
<path d="M18.499 2.7168H17.7972V19.9574C17.7972 21.1028 16.8649 22.0351 15.7195 22.0351H8.60922H2.95508V22.6742C2.95508 23.406 3.54906 24 4.28089 24H11.3887H18.4964C19.2283 24 19.8222 23.406 19.8222 22.6742V4.04261C19.8223 3.31078 19.2308 2.7168 18.499 2.7168Z" fill="#295ECD"/>
<path d="M8.60882 21.2832H15.7166C16.4484 21.2832 17.0424 20.6892 17.0424 19.9574V2.71679V1.32581C17.0424 0.593985 16.4484 0 15.7166 0H8.60882H6.24541V0.438596C6.2504 0.483709 6.25293 0.531328 6.25293 0.578947V3.46867V4.21053C6.25293 5.2406 5.41583 6.07769 4.38576 6.07769H3.6439H0.754176C0.716582 6.07769 0.676482 6.07519 0.638888 6.07268H0.177734V19.9574C0.177734 20.6892 0.77172 21.2832 1.50355 21.2832H2.95719H8.60882ZM8.87699 16.7769H4.2429C3.89704 16.7769 3.61633 16.4962 3.61633 16.1504C3.61633 15.8045 3.89704 15.5238 4.2429 15.5238H8.8795C9.22536 15.5238 9.50607 15.8045 9.50607 16.1504C9.50607 16.4962 9.22286 16.7769 8.87699 16.7769ZM13.5136 13.579H4.2429C3.89704 13.579 3.61633 13.2982 3.61633 12.9524C3.61633 12.6065 3.89704 12.3258 4.2429 12.3258H13.5136C13.8595 12.3258 14.1402 12.6065 14.1402 12.9524C14.1402 13.2982 13.8595 13.579 13.5136 13.579ZM4.2429 8.92982H13.5136C13.8595 8.92982 14.1402 9.21053 14.1402 9.55639C14.1402 9.90226 13.8595 10.183 13.5136 10.183H4.2429C3.89704 10.183 3.61633 9.90226 3.61633 9.55639C3.61633 9.21053 3.89704 8.92982 4.2429 8.92982Z" fill="#295ECD"/>
<path d="M0.754587 5.32725H4.38617C4.38867 5.32725 4.39369 5.32725 4.39619 5.32725C5.00271 5.32224 5.49394 4.83101 5.49895 4.22449C5.49895 4.22199 5.49895 4.21697 5.49895 4.21447V0.580382C5.49895 0.244542 5.22326 0.0214844 4.93757 0.0214844C4.79973 0.0214844 4.66188 0.0716097 4.54659 0.186898L0.358597 4.37487C0.00771986 4.72574 0.25584 5.32725 0.754587 5.32725Z" fill="#295ECD"/>
</svg>
