<svg width="24" height="24" viewBox="0 0 24 24" fill="none" xmlns="http://www.w3.org/2000/svg">
<path d="M20.4989 2.7168H19.7971V19.9574C19.7971 21.1028 18.8648 22.0351 17.7195 22.0351H10.6092H4.95502V22.6742C4.95502 23.406 5.549 24 6.28083 24H13.3886H20.4964C21.2282 24 21.8222 23.406 21.8222 22.6742V4.04261C21.8222 3.31078 21.2307 2.7168 20.4989 2.7168Z" fill="#477CEB"/>
<path d="M10.609 21.2832H17.7168C18.4486 21.2832 19.0426 20.6892 19.0426 19.9574V2.71679V1.32581C19.0426 0.593985 18.4486 0 17.7168 0H10.609H8.24562V0.438596C8.25061 0.483709 8.25314 0.531328 8.25314 0.578947V3.46867V4.21053C8.25314 5.2406 7.41605 6.07769 6.38597 6.07769H5.64412H2.75439C2.7168 6.07769 2.6767 6.07519 2.6391 6.07268H2.17795V19.9574C2.17795 20.6892 2.77193 21.2832 3.50376 21.2832H4.9574H10.609ZM10.8772 16.7769H6.24312C5.89725 16.7769 5.61655 16.4962 5.61655 16.1504C5.61655 15.8045 5.89725 15.5238 6.24312 15.5238H10.8797C11.2256 15.5238 11.5063 15.8045 11.5063 16.1504C11.5063 16.4962 11.2231 16.7769 10.8772 16.7769ZM15.5138 13.579H6.24312C5.89725 13.579 5.61655 13.2982 5.61655 12.9524C5.61655 12.6065 5.89725 12.3258 6.24312 12.3258H15.5138C15.8597 12.3258 16.1404 12.6065 16.1404 12.9524C16.1404 13.2982 15.8597 13.579 15.5138 13.579ZM6.24312 8.92982H15.5138C15.8597 8.92982 16.1404 9.21053 16.1404 9.55639C16.1404 9.90226 15.8597 10.183 15.5138 10.183H6.24312C5.89725 10.183 5.61655 9.90226 5.61655 9.55639C5.61655 9.21053 5.89725 8.92982 6.24312 8.92982Z" fill="#477CEB"/>
<path d="M2.75501 5.32676H6.38659C6.3891 5.32676 6.39411 5.32676 6.39662 5.32676C7.00314 5.32175 7.49436 4.83052 7.49938 4.224C7.49938 4.2215 7.49938 4.21649 7.49938 4.21398V0.579893C7.49938 0.244054 7.22369 0.0209961 6.938 0.0209961C6.80015 0.0209961 6.66231 0.0711214 6.54702 0.18641L2.35902 4.37438C2.00815 4.72526 2.25627 5.32676 2.75501 5.32676Z" fill="#477CEB"/>
</svg>
