<svg width="10" height="31" viewBox="0 0 10 31" fill="none" xmlns="http://www.w3.org/2000/svg">
<path fill-rule="evenodd" clip-rule="evenodd" d="M4.99969 1.99994C6.65719 1.99994 7.99923 3.34318 7.99923 4.99995C7.99923 6.65684 6.65719 7.99997 4.99969 7.99997C3.34402 7.99997 2.00016 6.65684 2.00016 4.99995C2.00016 3.34318 3.34402 1.99994 4.99969 1.99994Z" fill="#4E5861"/>
<path fill-rule="evenodd" clip-rule="evenodd" d="M4.99969 13C6.65719 13 7.99923 14.3431 7.99923 16C7.99923 17.6568 6.65719 19 4.99969 19C3.34402 19 2.00016 17.6568 2.00016 16C2.00016 14.3431 3.34402 13 4.99969 13Z" fill="#4E5861"/>
<path fill-rule="evenodd" clip-rule="evenodd" d="M4.99969 23C6.65719 23 7.99923 24.3432 7.99923 26.0001C7.99923 27.6568 6.65719 29.0001 4.99969 29.0001C3.34402 29.0001 2.00016 27.6568 2.00016 26.0001C2.00016 24.3432 3.34402 23 4.99969 23Z" fill="#4E5861" />
</svg>
