<svg width="10" height="29" viewBox="0 0 10 29" fill="none" xmlns="http://www.w3.org/2000/svg">
<path fill-rule="evenodd" clip-rule="evenodd" d="M5.00014 1.00002C6.65764 1.00002 7.99968 2.34314 7.99968 4.00003C7.99968 5.6568 6.65764 7.00005 5.00014 7.00005C3.34265 7.00005 2.00061 5.6568 2.00061 4.00003C2.00061 2.34314 3.34265 1.00002 5.00014 1.00002Z" fill="white"/>
<path fill-rule="evenodd" clip-rule="evenodd" d="M5.00014 11.9999C6.65764 11.9999 7.99968 13.3432 7.99968 15C7.99968 16.6568 6.65764 18 5.00014 18C3.34265 18 2.00061 16.6568 2.00061 15C2.00061 13.3432 3.34265 11.9999 5.00014 11.9999Z" fill="white"/>
<path fill-rule="evenodd" clip-rule="evenodd" d="M5.00014 22C6.65764 22 7.99968 23.3431 7.99968 25C7.99968 26.6569 6.65764 28 5.00014 28C3.34265 28 2.00061 26.6569 2.00061 25C2.00061 23.3431 3.34265 22 5.00014 22Z" fill="white"/>
</svg>
