<svg width="22" height="22" viewBox="0 0 22 22" fill="none" xmlns="http://www.w3.org/2000/svg">
<path d="M13.2303 12.2286L16.5151 15.5135L16.5 13.75C16.5 13.3705 16.808 13.0625 17.1875 13.0625C17.567 13.0625 17.875 13.3705 17.875 13.75V17.1875C17.875 17.391 17.7911 17.5553 17.6578 17.6688C17.5334 17.796 17.3601 17.875 17.1683 17.875H13.75C13.3705 17.875 13.0625 17.567 13.0625 17.1875C13.0625 16.808 13.3705 16.5 13.75 16.5H15.5575L12.2581 13.2007L13.2303 12.2286ZM13.75 5.5C13.3705 5.5 13.0625 5.192 13.0625 4.8125C13.0625 4.433 13.3705 4.125 13.75 4.125H17.1682C17.36 4.125 17.5333 4.20477 17.6577 4.33123C17.7911 4.44468 17.875 4.609 17.875 4.8125V8.25C17.875 8.6295 17.567 8.9375 17.1875 8.9375C16.808 8.9375 16.5 8.6295 16.5 8.25L16.5151 6.48587L13.2303 9.77073L12.2581 8.7986L15.5568 5.5H13.75ZM4.8125 13.0625C5.192 13.0625 5.5 13.3705 5.5 13.75L5.48487 15.5141L8.76977 12.2292L9.74187 13.2014L6.44258 16.5H8.25C8.6295 16.5 8.9375 16.808 8.9375 17.1875C8.9375 17.567 8.6295 17.875 8.25 17.875H4.83173C4.63927 17.875 4.46668 17.7952 4.34227 17.6681C4.20887 17.5553 4.125 17.391 4.125 17.1875V13.75C4.125 13.3705 4.433 13.0625 4.8125 13.0625ZM4.83173 4.125H8.25C8.6295 4.125 8.9375 4.433 8.9375 4.8125C8.9375 5.192 8.6295 5.5 8.25 5.5H6.44323L9.74255 8.79932L8.77041 9.77145L5.48555 6.48659L5.5 8.25C5.5 8.6295 5.192 8.9375 4.8125 8.9375C4.433 8.9375 4.125 8.6295 4.125 8.25V4.8125C4.125 4.609 4.20959 4.44468 4.34227 4.33123C4.46668 4.20477 4.63991 4.125 4.83173 4.125ZM2.75 0H19.25C20.7687 0 22 1.23132 22 2.75V19.25C22 20.7687 20.7687 22 19.25 22H2.75C1.23132 22 -1.90735e-06 20.7687 -1.90735e-06 19.25V2.75C-1.90735e-06 1.23132 1.23132 0 2.75 0ZM1.375 19.25C1.375 20.0097 1.99032 20.625 2.75 20.625H19.25C20.0097 20.625 20.625 20.0097 20.625 19.25V2.75C20.625 1.991 20.0097 1.375 19.25 1.375H2.75C1.99032 1.375 1.375 1.991 1.375 2.75V19.25Z" fill="white"/>
</svg>
