<svg width="22" height="11" viewBox="0 0 22 11" fill="none" xmlns="http://www.w3.org/2000/svg">
<path d="M7.67 5.398H8.918V8.947C8.46733 9.31967 7.943 9.60567 7.345 9.805C6.747 10.0043 6.123 10.104 5.473 10.104C4.55433 10.104 3.72667 9.90467 2.99 9.506C2.25333 9.09867 1.67267 8.544 1.248 7.842C0.832 7.13133 0.624 6.334 0.624 5.45C0.624 4.566 0.832 3.76867 1.248 3.058C1.67267 2.34733 2.25333 1.79267 2.99 1.394C3.73533 0.995333 4.57167 0.796 5.499 0.796C6.227 0.796 6.88567 0.917333 7.475 1.16C8.073 1.394 8.58 1.74067 8.996 2.2L8.19 3.006C7.462 2.304 6.58233 1.953 5.551 1.953C4.85767 1.953 4.23367 2.10467 3.679 2.408C3.133 2.70267 2.704 3.11867 2.392 3.656C2.08 4.18467 1.924 4.78267 1.924 5.45C1.924 6.10867 2.08 6.70667 2.392 7.244C2.704 7.77267 3.133 8.18867 3.679 8.492C4.23367 8.79533 4.85333 8.947 5.538 8.947C6.35267 8.947 7.06333 8.752 7.67 8.362V5.398ZM11.407 0.899999H12.707V10H11.407V0.899999ZM16.7314 2.031V5.203H21.2944V6.321H16.7314V10H15.4314V0.899999H21.8534V2.031H16.7314Z" fill="black"/>
</svg>
