<svg width="24" height="23" viewBox="0 0 24 23" fill="none" xmlns="http://www.w3.org/2000/svg">
<path fill-rule="evenodd" clip-rule="evenodd" d="M1 0C0.447715 0 0 0.447715 0 1V8.6C0 9.15228 0.447716 9.6 1 9.6H9.4C9.95228 9.6 10.4 9.15229 10.4 8.6V1C10.4 0.447715 9.95228 0 9.4 0H1ZM14.5996 0C14.0473 0 13.5996 0.447715 13.5996 1V8.6C13.5996 9.15228 14.0473 9.6 14.5996 9.6H22.9996C23.5519 9.6 23.9996 9.15229 23.9996 8.6V1C23.9996 0.447715 23.5519 0 22.9996 0H14.5996ZM13.5996 13.8C13.5996 13.2478 14.0473 12.8 14.5996 12.8H22.9996C23.5519 12.8 23.9996 13.2478 23.9996 13.8V21.4C23.9996 21.9523 23.5519 22.4 22.9996 22.4H14.5996C14.0473 22.4 13.5996 21.9523 13.5996 21.4V13.8ZM1 12.8C0.447715 12.8 0 13.2478 0 13.8V21.4C0 21.9523 0.447716 22.4 1 22.4H9.4C9.95228 22.4 10.4 21.9523 10.4 21.4V13.8C10.4 13.2478 9.95228 12.8 9.4 12.8H1Z" fill="#A1A7AB"/>
</svg>
