<svg width="30" height="30" viewBox="0 0 30 30" fill="none" xmlns="http://www.w3.org/2000/svg">
<g clip-path="url(#clip0)">
<path d="M10.5086 13.5911H11.5661V15.8734C11.5665 15.9796 11.5971 16.0833 11.6541 16.1715C11.7111 16.2597 11.792 16.3284 11.8866 16.369C11.9812 16.4096 12.0852 16.4203 12.1856 16.3996C12.286 16.379 12.3783 16.328 12.4508 16.2531L15.0203 13.5911H18.6152C19.2658 13.5911 19.8897 13.3229 20.3497 12.8456C20.8097 12.3683 21.0682 11.7209 21.0682 11.0459V7.5452C21.0682 6.87017 20.8097 6.22279 20.3497 5.74547C19.8897 5.26815 19.2658 5 18.6152 5H10.5086C9.85802 5 9.23411 5.26815 8.7741 5.74547C8.31409 6.22279 8.05566 6.87017 8.05566 7.5452V11.0459C8.05566 11.7209 8.31409 12.3683 8.7741 12.8456C9.23411 13.3229 9.85802 13.5911 10.5086 13.5911ZM10.9388 7.4242H18.1005C18.2605 7.4242 18.4139 7.49014 18.527 7.60751C18.6402 7.72489 18.7037 7.88408 18.7037 8.05007C18.7037 8.21606 18.6402 8.37525 18.527 8.49263C18.4139 8.61 18.2605 8.67594 18.1005 8.67594H10.9388C10.7789 8.67594 10.6254 8.61 10.5123 8.49263C10.3992 8.37525 10.3357 8.21606 10.3357 8.05007C10.3357 7.88408 10.3992 7.72489 10.5123 7.60751C10.6254 7.49014 10.7789 7.4242 10.9388 7.4242ZM10.9388 9.88178H16.8902C17.0381 9.89954 17.1747 9.97312 17.2737 10.0885C17.3728 10.2039 17.4276 10.3531 17.4276 10.5076C17.4276 10.6622 17.3728 10.8114 17.2737 10.9268C17.1747 11.0422 17.0381 11.1158 16.8902 11.1335H10.9388C10.7909 11.1158 10.6544 11.0422 10.5553 10.9268C10.4562 10.8114 10.4014 10.6622 10.4014 10.5076C10.4014 10.3531 10.4562 10.2039 10.5553 10.0885C10.6544 9.97312 10.7909 9.89954 10.9388 9.88178Z" fill="white"/>
<path d="M16.4986 20.2594C16.9533 19.1204 16.432 17.8146 15.3343 17.3428C14.2366 16.8711 12.9782 17.4119 12.5235 18.5509C12.0688 19.6899 12.5901 20.9957 13.6878 21.4675C14.7855 21.9393 16.0439 21.3984 16.4986 20.2594Z" fill="white"/>
<path d="M20.9493 21.5624C22.1057 21.2792 22.8219 20.0769 22.549 18.877C22.276 17.6771 21.1174 16.934 19.961 17.2172C18.8046 17.5004 18.0884 18.7027 18.3614 19.9026C18.6343 21.1024 19.793 21.8456 20.9493 21.5624Z" fill="white"/>
<path d="M9.00891 21.5672C10.1653 21.284 10.8815 20.0818 10.6085 18.8819C10.3356 17.682 9.17692 16.9389 8.02055 17.2221C6.86418 17.5053 6.14801 18.7076 6.42094 19.9074C6.69387 21.1073 7.85254 21.8504 9.00891 21.5672Z" fill="white"/>
<path d="M14.5264 22.8957C13.9867 22.8964 13.4547 22.7631 12.9748 22.5069C12.4949 22.2506 12.0811 21.8789 11.7679 21.4229C11.4909 21.6984 11.2753 22.0336 11.1364 22.4048C10.9974 22.776 10.9385 23.1743 10.9637 23.5717V25.2156C10.9637 25.7288 11.1326 26 11.7036 26H17.2206C17.6227 26 18.065 25.8707 18.065 25.0738V23.3046C17.9955 22.6148 17.7135 21.9666 17.2608 21.4562C16.9463 21.9025 16.5348 22.2654 16.0597 22.5156C15.5845 22.7657 15.0592 22.8959 14.5264 22.8957Z" fill="white"/>
<path d="M9.8252 22.6205C9.42656 22.7874 9.00047 22.8724 8.5706 22.8708C8.02954 22.8729 7.4959 22.7402 7.0145 22.4839C6.5331 22.2276 6.11799 21.8552 5.80404 21.3979C5.527 21.6735 5.31145 22.0087 5.17251 22.3799C5.03358 22.7511 4.97463 23.1494 4.99981 23.5468V25.1907C4.99981 25.7039 5.16869 25.9751 5.7397 25.9751H9.8252C9.7688 25.8044 9.73762 25.6257 9.73272 25.4452V23.4633C9.72848 23.1794 9.75956 22.8961 9.8252 22.6205Z" fill="white"/>
<path d="M23.1998 21.4229C22.8905 21.8781 22.4803 22.2495 22.0037 22.5058C21.5271 22.7621 20.9982 22.8959 20.4614 22.8957C20.0342 22.897 19.6108 22.8119 19.2148 22.6454C19.2771 22.9187 19.3055 23.1991 19.2993 23.4799V25.4576C19.2974 25.6391 19.2689 25.8191 19.2148 25.9917H23.2642C23.8311 25.9917 24 25.7205 24 25.2073V23.5717C24.0246 23.1747 23.9658 22.777 23.8276 22.406C23.6895 22.0349 23.4753 21.6995 23.1998 21.4229Z" fill="white"/>
</g>
<defs>
<clipPath id="clip0">
<rect width="19" height="21" fill="white" transform="translate(5 5)"/>
</clipPath>
</defs>
</svg>
