<svg width="23" height="25" viewBox="0 0 23 25" fill="none" xmlns="http://www.w3.org/2000/svg">
<g clip-path="url(#clip0)">
<path d="M6.66902 10.2275H7.94923V12.9446C7.94965 13.071 7.9867 13.1945 8.05573 13.2994C8.12475 13.4044 8.22267 13.4862 8.33715 13.5345C8.45163 13.5829 8.57756 13.5955 8.69909 13.571C8.82062 13.5464 8.93232 13.4858 9.02013 13.3966L12.1306 10.2275H16.4824C17.2699 10.2275 18.0251 9.90827 18.582 9.34003C19.1388 8.77179 19.4517 8.0011 19.4517 7.1975V3.03C19.4517 2.2264 19.1388 1.4557 18.582 0.887467C18.0251 0.319231 17.2699 0 16.4824 0L6.66902 0C5.88151 0 5.12625 0.319231 4.5694 0.887467C4.01254 1.4557 3.69971 2.2264 3.69971 3.03V7.1975C3.69971 8.0011 4.01254 8.77179 4.5694 9.34003C5.12625 9.90827 5.88151 10.2275 6.66902 10.2275ZM7.18987 2.88595H15.8593C16.0529 2.88595 16.2387 2.96445 16.3756 3.10418C16.5125 3.24391 16.5894 3.43343 16.5894 3.63103C16.5894 3.82864 16.5125 4.01816 16.3756 4.15789C16.2387 4.29762 16.0529 4.37612 15.8593 4.37612H7.18987C6.99622 4.37612 6.8105 4.29762 6.67357 4.15789C6.53663 4.01816 6.45971 3.82864 6.45971 3.63103C6.45971 3.43343 6.53663 3.24391 6.67357 3.10418C6.8105 2.96445 6.99622 2.88595 7.18987 2.88595ZM7.18987 5.81164H14.3941C14.5732 5.83278 14.7385 5.92038 14.8584 6.05776C14.9784 6.19514 15.0447 6.37272 15.0447 6.55673C15.0447 6.74073 14.9784 6.91831 14.8584 7.05569C14.7385 7.19307 14.5732 7.28067 14.3941 7.30181H7.18987C7.01074 7.28067 6.84548 7.19307 6.72553 7.05569C6.60557 6.91831 6.53929 6.74073 6.53929 6.55673C6.53929 6.37272 6.60557 6.19514 6.72553 6.05776C6.84548 5.92038 7.01074 5.83278 7.18987 5.81164Z" fill="#4E5861"/>
<path d="M13.9189 18.1662C14.4693 16.8102 13.8383 15.2557 12.5095 14.694C11.1807 14.1324 9.65735 14.7763 9.10695 16.1322C8.55654 17.4882 9.18755 19.0427 10.5163 19.6044C11.8451 20.166 13.3685 19.5221 13.9189 18.1662Z" fill="#4E5861"/>
<path d="M19.3072 19.7171C20.707 19.38 21.574 17.9487 21.2436 16.5203C20.9132 15.0919 19.5106 14.2072 18.1108 14.5443C16.7109 14.8815 15.844 16.3128 16.1744 17.7412C16.5048 19.1696 17.9074 20.0543 19.3072 19.7171Z" fill="#4E5861"/>
<path d="M4.8531 19.723C6.25292 19.3859 7.11986 17.9546 6.78948 16.5262C6.45909 15.0977 5.05648 14.2131 3.65666 14.5502C2.25685 14.8873 1.3899 16.3186 1.72029 17.747C2.05068 19.1755 3.45328 20.0601 4.8531 19.723Z" fill="#4E5861"/>
<path d="M11.5316 21.3042C10.8782 21.3051 10.2342 21.1463 9.65329 20.8413C9.07236 20.5362 8.57142 20.0937 8.19232 19.5508C7.85695 19.8789 7.59602 20.2779 7.42784 20.7198C7.25965 21.1617 7.1883 21.6358 7.21877 22.1089V24.066C7.21877 24.6769 7.42322 24.9998 8.11443 24.9998H14.7929C15.2797 24.9998 15.8152 24.8458 15.8152 23.8971V21.791C15.731 20.9698 15.3896 20.1981 14.8416 19.5905C14.4609 20.1218 13.9628 20.5539 13.3876 20.8516C12.8124 21.1494 12.1765 21.3045 11.5316 21.3042Z" fill="#4E5861"/>
<path d="M5.84129 20.9764C5.35872 21.1751 4.84294 21.2763 4.32256 21.2744C3.66759 21.2769 3.02161 21.1189 2.43886 20.8138C1.85612 20.5087 1.35362 20.0653 0.973566 19.521C0.638202 19.8491 0.37727 20.2481 0.209087 20.69C0.0409036 21.1319 -0.0304546 21.6061 2.1331e-05 22.0791V24.0362C2.1331e-05 24.6472 0.204466 24.97 0.895683 24.97H5.84129C5.77301 24.7667 5.73526 24.554 5.72933 24.3392V21.9798C5.7242 21.6418 5.76183 21.3045 5.84129 20.9764Z" fill="#4E5861"/>
<path d="M22.0314 19.5508C21.657 20.0927 21.1604 20.5349 20.5835 20.84C20.0066 21.1452 19.3663 21.3044 18.7165 21.3042C18.1993 21.3057 17.6868 21.2045 17.2075 21.0062C17.2829 21.3315 17.3172 21.6654 17.3097 21.9996V24.3541C17.3074 24.5701 17.273 24.7845 17.2075 24.9899H22.1093C22.7957 24.9899 23.0001 24.667 23.0001 24.056V22.1089C23.0299 21.6363 22.9587 21.1628 22.7914 20.7212C22.6242 20.2795 22.3649 19.8801 22.0314 19.5508Z" fill="#4E5861"/>
</g>
<defs>
<clipPath id="clip0">
<rect width="23" height="25" fill="white"/>
</clipPath>
</defs>
</svg>
