<svg width="22" height="22" viewBox="0 0 22 22" fill="none" xmlns="http://www.w3.org/2000/svg">
<path fill-rule="evenodd" clip-rule="evenodd" d="M11.0003 5.50002C7.96494 5.50002 5.50016 7.96399 5.50016 11C5.50016 14.036 7.96494 16.5 11.0003 16.5C14.0369 16.5 16.5005 14.036 16.5005 11C16.5005 7.96399 14.0369 5.50002 11.0003 5.50002ZM11.0003 0C4.92356 0 0 4.92247 0 11C0 17.0775 4.92356 22 11.0003 22C17.0783 22 22.0006 17.0775 22.0006 11C22.0006 4.92247 17.0783 0 11.0003 0ZM11.0003 19.8C6.13843 19.8 2.20007 15.8621 2.20007 11C2.20007 6.13794 6.13843 2.19991 11.0003 2.19991C15.8622 2.19991 19.8006 6.13794 19.8006 11C19.8006 15.862 15.8622 19.8 11.0003 19.8Z" fill="#FF0000"/>
</svg>
