<svg width="15" height="15" viewBox="0 0 15 15" fill="none" xmlns="http://www.w3.org/2000/svg">
<path d="M5.48078 12C5.35256 11.9996 5.22579 11.9759 5.10836 11.9302C4.99093 11.8844 4.88533 11.8178 4.79815 11.7343L0.253475 7.44166C0.0835893 7.28091 -0.00741802 7.06682 0.000473558 6.84648C0.00836514 6.62615 0.114509 6.41763 0.295555 6.26679C0.476602 6.11594 0.71772 6.03514 0.965866 6.04214C1.21401 6.04915 1.44886 6.1434 1.61875 6.30415L5.47143 9.94916L13.3358 2.31041C13.4156 2.22217 13.5149 2.14935 13.6275 2.09641C13.7402 2.04348 13.8638 2.01156 13.9909 2.0026C14.118 1.99365 14.2457 2.00785 14.3664 2.04434C14.487 2.08083 14.598 2.13884 14.6925 2.2148C14.787 2.29076 14.863 2.38307 14.9158 2.48606C14.9687 2.58904 14.9973 2.70054 14.9998 2.81369C15.0024 2.92684 14.9788 3.03926 14.9307 3.14404C14.8825 3.24882 14.8107 3.34376 14.7197 3.42301L6.17277 11.726C6.0864 11.811 5.98118 11.8792 5.8637 11.9263C5.74623 11.9735 5.61904 11.9986 5.49013 12H5.48078Z" fill="#4E5861"/>
</svg>
