<svg width="25" height="25" viewBox="0 0 25 25" fill="none" xmlns="http://www.w3.org/2000/svg">
<path d="M20.0591 11.5174C20.0686 15.6409 16.6776 19.0159 12.5195 19.0253C8.33759 19.0347 4.94189 15.6785 4.94189 11.5362C4.94189 7.36569 8.2997 4.01891 12.5005 4.00008C16.6445 3.98125 20.0497 7.36569 20.0591 11.5174ZM12.491 6.73493C9.89099 6.72081 7.7077 8.85315 7.68402 11.428C7.66508 14.1063 9.7868 16.2857 12.4295 16.2999C15.1195 16.314 17.2791 14.2099 17.3028 11.5598C17.3217 8.89081 15.1905 6.75376 12.491 6.73493ZM12.5052 5.5958C12.6852 5.5911 12.832 5.44517 12.8368 5.27101C12.8415 5.08743 12.6757 4.92739 12.491 4.93209C12.3016 4.9368 12.1595 5.09214 12.169 5.28513C12.1785 5.46871 12.3158 5.60051 12.5052 5.5958Z" fill="#DA0A16"/>
<path d="M4.71384 21.9768C4.07449 21.9862 3.84716 21.6756 4.1029 21.139C4.25445 20.8189 4.47704 20.5176 4.72332 20.2681C5.5379 19.4444 6.5514 18.9313 7.60279 18.4653C7.92957 18.3194 8.1711 18.3617 8.48842 18.5312C11.2353 20.0092 13.9821 19.9716 16.6959 18.4276C16.8616 18.3335 16.9942 18.3147 17.1742 18.39C18.1261 18.776 19.0496 19.2184 19.8311 19.8869C20.1957 20.1975 20.5083 20.5788 20.8067 20.9601C20.9819 21.1907 21.0861 21.5014 20.9061 21.7744C20.7262 22.0474 20.3994 22.0192 20.1247 21.9627C19.1254 21.7603 18.1261 21.5391 17.1316 21.3131C15.3508 20.9083 13.5559 20.6447 11.7231 20.7388C10.0797 20.8189 8.47894 21.1578 6.88766 21.5438C6.22462 21.7038 5.55211 21.8309 4.8796 21.9721C4.8133 21.9721 4.74226 21.9721 4.71384 21.9768Z" fill="#DA0A16"/>
<path d="M12.4675 14.822C10.611 14.789 9.12868 13.278 9.17131 11.4705C9.21867 9.60175 10.7105 8.1849 12.6096 8.21785C14.4235 8.2508 15.8538 9.78062 15.8159 11.6447C15.7827 13.3957 14.2435 14.8502 12.4675 14.822ZM14.6177 11.527C14.6224 10.3643 13.6657 9.40405 12.5102 9.40876C11.3309 9.41346 10.3885 10.3455 10.379 11.5034C10.3695 12.6755 11.3214 13.6217 12.5102 13.6217C13.6563 13.6264 14.6129 12.6755 14.6177 11.527Z" fill="#DA0A16"/>
<path d="M12.4954 12.9154C11.6998 12.9154 11.051 12.2705 11.0557 11.4844C11.0604 10.6983 11.7187 10.0534 12.5096 10.0581C13.2958 10.0628 13.9304 10.6983 13.9304 11.4844C13.9304 12.2846 13.3005 12.9154 12.4954 12.9154Z" fill="#DA0A16"/>
<path d="M23.5291 2.43504L2.49964 23.5283C2.1549 23.8741 1.6033 23.8741 1.25856 23.5283C0.913814 23.1826 0.913814 22.6293 1.25856 22.2835L22.288 1.25934C22.6328 0.913552 23.1844 0.913552 23.5291 1.25934C23.8739 1.60514 23.8739 2.1584 23.5291 2.43504Z" fill="#DA0A16" stroke="white" stroke-width="0.5" stroke-miterlimit="10"/>
</svg>
