<svg width="23" height="23" viewBox="0 0 23 23" fill="none" xmlns="http://www.w3.org/2000/svg">
<path d="M16.119 7.17051H16.0937C15.6094 7.17051 15.2191 7.59101 15.2191 8.12068V11.9474C15.2191 12.0899 15.1037 12.2055 14.9614 12.2055C14.8191 12.2055 14.7036 12.0899 14.7036 11.9474V6.17555C14.7036 5.64588 14.3057 5.21501 13.8214 5.21501C13.3344 5.21501 12.9363 5.64588 12.9363 6.17555V12.0282C12.9363 12.1708 12.8209 12.2863 12.6786 12.2863C12.5363 12.2863 12.4208 12.1708 12.4208 12.0282V4.97221C12.4208 4.44268 12.0311 4 11.5467 4H11.52C11.0358 4 10.6535 4.4424 10.6535 4.97177V12.2182C10.6535 12.3606 10.5381 12.4762 10.3958 12.4762C10.2535 12.4762 10.138 12.3606 10.138 12.2182V5.46371C10.1012 4.95248 9.72769 4.54291 9.25551 4.54291C8.77125 4.54291 8.37228 4.97336 8.37185 5.50259L8.3707 10.2126V10.2144L8.36653 13.2196C8.36595 13.288 8.33819 13.3533 8.28944 13.4011C8.24068 13.4489 8.17509 13.4754 8.10678 13.4747C8.03875 13.4754 7.97316 13.4489 7.92484 13.4009C7.87637 13.3531 7.84904 13.2877 7.84904 13.2196L7.85077 10.8115L6.38332 12.1943C6.02274 12.5328 5.90337 13.0566 6.08171 13.5183L7.96626 18.4323C8.47281 19.396 9.42379 20 10.451 20H14.1404C15.7134 20 16.9945 18.6132 16.9962 16.9159V16.804C16.9992 13.6022 17.0024 10.2965 16.9974 8.12313C16.9962 7.59505 16.6021 7.17051 16.119 7.17051V7.17051Z" fill="#4E5861"/>
</svg>
