<svg width="23" height="23" viewBox="0 0 23 23" fill="none" xmlns="http://www.w3.org/2000/svg">
<path d="M19.0591 10.5174C19.0686 14.6409 15.6776 18.0159 11.5195 18.0253C7.33759 18.0347 3.94189 14.6785 3.94189 10.5362C3.94189 6.36569 7.2997 3.01891 11.5005 3.00008C15.6445 2.98125 19.0497 6.36569 19.0591 10.5174ZM11.491 5.73493C8.89099 5.72081 6.7077 7.85315 6.68402 10.428C6.66508 13.1063 8.7868 15.2857 11.4295 15.2999C14.1195 15.314 16.2791 13.2099 16.3028 10.5598C16.3217 7.89081 14.1905 5.75376 11.491 5.73493ZM11.5052 4.5958C11.6852 4.5911 11.832 4.44517 11.8368 4.27101C11.8415 4.08743 11.6757 3.92739 11.491 3.93209C11.3016 3.9368 11.1595 4.09214 11.169 4.28513C11.1785 4.46871 11.3158 4.60051 11.5052 4.5958Z" fill="#4E5861"/>
<path d="M3.71384 20.9768C3.07449 20.9862 2.84716 20.6756 3.1029 20.139C3.25445 19.8189 3.47704 19.5176 3.72332 19.2681C4.5379 18.4444 5.5514 17.9313 6.60279 17.4653C6.92957 17.3194 7.1711 17.3617 7.48842 17.5312C10.2353 19.0092 12.9821 18.9716 15.6959 17.4276C15.8616 17.3335 15.9942 17.3147 16.1742 17.39C17.1261 17.776 18.0496 18.2184 18.8311 18.8869C19.1957 19.1975 19.5083 19.5788 19.8067 19.9601C19.9819 20.1907 20.0861 20.5014 19.9061 20.7744C19.7262 21.0474 19.3994 21.0192 19.1247 20.9627C18.1254 20.7603 17.1261 20.5391 16.1316 20.3131C14.3508 19.9083 12.5559 19.6447 10.7231 19.7388C9.0797 19.8189 7.47894 20.1578 5.88766 20.5438C5.22462 20.7038 4.55211 20.8309 3.8796 20.9721C3.8133 20.9721 3.74226 20.9721 3.71384 20.9768Z" fill="#4E5861"/>
<path d="M11.4675 13.822C9.61104 13.789 8.12868 12.278 8.17131 10.4705C8.21867 8.60175 9.7105 7.1849 11.6096 7.21785C13.4235 7.2508 14.8538 8.78062 14.8159 10.6447C14.7827 12.3957 13.2435 13.8502 11.4675 13.822ZM13.6177 10.527C13.6224 9.36431 12.6657 8.40405 11.5102 8.40876C10.3309 8.41346 9.38845 9.34548 9.37898 10.5034C9.36951 11.6755 10.3214 12.6217 11.5102 12.6217C12.6563 12.6264 13.6129 11.6755 13.6177 10.527Z" fill="#4E5861"/>
<path d="M11.4954 11.9154C10.6998 11.9154 10.051 11.2705 10.0557 10.4844C10.0604 9.6983 10.7187 9.05342 11.5096 9.05813C12.2958 9.06284 12.9304 9.6983 12.9304 10.4844C12.9304 11.2846 12.3005 11.9154 11.4954 11.9154Z" fill="#4E5861"/>
<path d="M21.7617 2.32246L2.382 21.761C2.0643 22.0797 1.55598 22.0797 1.23828 21.761C0.920575 21.4423 0.920575 20.9325 1.23828 20.6138L20.618 1.239C20.9357 0.920334 21.444 0.920334 21.7617 1.239C22.0794 1.55766 22.0794 2.06753 21.7617 2.32246Z" fill="#4E5861" stroke="white" stroke-width="0.5" stroke-miterlimit="10"/>
</svg>
