<svg width="23" height="23" viewBox="0 0 23 23" fill="none" xmlns="http://www.w3.org/2000/svg">
<g clip-path="url(#clip0_6293_35431)">
<path d="M12.3132 9.1696C11.0655 9.35254 9.96326 9.79464 9.07152 10.6788C8.30224 11.4411 7.42198 13.2057 7.48705 13.8688C8.69645 12.2529 10.3766 11.7193 12.3285 11.7269C12.3285 12.3177 12.3285 12.8855 12.3285 13.4953C13.4307 12.4701 14.4985 11.4754 15.5855 10.4616C14.4947 9.45163 13.4269 8.45691 12.3132 7.42407C12.3132 8.04911 12.3132 8.60935 12.3132 9.1696Z" fill="#4E5861"/>
<path d="M21.1886 16.365H21.1733H19.7419H18.8846C18.766 16.365 18.7239 16.2087 18.8272 16.1478C19.3477 15.8429 19.6386 15.3779 19.6424 14.791C19.6539 12.1155 19.6616 9.44386 19.6539 6.7684C19.6539 5.79273 18.8578 5.00381 17.8781 5C13.6031 5 9.33188 5 5.05686 5C4.07326 5 3.36905 5.67458 3.36523 6.65025C3.35375 9.33714 3.3614 12.024 3.3614 14.7109C3.3614 15.3474 3.64079 15.8314 4.19191 16.1516C4.19191 16.1516 4.19574 16.1516 4.19574 16.1554C4.29907 16.2164 4.2608 16.3726 4.13833 16.3726H3.25806H2.00273H1.81137C1.36359 16.3726 1 16.7385 1 17.1844C1 17.6303 1.36359 17.9962 1.8152 17.9962H2.00656C8.34445 17.9962 14.6862 17.9962 21.0241 17.9962C21.0738 17.9962 21.1236 17.9962 21.1695 18C21.181 18 21.1925 18 21.2039 17.9962C21.6479 17.9886 22.0038 17.6303 22.0038 17.1882V17.1806C22 16.7309 21.6364 16.365 21.1886 16.365ZM18.0197 14.6118C18.0197 14.6766 17.9661 14.7262 17.9049 14.7262H5.12192C5.05686 14.7262 5.00711 14.6728 5.00711 14.6118V6.75696C5.00711 6.69217 5.06069 6.64263 5.12192 6.64263H17.9049C17.9699 6.64263 18.0197 6.69598 18.0197 6.75696V14.6118Z" fill="#4E5861"/>
</g>
<path d="M21.7617 2.32246L2.382 21.761C2.0643 22.0797 1.55598 22.0797 1.23828 21.761C0.920575 21.4423 0.920575 20.9325 1.23828 20.6138L20.618 1.239C20.9357 0.920334 21.444 0.920334 21.7617 1.239C22.0794 1.55766 22.0794 2.06753 21.7617 2.32246Z" fill="#4E5861" stroke="white" stroke-width="0.5" stroke-miterlimit="10"/>
<defs>
<clipPath id="clip0_6293_35431">
<rect width="21" height="13" fill="white" transform="translate(1 5)"/>
</clipPath>
</defs>
</svg>
