<svg width="24" height="24" viewBox="0 0 24 24" fill="none" xmlns="http://www.w3.org/2000/svg">
<g clip-path="url(#clip0_6223_35523)">
<path d="M12.3111 9.1696C11.0636 9.35254 9.96159 9.79464 9.07001 10.6788C8.30088 11.4411 7.42077 13.2057 7.48582 13.8688C8.69501 12.2529 10.3749 11.7193 12.3264 11.7269C12.3264 12.3177 12.3264 12.8855 12.3264 13.4953C13.4284 12.4701 14.496 11.4754 15.5828 10.4616C14.4922 9.45163 13.4246 8.45691 12.3111 7.42407C12.3111 8.04911 12.3111 8.60935 12.3111 9.1696Z" fill="#DA0A16"/>
<path d="M21.1849 16.365H21.1696H19.7385H18.8814C18.7628 16.365 18.7207 16.2087 18.824 16.1478C19.3444 15.8429 19.6352 15.3779 19.639 14.791C19.6505 12.1155 19.6582 9.44386 19.6505 6.7684C19.6505 5.79273 18.8546 5.00381 17.875 5C13.6008 5 9.33036 5 5.05612 5C4.0727 5 3.36862 5.67458 3.3648 6.65025C3.35332 9.33714 3.36097 12.024 3.36097 14.7109C3.36097 15.3474 3.64031 15.8314 4.19133 16.1516C4.19133 16.1516 4.19515 16.1516 4.19515 16.1554C4.29847 16.2164 4.2602 16.3726 4.13776 16.3726H3.25765H2.00255H1.81122C1.36352 16.3726 1 16.7385 1 17.1844C1 17.6303 1.36352 17.9962 1.81505 17.9962H2.00638C8.34311 17.9962 14.6837 17.9962 21.0204 17.9962C21.0702 17.9962 21.1199 17.9962 21.1658 18C21.1773 18 21.1888 18 21.2003 17.9962C21.6441 17.9886 22 17.6303 22 17.1882V17.1806C21.9962 16.7309 21.6327 16.365 21.1849 16.365ZM18.0166 14.6118C18.0166 14.6766 17.963 14.7262 17.9018 14.7262H5.12117C5.05612 14.7262 5.00638 14.6728 5.00638 14.6118V6.75696C5.00638 6.69217 5.05995 6.64263 5.12117 6.64263H17.9018C17.9668 6.64263 18.0166 6.69598 18.0166 6.75696V14.6118Z" fill="#DA0A16"/>
<path d="M21.7617 2.32246L2.382 21.761C2.0643 22.0797 1.55598 22.0797 1.23828 21.761C0.920575 21.4423 0.920575 20.9325 1.23828 20.6138L20.618 1.239C20.9357 0.920334 21.444 0.920334 21.7617 1.239C22.0794 1.55766 22.0794 2.06753 21.7617 2.32246Z" fill="#DA0A16" stroke="white" stroke-width="0.5" stroke-miterlimit="10"/>
</g>
<defs>
<clipPath id="clip0_6223_35523">
<rect width="23" height="23" fill="white" transform="translate(0.304932 0.255127)"/>
</clipPath>
</defs>
</svg>
