<svg width="23" height="23" viewBox="0 0 23 23" fill="none" xmlns="http://www.w3.org/2000/svg">
<path d="M19.0589 10.5175C19.0684 14.6409 15.6774 18.016 11.5192 18.0254C7.33734 18.0348 3.94165 14.6786 3.94165 10.5363C3.94165 6.36572 7.29946 3.01891 11.5003 3.00008C15.6442 2.98125 19.0494 6.36571 19.0589 10.5175ZM11.4908 5.73495C8.89074 5.72083 6.70746 7.85319 6.68378 10.428C6.66484 13.1064 8.78655 15.2858 11.4292 15.2999C14.1193 15.3141 16.2789 13.21 16.3025 10.5598C16.3215 7.89084 14.1903 5.75378 11.4908 5.73495ZM11.505 4.59581C11.685 4.59111 11.8318 4.44518 11.8365 4.27102C11.8413 4.08744 11.6755 3.92739 11.4908 3.9321C11.3014 3.93681 11.1593 4.09214 11.1687 4.28514C11.1782 4.46872 11.3156 4.60052 11.505 4.59581Z" fill="#008000"/>
<path d="M3.71384 20.9769C3.07449 20.9863 2.84716 20.6756 3.1029 20.139C3.25445 19.8189 3.47704 19.5176 3.72332 19.2681C4.5379 18.4444 5.5514 17.9313 6.60279 17.4653C6.92957 17.3194 7.1711 17.3617 7.48842 17.5312C10.2353 19.0093 12.9821 18.9716 15.6959 17.4276C15.8616 17.3335 15.9942 17.3147 16.1742 17.39C17.1261 17.776 18.0496 18.2184 18.8311 18.8869C19.1957 19.1975 19.5083 19.5788 19.8067 19.9601C19.9819 20.1908 20.0861 20.5014 19.9061 20.7744C19.7262 21.0475 19.3994 21.0192 19.1247 20.9627C18.1254 20.7603 17.1261 20.5391 16.1316 20.3131C14.3508 19.9083 12.5559 19.6447 10.7231 19.7389C9.0797 19.8189 7.47894 20.1578 5.88766 20.5438C5.22462 20.7038 4.55211 20.8309 3.8796 20.9721C3.8133 20.9721 3.74226 20.9721 3.71384 20.9769Z" fill="#008000"/>
<path d="M11.4675 13.822C9.61104 13.7891 8.12868 12.2781 8.17131 10.4705C8.21867 8.60176 9.7105 7.1849 11.6096 7.21785C13.4235 7.2508 14.8538 8.78063 14.8159 10.6447C14.7827 12.3958 13.2435 13.8503 11.4675 13.822ZM13.6177 10.527C13.6224 9.36432 12.6657 8.40406 11.5102 8.40877C10.3309 8.41347 9.38845 9.3455 9.37898 10.5035C9.36951 11.6756 10.3214 12.6217 11.5102 12.6217C12.6563 12.6264 13.6129 11.6756 13.6177 10.527Z" fill="#008000"/>
<path d="M11.4954 11.9156C10.6998 11.9156 10.051 11.2708 10.0557 10.4847C10.0604 9.69855 10.7187 9.05367 11.5096 9.05838C12.2958 9.06308 12.9304 9.69855 12.9304 10.4847C12.9304 11.2849 12.3005 11.9156 11.4954 11.9156Z" fill="#008000"/>
</svg>
