<svg width="23" height="23" viewBox="0 0 23 23" fill="none" xmlns="http://www.w3.org/2000/svg">
<path d="M12.3108 9.16985C11.0634 9.35278 9.96135 9.79488 9.06976 10.6791C8.30063 11.4413 7.42053 13.2059 7.48558 13.8691C8.69476 12.2531 10.3746 11.7195 12.3261 11.7272C12.3261 12.3179 12.3261 12.8858 12.3261 13.4956C13.4282 12.4703 14.4958 11.4756 15.5825 10.4618C14.492 9.45187 13.4244 8.45715 12.3108 7.42432C12.3108 8.04935 12.3108 8.6096 12.3108 9.16985Z" fill="#008000"/>
<path d="M21.1849 16.365H21.1696H19.7385H18.8814C18.7628 16.365 18.7207 16.2087 18.824 16.1478C19.3444 15.8429 19.6352 15.3779 19.639 14.791C19.6505 12.1155 19.6582 9.44386 19.6505 6.7684C19.6505 5.79273 18.8546 5.00381 17.875 5C13.6008 5 9.33036 5 5.05612 5C4.0727 5 3.36862 5.67458 3.3648 6.65025C3.35332 9.33714 3.36097 12.024 3.36097 14.7109C3.36097 15.3474 3.64031 15.8314 4.19133 16.1516C4.19133 16.1516 4.19515 16.1516 4.19515 16.1554C4.29847 16.2164 4.2602 16.3726 4.13776 16.3726H3.25765H2.00255H1.81122C1.36352 16.3726 1 16.7385 1 17.1844C1 17.6303 1.36352 17.9962 1.81505 17.9962H2.00638C8.34311 17.9962 14.6837 17.9962 21.0204 17.9962C21.0702 17.9962 21.1199 17.9962 21.1658 18C21.1773 18 21.1888 18 21.2003 17.9962C21.6441 17.9886 22 17.6303 22 17.1882V17.1806C21.9962 16.7309 21.6327 16.365 21.1849 16.365ZM18.0166 14.6118C18.0166 14.6766 17.963 14.7262 17.9018 14.7262H5.12117C5.05612 14.7262 5.00638 14.6728 5.00638 14.6118V6.75696C5.00638 6.69217 5.05995 6.64263 5.12117 6.64263H17.9018C17.9668 6.64263 18.0166 6.69598 18.0166 6.75696V14.6118Z" fill="#008000"/>
</svg>
