<svg width="23" height="23" viewBox="0 0 23 23" fill="none" xmlns="http://www.w3.org/2000/svg">
<path d="M11.538 15.1243C12.3828 15.1243 13.0868 14.8402 13.6969 14.2249C14.307 13.6095 14.5886 12.8994 14.5886 12.0473V7.07692C14.5886 6.22485 14.307 5.51479 13.6969 4.89941C13.0868 4.28402 12.3828 4 11.538 4C10.6932 4 9.98917 4.28402 9.37904 4.89941C8.7689 5.51479 8.4873 6.22485 8.4873 7.07692V12C8.4873 12.8521 8.7689 13.5621 9.37904 14.1775C9.94224 14.7929 10.6932 15.1243 11.538 15.1243Z" fill="#008000"/>
<path d="M16.8416 10.3432C16.7008 10.2011 16.56 10.1538 16.4192 10.1538C16.2315 10.1538 16.0907 10.2011 15.9968 10.3432C15.856 10.4852 15.8091 10.6272 15.8091 10.7692V12C15.8091 13.1834 15.3867 14.2248 14.5419 15.0769C13.6971 15.929 12.7115 16.355 11.5381 16.355C10.3648 16.355 9.33227 15.929 8.48747 15.0769C7.64267 14.2248 7.22027 13.2307 7.22027 12V10.7692C7.22027 10.5798 7.17333 10.4378 7.03253 10.3432C6.89173 10.2011 6.75093 10.1538 6.61013 10.1538C6.46933 10.1538 6.2816 10.2011 6.18773 10.3432C6.04693 10.4852 6 10.6272 6 10.7692V12C6 13.4201 6.46933 14.6508 7.408 15.6923C8.34667 16.7337 9.52 17.3491 10.8811 17.4911V18.7692H8.44053C8.2528 18.7692 8.112 18.8165 8.01813 18.9585C7.87733 19.1006 7.8304 19.2426 7.8304 19.3846C7.8304 19.5739 7.87733 19.7159 8.01813 19.8106C8.15893 19.9526 8.29973 20 8.44053 20H14.5419C14.7296 20 14.8704 19.9526 14.9643 19.8106C15.1051 19.6686 15.152 19.5266 15.152 19.3846C15.152 19.1952 15.1051 19.0532 14.9643 18.9585C14.8235 18.8165 14.6827 18.7692 14.5419 18.7692H12.1013V17.4911C13.4624 17.3491 14.6357 16.7337 15.5744 15.6923C16.5131 14.6508 16.9824 13.4201 16.9824 12V10.7692C17.0293 10.6272 16.9824 10.4852 16.8416 10.3432Z" fill="#008000"/>
</svg>
