<svg width="16" height="16" viewBox="0 0 16 16" fill="none" xmlns="http://www.w3.org/2000/svg">
<path d="M8 0C12.4112 0 16 3.58885 16 8.00005C16 12.4112 12.4112 16 8 16C3.5888 16 9.53674e-07 12.4112 9.53674e-07 8.00005C9.53674e-07 3.58885 3.5888 0 8 0ZM8 14.5455C11.6092 14.5455 14.5455 11.6092 14.5455 8.00005C14.5455 4.39088 11.6092 1.45455 8 1.45455C4.39079 1.45455 1.45455 4.39088 1.45455 8.00005C1.45455 11.6092 4.39084 14.5455 8 14.5455Z" fill="#242C33"/>
<path d="M8.0012 3.39355C8.53579 3.39355 8.9707 3.82875 8.9707 4.36369C8.9707 4.89814 8.53579 5.33295 8.0012 5.33295C7.46661 5.33295 7.0317 4.89814 7.0317 4.36369C7.0317 3.82875 7.46661 3.39355 8.0012 3.39355Z" fill="#242C33"/>
<path d="M8.00027 6.78809C8.40191 6.78809 8.72754 7.11371 8.72754 7.51536V11.879C8.72754 12.2806 8.40191 12.6063 8.00027 12.6063C7.59862 12.6063 7.27299 12.2806 7.27299 11.879V7.51536C7.27299 7.11371 7.59862 6.78809 8.00027 6.78809Z" fill="#242C33"/>
</svg>
