<svg width="26" height="20" viewBox="0 0 26 20" fill="none" xmlns="http://www.w3.org/2000/svg">
<path d="M16.7187 13.7182C16.3986 13.3383 15.8711 13.1998 15.3887 13.3607C14.9108 13.526 14.6268 13.9194 14.6268 14.4557C14.6223 15.4702 14.6223 16.4803 14.6313 17.4948C14.6313 17.7004 14.5727 17.7541 14.3653 17.7541C10.4203 17.7496 6.47528 17.7496 2.53028 17.7496C2.44913 17.7496 2.37248 17.7407 2.28682 17.7362C2.28682 12.5875 2.28682 7.46558 2.28682 2.32134C2.35445 2.31687 2.39953 2.30793 2.44462 2.30793C6.41216 2.30793 10.3797 2.30793 14.3472 2.30346C14.5231 2.30346 14.5591 2.36603 14.5591 2.52693C14.5546 3.54594 14.5546 4.56943 14.5591 5.58845C14.5591 5.70018 14.5591 5.81191 14.5862 5.91918C14.7305 6.48232 15.276 6.83987 15.8711 6.76389C16.4618 6.69238 16.8901 6.23203 16.8946 5.64655C16.8991 4.20741 16.8946 2.77274 16.8946 1.3336C16.8946 0.520179 16.4392 0.0732422 15.6096 0.0732422C10.8306 0.0732422 6.05147 0.0732422 1.27239 0.0732422C0.519462 0.0732422 0.000976562 0.58722 0.000976562 1.3336C0.000976562 3.5236 0.000976562 5.71359 0.000976562 7.90358C0.000976562 11.5014 0.000976562 15.0993 0.000976562 18.6971C0.000976562 18.9697 0.0505708 19.229 0.217388 19.4569C0.496919 19.8413 0.893673 19.9307 1.34453 19.9307C6.11008 19.9262 10.8711 19.9262 15.6367 19.9262C15.6953 19.9262 15.7584 19.9262 15.817 19.9217C16.5113 19.8949 16.9712 19.439 16.9712 18.7552C16.9757 17.334 16.9757 15.9082 16.9712 14.487C16.9712 14.2054 16.9081 13.9417 16.7187 13.7182Z" fill="white"/>
<path d="M24.8166 9.32912L21.6561 6.3257C21.327 6.00838 20.9933 5.69552 20.6597 5.3782C20.1908 4.9402 19.4469 4.95808 19.0186 5.40948C18.5948 5.85195 18.6263 6.50001 19.0997 6.96483C19.3251 7.18382 19.5596 7.39389 19.7805 7.61735C20.015 7.84976 20.2359 8.09558 20.4703 8.34586C20.3756 8.34586 20.2855 8.34586 20.1998 8.34586C15.9482 8.34586 11.6966 8.34586 7.44507 8.34586C7.34588 8.34586 7.2512 8.34139 7.15201 8.35033C6.64254 8.38162 6.19619 8.73917 6.08799 9.20398C5.97076 9.70902 6.18717 10.2364 6.65607 10.4465C6.89051 10.5537 7.17455 10.5895 7.44056 10.5895C11.7057 10.5984 15.9753 10.594 20.2404 10.594C20.3441 10.594 20.4433 10.594 20.5695 10.594C20.5425 10.6565 20.538 10.6878 20.5244 10.7102C20.051 11.3448 19.5912 11.9839 19.0997 12.6052C18.703 13.1102 18.6939 13.7181 19.1268 14.1337C19.5957 14.5896 20.2359 14.603 20.7183 14.1426C21.1692 13.7181 21.6155 13.289 22.0618 12.8644L22.1114 12.8152C22.7967 12.1582 23.482 11.5012 24.1674 10.8398C24.1854 10.8264 24.1989 10.804 24.2124 10.7861L24.8211 10.2007C25.0646 9.95931 25.0646 9.566 24.8166 9.32912Z" fill="white"/>
</svg>
