<svg width="26" height="20" viewBox="0 0 26 20" fill="none" xmlns="http://www.w3.org/2000/svg">
<path d="M16.7197 13.7185C16.3996 13.3386 15.8721 13.2 15.3897 13.3609C14.9118 13.5263 14.6277 13.9196 14.6277 14.4559C14.6232 15.4705 14.6232 16.4805 14.6322 17.4951C14.6322 17.7007 14.5736 17.7543 14.3662 17.7543C10.4212 17.7498 6.47625 17.7498 2.53126 17.7498C2.4501 17.7498 2.37346 17.7409 2.2878 17.7364C2.2878 12.5877 2.2878 7.46582 2.2878 2.32158C2.35542 2.31711 2.40051 2.30817 2.4456 2.30817C6.41313 2.30817 10.3807 2.30817 14.3482 2.3037C14.524 2.3037 14.5601 2.36627 14.5601 2.52717C14.5556 3.54619 14.5556 4.56967 14.5601 5.58869C14.5601 5.70042 14.5601 5.81216 14.5872 5.91942C14.7314 6.48256 15.277 6.84011 15.8721 6.76413C16.4627 6.69262 16.891 6.23228 16.8956 5.64679C16.9001 4.20765 16.8956 2.77299 16.8956 1.33385C16.8956 0.520423 16.4402 0.0734863 15.6106 0.0734863C10.8315 0.0734863 6.05245 0.0734863 1.27337 0.0734863C0.520438 0.0734863 0.00195312 0.587464 0.00195312 1.33385C0.00195312 3.52384 0.00195312 5.71383 0.00195312 7.90382C0.00195312 11.5017 0.00195312 15.0995 0.00195312 18.6974C0.00195312 18.97 0.0515474 19.2292 0.218364 19.4571C0.497895 19.8415 0.894649 19.9309 1.34551 19.9309C6.11106 19.9264 10.8721 19.9264 15.6377 19.9264C15.6963 19.9264 15.7594 19.9264 15.818 19.922C16.5123 19.8951 16.9722 19.4393 16.9722 18.7555C16.9767 17.3342 16.9767 15.9085 16.9722 14.4872C16.9722 14.2056 16.9091 13.9419 16.7197 13.7185Z" fill="#404040"/>
<path d="M24.8176 9.32937L21.6571 6.32595C21.3279 6.00862 20.9943 5.69577 20.6607 5.37844C20.1918 4.94044 19.4479 4.95832 19.0195 5.40973C18.5957 5.8522 18.6273 6.50025 19.1007 6.96507C19.3261 7.18407 19.5606 7.39413 19.7815 7.6176C20.0159 7.85001 20.2369 8.09582 20.4713 8.34611C20.3766 8.34611 20.2864 8.34611 20.2008 8.34611C15.9492 8.34611 11.6976 8.34611 7.44604 8.34611C7.34685 8.34611 7.25217 8.34164 7.15298 8.35058C6.64352 8.38186 6.19717 8.73941 6.08896 9.20423C5.97174 9.70927 6.18815 10.2367 6.65704 10.4467C6.89149 10.554 7.17553 10.5897 7.44153 10.5897C11.7066 10.5987 15.9763 10.5942 20.2414 10.5942C20.3451 10.5942 20.4443 10.5942 20.5705 10.5942C20.5434 10.6568 20.5389 10.6881 20.5254 10.7104C20.052 11.3451 19.5921 11.9842 19.1007 12.6054C18.7039 13.1105 18.6949 13.7183 19.1277 14.1339C19.5966 14.5898 20.2369 14.6032 20.7193 14.1429C21.1701 13.7183 21.6165 13.2892 22.0628 12.8646L22.1124 12.8155C22.7977 12.1585 23.483 11.5015 24.1683 10.84C24.1864 10.8266 24.1999 10.8043 24.2134 10.7864L24.8221 10.2009C25.0655 9.95955 25.0655 9.56625 24.8176 9.32937Z" fill="#404040"/>
</svg>
