<svg width="24" height="22" viewBox="0 0 24 22" fill="none" xmlns="http://www.w3.org/2000/svg">
<path fill-rule="evenodd" clip-rule="evenodd" d="M0 1C0 0.447715 0.447715 0 1 0H23C23.5523 0 24 0.447715 24 1V3C24 3.55228 23.5523 4 23 4H1C0.447716 4 0 3.55228 0 3V1ZM0 10C0 9.44771 0.447715 9 1 9H23C23.5523 9 24 9.44771 24 10V12C24 12.5523 23.5523 13 23 13H1C0.447716 13 0 12.5523 0 12V10ZM1 18C0.447715 18 0 18.4477 0 19V21C0 21.5523 0.447716 22 1 22H23C23.5523 22 24 21.5523 24 21V19C24 18.4477 23.5523 18 23 18H1Z" fill="url(#paint0_linear)"/>
<defs>
<linearGradient id="paint0_linear" x1="12" y1="0" x2="12" y2="22" gradientUnits="userSpaceOnUse">
<stop stop-color="#2B328C"/>
<stop offset="1" stop-color="#CC098C"/>
</linearGradient>
</defs>
</svg>
