<svg width="19" height="19" viewBox="0 0 19 19" fill="none" xmlns="http://www.w3.org/2000/svg">
<path fill-rule="evenodd" clip-rule="evenodd" d="M13.561 0.163117L10.384 3.33995H11.9583L14.3482 0.950231C14.5649 0.732741 14.5649 0.380473 14.3482 0.163117C14.1296 -0.0543725 13.7778 -0.0543725 13.561 0.163117ZM15.6594 15.6603H3.3386V7.86735H15.6594V15.6603ZM8.12369 9.04637C7.94245 9.14313 7.82873 9.33186 7.82873 9.53724V13.9905C7.82873 14.196 7.94245 14.3846 8.12369 14.4812C8.30137 14.577 8.52171 14.5685 8.69406 14.4536L12.0346 12.2269C12.1891 12.1236 12.2815 11.9497 12.2815 11.7638C12.2815 11.578 12.1891 11.4039 12.0346 11.3007L8.69406 9.07415C8.52349 8.9599 8.30315 8.94962 8.12369 9.04637ZM8.94277 12.9506V10.5772L10.7214 11.7638L8.94277 12.9506ZM17.3315 4.52745H1.67025C0.749844 4.52745 0 5.27651 0 6.19733V17.3303C0 18.2511 0.749844 19.0002 1.67025 19.0002H17.3315C18.2519 19.0002 19 18.2511 19 17.3303V6.19733C19 5.27651 18.2519 4.52745 17.3315 4.52745ZM16.7736 16.217C16.7736 16.5246 16.5248 16.7736 16.2174 16.7736H2.78435C2.47695 16.7736 2.22642 16.5246 2.22642 16.217V7.31067C2.22642 7.00304 2.47695 6.75399 2.78435 6.75399H16.2174C16.5248 6.75399 16.7736 7.00304 16.7736 7.31067V16.217ZM4.65361 0.950231C4.43683 0.732741 4.43683 0.380585 4.65361 0.163117C4.87215 -0.0543725 5.22398 -0.0543725 5.44076 0.163117L8.6178 3.33995H7.04348L4.65361 0.950231Z" fill="white"/>
</svg>
