<svg width="32" height="48" viewBox="0 0 32 48" fill="none" xmlns="http://www.w3.org/2000/svg">
<path fill-rule="evenodd" clip-rule="evenodd" d="M15.9319 0.225342C7.21409 0.225342 0.119141 7.32559 0.119141 16.0525C0.119141 18.6723 0.773777 21.27 2.01916 23.5738L15.0676 47.1966C15.2408 47.5116 15.5708 47.7066 15.9319 47.7066C16.2911 47.7066 16.623 47.5116 16.7962 47.1966L29.8501 23.5661C31.09 21.27 31.7428 18.6723 31.7428 16.0524C31.7428 7.32559 24.6497 0.225342 15.9319 0.225342ZM15.9319 23.966C11.5721 23.966 8.02554 20.4159 8.02554 16.0525C8.02554 11.689 11.5721 8.13899 15.9319 8.13899C20.2917 8.13899 23.8383 11.689 23.8383 16.0525C23.8383 20.4159 20.2917 23.966 15.9319 23.966Z" fill="white"/>
</svg>
