<svg width="20" height="28" viewBox="0 0 20 28" fill="none" xmlns="http://www.w3.org/2000/svg">
<path d="M10.0001 0C5.54113 0 1.91334 3.67324 1.91334 8.18842V12.865C1.91334 12.9182 1.84857 13.0077 1.79769 13.0248C1.36039 13.1725 1.00523 13.3005 0.680122 13.4274C0.292419 13.5787 0 14.0138 0 14.4394V25.185C0 25.6077 0.290529 26.0431 0.675776 26.1977C3.65651 27.3937 6.79367 28 10.0001 28C13.2065 28 16.3436 27.3936 19.3245 26.1976C19.7096 26.043 20 25.6077 20 25.185V14.4394C20 14.0138 19.7076 13.5787 19.3197 13.4272C18.9945 13.3003 18.6394 13.1724 18.2024 13.0247C18.1517 13.0076 18.0869 12.918 18.0869 12.8648V8.18828C18.0867 3.67324 14.4591 0 10.0001 0ZM7.79748 17.7121C7.79748 16.4795 8.78363 15.482 9.99998 15.482C11.2162 15.482 12.2024 16.4794 12.2024 17.7121C12.2024 18.5289 11.7475 19.2127 11.1012 19.6004V23.2875C11.1012 23.9039 10.6086 24.4026 9.99993 24.4026C9.39119 24.4026 8.89871 23.9039 8.89871 23.2875V19.6004C8.25241 19.2127 7.79748 18.5289 7.79748 17.7121ZM15.3062 8.18828V12.2233C13.5662 11.8442 11.781 11.6522 10.0008 11.6521C8.22146 11.6521 6.43667 11.8441 4.69392 12.2229V8.18828C4.69392 5.22566 7.07418 2.81553 9.99998 2.81553C12.9257 2.81548 15.3062 5.22566 15.3062 8.18828Z" fill="#3E2D8C"/>
</svg>
