<svg width="76" height="53" viewBox="0 0 76 53" fill="none" xmlns="http://www.w3.org/2000/svg">
<path d="M34.6266 4.66724C17.7642 5.50074 14.3767 16.1404 13.7072 19.9438C13.6963 20.0118 13.7088 20.0816 13.7428 20.1415C13.7768 20.2015 13.8303 20.2482 13.8943 20.2739C13.9584 20.2996 14.0294 20.3028 14.0955 20.2829C14.1617 20.2631 14.2191 20.2214 14.2584 20.1647C16.2366 17.127 18.8037 16.1203 21.8288 16.5195L26.2583 26.0946C25.6255 26.3831 25.0889 26.8464 24.712 27.4297C24.3351 28.013 24.1337 28.6919 24.1317 29.3859C24.1317 29.4462 24.1468 29.4989 24.1493 29.5591L12.1846 31.3743C12.0686 31.0692 11.8744 30.7999 11.6213 30.5933C11.3682 30.3866 11.0652 30.2499 10.7425 30.1968L9.64264 14.4056C10.0439 14.2832 10.3953 14.0358 10.6454 13.6997C10.8954 13.3635 11.0309 12.9563 11.0319 12.5378C11.0303 12.2354 10.957 11.9378 10.818 11.6691L22.1434 2.32241L22.2114 2.35755C22.6114 2.57534 23.072 2.65646 23.5226 2.58852C30.0083 1.55669 33.338 2.46049 34.9563 3.36428C35.0886 3.44005 35.1925 3.55689 35.252 3.69699C35.3116 3.8371 35.3237 3.9928 35.2863 4.14037C35.249 4.28793 35.1643 4.41928 35.0452 4.5144C34.9261 4.60951 34.7791 4.66319 34.6266 4.66724ZM43.6441 30.2495C35.7944 23.7824 28.6216 18.0308 22.9161 16.7178L27.1241 25.8185C27.6476 25.7157 28.1875 25.73 28.7049 25.8602C29.2223 25.9904 29.7043 26.2334 30.1163 26.5716C30.5283 26.9099 30.86 27.335 31.0877 27.8164C31.3153 28.2978 31.4332 28.8235 31.4328 29.3558L43.5535 30.4705C43.58 30.4724 43.6064 30.4659 43.629 30.452C43.6516 30.438 43.6692 30.4173 43.6792 30.3928C43.6893 30.3683 43.6913 30.3412 43.685 30.3155C43.6787 30.2898 43.6644 30.2667 43.6441 30.2495ZM1.14604 17.5036C1.06868 17.5476 1.00135 17.6072 0.948349 17.6787C0.895347 17.7501 0.857828 17.8317 0.838179 17.9184C0.818531 18.005 0.817181 18.0948 0.83422 18.182C0.851259 18.2693 0.886312 18.352 0.937147 18.4249L9.41613 30.4629L9.8314 30.3173L8.73661 14.4709C8.30386 14.3996 7.90719 14.1868 7.6091 13.8658L1.14604 17.5036ZM8.94801 10.5846L10.5713 1.57929C5.55541 3.81617 1.82808 9.39708 0.632621 16.0801C0.622482 16.1475 0.631378 16.2164 0.658312 16.279C0.685246 16.3416 0.729148 16.3955 0.785091 16.4347C0.841034 16.4738 0.906803 16.4966 0.975009 16.5004C1.04321 16.5043 1.11116 16.4892 1.17121 16.4567L7.17118 13.0775C7.11502 12.9004 7.08533 12.716 7.08309 12.5302C7.08629 12.0298 7.28122 11.5494 7.62794 11.1877C7.97467 10.826 8.44695 10.6102 8.94801 10.5846ZM68.4897 48.0668C60.8236 44.301 53.0569 38.0096 45.7909 32.0245C45.7699 32.0076 45.744 31.998 45.717 31.9969C45.69 31.9959 45.6634 32.0035 45.6411 32.0187C45.6189 32.0339 45.6021 32.0559 45.5932 32.0813C45.5844 32.1068 45.584 32.1344 45.5921 32.1601L49.0174 42.5085H49.0577C49.3864 42.5085 49.712 42.5731 50.0156 42.6987C50.3193 42.8242 50.5952 43.0083 50.8275 43.2403C51.0599 43.4722 51.2441 43.7476 51.3697 44.0507C51.4952 44.3537 51.5597 44.6785 51.5594 45.0064C51.5594 45.0441 51.5594 45.0792 51.5594 45.1169L68.3538 48.466C68.4068 48.4839 68.4649 48.4801 68.5151 48.4554C68.5654 48.4307 68.6038 48.3871 68.6218 48.3341C68.6398 48.2812 68.636 48.2233 68.6112 48.1732C68.5865 48.123 68.5427 48.0848 68.4897 48.0668ZM10.2366 10.9787L21.2449 1.88306C17.7793 0.268793 14.4723 0.170882 11.5504 1.18514L9.82888 10.7377C9.97424 10.8009 10.1112 10.8819 10.2366 10.9787ZM48.0686 47.2935L44.7364 50.9564C52.6919 52.3824 62.6785 52.8569 75.0333 51.3254C75.1081 51.3172 75.1775 51.2825 75.2289 51.2276C75.2803 51.1727 75.3102 51.1012 75.3133 51.0262C75.3163 50.9511 75.2923 50.8775 75.2455 50.8186C75.1988 50.7597 75.1324 50.7195 75.0584 50.7053L51.3555 45.9881C51.0932 46.596 50.5995 47.075 49.9831 47.3198C49.3667 47.5647 48.678 47.5552 48.0686 47.2935ZM15.4866 45.4533L10.4228 33.9049C10.0984 33.9055 9.77948 33.821 9.49803 33.66C9.21657 33.499 8.98245 33.2671 8.8191 32.9874C8.65574 32.7078 8.56889 32.3903 8.56722 32.0666C8.56555 31.743 8.64913 31.4246 8.80959 31.1433L0.75594 19.7053C0.723967 19.6568 0.677367 19.6197 0.62287 19.5994C0.568374 19.579 0.508804 19.5765 0.452773 19.5922C0.396742 19.6078 0.347151 19.6408 0.311166 19.6864C0.275181 19.7321 0.254665 19.7879 0.252587 19.8459C-0.0519421 28.7959 4.16616 38.8858 15.4866 45.4533ZM34.7021 51.6744C34.8153 51.6744 34.7348 51.4585 34.6291 51.4234C33.1568 50.856 22.7525 46.6207 18.2978 38.6196C19.9696 40.4849 21.9225 42.079 24.0864 43.3445L26.5226 32.8002C25.9942 32.6068 25.5179 32.2937 25.1314 31.8855C24.7449 31.4773 24.4587 30.9852 24.2953 30.4479L12.2676 32.2655C12.2304 32.5619 12.1219 32.845 11.9515 33.0906C11.781 33.3363 11.5536 33.5372 11.2886 33.6764L16.7701 46.1638C17.583 46.5856 24.6224 52.2719 34.7021 51.6644V51.6744ZM24.8867 43.8365C28.7726 46.2065 34.5209 48.8425 42.5041 50.5321L29.515 32.5793C28.9812 32.8777 28.3803 33.0366 27.7684 33.0413C27.6437 33.0352 27.5193 33.0226 27.3959 33.0036L24.8867 43.8365ZM30.2524 32.0596L43.7499 50.7129L47.3111 46.799C47.0102 46.5094 46.7872 46.149 46.6624 45.7509C46.5377 45.3529 46.5152 44.9299 46.5972 44.521C46.6791 44.112 46.8628 43.7301 47.1314 43.4105C47.3999 43.0909 47.7447 42.8437 48.1341 42.6917L44.5728 31.9366C44.5257 31.7942 44.438 31.6685 44.3204 31.5749C44.2029 31.4812 44.0606 31.4238 43.9109 31.4094L31.3271 30.2521C31.1549 30.9429 30.783 31.568 30.2575 32.0496L30.2524 32.0596Z" fill="url(#paint0_linear)"/>
<g opacity="0.15">
<path opacity="0.15" d="M27.1162 25.8184L26.6305 18.1036C25.4431 17.51 24.1951 17.0454 22.9082 16.7178L27.1162 25.8184Z" fill="black"/>
<path opacity="0.15" d="M9.41602 30.4629L2.82462 16.5596L1.14593 17.5035C1.06857 17.5476 1.00125 17.6072 0.948245 17.6786C0.895243 17.75 0.857724 17.8317 0.838075 17.9183C0.818426 18.005 0.817077 18.0948 0.834116 18.182C0.851155 18.2692 0.886208 18.3519 0.937043 18.4249L9.41602 30.4629Z" fill="black"/>
<path opacity="0.15" d="M11.5554 1.18513L9.83398 10.7377C9.8667 10.7528 9.8969 10.7779 9.92962 10.7954L14.4497 0.615234C13.465 0.68478 12.4928 0.876213 11.5554 1.18513Z" fill="black"/>
<path opacity="0.15" d="M10.8086 11.669C10.8353 11.7514 10.8572 11.8352 10.874 11.9201L27.7842 2.12903C26.3505 2.18949 24.9217 2.33621 23.5057 2.56837C23.055 2.63631 22.5945 2.55518 22.1944 2.3374L22.1265 2.30225L10.8086 11.669Z" fill="black"/>
<path opacity="0.15" d="M24.3055 30.4453L12.2779 32.2629C12.2406 32.5594 12.1321 32.8424 11.9617 33.0881C11.7912 33.3337 11.5638 33.5347 11.2988 33.6739L12.2703 35.8881L24.376 30.6035C24.3558 30.5482 24.3231 30.5005 24.3055 30.4453Z" fill="black"/>
<path opacity="0.15" d="M12.1845 31.3743L14.9857 30.95L9.64258 14.4056L10.7424 30.1969C11.0651 30.25 11.3681 30.3867 11.6212 30.5933C11.8743 30.8 12.0685 31.0693 12.1845 31.3743Z" fill="black"/>
<path opacity="0.15" d="M0.632975 16.0801C0.622837 16.1475 0.631733 16.2163 0.658667 16.279C0.685601 16.3416 0.729503 16.3955 0.785446 16.4346C0.841389 16.4737 0.907158 16.4965 0.975363 16.5004C1.04357 16.5043 1.11151 16.4891 1.17156 16.4566L7.17154 13.0775C7.15644 13.0273 7.15644 12.9695 7.14637 12.9193L1.3276 13.2457C1.04117 14.1762 0.809235 15.1226 0.632975 16.0801Z" fill="black"/>
<path opacity="0.15" d="M49.0573 42.5034C49.1077 42.5034 49.1479 42.531 49.1983 42.5336L50.2679 35.6748C48.7578 34.4597 47.2629 33.2371 45.7906 32.0245C45.7695 32.0076 45.7436 31.998 45.7166 31.9969C45.6896 31.9959 45.663 32.0035 45.6408 32.0187C45.6185 32.0339 45.6017 32.0559 45.5929 32.0813C45.584 32.1068 45.5836 32.1344 45.5917 32.16L49.0171 42.5085L49.0573 42.5034Z" fill="black"/>
<path opacity="0.15" d="M46.0027 48.2324L30.2578 32.0496L43.7552 50.7028L46.0027 48.2324Z" fill="black"/>
<path opacity="0.15" d="M9.32306 40.8465L0.262698 19.7982C0.262698 19.8158 0.235011 19.8158 0.232494 19.8359C0.0110188 26.9106 2.65614 34.658 9.32306 40.8465Z" fill="black"/>
<path opacity="0.15" d="M51.3558 45.988C51.0934 46.5959 50.5998 47.075 49.9834 47.3198C49.3669 47.5646 48.6783 47.5552 48.0689 47.2935L47.8398 47.5446L67.4706 49.194L51.3558 45.988Z" fill="black"/>
<path opacity="0.15" d="M27.4084 32.9935L24.8916 43.8265C25.7624 44.3587 26.744 44.9035 27.806 45.4483L27.4814 33.0011L27.4084 32.9935Z" fill="black"/>
<path opacity="0.15" d="M18.8623 39.5485C20.2616 41.7853 24.2054 47.5596 29.7901 51.476C31.4176 51.6992 33.063 51.7622 34.7028 51.6643C34.7221 51.6343 34.7324 51.5995 34.7324 51.5639C34.7324 51.5283 34.7221 51.4934 34.7028 51.4634C34.6844 51.4394 34.6601 51.4204 34.6324 51.4082C34.4487 51.3379 34.129 51.2099 33.6911 51.0241C33.3664 50.8835 32.9789 50.7128 32.5409 50.5094C32.103 50.3061 31.6148 50.0676 31.0888 49.799C30.8522 49.6785 30.6081 49.5479 30.3564 49.4123C30.0493 49.2492 29.7373 49.0784 29.4126 48.8952C29.2188 48.7822 29.02 48.6692 28.8186 48.5487C25.4487 46.5654 21.4269 43.5678 18.8623 39.5485Z" fill="black"/>
<path opacity="0.15" d="M18.2998 38.6171C18.2998 38.6321 18.403 38.7978 18.5792 39.0916C18.476 38.9259 18.3904 38.7777 18.2998 38.6171Z" fill="black"/>
</g>
<defs>
<linearGradient id="paint0_linear" x1="53.2657" y1="19.3312" x2="3.95826" y2="52.6137" gradientUnits="userSpaceOnUse">
<stop stop-color="#EC008C"/>
<stop offset="1" stop-color="#2B328C"/>
</linearGradient>
</defs>
</svg>
