<svg width="165" height="39" viewBox="0 0 165 39" fill="none" xmlns="http://www.w3.org/2000/svg">
<path d="M49.2656 10.0024C49.3733 10.6264 49.4348 11.2571 49.4497 11.8897C49.4497 12.2311 49.4379 12.5706 49.4183 12.9082C49.4 13.2302 49.3588 13.5507 49.295 13.8672L40.0582 18.7004L49.295 23.3534C49.3583 23.6648 49.3995 23.9801 49.4183 24.2971C49.4379 24.627 49.4497 24.9626 49.4497 25.3021C49.4497 25.5821 49.4379 25.9005 49.4183 26.2611C49.3937 26.6431 49.3427 27.0231 49.2656 27.3984L36.6105 20.9195C36.4319 20.1524 36.34 19.3683 36.3364 18.5815C36.3392 17.8642 36.4312 17.15 36.6105 16.4545L49.2656 10.0024Z" fill="white"/>
<path d="M58.4652 26.8073C57.3173 26.8328 56.1764 26.6238 55.1155 26.1935C54.2078 25.8098 53.4036 25.2248 52.7661 24.4846C52.1295 23.7295 51.6512 22.8587 51.3585 21.9222C51.0353 20.8936 50.8755 19.8223 50.8847 18.7461C50.8749 17.6589 51.0326 16.5764 51.3526 15.5354C51.6412 14.5885 52.1198 13.7076 52.7603 12.9442C53.3994 12.2015 54.2028 11.6111 55.1096 11.218C56.168 10.7779 57.3099 10.5635 58.4594 10.5889C59.6138 10.5648 60.7605 10.7792 61.8248 11.218C62.7424 11.6099 63.5575 12.2 64.2094 12.9442C64.8599 13.7019 65.3414 14.5845 65.6229 15.5354C65.9344 16.5767 66.0888 17.6571 66.081 18.7422C66.0904 19.8174 65.936 20.8879 65.6229 21.9184C65.3395 22.8598 64.8602 23.7336 64.2152 24.4846C63.5651 25.2263 62.7491 25.8111 61.8307 26.1935C60.7639 26.6227 59.6182 26.8316 58.4652 26.8073ZM58.4652 23.5717C59.6073 23.5717 60.4282 23.1568 60.9281 22.3269C61.428 21.4971 61.6753 20.3035 61.6701 18.7461C61.6701 17.1887 61.4208 15.9951 60.9223 15.1652C60.4237 14.3354 59.6027 13.9205 58.4594 13.9205C57.3369 13.9205 56.5264 14.3354 56.0278 15.1652C55.5292 15.9951 55.2793 17.1887 55.278 18.7461C55.278 20.3035 55.5279 21.4971 56.0278 22.3269C56.5277 23.1568 57.3402 23.5717 58.4652 23.5717Z" fill="white"/>
<path d="M77.767 4.54169C78.1261 4.48271 78.4882 4.44301 78.8517 4.42278C79.208 4.40168 79.5604 4.39209 79.9089 4.39209C80.2573 4.39209 80.6117 4.40168 80.9778 4.42278C81.3472 4.44249 81.7151 4.48219 82.08 4.54169V25.9386C81.1225 26.2183 80.1465 26.4336 79.159 26.583C77.9702 26.7455 76.7707 26.8205 75.5704 26.8074C74.5193 26.8115 73.4731 26.6649 72.4654 26.372C71.5043 26.0985 70.6129 25.6293 69.8498 24.9949C69.0677 24.3276 68.4551 23.491 68.0604 22.5514C67.6218 21.5541 67.4025 20.3355 67.4025 18.8958C67.3952 17.7974 67.5867 16.7064 67.9684 15.6736C68.324 14.7021 68.8753 13.8105 69.5894 13.0517C70.3098 12.3025 71.1793 11.7059 72.1443 11.2987C73.1961 10.86 74.3295 10.6405 75.4725 10.6543C75.8386 10.6543 76.2223 10.6696 76.6198 10.7003C77.0077 10.7272 77.392 10.7915 77.767 10.8921V4.54169ZM77.767 14.1622C77.4398 14.0786 77.1077 14.0145 76.7725 13.9704C76.4526 13.9364 76.131 13.9211 75.8093 13.9244C75.1964 13.9105 74.59 14.0497 74.0473 14.3291C73.5564 14.5922 73.1332 14.9615 72.8099 15.4089C72.4694 15.8888 72.2249 16.4277 72.0895 16.997C71.9351 17.6198 71.8582 18.2587 71.8604 18.8996C71.8427 19.6059 71.9466 20.3101 72.1678 20.9825C72.3349 21.4952 72.6226 21.9623 73.0077 22.3462C73.3655 22.6867 73.8011 22.9385 74.2783 23.0808C74.7935 23.2343 75.3295 23.31 75.868 23.3052C76.1844 23.3063 76.5007 23.2916 76.8156 23.2611C77.1371 23.2242 77.4548 23.16 77.7651 23.0693L77.767 14.1622Z" fill="white"/>
<path d="M88.5034 20.0044C88.5843 21.2038 89.0124 22.0733 89.7877 22.6129C90.563 23.1525 91.5824 23.4216 92.8458 23.4203C93.559 23.42 94.2707 23.3558 94.9719 23.2286C95.6758 23.104 96.367 22.9186 97.0374 22.6743C97.2864 23.1312 97.4834 23.6136 97.6247 24.1127C97.7913 24.6985 97.884 25.302 97.9008 25.9099C96.1781 26.5322 94.3528 26.8372 92.5169 26.8094C91.0485 26.8094 89.789 26.6093 88.7384 26.2091C87.7595 25.8599 86.8773 25.2919 86.1619 24.55C85.4883 23.8225 84.9875 22.9579 84.6955 22.0183C84.0565 19.9262 84.0613 17.696 84.7092 15.6065C85.0116 14.6511 85.5054 13.7643 86.1619 12.9981C86.8177 12.2505 87.6322 11.6523 88.5485 11.2451C89.5966 10.795 90.7326 10.5751 91.8767 10.6006C92.8864 10.5841 93.8878 10.7803 94.8134 11.176C95.6469 11.5391 96.3927 12.0704 97.0022 12.7353C97.6177 13.4179 98.0811 14.2188 98.3628 15.0868C98.6736 16.0303 98.8283 17.0164 98.8209 18.0078C98.8209 18.3914 98.8053 18.7635 98.7759 19.1318C98.7465 19.5 98.7094 19.7973 98.6682 20.016L88.5034 20.0044ZM94.7135 17.0373C94.6731 16.0809 94.4022 15.3073 93.901 14.7166C93.3998 14.1259 92.7016 13.8311 91.8062 13.8324C90.7868 13.8324 90.0122 14.1118 89.4823 14.6706C88.9524 15.2293 88.6366 16.0183 88.5347 17.0373H94.7135Z" fill="white"/>
<path d="M111.789 23.7826C111.973 24.1147 112.117 24.4669 112.218 24.8318C112.34 25.2518 112.412 25.6843 112.431 26.1206C111.111 26.5994 109.71 26.8329 108.302 26.8092C105.692 26.8092 103.724 26.0848 102.398 24.6361C101.072 23.1874 100.407 21.2343 100.403 18.7767C100.393 17.6993 100.558 16.6271 100.892 15.6006C101.194 14.6627 101.688 13.7952 102.345 13.0516C103.007 12.3182 103.825 11.7356 104.741 11.3446C105.793 10.9072 106.927 10.6928 108.069 10.7155C108.827 10.7087 109.585 10.7587 110.335 10.8651C110.972 10.9609 111.597 11.1216 112.2 11.3446C112.193 11.7425 112.147 12.1389 112.061 12.528C111.981 12.9366 111.849 13.334 111.67 13.7114C110.572 13.3583 109.421 13.1866 108.265 13.2031C106.699 13.2031 105.524 13.7146 104.741 14.7375C103.958 15.7604 103.571 17.1094 103.58 18.7844C103.58 20.7024 104.019 22.1057 104.896 22.9943C105.773 23.883 106.976 24.3305 108.504 24.3369C109.072 24.3398 109.64 24.3 110.201 24.218C110.745 24.1284 111.277 23.9824 111.789 23.7826Z" fill="white"/>
<path d="M114.726 11.0745C114.949 11.0361 115.165 11.0054 115.368 10.9843C115.572 10.9632 115.785 10.9556 116.01 10.9556C116.236 10.9556 116.459 10.9652 116.684 10.9843C116.889 11.0031 117.093 11.0332 117.295 11.0745C117.355 11.3737 117.418 11.7688 117.479 12.2579C117.534 12.6707 117.565 13.0863 117.571 13.5026C118.012 12.8095 118.589 12.2086 119.268 11.7343C119.972 11.2356 120.874 10.9856 121.976 10.9843C122.138 10.9843 122.307 10.9843 122.481 10.9997C122.629 11.0077 122.777 11.0231 122.923 11.0457C122.966 11.2356 122.996 11.4277 123.015 11.6211C123.035 11.8129 123.047 12.0296 123.047 12.2483C123.046 12.4989 123.03 12.7494 123 12.9982C122.968 13.259 122.933 13.5084 122.892 13.7481C122.727 13.708 122.558 13.688 122.389 13.6887H121.97C121.439 13.6872 120.912 13.7628 120.404 13.9131C119.896 14.0673 119.435 14.3398 119.059 14.7071C118.623 15.1469 118.298 15.6801 118.109 16.2645C117.851 17.089 117.732 17.9495 117.759 18.8116V26.4489C117.51 26.4906 117.26 26.5201 117.009 26.5372C116.733 26.5583 116.482 26.5678 116.259 26.5678C116.036 26.5678 115.785 26.5583 115.509 26.5372C115.233 26.5161 114.975 26.4873 114.726 26.4489V11.0745Z" fill="white"/>
<path d="M130.78 26.8075C129.677 26.8307 128.581 26.6214 127.567 26.1938C126.681 25.8069 125.897 25.2278 125.273 24.5002C124.642 23.7523 124.176 22.8853 123.902 21.9531C123.31 19.8755 123.31 17.6785 123.902 15.6008C124.176 14.6679 124.642 13.8002 125.273 13.0518C125.899 12.3229 126.683 11.7398 127.567 11.3448C128.585 10.9296 129.677 10.7158 130.779 10.7158C131.882 10.7158 132.973 10.9296 133.991 11.3448C134.876 11.7398 135.659 12.3229 136.285 13.0518C136.913 13.801 137.376 14.6687 137.646 15.6008C138.239 17.6785 138.239 19.8755 137.646 21.9531C137.375 22.8845 136.912 23.7514 136.285 24.5002C135.662 25.2278 134.877 25.8069 133.991 26.1938C132.978 26.6214 131.883 26.8308 130.78 26.8075ZM130.78 24.4407C132.186 24.4407 133.225 23.9408 133.899 22.9409C134.572 21.941 134.909 20.553 134.909 18.777C134.909 16.9984 134.572 15.6149 133.899 14.6265C133.225 13.6381 132.186 13.1432 130.78 13.142C129.372 13.142 128.337 13.6368 127.675 14.6265C127.013 15.6162 126.681 16.9996 126.679 18.777C126.679 20.5556 127.01 21.9435 127.673 22.9409C128.336 23.9382 129.372 24.4382 130.78 24.4407Z" fill="white"/>
<path d="M138.611 11.0745C138.897 11.0361 139.183 11.0054 139.468 10.9843C139.754 10.9632 140.009 10.9556 140.232 10.9556C140.518 10.9556 140.819 10.9652 141.105 10.9843C141.391 11.0035 141.659 11.0361 141.888 11.0745L144.946 23.6314L148.4 11.0745C148.625 11.0361 148.868 11.0054 149.134 10.9843C149.4 10.9632 149.674 10.9556 149.96 10.9556C150.285 10.9747 150.567 10.9901 150.802 10.9997C151.032 11.0109 151.262 11.0359 151.489 11.0745L154.915 23.4205L157.973 11.0745C158.198 11.0361 158.422 11.0054 158.647 10.9843C158.872 10.9632 159.117 10.9556 159.381 10.9556C159.606 10.9556 159.855 10.9652 160.131 10.9843C160.407 11.0035 160.687 11.0361 160.973 11.0745L156.288 26.4489C156.023 26.4873 155.753 26.518 155.477 26.5372C155.201 26.5563 154.952 26.5678 154.727 26.5678C154.502 26.5678 154.259 26.5583 153.993 26.5372C153.727 26.5161 153.463 26.4873 153.198 26.4489L149.833 14.8203L146.309 26.4489C146.023 26.4873 145.743 26.518 145.467 26.5372C145.191 26.5563 144.942 26.5678 144.717 26.5678C144.492 26.5678 144.243 26.5583 143.967 26.5372C143.717 26.5202 143.467 26.4908 143.219 26.4489L138.611 11.0745Z" fill="white"/>
<path d="M26.3754 5.92081C15.8171 5.56214 13.1525 11.9049 12.53 14.193C12.5239 14.233 12.5309 14.2738 12.55 14.3097C12.569 14.3456 12.5992 14.3746 12.6361 14.3927C12.673 14.4108 12.7148 14.417 12.7555 14.4104C12.7962 14.4038 12.8338 14.3848 12.8628 14.356C14.2548 12.5973 15.9091 12.1139 17.7729 12.5129L20.0322 18.6043C19.6211 18.7497 19.2613 19.0078 18.9958 19.3478C18.7302 19.6879 18.5701 20.0956 18.5345 20.5223C18.5345 20.5588 18.5345 20.5933 18.5345 20.6278L10.9774 21.1169C10.9192 20.926 10.8114 20.7531 10.6645 20.6153C10.5176 20.4774 10.3367 20.3793 10.1395 20.3305L10.2844 10.6083C10.4604 10.5734 10.6263 10.5005 10.7701 10.395C10.9138 10.2895 11.0318 10.154 11.1156 9.99839C11.1993 9.84273 11.2467 9.67078 11.2543 9.49498C11.2619 9.31918 11.2295 9.14392 11.1595 8.98189L18.7068 3.83597L18.7479 3.86091C18.9854 4.01511 19.2682 4.08857 19.5525 4.06996C23.6502 3.77076 25.6706 4.49384 26.6377 5.13252C26.7198 5.18335 26.7822 5.25953 26.8152 5.34901C26.8481 5.4385 26.8496 5.53619 26.8195 5.62662C26.7894 5.71706 26.7294 5.79509 26.649 5.84837C26.5686 5.90165 26.4723 5.92714 26.3754 5.92081ZM30.6473 22.0433C26.0954 17.6818 21.9254 13.796 18.4385 12.6951L20.5921 18.4835C20.9238 18.4471 21.2596 18.4833 21.5753 18.5894C21.891 18.6955 22.1787 18.869 22.4176 19.0972C22.6566 19.3255 22.8409 19.6028 22.9572 19.9093C23.0735 20.2158 23.119 20.5437 23.0902 20.8695L30.5866 22.1756C30.6024 22.176 30.618 22.1718 30.6314 22.1636C30.6448 22.1553 30.6554 22.1434 30.6619 22.1292C30.6684 22.1151 30.6704 22.0994 30.6679 22.0841C30.6653 22.0688 30.6581 22.0546 30.6473 22.0433ZM4.83195 12.0583C4.78051 12.0801 4.73446 12.1126 4.69691 12.1533C4.65936 12.1941 4.63119 12.2423 4.6143 12.2947C4.59741 12.3471 4.59219 12.4024 4.59901 12.4569C4.60582 12.5114 4.6245 12.5639 4.65379 12.6107L9.31136 20.4168L9.57762 20.3497L9.72445 10.5911C9.45793 10.5275 9.22124 10.3775 9.05293 10.1653L4.83195 12.0583ZM10.0592 8.22237L11.5511 2.79451C8.30114 3.90694 5.67772 7.13104 4.58723 11.1645C4.5779 11.2044 4.57985 11.246 4.59287 11.2848C4.6059 11.3236 4.6295 11.3582 4.66114 11.3849C4.69278 11.4115 4.73125 11.4292 4.77239 11.436C4.81353 11.4428 4.85579 11.4385 4.8946 11.4235L8.81017 9.66277C8.78489 9.55142 8.77632 9.43706 8.78472 9.32328C8.81168 9.01451 8.95929 8.72785 9.19674 8.5231C9.4342 8.31834 9.74318 8.2113 10.0592 8.22429V8.22237ZM45.2014 34.2262C40.6202 31.5295 36.1115 27.2774 31.8885 23.2401C31.8768 23.2275 31.861 23.2192 31.8439 23.2166C31.8267 23.214 31.8091 23.2172 31.794 23.2257C31.779 23.2342 31.7673 23.2475 31.761 23.2633C31.7547 23.2792 31.7541 23.2967 31.7593 23.313L33.349 29.8225H33.3745C33.7879 29.8572 34.1704 30.0512 34.438 30.3619C34.7056 30.6726 34.8364 31.0746 34.8017 31.4797C34.8017 31.5027 34.7919 31.5238 34.7899 31.5468L45.0879 34.4602C45.1193 34.4749 45.1554 34.4769 45.1883 34.4655C45.2211 34.4542 45.2481 34.4306 45.2631 34.3998C45.2782 34.369 45.2801 34.3336 45.2686 34.3014C45.257 34.2692 45.2329 34.2429 45.2014 34.2281V34.2262ZM10.8423 8.52541L18.184 3.5291C16.1088 2.36297 14.0531 2.13281 12.1795 2.60463L10.6035 8.35855C10.6899 8.40649 10.7701 8.46444 10.8423 8.53116V8.52541ZM32.5131 32.6918L30.244 34.7632C35.1384 36.0464 41.327 36.85 49.1092 36.547C49.1611 36.5531 49.2134 36.5387 49.2545 36.507C49.2956 36.4754 49.3222 36.429 49.3284 36.3782C49.3347 36.3273 49.32 36.2761 49.2877 36.2358C49.2554 36.1955 49.2081 36.1695 49.1562 36.1634L34.6314 32.0551C34.4873 32.3199 34.2672 32.5375 33.9982 32.681C33.7292 32.8245 33.4232 32.8876 33.118 32.8625C32.9077 32.85 32.702 32.7965 32.5131 32.7053V32.6918ZM12.3009 29.8973L9.75578 22.5688C9.55394 22.5519 9.36014 22.4835 9.19362 22.3705C9.02711 22.2575 8.89367 22.1037 8.80658 21.9246C8.71949 21.7454 8.68177 21.547 8.69717 21.3491C8.71256 21.1512 8.78054 20.9608 8.89435 20.7966L4.46193 13.3779C4.44357 13.3484 4.41643 13.3252 4.38417 13.3113C4.35191 13.2974 4.31608 13.2936 4.28152 13.3003C4.24695 13.307 4.21531 13.3239 4.19086 13.3487C4.16641 13.3736 4.15032 13.4052 4.14477 13.4392C3.49283 18.9093 5.58962 25.3019 12.3009 29.8973ZM23.9517 34.6923C24.0221 34.6923 23.9849 34.5619 23.9203 34.5331C23.0335 34.1092 16.7705 30.981 14.4133 25.8581C15.3596 27.0863 16.495 28.163 17.7788 29.0496L19.8521 22.7203C19.5327 22.5747 19.2523 22.3583 19.0328 22.0884C18.8133 21.8185 18.6608 21.5023 18.5873 21.1648L10.9951 21.6731C10.9553 21.8523 10.8723 22.0197 10.7531 22.1611C10.6339 22.3026 10.4819 22.4141 10.3098 22.4863L13.0703 30.4114C13.548 30.7067 17.6378 34.5484 23.9517 34.6942V34.6923ZM18.2486 29.3929C20.5471 31.0424 23.9928 32.9508 28.8833 34.3969L21.7315 22.7395C21.3835 22.8948 21.0008 22.9608 20.6195 22.9313C20.5423 22.922 20.4658 22.9079 20.3905 22.8891L18.2486 29.3929ZM22.2132 22.4595L29.6527 34.5714L32.0784 32.3581C31.908 32.165 31.7895 31.9332 31.7337 31.6839C31.6778 31.4345 31.6863 31.1755 31.7584 30.9302C31.8306 30.6848 31.964 30.461 32.1467 30.279C32.3294 30.097 32.5556 29.9625 32.8048 29.8878L31.1504 23.1192C31.1279 23.029 31.0787 22.9472 31.0091 22.8842C30.9395 22.8211 30.8525 22.7794 30.7589 22.7644L22.9708 21.4084C22.8292 21.8241 22.5657 22.1897 22.2132 22.4595Z" fill="url(#paint0_linear)"/>
<g opacity="1">
<path opacity="0.15" d="M20.5837 18.4833L20.6855 13.7344C19.9763 13.3104 19.2228 12.962 18.438 12.6948L20.5837 18.4833Z" fill="black"/>
<path opacity="0.15" d="M9.31096 20.4169L5.92791 11.5674L4.83155 12.0584C4.78011 12.0802 4.73406 12.1126 4.69651 12.1534C4.65896 12.1942 4.63079 12.2424 4.6139 12.2948C4.59701 12.3471 4.59179 12.4025 4.59861 12.457C4.60542 12.5115 4.6241 12.5639 4.6534 12.6108L9.31096 20.4169Z" fill="black"/>
<path opacity="0.15" d="M12.179 2.60462L10.603 8.35854C10.6226 8.37004 10.6402 8.38539 10.6598 8.39881L14.0174 2.40516C13.3985 2.3958 12.7809 2.46282 12.179 2.60462Z" fill="black"/>
<path opacity="0.15" d="M11.1592 8.98185C11.1723 9.03613 11.1814 9.09125 11.1866 9.1468L22.2441 4.02773C21.3466 3.99072 20.4476 4.00738 19.5522 4.0776C19.2679 4.09521 18.9855 4.02184 18.7475 3.86854L18.7064 3.83594L11.1592 8.98185Z" fill="black"/>
<path opacity="0.15" d="M18.5871 21.1704L10.9948 21.6729C10.955 21.8522 10.8721 22.0195 10.7529 22.1609C10.6337 22.3024 10.4817 22.4139 10.3096 22.4861L10.799 23.892L18.6301 21.2797C18.6145 21.2375 18.5988 21.2049 18.5871 21.1704Z" fill="black"/>
<path opacity="0.15" d="M10.9771 21.1168L12.7391 21.0017L10.284 10.5986L10.1392 20.3304C10.3364 20.3792 10.5173 20.4773 10.6642 20.6152C10.811 20.753 10.9189 20.9259 10.9771 21.1168Z" fill="black"/>
<path opacity="0.15" d="M4.58686 11.1647C4.57753 11.2045 4.57948 11.2461 4.5925 11.2849C4.60553 11.3237 4.62913 11.3584 4.66077 11.385C4.69241 11.4117 4.73088 11.4293 4.77202 11.4361C4.81316 11.4429 4.85542 11.4386 4.89423 11.4236L8.8098 9.66288C8.8098 9.63028 8.8098 9.59767 8.8098 9.56507L5.16832 9.46533C4.94148 10.0204 4.74734 10.5878 4.58686 11.1647Z" fill="black"/>
<path opacity="0.15" d="M33.3819 29.8245C33.4132 29.8245 33.4367 29.8456 33.468 29.8494L34.4959 25.7009C33.6188 24.88 32.7495 24.0533 31.8959 23.2363C31.8842 23.2237 31.8684 23.2154 31.8513 23.2128C31.8341 23.2102 31.8165 23.2134 31.8014 23.2219C31.7864 23.2304 31.7747 23.2437 31.7684 23.2595C31.7621 23.2754 31.7615 23.2929 31.7667 23.3092L33.3564 29.8187L33.3819 29.8245Z" fill="black"/>
<path opacity="0.15" d="M31.1776 33.1752L22.2129 22.4595L29.6446 34.5714L31.1776 33.1752Z" fill="black"/>
<path opacity="0.15" d="M8.70018 26.7691L4.16596 13.4258C4.16596 13.4373 4.14638 13.4354 4.14442 13.4469C3.62953 17.7585 4.87076 22.632 8.70018 26.7691Z" fill="black"/>
<path opacity="0.15" d="M34.6309 32.0742C34.4869 32.339 34.2667 32.5567 33.9978 32.7002C33.7288 32.8437 33.4227 32.9068 33.1175 32.8817C32.9059 32.8632 32.7001 32.8032 32.5126 32.7052L32.356 32.8491L44.5079 34.8668L34.6309 32.0742Z" fill="black"/>
<path opacity="0.15" d="M20.3884 22.8892L18.2485 29.393C18.7654 29.7632 19.3469 30.1468 19.9812 30.5342L20.4334 22.8988L20.3884 22.8892Z" fill="black"/>
<path opacity="0.15" d="M14.7163 26.4678C15.4661 27.9063 17.6197 31.6463 20.9009 34.3314C21.9029 34.5521 22.9245 34.6755 23.9512 34.6997C23.963 34.6813 23.9693 34.66 23.9693 34.6383C23.9693 34.6166 23.963 34.5953 23.9512 34.5769C23.941 34.5614 23.9268 34.5489 23.9101 34.5405C23.7985 34.4868 23.6046 34.3909 23.3443 34.2547C23.1485 34.1531 22.9155 34.0284 22.6532 33.8807C22.3908 33.733 22.0991 33.5643 21.7859 33.3725C21.6449 33.2862 21.4981 33.1941 21.3493 33.0982C21.1672 32.9831 20.9812 32.8623 20.7894 32.7319C20.6719 32.6551 20.5544 32.5746 20.435 32.4902C18.4518 31.0977 16.1024 29.057 14.7163 26.4678Z" fill="black"/>
<path opacity="0.15" d="M14.415 25.8638C14.415 25.8753 14.4699 25.9808 14.5638 26.1687C14.5149 26.069 14.462 25.9673 14.415 25.8638Z" fill="black"/>
</g>
<defs>
<linearGradient id="paint0_linear" x1="37.4199" y1="15.7744" x2="5.1914" y2="34.2962" gradientUnits="userSpaceOnUse">
<stop stop-color="#EC008C"/>
<stop offset="1" stop-color="#2B328C"/>
</linearGradient>
</defs>
</svg>
