<svg id="Layer_1" data-name="Layer 1" xmlns="http://www.w3.org/2000/svg" xmlns:xlink="http://www.w3.org/1999/xlink" viewBox="0 0 663.55 358.49"><defs><style>.cls-1{fill:#444f59;}.cls-2{fill:url(#linear-gradient);}.cls-3{opacity:0.15;}</style><linearGradient id="linear-gradient" x1="422.23" y1="88.95" x2="226.01" y2="221.07" gradientUnits="userSpaceOnUse"><stop offset="0" stop-color="#ec008c"/><stop offset="1" stop-color="#2b328c"/></linearGradient></defs><title>Code Crow-1</title><path class="cls-1" d="M89.49,257.3a65.22,65.22,0,0,1,.9,9.46c0,1.7-.06,3.4-.15,5.1a35,35,0,0,1-.6,4.8L44.31,300.87l45.33,23.31a34.9,34.9,0,0,1,.6,4.73c.09,1.65.15,3.32.15,5,0,1.41-.06,3-.15,4.81a42.15,42.15,0,0,1-.75,5.7L27.35,312A53.24,53.24,0,0,1,26,300.27a43.8,43.8,0,0,1,1.35-10.65Z"/><path class="cls-1" d="M134.63,341.47a40.5,40.5,0,0,1-16.44-3.08,31.2,31.2,0,0,1-11.56-8.55A37.28,37.28,0,0,1,99.73,317a52.45,52.45,0,0,1-2.33-15.9A53.94,53.94,0,0,1,99.73,285a37.26,37.26,0,0,1,6.9-13,32.06,32.06,0,0,1,11.56-8.63,39.66,39.66,0,0,1,16.44-3.15,40.14,40.14,0,0,1,16.5,3.15,32.54,32.54,0,0,1,11.71,8.63,35.69,35.69,0,0,1,6.9,13A55.61,55.61,0,0,1,172,301.1a54.07,54.07,0,0,1-2.26,15.9,35.67,35.67,0,0,1-6.9,12.84,31.67,31.67,0,0,1-11.71,8.55A41,41,0,0,1,134.63,341.47Zm0-16.21q8.4,0,12.08-6.23t3.67-17.93q0-11.72-3.67-17.94t-12.08-6.23q-8.26,0-11.94,6.23T119,301.1q0,11.7,3.67,17.93T134.63,325.26Z"/><path class="cls-1" d="M229.33,230a49.5,49.5,0,0,1,5.32-.6c1.75-.1,3.48-.15,5.18-.15s3.45,0,5.26.15a49.54,49.54,0,0,1,5.4.6V337.12a108.27,108.27,0,0,1-14.33,3.22,117.73,117.73,0,0,1-17.64,1.13,52.91,52.91,0,0,1-15.23-2.18,35,35,0,0,1-12.84-6.9,32.73,32.73,0,0,1-8.78-12.23q-3.22-7.52-3.22-18.31a46.59,46.59,0,0,1,2.77-16.14,38.53,38.53,0,0,1,8-13.13,37.52,37.52,0,0,1,12.53-8.78,40.31,40.31,0,0,1,16.36-3.23c1.8,0,3.68.08,5.63.23a29.44,29.44,0,0,1,5.63,1Zm0,48.17a41.69,41.69,0,0,0-4.88-1,40.82,40.82,0,0,0-4.73-.23,17.62,17.62,0,0,0-8.63,2,18,18,0,0,0-6.08,5.4,23,23,0,0,0-3.52,8,39.23,39.23,0,0,0-1.13,9.53,31.72,31.72,0,0,0,1.5,10.43A17.23,17.23,0,0,0,206,319.1a15.3,15.3,0,0,0,6.23,3.68,26,26,0,0,0,7.8,1.13,43.82,43.82,0,0,0,4.65-.23,27,27,0,0,0,4.66-1Z"/><path class="cls-1" d="M282,307.4q.58,9,6.3,13.06t15,4.05a57.89,57.89,0,0,0,10.43-1,59.13,59.13,0,0,0,10.13-2.77,34.84,34.84,0,0,1,2.85,7.2,36.93,36.93,0,0,1,1.35,9,73.14,73.14,0,0,1-26.41,4.5,51.24,51.24,0,0,1-18.54-3,33,33,0,0,1-12.61-8.33,33.4,33.4,0,0,1-7.2-12.69A53,53,0,0,1,261,301.4a52.38,52.38,0,0,1,2.4-16.06,37.48,37.48,0,0,1,7.13-13.06,33.86,33.86,0,0,1,11.71-8.78,38.47,38.47,0,0,1,16.29-3.23,34.59,34.59,0,0,1,14.4,2.85,31.82,31.82,0,0,1,10.73,7.81,32.89,32.89,0,0,1,6.68,11.78,46.5,46.5,0,0,1,2.25,14.63c0,1.91-.07,3.78-.22,5.63s-.33,3.33-.53,4.43Zm30.46-14.86q-.3-7.2-4-11.63t-10.28-4.43q-7.5,0-11.4,4.2t-4.65,11.86Z"/><path class="cls-1" d="M396.22,326.31a23.86,23.86,0,0,1,2.1,5.25,28.12,28.12,0,0,1,1.05,6.46,55.51,55.51,0,0,1-20.26,3.45q-19.22,0-29-10.88t-9.75-29.34a51,51,0,0,1,2.4-15.91,36.2,36.2,0,0,1,7.13-12.76A33.63,33.63,0,0,1,361.7,264a39.6,39.6,0,0,1,16.36-3.16,72.89,72.89,0,0,1,11.11.75,45.57,45.57,0,0,1,9.15,2.41,30.61,30.61,0,0,1-.67,5.92,25.84,25.84,0,0,1-1.88,5.93A51.19,51.19,0,0,0,379,273.33q-11.56,0-17.26,7.65T356,301.25q0,14.4,6.45,21.08T380.16,329a53.91,53.91,0,0,0,8.33-.6A37.89,37.89,0,0,0,396.22,326.31Z"/><path class="cls-1" d="M410.63,262.67c1.1-.19,2.15-.35,3.15-.45s2.05-.15,3.15-.15,2.2.05,3.3.15a25.82,25.82,0,0,1,3,.45q.45,2.25.9,5.93a52.78,52.78,0,0,1,.45,6.23,31.21,31.21,0,0,1,8.33-8.85c3.46-2.5,7.88-3.76,13.29-3.76.8,0,1.62,0,2.47.08s1.58.13,2.18.22a24.45,24.45,0,0,1,.45,2.86q.15,1.5.15,3.15a32.78,32.78,0,0,1-.23,3.75c-.15,1.3-.32,2.55-.52,3.75a10.21,10.21,0,0,0-2.48-.3h-2a26.28,26.28,0,0,0-7.73,1.13,16.21,16.21,0,0,0-6.61,4,19.87,19.87,0,0,0-4.65,7.81,39.45,39.45,0,0,0-1.73,12.76v38.27a35.08,35.08,0,0,1-3.67.45c-1.35.1-2.58.15-3.68.15s-2.33,0-3.68-.15-2.62-.25-3.82-.45Z"/><path class="cls-1" d="M489.42,341.47a37.75,37.75,0,0,1-15.76-3.08,31.3,31.3,0,0,1-11.25-8.48,35.11,35.11,0,0,1-6.68-12.76,59.11,59.11,0,0,1,0-31.81,35.19,35.19,0,0,1,6.68-12.76A32.05,32.05,0,0,1,473.66,264a40.88,40.88,0,0,1,31.52,0,32.18,32.18,0,0,1,11.26,8.55,35.5,35.5,0,0,1,6.68,12.76,59.37,59.37,0,0,1,0,31.81,35.42,35.42,0,0,1-6.68,12.76,31.42,31.42,0,0,1-11.26,8.48A37.72,37.72,0,0,1,489.42,341.47Zm0-11.86q10.36,0,15.31-7.5t4.95-20.86q0-13.37-4.95-20.79T489.42,273q-10.35,0-15.23,7.43t-4.88,20.79q0,13.35,4.88,20.86T489.42,329.61Z"/><path class="cls-1" d="M527.84,262.67c1.4-.19,2.8-.35,4.2-.45s2.65-.15,3.76-.15c1.4,0,2.82.05,4.27.15a37.93,37.93,0,0,1,3.83.45l15,62.89,17-62.89c1.1-.19,2.3-.35,3.6-.45s2.65-.15,4-.15c1.6.1,3,.18,4.13.23a26.88,26.88,0,0,1,3.38.37l16.81,61.84,15-61.84c1.1-.19,2.2-.35,3.31-.45s2.3-.15,3.6-.15c1.1,0,2.32.05,3.68.15s2.72.26,4.12.45l-23,77c-1.3.2-2.63.35-4,.45s-2.57.15-3.67.15-2.31,0-3.61-.15-2.6-.25-3.9-.45l-16.51-58.24-17.26,58.24c-1.4.2-2.77.35-4.12.45s-2.58.15-3.68.15-2.33,0-3.68-.15a35.29,35.29,0,0,1-3.68-.45Z"/><path class="cls-2" d="M348.17,30.54c-67,3.32-80.46,45.7-83.12,60.85a1.21,1.21,0,0,0,2.19.88c7.86-12.1,18.06-16.11,30.08-14.52l17.6,38.14A14.46,14.46,0,0,0,306.47,129c0,.24.06.45.07.69L259,136.92a7.42,7.42,0,0,0-5.73-4.69l-4.37-62.9a7.8,7.8,0,0,0,5.52-7.44,7.63,7.63,0,0,0-.85-3.46l45-37.23.27.14a8.29,8.29,0,0,0,5.21.92c25.77-4.11,39-.51,45.43,3.09A2.78,2.78,0,0,1,348.17,30.54ZM384,132.44c-31.19-25.76-59.69-48.67-82.36-53.9l16.72,36.25a14.35,14.35,0,0,1,17.12,14.09l48.16,4.44A.5.5,0,0,0,384,132.44ZM215.14,81.67a2.55,2.55,0,0,0-.83,3.67L248,133.29l1.65-.58L245.3,69.59a7.85,7.85,0,0,1-4.48-2.41Zm31-27.56,6.45-35.87C232.66,27.15,217.85,49.38,213.1,76a1.46,1.46,0,0,0,2.14,1.5l23.84-13.46a7.53,7.53,0,0,1-.35-2.18A7.81,7.81,0,0,1,246.14,54.11Zm236.58,149.3c-30.46-15-61.32-40.06-90.19-63.9a.5.5,0,0,0-.79.54l13.61,41.22.16,0a9.94,9.94,0,0,1,9.94,9.95c0,.15,0,.29,0,.44L482.18,205A.83.83,0,0,0,482.72,203.41ZM251.26,55.68,295,19.45c-13.77-6.43-26.91-6.82-38.52-2.78l-6.84,38.05A7.63,7.63,0,0,1,251.26,55.68ZM401.58,200.33l-13.24,14.59c31.61,5.68,71.29,7.57,120.38,1.47a1.25,1.25,0,0,0,.1-2.47l-94.18-18.79a9.94,9.94,0,0,1-13.06,5.2ZM272.12,193,252,147a7.36,7.36,0,0,1-6.41-11l-32-45.56a1.09,1.09,0,0,0-2,.56C210.38,126.65,227.14,166.84,272.12,193Zm76.35,24.78c.45,0,.13-.86-.29-1-5.85-2.26-47.19-19.13-64.89-51a95.94,95.94,0,0,0,23,18.82l9.68-42a14.45,14.45,0,0,1-8.85-9.37l-47.79,7.24a7.39,7.39,0,0,1-3.89,5.62l21.78,49.74C280.45,197.51,308.42,220.16,348.47,217.74Zm-39-31.22c15.44,9.44,38.28,19.94,70,26.67l-51.61-71.51a14.42,14.42,0,0,1-6.94,1.84,14.26,14.26,0,0,1-1.48-.15Zm21.32-46.91,53.63,74.3,14.15-15.59A9.91,9.91,0,0,1,401.84,182l-14.15-42.84a3.08,3.08,0,0,0-2.63-2.1l-50-4.61A14.46,14.46,0,0,1,330.81,139.61Z"/><g class="cls-3"><path d="M318.33,114.79,316.4,84.06a73.68,73.68,0,0,0-14.79-5.52Z"/><path d="M248,133.29h0L221.81,77.91l-6.67,3.76a2.55,2.55,0,0,0-.83,3.67Z"/><path d="M256.5,16.67l-6.84,38.05c.13.06.25.16.38.23L268,14.4A47.31,47.31,0,0,0,256.5,16.67Z"/><path d="M253.53,58.43a8.78,8.78,0,0,1,.26,1l67.19-39a141.73,141.73,0,0,0-17,1.75,8.29,8.29,0,0,1-5.21-.92l-.27-.14Z"/><path d="M307.16,133.22l-47.79,7.24a7.39,7.39,0,0,1-3.89,5.62l3.86,8.82,48.1-21.05C307.36,133.63,307.23,133.44,307.16,133.22Z"/><path d="M259,136.92l11.13-1.69-21.23-65.9,4.37,62.9A7.42,7.42,0,0,1,259,136.92Z"/><path d="M213.1,76a1.46,1.46,0,0,0,2.14,1.5l23.84-13.46c-.06-.2-.06-.43-.1-.63l-23.12,1.3A100,100,0,0,0,213.1,76Z"/><path d="M405.51,181.25c.2,0,.36.11.56.12l4.25-27.32c-6-4.84-11.94-9.71-17.79-14.54a.5.5,0,0,0-.79.54l13.61,41.22Z"/><polygon points="393.37 204.07 330.81 139.61 384.44 213.91 393.37 204.07"/><path d="M247.63,174.65l-36-83.84c0,.07-.11.07-.12.15C210.63,119.14,221.14,150,247.63,174.65Z"/><path d="M414.64,195.13a9.94,9.94,0,0,1-13.06,5.2l-.91,1,78,6.57Z"/><path d="M319.49,143.37l-10,43.15c3.46,2.12,7.36,4.29,11.58,6.46l-1.29-49.58Z"/><path d="M285.53,169.48c5.56,8.91,21.23,31.91,43.42,47.51a99.61,99.61,0,0,0,19.52.75h0a.74.74,0,0,0,0-.8.72.72,0,0,0-.28-.22h0c-.73-.28-2-.79-3.74-1.53-1.29-.56-2.83-1.24-4.57-2.05s-3.68-1.76-5.77-2.83c-.94-.48-1.91-1-2.91-1.54-1.22-.65-2.46-1.33-3.75-2.06-.77-.45-1.56-.9-2.36-1.38C311.7,197.43,295.72,185.49,285.53,169.48Z"/><polygon points="283.29 165.74 283.29 165.75 283.29 165.75 283.29 165.74"/><path d="M283.3,165.77c0,.06.41.72,1.11,1.89C284,167,283.66,166.41,283.3,165.77Z"/></g>
<text x="640" y="340" font-family="monospace" font-size="25px" fill="#444f59">®</text></svg>