<svg width="28" height="28" viewBox="0 0 28 28" fill="none" xmlns="http://www.w3.org/2000/svg">
<g clip-path="url(#clip0_7535_48037)">
<path d="M27.3471 14.2615C27.3471 13.1144 27.2541 12.2773 27.0526 11.4092H13.9533V16.5868H21.6423C21.4873 17.8735 20.6502 19.8113 18.7899 21.1134L18.7639 21.2868L22.9056 24.4953L23.1926 24.524C25.8279 22.0901 27.3471 18.5091 27.3471 14.2615Z" fill="#4285F4"/>
<path d="M13.9533 27.9035C17.7203 27.9035 20.8827 26.6632 23.1926 24.524L18.7899 21.1135C17.6118 21.9351 16.0305 22.5087 13.9533 22.5087C10.2638 22.5087 7.13242 20.0749 6.01616 16.7109L5.85254 16.7248L1.54588 20.0578L1.48956 20.2144C3.78385 24.772 8.49651 27.9035 13.9533 27.9035Z" fill="#34A853"/>
<path d="M6.01617 16.7113C5.72163 15.8432 5.55118 14.913 5.55118 13.9519C5.55118 12.9907 5.72163 12.0606 6.00067 11.1925L5.99287 11.0076L1.63224 7.62109L1.48957 7.68896C0.543984 9.58024 0.00140381 11.7041 0.00140381 13.9519C0.00140381 16.1997 0.543984 18.3234 1.48957 20.2147L6.01617 16.7113Z" fill="#FBBC05"/>
<path d="M13.9533 5.3947C16.5731 5.3947 18.3403 6.52635 19.348 7.47205L23.2855 3.6275C20.8673 1.37969 17.7203 0 13.9533 0C8.49651 0 3.78385 3.1314 1.48956 7.68899L6.00066 11.1925C7.13242 7.82857 10.2638 5.3947 13.9533 5.3947Z" fill="#EB4335"/>
</g>
<defs>
<clipPath id="clip0_7535_48037">
<rect width="27.3616" height="28" fill="white"/>
</clipPath>
</defs>
</svg>
