<svg width="18" height="14" viewBox="0 0 18 14" fill="none" xmlns="http://www.w3.org/2000/svg">
<path d="M15.2066 6.18158L5.72739 6.18158C5.27553 6.18158 4.9092 6.54791 4.9092 6.99976C4.9092 7.45162 5.27553 7.81794 5.72739 7.81794L15.2066 7.81794L14.1487 8.87574C13.8292 9.19522 13.8292 9.71329 14.1487 10.0328C14.4681 10.3523 14.9862 10.3523 15.3058 10.0328L17.7602 7.57843C17.7791 7.55951 17.797 7.53971 17.8141 7.51898C17.8182 7.51391 17.8217 7.50845 17.8258 7.50327C17.8383 7.4874 17.8505 7.47147 17.8618 7.45467C17.8651 7.44976 17.8677 7.44458 17.8709 7.43961C17.8822 7.42205 17.8932 7.40432 17.9031 7.38583C17.905 7.38218 17.9066 7.37831 17.9085 7.37465C17.9188 7.35463 17.9288 7.33434 17.9374 7.3134C17.9385 7.31083 17.9393 7.3081 17.9403 7.30549C17.9492 7.28345 17.9575 7.26114 17.9644 7.23818C17.9654 7.23529 17.9659 7.23229 17.9667 7.22934C17.9733 7.20681 17.9793 7.18407 17.984 7.16078C17.9853 7.15385 17.9859 7.1467 17.9872 7.13972C17.9906 7.12041 17.9939 7.1011 17.9959 7.08141C17.9986 7.05441 18 7.02714 18 6.99976C18 6.97238 17.9986 6.94511 17.9959 6.91805C17.9939 6.89809 17.9905 6.87861 17.9871 6.85914C17.9859 6.85238 17.9853 6.84545 17.984 6.83874C17.9793 6.81523 17.9733 6.79227 17.9666 6.76952C17.9658 6.76685 17.9653 6.76401 17.9645 6.76134C17.9575 6.73827 17.9492 6.71574 17.9402 6.69349C17.9392 6.69109 17.9385 6.68852 17.9375 6.68612C17.9288 6.66501 17.9188 6.64461 17.9084 6.62449C17.9066 6.62094 17.905 6.61723 17.9032 6.61369C17.8931 6.59509 17.8821 6.5772 17.8707 6.55947C17.8676 6.55467 17.865 6.5496 17.8618 6.5449C17.8505 6.52805 17.8382 6.51201 17.8257 6.49609C17.8217 6.49096 17.8182 6.48556 17.8141 6.48054C17.797 6.45987 17.7791 6.44001 17.7602 6.42109L15.3058 3.9667C15.1461 3.80689 14.9367 3.72703 14.7273 3.72703C14.5179 3.72703 14.3085 3.80689 14.1488 3.9667C13.8292 4.28623 13.8292 4.80425 14.1488 5.12378L15.2066 6.18158Z" fill="white"/>
<path d="M6.69312 13.6924C8.92643 13.6924 11.0043 12.5845 12.2515 10.7288C12.5035 10.3538 12.4038 9.8454 12.0288 9.59335C11.6537 9.34135 11.1454 9.44095 10.8933 9.81606C9.95069 11.2187 8.38054 12.0561 6.69312 12.0561C3.90503 12.056 1.6367 9.78775 1.6367 6.99961C1.6367 4.21146 3.90503 1.94319 6.69312 1.94319C8.37558 1.94319 9.94316 2.77681 10.8865 4.17306C11.1395 4.54752 11.648 4.64592 12.0225 4.39299C12.3969 4.14001 12.4954 3.63143 12.2424 3.25703C10.9944 1.40968 8.91989 0.306829 6.69312 0.306829C3.00274 0.306829 0.000336693 3.30917 0.000337016 6.99961C0.000337338 10.69 3.00274 13.6924 6.69312 13.6924Z" fill="white"/>
</svg>
