<svg id="Layer_1" data-name="Layer 1" xmlns="http://www.w3.org/2000/svg" viewBox="0 0 611.55 115.23"><defs><style>.cls-1{fill:#444f59;}</style></defs><title>Code Crow-3</title><path class="cls-1" d="M81.71,30.32a59.35,59.35,0,0,1,.83,8.74c0,1.58,0,3.15-.14,4.72a31.69,31.69,0,0,1-.55,4.44L39.93,70.61,81.85,92.16a31.56,31.56,0,0,1,.55,4.38c.1,1.52.14,3.07.14,4.64,0,1.3,0,2.78-.14,4.45a37.23,37.23,0,0,1-.69,5.27l-57.46-30A49.42,49.42,0,0,1,23,70.05a40.67,40.67,0,0,1,1.25-9.85Z"/><path class="cls-1" d="M123.46,108.15a37.55,37.55,0,0,1-15.2-2.84A28.88,28.88,0,0,1,97.57,97.4a34.73,34.73,0,0,1-6.39-11.87A48.65,48.65,0,0,1,89,70.82,50.08,50.08,0,0,1,91.18,56a34.53,34.53,0,0,1,6.39-12,29.38,29.38,0,0,1,10.69-8,36.7,36.7,0,0,1,15.2-2.92A37.19,37.19,0,0,1,138.72,36a30,30,0,0,1,10.83,8,33.08,33.08,0,0,1,6.38,12A51.42,51.42,0,0,1,158,70.82a50,50,0,0,1-2.08,14.71,33.25,33.25,0,0,1-6.38,11.87,29.48,29.48,0,0,1-10.83,7.91A38.05,38.05,0,0,1,123.46,108.15Zm0-15q7.77,0,11.17-5.76T138,70.82q0-10.83-3.4-16.59t-11.17-5.76c-5.1,0-8.77,1.92-11,5.76S109,63.6,109,70.82s1.13,12.74,3.4,16.58S118.36,93.16,123.46,93.16Z"/><path class="cls-1" d="M211,5A47.41,47.41,0,0,1,216,4.47c1.62-.09,3.21-.14,4.79-.14s3.19,0,4.86.14a47,47,0,0,1,5,.56v99.1a99.91,99.91,0,0,1-13.25,3,108.11,108.11,0,0,1-16.31,1,49,49,0,0,1-14.09-2,32.34,32.34,0,0,1-11.87-6.39A30.23,30.23,0,0,1,167,88.44q-3-6.93-3-16.93a42.85,42.85,0,0,1,2.57-14.92,35.57,35.57,0,0,1,7.35-12.15,34.84,34.84,0,0,1,11.59-8.11,37.28,37.28,0,0,1,15.13-3c1.67,0,3.4.07,5.21.21a27.43,27.43,0,0,1,5.2.9Zm0,44.55a38.9,38.9,0,0,0-4.51-.9,37.48,37.48,0,0,0-4.37-.21,16.28,16.28,0,0,0-8,1.87,16.68,16.68,0,0,0-5.62,5,21.22,21.22,0,0,0-3.26,7.36,36.46,36.46,0,0,0-1,8.81,29.49,29.49,0,0,0,1.38,9.65,16.09,16.09,0,0,0,3.82,6.31,14.12,14.12,0,0,0,5.76,3.4,23.91,23.91,0,0,0,7.22,1c1.57,0,3-.07,4.3-.2a24.09,24.09,0,0,0,4.3-.91Z"/><path class="cls-1" d="M259.75,76.65q.56,8.32,5.83,12.07t13.88,3.75a53.76,53.76,0,0,0,9.65-.9A54.57,54.57,0,0,0,298.47,89a32.08,32.08,0,0,1,2.64,6.66,34,34,0,0,1,1.25,8.33,67.77,67.77,0,0,1-24.43,4.16,47.37,47.37,0,0,1-17.14-2.77,30.36,30.36,0,0,1-11.66-7.71,30.75,30.75,0,0,1-6.66-11.73,48.8,48.8,0,0,1-2.15-14.85,48.5,48.5,0,0,1,2.22-14.85,34.77,34.77,0,0,1,6.59-12.07A31.21,31.21,0,0,1,260,36.05a35.53,35.53,0,0,1,15.06-3,32,32,0,0,1,13.32,2.64,29.26,29.26,0,0,1,9.92,7.22,30.38,30.38,0,0,1,6.18,10.89,43,43,0,0,1,2.08,13.54c0,1.75-.07,3.49-.2,5.2s-.31,3.08-.49,4.1ZM287.92,62.9q-.27-6.66-3.67-10.75t-9.51-4.1q-6.94,0-10.55,3.89t-4.3,11Z"/><path class="cls-1" d="M365.37,94.13A22.5,22.5,0,0,1,367.32,99a26.67,26.67,0,0,1,1,6,51.3,51.3,0,0,1-18.74,3.19q-17.78,0-26.79-10.06t-9-27.14A47.18,47.18,0,0,1,316,56.24a33.63,33.63,0,0,1,6.59-11.8,31.25,31.25,0,0,1,10.9-7.91,36.83,36.83,0,0,1,15.13-2.91,67.65,67.65,0,0,1,10.27.69,43.36,43.36,0,0,1,8.47,2.22,28.25,28.25,0,0,1-.63,5.49A23.54,23.54,0,0,1,365,47.5a47.44,47.44,0,0,0-15.55-2.36q-10.7,0-16,7.08T328.18,71q0,13.33,6,19.51t16.38,6.17a49.79,49.79,0,0,0,7.7-.55A34.82,34.82,0,0,0,365.37,94.13Z"/><path class="cls-1" d="M378.7,35.28c1-.18,2-.32,2.91-.41s1.9-.14,2.91-.14,2,.05,3.06.14a22.34,22.34,0,0,1,2.77.41q.42,2.09.84,5.49a48,48,0,0,1,.41,5.76,28.65,28.65,0,0,1,7.71-8.19q4.79-3.47,12.28-3.47c.74,0,1.5,0,2.29.07s1.46.11,2,.2a21.41,21.41,0,0,1,.42,2.64c.09.93.14,1.9.14,2.92a30,30,0,0,1-.21,3.47c-.14,1.2-.3,2.36-.49,3.47a9.15,9.15,0,0,0-2.29-.28h-1.87a24.44,24.44,0,0,0-7.15,1,14.81,14.81,0,0,0-6.1,3.68A18.16,18.16,0,0,0,394,59.3a36.57,36.57,0,0,0-1.59,11.79v35.4a33.39,33.39,0,0,1-3.4.41c-1.25.09-2.39.14-3.4.14s-2.16-.05-3.41-.14-2.43-.23-3.53-.41Z"/><path class="cls-1" d="M451.56,108.15A34.94,34.94,0,0,1,437,105.31a29.06,29.06,0,0,1-10.41-7.84,32.69,32.69,0,0,1-6.18-11.8,51.76,51.76,0,0,1-2-14.72,51.74,51.74,0,0,1,2-14.71,32.69,32.69,0,0,1,6.18-11.8A29.82,29.82,0,0,1,437,36.53a38,38,0,0,1,29.15,0,29.82,29.82,0,0,1,10.41,7.91,32.82,32.82,0,0,1,6.17,11.8,51.73,51.73,0,0,1,2,14.71,51.75,51.75,0,0,1-2,14.72,32.82,32.82,0,0,1-6.17,11.8,29.06,29.06,0,0,1-10.41,7.84A35,35,0,0,1,451.56,108.15Zm0-11q9.58,0,14.16-6.94T470.3,71q0-12.35-4.58-19.22t-14.16-6.87q-9.57,0-14.08,6.87T433,71q0,12.36,4.51,19.3T451.56,97.19Z"/><path class="cls-1" d="M487.09,35.28c1.3-.18,2.59-.32,3.89-.41s2.45-.14,3.47-.14c1.29,0,2.61.05,3.95.14a33.32,33.32,0,0,1,3.55.41l13.87,58.16,15.69-58.16c1-.18,2.13-.32,3.33-.41s2.45-.14,3.75-.14l3.81.21a24.56,24.56,0,0,1,3.13.34l15.54,57.19L575,35.28c1-.18,2-.32,3-.41s2.13-.14,3.34-.14c1,0,2.15.05,3.4.14s2.52.23,3.81.41l-21.23,71.21c-1.21.18-2.43.32-3.68.41s-2.38.14-3.4.14-2.13-.05-3.33-.14-2.41-.23-3.61-.41L538,52.63l-16,53.86c-1.3.18-2.57.32-3.82.41s-2.38.14-3.4.14-2.15-.05-3.4-.14a33.39,33.39,0,0,1-3.4-.41Z"/></svg>