<svg width="165" height="39" viewBox="0 0 165 39" fill="none" xmlns="http://www.w3.org/2000/svg">
<path d="M49.2661 10.0024C49.3738 10.6264 49.4353 11.2571 49.4501 11.8897C49.4501 12.2311 49.4384 12.5706 49.4188 12.9082C49.4005 13.2302 49.3593 13.5507 49.2955 13.8672L40.0587 18.7004L49.2955 23.3534C49.3588 23.6648 49.4 23.9801 49.4188 24.2971C49.4384 24.627 49.4501 24.9626 49.4501 25.3021C49.4501 25.5821 49.4384 25.9005 49.4188 26.2611C49.3942 26.6431 49.3432 27.0231 49.2661 27.3984L36.611 20.9195C36.4324 20.1524 36.3404 19.3683 36.3369 18.5815C36.3397 17.8642 36.4317 17.15 36.611 16.4545L49.2661 10.0024Z" fill="#444F59"/>
<path d="M58.4657 26.8073C57.3177 26.8328 56.1769 26.6238 55.116 26.1935C54.2083 25.8098 53.4041 25.2248 52.7666 24.4846C52.13 23.7295 51.6516 22.8587 51.359 21.9222C51.0358 20.8936 50.876 19.8223 50.8852 18.7461C50.8753 17.6589 51.0331 16.5764 51.3531 15.5354C51.6417 14.5885 52.1203 13.7076 52.7608 12.9442C53.3999 12.2015 54.2033 11.6111 55.1101 11.218C56.1685 10.7779 57.3104 10.5635 58.4599 10.5889C59.6143 10.5648 60.761 10.7792 61.8253 11.218C62.7428 11.6099 63.558 12.2 64.2099 12.9442C64.8604 13.7019 65.3419 14.5845 65.6234 15.5354C65.9349 16.5767 66.0893 17.6571 66.0815 18.7422C66.0909 19.8174 65.9365 20.8879 65.6234 21.9184C65.34 22.8598 64.8607 23.7336 64.2157 24.4846C63.5656 25.2263 62.7496 25.8111 61.8312 26.1935C60.7644 26.6227 59.6187 26.8316 58.4657 26.8073ZM58.4657 23.5717C59.6078 23.5717 60.4287 23.1568 60.9286 22.3269C61.4285 21.4971 61.6758 20.3035 61.6706 18.7461C61.6706 17.1887 61.4213 15.9951 60.9227 15.1652C60.4242 14.3354 59.6032 13.9205 58.4599 13.9205C57.3374 13.9205 56.5269 14.3354 56.0283 15.1652C55.5297 15.9951 55.2798 17.1887 55.2785 18.7461C55.2785 20.3035 55.5284 21.4971 56.0283 22.3269C56.5282 23.1568 57.3407 23.5717 58.4657 23.5717Z" fill="#444F59"/>
<path d="M77.767 4.54169C78.1261 4.48271 78.4882 4.44301 78.8517 4.42278C79.208 4.40168 79.5604 4.39209 79.9089 4.39209C80.2573 4.39209 80.6117 4.40168 80.9778 4.42278C81.3472 4.44249 81.7151 4.48219 82.08 4.54169V25.9386C81.1225 26.2183 80.1465 26.4336 79.159 26.583C77.9702 26.7455 76.7707 26.8205 75.5704 26.8074C74.5193 26.8115 73.4731 26.6649 72.4654 26.372C71.5043 26.0985 70.6129 25.6293 69.8498 24.9949C69.0677 24.3276 68.4551 23.491 68.0604 22.5514C67.6218 21.5541 67.4025 20.3355 67.4025 18.8958C67.3952 17.7974 67.5867 16.7064 67.9684 15.6736C68.324 14.7021 68.8753 13.8105 69.5894 13.0517C70.3098 12.3025 71.1793 11.7059 72.1443 11.2987C73.1961 10.86 74.3295 10.6405 75.4725 10.6543C75.8386 10.6543 76.2223 10.6696 76.6198 10.7003C77.0077 10.7272 77.392 10.7915 77.767 10.8921V4.54169ZM77.767 14.1622C77.4398 14.0786 77.1077 14.0145 76.7725 13.9704C76.4526 13.9364 76.131 13.9211 75.8093 13.9244C75.1964 13.9105 74.59 14.0497 74.0473 14.3291C73.5564 14.5922 73.1332 14.9615 72.8099 15.4089C72.4694 15.8888 72.2249 16.4277 72.0895 16.997C71.9351 17.6198 71.8582 18.2587 71.8604 18.8996C71.8427 19.6059 71.9466 20.3101 72.1678 20.9825C72.3349 21.4952 72.6226 21.9623 73.0077 22.3462C73.3655 22.6867 73.8011 22.9385 74.2783 23.0808C74.7935 23.2343 75.3295 23.31 75.868 23.3052C76.1844 23.3063 76.5007 23.2916 76.8156 23.2611C77.1371 23.2242 77.4548 23.16 77.7651 23.0693L77.767 14.1622Z" fill="#444F59"/>
<path d="M88.5034 20.0044C88.5843 21.2038 89.0124 22.0733 89.7877 22.6129C90.563 23.1525 91.5824 23.4216 92.8458 23.4203C93.559 23.42 94.2707 23.3558 94.9719 23.2286C95.6758 23.104 96.367 22.9186 97.0374 22.6743C97.2864 23.1312 97.4834 23.6136 97.6247 24.1127C97.7913 24.6985 97.884 25.302 97.9008 25.9099C96.1781 26.5322 94.3528 26.8372 92.5169 26.8094C91.0485 26.8094 89.789 26.6093 88.7384 26.2091C87.7595 25.8599 86.8773 25.2919 86.1619 24.55C85.4883 23.8225 84.9875 22.9579 84.6955 22.0183C84.0565 19.9262 84.0613 17.696 84.7092 15.6065C85.0116 14.6511 85.5054 13.7643 86.1619 12.9981C86.8177 12.2505 87.6322 11.6523 88.5485 11.2451C89.5966 10.795 90.7326 10.5751 91.8767 10.6006C92.8864 10.5841 93.8878 10.7803 94.8134 11.176C95.6469 11.5391 96.3927 12.0704 97.0022 12.7353C97.6177 13.4179 98.0811 14.2188 98.3628 15.0868C98.6736 16.0303 98.8283 17.0164 98.8209 18.0078C98.8209 18.3914 98.8053 18.7635 98.7759 19.1318C98.7465 19.5 98.7094 19.7973 98.6682 20.016L88.5034 20.0044ZM94.7135 17.0373C94.6731 16.0809 94.4022 15.3073 93.901 14.7166C93.3998 14.1259 92.7016 13.8311 91.8062 13.8324C90.7868 13.8324 90.0122 14.1118 89.4823 14.6706C88.9524 15.2293 88.6366 16.0183 88.5347 17.0373H94.7135Z" fill="#444F59"/>
<path d="M111.789 23.7826C111.973 24.1147 112.117 24.4669 112.218 24.8318C112.34 25.2518 112.412 25.6843 112.431 26.1206C111.111 26.5994 109.71 26.8329 108.302 26.8092C105.692 26.8092 103.724 26.0848 102.398 24.6361C101.072 23.1874 100.407 21.2343 100.403 18.7767C100.393 17.6993 100.558 16.6271 100.892 15.6006C101.194 14.6627 101.688 13.7952 102.345 13.0516C103.007 12.3182 103.825 11.7356 104.741 11.3446C105.793 10.9072 106.927 10.6928 108.069 10.7155C108.827 10.7087 109.585 10.7587 110.335 10.8651C110.972 10.9609 111.597 11.1216 112.2 11.3446C112.193 11.7425 112.147 12.1389 112.061 12.528C111.981 12.9366 111.849 13.334 111.67 13.7114C110.572 13.3583 109.421 13.1866 108.265 13.2031C106.699 13.2031 105.524 13.7146 104.741 14.7375C103.958 15.7604 103.571 17.1094 103.58 18.7844C103.58 20.7024 104.019 22.1057 104.896 22.9943C105.773 23.883 106.976 24.3305 108.504 24.3369C109.072 24.3398 109.64 24.3 110.201 24.218C110.745 24.1284 111.277 23.9824 111.789 23.7826Z" fill="#444F59"/>
<path d="M114.727 11.0745C114.95 11.0361 115.165 11.0054 115.369 10.9843C115.572 10.9632 115.786 10.9556 116.011 10.9556C116.236 10.9556 116.459 10.9652 116.684 10.9843C116.89 11.0031 117.093 11.0332 117.295 11.0745C117.356 11.3737 117.419 11.7688 117.479 12.2579C117.535 12.6707 117.565 13.0863 117.571 13.5026C118.013 12.8095 118.59 12.2086 119.269 11.7343C119.972 11.2356 120.875 10.9856 121.976 10.9843C122.139 10.9843 122.307 10.9843 122.481 10.9997C122.63 11.0077 122.777 11.0231 122.924 11.0457C122.966 11.2356 122.997 11.4277 123.016 11.6211C123.035 11.8129 123.047 12.0296 123.047 12.2483C123.047 12.4989 123.031 12.7494 123 12.9982C122.969 13.259 122.934 13.5084 122.892 13.7481C122.728 13.708 122.559 13.688 122.389 13.6887H121.97C121.44 13.6872 120.912 13.7628 120.404 13.9131C119.897 14.0673 119.435 14.3398 119.059 14.7071C118.623 15.1469 118.298 15.6801 118.11 16.2645C117.851 17.089 117.733 17.9495 117.759 18.8116V26.4489C117.511 26.4906 117.261 26.5201 117.009 26.5372C116.733 26.5583 116.483 26.5678 116.26 26.5678C116.036 26.5678 115.786 26.5583 115.51 26.5372C115.234 26.5161 114.975 26.4873 114.727 26.4489V11.0745Z" fill="#444F59"/>
<path d="M130.78 26.8075C129.677 26.8307 128.581 26.6214 127.567 26.1938C126.681 25.8069 125.897 25.2278 125.273 24.5002C124.642 23.7523 124.176 22.8853 123.902 21.9531C123.31 19.8755 123.31 17.6785 123.902 15.6008C124.176 14.6679 124.642 13.8002 125.273 13.0518C125.899 12.3229 126.683 11.7398 127.567 11.3448C128.585 10.9296 129.677 10.7158 130.779 10.7158C131.882 10.7158 132.973 10.9296 133.991 11.3448C134.876 11.7398 135.659 12.3229 136.285 13.0518C136.913 13.801 137.376 14.6687 137.646 15.6008C138.239 17.6785 138.239 19.8755 137.646 21.9531C137.375 22.8845 136.912 23.7514 136.285 24.5002C135.662 25.2278 134.877 25.8069 133.991 26.1938C132.978 26.6214 131.883 26.8308 130.78 26.8075ZM130.78 24.4407C132.186 24.4407 133.225 23.9408 133.899 22.9409C134.572 21.941 134.909 20.553 134.909 18.777C134.909 16.9984 134.572 15.6149 133.899 14.6265C133.225 13.6381 132.186 13.1432 130.78 13.142C129.372 13.142 128.337 13.6368 127.675 14.6265C127.013 15.6162 126.681 16.9996 126.679 18.777C126.679 20.5556 127.01 21.9435 127.673 22.9409C128.336 23.9382 129.372 24.4382 130.78 24.4407Z" fill="#444F59"/>
<path d="M138.611 11.0745C138.897 11.0361 139.183 11.0054 139.469 10.9843C139.755 10.9632 140.009 10.9556 140.232 10.9556C140.518 10.9556 140.82 10.9652 141.106 10.9843C141.391 11.0035 141.66 11.0361 141.889 11.0745L144.947 23.6314L148.4 11.0745C148.625 11.0361 148.868 11.0054 149.134 10.9843C149.401 10.9632 149.675 10.9556 149.961 10.9556C150.286 10.9747 150.568 10.9901 150.802 10.9997C151.033 11.0109 151.262 11.0359 151.49 11.0745L154.916 23.4205L157.974 11.0745C158.199 11.0361 158.422 11.0054 158.647 10.9843C158.872 10.9632 159.117 10.9556 159.381 10.9556C159.607 10.9556 159.855 10.9652 160.131 10.9843C160.407 11.0035 160.687 11.0361 160.973 11.0745L156.288 26.4489C156.024 26.4873 155.754 26.518 155.478 26.5372C155.202 26.5563 154.953 26.5678 154.728 26.5678C154.503 26.5678 154.26 26.5583 153.994 26.5372C153.727 26.5161 153.463 26.4873 153.199 26.4489L149.833 14.8203L146.309 26.4489C146.023 26.4873 145.744 26.518 145.467 26.5372C145.191 26.5563 144.943 26.5678 144.718 26.5678C144.493 26.5678 144.244 26.5583 143.968 26.5372C143.717 26.5202 143.468 26.4908 143.22 26.4489L138.611 11.0745Z" fill="#444F59"/>
<path d="M26.3749 5.92081C15.8166 5.56214 13.152 11.9049 12.5295 14.193C12.5234 14.233 12.5304 14.2738 12.5495 14.3097C12.5685 14.3456 12.5987 14.3746 12.6356 14.3927C12.6725 14.4108 12.7143 14.417 12.755 14.4104C12.7957 14.4038 12.8333 14.3848 12.8623 14.356C14.2543 12.5973 15.9086 12.1139 17.7724 12.5129L20.0317 18.6043C19.6206 18.7497 19.2608 19.0078 18.9953 19.3478C18.7297 19.6879 18.5696 20.0956 18.534 20.5223C18.534 20.5588 18.534 20.5933 18.534 20.6278L10.9769 21.1169C10.9187 20.926 10.8109 20.7531 10.664 20.6153C10.5171 20.4774 10.3362 20.3793 10.139 20.3305L10.2839 10.6083C10.4599 10.5734 10.6258 10.5005 10.7696 10.395C10.9133 10.2895 11.0314 10.154 11.1151 9.99839C11.1989 9.84273 11.2462 9.67078 11.2538 9.49498C11.2614 9.31918 11.229 9.14392 11.159 8.98189L18.7063 3.83597L18.7474 3.86091C18.985 4.01511 19.2677 4.08857 19.552 4.06996C23.6497 3.77076 25.6701 4.49384 26.6373 5.13252C26.7193 5.18335 26.7818 5.25953 26.8147 5.34901C26.8476 5.4385 26.8491 5.53619 26.819 5.62662C26.7889 5.71706 26.7289 5.79509 26.6485 5.84837C26.5681 5.90165 26.4718 5.92714 26.3749 5.92081ZM30.6468 22.0433C26.0949 17.6818 21.9249 13.796 18.4381 12.6951L20.5916 18.4835C20.9233 18.4471 21.2591 18.4833 21.5748 18.5894C21.8905 18.6955 22.1782 18.869 22.4172 19.0972C22.6561 19.3255 22.8404 19.6028 22.9567 19.9093C23.0731 20.2158 23.1185 20.5437 23.0898 20.8695L30.5861 22.1756C30.6019 22.176 30.6175 22.1718 30.6309 22.1636C30.6443 22.1553 30.6549 22.1434 30.6614 22.1292C30.6679 22.1151 30.67 22.0994 30.6674 22.0841C30.6648 22.0688 30.6576 22.0546 30.6468 22.0433ZM4.83146 12.0583C4.78003 12.0801 4.73397 12.1126 4.69642 12.1533C4.65887 12.1941 4.6307 12.2423 4.61381 12.2947C4.59692 12.3471 4.5917 12.4024 4.59852 12.4569C4.60533 12.5114 4.62402 12.5639 4.65331 12.6107L9.31087 20.4168L9.57713 20.3497L9.72396 10.5911C9.45745 10.5275 9.22075 10.3775 9.05245 10.1653L4.83146 12.0583ZM10.0587 8.22237L11.5506 2.79451C8.30066 3.90694 5.67723 7.13104 4.58674 11.1645C4.57741 11.2044 4.57936 11.246 4.59238 11.2848C4.60541 11.3236 4.62902 11.3582 4.66065 11.3849C4.69229 11.4115 4.73076 11.4292 4.7719 11.436C4.81305 11.4428 4.8553 11.4385 4.89411 11.4235L8.80968 9.66277C8.7844 9.55142 8.77583 9.43706 8.78423 9.32328C8.81119 9.01451 8.9588 8.72785 9.19625 8.5231C9.43371 8.31834 9.74269 8.2113 10.0587 8.22429V8.22237ZM45.201 34.2262C40.6197 31.5295 36.111 27.2774 31.888 23.2401C31.8763 23.2275 31.8605 23.2192 31.8434 23.2166C31.8262 23.214 31.8086 23.2172 31.7936 23.2257C31.7785 23.2342 31.7668 23.2475 31.7605 23.2633C31.7542 23.2792 31.7536 23.2967 31.7588 23.313L33.3485 29.8225H33.374C33.7874 29.8572 34.1699 30.0512 34.4375 30.3619C34.7051 30.6726 34.8359 31.0746 34.8012 31.4797C34.8012 31.5027 34.7914 31.5238 34.7895 31.5468L45.0874 34.4602C45.1188 34.4749 45.1549 34.4769 45.1878 34.4655C45.2206 34.4542 45.2476 34.4306 45.2626 34.3998C45.2777 34.369 45.2796 34.3336 45.2681 34.3014C45.2565 34.2692 45.2324 34.2429 45.201 34.2281V34.2262ZM10.8419 8.52541L18.1835 3.5291C16.1083 2.36297 14.0526 2.13281 12.179 2.60463L10.603 8.35855C10.6894 8.40649 10.7696 8.46444 10.8419 8.53116V8.52541ZM32.5126 32.6918L30.2435 34.7632C35.1379 36.0464 41.3265 36.85 49.1087 36.547C49.1606 36.5531 49.2129 36.5387 49.254 36.507C49.2951 36.4754 49.3217 36.429 49.328 36.3782C49.3342 36.3273 49.3195 36.2761 49.2872 36.2358C49.2549 36.1955 49.2076 36.1695 49.1557 36.1634L34.6309 32.0551C34.4869 32.3199 34.2667 32.5375 33.9977 32.681C33.7288 32.8245 33.4227 32.8876 33.1175 32.8625C32.9072 32.85 32.7015 32.7965 32.5126 32.7053V32.6918ZM12.3004 29.8973L9.75529 22.5688C9.55345 22.5519 9.35965 22.4835 9.19314 22.3705C9.02662 22.2575 8.89319 22.1037 8.80609 21.9246C8.719 21.7454 8.68128 21.547 8.69668 21.3491C8.71207 21.1512 8.78006 20.9608 8.89386 20.7966L4.46144 13.3779C4.44308 13.3484 4.41594 13.3252 4.38368 13.3113C4.35142 13.2974 4.31559 13.2936 4.28103 13.3003C4.24646 13.307 4.21482 13.3239 4.19037 13.3487C4.16592 13.3736 4.14984 13.4052 4.14428 13.4392C3.49234 18.9093 5.58913 25.3019 12.3004 29.8973ZM23.9512 34.6923C24.0217 34.6923 23.9845 34.5619 23.9198 34.5331C23.033 34.1092 16.77 30.981 14.4129 25.8581C15.3591 27.0863 16.4945 28.163 17.7783 29.0496L19.8516 22.7203C19.5322 22.5747 19.2518 22.3583 19.0323 22.0884C18.8128 21.8185 18.6603 21.5023 18.5868 21.1648L10.9946 21.6731C10.9548 21.8523 10.8718 22.0197 10.7526 22.1611C10.6334 22.3026 10.4814 22.4141 10.3093 22.4863L13.0698 30.4114C13.5475 30.7067 17.6373 34.5484 23.9512 34.6942V34.6923ZM18.2482 29.3929C20.5466 31.0424 23.9923 32.9508 28.8828 34.3969L21.731 22.7395C21.383 22.8948 21.0003 22.9608 20.619 22.9313C20.5418 22.922 20.4653 22.9079 20.39 22.8891L18.2482 29.3929ZM22.2127 22.4595L29.6522 34.5714L32.0779 32.3581C31.9076 32.165 31.7891 31.9332 31.7332 31.6839C31.6773 31.4345 31.6858 31.1755 31.7579 30.9302C31.8301 30.6848 31.9635 30.461 32.1462 30.279C32.3289 30.097 32.5551 29.9625 32.8043 29.8878L31.1499 23.1192C31.1274 23.029 31.0782 22.9472 31.0086 22.8842C30.939 22.8211 30.852 22.7794 30.7584 22.7644L22.9703 21.4084C22.8287 21.8241 22.5652 22.1897 22.2127 22.4595Z" fill="url(#paint0_linear)"/>
<g opacity="1">
<path opacity="0.15" d="M20.5842 18.4833L20.686 13.7344C19.9767 13.3104 19.2233 12.962 18.4385 12.6948L20.5842 18.4833Z" fill="black"/>
<path opacity="0.15" d="M9.31194 20.4169L5.92889 11.5674L4.83253 12.0584C4.78109 12.0802 4.73504 12.1126 4.69749 12.1534C4.65994 12.1942 4.63177 12.2424 4.61487 12.2948C4.59798 12.3471 4.59277 12.4025 4.59958 12.457C4.6064 12.5115 4.62508 12.5639 4.65437 12.6108L9.31194 20.4169Z" fill="black"/>
<path opacity="0.15" d="M12.1795 2.60462L10.6035 8.35854C10.6231 8.37004 10.6407 8.38539 10.6603 8.39881L14.0179 2.40516C13.399 2.3958 12.7813 2.46282 12.1795 2.60462Z" fill="black"/>
<path opacity="0.15" d="M11.1592 8.98185C11.1723 9.03613 11.1814 9.09125 11.1866 9.1468L22.2441 4.02773C21.3466 3.99072 20.4476 4.00738 19.5522 4.0776C19.2679 4.09521 18.9855 4.02184 18.7475 3.86854L18.7064 3.83594L11.1592 8.98185Z" fill="black"/>
<path opacity="0.15" d="M18.5871 21.1704L10.9948 21.6729C10.955 21.8522 10.8721 22.0195 10.7529 22.1609C10.6337 22.3024 10.4817 22.4139 10.3096 22.4861L10.799 23.892L18.6301 21.2797C18.6145 21.2375 18.5988 21.2049 18.5871 21.1704Z" fill="black"/>
<path opacity="0.15" d="M10.9776 21.1168L12.7396 21.0017L10.2845 10.5986L10.1396 20.3304C10.3369 20.3792 10.5178 20.4773 10.6646 20.6152C10.8115 20.753 10.9194 20.9259 10.9776 21.1168Z" fill="black"/>
<path opacity="0.15" d="M4.58784 11.1647C4.5785 11.2045 4.58045 11.2461 4.59348 11.2849C4.6065 11.3237 4.63011 11.3584 4.66175 11.385C4.69339 11.4117 4.73185 11.4293 4.773 11.4361C4.81414 11.4429 4.8564 11.4386 4.89521 11.4236L8.81078 9.66288C8.81078 9.63028 8.81078 9.59767 8.81078 9.56507L5.1693 9.46533C4.94245 10.0204 4.74832 10.5878 4.58784 11.1647Z" fill="black"/>
<path opacity="0.15" d="M33.3824 29.8245C33.4137 29.8245 33.4372 29.8456 33.4685 29.8494L34.4963 25.7009C33.6193 24.88 32.75 24.0533 31.8964 23.2363C31.8847 23.2237 31.8689 23.2154 31.8517 23.2128C31.8346 23.2102 31.817 23.2134 31.8019 23.2219C31.7869 23.2304 31.7752 23.2437 31.7689 23.2595C31.7626 23.2754 31.762 23.2929 31.7672 23.3092L33.3569 29.8187L33.3824 29.8245Z" fill="black"/>
<path opacity="0.15" d="M31.1776 33.1752L22.2129 22.4595L29.6446 34.5714L31.1776 33.1752Z" fill="black"/>
<path opacity="0.15" d="M8.70067 26.7691L4.16645 13.4258C4.16645 13.4373 4.14687 13.4354 4.14491 13.4469C3.63001 17.7585 4.87125 22.632 8.70067 26.7691Z" fill="black"/>
<path opacity="0.15" d="M34.6314 32.0742C34.4874 32.339 34.2672 32.5567 33.9983 32.7002C33.7293 32.8437 33.4232 32.9068 33.118 32.8817C32.9063 32.8632 32.7006 32.8032 32.5131 32.7052L32.3564 32.8491L44.5084 34.8668L34.6314 32.0742Z" fill="black"/>
<path opacity="0.15" d="M20.3889 22.8892L18.249 29.393C18.7659 29.7632 19.3473 30.1468 19.9817 30.5342L20.4339 22.8988L20.3889 22.8892Z" fill="black"/>
<path opacity="0.15" d="M14.7168 26.4678C15.4666 27.9063 17.6202 31.6463 20.9014 34.3314C21.9034 34.5521 22.925 34.6755 23.9517 34.6997C23.9635 34.6813 23.9698 34.66 23.9698 34.6383C23.9698 34.6166 23.9635 34.5953 23.9517 34.5769C23.9415 34.5614 23.9273 34.5489 23.9105 34.5405C23.799 34.4868 23.6051 34.3909 23.3447 34.2547C23.149 34.1531 22.916 34.0284 22.6536 33.8807C22.3913 33.733 22.0996 33.5643 21.7864 33.3725C21.6454 33.2862 21.4986 33.1941 21.3498 33.0982C21.1677 32.9831 20.9817 32.8623 20.7898 32.7319C20.6724 32.6551 20.5549 32.5746 20.4355 32.4902C18.4522 31.0977 16.1029 29.057 14.7168 26.4678Z" fill="black"/>
<path opacity="0.15" d="M14.415 25.8638C14.415 25.8753 14.4699 25.9808 14.5638 26.1687C14.5149 26.069 14.462 25.9673 14.415 25.8638Z" fill="black"/>
</g>
<defs>
<linearGradient id="paint0_linear" x1="37.4194" y1="15.7744" x2="5.19091" y2="34.2962" gradientUnits="userSpaceOnUse">
<stop stop-color="#EC008C"/>
<stop offset="1" stop-color="#2B328C"/>
</linearGradient>
</defs>
</svg>
