<svg width="40" height="31" viewBox="0 0 40 31" fill="none" xmlns="http://www.w3.org/2000/svg">
<path fill-rule="evenodd" clip-rule="evenodd" d="M4.22852 0.863525H36.5341C37.0629 0.863525 37.5607 0.994073 38.0093 1.20913L24.2388 14.9791V14.9793V14.98L20.3038 18.7605L2.75335 1.20887C3.20191 0.993941 3.69789 0.863525 4.22852 0.863525ZM26.6749 15.7913L39.6339 2.83316C39.8473 3.282 39.9786 3.77838 39.9786 4.30836V27.274C39.9786 27.8043 39.8473 28.3007 39.6321 28.7499L26.6749 15.7913ZM1.12867 2.83254C0.913502 3.28163 0.784058 3.77812 0.784058 4.30836V27.274C0.784058 27.8039 0.913502 28.3004 1.12867 28.7494L14.0878 15.7911L1.12867 2.83254ZM21.1152 21.1962L25.0502 17.415L38.0093 30.3735C37.5607 30.5884 37.0629 30.7188 36.5341 30.7188H4.22852C3.69789 30.7188 3.20191 30.5882 2.75151 30.3732L15.7106 17.4149L19.4924 21.1962C19.7167 21.4205 20.0102 21.5326 20.3038 21.5326C20.5974 21.5326 20.8928 21.4205 21.1152 21.1962Z" fill="white"/>
</svg>
