<svg width="20" height="20" viewBox="0 0 20 20" fill="none" xmlns="http://www.w3.org/2000/svg">
<path d="M12.9165 1.27734C12.8386 1.27734 12.7608 1.29152 12.687 1.32048C12.5437 1.37714 10.3815 2.26581 8.78566 4.79622C10.3294 5.34914 12.0022 6.32982 13.6693 7.99691C14.9918 9.31899 15.7583 11.0464 15.8283 12.8602C15.8833 14.2935 15.4951 15.6442 14.7305 16.7729C14.7846 16.8979 14.8295 17.012 14.8753 17.1261C17.1295 16.2616 18.7498 13.9584 18.7498 11.2497C18.7498 3.62051 13.3748 1.41089 13.146 1.32048C13.0723 1.29152 12.9944 1.27734 12.9165 1.27734ZM4.92172 4.99154C3.28506 5.03509 2.20341 5.48725 2.10516 5.53027C1.95932 5.59319 1.84336 5.70956 1.78045 5.85498C1.68253 6.0804 -0.554161 11.4395 4.83709 16.8299C6.01001 18.0032 7.53917 18.6827 9.14292 18.7448C9.2225 18.7481 9.30138 18.7497 9.38055 18.7497C10.3605 18.7497 11.2896 18.5123 12.1092 18.0669C11.9792 17.754 11.8145 17.3908 11.5941 16.9674C9.57034 13.0866 5.19822 9.52607 5.15447 9.49023C4.97572 9.34565 4.94844 9.08305 5.09344 8.9043C5.23802 8.72596 5.50021 8.69703 5.67937 8.84245C5.86395 8.99119 10.2275 12.5457 12.333 16.5825C12.5314 16.9629 12.6905 17.303 12.8197 17.603C13.2179 18.5272 13.3188 19.0498 13.3267 19.0923C13.3412 19.1735 13.3716 19.251 13.4162 19.3204C13.4609 19.3898 13.5188 19.4497 13.5866 19.4966C13.6545 19.5435 13.731 19.5765 13.8117 19.5937C13.8924 19.6109 13.9756 19.6119 14.0567 19.5968C14.1378 19.5816 14.2151 19.5506 14.2842 19.5054C14.3532 19.4603 14.4126 19.4019 14.459 19.3336C14.5053 19.2654 14.5377 19.1887 14.5543 19.1079C14.5709 19.0271 14.5713 18.9438 14.5555 18.8628C14.531 18.7311 14.367 17.9494 13.7743 16.6794C14.6192 15.6294 15.0499 14.306 14.9958 12.8927C14.9333 11.289 14.2534 9.75943 13.0801 8.5861C10.048 5.55446 7.026 4.93554 4.92172 4.99154Z" fill="#40B58A"/>
</svg>
