<svg width="30" height="22" viewBox="0 0 30 22" fill="none" xmlns="http://www.w3.org/2000/svg">
<path d="M0.5 1C0.5 0.447715 0.947715 0 1.5 0H15.5C16.0523 0 16.5 0.447715 16.5 1C16.5 1.55228 16.0523 2 15.5 2H1.5C0.947715 2 0.5 1.55228 0.5 1Z" fill="#EC008C"/>
<path d="M0.5 11C0.5 10.4477 0.947715 10 1.5 10H28.5C29.0523 10 29.5 10.4477 29.5 11C29.5 11.5523 29.0523 12 28.5 12H1.5C0.947716 12 0.5 11.5523 0.5 11Z" fill="#472B8C"/>
<path d="M0.5 21C0.5 20.4477 0.947715 20 1.5 20H19.5C20.0523 20 20.5 20.4477 20.5 21C20.5 21.5523 20.0523 22 19.5 22H1.5C0.947715 22 0.5 21.5523 0.5 21Z" fill="#2B328C"/>
</svg>
