<svg width="18" height="19" viewBox="0 0 18 19" fill="none" xmlns="http://www.w3.org/2000/svg">
<path d="M8.91575 19C8.41184 19 7.92857 18.7998 7.57225 18.4435C7.21593 18.0872 7.01575 17.6039 7.01575 17.1H10.8158C10.8158 17.6039 10.6156 18.0872 10.2593 18.4435C9.90293 18.7998 9.41966 19 8.91575 19ZM16.1215 18.905L13.3665 16.15H1.31575V14.25L3.21575 13.3V8.075C3.2129 7.43755 3.27085 6.802 3.38865 6.175L0 2.78255L1.34425 1.43925L17.4657 17.5626L16.1215 18.905ZM14.6158 12.0261L5.38175 2.7911C5.87538 2.44883 6.43006 2.20438 7.01575 2.071V0H10.8158V2.071C13.2667 2.65335 14.6158 4.7861 14.6158 8.075V12.027V12.0261Z" fill="white"/>
</svg>
