<svg width="29" height="13" viewBox="0 0 29 13" fill="none" xmlns="http://www.w3.org/2000/svg">
<path d="M27.8642 10.5276L24.5775 6.49981L27.7997 2.55259C27.976 2.33666 28.087 2.07496 28.1198 1.79817C28.1526 1.52138 28.1059 1.24097 27.985 0.989813C27.8626 0.708303 27.6595 0.46934 27.4015 0.303047C27.1434 0.136753 26.8419 0.0505726 26.535 0.0553685H1.56278C1.36072 0.0521699 1.16001 0.0888077 0.972108 0.163189C0.78421 0.237571 0.612805 0.348239 0.467682 0.488873C0.32256 0.629507 0.206564 0.797351 0.126318 0.982821C0.0460718 1.16829 0.0031488 1.36775 0 1.56981L0 11.4379C0.00846698 11.8445 0.177626 12.2313 0.470484 12.5136C0.763343 12.7959 1.15607 12.9507 1.56278 12.9443H26.6236C26.9203 12.9492 27.2122 12.8692 27.4648 12.7136C27.7175 12.558 27.9203 12.3334 28.0494 12.0662C28.1654 11.818 28.2095 11.5424 28.1767 11.2704C28.144 10.9985 28.0357 10.7411 27.8642 10.5276V10.5276ZM1.61111 11.3331V1.66648H26.4061L22.5072 6.44342L26.4625 11.3331H1.61111Z" fill="#EC008C"/>
<path d="M7.56373 7.58766L4.93762 4.0835H4.02734V9.06183H4.93762V5.56572L7.56373 9.06183H8.46595V4.0835H7.56373V7.58766Z" fill="#EC008C"/>
<path d="M9.8125 9.06183H13.5664V8.24016H10.7228V6.94322H13.2925V6.1135H10.7228V4.91322H13.5664V4.0835H9.8125V9.06183Z" fill="#EC008C"/>
<path d="M19.7527 7.65211L18.5766 4.0835H17.5938L16.4096 7.65211L15.3463 4.0835H14.3555L15.9344 9.06183H16.8285L18.0852 5.36433L19.3338 9.06183H20.2441L21.8149 4.0835H20.8241L19.7527 7.65211V7.65211Z" fill="#EC008C"/>
</svg>
