<svg width="117" height="118" viewBox="0 0 117 118" fill="none" xmlns="http://www.w3.org/2000/svg">
<path d="M116.698 58.9186C116.698 91.144 90.5746 117.268 58.3492 117.268C26.1238 117.268 0 91.144 0 58.9186C0 26.6932 26.1238 0.569336 58.3492 0.569336C90.5746 0.569336 116.698 26.6932 116.698 58.9186Z" fill="black" fill-opacity="0.25"/>
<path d="M65.8926 65.3258C66.1068 65.2545 66.3928 65.3971 66.3928 65.6832V87.6954C66.3928 88.2672 65.7501 88.6246 65.2498 88.2672L57.7494 83.4076C57.5352 83.2645 57.1779 83.2645 56.9637 83.4076L49.4633 88.2672C48.9631 88.5528 48.3203 88.2672 48.3203 87.6954L48.3208 65.6832C48.3208 65.4689 48.6063 65.2545 48.8211 65.3258C49.6068 65.6114 50.3925 66.112 50.8923 66.755L53.2495 69.5423C55.3208 71.9007 59.3214 71.9007 61.3926 69.5423L63.7499 66.755C64.3209 66.1119 65.0354 65.6114 65.8924 65.3258H65.8926Z" fill="url(#paint0_linear_7424_48097)"/>
<path d="M77.8933 43.0283L75.393 41.0985C74.25 40.1693 73.6072 38.7401 73.8215 37.2395L74.25 34.0948C74.6073 31.3789 72.25 29.0922 69.5355 29.3778L66.3929 29.807C64.8926 30.0214 63.4641 29.3783 62.5359 28.2348L60.6071 25.7331C58.9644 23.589 55.6783 23.589 53.9643 25.7331L52.0356 28.2348C51.1068 29.3784 49.6783 30.0214 48.1786 29.807L45.0355 29.3783C42.321 29.0209 40.0354 31.3794 40.3209 34.0953L40.7494 37.24C40.9637 38.7411 40.3209 40.1703 39.1779 41.099L36.6776 43.0288C34.5345 44.6724 34.5345 47.9602 36.6776 49.6751L39.1779 51.6048C40.3209 52.5341 40.9637 53.9633 40.7494 55.4638L40.3209 58.6085C39.9637 61.3244 42.321 63.6112 45.0355 63.3255L48.1786 62.8968C49.6789 62.6824 51.1073 63.3255 52.0356 64.4691L53.9643 66.9707C55.6071 69.1149 58.8932 69.1149 60.6071 66.9707L62.5359 64.4691C63.4646 63.3255 64.8931 62.6824 66.3929 62.8968L69.536 63.3255C72.2505 63.683 74.536 61.3244 74.2505 58.6085L73.822 55.4638C73.6078 53.9627 74.2505 52.5335 75.3935 51.6048L77.8939 49.6751C80.1076 47.9597 80.1076 44.6724 77.8934 43.0283L77.8933 43.0283ZM57.3213 61.8958C48.7497 61.8958 41.7493 54.9634 41.7493 46.3158C41.7493 37.7398 48.6781 30.7358 57.3213 30.7358C65.8928 30.7358 72.8932 37.6682 72.8932 46.3158C72.8932 54.8918 65.8931 61.8958 57.3213 61.8958Z" fill="url(#paint1_linear_7424_48097)"/>
<path d="M57.3198 33.2363C50.1055 33.2363 44.248 39.0969 44.248 46.3149C44.248 53.5329 50.1056 59.3936 57.3198 59.3936C64.534 59.3936 70.3916 53.5329 70.3916 46.3149C70.3916 39.0969 64.534 33.2363 57.3198 33.2363ZM64.6772 44.457L61.4629 47.6017C61.3917 47.673 61.3199 47.8161 61.3199 47.9592L62.1057 52.3901C62.1769 52.7475 61.8202 52.9619 61.5342 52.8188L57.5342 50.7465C57.3912 50.6752 57.2487 50.6752 57.1769 50.7465L53.177 52.8188C52.8915 52.9619 52.5342 52.7475 52.6055 52.3901L53.3912 47.9592C53.3912 47.8161 53.3912 47.6735 53.2482 47.6017L50.034 44.457C49.8197 44.2427 49.891 43.8139 50.2482 43.7421L54.6768 43.0991C54.8198 43.0991 54.9623 43.0278 54.9623 42.8847L56.9623 38.8108C57.1053 38.5251 57.5338 38.5251 57.6768 38.8108L59.6769 42.8847C59.7482 43.0278 59.8199 43.0991 59.9624 43.0991L64.391 43.7421C64.8205 43.7421 64.9635 44.1709 64.6775 44.457H64.6772Z" fill="url(#paint2_linear_7424_48097)"/>
<defs>
<linearGradient id="paint0_linear_7424_48097" x1="48.3203" y1="77.0547" x2="66.3928" y2="77.0547" gradientUnits="userSpaceOnUse">
<stop stop-color="#EC008C"/>
<stop offset="1" stop-color="#2B328C"/>
</linearGradient>
<linearGradient id="paint1_linear_7424_48097" x1="35.0703" y1="46.7286" x2="79.5541" y2="46.7286" gradientUnits="userSpaceOnUse">
<stop stop-color="#EC008C"/>
<stop offset="1" stop-color="#2B328C"/>
</linearGradient>
<linearGradient id="paint2_linear_7424_48097" x1="44.248" y1="46.5366" x2="70.3916" y2="46.5366" gradientUnits="userSpaceOnUse">
<stop stop-color="#EC008C"/>
<stop offset="1" stop-color="#2B328C"/>
</linearGradient>
</defs>
</svg>
