<svg width="117" height="150" viewBox="0 0 117 150" fill="none" xmlns="http://www.w3.org/2000/svg">
<path fill-rule="evenodd" clip-rule="evenodd" d="M59.2183 0L58.7623 18.5968L58.6202 19.57C58.5299 19.5695 58.4396 19.5693 58.3492 19.5693C26.1238 19.5693 0 45.6932 0 77.9186C0 105.531 19.1797 128.663 44.9435 134.72L61.3669 150L57.5837 136.263C57.8385 136.266 58.0937 136.268 58.3492 136.268C90.5746 136.268 116.698 110.144 116.698 77.9186C116.698 49.9947 97.0833 26.6522 70.88 20.9181L59.2183 0Z" fill="black" fill-opacity="0.25"/>
<path fill-rule="evenodd" clip-rule="evenodd" d="M65.8437 49.4489C74.9492 52.275 81.9491 59.8955 83.8962 69.3519V69.3534C86.251 69.9372 87.9974 72.064 87.9974 74.6007C87.9974 77.5875 85.5757 80.0082 82.5899 80.0082C79.6031 80.0082 77.1814 77.5875 77.1814 74.6007C77.1814 72.7869 78.0749 71.1813 79.4458 70.2006C77.8666 62.6338 72.3865 56.5032 65.2032 54.0036L65.2875 53.808C65.7856 52.9909 66.0702 52.0296 66.0702 51.0027C66.0702 50.4617 65.9906 49.9405 65.8426 49.449L65.8437 49.4489ZM57.9985 59.519C61.7887 59.519 64.8588 62.5911 64.8588 66.3794C64.8588 70.1687 61.7882 73.2393 57.9985 73.2393C54.2092 73.2393 51.1386 70.1687 51.1386 66.3794C51.1386 62.5906 54.2092 59.519 57.9985 59.519ZM55.981 75.3312H60.0153C65.4634 75.3312 69.92 79.7892 69.92 85.2367C62.3716 89.5713 53.8038 89.6989 46.0769 85.2367C46.0769 79.7892 50.5328 75.3312 55.981 75.3312ZM58.3962 104.999C55.4094 104.999 52.9877 102.577 52.9877 99.5902C52.9877 96.6035 55.4094 94.1827 58.3962 94.1827C60.0686 94.1827 61.5658 94.9424 62.5573 96.136C70.0826 94.5427 76.1811 89.088 78.6831 81.9404C79.5983 82.6506 80.7471 83.0728 81.9945 83.0728C82.3833 83.0728 82.7613 83.0323 83.1251 82.9531C80.2415 91.7414 72.8717 98.4962 63.7251 100.519C63.2845 103.064 61.0663 105 58.3967 105L58.3962 104.999ZM28 75.3975C28 72.4107 30.4217 69.989 33.4075 69.989C36.3943 69.989 38.815 72.4107 38.815 75.3975C38.815 77.1609 37.971 78.7283 36.6648 79.7141C38.4098 87.1796 43.9714 93.1738 51.1813 95.5311C50.3971 96.4689 49.9264 97.6767 49.9264 98.9948C49.9264 99.3077 49.9528 99.6116 50.0032 99.909C41.1739 97.1098 34.3491 89.7951 32.2403 80.6779C29.8129 80.1435 28.0001 77.9801 28.0001 75.3962L28 75.3975ZM57.6012 45.0001C60.588 45.0001 63.0087 47.4218 63.0087 50.4086C63.0087 53.3954 60.588 55.8161 57.6012 55.8161C55.6997 55.8161 54.0263 54.834 53.0636 53.3505C45.543 55.0805 39.505 60.6765 37.1525 67.937C36.2652 67.3017 35.1785 66.9266 34.0036 66.9266C33.5441 66.9266 33.0979 66.9855 32.6728 67.092C35.4211 57.9504 42.9902 50.883 52.4214 48.8538C53.0887 46.6234 55.1551 45 57.6023 45L57.6012 45.0001Z" fill="url(#paint0_linear_7400_46462)"/>
<defs>
<linearGradient id="paint0_linear_7400_46462" x1="28" y1="77.625" x2="87.9974" y2="77.625" gradientUnits="userSpaceOnUse">
<stop stop-color="#EC008C"/>
<stop offset="1" stop-color="#2B328C"/>
</linearGradient>
</defs>
</svg>
