<svg width="117" height="118" viewBox="0 0 117 118" fill="none" xmlns="http://www.w3.org/2000/svg">
<path d="M116.698 58.9186C116.698 91.144 90.5746 117.268 58.3492 117.268C26.1238 117.268 0 91.144 0 58.9186C0 26.6932 26.1238 0.569336 58.3492 0.569336C90.5746 0.569336 116.698 26.6932 116.698 58.9186Z" fill="black" fill-opacity="0.25"/>
<path d="M58.2801 25C41.3678 25 27.5898 36.1721 27.5898 50.0223C27.5898 50.3491 27.7206 50.6759 27.9816 50.937L48.0281 72.3007C48.4855 71.5168 49.1382 70.8633 49.9216 70.4063L30.6586 49.7612C30.9851 48.389 34.0542 46.5598 38.886 46.5598C43.9793 46.5598 46.7874 48.4542 47.2442 49.9572L53.3167 69.5569H56.19L50.2477 50.3492C50.117 50.0225 50.117 49.6305 50.2477 49.3038C51.0311 47.9973 53.9699 46.5598 58.3448 46.5598C62.589 46.5598 65.4622 47.9971 66.3112 49.2386C66.5071 49.5653 66.5071 50.0224 66.4419 50.3492L60.4997 69.5569H63.3073L69.3798 49.9572C69.8371 48.2587 72.6447 46.5598 77.803 46.5598C82.6352 46.5598 85.7044 48.3891 86.0305 49.7612L66.6381 70.4062C67.4215 70.8638 68.0746 71.5168 68.5315 72.3006L88.5781 50.9369C88.8391 50.6758 88.9698 50.349 88.9698 50.0223C88.9047 36.173 75.1918 25 58.2796 25L58.2801 25Z" fill="url(#paint0_linear_7364_47647)"/>
<path d="M63.7647 72.3003H52.7949C51.2276 72.3003 49.9873 73.5417 49.9873 75.1094V84.1906C49.9873 85.7587 51.2281 86.9996 52.7949 86.9996H63.8304C65.3976 86.9996 66.6379 85.7582 66.6379 84.1906V75.1746C66.6379 73.6068 65.3321 72.3003 63.7647 72.3003Z" fill="url(#paint1_linear_7364_47647)"/>
<defs>
<linearGradient id="paint0_linear_7364_47647" x1="27.5898" y1="50.7197" x2="88.9698" y2="50.7197" gradientUnits="userSpaceOnUse">
<stop stop-color="#EC008C"/>
<stop offset="1" stop-color="#2B328C"/>
</linearGradient>
<linearGradient id="paint1_linear_7364_47647" x1="49.9873" y1="80.2931" x2="66.6379" y2="80.2931" gradientUnits="userSpaceOnUse">
<stop stop-color="#EC008C"/>
<stop offset="1" stop-color="#2B328C"/>
</linearGradient>
</defs>
</svg>
