<svg width="117" height="118" viewBox="0 0 117 118" fill="none" xmlns="http://www.w3.org/2000/svg">
<circle cx="58.5" cy="58.5" r="30.5" fill="url(#paint0_linear_7364_47644)"/>
<path d="M71.3298 49.4712L69.45 47.2859C67.8562 45.613 65.9384 44.2817 63.8133 43.373C61.6883 42.4643 59.4004 41.9971 57.089 42C47.6544 42 40 49.649 40 59.0769C40 68.5048 47.6544 76.1538 57.089 76.1538C60.6234 76.1536 64.0708 75.0588 66.9569 73.02C69.843 70.9812 72.0259 68.0988 73.2051 64.7692" stroke="#25252A" stroke-width="5" stroke-miterlimit="10" stroke-linecap="round"/>
<path d="M77.0003 44.4431V54.7408C77.0003 55.136 76.8545 55.5149 76.5951 55.7944C76.3356 56.0738 75.9836 56.2308 75.6167 56.2308H66.0539C64.8208 56.2308 64.2033 54.6263 65.075 53.6876L74.6386 43.3889C75.5103 42.4484 77.0003 43.1152 77.0003 44.4431Z" fill="#25252A"/>
<path d="M116.698 58.9186C116.698 91.144 90.5746 117.268 58.3492 117.268C26.1238 117.268 0 91.144 0 58.9186C0 26.6932 26.1238 0.569336 58.3492 0.569336C90.5746 0.569336 116.698 26.6932 116.698 58.9186Z" fill="black" fill-opacity="0.25"/>
<defs>
<linearGradient id="paint0_linear_7364_47644" x1="28" y1="61.1688" x2="89" y2="61.1688" gradientUnits="userSpaceOnUse">
<stop offset="0.427083" stop-color="#EC008C"/>
<stop offset="1" stop-color="#2B328C"/>
</linearGradient>
</defs>
</svg>
