<svg width="63" height="80" viewBox="0 0 63 80" fill="none" xmlns="http://www.w3.org/2000/svg">
<path fill-rule="evenodd" clip-rule="evenodd" d="M31.583 0L31.3399 9.9183L31.264 10.4373C31.2159 10.4371 31.1678 10.4369 31.1196 10.4369C13.9327 10.4369 0 24.3697 0 41.5565C0 56.283 10.2291 68.6203 23.9697 71.8508L32.7289 80L30.7112 72.6735C30.8471 72.6752 30.9833 72.6761 31.1196 72.6761C48.3065 72.6761 62.2392 58.7434 62.2392 41.5565C62.2392 26.6638 51.7777 14.2144 37.8026 11.1563L31.583 0Z" fill="rgba(0, 0, 0, 0.25)"/>
<path d="M27.7719 36.9058C27.7719 38.9854 24.6243 38.9859 24.6243 36.9058C24.6245 34.8263 27.7719 34.8258 27.7719 36.9058ZM33.6682 43.0931C33.6682 45.1727 36.8159 45.1732 36.8159 43.0931C36.8157 41.0135 33.6682 41.0128 33.6682 43.0931ZM41.2728 39.9993C41.2728 42.7981 40.161 45.4823 38.182 47.461C36.203 49.44 33.5188 50.5519 30.7203 50.5519C27.9218 50.5519 25.2373 49.44 23.2586 47.461C21.2796 45.482 20.1678 42.7978 20.1678 39.9993C20.1678 37.2009 21.2796 34.5164 23.2586 32.5377C25.2376 30.5587 27.9218 29.4468 30.7203 29.4468C33.5183 29.4492 36.201 30.562 38.1795 32.5403C40.1578 34.5188 41.2706 37.2016 41.273 39.9995L41.2728 39.9993ZM26.198 39.5573C26.9013 39.5573 27.5757 39.278 28.073 38.7807C28.5703 38.2834 28.8496 37.609 28.8496 36.9057C28.8496 36.2026 28.5703 35.528 28.073 35.0308C27.5757 34.5335 26.9013 34.2542 26.198 34.2542C25.4949 34.2542 24.8203 34.5335 24.3231 35.0308C23.8258 35.5279 23.5465 36.2026 23.5465 36.9057C23.5477 37.6087 23.8275 38.2824 24.3246 38.7793C24.8215 39.2764 25.4952 39.5562 26.198 39.5574V39.5573ZM33.6196 35.014C33.7387 34.744 33.6186 34.4283 33.3501 34.3059C33.0816 34.1834 32.7645 34.2996 32.6386 34.5667L27.8796 44.9849C27.7608 45.2549 27.8811 45.5703 28.1494 45.6925C28.4179 45.815 28.7348 45.699 28.8606 45.4322L33.6196 35.014ZM37.8935 43.0928C37.8935 42.3895 37.6142 41.7151 37.1168 41.2178C36.6198 40.7204 35.9451 40.4411 35.242 40.4411C34.5387 40.4411 33.8643 40.7205 33.367 41.2178C32.8697 41.7151 32.5903 42.3895 32.5903 43.0928C32.5903 43.7959 32.8697 44.4705 33.367 44.9676C33.8643 45.465 34.5387 45.7443 35.242 45.7443C35.9448 45.7431 36.6185 45.4633 37.1154 44.9662C37.6125 44.4693 37.8923 43.7956 37.8935 43.0928ZM44.6093 46.6283C44.961 49.7215 44.3987 50.5425 41.2947 51.1664C39.3024 51.5677 39.09 51.6863 38.0931 53.4894C36.5198 56.3064 35.5391 56.5223 32.7736 55.2627C30.8716 54.3837 30.5715 54.3823 28.6666 55.2627C25.9023 56.5329 24.9149 56.2966 23.3471 53.4894C22.3502 51.6863 22.1375 51.5677 20.1455 51.1664C17.0467 50.5437 16.4787 49.7253 16.831 46.6283C17.081 44.5405 16.9729 44.3158 15.6291 42.8772C13.4605 40.5313 13.4533 39.4748 15.6294 37.1209C16.976 35.679 17.0809 35.455 16.8312 33.3699C16.4794 30.2766 17.0417 29.4557 20.1458 28.8318C22.138 28.4305 22.3505 28.3119 23.3473 26.5087C24.9206 23.6917 25.9014 23.4759 28.6669 24.7355C30.5689 25.6144 30.8689 25.6158 32.7738 24.7355C35.5365 23.4771 36.5184 23.6888 38.0934 26.5087C39.0902 28.3118 39.3029 28.4305 41.2949 28.8318C44.3937 29.4545 44.9618 30.2728 44.6095 33.3699C44.3595 35.4577 44.4675 35.6824 45.8113 37.1209C47.9802 39.4669 47.9874 40.5233 45.8113 42.877C44.4644 44.3192 44.3595 44.5432 44.6092 46.6283H44.6093ZM42.3509 39.9994C42.3509 36.9148 41.1255 33.9563 38.9444 31.7751C36.7633 29.594 33.8048 28.3686 30.7202 28.3686C27.6355 28.3686 24.6771 29.594 22.496 31.7751C20.3149 33.9562 19.0894 36.9147 19.0894 39.9994C19.0894 43.084 20.3149 46.0424 22.496 48.2236C24.677 50.4047 27.6355 51.6301 30.7202 51.6301C33.8038 51.6267 36.7602 50.4004 38.9407 48.22C41.121 46.0394 42.3475 43.0831 42.3508 39.9995L42.3509 39.9994Z" fill="url(#paint0_linear_6526_36909)"/>
<defs>
<linearGradient id="paint0_linear_6526_36909" x1="14" y1="40.2712" x2="47.4407" y2="40.2712" gradientUnits="userSpaceOnUse">
<stop stop-color="#EC008C"/>
<stop offset="1" stop-color="#2B328C"/>
</linearGradient>
</defs>
</svg>
