<svg width="117" height="118" viewBox="0 0 117 118" fill="none" xmlns="http://www.w3.org/2000/svg">
<path d="M116.698 58.9186C116.698 91.144 90.5746 117.268 58.3492 117.268C26.1238 117.268 0 91.144 0 58.9186C0 26.6932 26.1238 0.569336 58.3492 0.569336C90.5746 0.569336 116.698 26.6932 116.698 58.9186Z" fill="black" fill-opacity="0.25"/>
<path fill-rule="evenodd" clip-rule="evenodd" d="M64.92 83.5892V78.3802H57.9324V83.5892H64.92ZM53.3422 43.6974C61.7685 44.2458 74.4419 40.8186 81.4984 36.1576C88.0749 31.7711 87.1845 28.4123 79.3061 27.9327C70.8115 27.3842 58.2064 30.8115 51.1499 35.4724C44.505 39.7906 45.4638 43.2177 53.3422 43.6974ZM80.6759 38.2827L82.0461 43.2861C82.4571 43.0805 82.7998 42.8064 83.2108 42.6008C86.2936 40.5446 87.9377 38.4883 87.5267 36.9806L86.5675 33.2794C85.4028 35.1984 83.0737 36.9122 80.6759 38.2828L80.6759 38.2827ZM72.9346 41.7784L74.3048 46.8506C76.7026 45.9597 78.8945 44.9999 80.7442 44.0403L79.4427 38.968C77.5247 39.9962 75.3324 40.9559 72.9345 41.7784H72.9346ZM64.9194 44.0402L66.2209 49.1124L73.0029 47.2618L71.6327 42.2584L64.919 44.0406L64.9194 44.0402ZM56.5615 45.1368L57.863 50.1401C59.9866 50.0717 62.3844 49.7973 64.8507 49.3861L63.5492 44.3138C61.0146 44.7935 58.6851 45.0679 56.5615 45.1363V45.1368ZM48.478 47.467C49.0262 49.5233 53.0677 50.1401 56.4248 50.1401L55.1233 45.1368C52.3145 45.1368 49.4372 44.7939 47.5192 43.7658L48.4784 47.467H48.478ZM31.9682 52.3336L34.5716 47.8099C32.5848 45.8908 30.8039 43.6289 30.1874 41.4355L28.2694 44.7939C27.1733 46.576 29.5708 49.8661 31.9686 52.3336H31.9682ZM38.4765 57.7482L41.0799 53.2245C39.0247 51.7851 37.175 50.2774 35.5993 48.838L32.9959 53.2933C34.5029 54.801 36.4213 56.3093 38.4765 57.7485V57.7482ZM48.2729 57.4742L42.2446 53.9786L39.6412 58.5023L45.6696 61.9979L48.2729 57.4742ZM34.2973 45.5481C39.9146 51.9225 51.2865 58.4345 59.5762 60.147C64.4402 61.1751 68.4134 60.4898 66.1527 56.0345C65.399 54.5951 64.0976 52.8817 62.3163 51.168C57.7949 51.7848 48.3407 52.1961 47.176 47.8096L45.4635 41.4352C45.3264 41.0239 45.3264 40.6811 45.3264 40.3386C41.8325 38.8992 38.6815 38.0083 36.1464 37.8027C29.8438 37.3231 30.2548 40.9555 34.2967 45.548L34.2973 45.5481ZM53.4795 65.1513L56.0829 60.696C54.0277 60.0107 51.8354 59.1882 49.5746 58.0913L46.9713 62.615C49.2319 63.7116 51.4926 64.534 53.4795 65.1509V65.1513ZM54.9181 65.5625C58.138 66.385 62.1796 66.8647 63.276 65.0141L65.194 61.7241C63.0017 62.2038 60.1244 61.7925 57.4527 61.1072L54.9181 65.5625ZM74.6483 76.9403V82.0809C77.9365 81.19 81.6359 79.545 81.6359 77.4199V73.5815C80.0601 75.1581 77.32 76.1862 74.6483 76.9399V76.9403ZM46.8343 75.0896C54.8495 77.7627 68.0026 77.7627 76.0178 75.0896C82.7315 72.8278 83.8275 69.6062 77.1138 66.933C74.0994 65.7677 69.9207 64.8768 65.1254 64.6028L64.4404 65.6993C61.9059 70.2231 50.4648 65.5621 50.3962 65.5621C47.5189 66.179 45.1898 67.0015 43.5457 67.9612C38.8872 70.7027 41.8332 73.3758 46.8339 75.0896L46.8343 75.0896ZM48.2045 82.0809V76.9403C45.5328 76.1862 42.861 75.1581 41.2169 73.5819V77.4203C41.2169 79.545 44.9162 81.19 48.2045 82.0813V82.0809ZM56.5623 83.5203V78.2425C54.0278 78.1052 51.6983 77.694 49.5747 77.2827V82.4233C51.6299 82.9718 54.0277 83.3142 56.5623 83.5199V83.5203ZM66.2904 78.2425V83.5203C68.8249 83.3146 71.2228 82.9718 73.278 82.4237V77.2831C71.2228 77.6943 68.825 78.1056 66.2904 78.2428V78.2425Z" fill="url(#paint0_linear_7364_47643)"/>
<defs>
<linearGradient id="paint0_linear_7364_47643" x1="27.9961" y1="56.2043" x2="87.589" y2="56.2043" gradientUnits="userSpaceOnUse">
<stop stop-color="#EC008C"/>
<stop offset="1" stop-color="#2B328C"/>
</linearGradient>
</defs>
</svg>
