<svg width="20" height="21" viewBox="0 0 20 21" fill="none" xmlns="http://www.w3.org/2000/svg">
<path d="M6.27243 10.333V8.27027H7.76432V12.8108H6.50595L4.78054 10.7481V12.8108H3.28865V8.27027H4.54703L6.27243 10.333Z" fill="#EC008C"/>
<path d="M11.9008 8.27027V9.42486H9.74083V10.2032H11.6349V11.3578H9.74083V12.8108H8.21002V8.27027H11.9008Z" fill="#EC008C"/>
<path d="M15.1923 12.8108H13.6615V9.4573H12.3318V8.27027H16.522V9.4573H15.1923V12.8108Z" fill="#EC008C"/>
<path fill-rule="evenodd" clip-rule="evenodd" d="M10.2144 0.117819C9.9249 -0.0392731 9.57562 -0.0392731 9.28616 0.117819L0.508873 4.88133C0.195285 5.05152 0 5.37969 0 5.73649V15.2635C0 15.6203 0.195285 15.9485 0.508873 16.1187L9.28616 20.8822C9.57562 21.0393 9.9249 21.0393 10.2144 20.8822L18.9916 16.1187C19.3052 15.9485 19.5005 15.6203 19.5005 15.2635V5.73649C19.5005 5.37969 19.3052 5.05152 18.9916 4.88133L10.2144 0.117819ZM1.94595 14.6845V6.31547L9.75026 2.08L17.5546 6.31547V14.6845L9.75026 18.92L1.94595 14.6845Z" fill="#EC008C"/>
</svg>
