<svg width="18" height="18" viewBox="0 0 18 18" fill="none" xmlns="http://www.w3.org/2000/svg">
<path d="M7.5075 15.7575C7.5075 16.5825 8.175 17.25 9 17.25C9.825 17.25 10.4925 16.5825 10.4925 15.7575H7.5075ZM9 4.5C11.07 4.5 12.75 6.18 12.75 8.25V13.5H5.25V8.25C5.25 6.18 6.93 4.5 9 4.5ZM9 1.125C8.3775 1.125 7.875 1.6275 7.875 2.25V3.1275C5.52 3.6375 3.75 5.7375 3.75 8.25V12.75L2.25 14.25V15H15.75V14.25L14.25 12.75V8.25C14.25 5.7375 12.48 3.6375 10.125 3.1275V2.25C10.125 1.6275 9.6225 1.125 9 1.125ZM8.25 6H9.75V9H8.25V6ZM8.25 10.5H9.75V12H8.25V10.5Z" fill="#2E363B"/>
</svg>
