<svg width="24" height="24" viewBox="0 0 24 24" fill="none" xmlns="http://www.w3.org/2000/svg">
<path d="M21.71 8.70968C22.96 7.45968 22.39 5.99968 21.71 5.28968L18.71 2.28968C17.45 1.03968 16 1.60968 15.29 2.28968L13.59 3.99968H11C9.10001 3.99968 8.00001 4.99968 7.44001 6.14968L3.00001 10.5897V14.5897L2.29001 15.2897C1.04001 16.5497 1.61001 17.9997 2.29001 18.7097L5.29001 21.7097C5.83001 22.2497 6.41001 22.4497 6.96001 22.4497C7.67001 22.4497 8.32001 22.0997 8.71001 21.7097L11.41 18.9997H15C16.7 18.9997 17.56 17.9397 17.87 16.8997C19 16.5997 19.62 15.7397 19.87 14.8997C21.42 14.4997 22 13.0297 22 11.9997V8.99968H21.41L21.71 8.70968ZM20 11.9997C20 12.4497 19.81 12.9997 19 12.9997H18V13.9997C18 14.4497 17.81 14.9997 17 14.9997H16V15.9997C16 16.4497 15.81 16.9997 15 16.9997H10.59L7.31001 20.2797C7.00001 20.5697 6.82001 20.3997 6.71001 20.2897L3.72001 17.3097C3.43001 16.9997 3.60001 16.8197 3.71001 16.7097L5.00001 15.4097V11.4097L7.00001 9.40968V10.9997C7.00001 12.2097 7.80001 13.9997 10 13.9997C12.2 13.9997 13 12.2097 13 10.9997H20V11.9997ZM20.29 7.28968L18.59 8.99968H11V10.9997C11 11.4497 10.81 11.9997 10 11.9997C9.19001 11.9997 9.00001 11.4497 9.00001 10.9997V7.99968C9.00001 7.53968 9.17001 5.99968 11 5.99968H14.41L16.69 3.71968C17 3.42968 17.18 3.59968 17.29 3.70968L20.28 6.68968C20.57 6.99968 20.4 7.17968 20.29 7.28968Z" fill="#242C33"/>
</svg>
