<svg width="24" height="24" viewBox="0 0 24 24" fill="none" xmlns="http://www.w3.org/2000/svg">
<path d="M21.7097 8.71017C22.9597 7.46017 22.3897 6.00017 21.7097 5.29017L18.7097 2.29017C17.4497 1.04017 15.9997 1.61017 15.2897 2.29017L13.5897 4.00017H10.9997C9.09969 4.00017 7.99968 5.00017 7.43968 6.15017L2.99968 10.5902V14.5902L2.28968 15.2902C1.03968 16.5502 1.60968 18.0002 2.28968 18.7102L5.28968 21.7102C5.82968 22.2502 6.40968 22.4502 6.95968 22.4502C7.66968 22.4502 8.31968 22.1002 8.70968 21.7102L11.4097 19.0002H14.9997C16.6997 19.0002 17.5597 17.9402 17.8697 16.9002C18.9997 16.6002 19.6197 15.7402 19.8697 14.9002C21.4197 14.5002 21.9997 13.0302 21.9997 12.0002V9.00017H21.4097L21.7097 8.71017ZM19.9997 12.0002C19.9997 12.4502 19.8097 13.0002 18.9997 13.0002H17.9997V14.0002C17.9997 14.4502 17.8097 15.0002 16.9997 15.0002H15.9997V16.0002C15.9997 16.4502 15.8097 17.0002 14.9997 17.0002H10.5897L7.30968 20.2802C6.99968 20.5702 6.81968 20.4002 6.70968 20.2902L3.71968 17.3102C3.42968 17.0002 3.59968 16.8202 3.70968 16.7102L4.99968 15.4102V11.4102L6.99968 9.41017V11.0002C6.99968 12.2102 7.79969 14.0002 9.99969 14.0002C12.1997 14.0002 12.9997 12.2102 12.9997 11.0002H19.9997V12.0002ZM20.2897 7.29017L18.5897 9.00017H10.9997V11.0002C10.9997 11.4502 10.8097 12.0002 9.99969 12.0002C9.18969 12.0002 8.99968 11.4502 8.99968 11.0002V8.00017C8.99968 7.54017 9.16969 6.00017 10.9997 6.00017H14.4097L16.6897 3.72017C16.9997 3.43017 17.1797 3.60017 17.2897 3.71017L20.2797 6.69017C20.5697 7.00017 20.3997 7.18017 20.2897 7.29017V7.29017Z" fill="white"/>
</svg>
