<svg width="19" height="23" viewBox="0 0 19 23" fill="none" xmlns="http://www.w3.org/2000/svg">
<path d="M10.2189 8.58952C10.3702 8.13577 11.0109 8.13577 11.1622 8.58952L12.049 11.2529C12.2442 11.8384 12.5731 12.3703 13.0097 12.8066C13.4462 13.2429 13.9783 13.5715 14.5639 13.7664L17.2259 14.6533C17.6797 14.8045 17.6797 15.4453 17.2259 15.5965L14.5625 16.4834C13.9771 16.6786 13.4451 17.0075 13.0088 17.444C12.5725 17.8805 12.2439 18.4127 12.049 18.9983L11.1622 21.6603C11.1296 21.7596 11.0664 21.8462 10.9817 21.9075C10.897 21.9688 10.7951 22.0019 10.6905 22.0019C10.586 22.0019 10.4841 21.9688 10.3994 21.9075C10.3147 21.8462 10.2515 21.7596 10.2189 21.6603L9.33204 18.9969C9.13696 18.4116 8.80827 17.8797 8.372 17.4434C7.93573 17.0072 7.40387 16.6785 6.81854 16.4834L4.15516 15.5965C4.0558 15.5639 3.96928 15.5008 3.90794 15.4161C3.8466 15.3314 3.81357 15.2295 3.81357 15.1249C3.81357 15.0203 3.8466 14.9184 3.90794 14.8337C3.96928 14.749 4.0558 14.6859 4.15516 14.6533L6.81854 13.7664C7.40387 13.5713 7.93573 13.2426 8.372 12.8064C8.80827 12.3701 9.13696 11.8382 9.33204 11.2529L10.2189 8.58952V8.58952ZM4.90729 1.57839C4.927 1.51885 4.96498 1.46703 5.01583 1.43031C5.06668 1.39358 5.12781 1.37381 5.19054 1.37381C5.25326 1.37381 5.31439 1.39358 5.36524 1.43031C5.41609 1.46703 5.45407 1.51885 5.47379 1.57839L6.00591 3.17614C6.24379 3.88839 6.80204 4.44664 7.51429 4.68452L9.11204 5.21664C9.17158 5.23636 9.2234 5.27434 9.26012 5.32519C9.29685 5.37604 9.31662 5.43717 9.31662 5.49989C9.31662 5.56262 9.29685 5.62375 9.26012 5.6746C9.2234 5.72545 9.17158 5.76343 9.11204 5.78314L7.51429 6.31527C7.16301 6.4323 6.84381 6.62954 6.582 6.89136C6.32019 7.15317 6.12295 7.47237 6.00591 7.82364L5.47379 9.42139C5.45407 9.48094 5.41609 9.53276 5.36524 9.56948C5.31439 9.60621 5.25326 9.62598 5.19054 9.62598C5.12781 9.62598 5.06668 9.60621 5.01583 9.56948C4.96498 9.53276 4.927 9.48094 4.90729 9.42139L4.37516 7.82364C4.25813 7.47237 4.06089 7.15317 3.79907 6.89136C3.53726 6.62954 3.21806 6.4323 2.86679 6.31527L1.26904 5.78314C1.20949 5.76343 1.15767 5.72545 1.12095 5.6746C1.08422 5.62375 1.06445 5.56262 1.06445 5.49989C1.06445 5.43717 1.08422 5.37604 1.12095 5.32519C1.15767 5.27434 1.20949 5.23636 1.26904 5.21664L2.86679 4.68452C3.21806 4.56748 3.53726 4.37024 3.79907 4.10843C4.06089 3.84662 4.25813 3.52742 4.37516 3.17614L4.90729 1.57839V1.57839ZM14.6272 0.136019C14.6407 0.0968679 14.6662 0.0629186 14.6999 0.0388914C14.7337 0.0148642 14.7741 0.00195312 14.8155 0.00195312C14.857 0.00195313 14.8974 0.0148642 14.9311 0.0388914C14.9649 0.0629186 14.9903 0.0968679 15.0039 0.136019L15.3587 1.20027C15.5168 1.67602 15.8894 2.04864 16.3652 2.20677L17.4294 2.56152C17.4686 2.57509 17.5025 2.60053 17.5265 2.63429C17.5506 2.66805 17.5635 2.70846 17.5635 2.74989C17.5635 2.79133 17.5506 2.83174 17.5265 2.8655C17.5025 2.89926 17.4686 2.9247 17.4294 2.93827L16.3652 3.29302C16.1307 3.37101 15.9177 3.50259 15.7429 3.67731C15.5682 3.85202 15.4367 4.06507 15.3587 4.29952L15.0039 5.36377C14.9903 5.40292 14.9649 5.43687 14.9311 5.4609C14.8974 5.48492 14.857 5.49784 14.8155 5.49784C14.7741 5.49784 14.7337 5.48492 14.6999 5.4609C14.6662 5.43687 14.6407 5.40292 14.6272 5.36377L14.2724 4.29952C14.1944 4.06507 14.0628 3.85202 13.8881 3.67731C13.7134 3.50259 13.5004 3.37101 13.2659 3.29302L12.203 2.93827C12.1639 2.9247 12.1299 2.89926 12.1059 2.8655C12.0819 2.83174 12.069 2.79133 12.069 2.74989C12.069 2.70846 12.0819 2.66805 12.1059 2.63429C12.1299 2.60053 12.1639 2.57509 12.203 2.56152L13.2673 2.20677C13.743 2.04864 14.1157 1.67602 14.2738 1.20027L14.6272 0.137394V0.136019Z" fill="white"/>
</svg>
