<svg width="40" height="40" viewBox="0 0 40 40" fill="none" xmlns="http://www.w3.org/2000/svg">
<path d="M30 8.75H12.5V6.25C12.5 5.56 11.94 5 11.25 5C7.80375 5 5 7.80375 5 11.25V25C5 27.7569 7.24313 30 10 30H27.5V33.75C27.5 34.44 28.06 35 28.75 35H31.25C33.3181 35 35 33.3181 35 31.25V13.75C35 10.9931 32.7569 8.75 30 8.75ZM7.5 11.25C7.5 9.62063 8.545 8.23 10 7.71438V20C9.09 20 8.23563 20.2444 7.5 20.6713V11.25ZM10 27.5C8.62125 27.5 7.5 26.3787 7.5 25C7.5 23.6213 8.62125 22.5 10 22.5H11.25C11.94 22.5 12.5 21.94 12.5 21.25V11.25H30C31.3787 11.25 32.5 12.3713 32.5 13.75V27.7188C32.1081 27.58 31.6887 27.5 31.25 27.5H10ZM31.25 32.5H30V30H31.25C31.9394 30 32.5 30.5606 32.5 31.25C32.5 31.9394 31.9394 32.5 31.25 32.5Z" fill="white"/>
<path d="M28.75 15H16.25C15.56 15 15 15.56 15 16.25C15 16.94 15.56 17.5 16.25 17.5H28.75C29.44 17.5 30 16.94 30 16.25C30 15.56 29.44 15 28.75 15Z" fill="white"/>
<path d="M25 20H16.25C15.56 20 15 20.56 15 21.25C15 21.94 15.56 22.5 16.25 22.5H25C25.69 22.5 26.25 21.94 26.25 21.25C26.25 20.56 25.69 20 25 20Z" fill="white"/>
</svg>
