<svg width="26" height="26" viewBox="0 0 26 26" fill="none" xmlns="http://www.w3.org/2000/svg">
<path d="M25.1875 19.5H3.25V4.0625C3.25 3.61359 2.88641 3.25 2.4375 3.25H0.8125C0.363594 3.25 0 3.61359 0 4.0625V21.125C0 22.0223 0.727695 22.75 1.625 22.75H25.1875C25.6364 22.75 26 22.3864 26 21.9375V20.3125C26 19.8636 25.6364 19.5 25.1875 19.5ZM23.5625 4.875H17.5673C16.4816 4.875 15.9377 6.1877 16.7055 6.95551L18.3508 8.60082L14.625 12.3271L10.8992 8.60133C10.2644 7.96656 9.23559 7.96656 8.60133 8.60133L5.11316 12.0895C4.79578 12.4069 4.79578 12.9213 5.11316 13.2387L6.26184 14.3873C6.57922 14.7047 7.09363 14.7047 7.41102 14.3873L9.75 12.0479L13.4758 15.7737C14.1106 16.4084 15.1394 16.4084 15.7737 15.7737L20.6487 10.8987L22.294 12.544C23.0618 13.3118 24.3745 12.7679 24.3745 11.6822V5.6875C24.375 5.23859 24.0114 4.875 23.5625 4.875Z" fill="#19191D"/>
</svg>
