<svg width="1577" height="693" viewBox="0 0 1577 693" fill="none" xmlns="http://www.w3.org/2000/svg">
<g opacity="0.18" clip-path="url(#clip0_8507_47801)">
<path fill-rule="evenodd" clip-rule="evenodd" d="M-157.902 1787.18L-170 1796.24L-170 1799.98L-156.017 1789.51C-153.025 1792.6 -148.834 1794.52 -144.195 1794.52C-143.178 1794.52 -142.182 1794.43 -141.216 1794.25L-138.181 1801.85L-134.485 1801.85L-137.927 1793.29C-132.53 1791.06 -128.575 1786.05 -127.855 1780.04L161.065 1771.7L536.789 1760.98L536.2 1762.76L536.162 1762.86L536.166 1762.86L523.917 1799.91L523.395 1801.49L523.395 1801.49L527.09 1801.49L527.09 1801.49L527.09 1801.49L539.865 1762.87L569.671 1801.38L569.755 1801.49L573.786 1801.49L541.597 1759.8L831.616 1588.63L763.203 1799.6L762.589 1801.49L762.59 1801.49L762.59 1801.49L766.285 1801.49L834.818 1590.21L908.882 1797.23L910.405 1801.49L913.764 1801.49L913.766 1801.49L906.436 1780.99L837.543 1588.3L1243.99 1799.21L1248.37 1801.49L1248.37 1801.49L1255.09 1801.49L1253.55 1800.69L836.682 1584.02L837.505 1581.48L836.883 1581.84L864.178 1329L880.835 1175.45L1263.82 1801.49L1267.85 1801.49L1267.85 1801.49L882.626 1172.06L954.95 1179.94L1840.98 1276.82L1281.29 1801.49L1281.29 1801.49L1285.99 1801.49L1287.9 1799.7L1842.68 1279.49L1842.66 1279.84L1844.16 1278.49L1845.68 1281.19L1845.79 1279.48L1862.63 1298.69L1980.22 1433.1L1289.42 1801.27L1289.02 1801.49L1295.4 1801.49L1981.92 1435.89L2024.42 1551.28L2023.4 1550.57L2025.23 1554.14L2023.4 1554.27L2024.29 1554.89L1298.76 1801.49L1308.17 1801.49L2025.38 1557.78L1965.61 1801.49L1965.62 1801.49L1968.97 1801.49L2028.37 1560.26L2151.93 1801.22L2152.07 1801.49L2155.76 1801.49L2155.65 1801.28L2032.56 1560.61L2331.28 1766.68L2349.6 1779.32L2349.6 1775.29L2032.17 1556.62L2349.34 1533.8L2349.6 1533.78L2349.6 1530.76L2349.39 1530.77L2034.99 1553.25L2348.7 1386.47L2349.6 1385.99L2349.6 1382.63L2028.77 1552.93L1985.11 1434.38L2349.6 1299.33L2349.6 1295.97L2346.18 1297.23L1986.11 1430.66L2286.78 846.537L2349.03 872.5L2349.6 872.738L2349.6 869.379L2348.31 868.84L2288.53 843.883L2349.6 778.688L2349.6 773.986L2286.44 841.286L2107.17 390.861L2082.53 328.923L2349.6 327.914L2349.6 324.891L2338.16 324.949L2083.56 326.208L2341.04 20.3273L2349.6 10.1569L2349.6 5.11842L2086.65 317.246L2223.62 -0.926862L2219.93 -0.926862L2219.77 -0.565046L2081.55 320.446L2060.23 7.11477L2059.68 -0.927344L2059.68 -0.930395L2056.32 -0.930395L2056.32 -0.927343L2077.82 315.483L1965.62 -0.930391L1962.26 -0.930391L1962.26 -0.926851L2077.92 326.236L2077.82 326.236L2078.1 326.938L1512.09 646.345L1862.48 -0.926847L1858.45 -0.927213L1507.05 648.36L1319.92 590.25L1817.85 8.82206L1826.2 -0.927211L1821.83 -0.927211L1318.91 586.493L1304.94 4.82013L1304.81 -0.926578L1301.45 -0.926578L1301.45 -0.926334L1315.38 587.715L1222.12 523.639L960.541 343.757L960.798 343.365L960.74 343.342L1170.41 8.7475L1176.48 -0.926573L1176.48 -0.929136L1172.45 -0.929136L1172.45 -0.926572L960.463 337.654L985.323 -0.929128L985.321 -0.929616L981.962 -0.929616L972.13 129.321L979.592 -0.618336L979.61 -0.929616L976.251 -0.929616L975.061 19.7777L956.758 338.313L777.271 8.15853L772.331 -0.929607L768.636 -0.929606L954.586 341.128L456.06 168.99L607.047 -0.927768L607.044 -0.927768L607.045 -0.929599L602.678 -0.929599L453.514 166.978L343.329 -0.930564L339.297 -0.930564L339.299 -0.927757L339.297 -0.927757L348.201 12.6233L449.411 166.694L446.463 165.676L450.885 169.567L401.064 213.041L48.0031 520.784L120.253 1.52452L120.594 -0.927015L120.596 -0.930555L117.236 -0.930555L117.235 -0.927015L43.9982 523.071L-163.747 440.898L-170 438.423L-170 441.782L-170 441.784L42.7209 525.74L42.3183 526.091L42.6496 526.176L-169.362 787.64L-170 788.426L-170 793.464L-170 793.465L45.3847 528.008L314.752 907.946L-170 827.725L-170 827.727L-170 827.727L-170 830.75L-164.458 831.667L317.053 911.524L401.897 1362.99L-169.76 847.426L-170 847.209L-170 851.576L-169.203 852.295L396.314 1362.43L-170 1116.26L-170 1116.26L-170 1119.62L401.3 1368.12L266.541 1469.11L-116.248 1755.47L-115.596 1755.47L-131.603 1767.47C-134.622 1763.88 -139.143 1761.61 -144.195 1761.61C-146.315 1761.61 -148.343 1762.01 -150.204 1762.74L-153.125 1755.47L-152.867 1755.47L-169.981 1713.53L-170 1713.48L-170 1722.22L-170 1722.22L-169.973 1722.29L-153.192 1764.28C-157.684 1767.22 -160.652 1772.3 -160.652 1778.07C-160.652 1778.14 -160.652 1778.22 -160.651 1778.3L-170.934 1778.6L-170.934 1781.29L-160.394 1780.98C-159.99 1783.24 -159.126 1785.34 -157.902 1787.18ZM-129.874 1769.95L403.374 1370.85L404.135 1374.9L404.652 1373.2L442.775 1484L536.832 1757.82L51.8871 1772.08L-127.753 1777.34C-127.869 1774.66 -128.626 1772.15 -129.874 1769.95ZM695.497 1380.18L662.802 1417.88L478.764 1135.82L660.3 1152L876.166 1171.32L876.139 1171.35L876.447 1171.38L695.497 1380.18ZM664.978 1420.39L833.296 1581.31L877.366 1175.66L664.978 1420.39ZM878.143 1168.51L876.475 1168.32L876.595 1168.52L481.42 1133.09L925.832 913.195L878.715 1165.67L878.492 1165.3L878.143 1168.51ZM929.88 911.714L1232.62 837.743L882.33 1165.52L929.509 912.983L930.226 913.383L929.88 911.714ZM929.471 907.94L930.564 907.333L930.414 908.135L1235.13 833.809L1234.28 833.12L1234.26 833.102L1234.26 833.102L848.635 519.585L929.471 907.94ZM473.503 1135.35L470.316 1135.07L472.984 1133.75L322.022 918.442L405.054 1360.32L473.503 1135.35ZM1850.05 1277.49L1847.41 1275.46L2279.24 853.521L1982.44 1430.6L1848.02 1277.27L1850.05 1277.49ZM1838.93 1269.22L1243.48 835.962L1581.75 813.521L1838.93 1269.22ZM1239.63 837.469L1239.68 837.32L1838.84 1273.46L883.457 1169.09L1238.89 836.865L1239.63 837.469ZM476.303 1137.96L658.895 1417.79L406.822 1366.51L476.303 1137.96ZM903.278 431.155L958.151 347.687L959.453 350.082L959.613 347.297L1307.09 586.319L1302.46 584.874L1308.35 588.043L848.788 514.318L903.278 431.155ZM955.738 345.077L460.252 173.752L845.568 512.993L955.738 345.077ZM1318.92 593.945L1318.91 593.732L1515.5 699.549L1241.63 831.269L1318.4 593.589L1318.92 593.945ZM829.025 526.904L593.02 719.301L590.813 684.544L589.669 665.677L590.248 665.824L589.794 664.157L829.025 526.904ZM589.907 721.838L589.421 722.235L336.603 895.944L586.478 666.899L588.229 694.315L589.907 721.838ZM592.542 725.145L924.503 910.192L478.377 1131.04L592.542 725.145ZM925.772 907.124L594.543 722.446L694.735 640.734L844.718 518.514L925.772 907.124ZM588.76 726.721L547.613 873.014L475.02 1130.37L341.429 940.052L322.017 912.347L322.162 912.371L320.922 910.622L588.76 726.721ZM1504.02 654.406L1506.68 652.91L1516.77 696.664L1332.99 597.606L1504.33 650.976L1503.02 651.718L1505.39 651.877L1504.02 654.406ZM1513.5 649.06L2075.6 331.966L1880.86 674.464L1880.28 674.223L1880.28 674.777L1752.56 665.883L1513.5 649.06ZM2082.8 338.738L2282.77 841.679L1885.74 676.494L1890.03 674.56L1885.23 674.866L2003.64 466.147L2079.09 333.514L2079.17 334.633L2080.21 332.22L2080.37 332.626L2082.86 339.668L2082.8 338.738ZM782.494 549.895L843.062 515.054L840.527 512.993L841.018 513.072L456.324 174.512L588.728 660.246L589.24 659.777L589.311 660.888L782.494 549.895ZM48.9299 524.47L452.237 172.624L585.545 661.122L48.9299 524.47ZM584.295 664.306L318.733 907.538L270.631 839.75L49.4744 527.916L584.295 664.306ZM1274.63 717.518L1315.05 592.237L851.278 517.695L1237.62 831.758L1274.63 717.518ZM1330.52 792.014L1246.75 832.274L1579.9 810.174L1548.89 755.444L1518.39 701.806L1330.52 792.014ZM1598.41 836.058L1843.3 1269.51L1880.11 679.34L1584.99 812.276L1598.41 836.058ZM1883.64 678.925L1846.71 1271.2L2282.94 845.133L1883.64 678.925ZM1858.88 676.548L1687.66 687.479L1520.48 698.071L1510.1 652.197L1858.88 676.548ZM1583.57 809.451L1873.12 678.64L1521.83 701.096L1583.57 809.451ZM539.265 1754.24L443.632 1476.12L407.374 1370.5L412.868 1372.89L410.209 1370.49L660.348 1421.57L565.876 1681.2L539.265 1754.24ZM663.305 1423.42L542.322 1755.59L631.291 1703.11L831.796 1584.5L663.305 1423.42Z" fill="url(#paint0_linear_8507_47801)" fill-opacity="0.35"/>
<path fill-rule="evenodd" clip-rule="evenodd" d="M556.376 1758.5C556.376 1749.41 549.006 1742.04 539.914 1742.04C530.823 1742.04 523.453 1749.41 523.453 1758.5C523.453 1767.59 530.823 1774.96 539.914 1774.96C549.006 1774.96 556.376 1767.59 556.376 1758.5ZM833.81 1555.61C813.317 1555.61 796.519 1572.41 796.519 1592.9C796.519 1613.39 813.317 1630.18 833.81 1630.18C854.302 1630.18 871.1 1613.39 871.1 1592.9C870.764 1572.07 854.302 1555.61 833.81 1555.61ZM833.81 1624.14C816.34 1624.14 802.231 1610.03 802.231 1592.56C802.231 1575.1 816.34 1560.99 833.81 1560.99C851.279 1560.99 865.389 1575.1 865.389 1592.56C865.389 1610.03 851.279 1624.14 833.81 1624.14ZM833.809 1570.06C846.239 1570.06 856.318 1580.13 856.318 1592.56C856.318 1604.99 846.239 1615.07 833.809 1615.07C821.379 1615.07 811.301 1604.99 811.301 1592.56C811.301 1580.13 821.379 1570.06 833.809 1570.06ZM2057.33 1559.64C2057.33 1546.47 2046.65 1535.79 2033.48 1535.79C2020.3 1535.79 2009.62 1546.47 2009.62 1559.64C2009.62 1572.81 2020.3 1583.49 2033.48 1583.49C2046.65 1583.49 2057.33 1572.81 2057.33 1559.64ZM679.61 1418.9C679.61 1409.81 672.24 1402.45 663.149 1402.45C654.057 1402.45 646.687 1409.81 646.687 1418.9C646.687 1427.99 654.057 1435.36 663.149 1435.36C672.24 1435.36 679.61 1427.99 679.61 1418.9ZM404.805 1352.4C413.876 1352.4 421.266 1359.79 421.266 1368.86C421.266 1377.93 413.876 1385.32 404.805 1385.32C395.735 1385.32 388.344 1377.93 388.344 1368.86C388.344 1359.79 395.735 1352.4 404.805 1352.4ZM893.272 1176.39C893.272 1167.32 885.881 1159.93 876.811 1159.93C867.74 1159.93 860.35 1167.32 860.35 1176.39C860.35 1185.46 867.74 1192.85 876.811 1192.85C885.881 1192.51 893.272 1185.46 893.272 1176.39ZM1859.45 1271.11C1859.45 1262.02 1852.08 1254.65 1842.99 1254.65C1833.9 1254.65 1826.53 1262.02 1826.53 1271.11C1826.53 1280.2 1833.9 1287.57 1842.99 1287.57C1852.08 1287.57 1859.45 1280.2 1859.45 1271.11ZM1526.87 652.389C1526.87 643.32 1519.48 635.93 1510.41 635.93C1501.34 635.93 1493.95 643.32 1493.95 652.389C1493.95 661.458 1501.34 668.848 1510.41 668.848C1519.81 668.848 1526.87 661.458 1526.87 652.389ZM1240.31 821.346C1249.04 824.369 1253.41 833.774 1250.38 842.171C1247.36 850.904 1237.95 855.271 1229.56 852.248C1220.82 849.225 1216.45 839.82 1219.48 831.422C1222.5 822.689 1231.91 818.323 1240.31 821.346ZM1601.78 817.987C1604.81 809.59 1600.44 800.185 1591.71 797.162C1583.31 794.139 1573.9 798.505 1570.88 807.239C1567.85 815.636 1572.22 825.041 1580.96 828.064C1589.35 831.087 1598.76 826.721 1601.78 817.987ZM1332.69 588.569C1332.69 579.499 1325.3 572.11 1316.23 572.11C1307.16 572.11 1299.77 579.499 1299.77 588.569C1299.77 597.638 1307.16 605.027 1316.23 605.027C1325.3 605.027 1332.69 597.638 1332.69 588.569ZM47.0219 508.625C56.0924 508.625 63.4833 516.015 63.4833 525.084C63.4833 534.153 56.0924 541.207 47.0219 541.543C37.9513 541.543 30.5605 534.153 30.5605 525.084C30.5605 516.015 37.9513 508.625 47.0219 508.625ZM469.308 172.057C469.308 162.988 461.917 155.598 452.846 155.598C443.776 155.598 436.385 162.988 436.385 172.057C436.385 181.126 443.776 188.516 452.846 188.516C461.917 188.18 469.308 181.126 469.308 172.057ZM480.057 1120.96C488.456 1120.96 495.175 1127.68 495.175 1136.08C495.175 1144.14 488.456 1151.2 480.057 1151.2C471.658 1151.2 464.939 1144.48 464.939 1136.08C464.939 1127.68 471.658 1120.96 480.057 1120.96ZM480.057 1110.89C466.283 1110.89 455.197 1121.97 455.197 1135.75C455.197 1149.52 466.283 1160.6 480.057 1160.6C493.831 1160.6 504.917 1149.52 504.917 1135.75C504.917 1121.97 493.831 1110.89 480.057 1110.89ZM480.057 1156.91C468.299 1156.91 458.893 1147.5 458.893 1135.75C458.893 1123.99 468.299 1114.58 480.057 1114.58C491.815 1114.58 501.222 1123.99 501.222 1135.75C501.222 1147.5 491.815 1156.91 480.057 1156.91ZM320.819 889.533C333.585 889.533 343.999 899.946 343.999 912.71C343.999 925.474 333.585 935.887 320.819 935.887C308.053 935.887 297.639 925.474 297.639 912.71C297.639 899.946 308.053 889.533 320.819 889.533ZM320.817 874.416C299.653 874.416 282.519 891.547 282.519 912.708C282.519 933.869 299.653 951 320.817 951C341.982 951 359.115 933.869 359.115 912.708C359.115 891.547 341.646 874.416 320.817 874.416ZM320.817 945.29C303.012 945.29 288.231 930.846 288.231 912.708C288.231 894.906 302.676 880.126 320.817 880.126C338.623 880.126 353.404 894.57 353.404 912.708C353.068 930.51 338.623 945.29 320.817 945.29ZM588.231 649.367C596.629 649.367 603.348 656.085 603.348 664.482C603.348 672.88 596.629 679.598 588.231 679.598C579.832 679.598 573.113 672.88 573.113 664.482C573.113 656.085 579.832 649.367 588.231 649.367ZM588.231 639.623C574.457 639.623 563.371 650.708 563.371 664.479C563.371 678.251 574.457 689.336 588.231 689.336C602.005 689.336 613.091 678.251 613.091 664.479C613.091 651.044 602.005 639.623 588.231 639.623ZM588.231 685.641C576.473 685.641 567.066 676.236 567.066 664.479C567.066 652.723 576.473 643.318 588.231 643.318C599.989 643.318 609.396 652.723 609.396 664.479C609.396 676.236 599.989 685.641 588.231 685.641ZM950.384 910.694C950.384 898.265 940.307 888.189 927.876 888.189C915.445 888.189 905.367 898.265 905.367 910.694C905.367 923.123 915.445 933.199 927.876 933.199C940.307 933.199 950.384 923.123 950.384 910.694ZM927.874 873.744C907.381 873.744 890.584 890.539 890.584 911.028C890.584 931.518 907.381 948.313 927.874 948.313C948.367 948.313 965.164 931.518 965.164 911.028C964.828 890.203 948.367 873.744 927.874 873.744ZM927.874 942.266C910.405 942.266 896.295 928.159 896.295 910.692C896.295 893.226 910.405 879.118 927.874 879.118C945.343 879.118 959.453 893.226 959.453 910.692C959.453 928.159 945.007 942.266 927.874 942.266ZM1518.81 684.969C1527.2 684.969 1533.92 691.687 1533.92 700.084C1533.92 708.481 1527.2 715.199 1518.81 715.199C1510.41 715.199 1503.69 708.481 1503.69 700.084C1503.69 691.687 1510.41 684.969 1518.81 684.969ZM1518.81 675.229C1505.03 675.229 1493.95 686.313 1493.95 700.085C1493.95 713.857 1505.03 724.941 1518.81 724.941C1532.58 724.941 1543.67 713.857 1543.67 700.085C1543.67 686.313 1532.58 675.229 1518.81 675.229ZM1518.81 721.247C1507.05 721.247 1497.64 711.841 1497.64 700.085C1497.64 688.329 1507.05 678.924 1518.81 678.924C1530.56 678.924 1539.97 688.329 1539.97 700.085C1539.97 711.841 1530.56 721.247 1518.81 721.247ZM2005.93 1434.02C2005.93 1422.71 1996.75 1413.53 1985.44 1413.53C1974.12 1413.53 1964.94 1422.71 1964.94 1434.02C1964.94 1445.34 1974.12 1454.51 1985.44 1454.51C1996.75 1454.51 2005.93 1445.34 2005.93 1434.02ZM1985.44 1400.43C1966.96 1400.43 1951.84 1415.55 1951.84 1434.02C1951.84 1452.49 1966.96 1467.61 1985.44 1467.61C2003.91 1467.61 2019.03 1452.49 2019.03 1434.02C2019.03 1415.55 2003.91 1400.43 1985.44 1400.43ZM1985.44 1462.57C1969.65 1462.57 1956.88 1449.81 1956.88 1434.02C1956.88 1418.23 1969.65 1405.47 1985.44 1405.47C2001.23 1405.47 2013.99 1418.23 2013.99 1434.02C2013.99 1449.47 2001.23 1462.57 1985.44 1462.57ZM1880.28 661.121C1888.68 661.121 1895.4 667.839 1895.4 676.236C1895.4 684.634 1888.68 691.352 1880.28 691.352C1871.88 691.352 1865.17 684.634 1865.17 676.236C1865.17 667.839 1871.88 661.121 1880.28 661.121ZM1880.62 651.381C1866.85 651.381 1855.76 662.466 1855.76 676.237C1855.76 690.009 1866.85 701.094 1880.62 701.094C1894.39 701.094 1905.48 690.009 1905.48 676.237C1905.48 662.466 1894.06 651.381 1880.62 651.381ZM1880.62 697.399C1868.86 697.399 1859.46 687.994 1859.46 676.237C1859.46 664.481 1868.86 655.076 1880.62 655.076C1892.38 655.076 1901.78 664.481 1901.78 676.237C1901.45 687.994 1892.04 697.399 1880.62 697.399ZM2283.76 829.742C2292.15 829.742 2298.87 836.46 2298.87 844.857C2298.87 853.255 2292.15 859.973 2283.76 859.973C2275.36 859.973 2268.64 853.255 2268.64 844.857C2268.64 836.46 2275.36 829.742 2283.76 829.742ZM2283.76 820.002C2269.98 820.002 2258.9 831.087 2258.9 844.859C2258.9 858.63 2269.98 869.715 2283.76 869.715C2297.53 869.715 2308.62 858.63 2308.62 844.859C2308.62 831.087 2297.53 820.002 2283.76 820.002ZM2283.76 866.02C2272 866.02 2262.59 856.615 2262.59 844.859C2262.59 833.102 2272 823.697 2283.76 823.697C2295.51 823.697 2304.92 833.102 2304.92 844.859C2304.92 856.615 2295.51 866.02 2283.76 866.02ZM2109.06 326.237C2109.06 312.138 2097.63 300.709 2083.53 300.709C2069.43 300.709 2058 312.138 2058 326.237C2058 340.336 2069.43 351.766 2083.53 351.766C2097.63 351.766 2109.06 340.336 2109.06 326.237ZM2083.53 283.913C2060.02 283.913 2041.2 303.059 2041.2 326.236C2041.2 349.748 2060.35 368.559 2083.53 368.559C2107.05 368.559 2125.86 349.413 2125.86 326.236C2125.86 302.723 2107.05 283.913 2083.53 283.913ZM2083.53 362.177C2063.71 362.177 2047.59 346.054 2047.59 326.236C2047.59 306.418 2063.71 290.295 2083.53 290.295C2103.35 290.295 2119.48 306.418 2119.48 326.236C2119.48 346.053 2103.35 362.177 2083.53 362.177ZM869.085 516.354C869.085 504.111 859.158 494.185 846.913 494.185C834.667 494.185 824.74 504.111 824.74 516.354C824.74 528.598 834.667 538.523 846.913 538.523C859.158 538.523 869.085 528.598 869.085 516.354ZM846.911 480.076C826.754 480.076 810.629 496.535 810.629 516.352C810.629 536.506 827.09 552.629 846.911 552.629C867.068 552.629 883.193 536.17 883.193 516.352C883.529 496.199 867.068 480.076 846.911 480.076ZM846.911 547.254C829.778 547.254 816.004 533.483 816.004 516.352C816.004 499.222 829.778 485.45 846.911 485.45C864.044 485.45 877.818 499.222 877.818 516.352C877.818 533.483 864.045 547.254 846.911 547.254ZM960.125 328.586C968.524 328.586 975.243 335.304 975.243 343.701C975.243 352.098 968.524 358.816 960.125 358.816C951.727 358.816 945.008 352.098 945.008 343.701C945.008 335.304 951.727 328.586 960.125 328.586ZM960.462 318.846C946.688 318.846 935.601 329.93 935.601 343.702C935.602 357.474 946.688 368.559 960.462 368.559C974.235 368.559 985.322 357.474 985.322 343.702C985.322 329.93 973.899 318.846 960.462 318.846ZM960.462 364.864C948.703 364.864 939.297 355.458 939.297 343.702C939.297 331.946 948.703 322.541 960.462 322.541C972.22 322.541 981.626 331.946 981.626 343.702C981.29 355.458 971.884 364.864 960.462 364.864Z" fill="url(#paint1_radial_8507_47801)" fill-opacity="0.3"/>
</g>
<defs>
<linearGradient id="paint0_linear_8507_47801" x1="1148.24" y1="1802.36" x2="1148.23" y2="-0.00200737" gradientUnits="userSpaceOnUse">
<stop stop-color="#70199E"/>
<stop offset="0.473958" stop-color="#C80B99"/>
<stop offset="0.885452" stop-color="#5E1CA0"/>
<stop offset="1" stop-color="#5E1CA0" stop-opacity="0"/>
</linearGradient>
<radialGradient id="paint1_radial_8507_47801" cx="0" cy="0" r="1" gradientUnits="userSpaceOnUse" gradientTransform="translate(1145.99 928.346) scale(1830.08 1954.05)">
<stop stop-color="#D20998"/>
<stop offset="1"/>
</radialGradient>
<clipPath id="clip0_8507_47801">
<rect width="693" height="1577" fill="white" transform="matrix(0 1 1 0 0 0)"/>
</clipPath>
</defs>
</svg>
