<svg width="18" height="22" viewBox="0 0 18 22" fill="none" xmlns="http://www.w3.org/2000/svg">
<path d="M4.26562 6.23323C4.16075 6.12871 4.07753 6.00452 4.02075 5.86778C3.96397 5.73103 3.93474 5.58442 3.93474 5.43636C3.93474 5.28829 3.96397 5.14168 4.02075 5.00494C4.07753 4.86819 4.16075 4.744 4.26562 4.63948L8.20312 0.701981C8.30764 0.597101 8.43183 0.513884 8.56858 0.457103C8.70533 0.400322 8.85193 0.371094 9 0.371094C9.14807 0.371094 9.29467 0.400322 9.43142 0.457103C9.56817 0.513884 9.69236 0.597101 9.79688 0.701981L13.7344 4.63948C13.8393 4.744 13.9225 4.86819 13.9793 5.00494C14.036 5.14168 14.0653 5.28829 14.0653 5.43636C14.0653 5.58442 14.036 5.73103 13.9793 5.86778C13.9225 6.00452 13.8393 6.12871 13.7344 6.23323C13.5221 6.44277 13.2358 6.56027 12.9375 6.56027C12.6392 6.56027 12.3529 6.44277 12.1406 6.23323L10.125 4.21761V11.9989C10.125 12.2972 10.0065 12.5834 9.79549 12.7944C9.58452 13.0053 9.29837 13.1239 9 13.1239C8.70163 13.1239 8.41548 13.0053 8.2045 12.7944C7.99353 12.5834 7.875 12.2972 7.875 11.9989V4.21761L5.85938 6.23323C5.75486 6.33811 5.63067 6.42133 5.49392 6.47811C5.35717 6.53489 5.21057 6.56412 5.0625 6.56412C4.91443 6.56412 4.76783 6.53489 4.63108 6.47811C4.49433 6.42133 4.37014 6.33811 4.26562 6.23323ZM15.75 8.24886H13.5C13.2016 8.24886 12.9155 8.36738 12.7045 8.57836C12.4935 8.78934 12.375 9.07549 12.375 9.37386C12.375 9.67222 12.4935 9.95837 12.7045 10.1694C12.9155 10.3803 13.2016 10.4989 13.5 10.4989H15.375V19.1239H2.625V10.4989H4.5C4.79837 10.4989 5.08452 10.3803 5.2955 10.1694C5.50647 9.95837 5.625 9.67222 5.625 9.37386C5.625 9.07549 5.50647 8.78934 5.2955 8.57836C5.08452 8.36738 4.79837 8.24886 4.5 8.24886H2.25C1.75348 8.25132 1.278 8.44966 0.926897 8.80075C0.575799 9.15185 0.377464 9.62733 0.375 10.1239V19.4989C0.377464 19.9954 0.575799 20.4709 0.926897 20.822C1.278 21.1731 1.75348 21.3714 2.25 21.3739H15.75C16.2465 21.3714 16.722 21.1731 17.0731 20.822C17.4242 20.4709 17.6225 19.9954 17.625 19.4989V10.1239C17.6225 9.62733 17.4242 9.15185 17.0731 8.80075C16.722 8.44966 16.2465 8.25132 15.75 8.24886Z" fill="#D55AAA"/>
</svg>
