<svg width="26" height="26" viewBox="0 0 26 26" fill="none" xmlns="http://www.w3.org/2000/svg">
<g clip-path="url(#clip0_8583_47021)">
<path d="M3.61581 6.21966C4.40327 6.64804 4.69843 7.63263 4.26898 8.42404C2.26927 12.1193 2.83482 16.8358 5.92289 19.9239C9.76143 23.7624 15.8729 23.7624 19.7115 19.9239C23.5177 16.1176 23.55 9.97382 19.7115 6.13528C16.6234 3.04721 11.9069 2.48166 8.21165 4.48137C7.42024 4.91083 6.43565 4.61566 6.00727 3.82821C5.58212 3.0368 5.87484 2.0512 6.66259 1.62526C11.5916 -1.04376 17.8443 -0.328118 22.0096 3.83718C27.1192 8.94686 27.0869 17.1446 22.0096 22.222C16.9322 27.2993 8.73447 27.3316 3.62479 22.222C-0.54051 18.0567 -1.25436 11.8022 1.41287 6.87498C1.83881 6.08724 2.82441 5.79451 3.61581 6.21966Z" fill="#19191D"/>
<path d="M9.84211 9.84211C9.84211 11.4091 11.1173 12.6842 12.6842 12.6842C14.2512 12.6842 15.5263 11.4091 15.5263 9.84211C15.5263 8.27516 14.2512 7 12.6842 7C11.1173 7 9.84211 8.27516 9.84211 9.84211ZM17.7368 19H18.3684V18.3684C18.3684 15.9312 16.3846 13.9474 13.9474 13.9474H11.4211C8.98316 13.9474 7 15.9312 7 18.3684V19H17.7368Z" fill="#19191D"/>
</g>
<defs>
<clipPath id="clip0_8583_47021">
<rect width="26" height="26" fill="white"/>
</clipPath>
</defs>
</svg>
