<svg width="68" height="68" viewBox="0 0 68 68" fill="none" xmlns="http://www.w3.org/2000/svg">
<path d="M57.3332 27.3323C56.4491 27.3323 55.6013 27.6835 54.9761 28.3087C54.351 28.9338 53.9998 29.7816 53.9998 30.6657V41.9657L49.0665 37.0323C48.2083 36.1686 47.1878 35.4832 46.0637 35.0154C44.9396 34.5477 43.7341 34.3069 42.5165 34.3069C41.2989 34.3069 40.0934 34.5477 38.9693 35.0154C37.8452 35.4832 36.8247 36.1686 35.9665 37.0323L33.6332 39.3657L25.3665 31.0657C23.6246 29.3375 21.2703 28.3678 18.8165 28.3678C16.3628 28.3678 14.0084 29.3375 12.2665 31.0657L7.33317 35.999V17.3323C7.33317 16.4483 7.68436 15.6004 8.30948 14.9753C8.9346 14.3502 9.78245 13.999 10.6665 13.999H37.3332C38.2172 13.999 39.0651 13.6478 39.6902 13.0227C40.3153 12.3976 40.6665 11.5497 40.6665 10.6657C40.6665 9.78163 40.3153 8.93378 39.6902 8.30866C39.0651 7.68354 38.2172 7.33235 37.3332 7.33235H10.6665C8.01434 7.33235 5.4708 8.38592 3.59544 10.2613C1.72007 12.1366 0.666504 14.6802 0.666504 17.3323V57.3324C0.666504 59.9845 1.72007 62.5281 3.59544 64.4034C5.4708 66.2788 8.01434 67.3324 10.6665 67.3324H50.6665C53.3187 67.3324 55.8622 66.2788 57.7376 64.4034C59.6129 62.5281 60.6665 59.9845 60.6665 57.3324V30.6657C60.6665 29.7816 60.3153 28.9338 59.6902 28.3087C59.0651 27.6835 58.2172 27.3323 57.3332 27.3323ZM10.6665 60.6657C9.78245 60.6657 8.9346 60.3145 8.30948 59.6894C7.68436 59.0643 7.33317 58.2164 7.33317 57.3324V45.4324L16.9998 35.7657C17.4895 35.299 18.1401 35.0387 18.8165 35.0387C19.493 35.0387 20.1435 35.299 20.6332 35.7657L31.1998 46.3323L45.4998 60.6657H10.6665ZM53.9998 57.3324C53.995 57.9704 53.7846 58.59 53.3998 59.099L38.3665 43.999L40.6998 41.6657C41.187 41.1812 41.8461 40.9093 42.5332 40.9093C43.2202 40.9093 43.8793 41.1812 44.3665 41.6657L53.9998 51.399V57.3324ZM62.0332 10.6657L66.3665 6.36568C66.9873 5.74114 67.3358 4.8963 67.3358 4.01568C67.3358 3.13506 66.9873 2.29022 66.3665 1.66568C66.0566 1.35325 65.688 1.10527 65.2818 0.936044C64.8756 0.766815 64.4399 0.679687 63.9998 0.679688C63.5598 0.679687 63.1241 0.766815 62.7179 0.936044C62.3117 1.10527 61.9431 1.35325 61.6332 1.66568L57.3332 5.96568L53.0332 1.66568C52.7233 1.35325 52.3546 1.10527 51.9484 0.936044C51.5422 0.766815 51.1065 0.679687 50.6665 0.679688C50.2265 0.679687 49.7908 0.766815 49.3846 0.936044C48.9784 1.10527 48.6097 1.35325 48.2998 1.66568C47.679 2.29022 47.3305 3.13506 47.3305 4.01568C47.3305 4.8963 47.679 5.74114 48.2998 6.36568L52.6332 10.6657L48.2998 14.999C47.679 15.6236 47.3305 16.4684 47.3305 17.349C47.3305 18.2296 47.679 19.0745 48.2998 19.699C48.6097 20.0114 48.9784 20.2594 49.3846 20.4287C49.7908 20.5979 50.2265 20.685 50.6665 20.685C51.1065 20.685 51.5422 20.5979 51.9484 20.4287C52.3546 20.2594 52.7233 20.0114 53.0332 19.699L57.3332 15.399L61.6332 19.699C61.9431 20.0114 62.3117 20.2594 62.7179 20.4287C63.1241 20.5979 63.5598 20.685 63.9998 20.685C64.4399 20.685 64.8756 20.5979 65.2818 20.4287C65.688 20.2594 66.0566 20.0114 66.3665 19.699C66.9873 19.0745 67.3358 18.2296 67.3358 17.349C67.3358 16.4684 66.9873 15.6236 66.3665 14.999L62.0332 10.6657Z" fill="url(#paint0_linear_8565_47364)"/>
<defs>
<linearGradient id="paint0_linear_8565_47364" x1="0.666504" y1="36.9221" x2="67.3358" y2="36.9221" gradientUnits="userSpaceOnUse">
<stop stop-color="#EC008C"/>
<stop offset="1" stop-color="#2B328C"/>
</linearGradient>
</defs>
</svg>
