<svg width="18" height="18" viewBox="0 0 18 18" fill="none" xmlns="http://www.w3.org/2000/svg">
<path fill-rule="evenodd" clip-rule="evenodd" d="M0.963448 1.61073C0.584868 2.01284 0.587036 2.66274 0.968291 3.06232L6.60591 8.97089L1.00809 14.9167C0.629504 15.3188 0.631673 15.9687 1.01293 16.3683L2.16347 17.5741C2.54472 17.9737 3.16069 17.9716 3.53927 17.5695L9.1371 11.6237L14.7748 17.5323C15.156 17.9319 15.772 17.9299 16.1506 17.5277L17.293 16.3143C17.6716 15.9121 17.6695 15.2622 17.2882 14.8627L11.6505 8.95406L17.2489 3.0077C17.6275 2.60559 17.6253 1.95569 17.2441 1.55611L16.0935 0.350273C15.7123 -0.0493047 15.0963 -0.0472498 14.7177 0.354864L9.11934 6.30122L3.48172 0.392658C3.10047 -0.00691999 2.4845 -0.0048641 2.10592 0.397249L0.963448 1.61073Z" fill="#DA0A16"/>
</svg>
