<svg width="17" height="17" viewBox="0 0 17 17" fill="none" xmlns="http://www.w3.org/2000/svg">
<path fill-rule="evenodd" clip-rule="evenodd" d="M4.24264 4.24271C3.85212 4.63324 3.85212 5.2664 4.24264 5.65692L7.07107 8.48535L4.24264 11.3138C3.85212 11.7043 3.85212 12.3375 4.24264 12.728C4.63316 13.1185 5.26633 13.1185 5.65685 12.728L8.48528 9.89957L11.3137 12.728C11.7042 13.1185 12.3374 13.1185 12.7279 12.728C13.1184 12.3375 13.1184 11.7043 12.7279 11.3138L9.89949 8.48535L12.7279 5.65692C13.1184 5.2664 13.1184 4.63323 12.7279 4.24271C12.3374 3.85219 11.7042 3.85219 11.3137 4.24271L8.48528 7.07114L5.65685 4.24271C5.26633 3.85219 4.63316 3.85219 4.24264 4.24271Z" fill="#DA0A16"/>
</svg>
