<svg width="18" height="20" viewBox="0 0 18 20" fill="none" xmlns="http://www.w3.org/2000/svg">
<path fill-rule="evenodd" clip-rule="evenodd" d="M1.18864 2.368C0.798116 2.75852 0.780702 3.40819 1.14975 3.81908L6.60679 9.89482L0.83236 15.6692C0.441836 16.0598 0.424423 16.7094 0.793466 17.1203L1.90715 18.3603C2.2762 18.7712 2.89195 18.7877 3.28247 18.3971L9.0569 12.6227L14.514 18.6985C14.883 19.1094 15.4988 19.1259 15.8893 18.7354L17.0678 17.5568C17.4583 17.1663 17.4758 16.5167 17.1067 16.1058L11.6496 10.03L17.4246 4.255C17.8151 3.86448 17.8325 3.2148 17.4635 2.80392L16.3498 1.56397C15.9808 1.15309 15.365 1.13658 14.9745 1.52711L9.19951 7.30209L3.74247 1.22635C3.37343 0.81547 2.75767 0.798966 2.36715 1.18949L1.18864 2.368Z" fill="#DA0A16"/>
</svg>
