<svg width="22" height="22" viewBox="0 0 22 22" fill="none" xmlns="http://www.w3.org/2000/svg">
<path d="M19.0879 0.599609C15.6559 0.599609 11.0543 2.95321 7.96308 6.99961H5.39988C3.54868 6.99961 2.48788 8.38201 1.75668 9.84281L0.775879 11.7996H5.39988L7.79988 14.1996L10.1999 16.5996V21.222L12.1567 20.2428C13.6175 19.5132 14.9999 18.4508 14.9999 16.5996V14.0364C19.0463 10.9452 21.3999 6.34201 21.3999 2.91161V0.599609H19.0879ZM14.9999 5.39961C15.4242 5.39961 15.8312 5.56818 16.1312 5.86824C16.4313 6.1683 16.5999 6.57526 16.5999 6.99961C16.5999 7.42396 16.4313 7.83092 16.1312 8.13098C15.8312 8.43104 15.4242 8.59961 14.9999 8.59961C14.5755 8.59961 14.1686 8.43104 13.8685 8.13098C13.5684 7.83092 13.3999 7.42396 13.3999 6.99961C13.3999 6.57526 13.5684 6.1683 13.8685 5.86824C14.1686 5.56818 14.5755 5.39961 14.9999 5.39961ZM4.59988 14.9996L3.79988 15.7996C2.64468 16.9548 2.19988 19.7996 2.19988 19.7996C2.19988 19.7996 4.91668 19.4828 6.19988 18.1996L6.99988 17.3996L4.59988 14.9996Z" fill="white"/>
</svg>