<svg width="25" height="26" viewBox="0 0 25 26" fill="none" xmlns="http://www.w3.org/2000/svg">
<path fill-rule="evenodd" clip-rule="evenodd" d="M23.8835 23.4247L17.9756 17.2426C19.4945 15.4257 20.326 13.1397 20.326 10.76C20.326 5.19987 15.8295 0.67627 10.3027 0.67627C4.77588 0.67627 0.279297 5.19987 0.279297 10.76C0.279297 16.3201 4.77588 20.8438 10.3027 20.8438C12.3777 20.8438 14.3543 20.2142 16.0465 19.019L21.9999 25.2481C22.2479 25.5081 22.5834 25.6516 22.9408 25.6516C23.2818 25.6516 23.6027 25.5213 23.8471 25.2846C24.3668 24.7817 24.3832 23.9478 23.8835 23.4247ZM10.3027 3.30684C14.389 3.30684 17.7113 6.65024 17.7113 10.76C17.7113 14.8699 14.389 18.2132 10.3027 18.2132C6.21819 18.2132 2.89408 14.8699 2.89408 10.76C2.89408 6.65024 6.21819 3.30684 10.3027 3.30684Z" fill="#4E5861"/>
</svg>
