<svg width="25" height="25" viewBox="0 0 25 25" fill="none" xmlns="http://www.w3.org/2000/svg">
<path fill-rule="evenodd" clip-rule="evenodd" d="M23.8835 22.7484L17.9756 16.5663C19.4945 14.7494 20.326 12.4634 20.326 10.0837C20.326 4.5236 15.8295 0 10.3026 0C4.77585 0 0.279297 4.5236 0.279297 10.0837C0.279297 15.6438 4.77585 20.1675 10.3026 20.1675C12.3777 20.1675 14.3561 19.538 16.0464 18.3427L21.9999 24.5718C22.2479 24.832 22.5834 24.9753 22.9408 24.9753C23.2818 24.9753 23.6027 24.845 23.8471 24.6084C24.3667 24.1053 24.3831 23.2715 23.8835 22.7484ZM10.3026 2.63057C14.389 2.63057 17.7112 5.97397 17.7112 10.0837C17.7112 14.1936 14.389 17.537 10.3026 17.537C6.21819 17.537 2.89408 14.1936 2.89408 10.0837C2.89408 5.97397 6.21819 2.63057 10.3026 2.63057Z" fill="white"/>
</svg>
