<svg width="40" height="40" viewBox="0 0 40 40" fill="none" xmlns="http://www.w3.org/2000/svg">
<g clip-path="url(#clip0)">
<rect width="40" height="40" fill="url(#paint0_radial)"/>
<path d="M9.37402 28.5206V38.4375L31.0116 9.5874L9.37402 28.5206Z" fill="url(#paint1_linear)"/>
<path d="M0.646768 19.0298C-0.173701 19.44 -0.224248 20.5942 0.556377 21.0759L8.63833 26.05L38.0602 0.123281L38.1528 0L0.646768 19.0298Z" fill="url(#paint2_linear)"/>
<path d="M39.7843 1.72936L17.5039 31.505L31.0251 39.826C31.712 40.251 32.6377 39.862 32.7909 39.0444L40 1.54053L39.7843 1.72936Z" fill="url(#paint3_linear)"/>
</g>
<defs>
<radialGradient id="paint0_radial" cx="0" cy="0" r="1" gradientUnits="userSpaceOnUse" gradientTransform="translate(40 8.5) rotate(122.412) scale(37.3129)">
<stop stop-color="white"/>
<stop offset="1" stop-color="white" stop-opacity="0"/>
</radialGradient>
<linearGradient id="paint1_linear" x1="20.1928" y1="9.5874" x2="20.1928" y2="38.4375" gradientUnits="userSpaceOnUse">
<stop stop-color="#2B328C"/>
<stop offset="1" stop-color="#EC008C"/>
</linearGradient>
<linearGradient id="paint2_linear" x1="19.0764" y1="0" x2="19.0764" y2="26.05" gradientUnits="userSpaceOnUse">
<stop stop-color="#2B328C"/>
<stop offset="1" stop-color="#EC008C"/>
</linearGradient>
<linearGradient id="paint3_linear" x1="28.752" y1="1.54053" x2="28.752" y2="40" gradientUnits="userSpaceOnUse">
<stop stop-color="#2B328C"/>
<stop offset="1" stop-color="#EC008C"/>
</linearGradient>
<clipPath id="clip0">
<rect width="40" height="40" fill="white"/>
</clipPath>
</defs>
</svg>
