<svg width="24" height="24" viewBox="0 0 24 24" fill="none" xmlns="http://www.w3.org/2000/svg">
<path d="M23.4598 9.95498L20.6817 9.26045C20.5273 8.79743 20.2958 8.25724 20.0643 7.79421L21.5305 5.40193C21.6849 5.09325 21.6849 4.78457 21.4534 4.55305L19.4469 2.54662C19.2154 2.31511 18.9068 2.31511 18.5981 2.46945L16.2058 3.93569C15.7428 3.70418 15.2797 3.47267 14.7396 3.31833L14.045 0.540193C13.9678 0.231511 13.6592 0 13.3505 0H10.5723C10.2637 0 9.95498 0.231511 9.87781 0.540193L9.18328 3.31833C8.72026 3.47267 8.18006 3.70418 7.71704 3.93569L5.32476 2.46945C5.01608 2.31511 4.7074 2.31511 4.47588 2.54662L2.46945 4.55305C2.23794 4.78457 2.23794 5.09325 2.39228 5.40193L3.85852 7.79421C3.62701 8.25724 3.3955 8.72026 3.24116 9.26045L0.540193 9.95498C0.231511 10.0322 0 10.3408 0 10.6495V13.4277C0 13.7363 0.231511 14.045 0.540193 14.1222L3.24116 14.8167C3.3955 15.2797 3.62701 15.8199 3.85852 16.283L2.39228 18.6752C2.23794 18.9839 2.23794 19.2926 2.46945 19.5241L4.47588 21.5305C4.7074 21.7621 5.01608 21.7621 5.32476 21.6077L7.71704 20.1415C8.18006 20.373 8.64309 20.6045 9.18328 20.7588L9.87781 23.4598C9.95498 23.7685 10.2637 24 10.5723 24H13.3505C13.6592 24 13.9678 23.7685 14.045 23.4598L14.7396 20.7588C15.2026 20.6045 15.7428 20.373 16.2058 20.1415L18.5981 21.6077C18.9068 21.7621 19.2154 21.7621 19.4469 21.5305L21.4534 19.5241C21.6849 19.2926 21.6849 18.9839 21.5305 18.6752L20.0643 16.283C20.2958 15.8199 20.5273 15.3569 20.6817 14.8167L23.4598 14.1222C23.7685 14.045 24 13.7363 24 13.4277V10.6495C24 10.2637 23.7685 10.0322 23.4598 9.95498ZM11.9614 15.5113C10.0322 15.5113 8.48875 13.9678 8.48875 12.0386C8.48875 10.1093 10.0322 8.56592 11.9614 8.56592C13.8907 8.56592 15.4341 10.1093 15.4341 12.0386C15.4341 13.9678 13.8907 15.5113 11.9614 15.5113Z" fill="white"/>
</svg>
