<svg width="151" height="23" viewBox="0 0 151 23" fill="none" xmlns="http://www.w3.org/2000/svg">
<path d="M25.3683 18.1342L21.2263 22.6862C21.1367 22.7851 21.0283 22.864 20.9076 22.918C20.787 22.972 20.6567 23 20.5251 23.0001H0.890425C0.796779 23 0.705179 22.972 0.626841 22.9194C0.548506 22.8668 0.486834 22.7919 0.449377 22.704C0.411919 22.616 0.400302 22.5187 0.415949 22.4241C0.431596 22.3295 0.473824 22.2415 0.537468 22.1711L4.67477 17.6191C4.76437 17.5202 4.87285 17.4413 4.99351 17.3873C5.11415 17.3333 5.24437 17.3053 5.37601 17.3052H25.0107C25.1051 17.3032 25.1981 17.3299 25.2779 17.3819C25.3576 17.434 25.4207 17.509 25.4588 17.5976C25.4971 17.6862 25.5088 17.7845 25.4927 17.8799C25.4765 17.9754 25.4333 18.0639 25.3683 18.1342ZM21.2263 8.9653C21.1364 8.86688 21.0278 8.7883 20.9073 8.73432C20.7867 8.68036 20.6566 8.65217 20.5251 8.65147H0.890425C0.796779 8.65152 0.705179 8.67955 0.626841 8.73216C0.548506 8.78475 0.486834 8.85962 0.449377 8.9476C0.411919 9.03557 0.400302 9.13282 0.415949 9.22745C0.431596 9.32209 0.473824 9.41002 0.537468 9.48043L4.67477 14.0349C4.7647 14.1333 4.87327 14.2119 4.99384 14.2659C5.1144 14.3198 5.24446 14.348 5.37601 14.3487H25.0107C25.1042 14.3482 25.1953 14.3198 25.2734 14.2671C25.3515 14.2143 25.4127 14.1394 25.4499 14.0515C25.4871 13.9637 25.4985 13.8666 25.4826 13.7722C25.467 13.6777 25.4249 13.59 25.3613 13.5198L21.2263 8.9653ZM0.890425 5.69499H20.5251C20.6567 5.69487 20.787 5.66691 20.9076 5.61291C21.0283 5.55893 21.1367 5.48001 21.2263 5.38113L25.3683 0.829063C25.4333 0.75875 25.4765 0.670294 25.4927 0.574822C25.5088 0.479351 25.4971 0.381129 25.4588 0.292516C25.4207 0.203904 25.3576 0.128861 25.2779 0.0768304C25.1981 0.0247991 25.1051 -0.0018958 25.0107 0.000104746H5.37601C5.24437 0.000246781 5.11415 0.0281882 4.99351 0.082187C4.87285 0.136185 4.76437 0.215083 4.67477 0.313959L0.537468 4.86603C0.473824 4.93644 0.431596 5.02437 0.415949 5.11901C0.400302 5.21364 0.411919 5.31089 0.449377 5.39886C0.486834 5.48684 0.548506 5.56171 0.626841 5.6143C0.705179 5.66691 0.796779 5.69494 0.890425 5.69499Z" fill="url(#paint0_linear_0_1)"/>
<path d="M49.3062 9.72746H38.8016V6.18163H52.0363V2.63579H38.7665C38.3131 2.63328 37.8638 2.72231 37.444 2.8978C37.0242 3.07332 36.642 3.33186 36.3199 3.65867C35.9976 3.98549 35.7412 4.37419 35.5654 4.80254C35.3896 5.23091 35.2977 5.69058 35.2954 6.15527V9.74902C35.2973 10.2141 35.3884 10.6743 35.564 11.1032C35.7395 11.5321 35.9957 11.9214 36.318 12.2487C36.6406 12.5761 37.0228 12.835 37.4428 13.0108C37.8629 13.1866 38.3128 13.2758 38.7665 13.2733H49.2851V16.8191H35.5455V20.365H49.3062C49.7596 20.3675 50.2089 20.2784 50.6287 20.103C51.0485 19.9274 51.4307 19.6689 51.7528 19.3421C52.0751 19.0153 52.3315 18.6266 52.5073 18.1982C52.6831 17.7698 52.7749 17.3102 52.7773 16.8455V13.2517C52.7754 12.7866 52.6843 12.3265 52.5087 11.8975C52.3332 11.4686 52.077 11.0794 51.7546 10.752C51.4321 10.4247 51.0499 10.1658 50.6299 9.98995C50.2098 9.81414 49.7599 9.72495 49.3062 9.72746Z" fill="white"/>
<path d="M69.6561 2.63586H59.1118C58.6577 2.63207 58.2072 2.72017 57.7863 2.89511C57.3655 3.07006 56.9824 3.32837 56.6591 3.65533C56.3356 3.98227 56.0785 4.37138 55.9023 4.80037C55.7258 5.22937 55.6337 5.68983 55.6313 6.15534V16.8455C55.6337 17.3111 55.7258 17.7715 55.9023 18.2005C56.0785 18.6295 56.3356 19.0186 56.6591 19.3456C56.9824 19.6725 57.3655 19.9308 57.7863 20.1058C58.2072 20.2807 58.6577 20.3688 59.1118 20.365H69.6561C70.1096 20.3675 70.5588 20.2785 70.9786 20.103C71.3985 19.9275 71.7806 19.669 72.1027 19.3421C72.4251 19.0153 72.6815 18.6266 72.8573 18.1983C73.033 17.7699 73.1249 17.3102 73.1272 16.8455V6.15534C73.1249 5.69064 73.033 5.23098 72.8573 4.8026C72.6815 4.37425 72.4251 3.98555 72.1027 3.65874C71.7806 3.33192 71.3985 3.07339 70.9786 2.89787C70.5588 2.72237 70.1096 2.63334 69.6561 2.63586ZM69.6304 16.8192H59.1375V6.18169H69.6257L69.6304 16.8192Z" fill="white"/>
<path d="M106.588 2.636H96.3032C95.8497 2.63349 95.4004 2.72252 94.9806 2.89801C94.5608 3.07353 94.1786 3.33207 93.8565 3.65888C93.5342 3.9857 93.2778 4.3744 93.102 4.80275C92.9262 5.23112 92.8344 5.69079 92.832 6.15548V20.3652H96.3382V14.5409H106.576V20.3652H110.082V6.15548C110.08 5.68875 109.988 5.22712 109.81 4.79717C109.633 4.36723 109.375 3.97748 109.05 3.65033C108.725 3.3232 108.34 3.06517 107.918 2.89109C107.495 2.71701 107.043 2.63033 106.588 2.636ZM106.562 10.9951H96.3242V6.18184H106.562V10.9951Z" fill="white"/>
<path d="M147.529 2.63579H137.244C136.791 2.63328 136.341 2.72231 135.922 2.8978C135.502 3.07332 135.12 3.33186 134.797 3.65867C134.475 3.98549 134.219 4.37419 134.043 4.80254C133.867 5.23091 133.775 5.69058 133.773 6.15527V20.365H137.279V14.5407H147.494V20.365H151V6.15527C150.998 5.69058 150.906 5.23091 150.73 4.80254C150.554 4.37419 150.298 3.98549 149.976 3.65867C149.653 3.33186 149.271 3.07332 148.851 2.8978C148.432 2.72231 147.982 2.63328 147.529 2.63579ZM147.494 10.9949H137.256V6.18163H147.494V10.9949Z" fill="white"/>
<path d="M127.158 16.8191H125.756L120.742 4.12119C120.57 3.68311 120.274 3.30766 119.893 3.04302C119.511 2.77835 119.061 2.63654 118.601 2.63577H115.489C115.187 2.63419 114.887 2.69368 114.607 2.81081C114.327 2.92797 114.073 3.10047 113.858 3.31849C113.643 3.53653 113.472 3.79579 113.355 4.08151C113.238 4.36722 113.177 4.67379 113.175 4.98369V20.3649H116.681V6.18161H118.084L123.095 18.8795C123.27 19.3168 123.568 19.6907 123.951 19.9535C124.334 20.2164 124.785 20.3563 125.246 20.3554H128.357C128.66 20.3569 128.959 20.2975 129.239 20.1803C129.519 20.0632 129.774 19.8907 129.989 19.6726C130.203 19.4546 130.374 19.1953 130.491 18.9096C130.609 18.6239 130.67 18.3174 130.671 18.0074V2.63577H127.158V16.8191Z" fill="white"/>
<path d="M79.7308 2.63574H76.2246V16.8454C76.2269 17.3112 76.3193 17.7718 76.4958 18.2009C76.6722 18.6301 76.9296 19.0193 77.2531 19.3463C77.5766 19.6733 77.9602 19.9316 78.3811 20.1064C78.8024 20.2812 79.253 20.369 79.7074 20.3649H90.226V16.8191H79.7308V2.63574Z" fill="white"/>
<defs>
<linearGradient id="paint0_linear_0_1" x1="2.52665" y1="23.5488" x2="23.685" y2="0.276338" gradientUnits="userSpaceOnUse">
<stop offset="0.08" stop-color="#9945FF"/>
<stop offset="0.3" stop-color="#8752F3"/>
<stop offset="0.5" stop-color="#5497D5"/>
<stop offset="0.6" stop-color="#43B4CA"/>
<stop offset="0.72" stop-color="#28E0B9"/>
<stop offset="0.97" stop-color="#19FB9B"/>
</linearGradient>
</defs>
</svg>
