<svg width="52" height="52" viewBox="0 0 52 52" fill="none" xmlns="http://www.w3.org/2000/svg">
<path d="M25.5 18.25C20.9277 18.25 17.25 21.9277 17.25 26.5C17.25 31.0723 20.9277 34.75 25.5 34.75C30.0723 34.75 33.75 31.0723 33.75 26.5C33.75 21.9277 30.0723 18.25 25.5 18.25ZM25.5 10C16.3554 10 9 17.3554 9 26.5C9 35.6446 16.3554 43 25.5 43C34.6446 43 42 35.6446 42 26.5C42 17.3554 34.6446 10 25.5 10ZM25.5 39.6205C18.244 39.6205 12.2801 33.756 12.2801 26.4006C12.2801 19.0452 18.1446 13.1807 25.5 13.1807C32.756 13.1807 38.7199 19.0452 38.7199 26.4006C38.7199 33.756 32.756 39.6205 25.5 39.6205Z" fill="white"/>
<path d="M45.5461 8.51897L8.63237 45.5448C8.02723 46.1517 7.059 46.1517 6.45386 45.5448C5.84871 44.9378 5.84871 43.9666 6.45386 43.3596L43.3676 6.45524C43.9728 5.84825 44.941 5.84825 45.5461 6.45524C46.1513 7.06222 46.1513 8.03338 45.5461 8.51897Z" fill="white" stroke="#36363D" stroke-miterlimit="10"/>
</svg>
