<svg width="52" height="52" viewBox="0 0 52 52" fill="none" xmlns="http://www.w3.org/2000/svg">
<path fill-rule="evenodd" clip-rule="evenodd" d="M25.5974 18.1702C21.0445 18.1702 17.3474 21.8662 17.3474 26.4202C17.3474 30.9742 21.0445 34.6701 25.5974 34.6701C30.1521 34.6701 33.8474 30.9742 33.8474 26.4201C33.8474 21.8662 30.1521 18.1702 25.5974 18.1702ZM25.5974 9.92017C16.4825 9.92017 9.09741 17.3039 9.09741 26.4201C9.09741 35.5364 16.4825 42.9202 25.5974 42.9202C34.7141 42.9202 42.0974 35.5364 42.0974 26.4201C42.0974 17.3039 34.7141 9.92017 25.5974 9.92017ZM25.5974 39.6202C18.3048 39.6202 12.3974 33.7133 12.3974 26.4201C12.3974 19.1271 18.3048 13.22 25.5974 13.22C32.89 13.22 38.7974 19.1271 38.7974 26.4201C38.7974 33.7131 32.89 39.6202 25.5974 39.6202Z" fill="white"/>
</svg>
