<svg width="52" height="52" viewBox="0 0 52 52" fill="none" xmlns="http://www.w3.org/2000/svg">
<path d="M27.4314 20.9426C24.4613 21.3788 21.8374 22.433 19.7145 24.5415C17.8833 26.3592 15.7878 30.567 15.9427 32.1484C18.8217 28.295 22.8213 27.0226 27.4678 27.0408C27.4678 28.4495 27.4678 29.8036 27.4678 31.2577C30.0917 28.813 32.6336 26.441 35.2211 24.0235C32.6245 21.6151 30.0826 19.2431 27.4314 16.7802C27.4314 18.2706 27.4314 19.6066 27.4314 20.9426Z" fill="#4E5861"/>
<path d="M48.5594 38.1011H48.523H45.1155H43.0747C42.7923 38.1011 42.6921 37.7285 42.938 37.5831C44.1771 36.8561 44.8695 35.7473 44.8786 34.3477C44.906 27.9678 44.9242 21.5969 44.906 15.2169C44.906 12.8904 43.0109 11.0091 40.6786 11C30.5018 11 20.3342 11 10.1574 11C7.81596 11 6.13958 12.6086 6.13047 14.9352C6.10313 21.3424 6.12136 27.7496 6.12136 34.1568C6.12136 35.6746 6.78644 36.8288 8.0984 37.5922C8.0984 37.5922 8.10751 37.5922 8.10751 37.6013C8.3535 37.7467 8.26239 38.1193 7.97085 38.1193H5.87536H2.88703H2.43149C1.36552 38.1193 0.5 38.9918 0.5 40.0551C0.5 41.1184 1.36552 41.9909 2.4406 41.9909H2.89614C17.9836 41.9909 33.0802 41.9909 48.1676 41.9909C48.2861 41.9909 48.4045 41.9909 48.5139 42C48.5412 42 48.5685 42 48.5958 41.9909C49.6527 41.9727 50.5 41.1184 50.5 40.0642V40.046C50.4909 38.9736 49.6254 38.1011 48.5594 38.1011ZM41.0157 33.9205C41.0157 34.0751 40.8881 34.1932 40.7423 34.1932H10.3123C10.1574 34.1932 10.039 34.066 10.039 33.9205V15.1897C10.039 15.0352 10.1665 14.917 10.3123 14.917H40.7423C40.8972 14.917 41.0157 15.0443 41.0157 15.1897V33.9205Z" fill="#4E5861"/>
</svg>
