<svg width="42" height="42" viewBox="0 0 42 42" fill="none" xmlns="http://www.w3.org/2000/svg">
<path d="M21 3C12.1769 3 5 10.1769 5 19C5 24.9164 8.23556 30.0791 13.0231 32.8489L9.34844 35.2987C9.0311 35.5103 8.79023 35.8183 8.6614 36.1773C8.53258 36.5363 8.52263 36.9273 8.63304 37.2924C8.74344 37.6575 8.96834 37.9774 9.27452 38.2048C9.58069 38.4323 9.95191 38.5553 10.3333 38.5556H31.6667C32.0482 38.5556 32.4197 38.433 32.7262 38.2056C33.0327 37.9783 33.2579 37.6584 33.3685 37.2932C33.4791 36.928 33.4693 36.5369 33.3405 36.1778C33.2117 35.8186 32.9708 35.5104 32.6533 35.2987L28.9787 32.8489C33.7644 30.0791 37 24.9164 37 19C37 10.1769 29.8231 3 21 3ZM21 31.4444C14.1396 31.4444 8.55556 25.8604 8.55556 19C8.55556 12.1396 14.1396 6.55556 21 6.55556C27.8604 6.55556 33.4444 12.1396 33.4444 19C33.4444 25.8604 27.8604 31.4444 21 31.4444Z" fill="#4E5861"/>
<path d="M21.0002 10.1111C16.0989 10.1111 12.1113 14.0986 12.1113 19C12.1113 23.9013 16.0989 27.8889 21.0002 27.8889C25.9015 27.8889 29.8891 23.9013 29.8891 19C29.8891 14.0986 25.9015 10.1111 21.0002 10.1111ZM18.3335 19C17.9832 18.9999 17.6364 18.9307 17.3128 18.7966C16.9892 18.6624 16.6952 18.4658 16.4476 18.218C15.9475 17.7176 15.6666 17.039 15.6669 16.3315C15.667 15.9812 15.7361 15.6344 15.8703 15.3108C16.0044 14.9872 16.201 14.6932 16.4488 14.4455C16.9493 13.9454 17.6278 13.6646 18.3353 13.6649C19.0428 13.6651 19.7212 13.9464 20.2213 14.4468C20.7214 14.9472 21.0022 15.6258 21.002 16.3333C21.0018 17.0408 20.7205 17.7192 20.2201 18.2193C19.7196 18.7194 19.041 19.0002 18.3335 19Z" fill="#4E5861"/>
<path d="M40.5461 3.51897L3.63237 40.5448C3.02723 41.1517 2.059 41.1517 1.45386 40.5448C0.848714 39.9378 0.848714 38.9666 1.45386 38.3596L38.3676 1.45524C38.9728 0.848255 39.941 0.848255 40.5461 1.45524C41.1513 2.06222 41.1513 3.03338 40.5461 3.51897Z" fill="#4E5861" stroke="white" stroke-miterlimit="10"/>
</svg>
