<svg width="37" height="38" viewBox="0 0 37 38" fill="none" xmlns="http://www.w3.org/2000/svg">
<g clip-path="url(#clip0_8832_52822)">
<path d="M35.375 22.75V32.125C35.375 33.1196 34.9799 34.0734 34.2766 34.7766C33.5734 35.4799 32.6196 35.875 31.625 35.875H5.375C4.38044 35.875 3.42661 35.4799 2.72335 34.7766C2.02009 34.0734 1.625 33.1196 1.625 32.125V5.875C1.625 4.88043 2.02009 3.92661 2.72335 3.22335C3.42661 2.52008 4.38044 2.125 5.375 2.125H14.75" stroke="white" stroke-width="3" stroke-linecap="round" stroke-linejoin="round"/>
<path d="M30.8828 6.5C30.8828 6.5 24.492 12.904 19.0002 18.3958M19.0002 18.3958C22.6614 18.3958 24.7141 18.3958 28.3752 18.3958M19.0002 18.3958C19.0002 14.7346 19.0002 12.6819 19.0002 9.02075" stroke="white" stroke-width="3" stroke-linecap="round" stroke-linejoin="round"/>
<circle cx="33.5" cy="3.5" r="1.5" fill="white"/>
</g>
<defs>
<clipPath id="clip0_8832_52822">
<rect width="37" height="38" fill="white"/>
</clipPath>
</defs>
</svg>
