<svg width="52" height="52" viewBox="0 0 52 52" fill="none" xmlns="http://www.w3.org/2000/svg">
<path d="M36.112 15.7373H36.0591C35.0466 15.7373 34.2304 16.6309 34.2304 17.7564V25.8883C34.2304 26.191 33.9892 26.4367 33.6915 26.4367C33.3941 26.4367 33.1526 26.191 33.1526 25.8883V13.623C33.1526 12.4975 32.3205 11.5819 31.3079 11.5819C30.2897 11.5819 29.4573 12.4975 29.4573 13.623V26.06C29.4573 26.3629 29.2161 26.6084 28.9184 26.6084C28.6209 26.6084 28.3795 26.3629 28.3795 26.06V11.0659C28.3795 9.9407 27.5645 9 26.5516 9H26.496C25.4835 9 24.6841 9.94009 24.6841 11.065V26.4636C24.6841 26.7663 24.443 27.012 24.1452 27.012C23.8478 27.012 23.6063 26.7663 23.6063 26.4636V12.1104C23.5294 11.024 22.7484 10.1537 21.7611 10.1537C20.7485 10.1537 19.9143 11.0684 19.9134 12.193L19.911 22.2017V22.2057L19.9023 28.5917C19.9011 28.737 19.843 28.8757 19.7411 28.9773C19.6392 29.0789 19.502 29.1352 19.3592 29.1336C19.2169 29.1352 19.0798 29.0789 18.9788 28.977C18.8774 28.8754 18.8203 28.7364 18.8203 28.5917L18.8239 23.4744L15.7556 26.4128C15.0017 27.1323 14.7521 28.2453 15.125 29.2264L19.0654 39.6687C20.1245 41.7166 22.1129 43 24.2607 43H31.9749C35.264 43 37.9426 40.053 37.9462 36.4463V36.2085C37.9525 29.4048 37.9591 22.3801 37.9486 17.7616C37.9462 16.6395 37.1222 15.7373 36.112 15.7373V15.7373Z" fill="white"/>
<path d="M45.5002 8.51897L8.58648 45.5448C7.98133 46.1517 7.0131 46.1517 6.40796 45.5448C5.80282 44.9378 5.80282 43.9666 6.40796 43.3596L43.3217 6.45524C43.9269 5.84825 44.8951 5.84825 45.5002 6.45524C46.1054 7.06222 46.1054 8.03338 45.5002 8.51897Z" fill="white" stroke="#36363D" stroke-miterlimit="10"/>
</svg>
