<svg width="32" height="36" viewBox="0 0 32 36" fill="none" xmlns="http://www.w3.org/2000/svg">
<path d="M16 0.222168C7.17689 0.222168 0 7.39906 0 16.2222C0 22.1386 3.23556 27.3013 8.02311 30.0711L4.34844 32.5208C4.0311 32.7324 3.79023 33.0405 3.6614 33.3995C3.53258 33.7585 3.52263 34.1494 3.63304 34.5145C3.74344 34.8796 3.96834 35.1995 4.27452 35.427C4.58069 35.6545 4.95191 35.7774 5.33333 35.7777H26.6667C27.0482 35.7778 27.4197 35.6551 27.7262 35.4278C28.0327 35.2005 28.2579 34.8806 28.3685 34.5154C28.4791 34.1502 28.4693 33.7591 28.3405 33.3999C28.2117 33.0407 27.9708 32.7325 27.6533 32.5208L23.9787 30.0711C28.7644 27.3013 32 22.1386 32 16.2222C32 7.39906 24.8231 0.222168 16 0.222168ZM16 28.6666C9.13956 28.6666 3.55556 23.0826 3.55556 16.2222C3.55556 9.36172 9.13956 3.77772 16 3.77772C22.8604 3.77772 28.4444 9.36172 28.4444 16.2222C28.4444 23.0826 22.8604 28.6666 16 28.6666Z" fill="white"/>
<path d="M16.0002 7.33325C11.0989 7.33325 7.11133 11.3208 7.11133 16.2221C7.11133 21.1235 11.0989 25.111 16.0002 25.111C20.9015 25.111 24.8891 21.1235 24.8891 16.2221C24.8891 11.3208 20.9015 7.33325 16.0002 7.33325ZM13.3335 16.2221C12.9832 16.222 12.6364 16.1529 12.3128 16.0187C11.9892 15.8846 11.6952 15.688 11.4476 15.4402C10.9475 14.9398 10.6666 14.2612 10.6669 13.5537C10.667 13.2034 10.7361 12.8565 10.8703 12.5329C11.0044 12.2093 11.201 11.9153 11.4488 11.6677C11.9493 11.1676 12.6278 10.8868 13.3353 10.887C14.0428 10.8873 14.7212 11.1685 15.2213 11.669C15.7214 12.1694 16.0022 12.848 16.002 13.5555C16.0018 14.263 15.7205 14.9414 15.2201 15.4415C14.7196 15.9416 14.041 16.2224 13.3335 16.2221Z" fill="white"/>
</svg>
