<svg width="52" height="52" viewBox="0 0 52 52" fill="none" xmlns="http://www.w3.org/2000/svg">
<path d="M27.7566 20.9426C24.7865 21.3788 22.1625 22.433 20.0397 24.5415C18.2085 26.3592 16.113 30.567 16.2679 32.1484C19.1469 28.295 23.1465 27.0226 27.793 27.0408C27.793 28.4495 27.793 29.8036 27.793 31.2577C30.4169 28.813 32.9588 26.441 35.5463 24.0235C32.9497 21.6151 30.4078 19.2431 27.7566 16.7802C27.7566 18.2706 27.7566 19.6066 27.7566 20.9426Z" fill="#4E5861"/>
<path d="M48.8846 38.1011H48.8482H45.4407H43.3999C43.1175 38.1011 43.0173 37.7285 43.2632 37.5831C44.5023 36.8561 45.1947 35.7473 45.2038 34.3477C45.2312 27.9678 45.2494 21.5969 45.2312 15.2169C45.2312 12.8904 43.3361 11.0091 41.0038 11C30.827 11 20.6594 11 10.4826 11C8.14116 11 6.46477 12.6086 6.45566 14.9352C6.42833 21.3424 6.44655 27.7496 6.44655 34.1568C6.44655 35.6746 7.11164 36.8288 8.42359 37.5922C8.42359 37.5922 8.4327 37.5922 8.4327 37.6013C8.67869 37.7467 8.58759 38.1193 8.29604 38.1193H6.20056H3.21222H2.75668C1.69072 38.1193 0.825195 38.9918 0.825195 40.0551C0.825195 41.1184 1.69072 41.9909 2.76579 41.9909H3.22133C18.3088 41.9909 33.4054 41.9909 48.4928 41.9909C48.6113 41.9909 48.7297 41.9909 48.839 42C48.8664 42 48.8937 42 48.921 41.9909C49.9779 41.9727 50.8252 41.1184 50.8252 40.0642V40.046C50.8161 38.9736 49.9506 38.1011 48.8846 38.1011ZM41.3409 33.9205C41.3409 34.0751 41.2133 34.1932 41.0675 34.1932H10.6375C10.4826 34.1932 10.3642 34.066 10.3642 33.9205V15.1897C10.3642 15.0352 10.4917 14.917 10.6375 14.917H41.0675C41.2224 14.917 41.3409 15.0443 41.3409 15.1897V33.9205Z" fill="#4E5861"/>
<path d="M45.3713 8.51897L8.45757 45.5448C7.85243 46.1517 6.8842 46.1517 6.27905 45.5448C5.67391 44.9378 5.67391 43.9666 6.27905 43.3596L43.1928 6.45524C43.798 5.84825 44.7662 5.84825 45.3713 6.45524C45.9765 7.06222 45.9765 8.03338 45.3713 8.51897Z" fill="#4E5861" stroke="white" stroke-miterlimit="10"/>
</svg>
