<svg width="42" height="42" viewBox="0 0 42 42" fill="none" xmlns="http://www.w3.org/2000/svg">
<g clip-path="url(#clip0_8832_52827)">
<path d="M38.375 24.75V34.125C38.375 35.1196 37.9799 36.0734 37.2766 36.7766C36.5734 37.4799 35.6196 37.875 34.625 37.875H8.375C7.38044 37.875 6.42661 37.4799 5.72335 36.7766C5.02009 36.0734 4.625 35.1196 4.625 34.125V7.875C4.625 6.88043 5.02009 5.92661 5.72335 5.22335C6.42661 4.52008 7.38044 4.125 8.375 4.125H17.75" stroke="white" stroke-width="3" stroke-linecap="round" stroke-linejoin="round"/>
<path d="M33.8828 8.5C33.8828 8.5 27.492 14.904 22.0002 20.3958M22.0002 20.3958C25.6614 20.3958 27.7141 20.3958 31.3752 20.3958M22.0002 20.3958C22.0002 16.7346 22.0002 14.6819 22.0002 11.0208" stroke="white" stroke-width="3" stroke-linecap="round" stroke-linejoin="round"/>
<circle cx="36.5" cy="5.5" r="1.5" fill="white"/>
<path d="M41.5461 4.51897L4.63237 41.5448C4.02723 42.1517 3.059 42.1517 2.45386 41.5448C1.84871 40.9378 1.84871 39.9666 2.45386 39.3596L39.3676 2.45524C39.9728 1.84825 40.941 1.84825 41.5461 2.45524C42.1513 3.06222 42.1513 4.03338 41.5461 4.51897Z" fill="white" stroke="#36363D" stroke-miterlimit="10"/>
</g>
<defs>
<clipPath id="clip0_8832_52827">
<rect width="42" height="42" fill="white"/>
</clipPath>
</defs>
</svg>
