<svg width="52" height="52" viewBox="0 0 52 52" fill="none" xmlns="http://www.w3.org/2000/svg">
<path d="M25.7051 32.6391C27.4715 32.6391 28.9435 32.0355 30.2192 30.7278C31.495 29.4201 32.0837 27.9112 32.0837 26.1006V15.5385C32.0837 13.7278 31.495 12.2189 30.2192 10.9112C28.9435 9.60355 27.4715 9 25.7051 9C23.9387 9 22.4667 9.60355 21.1909 10.9112C19.9152 12.2189 19.3264 13.7278 19.3264 15.5385V26C19.3264 27.8106 19.9152 29.3195 21.1909 30.6272C22.3685 31.9349 23.9387 32.6391 25.7051 32.6391Z" fill="#4E5861"/>
<path d="M36.794 22.4793C36.4996 22.1775 36.2052 22.0769 35.9108 22.0769C35.5183 22.0769 35.2239 22.1775 35.0276 22.4793C34.7332 22.781 34.6351 23.0828 34.6351 23.3846V26C34.6351 28.5148 33.7519 30.7278 31.9855 32.5384C30.2191 34.3491 28.1583 35.2544 25.705 35.2544C23.2516 35.2544 21.0927 34.3491 19.3263 32.5384C17.5599 30.7278 16.6767 28.6154 16.6767 26V23.3846C16.6767 22.9822 16.5786 22.6805 16.2842 22.4793C15.9898 22.1775 15.6954 22.0769 15.401 22.0769C15.1066 22.0769 14.714 22.1775 14.5178 22.4793C14.2234 22.781 14.1252 23.0828 14.1252 23.3846V26C14.1252 29.0177 15.1066 31.6331 17.0692 33.8461C19.0319 36.0592 21.4852 37.3668 24.3311 37.6686V40.3846H19.2282C18.8356 40.3846 18.5412 40.4852 18.345 40.787C18.0506 41.0887 17.9524 41.3905 17.9524 41.6923C17.9524 42.0947 18.0506 42.3964 18.345 42.5976C18.6394 42.8994 18.9338 43 19.2282 43H31.9855C32.378 43 32.6724 42.8994 32.8687 42.5976C33.1631 42.2958 33.2612 41.9941 33.2612 41.6923C33.2612 41.2899 33.1631 40.9881 32.8687 40.787C32.5743 40.4852 32.2799 40.3846 31.9855 40.3846H26.8826V37.6686C29.7284 37.3668 32.1818 36.0592 34.1444 33.8461C36.1071 31.6331 37.0884 29.0177 37.0884 26V23.3846C37.1866 23.0828 37.0884 22.781 36.794 22.4793Z" fill="#4E5861"/>
</svg>
