<svg width="52" height="52" viewBox="0 0 52 52" fill="none" xmlns="http://www.w3.org/2000/svg">
<path d="M35.1579 15.7373H35.105C34.0925 15.7373 33.2763 16.6309 33.2763 17.7564V25.8883C33.2763 26.191 33.0351 26.4367 32.7374 26.4367C32.44 26.4367 32.1985 26.191 32.1985 25.8883V13.623C32.1985 12.4975 31.3664 11.5819 30.3538 11.5819C29.3356 11.5819 28.5032 12.4975 28.5032 13.623V26.06C28.5032 26.3629 28.262 26.6084 27.9643 26.6084C27.6668 26.6084 27.4254 26.3629 27.4254 26.06V11.0659C27.4254 9.9407 26.6104 9 25.5975 9H25.5419C24.5294 9 23.73 9.94009 23.73 11.065V26.4636C23.73 26.7663 23.4889 27.012 23.1911 27.012C22.8937 27.012 22.6522 26.7663 22.6522 26.4636V12.1104C22.5752 11.024 21.7943 10.1537 20.807 10.1537C19.7944 10.1537 18.9602 11.0684 18.9593 12.193L18.9569 22.2017V22.2057L18.9482 28.5917C18.947 28.737 18.8889 28.8757 18.787 28.9773C18.6851 29.0789 18.5479 29.1352 18.4051 29.1336C18.2628 29.1352 18.1257 29.0789 18.0247 28.977C17.9233 28.8754 17.8662 28.7364 17.8662 28.5917L17.8698 23.4744L14.8015 26.4128C14.0476 27.1323 13.798 28.2453 14.1709 29.2264L18.1113 39.6687C19.1704 41.7166 21.1588 43 23.3066 43H31.0208C34.3099 43 36.9885 40.053 36.9921 36.4463V36.2085C36.9984 29.4048 37.005 22.3801 36.9945 17.7616C36.9921 16.6395 36.1681 15.7373 35.1579 15.7373V15.7373Z" fill="#4E5861"/>
</svg>
