<svg width="52" height="52" viewBox="0 0 52 52" fill="none" xmlns="http://www.w3.org/2000/svg">
<path d="M25.6571 39.0694C27.0684 39.0694 28.2377 37.9715 28.2377 36.604C28.2377 35.2558 27.0684 34.1387 25.6571 34.1387C24.2256 34.1387 23.0764 35.2558 23.0764 36.604C23.0764 37.9715 24.2256 39.0694 25.6571 39.0694ZM27.4514 39.6857H27.1087C26.6651 39.8976 26.1813 39.9939 25.6571 39.9939C25.1329 39.9939 24.6288 39.8976 24.1853 39.6857H23.8425C22.3506 39.6857 21.1409 40.8606 21.1409 42.2859V43.0756C21.1409 43.5956 21.5643 44.0001 22.1086 44.0001H29.2055C29.7297 44.0001 30.1733 43.5956 30.1733 43.0756V42.2859C30.1733 40.8606 28.9434 39.6857 27.4514 39.6857Z" fill="#4E5861"/>
<path d="M10.5162 14.0869C11.9275 14.0869 13.0969 12.9891 13.0969 11.6216C13.0969 10.2734 11.9275 9.15625 10.5162 9.15625C9.08472 9.15625 7.93551 10.2734 7.93551 11.6216C7.93551 12.9891 9.08472 14.0869 10.5162 14.0869ZM12.3106 14.7033H11.9678C11.5243 14.9151 11.0404 15.0114 10.5162 15.0114C9.99199 15.0114 9.48795 14.9151 9.0444 14.7033H8.70165C7.20969 14.7033 6 15.8782 6 17.3035V18.0931C6 18.6132 6.42339 19.0176 6.96776 19.0176H14.0646C14.5888 19.0176 15.0324 18.6132 15.0324 18.0931V17.3035C15.0324 15.8782 13.8025 14.7033 12.3106 14.7033Z" fill="#4E5861"/>
<path d="M41.4837 14.0869C42.895 14.0869 44.0644 12.9891 44.0644 11.6216C44.0644 10.2734 42.895 9.15625 41.4837 9.15625C40.0522 9.15625 38.903 10.2734 38.903 11.6216C38.903 12.9891 40.0522 14.0869 41.4837 14.0869ZM43.2781 14.7033H42.9354C42.4918 14.9151 42.0079 15.0114 41.4837 15.0114C40.9595 15.0114 40.4555 14.9151 40.0119 14.7033H39.6692C38.1772 14.7033 36.9675 15.8782 36.9675 17.3035V18.0931C36.9675 18.6132 37.3909 19.0176 37.9353 19.0176H45.0322C45.5564 19.0176 45.9999 18.6132 45.9999 18.0931V17.3035C45.9999 15.8782 44.7701 14.7033 43.2781 14.7033Z" fill="#4E5861"/>
<path fill-rule="evenodd" clip-rule="evenodd" d="M8.25755 31.4926C6.84702 27.3349 7.1717 23.184 7.91106 20.613L8.90645 20.8743C8.2121 23.2888 7.90021 27.2407 9.23954 31.1885C10.5721 35.1164 13.5423 39.055 19.4522 41.493L19.043 42.3983C12.841 39.8398 9.67486 35.6702 8.25755 31.4926Z" fill="#4E5861"/>
<path fill-rule="evenodd" clip-rule="evenodd" d="M36.2986 12.5804C27.8996 6.085 18.5606 9.85636 14.9202 12.585L14.283 11.8092C18.0978 8.94975 28.005 4.89775 36.9481 11.8139L36.2986 12.5804Z" fill="#4E5861"/>
<path fill-rule="evenodd" clip-rule="evenodd" d="M42.1137 31.3522C43.4834 27.4401 43.2725 23.4677 42.6603 21.0223L43.6643 20.793C44.3139 23.3879 44.533 27.551 43.0927 31.665C41.6456 35.798 38.5234 39.8753 32.52 42.2368L32.127 41.325C37.8226 39.0845 40.7507 35.2453 42.1137 31.3522Z" fill="#4E5861"/>
<path d="M24.1765 28.7817C24.4117 29.0064 24.8116 29.0064 25.0468 28.7817L31.9622 22.1753C32.1974 21.9506 32.1974 21.5686 31.9622 21.3439L31.1154 20.535C30.8802 20.3103 30.5039 20.3103 30.2687 20.535L24.6234 25.9279L21.9654 23.4112C21.7302 23.1865 21.3539 23.1865 21.1187 23.4112L20.2719 24.2202C20.0367 24.4449 20.0367 24.8269 20.2719 25.0516L24.1765 28.7817Z" fill="#4E5861"/>
<path d="M45.5461 8.51897L8.63237 45.5448C8.02723 46.1517 7.059 46.1517 6.45386 45.5448C5.84871 44.9378 5.84871 43.9666 6.45386 43.3596L43.3676 6.45524C43.9728 5.84825 44.941 5.84825 45.5461 6.45524C46.1513 7.06222 46.1513 8.03338 45.5461 8.51897Z" fill="#4E5861" stroke="white" stroke-miterlimit="10"/>
</svg>
