<svg width="52" height="52" viewBox="0 0 52 52" fill="none" xmlns="http://www.w3.org/2000/svg">
<path d="M26.5337 32.6391C28.3001 32.6391 29.7721 32.0355 31.0478 30.7278C32.3236 29.4201 32.9124 27.9112 32.9124 26.1006V15.5385C32.9124 13.7278 32.3236 12.2189 31.0478 10.9112C29.7721 9.60355 28.3001 9 26.5337 9C24.7673 9 23.2953 9.60355 22.0196 10.9112C20.7438 12.2189 20.155 13.7278 20.155 15.5385V26C20.155 27.8107 20.7438 29.3195 22.0196 30.6272C23.1972 31.9349 24.7673 32.6391 26.5337 32.6391Z" fill="#4E5861"/>
<path d="M37.6229 22.4793C37.3285 22.1775 37.0341 22.0769 36.7397 22.0769C36.3472 22.0769 36.0528 22.1775 35.8565 22.4793C35.5621 22.781 35.464 23.0828 35.464 23.3846V26C35.464 28.5148 34.5808 30.7278 32.8144 32.5384C31.048 34.3491 28.9872 35.2544 26.5338 35.2544C24.0805 35.2544 21.9216 34.3491 20.1552 32.5384C18.3888 30.7278 17.5056 28.6154 17.5056 26V23.3846C17.5056 22.9822 17.4074 22.6805 17.113 22.4793C16.8186 22.1775 16.5242 22.0769 16.2298 22.0769C15.9354 22.0769 15.5429 22.1775 15.3466 22.4793C15.0522 22.781 14.9541 23.0828 14.9541 23.3846V26C14.9541 29.0177 15.9354 31.6331 17.8981 33.8461C19.8608 36.0592 22.3141 37.3668 25.16 37.6686V40.3846H20.057C19.6645 40.3846 19.3701 40.4852 19.1738 40.787C18.8794 41.0887 18.7813 41.3905 18.7813 41.6923C18.7813 42.0947 18.8794 42.3964 19.1738 42.5976C19.4682 42.8994 19.7626 43 20.057 43H32.8144C33.2069 43 33.5013 42.8994 33.6976 42.5976C33.992 42.2958 34.0901 41.9941 34.0901 41.6923C34.0901 41.2899 33.992 40.9881 33.6976 40.787C33.4032 40.4852 33.1088 40.3846 32.8144 40.3846H27.7114V37.6686C30.5573 37.3668 33.0106 36.0592 34.9733 33.8461C36.936 31.6331 37.9173 29.0177 37.9173 26V23.3846C38.0154 23.0828 37.9173 22.781 37.6229 22.4793Z" fill="#4E5861"/>
<path d="M45.5002 8.51897L8.58648 45.5448C7.98133 46.1517 7.0131 46.1517 6.40796 45.5448C5.80282 44.9378 5.80282 43.9666 6.40796 43.3596L43.3217 6.45524C43.9269 5.84825 44.8951 5.84825 45.5002 6.45524C46.1054 7.06222 46.1054 8.03338 45.5002 8.51897Z" fill="#4E5861" stroke="white" stroke-miterlimit="10"/>
</svg>
