<svg width="21" height="21" viewBox="0 0 21 21" fill="none" xmlns="http://www.w3.org/2000/svg">
<path d="M0 13.3984H3.62069V20.6398H0V13.3984Z" fill="#3E4154"/>
<path d="M6.13085 14.7507C5.94628 14.8118 5.75322 14.8431 5.55875 14.8433H4.34473V19.5502H4.88783C5.03651 19.5502 5.18466 19.5684 5.32875 19.6045L7.88003 20.2421C7.96577 20.2635 8.05399 20.2743 8.14238 20.2743H11.1972C11.3879 20.2745 11.5751 20.2246 11.7403 20.1295L19.5589 15.6159C19.8941 15.4218 20.1007 15.0641 20.102 14.6768C20.1022 14.2885 19.8953 13.9298 19.5592 13.7355C19.223 13.5414 18.8089 13.5412 18.4727 13.7353L14.2083 15.9092C14.413 16.5403 14.256 17.233 13.7994 17.7142C13.3425 18.1954 12.6591 18.3883 12.018 18.2167L8.95828 17.4839C8.86458 17.4618 8.78361 17.4032 8.73322 17.3212C8.68284 17.2393 8.6671 17.1407 8.68955 17.0472C8.73623 16.8538 8.93034 16.7343 9.12411 16.7797L12.1937 17.515C12.5091 17.6016 12.8468 17.5418 13.1134 17.3525C13.38 17.163 13.5474 16.8638 13.5695 16.5375C13.5911 16.0082 13.2377 15.5367 12.7238 15.4089L8.29124 14.2194C8.08581 14.1644 7.86889 14.171 7.66699 14.2383L6.13085 14.7507Z" fill="#3E4154"/>
<path d="M13.3636 6.68359C12.6084 6.68359 11.8703 6.90751 11.2424 7.32704C10.6145 7.74657 10.1251 8.34286 9.8361 9.04051C9.5471 9.73817 9.47146 10.5059 9.61874 11.2465C9.76603 11.9871 10.1296 12.6675 10.6636 13.2015C11.1975 13.7355 11.8778 14.0992 12.6184 14.2465C13.359 14.3939 14.1267 14.3184 14.8244 14.0294C15.5221 13.7405 16.1185 13.2512 16.5381 12.6234C16.9577 11.9955 17.1817 11.2574 17.1818 10.5022C17.1819 10.0008 17.0832 9.50422 16.8913 9.04091C16.6995 8.5776 16.4183 8.15662 16.0637 7.80201C15.7091 7.4474 15.2882 7.16612 14.8249 6.97422C14.3616 6.78232 13.8651 6.68356 13.3636 6.68359ZM14.1583 12.2715C13.9658 12.3908 13.8073 12.4605 13.5435 12.4807V12.9012H13.1563V12.4861C12.8206 12.4486 12.64 12.3754 12.475 12.2664C12.1837 12.0707 12.0407 11.7369 12.0459 11.2651H12.7356C12.7593 11.4799 12.7924 11.6238 12.835 11.6969C12.9008 11.8099 13.0368 11.8882 13.2204 11.918C13.3134 11.9315 13.3771 11.918 13.4819 11.9103C13.5867 11.9026 13.7046 11.8638 13.7641 11.8194C13.8704 11.741 13.9234 11.6057 13.9233 11.4134C13.9233 11.2669 13.8736 11.1511 13.7743 11.0659C13.7064 11.0148 13.6316 10.9736 13.5521 10.9436L13.2118 10.823L13.0201 10.7663C12.6946 10.6708 12.4652 10.538 12.3316 10.3677C12.198 10.1974 12.1312 9.9922 12.131 9.75218C12.129 9.60464 12.1555 9.4581 12.2089 9.32055C12.2581 9.19527 12.3325 9.08138 12.4274 8.98585C12.539 8.87074 12.6773 8.78486 12.8299 8.73575C12.9348 8.69899 13.0444 8.67747 13.1553 8.67183V8.33294H13.5435V8.67764C13.8196 8.70088 13.967 8.76806 14.1246 8.88195C14.4109 9.06433 14.5592 9.35983 14.5695 9.76845H13.8977C13.8842 9.6169 13.859 9.50619 13.822 9.4363C13.7581 9.31575 13.6423 9.24935 13.4745 9.23711L13.2253 9.24222C13.0775 9.24594 12.9678 9.28553 12.8964 9.36099C12.825 9.43646 12.7892 9.53989 12.789 9.67129C12.7866 9.73671 12.8 9.80174 12.828 9.86089C12.856 9.92005 12.8979 9.97157 12.9501 10.0111C13.0084 10.0562 13.0978 10.098 13.2186 10.1364L13.226 10.1387L13.4738 10.2103H13.4766C13.8785 10.3498 14.1488 10.4729 14.2875 10.5796C14.5162 10.7586 14.6307 11.0106 14.6308 11.3357C14.6308 11.7654 14.4733 12.0774 14.1583 12.2715Z" fill="#3E4154"/>
<path d="M18.1366 5.30978e-09C17.5702 9.50742e-09 17.0166 0.16794 16.5457 0.482585C16.0748 0.79723 15.7077 1.24445 15.491 1.76769C15.2742 2.29093 15.2175 2.86669 15.3279 3.42218C15.4384 3.97766 15.7111 4.48791 16.1116 4.88841C16.512 5.28891 17.0222 5.56167 17.5777 5.67221C18.1332 5.78274 18.7089 5.72608 19.2322 5.50939C19.7555 5.2927 20.2027 4.92572 20.5174 4.45484C20.8321 3.98396 21.0002 3.43034 21.0002 2.86398C21.0003 2.48789 20.9263 2.11547 20.7824 1.76798C20.6385 1.4205 20.4276 1.10477 20.1617 0.838812C19.8957 0.572857 19.58 0.361893 19.2326 0.217968C18.8851 0.074043 18.5127 -2.28972e-05 18.1366 5.30978e-09ZM18.7326 4.19095C18.5883 4.28037 18.4694 4.33267 18.2715 4.34784V4.66319H17.9811V4.35185C17.7294 4.32378 17.5939 4.26887 17.4701 4.18711C17.2517 4.04033 17.1444 3.79 17.1483 3.43612H17.6656C17.6833 3.5972 17.7082 3.70516 17.7402 3.76001C17.7895 3.84474 17.8915 3.90348 18.0292 3.9258C18.0989 3.93591 18.1467 3.9258 18.2253 3.92004C18.3039 3.91429 18.3923 3.88518 18.4369 3.85188C18.5167 3.79308 18.5565 3.69156 18.5564 3.54734C18.5564 3.43751 18.5191 3.35064 18.4446 3.28672C18.3937 3.24839 18.3376 3.21752 18.278 3.19503L18.0228 3.10455L17.8789 3.06202C17.6349 2.99043 17.4628 2.89077 17.3626 2.76305C17.2624 2.63533 17.2123 2.48146 17.2121 2.30144C17.2107 2.19078 17.2305 2.08088 17.2705 1.97772C17.3075 1.88376 17.3633 1.79834 17.4344 1.72669C17.5182 1.64036 17.6218 1.57595 17.7363 1.53911C17.815 1.51155 17.8972 1.49541 17.9804 1.49118V1.23701H18.2715V1.49553C18.4786 1.51297 18.5891 1.56335 18.7073 1.64877C18.9221 1.78555 19.0333 2.00718 19.041 2.31364H18.5372C18.5271 2.19998 18.5081 2.11694 18.4804 2.06453C18.4325 1.97411 18.3456 1.92431 18.2197 1.91513L18.0329 1.91897C17.922 1.92176 17.8398 1.95145 17.7862 2.00805C17.7326 2.06465 17.7058 2.14222 17.7057 2.24077C17.7038 2.28983 17.7139 2.33861 17.7349 2.38298C17.7559 2.42734 17.7873 2.46598 17.8265 2.49564C17.8702 2.52945 17.9373 2.56078 18.0278 2.5896L18.0334 2.59134L18.2192 2.64503H18.2213C18.5228 2.74963 18.7255 2.84196 18.8295 2.92203C19.0011 3.05626 19.0869 3.24529 19.087 3.48911C19.087 3.81138 18.9689 4.04533 18.7326 4.19095Z" fill="#3E4154"/>
</svg>
