<svg width="68" height="68" viewBox="0 0 68 68" fill="none" xmlns="http://www.w3.org/2000/svg">
<path d="M33.9999 0C15.2223 0 0 15.2223 0 33.9999C0 52.7776 15.2223 67.9999 33.9999 67.9999C52.7776 67.9999 67.9999 52.7776 67.9999 33.9999C67.9799 15.2307 52.7693 0.0200642 33.9999 0ZM33.9999 63.1428C17.9048 63.1428 4.85709 50.0951 4.85709 33.9999C4.85709 17.9048 17.9048 4.85709 33.9999 4.85709C50.0951 4.85709 63.1428 17.9048 63.1428 33.9999C63.1254 50.088 50.088 63.1254 33.9999 63.1428Z" fill="white" fill-opacity="0.3"/>
<path d="M33.9999 7.28516C32.6586 7.28516 31.5713 8.37246 31.5713 9.71377V33.9995C31.5713 35.3408 32.6586 36.4282 33.9999 36.4282C35.3412 36.4282 36.4285 35.3407 36.4285 33.9994V9.71377C36.4285 8.37246 35.3412 7.28516 33.9999 7.28516Z" fill="white" fill-opacity="0.3"/>
<path d="M58.2869 31.5713H55.8583C54.517 31.5713 53.4297 32.6586 53.4297 33.9999C53.4297 35.3412 54.5171 36.4284 55.8583 36.4284H58.2869C59.6282 36.4284 60.7155 35.3411 60.7155 33.9998C60.7155 32.6585 59.6282 31.5713 58.2869 31.5713Z" fill="white" fill-opacity="0.3"/>
<path d="M33.9999 53.4287C32.6586 53.4287 31.5713 54.516 31.5713 55.8573V58.2858C31.5713 59.6271 32.6586 60.7144 33.9999 60.7144C35.3412 60.7144 36.4285 59.6271 36.4285 58.2858V55.8572C36.4285 54.516 35.3412 53.4287 33.9999 53.4287Z" fill="white" fill-opacity="0.3"/>
<path d="M12.1432 31.5713H9.71475C8.37344 31.5713 7.28613 32.6586 7.28613 33.9999C7.28613 35.3412 8.37344 36.4284 9.71475 36.4284H12.1434C13.4847 36.4284 14.572 35.3411 14.572 33.9998C14.572 32.6585 13.4845 31.5713 12.1432 31.5713Z" fill="white" fill-opacity="0.3"/>
</svg>
