<svg width="88" height="88" viewBox="0 0 88 88" fill="none" xmlns="http://www.w3.org/2000/svg">
<g clip-path="url(#clip0)">
<path d="M87.3566 42.2316C86.5671 41.2936 67.7904 19.25 44.0011 19.25C20.2112 19.25 1.43456 41.2936 0.645004 42.2316C-0.213699 43.2541 -0.213699 44.7452 0.645004 45.7678C1.43456 46.7057 20.2106 68.7493 44.0005 68.7493C67.7904 68.7493 86.5671 46.7057 87.3566 45.7678C88.216 44.7452 88.2167 43.2534 87.3566 42.2316ZM44.0005 63.2493C26.4974 63.2493 11.3342 49.0649 6.47734 43.9993C11.3342 38.9344 26.4974 24.75 44.0005 24.75C61.5042 24.75 76.6675 38.9344 81.5236 43.9993C76.6675 49.0649 61.5042 63.2493 44.0005 63.2493Z" fill="white" fill-opacity="0.3"/>
<path d="M63.2493 43.9993C63.2493 33.3686 54.6307 24.75 44 24.75C33.3686 24.75 24.75 33.3686 24.75 43.9993C24.75 54.6307 33.3686 63.2493 44 63.2493C54.626 63.2372 63.2372 54.626 63.2493 43.9993ZM43.9993 57.7493C36.4059 57.7493 30.25 51.5934 30.25 43.9993C30.25 36.4059 36.4059 30.25 43.9993 30.25C51.5934 30.25 57.7493 36.4059 57.7493 43.9993C57.7406 51.5894 51.5894 57.7399 43.9993 57.7493Z" fill="white" fill-opacity="0.3"/>
</g>
<defs>
<clipPath id="clip0">
<rect width="88" height="88" fill="white"/>
</clipPath>
</defs>
</svg>
