<svg width="24" height="24" viewBox="0 0 24 24" fill="none" xmlns="http://www.w3.org/2000/svg">
<g clip-path="url(#clip0)">
<path d="M5.59217 21.9888C5.64832 23.1185 6.57396 24.0009 7.70719 24.0009H16.2929C17.4262 24.0009 18.3519 23.1186 18.4079 21.9888L19.6446 7.76562H4.35547L5.59217 21.9888ZM14.1177 11.295H15.5295V19.0597H14.1177V11.295ZM11.2942 11.295H12.706V19.0597H11.2942V11.295ZM8.47067 11.295H9.88243V19.0597H8.47067V11.295Z" fill="#EC008C"/>
<path d="M15.5291 3.52941V2.11765C15.5291 0.950024 14.5792 0 13.4115 0H10.5879C9.42033 0 8.4703 0.950024 8.4703 2.11765V3.52941H2.82324V6.35294H21.1762V3.52941H15.5291ZM9.88207 3.52941V2.11765C9.88207 1.72842 10.1988 1.41176 10.5879 1.41176H13.4115C13.8007 1.41176 14.1174 1.72842 14.1174 2.11765V3.52941H9.88207Z" fill="#EC008C"/>
</g>
<defs>
<clipPath id="clip0">
<rect width="24" height="24" fill="white"/>
</clipPath>
</defs>
</svg>
