<svg width="27" height="22" viewBox="0 0 27 22" fill="none" xmlns="http://www.w3.org/2000/svg">
<path d="M8.97971 21.4668C18.8141 21.4668 24.1922 13.3257 24.1922 6.26613C24.1922 6.0349 24.1875 5.80471 24.1771 5.57556C25.221 4.82146 26.1284 3.88039 26.8441 2.80911C25.8861 3.2346 24.8552 3.52103 23.7737 3.65019C24.8776 2.98878 25.725 1.94252 26.1248 0.695253C25.0918 1.30718 23.9478 1.75194 22.7297 1.99206C21.7541 0.953636 20.3651 0.304138 18.827 0.304138C15.8744 0.304138 13.4801 2.69669 13.4801 5.64586C13.4801 6.06509 13.527 6.47288 13.6187 6.86403C9.17505 6.6406 5.23473 4.51472 2.59764 1.28218C2.13847 2.0717 1.8737 2.98881 1.8737 3.96738C1.8737 5.82088 2.81762 7.45716 4.25299 8.41441C3.3758 8.38733 2.55177 8.14672 1.83155 7.74623C1.83076 7.76865 1.83076 7.7905 1.83076 7.81446C1.83076 10.4018 3.67373 12.562 6.12018 13.0515C5.67091 13.1739 5.19822 13.2395 4.71034 13.2395C4.36636 13.2395 4.03122 13.2057 3.70547 13.1432C4.38615 15.2659 6.35996 16.8106 8.70007 16.8538C6.87013 18.287 4.56492 19.1406 2.05953 19.1406C1.6285 19.1406 1.20268 19.1161 0.78418 19.0666C3.15044 20.5821 5.96015 21.4664 8.98 21.4664" fill="#1DA1F2"/>
</svg>
