<svg width="18" height="18" viewBox="0 0 18 18" fill="none" xmlns="http://www.w3.org/2000/svg">
<path d="M8.575 17.15C8.12005 17.1478 7.68424 16.9666 7.36173 16.6457C7.03923 16.3248 6.85592 15.8899 6.85142 15.435H10.2814C10.2835 15.6642 10.2401 15.8915 10.1537 16.1038C10.0427 16.3583 9.8729 16.5827 9.65821 16.7586C9.44353 16.9345 9.19012 17.0569 8.91886 17.1157H8.87941C8.77921 17.1365 8.67731 17.1479 8.575 17.15V17.15ZM15.435 14.5775H1.715V12.8625L3.43 12.005V7.28875C3.38482 6.07892 3.65804 4.87843 4.22233 3.8073C4.50002 3.31618 4.87869 2.88953 5.33335 2.55548C5.78801 2.22143 6.30834 1.98757 6.86 1.86935V0H10.29V1.86935C12.5015 2.39585 13.72 4.32008 13.72 7.28875V12.005L15.435 12.8625V14.5775ZM17.1243 6.86H15.4093C15.3698 5.76475 15.0888 4.69177 14.5862 3.71782C14.0837 2.74387 13.3721 1.89305 12.5024 1.22622L13.72 0C14.7456 0.797885 15.5744 1.82056 16.1424 2.98924C16.7298 4.1992 17.0639 5.51636 17.1243 6.86ZM1.715 6.86H0C0.060025 5.5163 0.39445 4.19918 0.981838 2.98924C1.5499 1.82056 2.37866 0.797885 3.40427 0L4.62192 1.22622C3.75209 1.89296 3.04042 2.74377 2.53787 3.71774C2.03532 4.6917 1.75433 5.76473 1.715 6.86V6.86Z" fill="white"/>
</svg>
