<svg width="22" height="22" viewBox="0 0 22 22" fill="none" xmlns="http://www.w3.org/2000/svg">
<path d="M16.3296 5.73513L11.5171 0.235125C11.3865 0.086625 11.1981 0 11.0001 0C10.8021 0 10.6137 0.086625 10.4831 0.235125L5.67058 5.73513C5.49321 5.93862 5.44921 6.226 5.56196 6.47212C5.67333 6.71687 5.91808 6.875 6.18758 6.875H8.93758V15.8125C8.93758 16.192 9.24558 16.5 9.62508 16.5H12.3751C12.7546 16.5 13.0626 16.192 13.0626 15.8125V6.875H15.8126C16.0821 6.875 16.3268 6.71825 16.4382 6.47212C16.5496 6.226 16.5083 5.93725 16.3296 5.73513Z" fill="#7CB342"/>
<path d="M18.5625 15.125V19.25H3.4375V15.125H0.6875V20.625C0.6875 21.3854 1.3035 22 2.0625 22H19.9375C20.6979 22 21.3125 21.3854 21.3125 20.625V15.125H18.5625Z" fill="#7CB342"/>
</svg>
