<svg width="29" height="27" viewBox="0 0 29 27" fill="none" xmlns="http://www.w3.org/2000/svg">
<path fill-rule="evenodd" clip-rule="evenodd" d="M14.7403 0.601562C18.0298 0.601562 21.064 2.40243 22.6121 5.22999C26.1732 5.67909 28.8938 8.69517 28.8938 12.3087C28.8938 15.5947 26.6382 18.3633 23.5803 19.1977C23.5876 18.3726 23.2868 17.557 22.696 16.9336L17.0908 11.0405C15.8873 9.77229 13.5952 9.77229 12.3899 11.0405L6.78474 16.9347C6.1502 17.6043 5.84932 18.4964 5.90949 19.3839C2.91725 19.0115 0.586914 16.507 0.586914 13.4485C0.586914 10.3498 2.9683 7.79223 6.01709 7.47166C6.93243 3.5069 10.5592 0.601562 14.7403 0.601562ZM13.267 26.5311H16.2155C17.0288 26.5311 17.6888 25.8698 17.6888 25.0578V20.0487H20.3437C20.6975 20.0487 21.0184 19.8389 21.157 19.5136C21.2956 19.1883 21.2281 18.8111 20.9856 18.5554L15.3822 12.6623C15.0485 12.3111 14.4322 12.3111 14.0985 12.6623L8.49694 18.5554C8.25442 18.8123 8.18697 19.1894 8.32554 19.5136C8.46594 19.8377 8.78505 20.0487 9.13879 20.0487H11.7919V25.0578C11.7919 25.8698 12.4538 26.5311 13.267 26.5311Z" fill="white"/>
</svg>
