<svg width="23" height="23" viewBox="0 0 23 23" fill="none" xmlns="http://www.w3.org/2000/svg">
<path d="M23 5.97461V4.17773H21.3887C21.3036 3.84855 21.1724 3.53787 21.0033 3.25212L22.1441 2.11133L20.8735 0.840758L19.7327 1.98155C19.4384 1.80743 19.1175 1.67397 18.7773 1.5892V0H16.9805V1.60461C16.6623 1.68974 16.3617 1.81758 16.0846 1.98155L14.9438 0.840758L13.6732 2.11133L14.814 3.25212C14.6449 3.53787 14.5137 3.84855 14.4286 4.17773H12.8027V5.97456H14.4286C14.5137 6.3038 14.6449 6.61443 14.814 6.90018L13.6732 8.04102L14.9438 9.31159L16.0846 8.1708C16.3617 8.33476 16.6623 8.46261 16.9805 8.54773V10.1523H18.7773V8.56314C19.1175 8.47838 19.4384 8.34491 19.7327 8.1708L20.8735 9.31159L22.1441 8.04102L21.0033 6.90022C21.1724 6.61448 21.3037 6.3038 21.3887 5.97461H23ZM17.9086 6.87305C16.9178 6.87305 16.1118 6.06697 16.1118 5.07617C16.1118 4.69038 16.2344 4.33289 16.4422 4.03978L16.8723 3.60965C17.1654 3.40189 17.5229 3.2793 17.9086 3.2793C18.8994 3.2793 19.7055 4.08537 19.7055 5.07617C19.7055 6.06697 18.8994 6.87305 17.9086 6.87305Z" fill="#EC008C"/>
<path d="M13.5492 13.6205C14.151 13.171 14.664 12.6086 15.0556 11.9645L13.7299 10.6388C13.0867 12.0213 11.685 12.9824 10.0625 12.9824C7.83321 12.9824 6.01953 11.1687 6.01953 8.93945C6.01953 6.71016 7.83321 4.89648 10.0625 4.89648C10.3852 4.89648 10.6991 4.93471 11.0001 5.0065L11.0034 3.1758C10.697 3.12593 10.3828 3.09961 10.0625 3.09961C6.84241 3.09961 4.22266 5.71936 4.22266 8.93945C4.22266 10.8401 5.13551 12.5313 6.54561 13.5984C5.20456 14.0928 3.97487 14.8757 2.93407 15.9165C1.04201 17.8086 0 20.3242 0 23H1.79688C1.79688 18.4671 5.48465 14.7793 10.0176 14.7793C14.5505 14.7793 18.2383 18.4671 18.2383 23H20.0352C20.0352 20.3242 18.9931 17.8086 17.1011 15.9165C16.0757 14.8912 14.867 14.1161 13.5492 13.6205Z" fill="#EC008C"/>
</svg>
