<svg width="13" height="8" viewBox="0 0 13 8" fill="none" xmlns="http://www.w3.org/2000/svg">
<path fill-rule="evenodd" clip-rule="evenodd" d="M6.39656 5.06569L1.89269 0.56867C1.7687 0.4449 1.60277 0.37692 1.42772 0.37692C1.25084 0.37692 1.08491 0.4449 0.96092 0.56867L0.567065 0.96283C0.443075 1.08648 0.373775 1.25165 0.373775 1.42785C0.373775 1.60404 0.443075 1.76908 0.567065 1.89286L5.92976 7.24729C6.05375 7.37144 6.21968 7.43954 6.39656 7.43903C6.57526 7.43954 6.74118 7.37157 6.86517 7.24729L12.2224 1.89775C12.3464 1.77397 12.4157 1.60893 12.4157 1.43274C12.4157 1.25654 12.3464 1.0915 12.2224 0.96772L11.8285 0.57369C11.5714 0.31748 11.1539 0.31748 10.8968 0.57369L6.39656 5.06569Z" fill="white"/>
</svg>
