<svg width="20" height="15" viewBox="0 0 20 15" fill="none" xmlns="http://www.w3.org/2000/svg">
<path d="M7 9.64478C4.66 9.64478 0 10.8148 0 13.1448V14.8948H14V13.1448C14 10.8148 9.34 9.64478 7 9.64478ZM2.34 12.8948C3.18 12.3148 5.21 11.6448 7 11.6448C8.79 11.6448 10.82 12.3148 11.66 12.8948H2.34ZM7 7.89478C8.93 7.89478 10.5 6.32478 10.5 4.39478C10.5 2.46478 8.93 0.894775 7 0.894775C5.07 0.894775 3.5 2.46478 3.5 4.39478C3.5 6.32478 5.07 7.89478 7 7.89478ZM7 2.89478C7.83 2.89478 8.5 3.56478 8.5 4.39478C8.5 5.22478 7.83 5.89478 7 5.89478C6.17 5.89478 5.5 5.22478 5.5 4.39478C5.5 3.56478 6.17 2.89478 7 2.89478ZM14.04 9.70478C15.2 10.5448 16 11.6648 16 13.1448V14.8948H20V13.1448C20 11.1248 16.5 9.97478 14.04 9.70478ZM13 7.89478C14.93 7.89478 16.5 6.32478 16.5 4.39478C16.5 2.46478 14.93 0.894775 13 0.894775C12.46 0.894775 11.96 1.02478 11.5 1.24478C12.13 2.13478 12.5 3.22478 12.5 4.39478C12.5 5.56478 12.13 6.65478 11.5 7.54478C11.96 7.76477 12.46 7.89478 13 7.89478Z" fill="white"/>
</svg>
