<svg width="30" height="30" viewBox="0 0 30 30" fill="none" xmlns="http://www.w3.org/2000/svg">
<path d="M13.2422 12.1914V17.8082L17.7363 14.9998L13.2422 12.1914Z" fill="black" fill-opacity="0.8"/>
<path d="M4.39453 26.4258H25.6055C28.0285 26.4258 30 24.4543 30 22.0312V7.96875C30 5.54572 28.0285 3.57422 25.6055 3.57422H4.39453C1.9715 3.57422 0 5.54572 0 7.96875V22.0312C0 24.4543 1.9715 26.4258 4.39453 26.4258ZM11.4844 10.6055C11.4844 10.2862 11.6578 9.99176 11.9375 9.83643C12.2139 9.68191 12.5581 9.68965 12.8293 9.86045L19.8606 14.255C20.1172 14.4155 20.2734 14.697 20.2734 15C20.2734 15.303 20.1172 15.5845 19.8606 15.745L12.8293 20.1396C12.6868 20.2288 12.5255 20.2734 12.3633 20.2734C12.2165 20.2734 12.0697 20.2365 11.9375 20.1636C11.6578 20.0082 11.4844 19.7138 11.4844 19.3945V10.6055Z" fill="black" fill-opacity="0.8"/>
</svg>
