<svg width="30" height="25" viewBox="0 0 30 25" fill="none" xmlns="http://www.w3.org/2000/svg">
<path d="M13.2422 10.127V14.5463L17.7363 12.3366L13.2422 10.127Z" fill="white"/>
<path d="M4.39453 21.3265H25.6055C28.0285 21.3265 30 19.7753 30 17.8689V6.80434C30 4.89788 28.0285 3.34668 25.6055 3.34668H4.39453C1.9715 3.34668 0 4.89788 0 6.80434V17.8689C0 19.7753 1.9715 21.3265 4.39453 21.3265ZM11.4844 8.87894C11.4844 8.62773 11.6578 8.39606 11.9375 8.27385C12.2139 8.15227 12.5581 8.15836 12.8293 8.29275L19.8606 11.7504C20.1172 11.8767 20.2734 12.0982 20.2734 12.3366C20.2734 12.575 20.1172 12.7965 19.8606 12.9228L12.8293 16.3804C12.6868 16.4507 12.5255 16.4858 12.3633 16.4858C12.2165 16.4858 12.0697 16.4567 11.9375 16.3993C11.6578 16.2771 11.4844 16.0455 11.4844 15.7943V8.87894Z" fill="white"/>
</svg>
