<svg width="31" height="31" viewBox="0 0 31 31" fill="none" xmlns="http://www.w3.org/2000/svg">
<path d="M9.82031 20.6252V12.8291L16.4849 16.7272L9.82031 20.6252Z" fill="#404040"/>
<path d="M17.8984 22.3316L19.2643 20.9999L21.5293 23.2888V17.7607H23.4442V23.2888L25.6612 21.0484L26.9996 22.401L22.4559 26.9996L17.8984 22.3316Z" fill="#404040"/>
<path d="M15.6407 23.6499H5.94241V5.96291H15.6476V9.91647H19.5461V15.7983H21.5022V8.51538L17.034 4C17.034 4 6.86213 4 5.94241 4C5.02268 4 4 4.89475 4 5.89355C4 6.89234 4 22.665 4 23.6499C4 24.6279 4.89913 25.5781 5.80513 25.5781C6.71113 25.5781 15.6476 25.5781 15.6476 25.5781L15.6407 23.6499Z" fill="#404040"/>
</svg>
