<svg width="17" height="17" viewBox="0 0 17 17" fill="none" xmlns="http://www.w3.org/2000/svg">
<path fill-rule="evenodd" clip-rule="evenodd" d="M16.5103 8.77027C16.802 9.0626 16.9698 9.45889 16.9698 9.88428C16.9698 10.498 16.6197 11.0366 16.0964 11.2999C16.2058 11.5172 16.2623 11.7571 16.2623 12.0077C16.2623 12.6219 15.9122 13.1606 15.3889 13.4239C15.5512 13.7466 15.5986 14.1183 15.5165 14.487C15.3597 15.204 14.685 15.7235 13.9155 15.7235H7.42414C6.961 15.7235 6.23162 15.5769 5.65724 15.3052V7.71923L5.74112 7.67608L7.7779 3.26021V0.860151C7.7779 0.752668 7.82712 0.650714 7.911 0.583492L7.91157 0.583048C7.94067 0.560338 8.46348 0.152344 9.19288 0.152344C10.0098 0.152344 11.3135 1.44831 11.3135 2.98344C11.3135 3.95172 10.9671 5.15702 10.7501 5.81453H15.119C16.0708 5.81453 16.8804 6.51957 16.9625 7.41912C17.0081 7.92376 16.8403 8.40858 16.5103 8.77027ZM0.000976562 8.99952C0.000976562 8.02421 0.794176 7.23013 1.76788 7.23013H4.94976V16.073C4.65436 16.2968 4.28786 16.4312 3.88852 16.4312H1.76788C0.794176 16.4312 0.000976562 15.6371 0.000976562 14.6618V8.99952Z" fill="#A41D8B"/>
</svg>
