<svg width="26" height="35" viewBox="0 0 26 35" fill="none" xmlns="http://www.w3.org/2000/svg">
<g opacity="0.2">
<path opacity="0.2" d="M16.25 8.9375V1.625H2.4375C1.09119 1.625 0 2.71619 0 4.0625V31.6875C0 33.0338 1.09119 34.125 2.4375 34.125H23.5625C24.9088 34.125 26 33.0338 26 31.6875V11.375H18.6875C17.3412 11.375 16.25 10.2838 16.25 8.9375Z" fill="#231F20"/>
</g>
<path d="M16.25 7.3125V0H2.4375C1.09119 0 0 1.09119 0 2.4375V30.0625C0 31.4088 1.09119 32.5 2.4375 32.5H23.5625C24.9088 32.5 26 31.4088 26 30.0625V9.75H18.6875C17.3412 9.75 16.25 8.65881 16.25 7.3125Z" fill="#E0E0D1"/>
<g opacity="0.2">
<path opacity="0.2" d="M17.0754 9.17578L25.9999 17.0619V9.74941L17.0754 9.17578Z" fill="#231F20"/>
</g>
<path d="M16.25 0V7.3125C16.25 8.65881 17.3412 9.75 18.6875 9.75H26L16.25 0Z" fill="#E0995E"/>
<g opacity="0.2">
<path opacity="0.2" d="M12.6953 8H4.875V9.625H12.6953V8Z" fill="#231F20"/>
</g>
<g opacity="0.2">
<path opacity="0.2" d="M21.125 16.125H4.875V17.75H21.125V16.125Z" fill="#231F20"/>
</g>
<g opacity="0.2">
<path opacity="0.2" d="M21.125 12.0625H4.875V13.6875H21.125V12.0625Z" fill="#231F20"/>
</g>
<g opacity="0.2">
<path opacity="0.2" d="M21.125 20.1875H4.875V21.8125H21.125V20.1875Z" fill="#231F20"/>
</g>
<g opacity="0.2">
<path opacity="0.2" d="M21.125 24.25H4.875V25.875H21.125V24.25Z" fill="#231F20"/>
</g>
</svg>
