<?xml version="1.0" standalone="no"?>
<!DOCTYPE svg PUBLIC "-//W3C//DTD SVG 20010904//EN"
 "http://www.w3.org/TR/2001/REC-SVG-20010904/DTD/svg10.dtd">
<svg version="1.0" xmlns="http://www.w3.org/2000/svg"
 width="256.000000pt" height="256.000000pt" viewBox="0 0 256.000000 256.000000"
 preserveAspectRatio="xMidYMid meet">

<g transform="translate(0.000000,256.000000) scale(0.100000,-0.100000)"
fill="#CD3332" stroke="none">
<path d="M0 1280 l0 -1280 1280 0 1280 0 0 1280 0 1280 -1280 0 -1280 0 0
-1280z m1412 795 c63 -110 273 -473 467 -807 193 -334 351 -611 351 -615 0
-10 -252 -263 -262 -263 -9 0 -526 355 -548 376 -12 12 -2 14 75 15 50 1 122
4 161 8 l72 6 -226 384 c-188 321 -227 380 -235 365 -6 -11 -104 -182 -219
-382 -114 -199 -208 -365 -208 -367 0 -3 70 -5 155 -5 85 0 155 -4 155 -9 0
-10 -540 -396 -555 -396 -5 0 -67 59 -137 131 l-128 132 296 508 c163 280 377
650 477 821 100 172 184 310 187 305 4 -4 59 -97 122 -207z"/>
</g>
</svg>
