<svg fill="#000000" xmlns="http://www.w3.org/2000/svg"  viewBox="0 0 50 50" width="50px" height="50px"><path d="M45.5,12.654L25,0.819c-0.309-0.179-0.691-0.179-1,0L3.5,12.654C3.19,12.833,3,13.163,3,13.521v23.672	c0,0.357,0.19,0.688,0.5,0.866L24,49.894c0.154,0.089,0.327,0.134,0.5,0.134s0.346-0.045,0.5-0.134l20.5-11.835	c0.31-0.179,0.5-0.509,0.5-0.866V13.521C46,13.163,45.81,12.833,45.5,12.654z M18,36l-4,2l-4-2.192V15.798L13,14l5,2.787V36z M29,30	l-4.486,2.528l-0.013,0.008l-0.013-0.008L20,30V18l4.501,2.319L29,18V30z M39,35.808L35,38l-4-2V16.787L36,14l3,1.798V35.808z"/></svg>