<svg xmlns="http://www.w3.org/2000/svg"  viewBox="0 0 64 64" width="50px" height="50px"><linearGradient id="8qzJTLE318BP_8giLHywZa" x1="32.144" x2="32.144" y1="23" y2="43.165" gradientUnits="userSpaceOnUse"><stop offset="0" stop-color="#1a6dff"/><stop offset="1" stop-color="#c822ff"/></linearGradient><path fill="url(#8qzJTLE318BP_8giLHywZa)" d="M13.963,25.872h2.957v0.569h-2.957v0.032h-2V23h0.734h1.266h2.941v0.569h-2.941V25.872z M1.91,23H1v3.473h2v-0.032h3.117v-0.569H3v-0.915h1.441v-0.569H3v-0.819h3.117V23H3H1.91z M22.088,23h0.269v3.473h-2v-0.367H19.34	v0.351h-2v-2.505L18.197,23h0.59h0.553h1.016H22.088z M20.356,25.213v-1.644H19.34v1.644H20.356z M27.066,23h0.843v2.117h-2v-0.016	h-1.08v1.372h-2V23h0.936h1.064h1.08H27.066z M25.91,24.532v-0.963h-1.08v0.963H25.91z M48.738,25.229l0.877,1.245h-2.118	l-1.013-1.265v1.265h-2V23h0.936h1.064h1.08h1.157h0.843v2.229H48.738z M46.484,23.569v0.718h1.08v-0.718H46.484z M62.78,23h-1.616	H60.74l-1.373,1.843L57.995,23h-0.451h-1.589h-0.451v3.473h2.04v-0.956l0.604,0.956h0.006h2.427h0.006l0.577-0.913v0.913h2.04V23	H62.78z M54.29,23h0.773v2.505l-0.773,0.86v0.092h-0.083h-1.144H51.99h-1.001H49.99v-2.505L50.846,23h0.143h1.001h1.073H54.29z M53.063,25.888v-2.319H51.99v2.319H53.063z M9.489,24.532H8.537v-0.963h2.926V23H8.537H7.394H7.255v0.136L6.537,23.84v1.261h1.564	h0.436h0.952v0.771H6.537v0.569h2.952v0.016h1.144l0.856-0.77v-1.155h-0.856H9.489z M29.245,23h-0.91v3.473h2v-0.032h3.117v-0.569	h-3.117v-0.915h1.442v-0.569h-1.442v-0.819h3.117V23h-3.117H29.245z M39.856,23h-0.91v3.473h2v-1.516h1.441v-0.569h-1.441v-0.819	h3.117V23h-3.117H39.856z M23.191,42.128l0.007-0.111h-0.016L23.191,42.128z M23.329,40.021l0.052-0.793h-0.052V40.021z M29.72,41.311l0.101-0.013l-0.186-0.445L29.72,41.311z M23.511,42.191l0.277-2.964h-0.403L23.511,42.191z M24.117,41.809	l0.109-2.581h-0.353L24.117,41.809z M24.902,39.227h-0.651l0.051,3.386l0.047,0.528h0.045l0.106-1.269l0.234,1.269h0.374	l0.065-0.467h-0.271V39.227z M25.275,41.938l0.023-0.162l0.018,1.364h0.185l0.126-0.758v-3.155h-0.352V41.938z M33.699,43.141h0.08	l-0.024-0.519L33.699,43.141z M34.076,43.141h0.205l-0.11-1.125L34.076,43.141z M34.752,43.141h0.036l-0.011-0.199L34.752,43.141z M30.053,43.117l0.046-0.329l-0.108-0.006L30.053,43.117z M30.436,42.989l0.03-0.18l-0.032-0.002L30.436,42.989z M30.881,43.141	h0.145l0.177-0.247l0.004-0.039l-0.329-0.02L30.881,43.141z M31.625,27.191l0.066,2.059v8.154h-1.863l0.813,2.959l-0.234,0.446	l-0.003-0.214l-0.042,0.299l-0.086,0.164l-2.01-4.264l0.431-1.002l-0.934,0.646l-0.431,1.628l0.263,0.287l0.506-1.176l1.499,3.589	l-0.047,0.565l-0.151,0.019l-0.114-1.297l-0.246,3.088h-0.029l0.044-2.202l-0.165-0.019l-0.051-1.282l-0.038,1.272l-0.584-0.067	l-0.021,2.298h-0.221l-0.065-0.835l0.021-1.271l-0.121-0.008l-0.086-1.101l-0.05,1.092l-0.102-0.007l0.037,1.443l-0.031,0.688	h-0.123l-0.274-3.535l-0.056,3.38l-0.631-2.296l-0.016-0.414l-0.026,0.261l-0.36-1.31h0.324v0.221h2.085v-0.721h-2.085v0.009h-0.459	l-0.33-1.2v1.2h-0.352v-0.226h0.306v-0.378h-0.207v-0.189h-0.328v0.189h-0.213v-0.324h-0.652v0.459h0.117v0.063v0.18v0.226h-0.97	v-2.361h-0.22v1.045h-0.18v0.576h0.18v0.739h-0.187l-0.113-1.428v1.428H22.34l-0.202-4.269l-0.018,4.269h-0.73v-1.364v-3v-3.017	l1.729,0.033v-0.431l-1.729-0.023v-0.743v-1.005v-1.741l0.133,0.743l0.088-0.997h0.092l0.136,1.637l0.139-1.637h0.235l0.07,2.054	l0.073-2.054h5.098h2.809l0.185,2.543l0.129-2.543h0.205l0.206,2.865l0.063-2.865h0.341H31.625z M27.455,30.191h-1.827v4.181h1.827	V30.191z M17.203,31.936l0.196-0.428l-0.474-0.009l0.091,0.129L17.203,31.936z M19.84,42.798l0.319-2.043l0.096,1.883l0.287-2.649	l0.128,2.808l0.005-0.063v-3.507h-1.007L19.84,42.798z M18.787,42.479l0.543,0.287l0.103-3.539h-0.865L18.787,42.479z M15.213,38.147l0.163,0.325l-0.067-2.312L15.213,38.147z M15.929,42.241l-0.062-0.225l0.168-2.154l-0.383-0.838l-0.276-0.552	l0.124,4.294l0.478-0.253L15.929,42.241z M-0.003,30.191h2.692v12.949h0.008l0.058-1.939l0.075-2.489l0.16,4.021l0.287-3.606	l0.191,2.17l0.128-1.532l0.447,2.426l0.351-2.521l0.032,2.394l0.415-2.489l0.032,2.84l0.319-0.447l0.383-3.798l0.16,4.245	l0.479-1.053L6.277,37.5l0.351,4.532l0.191-4.213l0.106,1.358v-8.986H10v-3H-0.003V30.191z M14.862,39.024l0.144,0.239l-0.096,0.622	l-0.338,0.444l-0.093,0.178l-0.113,0.207l0.209,1.923l0.096-1.883l0.319,2.043l0.224-4.651l-0.136-0.272L14.862,39.024z M14.108,41.19l-0.063,0.238l0.115,1.37l0.085-1.858L14.108,41.19z M35.028,43.141h0.103l-0.068-0.582L35.028,43.141z M20.278,28.373l-0.007-1.182h-0.46l-0.274,2.582l-0.083-2.582h-0.551l-0.071,3.248l-0.234-3.248h-0.158l-0.149,2.926l-0.213-2.926	h-5.704l-1.699,4.564v9.105l0.04,0.948L11,38.777l0.319,3.415l0.128-3l0.191,2.936l0.383-4.819v4.819l0.085-0.059	c0.041-0.486,0.091-0.96,0.147-1.142c0.027-0.088,0.083-0.196,0.148-0.308l0.29-6.15l0.024,5.682	c0.078-0.105,0.15-0.198,0.215-0.278c0.128-0.208,0.209-0.345,0.209-0.345s0.359-0.455,0.239-0.574	c-0.12-0.12-0.263-0.814-0.192-1.149c0.072-0.335,0.192-1.269,0.12-1.34c-0.072-0.072-0.048-1.221-0.048-1.221	s-0.742-0.981-0.551-1.484c0.191-0.503,0.646-1.221,0.646-1.221s0.12-1.149,0.598-1.604c0.479-0.455,0.91-0.024,0.91-0.024	l0.551-0.646c0,0-0.455-0.886,0.335-1.245c0.79-0.359,1.197,0.551,1.197,0.551L17.638,30l-0.646,0.239l0.144,0.383l-0.229,0.206	l0.229,0.057l0.096-0.168l0.317,0.005l0.018-0.196h-0.239l0.048-0.359l1.197-0.024l0.048,0.594l1.939,0.028l0.024,0.263l0.093,0.021	v-3.858h-0.194L20.278,28.373z M20.511,31.628h-1.133l-0.494,1.077l-0.862,1.245l-1.053-0.503l-0.144,0.431l0.431,0.12l-0.359,1.317	l-0.527,0.168l0.048,0.742l0.407,0.718l0.215,0.79l0.407,0.981l0.239-0.024l-0.048,1.364l-0.168,0.168l0.185,2.944h0.108	l0.033-2.027l0.157,2.027h0.142l0.02-3.942l0.351,3.383l0.025-3.379h-0.075v-0.251h-0.229v-0.239h0.307l0.004-0.503l0.034,0.503	h0.913l0.075-2.577l0.124,2.577h1.03v-7.395l-0.069-0.001L20.511,31.628z M22.489,41.904l0.319,0.223v-2.9h-0.446L22.489,41.904z M21.391,41.711l0.173-1.403l0.128,2.234l0.16-2.617l0.255,2.202l0.012-2.9h-0.728V41.711z M23.109,41.09v-1.863h-0.148	L23.109,41.09z M17.83,32.968l0.455-0.287v-0.718l-0.02-0.303l-0.628,0.99L17.83,32.968z M18.093,30.527l-0.311-0.024l-0.032,0.223	l0.495,0.007l-0.008-0.015L18.093,30.527z M42.149,41.353l-0.18,1.788h0.423l-0.034-0.912L42.149,41.353z M52.169,41.935	l0.059-0.162l-0.042-0.985L52.169,41.935z M51.55,43.165h0.173l0.041-0.114l-0.009-1.865L51.55,43.165z M54.215,29.382v2.772h0.102	l0.027,0.732l0.096,0.388l0.019-0.166l-0.023-5.63L54.215,29.382z M53.032,27.191h-0.05l-0.11,2.426l-0.263-2.426h-0.036	l-0.084,1.66l-0.259-1.66h-0.078l-0.301,6.255l-0.181-6.255h-0.557l-0.283,4.181l-0.031-4.181h-0.021l-0.331,3.192l-0.016-3.192	h-5.441l-1.699,4.564v6.287h1.731v5.122h0.708l-0.062-1.479v-6.871l0.279,3.514v-3.576h0.367l0.303,6.416l0.027-6.416h0.149	l0.111,0.958l0.058-0.958h0.196l0.033,0.576l0.071-0.576h0.025v-4.539h2.008v7.152l0.076-2.613h0.366v8.117l-0.024-0.153	l-0.023,0.447h0.98v-5.003h1.269v-2.996l0.056,0.555l0.08-3.567h0.08l0.39,3.874l-0.025-3.862l0.005-0.012h0.513l0.193,3.188	l0.061-0.786v-4.387l-0.005,0.054L53.032,27.191z M48.737,43.165h0.331l-0.153-1.819L48.737,43.165z M49.275,43.165h0.187	l-0.132-1.213L49.275,43.165z M51.172,43.165h0.222l-0.022-2.968L51.172,43.165z M59.128,43.117l-0.192-2.17l-0.175,2.194h0.781	l-0.287-1.556L59.128,43.117z M36.021,43.141h0.032h0.222l-0.254-3.199V43.141z M59.823,43.141h0.252l-0.022-1.652L59.823,43.141z M60.053,27.223v5.146l-0.8,2.884l-0.801-2.884v-5.146h-1.823l-0.054,3.606l-0.128-3.032L56.16,30.83l-0.319-3.415l-0.128,3	l-0.191-2.936l-0.383,4.819v-4.819l-0.319,0.223l-0.21,4.452h0.242l0.322,1.547l0.092-1.534l0.241,2.165l0.123-2.178h0.019v5.981	l0.359,1.444v-1.417h0.062l0.162,2.318l0.023,0.094l0.094-2.412h0.092l0.254,3.531l0.01-3.531h0.623l0.432,4.597l-0.026,0.382h0.217	l-0.021-2.896l-0.112,1.655l-0.062-3.737h0.229l0.203,0.907l-0.013-0.907h0.157l0.287,1.647l-0.032-1.647h0.152l0.333,2.225	l0.074-2.225h0.232l0.239,1.263l-0.01-1.263h0.116l0.205,1.626l0.113-2.214l0.32,4.642l-0.154,0.924h0.325l-0.094-5.368l0.304-0.244	l0.289,4.461l-0.116,1.151h0.436l-0.118-3.152l-0.169,1.68l0.061-4.165l0.381,2.918L61.44,37.42l0.478,3.002l-0.026,1.593	l0.193-0.777l-0.086-1.104l0.071-2.371l0.265,2.47l0.026-0.106l-0.141-2.851h0.012v-6.613l0.167-1.071h0.021l0.314,6.535	l0.189-6.535h0.138l0.407,0.215l0.287,4.245l0.032-4.372l0.345,3.323l0.007-0.027l0.017-3.385h0.134v-2.37H60.053z M62.478,39.658	l0.002-0.007l-0.001-0.012L62.478,39.658z M58.116,43.141h0.207l-0.01-1.907L58.116,43.141z M48.257,43.165h0.161l-0.11-0.894	L48.257,43.165z M58.415,43.021l-0.004,0.12h0.182l-0.104-2.609L58.415,43.021z M56.707,42.389l0.187,0.752h0.16L56.91,38.17	L56.707,42.389z M40.879,43.141h0.237l-0.021-1.556L40.879,43.141z M40.176,43.141h0.391l-0.269-1.46L40.176,43.141z M39.457,43.117	l-0.001,0.024h0.175l-0.1-2.513L39.457,43.117z M39.812,43.141h0.352l-0.185-2.098L39.812,43.141z M36.51,43.141h0.142l-0.056-1.316	L36.51,43.141z M37.385,43.141h0.099l-0.026-1.731L37.385,43.141z M36.881,43.141h0.326l-0.164-1.731L36.881,43.141z M46.404,43.165	h0.217l-0.131-2.011L46.404,43.165z M47.064,43.165v-3.894l-0.309,3.894H47.064z M41.267,43.141h0.294l-0.019-1.652L41.267,43.141z M47.873,43.165h0.226l-0.078-1.277L47.873,43.165z M47.559,40.149l-0.142,3.016h0.346l-0.013-3.016H47.559z M45.813,43.165h0.456	l-0.227-2.426L45.813,43.165z M36.67,30.159v-2.936h-2.169l-0.058,1.639l-0.056-1.639h-0.284l-0.104,1.222l-0.101-1.222h-0.163	l-0.052,0.582l-0.104-0.582h-0.597l-0.097,0.673l-0.005-0.673h-0.31l-0.132,0.767l-0.004-0.687v12.358h0.275l-0.089,3.061	l0.018,0.235l0.144-3.165l-0.006-0.132h0.012l0.042-0.917l0.072,0.917h0.929l0.052-2.954h0.467l0.074,2.954h0.916l-0.014,3.48h0.31	l-0.189-4.011v-0.593h0.92l0.073-3.744h0.611l0.105,3.744h1.642v1.843h0.934v-1.58h0.957v-0.757h0.671l-1.301-5.464l2.356-5.387	h-4.447L36.67,30.159z M43.365,43.165h0.425l-0.269-3.431L43.365,43.165z"/></svg>