<svg xmlns="http://www.w3.org/2000/svg"  viewBox="0 0 48 48" width="50px" height="50px"><path fill="#f57c00" d="M42.5,40h-37C3.6,40,2,38.4,2,36.5v-23C2,11.6,3.6,10,5.5,10h37c1.9,0,3.5,1.6,3.5,3.5v23 C46,38.4,44.4,40,42.5,40z M5.5,13C5.2,13,5,13.2,5,13.5v23C5,36.8,5.2,37,5.5,37h37c0.3,0,0.5-0.2,0.5-0.5v-23 c0-0.3-0.2-0.5-0.5-0.5H5.5z"/><path fill="#f57c00" d="M44 16H48V19H44zM44 31H48V34H44zM0 16H4V19H0zM0 31H4V34H0zM10 34H7V17.5C7 16.7 7.7 16 8.5 16h4c.8 0 1.5.7 1.5 1.5v8c0 .8-.7 1.5-1.5 1.5H10V34zM10 24h1v-5h-1V24zM21.5 34h-5c-.8 0-1.5-.7-1.5-1.5V16h3v15h2V16h3v16.5C23 33.3 22.3 34 21.5 34zM30.5 34h-4c-.8 0-1.5-.7-1.5-1.5v-15c0-.8.7-1.5 1.5-1.5h4c.8 0 1.5.7 1.5 1.5V23h-3v-4h-1v12h1v-5h3v6.5C32 33.3 31.3 34 30.5 34z"/><path fill="#f57c00" d="M24 23H31V26H24zM39.5 34h-5c-.8 0-1.5-.7-1.5-1.5v-15c0-.8.7-1.5 1.5-1.5h5c.8 0 1.5.7 1.5 1.5V21h-3v-2h-2v12h2v-5h-1v-3h2.5c.8 0 1.5.7 1.5 1.5v8C41 33.3 40.3 34 39.5 34z"/></svg>