<svg xmlns="http://www.w3.org/2000/svg"  viewBox="0 0 64 64" width="50px" height="50px"><path fill="#c3eccc" d="M15.244,9.861l6.305-3.603c0.29-0.166,0.632-0.219,0.959-0.148l0.43,0.093	c0.312,0.067,0.638,0.022,0.921-0.127l0.517-0.273c0.262-0.139,0.472-0.36,0.597-0.629l0.089-0.192	c0.197-0.426,0.601-0.72,1.068-0.777l9.568-1.165c0.2-0.024,0.402-0.004,0.593,0.06l8.48,2.827c0.152,0.051,0.294,0.128,0.419,0.228	l4.545,3.636c0.174,0.14,0.312,0.32,0.4,0.525l2.817,6.573c0.033,0.076,0.072,0.149,0.118,0.218l3.619,5.429	c0.2,0.299,0.272,0.666,0.202,1.019l-1.809,9.046c-0.053,0.263-0.182,0.504-0.371,0.693l-0.018,0.018	c-0.413,0.413-0.515,1.044-0.254,1.567l0.395,0.79c0.1,0.2,0.245,0.374,0.43,0.5C55.814,36.542,57.043,37.547,57,39	c-0.043,1.448-2.412,3.049-3.484,3.7c-0.33,0.201-0.554,0.525-0.625,0.905C52.607,45.128,51.803,49,51,49	c-1.667,0-3.025-0.926-3.903-1.749c-0.62-0.581-1.606-0.488-2.077,0.218l-0.871,1.307c-0.098,0.147-0.167,0.313-0.202,0.487	l-0.931,4.654c-0.011,0.055-0.025,0.11-0.043,0.163l-1.664,4.992C41.125,59.626,40.606,60,40.022,60H37.22	c-0.146,0-0.291-0.024-0.429-0.07l-1.674-0.558c-0.641-0.214-1.341,0.076-1.643,0.681l-0.099,0.197c-0.23,0.46-0.7,0.75-1.214,0.75	H30.15c-0.663,0-1.23-0.48-1.339-1.134l-0.74-4.437c-0.046-0.279-0.179-0.537-0.379-0.737l-0.14-0.14	c-0.713-0.713-1.928-0.427-2.247,0.53l-0.996,2.989C24.125,58.626,23.606,59,23.022,59H22.63c-0.399,0-0.778-0.176-1.036-0.481	l-1.961-2.318c-0.229-0.271-0.343-0.621-0.317-0.975l0.203-2.794c0.021-0.287-0.05-0.573-0.203-0.818l-0.497-0.796	c-0.231-0.37-0.271-0.829-0.105-1.234l0.238-0.582c0.225-0.55,0.066-1.182-0.392-1.561l-1.482-1.223	c-0.377-0.311-0.893-0.396-1.349-0.221l-0.896,0.343c-0.564,0.216-1.203,0.033-1.567-0.448l-3.475-4.588	c-0.123-0.163-0.279-0.297-0.463-0.388c-0.666-0.33-2.414-1.355-2.769-3.163c-0.271-1.384,1.523-3.16,2.624-4.101	c0.473-0.404,0.602-1.082,0.324-1.639l-1.256-2.512c-0.161-0.322-0.187-0.695-0.074-1.036l0.708-2.125	c0.075-0.224,0.09-0.464,0.043-0.695l-0.787-3.934c-0.089-0.445,0.05-0.905,0.371-1.226l3.089-3.089	c0.255-0.255,0.397-0.6,0.397-0.96V14.45c0-0.294,0.095-0.579,0.271-0.814l2.56-3.413C14.943,10.076,15.083,9.953,15.244,9.861z"/><path fill="#aedfbb" d="M9.11,30.403L14,34h34.733L50,33c0.112,0,1.389,0.995,1.499,0.985	c1.532-0.137,2.836-1.213,3.247-2.719L57,23l-5-10l-3.723-4.378L44,6.401l-7.71-3.304L25.061,4.979l-2.123,1.223L20.25,7	l-6.754,5.006L12,14.452l-0.397,2.945L9.11,20.715l-0.181,4.931L9.11,30.403z"/><path fill="#836c9b" d="M40.697,19.144c0.404,0.324,0.956,0.557,1.295,0.464s0.765-0.78,0.973-1.147	c0.561,0.272,2.042,0.698,2.155,0.446c0.114-0.252-1.903-1.422-2.116-1.549c-0.121-0.073-0.284-0.053-0.419-0.013	c-0.135,0.041-0.265,0.174-0.325,0.301c-0.259,0.541-0.963,0.733-1.498,0.428c-0.123-0.07-0.265-0.097-0.399-0.055	c-0.135,0.038-0.248,0.132-0.311,0.257c-0.108,0.218-1.245,2.28-1.018,2.437C39.122,20.773,40.37,19.656,40.697,19.144z"/><path fill="#836c9b" d="M36.437,23.026c0.073,0.059,1.106,1.228,1.597,1.228s1.512-1.16,1.583-1.217	c0.323,0.137,2.292,0.872,2.384,0.711C42.138,23.509,39.691,22,39.566,22c-0.294,0-1.232,0.716-1.524,0.716S36.794,22,36.5,22	c-0.125,0-2.571,1.509-2.434,1.748C34.203,23.99,36.188,23.142,36.437,23.026z"/><path fill="#836c9b" d="M51.262,32.555c-0.204-0.206-0.348-0.464-0.418-0.745l-0.813-3.27	c-0.031-0.125-0.077-0.247-0.137-0.361l-0.343-0.653c-0.15-0.285-0.211-0.607-0.175-0.927l0.236-2.14c0.01-0.08,0-0.15-0.02-0.23	l-0.27-0.78l0.13-1.57c0.02-0.2-0.09-0.4-0.28-0.49c-0.18-0.09-0.4-0.06-0.55,0.08l-3.37,3.08c-0.07,0.06-0.12,0.14-0.15,0.24	l-0.19,0.72l-2.52,1.38c-0.12,0.07-0.21,0.19-0.24,0.32l-0.21,0.88l-0.393,0.143c-0.448,0.163-0.802,0.516-0.965,0.965l-0.13,0.357	c-0.113,0.31-0.317,0.577-0.587,0.767c-1.04,0.732-2.305,1.626-2.367,1.679c-0.12,0.04-0.16,0.05-1.34,1.13	c-0.15,0.14-0.2,0.36-0.13,0.55C36.11,33.87,36.29,34,36.5,34h1.86l-0.12,0.07c-0.19,0.12-0.28,0.35-0.22,0.56	C38.08,34.85,38.28,35,38.5,35l1.425-0.02c0.128-0.002,0.255,0.012,0.379,0.04l2.125,0.482l-1.958,0.456	C40.351,35.986,40.228,36,40.105,36H37.5c-0.28,0-0.5,0.22-0.5,0.5s0.22,0.5,0.5,0.5h4.65l-0.05,0.14l-1.82,0.91	c-0.21,0.11-0.32,0.34-0.27,0.57C40.07,38.84,40.27,39,40.5,39h8c0.23,0,0.43-0.16,0.49-0.38c0.05-0.23-0.06-0.46-0.27-0.57	l-1.4-0.7L47.64,37h2.86c0.23,0,0.43-0.16,0.49-0.38c0.05-0.23-0.06-0.46-0.27-0.57l-1.426-0.713	c-0.194-0.097-0.405-0.154-0.621-0.167l-3.042-0.19l2.534-0.499c0.17-0.034,0.333-0.094,0.484-0.18l0.594-0.337	c0.335-0.19,0.727-0.254,1.105-0.18L51.45,34h0.05c0.2,0,0.38-0.12,0.46-0.31c0.08-0.19,0.04-0.4-0.11-0.54L51.262,32.555z M45.911,29.628c-0.198,0.179-0.349,0.404-0.438,0.655l-0.37,1.035c-0.178,0.497-0.587,0.875-1.096,1.014	c-0.444,0.12-0.918,0.046-1.303-0.205L42.3,31.864c-0.185-0.121-0.393-0.202-0.611-0.239l-1.8-0.304l1.906-0.262	c0.278-0.038,0.561-0.003,0.821,0.101c0,0,0.54,0.197,0.961,0.114C44,31.19,44.4,30.812,44.59,30.381l0.229-0.518	c0.173-0.392,0.496-0.7,0.897-0.854l1.534-0.59L45.911,29.628z"/><path fill="#836c9b" d="M55.824,35.338c-0.047-0.032-0.078-0.082-0.097-0.12l-0.396-0.791	c-0.069-0.137-0.042-0.303,0.084-0.429c0.33-0.33,0.554-0.747,0.646-1.205l1.809-9.047c0.123-0.616-0.001-1.244-0.35-1.769	l-3.65-5.485l-2.817-6.573C50.9,9.563,50.66,9.247,50.359,9.006l-4.543-3.634c-0.219-0.176-0.466-0.311-0.729-0.396l-8.482-2.828	c-0.334-0.11-0.679-0.149-1.029-0.103L26.01,3.209c-0.816,0.1-1.51,0.604-1.854,1.348l-0.092,0.197	c-0.032,0.069-0.088,0.128-0.156,0.164l-0.517,0.273c-0.075,0.039-0.161,0.05-0.241,0.033l-0.432-0.093	c-0.569-0.121-1.16-0.03-1.665,0.258l-6.304,3.602c-0.281,0.161-0.523,0.374-0.718,0.634l-2.561,3.414	C11.167,13.445,11,13.947,11,14.452v1.985c0,0.096-0.037,0.186-0.104,0.253l-3.089,3.089c-0.559,0.559-0.8,1.354-0.645,2.129	l0.787,3.933c0.012,0.062,0.008,0.125-0.012,0.185L7.229,28.15c-0.199,0.596-0.154,1.234,0.127,1.801l1.256,2.511	c0.075,0.15,0.043,0.328-0.079,0.433c-2.242,1.918-3.236,3.618-2.955,5.054c0.437,2.228,2.457,3.446,3.307,3.867	c0.039,0.02,0.076,0.052,0.109,0.095l3.474,4.588c0.631,0.831,1.751,1.151,2.723,0.778l0.896-0.343	c0.118-0.045,0.257-0.023,0.355,0.059l1.48,1.222c0.122,0.101,0.164,0.267,0.104,0.412l-0.238,0.583	c-0.286,0.7-0.218,1.501,0.183,2.141l0.497,0.796c0.041,0.065,0.06,0.141,0.055,0.216l-0.203,2.795	c-0.045,0.618,0.151,1.219,0.551,1.691l1.961,2.318C21.279,59.696,21.935,60,22.63,60h0.392c1.017,0,1.915-0.647,2.236-1.611	l0.996-2.989c0.056-0.165,0.185-0.218,0.257-0.235c0.073-0.016,0.211-0.029,0.335,0.096l0.14,0.14c0.052,0.053,0.088,0.12,0.1,0.193	l0.739,4.438c0.19,1.14,1.168,1.968,2.324,1.968h2.012c0.899,0,1.707-0.499,2.108-1.303l0.099-0.198	c0.079-0.157,0.262-0.231,0.432-0.179l1.677,0.56c0.241,0.08,0.491,0.12,0.744,0.12h2.801c1.017,0,1.915-0.647,2.236-1.611	l1.666-4.997c0.031-0.094,0.056-0.188,0.073-0.278l0.931-4.651c0.01-0.048,0.028-0.094,0.053-0.131l0.872-1.308	c0.073-0.109,0.175-0.143,0.246-0.15c0.067-0.01,0.195-0.004,0.315,0.107C47.396,48.901,48.989,50,51,50	c0.902,0,1.801-0.475,2.874-6.211c0.02-0.101,0.075-0.182,0.162-0.234c1.779-1.082,3.91-2.745,3.964-4.525	C58.058,37.082,56.5,35.801,55.824,35.338z M9.91,25.45l-0.787-3.935c-0.023-0.117,0.013-0.237,0.098-0.322l3.089-3.089	c0.017-0.017,0.028-0.037,0.044-0.054l0.365-0.351l1.956-0.73c0.101-0.038,0.187-0.107,0.245-0.197l0.904-1.401l1.085-0.126	c0.088-0.011,0.172-0.045,0.243-0.099l1.568-1.186l3.945-0.888c0.039-0.007,0.077-0.019,0.113-0.034l2.378-0.893l3.501-1.17	c0.074-0.025,0.141-0.066,0.195-0.121l1-1c0.195-0.195,0.195-0.512,0-0.707s-0.512-0.195-0.707,0l-0.917,0.917l-3.252,1.087	l-0.658-0.159c-0.167-0.036-0.34,0.008-0.464,0.126l-0.598,0.575H22.33c-0.133,0-0.26,0.053-0.354,0.146l-0.416,0.416l-0.481,0.087	l-1.722,0.189c-1.52-0.869-1.916-0.667-2.066-0.593c-0.353,0.177-0.527,0.568-0.613,0.877l-0.613,0.127	c-0.159,0.032-0.292,0.141-0.356,0.29l-0.442,1.016l-0.97,0.16c-0.108,0.018-0.207,0.07-0.282,0.15l-0.463,0.49L13,14.778v-0.326	c0-0.076,0.025-0.153,0.071-0.215l2.56-3.413c0.029-0.039,0.066-0.071,0.108-0.095l0.001-0.001l6.306-3.603	c0.076-0.044,0.167-0.055,0.251-0.039l0.431,0.093c0.543,0.116,1.108,0.039,1.599-0.221l0.519-0.274	c0.454-0.241,0.821-0.63,1.033-1.09l0.091-0.195c0.053-0.113,0.157-0.189,0.281-0.205l9.567-1.165c0.053-0.002,0.106,0,0.156,0.016	l8.484,2.829c0.038,0.012,0.074,0.031,0.106,0.059l3.713,2.969L46.72,9.7l-0.63-0.42c-0.06-0.04-0.13-0.06-0.21-0.07L43.64,8.9	c-0.13-0.02-0.27,0.02-0.38,0.1c-0.04,0.06-0.09,0.11-0.14,0.16l-0.795,1.117l-1.651,1.345L41.81,9.37h-2.17	c-0.18,0-0.35,0.1-0.44,0.26l-0.9,1.7l-1.98,0.78c-0.15,0.06-0.27,0.19-0.3,0.36l-0.15,0.71l-0.9,0.73l-1.51,2.33l1.1-3.33	l-0.44-0.47c-0.09-0.11-0.22-0.16-0.36-0.16h-0.29c-0.25,0-0.46,0.18-0.49,0.42l-0.09,0.59l-0.96,0.64	c-0.14,0.09-0.22,0.25-0.22,0.42v1.43l-0.28,0.21l-1.37,0.17c-0.11,0.02-0.22,0.07-0.3,0.16l-0.83,0.89	c-0.07,0.08-0.12,0.18-0.13,0.29l-0.07,0.71l-0.6,0.86l-1.36,0.15c-0.15,0.01-0.28,0.09-0.36,0.21l-0.873,1.281l-0.861-0.414	l1.814-4.717c0.042-0.111,0.052-0.247,0.01-0.36c-0.206-0.631-1.04-0.148-1.44-0.05l-1.19,0.29c-0.14,0.03-0.25,0.11-0.32,0.23	c0,0-0.16,0.26-0.45,0.4c-0.26,0.11-1.1,0.21-1.62,0.24c-0.19,0.01-0.36,0.13-0.44,0.31c-0.07,0.17-0.03,0.38,0.09,0.52	c0.27,0.3,1.18,1.26,1.95,1.26c0,0,0.11,0,0.28-0.01l1.5-1.38l-0.49,1.27l-0.34,0.89l-0.257,0.673L20.21,18.15	c-0.16-0.08-0.35-0.07-0.49,0.03c-0.15,0.1-0.24,0.26-0.23,0.44c0.05,1.06-0.18,1.89-0.44,2.47l2.88,1.65l-3.69-0.8h-1.78	c-0.23,0-0.43,0.16-0.49,0.39c-0.05,0.22,0.06,0.46,0.27,0.56l1.62,0.79l-2.09,2.49l-3.47,1.89c-0.11,0.06-0.2,0.16-0.24,0.28	l-0.6,1.84L11,30.51V28.5c0-0.19-0.11-0.36-0.28-0.45c-0.17-0.08-0.37-0.06-0.52,0.05l-1.087,0.836	c-0.006-0.051-0.003-0.103,0.014-0.153l0.707-2.123C9.964,26.273,9.99,25.855,9.91,25.45z M15.04,28.05l1.32,0.19l1.59-1.57	l1.44-0.61l-0.5,1.99l-1.51,2.56l-1.66,0.6l0.78-1.68L15.04,28.05z M37.69,58.96c-0.143,0.046-1.418-0.893-1.54-1.11	s-0.02-1.73,0.16-1.81s1.627,1.296,1.69,1.46S37.833,58.914,37.69,58.96z M52.998,41.845c-0.569,0.346-0.966,0.919-1.09,1.576	c-0.516,2.756-0.983,4.091-1.235,4.563c-0.121-0.011-0.239-0.033-0.356-0.056c0.009-0.09,0.017-0.181-0.007-0.275	c-0.146-0.559-0.763-0.925-1.306-1.249c-0.172-0.102-0.328-0.191-0.424-0.272c-0.291-0.246-0.857-0.549-1.175-0.711	c-0.062-0.283-0.166-0.758-0.245-1.072c0.627-1.513,0.566-2.53-0.182-3.027c-0.797-0.526-1.951-0.211-2.301-0.097H44	c-0.194,0-0.371,0.112-0.453,0.289c-0.082,0.176-0.055,0.384,0.07,0.532l0.634,0.757l-0.044,0.793	c-0.006,0.102,0.02,0.202,0.072,0.289l0.202,0.33l-0.112,0.014c-0.186,0.023-0.343,0.148-0.407,0.324s-0.024,0.373,0.103,0.511	l0.284,0.31l-0.327,0.245c-0.091,0.068-0.187,0.173-0.216,0.282l-1.057,3.063l-1.196,0.295l-0.029,0.009l-1.675-5.945	c-0.067-0.239-0.294-0.389-0.55-0.359c-0.247,0.034-0.432,0.245-0.432,0.495v1.761c0,0.062,0.012,0.122,0.033,0.18l1.182,3.07	l-0.022,0.948l-0.124,0.633c-0.034,0.173,0.034,0.342,0.158,0.47C40.277,50.708,41,50.782,41,50.782l0.146,0.379	c0.076,0.198,0.266,0.32,0.467,0.32c0.06,0,0.12-0.011,0.18-0.033c0.258-0.1,0.386-0.389,0.287-0.646l-0.124-0.322l0.776-0.239	l-0.706,3.524l-1.664,4.992C40.312,58.902,40.176,59,40.021,59h-0.462l0.201-1.4c0.03-0.17-0.04-0.34-0.17-0.45l-1.85-1.54	l-0.69-2.08c-0.03-0.08-0.08-0.16-0.14-0.21l-0.28-0.25l0.82,0.18C37.66,53.29,37.89,53.2,38,53c0.1-0.19,0.07-0.43-0.09-0.59	l-0.93-0.93l0.46-0.47c0.12-0.12,0.17-0.29,0.13-0.45c-0.01-0.08-0.04-0.15-0.09-0.21l0.69-0.04c0.27-0.02,0.48-0.25,0.46-0.53	c-0.01-0.28-0.22-0.49-0.52-0.47l-1.74,0.1c-0.04,0.01-0.09,0.02-0.13,0.03c-0.08,0.03-0.69,0.25-1.14,0.52	c-0.38-0.06-0.85,0.04-1.18,0.25c-0.32,0.2-0.51,0.5-0.54,0.84c-0.01,0.27-0.46,1.07-0.86,1.66c-0.11,0.16-0.12,0.38-0.01,0.55	s0.32,0.26,0.52,0.22l0.57-0.11l0.06,0.14l-1.29,2.04c-0.11,0.17-0.11,0.39,0.01,0.56l0.6,0.83l-0.34,1.17	c-0.02,0.07-0.03,0.15-0.01,0.22l0.155,0.944c-0.076,0.104-0.147,0.213-0.206,0.332l-0.099,0.198C32.42,59.925,32.298,60,32.161,60	h-2.012c-0.176,0-0.323-0.126-0.353-0.298l-0.739-4.437c-0.063-0.386-0.243-0.729-0.479-1.035l0.016-0.417l0.652-0.119	c0.152-0.028,0.284-0.127,0.354-0.266l0.743-1.459c0.079-0.154,0.072-0.34-0.019-0.488c-0.092-0.147-0.253-0.238-0.427-0.238h-1.058	l-0.291-0.776c-0.05-0.135-0.156-0.241-0.291-0.292l-1.239-0.469c-0.213-0.08-0.457-0.006-0.587,0.183l-0.76,1.092h-0.257v-1.123	c0.244-0.14,0.416-0.392,0.416-0.693c0-0.447-0.363-0.81-0.81-0.81c-0.117,0-0.227,0.027-0.327,0.072	c-0.001,0-0.001-0.002-0.003-0.002c-0.2,0.095-0.491,0.35-0.58,0.488l-1.101,1.706c-0.05,0.078-0.078,0.167-0.08,0.26l-0.025,1.054	l-0.374,0.638l-0.957,1.019c-0.165,0.176-0.182,0.442-0.04,0.637c0.142,0.195,0.402,0.259,0.618,0.158l2.104-1.003l0.068-0.02	l-1.242,1.862C23.029,55.305,23,55.401,23,55.5V58h-0.37c-0.105,0-0.205-0.046-0.272-0.126l-1.961-2.318	c-0.061-0.072-0.091-0.163-0.084-0.257l0.203-2.795c0.036-0.501-0.086-0.991-0.352-1.418l-0.498-0.797	c-0.061-0.097-0.07-0.219-0.027-0.324l0.238-0.582c0.393-0.96,0.12-2.05-0.681-2.712l-1.481-1.222	c-0.652-0.541-1.553-0.688-2.344-0.384l-0.896,0.343c-0.146,0.056-0.316,0.008-0.413-0.118l-3.476-4.59	c-0.223-0.293-0.497-0.521-0.814-0.679c-0.455-0.225-1.959-1.067-2.231-2.459c-0.099-0.505,0.568-1.67,2.278-3.136l0.311,0.694	c0.24,0.52,0.77,0.86,1.34,0.86h0.55L12.59,37H10.5c-0.28,0-0.5,0.22-0.5,0.5s0.22,0.5,0.5,0.5h15.76c0.16,0,0.31-0.07,0.4-0.2	l0.6-0.8h1.24c0.28,0,0.5-0.22,0.5-0.5S28.78,36,28.5,36H28l0.68-0.91h-1.67l2.42-1.34l0.44-0.87l0.89-0.43	c0.05-0.03,0.1-0.06,0.14-0.1l0.82-0.85l2.08-1.6c0.22-0.17,0.26-0.49,0.1-0.7c-0.17-0.22-0.49-0.26-0.7-0.1l-1.694,1.305	c-1.131-0.602-1.966-1.407-2.544-2.121c0.091-1.067,0.044-1.767,0.038-1.824c-0.02-0.2-0.15-0.37-0.34-0.43l-0.47-0.16l-5.61-1.68	l3.8,0.28c0.222-1.061,0.098-2.04-0.037-2.655l0.817-0.265c0.09-0.03,0.17-0.08,0.23-0.15l0.74-0.89l1.34-0.47	c0.08-0.03,0.16-0.08,0.22-0.15l0.72-0.88L31.56,19c0.11-0.01,0.23-0.05,0.32-0.12l1.13-0.98h1.39c0.12,0,0.24-0.04,0.33-0.12	l1.29-1.12l4.22-1.58l0.97-0.38l0.48-1.3l1.5,0.52L46,12.54l2.48-0.28l1.824,0.987l1.726,4.028c0.057,0.135,0.128,0.265,0.207,0.383	l3.618,5.428c0.054,0.08,0.072,0.176,0.054,0.269L54.1,32.4c-0.014,0.069-0.049,0.135-0.116,0.202	c-0.719,0.719-0.896,1.813-0.441,2.721l0.395,0.788c0.179,0.359,0.443,0.664,0.76,0.88c0.401,0.274,1.332,1.018,1.303,1.98	C55.985,39.485,55.039,40.604,52.998,41.845z M26.16,33.33l2.29-2.15c0.152-0.56,0.259-1.085,0.342-1.577	c0.499,0.51,1.113,1.021,1.854,1.464L30.5,31.18h-1.04c-0.28,0-0.5,0.22-0.5,0.5v0.33L26.16,33.33z"/><path fill="#836c9b" d="M37.468,43.509h-0.926l0.868-0.883c0.137-0.14,0.181-0.346,0.111-0.529l-2.145-5.642	c-0.039-0.102-0.109-0.188-0.202-0.246l-1.844-1.156c-0.112-0.069-0.248-0.094-0.378-0.063c-0.129,0.029-0.241,0.109-0.312,0.222	l-0.547,0.873L31.42,35.79c-0.132-0.059-0.284-0.055-0.416,0.007c-0.131,0.063-0.229,0.179-0.267,0.319l-0.506,1.85l-1.165,0.917	c-0.064,0.051-0.115,0.117-0.148,0.192l-0.359,0.83l-0.908,1.568c-0.067,0.117-0.049,0.252-0.049,0.387	c0,0.322-0.912,0.471-0.912,0.471c-0.254,0.037-0.438,0.261-0.428,0.517c0.012,0.256,0.214,0.462,0.47,0.478l2.92,0.023	l-1.349,0.336h-1.23c-0.251,0.052-0.422,0.285-0.396,0.54s0.241,0.449,0.497,0.449h3.799c0.283,0,0.499-0.236,0.5-0.519	c0.007-2.473,1.317-3.765,2.134-4.33l0.069,1.066c0.053,0.823,0.28,1.625,0.666,2.354l0.455,0.859	c0.03,0.057,0.068,0.104,0.113,0.144c0.087,0.159,0.255,0.261,0.439,0.261h2.119c0.276,0,0.5-0.224,0.5-0.5	S37.744,43.509,37.468,43.509z"/><path fill="#836c9b" d="M62.104,15.129c-0.295-0.468-0.913-0.606-1.379-0.313l-1.691,1.067	c-0.468,0.295-0.607,0.912-0.313,1.379c0.19,0.302,0.515,0.467,0.847,0.467c0.183,0,0.367-0.05,0.532-0.154l1.691-1.067	C62.26,16.213,62.399,15.596,62.104,15.129z"/><path fill="#836c9b" d="M56.113,13.134c0.19,0.301,0.515,0.466,0.847,0.466c0.183,0,0.367-0.05,0.533-0.154l1.69-1.068	c0.467-0.296,0.606-0.913,0.312-1.38c-0.295-0.465-0.912-0.605-1.38-0.312l-1.69,1.068C55.958,12.05,55.818,12.667,56.113,13.134z"/><path fill="#836c9b" d="M53.505,9.003c0.19,0.301,0.515,0.466,0.847,0.466c0.183,0,0.367-0.05,0.533-0.154l1.69-1.068	c0.467-0.296,0.606-0.913,0.312-1.38c-0.295-0.466-0.911-0.605-1.38-0.312l-1.69,1.068C53.35,7.919,53.21,8.536,53.505,9.003z"/><path fill="#836c9b" d="M51.742,5.338c0.183,0,0.367-0.05,0.532-0.154l1.691-1.067c0.468-0.295,0.607-0.912,0.313-1.379	s-0.913-0.605-1.379-0.313l-1.691,1.067c-0.468,0.295-0.607,0.912-0.313,1.379C51.086,5.173,51.41,5.338,51.742,5.338z"/></svg>