<svg width="36" height="36" viewBox="0 0 48 36" fill="none" xmlns="http://www.w3.org/2000/svg">
<path d="M40.1966 3.20586C37.2346 1.84676 34.0583 0.845437 30.7372 0.271937C30.6768 0.260869 30.6163 0.288529 30.5852 0.343851C30.1767 1.0704 29.7242 2.01825 29.4073 2.76325C25.8353 2.22849 22.2817 2.22849 18.7829 2.76325C18.466 2.00169 17.9971 1.0704 17.5868 0.343851C17.5556 0.290375 17.4952 0.262714 17.4347 0.271937C14.1155 0.843604 10.9392 1.84493 7.97535 3.20586C7.94969 3.21692 7.9277 3.23538 7.91311 3.25933C1.88831 12.2603 0.237865 21.0399 1.04752 29.7108C1.05118 29.7532 1.07499 29.7938 1.10797 29.8195C5.08296 32.7387 8.93341 34.5109 12.7124 35.6855C12.7728 35.704 12.8369 35.6819 12.8754 35.632C13.7693 34.4113 14.5662 33.1241 15.2494 31.7705C15.2897 31.6913 15.2512 31.5972 15.1688 31.5659C13.9049 31.0864 12.7014 30.5018 11.5437 29.838C11.4521 29.7845 11.4448 29.6536 11.529 29.5908C11.7726 29.4083 12.0163 29.2183 12.2489 29.0266C12.291 28.9915 12.3497 28.9841 12.3992 29.0063C20.0047 32.4787 28.2386 32.4787 35.7545 29.0063C35.8039 28.9823 35.8626 28.9897 35.9065 29.0247C36.1392 29.2165 36.3828 29.4083 36.6283 29.5908C36.7125 29.6536 36.707 29.7845 36.6154 29.838C35.4578 30.5147 34.2542 31.0864 32.9885 31.564C32.9061 31.5954 32.8694 31.6913 32.9097 31.7705C33.6076 33.1222 34.4045 34.4094 35.2819 35.6302C35.3185 35.6819 35.3844 35.704 35.4449 35.6855C39.2422 34.5109 43.0926 32.7387 47.0676 29.8195C47.1024 29.7938 47.1244 29.755 47.1281 29.7126C48.0971 19.6882 45.5051 10.9805 40.257 3.26117C40.2442 3.23538 40.2223 3.21692 40.1966 3.20586ZM16.3851 24.4311C14.0954 24.4311 12.2086 22.3289 12.2086 19.7472C12.2086 17.1655 14.0588 15.0633 16.3851 15.0633C18.7298 15.0633 20.5983 17.1839 20.5616 19.7472C20.5616 22.3289 18.7115 24.4311 16.3851 24.4311ZM31.8271 24.4311C29.5374 24.4311 27.6507 22.3289 27.6507 19.7472C27.6507 17.1655 29.5007 15.0633 31.8271 15.0633C34.1718 15.0633 36.0402 17.1839 36.0036 19.7472C36.0036 22.3289 34.1718 24.4311 31.8271 24.4311Z" fill="#5865F2"/>
</svg>
