<svg width="36" height="28" viewBox="0 0 36 28" fill="none" xmlns="http://www.w3.org/2000/svg">
<path d="M30.4887 2.83436C28.2258 1.78489 25.8062 1.02218 23.2766 0.587891C22.9659 1.14464 22.603 1.89348 22.3527 2.48917C19.6637 2.08832 16.9994 2.08832 14.3598 2.48917C14.1096 1.89348 13.7384 1.14464 13.425 0.587891C10.8926 1.02218 8.47023 1.78769 6.20734 2.83991C1.64307 9.67664 0.405776 16.3436 1.02443 22.9158C4.05169 25.1567 6.98547 26.5179 9.86975 27.4087C10.5819 26.4372 11.217 25.4044 11.7642 24.316C10.7221 23.9235 9.72402 23.4392 8.78095 22.8769C9.03114 22.6931 9.27587 22.501 9.51231 22.3034C15.2644 24.9702 21.5141 24.9702 27.1975 22.3034C27.4367 22.501 27.6814 22.6931 27.9288 22.8769C26.983 23.4419 25.9822 23.9263 24.9401 24.3188C25.4872 25.4044 26.1196 26.44 26.8345 27.4114C29.7216 26.5207 32.6581 25.1595 35.6853 22.9158C36.4112 15.2969 34.4453 8.6912 30.4887 2.83436ZM12.5478 18.8739C10.8211 18.8739 9.40506 17.2761 9.40506 15.3303C9.40506 13.3845 10.7909 11.7839 12.5478 11.7839C14.3048 11.7839 15.7208 13.3817 15.6906 15.3303C15.6933 17.2761 14.3048 18.8739 12.5478 18.8739ZM24.162 18.8739C22.4353 18.8739 21.0192 17.2761 21.0192 15.3303C21.0192 13.3845 22.405 11.7839 24.162 11.7839C25.9189 11.7839 27.335 13.3817 27.3047 15.3303C27.3047 17.2761 25.9189 18.8739 24.162 18.8739Z" fill="white"/>
</svg>
