<svg width="93" height="16" viewBox="0 0 93 16" fill="none" xmlns="http://www.w3.org/2000/svg">
<path d="M0.000488281 1.43066H7.51048C9.32089 1.43066 10.8503 1.71737 12.1051 2.28804C13.3564 2.85866 14.2947 3.6548 14.9166 4.67363C15.5379 5.69246 15.8515 6.85882 15.8515 8.17272C15.8515 9.45878 15.5269 10.6251 14.8777 11.669C14.2286 12.7157 13.2409 13.5424 11.9123 14.1521C10.5838 14.7617 8.93829 15.0679 6.97158 15.0679H0.000488281V1.43066ZM6.89439 11.6022C8.11315 11.6022 9.05144 11.2932 9.7059 10.678C10.3608 10.06 10.6883 9.21938 10.6883 8.15324C10.6883 7.16501 10.3963 6.37722 9.81329 5.78708C9.23028 5.19694 8.34713 4.89911 7.16672 4.89911H4.8174V11.6022H6.89439Z" fill="white"/>
<path d="M27.0952 15.0513C26.0553 14.7785 25.117 14.3833 24.2837 13.8627V10.6281C24.9137 11.1208 25.758 11.5272 26.8171 11.8473C27.8762 12.1647 28.8999 12.3233 29.8899 12.3233C30.3521 12.3233 30.7016 12.2621 30.938 12.1396C31.1749 12.0171 31.2933 11.8696 31.2933 11.6998C31.2933 11.5049 31.23 11.3435 31.1005 11.2126C30.9711 11.0818 30.7208 10.9732 30.3497 10.8814L28.0388 10.3553C26.7155 10.0435 25.7772 9.61202 25.2191 9.05808C24.6605 8.50689 24.3825 7.78313 24.3825 6.88681C24.3825 6.13241 24.6246 5.47829 25.1146 4.91874C25.6012 4.35924 26.2945 3.92775 27.194 3.62432C28.0939 3.31813 29.1444 3.16504 30.3521 3.16504C31.4304 3.16504 32.4181 3.28194 33.318 3.51578C34.2175 3.74962 34.9601 4.04745 35.5518 4.4121V7.47139C34.9462 7.10673 34.2529 6.82002 33.4609 6.60285C32.6712 6.38853 31.86 6.28275 31.0233 6.28275C29.8156 6.28275 29.2134 6.49151 29.2134 6.90628C29.2134 7.10117 29.3069 7.2459 29.4939 7.34333C29.6809 7.44075 30.0247 7.54098 30.5228 7.64676L32.4483 7.9975C33.7059 8.21742 34.6437 8.60436 35.2598 9.1555C35.8764 9.70669 36.1842 10.5223 36.1842 11.6024C36.1842 12.7854 35.6755 13.7235 34.6547 14.4194C33.634 15.1154 32.187 15.4633 30.3109 15.4633C29.2077 15.4606 28.1351 15.3241 27.0952 15.0513Z" fill="white"/>
<path d="M40.7292 14.6423C39.6265 14.0967 38.7927 13.3562 38.237 12.4209C37.6814 11.4856 37.4009 10.4334 37.4009 9.26421C37.4009 8.09509 37.6895 7.04843 38.2673 6.12703C38.845 5.20562 39.6922 4.48187 40.8093 3.95576C41.9259 3.42965 43.2603 3.16797 44.8146 3.16797C46.7401 3.16797 48.3386 3.57718 49.6096 4.39556V7.96148C49.1614 7.64969 48.6383 7.39637 48.0414 7.20153C47.4444 7.00668 46.8063 6.90921 46.124 6.90921C44.9302 6.90921 43.9977 7.12914 43.3236 7.57174C42.6494 8.01435 42.3114 8.59057 42.3114 9.30597C42.3114 10.0074 42.6384 10.5809 43.2933 11.0319C43.9483 11.48 44.8971 11.7055 46.1432 11.7055C46.7842 11.7055 47.4171 11.6109 48.0414 11.4244C48.6632 11.2351 49.1997 11.004 49.648 10.7312V14.1802C48.237 15.0376 46.6001 15.4662 44.7374 15.4662C43.1696 15.4607 41.8325 15.1879 40.7292 14.6423Z" fill="white"/>
<path d="M54.4126 14.642C53.3012 14.0964 52.4541 13.3504 51.8706 12.4011C51.2875 11.4519 50.9932 10.3941 50.9932 9.22496C50.9932 8.05584 51.2847 7.01194 51.8706 6.09614C52.4565 5.18029 53.2984 4.46209 54.4045 3.94154C55.5072 3.42098 56.8252 3.16211 58.3518 3.16211C59.8789 3.16211 61.1964 3.42098 62.2996 3.94154C63.4028 4.46209 64.2447 5.17473 64.8225 6.08497C65.4002 6.99526 65.6889 8.03912 65.6889 9.22221C65.6889 10.3913 65.4002 11.4491 64.8225 12.3983C64.2447 13.3476 63.4 14.0936 62.2886 14.6392C61.1772 15.1848 59.865 15.4576 58.3494 15.4576C56.8334 15.4576 55.5211 15.1876 54.4126 14.642ZM60.2639 11.1847C60.7318 10.7115 60.9682 10.0851 60.9682 9.30571C60.9682 8.52628 60.7342 7.90551 60.2639 7.44618C59.7964 6.9841 59.1578 6.75306 58.3494 6.75306C57.5267 6.75306 56.8828 6.9841 56.4124 7.44618C55.9449 7.90831 55.711 8.52628 55.711 9.30571C55.711 10.0851 55.9449 10.7115 56.4124 11.1847C56.8804 11.6579 57.5267 11.8973 58.3494 11.8973C59.1578 11.8945 59.7964 11.6579 60.2639 11.1847Z" fill="white"/>
<path d="M77.2596 3.88561V8.09453C76.7701 7.76883 76.1372 7.60737 75.3533 7.60737C74.3268 7.60737 73.5347 7.92197 72.9843 8.55106C72.4315 9.18019 72.1563 10.16 72.1563 11.485V15.0704H67.4385V3.67129H72.0604V7.29563C72.3159 5.97057 72.7316 4.99354 73.3036 4.3616C73.8732 3.73251 74.6101 3.41797 75.5072 3.41797C76.1866 3.41797 76.7701 3.57386 77.2596 3.88561Z" fill="white"/>
<path d="M92.9349 1.04102V15.0708H88.2167V12.5182C87.8178 13.4785 87.2127 14.2106 86.3986 14.7117C85.584 15.21 84.5771 15.4605 83.3833 15.4605C82.316 15.4605 81.3864 15.1988 80.591 14.6727C79.7961 14.1466 79.1828 13.4256 78.7509 12.5098C78.3217 11.5939 78.1041 10.5584 78.1041 9.40045C78.0907 8.20625 78.3189 7.13451 78.7892 6.18527C79.2571 5.23603 79.9198 4.4956 80.7727 3.96388C81.6256 3.43221 82.5994 3.16498 83.6916 3.16498C85.9393 3.16498 87.4467 4.15317 88.2167 6.12679V1.04102H92.9349ZM87.5128 11.1068C87.9942 10.6336 88.2334 10.0184 88.2334 9.26683C88.2334 8.54027 87.9995 7.94733 87.532 7.49361C87.0641 7.03989 86.423 6.8116 85.6171 6.8116C84.8222 6.8116 84.1869 7.04264 83.7108 7.50472C83.2347 7.96685 82.9983 8.5653 82.9983 9.30578C82.9983 10.0463 83.2347 10.6503 83.7108 11.118C84.1869 11.5856 84.814 11.8194 85.5979 11.8194C86.3928 11.8167 87.031 11.58 87.5128 11.1068Z" fill="white"/>
<path d="M19.8268 4.88509C21.1256 4.88509 22.179 3.92791 22.179 2.74721C22.179 1.5665 21.1256 0.609375 19.8268 0.609375C18.5275 0.609375 17.4746 1.5665 17.4746 2.74721C17.4746 3.92791 18.5275 4.88509 19.8268 4.88509Z" fill="white"/>
<path d="M17.4727 6.35742C18.9139 6.98651 20.7022 7.01435 22.1766 6.35742V15.1316H17.4727V6.35742Z" fill="white"/>
</svg>
