<svg width="36" height="30" viewBox="0 0 37 36" fill="none" xmlns="http://www.w3.org/2000/svg">
<path fill-rule="evenodd" clip-rule="evenodd" d="M18.8555 0.367188C8.91047 0.367188 0.855469 8.45179 0.855469 18.4333C0.855469 26.4276 6.00797 33.1799 13.163 35.5736C14.063 35.7317 14.4005 35.1897 14.4005 34.7155C14.4005 34.2864 14.378 32.8637 14.378 31.3507C9.85547 32.1862 8.68547 30.2441 8.32547 29.2279C8.12297 28.7085 7.24547 27.1051 6.48047 26.676C5.85047 26.3373 4.95047 25.5017 6.45797 25.4792C7.87547 25.4566 8.88797 26.7889 9.22547 27.3309C10.8455 30.0634 13.433 29.2956 14.468 28.8214C14.6255 27.6471 15.098 26.8567 15.6155 26.405C11.6105 25.9534 7.42547 24.3952 7.42547 17.4849C7.42547 15.5202 8.12297 13.8942 9.27047 12.6296C9.09047 12.1779 8.46047 10.3262 9.45047 7.84206C9.45047 7.84206 10.958 7.36783 14.4005 9.69384C15.8405 9.28735 17.3705 9.08411 18.9005 9.08411C20.4305 9.08411 21.9605 9.28735 23.4005 9.69384C26.843 7.34524 28.3505 7.84206 28.3505 7.84206C29.3405 10.3262 28.7105 12.1779 28.5305 12.6296C29.678 13.8942 30.3755 15.4976 30.3755 17.4849C30.3755 24.4178 26.168 25.9534 22.163 26.405C22.8155 26.9696 23.378 28.0536 23.378 29.7473C23.378 32.1636 23.3555 34.1057 23.3555 34.7155C23.3555 35.1897 23.693 35.7543 24.593 35.5736C28.1662 34.3628 31.2712 32.0578 33.471 28.983C35.6707 25.9083 36.8544 22.2186 36.8555 18.4333C36.8555 8.45179 28.8005 0.367188 18.8555 0.367188Z" fill="black"/>
</svg>
