<svg width="221" height="36" viewBox="0 0 221 36" fill="none" xmlns="http://www.w3.org/2000/svg">
<g clip-path="url(#clip0_7487_46865)">
<path d="M38.4205 10.1395H22.6582C20.7865 10.1395 19.2431 11.6918 19.2431 13.6074V14.4991C19.2431 16.4147 20.7865 17.934 22.6911 17.934H38.4533C40.3251 17.934 41.8685 16.4147 41.8685 14.4991V13.6074C41.8685 11.6918 40.3251 10.1395 38.4533 10.1395H38.4205ZM29.9155 19.3872H22.2313C21.8405 19.3828 21.4526 19.4565 21.0903 19.6039C20.7279 19.7513 20.3982 19.9696 20.1203 20.246C19.8424 20.5225 19.6217 20.8517 19.4712 21.2145C19.3206 21.5773 19.2431 21.9665 19.2431 22.3597V23.1193C19.2431 24.7707 20.5566 26.1248 22.1985 26.1248H29.9155C31.5574 26.1248 32.8709 24.8037 32.8709 23.1523V22.3597C32.8709 20.7083 31.5574 19.3872 29.9155 19.3872ZM29.4557 27.545H13.6935C11.7889 27.545 10.2783 29.0973 10.2783 31.0129V31.8716C10.2783 33.7872 11.7889 35.3395 13.6935 35.3395H29.4557C31.3603 35.3395 32.9037 33.7872 32.9037 31.8716V31.0459C32.9037 29.1303 31.3603 27.578 29.4557 27.578V27.545ZM4.43314 27.545H3.44799C1.54339 27.545 0 29.0973 0 31.0459V31.9046C0 33.8202 1.54339 35.3725 3.44799 35.3725H4.43314C6.33774 35.3725 7.84829 33.8202 7.84829 31.9046V31.0459C7.84829 29.1303 6.33774 27.578 4.43314 27.578V27.545ZM49.9138 28.8661C50.7348 33.7542 55.4963 35.8019 61.0131 35.8019C67.2523 35.8019 71.7511 33.0606 71.7511 27.7762C71.7511 24.2753 69.6823 21.6 65.2163 20.6422L59.6339 19.5193C58.1562 19.189 57.8606 18.5285 57.8606 17.8679C57.8606 17.0092 58.5174 15.9853 60.5533 15.9853C62.852 15.9853 64.264 17.3064 64.4939 18.7927L71.3899 17.4386C70.4376 13.3101 66.5299 10.5688 60.6519 10.5688C54.6753 10.5688 50.4721 13.7395 50.4721 18.6275C50.4721 22.3597 52.9678 24.7376 57.368 25.5303L62.1624 26.4881C63.9028 26.8184 64.4939 27.4129 64.4939 28.2386C64.4939 29.2624 63.4431 30.1211 61.44 30.1211C59.4369 30.1211 57.5979 29.3615 57.2695 27.3468L49.9138 28.8661ZM85.0505 29.1633C81.6682 29.1633 79.4024 26.6863 79.4024 23.2184C79.4024 19.7505 81.6682 17.2404 85.0505 17.2404C87.4477 17.2404 89.3851 18.5615 90.0419 21.4349L97.1021 19.7505C95.7886 14.1358 90.7972 10.6019 85.0505 10.6019C77.9903 10.6019 72.1452 15.7211 72.1452 23.1853C72.1452 30.7156 77.9903 35.8019 85.0505 35.8019C90.9285 35.8019 95.8871 32.1688 97.1021 26.5211L90.1733 25.0019C89.3851 27.8753 87.4477 29.1633 85.0505 29.1633ZM113.849 10.9982C112.18 10.9813 110.539 11.425 109.103 12.281C107.667 13.137 106.492 14.3725 105.706 15.8532V11.3285H98.1529V35.1083H105.706V27.611C105.706 21.4679 108.563 18.6936 113.849 18.6936H115.196L115.524 11.1303C114.966 10.9982 114.506 10.9652 113.849 10.9652V10.9982ZM120.942 1.99035e-05C120.376 -0.00874075 119.814 0.0958465 119.289 0.307693C118.763 0.51954 118.285 0.834414 117.881 1.23399C117.478 1.63356 117.158 2.10984 116.939 2.63512C116.72 3.16039 116.608 3.72416 116.608 4.2936C116.608 6.73764 118.414 8.52112 120.942 8.52112C123.504 8.52112 125.31 6.73764 125.31 4.2936C125.31 1.98167 123.504 1.99035e-05 120.942 1.99035e-05ZM124.719 35.0753V11.2954H117.166V35.0753H124.719ZM156.999 10.6349C155.391 10.5831 153.794 10.9152 152.338 11.6041C150.883 12.2931 149.61 13.3191 148.625 14.5982C147.79 13.3218 146.64 12.2855 145.287 11.5908C143.935 10.896 142.425 10.5666 140.908 10.6349C139.609 10.571 138.312 10.7953 137.109 11.2919C135.906 11.7885 134.826 12.5451 133.946 13.5083V11.3285H126.394V35.1083H133.946V23.4496C133.946 19.4863 135.72 17.4386 138.445 17.4386C140.711 17.4386 142.451 19.123 142.451 21.8312V35.0753H150.004V23.4496C150.004 19.4863 151.81 17.4386 154.601 17.4386C156.802 17.4386 158.542 19.123 158.542 21.8312V35.0753H166.029V20.2129C166.029 14.433 162.023 10.6349 156.999 10.6349ZM181.956 10.6349C178.934 10.6349 176.472 11.5597 174.633 13.211V0.990846H167.08V35.0753H174.633V33.1927C176.472 34.8441 178.902 35.8019 181.988 35.8019C188.228 35.8019 193.515 30.7156 193.515 23.1853C193.515 15.7211 188.26 10.6349 181.988 10.6349H181.956ZM180.445 29.3615C179.657 29.3489 178.88 29.1781 178.159 28.8591C177.438 28.5401 176.788 28.0794 176.246 27.504C175.705 26.9286 175.283 26.2501 175.006 25.5085C174.729 24.7669 174.602 23.977 174.633 23.1853C174.606 22.3964 174.737 21.6101 175.016 20.8723C175.295 20.1345 175.717 19.46 176.258 18.8882C176.799 18.3163 177.448 17.8586 178.167 17.5416C178.886 17.2247 179.66 17.0549 180.445 17.0422C183.729 17.0422 186.126 19.5523 186.126 23.1853C186.126 26.8844 183.729 29.3615 180.445 29.3615ZM221 11.3285H213.447V13.211C211.641 11.5597 209.178 10.6019 206.124 10.6019C199.885 10.6019 194.598 15.7211 194.598 23.1853C194.598 30.7156 199.852 35.8019 206.124 35.8019C209.178 35.8019 211.641 34.8441 213.48 33.1597V35.0753H221V11.2954V11.3285ZM207.668 29.3615C204.384 29.3615 201.987 26.8844 201.987 23.1853C201.987 19.5523 204.384 17.0422 207.668 17.0422C208.453 17.0549 209.227 17.2247 209.946 17.5416C210.665 17.8586 211.313 18.3163 211.854 18.8882C212.396 19.46 212.818 20.1345 213.097 20.8723C213.376 21.6101 213.506 22.3964 213.48 23.1853C213.511 23.977 213.384 24.7669 213.107 25.5085C212.83 26.2501 212.408 26.9286 211.867 27.504C211.325 28.0794 210.675 28.5401 209.954 28.8591C209.233 29.1781 208.455 29.3489 207.668 29.3615Z" fill="#2B283A"/>
</g>
<defs>
<clipPath id="clip0_7487_46865">
<rect width="221" height="36" fill="white"/>
</clipPath>
</defs>
</svg>
