<svg width="543" height="62" viewBox="0 0 543 76" fill="none" xmlns="http://www.w3.org/2000/svg">
<path opacity="0.3" d="M55.04 61V63H57.0457L57.04 60.9943L55.04 61ZM54.92 19L56.92 18.9943L56.9143 17H54.92V19ZM45.14 19V17H44.0018L43.4205 17.9785L45.14 19ZM30.74 43.24L29.0318 44.2802L30.7612 47.1203L32.4595 44.2615L30.74 43.24ZM15.98 19L17.6882 17.9598L17.1038 17H15.98V19ZM6.2 19V17H4.2V19H6.2ZM6.2 61H4.2V63H6.2V61ZM17.18 61V63H19.18V61H17.18ZM17.18 39.34L18.8851 38.2947L15.18 32.2506V39.34H17.18ZM27.92 56.86L26.2149 57.9053L26.8001 58.86H27.92V56.86ZM33.2 56.86V58.86H34.3363L34.918 57.884L33.2 56.86ZM44 38.74L46 38.7292L45.9612 31.5431L42.282 37.716L44 38.74ZM44.12 61L42.12 61.0108L42.1308 63H44.12V61ZM57.04 60.9943L56.92 18.9943L52.92 19.0057L53.04 61.0057L57.04 60.9943ZM54.92 17H45.14V21H54.92V17ZM43.4205 17.9785L29.0205 42.2185L32.4595 44.2615L46.8595 20.0215L43.4205 17.9785ZM32.4482 42.1998L17.6882 17.9598L14.2718 20.0402L29.0318 44.2802L32.4482 42.1998ZM15.98 17H6.2V21H15.98V17ZM4.2 19V61H8.2V19H4.2ZM6.2 63H17.18V59H6.2V63ZM19.18 61V39.34H15.18V61H19.18ZM15.4749 40.3853L26.2149 57.9053L29.6251 55.8147L18.8851 38.2947L15.4749 40.3853ZM27.92 58.86H33.2V54.86H27.92V58.86ZM34.918 57.884L45.718 39.764L42.282 37.716L31.482 55.836L34.918 57.884ZM42 38.7508L42.12 61.0108L46.12 60.9892L46 38.7292L42 38.7508ZM44.12 63H55.04V59H44.12V63ZM75.5561 51.82H73.5561V53.82H75.5561V51.82ZM75.5561 44.14V42.14H73.5561V44.14H75.5561ZM94.2161 44.14V46.14H96.2161V44.14H94.2161ZM94.2161 35.26H96.2161V33.26H94.2161V35.26ZM75.5561 35.26H73.5561V37.26H75.5561V35.26ZM75.5561 28.18V26.18H73.5561V28.18H75.5561ZM96.7361 28.18V30.18H98.7361V28.18H96.7361ZM96.7361 19H98.7361V17H96.7361V19ZM63.7961 19V17H61.7961V19H63.7961ZM63.7961 61H61.7961V63H63.7961V61ZM97.5161 61V63H99.5161V61H97.5161ZM97.5161 51.82H99.5161V49.82H97.5161V51.82ZM77.5561 51.82V44.14H73.5561V51.82H77.5561ZM75.5561 46.14H94.2161V42.14H75.5561V46.14ZM96.2161 44.14V35.26H92.2161V44.14H96.2161ZM94.2161 33.26H75.5561V37.26H94.2161V33.26ZM77.5561 35.26V28.18H73.5561V35.26H77.5561ZM75.5561 30.18H96.7361V26.18H75.5561V30.18ZM98.7361 28.18V19H94.7361V28.18H98.7361ZM96.7361 17H63.7961V21H96.7361V17ZM61.7961 19V61H65.7961V19H61.7961ZM63.7961 63H97.5161V59H63.7961V63ZM99.5161 61V51.82H95.5161V61H99.5161ZM97.5161 49.82H75.5561V53.82H97.5161V49.82ZM116.219 51.82H114.219V53.82H116.219V51.82ZM116.219 44.14V42.14H114.219V44.14H116.219ZM134.879 44.14V46.14H136.879V44.14H134.879ZM134.879 35.26H136.879V33.26H134.879V35.26ZM116.219 35.26H114.219V37.26H116.219V35.26ZM116.219 28.18V26.18H114.219V28.18H116.219ZM137.399 28.18V30.18H139.399V28.18H137.399ZM137.399 19H139.399V17H137.399V19ZM104.459 19V17H102.459V19H104.459ZM104.459 61H102.459V63H104.459V61ZM138.179 61V63H140.179V61H138.179ZM138.179 51.82H140.179V49.82H138.179V51.82ZM118.219 51.82V44.14H114.219V51.82H118.219ZM116.219 46.14H134.879V42.14H116.219V46.14ZM136.879 44.14V35.26H132.879V44.14H136.879ZM134.879 33.26H116.219V37.26H134.879V33.26ZM118.219 35.26V28.18H114.219V35.26H118.219ZM116.219 30.18H137.399V26.18H116.219V30.18ZM139.399 28.18V19H135.399V28.18H139.399ZM137.399 17H104.459V21H137.399V17ZM102.459 19V61H106.459V19H102.459ZM104.459 63H138.179V59H104.459V63ZM140.179 61V51.82H136.179V61H140.179ZM138.179 49.82H116.219V53.82H138.179V49.82ZM154.061 61H152.061V63H154.061V61ZM165.941 61V63H167.941V61H165.941ZM165.941 28.42V26.42H163.941V28.42H165.941ZM178.781 28.42V30.42H180.781V28.42H178.781ZM178.781 19H180.781V17H178.781V19ZM141.161 19V17H139.161V19H141.161ZM141.161 28.42H139.161V30.42H141.161V28.42ZM154.061 28.42H156.061V26.42H154.061V28.42ZM154.061 63H165.941V59H154.061V63ZM167.941 61V28.42H163.941V61H167.941ZM165.941 30.42H178.781V26.42H165.941V30.42ZM180.781 28.42V19H176.781V28.42H180.781ZM178.781 17H141.161V21H178.781V17ZM139.161 19V28.42H143.161V19H139.161ZM141.161 30.42H154.061V26.42H141.161V30.42ZM152.061 28.42V61H156.061V28.42H152.061ZM222.548 63.84C236.964 63.84 247.888 53.829 247.888 40H243.888C243.888 51.371 235.012 59.84 222.548 59.84V63.84ZM247.888 40C247.888 26.171 236.964 16.16 222.548 16.16V20.16C235.012 20.16 243.888 28.629 243.888 40H247.888ZM222.548 16.16C208.132 16.16 197.208 26.171 197.208 40H201.208C201.208 28.629 210.084 20.16 222.548 20.16V16.16ZM197.208 40C197.208 53.829 208.132 63.84 222.548 63.84V59.84C210.084 59.84 201.208 51.371 201.208 40H197.208ZM222.548 50C217.34 50 213.208 46.2036 213.208 40H209.208C209.208 48.3164 215.036 54 222.548 54V50ZM213.208 40C213.208 33.7964 217.34 30 222.548 30V26C215.036 26 209.208 31.6836 209.208 40H213.208ZM222.548 30C227.756 30 231.888 33.7964 231.888 40H235.888C235.888 31.6836 230.06 26 222.548 26V30ZM231.888 40C231.888 46.2036 227.756 50 222.548 50V54C230.06 54 235.888 48.3164 235.888 40H231.888ZM291.58 19H293.58V17H291.58V19ZM279.88 19V17H277.88V19H279.88ZM263.98 19H265.98V17H263.98V19ZM252.1 19V17H250.1V19H252.1ZM271.84 63.84C278.42 63.84 283.915 61.975 287.769 58.1893C291.629 54.3982 293.58 48.9384 293.58 42.28H289.58C289.58 48.1617 287.872 52.4818 284.966 55.3357C282.055 58.195 277.681 59.84 271.84 59.84V63.84ZM293.58 42.28V19H289.58V42.28H293.58ZM291.58 17H279.88V21H291.58V17ZM277.88 19V41.92H281.88V19H277.88ZM277.88 41.92C277.88 45.2925 277.17 47.2627 276.236 48.3713C275.358 49.4126 274.021 50 271.96 50V54C274.82 54 277.442 53.1474 279.295 50.9487C281.09 48.8173 281.88 45.7475 281.88 41.92H277.88ZM271.96 50C269.862 50 268.511 49.4083 267.629 48.3672C266.691 47.2601 265.98 45.293 265.98 41.92H261.98C261.98 45.747 262.77 48.8199 264.577 50.9528C266.44 53.1517 269.078 54 271.96 54V50ZM265.98 41.92V19H261.98V41.92H265.98ZM263.98 17H252.1V21H263.98V17ZM250.1 19V42.28H254.1V19H250.1ZM250.1 42.28C250.1 48.9384 252.052 54.3982 255.911 58.1893C259.765 61.975 265.261 63.84 271.84 63.84V59.84C266 59.84 261.625 58.195 258.714 55.3357C255.809 52.4818 254.1 48.1617 254.1 42.28H250.1ZM325.958 61L324.306 62.1278L324.902 63H325.958V61ZM338.678 61V63H342.477L340.327 59.8682L338.678 61ZM329.618 47.8L328.749 45.9989L326.651 47.0115L327.969 48.9318L329.618 47.8ZM299.978 19V17H297.978V19H299.978ZM299.978 61H297.978V63H299.978V61ZM311.858 61V63H313.858V61H311.858ZM311.858 49.84V47.84H309.858V49.84H311.858ZM318.338 49.84L319.99 48.7122L319.394 47.84H318.338V49.84ZM311.858 40.66H309.858V42.66H311.858V40.66ZM311.858 28.36V26.36H309.858V28.36H311.858ZM325.958 63H338.678V59H325.958V63ZM340.327 59.8682L331.267 46.6682L327.969 48.9318L337.029 62.1318L340.327 59.8682ZM330.488 49.6011C336.395 46.7493 339.838 41.492 339.838 34.54H335.838C335.838 39.948 333.281 43.8107 328.749 45.9989L330.488 49.6011ZM339.838 34.54C339.838 29.1985 337.813 24.7292 334.084 21.6315C330.397 18.5691 325.234 17 319.178 17V21C324.582 21 328.75 22.4009 331.528 24.7085C334.263 26.9808 335.838 30.2815 335.838 34.54H339.838ZM319.178 17H299.978V21H319.178V17ZM297.978 19V61H301.978V19H297.978ZM299.978 63H311.858V59H299.978V63ZM313.858 61V49.84H309.858V61H313.858ZM311.858 51.84H318.338V47.84H311.858V51.84ZM316.686 50.9678L324.306 62.1278L327.61 59.8722L319.99 48.7122L316.686 50.9678ZM323.838 34.54C323.838 36.0125 323.384 36.93 322.695 37.5189C321.954 38.1507 320.642 38.66 318.458 38.66V42.66C321.194 42.66 323.572 42.0293 325.292 40.5611C327.062 39.05 327.838 36.9075 327.838 34.54H323.838ZM318.458 38.66H311.858V42.66H318.458V38.66ZM313.858 40.66V28.36H309.858V40.66H313.858ZM311.858 30.36H318.458V26.36H311.858V30.36ZM318.458 30.36C320.643 30.36 321.951 30.8694 322.689 31.5041C323.378 32.0966 323.838 33.0283 323.838 34.54H327.838C327.838 32.1517 327.068 29.9934 325.297 28.4709C323.575 26.9906 321.193 26.36 318.458 26.36V30.36ZM371.493 61H369.493V63H371.493V61ZM383.373 61V63H385.373V61H383.373ZM383.373 28.42V26.42H381.373V28.42H383.373ZM396.213 28.42V30.42H398.213V28.42H396.213ZM396.213 19H398.213V17H396.213V19ZM358.593 19V17H356.593V19H358.593ZM358.593 28.42H356.593V30.42H358.593V28.42ZM371.493 28.42H373.493V26.42H371.493V28.42ZM371.493 63H383.373V59H371.493V63ZM385.373 61V28.42H381.373V61H385.373ZM383.373 30.42H396.213V26.42H383.373V30.42ZM398.213 28.42V19H394.213V28.42H398.213ZM396.213 17H358.593V21H396.213V17ZM356.593 19V28.42H360.593V19H356.593ZM358.593 30.42H371.493V26.42H358.593V30.42ZM369.493 28.42V61H373.493V28.42H369.493ZM412.749 51.82H410.749V53.82H412.749V51.82ZM412.749 44.14V42.14H410.749V44.14H412.749ZM431.409 44.14V46.14H433.409V44.14H431.409ZM431.409 35.26H433.409V33.26H431.409V35.26ZM412.749 35.26H410.749V37.26H412.749V35.26ZM412.749 28.18V26.18H410.749V28.18H412.749ZM433.929 28.18V30.18H435.929V28.18H433.929ZM433.929 19H435.929V17H433.929V19ZM400.989 19V17H398.989V19H400.989ZM400.989 61H398.989V63H400.989V61ZM434.709 61V63H436.709V61H434.709ZM434.709 51.82H436.709V49.82H434.709V51.82ZM414.749 51.82V44.14H410.749V51.82H414.749ZM412.749 46.14H431.409V42.14H412.749V46.14ZM433.409 44.14V35.26H429.409V44.14H433.409ZM431.409 33.26H412.749V37.26H431.409V33.26ZM414.749 35.26V28.18H410.749V35.26H414.749ZM412.749 30.18H433.929V26.18H412.749V30.18ZM435.929 28.18V19H431.929V28.18H435.929ZM433.929 17H400.989V21H433.929V17ZM398.989 19V61H402.989V19H398.989ZM400.989 63H434.709V59H400.989V63ZM436.709 61V51.82H432.709V61H436.709ZM434.709 49.82H412.749V53.82H434.709V49.82ZM473.092 61L471.237 61.7498L471.743 63H473.092V61ZM485.452 61V63H488.525L487.28 60.1901L485.452 61ZM466.852 19L468.68 18.1901L468.153 17H466.852V19ZM455.152 19V17H453.848L453.322 18.1923L455.152 19ZM436.612 61L434.782 60.1923L433.543 63H436.612V61ZM448.732 61V63H450.08L450.586 61.7498L448.732 61ZM452.032 52.84V50.84H450.683L450.177 52.0902L452.032 52.84ZM469.792 52.84L471.646 52.0902L471.14 50.84H469.792V52.84ZM455.512 44.08L453.656 43.3344L452.553 46.08H455.512V44.08ZM460.912 30.64L462.767 29.8944L460.912 25.2755L459.056 29.8944L460.912 30.64ZM466.312 44.08V46.08H469.271L468.167 43.3344L466.312 44.08ZM473.092 63H485.452V59H473.092V63ZM487.28 60.1901L468.68 18.1901L465.023 19.8098L483.623 61.8099L487.28 60.1901ZM466.852 17H455.152V21H466.852V17ZM453.322 18.1923L434.782 60.1923L438.441 61.8077L456.981 19.8077L453.322 18.1923ZM436.612 63H448.732V59H436.612V63ZM450.586 61.7498L453.886 53.5898L450.177 52.0902L446.877 60.2502L450.586 61.7498ZM452.032 54.84H469.792V50.84H452.032V54.84ZM467.937 53.5898L471.237 61.7498L474.946 60.2502L471.646 52.0902L467.937 53.5898ZM457.367 44.8256L462.767 31.3856L459.056 29.8944L453.656 43.3344L457.367 44.8256ZM459.056 31.3856L464.456 44.8256L468.167 43.3344L462.767 29.8944L459.056 31.3856ZM466.312 42.08H455.512V46.08H466.312V42.08ZM538.01 61V63H540.015L540.01 60.9943L538.01 61ZM537.89 19L539.89 18.9943L539.884 17H537.89V19ZM528.11 19V17H526.971L526.39 17.9785L528.11 19ZM513.71 43.24L512.001 44.2802L513.731 47.1203L515.429 44.2615L513.71 43.24ZM498.95 19L500.658 17.9598L500.073 17H498.95V19ZM489.17 19V17H487.17V19H489.17ZM489.17 61H487.17V63H489.17V61ZM500.15 61V63H502.15V61H500.15ZM500.15 39.34L501.855 38.2947L498.15 32.2506V39.34H500.15ZM510.89 56.86L509.184 57.9053L509.77 58.86H510.89V56.86ZM516.17 56.86V58.86H517.306L517.888 57.884L516.17 56.86ZM526.97 38.74L528.97 38.7292L528.931 31.5431L525.252 37.716L526.97 38.74ZM527.09 61L525.09 61.0108L525.1 63H527.09V61ZM540.01 60.9943L539.89 18.9943L535.89 19.0057L536.01 61.0057L540.01 60.9943ZM537.89 17H528.11V21H537.89V17ZM526.39 17.9785L511.99 42.2185L515.429 44.2615L529.829 20.0215L526.39 17.9785ZM515.418 42.1998L500.658 17.9598L497.241 20.0402L512.001 44.2802L515.418 42.1998ZM498.95 17H489.17V21H498.95V17ZM487.17 19V61H491.17V19H487.17ZM489.17 63H500.15V59H489.17V63ZM502.15 61V39.34H498.15V61H502.15ZM498.444 40.3853L509.184 57.9053L512.595 55.8147L501.855 38.2947L498.444 40.3853ZM510.89 58.86H516.17V54.86H510.89V58.86ZM517.888 57.884L528.688 39.764L525.252 37.716L514.452 55.836L517.888 57.884ZM524.97 38.7508L525.09 61.0108L529.09 60.9892L528.97 38.7292L524.97 38.7508ZM527.09 63H538.01V59H527.09V63Z" fill="white"/>
<path d="M53.04 58V60H55.0457L55.04 57.9943L53.04 58ZM52.92 16L54.92 15.9943L54.9143 14H52.92V16ZM43.14 16V14H42.0018L41.4205 14.9785L43.14 16ZM28.74 40.24L27.0318 41.2802L28.7612 44.1203L30.4595 41.2615L28.74 40.24ZM13.98 16L15.6882 14.9598L15.1038 14H13.98V16ZM4.2 16V14H2.2V16H4.2ZM4.2 58H2.2V60H4.2V58ZM15.18 58V60H17.18V58H15.18ZM15.18 36.34L16.8851 35.2947L13.18 29.2506V36.34H15.18ZM25.92 53.86L24.2149 54.9053L24.8001 55.86H25.92V53.86ZM31.2 53.86V55.86H32.3363L32.918 54.884L31.2 53.86ZM42 35.74L44 35.7292L43.9612 28.5431L40.282 34.716L42 35.74ZM42.12 58L40.12 58.0108L40.1308 60H42.12V58ZM55.04 57.9943L54.92 15.9943L50.92 16.0057L51.04 58.0057L55.04 57.9943ZM52.92 14H43.14V18H52.92V14ZM41.4205 14.9785L27.0205 39.2185L30.4595 41.2615L44.8595 17.0215L41.4205 14.9785ZM30.4482 39.1998L15.6882 14.9598L12.2718 17.0402L27.0318 41.2802L30.4482 39.1998ZM13.98 14H4.2V18H13.98V14ZM2.2 16V58H6.2V16H2.2ZM4.2 60H15.18V56H4.2V60ZM17.18 58V36.34H13.18V58H17.18ZM13.4749 37.3853L24.2149 54.9053L27.6251 52.8147L16.8851 35.2947L13.4749 37.3853ZM25.92 55.86H31.2V51.86H25.92V55.86ZM32.918 54.884L43.718 36.764L40.282 34.716L29.482 52.836L32.918 54.884ZM40 35.7508L40.12 58.0108L44.12 57.9892L44 35.7292L40 35.7508ZM42.12 60H53.04V56H42.12V60ZM73.5561 48.82H71.5561V50.82H73.5561V48.82ZM73.5561 41.14V39.14H71.5561V41.14H73.5561ZM92.2161 41.14V43.14H94.2161V41.14H92.2161ZM92.2161 32.26H94.2161V30.26H92.2161V32.26ZM73.5561 32.26H71.5561V34.26H73.5561V32.26ZM73.5561 25.18V23.18H71.5561V25.18H73.5561ZM94.7361 25.18V27.18H96.7361V25.18H94.7361ZM94.7361 16H96.7361V14H94.7361V16ZM61.7961 16V14H59.7961V16H61.7961ZM61.7961 58H59.7961V60H61.7961V58ZM95.5161 58V60H97.5161V58H95.5161ZM95.5161 48.82H97.5161V46.82H95.5161V48.82ZM75.5561 48.82V41.14H71.5561V48.82H75.5561ZM73.5561 43.14H92.2161V39.14H73.5561V43.14ZM94.2161 41.14V32.26H90.2161V41.14H94.2161ZM92.2161 30.26H73.5561V34.26H92.2161V30.26ZM75.5561 32.26V25.18H71.5561V32.26H75.5561ZM73.5561 27.18H94.7361V23.18H73.5561V27.18ZM96.7361 25.18V16H92.7361V25.18H96.7361ZM94.7361 14H61.7961V18H94.7361V14ZM59.7961 16V58H63.7961V16H59.7961ZM61.7961 60H95.5161V56H61.7961V60ZM97.5161 58V48.82H93.5161V58H97.5161ZM95.5161 46.82H73.5561V50.82H95.5161V46.82ZM114.219 48.82H112.219V50.82H114.219V48.82ZM114.219 41.14V39.14H112.219V41.14H114.219ZM132.879 41.14V43.14H134.879V41.14H132.879ZM132.879 32.26H134.879V30.26H132.879V32.26ZM114.219 32.26H112.219V34.26H114.219V32.26ZM114.219 25.18V23.18H112.219V25.18H114.219ZM135.399 25.18V27.18H137.399V25.18H135.399ZM135.399 16H137.399V14H135.399V16ZM102.459 16V14H100.459V16H102.459ZM102.459 58H100.459V60H102.459V58ZM136.179 58V60H138.179V58H136.179ZM136.179 48.82H138.179V46.82H136.179V48.82ZM116.219 48.82V41.14H112.219V48.82H116.219ZM114.219 43.14H132.879V39.14H114.219V43.14ZM134.879 41.14V32.26H130.879V41.14H134.879ZM132.879 30.26H114.219V34.26H132.879V30.26ZM116.219 32.26V25.18H112.219V32.26H116.219ZM114.219 27.18H135.399V23.18H114.219V27.18ZM137.399 25.18V16H133.399V25.18H137.399ZM135.399 14H102.459V18H135.399V14ZM100.459 16V58H104.459V16H100.459ZM102.459 60H136.179V56H102.459V60ZM138.179 58V48.82H134.179V58H138.179ZM136.179 46.82H114.219V50.82H136.179V46.82ZM152.061 58H150.061V60H152.061V58ZM163.941 58V60H165.941V58H163.941ZM163.941 25.42V23.42H161.941V25.42H163.941ZM176.781 25.42V27.42H178.781V25.42H176.781ZM176.781 16H178.781V14H176.781V16ZM139.161 16V14H137.161V16H139.161ZM139.161 25.42H137.161V27.42H139.161V25.42ZM152.061 25.42H154.061V23.42H152.061V25.42ZM152.061 60H163.941V56H152.061V60ZM165.941 58V25.42H161.941V58H165.941ZM163.941 27.42H176.781V23.42H163.941V27.42ZM178.781 25.42V16H174.781V25.42H178.781ZM176.781 14H139.161V18H176.781V14ZM137.161 16V25.42H141.161V16H137.161ZM139.161 27.42H152.061V23.42H139.161V27.42ZM150.061 25.42V58H154.061V25.42H150.061ZM220.548 60.84C234.964 60.84 245.888 50.829 245.888 37H241.888C241.888 48.371 233.012 56.84 220.548 56.84V60.84ZM245.888 37C245.888 23.171 234.964 13.16 220.548 13.16V17.16C233.012 17.16 241.888 25.629 241.888 37H245.888ZM220.548 13.16C206.132 13.16 195.208 23.171 195.208 37H199.208C199.208 25.629 208.084 17.16 220.548 17.16V13.16ZM195.208 37C195.208 50.829 206.132 60.84 220.548 60.84V56.84C208.084 56.84 199.208 48.371 199.208 37H195.208ZM220.548 47C215.34 47 211.208 43.2036 211.208 37H207.208C207.208 45.3164 213.036 51 220.548 51V47ZM211.208 37C211.208 30.7964 215.34 27 220.548 27V23C213.036 23 207.208 28.6836 207.208 37H211.208ZM220.548 27C225.756 27 229.888 30.7964 229.888 37H233.888C233.888 28.6836 228.06 23 220.548 23V27ZM229.888 37C229.888 43.2036 225.756 47 220.548 47V51C228.06 51 233.888 45.3164 233.888 37H229.888ZM289.58 16H291.58V14H289.58V16ZM277.88 16V14H275.88V16H277.88ZM261.98 16H263.98V14H261.98V16ZM250.1 16V14H248.1V16H250.1ZM269.84 60.84C276.42 60.84 281.915 58.975 285.769 55.1893C289.629 51.3982 291.58 45.9384 291.58 39.28H287.58C287.58 45.1617 285.872 49.4818 282.966 52.3357C280.055 55.195 275.681 56.84 269.84 56.84V60.84ZM291.58 39.28V16H287.58V39.28H291.58ZM289.58 14H277.88V18H289.58V14ZM275.88 16V38.92H279.88V16H275.88ZM275.88 38.92C275.88 42.2925 275.17 44.2627 274.236 45.3713C273.358 46.4126 272.021 47 269.96 47V51C272.82 51 275.442 50.1474 277.295 47.9487C279.09 45.8173 279.88 42.7475 279.88 38.92H275.88ZM269.96 47C267.862 47 266.511 46.4083 265.629 45.3672C264.691 44.2601 263.98 42.293 263.98 38.92H259.98C259.98 42.747 260.77 45.8199 262.577 47.9528C264.44 50.1517 267.078 51 269.96 51V47ZM263.98 38.92V16H259.98V38.92H263.98ZM261.98 14H250.1V18H261.98V14ZM248.1 16V39.28H252.1V16H248.1ZM248.1 39.28C248.1 45.9384 250.052 51.3982 253.911 55.1893C257.765 58.975 263.261 60.84 269.84 60.84V56.84C264 56.84 259.625 55.195 256.714 52.3357C253.809 49.4818 252.1 45.1617 252.1 39.28H248.1ZM323.958 58L322.306 59.1278L322.902 60H323.958V58ZM336.678 58V60H340.477L338.327 56.8682L336.678 58ZM327.618 44.8L326.749 42.9989L324.651 44.0115L325.969 45.9318L327.618 44.8ZM297.978 16V14H295.978V16H297.978ZM297.978 58H295.978V60H297.978V58ZM309.858 58V60H311.858V58H309.858ZM309.858 46.84V44.84H307.858V46.84H309.858ZM316.338 46.84L317.99 45.7122L317.394 44.84H316.338V46.84ZM309.858 37.66H307.858V39.66H309.858V37.66ZM309.858 25.36V23.36H307.858V25.36H309.858ZM323.958 60H336.678V56H323.958V60ZM338.327 56.8682L329.267 43.6682L325.969 45.9318L335.029 59.1318L338.327 56.8682ZM328.488 46.6011C334.395 43.7493 337.838 38.492 337.838 31.54H333.838C333.838 36.948 331.281 40.8107 326.749 42.9989L328.488 46.6011ZM337.838 31.54C337.838 26.1985 335.813 21.7292 332.084 18.6315C328.397 15.5691 323.234 14 317.178 14V18C322.582 18 326.75 19.4009 329.528 21.7085C332.263 23.9808 333.838 27.2815 333.838 31.54H337.838ZM317.178 14H297.978V18H317.178V14ZM295.978 16V58H299.978V16H295.978ZM297.978 60H309.858V56H297.978V60ZM311.858 58V46.84H307.858V58H311.858ZM309.858 48.84H316.338V44.84H309.858V48.84ZM314.686 47.9678L322.306 59.1278L325.61 56.8722L317.99 45.7122L314.686 47.9678ZM321.838 31.54C321.838 33.0125 321.384 33.93 320.695 34.5189C319.954 35.1507 318.642 35.66 316.458 35.66V39.66C319.194 39.66 321.572 39.0293 323.292 37.5611C325.062 36.05 325.838 33.9075 325.838 31.54H321.838ZM316.458 35.66H309.858V39.66H316.458V35.66ZM311.858 37.66V25.36H307.858V37.66H311.858ZM309.858 27.36H316.458V23.36H309.858V27.36ZM316.458 27.36C318.643 27.36 319.951 27.8694 320.689 28.5041C321.378 29.0966 321.838 30.0283 321.838 31.54H325.838C325.838 29.1517 325.068 26.9934 323.297 25.4709C321.575 23.9906 319.193 23.36 316.458 23.36V27.36ZM369.493 58H367.493V60H369.493V58ZM381.373 58V60H383.373V58H381.373ZM381.373 25.42V23.42H379.373V25.42H381.373ZM394.213 25.42V27.42H396.213V25.42H394.213ZM394.213 16H396.213V14H394.213V16ZM356.593 16V14H354.593V16H356.593ZM356.593 25.42H354.593V27.42H356.593V25.42ZM369.493 25.42H371.493V23.42H369.493V25.42ZM369.493 60H381.373V56H369.493V60ZM383.373 58V25.42H379.373V58H383.373ZM381.373 27.42H394.213V23.42H381.373V27.42ZM396.213 25.42V16H392.213V25.42H396.213ZM394.213 14H356.593V18H394.213V14ZM354.593 16V25.42H358.593V16H354.593ZM356.593 27.42H369.493V23.42H356.593V27.42ZM367.493 25.42V58H371.493V25.42H367.493ZM410.749 48.82H408.749V50.82H410.749V48.82ZM410.749 41.14V39.14H408.749V41.14H410.749ZM429.409 41.14V43.14H431.409V41.14H429.409ZM429.409 32.26H431.409V30.26H429.409V32.26ZM410.749 32.26H408.749V34.26H410.749V32.26ZM410.749 25.18V23.18H408.749V25.18H410.749ZM431.929 25.18V27.18H433.929V25.18H431.929ZM431.929 16H433.929V14H431.929V16ZM398.989 16V14H396.989V16H398.989ZM398.989 58H396.989V60H398.989V58ZM432.709 58V60H434.709V58H432.709ZM432.709 48.82H434.709V46.82H432.709V48.82ZM412.749 48.82V41.14H408.749V48.82H412.749ZM410.749 43.14H429.409V39.14H410.749V43.14ZM431.409 41.14V32.26H427.409V41.14H431.409ZM429.409 30.26H410.749V34.26H429.409V30.26ZM412.749 32.26V25.18H408.749V32.26H412.749ZM410.749 27.18H431.929V23.18H410.749V27.18ZM433.929 25.18V16H429.929V25.18H433.929ZM431.929 14H398.989V18H431.929V14ZM396.989 16V58H400.989V16H396.989ZM398.989 60H432.709V56H398.989V60ZM434.709 58V48.82H430.709V58H434.709ZM432.709 46.82H410.749V50.82H432.709V46.82ZM471.092 58L469.237 58.7498L469.743 60H471.092V58ZM483.452 58V60H486.525L485.28 57.1901L483.452 58ZM464.852 16L466.68 15.1901L466.153 14H464.852V16ZM453.152 16V14H451.848L451.322 15.1923L453.152 16ZM434.612 58L432.782 57.1923L431.543 60H434.612V58ZM446.732 58V60H448.08L448.586 58.7498L446.732 58ZM450.032 49.84V47.84H448.683L448.177 49.0902L450.032 49.84ZM467.792 49.84L469.646 49.0902L469.14 47.84H467.792V49.84ZM453.512 41.08L451.656 40.3344L450.553 43.08H453.512V41.08ZM458.912 27.64L460.767 26.8944L458.912 22.2755L457.056 26.8944L458.912 27.64ZM464.312 41.08V43.08H467.271L466.167 40.3344L464.312 41.08ZM471.092 60H483.452V56H471.092V60ZM485.28 57.1901L466.68 15.1901L463.023 16.8098L481.623 58.8099L485.28 57.1901ZM464.852 14H453.152V18H464.852V14ZM451.322 15.1923L432.782 57.1923L436.441 58.8077L454.981 16.8077L451.322 15.1923ZM434.612 60H446.732V56H434.612V60ZM448.586 58.7498L451.886 50.5898L448.177 49.0902L444.877 57.2502L448.586 58.7498ZM450.032 51.84H467.792V47.84H450.032V51.84ZM465.937 50.5898L469.237 58.7498L472.946 57.2502L469.646 49.0902L465.937 50.5898ZM455.367 41.8256L460.767 28.3856L457.056 26.8944L451.656 40.3344L455.367 41.8256ZM457.056 28.3856L462.456 41.8256L466.167 40.3344L460.767 26.8944L457.056 28.3856ZM464.312 39.08H453.512V43.08H464.312V39.08ZM536.01 58V60H538.015L538.01 57.9943L536.01 58ZM535.89 16L537.89 15.9943L537.884 14H535.89V16ZM526.11 16V14H524.971L524.39 14.9785L526.11 16ZM511.71 40.24L510.001 41.2802L511.731 44.1203L513.429 41.2615L511.71 40.24ZM496.95 16L498.658 14.9598L498.073 14H496.95V16ZM487.17 16V14H485.17V16H487.17ZM487.17 58H485.17V60H487.17V58ZM498.15 58V60H500.15V58H498.15ZM498.15 36.34L499.855 35.2947L496.15 29.2506V36.34H498.15ZM508.89 53.86L507.184 54.9053L507.77 55.86H508.89V53.86ZM514.17 53.86V55.86H515.306L515.888 54.884L514.17 53.86ZM524.97 35.74L526.97 35.7292L526.931 28.5431L523.252 34.716L524.97 35.74ZM525.09 58L523.09 58.0108L523.1 60H525.09V58ZM538.01 57.9943L537.89 15.9943L533.89 16.0057L534.01 58.0057L538.01 57.9943ZM535.89 14H526.11V18H535.89V14ZM524.39 14.9785L509.99 39.2185L513.429 41.2615L527.829 17.0215L524.39 14.9785ZM513.418 39.1998L498.658 14.9598L495.241 17.0402L510.001 41.2802L513.418 39.1998ZM496.95 14H487.17V18H496.95V14ZM485.17 16V58H489.17V16H485.17ZM487.17 60H498.15V56H487.17V60ZM500.15 58V36.34H496.15V58H500.15ZM496.444 37.3853L507.184 54.9053L510.595 52.8147L499.855 35.2947L496.444 37.3853ZM508.89 55.86H514.17V51.86H508.89V55.86ZM515.888 54.884L526.688 36.764L523.252 34.716L512.452 52.836L515.888 54.884ZM522.97 35.7508L523.09 58.0108L527.09 57.9892L526.97 35.7292L522.97 35.7508ZM525.09 60H536.01V56H525.09V60Z" fill="white"/>
</svg>
