<svg width="30" height="30" viewBox="0 0 40 32" fill="none" xmlns="http://www.w3.org/2000/svg">
<path d="M12.7206 32C27.5912 32 35.7234 19.69 35.7234 9.01512C35.7234 8.66547 35.7162 8.31741 35.7005 7.97092C37.2791 6.83063 38.6511 5.40765 39.7333 3.78777C38.2847 4.43115 36.7258 4.86426 35.0906 5.05956C36.7597 4.05945 38.0411 2.47739 38.6457 0.591404C37.0837 1.51671 35.3538 2.18922 33.512 2.55231C32.0367 0.982105 29.9363 0 27.6107 0C23.1461 0 19.5256 3.61778 19.5256 8.07722C19.5256 8.71114 19.5965 9.32775 19.7352 9.9192C13.016 9.58136 7.05779 6.36682 3.07026 1.4789C2.37594 2.67273 1.97559 4.05949 1.97559 5.53918C1.97559 8.34187 3.40288 10.8161 5.57331 12.2635C4.24691 12.2226 3.0009 11.8588 1.91185 11.2532C1.91066 11.2871 1.91066 11.3201 1.91066 11.3564C1.91066 15.2686 4.69742 18.5351 8.39669 19.2753C7.71734 19.4603 7.00258 19.5596 6.26487 19.5596C5.74473 19.5596 5.23797 19.5084 4.74541 19.4139C5.77466 22.6236 8.75926 24.9594 12.2977 25.0247C9.53069 27.1918 6.04497 28.4826 2.25658 28.4826C1.60481 28.4826 0.960939 28.4455 0.328125 28.3707C3.90614 30.6624 8.15471 31.9995 12.721 31.9995" fill="#1DA1F2"/>
</svg>
