<svg width="1919" height="1105" viewBox="0 0 1919 1105" fill="none" xmlns="http://www.w3.org/2000/svg">
<g clip-path="url(#clip0_7424_48810)">
<path fill-rule="evenodd" clip-rule="evenodd" d="M-28.4174 1415.83L-38 1423.01L-37.9998 1425.97L-26.9235 1417.68C-24.5533 1420.13 -21.2332 1421.65 -17.5581 1421.65C-16.7519 1421.65 -15.9629 1421.57 -15.1971 1421.43L-12.7929 1427.45L-9.86536 1427.45L-12.5915 1420.67C-8.3165 1418.91 -5.18372 1414.93 -4.61338 1410.18L226.742 1403.49L521.927 1395.07L521.477 1396.43L521.429 1396.56L521.435 1396.56L511.316 1427.17L514.243 1427.17L514.37 1426.78L524.364 1396.57L547.834 1426.89L548.043 1427.17L551.237 1427.17L551.237 1427.17L525.736 1394.14L755.492 1258.54L701.101 1426.26L700.809 1427.17L700.809 1427.17L703.736 1427.17L758.029 1259.79L817.911 1427.17L820.572 1427.17L760.189 1258.28L1085.65 1427.17L1090.97 1427.17L759.506 1254.88L760.158 1252.87L759.666 1253.16L781.459 1051.28L794.484 931.21L1097.89 1427.17L1101.09 1427.17L795.901 928.519L847.77 934.172L1555.12 1011.52L1111.73 1427.17L1111.73 1427.17L1115.46 1427.17L1116.13 1426.53L1556.47 1013.63L1556.45 1013.91L1557.64 1012.84L1558.85 1014.97L1558.93 1013.62L1573.32 1030.04L1665.44 1135.32L1118.25 1426.95L1117.85 1427.17L1122.91 1427.17L1666.78 1137.53L1700.45 1228.94L1699.64 1228.39L1701.09 1231.21L1699.64 1231.32L1700.34 1231.8L1126.27 1426.93L1125.57 1427.17L1133.02 1427.17L1134.08 1426.8L1701.21 1234.1L1653.91 1426.96L1653.86 1427.17L1653.86 1427.17L1656.52 1427.17L1656.52 1427.17L1656.91 1425.59L1703.57 1236.06L1801.36 1426.76L1801.57 1427.17L1804.5 1427.17L1804.34 1426.85L1706.9 1236.34L1939.85 1397.04L1958.06 1409.6L1958.06 1406.41L1706.59 1233.18L1958.06 1215.08L1958.06 1212.69L1708.82 1230.51L1953.15 1100.61L1958.06 1098L1958.06 1095.34L1958.06 1095.34L1703.9 1230.25L1669.3 1136.33L1958.06 1029.34L1958.06 1026.68L1954.29 1028.08L1670.1 1133.39L1908.29 670.638L1957.25 691.057L1958.06 691.396L1958.06 691.394L1958.06 688.733L1956.22 687.966L1909.68 668.535L1958.05 616.899L1958.06 616.887L1958.06 613.162L1958.06 613.168L1908.02 666.479L1767.98 314.63L1746.48 260.577L1950.31 259.808L1958.06 259.779L1958.06 257.384L1747.3 258.426L1958.06 8.04764L1958.06 4.05607L1957.68 4.51419L1749.75 251.329L1857.71 0.531411L1858.26 -0.734336L1855.33 -0.734336L1745.71 253.86L1728.38 -0.73433L1725.72 -0.73433L1725.73 -0.604569L1742.75 249.933L1653.86 -0.734571L1651.2 -0.734571L1742.83 258.448L1742.75 258.448L1742.98 259.004L1294.57 512.042L1572.11 -0.641062L1572.16 -0.734567L1568.96 -0.734567L1568.93 -0.681467L1290.58 513.64L1142.34 467.604L1537.99 5.59563L1543.41 -0.734078L1539.95 -0.734078L1141.54 464.628L1130.38 0.104197L1130.36 -0.733938L1127.7 -0.733694L1138.74 465.597L1065.66 415.39L857.629 272.329L857.832 272.019L857.787 272L1027.39 1.35139L1028.7 -0.733933L1025.5 -0.733933L857.566 267.496L877.261 -0.734049L877.26 -0.73527L874.599 -0.735269L866.812 102.422L872.736 -0.735269L870.074 -0.735269L854.633 268.017L710.213 2.36777L708.527 -0.733675L705.599 -0.734408L852.91 270.246L457.972 133.876L577.144 -0.237454L577.586 -0.734158L574.126 -0.734158L572.483 1.11496L455.956 132.285L368.664 -0.734149L368.664 -0.736224L365.47 -0.736224L365.471 -0.734149L368.917 4.51085L452.702 132.057L450.369 131.251L453.873 134.333L415.356 167.944L134.704 412.571L192.212 -0.734507L192.212 -0.736216L189.551 -0.736216L189.551 -0.734507L189.511 -0.454722L131.532 414.383L-37.3828 347.57L-38.0005 347.326L-38.0005 349.987L130.52 416.498L130.201 416.777L130.464 416.844L-37.5447 624.041L-38.0005 624.603L-38.0005 628.594L-38.0005 628.595L132.63 418.296L346.028 719.288L-33.0658 656.553L-38.0005 655.736L-38.0005 655.736L-38.0005 658.131L-38.0005 658.131L-38.0005 658.131L347.848 722.122L415.063 1079.78L-35.7173 673.23L-38.0005 671.171L-38.0005 674.629L-38.0005 674.63L-22.9639 688.193L410.643 1079.34L-34.684 885.76L-38.0005 884.318L-38.0005 886.978L-37.0767 887.38L414.593 1083.84L309.699 1162.45L4.58216 1390.71L5.10256 1390.71L-7.58264 1400.21C-9.97441 1397.38 -13.5558 1395.57 -17.5581 1395.57C-19.2377 1395.57 -20.8432 1395.89 -22.3177 1396.47L-24.6325 1390.71L-24.4273 1390.71L-38.0005 1357.45L-38.0005 1357.45L-38.0005 1364.36L-24.6847 1397.69C-28.2442 1400.02 -30.5962 1404.04 -30.5962 1408.61C-30.5962 1408.67 -30.5958 1408.73 -30.5949 1408.8L-38.7402 1409.03L-38.7402 1411.16L-30.3917 1410.92C-30.0716 1412.71 -29.3869 1414.37 -28.4174 1415.83ZM-6.21333 1402.18L416.233 1086.01L416.836 1089.22L417.246 1087.87L447.298 1175.21L521.962 1392.57L131.752 1404.05L-4.53254 1408.03C-4.62483 1405.91 -5.22453 1403.92 -6.21333 1402.18ZM644.673 1096.84L621.757 1123.27L475.96 899.816L625.385 913.132L790.787 927.937L790.764 927.959L791.007 927.985L644.673 1096.84ZM623.479 1125.25L756.823 1252.73L791.736 931.376L623.479 1125.25ZM792.351 925.709L791.03 925.564L791.125 925.719L478.064 897.648L830.131 723.448L792.804 923.458L792.627 923.169L792.351 925.709ZM833.338 722.271L1073.18 663.669L795.668 923.348L833.044 723.276L833.613 723.594L833.338 722.271ZM833.015 719.283L833.88 718.803L833.761 719.436L1075.16 660.554L1074.49 660.008L1074.47 659.995L1074.47 659.994L768.975 411.621L833.015 719.283ZM471.79 899.445L469.266 899.22L471.378 898.175L351.785 727.604L417.563 1077.66L471.79 899.445ZM1562.31 1012.05L1560.22 1010.44L1902.32 676.173L1667.19 1133.34L1560.7 1011.87L1562.31 1012.05ZM1553.5 1005.49L1081.78 662.262L1349.76 644.484L1553.5 1005.49ZM1078.73 663.454L1078.77 663.337L1553.43 1008.86L796.56 926.169L1078.14 662.975L1078.73 663.454ZM474.009 901.506L618.662 1123.19L418.965 1082.56L474.009 901.506ZM812.178 341.698L855.735 275.442L856.767 277.342L856.894 275.135L1132.17 464.492L1128.5 463.347L1133.16 465.855L769.096 407.45L812.178 341.698ZM853.822 273.376L461.298 137.652L766.545 406.4L853.822 273.376ZM1141.54 470.531L1141.54 470.364L1297.28 554.194L1080.32 658.543L1141.13 470.25L1141.54 470.531ZM753.437 417.423L566.474 569.84L564.74 542.54L563.82 527.359L564.278 527.476L563.918 526.155L753.437 417.423ZM564.008 571.85L563.618 572.168L363.345 709.774L561.292 528.328L562.664 549.811L564.008 571.85ZM566.096 574.47L829.081 721.067L475.653 896.027L566.096 574.47ZM830.085 718.637L567.681 572.334L650.765 504.573L765.872 410.774L830.085 718.637ZM563.1 575.718L531.301 688.775L472.991 895.494L367.631 745.396L351.781 722.775L351.897 722.794L350.913 721.408L563.1 575.718ZM1288.18 518.429L1290.28 517.243L1298.28 551.909L1152.69 473.434L1288.43 515.713L1287.38 516.301L1289.27 516.427L1288.18 518.429ZM1295.69 514.195L1741 262.986L1586.72 534.321L1586.26 534.13L1586.26 534.569L1486.09 527.594L1295.69 514.195ZM1746.69 268.353L1905.11 666.79L1590.59 535.929L1593.98 534.396L1590.18 534.639L1684.41 368.55L1743.76 264.216L1743.82 265.101L1744.64 263.188L1744.76 263.499L1746.74 269.092L1746.69 268.353ZM718.651 434.443L764.562 408.034L762.553 406.4L762.94 406.462L458.181 138.251L563.073 523.058L563.479 522.686L563.535 523.565L718.651 434.443ZM454.943 136.756L560.552 523.75L135.438 415.493L454.943 136.756ZM559.563 526.273L349.18 718.965L312.937 667.888L135.871 418.223L559.563 526.273ZM1106.13 569.428L1138.47 469.178L771.07 410.126L1077.13 658.93L1106.13 569.428ZM1148.97 628.294L1084.37 659.338L1348.29 641.83L1323.94 598.862L1299.56 555.982L1148.97 628.294ZM1361.67 660.067L1556.96 1005.72L1586.13 538.182L1352.32 643.496L1361.67 660.067ZM1588.92 537.855L1559.66 1007.06L1905.25 669.527L1588.92 537.855ZM1569.3 535.972L1431.28 544.783L1301.22 553.023L1293 516.681L1569.3 535.972ZM1351.2 641.258L1580.58 537.629L1302.29 555.419L1351.2 641.258ZM544.051 1334.39L523.889 1389.73L448.279 1169.84L419.403 1085.73L423.755 1087.62L421.648 1085.72L619.811 1126.19L544.051 1334.39ZM622.155 1127.65L526.309 1390.81L595.069 1350.25L755.634 1255.26L622.155 1127.65Z" fill="url(#paint0_linear_7424_48810)" fill-opacity="0.12"/>
<path fill-rule="evenodd" clip-rule="evenodd" d="M537.443 1393.11C537.443 1385.91 531.604 1380.07 524.402 1380.07C517.2 1380.07 511.361 1385.91 511.361 1393.11C511.361 1400.31 517.2 1406.15 524.402 1406.15C531.604 1406.15 537.443 1400.31 537.443 1393.11ZM757.23 1232.38C740.995 1232.38 727.688 1245.68 727.688 1261.92C727.688 1278.15 740.995 1291.45 757.23 1291.45C773.465 1291.45 786.772 1278.15 786.772 1261.92C786.506 1245.42 773.465 1232.38 757.23 1232.38ZM757.23 1286.66C743.391 1286.66 732.213 1275.49 732.213 1261.65C732.213 1247.81 743.391 1236.64 757.23 1236.64C771.07 1236.64 782.247 1247.81 782.247 1261.65C782.247 1275.49 771.07 1286.66 757.23 1286.66ZM757.23 1243.82C767.077 1243.82 775.061 1251.8 775.061 1261.65C775.061 1271.5 767.077 1279.48 757.23 1279.48C747.383 1279.48 739.398 1271.5 739.398 1261.65C739.398 1251.8 747.383 1243.82 757.23 1243.82ZM1726.52 1235.57C1726.52 1225.14 1718.06 1216.68 1707.62 1216.68C1697.18 1216.68 1688.72 1225.14 1688.72 1235.57C1688.72 1246.01 1697.18 1254.47 1707.62 1254.47C1718.06 1254.47 1726.52 1246.01 1726.52 1235.57ZM635.071 1124.08C635.071 1116.88 629.232 1111.04 622.03 1111.04C614.828 1111.04 608.989 1116.88 608.989 1124.08C608.989 1131.28 614.828 1137.12 622.03 1137.12C629.232 1137.12 635.071 1131.28 635.071 1124.08ZM417.368 1071.39C424.553 1071.39 430.409 1077.24 430.409 1084.43C430.409 1091.61 424.553 1097.47 417.368 1097.47C410.182 1097.47 404.327 1091.61 404.327 1084.43C404.327 1077.24 410.182 1071.39 417.368 1071.39ZM804.338 931.952C804.338 924.768 798.482 918.913 791.297 918.913C784.111 918.913 778.256 924.768 778.256 931.952C778.256 939.137 784.111 944.991 791.297 944.991C798.482 944.725 804.338 939.137 804.338 931.952ZM1569.76 1006.99C1569.76 999.79 1563.92 993.952 1556.72 993.952C1549.52 993.952 1543.68 999.79 1543.68 1006.99C1543.68 1014.19 1549.52 1020.03 1556.72 1020.03C1563.92 1020.03 1569.76 1014.19 1569.76 1006.99ZM1306.28 516.834C1306.28 509.649 1300.42 503.795 1293.24 503.795C1286.05 503.795 1280.2 509.649 1280.2 516.834C1280.2 524.019 1286.05 529.873 1293.24 529.873C1300.69 529.873 1306.28 524.019 1306.28 516.834ZM1079.26 650.683C1086.18 653.078 1089.64 660.529 1087.24 667.181C1084.85 674.1 1077.4 677.559 1070.74 675.164C1063.82 672.769 1060.36 665.318 1062.76 658.666C1065.15 651.747 1072.61 648.288 1079.26 650.683ZM1365.63 648.023C1368.02 641.37 1364.56 633.92 1357.65 631.525C1350.99 629.13 1343.54 632.589 1341.14 639.508C1338.75 646.16 1342.21 653.611 1349.13 656.006C1355.78 658.401 1363.23 654.942 1365.63 648.023ZM1152.45 466.276C1152.45 459.091 1146.6 453.237 1139.41 453.237C1132.22 453.237 1126.37 459.091 1126.37 466.276C1126.37 473.46 1132.22 479.314 1139.41 479.314C1146.6 479.314 1152.45 473.46 1152.45 466.276ZM133.927 402.943C141.112 402.943 146.968 408.797 146.968 415.982C146.968 423.166 141.112 428.754 133.927 429.021C126.741 429.021 120.886 423.166 120.886 415.982C120.886 408.797 126.741 402.943 133.927 402.943ZM468.467 136.308C468.467 129.123 462.611 123.269 455.426 123.269C448.24 123.269 442.385 129.123 442.385 136.308C442.385 143.493 448.24 149.347 455.426 149.347C462.611 149.081 468.467 143.493 468.467 136.308ZM476.983 888.043C483.637 888.043 488.96 893.365 488.96 900.018C488.96 906.404 483.637 911.992 476.983 911.992C470.33 911.992 465.007 906.67 465.007 900.018C465.007 893.365 470.33 888.043 476.983 888.043ZM476.983 880.061C466.071 880.061 457.289 888.843 457.289 899.753C457.289 910.663 466.071 919.444 476.983 919.444C487.895 919.444 496.678 910.663 496.678 899.753C496.678 888.843 487.895 880.061 476.983 880.061ZM476.983 916.517C467.668 916.517 460.216 909.066 460.216 899.753C460.216 890.439 467.668 882.988 476.983 882.988C486.298 882.988 493.75 890.439 493.75 899.753C493.75 909.066 486.298 916.517 476.983 916.517ZM350.832 704.7C360.945 704.7 369.196 712.949 369.196 723.061C369.196 733.173 360.945 741.422 350.832 741.422C340.719 741.422 332.468 733.173 332.468 723.061C332.468 712.949 340.719 704.7 350.832 704.7ZM350.832 692.725C334.065 692.725 320.492 706.296 320.492 723.06C320.492 739.824 334.065 753.395 350.832 753.395C367.599 753.395 381.172 739.824 381.172 723.06C381.172 706.296 367.333 692.725 350.832 692.725ZM350.832 748.872C336.726 748.872 325.016 737.43 325.016 723.06C325.016 708.957 336.46 697.248 350.832 697.248C364.937 697.248 376.648 708.691 376.648 723.06C376.381 737.163 364.937 748.872 350.832 748.872ZM562.68 514.437C569.333 514.437 574.656 519.759 574.656 526.411C574.656 533.064 569.333 538.386 562.68 538.386C556.026 538.386 550.704 533.064 550.704 526.411C550.704 519.759 556.026 514.437 562.68 514.437ZM562.68 506.72C551.769 506.72 542.986 515.502 542.986 526.412C542.986 537.322 551.769 546.103 562.68 546.103C573.592 546.103 582.375 537.322 582.375 526.412C582.375 515.768 573.592 506.72 562.68 506.72ZM562.68 543.176C553.365 543.176 545.913 535.725 545.913 526.412C545.913 517.098 553.365 509.648 562.68 509.648C571.995 509.648 579.447 517.098 579.447 526.412C579.447 535.725 571.995 543.176 562.68 543.176ZM849.581 721.465C849.581 711.618 841.598 703.636 831.749 703.636C821.901 703.636 813.918 711.618 813.918 721.465C813.918 731.312 821.901 739.294 831.749 739.294C841.598 739.294 849.581 731.312 849.581 721.465ZM831.75 692.193C815.515 692.193 802.208 705.498 802.208 721.73C802.208 737.963 815.515 751.268 831.75 751.268C847.984 751.268 861.291 737.963 861.291 721.73C861.025 705.232 847.984 692.193 831.75 692.193ZM831.75 746.478C817.91 746.478 806.732 735.301 806.732 721.464C806.732 707.627 817.91 696.451 831.75 696.451C845.589 696.451 856.767 707.627 856.767 721.464C856.767 735.301 845.323 746.478 831.75 746.478ZM1299.89 542.644C1306.55 542.644 1311.87 547.966 1311.87 554.618C1311.87 561.271 1306.55 566.593 1299.89 566.593C1293.24 566.593 1287.92 561.271 1287.92 554.618C1287.92 547.966 1293.24 542.644 1299.89 542.644ZM1299.89 534.929C1288.98 534.929 1280.2 543.71 1280.2 554.62C1280.2 565.53 1288.98 574.312 1299.89 574.312C1310.8 574.312 1319.59 565.53 1319.59 554.62C1319.59 543.71 1310.8 534.929 1299.89 534.929ZM1299.89 571.384C1290.58 571.384 1283.13 563.934 1283.13 554.62C1283.13 545.307 1290.58 537.856 1299.89 537.856C1309.21 537.856 1316.66 545.307 1316.66 554.62C1316.66 563.934 1309.21 571.384 1299.89 571.384ZM1685.8 1136.05C1685.8 1127.09 1678.53 1119.82 1669.56 1119.82C1660.6 1119.82 1653.33 1127.09 1653.33 1136.05C1653.33 1145.02 1660.6 1152.28 1669.56 1152.28C1678.53 1152.28 1685.8 1145.02 1685.8 1136.05ZM1669.56 1109.44C1654.93 1109.44 1642.95 1121.41 1642.95 1136.05C1642.95 1150.69 1654.93 1162.66 1669.56 1162.66C1684.2 1162.66 1696.18 1150.69 1696.18 1136.05C1696.18 1121.41 1684.2 1109.44 1669.56 1109.44ZM1669.56 1158.67C1657.06 1158.67 1646.94 1148.56 1646.94 1136.05C1646.94 1123.54 1657.06 1113.43 1669.56 1113.43C1682.07 1113.43 1692.19 1123.54 1692.19 1136.05C1692.19 1148.29 1682.07 1158.67 1669.56 1158.67ZM1586.26 523.751C1592.91 523.751 1598.24 529.073 1598.24 535.726C1598.24 542.378 1592.91 547.7 1586.26 547.7C1579.61 547.7 1574.28 542.378 1574.28 535.726C1574.28 529.073 1579.61 523.751 1586.26 523.751ZM1586.53 516.035C1575.61 516.035 1566.83 524.816 1566.83 535.726C1566.83 546.637 1575.61 555.418 1586.53 555.418C1597.44 555.418 1606.22 546.637 1606.22 535.726C1606.22 524.816 1597.17 516.035 1586.53 516.035ZM1586.53 552.491C1577.21 552.491 1569.76 545.04 1569.76 535.726C1569.76 526.413 1577.21 518.962 1586.53 518.962C1595.84 518.962 1603.29 526.413 1603.29 535.726C1603.03 545.04 1595.58 552.491 1586.53 552.491ZM1905.9 657.333C1912.55 657.333 1917.87 662.655 1917.87 669.308C1917.87 675.96 1912.55 681.282 1905.9 681.282C1899.24 681.282 1893.92 675.96 1893.92 669.308C1893.92 662.655 1899.24 657.333 1905.9 657.333ZM1905.9 649.617C1894.99 649.617 1886.2 658.398 1886.2 669.309C1886.2 680.219 1894.99 689 1905.9 689C1916.81 689 1925.59 680.219 1925.59 669.309C1925.59 658.398 1916.81 649.617 1905.9 649.617ZM1905.9 686.073C1896.58 686.073 1889.13 678.622 1889.13 669.309C1889.13 659.995 1896.58 652.544 1905.9 652.544C1915.21 652.544 1922.66 659.995 1922.66 669.309C1922.66 678.622 1915.21 686.073 1905.9 686.073ZM1767.5 258.451C1767.5 247.282 1758.45 238.227 1747.28 238.227C1736.11 238.227 1727.05 247.282 1727.05 258.451C1727.05 269.62 1736.11 278.675 1747.28 278.675C1758.45 278.675 1767.5 269.62 1767.5 258.451ZM1747.28 224.922C1728.65 224.922 1713.74 240.09 1713.74 258.451C1713.74 277.078 1728.91 291.98 1747.28 291.98C1765.91 291.98 1780.81 276.812 1780.81 258.451C1780.81 239.824 1765.91 224.922 1747.28 224.922ZM1747.28 286.924C1731.57 286.924 1718.8 274.151 1718.8 258.451C1718.8 242.751 1731.57 229.978 1747.28 229.978C1762.98 229.978 1775.75 242.751 1775.75 258.451C1775.75 274.151 1762.98 286.924 1747.28 286.924ZM785.175 409.062C785.175 399.363 777.311 391.499 767.61 391.499C757.909 391.499 750.044 399.363 750.044 409.062C750.044 418.762 757.909 426.625 767.61 426.625C777.311 426.625 785.175 418.762 785.175 409.062ZM767.609 380.323C751.641 380.323 738.866 393.362 738.866 409.062C738.866 425.028 751.907 437.801 767.609 437.801C783.578 437.801 796.352 424.762 796.352 409.062C796.618 393.096 783.578 380.323 767.609 380.323ZM767.609 433.543C754.036 433.543 743.124 422.633 743.124 409.062C743.124 395.491 754.036 384.581 767.609 384.581C781.182 384.581 792.094 395.491 792.094 409.062C792.094 422.633 781.182 433.543 767.609 433.543ZM857.3 260.31C863.953 260.31 869.276 265.632 869.276 272.284C869.276 278.937 863.953 284.259 857.3 284.259C850.646 284.259 845.323 278.937 845.323 272.284C845.323 265.632 850.646 260.31 857.3 260.31ZM857.566 252.594C846.654 252.594 837.872 261.376 837.872 272.286C837.872 283.196 846.654 291.978 857.566 291.978C868.478 291.978 877.26 283.196 877.26 272.286C877.26 261.376 868.212 252.594 857.566 252.594ZM857.566 289.051C848.251 289.051 840.799 281.6 840.799 272.286C840.799 262.973 848.251 255.522 857.566 255.522C866.881 255.522 874.333 262.973 874.333 272.286C874.067 281.6 866.615 289.051 857.566 289.051Z" fill="url(#paint1_radial_7424_48810)" fill-opacity="0.12"/>
</g>
<defs>
<linearGradient id="paint0_linear_7424_48810" x1="1006.32" y1="1427.86" x2="1006.32" y2="-0.000558172" gradientUnits="userSpaceOnUse">
<stop stop-color="#70199E"/>
<stop offset="0.473958" stop-color="#C80B99"/>
<stop offset="0.885452" stop-color="#5E1CA0"/>
<stop offset="1" stop-color="#5E1CA0" stop-opacity="0"/>
</linearGradient>
<radialGradient id="paint1_radial_7424_48810" cx="0" cy="0" r="1" gradientUnits="userSpaceOnUse" gradientTransform="translate(1004.55 735.45) scale(1449.81 1548.02)">
<stop stop-color="#D20998"/>
<stop offset="1"/>
</radialGradient>
<clipPath id="clip0_7424_48810">
<rect width="1105" height="1996" fill="white" transform="matrix(0 1 1 0 -38 0)"/>
</clipPath>
</defs>
</svg>
