<svg width="26" height="30" viewBox="0 0 27 35" fill="none" xmlns="http://www.w3.org/2000/svg">
<g opacity="0.2">
<path opacity="0.2" d="M16.9554 8.9375V1.625H3.1501C1.80449 1.625 0.713867 2.71619 0.713867 4.0625V31.6875C0.713867 33.0338 1.80449 34.125 3.1501 34.125H24.2641C25.6097 34.125 26.7003 33.0338 26.7003 31.6875V11.375H19.3916C18.046 11.375 16.9554 10.2838 16.9554 8.9375Z" fill="#231F20"/>
</g>
<path d="M16.9554 7.3125V0H3.1501C1.80449 0 0.713867 1.09119 0.713867 2.4375V30.0625C0.713867 31.4088 1.80449 32.5 3.1501 32.5H24.2641C25.6097 32.5 26.7003 31.4088 26.7003 30.0625V9.75H19.3916C18.046 9.75 16.9554 8.65881 16.9554 7.3125Z" fill="#E0E0D1"/>
<g opacity="0.2">
<path opacity="0.2" d="M17.7803 9.17578L26.7001 17.0619V9.7494L17.7803 9.17578Z" fill="#231F20"/>
</g>
<path d="M16.9551 0V7.3125C16.9551 8.65881 18.0457 9.75 19.3913 9.75H26.7L16.9551 0Z" fill="#E0995E"/>
<g opacity="0.2">
<path opacity="0.2" d="M13.4022 8H5.58594V9.625H13.4022V8Z" fill="#231F20"/>
</g>
<g opacity="0.2">
<path opacity="0.2" d="M21.8275 16.125H5.58594V17.75H21.8275V16.125Z" fill="#231F20"/>
</g>
<g opacity="0.2">
<path opacity="0.2" d="M21.8275 12.0625H5.58594V13.6875H21.8275V12.0625Z" fill="#231F20"/>
</g>
<g opacity="0.2">
<path opacity="0.2" d="M21.8275 20.1875H5.58594V21.8125H21.8275V20.1875Z" fill="#231F20"/>
</g>
<g opacity="0.2">
<path opacity="0.2" d="M21.8275 24.25H5.58594V25.875H21.8275V24.25Z" fill="#231F20"/>
</g>
</svg>
