<svg xmlns="http://www.w3.org/2000/svg" xml:space="preserve" id="Layer_1" x="0" y="0" style="enable-background:new 0 0 642.7 826.9" version="1.1" viewBox="0 0 642.7 826.9"><style>.st0{fill:#31201b}.st7{fill:#fda524}.st8{fill:#fdfefd}.st9{fill:#dedede}.st10{fill:#f08102}.st11{fill:#c74f02}.st13{fill:#df6d03}.st15{fill:#dededd}.st31{fill:#fcfdfc}</style><path d="M229.2 826.8c-11-4.1-21.4-9.1-31.1-15.7-3.2-2.2-7.2-1.1-10.9-1.2-15.7-.4-31.4 1.1-47-1-26.7-3.5-43.9-19.1-53.4-43.4-6.6-17-12-34.6-13-53.1-.2-4-3.2-4.8-5.6-6.4-46.6-30.8-70.4-73.8-68-130.1C1.3 551 9 528 22.7 507.1c3.3-5 6.3-10.3 13.6-9 7.6 1.3 7.4 7.8 8.3 13.2 7 37.8 27.1 66.4 60 86.1 6 3.6 6.1 3.5 6.5-3.6 1.2-23.8 9.3-45 24.3-63.6 5.3-6.6 3-18.7-4.2-22.5-71.6-38.3-106.9-104.3-99.3-185.6 2.2-23.3 6.2-46.2 13.8-68.4 1.7-5 2.2-9.9.9-15.3-15-61-16.3-122 .8-182.9 2.9-10.5 6.7-20.8 12.2-30.2C74 .9 87-3.5 112.4 2.3c24.3 5.6 44.6 19.3 64.7 33.2 10 7 19.5 14.6 28.5 22.9 2.6 2.4 4.7 2.8 8 1.3 44.3-19.1 90.5-28.1 138.8-25.8 37 1.8 72.3 10.8 106.2 25.2 4.5 1.9 7.2 1.5 10.9-1.7 22.7-19.5 46.6-37.3 74.4-49.3 11.3-4.9 22.9-8.3 35.4-8.1 10.1.1 18.5 4 25.3 11.6 14.7 16.3 21.1 36.5 25.7 57.2 12.3 56.3 11.5 112.5-2.6 168.4-1.3 5-1.3 9.6.3 14.7 8.7 27.3 14.2 55.3 14.7 84.1.8 44.6-9.1 86-37.9 121.4-17.1 21.1-37.9 37.8-62 50.3-6.4 3.4-9.8 15.9-5 21.5 23.7 27.6 27.9 60.1 24.2 94.6-.6 5.7.7 8.7 5.7 12 16.5 10.8 25.8 26.9 30 45.9 7.9 35.4-1.1 68.1-18.4 98.5-10.4 18.3-28.1 27.4-49.3 28.9-15.2 1.1-30.5.6-45.8.5-4.5 0-8.3.9-12 3.8-9 6.9-19.6 10.1-30.6 11.9-.9.1-1.7.3-1.9 1.3h-31.4c-3.6-1.3-7.5-.9-11.2-1.8-5.6-2.4-11-5.1-15.3-9.7-2.6-2.7-5.7-3.7-9.4-3.7H302c-3.4 0-6.5.7-9 3.1-6.9 6.7-14.9 11.1-24.6 12h-3.9c-1.1-1.1-2.4-.5-3.7-.7-1 .1-2.1-.2-2.9.7h-7.8c-2.6-1.1-5.2-1.1-7.8 0h-5.2c-.9-.8-1.7-.8-2.6 0-1.8.3-3.6.3-5.3.3z" class="st0"/><path d="M268.4 826.8c10-3.5 19.3-8.3 26.6-16.2 1.3-1.4 3.3-.7 5-.7 24.6 0 49.2.1 73.8.1 3.7 0 6.6.7 9.1 3.9 3.8 4.9 9.5 7.4 15 10.1.5 2 4.4-.5 3.8 2.9-44.3-.1-88.8-.1-133.3-.1z" style="fill:#fefefe"/><path d="M401.8 826.8c-.8-1.6-3.3-.9-3.8-2.9 3.5.8 7.4.3 10.4 2.9h-6.6z" style="fill:#eeeded"/><path d="M242.3 826.8c2.6-2 5.2-2 7.8 0h-7.8z" style="fill:#4b3c37"/><path d="M260.6 825.7c1.4.1 3.1-1.1 3.9 1.1h-3.9c-.4-.3-.6-.5-.4-.8.1-.2.3-.3.4-.3z" style="fill:#aaa3a1"/><path d="M234.4 826.8c.9-1.9 1.7-1.6 2.6 0h-2.6z" style="fill:#978f8c"/><path d="M260.6 825.7c0 .4 0 .7-.1 1.1h-2.6c.5-1.4 1.6-1.4 2.7-1.1z" style="fill:#8e8683"/><path d="M525.1 55.3c-9.3 11.2-19.9 21.4-27.5 33.9-4.6 7.5-3.9 11.3 3.1 16.6 68.4 51.6 108.3 120.1 121.1 204.5 2.9 18.8 1.3 37.8 1.1 56.7 0 1.4-.4 2.6-1.5 3.5-12.2 12.2-26.5 20.5-43.9 22.2-34.9 3.4-63.7-10.2-89.3-32.6-23.8-20.8-45.1-44.2-69.6-64.2-15.2-12.4-30.8-24.6-50.3-29.7-33.1-8.8-64.3-4.7-93.1 14.7-15.4 10.4-28.9 23.1-42.8 35.3-19.7 17.4-36.6 38.1-58.2 53.3-14.1 9.9-29.1 18.8-46.6 21.1-25.6 3.3-50.6 2.9-71.2-16.2-1.5-1.2-2.8-2.5-3.7-4.2-3.3-11.5-2.8-23.2-2.2-34.9 2.1-44.8 13.6-87.1 34.7-126.7 20.7-39 48-72.4 83.3-99.1 13.8-10.5 13.8-12.9 3.7-27.1-8.4-11.7-19.7-20.8-27.8-32.8 3.5-2 6.3.2 9.2 1.5 12 5.5 22.2 13.7 32 22.4 5.1 4.5 10.4 8.7 15.5 13 4.9 4.2 9.7 4.8 15.6 2.2 16.3-7.2 33-13.4 50.5-17.7 29-7.2 58.3-10.7 88-8.5 33.5 2.4 65.7 10.3 96.5 23.9 2.2 1 4.5 1.8 6.6 2.7 5.5 2.5 9.5 1 14.1-2.9 13.8-12 28.9-22.3 43.7-33.2 3.6-2.6 6.9-2.1 9 2.3z" class="st7"/><path d="M56.2 372.9c5.3 3.4 10.2 7.6 15.9 10.2 24.5 11.5 49.5 9.7 74.1.4 25.8-9.8 44.3-29.5 63.6-48 19.8-19 39.6-38 61.8-54.2 37.8-27.6 92.1-28 129.7-.6 22.3 16.3 42.1 35.1 61.9 54.1 9.3 8.9 18.7 17.6 28.3 26.2 21 18.8 45.6 29.6 73.8 30.9 15.3.7 29.8-2.8 42.5-12.2 4.3-3.3 8.5-6.8 13.6-9-.4 6.6-1.8 13.1-4 19.3-22.1 35-51.6 61.2-89.4 78.5-38.7 17.8-79.4 27.2-121.4 31.9-27.7 3.1-55.5 4.8-83.4 3.8-50.4-1.7-100.3-7.1-148.3-24.1-32.3-11.4-62.2-26.9-86.7-50.8-13.5-13.1-26.2-27.5-32.5-46-1-2.9-1.2-6-1.7-8.9-.4-2 .7-2.4 2.2-1.5z" class="st8"/><path d="M56.2 372.9c-2.6 2.9-.8 5.8 0 8.6 3.5 11.8 11.7 20.7 18.9 30.2 22.6 29.7 53.3 48.1 87.2 61.5 30.8 12.2 62.7 20.2 95.6 24 17 2 34.1 2.9 51.2 4.1 14.1.9 28.3 1.3 42.4.8 45.8-1.6 91.2-6 135.2-19.9 28.6-9.1 55.6-21 79.9-38.8 17.1-12.4 30.6-28.1 42.7-45.2 2.3-3.2 4.9-6 8-8.5-9.1 37.6-31.5 66-62.7 87.8-33.5 23.3-71.3 36-111 43.5-77.9 14.7-155.5 14.2-232.7-4.4-37.4-9-72.6-23.1-102.8-47.6-30.2-24.5-48.4-56-55.2-94.3-.3-1.5-.2-3-.2-4.5 1.2.9 2.3 1.8 3.5 2.7z" class="st9"/><path d="M283.8 710.7c.3 22.9.6 45.7-.2 68.6-3.2 1.6-6.4.8-9.6 0-5.9-1.3-11.8-3-17.8-4.3-12-2.5-23.8-1.4-35.4 2.4-2.6.9-5.2 2.4-8.2 1.5-.7-.4-1-1-1-1.8 4.2-5.2 3.2-10.3-.1-15.5-16.4-26.6-27.7-55.7-39.8-84.3-11.4-27.1-16.4-55.9-16.3-85.3 0-10 2.9-19.8 4.3-29.7.3-2.2 1.3-4.3 4.2-4 5.3 1.6 10.3 3.8 15.1 6.5-1.2 15 3.7 28.5 11.2 40.9 8.3 13.6 19 25.4 29.3 37.5 16.1 18.8 35.6 33.9 52.3 52.1 4.5 4.8 9.4 9.2 12 15.4zM497.2 564.2c3.9-2.2 7.7-4.5 12.1-5.6 4-1.2 4.4 2.1 4.8 4.3 2.8 14.3 4.9 28.4 3.9 43.3-1.6 22.6-6.2 44.4-14 65.5-11.2 30.2-23.4 60-40.3 87.6-3.2 5.2-5.2 11-8.7 15.9-8 .7-15.8-1.8-23.9-1.6-10.1.2-19.9 1.4-29.5 4.5-2.3.7-4.5 1.7-7 1.1-2.3-1.2-2.9-3.3-3.1-5.6-1.5-5.4.3-10.9-1.1-16.3v-3.5c1-1.5.3-3.4 1-5 .5-10 .1-20 .2-30 0-.7 0-1.4-.1-2.1.1-1.5.3-3 .4-4.4 4.5-12.5 13.5-21.7 23.2-30.2 24.1-20.9 46.1-43.8 64.5-69.9 9.4-13.3 15-28 16.4-44.2-.1-1.6.2-2.8 1.2-3.8z" class="st7"/><path d="M242.3 583.3c16.4 1.9 32.9 3.8 49.3 5.8 4.5.6 1.5 3 .8 4.6-8.8 19.6-5.3 42 8.9 56.5 15.9 16.3 41.5 19.5 62 7.7 19.1-11 27.6-34.4 21.3-57.5-1-3.7-4.9-8.1-2.7-10.7 1.9-2.2 7.4-1.2 11.2-1.7 12.5-1.5 25-3.1 37.6-4.6 2.7 4.4-.7 7.5-2.6 10.6-5 8.1-11.7 15.1-16.5 23.4-9.2 16-17.5 32.5-23.1 50.2-.8 2.5-1.4 5-2.8 7.3-.7 1.2-1.3 3.7-.8 4.2-11.2-1.6-13.7.3-14 12.6-.4 17.6-.2 35.3-.3 52.9 0 2.2-.2 4.3-.3 6.5-7.1 5.9-15.9 6.5-24.4 7.7-12.6 1.8-25.1-.1-37.1-4.3-2.2-.8-4.5-1.7-5.5-4.2-.2-19.5-.3-39.1-.6-58.6-.2-11.6-.3-11.6-12-14-3.5-4.1-4.3-9.5-6.1-14.3-9-23.8-20.7-46-36.3-66.2-3.1-4-6.8-8-6-13.9z" class="st9"/><path d="M242.3 583.3c6.2 14.3 17.6 25.2 24.9 38.8 9.6 17.8 18.4 35.9 23.5 55.5-5.2 3.7-6.9 8.9-6.9 15.1-.1 6 1.2 12 .1 18-28.9-32.8-63.9-59.8-89.5-95.7-9.3-13.1-15.2-27.3-17.3-43.1-.3-2.3-2.3-5.8 2-7.1 19.4 7.3 39.5 12 59.5 17.2 1.3.4 2.5.9 3.7 1.3zM384.8 679.1c-.1-1.4-3.2-.9-1.2-4.3 4.5-7.6 6-16.6 9.6-24.8 8.3-18.7 17.5-36.8 30.6-52.7 3.2-4 6.6-8.2 6.8-13.8 10.9-2.8 21.8-5.4 32.6-8.5 11.4-3.3 22.7-7.1 34-10.8.5 17.7-5.9 33.3-15.6 47.6-14.8 21.6-32.2 41.1-51.6 58.7-14 12.7-28.4 25.1-38.2 41.6-3.6-8.1-1.2-16.7-2-25-.4-3.7-1-6.8-5-8z" class="st8"/><path d="M455.4 774.5c-1.4-5.2 2.3-8.7 4.5-12.4 22.5-37.8 40-77.7 51-120.2 6.6-25.5 8.2-51.7 1.9-77.8-.5-2.1-.3-5.1-3.6-5.6 1.6-1 3.2-2.2 4.9-3.1 17.2-8.8 14.1-11 22.5 7.9 10 22.5 8.8 46.1 4.6 69.9-5.8 32.5-19 62.3-32.4 92.1-9.7 21.5-20.7 42.2-35.7 60.5-3.5-.2-5.1-3.7-8.2-4.7-3.3-1.9-7.4-2.9-9.5-6.6zM164 558.3c-1.4.8-2.5 1.8-2.7 3.5-1.8 16.9-5.5 33.5-3.1 51 3 22.2 6.7 44.2 15.6 64.9 12.7 29.5 24.6 59.5 41.4 87 3.3 5.4 2.6 9.4-3 12.4-5.7 5.4-11.4 2.6-17.1.1-5-5.5-9-11.7-12.5-18.2-19.3-36.1-37.1-72.9-46.9-112.9-6.2-25.2-9.2-50.6-.6-76 1.8-5.4 4.3-10.4 6.7-15.6 2.2-4.9 5.2-6.6 10.1-3.5 3.9 2.5 8 4.9 12.1 7.3zM494.6 790.3c21.4-31.5 36.2-64.9 49.5-99 4-10.3 7.2-21 10.7-31.5.7-2 .3-4.8 2.9-5.4 2.9-.7 4.9 1.2 6.7 3.3 10.6 12.1 15.8 26.5 16.8 42.3 1.6 24.2-6.1 46.4-16.3 67.8-6.7 14-19.2 20.4-34.1 22.2-11.7 1.4-23.4.5-36.2.3zM177.7 790.3c-15 0-29.7 2-44.1-2.6-10.9-3.5-19.6-9.9-24.5-20.2-10-21.2-17.3-43.2-16.1-67.2.7-14.9 5.8-28 14.6-39.8 1-1.4 2.3-2.7 3.6-3.8 5-4 6.6-3.6 8.3 2.5 10.3 36.9 26.2 71.4 44 105.2 4.5 8.5 11.7 15.5 14.2 25.9z" class="st10"/><path d="M596.6 182c-14.9-22.6-30.9-44.2-50.5-63-8.2-7.8-16.8-15.2-25.4-22.5-2.3-2-2.9-3.3-.8-5.8 17.2-20.8 36.5-39 59.7-53 8.4 18.1 13.1 37.2 16.2 56.8 3.9 25.2 4.7 50.6 4.1 76-.1 4-.1 8.3-3.3 11.5zM95.9 39c22.1 13.2 41.2 29.7 56.8 50.2 2.7 3.5 3.1 5.5-.9 8.8-23.7 19.9-44.6 42.7-63.8 66.9-2 .4-2.6 2.5-4.2 3.4-1 1.1-1.8 2.5-3 3.4-2.4 1.7-4 1-4.8-1.8-.3-1.1-.4-2.1-.4-3.2.3-25.8-1.6-51.7 3.5-77.3 3.5-17.5 8.1-34.7 16.8-50.4z" class="st11"/><path d="M525.1 55.3c-3.5-2.7-6.1-2.7-10.1.5-15.1 12-31.6 22.3-45.7 35.6-2.4 2.3-5.2 1.7-7.9.6-10.9-4.2-21.8-8.7-32.8-12.6-37.4-13.5-76.2-18.3-115.5-14.7-30 2.7-59.9 8.8-87.2 22.4-13.3 6.6-22.7 5.5-33.4-4.9-11.4-11.2-23.7-21.9-38.4-28.8-3.1-1.5-6.5-2.5-9.7-3.7-11-8.2-22-16.5-32.9-24.7.4-3.3 2.6-1.8 4.3-1.6 14.1 3.9 26.1 11.7 38.2 19.5 16.1 10.5 31 22.5 45.1 35.5 5.4 4.9 10.4 5.2 16.6 2.2 63.2-30.1 128.7-35.1 196.1-17.7 15.8 4.1 31.1 9.9 45.8 17.2 6.9 3.4 12.4 2.9 18.4-2.4 19.6-17.4 40.1-33.6 63.2-46.1 7.5-4 15.2-7.6 23.6-9.5 1.5-.6 2.8-1 2.7 1.4-14.5 9.4-27.7 20.3-40.4 31.8z" style="fill:#e8c587"/><path d="M24.1 552c.7-3 1.2-6 2.1-8.8.6-1.9.5-5 3.2-5 2.2 0 3.4 2.6 4.2 4.6 4.7 11.5 10.3 22.5 17.9 32.5 15 19.8 34 34.7 56 46 2.6 1.4 5.5 2.1 5.6 6.2.1 4-1.6 5.7-4.7 7.5-9 5.2-16 12.6-21.5 21.4-1 1.6-1.2 3.9-3.6 4.3-8.5-2.5-14.5-8.7-20.5-14.5-16-15.6-28-33.8-33.9-55.7-2.3-11-5.3-21.9-5.1-33.3-.1-1.8.6-3.5.3-5.2z" class="st10"/><path d="M95.9 39c.8 1.9 1.1 3.6-.1 5.5C86.3 60.3 83.3 78 80.1 95.8c-4.5 25.1-1.8 50.3-2.7 76 3.9-.8 5.1-4.5 8-5.7.7.8.8 1.6 0 2.4-7.8 14.2-15.6 28.4-24 43.8-2.9-7.4-3.5-13.8-4.1-20.1-4-45.5-3.5-90.7 10-135 2.4-7.7 5.7-15 9-22.4 2.3-5.1 5-5.7 9.5-2.8 3.4 2.3 7.1 4.1 10.1 7zM596.6 182c3.7-44.9.7-89.1-13.9-132.1-1.3-4-4.7-7.6-3.1-12.3.5-.4 1-.9 1.5-1.2 13.4-8.6 14.2-8.5 20.4 6.5 9.3 22.5 14.2 46.1 16.2 70.3 1.7 20.4 2.7 40.8 1.2 61.3-.9 11.9-2.6 23.7-6.2 37.4-5.9-10.8-11-20.3-16.1-29.9z" class="st13"/><path d="M305.2 560.4c0 1.5-.2 3.1 0 4.6.6 4.4-1.3 5.5-5.5 5.5-15.6.2-30.7-3.3-45.9-5.7-26.7-4.2-52.6-11.8-77.5-22.4-4.8-2-9.4-4.6-13.9-7.1-1.8-1-4.1-1.9-4-4.7.1-3-.8-7.3.8-8.8 2.1-1.9 4.6 1.9 7 3.1 4.4 2.4 8.9 4.5 14 5 3.9.4 7.8 1 11.4 2.4 18.6 7.2 38.2 10.2 57.7 13 16.1 2.3 32.4 3.5 48.7 4.2 6.4.3 7.7 2.7 7.1 8.1-.1 1.1 0 2 .1 2.8-.1 0-.1 0 0 0z" class="st11"/><path d="M303.2 750.3c19.7 9 39.8 9.2 60.2 2.9 2.3-.7 4.5-1.4 6.8-2.1-.4 12.1 3.3 24.2-.9 36.3-.8 2.1-.8 3.3-3.1 3.3h-60c-2.8 0-3.9-1-3.8-3.9.3-12.2.6-24.4.8-36.5z" class="st10"/><path d="M328.3 644.7c-11.2-2.8-21.1-15.4-21.9-27.8-.8-12.9 7.7-25.3 20.1-29.7 12.9-4.5 26.8-.9 34 8.9-.8 5.1-1.5 10.2-1.5 15.5-.1 16.2-14.8 31.8-30.7 33.1z" style="fill:#f2e156"/><path d="M454.2 540.3c17.2-3.8 34.2-8.4 50.7-14.6 1.4-.5 2.9-1.1 4.4-1.3 2.5-.4 6.2-3 7.3.6 1.1 3.5 2.1 8.1-3.2 10.6-23.7 11.1-48.2 20-73.8 25.5-13.8 2.9-27.6 5.8-41.7 7-6 .8-11.8 3-17.9 2.9-4.2-.1-9.1.5-11.3-4.4-1.4-3.2 2.8-11 6.8-13.3 3.1-1.8 6.5-2.3 10-2.9 14.4-2.5 29-3 43.4-5.3 8.3-1.5 16.8-3.1 25.3-4.8z" class="st11"/><path d="M30.6 591c9.1 29.6 27.6 52 52.7 69.5-2.3 7.5-4.9 14.8-6.9 22.4-1.1 4.1-2.4 4.2-5.6 1.9-28.7-21.5-45.9-49.8-50.9-85.4-1.7-11.9-1.4-23.8 1.5-35.6 3.4.5 3.4 3.4 3.7 5.8.7 5.5 2.2 10.9 1.7 16.5-.3 2.6.9 4.6 3.8 4.9z" class="st9"/><path d="M455.4 774.5c3.5 1.8 7 3.6 10.4 5.4-1.9 4.4-5.4 1.9-7.7 1.1-5.1-1.7-8.5-.5-11.8 3.8-4.7 6.2-10.8 11.2-16.6 16.9 3.1 2.3 7.7-.2 10.9 4.8-12.8-.2-24.5.7-36.2-.6-9.4-3.9-13.6-11.6-12.9-23.8 1.3-.9-.7-4.2 2.6-3.8 11.5-3.2 22.8-6.8 34.9-6.9 9-.1 17.7 1.2 26.4 3.1zM280.2 795.5c-2.3 5.3-5.6 9.4-11.7 10.5-6.6.6-13.8 2.5-19.6-1.4-9-6-17.3-13.2-22.5-23.1-2.3-4.3-.7-6.1 4-7 15.5-3 30.1.7 44.6 5.4 7.8 2.5 8.2 3.6 6 11.9-.3 1.2.1 2.6-.8 3.7z" class="st8"/><path d="M280.2 795.5c.6-11.9.6-11.9-11.8-16-12.5-4.2-25.2-5.6-38.3-3.8-3.6.5-4 2-2.5 4.7 6.1 10.4 14.9 18.1 24.9 24.4 4.7 2.9 10.7.3 16.1 1.1-31.8 4.2-50 2.6-66.7-19.9-1.7-3.4.9-4.7 3.1-5.6 2.3-.9 4.6-2.1 7.2-2.2 19.6-7.9 39.3-8 59.3-1.5 3.9 1.3 8.1 1.7 12.1 2.5.1 5.7-.5 11.2-3.4 16.3z" class="st15"/><path d="M404.5 805.8h33.9c-3.1-1.9-6.3-1-9.4-1.3-1-.1-2.3.2-2.8-1.1s.5-2.1 1.3-2.7c8-6.1 15-13.3 21.1-21.2 1.8-2.4 3.9-1.9 6.4-1.2 3.6 1 7 3.4 11.1 1.6 3.2 1.1 5.2 3.6 7.2 6-11.8 14.9-26.8 22.9-46.2 21.5-7.7-.6-15.3 1.2-22.6-1.6z" class="st9"/><path d="M328.3 644.7c9.6-3.2 18.1-8.2 23.9-16.9 3.8-5.8 5.7-12 5.4-19-.2-4.3-1-9.2 3-12.6 8.9 11.4 9.5 25.4 1.7 36.9-7.3 10.8-20.5 15.3-34 11.6z" style="fill:#fcfcfb"/><path d="M454.2 540.3c-11.3 5.6-23.7 6.2-35.9 7.8-12.7 1.6-25.4 2.5-38 5-7 1.4-8.7 6.3-10.4 11.8-1 3.3 1.7 3.1 3.3 3.5 5.8 1.2 11.7.9 17.5.1 2.4-.3 4.7-.9 7.1-.5-8.6 2.5-16.8 6.8-26.4 3.9-5.3-1.6-6.9-4.7-6.1-9.7 0-.2.1-.4.1-.6 2-12.9 3-14.4 16.5-14.6 20.6-.3 41-2.9 61.2-6.5 3.6-.6 7.4-.2 11.1-.2z" style="fill:#613f36"/><path d="M336.8 565.7h-1.3c-10.4.3-10.2.3-10-10 .1-4.2 1-6.5 5.8-6 3.4.4 6.9 0 10.4.1 5.7.1 8.3 2.1 7.8 8.7-.4 5.6-1.2 8.6-7.6 7.3-1.5-.4-3.3-.1-5.1-.1z" style="fill:#dcdcdc"/><path d="M30.6 591c-.3 1.3-.5 2.7-2.4 1.4-2.2-1.5-3.9-2.8-3.4-6.2 1.1-7.7-.2-15.3-3.5-22.4-.7-2.8.5-5.4 1.3-8 .8-.7 1.6-.7 2.2.2 1 11.9 3.5 23.4 5.8 35z" style="fill:#fbf5ee"/><path d="M212.2 778.3c-3.1 3-9.2 2-10.3 7.7-2.9-2.5-5-5.6-6.8-8.8 5.7-.1 11.5 2.8 17.1-.1v1.2z" style="fill:#f4a025"/><path d="M391.5 749.6c-.1 1.5.2 3.1-1.4 4.1.7-12.4-1.1-24.8 1.1-37.2.2.2.4.5.5.8.3 10.8.8 21.6-.2 32.3z" style="fill:#988f8d"/><path d="M390.2 757.2c2.8 5.1 0 10.9 2.1 16-.8 1.2.3 2.8-1.1 3.8-2.6-6.4-1.5-13.1-1-19.8z" style="fill:#dbbd93"/><path d="M391.3 777.1c.4-1.3-.2-2.8 1.1-3.8.6 1.7 1.2 3.3 1.7 5-.9 1.3-1.7 2.6-2.6 3.8-.1-1.7-.1-3.4-.2-5z" style="fill:#fad8a5"/><path d="M115.6 23.4c-1.5.4-3.3-.2-4.3 1.6-1.2-.6-2.4-1.1-3.6-1.7 1.1-2.9 3.1-1.6 5-1.1 1.1.4 2 .8 2.9 1.2z" style="fill:#c6a774"/><path d="M112.8 22.2c-1.7.4-3.7-.8-5 1.1-1-.6-3.7-1-.8-2.3 1.6-.8 4.1-.4 5.8 1.2z" style="fill:#937955"/><path d="M24.9 556c-.7-.1-1.5-.1-2.2-.2-.4-1.6.8-2.6 1.4-3.9 1.1 1.3 1.2 2.7.8 4.1z" style="fill:#d9b690"/><path d="M85.3 168.5v-2.4c.6-1 .9-2.9 2.7-1.2-.7 1.4-1 3.1-2.7 3.6z" style="fill:#cb6105"/><path d="M565.3 23.6c-.5-1.2-1.7-1.1-2.7-1.4 1.4-1.3 3.2-1.9 4.5-.6.7.7-.6 1.7-1.8 2z" style="fill:#9a7f59"/><path d="M494.9 303.8c-10.3-.4-18.6-.8-26.5-3.5-23.1-7.6-30.9-27.1-19.5-48.7 9.9-18.8 32.6-27.4 53.2-20.1 20.1 7.2 31.8 27.3 27.9 48.2-2.4 12.8-10.6 20.9-24.1 23.2-4.3.7-8.6.7-11 .9zM179.8 303.6c-4-.1-8.8.3-13.5-.9-17.4-4.3-25.3-18.6-21.7-39.5 3.8-22.2 26.6-37.9 49-33.9 23.9 4.2 39.4 25.2 35.7 48.2-1.4 8.7-6.8 14.3-14.1 18.6-9.1 5.3-19 7.5-35.4 7.5z" class="st0"/><path d="M224.3 155.6c19-2 33.4 22 25.2 40.7-2 4.7-5.8 7.7-10.4 9.4-13.2 4.9-26.4 5.1-39.1-1.8-13-7-16.1-21.7-6.8-33.2 7.9-9.7 18-15.7 31.1-15.1zM451.8 209.3c-2.9-.3-5.5-.5-8.1-.9-23-3.8-25.5-23.5-17.2-39.2 9.2-17.4 29.8-16.8 44.8-7.3 2 1.3 3.8 2.9 5.5 4.6 6.5 6.5 11.9 13.8 8.6 23.7-3.2 9.7-10.8 15-20.4 17.4-4.3 1.1-9 1.2-13.2 1.7z" class="st8"/><path d="M286.8 317.7c-.4-13.7 4.8-22.3 17.5-27.6 21-8.8 42.4-9.1 63.6-.8 9 3.5 17.2 8.7 19.3 19.5 1.8 6.8.6 13.3-2 19.5-5.8 13.7-16.2 22.8-29.4 29.1-1.5.7-3.4.8-4.4 2.6 2 3.5 7 3.6 8.6 7.5 16.7 10.7 28 8.8 40.2-6.6 3.9-5 7-10.5 10-16.1 2.9-5.3 7.3-5.9 12.2-3.5 4.5 2.3 6.9 5.5 4.5 11.1-6 14.4-14.3 27-28.1 34.9-4.5 2.6-6.5 6-7.5 11.2-3.6 19.3-11.4 36.6-27.2 49.2-17.2 13.8-39.4 13.4-56.3-.9-15.8-13.4-23.2-31.2-27-50.9-.8-4-2.5-6.4-5.9-8.6-12.8-8.3-21.8-19.8-27.4-34-2.3-6-.6-10.1 4.6-12.3 5.9-2.5 9.5-1.1 12.5 4.9 2.6 5.3 5.6 10.3 9.3 15 12.1 15.3 23.6 17.2 40.2 6.5 1.6-3.9 6.3-4.4 9-7.9-6.3-3.2-12.5-6.2-17.9-10.5-6.4-5.1-11.6-11.1-15.2-18.4-2-4-3.2-8.2-3.2-12.9z" class="st0"/><path d="M360 367.6c-4.5-2.1-8.6-4.7-12.8-8.2 23.3-9.4 39.7-23.7 40-50.6 7.1 16.5.9 38.3-13.5 49.4-4.4 3.4-10 5-13.7 9.4z" class="st15"/><path d="M286.8 317.7c5.3 21.3 19.8 33.9 40.2 41.5-4.2 3.7-8.4 6.2-12.8 8.4-4.5-3.3-8.8-6.7-13.4-9.8-9.1-6.2-13.7-15.3-16.3-25.5-1.3-5 1.3-9.7 2.3-14.6z" style="fill:#ddd"/><path d="m391.5 749.6.3-32.3c1.4 10.8 1.7 21.6-.3 32.3z" style="fill:#e5ba7e"/><path d="M495.1 256.5c.1 7.6-5.5 14.1-12.4 14.3-8.4.2-14.3-5.4-14.5-14-.2-7.3 6.1-13.8 13.6-14.1 6.3-.2 13.1 6.9 13.3 13.8zM205.7 257.1c0 8.5-5.1 13.3-13.8 13.3-8.2-.1-12.7-5-12.6-14 0-7.3 5.5-13.1 12.5-13.2 8.2-.2 13.9 5.4 13.9 13.9z" class="st31"/><path d="M337.4 320.7c-8.1-1.2-16.5-.9-24-5.2-3.6-2-6.9-4.7-6.8-8.9.1-4.4 3.5-7.4 7.5-9 15.2-5.9 30.4-5.8 45.6 0 3.9 1.5 7.5 4 8 8.6.4 5-3.6 7.1-7.1 9.2-7.1 4.4-15.2 4.5-23.2 5.3z" style="fill:#614037"/><path d="M361.4 421.5c-.7 1.1-1.4 2.2-2.2 3.2-16.2 19.2-32.1 18.4-47.2-2.1 1.1-2.4 3.4-3.3 5.7-4 14.1-4.1 28-2.9 41.8 1.3.8.2 1.4.9 1.9 1.6z" style="fill:#f28b7e"/><path d="M361.4 421.5c-13.7-2.8-27.5-5.6-41.5-1.7-2.7.8-5.3 1.8-7.9 2.7-4.6-6-4.6-6.1 2.4-8.3 14.9-4.7 29.8-4.7 44.9-.3 5.4 1.7 6.3 3.7 2.1 7.6z" style="fill:#dddbdb"/></svg>