<svg xmlns="http://www.w3.org/2000/svg" data-name="Layer 1" viewBox="0 0 512 512"><path d="M0 0h512v512H0z" style="fill:#265fac"/><path d="M989.69-20c-4.92 53.68-58.11 46.94-58.11 46.94V-20h-53.33v46.94H763.13V-20h-52.22v46.8C658.46 30 655-19 655-19h-52.44v2.16a95.35 95.35 0 0 0 92.73 95.32l15.13.41v66.86a102.31 102.31 0 0 0 102.3 102.31h16.65a102.63 102.63 0 0 0 102.32-102.32V78.51h15.77a94.43 94.43 0 0 0 94.43-94.43V-20h-52.2ZM878.5 140a57.45 57.45 0 1 1-114.88 1.84V77.4H878.5V140Z" style="fill:#fff" transform="translate(-566.22 190.08)"/></svg>