<svg xmlns="http://www.w3.org/2000/svg" xml:space="preserve" style="enable-background:new 0 0 256 256" viewBox="0 0 256 256"><path d="M51 10.7C24.7 14.1.6 21-20.6 37.9-33.7 48.3-45 61.2-53 76c-32.3 59.2-13.5 133.4 43.1 170.3 11.6 7.5 24.5 12.9 37.9 16.2 16 4 32.8 4.6 49.1 2.5 64.7-8.7 112.8-67.9 110-132.5C184.6 74.7 141.5 24.4 84.6 13 73.9 10.9 61.9 9.3 51 10.7M58.5 64c5-.4 12.3 3.2 17.1 4.7 11 3.6 22.9 5.8 33.6 10.2 2.7 1.1 4.1 5.1.5 6.3-3.5 1.2-10.9-2.5-14.4-3.6-7.8-2.5-15.7-4.8-23.5-7.1-3.9-1.2-8.2-3.2-12.3-3.5-4.1-.3-9 2.2-12.8 3.4C38.4 77 30 79.5 21.6 82c-3.2 1-10.7 4.8-13.8 3-6.9-3.9 5.8-7.6 7.9-8.2 9.3-2.7 18.6-5.5 27.8-8.5 4.7-1.4 10.1-3.9 15-4.3M-12 85.9c4.8-1.7 8.4 9.8 10 13 4.7 9.4 9.7 18.8 14.4 28.2 2.7 5.3 5 11.7 8.7 16.4 2.7 3.5 13 1.7 17.1 1.7h42.2c4 0 12.6 1.6 15.9-.9 2.2-1.6 3.3-5.3 4.5-7.7l8.5-17c4.6-9.3 9.5-18.4 14.2-27.7 1.2-2.5 3.6-8.3 7.4-5.8 2.7 1.8 2.2 7.8 2.4 10.6.7 9.9.4 19.5-.5 29.3-3.1 33.6-20.2 65.1-46.5 86.1-7.2 5.7-17.1 13.9-26.2 16.2-2.7.7-5.7-1.6-8-2.8-6.8-3.5-13.1-7.9-19.2-12.4-27.2-20.4-43.7-52.6-47.5-86-1.2-10.4-1.2-20.5-.6-30.9.1-2.9-.2-9.1 3.2-10.3m3.2 14.6c-2.5 8.4-.2 20.2 1 28.8 3.9 28.1 17 54.7 38.5 73.6 6 5.3 12.9 11.1 20.3 14.3l-37.2-73L-.6 116l-8.2-15.5m135.1 0c-12.3 29.6-29.5 57.7-43.9 86.3-4.9 9.7-12.3 19.9-15.4 30.4 32.1-15 52.7-51 58.2-84.7 1.3-7.7 2.1-15.6 2.1-23.4 0-2.8.7-6.3-1-8.6M24.8 151.6l33.6 66h1.1l33.6-66H24.8z" style="fill:#e1a94c" transform="translate(68.756 -10.154)"/></svg>