<svg xmlns="http://www.w3.org/2000/svg" xml:space="preserve" style="enable-background:new 0 0 40.7 40" viewBox="0 0 40.7 40"><path d="M33.3 0H7.4C3.3 0 0 3.3 0 7.3v25.4c0 4 3.3 7.3 7.4 7.3h25.9c4.1 0 7.4-3.3 7.4-7.3V7.3c0-4-3.3-7.3-7.4-7.3zM27 10c3 0 5.5 2.4 5.5 5.4 0 .9-.2 1.8-.6 2.6-.7-.5-1.5-1-2.3-1.3.2-.4.3-.9.3-1.3 0-1.5-1.3-2.8-2.8-2.8-1.6 0-2.8 1.3-2.8 2.8 0 .5.1.9.3 1.3-.8.3-1.6.7-2.3 1.3-.5-.8-.6-1.7-.6-2.6-.1-3 2.3-5.4 5.3-5.4zM13.7 30c-3 0-5.5-2.4-5.5-5.4h2.6c0 1.5 1.3 2.8 2.8 2.8s2.8-1.3 2.8-2.8H19c.2 3-2.3 5.4-5.3 5.4zm0-7.5c-3.5 0-6.3-2.8-6.3-6.2 0-3.4 2.8-6.3 6.3-6.3s6.4 2.8 6.4 6.3c0 3.4-2.9 6.2-6.4 6.2zM27 30c-3.5 0-6.4-2.8-6.4-6.2 0-3.5 2.8-6.3 6.4-6.3 3.5 0 6.3 2.8 6.3 6.3.1 3.4-2.8 6.2-6.3 6.2zm3.8-6.3c0 2.1-1.7 3.7-3.8 3.7s-3.8-1.7-3.8-3.7c0-2.1 1.7-3.7 3.8-3.7 2.1.1 3.8 1.7 3.8 3.7zm-13.4-7.4c0 2.1-1.7 3.7-3.8 3.7-2.1 0-3.8-1.7-3.8-3.7 0-2.1 1.7-3.7 3.8-3.7 2.2 0 3.8 1.6 3.8 3.7z" style="fill:#d9b432"/></svg>