<svg xmlns="http://www.w3.org/2000/svg" xml:space="preserve" id="Layer_1" x="0" y="0" style="enable-background:new 0 0 472.4 168" version="1.1" viewBox="0 0 472.4 168"><style>.st0{fill:#2d1680}</style><path d="M0 0h72c42 0 76 34 76 76H0V0zM163 0h72c42 0 76 34 76 76H163V0zM0 168h72c42 0 76-34 76-76H0v76zM163 168h72c42 0 76-34 76-76H163v76zM305 0h53.3L472 168h-56.3L305 0z" class="st0"/><path d="m424.5 66-44-64.5h89l-45 64.5z" style="opacity:.9329;fill:#ef88aa;stroke:#ef88aa;stroke-width:3;stroke-dasharray:229.2358,245.7249;enable-background:new"/><path d="m350 103-43.5 62.5h85L350 103z" style="opacity:.9329;fill:#ef88aa;stroke:#ef88aa;stroke-width:5;stroke-dasharray:220.3232,236.1712;enable-background:new"/></svg>