<svg xmlns="http://www.w3.org/2000/svg" xml:space="preserve" id="Layer_1" x="0" y="0" style="enable-background:new 0 0 1518.1 1518.1" version="1.1" viewBox="0 0 1518.1 1518.1"><style>.st0{fill:#534d49}.st1{fill:#4c4643}.st13{fill-rule:evenodd;clip-rule:evenodd}.st13,.st14{fill:#ef9b1e}.st15{fill:#ef9d1e}.st18{fill:#47423e}.st19{fill:#403d3a}.st20{fill:#6a6560}.st21{fill:#fdc931}.st22{fill:#fdca32}</style><g id="Layer_1_00000075861171413141365320000007363387950718676396_"><g id="_x3C_Group_x3E__00000109734504137290142830000002809576029477770116_"><g id="_x3C_Group_x3E_"><path id="_x3C_Path_x3E_" d="M729.7 1.2V0h44.4c0 .4 0 .8.1 1.1-14.8 0-29.7.1-44.5.1z" class="st0"/><path id="_x3C_Path_x3E__00000153664038495475487900000017690966336787040171_" d="M1517 737.9c.4.1.7.1 1.1.1v42c-.4 0-.8.1-1.1.1v-42.2z" class="st1"/><path id="_x3C_Path_x3E__00000008833181264009641870000011465966079452148633_" d="M780.2 1517c-.1.4-.2.7-.1 1.1h-42c0-.4 0-.8-.1-1.1h42.2z" class="st0"/><path id="_x3C_Path_x3E__00000076595721351005790400000013962251897196922760_" d="M0 744.1c.4 0 .8-.1 1.1-.1v31.4c-.4-.1-.8-.1-1.1-.1v-31.2z" class="st0"/><path id="_x3C_Compound_Path_x3E_" d="M1.1 775.4V744C2.8 679.7 11.7 616.6 29 554.7c12.4-44.4 28.8-87.2 49-128.6 25.1-51.4 55.7-99.4 91.8-143.7 49.5-60.9 106.9-113.2 172.5-156.4 63.7-41.9 132-73.6 205-95 45.6-13.4 92.1-22.3 139.5-26.5 14.3-1.2 28.6-2.2 42.9-3.3 14.8 0 29.7-.1 44.5-.1 54.6.9 108.6 7.2 161.4 20.8 35.7 9.2 71 20.9 105.6 33.8 44.7 16.6 86.5 39.2 126.6 65 35.2 22.7 68.4 48 99.4 76.3 38.2 34.8 72.8 72.6 103.3 114.3 31.5 43.1 58.2 88.9 80.2 137.5 17.9 39.6 31.9 80.6 42.7 122.6 8.8 34.3 15.8 69.1 18.8 104.5 1.8 20.7 3.2 41.4 4.7 62v42.3c-12.8 402.7-334 724.5-736.8 736.8h-42.3c-63.7-2.2-126.4-11.4-187.7-29.1-74.3-21.4-143.9-53.3-208.3-96-64.9-43-121.9-94.8-171.1-155.2-47.2-58-84.7-121.7-113.4-190.7-18.3-44.1-32.2-89.8-41.2-136.6C11 882.9 7.9 855.9 4.8 829c-2-17.7-2.5-35.7-3.7-53.6zm1118 632.6c22.7-13.9 46.6-26.2 67.9-42.1 29.1-21.6 56.8-45 83.9-69.1 16.5-14.6 31-31.6 45.9-47.9 24.5-26.8 46.3-55.8 65.9-86.4 1.1-1.7 1.7-4.6 1.1-6.4-9.8-27.2-25.8-49.7-50.4-65.7-3.2-2.1-4.9-2.2-6.9 1.6-5.3 9.8-10.7 19.6-16.7 29-10.9 17.1-21.7 34.3-33.7 50.6-14.4 19.5-29.2 38.8-45.2 56.9-26.8 30.1-58 55.2-92.6 76-21.2 12.7-42.2 25.7-64.1 37.2-20.1 10.6-40.9 19.7-61.8 28.7-15.5 6.7-31.6 12.2-47.4 18.2-4.4-.2-8.7-1.7-8.2-6.5.4-3.2 3.2-7.6 6-8.8 10.5-4.7 21.7-7.8 32.2-12.4 26.5-11.8 53.2-23.3 79.1-36.4 20.2-10.2 39.3-22.5 58.6-34.5 10.2-6.4 19.7-14 29.5-21.1.9-.4 2-.5 2.7-1.1 17.7-16 36-31.4 52.8-48.3 13.5-13.7 26.5-28.3 37.4-44.2 20.2-29.3 38.8-59.8 57.9-89.9 2.1-3.3 4.1-7.1 4.6-10.9 3.9-27.9-.8-55-10.6-81-11.4-30.3-29.2-57.2-48.1-83.2-9.5-13-20.2-25.2-31.1-37.1-15.8-17.3-31.6-34.7-54.1-43.8-1.5 6.7-3.5 13.8-4.5 21-3.6 25.2-11.9 49-21.9 72.2-13.5 31.2-32.6 59.3-52.6 86.6-16.7 22.8-33.1 45.7-50.6 67.8-20.5 25.9-44.6 48.4-70.4 68.9-15.7 12.5-32.7 23.5-49.3 34.9-3.9 2.7-8.8 5-12.7-.5-3.1-4.4-.8-9.8 4.9-13.3 9.2-5.8 18.7-11.5 27.4-18.1 13.5-10.2 26.5-21 39.4-31.9 21.2-17.9 40.5-37.8 57.4-59.8 17.9-23.3 34.8-47.5 51.6-71.7 10.2-14.7 20-29.8 29.1-45.2 13.3-22.6 23-47 28.8-72.5 5.8-25.6 14.4-50.9 5.9-78.4-9.7-31.1-15.2-63.4-31.7-92.4-15.1-26.5-27.8-54.5-43.1-80.9-16.8-28.8-39.4-53.2-63.7-75.9-3.2-3-7.1-5.4-11.9-8.9 0 3.1-.1 4.4 0 5.7 1.6 17.2 4.9 34.5 4.5 51.7-.7 28.2-3.4 56.3-6 84.4-.9 9.8-3.5 19.5-5.7 29.2-1.1 4.8-5.5 6.6-9.3 5-2.4-1-5.2-5.5-4.9-8 2.9-21.6 7-43.1 9.7-64.7 4.3-34.1 2.2-68.3-4.7-101.8-4.4-21.4-11.6-42.2-18.2-63.1-2.2-7-5.7-14.1-14.6-15-24.1-2.4-45.6 2.1-65.1 18.3-17.5 14.5-29.3 31.4-35 53.1-.7 2.7-5.6 5.5-8.9 6-4.2.7-5.3-3.3-5.1-7.1.1-1.8-.2-3.8.4-5.3 5.2-11.5 9.8-23.5 16.2-34.4 4.6-7.9 11.7-14.3 18.4-22.4-20.6-6.5-40.3-13.5-60.5-18.8-16.3-4.3-33-7.3-49.8-9.3-18.8-2.2-37.8-4-56.7-3.7-20.8.4-41.8 2.2-62.4 5.5-19.4 3.1-38.8 7.4-57.3 13.8-30.3 10.5-54.6 30.4-77.5 52.7-26.5 25.8-46.6 55.9-63.6 88.3L426 650.5c-2.2 5.4-2 8.3 5.2 10.9 24 8.8 35.2 28.4 39.5 52.5.5 6.7-1.5 12.6-6.4 17.3-7.9 5.2-16.2 3.6-24.1.9-8.3-2.8-16.1-6.9-23.9-10.3V781c1.3 6.6 0 12.2-6 16.2-23.2 15.5-39.2 37.7-54.7 60.2-3.1 4.4-5.1 9.5-8 15 8.1-2.2 15-4.9 22.1-5.9 14.7-2 28.2 3.1 41.7 8.4 11.9 4.6 23.7 9.1 32.1 19.4 12.1 16.8 14.9 34.2 3.2 52.3-2.9 4.5-5.8 9.2-9.7 12.8-7.3 6.7-14.5 14.1-23.2 18.3-8.8 4.3-18 6.6-25.3 14.5-4.2 4.6-3.6 6.3.3 9.2 1.9 1.4 4 3 6.2 3.4 13.3 2.8 26.6 6.8 40.1 7.6 21.9 1.2 44 .5 66 .2 6.9-.1 13.8-1.2 20.7-2.1 21.5-2.9 39.7-13.3 57.2-25.4 12.3-8.5 24.3-16.6 32.8-29.7 6.4-9.8 16.6-9.6 25.2-1.5 7.9 7.5 5.9 15.2-4.2 19.2-7.8 3-15.8 5.8-22.9 10-14 8.4-27.4 17.8-41.3 26.6-13.5 8.6-28.3 14.6-44.2 15.8-24.5 1.8-49 2.6-73.6 2.7-24.6.1-49.2-.7-71.2-14.4-1.1-.7-3.9 1.4-5.9 2.2.6 1.3.9 3.3 1.9 4 7.4 4.7 14.7 9.7 22.4 13.7 23.9 12.4 50.2 14.6 76.2 15.8 16.7.8 33.9-.6 50.3-3.6 18.4-3.4 37.1-8 54.1-15.5 33-14.5 63.7-33.6 93-54.9 2.2-1.6 7.2-1.7 9.4-.2 2 1.3 2.9 5.8 2.6 8.7-.2 1.9-3.1 4-5.2 5.3-20 12.8-40 25.5-60.2 38-41.3 25.5-86.2 38.5-134.8 38.1-7.3-.1-14.6 0-21.3 0 3.5 8.7 8.1 17.6 10.5 27.1 7.8 30.9 10.7 62.7 10 94.4-1.2 48.1-3.7 96.2-6.4 144.2-2 35.3-5.2 70.4-7.9 105.7-.3 3.6-.1 6.4 4.2 7.9 19.1 6.8 37.9 14.7 57.3 20.7 38.6 11.9 77.6 22.7 118 27.3 26 2.9 51.9 7.1 78 7.9 39.8 1.3 79.7 1.5 119.3-4.4 24.2-3.6 48.9-5.7 72.6-11.6 35.4-8.8 70.8-18.7 105-31.4 31.5-11.7 61.4-27.6 92-41.8 1.7-.4 2.9-2.1 4.4-3.4zM83.3 1068.7c.8.1 1.5.1 2.3.1 1.1-7.1 2.1-14.3 3.4-21.4 6.3-33.6 12.9-67.2 19.1-100.8 6.5-35.2 12.4-70.5 19.4-105.6 5.2-26.3 11.4-52.4 17.4-78.6 3.8-16.7 8.2-33.2 12-49.9 6.1-26.5 11.8-53.1 17.9-79.7 5-21.7 10.8-43.2 15.7-65 7.4-32.7 13.9-65.6 21.6-98.3 6.7-28.4 13.9-56.8 22.3-84.8 3.8-12.7 10.8-24.6 17.2-36.5 3.8-7 11.6-9.3 18.9-9.9 18.6-1.6 36.8 1.2 54.7 6.9 28.9 9.3 37.6 32.9 32.2 54.7-6 24.1-13.7 47.7-20 71.7-7.5 28-14.2 56.2-21.4 84.4-14.9 58.2-29.6 116.4-44.8 174.5-6.7 25.5-13.9 51-21.4 76.3-9.4 32.2-19.1 64.3-28.9 96.4-9.3 30.2-18.9 60.2-28.6 90.2-8.8 27.4-18 54.6-26.5 82.1-8.7 28.3-16.7 56.8-25.2 85.1-1.7 5.7-1 10.4 2.6 15.1 3.8 4.9 6.9 10.3 10.9 15.1 21.4 26 41.9 52.8 64.8 77.6 20.1 21.8 41.8 42.5 64.7 61.3 25.2 20.7 51.8 40 79.3 57.3 27.8 17.5 57.5 31.8 86.5 47.3.8.4 3.9-1.2 4-2.1.7-4.9.6-9.9 1-14.9 2-24.6 4.3-49.3 6.1-73.9 1.5-19.5 2.9-39 3.6-58.5 1.3-39.7 3-79.4 2.9-119.2-.1-24.9-2.8-49.8-10.2-73.8-4.2-13.5-11.1-24.3-25.9-28.9-13.6-4.3-27.2-9.3-39.8-15.9-16-8.4-31-18.9-46.6-28.2-25.4-15.2-36-38.7-36.8-67.1-.9-32.9 11.7-61.8 27.6-89.7 16.7-29.2 37-55.3 63.7-76.1 1.3-1 2.5-3.4 2.4-5-2.4-29.4-1.3-58.6 1.3-87.9 2.1-23.6 6.3-46.9 15.8-68.3 12.4-28 26.8-55.2 42.2-81.8 13.3-23 32.1-42 51.3-60.5 2-1.9 3.1-5.8 2.8-8.6-2.7-28 .6-54.7 17.7-78.1 1.8-2.4 5.7-4.7 8.7-4.7 26.8.3 50.4 9.2 68.9 29 3.8 4.1 7.5 5.2 12.6 4.2s10.1-2 15.2-2.5c24.2-2.4 48.5-5.4 72.8-6.8 13.8-.8 27.8.8 41.6 2.3 18.1 2 36.3 4 54 7.9 27.2 5.9 53.9 13.7 79.4 25.3 2.4 1.1 6.2 1.4 8.4.2 18-9.9 37.2-13.9 57.5-13 13.7.6 25.3 5.9 30.6 19.8 5.2 14 9.8 28.2 14.9 42.2 1.1 3.1 2.7 6.3 5 8.5 4 3.8 8.8 6.8 13.2 10.3 34.9 27.8 63.6 61.1 85.4 100 16.7 29.8 31.6 60.6 47 91.1 3.7 7.2 6.4 15.1 8.7 22.9 6.7 22.6 12.8 45.4 19.5 68 2.9 9.7 8.4 17.2 17.9 22.1 6.8 3.5 13.3 8.2 18.8 13.4 34.9 33.1 65.1 70 89.2 112 21.4 37.2 34.1 76.2 31.5 119.6-.1 2.2 2.2 5 4.1 6.8 11.7 10.5 24.7 19.7 35.1 31.3 9.2 10.2 15.5 23.1 23.4 35.1 33.8-55 59.4-114.2 77.3-176.6 33.6-116.8 38.5-235.1 14.1-354-26.7-130.5-84.2-246.4-173.4-345.5C1182.8 119.5 1019.2 35.9 823.8 19 629.5 2.3 453.4 54 300.1 174.5 140.2 300.3 46.7 466.3 21.3 668.1c-17.6 138.8 3 273.1 62 400.6zm43 81.4 2.1-.3c.6-1.8 1.2-3.6 1.8-5.5 3.3-11.3 6.3-22.6 9.8-33.8 9.9-32 19.9-64.1 30.1-96 8.2-25.7 17-51.2 25.2-77 12.2-38.4 24.3-76.9 36-115.4 7.3-24.1 13.9-48.4 20.6-72.7 6.7-24.5 13.3-49 19.4-73.7 8.8-35.5 17-71.1 25.9-106.6 8.9-35.4 18.3-70.7 27.7-106 6-22.4 12.8-44.6 18.6-67.1 3.5-13.7-3.8-27.9-15.9-33.1-17.7-7.7-36.2-10.4-55.5-9-6.7.5-11.5 4.5-13.4 9.6-6.7 17.9-13.6 35.9-18.2 54.5-9.2 36.7-17 73.8-25.5 110.8-4.6 20-9.4 40-14.1 59.9-5.8 24.9-11.6 49.9-17.3 74.8-8.2 35.8-16.6 71.5-24.7 107.4-6 26.5-11.9 53.1-17.3 79.7-4.8 23.9-8.9 48-13.3 72-4.8 25.7-9.5 51.5-14.5 77.2-4.8 24.7-9.9 49.4-15 74-2.9 13.7-4.2 27 6.3 38.4.8.8 1.1 2.1 1.6 3.2 6.5 11.6 13 23.2 19.6 34.7zm470.9-721.4c-11.7-11.9-26.6-18.8-43.6-20.8-11.4-1.4-13.8.9-17.5 12.1-.4 1.3-1.2 2.5-1.7 3.8-5.7 13.7-6 28-4.9 41.8 22.5-12.2 44.9-24.4 67.7-36.9zM323.8 945.8l-1.5.6c.2 3.5.3 7 .7 10.5 2.4 19.6 9.5 36.5 26.8 47.8 5.5 3.6 12 3.2 15.5-1.3s2.2-9.9-2.7-14.7c-7.3-7.1-14.2-14.5-21-22-6.2-6.7-11.9-13.9-17.8-20.9zm103.5-236.2c0-4-.5-6.6.1-9 1.3-5.5 3-10.8 4.7-16.2.5-1.7 1.6-3.3 2.4-4.9-2.9-1.3-5.7-2.8-8.6-3.7-.3-.1-2 2.8-2.4 4.5-1 3.8-1.9 7.7-2.2 11.6-.6 6-.4 11.9 6 17.7z" style="fill-rule:evenodd;clip-rule:evenodd;fill:#181411"/><path id="_x3C_Compound_Path_x3E__00000057114821890121841410000011438851895753971595_" d="M83.3 1068.7c-58.9-127.6-79.6-261.9-62-400.6 25.5-201.8 118.9-367.9 278.9-493.6C453.5 54 629.6 2.3 823.8 19c195.4 16.8 359 100.5 490.2 246.1 89.3 99.1 146.7 215 173.4 345.5 24.4 118.9 19.5 237.3-14.1 354-17.9 62.4-43.6 121.6-77.3 176.6-7.9-12.1-14.2-24.9-23.4-35.1-10.4-11.6-23.4-20.8-35.1-31.3-1.9-1.7-4.2-4.6-4.1-6.8 2.6-43.4-10.1-82.4-31.5-119.6-24.1-41.9-54.3-78.8-89.2-112-5.6-5.3-12-9.9-18.8-13.4-9.5-4.9-15-12.4-17.9-22.1-6.7-22.6-12.8-45.4-19.5-68-2.3-7.8-5.1-15.6-8.7-22.9-15.4-30.5-30.3-61.3-47-91.1-21.7-38.8-50.5-72.1-85.4-100-4.4-3.5-9.2-6.5-13.2-10.3-2.3-2.2-3.9-5.5-5-8.5-5.1-14-9.7-28.2-14.9-42.2-5.2-13.9-16.8-19.2-30.6-19.8-20.2-.9-39.5 3.1-57.5 13-2.1 1.2-6 .9-8.4-.2-25.5-11.6-52.2-19.4-79.4-25.3-17.7-3.9-35.9-5.9-54-7.9-13.8-1.5-27.8-3-41.6-2.3-24.3 1.3-48.5 4.3-72.8 6.8-5.1.5-10.2 1.5-15.2 2.5-5.1 1-8.8-.1-12.6-4.2-18.6-19.9-42.1-28.7-68.9-29-2.9 0-6.9 2.2-8.7 4.7-17.1 23.4-20.5 50-17.7 78.1.3 2.8-.9 6.8-2.8 8.6-19.2 18.4-38 37.4-51.3 60.5-15.3 26.5-29.8 53.8-42.2 81.8-9.5 21.4-13.6 44.7-15.8 68.3-2.6 29.3-3.7 58.6-1.3 87.9.1 1.6-1.1 4-2.4 5-26.7 20.8-47 46.9-63.7 76.1-15.9 27.8-28.6 56.8-27.6 89.7.8 28.4 11.4 51.9 36.8 67.1 15.6 9.3 30.5 19.8 46.6 28.2 12.6 6.6 26.2 11.6 39.8 15.9 14.8 4.7 21.7 15.4 25.9 28.9 7.4 24 10.1 49 10.2 73.8.1 39.7-1.5 79.4-2.9 119.2-.7 19.5-2.1 39-3.6 58.5-1.8 24.7-4.1 49.3-6.1 73.9-.4 5-.4 10-1 14.9-.1.9-3.2 2.5-4 2.1-29-15.5-58.7-29.8-86.5-47.3-27.6-17.3-54.1-36.6-79.3-57.3-22.9-18.8-44.6-39.5-64.7-61.3-22.8-24.7-43.3-51.5-64.8-77.6-3.9-4.8-7.1-10.2-10.9-15.1-3.6-4.7-4.3-9.4-2.6-15.1 8.5-28.3 16.4-56.8 25.2-85.1 8.5-27.5 17.7-54.7 26.5-82.1 9.6-30 19.3-60.1 28.6-90.2 9.9-32.1 19.5-64.2 28.9-96.4 7.4-25.3 14.7-50.8 21.4-76.3 15.1-58.1 29.9-116.3 44.8-174.5 7.2-28.1 14-56.3 21.4-84.4 6.4-24 14-47.6 20-71.7 5.4-21.8-3.3-45.4-32.2-54.7-17.9-5.7-36.1-8.5-54.7-6.9-7.2.6-15.1 3-18.9 9.9-6.4 11.8-13.4 23.7-17.2 36.5-8.4 28-15.6 56.3-22.3 84.8-7.7 32.6-14.2 65.6-21.6 98.3-4.9 21.7-10.7 43.3-15.7 65-6.2 26.5-11.9 53.1-17.9 79.7-3.8 16.7-8.2 33.2-12 49.9-6 26.2-12.2 52.3-17.4 78.6-6.9 35.1-12.8 70.4-19.4 105.6-6.2 33.6-12.8 67.2-19.1 100.8-1.3 7.1-2.3 14.2-3.4 21.4-.9-.4-1.6-.4-2.4-.5zm697.6-833.4c-1 16.1 7.5 18.4 19.8 21.4 10.4 2.5 21.1 3.7 31.6 5.8 19.8 4 39.3 10.1 59.8 7.4 9-1.2 17.2-4.2 24.8-9.8 10.4-7.7 14.9-18.6 18.3-30 1.8-6 1.2-13.2-.3-19.4-2.8-11.6-10.8-20-20.2-27-1-.8-1.6-2.1-2.4-3.1 1.1-.6 2.2-1.4 3.3-1.9 23.4-8.4 34-35.1 24-58-7.5-17.2-21.8-24.4-38.4-28.1-23.6-5.3-47.4-9.7-71.2-14.4-8-1.6-16.3 2.2-19.3 9.8-3 7.8-4.8 16.2-6.5 24.5-3 14.4-5.4 28.8-8.3 43.2-3.9 19.5-8.2 38.9-12 58.3-1.4 7.1-2 14.2-3 21.3zm-120.1 31.1c10.9-1.8 22.2-2.5 32.7-5.6 30.5-9 48.5-30.9 55.4-61 6.6-28.6 1.3-56.2-12.7-81.9-12-21.9-31.1-35-55.4-38.2-18.8-2.4-37.9-.5-56.4 6.2-32.3 11.8-50.7 39.8-52 72.4-.7 16.6.4 33.2 6.2 48.9 3.7 10 8.1 20.3 14.6 28.5 17 21.4 40.3 30.3 67.6 30.7zm-108.2-23.2c-2.4-8.7-4.4-21.9-9.5-33.7-8.3-19.4-18.7-37.8-36-51.3-11.4-8.9-23.8-14.4-38.1-15.4-16-1.1-30.8 3.4-44.8 10.6-16 8.2-31.5 17.3-47.8 24.8-11.7 5.3-13.8 15.1-10.4 23.8 4.3 11.2 10.5 21.7 16 32.4 16 31.4 32.1 62.7 48.2 94 6.2 12.1 12.9 16.7 28 9.8 20.1-9.2 39.6-19.8 58.9-30.6 23.2-12.9 32.6-34.6 35.5-64.4zm595.9-2.7c.2-15.5-5.3-29.3-13.4-42-13.1-20.6-33.2-32.4-55.4-40.6-14.7-5.5-30.5-4.9-45.4-.8-16.1 4.4-30.1 13.7-41.1 26.5-18.6 21.7-30.4 46.2-30.9 75.5-.3 22.4 9.1 40.6 24.7 55 21.9 20.1 47.7 32.6 78.5 28.9 9.4-1.1 19.1-4.7 27.6-9.1 13-6.7 22.9-17.4 31.4-29.5 13.6-19.3 23.3-39.8 24-63.9zm92.7 88.8c-2.8 2.3-5.4 4.1-7.5 6.3-14.4 14.7-28.6 29.6-43.1 44.1-16.3 16.3-32.9 32.4-49.6 48.4-4 3.8-3.8 6.6.1 10.4 10.4 10.2 20.5 20.8 30.7 31.2 3.1 3.1 5.8 4.1 9.4.1 7.6-8.1 15.7-15.8 23.5-23.7 10.5-10.5 20.8-21 31.5-31.3 1.2-1.2 4.7-2.1 5.6-1.4 6.2 5.2 12 10.9 17.8 16.5 8.4 8.1 16.8 16.4 25.2 24.6l16 15.7c2.6 2.6 4.7 2.5 7.4-.3 10.7-11 21.6-22 32.7-32.6 3.6-3.4 3.7-5.7.1-9.2-16.1-15.8-31.9-31.8-47.9-47.7l-46.5-46.5c-1.6-1.6-3.3-2.9-5.4-4.6zm-64.4 187.8c-2 1.6-4 3-5.7 4.6-10.3 10.4-20.4 21-30.8 31.3-3.3 3.3-3.5 5.1-.1 8.4 17.7 17 35.3 34.1 52.7 51.5 13.7 13.7 27 27.8 40.5 41.6 6.2 6.4 7.4 6.3 13.6.2 11.2-11.2 22.5-22.4 33.7-33.7 10.2-10.3 20-21 30.2-31.3 9.6-9.6 19.4-18.9 29.3-28.2 2.7-2.5 2.6-4.2 0-6.8a2805.5 2805.5 0 0 1-34.5-34.5c-3-3-5.3-3.5-8.5-.4-8.1 8.1-16.5 15.9-24.6 24.1-10 10.1-19.8 20.5-29.6 30.8-3.2 3.4-5.9 3.2-9-.1-6.3-6.6-12.9-12.9-19.3-19.5-11.5-11.8-22.9-23.6-34.3-35.4-1-.9-2.2-1.6-3.6-2.6zm-23.1-22.1c-1.1-1.4-1.9-2.7-3-3.8-11.1-11.2-22.4-22.2-33.3-33.5-3.3-3.4-5-2.1-7.6.5-9.6 9.5-19.1 19.1-29.1 28.2-9.1 8.3-9.4 9.5-.8 17.9 8.8 8.6 18.1 16.7 26.3 25.9 4.1 4.6 6.4 4.5 10.5.5 11.3-10.9 22.9-21.5 34.4-32.3.8-.9 1.5-2 2.6-3.4zm253 0c-.5-.9-.8-1.7-1.3-2.2-11.7-11.7-23.4-23.5-35.3-34.9-.9-.9-4.4-.7-5.5.3-11.5 10.4-22.8 21.1-34.2 31.5-3.2 3-3.4 5.1-.1 8.3 11.2 10.9 22.2 21.9 33 33 3 3.1 4.8 2.9 7.6-.1 11.2-11.4 22.6-22.5 33.9-33.8.6-.6 1.2-1.3 1.9-2.1zm-166.9-39.1c-.9.5-1.9.9-2.5 1.5-11 11.1-22 22.3-33 33.5-3.1 3.1-1.6 5.6 1 8.1 9.7 9.6 19.4 19.4 29.1 29.1 5.3 5.3 7.5 4.5 12.5-.9 9.1-10 18.7-19.6 28.6-28.8 3.8-3.4 4.6-5.2.8-8.8-10.7-10.1-21.3-20.4-31.9-30.6-1.3-1.2-2.9-2-4.6-3.1z" style="fill-rule:evenodd;clip-rule:evenodd;fill:#fcca33"/><path id="_x3C_Compound_Path_x3E__00000115487965645837716190000012831249624591792306_" d="M464.4 731.4c4.9-4.8 6.8-10.6 6.4-17.3.6 1.1 1.2 2.2 2.3 4.1 3.4-8.9 2.9-17.2.6-25.2-2.6-9.2-7.1-17.8-9-27-4.7-23.1-8.4-46.4-12.6-69.6-.3-1.7-1.5-3.2-2.4-4.7 17-32.4 37.2-62.5 63.6-88.3 22.8-22.3 47.2-42.2 77.5-52.7 18.5-6.4 38-10.7 57.3-13.8 20.6-3.3 41.6-5.1 62.4-5.5 18.9-.3 37.9 1.4 56.7 3.7 16.7 2 33.5 5 49.8 9.3 20.2 5.3 39.9 12.3 60.5 18.8-6.8 8-13.8 14.5-18.4 22.4-6.4 10.9-11 22.8-16.2 34.3-.7 1.5-.4 3.5-.4 5.3-.2 3.8 1 7.8 5.1 7.1 3.3-.5 8.2-3.3 8.9-6 5.7-21.8 17.5-38.6 35-53.1 19.5-16.2 41-20.7 65.1-18.3 8.9.9 12.4 8 14.6 15 6.6 20.9 13.8 41.7 18.2 63.1 6.9 33.5 9 67.7 4.7 101.8-2.7 21.6-6.8 43.1-9.7 64.7-.3 2.5 2.5 7 4.9 8 3.8 1.6 8.2-.1 9.3-5 2.2-9.7 4.8-19.4 5.7-29.2 2.5-28.1 5.3-56.2 6-84.4.4-17.2-2.9-34.5-4.5-51.7-.1-1.3 0-2.6 0-5.7 4.8 3.5 8.6 5.9 11.9 8.9 24.3 22.7 46.9 47.1 63.7 75.9 15.4 26.4 28 54.4 43.1 80.9 16.5 29 22 61.3 31.7 92.4 8.6 27.5-.1 52.8-5.9 78.4-5.8 25.5-15.5 49.9-28.8 72.5-9.1 15.5-18.9 30.5-29.1 45.2-16.8 24.2-33.7 48.4-51.6 71.7-16.9 22-36.2 41.8-57.4 59.8-12.9 10.9-26 21.7-39.4 31.9-8.7 6.6-18.1 12.3-27.4 18.1-5.6 3.6-8 8.9-4.9 13.3 3.8 5.5 8.7 3.2 12.7.5 16.6-11.4 33.5-22.4 49.3-34.9 25.8-20.5 50-42.9 70.4-68.9 17.4-22.1 33.9-45.1 50.6-67.8 20-27.4 39.1-55.4 52.6-86.6 10-23.1 18.3-47 21.9-72.2 1-7.2 3.1-14.3 4.5-21 22.5 9.2 38.3 26.6 54.1 43.8 10.9 11.9 21.6 24.1 31.1 37.1 18.9 26 36.7 52.9 48.1 83.2 9.8 26 14.5 53.1 10.6 81-.5 3.8-2.5 7.6-4.6 10.9-19.1 30.1-37.7 60.6-57.9 89.9-10.9 15.8-23.8 30.5-37.4 44.2-16.8 16.9-35.1 32.3-52.8 48.3-.7.6-1.8.8-2.7 1.1-1.9-8.7-2.8-17.8-5.9-26-6.7-17.6-18-32.5-32.3-44.7-15.2-13-35.8-18.5-53.7-5-16.7 12.6-33.9 24.5-50.6 37.2-29.4 22.4-61.2 40.4-95.2 54.8-18 7.7-36.6 11.6-56 7.3-14.2-3.1-28.2-7.3-42-11.8-25.8-8.4-43.6-25.3-49-52.3-3-14.9-4.3-30.6-3.1-45.6 1.5-17.9 7.4-35.3 22.1-47.7 17.2-14.4 34.7-28.4 52.2-42.4 22-17.7 42.2-37.1 59.8-59.2 11.4-14.3 21.3-29.8 27.1-47.5 6.4-19.8 7.4-39.8 1.5-59.9-3.1-10.5-6.1-21-9.3-31.4-7.1-22.9-19.1-43.3-33.2-62.5-11.9-16.2-24.2-32.2-36.5-48-17.3-22.1-38-39.6-64.8-49.3-18.7-6.8-33.9-18.5-44.7-35.3-17.4-27-42.1-41.5-74.2-41.6-34.5-.2-61.2 14.6-78.3 44.9-4.2 7.4-5.4 16.4-8 24.6-7.4 7.5-8.1 10.8-3.6 17.5.8 13-3 25.4-9.4 35.9-19.3 31.3-40.9 61-72.2 81.8-17.5 11.5-34.9 23.3-55.3 29.2-1.5.4-2.7 1.9-4.1 2.8-8.3-10.4-20.2-14.8-32.1-19.5-13.5-5.2-27-10.4-41.7-8.4-7.1 1-14 3.7-22.1 5.9 2.9-5.5 5-10.6 8-15 15.5-22.5 31.5-44.7 54.7-60.2 6-4 7.3-9.5 6-16.2.6-.1 1.3-.1 1.7-.4 12.2-11.5 24.6-22.9 36.4-34.8 4.1-4.5 6.7-10 10-14.9zM863 546.8c-.9 13 4.2 24.3 10.1 35.1 12.4 22.8 29.1 42.2 48.4 59.5 7.5 6.7 15.5 13.2 24.2 18.4 6.3 3.8 14 5.3 21.2 7.4 4.4 1.3 6.6-1.6 7.3-5.7.6-3.9 1.1-7.9 1.5-11.8 1.5-14.6 3.2-29.2 4.5-43.9 1.1-12.7 2.5-25.5 2.2-38.1-.4-13.2-2.5-26.5-4.2-39.6-2.8-21-10.9-40.2-22.5-57.8-1.5-2.4-6.3-4.8-8.6-4.1-13.5 4.1-27.6 7.4-39.6 14.2-10 5.7-17.7 15.6-26 24-11.6 11.7-16.2 26.6-18.5 42.4z" style="fill-rule:evenodd;clip-rule:evenodd;fill:#b16c4f"/><path id="_x3C_Compound_Path_x3E__00000034060142910201045040000004191642035538828683_" d="M588.2 727.2c2.6-8.2 3.9-17.2 8-24.6 17-30.3 43.8-45 78.3-44.9 32.1.2 56.8 14.6 74.2 41.6 10.8 16.9 26 28.6 44.7 35.3 26.8 9.7 47.6 27.3 64.8 49.3 12.4 15.8 24.7 31.8 36.5 48 14 19.2 26 39.6 33.2 62.5 3.2 10.4 6.2 20.9 9.3 31.4 5.9 20.1 4.9 40.1-1.5 59.9-5.7 17.7-15.6 33.2-27.1 47.5-17.6 22.1-37.8 41.5-59.8 59.2-17.5 14-35 28.1-52.2 42.4-14.7 12.3-20.6 29.7-22.1 47.7-1.3 15.1.1 30.8 3.1 45.6 5.4 26.9 23.2 43.9 49 52.3 13.8 4.5 27.8 8.7 42 11.8 19.3 4.2 37.9.3 56-7.3 34-14.4 65.8-32.5 95.2-54.8 16.7-12.7 33.9-24.6 50.6-37.2 17.8-13.5 38.5-8 53.7 5 14.3 12.2 25.6 27.1 32.3 44.7 3.1 8.2 4 17.3 5.9 26-9.8 7.1-19.3 14.7-29.5 21.1-19.2 12-38.4 24.2-58.6 34.5-25.9 13.2-52.6 24.7-79.1 36.4-10.5 4.7-21.7 7.7-32.2 12.4-2.8 1.3-5.6 5.6-6 8.8-.6 4.8 3.8 6.4 8.2 6.5-.5 2.3-.8 4.7-1.7 6.9-3.5 9.6-.2 20.2 8.5 25.1 12.3 6.8 25 8.6 38.5 3 20.1-8.3 40-17 60.4-24.5 17.5-6.5 34.5-5.6 48.5 9-1.5 1.3-2.8 3-4.5 3.8-30.6 14.2-60.5 30.1-92 41.8-34.2 12.7-69.6 22.6-105 31.4-23.7 5.9-48.3 7.9-72.6 11.6-39.6 5.9-79.5 5.8-119.3 4.4-26-.9-52-5-78-7.9-40.4-4.5-79.3-15.3-118-27.3-19.4-6-38.1-13.9-57.3-20.7-4.3-1.5-4.5-4.3-4.2-7.9 2.7-35.2 5.9-70.4 7.9-105.7 2.7-48 5.2-96.1 6.4-144.2.8-31.7-2.1-63.5-10-94.4-2.4-9.5-7.1-18.4-10.5-27.1h21.3c48.6.3 93.5-12.6 134.8-38.1 20.2-12.5 40.2-25.3 60.2-38 2.1-1.3 5-3.4 5.2-5.3.3-2.9-.6-7.4-2.6-8.7-2.2-1.5-7.2-1.4-9.4.2-29.3 21.3-60 40.4-93 54.9-17 7.5-35.7 12-54.1 15.5-16.5 3.1-33.6 4.4-50.3 3.6-26.1-1.2-52.4-3.4-76.2-15.8-7.8-4-15.1-9-22.4-13.7-1-.7-1.3-2.6-1.9-4 2-.8 4.8-2.9 5.9-2.2 22 13.8 46.6 14.5 71.2 14.4 24.5-.1 49.1-.9 73.6-2.7 15.9-1.2 30.7-7.2 44.2-15.8 13.8-8.8 27.2-18.2 41.3-26.6 7.1-4.2 15.1-7 22.9-10 10.1-4 12.2-11.7 4.2-19.2-8.6-8.2-18.8-8.3-25.2 1.5-8.6 13.1-20.6 21.2-32.8 29.7-17.5 12.1-35.7 22.5-57.2 25.4-6.9.9-13.8 2-20.7 2.1-22 .3-44 1-66-.2-13.5-.8-26.8-4.8-40.1-7.6-2.2-.5-4.3-2-6.2-3.4-3.9-2.9-4.5-4.5-.3-9.2 7.2-7.9 16.4-10.2 25.3-14.5 8.7-4.2 15.9-11.6 23.2-18.3 3.9-3.6 6.8-8.3 9.7-12.8 11.7-18.2 9-35.6-3.2-52.3 1.4-1 2.6-2.4 4.1-2.8 20.5-5.9 37.9-17.7 55.3-29.2 31.4-20.7 52.9-50.5 72.2-81.8 6.5-10.5 10.2-22.9 9.4-35.9 17.6 3.2 35.3 6.4 52.9 9.6 19.4 3.5 38.7 2.7 55.8-7.4 12.7-7.5 24-17.7 35.3-27.3 7.4-6.2 5.5-12.1-3.8-15.1-23.7-7.5-48-9.2-72.4-5.8-23.9 3.2-46.1 11.4-64.2 28.4zm-2.7 211.7-.2-.2c-2.8-.1-5.7-.2-8.5-.3.1 2.8-.8 6.6.6 8 1.4 1.4 5.2.4 8 .5-.1-2.7 0-5.3.1-8zm-46.6.9c-.4.8-.8 1.5-1.2 2.3 1 2.3 1.5 5.1 3.1 6.8.7.8 4.4.3 5.2-.7 1.3-1.7 1.5-4.4 2.1-6.7-3.1-.6-6.1-1.1-9.2-1.7zM521 991.2c3.2-4.2 6.4-6.5 6.5-9 0-1.7-4.1-5-6.3-5-2.1 0-5.6 3.2-6 5.4-.3 2 2.9 4.5 5.8 8.6zm-25.1 6.7c3.2-3.4 7-6.1 6.6-7.1-1.1-2.7-4-4.6-6.2-6.8-1.8 1.9-4.9 3.6-5.1 5.6-.2 2.1 2.3 4.5 4.7 8.3zm57.8-30.8c-4.3-2.7-6.9-5.6-8.7-5.2-2.3.5-4.7 3.5-5.8 5.9-.4.8 3.4 4.9 4.9 4.8 2.7-.4 5.1-2.8 9.6-5.5zm-54.8-32.2c-2.7 3.7-5.6 6.1-5.3 7.7.5 2.4 3.4 4.2 5.3 6.3 1.8-1.7 5.2-3.5 5.1-5-.1-2.6-2.6-4.9-5.1-9zm10.2-2.9c0 1-.1 1.9-.1 2.9 2.3 1.5 4.5 4 6.9 4.1 1.7 0 5.3-3.6 5-4.8-.7-2.5-3-5.4-5.3-6.1-1.7-.5-4.4 2.5-6.5 3.9zm-11.7 29.7c-2.7 4.1-5.5 6.6-5 8 .8 2.4 3.7 5.6 5.7 5.6s5.2-3.3 5.6-5.5c.2-1.7-3-4.1-6.3-8.1zm53.4-5.5c3.5 2.6 5.8 5.5 7.7 5.4 2.1-.2 4-3.3 5.9-5.1-2.2-2-4-4.7-6.6-5.6-1.2-.5-3.6 2.6-7 5.3zm-17.6-28.6h3c1.7-2.2 4.9-4.7 4.6-6.7-.3-2-3.8-4.3-6.3-5.1-3.5-1.1-6 1.1-5.2 4.9.6 2.5 2.6 4.6 3.9 6.9zm65.8-6.7c0 1.2 0 2.3.1 3.5 2.2 1.3 4.6 4 6.5 3.6 2-.4 4.9-3.5 4.9-5.5 0-1.8-3-4.9-5-5.2-1.9-.3-4.3 2.3-6.5 3.6zm-110.9 59.5c-4.1-2.9-6.4-5.7-8.3-5.5-2.1.3-5.2 3.5-5.2 5.3 0 1.9 3.2 4.9 5.3 5.3 1.8.3 4.1-2.4 8.2-5.1zm69.6-86.3c-2.6 3.3-5.5 5.5-5.2 7.1.4 2.3 3.1 4.2 4.8 6.2 2.2-1.9 5.4-3.4 6.1-5.7.4-1.5-2.9-4.1-5.7-7.6zm-82.3 58.6c0 1.1-.1 2.2-.1 3.3 1.9 1.4 3.7 3.6 5.8 4.1 3.5.8 6.9-.8 6-5-.5-2.3-3.3-4.8-5.6-5.6-1.5-.5-4 2-6.1 3.2zm45.6-2.1c-1.1.1-2.2.2-3.4.3-1 2.1-2.3 4.2-2.7 6.4-.7 3.5 1 6.3 4.8 5.1 2.3-.7 5.3-3.4 5.6-5.5.3-1.8-2.7-4.2-4.3-6.3zm62.4-49.6c-2.4 3.9-5 6.2-4.6 7.9.5 2.1 3.3 3.8 5.2 5.6 1.8-1.9 4.9-3.7 5.1-5.7.1-1.9-2.9-4.1-5.7-7.8zm-19.8 35.6c3.2-3.8 6.3-5.9 6.2-7.8-.2-2.1-3.4-4-5.2-5.9-1.8 1.9-4.4 3.6-5 5.8-.5 1.5 1.8 3.9 4 7.9zM463.3 974c3-3.8 6.2-6.6 5.7-7.3-1.3-2.3-3.8-4.3-6.2-5.2-.9-.3-4.2 3-4.3 4.8 0 1.9 2.4 3.9 4.8 7.7z" style="fill-rule:evenodd;clip-rule:evenodd;fill:#d9d0c9"/><path id="_x3C_Path_x3E__00000080914749751469212640000011663115482882458544_" d="M126.3 1150.1c-6.6-11.6-13.1-23.2-19.7-34.8-.6-1-.9-2.3-1.6-3.2-10.6-11.4-9.2-24.7-6.3-38.4 5.2-24.7 10.2-49.3 15-74 5-25.7 9.7-51.4 14.5-77.2 4.4-24 8.5-48 13.3-72 5.4-26.7 11.3-53.2 17.3-79.7 8.1-35.8 16.4-71.6 24.7-107.4 5.8-25 11.5-49.9 17.3-74.8 4.6-20 9.5-39.9 14.1-59.9 8.5-36.9 16.3-74 25.5-110.8 4.7-18.5 11.5-36.5 18.2-54.5 1.9-5.1 6.7-9.2 13.4-9.6 19.2-1.4 37.7 1.4 55.5 9 12.1 5.2 19.4 19.5 15.9 33.1-5.8 22.5-12.6 44.7-18.6 67.1-9.4 35.3-18.8 70.6-27.7 106-8.9 35.5-17.1 71.1-25.9 106.6-6.1 24.6-12.7 49.2-19.4 73.7-6.6 24.3-13.2 48.6-20.6 72.7-11.7 38.6-23.8 77-36 115.4-8.2 25.7-17 51.3-25.2 77-10.2 31.9-20.1 64-30.1 96-3.5 11.2-6.5 22.5-9.8 33.8-.5 1.8-1.2 3.7-1.8 5.5-.7.2-1.3.3-2 .4z" style="fill:#eb9621"/><path id="_x3C_Path_x3E__00000039830031081296406580000014316637108477308329_" d="M1119.1 1408c-14-14.6-30.9-15.4-48.5-9-20.4 7.5-40.4 16.2-60.4 24.5-13.4 5.6-26.2 3.8-38.5-3-8.7-4.9-12-15.5-8.5-25.1.8-2.2 1.1-4.6 1.7-6.9 15.8-6 31.9-11.5 47.4-18.2 20.9-9 41.7-18.2 61.8-28.7 21.8-11.5 42.9-24.5 64.1-37.2 34.6-20.8 65.8-45.9 92.6-76 16.1-18.1 30.9-37.4 45.2-56.9 12-16.3 22.8-33.5 33.7-50.6 6-9.4 11.4-19.2 16.7-29 2-3.7 3.7-3.7 6.9-1.6 24.5 16 40.6 38.5 50.4 65.7.7 1.8.1 4.7-1.1 6.4-19.6 30.6-41.3 59.6-65.9 86.4-14.9 16.3-29.4 33.3-45.9 47.9-27.1 24-54.8 47.5-83.9 69.1-21.3 16-45.1 28.3-67.8 42.2z" style="fill:#af6b4f"/><path id="_x3C_Path_x3E__00000081608370375010719890000014223844150364573078_" d="M449.8 591.6c.8 1.6 2.1 3 2.4 4.7 4.2 23.2 7.9 46.5 12.6 69.6 1.9 9.2 6.5 17.9 9 27 2.2 8 2.7 16.3-.6 25.2-1.1-1.9-1.7-3-2.3-4.1-4.4-24.2-15.5-43.7-39.5-52.5-7.2-2.6-7.4-5.5-5.2-10.9 7.7-19.7 15.7-39.3 23.6-59z" style="fill:#d7cbc3"/><path id="_x3C_Path_x3E__00000057144636855858770270000003573782181069945012_" d="M597.2 428.7c-22.9 12.5-45.2 24.7-67.7 37-1.1-13.8-.7-28.1 4.9-41.8.5-1.3 1.2-2.5 1.7-3.8 3.7-11.2 6.1-13.5 17.5-12.1 17.1 1.9 32 8.8 43.6 20.7z" style="fill:#a86a50"/><path id="_x3C_Path_x3E__00000042004964164267528620000009892179272221612216_" d="M464.4 731.4c-3.3 4.9-5.9 10.4-9.9 14.5-11.8 11.9-24.2 23.3-36.4 34.8-.4.3-1.1.3-1.7.4v-59.2c7.8 3.4 15.6 7.4 23.9 10.3 7.9 2.8 16.3 4.4 24.1-.8z" style="fill:#d4cac2"/><path id="_x3C_Path_x3E__00000072996500924675253930000017466277074151576503_" d="M323.8 945.8c5.9 7 11.6 14.1 17.8 20.9 6.8 7.5 13.8 14.9 21 22 4.9 4.8 6.2 10.2 2.7 14.7s-10 4.8-15.5 1.3c-17.3-11.2-24.5-28.2-26.8-47.8-.4-3.5-.5-7-.7-10.5l1.5-.6z" style="fill:#cfc8c4"/><path id="_x3C_Path_x3E__00000067225551169574612690000006771095436800301961_" d="M427.3 709.6c-6.4-5.8-6.6-11.7-6-17.7.4-3.9 1.2-7.8 2.2-11.6.4-1.7 2.1-4.6 2.4-4.5 3 .9 5.8 2.4 8.6 3.7-.8 1.6-1.9 3.2-2.4 4.9-1.7 5.3-3.4 10.7-4.7 16.2-.5 2.4-.1 4.9-.1 9z" style="fill:#dedede"/><path id="_x3C_Compound_Path_x3E__00000142174149864893500110000009489232815396896683_" d="M780.9 235.3c1-7.1 1.5-14.2 2.9-21.2 3.8-19.5 8.1-38.9 12-58.3 2.9-14.4 5.3-28.9 8.3-43.2 1.7-8.3 3.5-16.7 6.5-24.5 3-7.7 11.2-11.4 19.3-9.8 23.8 4.6 47.6 9 71.2 14.4 16.6 3.8 30.9 10.9 38.4 28.1 10 22.9-.6 49.6-24 58-1.2.4-2.2 1.2-3.3 1.9.8 1.1 1.4 2.4 2.4 3.1 9.5 7 17.5 15.4 20.2 27 1.5 6.2 2 13.4.3 19.4-3.3 11.4-7.9 22.3-18.3 30-7.6 5.6-15.9 8.7-24.8 9.8-20.5 2.7-40.1-3.5-59.8-7.4-10.5-2.1-21.2-3.3-31.6-5.8-12.2-3.1-20.6-5.5-19.7-21.5zm91.4 6c5.8-2.2 15.6-3 19.7-8.3 11.9-15.4 10.6-34-12.1-40.5-15.6-4.5-31.6-7.3-47.5-10.6-.9-.2-3 1.9-3.3 3.3-3.2 14.1-6.2 28.3-9 42.5-.2 1.1 1.5 3.7 2.6 3.9 15.8 3.2 31.6 6.2 49.6 9.7zm33.8-102.1c0-8.8-4.2-15.2-13.7-17.8-15.1-4.1-30.4-7.4-45.6-10.7-1.2-.2-3.8 1.7-4.2 3.1-2.6 10.6-4.9 21.2-7.2 31.9-.2 1.1 0 2.4-.2 3.6-.8 4.4 1.6 6.1 5.5 6.7 12.5 2.1 25 4.2 37.5 6.2 17.3 2.7 27.5-7.2 27.9-23z" class="st13"/><path id="_x3C_Compound_Path_x3E__00000137842780187945795700000016884681889461081011_" d="M660.8 266.4c-27.3-.4-50.6-9.3-67.6-30.6-6.5-8.2-10.9-18.6-14.6-28.5-5.8-15.6-6.9-32.2-6.2-48.9 1.3-32.6 19.7-60.6 52-72.4 18.5-6.8 37.6-8.7 56.4-6.2 24.3 3.1 43.4 16.3 55.4 38.2 14 25.7 19.3 53.3 12.7 81.9-6.9 30.1-24.8 52-55.4 61-10.5 3-21.7 3.7-32.7 5.5zm-50.4-103.6c.5 6.5.7 13.1 1.7 19.6 3 18 8.3 35.1 25.4 44.9 6.3 3.6 13.8 5.8 21 7.1 15.9 2.9 29.9-2.8 40.5-14 9.3-9.9 13.4-22.8 13.8-36.6.3-13-1.2-25.6-5.8-37.9-5.3-14.2-12.4-26.6-27.3-32.8-18.3-7.6-35.8-4.8-51 6.4-13.9 10.2-19.5 25.6-18.3 43.3z" class="st13"/><path id="_x3C_Compound_Path_x3E__00000114790060795318332890000017966023812428348077_" d="M552.6 243.2c-2.8 29.8-12.2 51.5-35.5 64.5-19.3 10.8-38.8 21.4-58.9 30.6-15.1 6.9-21.8 2.4-28-9.8-16.1-31.3-32.2-62.7-48.2-94-5.5-10.7-11.6-21.2-16-32.4-3.4-8.8-1.3-18.5 10.4-23.8 16.3-7.4 31.8-16.6 47.8-24.8 14-7.2 28.8-11.7 44.8-10.6 14.4 1 26.7 6.5 38.1 15.4 17.3 13.5 27.7 31.9 36 51.3 5 11.8 7.1 24.9 9.5 33.6zm-95.2-67.9c-5.3 1.4-10.9 2.2-15.9 4.2-10.1 4.1-19.9 9.2-30 13.4-5.2 2.2-6.4 4.3-3.6 9.7 16.6 31.9 33.1 63.9 49 96.2 2.6 5.2 4.5 4.7 8.4 2.5 8.7-4.8 17.8-9 26.4-13.9 21.9-12.5 26.8-29.8 21.1-49.3-4.2-14.4-11.9-28.1-19.7-41.2-7.7-12.7-19.6-20.4-35.7-21.6z" class="st13"/><path id="_x3C_Compound_Path_x3E__00000175303086406963500480000012997862330773151135_" d="M1148.5 240.5c-.7 24-10.4 44.5-24 63.8-8.5 12.1-18.4 22.8-31.4 29.5-8.5 4.4-18.1 8-27.6 9.1-30.8 3.6-56.6-8.8-78.5-28.9-15.7-14.4-25-32.6-24.7-55 .4-29.3 12.2-53.8 30.9-75.5 11-12.8 25-22 41.1-26.5 14.8-4.1 30.6-4.7 45.4.8 22.2 8.2 42.3 20 55.4 40.7 8.1 12.7 13.6 26.5 13.4 42zm-100.3 69.4c3.6-.4 7.1-.5 10.7-1.1 14.1-2.5 23.6-11.6 32-22.4 11.4-14.6 19-30.8 20.4-49.3 1.2-15.5-6.4-27.4-17.2-37.8-15.3-14.9-45.7-15.6-61.4-1.2-11.3 10.4-21.5 21.3-26.8 36.4-4.6 13-7.6 26-5.5 39.6 3 20.5 27.8 37.3 47.8 35.8z" class="st13"/><path id="_x3C_Path_x3E__00000037690944458081316990000009381518811703242917_" d="M1241.2 329.3c2.1 1.8 3.8 3 5.3 4.5l46.5 46.5c15.9 15.9 31.8 32 47.9 47.7 3.6 3.5 3.5 5.8-.1 9.2-11.1 10.7-21.9 21.6-32.7 32.6-2.7 2.8-4.8 2.9-7.4.3-5.3-5.3-10.7-10.5-16-15.7-8.4-8.2-16.7-16.5-25.2-24.6-5.8-5.6-11.7-11.3-17.8-16.5-.9-.8-4.3.2-5.6 1.4-10.6 10.3-21 20.8-31.5 31.3-7.9 7.9-16 15.6-23.5 23.7-3.7 4-6.4 3-9.4-.1-10.2-10.4-20.3-21-30.7-31.2-3.9-3.8-4.1-6.5-.1-10.4 16.7-16 33.3-32.1 49.6-48.4 14.6-14.5 28.7-29.5 43.1-44.1 2.2-2.2 4.8-4 7.6-6.2z" class="st14"/><path id="_x3C_Path_x3E__00000030480815032821614190000018057351902937483177_" d="M1176.8 517.1c1.4 1 2.6 1.7 3.5 2.7 11.5 11.8 22.8 23.6 34.3 35.4 6.4 6.5 13 12.9 19.3 19.5 3.2 3.3 5.8 3.5 9 .1 9.8-10.3 19.6-20.7 29.6-30.8 8.1-8.2 16.4-16 24.6-24.1 3.2-3.2 5.5-2.7 8.5.4 11.4 11.6 22.9 23.1 34.5 34.5 2.6 2.5 2.7 4.2 0 6.8-9.9 9.3-19.8 18.6-29.3 28.2-10.2 10.3-20.1 20.9-30.2 31.3-11.1 11.3-22.4 22.5-33.7 33.7-6.1 6.1-7.3 6.2-13.6-.2-13.5-13.8-26.8-27.9-40.5-41.6-17.4-17.3-35-34.5-52.7-51.5-3.4-3.3-3.3-5.1.1-8.4 10.5-10.2 20.5-20.8 30.8-31.3 1.8-1.8 3.8-3.1 5.8-4.7z" class="st14"/><path id="_x3C_Path_x3E__00000104708294919080813430000013098309954951676562_" d="M1153.7 495c-1.1 1.3-1.8 2.5-2.8 3.4-11.5 10.8-23.1 21.4-34.4 32.3-4.1 3.9-6.4 4.1-10.5-.5-8.2-9.1-17.5-17.2-26.3-25.9-8.6-8.5-8.3-9.6.8-17.9 9.9-9.1 19.5-18.7 29.1-28.2 2.6-2.6 4.4-3.9 7.6-.5 10.9 11.3 22.2 22.4 33.3 33.5 1.2 1.1 2.1 2.4 3.2 3.8z" class="st15"/><path id="_x3C_Path_x3E__00000183953253834631347090000009769235178958576310_" d="M1406.7 495c-.7.8-1.3 1.5-2 2.1-11.3 11.2-22.8 22.4-33.9 33.8-2.9 3-4.7 3.2-7.6.1-10.8-11.2-21.9-22.2-33-33-3.2-3.2-3.1-5.4.1-8.3 11.5-10.5 22.7-21.2 34.2-31.5 1.1-1 4.6-1.2 5.5-.3 11.9 11.5 23.6 23.2 35.3 34.9.6.5.9 1.3 1.4 2.2z" class="st15"/><path id="_x3C_Path_x3E__00000049935208116901490100000002974607656539939729_" d="M1239.7 455.9c1.7 1.1 3.4 1.9 4.6 3.1 10.7 10.2 21.2 20.5 31.9 30.6 3.8 3.6 3 5.4-.8 8.8-10 9.1-19.5 18.8-28.6 28.8-5 5.5-7.3 6.2-12.5.9-9.7-9.7-19.4-19.4-29.1-29-2.6-2.5-4.1-5-1-8.1 11-11.2 22-22.3 33-33.5.7-.7 1.6-1 2.5-1.6z" class="st15"/><path id="_x3C_Path_x3E__00000155110603569491566390000018018885872765305011_" d="M863 546.8c2.2-15.8 6.9-30.7 18.4-42.4 8.3-8.5 16-18.4 26-24 12-6.8 26.2-10.2 39.6-14.2 2.3-.7 7 1.8 8.6 4.1 11.5 17.6 19.6 36.8 22.5 57.8 1.8 13.2 3.9 26.4 4.2 39.6.4 12.7-1.1 25.4-2.2 38.1-1.2 14.6-2.9 29.2-4.5 43.9-.4 4-.9 7.9-1.5 11.8-.7 4.1-2.8 7-7.3 5.7-7.2-2.1-14.9-3.7-21.2-7.4-8.7-5.1-16.6-11.7-24.2-18.4-19.2-17.2-36-36.7-48.4-59.5-5.7-10.8-10.8-22.1-10-35.1z" style="fill:#dbd0c8"/><path id="_x3C_Compound_Path_x3E__00000132794531625911590810000004714806722613041057_" d="M588.2 727.2c18.1-17 40.3-25.2 64.3-28.5 24.4-3.4 48.7-1.6 72.4 5.8 9.4 3 11.2 8.9 3.8 15.1-11.4 9.6-22.6 19.8-35.3 27.3-17.1 10.1-36.4 10.9-55.8 7.4-17.6-3.2-35.3-6.4-52.9-9.6-4.6-6.7-4-10 3.5-17.5zm19.3 3.3c.2.5.4 1.1.7 1.6 11.1 2.4 22.3 4.8 32.5 7-2.1-6.9-4.1-13.6-6.4-21.5-8.4 4.2-17.6 8.6-26.8 12.9z" style="fill-rule:evenodd;clip-rule:evenodd;fill:#0e0d0d"/><path id="_x3C_Path_x3E__00000121977515914035547660000014884381672106321333_" d="M521 991.2c-3-4.1-6.1-6.6-5.8-8.5.4-2.2 3.8-5.4 6-5.4s6.4 3.2 6.3 5c0 2.3-3.2 4.7-6.5 8.9z" class="st18"/><path id="_x3C_Path_x3E__00000022535752353109045840000017011134690741358737_" d="M495.9 997.9c-2.3-3.8-4.9-6.2-4.7-8.2s3.3-3.8 5.1-5.6c2.2 2.2 5.1 4.1 6.2 6.8.3.9-3.4 3.7-6.6 7z" class="st18"/><path id="_x3C_Path_x3E__00000060018606541370723940000013824940919705244038_" d="M553.7 967c-4.5 2.7-6.9 5.2-9.6 5.5-1.5.2-5.3-4-4.9-4.8 1.1-2.5 3.4-5.4 5.8-5.9 1.8-.4 4.4 2.5 8.7 5.2z" class="st18"/><path id="_x3C_Path_x3E__00000169552035452228978020000018076722229590154919_" d="M498.9 934.9c2.5 4.1 5 6.4 5.1 9 .1 1.5-3.3 3.3-5.1 5-1.9-2.1-4.8-3.9-5.3-6.3-.3-1.6 2.6-4 5.3-7.7z" class="st18"/><path id="_x3C_Path_x3E__00000106841469164515299730000014788465350104967823_" d="M509.1 932c2.1-1.4 4.8-4.4 6.4-3.9 2.3.7 4.7 3.6 5.3 6.1.3 1.1-3.2 4.8-5 4.8-2.3-.1-4.6-2.6-6.9-4.1.1-1 .1-2 .2-2.9z" class="st1"/><path id="_x3C_Path_x3E__00000168090876524049627740000009646054818924772025_" d="M497.4 961.7c3.3 4 6.6 6.3 6.3 8-.4 2.2-3.6 5.5-5.6 5.5-2 0-4.9-3.2-5.7-5.6-.5-1.3 2.3-3.8 5-7.9z" class="st0"/><path id="_x3C_Path_x3E__00000034780777281596488690000013399084658211172255_" d="M550.8 956.2c3.4-2.7 5.8-5.8 7-5.3 2.5.9 4.4 3.6 6.6 5.6-2 1.8-3.8 4.9-5.9 5.1-1.9.2-4.1-2.8-7.7-5.4z" class="st19"/><path id="_x3C_Path_x3E__00000022544057609036648080000009088320505624090783_" d="M533.2 927.6c-1.3-2.3-3.3-4.4-3.8-6.9-.9-3.8 1.7-6 5.2-4.9 2.5.8 6 3.1 6.3 5.1.3 2-2.9 4.5-4.6 6.7h-3.1z" class="st0"/><path id="_x3C_Path_x3E__00000022549527059135142210000002746554901933629843_" d="M599 920.9c2.2-1.3 4.6-3.9 6.5-3.6 2 .3 5 3.4 5 5.2-.1 2-2.9 5.1-4.9 5.5-1.9.3-4.3-2.3-6.5-3.6-.1-1.2-.1-2.3-.1-3.5z" class="st1"/><path id="_x3C_Path_x3E__00000031929831119571765380000007714809736776132224_" d="M488 980.4c-4 2.7-6.4 5.5-8.2 5.1-2.2-.4-5.3-3.4-5.3-5.3s3.1-5 5.2-5.3c1.9-.3 4.2 2.6 8.3 5.5z" class="st19"/><path id="_x3C_Path_x3E__00000115504635379908070710000011174201039921246135_" d="M557.7 894.1c2.8 3.5 6.1 6.1 5.7 7.5-.7 2.3-3.9 3.9-6.1 5.7-1.7-2-4.4-3.9-4.8-6.2-.3-1.6 2.6-3.7 5.2-7z" class="st18"/><path id="_x3C_Path_x3E__00000155104507135249579730000011510655397549609112_" d="M475.4 952.7c2-1.2 4.5-3.6 6-3.1 2.3.8 5.1 3.3 5.6 5.6.9 4.1-2.5 5.7-6 5-2.1-.5-3.9-2.7-5.8-4.1.1-1.2.2-2.3.2-3.4z" class="st1"/><path id="_x3C_Path_x3E__00000023959183554041870660000010013540867969955002_" d="M521 950.6c1.6 2.1 4.6 4.5 4.3 6.3-.3 2.1-3.3 4.8-5.6 5.5-3.8 1.2-5.5-1.6-4.8-5.1.4-2.2 1.8-4.3 2.7-6.4 1.1-.1 2.3-.2 3.4-.3z" class="st1"/><path id="_x3C_Path_x3E__00000125568301473494388930000017224927620108185017_" d="M583.4 901c2.8 3.7 5.8 5.8 5.6 7.8-.2 2-3.3 3.8-5.1 5.7-1.8-1.8-4.7-3.4-5.2-5.6-.3-1.6 2.3-4 4.7-7.9z" class="st19"/><path id="_x3C_Path_x3E__00000155835593673769799620000013592413276478087077_" d="M563.5 936.5c-2.2-4-4.5-6.3-4.1-7.9.6-2.2 3.2-3.9 5-5.8 1.9 2 5 3.8 5.2 5.9.3 1.9-2.9 4.1-6.1 7.8z" class="st19"/><path id="_x3C_Path_x3E__00000102521841922479390010000015323189805069289858_" d="M463.3 974c-2.5-3.8-4.8-5.8-4.8-7.7.1-1.8 3.4-5.1 4.3-4.8 2.5.8 5 2.9 6.2 5.2.5.7-2.7 3.5-5.7 7.3z" class="st19"/><path id="_x3C_Path_x3E__00000032636578710654330530000007997508643319124159_" d="M538.9 939.8c3.1.6 6.2 1.2 9.2 1.8-.6 2.3-.8 5-2.1 6.7-.8 1-4.5 1.5-5.2.7-1.6-1.8-2.1-4.5-3.1-6.8.4-.9.8-1.7 1.2-2.4z" class="st19"/><path id="_x3C_Path_x3E__00000116917150215353596320000004551022975391805832_" d="M585.5 938.9c0 2.7-.1 5.3-.2 8-2.8-.1-6.6.9-8-.5-1.4-1.5-.5-5.2-.6-8 2.8.1 5.7.2 8.5.3-1.4-.1-3-.7-4-.2-1.5.7-3.6 2.1-3.7 3.4-.1 1.2 2 3.7 3.1 3.7 1.7 0 3.7-1.3 4.9-2.7.7-.7 0-2.6 0-4z" class="st20"/><path id="_x3C_Path_x3E__00000060738853080841151800000000368345273985925776_" d="M538.9 939.8c-.4.8-.8 1.5-1.2 2.3.4-.8.8-1.6 1.2-2.3z" class="st20"/><path id="_x3C_Path_x3E__00000047761521930032307640000007024991706180736938_" d="M872.3 241.3c-18.1-3.5-33.9-6.5-49.6-9.7-1.2-.2-2.8-2.8-2.6-3.9 2.8-14.2 5.8-28.4 9-42.5.3-1.3 2.4-3.5 3.3-3.3 15.9 3.3 32 6.1 47.5 10.6 22.7 6.6 24 25.1 12.1 40.5-4 5.2-13.9 6-19.7 8.3z" class="st21"/><path id="_x3C_Path_x3E__00000003808448181541418690000006877797219770024893_" d="M906.1 139.2c-.4 15.9-10.6 25.7-27.9 23-12.5-2-25-4.2-37.5-6.2-3.9-.6-6.2-2.3-5.5-6.7.2-1.2-.1-2.4.2-3.6 2.3-10.6 4.5-21.3 7.2-31.9.3-1.3 3-3.3 4.2-3.1 15.3 3.3 30.5 6.6 45.6 10.7 9.5 2.6 13.7 8.9 13.7 17.8z" class="st21"/><path id="_x3C_Path_x3E__00000178886178955388124170000014169590516444774053_" d="M610.4 162.8c-1.2-17.7 4.4-33.1 18.4-43.4 15.2-11.2 32.7-14 51-6.4 14.9 6.2 22 18.6 27.3 32.8 4.6 12.3 6.2 24.9 5.8 37.9-.4 13.8-4.5 26.8-13.8 36.6-10.6 11.2-24.6 16.9-40.5 14-7.2-1.3-14.7-3.5-21-7.1-17.1-9.7-22.5-26.8-25.4-44.9-1.1-6.4-1.2-13-1.8-19.5z" class="st22"/><path id="_x3C_Path_x3E__00000057128136713450834800000010579931554476091065_" d="M457.4 175.3c16.1 1.1 28 8.9 35.7 21.8 7.8 13.1 15.5 26.8 19.7 41.2 5.7 19.5.8 36.8-21.1 49.3-8.6 4.9-17.7 9.1-26.4 13.9-3.9 2.1-5.8 2.7-8.4-2.5-15.9-32.3-32.4-64.3-49-96.2-2.8-5.4-1.6-7.5 3.6-9.7 10.1-4.2 19.9-9.3 30-13.4 5-2.2 10.6-3 15.9-4.4z" class="st22"/><path id="_x3C_Path_x3E__00000039818855675827964540000009426317314204842164_" d="M1048.2 309.9c-19.9 1.4-44.8-15.4-48-35.8-2.1-13.6 1-26.6 5.5-39.6 5.3-15.1 15.5-26.1 26.9-36.4 15.8-14.4 46.1-13.7 61.4 1.2 10.7 10.5 18.3 22.3 17.2 37.8-1.4 18.5-9 34.7-20.4 49.3-8.4 10.8-17.8 20-32 22.4-3.5.6-7.1.8-10.6 1.1z" class="st22"/><path id="_x3C_Path_x3E__00000031914764617165214760000015012278008561802378_" d="M607.6 730.5c9.2-4.4 18.3-8.7 26.8-12.8 2.3 7.8 4.3 14.5 6.4 21.5-10.3-2.2-21.4-4.6-32.5-7-.3-.6-.5-1.1-.7-1.7z" style="fill:#e4e4e4"/><path id="_x3C_Path_x3E__00000137814725790387008920000014900862634158159540_" d="M585.5 938.9c.1 1.4.7 3.3 0 4-1.3 1.3-3.3 2.7-4.9 2.7-1.2 0-3.2-2.5-3.1-3.7.1-1.2 2.2-2.7 3.7-3.4 1.1-.5 2.7.1 4 .2l.3.2z" class="st19"/></g></g></g></svg>