<svg xmlns="http://www.w3.org/2000/svg" xml:space="preserve" id="Layer_1" x="0" y="0" style="enable-background:new 0 0 2000 2202" version="1.1" viewBox="0 0 2000 2202"><style>.st1{fill:url(#SVGID_00000101070196456686843120000001239366859508046510_)}</style><linearGradient id="SVGID_1_" x1="891.381" x2="1398.671" y1="1149.934" y2="423.273" gradientTransform="matrix(1 0 0 -1 0 2199.89)" gradientUnits="userSpaceOnUse"><stop offset="0" style="stop-color:#ea078c"/><stop offset="1" style="stop-color:#69009a"/></linearGradient><path d="m1047.4 809.8 57 74s343 503.8 514.8 755.3c118.5 174.5 237 349 355.7 523.4 9.1 12.5 17.5 25.5 25.1 38.9-211.2.9-422.4.4-633.5.2-210.2-312-627.5-938.1-627.5-938.1l-36-65.6" style="fill:url(#SVGID_1_)"/><linearGradient id="SVGID_00000146464880745551454490000007775799416201540268_" x1="454.65" x2="1486.38" y1="1157.199" y2="1791.319" gradientTransform="matrix(1 0 0 -1 0 2199.89)" gradientUnits="userSpaceOnUse"><stop offset="0" style="stop-color:#ea078c"/><stop offset="1" style="stop-color:#69009a"/></linearGradient><path d="M554 1455.2c-7.8 6.2-7.2 16.5-7.2 25.5l-8.5 28.4-41.1-660.7 50.3-53.8c12.9-8.8 512.4-536.8 752.8-788.2 5.7-8 16-5.6 24.4-6.3 209.2.7 627.5.5 627.5.5S614.9 1390.6 554 1455.2z" style="fill:url(#SVGID_00000146464880745551454490000007775799416201540268_)"/><path d="M0 .7h547.4v2200.1H0V.7z" style="fill:#69009a"/></svg>