<svg xmlns="http://www.w3.org/2000/svg" xml:space="preserve" id="Layer_1" x="0" y="0" style="enable-background:new 0 0 807.9 714.1" version="1.1" viewBox="0 0 807.9 714.1"><style>.st0{opacity:.7;fill:#45464d;enable-background:new}.st1{fill:#656569}.st6{fill:#6c6d70}.st7{fill:#55565a}.st11,.st8,.st9{opacity:.7;fill:#151a22;enable-background:new}.st11,.st9{fill:#23262e}.st11{fill:#34363d}</style><path d="M641.4 18.1 236 0 0 294.8l165.4 394.1 409.4 24.8 233.1-331.5z" class="st0"/><path d="M807.9 382.6 577 148.4l-60.8 449.3z" class="st1"/><linearGradient id="SVGID_1_" x1="157.357" x2="576.977" y1="351.118" y2="351.118" gradientTransform="matrix(1 0 0 -1 0 724.16)" gradientUnits="userSpaceOnUse"><stop offset="0" style="stop-color:#a3a2a5"/><stop offset=".271" style="stop-color:#9f9ea0"/><stop offset=".561" style="stop-color:#929194"/><stop offset=".859" style="stop-color:#7c7c80"/><stop offset="1" style="stop-color:#707073"/></linearGradient><path d="M157.4 329.9 577 148.4l-60.8 449.3z" style="fill:url(#SVGID_1_)"/><linearGradient id="SVGID_2_" x1="154.582" x2="452.734" y1="400.248" y2="695.523" gradientTransform="matrix(1 0 0 -1 0 724.16)" gradientUnits="userSpaceOnUse"><stop offset="0" style="stop-color:#969598"/><stop offset=".34" style="stop-color:#908f92"/><stop offset=".792" style="stop-color:#7f7f82"/><stop offset="1" style="stop-color:#757578"/></linearGradient><path d="M577 148.4 236 .4l-78.6 329.5z" style="fill:url(#SVGID_2_)"/><linearGradient id="SVGID_3_" x1="177.562" x2="336.832" y1="404.415" y2="88.575" gradientTransform="matrix(1 0 0 -1 0 724.16)" gradientUnits="userSpaceOnUse"><stop offset="0" style="stop-color:#9e9ea0"/><stop offset=".276" style="stop-color:#9b9b9d"/><stop offset=".494" style="stop-color:#919194"/><stop offset=".692" style="stop-color:#808083"/><stop offset=".878" style="stop-color:#69696d"/><stop offset="1" style="stop-color:#55565a"/></linearGradient><path d="m157.4 329.9 8 359.4 350.8-91.6z" style="fill:url(#SVGID_3_)"/><path d="m577 148.4 64.4-129.9L236 .4z" style="fill:#757578"/><path d="m641.4 18.5 166.5 364.1L577 148.4zM807.9 382.6 574.8 714.1l-58.6-116.4z" class="st6"/><path d="m574.8 714.1-409.4-24.8 350.8-91.6zM236 .4 0 295.3l157.4 34.6z" class="st7"/><path d="m0 295.3 165.4 394-8-359.4z" class="st1"/><path d="m534 210.3-42.5 322.1-250.7-193.9zM500.1 146.1l-234.3-101-49.3 212.3z" class="st8"/><path d="M440.7 581.1 186 399.2l6.2 246.5zM765.1 381.8 591.6 205.6l-45.8 338.8z" class="st9"/><path d="m500.4 620.8 37.8 72.3-252.6-16.2z" style="opacity:.7;fill:#43444b;enable-background:new"/><path d="m731.2 461.7-188 140.2 37.4 73zM642.3 69.4l99.4 213.2-135.9-138.2z" class="st11"/><path d="M596.8 33.5 555 110 358.1 23.8z" style="opacity:.7;fill:#36383f;enable-background:new"/><path d="m202.6 68.2-55.4 234.9-111.8-23.7z" style="opacity:.7;fill:#3b3c43;enable-background:new"/><path d="m140.4 344.5 4.9 252.4L28.1 320.7z" class="st0"/></svg>