<svg xmlns="http://www.w3.org/2000/svg" xml:space="preserve" id="Layer_1" x="0" y="0" style="enable-background:new 0 0 32 32" version="1.1" viewBox="0 0 32 32"><style>.st0{fill:#2d2d2d;stroke:#fff;stroke-width:1.3333;stroke-miterlimit:5.3333}</style><path d="M4 .7h24c1.8 0 3.3 1.5 3.3 3.3v24c0 1.8-1.5 3.3-3.3 3.3H4C2.2 31.3.7 29.8.7 28V4C.7 2.2 2.2.7 4 .7z" class="st0"/><path d="M16 24c.3 0 .5-.1.7-.2.2-.2.3-.4.3-.7l.2-1.2c-.8.2-1.6.2-2.4 0l.2 1.2c0 .3.1.5.3.7.2.1.4.2.7.2zm6.9-.2h1.9V12.9c0-1.5-.7-2.5-1.9-2.9v13.8zm-15.7 0h1.9V10c-1.2.4-1.9 1.4-1.9 2.9v10.9zm10-1.9c1.2-.3 2.1-1.2 2.3-2.8l1.2-9.2c-1.4.3-2.1 1.4-2.4 3.1l-1.1 8.9zm-2.4 0L13.7 13c-.2-1.7-1-2.8-2.3-3.1l1.2 9.2c.2 1.6 1 2.5 2.2 2.8zM22.9 10v-.8c0-.8-.4-1.2-1-1.2s-1 .4-1.1 1.1l-.1.8c.7-.1 1.5-.1 2.2.1zM9.1 10c.4-.1.9-.2 1.3-.2.3 0 .6 0 1 .1l-.1-.8c-.2-.8-.6-1.1-1.2-1.1s-1 .4-1 1.2v.8z" class="st0"/></svg>