<svg xmlns="http://www.w3.org/2000/svg" xml:space="preserve" id="Layer_1" x="0" y="0" style="enable-background:new 0 0 172.2 173.1" version="1.1" viewBox="0 0 172.2 173.1"><style>.st2{fill:url(#SVGID_00000072254982906073155600000004562562255627525002_)}.st3{fill:url(#SVGID_00000119802495695804344090000007609176479922193575_)}</style><linearGradient id="SVGID_1_" x1="86.55" x2="86.55" y1="783.04" y2="770.06" gradientTransform="translate(0 -668)" gradientUnits="userSpaceOnUse"><stop offset="0" style="stop-color:#b5e0da"/><stop offset=".63" style="stop-color:#3cbab2"/><stop offset=".97" style="stop-color:#00a89e"/><stop offset="1" style="stop-color:#00a69c"/></linearGradient><path d="m81.4 102.1 1.1 5.4 2.1-2.7 2 10.2 2-10.2 2 2.7 1.1-5.4z" style="fill:url(#SVGID_1_)"/><path d="M92 93.4V78c0-3-5.4-10.6-5.4-10.6S81.2 75 81.2 78v15.4c-3.5 1.1-6.6 3.4-8.8 6.4h28.4c-2.2-3-5.3-5.3-8.8-6.4z" style="fill:#27233e"/><linearGradient id="SVGID_00000032642042356041694250000018136826273975415446_" x1="144" x2="144" y1="785.1" y2="768.98" gradientTransform="translate(0 -668)" gradientUnits="userSpaceOnUse"><stop offset="0" style="stop-color:#b5e0da"/><stop offset=".63" style="stop-color:#3cbab2"/><stop offset=".97" style="stop-color:#00a89e"/><stop offset="1" style="stop-color:#00a69c"/></linearGradient><path d="M152.1 109c0-4.5-3.6-8.1-8.1-8.1s-8.1 3.6-8.1 8.1 3.6 8.1 8.1 8.1 8.1-3.7 8.1-8.1zm-12.8 0c0-2.6 2.1-4.7 4.7-4.7s4.7 2.1 4.7 4.7-2.1 4.7-4.7 4.7-4.7-2.1-4.7-4.7z" style="fill:url(#SVGID_00000032642042356041694250000018136826273975415446_)"/><linearGradient id="SVGID_00000166656113954037065390000004903023955343834279_" x1="86.102" x2="86.102" y1="841.1" y2="668" gradientTransform="translate(0 -668)" gradientUnits="userSpaceOnUse"><stop offset="0" style="stop-color:#b5e0da"/><stop offset=".63" style="stop-color:#3cbab2"/><stop offset=".97" style="stop-color:#00a89e"/><stop offset="1" style="stop-color:#00a69c"/></linearGradient><path d="M86.6 0C38.8.1.1 38.8 0 86.6c0 33 20.3 59.5 47.2 61.8 16.4 1.4 32.2-4.5 42.6-9.6 6.2-2.6 12-6.1 17.2-10.4l1.1-.9 2.4-2.1c9.8-9.2 21.4-25.9 21.4-52.7v-3l-45-30.9L42 69.6v2.9c0 26.8 11.6 43.4 21.4 52.7 1.1 1.1 2.3 2.1 3.6 3.2 4.1-1.5 8.2-3 12.2-4.8-10.2-6.6-25-20.9-25.9-48.2L87 52.3l33.7 23.1c-.8 22-10.7 35.5-19.3 43.1l-1.1.8c-.3.2-26.2 19.9-52.1 17.8-16.1-1.3-29.2-14.5-34.5-32.8 4.1-2.9 5.1-8.7 2.2-12.8-1.1-1.6-2.7-2.8-4.6-3.4v-1.7c0-10.6 2.2-21.1 6.6-30.7 2.6 1.1 5.5 1.6 8.3 1.6 12.1 0 21.9-9.8 21.8-21.9 0-3.6-.9-7.1-2.6-10.2-.2-.5-.5-.9-.8-1.3C79.1.7 125.9 9.9 149.1 44.4c.3.4.6.9.9 1.3-6.6 5.6-7.4 15.5-1.8 22.1 3 3.5 7.4 5.6 12 5.6h.7c.8 4.3 1.2 8.7 1.2 13.1 0 39.1-31.1 70-75.6 75.4-35.7 4.5-58.5-10.3-58.5-10.3 13.3 14.7 31.9 21.5 58.6 21.5 47.8-.5 86.1-39.7 85.6-87.5C171.7 38.5 133.6.5 86.6 0zM14 98.2c-.2 1-.7 1.9-1.3 2.6-.7-2.9-1.1-5.8-1.3-8.8 2.1 1.3 3.1 3.8 2.6 6.2zm28.4-71.4c4.8 9 1.4 20.3-7.7 25.1-4.8 2.6-10.5 2.9-15.6.9C24.5 42.2 32.3 33 41.8 25.9l.6.9zm117.7 43.3c-6.8 0-12.4-5.5-12.4-12.3 0-3.5 1.4-6.8 4-9.1 3.9 6.6 6.7 13.8 8.4 21.4z" style="fill:url(#SVGID_00000166656113954037065390000004903023955343834279_)"/></svg>