<svg xmlns="http://www.w3.org/2000/svg" xml:space="preserve" style="enable-background:new 0 0 400 400" viewBox="0 0 400 400"><path d="M153 93.7c-1.5 2-2.6 3.9-7.3 12.2-1.4 2.6-2.4 3.8-3 3.9-.5.1-2.8.6-5.1 1l-8.4 1.7-4.2.8-1-1.2c-.6-.7-2.8-2.2-5.2-3.5-2.4-1.3-5.6-3.1-7.2-4.2-9.2-6.1-15.5 5.3-11.3 20.5 1.5 5.4 1.3 9.1-.7 14.6-6.7 18.3-6.9 38-.5 47 .4.6 1.9 3 3.3 5.4 1.4 2.4 3.5 5.9 4.7 7.8 8.4 13.6 9.7 17.8 7.2 24.3-1.4 3.9-2.4 9.1-2.4 12.9v2.7l-1.5.3c-.8.2-2.5.8-3.9 1.5-2.8 1.4-3 1.3-4-1.8-2.3-6.9-1.6-18.5 1.6-28.1 3.6-10.9-.9-15.9-9.4-10.3C83.3 208.7 76.2 236 81 254c3.7 13.9 12.8 22.8 24.9 24.4 1.8.2 2.6.6 4.6 2.3 2.9 2.4 3 2.5 1.4 3.3-3.6 1.9-7.2 6.9-7.2 10.2 0 4.9 5.1 8 13.4 8 3.2 0 3.4 0 4.7 1.3 5.3 5 19.1 3.6 22.7-2.4l.8-1.4h12.6c7.8 0 12.6.1 12.6.4 0 .2.6 1 1.3 1.8 3.4 3.9 9.7 5.5 16.4 4 5.5-1.2 11.3-1.6 13.1-.9 9.4 3.4 27.3 1.5 32-3.4 1.4-1.4 1.7-1.4 3.1.1 4.7 4.8 22.5 6.7 31.9 3.4 1.5-.5 2.4-.6 6.7-.2 14.9 1.5 22.6-2.9 22-12.5-.3-5.3-3.5-10.3-8.3-12.7-1.3-.7-1.6-1-1.4-1.5 2.5-5.9 3.3-14.2 1.6-18.5-.2-.5.6-1.3 2.7-2.9 12.6-9.6 18-34.9 8.4-39.5-6.2-3-11.5.7-12.2 8.5-.6 7.5-4.3 16.7-6.4 16.1-.2-.1-.4 1.2-.4 2.7v2.8l2.2-2.3c4.5-4.7 7.1-10.7 7.7-18.4.5-5.5 2.4-7.8 5.8-7.2 3.9.8 5.1 3.6 4.4 11-1 10.7-4.3 17.6-10.9 23.1l-2.6 2.2-.8-1.1c-1.8-2.5-5.5-6.6-5.7-6.4-1.1 1.1-1.2 3.5-.1 4.5 3.5 2.9 5.8 9.4 5.5 14.9-.5 8.9-4.1 13.8-11.2 15.1-.8.2-1.6.5-1.8.7-.4.7 5.9 0 8.9-1l2.7-.9 2.2 1.2c5.3 2.8 7.9 9.2 5.8 14-1.2 2.7-1.9 3-2.2.8-.3-2.1-1.4-4.6-1.8-4.3-.2.1-.4 1.3-.6 2.7-.6 5.4-1 5.9-4.8 5.9h-1.3l-.2-2.9c-.2-2.7-.9-5.1-1.5-5.1-.1 0-.5 1.5-.8 3.2-.8 5.3-.8 5.3-3.8 4.9-3.1-.3-3-.1-1.7-2.6 1.8-3.6 1.1-8.5-1.8-12.5-3.4-4.8-3.3-5.8.8-15.1 1.3-3 2.9-7.5 3.6-10.3.7-2.7 1.4-5.2 1.5-5.5.2-.4-.1-.4-1.1.2-.7.5-1.8.8-2.2.8-.6 0-.8.2-.7.6.3.8-2 8.1-3.8 12-.8 1.8-2.2 5.2-3.1 7.7-3 8.6-8 11.2-18.4 9.4-1.2-.2-2.3-.4-3.5-.6-3.4-.6 1.9 2.7 5.9 3.6 5.5 1.3 11.4.1 14.4-3 1.6-1.6 1.5-1.6 3.5 1.5 3 4.6 3.3 8.1 1 11.3-1.4 2-1.9 1.7-1.9-1.2 0-1.8-1.4-5.2-2.2-5.5-.3-.1-.5 1.3-.7 4-.3 6.5-.1 6.3-6.4 7l-2.3.3v-2.9c0-2.9-.7-5.2-1.9-6.5-1-1.1-1.3-.5-1.4 3.2-.1 6.6-.3 6.7-8.3 4.9-8.9-2.1-9.3-2.8-9.3-19v-12.2l.9-.4c.5-.2 2.7-1.1 4.9-1.9 9.9-3.9 17.7-10.4 21.5-18 2.2-4.4 1.9-5.6-.5-2.2-5.3 7.8-14.5 14.6-24.2 17.9-8.5 2.9-24.4-6-32.6-18.3-1.8-2.7-2.2-2.6-1.2.2 3.1 9 13.4 17.6 26 21.7l2.1.7v26.3l-1.8 1.8c-2.4 2.4-13.4 5.6-14.7 4.3-.5-.5-1.1-6.5-.9-7.9.2-1.3-.1-1.9-.9-1.4-1.1.7-1.9 3.2-2.1 6.4l-.2 3.3-2.2-.3c-1.3-.1-2.6-.3-3.9-.5l-1.6-.2-.5-2.7c-.2-1.5-.5-3.8-.5-5.2 0-4.3-2.5-1.8-2.7 2.8-.2 3.3-.7 3.6-2.4 1.1-2.1-3.2-1.2-8.2 2.3-12.4l1.1-1.3 1.8 1.5c4.8 4.1 12.8 4.5 19 1 2.9-1.6 2.5-2-1.4-1.4-10.9 2-17.1-.9-19.2-8.6-.3-1-1.6-4.4-3-7.6-4-9.1-5.5-15.9-5.5-23.8 0-7.7 2.4-16.6 5.2-19.4 1.7-1.7 1.7-1.5-1.1-3.8-13.4-10.8-15.2-25.3-5.9-45.6l1.3-2.7-1.5-4.3c-5.5-15.9-6.1-37.5-1.1-39.1 3.3-1 10.2 3.3 19.4 12.4l6.8 6.7 3.4-1c8.6-2.5 20.7-2.5 30 0l3.8 1 .8-1.2c7.2-9.9 21.9-19.9 25.8-17.5 4 2.5 3.4 17.5-1.4 34.6-2.6 9.3-2.6 7.8-.1 12.9 8.1 17 6.5 31.4-4.9 42.8l-3.9 3.9 1 1.2c1.4 1.7 1.3 2.2-.7 3.2-1.7.8-4.7 3.4-4.7 4 0 .2.7-.4 1.5-1.3s2.8-2.2 4.4-3l2.9-1.5 1 1.2 1 1.2-.4-1.2c-.2-.7-.8-1.9-1.3-2.7l-.8-1.5 1.9-2.1c11.2-12.4 13-30.1 4.5-45.5l-1.6-3 1.6-6.1c4.6-17 5.1-29 1.5-37.5-.7-1.8-.8-1.8-5.2-.5-8 2.3-15.4 7.3-20.7 13.8l-2.7 3.3c-.1.2-2.1-.1-4.3-.5-8.8-1.8-19.4-1.8-28.1 0l-3.8.8-3.8-3.8c-11.1-11-19.5-15.9-23.9-13.9-.9.4-3.3 4.7-3.3 6 0 1.8-2.4-2.7-5-9.7-3.6-9.2-8.6-14.6-15.8-16.9-3.8-1.2-4.5-2.2-5.7-8.9-1.7-8.6-4.9-11.7-7.8-7.6m4.6 2.6c1.8 3.8 2.9 7.2 3.9 11.2.7 3 .2 2.6 3.6 3.6 7.5 2.2 13.7 8.8 16.4 17.3.9 2.8 3.1 7.7 4.2 9.1.7 1 .8 1.8.8 5.9 0 5.5.9 12.2 2.3 17.6.5 2.1 1 4.6 1 5.5 0 1.1.3 2.1.7 2.7.4.5 1.1 1.8 1.4 2.8l.7 1.9-2 4.6c-8.5 19.2-7.4 31.9 4 43l2.8 2.8-1 1.5c-2.4 3.9-4 9.4-4.7 16.2l-.4 4.3-3.2 3.2c-6.9 6.9-9 16.1-5.9 25.4 1.3 3.9 1.4 3.6-.7 4.8-6.5 3.8-9.8 12.9-6.7 18.6.5 1 .8 1.8.7 1.9-.2.2-1.9-2.1-1.9-2.6 0-.3-3.8-.4-12.7-.4-14.5 0-13.3.3-12.6-2.7 1.4-5.5.8-24.1-.8-26-1.8-2.2-2.5.3-1.6 6.1 1.1 7.1.6 17.1-1.2 21.7-2.5 6.7-10.7 9.4-18.2 6.1-1.3-.6-2.8-1-3.4-1-2.6.3-2.6-4.1 0-9.5 3.3-6.9 1.8-15.7-6.9-40.1-3.2-8.9-2-3.6 1.7 7.3 6.9 20.7 7.5 25.5 4.4 32.4-1 2.1-1.7 4.4-1.8 5.6l-.2 2.1h-2.8c-7.8 0-11.3-3-9.1-7.8 1.6-3.5 7-7.1 8.7-6 2 1.3 4.7-.3 2.7-1.7-13.4-9.3-19.4-17.4-19.5-26.1-.1-7.9 3.9-13.3 11.4-15.3l1.8-.5-.2-3.8c-.2-4.4.2-6.9 2.2-12.8 3-8.9 2.2-11.5-8.3-28-3.6-5.7-8.6-14.9-9.6-18-2.2-6.3-.3-30.5 3-38 .6-1.4 1.1-2.8 1.6-4.3.3-1.2 1-2.7 1.4-3.3.8-1.1.8-1.2-.4-4.3-3.9-10.7-2.8-23.6 2.2-25.5 1.1-.4 9.7 4.1 15.2 8.1l3.2 2.3 3-.5c1.7-.3 6.4-1.1 10.6-1.9l7.6-1.5 1.9-4.1c2.8-6 7.8-13.8 8.7-13.8.2.4 1.1 2 2 3.9m7.4 29.3c-1.4.9-2.3 2.2-2 3 .1.3.2.2.2-.2.1-1.1 2-2.3 3.7-2.3 2.7 0 4.7 3 4.1 5.9-.2.8-.1.9.2.5 2.6-3.7-2.5-9.3-6.2-6.9m-.5 4.3c-1.2 1.5-.4 2.7 2.8 4.3 1.8.9 3.4-1.7 2.3-3.8-.7-1.4-1.5-1.5-1.5-.2 0 1.5-1.4 1.2-1.5-.3-.2-1.4-1-1.4-2.1 0m-25.4 5.1c-3.6 1.3-5.3 5-3.2 7 .6.5 1.1.8 1.2.7s-.1-.4-.4-.7c-2.3-1.9.6-6 4.2-6 4.6 0 6.5 3.1 3.7 6.1-1.1 1.2-1 1.4.6.5 6.4-3.3.9-10.1-6.1-7.6m-.4 4c-.5.4-.8 1-.8 2.2 0 3.5 4.7 4.1 5.2.7.3-2.1-.9-4-1.7-2.8-.5.7-.6.7-1.1.1-.6-.9-.7-.9-1.6-.2m33.1 2.2c-5 1.3-8.7 6.4-5.7 7.9.8.4 1 .8.9 1.7-.1 1.4.9 2.3 3 2.7.7.1 1.3.4 1.3.6 0 .2 1.2.4 2.6.4s2.6-.1 2.6-.3c0-.2.6-.7 1.4-1.3 2-1.4 3.6-5.6 2.1-5.6-.3 0-.5-.5-.4-1.8.3-3.5-3.2-5.5-7.8-4.3m3.5 15.1c-.6.1-1.1.3-1.2.5-.1.2-.8.6-1.6 1-1.6.8-4.8 3.8-4.8 4.5 0 1.2-2.3 1.7-8.3 1.7-7 0-8.5.5-3.7 1.2 3.8.6 8.4.4 10.1-.4.7-.3 1.4-.6 1.6-.6 1-.1 2.2-.7 2.2-1 0-.7 2.5-1.5 6.4-2 5.8-.7 6.9-1.6 5.1-4-.8-1.2-2.6-1.5-5.8-.9m87.8 25.9c-6.4 2-16.1 9.1-15.3 11.3.6 1.6 8.6.4 13.8-2 4.4-2 5.3-3 5.3-5.6 0-4.1-.6-4.7-3.8-3.7m-56.7.7c-1.3 5 .4 7.2 7.9 9.7 12.3 4.1 15 .3 4.3-6-7.6-4.4-11.7-5.6-12.2-3.7m-103.3 18.5c1.2.9 1.1 5.9-.3 10.1-3.4 10.5-3.6 24.8-.4 31.1.5 1.1.5 1.2-.7 2.6-6.1 7-5.3 18.3 1.9 28.1l2.2 3-1.7-.3c-22.2-3.5-30.4-38.4-15.4-65.2 3.6-6.8 11.3-11.7 14.4-9.4m129 .6c-4 1.2-2 8.5 3.1 10.9 1.7.8 1.7.9 1.7 2.6 0 3.6-2 4.3-9.3 3.1-2.2-.4-2.9 0-2.1 1.1.3.5.6 1.2.6 1.6s.3.9.8 1.1c.4.2.9 1 1 1.8.6 3.3 1.8 2.5 1.8-1.1V221h16v2.2c0 3.3.6 3.8 1.6 1.5.4-1 1.1-2 1.4-2.1.5-.2 1.4-2.4 1.4-3.7 0-.6-3.4-.7-3.8-.1-.6 1-5.2.5-6.3-.8-1.9-2-1.6-3.8.9-5.3 3.3-2 4.8-7.5 2.8-10-.7-.9-9-1.5-11.6-.7m.7 20.8c-.5.7.9 1.3 1.7.8.7-.4.9-.4 1.8.4 1.1 1 1.6 1.1 2.3.3.3-.4.9-.5 1.4-.4.9.2 2-.6 1.5-1.1-.4-.5-8.5-.4-8.7 0m46.6 10.7c0 .2.3.9.6 1.4.3.6.6.8.6.6 0-.2-.3-.9-.6-1.4-.4-.6-.6-.9-.6-.6m-9.1 5.4c.1.2.6.4 1.1.4.7 0 .8-.1.3-.4-.7-.5-1.7-.5-1.4 0m-3 5.8c0 .7 1.5 1.9 2.1 1.6.3-.1.3-.2-.2-.2-.4 0-1-.4-1.3-.9-.3-.5-.6-.7-.6-.5m3.5 5.2c-.1.4-.2 1.4-.2 2.3.1 1.6.1 1.5.3-.5.3-2.4.3-2.9-.1-1.8m-78.9 2.5c1.1 7.5 2 10.6 5 18.2 4.2 10.5 4.3 11.3 1.7 15.2-3.4 5.1-4.1 9.9-2.1 13.9 1 2 1.2 1.8-1.9 2.1-3 .3-3.1.3-3.7-4.7-.3-1.9-.6-3.5-.8-3.5-.6 0-1.7 4.1-1.7 6.1v2l-2.4-.2c-3-.3-3-.2-3.7-4.6-.3-2-.7-3.8-.8-3.9-.3-.3-1.4 2.4-1.7 4.5l-.3 1.9-.9-1.1c-3.9-4.5-1.1-12.9 5.3-16l1.7-.8 2.7.9c1.5.5 4.1 1 5.9 1.1 3.6.3 3.7-.2.4-1-6.9-1.7-10-6-10.5-14.7-.3-5.7 1.4-10.8 5.3-15.3 1.9-2 2.2-2 2.5-.1" style="fill-rule:evenodd;clip-rule:evenodd;fill:#2b1e5e"/><path d="M188.5 7.1C91.9 13.2 14.8 89.2 7.2 185.6c-1.3 16.3.2 39.2 3.4 53.8 3.6 16.2 8.4 31 14.2 43.2 2.2 4.6 2.2 4.8 1.1 6.3s-3.5 3-3.5 2.3c0-.2-.2-.3-.4-.2-.2.1-.3.6-.2 1 .1.4.4.7.6.5.2-.1.3-.1.1.2-.3.5.9 3.2 2 4.4.3.4.6.9.6 1.1 0 .4.9 2 3 5.2.7 1.1 1.4 2.3 1.5 2.7.3.8 1.3.7 1.2-.1-.1-.3.1-.4.3-.3.2.1 1.2-.6 2.3-1.6l1.9-1.8 1 1.3c.5.7 2.6 3.6 4.6 6.5 2 2.9 4.2 5.8 4.8 6.6 14.9 18.7 30.9 33.5 48.2 45 7.3 4.8 14.7 9.3 16.6 9.9 1.4.5 1.4 1.5.1 2.1-1.3.6-3.4 3-3.1 3.5.1.2-.2.2-.6-.1-.5-.3-1-.4-1.1-.3s.4.4 1.1.7c.7.3 1.6.7 1.9 1 .3.3 1.8 1 3.2 1.6 1.4.6 2.7 1.3 2.8 1.4s1.7.9 3.6 1.6c1.9.7 3.5 1.4 3.6 1.6.1.1 1.6.8 3.4 1.4s3.4 1.3 3.6 1.4c.2.2 2.2.9 4.5 1.6 2.3.7 4.6 1.5 5.2 1.8.6.3 3.2 1 5.7 1.7s4.7 1.3 4.8 1.4 2.8.7 6 1.3c3.2.6 6.1 1.2 6.5 1.4.8.4 9.7 1.7 17.1 2.5 6.8.7 35.6.7 42.4 0 7.1-.7 16.1-2 17-2.5.4-.2 3.2-.8 6.2-1.4 3-.6 6-1.3 6.6-1.6.6-.3 1.4-.6 1.8-.6.9 0 8.5-2 9-2.4.2-.2 2.2-.9 4.4-1.6 2.2-.7 4.7-1.6 5.6-2.1.9-.4 1.8-.8 2.1-.8.3 0 1.6-.5 3-1.2 1.3-.7 2.6-1.2 2.8-1.2.2 0 2.2-.9 4.5-2s4.8-2.3 5.7-2.6c.9-.4 1.7-.8 1.8-.9.1-.2 1.5-.9 3-1.7 1.5-.8 2.9-1.5 3-1.6s1.2-.8 2.4-1.4c1.2-.6 2.3-1.3 2.4-1.4.1-.1 1.3-.8 2.6-1.6 1.3-.7 2.5-1.4 2.6-1.6.1-.2 1.2-.9 2.5-1.6 1.3-.7 2.3-1.4 2.3-1.6s.6-.6 1.3-.9c.7-.3 1.7-.9 2.1-1.3.4-.4 1.6-1.3 2.6-1.9 1-.7 2.3-1.7 3-2.3.6-.6 1.4-1.1 1.7-1.1s.8-.4 1.2-.9c.4-.5 1.2-1.2 1.8-1.6.6-.4 1.6-1.2 2.3-1.8.6-.6 2.2-2 3.5-3.1 4.1-3.5 13.6-12.8 16.2-15.8.5-.6 1.6-1.8 2.5-2.8 2.6-2.9 5.2-6 5.6-6.7.2-.4.7-.9 1.1-1.2.4-.3.7-.7.7-1s.6-1.1 1.3-1.9c.7-.8 1.8-2.2 2.5-3.2s1.3-1.9 1.4-2c.1-.1.7-1 1.4-2 .6-1 1.4-2.1 1.8-2.5.4-.4 1.1-1.6 1.7-2.6.6-1 1.3-2.2 1.7-2.6.4-.4.9-1.3 1.2-2 .3-.7.8-1.6 1.1-1.9.3-.3 1-1.5 1.6-2.6.6-1.1 1.4-2.6 1.8-3.2.4-.6 1.2-2.2 1.7-3.5.5-1.3 1.1-2.3 1.2-2.3.2 0 .9-1.4 1.6-3.2.7-1.8 1.4-3.2 1.6-3.2.2 0 .9-1.6 1.6-3.5.7-1.9 1.4-3.6 1.6-3.7.2-.1.8-1.7 1.4-3.6.6-1.9 1.3-3.5 1.4-3.6.3-.2 1.6-4.1 2.4-7.1.3-1.2.7-2.1.8-2.1.2 0 .9-2.5 1.6-5.5.7-3 1.4-5.6 1.6-5.7.3-.2 1.6-6.5 2.2-10.4.2-1 .4-2 .6-2.2.4-.5 1.4-7.6 2.3-15.8 1.7-16.1.2-53.5-2.3-59-.2-.4-.8-3.4-1.4-6.6-.6-3.2-1.2-5.9-1.3-6-.1-.1-.8-2.5-1.6-5.4-.7-2.9-1.5-5.3-1.7-5.3-.2-.1-.4-.4-.4-.8 0-.8-2.3-7.9-2.8-8.8-.2-.4-.6-1.2-.8-1.8l-.4-1.1-2.4 2.4c-2.8 2.8-2.9 2.8-3.6.9-1.3-3.5-6.1-13.9-9.4-19.9-11.6-21.6-26.9-40.8-45.8-57.5-5.6-4.9-5.3-4.4-3.2-6.5 1-1 1.8-2 1.8-2.2 0-.3.3-.4.6-.3.5.2.5.1.1-.6-.3-.4-.6-.8-.7-.8-.3 0-6.9-4.8-8-5.7-.3-.3-1.1-.9-1.8-1.3-.8-.5-1.6-1.1-2.3-1.7-.6-.5-1.4-.9-1.8-.9-.6 0-.6.1 0 .4 1.2.7-.4 2.9-3 4.3-1.1.6-.6.8-6.8-2.9-32.8-19.7-73.5-29.7-111.7-27.3m42.6 4.1c16.2 3.3 21.1 8.2 20.6 21l-.1 3.7 4 1.3 4 1.3 1.2-1.6c7.8-10 16.7-12.3 27.1-7.1 10.4 5.2 14.4 14.5 10.9 25.3-.9 2.9-.9 3.1-.3 3.6.4.3 2 1.5 3.5 2.6l2.8 2.1 3-1.9c11.4-7.3 26.1-2.6 32.4 10.3 3.4 6.8 1 15.7-4 14.8-3.3-.6-4-2-3.3-6.9 1.5-11-10.2-17.9-18.9-11.1l-1.5 1.2L314 71c2 1.6 13.9 13.5 16.1 16.2 3.5 4.2 9.3 11.5 10.3 13.1l1.1 1.6 2.3-1.3c1.2-.7 2.4-1.3 2.5-1.3.2 0 2.1-1 4.2-2.2 6.8-3.8 7.4-3.6 12.2 4.9 10.8 19 10.6 18.5 8.8 20.3-.8.8-1.4 1-2.6 1-2.3 0-2.2.2-9.8-13.7-1.5-2.8-3-5.1-3.2-5.1-.5 0-7.8 4.3-8.1 4.7-.2.2 2.9 6.1 5.9 11.1 1.8 3 3.1 6.1 3.1 7.1 0 1.1 1 4.2 1.6 4.8.2.2.7.1 1.1-.1 1.8-1 3.7 1 4.7 4.9.4 1.8-.5 1.3-1.5-.8-1.4-2.9-1.7-2.9-5.7-1.1-3.7 1.7-4.2 2.3-3.4 4.4.9 2.4 0 2.6-1.2.2-1.4-2.8-1-3.6 2.6-5.8 1.3-.8.1-2.9-1.8-3.1-2.2-.3-2.1-.2-9.5-13.4l-2.5-4.5-1.3.6c-.7.3-2.2 1.1-3.3 1.7-1.1.7-2.3 1.3-3.5 1.9-2.5 1.3-2.9.1 4.3 13 4.4 7.8 4.7 9.1 2.9 10.7-2.5 2.2-4.5 1.1-7.4-4.1-1.1-2-3.9-7-6.3-11.2-6.1-10.8-6.1-11.5.3-15.2 9.7-5.6 12.1-7.2 11.6-7.5-.5-.3-2.9-3.8-2.9-4.3 0-.2-.2-.4-.4-.4s-.9-.8-1.5-1.8c-1.3-2.1-1.5-2.2-2.4-.7-1.5 2.4-8.8 8.8-10.4 9.1-3.2.6-10.9-2.6-15.4-6.3-10.2-8.5-12-20.6-4.5-30.8.9-1.2 1.3-2.1 1.1-2.2-.2-.1-.9-.6-1.5-1.2s-1.8-1.5-2.7-2l-1.6-1-1 1.4c-7.7 10.5-18.9 12.7-29.6 5.8-8.6-5.6-11.6-13.9-8.6-24.4l.8-2.7-1.6-.5c-.9-.3-1.7-.6-1.8-.8-.9-1.3-4-1.1-4 .3 0 1.3-3.8 7.8-5.6 9.6-5.4 5.4-10 6-23 3.3-11.7-2.4-11.2-1.6-9.1-14.4.6-3.8 1.1-7 1-7.1-.7-.7-28.9-.3-29.7.4-.1.1 1.4 2.9 3.3 6.2 5.7 9.5 5.9 10 3.5 12.4-2.9 2.9-5.1 1.8-9.2-4.7-2.3-3.6-1.2-3.5-11.1-1.6l-7.8 1.5-.5 3c-1.2 7.4-2.2 9-5.4 8.9-4.5-.1-4.6-1.7-1.6-19.3.2-1.3.2-1.3-.9-1.1-5.5 1.3-12.2 3.7-10.4 3.8 2.6.1 6 6 6 10.6 0 6.6-2.3 8.9-15 15.1-13.4 6.5-12.8 6.7-18-3.7-2-4-3.9-7.3-4.1-7.4-.5-.2-4.6 1.9-5 2.6-.1.2-1 .7-1.9 1.2-1.5.8-2.4 2.4-1.4 2.4.2 0 .6.6 1 1.2.4.7 2.5 3.8 4.8 6.8 4.6 6.3 5.2 8.3 3.5 10.4-2.6 3.3-5.3 2.3-10-3.9-7.8-10.3-7.9-10.3-9.8-8.5-1.7 1.6-3.2 2.9-4.8 4.1-1.9 1.4-2.4.6 5.2 7.7 5.3 5 6.5 6.4 6.7 7.5.6 3.1-2.3 5.9-5.3 5-.6-.2-3.8-2.6-7-5.4-3.2-2.8-6-5-6.2-5-.2 0-3 2.9-6.2 6.5L70.8 95l2.5 2.4c10.8 10.3 10.8 10.3 9.4 13.3-1.8 3.7-4.5 3.2-10.7-2.2-7.8-6.7-9.1-7.8-9.1-7.2 0 .3-.4 1-.9 1.5-1.2 1.3-3.1 4.3-3.1 4.8 0 .2-.1.4-.3.4-.3 0-1.7 2.1-1.7 2.5 0 .1 1.2.3 2.7.4 12.8.9 16.1 17.2 5.8 28.4-6 6.5-17.7 6.9-17.7.5 0-2.8 1.5-3.8 6-3.8 7.1 0 11.6-4.7 10.7-11.1-1-6.5-6.6-6.3-12.3.6-1.6 1.9-3.9 4.5-5.2 5.7-1.4 1.4-2.5 2.9-2.8 3.8-.3.9-.8 2-1.1 2.6-.3.6-.8 1.7-1.1 2.6-.6 1.7-1.8 2.3-3 1.4-.5-.3.5-3.7 1.9-6.4.1-.1-.9-.1-2-.1-12.2.8-16-14.7-6.5-25.8 5.4-6.3 15.8-6.7 15.8-.7 0 2.6-1.6 3.8-5.4 4-6 .4-8.8 3.2-8.8 8.8 0 7.3 4.6 6.7 11.4-1.5 1.7-2.1 3.9-4.5 4.9-5.5 1-.9 2.4-2.7 3.1-4 .8-1.3 2.8-4.4 4.6-6.9l3.2-4.6-6.5-6.2-6.6-6.1v-1.9c0-1.6.2-2 1.4-3.1 2.7-2.4 4-1.8 11.4 4.6 4.5 3.9 3.8 4 7.9-.6 1.9-2.1 4.5-5 5.7-6.4 2.9-3.1 2.9-2.5-.7-5.9-5.8-5.2-7.2-6.7-7.4-8.1-.5-2.8 1.9-5.5 4.6-5.2 1.8.2 1.6.2 9.1 6.6 6.4 5.6 5.3 5.3 9 2.1.9-.8 2.5-2.1 3.5-2.9l1.9-1.5-.9-1.5C93 62 91 59.1 89 56.4c-4.9-6.8-5.3-9-2.2-10.9 3-1.8 4.6-1 9.4 5.4 2 2.7 4.2 5.5 4.9 6.3l1.2 1.4 2.7-1.8c1.5-1 3.1-2 4.6-3 2.4-1.4 2.4-1.1-1.5-9.6-3.1-6.8-3.5-8.4-2.3-10.2.6-.9 15.6-8.5 19.1-9.6 8.7-2.9 17 4.5 14.4 13-.3 1-.5 1.9-.5 1.9.1 0 3.1-1 6.7-2.2 3.6-1.2 7.4-2.4 8.5-2.7 2.3-.6 2.5-.9 3.5-5.9 3.2-16 3.9-17.3 8.9-17.3 3.3 0 4 .7 10.2 10.2 4.5 6.8 5.3 7.9 5.7 7.6.8-.5 19.3-1 25.2-.7 7.6.4 7.3.5 8-3.3 3.5-17.1 2.8-16.4 15.6-13.8m-4.7 7c-.2.7-1.5 7.6-2 10.4l-.2 1.3 2.4.3c2.8.3 9.7 1.6 13 2.5 2.8.7 2.7.9 2.9-2.7.5-7.2-2.9-10.1-14.4-12.1-1.2-.3-1.6-.3-1.7.3m-59.5 3.1c0 .2-.3 2.1-.6 4.2-1 6.8-1.4 6.3 4.1 5.1l2.1-.4-1.3-2.2c-.7-1.2-1.4-2.5-2-3.7-1-1.8-2.3-3.5-2.3-3m-42.6 10.9c-2.7 1-9.4 4.3-9.4 4.6 0 .6 4.4 9.1 4.7 9.1.2 0 .5-.2.7-.4.2-.2 1.6-.9 3-1.5 6.1-2.7 8.4-4.7 8.4-7.6 0-3.8-3.2-5.7-7.4-4.2m99.2 1.4c-.1.5-.7 2.8-1.2 5.1s-1.1 4.8-1.2 5.6l-.3 1.4 5.3.9c5.5 1 7.3.9 9.5-.3 3.4-1.8 7.3-10 5.1-10.6-1.4-.4-9.4-1.9-10.3-1.9-.5 0-1-.2-1.1-.4-.4-.8-5.5-.8-5.8.2m-52.6-.1c0 .2-1.4.5-3 .8-2 .3-3 .7-3 1 0 .3-.1 1.1-.2 1.7l-.2 1.2 5.5-1c6.5-1.1 6.1-.9 4.9-2.7-1-1.3-4-2.1-4-1m106.3 1.8c-3.2 1.1-6.4 3.5-7.6 5.9l-.6 1.2 1.9.8c4.2 1.8 12 5.8 16.2 8.4 2.5 1.5 2.6 1.5 3.3-.9 2.7-9.2-5-18.1-13.2-15.4m-10 9.8c-7.7 12.5 6.5 25.7 17 15.8 4.3-4 4.4-5.5.5-7.3-1.5-.7-2.9-1.5-3.2-1.8-.2-.2-1.4-.9-2.6-1.4-1.2-.5-2.3-1.1-2.4-1.3-.3-.4-4.8-2.3-5.4-2.3-.3 0-.8-.3-1.1-.6-.8-.8-2.6-1.5-2.8-1.1m-134.9 2.7c-.8.3-3 1.3-4.8 2.1-1.8.9-3.7 1.7-4.2 1.8-1.2.4-1.1.5.4 3.7.7 1.5 1.8 3.7 2.3 5 1.2 2.8 1.1 2.8 6.8.1 6.8-3.3 8.4-4.8 8.4-7.8.1-4.5-4-6.7-8.9-4.9m75.6 6.6c17.4 1.1 43.3 7.1 39.9 9.2-1.4.9-1.1 1.3 1.6 2.2 1.4.5 3.8 1.4 5.4 2.1 3.1 1.3 4 1.2 4.8-.3.2-.4.4-.5.4-.2s.3.5.6.5c.5 0 5.3 2 6.6 2.7.3.2 1.9 1 3.4 1.9 24.2 13.1 45.3 34.4 57.4 58 1.8 3.5 2.2 5.1 1.3 5.1-1.3 0-1.3.8.1 3.6 22.2 47.4 16.1 105.6-15.3 147-8.3 10.9-21.3 23.6-30.8 30.2-5.1 3.5-7.5 5-10.8 7-47.9 28.4-111.9 25.3-156.7-7.8-.9-.7-2.6-1.9-3.8-2.7-1.2-.8-2.4-1.7-2.7-2.1-.4-.5-.6-.5-1.8.1-1.5.7-1.1.9-5.6-2.9-21.5-18.4-38.3-47.1-44.2-75.6-.8-3.9-.8-4.4.4-5.5l1-1-.7-4.3c-.3-1.9-.6-3.9-.9-5.8-.2-1.7-.6-1.9-1.4-.7-1.2 1.7-1.5.3-1.9-8.4-.8-14.4.1-25.1 3.3-39.4C72.7 98.8 137.7 49.9 207.9 54.4m100.7 19.3c-7.3 7.9-4 18.1 7.3 22.3l2.3.9 2.4-2.3 2.4-2.3-2.7-2.8c-3.3-3.4-4.1-4.5-4.1-5.8 0-1.1 1.7-3.2 2.7-3.2 1 0 .5-.7-2.2-3-1.5-1.3-3.4-3-4.2-3.9-1.9-2-1.9-2-3.9.1M154.3 94c-1.8 2.1-5.4 8.3-7.4 12.6l-1.9 4.1-7.6 1.5c-4.2.8-8.9 1.7-10.6 1.9l-3 .5-3.2-2.3c-5.5-4-14.1-8.5-15.2-8.1-5 1.9-6.1 14.8-2.2 25.5 1.1 3.1 1.1 3.1.4 4.3-.8 1.2-2.1 5-1.8 5.3.1.1.5-.8.8-1.9.7-2.3 1.5-3.9 2.7-4.8.7-.6.7-.7-.3-4-1.9-6.4-1.7-15.1.5-19.9l1-2.1 2.7 1.4c6 3.1 11.5 8.5 15.3 14.9.9 1.6 1.9 2.9 2 2.9.8 0 3.7-2.3 6.1-4.9 2.4-2.5 2.8-2.8 3.8-2.6.6.1 2.4.5 3.9.8s3.5.6 4.3.6c2.3 0 2.7.3 4.6 3.3 2.8 4.4 5.7 5.2 5.7 1.6 0-2-.3-2.5-2.5-4.1-1.7-1.3-1.5-3.5.4-5.6l1.5-1.6v-8.5c.1-11.6.7-13.3 3-8.2 2.1 4.7 2.5 5.5 2.2 4.3-.3-1.5-3.5-8-3.8-8-.2-.1-.8.4-1.4 1.1m-2.2.4c-.5.7-.8 1.2-.7 1.2s.6-.5 1.1-1.2c.5-.7.8-1.2.7-1.2s-.6.5-1.1 1.2m-45.7 7.9c.5.1 1.2.1 1.6 0 .4-.1 0-.2-.9-.2s-1.2.1-.7.2m-2.8.9-.9.8 1.2-.7c1.6-.9 1.6-.9 1.1-.9-.3 0-.9.4-1.4.8m5.3-.7c.1.1.7.4 1.4.8l1.2.7-.9-.8c-.5-.5-1.1-.8-1.4-.8s-.4 0-.3.1m37.8 1.1c-.3.7-.5 1.2-.4 1.2s.5-.5.8-1.2c.3-.7.5-1.2.4-1.2s-.5.5-.8 1.2m14.6.7c0 1 1 3.7 1.4 3.7.1 0 0-.3-.2-.8-.2-.4-.6-1.5-.8-2.3-.2-1-.3-1.2-.4-.6m-.8.5c0 2.6 1.3 6 2.3 6 .6 0 .6-.1 0-.2-.4-.1-.8-.7-.9-1.3-.7-2.7-1.3-5.1-1.4-4.5m-41.2 3.8c0 .1.7.6 1.6 1 .9.4 1.6.7 1.6.6 0-.1-.7-.6-1.6-1-.9-.5-1.6-.7-1.6-.6m44.4.3c.3.4 1.1.8 1.8.9l1.2.2-1.2-.5c-.7-.3-1.5-.6-1.8-.9-.5-.3-.5-.3 0 .3m1.6 2.7c1 .4 2.3.9 2.9 1.2.6.2 1 .3.9.1-.3-.4-4.4-2-5.1-2-.3-.1.3.3 1.3.7m-36.2.6c-2.7.7-1.4.7 1.6 0 1.3-.3 2-.5 1.4-.5-.6 0-1.9.2-3 .5m-30.1 3c0 1.7.1 2.3.2 1.5.1-.8.1-2.2 0-3-.1-.8-.2-.2-.2 1.5m71.3-1.4c2.9 2.2 5.1 4.3 6.6 6.3 2 2.6 2.3 2.9 1.3 1-1-1.8-5.7-6.4-7.3-7.2-.9-.5-1.1-.5-.6-.1m5.4 1.9c0 .1.6.7 1.3 1.3l1.3 1.2-1.2-1.3c-1.1-1.2-1.4-1.5-1.4-1.2m-70 3.8c0 4.8 4.4 8 8.7 6.4 1.7-.6 1.6-.8-.5-1.9-1.8-.9-2.4-2.1-1.4-2.7.8-.5.3-1-1-1-1.5 0-1.7-.3-.9-1.1 1-1 0-1.7-2.4-1.7h-2.4l-.1 2m74.1 1.9c.5 1 .9 1.7 1 1.6.2-.2-1.4-3.4-1.7-3.4-.1 0 .2.8.7 1.8M99.7 123c0 .4.1 1.2.3 1.6.4 1 .4 0 0-1.4-.2-.8-.3-.8-.3-.2m79.6.6c0 .1.4 1.2 1 2.4s.9 1.7.7 1.2c-.2-1-1.7-4-1.7-3.6m-11.6 1.2c.8.2 1.9.9 2.6 1.5l1.2 1.1-1.2-1.3c-.8-.8-1.7-1.4-2.6-1.5l-1.4-.2 1.4.4m-3.3.9c-.5.5-.7.7-.3.5.3-.2 1-.6 1.4-.9.4-.2.6-.4.3-.5-.3 0-.9.4-1.4.9m-1.9 3.5c0 .7.1.9.5.5s.4-.6 0-1-.5-.2-.5.5m9.3 1c0 .9.1 1.2.2.7s.1-1.2 0-1.6c-.1-.4-.2 0-.2.9m-70.4 1.4c0 1 .1 1.4.2.9.1-.6.1-1.2 0-1.8-.2-.5-.2-.1-.2.9m91.9-1.1c.1.1 1 .3 2 .4 1.2.2 1.5.1 1-.1-.8-.3-3.3-.6-3-.3m-11.2.5c0 .2.3.9.6 1.4.3.6.6.8.6.6 0-.2-.3-.9-.6-1.4-.3-.5-.6-.8-.6-.6m-17.8 1.4c1 1.1 3.4 2.6 3.7 2.3.1-.1 0-.2-.2-.2s-1.3-.7-2.4-1.5c-1-.9-1.6-1.1-1.1-.6m117.4-.2c.7 1.4 1.2 2 1.2 1.5 0-.3-.4-.9-.8-1.4-.6-.7-.7-.7-.4-.1m-112.1 1.4c-.8.7-.9 1.1-.5 1.1.7 0 2.4-1.7 2-2-.3-.1-.9.3-1.5.9m26.9-1.1c.6.5 4 2.3 4 2.1 0-.3-3.3-2.3-3.8-2.3-.2.1-.3.2-.2.2m74.3.9c-1 .5-1.9 1.1-1.9 1.2 0 .2 4-1.7 4.4-2.1.5-.4-.8.1-2.5.9m3 .2c-1.4.7-2.5 1.3-2.5 1.4 0 .2 5.1-2.1 5.6-2.4.6-.5-.9 0-3.1 1m-84.3.3c-1.6 3.2-1.7 12.1-.2 21.5.8 4.9.8 3.2 0-3.2-.7-5.1-.3-16 .5-17.9.8-1.7.6-2-.3-.4m-48.6.3c.1.1 1 .2 1.9.4 1.2.1 1.6.1 1.2-.1-.5-.5-3.5-.7-3.1-.3m44.4 0c0 .7 1.6 3.1 1.9 2.8.1-.1.1-.4-.2-.5-.2-.2-.7-.8-1.1-1.5-.3-.7-.6-1-.6-.8m17.2 2.1c1 .8 2.8 2.4 4 3.5l2.2 2-2.2-2.3c-1.2-1.2-3-2.8-4-3.5l-1.8-1.2 1.8 1.5m66.6 0c-4.7 3.4-12.3 11.1-13.5 13.7-.3.7.4-.2 3.5-3.9 2.2-2.6 6.7-6.8 10-9.2 1.7-1.2 2.2-1.7 1.8-1.7-.2 0-.9.5-1.8 1.1m-131.6.9c-.8.7-1.4 1.4-1.4 1.7 0 .2.3 0 .6-.5.4-.5 1.2-1.3 1.9-1.7.7-.4 1-.8.8-.8-.3.1-1.1.7-1.9 1.3m127.6-.2-1.2 1 1.3-.9c.7-.5 1.3-.9 1.3-1 0-.2-.1-.1-1.4.9m19.9.4c0 .4.1 1.3.3 1.8.3.8.3.8.3.2 0-.4-.1-1.3-.3-1.8-.2-.8-.3-.8-.3-.2m-185.3 1.1c-.2.7-.4 1.4-.3 1.4.1.1.4-.4.6-1.1.2-.7.4-1.4.3-1.4-.1-.2-.4.3-.6 1.1m184.2 4.5c0 5.1 0 5.3.3 2.5.2-1.7.2-4.2 0-5.6-.2-2.1-.3-1.5-.3 3.1m-97.8-2.3.2 2.7.1-2.4c.1-1.3 0-2.5-.2-2.7-.2-.1-.2 1-.1 2.4m-43.5-1.6c.2.3.5 1.1.7 1.8.3 1.2.3 1.2.3.2 0-.6-.3-1.4-.7-1.8-.3-.4-.5-.5-.3-.2m223.5 1.6c.7 1.6 1.1 3.2 1.2 4.9.1 1.4.3 3.2.6 4 .8 2.6.5 3.3-2.2 6.7-3.5 4.5-4.9 4.4-6-.3-.8-3.7-2.2-7.2-2.8-7.2-.5 0-1.9-2.8-2.4-4.9-.1-.6-.3-1.1-.5-1.7-.7-1.8.7-.3 1.8 2 1.1 2.1 1.4 2.5 1.8 2.1.3-.3 1.8-2.2 3.4-4.2 3.4-4.3 3.7-4.4 5.1-1.4m-156.3-.6c.1.1 1.3 1.2 2.8 2.5l2.6 2.4-2.4-2.5c-1.3-1.4-2.6-2.5-2.8-2.5-.2 0-.3.1-.2.1m-73.2 1.8c.9 1.1.4 1.2-.7.2-.8-.7-.8-.7-.3 0 .6.8 2.5 1.9 3.3 1.9.3 0 .1-.3-.4-.6-.5-.4-.8-.8-.6-1.1.1-.3.1-.3-.1-.2-.2.2-.7 0-1.2-.4-.7-.7-.7-.7 0 .2m42.1.5c.9 1.1 1.1 1.7.9 3.1-.1 1.2 0 1.7.4 1.7 1.5 0-.1 4.3-2.1 5.6-.8.5-1.4 1.1-1.4 1.3 0 .2-1.2.3-2.6.3-1.4 0-2.6-.2-2.6-.4s-.6-.5-1.3-.6c-2.2-.4-3.2-1.3-3.1-2.7.1-.9-.1-1.3-.9-1.7-.8-.4-1-.8-.9-2 0-1-.1-1.3-.3-1-.6 1-.4 2.3.7 3.1.9.7 1 .9.6 1.9-.6 1.5-.2 2.6 1.4 4.3 1.6 1.6 1.8 3.2.7 4.7-.8 1-1.4 3.3-.8 2.9.2-.1.3-.4.3-.7 0-.7 3.2-3.7 4.8-4.5.8-.4 1.5-.9 1.6-1.1s1.6-.5 3.2-.6l3-.2 1.1 1.6c.6.9 1 1.2.8.8-.2-.4-.4-2.9-.4-5.4 0-4.7-.2-5.8-1.2-6.2-.3-.1-.6-.8-.6-1.6 0-1-.3-1.8-1.2-2.7l-1.2-1.3 1.1 1.4m-139.5.5c2.1.9 2 1.1-2.5 2.4-3.5 1-3.7 1-3.3-.8.7-3 2-3.3 5.8-1.6m171.9 1.1c4.4 4.8 6.3 6.6 5.4 5.4-.5-.7-2.4-2.7-4.3-4.6-2.8-2.7-3-2.9-1.1-.8m74.8.4c0 1.4.1 2 .2 1.3s.1-1.9 0-2.6c-.1-.7-.2-.1-.2 1.3m-186.2-.6c-.2.9-.5 2.3-.7 3.2-.1 1 .1.5.6-1.2.4-1.5.7-3 .7-3.2s-.3.3-.6 1.2m43.2-.8c0 .4-.2.6-.5.6s-.4.1-.2.2c.3.3 3-.6 3.3-1.1.1-.2-.1-.2-.6.1-.7.4-1 .4-1.4 0-.5-.4-.6-.4-.6.2m23.9.7c-1.2 1.2-1.3 1.2-.1.3.5-.4 1.1-.9 1.6-1.3.2-.2.3-.3.1-.3-.2 0-.9.6-1.6 1.3m-123.7 2.1c.1.7-.5 2.8-1.3 4.8-1.5 3.9-1.7 5.2-1.3 6.2.3.8-1.3 6.6-1.9 7-.3.2-.3-.8-.1-2.7.3-2.7.2-2.9-.4-2.7-.4.1-2.7.8-5.2 1.5l-4.5 1.3-.3 1.7c-.4 2.5-.1 3.1 1.5 3.6 2.9.8 2.7 2.4-.1 1.8-3.2-.7-3.7-1.9-2.3-5.6.4-1.2.8-2.6.8-3.1 0-1.6 1.2-5.1 2-5.9.4-.4 1.3-2.1 1.9-3.7l1.2-2.9 4.2-1.3c5.1-1.6 5.7-1.6 5.8 0m143.1 1c0 1.4.1 2 .2 1.3s.1-1.9 0-2.6c-.1-.7-.2-.1-.2 1.3m30.5-.1c.9.9 1.9 1.7 2.2 1.7.5 0 .5-.1 0-.2-.3-.1-1.3-.9-2.2-1.7l-1.6-1.5 1.6 1.7m18.5-.8c.6.1 1.2.1 1.8 0 .5-.1.1-.2-.9-.2s-1.4.1-.9.2m-5.2.4c.7.1 2 .1 2.8 0 .8-.1.2-.2-1.3-.2s-2.2.1-1.5.2m9.2 0c.7.1 2 .1 2.8 0 .8-.1.2-.2-1.3-.2s-2.2.1-1.5.2m-142.5 2.3c-.2.8-.2 1.5-.1 1.6.1.1.3-.5.5-1.3s.2-1.5.1-1.6c-.2 0-.4.5-.5 1.3m133.7-.7c.6.1 1.2.1 1.8 0 .5-.1.1-.2-.9-.2s-1.4.1-.9.2m9.6 0c.6.1 1.2.1 1.8 0 .5-.1.1-.2-.9-.2s-1.4.1-.9.2m-14.1.4c-2.2.5-5.8 1.5-5.7 1.6.1.1 1.7-.2 3.5-.6 1.8-.4 3.9-.9 4.6-.9 1.1-.2 1.1-.2-.2-.2-.7-.1-1.7 0-2.2.1m21.8.7c2.5.5 4.6.9 4.7.8.2-.2-4.9-1.4-7.1-1.6-1.3-.1-.3.2 2.4.8m-61.1 1.8c0 .8.1 1.1.2.7.1-.4.1-1 0-1.4-.1-.4-.2-.1-.2.7m183.2 4.2c.6 1.8 0 2.9-1.9 3.4-3.4.9-3.5.6-1.1-2.5 2.1-2.7 2.4-2.8 3-.9m-272.1.2c0 .8.1 1.1.2.7.1-.4.1-1 0-1.4-.1-.4-.2-.1-.2.7m186.9.4c0 .8.1 1.1.2.7.1-.4.1-1 0-1.4-.1-.4-.2-.1-.2.7m-2.3.7c-.1.8-.5 2.7-.9 4.2-.3 1.5-.5 2.8-.4 2.9.2.2 1.3-4.3 1.7-6.9.3-2.1 0-2.3-.4-.2M97 160.7c-.5 5.3-.4 16.1.2 17.3l.5 1-.2-1c-.6-2.5-.7-9.9-.2-14.9.3-3 .4-5.6.3-5.7-.2-.2-.4 1.3-.6 3.3m271.2.1c.6 2.2.4 2.4-1.5 3-1.9.6-1.9.6-2.2-1.9-.5-3 2.9-4 3.7-1.1m-187.7-.4c-.3.2-2.3.6-4.4.8-3.9.5-6.4 1.3-6.4 2 0 .4-1.5 1.1-2.3.9-.3 0-.6.1-.8.4-.2.3-.1.4 0 .2.2-.2.5 0 .8.3 1.1 1.5 12.5-1.7 13.6-3.9.7-1.1.6-1.3-.5-.7m-86 1.6c0 .8.1 1.1.2.7.1-.4.1-1 0-1.4-.1-.4-.2 0-.2.7m94.3.2c.1.7.4 2.4.5 3.8.2 2.1 2 6.2 2 4.6 0-.2-.4-.7-.8-1.3-.5-.7-.8-1.7-.8-3.1 0-1.1-.3-2.8-.6-3.6-.4-1-.5-1.2-.3-.4m-37.1 2.2c0 .5.4.5 1.2 0 .5-.3.4-.4-.3-.4-.5 0-.9.2-.9.4m39.2-.1c0 .6 2.1 7.4 2.3 7.2.1-.1-.3-1.7-.9-3.7-.9-3.3-1.4-4.4-1.4-3.5m-152.1 1c0 1.6-.9 3.5-1.9 4-1.1.5-2.9.3-2.9-.4 0-.6.7-1.4 1-1.3 1.2.2 1.8-.2 2.4-1.6.6-1.4 1.4-1.8 1.4-.7m55.4 3.3c0 2.2.1 3.1.1 1.9.1-1.2.1-3 0-4 0-1-.1-.1-.1 2.1m184.6 1.8c-.6 1.9-1.1 3.8-1.1 4.2 0 .7 1.9 4.7 2.2 4.7.1 0-.3-.9-.8-2-1.2-2.5-1.2-2.5 0-6.7.6-1.9 1-3.5.9-3.6s-.6 1.4-1.2 3.4m94.8-2.8c.9 1 1.4 5.6.6 5.6-.5 0-.7-.4-1-2.5-.4-2.2-1.1-2.4-4.9-1.7-4 .8-4.5 1.3-4.5 3.8s-.6 2.2-1.2-.7c-.7-3 0-3.7 4.4-4.6 4.3-.9 5.7-.8 6.6.1m-182 4.4c.4 1.3.3 2.8 0 3.8-.2.5-.1.4.3-.2.8-1.2.8-1.9 0-3.4-.5-.9-.5-1-.3-.2m-85.5 0c-.6.4 1.6 4.2 4 6.9 2.8 3.2 14 7.9 14 5.9 0-1.6-3.5-3.9-5.9-3.9-2.7 0-3.8-.7-4.3-2.8-.5-2.5-1.7-3.6-3.5-3.6s-2.7-.5-2.7-1.6c0-.9-.9-1.3-1.6-.9m-72.3 1.7c-.4 2.2-.5 2.3-1.5 2.3-2.5 0-3.1-.7-2.4-3.1.2-.8.5-.9 2.2-.9h2l-.3 1.7m341.7 8.3-.1 6.6-2.1 1.9c-5.9 5.4-6.7 5.2-7.3-2.3-.3-4-.6-5.2-1.1-5.6-.4-.3-.8-1.5-1.1-2.8-.8-5.1-.2-6.2 1-1.8l.7 2.8 3-2.5c1.6-1.4 3.6-3 4.4-3.6l1.4-1.1.6.9c.6.8.7 2 .6 7.5m-343.2-5.3c1 .4.5.9-2.6 2.5-3.6 1.9-3.6 1.9-3.9.9-1-3.1 2.5-4.9 6.5-3.4m159.8 2.7c-.7 1.7-1.2 3.1-1.1 3.2.1.1.7-1.2 1.4-2.9s1.2-3.2 1.1-3.2c0-.1-.7 1.3-1.4 2.9M36 178.6c.1.4-.2 2.8-.6 5.3-.7 4.3-.7 4.6-.1 5.7.6 1.1.7 5.2 0 7.1-.4 1.2-.9-.5-.9-2.9v-2.3l-4.7 2.5c-6.1 3.2-6.3 3.2-6-1.5.1-1.9.4-3.6.7-3.7.2-.2.7-1.7 1-3.4.7-3.7.4-3.4 4.8-5.8 3.8-2.1 5.5-2.3 5.8-1m153.6 1.1c-1 2.5-1.1 3.4-.1 1.2.6-1.2.9-2.3.8-2.4-.1-.1-.4.4-.7 1.2m90.6 0c0 .5 2.8 7.2 2.8 6.8 0-.6-2.4-6.9-2.6-6.9-.2 0-.2.1-.2.1m-184.1.9c0 .2.3 1 .8 1.8s.8 1.2.8 1c0-.2-.3-1-.8-1.8-.5-.7-.8-1.2-.8-1m2.4 1.1c0 .4 2.4 4.7 2.6 4.7.2 0-1.5-3.4-2.2-4.4-.2-.3-.4-.4-.4-.3m108.5.2c.4.1 1 .1 1.4 0 .4-.1.1-.2-.7-.2s-1.1.1-.7.2m5.5 1.5c1 .5 2 1 2.2 1s-.4-.4-1.4-1c-1-.5-2-1-2.2-1s.4.5 1.4 1m46.7.1c-1 .5-1.9 1.1-1.9 1.2 0 .2 4-1.7 4.4-2.1.5-.5-.8 0-2.5.9m7.9 2.1c0 1.2.1 1.7.2 1.1.1-.7.1-1.5 0-2.2-.2-.6-.2-.1-.2 1.1m-61.3.4c0 1 .1 1.4.2.9.1-.6.1-1.2 0-1.8-.1-.5-.2-.1-.2.9m9.5-1.4c0 .1.9.7 1.9 1.3l2.9 1.7 1 .6-.9-.7c-1-1-4.9-3.2-4.9-2.9m39.5 1.4c-1 .7-1.9 1.3-1.9 1.4 0 .1.9-.3 2-1 1.7-1.1 2.3-1.6 1.9-1.6l-2 1.2m-65.4 1.1c-1 3.9-1.3 5.4-1.2 5.6.1.1.6-1.4 1-3.3.5-1.9.8-3.6.7-3.6-.1-.2-.3.4-.5 1.3m-89.8.3c.2.4.7 1.2 1 1.6l.7.8-.4-.8c-.2-.4-.7-1.2-1-1.6l-.7-.8.4.8m3.1 2.2c.6 1.1 1.2 1.9 1.2 1.9.2-.2-1.9-3.9-2.1-3.9-.1 0 .3.9.9 2m148.1-1c-1.5 1-2.1 1.8-.8 1 .9-.5 2.8-2 2.5-2-.1 0-.8.5-1.7 1m-79.7 1.3c-5.7 3.7-5.1 3.5-14 3.7l-8 .2 1.9 1c1 .5 3 1.2 4.3 1.5 2.9.7 3.5 1 6.8 4.1 2.5 2.3 3.2 2.4 3.2.5 0-1.4 1.3-3.5 3.7-5.9 6.4-6.7 7.1-8.4 2.1-5.1m35-1.6c0 .2.6.9 1.3 1.3 1 .7 1.1.7.5.1-.5-.4-.9-.9-1.3-1.3-.3-.3-.5-.3-.5-.1m15.2-.2c0 .1.8.8 1.7 1.5.9.7 1.4 1 1.1.6-.5-.6-2.8-2.3-2.8-2.1m44.4 1c-.9 1-.9 1-.1.6.5-.2 1-.7 1.1-1.1.3-.8.1-.7-1 .5m-79.6.8c-.2.9-.5 2.2-.6 2.9s.1.1.6-1.4c.4-1.5.7-2.9.6-2.9-.1-.1-.3.6-.6 1.4m190.3 1.4c.5 1.9-.7 2.8-3.5 2.7l-2.4-.1 2.6-2.1c2.6-2.2 2.8-2.3 3.3-.5m-114.9.2c-1.5.8-2.4 1.3-1.8 1.1 1.2-.3 4.8-2.1 4.8-2.4 0-.2.3-.3-3 1.3m-51.6-.3c.2.4 5 2.2 5.2 2 .1-.1-1.1-.6-2.6-1.2s-2.7-.9-2.6-.8m38.1.5c-1.4 2.1 0 3.4 3.1 2.8l2.1-.4-2.5-.1c-2.8-.1-3.4-.6-2.3-2.3.7-1.1.4-1.2-.4 0m-22.8 1.1c.2 1.4-.9 1.8-3.9 1.4-1.3-.2-1.6-.1-1.1.2 2.8 1.3 7.5-1 5.1-2.5-.1-.1-.2.3-.1.9m59 .4c0 .6.2 3.2.5 5.8l.5 4.8-.2-4.4c-.1-4-.7-8.7-.8-6.2m-179.3.5c.8 1.4 4.9 7.7 5.3 8.2.2.2.1-.1-.2-.6-3.1-5.3-6.7-10.5-5.1-7.6m268.4 3.2-.1 2.1-1.7.2-1.7.2-.3-2c-.3-2.3 0-2.6 2.3-2.7h1.5v2.2m-86.2 2.1c0 2 .1 2.8.2 1.9.1-.9.1-2.5 0-3.6-.1-1-.2-.2-.2 1.7m-262.4-.1c-.1 2.6.2 2.8 5 2.8 4.2 0 4.7-.3 4.7-2.6 0-1.1.6-1.4 1-.4 1.4 3.5-.6 5.1-6.2 4.9-5.7-.2-6.2-.6-5.8-4.3.4-3.2 1.5-3.5 1.3-.4m159.9 1.5c0 1.9.1 2.6.2 1.7s.1-2.5 0-3.4-.2-.1-.2 1.7m2.4.6c0 1.1.1 1.5.2.9s.1-1.5 0-2-.2 0-.2 1.1m-92.9.2c-.9.7-1.7 1.3-1.7 1.4 0 .2 2.3-1.3 3.4-2.3 1-.7-.2-.1-1.7.9m4.2.5c-.9.4-1.2.7-.8.5 6-2 7.3-.3 5.4 7.2-1 3.8-.8 4.4.3.9 2.2-7.4.1-11.1-4.9-8.6m10.8 1.5c.3.7.7 1.2.8 1.2.1 0-.1-.5-.4-1.2-.3-.7-.7-1.2-.8-1.2s0 .6.4 1.2m1.9.2c.3.7.9 1.6 1.2 2 .6.7.6.7.1-.4-.3-.7-.9-1.6-1.2-2-.6-.7-.6-.7-.1.4m-18.3 1.9c-1.4 1.4-2.7 3-3 3.5-.3.7-.1.6.6-.4.6-.8 2.1-2.3 3.3-3.5 1.2-1.2 2.1-2.1 1.9-2.1-.2 0-1.4 1.2-2.8 2.5m13.1-.3c0 1.3.1 1.8.2 1.1s.1-1.8 0-2.4c-.1-.6-.2 0-.2 1.3m271.3-.9c.8.8.8 1.1.6 3.3-.2 1.3-.3 4.1-.4 6.1 0 2.7-.2 3.9-.8 4.7-.4.6-.8 2.1-1 3.4-.4 3.6-.8 4.1-5.1 6.3-4.7 2.4-6.9 1.7-5.5-1.8 1-2.6 1.3-7.8.6-8.9-.5-.8-.6-1.5-.4-3.3.6-5 1.4-5.7 1.4-1.1v3l4.9-2.6 4.9-2.6-.1-2.4c-.1-3.1-.5-3.4-4.8-3.4-4 0-4.9.5-4.9 2.9 0 1.6-.5 2.1-1 .9-.5-1.4-.2-3.8.6-4.6 1.3-1.2 9.7-1.2 11 .1M244.7 206c0 1.2.1 1.7.2 1.1.1-.7.1-1.5 0-2.2-.2-.6-.2-.1-.2 1.1m-133 2c.4.9.9 1.6 1 1.6.1 0-.2-.7-.6-1.6-.4-.9-.9-1.6-1-1.6s.1.8.6 1.6m2.8 1.8c.9 1.9 1.8 3.3 1.9 3.3.2-.2-2.8-6.2-3.2-6.5-.2-.1.4 1.3 1.3 3.2m71-2c.1.7.7 2.1 1.2 3.2 1.1 2.2.9 1.6-.5-2-.5-1.3-.8-1.8-.7-1.2m-97.4-.1c-.6.7-1.4 2.3-1.2 2.3.1 0 .5-.6 1-1.4.9-1.4 1-1.8.2-.9m-56.5 2v2l-1.8-.1-1.8-.1-.1-1.7c-.1-1.6 0-1.7 1-1.8 2.7-.5 2.7-.5 2.7 1.7m253.4.8c-.2.7-.4 1.4-.3 1.4.1.1.4-.4.6-1.1.2-.7.4-1.4.3-1.4-.1-.1-.4.4-.6 1.1m-54.1-.7c0 .1.6.7 1.3 1.3l1.3 1.2-1.2-1.3c-1-1.3-1.4-1.5-1.4-1.2m-143.5 3.1c-.8 1.6-1.4 2.9-1.3 3 .1.1.8-1.2 1.6-2.8.8-1.6 1.4-3 1.3-3-.1-.1-.8 1.2-1.6 2.8M30 214.1c-4.6 4.1-5.2 4.3-5.2 1.4 0-2.5.7-3 4.1-3h2.9l-1.8 1.6m4.2-1.1c.6.5.8 1.1.8 3.7.1 4.4.5 7.2 1.1 7.6.6.4 1.4 3.9 1.4 6.2 0 2.1-.5 1.6-1.4-1.4-.8-2.7-.4-2.8-5.2 1.3-5.2 4.4-6.1 3.4-5.5-6.7l.3-5.3 3.6-3c4.1-3.3 3.9-3.2 4.9-2.4m69.1 1.3c-.3 1-.4 1.9-.3 2 .1.1.4-.7.6-1.7.3-1 .4-1.9.3-2-.1-.1-.4.7-.6 1.7m11.2-1.1c0 .1.3.9.6 1.8s.6 1.2.6.8c-.1-.6-1.2-3.2-1.2-2.6m74.1 1.7c.5.9 1.3 1.9 1.7 2.3.4.4.1-.3-.7-1.6-1.8-2.7-2.4-3.1-1-.7m50.4.6c0 .9.1 1.8.3 1.9.2.1.3-.5.2-1.3-.3-2.2-.5-2.5-.5-.6m-121.6 2.2c0 1 .1 1.4.2.9.1-.6.1-1.2 0-1.8-.1-.5-.2-.1-.2.9m181.2-1.6c.1.1.8.4 1.6.7.8.3 1.2.3 1 .1-.2-.2-.9-.5-1.6-.7-.7-.1-1.1-.2-1-.1m-198.2 3c-1.1 5.3-1.1 14.9 0 18.9.7 2.6.8 1.8.2-1.3-.7-3.7-.7-11 0-15.8.7-4.3.6-5.3-.2-1.8m-15.9.8c-.5 1.3-.8 2.4-.7 2.4.1.1.5-.9 1-2.1.5-1.3.8-2.4.7-2.4-.1-.1-.6.8-1 2.1m107.4-.5c.6.8 1.2 1.4 1.3 1.3.1-.1-.4-.8-1.1-1.5l-1.3-1.3 1.1 1.5m4.4 1.5c1.3 1.3 2.5 2.4 2.6 2.4s-.9-1.1-2.2-2.4c-1.3-1.3-2.5-2.4-2.6-2.4s.9 1 2.2 2.4m47.2-2-2.8.3 2.7.1c1.5 0 2.8-.1 2.9-.3s.2-.4.1-.3c0-.1-1.3 0-2.9.2m-12.3.2c.7.1 1.9.1 2.6 0 .7-.1.1-.2-1.3-.2-1.4.1-2 .2-1.3.2m45.9 1.1-1.2 1.3 1.3-1.2c1.2-1.1 1.5-1.4 1.2-1.4 0 0-.6.5-1.3 1.3m-161.9.3c-.1.8-.4 1.8-.5 2.2-.1.4 0 .2.4-.5.3-.7.6-1.7.5-2.2-.1-.7-.2-.5-.4.5m183.8-.2c.6.7.3 10.8-.3 12-.2.4-.7 2.2-1.1 3.9-1.1 5-2.7 7.7-8.2 13.5l-2.6 2.8-2.3-2.6-2.3-2.6v-2.8c0-1.6.2-2.7.4-2.6.2.1.5 0 .7-.2.2-.3.1-.4-.1-.2-.3.2-.6-.5-.9-1.8-.2-1.2-.6-2.4-.8-2.6-.7-1.1-.8.2-.2 2.6.7 2.9.7 6.5.1 9.4-.3 1.2-.5 2.6-.5 3.1s-.2.9-.3.9c-.2 0-.2.3 0 .7.2.4.1.6-.2.4-.3-.2-.7.3-1.1 1-.6 1.2-.6 1.3 0 .8.4-.3.7-.4.7-.2s.4-.5.9-1.5.8-1.9.6-2c-.3-.2.5-3.3.9-3.8.2-.2 3.9 3.8 5.7 6.4l.8 1.1 2.6-2.2c6.6-5.5 9.9-12.4 10.9-23.1.6-6.1.1-8.3-1.9-9.8-1.6-1.4-2.3-1.6-1.5-.6m-21.6 2.9c-2.1 2.4-2.4 3-1.7 3.4.2.1.3 0 .1-.4-.2-.4.2-1.2 1.1-2.1 1.8-2 2.9-3.3 2.7-3.3 0 .1-1 1.1-2.2 2.4m-3.5.2-1.6 1.7 1.7-1.6c1.6-1.5 1.9-1.8 1.6-1.8 0 0-.8.7-1.7 1.7m-78.3-.2 1.3 1.1-1.3 2.1c-.7 1.1-1.2 2.2-1 2.3.1.1.4-.1.5-.5.2-.4.7-1.5 1.2-2.3l1-1.5-1.1-1.2c-.6-.6-1.3-1.2-1.5-1.1-.2 0 .2.5.9 1.1m37.2-.8c-.1.2 1.9.3 4.3.3s4.4-.1 4.3-.3c-.1-.2-2.1-.3-4.3-.3s-4.2.1-4.3.3m-117.9 4.9c-.5 1.6-.8 2.9-.7 3 .1.1.6-1.1 1.1-2.7.5-1.6.8-2.9.7-3-.1-.1-.6 1.1-1.1 2.7m156.5-2c-.7.7-.6 1.1.2 1.8.6.5.6.5-.4.1-1.9-.8-3.7.9-3.4 3.3.1 1.5 0 2.1-.8 3.2-1.1 1.5-1.2 2.1-.2 2.7.4.2.5.4.3.4-.6 0 1.1 1.6 1.7 1.6.5 0 .4.2-.3.9-.5.5-.8 1.1-.6 1.2.1.1.1.3-.2.3s-.4.2-.2.4c.2.3.6.1 1.2-.5.5-.5.9-1 .8-1.2-.1-.2.2-.2.7-.1.8.2.8.2.4-.4-.6-.8-.1-.9 1.2-.3.5.3.8.3.8 0 0-.5-3.1-1.3-3.7-1-.3.2-.4.1-.2 0 .2-.2-.1-.6-.5-1s-.9-1.2-1-1.9c-.2-.7-.1-1.1 0-.9.2.2.9-.2 1.5-.8.7-.6 1.7-1.4 2.2-1.8l1-.7-1 .5c-.6.3-1.4.8-1.8 1.1-.8.6-.8.6-.2-.1.7-.9 3.5-2.4 4-2.1.8.5.1-2.2-.8-3.2-.8-.8-.9-1.1-.4-1.6.6-.5.4-.6-.3.1m-71.2 1.3c-1.2 1.2-3.6 6.1-3.1 6.6.1.1.2.1.2 0s1.3.3 2.8.9c3.6 1.6 3.5 1.6 3.7-1.9.1-1.7.4-3.4.5-3.8.6-1.4-1.7-2.2-3.6-1.2-1.4.7-1.5.8-.7.1.5-.4 1.1-.8 1.4-.9.2-.1.4-.3.3-.6-.1-.2-.8.1-1.5.8m88.5.5c0 .9.1 1.2.2.7s.1-1.2 0-1.6c-.2-.4-.2 0-.2.9m-208 .4c-.2.8-.2 1.5-.1 1.6.1.1.3-.5.5-1.3s.2-1.5.1-1.6c-.2-.1-.4.5-.5 1.3m294.3.2c0 2.6-1.2 3.2-4.8 2.5-1.8-.4-1.6-.7 1.5-2.3 3.3-1.7 3.3-1.7 3.3-.2m-100.4 1.6c-1.3.5-1.1.8.2.5 1.3-.3 2.3.8 4.4 4.6.6 1.1 1.2 1.9 1.4 1.8.5-.5.3-1-.2-.7-.3.2-.4.1-.2-.4s.1-.6-.2-.4c-.3.2-.4.1-.2-.4.2-.4.1-.6-.2-.4-.2.1-.4 0-.3-.3.2-.8-1.9-4.2-2.2-3.5-.1.4-.3.3-.7-.4-.3-.9-.4-1-1.8-.4m30.9 2c0 1 .1 1.4.2.9.1-.6.1-1.2 0-1.8-.1-.5-.2-.1-.2.9m-224 .2c-.1.9-.2 2.1-.2 2.8 0 .7.2.1.4-1.2.4-2.7.2-4.1-.2-1.6m30.7.6c0 .8.1 1.1.2.7.1-.4.1-1 0-1.4-.2-.4-.2-.1-.2.7m259-.7c.1.1.1.5-.1.8-.2.3-.3.9-.2 1.3.2 1.3-.7 1.9-2.6 1.6-1.8-.2-1.8-.2-1.8 1 0 .7-.1 1.5-.2 1.8-.2.4.4.7 2.1 1.1 4.7 1 5.4 2 4.3 5.8-.9 3-1.5 2.9-1.2-.1.3-2.9 0-3.2-4.1-4.1-3.9-.8-4.3-.7-5.3 1.5-1 2.1-1.4 1.7-1-.9.3-2 1.3-3 3.1-3 .9 0 1.1-.2 1.3-1.5.2-.8.4-1.6.6-1.7.2-.1.4-1.1.5-2.1l.1-1.9 2.1.2c1.3-.2 2.3 0 2.4.2m-83.5.9c-.1.7-.4 1.6-.5 2-.1.4 0 .2.4-.5.3-.7.6-1.6.5-2-.1-.5-.3-.2-.4.5m-94.8.6c-.7 1.9-1.6 8.2-1.6 10.3 0 1.2.2.7.4-1.6.2-1.9.7-4.8 1.1-6.6.9-3.3.9-4.3.1-2.1m-154.3 1.7c.5 1.9-.3 3.5-2 3.9l-1.3.3.6 2.9c.3 1.6.8 3 1 3 .8.3.3 1.9-.8 2.5-2.2 1.3-3.4 1.3-4 .1-.8-1.8-.6-2.4 1.1-2.9 2.1-.6 2.1-2.1.1-4.8-.1-.1-1.3-.1-2.6-.1-3.1.1-3.7-.4-4.1-3.7-.3-2.7.7-3.1 1.1-.5.4 2.7 1 2.9 5 2.1 4.1-.8 4.6-1.1 4.6-3.2-.1-1.8.8-1.7 1.3.4m74.8 2.3c0 2.3.1 3.3.1 2.1.1-1.4.1-2.8 0-4.2 0-1.2-.1-.3-.1 2.1m177-2c-.4 1.1-.6 2.1-.5 2.2.1.1.5-.8.8-1.9.4-1.1.6-2.1.5-2.2 0-.1-.4.8-.8 1.9m-178.8 2.2c-.1 1.4 0 2.6.2 2.6s.3-1.2.3-2.6c0-3.4-.3-3.4-.5 0m-30.7 3.2c0 2.6.2 6.2.5 7.8.3 1.7.5 2.1.3 1-.1-1.1-.4-4.6-.5-7.8l-.3-5.8v4.8m114.4-1c-.6 3.8-.5 11.9.2 15.1.3 1.4.5 2 .4 1.2-.5-3.9-.6-12.5-.2-15.6.5-4.1.3-4.6-.4-.7m-115.9 1.4c0 2.2.1 3.1.1 1.9.1-1.2.1-3 0-4 0-1.1-.1-.1-.1 2.1m204.8-.9c-.6.8-.7 1.1-.3.7.7-.5 1.6-2 1.3-2 0 0-.5.5-1 1.3m3.4 1.2c-.6.9-2 2.7-3.1 3.9-1.2 1.2-1.7 1.9-1.1 1.5 1.3-.8 4-4 4.9-5.8 1-1.9.5-1.6-.7.4m15.8.3c-.2.7-.4 1.4-.3 1.4.1.1.4-.4.6-1.1.2-.7.4-1.4.3-1.4-.1-.1-.3.4-.6 1.1m-197-.2c-1.6.8-1.4 1.1.2.3 1.5-.8 1.8-1 1.3-.9-.3 0-.9.3-1.5.6m-4.7.7c0 .2.2.7.4 1.1.4.7.2 1-.8 2.1-.7.7-1.5 1.8-1.8 2.5-1 2-.7 2.1.4.1.6-1 1.5-2.3 2-2.9 1-1 1-1.1.4-2.2-.3-.5-.6-.9-.6-.7m165.2 1.6c0 2.2 1.2 3.5 3.6 3.8.9.1 1.8.4 1.9.6.1.2.1.3-.2.2-.6-.4-1.4.7-1 1.5.2.5.1.6-.2.4-.3-.2-.4-.1-.2.4s.4.4 1-.5c.4-.6 1.3-1.6 2-2.2.7-.6 1.2-1.2 1-1.4-.2-.2-.5 0-.7.4-.2.4-.6.7-.8.7-.3 0-.2-.3.1-.7.5-.6.3-.6-2.2-.4-1.5.1-2.5.1-2.3-.1.5-.3-.6-1-1.2-.9-.1 0-.2-.6-.1-1.5s0-1.6-.2-1.8c-.3-.2-.5.3-.5 1.5m-160.1 1c-2.3 1.5-5.2 4.7-5.2 5.8 0 .2.5-.4 1.1-1.4 1.4-2.2 2.5-3.2 4.9-4.5 1-.6 1.6-1 1.4-1-.2 0-1.2.5-2.2 1.1m254.5 1c-.8 4.8-.8 4.8 0 4.6.4-.1 2.7-.8 5-1.5 5.1-1.5 5.7-1.4 5.3.9-.3 1.9-1.7 5.5-2.2 5.5-.3 0-1.8 3.2-2.2 4.9-.3 1.3-1.2 1.7-6.1 3.1-5.2 1.4-5.9.4-3.4-5.2 1.2-2.8 1.5-3.9 1.5-6.2 0-1.5.4-3.8.8-5.1.7-2.5 1.6-3.2 1.3-1M205.1 247c.4 1.3 1.1 2.4.7 1.1-.2-.6-.3-1.2-.3-1.5 0-.3-.2-.5-.4-.5-.1 0-.1.4 0 .9m60.2-.2c-.5.6-.5.6.2.2 2.4-1.9-1.3 6-4.7 10-1.2 1.5-3.4 3.5-4.7 4.6-3.6 2.9-3.8 3.1-2.3 2.3 4.4-2.3 11.4-11.3 12.8-16.2.3-1.8-.3-2.2-1.3-.9m-76.6 1.7c-1.2 1.1-2.6 2.6-3.1 3.3-.6.9-.3.7.7-.5 1.1-1.2 2.2-2.3 3.3-3.3 1-.8 1.6-1.5 1.5-1.5 0 0-1.1.9-2.4 2m-74.4-1.4c-.1.1-.2.6-.2 1.1 0 .7.1.7.3-.2.3-.9.4-.8 1 1.1.4 1.2.8 2.1.9 2 .2-.2-1.1-4.3-1.4-4.3l-.6.3M36 248.8c0 .2-.6 1.1-1.3 2-.7.9-1.7 2.2-2.2 2.8-1.2 1.5-1.4 1.5-2.2-.3-1.1-2.5-.6-3.2 2.9-4.2 2.8-.7 2.8-.7 2.8-.3m3.9 1.5c.3.9.9 3.2 1.5 5.1.7 2.5 1.3 3.6 2 4.1.6.4 1.3 1.6 2 3.7 1.5 4.3.9 4.7-1.1.6-1.3-2.6-.8-2.8-4.6 2.1-1.8 2.3-3.5 4.2-3.7 4.1-1-.3-2.7-4.6-2.9-7.2-.1-1.4-.4-3.5-.7-4.7l-.6-2.2 2.9-3.8c3.2-4.3 4.3-4.7 5.2-1.8m74.6-.7c0 .7 2.1 6.1 2.3 6 .2-.2-1.8-5.9-2.1-6.2-.2-.2-.2-.1-.2.2m155.7 2.3c0 .9.1 1.2.2.7s.1-1.2 0-1.6c-.1-.4-.2 0-.2.9m-80.3.3-1.2 1.3 1.2-1.1c.7-.6 1.4-1 1.5-.8.1.2.3.1.3-.2 0-.9-.6-.6-1.8.8m17-.8c0 .4 2 3.5 2.2 3.5.1 0-.2-.7-.7-1.5-.9-1.7-1.5-2.4-1.5-2m-109.2.3c0 .1-.2 1.3-.4 2.6-.3 1.4-.3 3.2-.1 4.6.3 2.1.3 2 .6-2.4.1-2.5.2-4.7.1-4.8-.2-.1-.2-.1-.2 0m94.1 1.7c-.1 1.7 1 7.4 1.6 8.3.3.5.3.4.2-.2-.3-1.3-1.4-7.1-1.6-8.4-.2-1.1-.2-1-.2.3m79 .1c-.5 1.3 2.1 3.8 4 3.8.5 0 .6.2.4 1-.6 2.5-.6 3.6 0 1.8.3-1 .5-2.1.4-2.5-.1-.5.1-.7.7-.7.5 0 1.1-.1 1.3-.3.3-.2-.6-.3-1.9-.3-1.3 0-2.3-.1-2.2-.3.1-.2-.1-.4-.4-.5-.3-.1-.9-.8-1.3-1.5-.6-.9-.8-1-1-.5m-86.6.3c-.6.7-2.2 4-2 4.1.1.1.7-.9 1.4-2.2 1.2-2.4 1.3-2.9.6-1.9m-66.7 1c.8 2.5 2.2 6.2 2.2 5.8 0-.6-1.9-6.2-2.2-6.5-.2-.1-.2.2 0 .7m-36.2.5c0 .3.2 1 .3 1.4.2.5.3.6.3.2 0-.3-.2-1-.3-1.4-.2-.5-.3-.6-.3-.2m203.3.9c.5.8.9 1.4 1 1.4.3 0-1-2.3-1.4-2.6-.3-.1-.1.5.4 1.2m-184.4 1.3c0 1.3.1 1.8.2 1.1s.1-1.8 0-2.4-.2 0-.2 1.3m109.9-1.1c.4.6 1.7 2 2.9 3.1 1.8 1.7 1.7 1.6-.7-1.1-2.9-3.3-3.6-3.9-2.2-2m82.7.3c-1.2 1.1-1.3 1.2-.4.6 1.1-.7 2.5-2.1 2.1-2-.1 0-.9.6-1.7 1.4m-14.6 4.2c-.5 2.1-1 4-1.1 4.3-.2.5-.1.5.2 0 .5-.8 2.1-7.2 2-7.7-.1-.1-.6 1.4-1.1 3.4m-160.5-2.2c0 .6 2 6.7 2.2 6.5.1-.1-.4-1.7-1-3.5-.7-1.9-1.2-3.2-1.2-3m63 3.8c-.3 1.6-.3 7.1.1 8.3.1.5.3-1.4.3-4.3 0-5.8 0-5.7-.4-4m35-.6c.7.9 7.5 5.4 8.1 5.4.2 0-.9-.8-2.5-1.8s-3.7-2.4-4.6-3.1c-.8-.7-1.3-1-1-.5m-18.4.5c0 .7 1.6 5 1.8 4.8.1-.1-.3-1.3-.8-2.7-.5-1.5-.9-2.4-1-2.1m168.4 2.4c-.7 1.5-2.2 1.6-4.6.4l-1.9-1 2.4-.7c1.3-.4 2.8-.8 3.4-1 1.2-.4 1.5.6.7 2.3m-279-1.1c.4.7 1.9 2.5 3.5 4.1l2.8 2.9-2.6-2.9c-1.5-1.6-2.9-3.4-3.3-4.1-.3-.7-.7-1.2-.8-1.2s0 .5.4 1.2m33.5-.7c.1.3.6 1.9 1.1 3.6.5 1.7 1 3 1.1 2.9.2-.2-1.9-7-2.2-7-.1 0-.1.2 0 .5m64 1.5c0 .8.1 1.1.2.7.1-.4.1-1 0-1.4-.1-.4-.2-.1-.2.7m103.2 1.4c0 1.5-.2 3.5-.3 4.4l-.2 1.6.4-1.6c.2-.9.3-2.9.3-4.4l-.1-2.8-.1 2.8m-185.7-1.2c0 2.9 9.4 13.2 16.1 17.7 2.1 1.4 2.7 2 2.5 2.6-.1.5-.1.7.3.4.9-.7 3.4-.1 3.6.9.4 1.5-.2-5-.6-7.8-.4-2.5-.5-2.6-1.4-2.5-3.6.7-17.3-6.4-19.6-10.2-.5-.8-.9-1.3-.9-1.1m148.5.9c-.9.6-1.6 1.1-1.5 1.2.2.2 3.5-1.8 3.5-2.1-.1-.3.1-.3-2 .9m22.4 1c-1.3 3-1.4 3.4-.7 2.5.7-1 2-4.2 1.8-4.5-.2-.1-.6.8-1.1 2m18.5.1c0 1.3.1 1.8.2 1.1s.1-1.8 0-2.4c-.1-.6-.2 0-.2 1.3m68.7-1.4c1.8.6 2.2 1 1.6 1.6-.3.3-.5.8-.5 1.2 0 1.3-1 1.7-2.7 1.2-3.7-1.2-3.6 2.5.1 4.4 3.6 1.8 3.9 2.6 2.3 5.5-1.8 3.4-2.9 3.5-1.4.2 1.1-2.6 1-2.8-2.6-4.6-3.7-1.8-4.8-1.9-5.7-.3-1.4 2.4-2.2 1.7-1.1-1 .6-1.5 1.9-2.4 3-2.1 1.1.3 1.4-.1 2.6-3.4 1.5-3.4 1.7-3.6 4.4-2.7m-165.1.8c.2.6.7 2 1.3 3.1 1.7 3.8.4 7.3-3.4 9.2-3.8 1.9-4.7 1.3-6.6-4-.7-2.1-1.4-3.6-1.4-3.3 0 .8 1.9 6.1 2.5 7.1.8 1.2 5 3.6 7.4 4.2 1 .3 2.1.6 2.4.7.9.3 1.1.4 2 .4.5 0 .7.2.6.6-.1.3 0 .1.4-.3 1.2-1.4.5-4.7-2.4-11.9-2.5-6.1-3.4-8-2.8-5.8m-95.8-.3c0 .4 1.6 3.5 1.8 3.5.1 0-.2-.8-.7-1.7-.9-1.9-1.1-2.2-1.1-1.8m-12.1 1.3c.5.7 1.9 2.2 3.2 3.4 2.2 2.1 2.2 2.1-.4-.8-3.8-4-3.8-4-2.8-2.6m-39.4 1c.7 1.4.8 3.7.2 4.3-.4.4.9 4.4 1.7 4.9 1.2.9 1.1 1.9-.2 3-2.5 1.9-3.3 2.1-4.2 1-1.2-1.4-1-2.3.6-3 1.5-.7 1.6-.9.9-2.2-1.1-2.2-1.4-2.3-3.8-1.2-4.2 1.9-5.4 1.3-6.7-3.3-.5-1.6.7-1 1.6.8 1 2.2 2 2.3 5.8.4l3-1.5-.1-2.1c-.1-2.6.3-2.9 1.2-1.1m136.8.6c0 .9.1 1.2.2.7s.1-1.2 0-1.6c-.1-.4-.2 0-.2.9m41.3-.7c.2.4 3.6 1.7 5.4 2.2.6.2.5 0-.4-.4-2.8-1.3-5.2-2.1-5-1.8m-80.5.7c-.1.3-.2.9-.1 1.3.1.5.2.2.4-.6.3-1.4.1-1.7-.3-.7m97.6.5c-1.4.6-2.4 1.1-2.4 1.2.2.2 4.7-1.5 5.2-1.9.7-.6-.1-.4-2.8.7m-121.7-.5c0 .7 1.7 6.6 1.9 6.5.2-.2-1.3-6.2-1.7-6.6-.1-.2-.2-.1-.2.1m78.9 0c0 .2.6 1.7 1.4 3.2.8 1.5 1.3 2.4 1.1 1.8-.3-1.2-2.6-5.6-2.5-5m74.2 4c-3.4 7.6-3.7 11.7-1 10.9.6-.2 1.3-.4 1.5-.4 6.6-1.7 12.6-5.6 11.1-7.1-.1-.1-.4.3-.7 1-1 2.7-3.9 2.9-6.9.4-2.7-2.2-3.6-5.2-2.4-7.6.3-.7.6-1.3.5-1.4-.2 0-1.1 1.9-2.1 4.2m16.7-2.2c0 .8.1 1.1.2.7.1-.4.1-1 0-1.4-.2-.4-.2-.1-.2.7m-20.7 1.9c-.6 1.3-1.1 2.8-1.3 3.5-.1.7.4-.3 1.2-2.2 1.6-3.9 1.7-4.8.1-1.3m-32.4-1.3c-.2.2-.3 5.9-.2 12.7.1 12 .1 12.2.4 6 .4-7.2.3-19.1-.2-18.7m-92.3.8c0 .4.1 2 .4 3.5.6 4-1.3 7-5.8 9.1-4.2 2-13.8 1.3-14.4-1-.1-.5-.1.4-.1 1.9.1 1.7 0 2.5-.2 2-.3-.8-.3-.7-.4.1 0 .5-.6 2-1.2 3.3-1.5 3.1-1.5 3.6 0 .9 1.8-3.1 4.6-4 12-3.9 8.8.1 10.2.7 9.9 4.3-.2 2-.1 2.3.2 1.5.6-1.3.6-18.8 0-21-.1-.8-.4-1.2-.4-.7m-50.4-.1c0 .3 2.8 2 3 1.8.1-.1-.6-.6-1.4-1.1-.9-.4-1.6-.8-1.6-.7m7.9 1.1c.5.7 1.1 1.3 1.3 1.5.3.2-.1-.4-.7-1.2-1.3-1.8-1.8-2-.6-.3m45.9.2c.8 7.4.6 16.7-.4 22.2-.1.6.1.2.5-.8.8-2.2 1-18.7.2-21.4l-.5-1.6.2 1.6m-25.3.6c.5 2.7 1 5.5 1.6 8.2.1.6.2.5.2-.3.1-1.3-1-6.7-1.6-8-.3-.9-.3-.9-.2.1m-22.3 1.4c.7.3 1.5.5 1.8.5.3 0 0-.3-.8-.6-1.9-.6-2.6-.6-1 .1m3.2.6c-.7.3-.7.3.3.4.7 0 1-.1.9-.4-.1-.2-.3-.4-.3-.4-.1 0-.5.2-.9.4m78 .4c.1.6.3 1.4.4 1.8.1.6-.2 1-1.3 1.6-1.6.9-5.1 4.2-5.9 5.5-.3.5.6-.3 1.9-1.6 1.3-1.4 3.1-3 4.1-3.5 1.9-1.1 2-1.4 1.1-3.4-.3-1-.5-1.1-.3-.4m166.4 2.8c-.4 1.2-.9 2.5-1.1 2.9-.3.7-.2.7 1.4.5 1-.1 3.6-.3 5.8-.3l4-.1-.1 1c-.2 1.5-1.6 4.1-3 5.4-.7.7-2 2.3-2.9 3.7-1.9 2.9-1.9 2.8-7.1 3-5.6.2-6.1-.5-3.1-4.9 2.7-4.1 3.8-6.2 3.3-6.7s.1-1.9 1.9-4.9c1.5-2.6 1.9-2.4.9.4m-145.4-1.2c0 1.9 3.4 6.7 5.6 7.8 1.9 1 1.8.6-.1-.6-2.2-1.4-3.7-3.3-4.7-5.9-.4-1.1-.8-1.6-.8-1.3m85.1.2c-.4.9-.4.9 1.1 1.6 1.1.6 1.2.6.5 0-.4-.3-.9-.6-1.1-.6-.2 0-.2-.4-.1-.8.3-1 0-1.1-.4-.2m-181.1.9c.6.1 1.4.5 1.8.8.8.7.8.7 0-.2-.5-.5-1.2-.9-1.8-.8l-1 .1 1 .1m159.1 2.7c-.6 1-2.1 2.4-3.2 3.2-1.1.8-1.8 1.4-1.6 1.4 1.3 0 6.7-5.5 6.1-6.2-.1-.1-.7.6-1.3 1.6m-213.9.1c.3.4 1.4 2.2 2.3 4.1 1.9 3.8 3 5.4 3.6 5 .4-.3 1.8 1.4 3.4 4.2 1.4 2.5.7 2.8-1.2.4-.6-.8-1.2-1.5-1.8-2.3-.2-.2-1.4 1.9-2.7 4.6l-2.4 4.9 1.2 1.5c1.6 2.1 2.6 2 6-.5 3-2.2 2.8-1.8 2.1-5.3l-.3-1.2 1.4 1.6c1.1 1.2 1.4 1.9 1.3 2.9-.1 1.2.6 2.4 3.3 5.8l.9 1.1-2 2c-2.4 2.4-2.2 2.3-3.5 1.2-1.3-1.2-1.3-1.9.3-3.1l1.3-1.1-1.4-1.5-1.4-1.5-2.6 1.6c-2.5 1.6-3.7 1.9-4.6 1.3-.7-.5-2.6-3.5-2.6-4.1 0-.4-.3-.8-.6-.9-.9-.3-3.8-5-3.8-6.1 0-.5-.5-2-1.2-3.3-1.5-3.1-1.5-3.1.8-7.9 2.2-4.3 2.9-4.9 4.2-3.4m241.1.9c.9.9 1.7 1.6 1.8 1.6s-.5-.7-1.4-1.6c-.9-.9-1.7-1.6-1.8-1.6s.5.7 1.4 1.6m-244.8-.4c0 .7-2.9 6.8-3.3 6.8-.7 0-1.9-2.2-1.9-3.4 0-1.2.2-1.4 2.3-2.5 2.6-1.4 2.9-1.5 2.9-.9m131.3 3.1-1.4 1.5 1.5-1.4c1.4-1.3 1.7-1.6 1.4-1.6-.1 0-.8.7-1.5 1.5m110.1-1.4c0 .1.6.7 1.3 1.3l1.3 1.2-1.2-1.3c-1.1-1.2-1.4-1.5-1.4-1.2m-181.5 2.3-2.1 2.1 2.2-1.9 2.4-2.1c.1-.1 0-.1-.1-.1s-1.2.9-2.4 2m188.2 1.2c.4.9.7 1.4.8 1.2.1-.4-1-2.8-1.3-2.8-.1 0 .1.7.5 1.6m-122.7.3c-.5 1-.7 2.7-.7 5.4v3.9l-12.9-.1c-7.1-.1-12.8 0-12.7.2.1.2 5.9.3 13 .3 9 0 12.8.1 12.8.4 0 .6 1.6 2.9 1.9 2.6.1-.1-.2-1-.7-1.9-1.1-2.2-1.3-7.9-.2-10.7.7-2 .4-2.2-.5-.1m-62.2-.4c-1.7 1.2-4 4.1-4 5.1 0 .2.3-.3.8-1.1.4-.8 1.6-2.2 2.6-3.1 2.1-1.7 2.3-2.1.6-.9m-91.5 2.5c.4 1.1 1.1 1.7 1.1.8 0-.2-.2-.4-.4-.4s-.4-.3-.4-.6-.2-.7-.4-.8c-.2-.1-.2.3.1 1m85.3 0c-.4.7-.6 1.3-.5 1.4.1.1.5-.5.8-1.2.9-1.7.6-1.9-.3-.2m15.8 2.6c-.4 1-.7 1.9-.6 2 .1.1.6-.7 1-1.8 1-2.5.7-2.7-.4-.2m176.7.8c0 .9.1 1.2.2.7s.1-1.2 0-1.6c-.2-.4-.2 0-.2.9m-93.3 2.4c0 1.8.1 2.4.2 1.5.1-.9.1-2.4 0-3.2-.1-.8-.2-.1-.2 1.7m-6.4-.8c0 1.1.1 1.5.2.9s.1-1.5 0-2-.2 0-.2 1.1m68-.6c0 .8.1 1.1.2.7.1-.4.1-1 0-1.4-.1-.4-.2-.1-.2.7m-11.4-.5c-.2.3-.1.4.2.4.3-.1.9.5 1.4 1.2.5.7.9 1.2.9.9 0-.8-2.2-3-2.5-2.5m17.8 1.1c0 .9.1 1.2.2.7s.1-1.2 0-1.6c-.1-.4-.2 0-.2.9m-92.9.1c-.3.6-.4 1.5-.3 1.9.1.6.2.5.2-.2 0-.5.2-1.3.5-1.7.2-.4.4-.9.3-1-.1-.1-.4.4-.7 1m114.1.5c-.3 1-.9 2.3-1.4 3-.9 1.2-.9 1.2 0 .4 1-.8 2.3-3.9 2-4.7 0-.3-.3.3-.6 1.3m-172.5.2c-.5 1.6-.3 4.8.3 5.4.3.3.2-.2 0-1.2-.3-1.1-.3-2.2 0-3.5.5-2.3.3-2.7-.3-.7m159.3-.2c0 .8.1 1.1.2.7.1-.4.1-1 0-1.4-.1-.4-.2-.1-.2.7m-173.3-.1c0 .6 2.3 2.9 2.9 2.9.4 0-1.3-1.6-1.8-1.6-.1 0-.4-.4-.7-.9s-.4-.7-.4-.4m242.9.5c0 2.9-3.1 3.7-5.8 1.5l-1.6-1.3 3.4-.2c1.9-.1 3.5-.3 3.7-.3s.3.1.3.3m-168.4 1c.1.7.3 1.9.5 2.7.1.8.4 1.6.5 1.7.3.2-.7-5-1-5.4-.1-.1-.1.3 0 1m34.4.2c0 .8.1 1.1.2.7.1-.4.1-1 0-1.4-.1-.4-.2-.1-.2.7m50.1.4c0 1 .1 1.4.2.9.1-.6.1-1.2 0-1.8-.2-.5-.2-.1-.2.9m77.3.2c2 1.5-.5 4.5-2.7 3.2-1.6-.9-1.9-.8-2.7.8l-.6 1.5 1.2 1.1c.7.6 1.8 1.5 2.5 2.1 1.9 1.6.6 5.7-2 6.6-.4.1-.8.7-.9 1.2-.3 1.1-4.1 5.3-4.7 5.3-.2 0-1.5 1.1-2.8 2.3l-2.4 2.3-3.6-.5c-2-.3-3.9-.5-4.3-.5-.9 0-1.9-1.1-1.9-2 0-.4 1.6-2.4 3.6-4.3 2.3-2.3 3.6-3.9 3.5-4.3-.2-1.3 3.3-6.1 4.4-6.1.7 0 .6.2-1 2.6-1.7 2.7-1.8 2.7 3.7 3.3 2.4.3 4.6.6 4.9.7.6.2 3.2-3.2 3.2-4.2 0-.6-1.4-1.9-4.1-3.7-2.8-1.9-2.7-1.9-4.4-.4-2.3 2-2.7 1.1-.6-1.3 1-1.2 1.5-1.5 2.6-1.5 1.2 0 1.5-.2 2.4-1.7.6-.9 1.3-1.9 1.6-2.2.3-.3.7-.9.9-1.3.4-.8 2.4-.4 4.2 1m-239.1-1.1c0 .2.4.8.8 1.4l.8.9-.7-1.2c-.9-1.6-.9-1.6-.9-1.1m39.1 1c-2.3 4.9-8.6 7.1-15.1 5.3-2.8-.8-3.1-.5-.4.3 4.7 1.4 10.4.5 13.2-2.1 1.5-1.3 3.4-4.4 3-4.7 0 0-.4.5-.7 1.2m125.9.9c0 1.1.1 1.5.2.9s.1-1.5 0-2c-.2-.5-.2 0-.2 1.1m-149.7-.2c0 .8.1 1.1.2.7.1-.4.1-1 0-1.4-.2-.4-.2-.1-.2.7m75.1-.7c0 .7 1 3.1 1.4 3.1.1 0 0-.4-.3-.9-.3-.6-.6-1.2-.8-1.9-.1-.7-.2-.8-.3-.3m6.4 1.1c0 1.7-.3 1.9-1.2 1.1-.5-.4-.5-.4 0 .2 1 1.3 1.6.8 1.6-1.1 0-1-.1-1.8-.2-1.8s-.2.7-.2 1.6m95 .4c-.5.9-.7 1.5-.5 1.3.4-.3 1.7-2.6 1.5-2.8-.1 0-.5.7-1 1.5m-118-.5c.9 1.1 1 1.1 1 0 0-.5-.1-.7-.2-.4-.2.4-.3.4-.9 0-.5-.3-.5-.2.1.4m12.5.7c.3 2.2.8 3 1.8 2.9.9-.1.9-.1 0-.2-.6-.1-1-.7-1.5-2.2-.5-1.9-.5-1.9-.3-.5m48.1 0c.7.8 1.4 1.4 1.6 1.4s-.4-.6-1.2-1.4c-.7-.8-1.4-1.4-1.6-1.4s.5.6 1.2 1.4m-25.9 1.4c0 1.2.1 1.7.2 1.1.1-.7.1-1.5 0-2.2-.1-.6-.2-.1-.2 1.1m61.8-.7c-.9 1.5-.9 2 0 1.9.4 0 .5-.1.2-.2-.4-.2-.3-.5.1-1.4.9-1.7.6-1.9-.3-.3m8.3.1c0 .9.1 1.2.2.7s.1-1.2 0-1.6c-.2-.4-.3 0-.2.9m-168.7-.7c.6.1 1.2.1 1.8 0 .5-.1.1-.2-.9-.2s-1.4.1-.9.2m31.1 1.6-.7 1.1.8-.9c.9-1.1 24.6-1.5 25.6-.4.4.4.5.4.2-.2-.2-.6-1.2-.7-12.8-.7h-12.5l-.6 1.1m88.4 1-1.2 1.3 1.3-1.2c.7-.6 1.3-1.2 1.3-1.3 0-.3-.3 0-1.4 1.2m-111.2-.5c-.1.2.1.3.5.2.4-.1 1.2 0 1.7.3.9.4.9.4.2-.2-.9-.8-2.1-.9-2.4-.3m156.7-.1c0 .3-.5.5-1.1.5-1 .1-1 .1-.2.2 1 .2 2-.5 1.5-.9-.1-.1-.2 0-.2.2m-161.1 1.2c2.2.1 3 .3 3.8 1l1 .9-.8-1.1c-.7-1-.9-1.1-3.8-1l-3 .1 2.8.1m173.7.7c-.9.5-1.4 1-1.2 1 .5 0 3-1.5 3-1.8 0-.3 0-.3-1.8.8m-38.3-.3c0 .3-.4.5-.9.5-.7 0-.8.1-.2.2.8.2 1.8-.5 1.3-.9 0-.1-.2 0-.2.2m-33.5.4c.4.1 1 .1 1.4 0 .4-.1.1-.2-.7-.2-.8 0-1.1.1-.7.2m-8.8.4c.4.1 1 .1 1.4 0 .4-.1.1-.2-.7-.2-.8 0-1.1.1-.7.2m46.8 0c.4.1 1 .1 1.4 0 .4-.1.1-.2-.7-.2s-1 .1-.7.2M137.9 306c-1.4.4-3.2.5-5.8.4-3-.1-3.5-.1-2.2.2 2.2.5 7.7.2 9.4-.6 1.7-.8 1.2-.8-1.4 0m41.2.1c.8.3 2.9.6 2.6.3-.1-.1-.9-.3-1.8-.4-1.1-.2-1.4-.2-.8.1m9.4 0c-1.4.3-1.4.3-.2.3.7 0 1.6-.1 2-.3 1-.4.2-.4-1.8 0m19 .4c1.6.4 4.5.5 4.2.2-.1-.1-1.4-.3-3-.4-2.1-.1-2.4-.1-1.2.2m56.3-.1c.4.1 1 .1 1.4 0 .4-.1.1-.2-.7-.2-.7 0-1 .1-.7.2m-80.6.4c.7.1 1.9.1 2.6 0 .7-.1.1-.2-1.3-.2s-2 .1-1.3.2m36 0c.6.1 1.2.1 1.8 0 .5-.1.1-.2-.9-.2s-1.4.1-.9.2m31.6 0c.5.1 1.2.1 1.6 0 .4-.1 0-.2-.9-.2-.8 0-1.2.1-.7.2m9.6 0c.6.1 1.2.1 1.8 0 .5-.1.1-.2-.9-.2-.9 0-1.4.1-.9.2m-187.8 4.4c5.2 6.2 6.1 7.1 7.2 7.1.6 0 1.3.3 1.6.7 1 1.4 4.1 4.5 5.5 5.6.9.7 1.5 1.5 1.5 2 0 .8 1.1 2 4.9 5.1l1.5 1.3-1 1c-.5.6-1.4 1.7-1.9 2.5-1 1.7-.9 1.7-2.4.9-1.7-.9-1.5-2.9.5-4.3.2-.1-.4-.8-1.3-1.5l-1.7-1.2-2.5 2.4c-2.2 2.1-2.7 2.4-3.6 2.2-1.2-.3-3.7-2.8-3.7-3.7 0-.3-.3-.5-.6-.5-.7 0-5.5-4.8-5.2-5.1.3-.3-.6-1.7-2.6-4.1l-1.5-1.8 1.1-4.4c1.5-5.9 2.2-6.6 4.2-4.2m-4.9 4.3c-.9 3.7-1.5 4.1-3.1 2-1.4-1.8-1.2-2.5 1.4-4.6 2.6-2.1 2.8-1.9 1.7 2.6m12.1 6.1c-.1.6-.8 3-1.3 5.2l-1.1 4.1 1.5 1.2c.8.7 1.8 1.2 2.3 1.2.9 0 5.7-4.8 5.7-5.8 0-.9-1.7-3.8-2.2-3.8-.2 0-1.2-.7-2.3-1.6-2.3-1.9-2.3-1.9-2.6-.5m240.8 3.2 1.8 1.6-1.2 1.3c-1.4 1.5-1.7 1.5-3 .2-.9-.8-1.2-1-1.9-.6-1.1.6-2.2 2.3-1.7 2.7 2.5 1.6 4.1 6 2.7 7.3-2.8 2.6-4.6 2.7-2.1.1 1.8-1.9 1.8-2-1.3-5.6-1.5-1.7-2.4-2.4-3.1-2.4-1.1 0-3.4 1.2-3.9 2-.2.3-1.1 1.3-2.1 2.3-2.2 2.1-2.5 1.8 3 3.7 6 2.1 6 2.1 5.2 3.2-.9 1.2-4.6 4-5.5 4-.4 0-2 .8-3.5 1.8l-2.8 1.8-4.4-1.6-4.4-1.6v-1.3c0-1.1.3-1.5 1.3-2.2 4.8-3 7.1-4.9 7.2-5.9.1-1 2.3-3 5-4.6.4-.3 1.5-1.2 2.3-2.1 1.2-1.3 1.8-1.6 2.9-1.6 1.2 0 1.8-.4 3.9-2.4 2.8-2.6 2.7-2.6 5.6-.1m5.9-.4c2 .3 2.1.6.5 2.2s-2.1 1.5-4-.5c-2.1-2.1-2-2.5.1-2.1.9 0 2.4.3 3.4.4m-227.4 12c4.2 3.5 6 4.6 6.9 4.3.6-.2 1.6.2 3.6 1.6 3.9 2.6 3.6 3.7-.5 1.5-2.4-1.3-2.2-1.7-2.6 4.5l-.3 5.2 1.8.9c2.4 1.3 3 1.1 5-2.1 2-3.3 2.2-4.4.7-5.9-.6-.6-1-1.2-.9-1.3.5-.5 2.8.7 3.7 1.9.5.7 2 1.8 3.3 2.4 1.3.6 2.4 1.3 2.5 1.4.1.1.6.4 1.1.6l.9.4-.9 1.1-.9 1.1-3.3-1.7c-1.8-.9-3.4-1.5-3.5-1.3-.1.2-.5.9-.9 1.5-.4.7-1.2 1.8-1.6 2.5-1.5 2.3-4.3 2-6.4-.6-.4-.5-.9-.9-1.2-.9-1.2 0-3.8-1.9-7-5-1.9-1.9-3.7-3.4-3.9-3.4-.6 0-.5-9.7.1-10.3 1-.7 2-.3 4.3 1.6m-5.4 3.9c0 4 0 4.1-1.6 3.4-2.5-1-2.6-2.9-.3-5.4 1.9-2.2 1.8-2.3 1.9 2m199.8 7.9c.6 1 .6 1.1-.7 1.9-1.7 1.1-1.9 1.1-3.1-.4-1.1-1.4-1.8-1.4-3.5 0l-.9.7 1.4 2.4c2.2 3.7 1.9 5.4-1.5 6.8-2.9 1.2-3.2.5-.5-1.1 2.3-1.4 2.3-1.9.1-5.6-1.8-3.1-2.9-3.9-4.2-3.2-1 .5-2.1.6-2.1 0s3.7-2.3 4.5-2.1c.6.1 5-2 5.5-2.7 1.2-1.5 2.9-.4 5 3.3m3.7-.7c3.1 1.1 3.4 1.7 1.3 2.8-1.8 1-2.8.4-4.3-2.1-1.1-2-.9-2.1 3-.7m-19.1 3.1c-.1.3-1.2 1.1-2.6 1.9l-2.4 1.5 4.7 2.9c2.6 1.6 4.7 3.1 4.7 3.4 0 1-4.9 3.5-6.9 3.5-.6 0-2.3.5-3.6 1-3.2 1.3-3 1.3-7.2-1.2-5.2-3.2-5.3-4.6-.5-6.2 4.2-1.4 6.9-2.8 6.9-3.7 0-.5.8-1.1 2.9-2.1 3.3-1.5 4.2-1.7 4-1m-155.6 4.6c0 .3-.2.9-.5 1.4-.2.3-.4.7-.6 1-.1.2-2.9-.8-3.1-1.1-.1-.2.1-1.1.4-2l.6-1.6 1.6.9c.9.5 1.6 1.2 1.6 1.4m7.3-.3c3.8 2.1 6.3 3 6.7 2.4.4-.7 6.9 1.6 7.1 2.5.1.6-.1.6-2.7-.1-3.5-1-3.3-1.4-2.4 3.9.4 2.4.8 4.8.9 5.2.1.6.5 1 1.8 1.3 3 .9 3.4.6 4.6-2.8 1.5-4.1 1.4-4.9-.3-6-1.3-.8-1.8-1.6-1.1-1.6s3.8 1.2 4.4 1.8c.3.3 1.7.8 2.9 1.1 1.3.3 2.3.6 2.3.8 0 .2.6.4 1.4.6 1.6.3 1.6.2.8 1.7-.7 1.3-.8 1.3-5.2-.1-1.1-.3-2.1-.6-2.3-.6-.3 0-1.7 3-2.2 4.8-.8 2.6-2.6 3-5.7 1.4-1-.5-2.8-1.2-3.9-1.5-2.1-.5-5-1.9-5-2.4 0-.2-1.4-1.1-3.1-2l-3.1-1.7-.7-4.5c-1-6.5-.4-7 4.8-4.2m-5.3 4.9c.6 3.6.5 3.8-1.3 3.1-2.6-1-2.9-2-1.1-5.2 1.5-2.5 1.7-2.3 2.4 2.1m135.1.8c.3 1.5.2 1.6-3.5 2.8-3 1-3 .9-2.1 4.2 1.2 4.7.8 5.5-3.5 6.3-2.1.4-1.8-.6.3-1.2 2.2-.6 2.5-1.2 1.7-4.2-1.4-5.1-1.6-5.3-3.9-5.1-1.6.1-2 0-1.9-.4.1-.7 3.1-1.7 4.2-1.4 1 .3 5.1-.8 6.3-1.6 1.2-1 2-.8 2.4.6m1.3 2.4c.9 2.3.9 2.6.2 2.8-.4.1-1.1.4-1.6.6-.8.3-1 .2-1.7-.9-1.1-1.8-1-2.2.6-2.5.8-.1 1.4-.4 1.4-.6-.1-.6.8-.3 1.1.6m4.9 1.8c2.5 1.5 2.5 1.9.4 2.8-1.9.8-3 0-3.9-2.5-.9-3-1-3 3.5-.3m-19.7-1.5c0 .3-1.4 1-4.9 2.4-.6.2 0 1 3.3 4.3 4.9 4.8 4.3 5.9-3.4 6-1.5 0-3.8.2-5.1.4l-2.3.3-3.1-2.9c-4.8-4.5-4.6-5.7.7-6.4 5.5-.7 7.2-1.2 7.2-2 0-.5.4-.8 1.1-1 .6-.1 2-.5 3.1-.8 2.5-.7 3.4-.8 3.4-.3m-81.8 3.3c3.1.8 5.3 1 5.5.4.2-.6 7.2.5 7.4 1.1.1.3-.7.5-2.8.6l-3 .1 2 5 2 5 2.2.1c2.8.1 3.2-.5 3.6-5.2.3-3.7.3-3.8-2-4.6-.6-.2-1.2-.6-1.3-.9-.2-.7 2.1-.6 4.1.1.9.3 2.7.6 4.1.6s2.5.2 2.5.4.6.4 1.3.5c1.3.1 1.3.2 1 1.5l-.4 1.4-2.6-.3c-1.4-.1-3.1-.4-3.8-.5-1.1-.2-1.2-.2-1.2 1.2 0 6-1.9 8-6.3 6.5-.9-.3-1.8-.5-2-.4-.8.3-6.3-.7-6.9-1.3-.7-.6-3.5-1.6-5.6-2-1.3-.2-4.8-7-4.8-9.3 0-1 1.6-1.7 2.9-1.2.7.2 2.5.8 4.1 1.2m-8.7.9c.1.1 0 .9-.1 1.8-.3 1.6-.3 1.6-1.7 1.4-2.2-.4-2.6-1.1-1.8-3.2.2-.6 3-.6 3.6 0m70.2 1.8c-.2 1.7 0 1.7-5.4 2.3l-2.3.3.2 1.2c1.1 6.2-.5 8.7-4.9 7.6-1.5-.4-1-.8 1.1-1.1 2.6-.4 2.8-.8 2.3-5-.4-3.9-1-4.8-3-4.8-.9 0-1.3-.2-1.3-.6 0-.6 2.9-1.1 4.1-.7.5.2 7.7-.4 9.1-.7.1 0 .2.6.1 1.5m-67.7 1.8c.5 1.3 1.1 2.6 1.3 2.8 1.1 1.3-.8 1.9-3 1-1.3-.5-1.4-2.1-.3-4.9.6-2.2.7-2.1 2 1.1m53.6-2.2c.9.6.4.8-2.6 1.4-3.2.6-3.2.4-.2 4.8 3.2 4.6 3.5 5.1 2.8 5.5-1 .6-5.6.9-6.7.4-.6-.3-2.2-.6-3.7-.7-4.2-.3-4.1-.3-6.8-4.1-3.9-5.7-3.6-6.1 3.7-5.8 4.7.2 5.2.2 5.7-.5.4-.5 1.3-.8 3-1 3.8-.4 4.2-.4 4.8 0m13.2 2.9c0 .3.1.3.4-.1.5-.8 1.1-.2 1.4 1.7l.3 1.5-1.8.3c-2.1.3-2 .4-2.4-1.5-.2-1.3-.2-1.6.6-1.9 1.3-.6 1.5-.5 1.5 0m7.5 5.4c-.2.3-1.2.5-2.1.5-2.1 0-2.3-.4-2.8-3.8l-.3-2.4 2.8 2.6c2.1 2 2.7 2.8 2.4 3.1m-41.6-3.7c.8.8-.5 3.3-1.6 3.2-1.8 0-2.3-.4-2.3-2.3v-1.6l1.9.3c1 .1 1.9.3 2 .4m5.1 6.7c-1.2 1.9-4.6-.4-4.6-3.1 0-3.7.6-3.8 2.8-.4 1.1 1.7 1.9 3.3 1.8 3.5" style="fill-rule:evenodd;clip-rule:evenodd;fill:#9d6424"/><path d="M185.7.3c-6.5.4-12.9 1.1-17.6 1.9-4.7.7-4.9.8-5.6 1.1-.3.1-1.8.4-3.2.7-1.4.2-3.9.7-5.4 1-1.5.3-3 .6-3.2.6-.2 0-.5.1-.6.3-.1.2-2.7 1-5.7 1.7s-5.5 1.5-5.5 1.7c0 .2-.2.3-.5.3-.7 0-8.5 2.5-8.7 2.8-.1.1-1.1.5-2.2.9-3 1-4.8 1.7-5 2-.1.1-1.7.9-3.6 1.6-1.9.7-3.5 1.4-3.6 1.6-.1.1-1.4.8-2.8 1.4s-2.9 1.3-3.2 1.6c-.3.3-1.8 1-3.2 1.6-1.4.6-2.7 1.3-2.7 1.4-.1.2-1.3.9-2.8 1.6-1.5.7-2.9 1.5-3.2 1.8-.3.3-1.4 1-2.5 1.5s-2 1.1-2 1.3-.3.4-.7.6c-.9.3-2.9 1.5-3.8 2.4-.4.4-1.4 1-2.3 1.5-.9.4-1.8 1-2.1 1.3-.3.3-1.4 1.2-2.5 1.9-1.1.8-2.5 1.9-3.2 2.5-.7.6-1.4 1.1-1.6 1.1-.2 0-.7.4-1 .8-.3.5-1 1.1-1.6 1.4-.6.3-1.6 1-2.2 1.7-.7.6-2.5 2.2-4 3.5-6.5 5.7-12.8 11.9-18.2 18.2-1.2 1.4-2.6 3-3.1 3.5s-1.4 1.6-2 2.4c-.6.8-1.4 1.8-1.8 2.2-.4.4-.7.8-.7 1s-.6 1-1.3 1.7c-1.4 1.5-3.1 3.9-3.1 4.4 0 .2-.5.8-1.2 1.5s-1.2 1.4-1.2 1.6c0 .3-.4.9-1 1.4s-1 1.1-1 1.3c0 .4-2.1 3.6-2.5 3.9-.1.1-.7 1.1-1.3 2.3-.6 1.1-1.3 2.3-1.5 2.6-.3.3-1.1 1.7-1.9 3.1-.7 1.4-1.5 2.7-1.6 2.8-.1.1-.8 1.4-1.6 2.9-.7 1.5-1.5 2.8-1.6 2.9-.2.1-.8 1.5-1.5 3.1-.6 1.6-1.3 3-1.4 3.1-.1.1-.7 1.2-1.1 2.4s-1.4 3.3-2.1 4.7c-.6 1.4-1.2 2.6-1.2 2.8 0 .2-.6 1.7-1.2 3.3-.8 2-1.6 4.1-2.2 6.2-.6 1.8-1.2 3.4-1.3 3.6-.3.1-1 2.7-1.7 5.7s-1.4 5.5-1.6 5.6-.8 2.7-1.4 5.8c-.6 3.1-1.2 5.9-1.3 6.2-.1.3-.3.9-.3 1.2 0 .3-.3 1.6-.5 2.8C1 173 0 186.8 0 201.1v11.3l1.2-1.1c.7-.6 1.9-1.8 2.9-2.8.9-.9 1.9-1.7 2.2-1.7.4 0 .4-.8.3-3.1-2.1-31 10-74.8 29-105.4 31.5-50.5 81.3-82.2 142-90.4 12-1.6 32.5-1.6 47 0 3.7.4 3.7.4 4.8-.6.6-.6 1.2-1 1.3-1 .9 0 3.3-3.2 2.6-3.4-7-2.2-32.7-3.6-47.6-2.6m4.2 54.3c-22.7 1.6-50.9 10.5-65.4 20.5-.6.4-2.7 1.8-4.6 3-31.6 20.2-55.8 56-62.5 92.4-1.1 5.7-1 6.7.3 5.2 1-1.3 1.7-1.2 1.4.2-6.3 31.2 2.8 75 21.5 102.7 62.2 92.5 200.5 82.9 248.3-17.2C369.9 175.6 315.4 72.5 222 59c-2.4-.4-6.7-1-9.4-1.4l-5-.7 1.3-.7c.7-.4 1.3-.8 1.3-1-.1-.7-12.9-1.1-20.3-.6m-33.4 37c1.8 1 3.8 5.7 5 11.7.9 4.7 1.3 5.2 5.3 6.7 7.3 2.7 12.1 7.6 15.3 15.8 2.2 5.6 4.5 10.6 4.8 10.6.1 0 .6-.9 1-1.9 2.9-7.9 11.4-5 25.5 8.6l5.2 5 4.3-.9c9-1.8 18.3-1.9 26.5-.1 5 1.1 5 1.1 6.4-1 5.2-7.5 19.7-16.6 26.6-16.6.7 0 2.9 7 3.4 10.6.8 6.6-1.4 22-4.7 32.3l-.7 2.3 2.3 4.7c7.8 15.7 5.6 32.9-5.6 44.6l-1.4 1.5 1.3 2.5c.9 1.7 1.8 3.4 2.8 5.1.8 1.4 1.9 3.9 2.3 5.5l.8 2.9 1.7-2.4c2.2-3.1 3.5-7.3 4.2-13.2.9-7.6 2.9-9.9 8.7-9.9 6 0 8.7 3.3 8.6 10.6-.1 12.3-4.5 23.3-11.9 29.1-4.4 3.5-3.9 2.7-3.3 5.9.8 3.9.5 8.3-1 13-.7 2.1-1.2 3.8-1.1 3.8 11 5.5 13.3 19.9 3.9 24.8-3.1 1.6-12.9 2.3-18.6 1.4-2.1-.3-2.7-.3-4.2.4-8.3 3.5-27.8 1.5-32.3-3.3-1.2-1.3-1.4-1.3-3.3.3-5.5 4.7-23.8 6.4-31.8 3-1.5-.7-2.1-.7-4-.4-1.2.2-3 .4-3.8.4-.9 0-2.4.3-3.4.6-6.5 2.3-14.6.5-18.3-4.1l-1.4-1.8h-24.3l-1.5 1.8c-4.9 5.8-16.7 6.7-22.8 1.7-1-.8-1.7-1-5.2-1.2-11-.7-15.3-5.4-11.6-12.7 1-2 4.4-5.4 6.2-6.1l1.2-.5-2.5-2c-2-1.7-2.8-2.1-4.6-2.3-10.4-1.4-19.6-9.1-23.7-19.9-7.6-20 .1-51.9 14.1-58.9 7.3-3.7 11.6 1.4 8.6 10.1-4.2 11.7-4.7 22.5-1.4 31.2l.5 1.3 1.7-1c.9-.5 2.6-1.3 3.8-1.6l2.1-.7v-2.5c0-3.5.6-7.1 2-11.3 2.9-8.7 2.2-11.1-7.1-26.4-8.2-13.5-10.4-17.5-11.5-21.6-2.1-7.8-.4-23.4 4.2-37.4 2.3-7.2 2.6-9.8 1.2-14.1-5.1-15.7 1.7-28.4 11.6-21.8 1.9 1.3 4.9 3 6.8 3.9 1.9.9 4.1 2.3 5 3.2l1.6 1.5 8.6-1.7c4.7-.9 8.8-1.8 9.1-1.9s1.8-2.6 3.4-5.5c5.6-10.7 7.3-12.8 9.4-11.7m5.7 28.6c-2.2 1-2.6 3.6-1 7.5.8 1.9 1 1.9 1.8-.1 1.3-3.3 4.8-4.1 7.4-1.5 2.3 2.3 2.1 6.7-.3 8.2-.6.4-.8.4-.5 0 .2-.3.1-.4-.2-.2-.9.5-.5 1 2 2.5 1.4.8 2.5 1.5 2.6 1.5.1 0-1.4.1-3.2.1-4.4 0-6.1.8-10.8 5.3-5.3 5-8 6.1-15.1 6.1-3.2 0-3.6-.1-4.2-.9-1.4-2-1-2.3 3.1-2.3 7.5 0 9.7-2.7 7.9-9.7-.4-1.6-.9-3.9-1-5-1-6.6-4.8-8.8-10.5-6-5 2.5-8.6 6.5-10 11.2-.7 2.4-3.9 4.4-9.4 5.6-9.9 2.3-11.3 4.3-9.4 13.4 1.9 9.1 3.8 13 8.8 18.3 5.3 5.7 6.4 7.3 8 12.2 1.9 5.7 1.1 6.6-4.5 4.4-7.2-2.8-9.9-3.3-13.8-2.8-3.3.4-3.5.7-2 2.4 4.2 4.8 13.2 10.4 19.7 12.2 4.9 1.4 5.7 1.6 7.7 1.6 2.3 0 2.3-.2.1 3.8-1 1.8-2.4 5.2-3.2 7.5-4.2 12.5-2.7 19.4 9.1 42 1.9 3.6 3.6 7.3 3.9 8.2.4 1.2.8 1.7 1.6 2.1.9.4 1.2.7 1.4 2.1.9 5.9 14.5 6.8 21.3 1.4 1-.8 1.9-1.3 2.1-1.2.2.1.4-.3.4-.9 0-1.1 1.4-8.9 2.8-15 .9-4.2 3.3-11.8 4.2-13.5 4.4-8.5 5.7-19.8 2.8-25.2-1-1.8-1.8-3.1-6.3-9.2-6.7-9.2-7.1-9.3-8.5-2.5-.3 1.6-.7 3-.8 3.1-.3.3-5-3.1-7.6-5.7-3.2-3.1-4.1-3.7-7.1-4.3-2.6-.5-10.3-3.1-11.2-3.8-.6-.4 1.2-.5 8-.7 17.6-.5 21.3-1.6 27.8-7.9 3.8-3.7 4-3.8 3.7-2.4-.5 2.4-.8 2.9-4 6.8l-4.5 5.6c-4.3 5.3-2.7 5.2 6-.6 3.2-2.1 6.5-4.1 7.3-4.6 2.3-1.2 3.8-5.2 2.2-5.8-1.1-.4-.6-6.1.7-8.1 1.5-2.2 2.5-5.8 1.9-6.9-.2-.4-.4-1.5-.4-2.4s-.3-3.1-.8-4.9c-1.6-6.8-2.4-13.2-2.4-18 0-4.7 0-4.8-1.3-7.1-.7-1.2-1.8-3.3-2.3-4.7-1.2-3.1-1.6-3.5-5-4.8-3.3-1.3-5-2.5-6.2-4.4-1.2-2-6-3.3-8.8-2m194.4 13.5c-4.2 1.9-4.7 2.4-4.3 4.1l.3 1.2.6-1.3c1.2-2.8 7.9-4.9 9.3-3 .9 1.3 1.2.4.4-1.2-1-1.9-1.5-1.9-6.3.2M145 134.8c5.9 2.5 2.8 9.2-4.3 9.2-6.9 0-8.2-6.7-1.7-9.2 2.6-1 3.8-1 6 0m48.2 4.3c-2 3.4-2.3 14-.5 20.3 1.5 5.4 4.7 12.1 4.7 9.9 0-2.8 12.6-15.7 15.2-15.7 1.8 0-3.9-6.3-8.6-9.5-3.7-2.6-10.4-5.7-10.8-5m81.1 1.4c-4.5 2-9 5.2-12.6 9-3.8 4-3.7 3.8-1.8 4.7 4 1.9 10.5 8.2 13.1 12.8 1.7 2.9 1.9 3 3.1.6 3.2-6.3 4.7-14.5 4-21.4-.8-7.3-1.3-7.7-5.8-5.7m-95.6 1.7c1 1 1.4 1.7 1.4 2.8 0 .8.2 1.6.5 1.7 1.2.7 1.5 2.1 1.2 5.4-.2 2-.1 3.9.2 4.8 1.1 4-3 7-11.2 8.3-2.4.4-2.9.4-3.3-.2-.4-.5-.6-.5-1.4-.1-2 1.1-14.4.5-14.4-.7 0-.2 2.8-.4 6.3-.4 7.1 0 9-.4 9.2-2 .1-.5.5-1.4.9-2 1.2-1.5 1-3.1-.6-4.7s-2-2.7-1.4-4.3c.4-1 .3-1.2-.6-1.9-1.6-1.3-1.4-2.8.9-5.1 3.6-3.3 9.7-4.2 12.3-1.6m-151.6 22c-.8 2.1.1 3.5 2.8 4 2 .4 1.7-.8-.3-1.4-1.3-.3-1.6-.7-1.8-1.5l-.3-1.5c-.1-.2-.3 0-.4.4m10.1 3.2c-.3.3-1 .6-1.6.6-.8 0-1.2.2-1.2.6 0 .4.4.6 1.2.6 1.3 0 2.4-.9 2.4-1.8 0-.7-.2-.7-.8 0m331 .3c-5.1 1.2-6.8 2.5-5.2 4.1.3.3.4.3.4-.2 0-2.4 9.1-4.2 9.8-1.9.4 1.2 1.1 1 .8-.3-.2-1-1.6-2.5-2.2-2.5-.1 0-1.7.3-3.6.8M210.8 171c-4.2 2.8-3.6 7.4 1.1 8 6.2.8 9.9-1.5 8.1-5-2-3.7-6.1-5.1-9.2-3m43.5.2c-1.6 1.2-2.9 3.3-2.9 4.8 0 3.5 10.5 4.7 12 1.4 2.1-4.9-4.6-9.5-9.1-6.2m-32.6 29.1-1.4 1.5 1.5-1.4c1.4-1.3 1.7-1.6 1.4-1.6-.1 0-.7.7-1.5 1.5m28-1.3c0 .1.6.7 1.3 1.3l1.3 1.2-1.2-1.3c-1-1.3-1.4-1.5-1.4-1.2m-225.8.9c-1.9 1.9.5 3.4 5.3 3.4 4.4 0 5.6-.4 5.6-1.6 0-.8-.1-.8-.9-.2-2.3 1.6-9 .7-9.6-1.3 0-.4-.2-.5-.4-.3m253.2 2.4c.8.1 2.2.1 3 0 .8-.1.2-.2-1.5-.2-1.7.1-2.4.1-1.5.2m89 2.3c-.2.5-.3 1.3-.2 1.7.3.7.3.6.6-.2 1-2.5 8.7-2.4 9.8.1.7 1.6 1.3.4.7-1.3l-.4-1.1-5.1-.1c-4.9-.1-4.9-.1-5.4.9m-161.2-.4c.4.4 2.8 1.5 2.8 1.3 0-.2-2.2-1.4-2.6-1.4-.2-.1-.2 0-.2.1m8.9 6.1c.6.6 1.2 1.1 1.2 1 .1-.1-.4-.6-1.1-1.1l-1.2-1 1.1 1.1m42.8-.5c0 1.3.8 1.6 1.7.6.8-.9.8-.9 0-.3-.8.7-.9.7-1.3 0-.2-.3-.4-.5-.4-.3M84.8 220.2c-8.9 24.2-.9 49.4 17.3 54.9 2.8.8 3.3.6 1.9-.9-2.1-2.3-5-7.6-5.9-11-1.1-4.1-1.2-4.4-3.6-7.3-3.5-4.1-5.6-9.1-7.9-18.2-.6-2.5-.7-4.6-.7-11.7v-8.7c-.1 0-.6 1.3-1.1 2.9m209.7.4c-1.7 1.1-2.3 2.8-2.3 6.3 0 3.6-.9 7.6-2.5 10.9-1 2.1-1.2 3-.9 3.5.5.8 4.2 3.7 4.8 3.7.7 0 3.4-5.7 4-8.8.4-1.7.8-3.4 1.1-3.8.7-1.3.9-11.3.3-12-.8-1-2.9-.9-4.5.2m-90.7 12.7c0 1.4.1 2 .2 1.3s.1-1.9 0-2.6c-.1-.8-.2-.2-.2 1.3m-166.6 2.8c-1.5 2-8.5 2.6-9.6.8-.3-.6-.4-.5-.4.6 0 1.9 1 2.3 4.1 1.7 4.6-.9 6.6-1.6 6.9-2.5.4-1.1-.3-1.5-1-.6m325.2 3c-1.1 1.1-.8 2 .4 1.2 2.6-1.7 9.3.8 9.4 3.4 0 .8.1.9.4.4.6-.9.5-3-.1-3.5-1.5-1.3-9.2-2.4-10.1-1.5m-252 3.9c-2.3.8-4.9 2.5-6.3 4-1.3 1.5-2.8 4-2.2 3.8.2-.1 1.3-.6 2.5-1.2 2.2-1.1 6.8-2.3 8.9-2.3 1.5 0 1.6-.4 1-2.8-.5-2.3-1.1-2.5-3.9-1.5m80.8 8.9c.2.4-.1 1.1-.8 1.7-.6.6-1.7 2.1-2.6 3.4-.9 1.3-1.7 2.2-1.9 2-.2-.2-.1.1 0 .5.2.6.2.7-.2.4-.4-.2-.4-.1-.2.6.2.6.1.8-.2.6-.2-.2-.4-.1-.4.1 0 1.2.8.5 1.7-1.5.6-1.3 2-3.4 3.1-4.7 2-2.4 2.3-3.2 1.6-3.6-.2-.1-.3.1-.1.5m89.8 1.3c0 .2.5.9 1 1.6l1 1.1-.9-1.4c-1.2-1.9-1.1-1.8-1.1-1.3m3.7 5.6c.7 1.3 1.4 2.3 1.4 2.3.2-.2-1.9-4.1-2.3-4.4-.3-.2.1.8.9 2.1m1.7 2.8c-.1.2.1 1.3.3 2.5l.5 2.2v-1.7c0-.9-.2-1.8-.4-1.9-.2-.1-.3-.5-.2-.8.3-.7.1-.8-.2-.3m-239.9 9c-.9 2-7.6 4.1-9 2.8-1.1-1-1 .4.1 1.5 1.7 1.7 10-1.9 10-4.3 0-1.2-.5-1.2-1.1 0m304.8 1.7c-1.1 1.1-.9 2 .3 1.2 2.1-1.4 8.8 2.2 8.5 4.5-.2 1.6.2 1.7.8.3 1.1-2.4.7-2.9-3.9-4.9-3.8-1.8-4.9-2-5.7-1.1m-180.8 2.8c0 .3.2.7.4.8s.4-.1.4-.6-.2-.8-.4-.8-.4.2-.4.6m-.4 2.8c0 .3.2.6.4.6s.4-.3.4-.6-.2-.6-.4-.6-.4.3-.4.6m-.7 5.8c0 .8.1 1.1.2.7.1-.4.1-1 0-1.4-.1-.4-.2-.1-.2.7m-38.6 4.7c.6.1 1.2.1 1.8 0 .5-.1.1-.2-.9-.2s-1.4.1-.9.2m7.6 0c.6.1 1.2.1 1.8 0 .5-.1.1-.2-.9-.2s-1.4.1-.9.2m-15.5 4.9c-.2.7-.4 1.5-.4 1.7 0 .2.3-.3.6-1.1.3-.9.5-1.6.4-1.7-.1-.1-.3.4-.6 1.1m-59 7.5c-.2.8-1 1.7-3.2 3.2-3.1 2.1-3.8 2.4-5.1 1.7-1-.6-1 .2 0 1.2 1.2 1.2 1.4 1.1 5.3-1.6 3.7-2.6 4.4-3.3 4-4.7-.2-1.2-.7-1.1-1 .2m269.8 1.3c-1.1.6-.8 1.2.6 1.2 2.5 0 6.9 3.8 6.9 5.9 0 1.6 0 1.7.7 1 1.7-1.6 1-3-2.9-5.9-3.9-2.7-4.2-2.8-5.3-2.2M87.1 327c-.4 2.4-5 6.9-6.6 6.6-1.2-.2-1.2-.2-.8.6 1 1.9 8.8-3.9 8.8-6.5-.1-1.6-1.1-2.1-1.4-.7m222.7 1.3c-.4.5-.3.6.6.6 2.4 0 6.8 5.8 5.9 7.8-.5 1.1-.1 1.3.9.2 1.2-1.3.8-2.7-1.4-5.2-3.8-4.1-4.9-4.7-6-3.4m-194.7 19.4c.5 2.5-3.8 8.4-5.7 7.9-.9-.2-1-.2-.6.3 1.5 1.8 3.1 1.1 4.9-2.1.7-1.3 1.6-2.7 2-3.3.8-1.1 1-2.9.3-3.6-.8-.7-1.1-.4-.9.8m166.1.7c-.2.2.3.5.9.8 2.4 1 5.3 7.7 3.8 9-.9.7-.5.9.8.3 1.8-.8 1.7-1.9-.4-5.7-2.4-4.5-3.8-5.7-5.1-4.4m-134.3 13.9c.4.8.3 1.5-.5 3.7-1.4 4.4-1.8 4.9-3.3 5-1.2 0-1.2 0-.5.6 2 1.5 3 .5 4.7-4.7 1.3-4.2 1.3-5.2-.2-5.5-.5-.1-.6 0-.2.9m102.4.1c0 .1.4.6 1 1 2 1.6 3.2 7.5 1.8 9-.9 1-.6 1.2 1 .5.5-.2 1.1-.7 1.2-1.2.3-.8-1.9-8.2-2.7-9.1-.4-.5-2.3-.7-2.3-.2m-68.8 6.5c0 .2.2.5.4.6.4.3.5 4.2.1 7-.2 1.5-.5 1.9-1.6 2.4-1.3.6-1.3.7-.5.9 1.3.3 2.7-.3 2.9-1.4.3-1.4.9-7.2.8-8.1-.2-1.1-2.1-2.4-2.1-1.4m34.4.2c0 .1.4.6 1 1.1 1.8 1.8 1.9 8.6.1 9.4-.8.4-.8.4-.2.7 1.2.5 2.7-.8 2.7-2.3-.1-4.3-.7-8.1-1.4-8.6-.7-.4-2.2-.7-2.2-.3" style="fill-rule:evenodd;clip-rule:evenodd;fill:#ecdb51"/><path d="M164.5 127.2c-.9.9-1.2 1.5-1.2 2.7 0 1.5 0 1.5.5.5.9-1.7 2.4-2.2 2.7-.9.3 1.4 1.2 1.7 1.2.4 0-1.2.5-1.3 1.6-.2.8.8 1 1.4.9 2.8 0 .3.2.2.4-.3 1.8-3.8-3.2-7.9-6.1-5m-25.5 9.4c-2.6 1.1-3.6 3.4-2.2 5.1l.8.9v-1.4c0-2.1 2.3-3.8 3-2.3.2.4.3.4.5 0 .7-1.4 2.6.4 2.6 2.4 0 1 .1 1.1.6.6 3.5-2.8-.9-7.2-5.3-5.3m93.8 57.9c-6.6 1.3-12.5 6.3-16 13.4-.9 1.7-1.6 3.2-1.7 3.3-.1.1-1.3-.9-2.6-2.1-5.4-4.9-12.8-7.4-20.4-6.9-4.9.3-4.8.2-4.5 3.2.6 5.8 6.4 14 14.3 19.9l2.8 2.1-.3 3.4c-.6 7.4.1 14 1.7 15.4.3.2 1.2 1.4 2 2.6 6.5 9.3 20.2 18.4 27.8 18.6 6.9.2 20.9-8.7 27.1-17.2 1-1.3 1.9-2.6 2.9-3.9.5-.6 1.1-2.1 1.2-3.2.8-4.9.8-5-.1-6.3l-.9-1.3.9-1.7c.7-1.3.9-2.2.7-3.5l-.2-1.8 2.9-2.2c7.6-5.8 13.2-13.7 14.3-20.3.6-3.5.8-3.3-4.8-3.5-8.5-.2-14.3 1.8-20.4 7-2.4 2.1-2.3 2-2.8.2-3.5-10.5-14-17.2-23.9-15.2m11.2 8.2c2.5 2.7.5 8.9-3.5 10.6-1.6.7-1.7 3.4-.2 4.8.9.9 1.1.9 5.6.6 3.9-.2 4.6-.2 4.6.3 0 .9-1.1 3.3-1.7 3.8-.3.3-.9 1.3-1.3 2.3-1.1 2.9-1.8 2.2-1.8-1.9v-2.4l-1.5.3c-1.9.4-12 .3-13.5 0l-1.1-.3.3 2.4c.4 3.4-1.3 4.9-1.9 1.7-.2-.7-.7-1.6-1.2-2.1s-1-1.2-1-1.7-.2-1-.4-1.2c-1.7-1.1-.3-1.4 4.5-1.2l4.9.3 1.1-1.1c1.8-1.8 1.4-3.7-.9-4.9-4.5-2.3-6.6-7.9-4-10.5 1.3-1.5 11.6-1.3 13 .2m-2.3 19.7c.9.6-.3 1.7-1.4 1.5-.6-.1-1.2.1-1.6.6-.9 1-1.4.9-2.4-.1-.6-.6-1-.7-2-.6-1.4.3-2-.2-1.6-1.2.2-.6 8-.8 9-.2M189 253.8c-1.8 2.3-2.6 3.8-3.1 5.4-.2.6.6-.4 1.7-2 1.1-1.7 2.4-3.3 2.9-3.8.8-.7 1.1-1.8.5-1.8-.2.1-1 1-2 2.2m92.4-.9c0 .3.7 1.6 1.7 2.8.9 1.2 2.2 3.3 2.8 4.6.7 1.5 1 2 .9 1.2-.6-2.8-5.4-10.5-5.4-8.6m-96.7 9.4c-.1.4-.2 1-.2 1.5s.2.4.4-.5c.4-1.5.3-2.1-.2-1m-1 20.4c-5.5 2.7-7.9 8.9-5.7 14 .9 2 1.6 1.9 1.6-.1 0-2.8 2.2-4.7 2.5-2.2.6 3.9 1.2 6.5 1.7 6.6.3.1 1.3.3 2.4.5l1.9.3v-1.9c0-4.6 2.1-8.4 2.6-4.8.1 1.1.4 2.4.6 2.9.2.6.5 1.6.6 2.3.2 1.2.3 1.3 2.1 1.3 2.7 0 3.1-.4 2.1-2-1.9-3.3-1.2-8.8 1.8-13.2.8-1.2 1.5-2.3 1.7-2.5.2-.3-.5-.3-1.9-.1-2.5.3-6.8-.3-9.8-1.3l-2.1-.7-2.1.9m100.7-.3c-2.8 1-7.8 1.7-10 1.5-2.6-.3-2.6-.3-.7 2.3 3 4.1 3.9 9.7 2.2 13.5l-.8 1.7.9.2c3.6 1 4.4.2 4.9-5 .3-2.7.7-3.6 1.3-2.7.7 1.1 1.6 4.7 1.6 6.4v1.7l1.9-.3c2.6-.4 2.8-.6 3.6-4.9.4-2.1.9-3.7 1.2-3.7.6 0 1.7 2.9 1.8 4.7v1.5l.8-.9c2.8-3.4 2-9.7-1.7-13.1-3.3-3.1-4.8-3.7-7-2.9m-83 5.4c-2.8 4.2-3.3 8.3-1.4 11 1.2 1.7 1.5 1.6 1.7-.9.4-5.3 3.5-7.6 3.5-2.6 0 7.4-.1 7.3 5.6 7.8l2.7.3-.2-1.8c-.3-2.2.5-5.5 1.6-6.9 1.5-1.8 1.8-1.3 2.1 3.1.3 5.6.3 5.6 2.8 5.3 11.4-1.4 14.2-3.5 14.2-10.6 0-4.8-.1-5.1-2.9-6.2-2.3-1-3.9-.8-6.1.8-5.9 4.2-15.7 4-20.5-.3l-1.6-1.4-1.5 2.4m39.7-1.8c-.4.1-1.4.6-2.1 1.2l-1.3 1v4.4c0 7 3.2 9.4 13.8 10.6 3 .3 2.9.4 3.2-5 .3-5 .3-5.2 1.6-4 1.3 1.3 2 3.3 1.9 6.6v2.8l3-.3c5.1-.5 5.4-.9 5.4-8.1 0-2.3.1-2.6.8-2.6 1.1 0 2.8 3.6 2.8 6.2 0 1.7.1 1.9.6 1.4 3.1-2.6 2.6-8.8-1.1-13.4l-1-1.2-1.5 1.3c-4.9 4.3-15.4 4.3-20.8 0-1.6-1.2-3.1-1.5-5.3-.9" style="fill-rule:evenodd;clip-rule:evenodd;fill:#f5f4f6"/><path d="M230.7 2.3c1.1.5 1.4.5 1.4 0 0-.2-.5-.4-1.1-.4-1 .1-1 .1-.3.4m2.1.5c.1.2.4.3.7.3.3 0-.2.7-1.1 1.6s-1.7 1.6-1.8 1.6c-.1 0-.7.5-1.3 1-1.1 1-1.1 1-4.6.6-1.9-.2-4.1-.4-4.7-.4-.7 0 .1.2 1.6.4 29.3 3.6 55.2 12.3 79 26.6 6.2 3.7 5.7 3.5 6.8 2.9 2.5-1.3 4.5-4.3 2.9-4.3-.2 0-.3-.2-.2-.3.1-.2-.4-.6-1.2-1-.8-.4-1.4-.9-1.4-1.1 0-.2-.2-.3-.4-.2-.2.1-.4.1-.4-.1s-1-.9-2.3-1.5c-1.3-.7-2.5-1.4-2.8-1.7-1.1-1-16.3-8.9-20.1-10.4-1.5-.6-3.1-1.3-3.7-1.6s-2.5-1.1-4.4-1.8c-1.9-.7-3.6-1.4-3.8-1.5-.2-.2-2.2-.8-4.4-1.5-2.2-.6-4.1-1.3-4.2-1.4-.1-.1-2.5-.8-5.2-1.5-2.8-.6-5.8-1.5-6.7-1.8-2.3-.8-12.6-2.7-13.5-2.5-.4.1-.7 0-.7-.3s-.4-.5-1.2-.5c-.6 0-1.1.2-.9.4M190 7c.7.1 1.9.1 2.6 0 .7-.1.1-.2-1.3-.2s-2 .1-1.3.2m17.6 0c.7.1 2 .1 2.8 0 .8-.1.2-.2-1.3-.2-1.5.1-2.2.1-1.5.2m-23.8.4c.4.1 1 .1 1.4 0 .4-.1.1-.2-.7-.2-.8 0-1.1.1-.7.2m31.8 0c.5.1 1.2.1 1.6 0 .4-.1 0-.2-.9-.2s-1.2.1-.7.2m-36.2.4c.4.1 1 .1 1.4 0 .4-.1.1-.2-.7-.2s-1.1.1-.7.2m-3.2.4c.4.1 1 .1 1.4 0 .4-.1.1-.2-.7-.2-.8 0-1.1.1-.7.2m44.4 1.7c-1.7.7-2.8 3.8-4.9 15-.7 3.8-.4 3.7-8 3.3-5.9-.3-24.5.2-25.2.7-.4.3-1.3-.8-5.7-7.6-6.2-9.5-6.9-10.2-10.2-10.2-5 0-5.7 1.3-8.9 17.3-1 5-1.1 5.3-3.5 5.9-1.1.3-4.9 1.5-8.5 2.7-3.6 1.2-6.6 2.2-6.7 2.2-.1 0 .2-.8.5-1.9 2.5-8.4-5.7-15.8-14.4-13-3.5 1.2-18.5 8.7-19.1 9.6-1.2 1.7-.8 3.4 2.3 10.2 4 8.5 3.9 8.2 1.5 9.6-1.1.6-3.1 2-4.6 3l-2.7 1.8-1.2-1.4c-.6-.8-2.8-3.6-4.9-6.3-4.8-6.3-6.4-7.2-9.4-5.4-3.2 1.9-2.8 4.1 2.2 10.9 2 2.7 4 5.6 4.5 6.4l.9 1.5-1.9 1.5c-1.2 1-2.4 1.9-3.5 2.9-3.7 3.2-2.6 3.5-9-2.1-7.5-6.4-7.4-6.4-9.1-6.6-2.7-.4-5.1 2.4-4.6 5.2.3 1.3 1.6 2.8 7.4 8.1 3.7 3.3 3.6 2.7.7 5.9-1.9 2.1-3.8 4.2-5.7 6.4-4.1 4.6-3.4 4.5-7.9.6-7.4-6.4-8.7-6.9-11.4-4.6-1.2 1.1-1.4 1.5-1.4 3.1v1.9l6.5 6.2 6.5 6.2-3.2 4.6c-1.7 2.5-3.8 5.6-4.6 6.9-.8 1.3-2.2 3.1-3.1 4-1 .9-3.2 3.4-4.9 5.5-6.8 8.1-11.4 8.7-11.4 1.5 0-5.6 2.8-8.4 8.8-8.8 3.8-.3 5.4-1.5 5.4-4 0-6-10.5-5.6-15.8.7-9.6 11.2-5.7 26.6 6.5 25.8 1.2-.1 2.1 0 2 .1-1.4 2.8-2.3 6.1-1.9 6.4 1.2.8 2.5.2 3-1.4.3-.9.8-2.1 1.1-2.6.3-.6.8-1.7 1.1-2.6.3-.9 1.4-2.5 2.8-3.8 1.2-1.2 3.6-3.8 5.2-5.7 5.7-6.8 11.3-7.1 12.3-.6.9 6.3-3.6 11.1-10.7 11.1-4.5 0-6 1-6 3.8 0 6.3 11.6 6 17.7-.5 10.3-11.2 7-27.5-5.8-28.4-1.5-.1-2.7-.3-2.7-.4 0-.4 1.4-2.5 1.7-2.5.2 0 .3-.2.3-.4 0-.5 1.9-3.5 3.1-4.8.5-.5.9-1.2.9-1.5 0-.6 1.3.5 9.1 7.2 6.3 5.4 8.9 5.9 10.7 2.2 1.4-3 1.4-3-9.4-13.3L70.8 95l5.8-6.5c3.2-3.6 6-6.5 6.2-6.5.2 0 3 2.3 6.2 5 3.2 2.8 6.4 5.2 7 5.4 3 .9 5.9-1.9 5.3-5-.2-1.1-1.4-2.5-6.7-7.5-7.6-7.2-7-6.3-5.2-7.7 1.5-1.2 3.1-2.5 4.8-4.1 2-1.8 2-1.8 9.8 8.5 4.7 6.1 7.3 7.2 10 3.9 1.7-2.1 1-4.1-3.5-10.4-2.2-3.1-4.3-6.1-4.8-6.8-.4-.7-.9-1.2-1-1.2-1 0-.1-1.6 1.4-2.4.9-.5 1.8-1.1 1.9-1.2.5-.7 4.6-2.8 5-2.6.3.1 2.2 3.4 4.1 7.4 5.2 10.4 4.6 10.3 18 3.7 12.6-6.2 15-8.5 15-15.1 0-4.7-3.3-10.6-6-10.6-1.9 0 4.9-2.5 10.4-3.8 1.1-.2 1.1-.2.9 1.1-3 17.5-2.8 19.1 1.6 19.3 3.2.1 4.2-1.5 5.4-8.9l.5-3 7.8-1.5c9.9-1.9 8.8-2 11.1 1.6 4.1 6.5 6.3 7.7 9.2 4.7 2.4-2.4 2.2-2.9-3.5-12.4-2-3.3-3.5-6-3.3-6.2.8-.8 28.9-1.1 29.7-.4.1.1-.4 3.3-1 7.1-2.2 12.8-2.7 12 9.1 14.4 13 2.7 17.6 2 23-3.3 1.8-1.8 5.6-8.3 5.6-9.6 0-1.4 3-1.6 4-.3.1.2.9.5 1.8.8l1.6.5-.8 2.7c-3 10.5-.1 18.8 8.6 24.4 10.6 6.9 21.9 4.6 29.6-5.8l1-1.4 1.6 1c.9.6 2.1 1.5 2.7 2 .6.6 1.3 1.1 1.5 1.2.3.1-.2 1-1.1 2.2-7.5 10.2-5.7 22.3 4.5 30.8 4.5 3.7 12.2 6.9 15.4 6.3 1.5-.3 8.9-6.7 10.4-9.1.9-1.4 1-1.4 2.4.7.6 1 1.3 1.8 1.5 1.8.2 0 .4.2.4.4 0 .5 2.3 3.9 2.9 4.3.6.3-1.9 2-11.6 7.5-6.4 3.7-6.4 4.4-.3 15.2 2.4 4.2 5.2 9.2 6.3 11.2 2.9 5.2 4.8 6.3 7.4 4.1 1.9-1.6 1.5-3-2.9-10.7-7.2-12.8-6.8-11.7-4.3-13 .8-.4 2.4-1.3 3.5-1.9 1.1-.6 2.5-1.4 3.3-1.7l1.3-.6 2.5 4.5c7.4 13.2 7.3 13.1 9.5 13.4 1.9.3 3.1 2.3 1.8 3.1-3.6 2.2-4 3-2.6 5.8 1.3 2.5 2 2.3 1.1-.5-.4-1.3-.5-1.4-.8-.8-.2.6-.3.6-.6-.4-.5-1.7 0-2.2 3.3-3.7l3.2-1.4-.8-1.6c-.4-.9-.9-2.6-1.1-3.7-.3-1.9-1-3.5-3.1-7.2-3.4-5.9-6-10.8-5.8-11.1.3-.4 7.6-4.7 8.1-4.7.2 0 1.6 2.3 3.2 5.1 7.6 13.9 7.5 13.7 9.8 13.7 4.3 0 4.4-2.6.3-9.9C358.1 93.9 359 95.1 356.1 95c-1.2 0-2.5.5-5.5 2.2-2.2 1.2-4.1 2.2-4.2 2.2-.2 0-1.3.6-2.5 1.3l-2.3 1.3-1.1-1.6c-1.1-1.6-6.8-8.9-10.3-13.1-2.3-2.7-14.1-14.6-16.1-16.2l-1.5-1.2 1.5-1.2c8.7-6.8 20.4.1 18.9 11.1-.7 4.9 0 6.3 3.3 6.9 5 .9 7.3-8 4-14.8-6.4-12.9-21.1-17.6-32.4-10.3l-3 1.9-2.8-2.1c-1.2-.9-2.3-1.8-3.5-2.6-.7-.5-.6-.7.3-3.6 3.5-10.8-.5-20.1-10.9-25.3-10.4-5.2-19.3-2.9-27.1 7.1l-1.2 1.6-4-1.3-4-1.3.1-3.7c.3-8.8-2.9-14.9-9.4-17.9-4.9-2.4-19.7-5.3-21.8-4.5m11.6 8.7c7.4 1.5 10.7 5.1 10.2 11.3-.3 3.6-.1 3.5-2.9 2.7-3.2-.8-10.1-2.2-13-2.5l-2.4-.3.2-1.3c.5-2.7 1.8-9.7 2-10.4.3-.6.4-.6 5.9.5m-63.1 5.7c.4.8 1.3 2.5 2 3.7l1.3 2.2-2.1.4c-5.5 1.1-5.1 1.6-4.1-5.1.3-2.1.6-4 .6-4.2.1-.5 1.4 1.2 2.3 3m-39.8 7.9c5.3 2.7 2.6 8.2-6 12-1.4.6-2.8 1.3-3 1.5-.7.7-1 .3-3.2-4-2.7-5.4-2.9-4.7 1.7-6.9 6.7-3.4 8.3-3.8 10.5-2.6m100 1.4c.1.2.6.4 1.1.4.9 0 8.9 1.4 10.3 1.9 2.2.6-1.7 8.8-5.1 10.6-2.2 1.2-4 1.2-9.5.3l-5.3-.9.3-1.4c.1-.8.7-3.3 1.2-5.6l1.2-5.1c.3-1.2 5.4-1.2 5.8-.2m-54.4 1c1.2 1.8 1.5 1.6-4.9 2.7l-5.5 1 .2-1.2c.1-.7.2-1.4.2-1.7 0-.3 1.1-.7 3-1 1.7-.3 3-.6 3-.8 0-1.2 3-.4 4 1m109.4 1.5c5.7 2.6 8 8 6 14.6-.7 2.4-.8 2.4-3.3.9-4.2-2.6-12.1-6.6-16.2-8.4l-1.9-.8.6-1.2c2.7-5.3 9.5-7.6 14.8-5.1m39.9 7.9c0 .3-.8 1.2-1.8 2.2-2.2 2.1-2.4 1.6 3.2 6.5 18.9 16.7 34.2 35.9 45.8 57.5 3.2 6 8.1 16.4 9.4 19.9.7 2 .9 1.9 3.6-.8l2.3-2.3-.6-1.8c-.3-1-.7-1.9-.9-2.2-.2-.2-.9-2-1.7-3.9-.7-1.9-1.5-3.5-1.7-3.5-.2 0-.3-.2-.3-.5 0-.6-5.2-11.2-5.6-11.5-.1-.1-.9-1.4-1.6-2.8-.7-1.4-1.4-2.7-1.6-2.8s-.9-1.2-1.6-2.4c-1.4-2.4-1.6-2.7-3.6-5.8-1.6-2.5-3.7-5.6-4.1-5.8-.1-.1-.7-.9-1.3-1.8-1-1.6-5.8-7.7-7.7-10-6-7-13-14.4-18.9-19.7-1.4-1.3-2.8-2.6-4.3-3.9-.6-.5-1.3-1-1.5-1-.2 0-.8-.5-1.3-1.1-1.4-1.9-4.2-3.4-4.2-2.5M270 46.2c.3.3.8.6 1.1.6.6 0 5.1 2 5.4 2.3.1.1 1.2.7 2.4 1.3 1.2.5 2.4 1.2 2.6 1.4.2.2 1.7 1 3.2 1.8 3.8 1.9 3.7 3.3-.5 7.3-10.6 9.9-24.7-3.3-17-15.8.2-.4 2 .3 2.8 1.1m-131 1.7c4.9 3.9 2.8 8.3-6.1 12.6-5.7 2.8-5.6 2.8-6.8-.1-.5-1.3-1.5-3.5-2.3-5-1.6-3.2-1.6-3.4-.4-3.7.5-.2 2.4-1 4.2-1.8 6.2-3 9.4-3.5 11.4-2m58.8 6.4c1.3.1 3.3.1 4.4 0 1.1-.1.1-.1-2.3-.1-2.4-.1-3.4 0-2.1.1m-9.2.3c.6.1 1.5.1 2 0s0-.2-1.1-.2c-1.1.1-1.5.2-.9.2m20 0c1.8.2 1.9.7.2 1.6l-1.3.7 5 .7c2.8.4 7 1 9.4 1.4 5.1.7 14.4 2.9 19.6 4.5 2 .6 4 1.3 4.5 1.4.6.2.9.1.9-.3 0-.3.4-.8.9-1.1 3.1-2-23.4-8.4-37.1-9-2 0-2.9 0-2.1.1M63.2 63.4c-1.6 1.7-2.9 3-2.8 3 .1 0 1.5-1.4 3.2-3 1.6-1.7 2.9-3 2.8-3-.1 0-1.5 1.3-3.2 3m184.2 1.9c.2.2 6.5 2.6 6.8 2.6.5 0-2.2-1.3-4.3-2-2.3-.7-2.8-.9-2.5-.6m12.4 2.2c-.1 1.2-1.8 1.8-3.4 1.1-3.7-1.6-1.2-.1 3.8 2.2 28.6 13.1 51 34.5 66.5 63.5 2.1 3.9 2.5 4.5 1.7 2.4-.1-.3.1-.7.6-.8 1.4-.4 1.3-1.3-.8-5.3-12.1-23.6-33.2-44.9-57.4-58-1.5-.8-3.1-1.7-3.4-1.9-1.3-.8-6.1-2.7-6.6-2.7-.3 0-.6-.2-.7-.5-.2-.4-.3-.4-.3 0M135.2 69c-1.6.8-1.4 1.1.2.3 1.5-.8 1.8-1 1.3-.9-.3 0-.9.3-1.5.6m177.3 4.5c.8.8 2.7 2.6 4.2 3.9 2.7 2.3 3.2 3 2.2 3-.9 0-2.7 2-2.7 3.2 0 1.4.7 2.4 4.1 5.8l2.7 2.8-2.4 2.3-2.4 2.3-2.3-.9c-11.3-4.2-14.6-14.3-7.3-22.3 2-2 2-2 3.9-.1M96.4 97.1l-3.8 3.9 3.9-3.8c2.1-2.1 3.9-3.8 3.9-3.9.1-.3-.4.2-4 3.8m58.4-2.2c-.4.9-.5 3.8-.6 9.8v8.5l-1.5 1.6c-1.9 2.1-2.1 4.3-.4 5.6 2.2 1.7 2.5 2.1 2.5 4.1 0 3.6-2.9 2.8-5.7-1.6-1.9-3-2.3-3.3-4.6-3.3-.8 0-2.7-.3-4.3-.6s-3.3-.7-3.9-.8c-1-.2-1.4.1-3.8 2.6-2.4 2.6-5.3 4.9-6.1 4.9-.2 0-1.1-1.3-2-2.9-3.8-6.4-9.3-11.8-15.3-14.9l-2.7-1.4-1 2.1c-2.2 4.8-2.4 13.5-.5 19.9l1 3.4-1.1 1.1c-.6.6-1.3 1.7-1.6 2.4-.3.7-.9 2.2-1.3 3.3-2.9 6.9-4.8 19.4-4.9 31 0 8.3.3 9.5 3.6 15.7 1 1.9 2.1 3.8 3.1 5.7.5.9 2.5 4.2 4.5 7.4 10.4 16.7 10.6 17.5 7 29l-1.6 5.2.2 5.6.2 5.6 3.7 10.6c5 14.5 8.1 25.8 8.1 29.8 0 .6 4.7 1.4 8 1.4 4.5 0 7.7-1.2 9.9-3.7 2.5-2.8 2.6-3.2 1.9-8.5-.5-4.1-.5-4.8 0-5.1.9-.5-.2-3.3-4.2-10.9-11.5-22.1-13.1-29.2-8.9-41.7.8-2.3 2.2-5.7 3.2-7.5 2.2-4 2.2-3.7-.1-3.8-2 0-2.8-.2-7.7-1.6-6.5-1.9-15.5-7.5-19.7-12.2-1.5-1.7-1.3-2 2-2.4 4-.5 6.6 0 13.8 2.8 5.6 2.1 6.5 1.3 4.5-4.4-1.6-4.8-2.7-6.5-8-12.2-5-5.4-6.9-9.2-8.8-18.3-1.9-9.2-.6-11.1 9.4-13.4 5.4-1.3 8.7-3.2 9.4-5.6 1.4-4.7 5-8.8 10-11.2 5.7-2.8 9.5-.6 10.5 6 .2 1.1.6 3.3 1 5 1.8 6.9-.4 9.6-7.9 9.7-4 0-4.5.4-3.1 2.3.6.8 1 .9 4.2.9 7.1 0 9.7-1.1 15.1-6.1 4.8-4.5 6.4-5.3 10.8-5.3 1.8 0 3.3 0 3.2-.1-.9-.7-5.6-3.3-6.4-3.5-1.4-.3-4.1-2.8-4.7-4.3-.3-.7-.6-1.2-.8-1.2-1.5 0-2.3-7.3-.9-8.4 2.2-1.8 7.2-1.3 9.2.9 3.1 3.4 4 4.2 6.9 5.3 1.6.6 3.3 1.4 3.7 1.8.5.4.3-.4-.7-2.7-3.2-7.4-9-12.8-16.2-14.8-2.4-.7-2.6-.9-3.2-4.2-.7-3.8-4.5-13.4-5.2-13.4-.5-.3-.9.3-1.2 1m-44.1 23.3c.1.3 0 .8-.2 1.1-.8.8-.5 1.1.9 1.1 1.3 0 1.8.5 1 1-1 .6-.4 1.8 1.4 2.7 2.1 1 2.2 1.3.5 1.9-4.4 1.5-8.7-1.7-8.7-6.4v-1.9h2.4c1.9-.1 2.5.1 2.7.5m80 14.4c-1.7 2.6-2.4 12.5-1.4 20 .2 1.5.6 4.2.8 6 .4 3.1.9 5 3.2 12.5l1.1 3.7-2 4.9c-2.4 5.9-4.6 14.4-5 19.1l-.3 3.5 5-.2c9-.3 13.9 1.4 20.6 7.1 2.1 1.7 2.8 1.8 2.9.3 0-.2.9-1.8 1.9-3.6 9.5-16.2 29.7-15.8 37.8.8l2.1 4.2 1.5-1.2c6.7-5.7 14.4-8.2 22.5-7.4l3.6.4v-1.2c-.1-7.5-2.4-16.8-5.8-23.5-1.7-3.3-1.7-3.2 0-8.6 1.2-3.8 1.7-5.9 3.4-13.8 2.1-9.5 1.7-20-.7-23.1-2.6-3.3-17.3 6.1-24.5 15.5-1.9 2.6-2.4 2.9-3.9 2.3-8.8-3.3-26.2-3.2-35 .2-.5.2-2.1-1.2-6.2-5.3-11.4-11.3-19.4-16-21.6-12.6m172.7 2.3c0 .4-.2.6-.4.5-.2-.1-.2.3.1 1 .5 1.3 1.5 2.1 1.5 1.1-.1-.9-1.1-3.3-1.2-2.6m-2.4 7.2c-1.6 2-3.1 3.9-3.4 4.2-.4.4-.7 0-1.8-2.1-1.1-2.3-2.5-3.8-1.8-2 .1.4.4 1.1.5 1.7.5 2.1 1.9 4.9 2.4 4.9.6 0 2 3.5 2.8 7.2 1.1 4.7 2.4 4.8 6 .3 2.7-3.4 3-4.2 2.2-6.7-.2-.8-.5-2.6-.6-4-.1-2.9-1.8-7.2-2.8-7.2-.4 0-1.9 1.7-3.5 3.7M198.7 141c6 2.7 16.9 12.6 13.9 12.6-2.7 0-15.2 12.9-15.2 15.7 0 2.3-3.2-4.4-4.7-9.9-1.7-6.3-1.5-16.8.5-20.3.1-.3 2 .4 5.5 1.9m80.5-.1c2.4 6.8 1 18.8-3 26.7-1.2 2.3-1.4 2.3-3.1-.6-2.7-4.6-9.1-10.9-13.1-12.8-1.9-.9-1.9-.8 1.8-4.7 3.5-3.7 8.1-7 12.6-9 3.4-1.6 4.1-1.5 4.8.4m50.2-1c0 .4 1.9 4 2 3.7 0-.4-1.6-4-1.8-4-.1 0-.2.1-.2.3m-263.3 1.5c-.7 1.5-.5 1.8.2.4.3-.6.5-1.2.4-1.3-.1 0-.3.4-.6.9m-31.6.9c-.8.8-1.5 3.1-1.1 3.6.2.2 6-1.3 7-1.9.5-.3.2-.5-1.2-1.1-3-1.4-3.8-1.5-4.7-.6m2.8 3.5-4.2 1.3-1.2 2.9c-.6 1.6-1.5 3.3-1.9 3.7-.8.8-2 4.3-2 5.9 0 .6-.4 2-.8 3.1-1.2 3.1-.7 5.3 1 5.3.2 0 0-.3-.5-.6-.9-.7-1.2-2.3-.5-3.4.3-.5.4-.3.4.6 0 1.5.2 1 .6-1.4l.2-1.8 4.5-1.3c1.7-.5 3.5-1 5.2-1.5.7-.2.7 0 .4 2.7-.2 1.9-.1 2.8.1 2.7.6-.4 2.2-6.2 1.9-7-.5-1.1-.2-2.3 1.3-6.2 2.5-6.5 2-7-4.5-5m295.9 3c.1.6.4 1.3.6 1.6.3.4.3.3.1-.4-.1-.6-.4-1.3-.6-1.6-.2-.4-.3-.3-.1.4m-270.7 1.7c-.2.7-.4 1.4-.3 1.4.1.1.4-.4.6-1.1.2-.7.4-1.4.3-1.4-.1-.2-.4.4-.6 1.1m304.3 5.4c-2.4 3.1-2.3 3.4 1.1 2.5 1.9-.5 2.5-1.6 1.9-3.4-.6-1.9-.9-1.8-3 .9M59.5 160c-.4 1.3-.6 2.5-.5 2.6.1.1.5-.9.8-2.3.4-1.3.6-2.5.5-2.6-.1 0-.5 1-.8 2.3m305.6-.3c-.9.4-1 3-.2 4.4.2.4 3.5-.7 3.7-1.2.7-2.3-1.4-4.2-3.5-3.2M37.5 166c-.4 1-.9 1.6-1.3 1.6-.5 0-.5.1-.2.2s.9-.1 1.3-.5c1-.9 1.1.2.1 1.2-.3.3-.4.6-.2.6.6 0 1.1-1.1 1.4-2.9.4-1.9-.4-2.1-1.1-.2m-6.7 1.2c.3.2.5.6.3 1.1-.2.6-.2.6.2.3.6-.6.2-1.7-.5-1.7-.5-.1-.4 0 0 .3m342.1.3c.9.8 1.6 2.9.9 2.9-.2 0-.5-.2-.6-.5-.2-.5.1 2 .4 2.8.5 1.5 1.1.3.9-1.9-.2-2.3-1-4-2-4-.2 0 0 .3.4.7m-7 .3c-3.2.7-4 1.7-3.3 4.4.6 2.8 1.2 3.2 1.2.8 0-1.2.2-2.2.7-2.7.7-.8.7-.8-.2-.1-.5.4-.9 1-.9 1.3 0 .3-.2.5-.4.3-1.6-1 .2-3.1 3.2-3.6 1-.2 2.2-.4 2.6-.6l.8-.3h-.8c-.4 0-1.7.2-2.9.5m-331.7 1.1c.1.6 1.8 1.2 2.1.7.1-.2-.2-.4-.8-.4s-1.1-.2-1.2-.4c-.1-.2-.2-.2-.1.1m155.3 3c-.4 1.2-1.1 3-1.7 3.9-1.5 2.2-1.8 7.6-.6 8.2.7.4.8.2 1.3-1.3.3-.9 1.2-3.2 2.1-5l1.6-3.4-.7-2.1c-.9-2.9-1.2-3-2-.3m28.2-.4c4.1 3.7 3.6 6.6-1.1 7.4-5.2.9-8.5-.3-8.5-3.1 0-4.9 6-7.6 9.6-4.3m42.7-.8c2.6 1.3 4 4.3 2.9 6.7-1.5 3.3-12 2-12-1.4 0-4.1 5.2-7.1 9.1-5.3m-204.1 3.4c-1.8 10.4-2.4 21.3-1.8 32.7.5 8.7.8 10.1 1.9 8.4.8-1.2 1.2-1 1.3.5 0 .7.2 1.7.4 2.1.3.6.3.3.2-1-1.4-13.6-1.1-29.9.8-40.7.3-1.5-.3-1.7-1.4-.4-1.1 1.3-1.3.7-.8-2.3.3-1.5.4-2.8.3-2.9-.2 0-.6 1.6-.9 3.6m51.4-1.3c0 1.1.9 1.6 2.7 1.6 1.9 0 3 1.2 3.5 3.6.4 2 1.6 2.8 4.3 2.8 2.4 0 5.9 2.3 5.9 3.9 0 2-11.2-2.7-14-5.9-2.4-2.7-4.6-6.5-4-6.9.7-.3 1.6.1 1.6.9m-77.8.1c-.6 2.4-.1 3.1 2.4 3.1 1.1 0 1.2-.1 1.5-2.3l.3-1.7h-2c-1.7 0-2 .1-2.2.9M8.1 175c0 .9.1 1.2.2.7s.1-1.2 0-1.6c-.1-.4-.2 0-.2.9m364.8-.3c-.8.6-2.8 2.2-4.4 3.6l-3 2.5-.7-2.8c-1.2-4.5-1.8-3.3-1 1.8.2 1.4.7 2.6 1.1 2.8.5.4.8 1.6 1.1 5.6.6 7.5 1.4 7.8 7.3 2.3l2.1-1.9.1-6.6c.1-5.5 0-6.8-.6-7.5l-.6-.9-1.4 1.1m-346 1.6c-1.1.7-1.5 4.5-.6 4.5.6 0 6.5-3.3 6.5-3.6 0-.7-5-1.4-5.9-.9M7.7 178c0 .8.1 1.1.2.7.1-.4.1-1 0-1.4-.1-.4-.2 0-.2.7m22.6 1.6c-4.4 2.4-4.1 2.1-4.8 5.8-.3 1.7-.8 3.3-1 3.4-.2.2-.6 1.8-.7 3.7-.3 4.7-.1 4.8 6 1.5l4.7-2.5v2.3c0 2.4.6 4.1.9 2.9.6-1.9.6-6 0-7.1-.6-1.1-.6-1.4.1-5.7 1-7.1.6-7.5-5.2-4.3m-23 2.4c0 .8.1 1.1.2.7.1-.4.1-1 0-1.4-.1-.4-.2 0-.2.7m168.8 3c-6.4 6.1-10.2 7.2-27.7 7.7-6.8.2-8.6.4-8 .7 1 .6 8.6 3.2 11.2 3.8 3 .6 3.9 1.2 7.1 4.3 2.6 2.5 7.2 6 7.6 5.7.1-.1.4-1.5.8-3.1 1.4-6.8 1.8-6.6 8.5 2.5 4.4 6.1 5.3 7.3 6.3 9.2 2.9 5.4 1.6 16.7-2.8 25.2-.9 1.7-3.2 9.3-4.2 13.5-1.3 6.1-2.8 13.8-2.8 15 0 .6-.2 1-.4.9-.2-.1-1.1.4-2.1 1.2-4.8 3.8-11.8 4.7-17.5 2.3-3.6-1.5-3.2-1.8-2.7 2.5.5 4.8.2 15.9-.6 18.3-.8 2.5-1.7 2.3 12.3 2.3h12.4v-3.9c0-5.7 3.1-10.9 8-13.5 1.1-.6 1.4-1 1.3-1.6-.1-.4-.7-2.5-1.2-4.6-2.6-9.6.1-18.5 7.5-25.1l2.2-1.9V244c0-5.6 2.3-14.3 4.7-17.9l1-1.5-2.2-2.1c-8.9-8.4-12-19-9.1-30.3l.8-3.1-1.6.8c-.9.4-4.2 2.5-7.3 4.6-8.7 5.7-10.3 5.9-6 .6 7.3-9.1 7.8-9.8 8.2-11.5.5-2.7.6-2.8-3.7 1.4m37.5-1.4c11.1 5.3 16.3 12 8.6 11.1-9.8-1.2-16.3-4.5-16.2-8.5-.1-5.3 1.1-5.7 7.6-2.6m53.2-1.6c.6.9.7 4.8.2 6-1.8 4.3-19.6 8.9-19.6 5-.1-3.7 17.6-13.7 19.4-11M6.9 187.2c0 1 .1 1.4.2.9.1-.6.1-1.2 0-1.8-.1-.5-.2-.1-.2.9m167.6 1.1c0 .5-2.6 3.6-5.5 6.5-2.4 2.5-3.7 4.5-3.7 5.9 0 1.9-.7 1.8-3.2-.5-3.3-3-3.9-3.4-6.8-4.1-1.3-.3-3.3-1-4.3-1.5l-1.9-1 8-.2c8.9-.2 8.3 0 14-3.7 2.8-1.7 3.4-1.9 3.4-1.4m198.5 3.4-2.6 2.1 2.4.1c2.8.1 4-.7 3.5-2.7-.4-1.7-.6-1.6-3.3.5M6.6 200c0 3 .1 4.2.1 2.7.1-1.8.1-3.6 0-5.4-.1-1.4-.1-.2-.1 2.7m363.3-4.8c-.4.2-.4.9-.3 2.3l.3 2 1.7-.2 1.7-.2.1-2.1.1-2.1H372c-.9-.1-1.8.1-2.1.3m-27.2 4.8c0 2.5.1 3.6.1 2.3.1-1.5.1-3.1 0-4.6 0-1.2-.1-.2-.1 2.3m-319.3-.7c-.3 2.2-.2 2.5.6 3.3.9.8.9.8.2 0-.8-1-.9-2.3-.1-3 .8-.6.8-2.8 0-2.8-.2 0-.5.8-.7 2.5m11-.2c0 .6-.2 1.4-.5 1.9-.4.8-.4.8.2.3.6-.5.7-.4.7.3 0 1.2-.6 1.5-5.2 1.7l-4.2.2 4.1.1c5.3.1 7.2-1.5 5.8-4.9-.3-1-.9-.8-.9.4m-8.8 2.7c.2.2 2 .3 4.1.2l3.8-.1-4.1-.2c-2.3-.2-4-.1-3.8.1m72.6.2c-4 1.4-7.4 5.1-10.5 11.3l-1.7 3.4v9c0 9.6.1 10.4 2.4 18.3 1.5 5.1 5 11.5 7.7 13.9.8.7.8.7 1.1-2 .4-3.4 2.4-8.7 4.1-10.5l1.3-1.5-1.2-3.6c-2.4-7.1-2.2-15.2.6-26.7 2.7-11.9 2.2-13.7-3.8-11.6m271.1 1.5c1.4.1 3.5.1 4.8 0 1.3-.1.1-.1-2.5-.1s-3.7.1-2.3.1m-3.5.9c-.7 1.4-.4 4.8.4 4.8.5 0 .4-1.9-.1-2.8-.4-.6-.4-1 0-1.8.6-1.1.3-1.3-.3-.2m11.3.3c.5 1.5.1 3.3-.5 2-.2-.6-.3-.1-.3 1.6l.1 2.4-4.9 2.6-4.9 2.6v-3c0-4.6-.8-4-1.4 1.1-.2 1.8-.1 2.5.4 3.3.7 1.1.4 6.3-.6 8.9-1.4 3.6.8 4.3 5.5 1.8 4.2-2.2 4.7-2.7 5.1-6.3.1-1.3.6-2.8 1-3.4.5-.8.7-2 .8-4.7 0-2 .2-4.7.3-6 .2-1.9.1-2.6-.3-3.2-.7-.9-.7-.9-.3.3m-7 0c.9.1 2.4.1 3.2 0 .8-.1 0-.2-1.7-.2-1.8.1-2.4.2-1.5.2m-366 3.8c-.9.9-2.1 2.1-2.8 2.6-1.1.8-1.1 1-1 3.6.2 6.2 2 21 2.6 21.4.2.1.3.4.3.6 0 .2.1 1.1.2 2l1.3 6.6c.5 2.7 1.1 5.2 1.3 5.4.2.2.8 2.5 1.4 5s1.3 5.1 1.6 5.6c.3.6 1 2.6 1.6 4.6.6 2 1.2 3.8 1.4 4 .2.2.8 1.8 1.5 3.6 1.6 4.2 3.4 8.3 5.4 12.4 2 4 2.1 4.2 2.5 4.2.2 0 .2.4 0 .9-.3.8-.2.8.4.4.5-.4.7-.4.7-.1 0 .7 2.3-.8 3.5-2.3 1.2-1.5 1.1-1.6-1.1-6.3-9.5-20.1-16-45.5-17.7-68.7-.6-8-.6-8-3.1-5.5m24.6-.6c-1 .2-1.1.3-1 1.8l.1 1.7 1.8.1 1.8.1v-2c.2-2.1.2-2.1-2.7-1.7m-3.3 5.2c-.7.7-.9 4-.2 4.4.4.3 1.8-.7 4.8-3.4l1.8-1.6h-2.9c-2.1 0-3 .1-3.5.6m4 2.4-3.6 3-.3 5.3c-.6 10.1.3 11.1 5.5 6.7 4.8-4.1 4.5-4 5.2-1.3.9 3 1.4 3.5 1.4 1.4 0-2.3-.8-5.8-1.4-6.2-.6-.4-1.1-3.2-1.1-7.6-.1-2.6-.2-3.3-.8-3.7-1.1-.9-.9-1-4.9 2.4m276.5 11c0 1.7.1 2.3.2 1.5.1-.8.1-2.2 0-3-.1-.9-.2-.2-.2 1.5m-246.6-1.1c0 .4-.5 1.2-1.1 1.7-1.2 1.1-1.2 1.5-.4 5.4 3.2 15.2 9.4 30.5 18.4 45.3 5.9 9.7 17.1 22.9 25.8 30.3 4.5 3.8 4.1 3.6 5.6 2.9.9-.4 1.4-.5 1.6-.2.2.4 2.3 1.9 3.6 2.7.9.5.1-.2-4-3.6-25.6-20.9-43.4-51.3-49.3-84.3-.1-.6-.2-.7-.2-.2m142.2.7c-.2.2-.9.7-1.4 1.2-.9.7-.8.7.6-.1 2-1.1 1.9-1 1.5-1.3-.1-.1-.5 0-.7.2m170.2 1.8c-3 1.6-3.2 1.9-1.5 2.3 3.6.7 4.8.1 4.8-2.5 0-1.5 0-1.5-3.3.2m-99 2.8c-6.2 3.1-7 6-1.9 7.4 2 .5 2.2 1 .4 1.4-5.4 1.1-4.6 6.6 1 6.6 3.2 0 3.2.1 1.2 1.8-4.3 3.7-1.7 9.4 3.7 8.4 4.6-.9 6.1-14.2 2.4-21.3-2.6-5.3-3.6-5.9-6.8-4.3m94 2c-.1 1.1-.3 2-.5 2.1-.2.1-.5.9-.6 1.7-.2 1.3-.4 1.5-1.3 1.5-1.7 0-2.8 1-3.1 3-.4 2.4-.1 3.1.8 1.5.7-1.4.9-2.3.3-1.9-.6.4-.5-.9.2-1.6.8-.8 1.3-.8 5.6.2 2 .4 3.6.7 3.7.6.2-.2-2.1-.8-4.3-1.3-.9-.2-1.2-.4-1.1-.8.1-.3.2-1.1.2-1.8 0-1.2 0-1.2 1.8-1 1.9.3 2.8-.3 2.6-1.6-.1-.4 0-1 .2-1.3.5-.8.1-1-2.3-1.2l-2.1-.2-.1 2.1m-329.5 1.6c0 .9-.1 1.7-.3 1.9-.2.2 0 .1.4-.3.8-.8 1.3-.3.9.9-.2.8-3.3 2-5.2 2-.7 0-.7.1-.2.5 2.4 2 2.6 4.5.4 5.1-1.7.5-1.9 1.1-1.1 2.9.6 1.2 1.8 1.2 4-.1 1-.6 1.5-2.2.8-2.5-.2-.1-.6-1.4-1-3l-.6-2.9 1.3-.3c1.7-.5 2.5-2 2-3.9-.5-2.1-1.4-2.2-1.4-.3m159.9-1.1c-3.7 5.9-1.7 26.2 3.6 36.8.7 1.4 1.9 4.4 2.6 6.5 2.9 8.7 7.3 11.2 17.5 9.8 7.9-1.1 12.3-.6 13.1 1.4.1.3.2-3.4.2-8.1V271l-2.7-.7c-11.9-3.1-25.4-15.5-26.3-24.2-.1-.6-.4-2.2-.7-3.6-.3-1.4-.6-3.6-.6-4.8v-2.2l-3.2-1.3c-1.9-.7-3.4-1.1-3.5-1m-170.6 1.7c0 .7.2 1.9.4 2.5l.3 1.2v-1.1c0-1.1.1-1.1.7-.4.4.4.5.5.3.2s-.5-1.2-.6-2c-.3-1.8-1.2-2.2-1.1-.4m241.5 4.2c-.4 1-.1 1 .8.1.6-.7.6-.8.1-.8-.4.1-.8.4-.9.7m20 2.1c-.1.4-1.4 2-2.8 3.4-3.1 3.2-3 2.7-.4 5.5l2.1 2.3 2.4-2.5c1.3-1.4 2.8-3.1 3.3-3.8l.9-1.3-1.8-1.2c-1-.7-2.1-1.7-2.6-2.2-.8-.9-.9-.9-1.1-.2m83.8 1.9c0 .4-.2 1.5-.3 2.3-.3 2 .5 2 1 0 .2-.8.3-1.6.2-1.7-.1-.1-.2.1-.2.4 0 .3-.2 0-.4-.6-.1-.8-.2-1-.3-.4m-11.9 3.3c-.4 1.3-.7 3.6-.8 5.1 0 2.3-.3 3.4-1.5 6.2-2.4 5.7-1.8 6.7 3.4 5.2 4.9-1.3 5.8-1.8 6.1-3.1.4-1.7 1.9-4.9 2.2-4.9.5 0 1.9-3.6 2.2-5.5.4-2.4-.2-2.5-5.3-.9-1.7.5-3.3 1-5 1.5-.8.2-.8.2 0-4.6.4-2.2-.5-1.5-1.3 1m-93.3.2c-.2 7.6-14.3 20.5-26 23.8l-2.5.7v7.9c0 4.3-.1 8.1-.1 8.4-.1.3-.1.4 0 .2 1-1.9 5.7-2.3 13.3-1.2 9.6 1.4 14.9-1.5 17.1-9.3.4-1.3 1.8-4.8 3.1-7.8 1.9-4.3 3.9-10.2 3.9-11.7 0-.1-.6-.4-1.2-.5-3.6-.7-5.1-6.1-2.5-9.1.5-.6.4-.7-1.1-.9-.9-.1-2.1-.6-2.5-1.1-1.3-1-1.4-1-1.5.6m-157.3 1.3c-3.9.8-7.5 2.8-8 4.3-2.1 5.9-.1 13.3 4.5 16.7 5.7 4.2 17.9 8.9 17 6.6-.1-.3-.8-2.5-1.4-4.9-.7-2.4-2.2-7.3-3.5-11-1.2-3.6-2.7-7.9-3.1-9.5-1.1-3.2-1-3.2-5.5-2.2m-76.1 1.2c-3.6 1-4 1.7-2.9 4.2.8 1.8 1 1.9 2.2.3.5-.7 1.5-1.9 2.2-2.8 2-2.5 1.9-2.6-1.5-1.7m1.3 3.1-2.9 3.8.6 2.2c.3 1.2.7 3.3.7 4.7.1 2.6 1.9 6.9 2.9 7.2.3.1 1.9-1.8 3.7-4.1 3.8-5 3.3-4.7 4.6-2.1 2 4 2.6 3.7 1.1-.6-.7-2.1-1.4-3.3-2-3.7-.7-.5-1.2-1.6-2-4.1-2-6.9-1.9-6.6-3-6.8-.7-.3-1.2.3-3.7 3.5m155.1 2.9c-5 6.1-6.2 11.9-3.8 18.9 1.5 4.4 2.6 5.8 4.2 5.4 4.6-1.1 7.9-5.5 6.5-8.7-1.5-3.6-4.1-12-4.5-14.8l-.5-3.1-1.9 2.3m90.8-.3c-.3.6-1 2.8-1.5 4.9-.5 2.1-1.5 5.4-2.3 7.4-2.3 5.8-2 7.8 1.3 10.5 4.5 3.7 7.3 1.7 8.9-6.4 1-5.2-.9-11.8-4.7-16.1l-1.2-1.4-.5 1.1m50.1 3.1c-.9 2-.8 2.3.2.4.4-.8.7-1.6.7-1.7-.2 0-.6.5-.9 1.3m34.5 4.6c-.6.2-2.1.6-3.4 1l-2.4.7 1.9 1c2.4 1.2 3.9 1.1 4.6-.4.8-1.7.5-2.7-.7-2.3m-37.7 2.2c-.6 1.2-1 2.2-.9 2.2.3 0 2.3-4.1 2.1-4.2-.1-.1-.6.8-1.2 2m28.3 3.4c-.7 1.8-1.3 3.2-1.5 3.2-.7 0-.2.7.8 1.2 2.6 1.2 3.8 1.6 3.5 1.3-.1-.2-.8-.6-1.4-.9-2.5-1-1.2-4.5 1.3-3.6 1.6.5 2.7.1 2.7-1.2 0-.4.2-.9.5-1.2.6-.6.2-1-1.6-1.6-2.8-.9-3-.7-4.3 2.8m-309.4-.3c.1.5.3 1.4.3 1.9s.1.8.2.5c.3-.8.9-.6.9.4 0 1.3-.9 2-4.5 3.5-1.7.7-3 1.4-3 1.5.1.1 1.2-.3 2.4-.8 2.4-1.1 2.7-1 3.8 1.2.7 1.3.6 1.5-.9 2.2-1.6.8-1.8 1.6-.6 3 .9 1.1 1.7.9 4.2-1 1.3-1 1.4-2 .2-3-.7-.6-2.1-4.5-1.7-4.9.6-.6.5-2.9-.2-4.3-.6-1.3-1.5-1.5-1.1-.2m278 2.7c-.4.9-.7 1.6-.6 1.6.1 0 .6-.7 1-1.6.4-.9.7-1.6.6-1.6-.1 0-.6.7-1 1.6m-288.6.3c.1.7 1.1 3 1.1 2.5 0-.4.2-.4.8.1.7.6.7.5-.1-1.1-.6-1.5-1.9-2.5-1.8-1.5m315.7.9c-.8.4-1.9 2.7-1.9 3.7 0 .9.9.4 1.7-1 .6-1 .6-1.1.1-.7-.5.4-.6.4-.6 0 0-.9.6-1.6 1.8-1.9.8-.2.9-.4.4-.4-.4-.1-1.1.1-1.5.3m-180 3.6c0 .5-.2.7-.4.6-.2-.1-.4-.5-.4-.8s.2-.6.4-.6.4.4.4.8m150.2-.3c-1.4 2.3-1.5 2.5-.8 1.7.8-1 1.5-2.2 1.3-2.2-.1 0-.3.2-.5.5m39.9 1.6c-.1.9-.9 2.7-1.3 2.7-.2 0-.2-.4-.1-.9s-.2-.1-.6.8c-.9 1.9-1 2.5-.5 2.5.6 0 2.9-4.3 2.7-5.1-.1-.7-.1-.7-.2 0m-13.7 1.9c-1.9 3-2.4 4.4-1.9 4.9s-.5 2.6-3.3 6.7c-2.9 4.4-2.5 5.1 3.1 4.9 5.2-.2 5.1-.1 7.1-3 .9-1.4 2.2-3 2.9-3.7 1.4-1.3 2.8-3.9 3-5.4l.1-1-4 .1c-2.2.1-4.8.2-5.8.3-1.6.2-1.7.2-1.4-.5 2.1-4.7 2.2-6.4.2-3.3m-176.8-.6c0 .3-.2.6-.4.6s-.4-.3-.4-.6.2-.6.4-.6.4.3.4.6M48.4 285c-2.3 4.8-2.3 4.8-.8 7.9.7 1.3 1.2 2.8 1.2 3.3 0 1.1 2.9 5.8 3.8 6.1.3.1.7.7.8 1.3.1.6.6 1.5 1.1 2.1.6.7.7.8.5.3-.2-.7-.2-.7.6-.3.5.3 1.3.4 1.8.3.8-.1.7-.2-.2-.2-.7 0-1.5-.5-2.3-1.6l-1.2-1.5 2.4-4.9c1.3-2.7 2.5-4.8 2.7-4.6.2.2 1 1.2 1.8 2.3 1.9 2.4 2.6 2.1 1.2-.4-1.6-2.8-3-4.5-3.4-4.2-.6.4-1.7-1.2-3.6-5-3.1-6.5-3.7-6.6-6.4-.9m-2.5-2.1c-2.6 1.4-3.1 2.9-1.5 4.9 1.2 1.5 1.2 1.4 2.9-2.1 2.2-4.5 2.2-4.6-1.4-2.8m123.7 1.5c-.1.4-.2.1-.2-.7 0-.8.1-1.1.2-.7.1.4.1 1 0 1.4m145.2.6c-1.3 1.8-1.3 1.9-.3.7 1.2-1.3 2.2-2.8 1.9-2.8 0 0-.7.9-1.6 2.1m-194.5.7c-.9 1-1.7 1-2.9.2-2.8-2-10.7 6-9.3 9.4.9 2.1 3.8 3.4 9 3.9l2.8.3.5-2.7c.3-1.6 1.1-3.9 1.9-5.4 2-3.8 2.3-5.5.9-5.5-.6 0-1.1-.2-1.3-.4-.4-.8-.8-.7-1.6.2m191.5 3.3c-.7.9-1 1.4-.6 1.1.7-.6 2.4-2.8 2.2-2.8-.2 0-.9.8-1.6 1.7m-174.2-1.1c-.1.1-2 .3-4.2.4-2.2.1-4.2.3-4.6.4-1.1.4-3 .8-3.3.7-.5-.1-1.8 2.1-2.1 3.4-.2.7-.4 1.2-.6 1.1-.2-.1-.2.2-.1.7.2.6.1.8-.2.6-.3-.2-.4.1-.2 1 .2 1 .1 1.2-.2.7-.3-.5-.4-.2-.4 1.1 0 1.2.1 1.6.5 1.4.3-.2.4 0 .2.6-.1.6-.1.8.2.6.3-.2.3 0 .2.4-.2.6-.1.6.5.2.6-.4 1.1-.3 2.5.4 9.1 4.5 18.5.3 19.8-8.9.3-1.9-.4-4.1-1.1-3.6-.2.1-.3.1-.3-.1 0-.4-1.1-.5-4.4-.5-1.7 0-2-.1-1.2-.4.9-.3.9-.3.2-.4-.6 0-1.1.1-1.2.2m170 6c-1.5 1.7-2.6 3-2.4 3 .3 0 1.8-1.7 4.4-4.7 2-2.5.7-1.3-2 1.7m39 1.8-3.4.2 1.6 1.3c2.2 1.8 4.3 1.8 5.2.1.7-1.3.8-2.1.3-1.9-.2 0-1.8.1-3.7.3m-6.8.8c-.3.5-.6.9-.9 1.3-.3.3-1 1.3-1.6 2.2-.6.9-1.3 1.7-1.5 1.7-.2 0 1 1 2.7 2.3 3.1 2.3 5.5 3.8 3.2 2-.8-.6-1.6-1.3-2.4-2l-1.3-1 .7-1.4c.8-1.6 1.1-1.7 2.7-.8 2.2 1.3 4.6-1.7 2.7-3.2-1.9-1.5-3.9-1.9-4.3-1.1m-276.9 1.2c0 .3.3 1.3.6 2.2.4 1.1.6 1.3.6.7 0-1.1.7-1.2 1 0 .3 1.3-.3 2.1-2.9 3.9-1.3.9-2.4 1.7-2.4 1.8 0 .2.5-.1 2.2-1.2l1.2-.8 1.4 1.5 1.4 1.5-1.3 1.1c-1.5 1.3-1.6 2-.3 3.1s1.1 1.2 3.5-1.2l2-2-.9-1.1c-2.8-3.4-3.4-4.5-3.3-5.8.1-1-.2-1.7-1.3-2.9-1-.7-1.5-1.2-1.5-.8m239.3 2.2c-2.2 2.3-7.5 7.1-13.6 12.3l-1.8 1.5 2-1.5c4.9-3.7 17-15 16.2-15-.2.1-1.4 1.3-2.8 2.7m30 3.3c-2 2.5-1.6 3.3.6 1.3.9-.8 1.1-1.2.8-1.2-.8 0-.8-.7.1-1.2.4-.2.5-.4.2-.4-.2 0-1 .7-1.7 1.5m-298.8 1.1c-1 1-2.1 1.7-2.4 1.5-.3-.1-.3-.1-.2.1.2.2.1.6-.2.9-.4.5-.3.7.2 1 .4.2.7.6.7 1 0 .3.2.6.4.6s.4.2.4.4c0 .4 1.6 2.8 5.7 8.6.9 1.3 1.8 2.5 1.9 2.6.1.1 1.3 1.6 2.6 3.4 1.3 1.8 2.8 3.7 3.3 4.2.5.6 1.6 1.8 2.4 2.8.8 1 2.9 3.2 4.5 4.9 1.7 1.7 3.1 3.3 3.1 3.5.3.2 10.2 9.6 13.2 12.2 5.6 4.9 13.5 10.9 14.2 10.9.2 0 .4.2.4.3 0 .4 9.9 6.9 12.6 8.4.9.5 2.3 1.3 3.2 1.9.9.5 1.9 1.1 2.2 1.3.3.1.9.5 1.3.9.4.3.7.4.7.2s.1-.2.3.1c.4.5 3.8 1.9 3.5 1.4-.3-.4 2-2.8 3.1-3.4 1.3-.7 1.3-1.7-.1-2.1-1.9-.6-9.3-5.1-16.6-9.9-17.4-11.5-33.3-26.3-48.2-45-.6-.8-2.8-3.7-4.8-6.6-1.5-2.2-3.1-4.3-4.6-6.5l-1-1.3-1.8 1.7m295.1 3.5c-1.8 2.1-2.6 3.5-2.4 4.4.1.5-1.2 2-3.5 4.3-2 2-3.6 3.9-3.6 4.3 0 .9 1 2 1.9 2 .4 0 2.3.3 4.3.5l3.6.5 2.4-2.3c1.3-1.3 2.6-2.3 2.8-2.3.7 0 4.5-4.3 4.7-5.3.1-.6.6-1.1.9-1.2.4-.1 1.2-.9 1.8-1.7.9-1.2 1-1.3.2-.7l-.9.8.3-1c.3-1-.4-.3-2 2.1-.4.6-10.1-.3-10.8-1-.1-.1.4-1.2 1.2-2.5 2.2-3.3 1.6-3.8-.9-.9m-258.7 2.8c-.2.3-.8 2.4-1.4 4.9l-1.1 4.4 1.5 1.8c2 2.4 2.9 3.8 2.6 4.1-.4.4 4.5 5.1 5.2 5.1.4 0 .6.2.6.5s.6 1.2 1.4 2.1c.8.9 1.2 1.2 1 .7-.4-.8-.4-.9.7-.8.6.1.8.1.5-.1s-1.2-.7-2-1.3l-1.4-1.1 1.3-5.1c1.6-6.1 1.3-5.8 3.7-3.8 1.1.9 2.1 1.6 2.3 1.6.2 0 .9.9 1.5 1.9.9 1.6 1.1 1.8 1.1.9 0-1 0-1 .6-.2.5.7.6.7.6.1 0-.4-.7-1.2-1.5-1.8-1.4-1.1-4.5-4.2-5.5-5.6-.3-.4-1-.7-1.6-.7-1.1 0-2-1-7.2-7.1-1-1-2.4-1.3-2.9-.5M66 313c-2.6 2.1-2.8 2.7-1.4 4.6 1.6 2.1 2.2 1.7 3.1-2 1.1-4.6.9-4.8-1.7-2.6m218.9 1.9c-.8.7-1 1-.6.8.8-.4 2.5-2.1 2.1-2.1 0 .1-.7.7-1.5 1.3m-170.5-.3c.6.7 2 1.7 2 1.3 0-.1-.6-.6-1.3-1.1-.9-.6-1.1-.7-.7-.2m164.5 4.4c-6 4.1-5.9 4-4.7 3.4 2.1-1 10.1-6.5 9.1-6.3-.1 0-2.1 1.3-4.4 2.9m36.1 5.9c-2.1 2-2.7 2.4-3.9 2.4-1.1 0-1.7.3-2.9 1.6-.8.9-1.9 1.8-2.3 2.1-2.7 1.5-4.9 3.6-5 4.6-.1 1-2.4 2.9-7.2 5.9-1 .7-1.3 1.1-1.3 2.2v1.3l4.4 1.6 4.4 1.6 2.8-1.8c1.6-1 3.1-1.8 3.5-1.8.8 0 4.6-2.8 5.5-4 .8-1.1.8-1.1-5.2-3.2-5.4-1.9-5.2-1.6-3-3.7 1-.9 1.9-1.9 2.1-2.3.4-.6 2.6-1.8 4-2.1.6-.1.5-.2-.3-.2-1 0-1.1-.1-.7-.6 1-1.2 2.1-.6 4.7 2.1 1.4 1.5 2.2 2.1 1.7 1.5-.5-.7-1.1-1.5-1.4-1.7-.5-.4-.5-.6 0-1.5 1.1-1.7 2.1-2 3.3-.8 1.4 1.3 1.6 1.3 3-.2l1.2-1.3-1.8-1.6c-2.9-2.7-2.8-2.7-5.6-.1m-44.4-.7c-1.2.7-2.1 1.3-2.1 1.4 0 .2 2.8-1.2 3.8-2 1.3-1 .6-.8-1.7.6m50.8-.2c0 .6 3.2 3.8 3.9 3.8.7 0 2.9-2.1 2.9-2.7 0-.2-.8-.5-1.7-.6-.9-.1-2.5-.4-3.4-.5-1-.3-1.7-.2-1.7 0m-56.9 3.5c-1.4.7-2.5 1.4-2.3 1.4.4 0 5.1-2.3 5.1-2.6 0-.3.1-.3-2.8 1.2m-179 4c-2.9 3.4-3 3.5-.8 1.3l2.4-2.3 1.7 1.3c1 .7 1.6 1.4 1.4 1.5-2 1.4-2.2 3.4-.5 4.3 1.5.8 1.4.8 2.4-.9.5-.8 1.3-2 1.9-2.5l1-1-1.5-1.2c-.9-.7-1.7-1.4-2.5-2.2-2.3-2.2-2.1-2.3-5.5 1.7m172.6-1c-.8.4-1.2.8-1 .8s1-.3 1.8-.8c.8-.4 1.2-.8 1-.8s-1 .4-1.8.8M83.2 332l-1.4 1.5 1.5-1.4c1.4-1.3 1.7-1.6 1.4-1.6l-1.5 1.5m167.9 1.4c-2.2.9-3 1.4-1.4.9 1.5-.5 4.3-1.7 3.8-1.7-.2 0-1.3.3-2.4.8m66.6 1.6c.1.8-.1 1.5-.5 2-1 1.1-1.5 1-1-.1.3-.6 0-.4-1.1.6-2.6 2.5-.6 2.3 2.1-.2.9-.8 1.2-2.8.6-3.2-.1-.3-.2.2-.1.9m-222.8 0c-.6.6-.7 10.3-.1 10.3.2 0 1.9 1.5 3.9 3.4 3.3 3.2 5.8 5 7.1 5 .3 0 .7.2.8.6.1.3.8 1 1.5 1.5.9.6 1.1.7.8.3-.5-.6-.4-.7.8-.5.7.1 1.1.1.7 0-.3-.1-1.4-.6-2.3-1.1l-1.7-.9.3-5.2c.3-6.1.1-5.8 2.6-4.5 4 2.2 4.4 1.1.5-1.5-2-1.4-3-1.8-3.6-1.6-.9.3-2.6-.8-6.9-4.3-2.5-2-3.5-2.4-4.4-1.5m147.2 1.5c-1.2.4-2 .8-1.9.8.5.1 4.7-1.2 4.7-1.4 0-.3-.4-.2-2.8.6m-150.4 1.8c-2.3 2.5-2.2 4.4.3 5.4 1.6.7 1.7.6 1.6-3.4 0-4.3.1-4.2-1.9-2m137 1.6c-1.1.3-1.6.5-1.2.5.4 0 1.7-.2 2.8-.5 1.1-.3 1.6-.5 1.2-.5-.4 0-1.7.2-2.8.5m-36.1 2.9c.8.1 2.2.1 3 0 .8-.1.2-.2-1.5-.2s-2.3.1-1.5.2m12 0c1.3.1 2.5.1 3.8 0 1-.1.2-.2-1.9-.2-2.1.1-2.9.1-1.9.2m84.9 1.4c-.4.2-.9.5-1 .7-.5.7-4.9 2.8-5.5 2.7-.8-.2-4.5 1.5-4.5 2.1 0 .5.9.5 2.2-.1.8-.4 1.2-.3 2.1.2.6.4.9.5.8.2-.2-.3-.9-.7-1.5-1-1-.4-1.1-.6-.6-.8 1.1-.4 2.5.1 3.1 1.2l.5 1 1.4-1c1.8-1.3 2.2-1.2 3.3.2 1 1.4 1.3 1.5 3 .4 1.5-.9 1.4-1.3-1.2-4.6-1.1-1.3-1.4-1.5-2.1-1.2m-176.6 1c0 .2.4.7 1 1.3.5.5 1.1 1.3 1.1 1.8.1.5.1.3 0-.4-.1-1.4.2-1.6.9-.8.7.7.6 2.5-.2 3.6-1.5 2-2.7 4.2-1.8 3.4.4-.4 1-1.3 1.3-1.9.6-1.4.2-1.5 4.1.5l3.3 1.6.9-1.1.9-1.1-.9-.4c-.5-.2-1-.5-1.1-.6-.1-.1-1.3-.8-2.5-1.4-1.3-.6-2.8-1.7-3.3-2.4s-1.5-1.5-2.2-1.7c-1.5-.8-1.5-.8-1.5-.4m181.3 3c1.4 2.6 2.5 3.1 4.3 2.1 2.1-1.1 1.8-1.7-1.3-2.8-3.9-1.4-4.1-1.3-3 .7m-20 3.3c-2.1 1-2.9 1.6-2.9 2.1 0 .9-2.8 2.3-6.9 3.7-4.8 1.6-4.7 2.9.5 6.2 4.2 2.6 3.9 2.5 7.2 1.2 1.4-.6 3-1 3.6-1 2 0 6.8-2.4 6.9-3.5 0-.3-2.1-1.8-4.7-3.4l-4.7-2.9 2.4-1.5c4.1-2.5 3.3-3-1.4-.9m12.4 1.7c.7 1.4 1.4 2.4 1.5 2.3.2-.2-1.3-3-2.1-4-.4-.4-.1.3.6 1.7m-167.9 1.4c-.4.9-.6 1.8-.4 2 .2.4 3 1.4 3.1 1.1 0-.1.3-.5.6-1 .8-1.4.6-1.8-1.1-2.8l-1.6-.9-.6 1.6m5.9-.6c-.1.4.1 2.7.5 5.1l.7 4.5 3.1 1.7c1.7.9 3.1 1.8 3.1 2 0 .5 2.9 1.9 5 2.4 1.1.3 2.8.9 3.9 1.5 2.1 1.1 2.9 1.3 1.7.4-.7-.6-.7-.6.5-.6.7 0 1.4-.2 1.5-.4.1-.2-.2-.3-.8-.2-1.7.3-4.4-.7-4.5-1.7 0-.5-.4-2.8-.9-5.2-.9-5.2-1.2-4.8 2.4-3.9 2.7.7 2.9.7 2.7.1-.2-.9-6.7-3.2-7.1-2.5-.4.6-2.9-.3-6.7-2.4-3-1.6-4.7-1.9-5.1-.8m-2.5 3.8c-1.8 3.1-1.6 4.1 1.1 5.2 1.8.7 1.9.5 1.3-3.1-.7-4.5-.9-4.7-2.4-2.1m163.1.4c-.7.4-1.5.9-1.8 1.1s-.5.5-.3.6c.3.3 3.8-.9 4.2-1.5.2-.3-.1-.2-.6 0-1.2.7-1.5.5-.7-.4s.7-.8-.8.2m-28.1 1.7c-1.2.8-5.3 1.9-6.3 1.6-1.2-.3-4.1.7-4.2 1.5-.1.4.3.5 1.8.4 1.1-.1 1.7-.2 1.4-.3-.9-.3-.6-.9.5-.9 1.3 0 1.6.5 2.8 4 .9 2.7 1 2.6.4-.6-.2-1.2-.2-1.2 2.5-2.1 3.7-1.2 3.9-1.3 3.6-2.8-.4-1.5-1.2-1.7-2.5-.8m-112.9.2c.1.2.8.8 1.5 1.3.8.5 1.2.6 1.1.4-.4-.7.7-.6 1.3.1.5.6.3 1.8-.6 4.9-.1.4.1.2.4-.4.4-.7.7-1.3.8-1.4.1-.1 1.4.2 3 .7 1.6.5 3.1 1 3.4 1 .4.1 1.7-1.8 1.7-2.5 0-.1-.6-.2-1.4-.4-.8-.1-1.4-.4-1.4-.6 0-.2-1-.5-2.3-.8-1.3-.3-2.6-.8-2.9-1.1-1.1-.9-4.9-1.9-4.6-1.2m115.5 2.4c0 .2-.6.5-1.4.6-1.6.3-1.7.7-.6 2.5.7 1.1.9 1.2 1.7.9.5-.2 1.1-.4 1.6-.6.7-.2.7-.6-.2-2.8-.2-1-1.1-1.3-1.1-.6m2 .3c0 3.1 2.4 5.6 4.5 4.7 2.1-.9 2.1-1.2-.4-2.8-3.2-1.8-4.1-2.3-4.1-1.9m-19 .7c-1.1.3-2.5.6-3.1.8-.7.2-1.1.5-1.1 1 0 .8-1.7 1.3-7.2 2-5.3.7-5.5 1.9-.7 6.4l3.1 2.9 2.3-.3c1.3-.2 3.6-.3 5.1-.4 7.7-.1 8.3-1.2 3.4-6-3.4-3.3-3.9-4-3.3-4.3 6.1-2.4 6.9-3.5 1.5-2.1m-84.6 2.1c-1.7 1.2 1.7 9.9 4 10.4 2.1.4 4.9 1.4 5.6 2 .6.5 5.8 1.5 6.9 1.3.3-.1 1.4.1 2.4.4 1.1.3 2 .4 2.2.3.1-.1-.1-.3-.5-.3-.6 0-.6-.1-.2-.3.4-.2.1-.4-.9-.6-.8-.2-1.6-.2-1.8-.1-.2.1-1.2-2.1-2.3-4.9l-2-5.1 3-.1c2.1-.1 2.9-.3 2.8-.6-.2-.6-7.2-1.7-7.4-1.1-.3.8-4.2.2-9.5-1.5-1.2-.3-1.6-.3-2.3.2m-6.2 1.9c-.8 2-.4 2.8 1.8 3.2 1.5.3 1.5.3 1.7-1.4.3-2 .4-1.9-1.7-2.2-1.2-.2-1.5-.1-1.8.4m25.8.6c0 .2.5.6 1.1.8.6.2 1.5.6 1.9.9.7.4.7.4.2-.3-.7-.8-.4-1.2.5-.8 1 .4 1.4 1.7 1 4.2-.2 1.2-.3 2.7-.3 3.4v1.2l.3-1.2c.2-.7.3-2 .4-3 0-1.7.1-1.7 1.2-1.5.7.1 2.4.4 3.8.5l2.6.3.4-1.4c.3-1.3.3-1.4-1-1.5-.7-.1-1.3-.3-1.3-.5s-1.1-.4-2.5-.4-3.2-.3-4.1-.6c-1.9-.5-4.2-.6-4.2-.1m43.7.2c-2.3.3-4.4.3-4.8.2-1.2-.4-4.1.1-4.1.7 0 .7 2.3.8 2.5.1.3-.9 2.3 0 2.8 1.3.4 1.2.4 1.2 2.7 1 5.3-.6 5.2-.5 5.3-2.3.1-.9.1-1.5-.1-1.5-.1 0-2 .2-4.3.5M156 370c-1 2.9-.9 4.4.3 4.9 2.3.9 4.2.2 3-1-.2-.2-.8-1.5-1.3-2.8-1.2-3.2-1.3-3.3-2-1.1m51-1.1c-1.7.2-2.7.5-3 1-.5.7-1 .7-5.7.5-7.3-.4-7.6.1-3.7 5.8 2.6 3.9 2.6 3.8 6.8 4.1 1.4.1 3.1.4 3.7.7 1.1.5 5.7.2 6.7-.4.7-.4.4-.9-2.8-5.5-3-4.4-3.1-4.2.2-4.8 3-.6 3.5-.8 2.6-1.4-.7-.4-1.1-.4-4.8 0m16.4 2.9c-.8.3-.9.5-.6 1.9.3 1.9.2 1.8 2.4 1.5l1.8-.3-.3-1.5c-.3-1.8-.9-2.5-1.4-1.7-.3.4-.4.4-.4.1 0-.5-.2-.6-1.5 0m4.1 2.2c.4 3.4.7 3.8 2.8 3.8 2.9 0 2.9-.7-.2-3.6l-2.8-2.6.2 2.4m22.3-1.1c-.5.2-.9.6-.9.8 0 .3.3.4.9.2.6-.1 1.1-.2 1.7-.3.4 0 .6-.1.3-.2s-.4-.4-.3-.6c.3-.4-.5-.3-1.7.1m-62.9 1.6c0 1.8.4 2.3 2.3 2.3 1.2 0 1.3-.1 1.5-1.5.3-1.9.4-1.8-1.9-2.1l-1.9-.3v1.6m31.3 0c0 .8.1 1.1.2.7.1-.4.1-1 0-1.4-.1-.3-.2 0-.2.7m-26.5 0c-1.4 2.7 0 6 2.6 6 2.1 0 2-.5-.1-3.8-1.8-2.7-2.1-2.9-2.5-2.2m25.3 1.4c0 .9.1 1.2.2.7s.1-1.2 0-1.6c-.1-.4-.2.1-.2.9m-3.4 3.7c-1.1.2-1.5.9-.6 1 2.1.3 2.7.2 2.5-.3-.1-.3 0-.6.3-.7.6-.2-.6-.2-2.2 0" style="fill-rule:evenodd;clip-rule:evenodd;fill:#eaa118"/></svg>