<svg xmlns="http://www.w3.org/2000/svg" xml:space="preserve" id="Layer_1" x="0" y="0" style="enable-background:new 0 0 226.1 226.1" version="1.1" viewBox="0 0 226.1 226.1"><style>.st0{fill:#e4232d}.st0,.st1{display:none}.st2{display:inline}.st2,.st5,.st6{fill:none;stroke:#fff;stroke-width:1.438}.st6{fill:#fff}.st8{display:inline;fill:red}.st9{display:none}.st10,.st9{fill:#e3242d}</style><path d="M43.9 112.9V94.3h59.8V75.2H43.9V56.7h138.2v18.6h-59.8v19.1h59.8V113h-59.8l60.1 89.4c26.6-20.7 43.7-53 43.7-89.3C226.1 50.6 175.5 0 113.1 0 50.6 0 0 50.6 0 113.1c0 36.3 17.1 68.6 43.7 89.3l60.1-89.4c0-.1-59.9-.1-59.9-.1z" class="st10"/><path d="M59.2 212.5c16 8.7 34.3 13.6 53.8 13.6s37.8-4.9 53.8-13.6L113 132.3l-53.8 80.2z" class="st10"/></svg>