<svg xmlns="http://www.w3.org/2000/svg" xml:space="preserve" id="Layer_1" x="0" y="0" style="enable-background:new 0 0 28.4 28.1" version="1.1" viewBox="0 0 28.4 28.1"><style>.st0{fill-rule:evenodd;clip-rule:evenodd;fill:#050505}</style><path d="M26 10c-1.5-.8-3.3-.8-4.7 0l-7.1 4.1 7.1 4.1c1.5.8 3.3.8 4.7 0 1.5-.8 2.4-2.4 2.4-4.1 0-1.7-.9-3.3-2.4-4.1zM2.4 10C.9 10.8 0 12.4 0 14.1c0 1.7.9 3.2 2.4 4.1 1.5.8 3.3.8 4.7 0l7.1-4.1L7.1 10c-1.5-.8-3.3-.8-4.7 0zM10.1 25.8c.8 1.5 2.4 2.3 4.1 2.3 1.7 0 3.3-.9 4.1-2.3.8-1.5.8-3.2 0-4.7l-4.1-7-4.1 7c-.8 1.5-.8 3.2 0 4.7zM18.3 2.3C17.5.9 15.9 0 14.2 0c-1.7 0-3.3.9-4.1 2.3-.8 1.5-.8 3.2 0 4.7l4.1 7 4.1-7c.8-1.4.8-3.2 0-4.7z" class="st0"/></svg>