<svg xmlns="http://www.w3.org/2000/svg" xml:space="preserve" id="Layer_1" x="0" y="0" style="enable-background:new 0 0 1000 1000" version="1.1" viewBox="0 0 1000 1000"><style>.st1{fill:#fff}</style><linearGradient id="SVGID_2_" x1="0" x2="1000" y1="500" y2="500" gradientTransform="matrix(1 0 0 -1 0 1000)" gradientUnits="userSpaceOnUse"><stop offset="0" style="stop-color:#ffa50d"/><stop offset="1" style="stop-color:#fe5413"/></linearGradient><path id="SVGID_1_" d="M500 0c276.1 0 500 223.9 500 500s-223.9 500-500 500S0 776.1 0 500 223.9 0 500 0z" style="fill:url(#SVGID_2_)"/><path id="SVGID_4_" d="M692 347c-6.3 7.5-5.9 24.1-16 19 0 0-70.3-26.9-27-106 11.7-18.3 23.8-19.5 22-64 10.8 16.4 46.2 49.3 49 101 2.8 34.5-17.8 39.1-28 50z" class="st1"/><path id="SVGID_5_" d="M636 470c17.3-5.8 45.3-15 47-74 26.7 40.9 117.3 98.3 74 274-17.6 68.5-83.2 101.8-145 127-38.6 16.4-78 43.8-94 85 0 0-292.1-36.9-283-327 7.3-150.5 148.3-208 208-318 31.8-69.4 21-139 21-139s186 115.7 102 294c-27.3 63 37.9 84.3 70 78z" class="st1"/><linearGradient id="SVGID_3_" x1="349" x2="652" y1="622" y2="622" gradientUnits="userSpaceOnUse"><stop offset="0" style="stop-color:#ffa50d"/><stop offset="1" style="stop-color:#fe5413"/></linearGradient><path id="SVGID_6_" d="M349 522v97h103v103h97V619h103v-97z" style="fill:url(#SVGID_3_)"/></svg>