<svg xmlns="http://www.w3.org/2000/svg" xml:space="preserve" id="Layer_1" x="0" y="0" style="enable-background:new 0 0 20.2 24" version="1.1" viewBox="0 0 20.2 24"><style>.st0{fill:#178dd0}</style><path d="M.3 12.7c.1-.7.1-1.1.5-1.4.3-.3.7-.2 1.4-.1.4 0 1 .1 1.6.2.6.1 1.1.2 1.6.4.7.2 1 .4 1.5 1s.5 1.2.5 2.3v7.5c0 .7 0 1.1-.2 1.3-.3.1-.7.1-1.4.1H2.9c-1.2 0-1.7 0-2.2-.4-.4-.4-.5-.9-.6-2-.1-1.1-.2-2.4-.2-4 .1-2 .2-3.7.4-4.9zM19.9 12.7c-.1-.7-.1-1.1-.5-1.4-.3-.3-.7-.2-1.4-.1-.4 0-1 .1-1.6.2-.6.1-1.1.2-1.6.4-.7.2-1 .4-1.5 1s-.5 1.2-.5 2.3v7.5c0 .7 0 1.1.2 1.3.2.2.6.2 1.3.2h2.9c1.2 0 1.7 0 2.2-.4s.5-.9.6-2c.1-1.1.2-2.4.2-4 0-2.1-.1-3.8-.3-5zM.3 3.2C.3 1.9.3 1.3.7.9 1.1.5 1.7.4 3 .3 4.8.2 7.4 0 10.2 0s5.4.2 7.3.3c1.2.1 1.9.1 2.3.6.4.4.4 1.1.4 2.3v.6c0 1.3 0 1.9-.4 2.3-.4.4-1 .5-2.2.6-1.8.2-4.4.3-7.4.3-2.9 0-5.5-.1-7.3-.3-1.2-.1-1.8-.1-2.2-.5C.3 5.7.3 5.1.3 3.8v-.6z" class="st0"/></svg>