<svg xmlns="http://www.w3.org/2000/svg" xml:space="preserve" id="Layer_1" x="0" y="0" style="enable-background:new 0 0 50 50" version="1.1" viewBox="0 0 50 50"><style>.st0{fill:#1d972f}.st2{fill-rule:evenodd;clip-rule:evenodd;fill:#fff}.st4{fill:#fec91d}.st8{stroke-linecap:round;stroke-linejoin:round}.st18,.st8{fill:none;stroke:#050000;stroke-width:.8163}.st22{fill:#fff}.st23{fill:#050000}.st24{fill:none;stroke:#050000;stroke-width:1.6327;stroke-linecap:round;stroke-linejoin:round}</style><circle id="path-1" cx="25" cy="25" r="25" class="st0"/><g id="edit-group-10-Clipped"><defs><filter id="Adobe_OpacityMaskFilter" width="39.7" height="62.2" x="5.2" y="4.1" filterUnits="userSpaceOnUse"><feColorMatrix values="1 0 0 0 0 0 1 0 0 0 0 0 1 0 0 0 0 0 1 0"/></filter></defs><mask id="mask-2_00000091705656252258425660000000787210855926554258_" width="39.7" height="62.2" x="5.2" y="4.1" maskUnits="userSpaceOnUse"><g style="filter:url(#Adobe_OpacityMaskFilter)"><circle id="path-1_00000052064544253088881570000002472190182971880112_" cx="25" cy="25" r="25" class="st2"/></g></mask><g id="edit-group-10" style="mask:url(#mask-2_00000091705656252258425660000000787210855926554258_)"><g id="edit-group" transform="translate(5.612 4.388)"><path id="Fill-1" d="M30.1 49.7c2.2-3.8-1.9-4.2-1.9-4.2s0 5.3 1.9 6c1.9.7 3.1-1 3.1-1-.6-2.6-3.1-.8-3.1-.8" class="st4"/><g id="Fill-3-Clipped" transform="translate(9.358 36.569)"><defs><filter id="Adobe_OpacityMaskFilter_00000090291412630898755070000008958523855790815631_" width="25.2" height="25" x="0" y="0" filterUnits="userSpaceOnUse"><feColorMatrix values="1 0 0 0 0 0 1 0 0 0 0 0 1 0 0 0 0 0 1 0"/></filter></defs><mask id="mask-4_00000116917371200868130200000015472001115774130058_" width="25.2" height="25" x="0" y="0" maskUnits="userSpaceOnUse"><g style="filter:url(#Adobe_OpacityMaskFilter_00000090291412630898755070000008958523855790815631_)"><path id="path-3_00000012474270701329803900000014022945633564367778_" d="M2.8 0S0 8.9 0 12.4s1.7 9.9 1.7 9.9-1.4 1.2-.5 2.7H8l.9-6.1h2l.8 3.7c-1.2 1.7.2 2.4.2 2.4h6.8l.6-6.4s4.6-.5 6-4.2c-2.4 0-6.1-2.7-6.4-3.8C18.5 9.5 17 0 17 0H2.8z" class="st2"/></g></mask><path id="Fill-3" d="M2.8 0S0 8.9 0 12.4s1.7 9.9 1.7 9.9-1.4 1.2-.5 2.7H8l.9-6.1h2l.8 3.7c-1.2 1.7.2 2.4.2 2.4h6.8l.6-6.4s4.6-.5 6-4.2c-2.4 0-6.1-2.7-6.4-3.8C18.5 9.5 17 0 17 0H2.8z" style="mask:url(#mask-4_00000116917371200868130200000015472001115774130058_);fill:none"/></g><g transform="translate(9.358 36.569)"><linearGradient id="Stroke-5backup_00000085945113927732270020000004160525258243195534_" x1="-184.459" x2="-184.459" y1="388.315" y2="388.077" gradientTransform="matrix(25.2453 0 0 -24.9737 4669.348 9716.67)" gradientUnits="userSpaceOnUse"><stop offset="0" style="stop-color:#44c423"/><stop offset="1" style="stop-color:#b6e43f"/></linearGradient><path id="Stroke-5backup" d="m11.6 22.6-.8-3.7h-2L8 25H1.2c-.9-1.5.5-2.7.5-2.7S0 16.9 0 13.4 2.4 0 2.4 0h14.1s2.2 9.5 2.5 10.6c.9 3.2 3.8 3.8 6.2 3.8-1.4 3.7-6 4.2-6 4.2l-.4 6.4h-7.2s-.8-.8 0-2.4z" style="fill:url(#Stroke-5backup_00000085945113927732270020000004160525258243195534_)"/><path id="Stroke-5" d="m11.6 22.6-.8-3.7h-2L8 25H1.2c-.9-1.5.5-2.7.5-2.7S0 16.9 0 13.4 2.4 0 2.4 0h14.1s2.2 9.5 2.5 10.6c.9 3.2 3.8 3.8 6.2 3.8-1.4 3.7-6 4.2-6 4.2l-.4 6.4h-7.2s-.8-.8 0-2.4z" class="st8"/></g><g transform="translate(20.52 41.071)"><g id="Fill-11-Clipped"><defs><filter id="Adobe_OpacityMaskFilter_00000004512469651614653940000009337777335112049314_" width="6" height="6.6" x="0" y="0" filterUnits="userSpaceOnUse"><feColorMatrix values="1 0 0 0 0 0 1 0 0 0 0 0 1 0 0 0 0 0 1 0"/></filter></defs><mask id="mask-7_00000152257679461119298200000009922484166457955468_" width="6" height="6.6" x="0" y="0" maskUnits="userSpaceOnUse"><g style="filter:url(#Adobe_OpacityMaskFilter_00000004512469651614653940000009337777335112049314_)"><path id="path-6_00000124880448567688753190000008423625983864465792_" d="M.9 6.6C3.2 7.4 6 2 6 2L1.7 0S-1.5 5.7.9 6.6" class="st2"/></g></mask><path id="Fill-11" d="M.9 6.6C3.2 7.4 6 2 6 2L1.7 0S-1.5 5.7.9 6.6" style="mask:url(#mask-7_00000152257679461119298200000009922484166457955468_);fill:none"/></g><g id="Fill-11backup-Clipped"><defs><filter id="Adobe_OpacityMaskFilter_00000064334655208733307150000001637460838556969617_" width="6" height="6.6" x="0" y="0" filterUnits="userSpaceOnUse"><feColorMatrix values="1 0 0 0 0 0 1 0 0 0 0 0 1 0 0 0 0 0 1 0"/></filter></defs><mask id="mask-9_00000003815308830816734220000012057425190026225848_" width="6" height="6.6" x="0" y="0" maskUnits="userSpaceOnUse"><g style="filter:url(#Adobe_OpacityMaskFilter_00000064334655208733307150000001637460838556969617_)"><path id="path-8_00000005983369458558847800000016417019160303011238_" d="M.9 6.6C3.2 7.4 6 2 6 2L1.7 0S-1.5 5.7.9 6.6" class="st2"/></g></mask><linearGradient id="Fill-11backup_00000156581461884705000930000008746274966579619470_" x1="-173.151" x2="-173.448" y1="340.364" y2="339.864" gradientTransform="matrix(5.9936 0 0 -6.6447 1040.485 2264.73)" gradientUnits="userSpaceOnUse"><stop offset="0" style="stop-color:#44c423"/><stop offset="1" style="stop-color:#abe13d"/></linearGradient><path id="Fill-11backup" d="M.9 6.6C3.2 7.4 6 2 6 2L1.7 0S-1.5 5.7.9 6.6" style="mask:url(#mask-9_00000003815308830816734220000012057425190026225848_);fill:url(#Fill-11backup_00000156581461884705000930000008746274966579619470_)"/></g></g><g transform="translate(11.272 40.737)"><g id="Fill-13-Clipped"><defs><filter id="Adobe_OpacityMaskFilter_00000003069433718716329610000008652809493310727300_" width="5.6" height="6.9" x="0" y="0" filterUnits="userSpaceOnUse"><feColorMatrix values="1 0 0 0 0 0 1 0 0 0 0 0 1 0 0 0 0 0 1 0"/></filter></defs><mask id="mask-12_00000065770954105195124670000017287811827783251083_" width="5.6" height="6.9" x="0" y="0" maskUnits="userSpaceOnUse"><g style="filter:url(#Adobe_OpacityMaskFilter_00000003069433718716329610000008652809493310727300_)"><path id="path-11_00000061435198760947824570000010453543061394254226_" d="M0 2.6s2.4 4.9 4.7 4.1C7.1 6 4.1 0 4.1 0L0 2.6z" class="st2"/></g></mask><path id="Fill-13" d="M0 2.6s2.4 4.9 4.7 4.1C7.1 6 4.1 0 4.1 0L0 2.6z" style="mask:url(#mask-12_00000065770954105195124670000017287811827783251083_);fill:none"/></g><g id="Fill-13backup-Clipped"><defs><filter id="Adobe_OpacityMaskFilter_00000010270697111002461440000012233789062492630455_" width="5.6" height="6.9" x="0" y="0" filterUnits="userSpaceOnUse"><feColorMatrix values="1 0 0 0 0 0 1 0 0 0 0 0 1 0 0 0 0 0 1 0"/></filter></defs><mask id="mask-14_00000004509061990701478750000004517244679479217843_" width="5.6" height="6.9" x="0" y="0" maskUnits="userSpaceOnUse"><g style="filter:url(#Adobe_OpacityMaskFilter_00000010270697111002461440000012233789062492630455_)"><path id="path-13_00000085944586674541922860000015254222348383147657_" d="M0 2.6s2.4 4.9 4.7 4.1C7.1 6 4.1 0 4.1 0L0 2.6z" class="st2"/></g></mask><linearGradient id="Fill-13backup_00000004526788105091985330000012433176336269637048_" x1="-162.017" x2="-161.737" y1="342.775" y2="342.054" gradientTransform="matrix(5.6239 0 0 -6.8546 913.395 2351.092)" gradientUnits="userSpaceOnUse"><stop offset="0" style="stop-color:#44c423"/><stop offset="1" style="stop-color:#abe13d"/></linearGradient><path id="Fill-13backup" d="M0 2.6s2.4 4.9 4.7 4.1C7.1 6 4.1 0 4.1 0L0 2.6z" style="mask:url(#mask-14_00000004509061990701478750000004517244679479217843_);fill:url(#Fill-13backup_00000004526788105091985330000012433176336269637048_)"/></g></g><g transform="translate(.023)"><path id="Stroke-15" d="M22.2 41.2s-3.1 5.7-.8 6.6c2.3.8 4.6-3.7 4.6-3.7" class="st8"/><path id="Stroke-17" d="M15.3 40.9s2.7 5.7.7 6.6c-2.1.9-4.2-3.6-4.2-3.6" class="st8"/><path id="Fill-19" d="M17.4 5.2S20.9-.3 23.9.4c3 .7 2.5 6 2.5 6l-9-1.2z" style="fill:#d39e1d"/><path id="Fill-21" d="M17.4 5.2s4.3-7 6.5-4.8c1 1 0 5.2 0 5.2l-6.5-.4z" class="st4"/><path id="Stroke-23" d="M17.4 5S20.9-.5 23.9.2c3 .7 2.5 6 2.5 6l-9-1.2z" class="st18"/><path id="Fill-25" d="M38.9 23.8c0 9.6-8.4 15.3-19.2 15.3C8.8 39 0 32.9 0 23.3 0 13.8 8.2 5 19.6 5c10.9 0 19.3 9.2 19.3 18.8" class="st0"/></g><g id="Fill-27-Clipped" transform="translate(.023 5.02)"><defs><filter id="Adobe_OpacityMaskFilter_00000099623748466705633640000010173218490167482791_" width="38.9" height="30.8" x="0" y="0" filterUnits="userSpaceOnUse"><feColorMatrix values="1 0 0 0 0 0 1 0 0 0 0 0 1 0 0 0 0 0 1 0"/></filter></defs><mask id="mask-17_00000046335377197258898680000016933871070991078585_" width="38.9" height="30.8" x="0" y="0" maskUnits="userSpaceOnUse"><g style="filter:url(#Adobe_OpacityMaskFilter_00000099623748466705633640000010173218490167482791_)"><path id="path-16_00000068657119389546762670000015515162349296264365_" d="M0 16.6c0 8.7 8.8 14.2 19.6 14.2S38.8 25.6 38.8 17c0-8.7-8.4-17-19.2-17C8.2 0 0 7.9 0 16.6" class="st2"/></g></mask><linearGradient id="Fill-27_00000005968605898077887190000008346607933670793111_" x1="-177.52" x2="-177.612" y1="423.459" y2="422.889" gradientTransform="matrix(38.8608 0 0 -30.799 6920.365 13047.195)" gradientUnits="userSpaceOnUse"><stop offset="0" style="stop-color:#b6e43f"/><stop offset="1" style="stop-color:#44c323"/></linearGradient><path id="Fill-27" d="M0 16.6c0 8.7 8.8 14.2 19.6 14.2S38.8 25.6 38.8 17c0-8.7-8.4-17-19.2-17C8.2 0 0 7.9 0 16.6" style="mask:url(#mask-17_00000046335377197258898680000016933871070991078585_);fill:url(#Fill-27_00000005968605898077887190000008346607933670793111_)"/></g><g transform="translate(0 4.904)"><path id="Fill-29" d="M34.6 20.1s-2 .1-3.8-.6c-2.1-.7-6.6-3.7-11.6-4.1-6.9-.4-9.6 1.8-13.2 2-2.5.1-2.9-.2-2.9-.2s3.6 5.3 14.8 6.7c11.2 1.5 16.7-3.8 16.7-3.8" style="fill:#c13636"/><path id="Fill-31" d="M16.7 15.5s.2 2.9 2.3 3.1c2.1.2 2.8-2.6 2.8-2.6s-2.6-.7-5.1-.5" class="st22"/><path id="Fill-33" d="M15.7 15.7s.2 2.7-1.7 3c-1.9.4-2.8-2.3-2.8-2.3s2.4-.9 4.5-.7" class="st22"/><path id="Fill-35" d="M10 16.7s.5 1.9-1 2.4c-1.6.4-2.4-1.2-2.4-1.2S8 16.8 10 16.7" class="st22"/><path id="Fill-37" d="M27 17.9s-1.5 2.2-3.2 1.5c-1.8-.7-1.1-3.1-1.1-3.1s2.1-.1 4.3 1.6" class="st22"/><path id="Fill-39" d="M31.2 19.9s-1.4 1.4-2.6.9c-1.1-.5-.9-2.5-.9-2.5s2.2.1 3.5 1.6" class="st22"/><path id="Stroke-41" d="M34.6 20.1s-2 .1-3.8-.6c-2.1-.7-6.6-3.7-11.6-4.1-6.9-.4-9.6 1.8-13.2 2-2.5.1-2.9-.2-2.9-.2s2.4 5.3 13.6 6.7c11.2 1.5 17.9-3.8 17.9-3.8z" class="st8"/><path id="Stroke-43" d="M38.9 18.7c0 9.6-8.4 15.3-19.2 15.3C8.8 34 0 27.9 0 18.3 0 8.8 8.2 0 19.6 0c10.9 0 19.3 9.2 19.3 18.7z" class="st18"/><path id="Stroke-45" d="M16.5 15.6s.4 2.9 2.5 3.1c2.1.2 3-2.6 3-2.6" class="st8"/><path id="Stroke-47" d="M10.8 16.6s1.2 2.5 3 2.1c1.9-.4 1.9-3 1.9-3" class="st8"/><path id="Stroke-49" d="M10 16.6s.5 1.9-1 2.4c-1.6.4-2.4-1.2-2.4-1.2" class="st8"/><path id="Stroke-51" d="M22.4 16.2s-.5 2.4 1.3 3.1c1.8.7 3.2-1.5 3.2-1.5" class="st8"/><path id="Stroke-53" d="M27.5 18.2s-.2 1.9.9 2.5c1.7.9 2.8-.9 2.8-.9" class="st8"/><path id="Fill-55" d="M34.6 7.7c1.5 3.2.5 6.9-2.3 8.2-2.8 1.4-6.4-.1-7.9-3.3-1.5-3.2-.5-6.9 2.3-8.2 2.8-1.4 6.4.1 7.9 3.3" class="st22"/><path id="Stroke-57" d="M34.6 7.7c1.5 3.2.5 6.9-2.3 8.2-2.8 1.4-6.4-.1-7.9-3.3-1.5-3.2-.5-6.9 2.3-8.2 2.8-1.4 6.4.1 7.9 3.3z" class="st18"/><path id="Fill-59" d="M31.5 9.2c1.4 2.8.9 5.9-1.1 6.8-1.9.9-4.6-.6-6-3.4-1.4-2.8-.9-5.9 1.1-6.8 1.9-1 4.6.6 6 3.4" class="st23"/><path id="Stroke-61" d="m24.2 5.8 5.9-3.1" class="st24"/><path id="Fill-63" d="M5.1 6.3c-1.5 3.2-.5 6.9 2.3 8.2 2.8 1.4 6.3-.1 7.9-3.3 1.6-3.2.5-6.9-2.3-8.3s-6.3.2-7.9 3.4" class="st22"/><path id="Stroke-65" d="M5.1 6.3c-1.5 3.2-.5 6.9 2.3 8.2 2.8 1.4 6.3-.1 7.9-3.3 1.6-3.2.5-6.9-2.3-8.3s-6.3.2-7.9 3.4z" class="st18"/><path id="Fill-67" d="M8.3 7.8c-1.4 2.8-.9 5.9 1.1 6.8 1.9.9 4.6-.6 6-3.4 1.4-2.8.9-5.9-1.1-6.8-2-1-4.7.6-6 3.4" class="st23"/><path id="Stroke-69" d="M15.5 4.4 9.7 1.3" class="st24"/><path id="Fill-71" d="M28.9 9.7c.1.4 1.1.5 2.1.2s1.7-1 1.6-1.4c-.1-.4-1.1-.5-2.1-.2s-1.8 1-1.6 1.4" class="st22"/><path id="Fill-73" d="M10.8 9.7c-.1.4-1.1.5-2.1.2S7 8.9 7.1 8.5c.1-.4 1.1-.5 2.1-.2s1.8 1 1.6 1.4" class="st22"/><path id="Fill-75" d="M18.3 12.2c-.1.1-.4.1-.5 0s-.2-.4-.1-.5c.1-.1.4-.1.5 0 .1.2.2.4.1.5" class="st23"/><path id="Fill-77" d="M21 12.2c.1.1.4.1.5 0s.2-.4.1-.5c-.1-.1-.4-.1-.5 0-.1.2-.2.4-.1.5" class="st23"/><path id="Stroke-87" d="M28.1 40.6s4.1.4 1.9 4.2" class="st8"/></g></g></g></g></svg>