<svg fill="#000000" xmlns="http://www.w3.org/2000/svg"  viewBox="0 0 50 50" width="50px" height="50px"><path d="M 37.523438 5.9570312 C 36.361328 5.9970703 35.220703 6.3222656 34.189453 6.9160156 L 31.998047 8.1855469 L 31.998047 20.046875 C 31.998047 23.906875 28.858047 27.046875 24.998047 27.046875 C 23.138047 27.046875 21.378828 26.325859 20.048828 25.005859 C 18.718828 23.665859 17.998047 21.906875 17.998047 20.046875 L 17.998047 8.1855469 L 15.808594 6.9257812 C 14.158594 5.9657813 12.229141 5.7053125 10.369141 6.1953125 C 8.5191406 6.6953125 6.9697656 7.886875 6.0097656 9.546875 C 5.3797656 10.636875 5.0488281 11.876953 5.0488281 13.126953 C 5.0488281 15.676953 6.4186719 18.065469 8.6386719 19.355469 C 14.298672 22.625469 17.818359 28.715859 17.818359 35.255859 L 17.818359 36.865234 C 17.818359 38.785234 18.569922 40.585313 19.919922 41.945312 C 21.239922 43.265313 22.999375 44.016875 24.859375 44.046875 L 24.978516 44.046875 C 26.798516 44.046875 28.548438 43.316328 29.898438 41.986328 C 31.348437 40.566328 32.179687 38.595703 32.179688 36.595703 L 32.179688 35.255859 C 32.179688 31.985859 33.058438 28.826172 34.648438 26.076172 C 36.238437 23.326172 38.529375 20.985469 41.359375 19.355469 C 43.019375 18.385469 44.208984 16.836328 44.708984 14.986328 C 45.198984 13.136328 44.938281 11.206875 43.988281 9.546875 C 43.028281 7.886875 41.479141 6.6953125 39.619141 6.1953125 C 38.925391 6.0115625 38.220703 5.9330078 37.523438 5.9570312 z M 24.998047 7.046875 C 23.358047 7.046875 21.898281 7.8364062 20.988281 9.0664062 C 20.368281 9.8964063 19.998047 10.926875 19.998047 12.046875 L 19.998047 20.046875 C 19.998047 21.426875 20.558984 22.675937 21.458984 23.585938 C 22.368984 24.485938 23.618047 25.046875 24.998047 25.046875 C 27.758047 25.046875 29.998047 22.806875 29.998047 20.046875 L 29.998047 12.046875 C 29.998047 10.926875 29.629766 9.8964063 29.009766 9.0664062 C 28.099766 7.8364063 26.638047 7.046875 24.998047 7.046875 z"/></svg>